P2
46 56
15
3 3 3 3 3 3 2 3 3 4 2 2 2 2 2 3 2 2 2 3 3 3 4 2 2 2 2 3 2 3 3 2 4 3 3 3 3 3 2 3 2 2 2 2 3 2
3 3 3 3 3 3 4 3 3 6 2 2 2 2 3 3 3 4 5 5 6 6 6 5 5 4 3 3 3 3 2 2 2 3 3 3 3 4 3 3 3 3 3 3 3 2
3 3 3 3 2 2 2 2 2 2 3 2 2 2 3 6 6 7 7 7 7 7 7 7 6 5 5 4 3 3 3 2 2 2 3 2 3 3 4 3 3 3 3 3 3 2
3 3 3 3 2 2 2 3 2 2 2 2 3 5 6 6 7 8 8 8 7 8 7 7 7 7 6 6 5 5 3 4 2 3 3 2 3 3 4 3 3 3 3 3 3 3
3 3 3 3 2 3 2 2 2 2 2 4 6 6 6 7 7 7 8 8 8 7 7 7 7 7 6 6 6 6 5 5 5 2 3 3 3 2 3 3 3 4 4 3 3 3
5 3 4 3 3 3 2 3 2 3 6 7 6 6 7 7 8 8 8 8 8 8 8 7 8 7 7 7 6 6 6 5 5 3 2 3 2 3 3 3 4 3 3 4 3 3
4 3 3 3 3 2 3 2 3 7 7 7 7 8 9 9 8 8 8 9 9 8 8 8 8 8 7 8 7 7 7 6 6 6 5 3 2 2 2 3 3 3 3 4 3 3
3 3 3 3 2 3 2 3 7 7 8 8 8 9 9 9 9 9 9 9 9 9 9 9 8 9 8 8 8 8 8 8 6 6 6 5 3 3 3 2 2 3 3 3 3 4
5 5 2 2 3 2 3 6 8 8 9 9 10 10 10 10 10 10 9 9 10 10 9 9 9 9 9 9 8 8 8 9 8 7 7 7 6 3 3 2 3 4 3 3 4 3
4 4 4 2 3 3 7 8 9 9 10 9 10 11 11 11 11 11 11 10 11 10 10 10 10 10 11 9 9 9 9 9 9 8 8 7 7 6 4 2 2 4 3 3 3 3
4 4 3 3 3 5 8 9 9 9 10 10 10 11 11 11 12 11 11 11 11 11 11 11 11 10 10 10 10 9 9 9 9 9 9 8 7 7 5 2 2 3 3 3 3 3
4 3 4 4 5 8 9 10 10 10 10 11 11 11 11 11 11 11 12 11 12 11 11 11 11 10 10 10 9 10 10 9 10 10 9 8 7 7 7 4 4 3 4 3 2 5
4 3 3 4 6 9 9 10 11 10 11 11 12 11 11 11 11 11 11 11 11 11 11 11 11 11 10 10 10 10 10 10 10 10 8 9 8 8 7 6 4 3 3 4 2 4
2 4 4 4 7 10 10 11 11 11 11 11 11 11 11 11 11 11 11 11 11 10 10 10 11 10 10 10 10 10 10 10 10 10 9 9 9 9 8 6 4 2 3 3 3 4
5 3 4 4 8 10 10 11 12 11 11 11 12 12 12 11 11 11 11 11 11 10 10 10 11 10 10 10 10 10 10 10 10 10 10 9 10 10 8 8 8 5 6 4 3 4
4 2 4 5 8 10 11 12 12 11 11 11 11 11 11 11 11 11 11 11 11 11 10 10 11 10 10 10 10 10 10 10 10 10 10 9 10 10 9 9 7 4 4 6 2 3
4 5 4 5 8 10 11 12 12 11 10 9 9 7 7 8 8 8 9 9 11 11 11 10 12 11 11 10 10 9 8 9 9 8 8 9 9 10 11 10 7 5 6 6 3 5
4 3 4 4 8 11 11 12 10 7 6 7 6 5 5 3 4 4 5 8 9 11 11 10 11 11 10 9 6 6 4 4 4 4 5 6 7 9 11 10 8 5 6 3 2 5
4 4 4 4 8 9 11 11 8 5 6 5 2 4 3 3 4 5 7 6 8 10 10 9 11 10 8 8 6 4 3 3 2 2 2 3 5 6 10 10 9 5 4 3 2 8
3 3 5 3 10 10 11 10 7 6 7 8 9 11 10 9 8 7 6 5 9 10 10 10 9 10 9 7 13 9 7 7 7 8 6 5 5 3 5 10 10 5 6 4 2 8
7 3 2 6 10 10 12 4 8 10 10 9 8 8 7 7 6 6 7 6 6 11 11 11 10 11 12 7 7 9 8 7 6 6 6 8 7 6 5 5 8 6 5 5 3 7
6 7 4 4 10 11 7 8 9 10 11 11 10 8 7 6 6 6 7 6 5 9 10 5 5 2 7 7 5 8 8 9 10 10 9 9 9 9 6 6 5 7 6 6 4 6
7 7 4 2 10 8 6 8 8 10 10 4 5 3 5 2 3 5 6 7 7 4 10 11 9 10 6 4 6 7 7 3 6 4 5 8 10 10 7 5 9 5 8 4 5 6
8 5 5 2 6 1 5 6 8 7 6 9 9 7 7 6 7 9 9 8 11 3 12 10 9 9 4 6 6 7 11 4 2 4 7 2 5 8 6 4 4 2 12 2 5 4
5 6 3 1 11 11 6 10 11 8 12 12 11 10 9 9 9 9 9 11 10 10 11 9 9 11 2 5 10 11 11 9 9 8 10 10 8 6 10 9 11 12 3 5 6 6
5 5 3 6 12 11 4 10 11 12 11 12 12 11 9 8 7 8 10 10 5 12 10 10 9 11 7 6 8 8 9 10 11 10 10 12 11 8 8 10 12 13 1 3 4 8
5 4 4 9 11 10 3 10 12 12 12 11 11 10 11 11 10 10 11 12 8 11 10 10 10 11 10 3 9 10 9 8 8 8 9 10 11 11 11 11 9 13 2 4 4 7
5 5 3 9 11 11 10 11 12 12 12 12 12 11 12 11 11 12 11 5 11 11 11 11 10 11 11 5 11 11 11 11 11 11 11 11 11 11 11 11 3 11 5 4 4 6
8 4 5 10 10 12 12 3 12 12 12 12 12 11 11 11 11 11 8 12 11 11 11 11 10 10 10 8 6 11 11 11 11 11 11 11 11 11 12 9 12 11 5 4 5 4
10 4 5 9 10 12 12 11 11 9 10 12 11 10 11 11 11 6 11 12 11 12 11 12 10 10 10 9 9 8 5 7 8 9 9 8 6 6 9 12 12 10 7 5 8 5
11 6 4 9 11 11 12 12 11 11 11 11 11 11 11 11 12 10 11 11 11 12 12 12 11 10 10 10 10 9 10 8 7 6 7 8 10 11 11 12 12 10 8 5 8 3
10 5 3 8 11 11 12 12 12 12 12 12 12 11 11 11 9 7 12 12 12 12 12 11 10 10 11 11 10 9 9 10 10 10 11 11 11 12 11 11 11 10 8 4 10 4
12 4 4 8 11 12 12 12 12 12 12 12 11 11 10 9 8 9 12 11 10 10 9 9 9 8 8 8 10 9 8 9 9 10 10 11 12 12 12 11 11 10 7 5 5 6
10 5 5 8 11 11 12 12 12 12 12 12 11 10 9 8 9 11 8 4 5 5 9 7 5 6 2 2 6 4 8 8 9 9 10 10 11 12 11 11 12 11 7 4 6 4
6 5 6 6 11 11 12 12 12 11 11 11 10 9 8 8 10 11 10 10 10 7 6 5 5 5 6 7 7 8 9 8 9 9 9 10 10 12 11 11 11 11 5 5 5 3
2 8 6 5 11 10 12 11 12 12 11 10 9 8 7 10 12 11 11 10 7 7 6 4 4 5 6 6 8 10 11 8 7 8 9 8 10 11 10 11 11 10 4 5 5 2
3 5 6 5 10 10 11 12 12 12 10 10 9 7 9 10 10 10 9 8 6 7 6 5 6 6 6 3 5 8 9 9 7 7 9 8 9 10 11 11 10 10 5 5 5 2
3 5 7 6 10 10 11 11 11 11 10 9 8 7 8 9 7 7 8 5 6 7 5 5 6 4 6 6 4 6 7 7 7 6 8 8 9 9 10 10 10 10 5 4 5 2
4 4 6 5 8 9 11 11 12 11 9 8 9 7 6 5 7 5 6 7 5 5 3 6 6 4 4 4 6 3 5 5 6 7 6 8 9 9 10 9 9 9 4 3 4 2
3 6 5 5 5 8 11 10 11 10 8 10 7 6 4 4 4 6 7 6 5 4 4 5 5 5 5 4 4 5 5 3 2 5 4 9 8 10 9 9 9 7 4 3 4 2
3 3 6 6 5 6 8 8 11 9 7 10 6 5 4 2 3 3 3 2 2 4 3 2 4 3 1 1 1 1 1 2 2 4 5 8 7 8 7 7 7 4 4 3 3 2
3 3 4 4 4 4 5 7 7 7 7 10 5 5 4 8 9 9 10 10 9 8 8 7 8 7 8 8 11 7 6 5 6 6 5 6 6 7 7 6 5 6 3 3 2 2
2 3 4 4 4 3 5 5 4 6 6 8 6 3 6 9 10 10 11 10 10 10 10 9 9 8 8 9 10 10 7 7 7 4 3 5 7 4 5 5 5 4 4 3 2 2
3 3 3 4 4 3 4 4 4 5 5 6 6 3 8 9 11 10 10 8 9 9 8 8 7 7 8 8 9 9 9 7 7 4 4 5 6 4 4 3 5 3 3 2 2 2
3 3 3 5 4 3 4 2 4 4 4 5 3 4 8 9 10 11 9 8 8 8 7 8 7 6 8 7 7 8 8 7 5 4 3 4 4 3 3 3 3 2 2 2 2 2
3 3 2 4 2 3 3 4 4 2 3 3 3 5 6 8 9 8 8 7 8 6 7 4 3 5 6 6 5 7 7 6 4 3 3 3 2 2 3 2 3 3 3 2 2 2
2 3 3 3 3 3 4 3 3 2 3 3 4 4 4 6 6 8 8 8 8 7 6 5 4 3 6 4 6 7 6 6 4 3 2 3 4 3 2 3 3 3 3 2 2 2
3 3 3 3 4 3 2 3 2 3 2 2 2 4 4 6 5 6 7 8 9 9 8 6 7 7 7 8 8 8 7 5 4 3 2 2 4 2 1 2 3 3 2 2 2 2
3 3 2 2 2 3 2 3 3 2 3 2 3 2 4 3 5 5 5 6 8 7 8 7 6 7 9 9 6 6 5 5 6 4 4 3 4 1 2 2 3 2 2 2 2 2
3 3 3 2 3 2 2 3 3 1 2 3 1 2 4 5 4 5 3 6 7 6 7 7 5 6 6 6 5 6 5 5 5 2 1 2 2 2 3 3 2 2 3 2 2 2
3 3 2 2 5 2 4 2 2 2 3 2 2 3 2 4 3 5 5 4 5 4 5 4 4 5 5 5 4 7 7 3 2 3 2 2 2 2 2 2 2 2 2 2 2 2
3 3 2 6 2 2 3 1 4 4 2 2 2 3 4 4 2 3 5 3 4 3 3 4 4 3 3 4 7 5 5 4 5 3 2 2 3 2 1 3 2 2 2 2 1 1
3 3 2 7 1 1 1 2 6 3 2 3 2 4 3 2 3 1 4 3 3 3 2 3 2 3 2 4 3 3 4 2 2 2 1 1 5 3 1 2 4 3 2 2 2 2
7 6 6 6 1 1 0 1 7 6 4 2 4 2 3 1 3 3 3 2 1 2 2 3 2 1 2 5 4 3 2 2 2 3 1 6 7 2 1 1 5 4 5 4 5 5
6 4 9 5 2 1 0 0 8 7 6 3 2 2 3 4 2 1 3 1 2 2 2 1 2 3 2 2 4 3 4 4 2 5 5 7 7 1 0 1 4 6 5 4 5 6
6 3 9 6 4 1 1 1 6 8 8 6 5 3 2 3 2 3 3 1 1 1 2 1 2 1 3 2 3 3 4 4 4 6 7 7 7 0 1 1 3 7 5 4 5 6
