P2
46 56
255
41 40 40 36 37 38 38 39 41 41 41 37 35 43 53 83 103 107 95 108 105 93 103 98 97 106 100 92 76 72 61 65 62 37 37 46 41 41 39 37 34 35 32 34 31 31 
36 39 40 41 39 38 41 37 34 41 40 44 55 88 101 90 107 107 96 106 99 75 75 70 87 68 77 88 98 99 86 83 94 61 66 74 48 41 49 39 34 34 34 32 35 34 
36 38 39 41 42 38 42 41 38 42 42 72 112 106 101 94 98 106 84 70 74 82 80 79 73 66 80 77 85 93 95 107 91 87 81 74 83 60 44 35 41 36 34 36 32 36 
39 41 44 41 37 38 41 34 43 64 105 107 96 99 90 97 95 88 89 74 73 84 89 80 87 102 91 101 119 118 113 112 118 118 114 96 92 79 36 32 46 33 38 36 33 31 
42 39 45 39 39 40 43 38 96 122 111 101 101 101 93 80 81 77 88 84 88 94 109 127 118 120 122 124 121 128 130 113 114 106 115 138 123 94 43 43 58 35 39 38 32 33 
37 38 44 41 41 41 53 129 124 105 94 91 106 76 83 80 85 88 85 88 119 125 119 115 108 121 133 117 118 105 90 78 69 91 85 108 102 114 100 46 60 39 39 33 43 30 
37 43 42 44 42 74 139 111 100 101 87 100 75 92 69 94 96 97 112 117 101 97 81 94 97 113 81 76 69 50 49 55 65 77 67 89 81 105 111 75 45 40 37 58 49 50 
48 40 40 45 98 118 92 81 90 101 102 83 90 92 90 106 111 113 98 95 127 82 92 92 84 54 57 65 62 57 69 70 79 78 79 89 104 106 102 97 80 71 45 72 42 41 
43 37 61 95 101 90 89 102 97 97 93 96 99 99 127 113 95 84 116 132 103 91 59 51 50 47 69 62 75 76 84 98 97 96 99 86 86 104 104 95 74 50 51 52 36 34 
38 49 79 88 117 92 98 108 111 101 122 104 122 108 88 87 93 128 118 89 85 77 80 82 88 85 96 105 107 116 112 110 110 104 108 96 71 78 96 98 104 53 53 46 36 36 
52 49 106 123 101 109 103 119 120 147 121 112 78 86 83 102 129 128 67 100 121 115 116 120 121 128 140 144 139 151 148 142 140 127 118 112 94 63 83 106 93 95 59 46 45 36 
38 107 117 106 124 121 114 133 141 103 85 74 75 74 121 126 106 100 123 124 132 150 159 157 152 152 153 156 157 163 160 162 159 149 151 134 125 87 73 98 109 86 73 44 53 36 
117 119 125 137 118 141 154 127 89 95 65 75 109 111 90 114 97 116 126 147 161 166 174 174 166 163 150 162 159 163 160 164 163 159 153 155 148 126 97 112 108 107 67 64 45 36 
118 139 115 126 158 126 141 90 87 72 109 107 104 64 124 114 121 136 151 169 173 176 177 166 170 163 149 164 162 162 163 166 166 161 158 149 156 148 128 108 111 121 54 83 51 42 
147 149 148 136 125 150 90 100 131 116 79 122 60 142 111 129 142 164 168 171 174 180 175 167 165 159 159 160 164 159 163 165 165 164 158 160 160 158 138 106 114 107 104 55 57 44 
156 154 136 154 147 74 150 125 91 114 94 86 130 116 131 149 166 181 178 181 179 179 174 180 171 166 162 144 161 156 162 166 169 158 161 156 161 157 145 123 136 97 88 63 58 41 
177 141 169 124 125 147 120 87 104 86 104 117 115 138 146 175 185 178 183 187 183 180 176 182 178 171 167 162 168 160 160 162 162 163 160 158 158 161 156 136 123 131 91 71 46 38 
150 173 157 152 96 106 113 88 87 85 121 127 137 160 175 195 182 191 187 179 165 170 174 177 174 165 171 170 167 163 157 167 166 166 166 168 174 164 163 134 125 152 109 76 59 39 
197 175 103 106 117 120 101 72 108 124 122 126 155 183 200 194 187 183 183 149 137 126 135 138 145 155 159 164 165 164 165 171 165 164 165 175 179 170 164 153 134 144 131 65 55 45 
177 102 120 122 142 106 90 107 120 125 114 154 171 199 201 183 194 181 155 154 138 128 103 96 81 97 115 141 160 165 164 167 169 161 168 188 180 169 139 134 122 128 85 94 56 38 
122 147 115 134 106 87 109 118 128 127 143 171 199 207 213 205 193 176 171 176 174 149 140 122 118 115 107 118 146 155 163 162 170 159 172 163 117 105 94 134 123 146 138 123 46 39 
156 147 128 113 110 105 98 124 124 144 161 184 206 204 195 196 175 182 166 156 148 128 125 118 121 117 115 123 137 148 163 157 154 164 159 119 107 126 154 189 155 136 154 113 48 42 
137 158 122 102 88 86 105 132 138 150 176 203 203 207 205 204 187 176 137 131 115 154 162 158 154 137 119 110 134 149 162 156 169 167 136 137 148 156 162 175 167 118 143 83 92 42 
149 141 108 102 65 107 122 142 134 166 183 209 206 204 205 198 184 143 135 168 191 179 151 146 136 148 128 105 113 166 168 164 172 161 133 171 169 172 182 170 163 105 131 119 135 35 
174 125 122 37 116 107 129 140 147 172 189 206 204 205 200 196 177 117 185 186 110 106 84 101 111 108 120 107 112 153 185 174 176 134 136 133 117 119 146 190 146 119 124 81 64 56 
131 116 32 119 93 126 112 135 151 171 198 205 197 207 194 186 150 181 172 89 42 70 47 121 65 96 127 134 125 145 192 187 172 145 117 63 53 44 113 102 151 124 111 89 46 57 
131 128 64 113 105 100 109 127 162 185 203 201 204 207 198 181 157 193 103 121 104 113 99 118 112 109 127 164 130 168 193 193 161 170 62 95 55 92 199 26 135 113 117 91 58 62 
120 102 133 83 100 103 106 128 164 202 203 207 206 201 190 169 149 154 192 187 172 158 153 164 146 126 129 146 147 175 199 193 177 152 145 140 146 139 136 153 128 120 109 62 59 68 
143 76 94 117 99 96 110 124 170 202 208 208 207 201 185 180 178 186 180 176 175 159 152 126 136 139 144 152 165 172 199 195 199 178 164 151 143 165 178 176 143 100 98 64 54 56 
122 128 124 62 82 108 117 144 189 204 205 206 210 208 194 183 189 182 171 169 165 169 158 151 137 156 171 161 174 186 201 193 191 185 177 160 166 169 165 168 166 99 95 47 51 60 
156 143 69 70 115 103 105 159 200 205 204 206 208 205 204 188 182 170 166 172 165 175 164 160 156 158 168 175 177 190 197 192 182 182 192 157 175 166 179 165 175 120 78 49 42 49 
112 118 42 107 76 94 92 160 199 206 199 201 204 204 204 192 173 185 175 184 180 173 166 152 152 163 171 174 173 191 189 186 184 178 191 165 150 166 172 170 174 157 63 46 45 44 
143 78 93 64 105 90 104 140 190 198 199 198 201 204 202 189 180 182 181 178 180 180 170 162 156 156 153 127 174 183 185 194 186 176 159 158 156 169 157 166 165 157 96 78 46 43 
196 91 65 24 131 102 103 134 180 192 192 194 195 199 196 191 186 183 182 174 164 182 182 166 151 149 134 112 198 196 188 156 146 134 129 127 155 171 171 172 164 152 97 75 42 44 
154 157 68 107 117 118 101 122 154 185 187 190 185 197 194 194 183 185 179 177 175 165 155 148 136 124 123 103 185 115 42 58 96 120 84 107 128 148 168 177 170 144 113 82 40 44 
154 113 81 97 42 115 101 133 138 168 190 188 185 190 187 187 184 180 175 179 162 151 140 133 124 93 130 139 87 88 64 85 113 124 85 108 105 129 148 187 170 141 150 39 39 42 
208 89 164 55 60 85 103 116 132 174 185 187 184 188 164 178 183 178 177 164 152 137 130 123 103 121 133 127 124 124 137 108 65 98 123 109 92 113 133 161 159 129 178 26 50 41 
186 111 120 103 161 106 80 100 149 170 175 185 184 183 181 179 174 170 176 150 149 123 120 112 90 135 140 137 146 142 145 144 97 113 116 122 109 101 116 139 142 129 163 32 71 38 
195 107 107 77 106 108 77 96 141 159 177 189 180 184 177 176 168 166 156 144 132 120 109 74 131 130 129 137 144 153 156 140 147 141 122 109 150 92 105 128 138 123 157 77 56 42 
180 106 123 105 101 97 115 49 120 151 191 182 180 181 181 180 159 165 152 132 135 110 103 94 118 125 148 135 112 104 90 94 99 130 128 123 141 125 106 129 138 112 165 77 71 37 
57 113 109 103 113 125 116 67 104 153 179 183 171 186 185 178 166 148 153 145 122 109 98 118 107 99 78 66 52 38 63 60 72 107 79 84 133 135 135 147 139 118 141 73 48 39 
79 155 103 129 85 113 120 28 70 138 165 180 174 182 185 180 171 153 151 154 120 124 114 94 57 34 60 37 154 88 172 158 160 133 168 38 97 137 152 143 140 112 132 57 38 46 
124 104 93 109 128 44 33 37 35 117 167 169 177 175 182 184 175 155 147 159 128 130 124 104 28 29 102 60 138 69 154 147 153 133 171 39 126 130 156 135 126 85 99 48 38 44 
91 112 64 57 101 117 49 45 55 71 158 164 172 168 175 176 172 148 143 140 131 129 122 127 122 108 108 67 50 80 88 93 90 56 73 136 144 143 145 138 89 80 63 29 43 47 
124 93 122 101 59 99 105 60 60 52 133 153 164 167 173 178 178 146 129 139 140 130 116 131 144 139 130 138 151 154 121 115 123 126 137 130 150 143 146 155 57 112 76 32 38 52 
88 89 71 98 107 83 89 108 96 71 73 143 151 170 166 171 187 137 139 138 130 130 117 123 147 147 134 135 124 105 99 104 116 130 130 141 150 141 151 152 65 58 81 36 36 48 
26 107 89 57 81 85 59 69 99 80 47 111 131 161 163 166 167 132 148 135 125 128 115 135 144 137 143 136 124 103 96 96 106 114 119 139 151 140 145 89 85 27 61 39 34 48 
40 46 88 39 46 18 17 68 67 57 51 59 106 138 155 173 155 145 126 134 113 133 133 151 141 143 133 122 113 101 108 110 122 119 138 142 149 133 150 54 53 38 36 41 39 42 
35 38 42 41 32 15 22 118 98 87 71 73 85 114 148 161 139 141 128 130 110 139 142 148 145 139 129 125 114 118 123 123 137 137 142 142 148 141 141 30 25 58 33 37 48 39 
35 40 38 35 38 36 13 152 142 126 103 78 99 110 126 141 144 138 130 128 119 140 144 147 148 147 139 138 138 131 138 133 138 147 149 139 138 145 43 47 38 29 34 39 48 41 
38 40 38 39 33 36 16 147 155 154 130 103 118 124 130 137 121 128 117 111 117 132 141 136 145 143 143 133 140 137 135 125 127 147 149 134 130 110 26 45 33 30 33 41 40 41 
35 38 39 41 41 34 49 146 156 162 152 128 128 133 136 134 128 122 101 105 113 131 127 139 147 136 132 130 123 124 119 122 127 147 131 130 112 30 31 36 31 30 37 44 44 40 
36 38 32 37 33 37 100 153 159 159 166 153 142 133 139 130 128 135 131 104 114 123 116 127 131 129 119 119 103 98 97 105 113 116 119 124 19 31 32 30 31 28 38 40 41 40 
42 36 31 36 42 36 155 160 145 172 168 159 130 130 128 131 129 136 122 108 112 102 106 99 112 111 110 99 88 81 86 91 88 104 130 15 25 27 26 28 30 30 37 38 41 38 
38 38 38 36 36 22 175 152 130 164 174 161 150 117 103 120 133 139 115 115 97 92 95 99 90 94 97 77 73 74 64 81 94 106 24 25 30 29 28 30 28 31 36 38 40 36 
38 32 34 36 36 11 167 148 135 160 167 157 159 129 84 123 154 144 142 133 125 125 101 109 89 77 75 77 78 75 78 76 39 23 36 30 25 24 28 31 31 36 34 39 41 39 
