P2
46 56
255
37 37 38 36 37 38 33 36 37 38 37 30 32 83 98 114 111 102 107 103 107 108 102 88 76 93 79 69 71 38 33 31 40 33 37 35 32 32 31 31 38 30 36 34 30 31 
34 36 39 36 35 39 37 36 37 37 37 42 88 99 106 93 94 97 116 108 118 110 119 118 107 97 90 105 101 73 54 39 50 41 39 38 30 34 31 34 31 35 33 29 31 31 
35 40 35 34 37 37 34 38 35 38 43 85 107 95 111 122 116 113 107 116 115 108 111 126 125 123 122 116 106 103 84 57 60 34 35 34 33 32 32 50 34 34 35 36 34 32 
40 37 38 39 37 33 38 39 35 53 89 105 112 126 114 120 101 97 105 97 84 77 80 82 99 101 118 131 125 122 94 58 67 43 37 47 36 36 44 38 36 34 33 34 33 31 
39 38 37 38 36 40 44 50 41 114 115 129 125 115 124 87 77 67 70 69 67 58 56 40 73 82 79 74 111 112 118 98 91 65 43 36 39 41 44 39 41 34 44 36 34 33 
37 39 35 34 36 41 44 60 117 127 129 104 109 115 81 62 44 36 35 42 44 29 44 50 78 72 80 72 60 91 99 102 89 81 70 65 56 53 41 38 55 34 34 35 36 31 
38 39 40 36 41 40 74 126 136 104 124 109 115 86 21 26 21 29 33 38 70 51 61 65 87 76 95 86 93 107 103 91 97 101 95 77 75 61 42 44 48 42 36 35 41 34 
40 39 36 37 34 70 139 171 104 100 123 120 52 36 24 38 53 57 77 92 101 106 94 101 101 92 93 102 102 95 85 81 79 77 92 98 84 93 79 58 53 44 36 37 35 35 
39 38 38 37 54 113 150 106 111 141 107 52 48 47 74 107 119 126 138 144 139 142 136 129 129 127 118 116 107 110 113 105 89 69 72 102 89 83 94 88 57 52 44 37 34 33 
42 37 37 48 113 139 103 119 173 121 79 83 82 122 145 151 146 151 150 153 148 149 150 143 139 142 137 134 135 132 131 123 115 113 82 87 88 105 95 75 97 54 55 47 46 40 
40 46 69 124 142 97 135 174 128 114 81 106 154 173 176 171 165 154 156 161 156 156 155 152 155 153 149 146 141 144 138 136 133 124 119 101 108 93 104 86 81 83 56 48 66 35 
39 48 90 129 112 100 161 134 113 106 116 167 184 182 181 178 171 151 168 158 161 156 159 153 159 151 154 156 148 148 145 147 142 138 130 120 118 88 97 90 85 90 64 56 72 41 
40 86 87 143 117 115 138 116 103 119 186 187 192 188 179 176 171 161 166 164 157 161 161 162 158 154 155 157 155 151 151 148 144 147 141 142 121 103 91 125 100 101 58 61 50 54 
49 101 130 96 98 145 126 155 130 186 196 199 195 189 179 163 162 157 155 161 158 158 158 161 159 155 159 151 154 150 152 151 149 146 148 142 132 127 105 104 111 99 83 70 54 55 
101 105 89 134 116 108 168 95 169 200 201 203 199 193 187 181 171 159 146 156 149 153 158 159 162 158 159 147 151 151 153 153 151 155 154 145 141 131 113 129 108 112 81 74 56 46 
76 128 114 104 114 153 108 157 201 200 203 202 193 186 194 171 181 171 166 155 161 151 160 165 170 165 165 162 162 161 162 156 154 151 162 155 148 136 131 117 117 98 75 56 43 46 
136 84 139 93 146 175 123 189 203 204 197 193 184 192 193 177 181 178 176 176 168 159 175 170 179 172 173 162 164 161 160 153 150 144 145 155 147 141 132 136 142 118 110 72 67 54 
101 147 101 104 125 116 162 206 210 203 181 164 153 137 137 138 158 157 162 175 172 159 176 174 170 167 164 161 154 148 136 126 137 142 138 154 153 148 126 141 138 139 137 52 68 40 
138 106 96 130 145 119 186 201 210 181 179 172 176 157 135 116 124 124 138 174 162 145 170 173 166 154 151 126 103 96 88 89 109 135 125 131 154 152 129 148 149 140 140 66 83 47 
128 110 123 122 109 116 200 197 187 192 202 200 177 162 159 161 149 142 143 168 161 137 165 158 151 144 128 107 93 109 120 144 155 156 142 132 143 154 126 134 151 131 145 86 80 41 
80 110 109 127 86 154 205 198 187 213 199 182 143 151 151 167 163 161 162 177 172 159 162 154 144 140 119 123 130 143 146 142 145 146 163 160 139 153 134 143 155 142 145 82 114 48 
116 119 100 95 137 184 198 193 199 209 188 183 190 186 176 169 170 155 146 183 199 169 169 151 150 145 104 146 168 161 169 165 161 145 152 176 158 148 138 123 153 169 148 107 94 30 
126 68 114 119 126 200 198 189 201 188 180 205 197 170 142 132 142 157 132 162 207 186 171 152 170 84 130 155 140 125 155 170 162 166 156 166 171 143 143 112 148 174 153 104 88 54 
115 110 97 125 171 199 196 197 203 186 203 213 128 71 97 82 112 130 136 159 194 198 164 161 163 92 127 113 112 82 60 50 109 172 165 153 163 142 142 127 146 159 137 115 73 45 
97 106 122 157 179 202 198 201 202 196 191 85 97 61 90 71 77 100 160 171 188 183 155 147 152 129 125 82 80 46 50 54 110 85 168 156 164 138 139 122 125 168 136 114 58 49 
117 112 115 149 171 201 190 198 205 200 131 151 132 122 127 132 141 139 154 187 186 186 152 147 147 138 146 124 120 127 134 96 121 95 113 165 164 143 147 125 114 143 156 105 55 129 
133 81 175 133 164 203 192 195 200 188 186 199 193 184 183 153 151 156 172 175 185 185 163 156 148 151 141 142 137 130 150 146 163 153 139 145 167 145 150 138 122 149 146 116 76 83 
135 127 84 141 165 201 193 197 192 199 196 198 189 170 165 179 167 176 198 190 179 186 171 144 145 146 159 153 158 164 143 157 161 160 162 155 159 147 151 133 108 97 140 108 120 60 
117 160 94 139 153 199 195 200 201 197 194 194 191 181 178 172 185 190 188 197 174 185 175 150 139 167 160 160 159 150 166 158 156 155 161 160 160 156 150 97 102 55 149 131 137 70 
118 93 113 136 149 192 196 202 205 203 198 190 186 186 177 178 179 188 195 186 184 175 182 148 147 152 160 156 162 155 163 157 160 156 160 162 163 163 145 98 118 80 136 108 113 91 
161 51 135 99 157 192 196 199 205 207 202 193 184 178 178 180 175 191 179 185 187 169 142 145 170 146 125 154 165 156 151 155 157 157 159 172 165 164 142 127 102 68 138 91 125 119 
146 119 97 57 150 191 192 202 201 207 209 200 190 179 183 182 170 163 198 164 156 145 114 100 136 126 146 147 162 171 160 158 153 153 162 165 169 155 143 120 54 115 146 94 119 123 
145 52 94 63 113 197 188 199 197 207 204 200 197 185 174 168 149 136 188 59 20 143 87 96 41 42 150 119 144 167 148 160 154 161 161 172 179 155 146 72 77 61 150 98 120 126 
115 166 37 44 165 191 184 198 196 202 208 202 197 180 162 146 134 148 172 99 152 152 90 112 118 81 96 107 122 142 145 149 151 163 164 176 176 151 143 22 85 74 97 117 122 137 
122 70 60 44 190 166 177 195 192 193 206 202 187 163 153 127 113 174 174 168 161 127 58 82 131 126 105 118 100 125 134 136 145 168 179 169 165 145 134 115 102 81 51 115 104 139 
152 94 41 58 73 183 183 186 192 194 199 198 184 162 135 120 154 185 184 178 166 131 95 125 143 142 132 129 117 108 115 125 132 145 173 164 154 134 157 67 120 76 78 122 101 137 
148 134 27 61 51 191 182 182 189 190 179 183 167 147 126 124 188 178 175 171 168 153 141 141 139 134 136 132 128 110 109 117 120 144 157 155 148 127 119 78 116 83 97 124 107 128 
183 126 26 55 163 134 185 177 185 185 184 183 171 131 93 190 185 183 176 130 124 109 118 101 105 115 135 144 133 126 102 111 121 138 145 146 143 134 113 130 90 53 94 127 115 119 
138 106 37 66 102 137 172 180 184 183 181 183 147 153 139 164 182 125 101 73 76 93 84 80 54 71 93 123 157 127 101 103 122 138 142 149 146 135 135 121 129 51 108 128 117 118 
103 165 129 73 106 132 165 176 184 180 180 183 159 150 183 153 85 96 40 103 204 183 129 98 40 95 44 94 112 109 123 127 124 145 137 143 139 130 128 146 27 88 100 138 112 131 
57 147 118 22 106 158 133 183 182 174 184 188 171 147 140 83 45 40 79 171 191 163 184 133 119 201 118 15 33 105 112 135 123 138 135 148 131 126 159 84 27 104 104 130 105 126 
165 87 174 122 27 120 26 187 180 183 176 177 182 156 111 172 141 104 80 110 111 88 60 44 74 58 49 89 124 118 124 131 132 137 139 145 132 106 100 19 59 109 93 125 95 123 
90 89 88 164 99 28 19 174 176 189 181 170 173 147 138 184 165 154 158 162 137 143 131 128 112 105 114 131 138 108 133 128 128 130 138 142 135 32 23 19 104 99 97 134 94 110 
125 113 84 112 144 83 47 104 173 194 179 171 167 138 165 181 179 160 156 123 120 109 101 96 108 125 132 140 145 126 120 128 136 133 140 139 142 27 28 36 111 92 98 132 105 79 
85 95 134 86 124 127 104 54 172 174 178 163 160 148 167 173 171 166 150 130 107 105 90 96 107 117 138 129 144 131 125 123 137 134 141 131 127 56 39 64 97 99 91 112 107 76 
42 52 53 90 68 73 110 86 117 170 174 173 156 163 172 167 173 152 145 123 104 109 101 104 101 119 128 132 129 137 122 123 130 140 133 134 56 38 46 76 93 104 94 106 70 95 
38 35 43 55 37 42 37 17 52 175 168 166 156 164 170 178 167 160 144 144 143 132 132 122 118 118 127 131 136 136 132 126 135 135 134 87 35 41 44 94 96 92 125 75 74 103 
37 36 37 37 30 40 34 18 112 146 153 161 162 168 167 175 173 171 171 156 146 141 138 123 124 131 132 131 135 141 127 131 132 128 131 43 27 44 73 86 92 109 91 76 89 49 
37 34 36 34 32 36 33 24 152 165 137 141 151 158 161 170 174 169 171 155 143 137 136 123 121 130 135 133 135 138 130 126 127 122 20 49 39 63 87 82 101 90 72 87 52 43 
36 37 36 35 35 39 35 29 151 159 169 121 127 137 155 163 164 154 147 141 128 126 112 111 114 126 127 128 129 127 121 110 110 124 13 40 58 77 87 88 70 66 74 38 47 28 
35 36 34 33 34 37 35 33 153 161 165 169 139 127 144 145 148 141 126 116 108 102 91 92 96 112 118 121 117 111 112 98 122 136 13 32 37 48 45 26 52 57 45 29 34 30 
37 37 35 36 37 32 30 34 140 156 161 166 162 141 112 120 128 127 100 96 97 89 77 103 82 91 104 106 103 100 114 112 123 148 12 30 29 22 34 27 26 31 23 27 27 30 
34 36 36 38 38 32 30 35 99 164 162 153 152 150 133 117 110 111 86 76 77 69 66 85 71 89 95 91 108 105 104 103 117 142 17 28 24 23 27 25 29 27 25 24 25 26 
35 32 35 37 32 30 31 34 90 156 161 151 142 139 130 139 136 92 85 82 79 75 75 77 85 80 101 107 104 98 102 106 116 107 25 22 23 29 24 25 24 27 26 23 29 30 
36 31 41 31 30 33 29 35 121 141 152 144 157 131 124 154 144 146 77 85 56 68 70 69 56 66 117 114 94 99 101 108 117 40 26 28 28 24 23 25 26 27 28 26 31 29 
32 33 34 35 32 31 30 30 144 139 151 151 143 134 132 141 148 155 80 73 60 68 75 84 60 94 113 113 78 95 100 105 119 6 25 25 24 26 25 23 28 29 30 28 25 28 
