P2
46 56
255
46 51 48 53 49 45 50 49 51 52 46 50 47 52 45 49 52 49 49 50 51 55 55 58 55 61 48 51 46 48 40 45 45 42 41 41 42 38 42 37 37 37 39 35 33 36 
54 50 44 52 50 53 51 52 51 52 49 52 48 49 50 55 48 51 60 65 73 63 57 58 48 53 53 60 56 47 46 45 45 43 45 43 40 43 41 41 41 39 38 38 37 37 
51 50 48 50 54 51 53 55 52 51 51 49 51 50 51 70 75 73 77 56 55 53 66 58 65 58 50 50 52 53 47 44 43 42 40 43 42 41 40 41 37 42 39 37 38 41 
51 53 48 49 54 51 54 52 53 52 54 54 55 70 87 79 84 80 73 64 66 61 58 64 60 63 59 53 49 48 54 50 51 44 47 43 43 40 41 37 39 41 38 40 39 34 
53 50 50 51 53 49 54 55 53 50 54 55 61 96 87 78 65 77 68 70 68 76 81 82 84 69 59 55 55 56 44 44 52 50 46 43 43 39 44 43 43 44 42 41 38 40 
51 55 53 54 57 53 53 52 54 55 55 64 98 95 90 80 89 79 77 75 80 79 83 88 76 76 69 60 56 50 57 53 45 44 43 39 42 46 40 40 39 44 40 39 35 36 
52 53 54 52 53 55 52 56 53 55 53 88 94 108 122 132 135 136 126 117 120 126 122 125 120 114 110 87 82 80 76 77 78 55 33 34 35 43 42 43 42 41 42 41 41 40 
54 53 59 53 55 53 56 59 56 55 80 113 146 175 178 171 170 171 172 168 171 173 167 163 158 152 149 142 133 131 127 132 124 111 80 33 31 36 40 43 41 43 45 46 34 37 
57 57 53 58 56 55 52 56 55 82 110 162 184 187 185 183 186 189 186 187 188 187 179 176 171 168 165 157 158 156 151 146 144 136 120 105 35 29 29 42 44 41 45 42 40 47 
60 56 53 57 57 56 55 57 89 91 166 189 193 191 194 197 197 194 193 191 193 190 190 182 179 176 173 168 165 163 160 159 152 140 132 127 110 30 26 40 42 45 44 45 41 46 
59 56 58 56 58 56 58 74 87 141 187 196 197 199 200 202 200 201 197 196 196 191 191 188 185 180 177 172 169 166 165 162 159 153 148 131 123 107 19 23 49 46 45 47 39 40 
57 56 58 62 61 60 58 106 67 180 193 200 202 202 203 203 201 201 200 197 191 192 189 188 188 182 180 175 176 170 170 164 162 156 152 139 129 123 67 25 30 46 45 44 43 45 
56 57 56 59 56 57 75 88 137 192 196 203 206 204 204 202 201 200 197 193 193 190 186 187 188 181 179 174 170 170 166 162 165 161 155 147 143 125 117 48 26 40 48 45 45 41 
59 58 56 60 54 55 89 94 176 194 201 207 205 207 204 202 202 199 194 194 190 188 185 187 186 181 179 176 167 168 167 164 161 160 156 150 144 135 124 71 40 34 44 46 44 44 
58 58 58 58 59 70 82 102 187 197 208 208 208 206 203 203 202 200 198 196 190 186 181 185 185 187 180 181 170 172 169 165 165 162 156 154 149 145 128 111 48 36 47 46 52 43 
65 60 58 59 59 67 89 129 194 198 209 209 208 207 206 205 205 203 201 200 197 187 181 182 186 186 181 180 183 174 174 173 174 168 161 162 158 147 130 121 40 41 35 43 48 42 
62 59 60 55 57 61 98 151 197 200 211 211 210 209 208 207 204 201 200 195 196 190 187 184 191 188 187 184 185 177 173 172 172 166 163 164 162 153 135 121 53 52 25 45 44 44 
63 60 59 57 57 67 104 170 199 199 211 209 206 204 201 197 198 193 190 184 187 183 184 190 198 187 178 181 174 168 164 168 165 165 161 150 156 153 136 124 63 55 29 39 48 46 
63 64 59 59 60 79 114 172 200 199 207 204 198 169 162 153 142 131 136 140 155 158 167 177 192 174 161 156 149 137 122 120 129 123 126 139 128 150 138 131 71 62 23 36 40 40 
62 60 58 60 69 88 130 180 200 200 192 144 129 101 88 74 69 64 61 83 111 115 133 177 188 161 139 108 86 70 60 57 56 63 71 88 95 102 134 135 84 65 29 40 47 40 
61 60 57 59 71 110 127 186 198 192 137 118 116 111 107 94 80 65 65 71 91 108 148 187 183 156 134 89 76 72 66 73 95 105 111 104 89 88 113 131 100 60 33 36 45 39 
61 58 58 58 74 109 129 190 201 156 114 146 163 156 137 127 118 96 82 84 111 147 195 203 192 168 155 126 111 87 79 104 130 138 144 156 149 82 92 133 117 59 31 34 42 41 
63 60 56 58 77 93 121 197 203 157 162 173 159 159 178 158 129 113 103 95 85 150 202 203 191 172 165 121 86 92 102 116 126 137 138 134 155 133 92 131 130 57 47 37 45 41 
62 64 58 53 66 80 127 200 199 184 174 165 169 193 119 77 70 88 99 108 125 137 187 198 181 170 160 117 117 99 96 67 57 82 118 140 132 140 122 124 132 56 47 40 45 37 
61 53 55 54 61 75 115 199 195 197 186 168 151 112 106 60 90 114 126 116 137 166 189 198 175 165 159 136 123 120 124 74 59 72 130 83 124 149 155 123 131 64 44 46 44 48 
58 60 60 54 54 67 102 191 198 207 205 194 155 155 143 123 118 115 121 131 152 197 190 193 177 166 154 144 134 126 114 110 112 113 126 111 120 163 171 136 130 52 32 44 46 43 
57 63 55 56 52 70 79 178 201 211 211 209 189 177 148 126 115 123 141 163 196 202 192 197 187 170 156 142 159 139 131 113 120 125 142 137 139 162 175 149 130 42 34 48 44 47 
59 55 58 54 52 54 75 179 205 211 211 208 203 197 185 176 175 180 192 202 207 204 192 190 180 171 154 141 163 165 160 149 144 141 147 149 149 157 167 156 139 29 34 47 41 45 
56 55 59 52 87 76 48 180 206 209 209 207 204 202 196 194 197 200 202 209 209 202 193 191 180 166 155 144 163 166 176 169 164 159 157 161 159 162 161 162 138 18 40 90 38 43 
57 52 51 47 126 163 55 188 203 211 210 208 205 203 201 200 202 201 200 209 205 198 195 206 179 175 162 151 156 172 169 176 175 173 170 171 165 163 163 165 134 25 115 73 72 46 
57 56 58 55 110 125 98 190 203 210 210 211 206 205 202 198 196 196 197 205 201 190 175 180 151 149 160 142 149 171 169 168 178 179 173 171 171 169 176 168 137 43 131 66 54 44 
58 57 57 44 128 102 123 190 203 207 211 211 204 202 196 191 191 190 193 197 196 143 85 124 119 114 125 86 123 160 178 174 177 178 182 179 175 173 171 165 131 62 112 100 31 49 
55 50 52 43 141 111 133 188 199 205 211 211 205 198 197 188 182 180 189 189 181 104 30 121 116 101 106 48 99 155 175 171 179 180 176 176 181 180 168 156 132 64 111 126 29 48 
57 53 53 43 142 125 137 188 194 202 208 209 203 192 187 177 170 176 191 191 171 125 122 158 108 97 123 115 109 140 172 178 173 176 171 171 171 183 172 152 127 61 135 109 41 40 
53 54 51 46 101 161 120 184 194 201 201 205 198 185 170 159 155 180 200 199 184 175 178 147 102 102 130 131 125 136 161 173 168 164 163 167 170 179 171 147 127 60 154 36 45 40 
56 54 55 52 48 182 116 177 190 194 195 197 189 172 150 140 159 196 200 196 191 188 176 138 111 110 130 132 137 140 149 162 163 160 154 154 165 174 164 144 116 80 151 30 46 44 
51 53 52 47 38 171 138 168 183 188 187 183 177 158 130 148 183 193 192 190 186 181 163 134 125 121 133 135 139 140 146 152 156 148 144 143 161 166 156 140 104 91 141 34 43 38 
50 49 51 50 46 141 173 166 177 178 181 178 175 140 125 173 181 188 187 180 179 172 158 140 136 126 135 138 142 144 149 146 147 146 142 133 152 158 147 136 107 121 119 38 40 40 
53 51 51 53 51 90 176 167 170 171 174 169 166 132 126 152 155 171 174 172 173 167 157 149 154 147 145 147 149 148 145 145 138 127 130 135 148 157 139 131 116 121 83 38 37 41 
51 48 50 50 51 45 175 186 165 166 165 166 168 137 124 104 102 145 155 148 131 121 112 108 108 106 105 107 119 126 134 139 115 91 113 136 150 148 132 122 121 110 37 39 39 43 
50 48 48 52 56 44 128 166 163 166 163 166 163 148 135 111 122 121 102 94 94 89 82 73 73 73 76 83 84 84 93 98 116 123 114 139 149 140 128 121 111 42 37 41 41 40 
50 53 47 49 48 48 52 75 152 165 161 161 165 160 145 141 172 181 160 157 167 142 128 126 123 122 113 112 112 109 116 130 147 142 124 147 143 132 127 110 38 33 34 36 39 39 
54 52 51 50 55 49 48 40 130 164 156 158 164 160 152 152 179 196 193 178 170 153 134 130 127 126 119 118 134 138 149 156 146 141 133 145 137 127 129 60 29 33 35 35 35 38 
48 46 50 48 46 47 47 46 88 156 158 155 157 160 155 160 176 186 191 189 173 156 132 111 100 105 109 123 136 147 151 147 145 139 131 138 133 127 124 20 31 34 32 38 38 36 
46 48 46 47 46 44 44 46 49 145 146 150 151 155 155 158 170 173 178 176 162 151 127 109 94 96 106 118 130 136 140 139 140 139 137 135 126 126 108 25 30 31 32 34 36 38 
48 51 47 51 46 48 48 46 39 117 145 141 146 142 150 154 162 157 167 163 148 130 108 108 103 107 109 113 124 133 133 138 134 139 138 129 123 122 50 30 28 30 34 34 38 33 
46 47 46 44 46 47 46 48 43 66 135 136 138 137 148 154 152 153 156 146 137 123 107 107 110 112 114 117 129 133 133 137 135 137 133 129 121 109 20 33 28 31 31 30 37 36 
49 44 43 45 49 46 43 43 42 41 118 130 137 137 143 151 154 145 152 149 146 143 139 137 135 131 129 135 138 136 137 133 137 132 121 130 114 104 27 31 28 37 34 31 33 38 
47 44 39 46 48 46 40 42 44 41 124 126 129 136 144 145 150 143 151 151 157 161 162 156 151 142 142 142 138 138 141 134 134 130 119 122 106 111 41 30 35 32 34 32 36 35 
49 48 45 40 47 43 42 45 45 42 128 138 122 134 138 145 142 148 152 149 157 161 152 149 147 144 142 142 138 138 134 137 130 122 125 112 106 114 59 33 31 34 34 33 34 36 
48 42 43 44 45 41 46 41 48 38 122 152 116 117 127 134 134 142 147 143 146 145 141 134 135 135 134 130 130 129 128 133 125 116 115 103 114 122 80 30 30 34 37 36 37 34 
46 43 45 44 41 48 43 44 47 42 112 153 135 109 113 122 131 130 137 134 133 130 126 117 109 113 118 116 123 123 120 124 113 108 106 106 121 125 98 28 30 35 34 35 34 31 
49 41 43 43 39 41 41 41 46 42 106 150 145 130 106 107 113 115 123 120 118 109 95 90 92 95 99 102 109 112 112 114 103 104 104 116 120 127 108 24 30 32 32 34 33 34 
44 42 40 41 41 41 40 43 45 39 104 153 150 140 120 98 97 105 99 99 98 88 79 69 69 73 78 85 93 98 100 97 98 101 108 123 123 126 115 25 32 34 36 34 36 35 
45 41 41 41 41 44 38 40 45 36 105 154 152 143 129 112 95 86 84 78 73 68 61 62 55 57 61 67 73 82 88 95 97 101 111 119 128 127 115 22 33 34 32 32 35 31 
46 45 43 39 40 39 40 39 44 36 108 155 152 146 134 125 108 89 74 71 66 61 58 58 58 57 59 65 70 79 87 99 103 109 121 126 130 125 119 29 35 32 37 35 36 35 
