P2
46 56
255
42 46 47 46 46 46 52 47 46 48 44 48 45 54 50 62 61 78 75 70 71 67 69 51 61 67 65 50 45 40 37 41 38 39 43 36 38 36 43 37 33 38 35 37 36 40 
46 46 45 46 48 50 50 51 52 43 40 54 62 68 66 76 82 62 56 62 61 67 74 69 65 52 52 66 66 52 39 45 40 39 35 36 36 35 31 38 38 38 35 35 38 38 
47 52 50 47 47 48 48 51 50 55 57 78 67 67 66 76 76 75 63 76 63 52 60 80 81 57 56 52 51 65 57 45 42 37 42 41 36 36 35 37 37 38 40 38 38 38 
50 52 51 49 48 49 49 47 50 67 100 86 82 54 64 63 58 69 72 66 77 81 76 80 69 81 60 61 53 52 56 58 48 51 46 39 38 42 35 36 40 38 46 39 36 39 
50 53 54 46 50 52 52 49 55 110 112 86 83 92 72 63 64 67 65 63 75 76 83 89 77 73 65 60 68 65 66 60 48 55 43 39 41 41 37 39 38 39 38 37 41 41 
51 55 48 54 54 56 54 51 100 124 125 133 129 121 111 113 93 93 97 103 102 98 94 96 95 84 73 76 77 81 95 96 81 40 49 50 41 44 38 36 39 42 44 38 38 40 
55 53 51 46 54 56 61 86 123 156 172 170 162 156 159 150 153 157 162 156 167 161 157 153 146 139 134 133 129 138 148 141 131 120 60 36 31 41 41 42 40 41 37 38 40 38 
58 59 55 58 55 48 92 121 172 180 179 174 171 171 175 173 171 178 178 177 183 184 186 185 186 181 180 182 177 174 174 166 160 142 128 95 32 31 33 43 44 41 39 46 44 40 
57 54 50 55 52 91 87 178 187 185 183 187 184 178 174 178 179 178 183 181 183 186 187 191 186 179 185 184 181 177 178 171 158 158 147 137 100 35 30 23 45 44 39 45 44 41 
56 58 62 54 99 72 164 188 191 190 189 186 188 185 181 179 175 181 184 189 188 189 192 192 192 187 188 188 186 185 182 179 174 163 158 153 143 77 29 21 30 44 43 39 45 41 
58 57 56 52 93 101 192 196 198 198 196 195 188 187 181 182 178 178 186 192 191 196 199 199 194 193 193 191 192 189 185 177 178 176 160 152 148 135 34 32 23 45 43 44 45 41 
60 60 48 90 89 179 195 200 206 201 198 192 189 187 184 180 182 176 183 189 194 192 195 196 192 196 200 198 195 191 187 182 178 178 166 161 150 145 115 42 27 36 45 43 47 44 
64 61 59 90 102 199 202 205 204 206 200 190 188 184 180 179 180 181 186 189 191 191 191 193 193 192 198 196 193 192 188 184 182 180 171 168 155 149 133 68 37 34 51 43 41 48 
61 62 50 100 144 202 208 207 206 206 197 194 188 187 184 180 183 182 184 187 185 185 191 186 192 191 190 192 192 191 188 186 183 179 177 166 165 151 138 82 48 51 29 42 45 45 
52 59 61 111 185 202 212 210 204 204 201 197 193 187 186 185 183 181 185 186 184 187 189 187 191 193 193 193 195 191 191 189 185 184 181 173 168 149 143 108 63 53 47 41 40 41 
57 57 85 112 202 205 214 212 208 208 202 202 193 188 186 182 184 184 188 186 186 189 191 192 197 199 201 198 196 198 192 188 188 183 184 181 169 153 141 114 60 57 36 41 45 46 
52 54 91 135 207 206 213 209 203 200 198 195 187 180 184 177 177 177 186 197 190 198 192 200 199 203 198 199 197 191 197 189 189 185 185 181 172 160 143 116 61 48 29 37 47 45 
60 61 114 159 209 205 211 205 193 171 161 165 161 159 160 155 165 167 174 181 189 197 185 182 191 190 188 187 192 190 191 187 185 176 177 175 171 156 146 114 64 49 25 36 48 43 
53 68 150 159 207 208 173 147 119 112 118 157 130 129 129 135 138 141 158 164 181 190 168 163 169 167 156 135 142 153 147 150 164 147 154 171 169 155 157 111 73 58 38 39 41 47 
55 71 136 175 211 163 115 120 124 115 100 97 79 98 94 111 137 140 107 135 151 162 153 109 147 97 130 103 96 108 219 171 146 145 82 125 165 149 156 116 72 68 54 44 46 45 
48 70 117 187 197 147 119 135 142 126 114 113 82 107 104 121 192 170 229 142 168 174 143 87 128 100 85 67 61 70 122 197 216 216 215 217 106 144 149 128 62 81 53 41 52 47 
53 57 132 188 161 188 172 162 137 157 175 170 123 135 125 138 207 217 196 153 170 176 170 127 108 90 67 65 76 106 224 217 206 138 110 139 140 133 151 142 88 76 48 50 51 45 
49 38 126 99 131 200 181 131 192 141 108 78 121 107 84 72 82 113 223 210 159 172 147 133 101 62 78 92 104 104 141 218 214 155 144 82 143 114 150 151 91 61 60 49 54 48 
48 61 83 176 138 197 174 130 114 115 92 63 86 118 115 58 81 111 174 191 175 175 168 129 112 117 113 105 109 70 75 94 131 105 138 124 139 130 225 135 89 55 52 50 44 50 
57 60 65 113 111 174 174 156 133 127 104 92 100 108 108 112 109 120 186 182 168 176 174 124 133 142 100 112 115 72 64 82 65 105 130 160 135 107 144 182 70 45 59 42 45 46 
46 80 57 144 155 211 212 214 197 158 112 96 100 100 105 106 148 102 199 183 168 174 173 130 127 127 123 102 101 102 103 115 105 112 135 154 128 97 158 111 53 48 58 47 46 48 
112 148 158 184 183 211 213 211 202 174 140 128 130 133 144 174 142 140 200 181 173 173 174 149 132 165 138 131 107 104 107 121 133 143 167 186 161 93 153 95 46 34 58 52 45 48 
114 114 111 201 188 214 212 208 199 174 169 157 166 177 191 185 160 186 202 179 179 178 175 156 133 168 166 153 150 144 132 133 134 141 155 171 151 105 147 115 41 41 118 114 34 49 
79 127 104 205 207 204 203 208 201 182 171 173 183 185 142 205 191 195 189 168 178 179 173 162 148 127 165 162 161 154 155 156 150 145 145 151 147 118 148 132 63 135 89 71 47 49 
56 141 130 205 210 212 207 184 158 147 141 140 137 151 182 210 189 211 188 166 187 182 168 163 152 161 119 150 160 165 168 166 161 149 153 161 117 149 150 129 94 131 50 100 39 48 
42 160 139 204 209 209 209 204 193 182 169 164 161 161 176 187 187 191 182 148 172 177 175 168 157 152 154 145 126 136 152 157 151 141 127 135 165 167 142 121 108 155 76 125 35 52 
49 142 153 202 205 204 205 198 179 168 159 159 163 164 163 173 151 140 145 117 132 149 141 131 159 145 146 149 147 151 149 143 144 142 146 158 179 166 132 103 150 164 102 101 49 49 
48 82 172 199 196 200 200 185 177 172 178 161 158 159 143 153 101 50 121 83 88 108 61 55 122 172 165 142 141 137 143 141 140 142 154 163 173 157 131 78 103 155 127 42 51 51 
58 42 193 196 197 200 192 182 181 178 175 162 157 167 150 137 143 84 153 103 73 101 77 64 125 185 187 179 159 148 137 138 137 140 148 166 166 143 124 61 113 145 133 38 48 46 
60 37 179 194 196 193 185 182 182 177 164 159 169 189 176 152 160 174 138 70 73 118 136 112 150 179 186 188 181 175 168 157 157 152 159 167 154 137 128 96 124 155 61 48 46 49 
61 52 120 191 187 187 182 180 178 173 161 164 200 200 186 185 187 160 91 68 97 135 147 160 158 166 176 186 185 174 173 172 172 168 165 159 146 126 102 126 138 138 28 49 47 45 
58 56 76 185 181 177 178 175 177 173 170 192 202 193 182 177 170 132 102 105 121 140 147 150 158 155 161 175 180 175 168 172 170 169 165 154 134 117 104 135 125 100 38 47 46 43 
53 50 54 171 167 169 173 179 176 161 192 191 191 179 166 159 151 123 112 118 121 132 145 146 144 153 152 159 158 169 163 166 169 162 155 142 127 110 128 133 109 46 47 44 47 40 
57 58 45 122 176 169 163 176 170 159 186 168 158 149 137 138 144 132 125 129 127 141 145 140 144 148 152 154 155 154 158 159 159 155 146 130 126 103 135 121 46 48 48 44 46 47 
54 57 51 74 179 168 158 169 169 157 152 126 114 117 117 126 125 109 116 118 116 125 139 139 131 137 135 142 144 150 155 158 157 145 133 119 125 58 70 54 48 46 50 48 48 47 
46 53 48 39 172 167 158 168 163 150 118 74 66 71 84 79 72 57 60 65 67 72 89 103 115 125 118 122 127 135 148 152 146 136 123 118 122 35 48 42 44 49 48 46 47 44 
48 54 52 39 151 164 157 163 159 133 111 81 84 87 114 115 90 64 50 48 53 55 58 65 69 82 77 75 93 125 141 151 144 127 128 123 93 40 41 46 40 47 48 44 42 46 
47 46 48 50 106 159 149 156 156 135 114 135 172 182 163 156 143 124 122 120 115 122 115 108 108 120 116 117 112 116 136 141 132 127 120 122 47 38 42 47 43 43 47 45 46 44 
50 50 53 51 48 147 146 146 150 133 129 158 173 179 167 146 124 99 100 102 100 109 113 123 137 148 152 144 132 122 129 135 126 131 116 102 38 42 44 44 47 43 43 40 42 47 
42 49 46 50 39 114 142 137 143 134 135 147 155 153 151 140 112 89 67 60 72 96 114 126 137 142 146 146 134 124 131 129 119 121 106 88 37 44 45 44 45 44 49 45 44 46 
42 45 47 50 44 50 143 135 133 138 135 136 132 130 127 110 85 82 79 79 72 79 98 106 119 127 130 131 126 121 126 118 118 112 96 93 42 43 42 40 47 44 48 47 43 44 
43 44 52 47 47 32 149 135 136 145 137 127 122 118 109 86 66 66 79 86 79 75 84 103 105 116 122 122 126 125 122 117 113 101 104 92 39 41 40 39 38 39 42 47 43 44 
46 44 40 49 48 22 158 140 138 141 137 123 122 119 114 103 93 89 91 93 93 96 99 112 112 117 119 121 126 126 115 119 112 98 115 87 36 42 43 38 42 41 42 48 37 39 
45 48 46 41 48 24 160 155 132 133 137 123 124 123 132 137 136 131 126 114 118 121 120 119 122 125 124 126 125 117 104 113 104 99 120 91 39 45 44 43 43 44 49 44 41 41 
46 50 50 44 51 26 157 165 137 130 133 123 125 124 135 143 130 121 121 121 121 130 129 119 127 126 124 126 119 110 110 105 93 112 122 90 33 41 39 42 42 41 45 45 40 43 
37 40 51 44 39 22 162 168 149 123 121 123 119 120 122 122 111 106 110 111 109 117 125 122 118 123 123 119 109 108 106 97 94 118 122 93 36 39 42 42 47 45 43 45 45 40 
44 44 43 44 50 20 165 164 149 129 111 116 111 108 102 98 89 87 90 91 98 94 106 111 109 112 114 104 96 104 92 89 110 121 121 95 33 41 37 44 45 44 40 42 42 39 
44 41 39 43 40 49 168 164 151 136 121 106 100 89 76 62 55 60 60 66 70 72 83 92 91 97 92 81 90 83 79 96 124 122 124 104 34 39 41 41 43 40 43 42 43 44 
37 38 43 38 38 104 173 162 147 137 125 115 100 80 67 58 45 43 46 41 44 44 59 62 69 78 68 73 75 80 98 114 124 125 125 110 36 43 43 43 32 41 47 44 41 37 
39 44 41 38 23 152 174 165 147 133 121 114 103 88 77 57 49 46 47 44 45 46 45 47 56 64 64 72 81 97 111 118 123 125 124 116 29 38 43 49 43 44 39 41 38 42 
113 68 61 64 120 175 175 163 149 135 126 113 101 94 96 82 57 49 43 44 42 48 46 51 59 58 63 75 98 111 113 113 119 123 123 124 20 38 40 44 41 39 40 38 39 35 
