P2
46 56
255
48 49 49 53 52 48 45 47 50 44 52 73 74 61 57 70 76 79 66 72 68 49 58 69 84 70 56 52 47 64 66 55 41 44 38 41 34 39 38 41 41 43 37 43 43 38 
46 54 48 54 52 50 51 46 44 47 89 93 92 65 53 68 58 63 65 61 68 84 73 83 86 69 75 54 63 51 53 68 52 61 46 35 36 35 42 36 43 36 41 36 35 39 
53 52 55 51 50 55 53 50 46 90 121 83 85 86 84 72 60 58 65 69 75 72 79 87 80 81 68 66 62 70 65 64 52 55 49 44 41 40 36 38 40 40 41 41 43 41 
51 50 50 52 52 51 53 55 69 117 116 124 127 126 115 115 102 98 100 105 104 107 106 100 103 88 77 88 72 84 85 95 94 58 41 44 38 44 47 43 43 40 40 38 46 36 
54 53 51 51 56 60 54 55 109 141 169 173 165 155 161 153 154 159 167 162 171 174 166 165 159 148 145 145 138 143 150 150 139 125 90 40 35 44 41 43 44 42 41 41 40 39 
52 53 55 53 53 49 71 100 162 178 181 176 176 174 173 174 170 176 177 175 179 183 188 184 190 183 178 181 181 174 174 169 161 149 137 115 47 28 34 26 45 39 45 42 45 42 
55 55 54 55 55 63 84 155 185 189 185 184 184 182 181 177 176 180 183 183 185 186 188 189 188 180 181 185 184 182 178 173 167 159 154 145 132 38 39 26 35 34 39 44 40 40 
61 62 57 57 61 116 115 185 191 189 190 188 190 184 183 181 177 180 181 184 189 190 188 191 193 187 187 189 188 186 183 182 173 171 164 156 146 126 19 24 23 41 39 43 44 45 
60 60 62 60 92 59 184 189 198 200 197 197 191 184 183 183 180 179 182 189 192 191 194 195 193 191 191 194 192 189 186 181 176 181 168 162 151 146 112 37 22 35 44 42 44 45 
59 57 55 61 94 142 196 196 204 205 200 193 189 185 182 181 180 181 180 187 192 190 190 190 192 195 196 198 197 190 186 186 186 179 174 164 152 149 140 57 38 28 44 43 47 44 
58 60 54 83 83 182 200 203 205 204 199 194 190 184 181 177 180 180 183 188 190 191 188 188 188 193 194 194 193 191 190 186 187 181 177 170 164 152 143 104 62 33 42 50 47 47 
58 59 51 83 93 199 207 209 206 207 201 196 192 188 186 183 183 182 184 183 189 187 181 188 190 191 189 194 190 190 188 188 183 184 182 174 163 156 144 137 53 49 30 47 45 42 
60 60 54 114 123 204 214 211 205 203 203 200 197 190 186 186 182 181 183 184 186 185 187 187 189 192 192 196 195 198 189 192 188 180 182 177 170 159 146 133 49 54 22 35 45 49 
60 56 62 122 149 202 214 212 208 202 203 200 194 189 187 182 183 182 184 190 185 187 190 189 198 201 202 200 198 197 195 193 189 185 185 183 176 164 148 134 65 70 31 47 46 48 
60 59 87 118 174 205 213 209 205 199 194 193 187 182 181 177 174 178 179 191 193 196 196 192 200 199 197 200 196 197 193 197 187 188 182 182 180 167 148 131 66 67 38 34 45 47 
53 54 93 140 189 205 211 206 196 166 153 148 147 144 146 147 156 157 169 176 184 193 187 180 187 193 189 187 184 189 185 187 184 175 173 176 172 162 153 127 75 73 31 31 37 50 
53 55 130 146 205 203 185 131 124 112 113 119 121 112 116 122 131 137 167 148 160 173 176 165 140 171 141 132 112 125 111 108 129 171 119 158 168 159 156 131 83 66 32 35 41 47 
52 49 133 143 209 181 129 112 128 117 104 102 59 89 97 92 117 147 135 107 135 142 142 130 101 127 149 126 85 78 169 216 215 204 157 88 124 150 147 137 85 77 45 42 51 48 
52 49 129 142 217 150 130 145 160 150 132 126 75 92 104 100 204 216 210 220 162 177 174 128 118 134 128 92 74 67 81 148 169 182 196 208 226 118 152 154 90 85 49 43 45 49 
58 51 56 185 180 174 179 171 144 160 175 159 118 112 102 96 135 213 200 215 163 178 170 170 123 99 79 58 80 99 125 220 217 223 139 89 123 122 146 158 114 53 70 50 51 46 
49 59 122 152 129 191 193 170 148 169 114 114 109 100 114 100 95 119 181 203 169 165 156 123 135 85 83 96 103 97 95 195 213 197 149 113 104 138 137 149 121 62 62 54 45 48 
55 53 80 151 163 189 183 141 123 113 117 74 66 97 135 94 72 96 131 190 174 173 172 161 133 128 111 115 121 98 48 55 93 129 113 129 125 140 194 187 135 48 55 50 42 47 
56 58 74 105 143 144 189 167 136 136 118 93 95 102 106 113 106 137 137 197 171 169 179 154 135 134 134 106 126 94 65 75 101 62 114 138 165 145 111 106 127 50 45 57 50 44 
55 57 70 78 153 204 213 213 207 186 128 100 99 100 109 108 132 126 175 193 172 171 174 157 122 147 133 113 101 101 101 108 117 118 136 154 152 126 116 140 66 51 52 63 45 48 
36 176 185 114 176 211 214 212 206 197 161 145 143 139 146 169 176 115 204 193 178 184 178 167 141 160 156 138 140 108 112 116 130 137 149 172 179 139 124 143 66 47 50 52 51 51 
57 141 127 173 209 202 213 210 206 194 174 166 161 171 189 195 179 170 202 187 173 184 176 168 144 120 168 161 154 153 150 139 142 141 146 159 163 136 128 140 42 36 62 110 54 51 
49 155 58 197 207 211 202 202 207 192 173 166 179 180 143 195 214 184 199 173 170 186 171 171 155 161 121 164 162 159 160 162 160 147 147 152 153 121 149 150 69 117 139 61 110 43 
37 164 69 203 210 214 212 205 187 159 143 140 154 166 169 206 203 196 212 171 171 193 172 170 159 165 151 122 142 167 164 159 163 155 153 160 129 136 156 149 58 143 127 49 105 44 
41 164 77 203 208 210 207 202 195 184 177 176 170 168 176 187 192 177 187 149 145 167 173 157 167 160 154 154 146 138 130 129 132 124 122 136 161 170 162 143 66 122 125 94 81 46 
49 116 107 204 204 203 195 196 188 178 168 164 170 174 177 156 171 101 137 115 111 130 134 107 132 163 152 147 147 148 149 148 148 147 140 159 172 179 158 140 67 149 136 115 43 47 
66 58 152 202 200 193 189 182 168 166 168 178 174 170 172 150 158 63 52 124 70 101 74 33 94 161 181 167 141 132 141 138 143 141 144 159 170 175 147 142 32 146 144 109 43 51 
60 42 179 196 195 187 181 179 170 171 176 178 168 179 179 146 155 109 120 148 71 94 106 77 102 165 185 185 172 159 144 142 139 136 142 153 169 165 141 132 62 123 147 57 50 47 
57 47 145 194 191 186 182 169 170 172 174 173 171 195 199 165 152 159 181 116 56 115 146 136 147 176 184 188 182 178 167 161 159 152 151 160 161 154 138 114 104 134 145 30 48 53 
55 51 76 192 186 180 180 170 169 168 177 172 179 212 211 196 184 190 164 96 102 125 150 157 166 167 171 182 182 175 172 174 171 167 163 159 151 149 128 95 132 145 125 43 47 45 
53 51 36 185 178 173 171 171 171 176 171 169 194 209 207 198 187 176 133 112 118 131 145 152 155 156 160 168 179 179 166 173 170 167 162 155 138 134 124 120 124 130 71 45 44 49 
54 54 33 155 170 163 159 165 168 169 166 180 190 195 192 177 165 149 122 117 114 123 140 148 146 149 150 153 168 171 164 171 162 163 153 143 129 128 107 132 133 98 48 51 51 48 
53 57 60 66 164 156 154 163 167 169 159 183 181 185 169 152 140 131 119 115 119 118 135 142 142 140 149 153 156 157 160 156 164 156 147 134 120 117 110 141 105 48 44 47 43 45 
49 53 51 48 142 163 156 154 165 168 158 179 169 149 132 122 128 137 118 124 123 125 135 141 131 133 139 146 150 145 149 157 159 146 136 114 120 113 60 71 46 48 48 44 48 50 
49 51 49 51 94 169 161 156 165 163 155 150 120 116 107 112 110 92 80 85 90 89 94 111 133 131 130 133 147 145 146 155 151 139 120 116 120 80 43 44 45 44 42 43 47 46 
51 52 51 49 51 164 156 153 165 158 143 114 78 73 70 84 81 65 57 52 61 61 65 77 94 104 126 118 121 127 143 149 144 126 112 120 115 40 44 46 47 43 48 47 45 43 
51 48 50 53 36 150 155 152 160 149 129 102 63 79 90 160 155 143 128 110 74 87 102 110 102 91 70 88 96 119 138 148 138 117 116 115 100 41 40 45 48 45 44 47 44 44 
48 51 51 50 44 107 154 148 155 152 133 108 107 149 138 139 147 137 139 143 126 135 137 138 131 128 96 98 107 115 132 138 127 121 120 116 64 40 39 46 45 43 45 45 46 45 
47 53 48 49 47 49 155 148 149 152 131 125 144 169 135 125 90 78 92 118 118 135 120 112 104 96 122 132 126 113 129 136 124 124 114 105 47 36 40 46 44 42 46 50 44 44 
42 47 46 53 44 19 151 148 141 147 132 132 149 164 152 109 78 54 50 50 52 61 58 46 65 103 136 146 138 129 128 123 119 121 109 101 42 36 38 43 41 42 46 43 42 45 
49 42 47 50 49 15 165 150 138 139 134 130 138 149 153 137 106 60 38 35 28 34 44 78 113 129 142 142 133 120 120 118 116 113 107 117 41 44 38 45 44 48 50 47 42 45 
43 48 52 50 51 23 169 148 144 138 142 128 124 131 125 121 100 69 42 34 38 50 69 98 117 119 129 130 130 120 123 120 118 113 111 122 41 39 38 44 41 39 45 47 49 46 
44 45 49 45 48 23 167 145 144 137 141 128 118 117 110 92 70 47 43 34 41 47 57 78 89 105 123 118 122 126 123 122 119 118 110 124 38 37 39 43 40 47 48 40 38 44 
42 45 49 42 45 22 164 150 143 135 133 122 112 112 105 88 57 48 52 55 66 64 58 77 92 100 114 111 121 124 111 122 120 118 109 123 38 36 40 37 35 41 46 43 51 41 
41 39 41 45 47 19 165 156 136 135 125 126 115 117 119 116 109 105 95 91 92 102 103 107 105 113 120 117 119 114 113 121 117 104 115 124 40 38 43 39 41 45 38 44 40 43 
43 44 44 47 49 25 168 156 138 123 125 124 119 117 114 132 131 119 110 111 108 118 122 113 117 122 118 117 119 105 111 113 102 99 118 125 46 43 46 43 43 42 41 42 43 44 
42 44 44 40 41 43 167 158 142 116 115 116 114 113 110 117 114 102 99 103 102 107 117 119 119 116 120 117 107 101 110 101 90 113 117 123 48 44 44 46 41 42 44 43 42 38 
43 43 41 43 42 81 171 159 142 122 110 108 111 108 99 101 90 85 80 86 94 96 103 107 105 105 113 106 92 98 89 83 103 121 120 125 55 38 45 44 46 45 43 43 43 43 
34 39 43 40 29 129 171 159 141 128 111 102 94 93 89 71 57 54 55 59 64 65 78 83 87 87 93 77 80 83 75 102 117 123 124 127 69 41 40 42 42 40 44 38 38 43 
76 82 62 52 58 165 170 162 144 125 115 104 91 79 70 53 44 44 47 47 47 43 48 56 60 70 72 69 74 76 99 113 116 121 124 123 82 33 40 44 36 42 39 41 40 37 
131 105 23 115 163 175 171 161 143 130 120 105 93 86 77 59 46 40 41 46 47 41 44 42 54 62 66 62 73 90 107 112 115 116 120 126 97 35 42 36 41 47 42 49 49 44 
130 113 88 182 174 175 172 159 145 134 121 107 88 83 74 69 58 45 40 40 42 48 41 45 56 53 56 67 86 106 111 104 113 122 123 125 113 51 39 43 42 44 46 43 47 41 
