P1
5 5
1000010000100001000010000