P2
46 56
255
117 115 114 116 117 110 110 105 97 100 81 68 54 39 49 54 52 49 61 52 45 40 41 39 45 57 63 62 61 62 62 44 43 54 98 80 83 113 107 112 113 113 111 111 109 112 
115 114 114 112 111 104 105 107 96 90 83 59 46 43 48 46 43 49 48 50 40 38 32 29 29 34 27 37 39 41 41 38 36 37 49 56 79 90 105 108 108 111 112 110 110 111 
114 115 111 104 108 101 109 105 94 91 63 56 47 44 42 39 44 40 45 39 40 43 39 39 36 43 34 39 40 45 35 41 31 24 38 34 36 61 93 105 111 109 108 109 108 109 
113 116 109 111 106 93 91 90 91 66 54 52 59 52 48 44 43 45 57 54 43 50 48 65 52 78 52 53 40 38 51 43 43 40 37 32 32 37 43 78 108 109 109 106 111 110 
115 113 107 104 87 90 97 97 79 63 65 60 69 64 58 65 62 59 59 65 70 80 75 76 72 66 85 74 60 42 39 45 50 51 53 50 38 36 40 44 71 105 105 110 109 110 
115 111 117 88 96 92 85 96 88 82 73 68 53 56 66 72 86 104 109 112 126 125 128 117 108 82 62 76 75 49 49 35 44 48 49 51 40 43 58 58 44 59 106 103 110 112 
117 106 105 91 89 84 78 71 72 65 59 57 69 89 100 120 144 149 163 169 174 174 174 170 151 128 83 53 65 69 54 55 52 46 49 53 52 47 34 39 60 43 70 99 106 107 
106 108 85 84 91 65 66 59 61 57 41 75 95 119 135 159 173 184 190 189 192 188 192 190 187 171 140 91 62 64 58 66 54 50 42 53 38 54 49 51 39 48 37 77 67 106 
96 81 94 84 82 60 61 62 55 40 59 101 128 149 172 185 195 194 198 196 197 195 195 198 194 182 181 159 101 77 57 62 53 61 63 50 56 55 42 52 54 46 46 42 48 47 
101 91 81 67 56 65 65 53 47 48 89 123 163 184 191 196 200 197 201 202 202 202 201 201 197 187 193 183 165 110 85 66 60 49 50 61 61 63 55 48 52 54 57 40 34 76 
96 81 65 65 57 63 55 52 47 73 118 168 187 193 197 195 202 202 203 205 206 205 203 202 199 193 195 191 184 166 117 83 61 57 52 42 48 48 45 50 46 50 50 56 47 42 
74 65 52 41 39 57 46 48 67 121 163 188 197 199 200 202 204 205 204 206 205 204 204 201 202 199 194 192 191 186 164 113 63 74 56 46 41 45 34 40 47 25 44 40 50 46 
60 52 46 49 55 59 47 66 103 155 179 192 200 201 202 201 202 205 203 204 205 205 205 203 201 199 199 194 196 192 185 155 94 50 71 56 60 40 42 42 33 41 25 26 43 46 
60 55 45 39 59 52 52 85 129 163 185 197 200 201 203 200 203 203 202 205 204 205 205 204 204 202 201 197 196 193 185 176 149 73 59 75 57 56 43 47 46 41 37 27 33 43 
60 58 50 63 48 49 62 100 150 174 193 199 198 201 202 202 201 203 206 205 205 206 204 203 205 201 202 200 198 198 191 189 172 128 77 81 67 60 59 49 40 49 27 49 37 41 
68 61 69 64 48 51 80 136 168 186 195 201 202 201 202 202 202 205 206 205 206 205 205 203 202 204 202 202 202 197 198 193 188 163 126 74 83 53 61 53 66 26 49 26 46 36 
59 70 65 55 50 47 118 159 179 187 197 202 202 198 197 200 201 205 204 206 205 207 203 203 205 203 203 204 202 200 199 193 194 185 160 136 87 86 39 49 52 60 50 61 36 30 
59 63 64 51 38 63 149 168 183 189 187 149 140 147 154 142 143 151 177 192 196 200 204 204 205 204 203 202 203 201 197 193 189 187 178 151 126 94 79 44 39 53 58 54 51 53 
84 64 63 42 33 100 164 172 183 155 150 167 156 137 114 105 116 127 116 134 163 181 193 197 204 206 205 204 200 201 200 193 193 186 184 168 151 130 84 72 47 44 37 42 57 57 
75 64 50 40 28 128 163 176 160 174 191 194 180 180 177 159 134 123 122 119 127 155 179 190 197 200 197 191 185 177 158 143 121 112 121 118 118 143 123 72 54 63 40 39 47 37 
65 49 39 29 39 145 170 172 166 185 185 176 173 170 171 167 163 156 151 151 147 155 169 192 196 192 184 162 159 124 100 95 98 85 90 114 104 83 92 116 69 46 67 48 50 42 
67 45 45 20 83 156 179 179 178 177 170 160 147 153 158 156 157 157 149 153 153 156 178 193 199 194 183 151 144 144 137 138 144 152 155 148 144 122 113 67 100 54 52 50 49 42 
47 45 35 20 119 162 181 188 182 167 159 154 177 184 182 174 163 148 134 146 146 144 190 199 201 196 171 151 142 143 141 148 154 161 160 159 151 146 128 87 108 81 45 23 35 36 
33 58 22 29 137 170 186 194 188 171 159 143 98 96 58 88 58 117 139 125 145 132 186 204 205 197 164 137 136 141 132 127 145 149 139 132 144 141 136 125 82 94 36 57 40 30 
29 53 17 42 155 178 194 199 193 176 128 87 117 165 53 61 75 158 118 137 150 140 182 206 205 193 158 128 136 125 127 129 118 134 144 133 105 134 130 130 82 107 46 30 40 26 
42 49 16 70 162 182 196 201 201 193 181 154 142 120 135 135 139 149 150 175 168 171 191 206 205 191 161 143 149 101 127 70 41 70 59 52 103 114 127 136 113 108 51 11 59 26 
53 40 24 101 161 185 200 203 200 199 193 175 162 152 138 134 143 149 157 168 182 189 196 205 201 187 160 157 162 156 136 143 102 75 134 93 39 95 128 142 130 110 54 14 55 43 
56 30 24 118 160 186 200 202 202 202 200 196 188 181 170 165 172 173 185 195 198 194 201 207 205 185 164 169 167 158 142 139 137 117 114 103 85 112 132 153 143 120 76 15 34 45 
47 37 26 121 157 183 198 201 201 202 205 204 204 202 199 198 197 201 204 201 199 199 202 206 206 181 165 171 186 182 165 142 140 143 144 140 137 142 158 162 149 125 80 13 37 35 
36 42 48 112 153 181 196 202 202 204 204 206 205 205 206 207 204 205 203 202 200 198 203 206 205 187 168 171 187 197 190 184 176 164 156 161 164 168 168 173 153 122 86 9 38 36 
38 36 92 100 142 181 196 203 204 204 203 205 206 206 206 205 202 202 203 200 198 200 205 207 203 188 170 167 183 193 201 198 196 194 190 191 192 184 179 172 160 119 79 10 35 38 
43 34 114 105 139 176 196 202 205 204 205 205 205 205 201 196 201 200 199 198 196 204 206 207 205 194 171 155 182 196 201 201 203 199 200 200 196 188 182 169 158 114 64 18 40 46 
40 88 101 106 138 174 190 200 201 204 203 204 205 205 202 191 198 195 186 201 196 208 205 205 207 197 170 163 177 197 200 202 204 202 201 197 196 189 181 170 148 111 36 21 43 30 
15 130 121 111 142 169 184 196 200 204 203 204 203 203 202 193 195 195 178 201 189 192 201 202 201 181 156 171 164 191 198 202 202 201 199 196 192 185 177 165 136 106 16 24 40 27 
55 136 138 115 145 168 184 189 197 202 203 201 202 199 196 190 189 194 176 180 138 160 192 186 181 140 165 168 169 180 190 197 199 200 198 194 187 179 175 159 113 88 24 39 32 29 
83 140 154 130 144 170 179 186 192 198 200 197 195 192 188 188 191 198 191 184 136 132 163 146 135 57 139 149 178 176 181 190 197 194 192 188 184 175 166 152 99 100 18 37 28 27 
14 78 88 55 143 168 180 186 187 193 196 192 185 182 184 193 198 202 201 201 185 162 143 126 135 131 121 171 177 177 173 183 190 190 190 186 178 168 159 132 87 100 31 30 34 25 
26 18 18 3 144 172 181 188 189 193 192 189 172 180 192 200 201 201 202 202 197 187 162 156 168 173 175 174 179 181 180 173 181 187 181 180 170 154 145 115 92 110 41 33 28 18 
24 25 18 11 131 169 185 188 190 193 192 190 176 194 200 202 202 203 202 201 200 199 189 181 178 182 183 169 176 178 178 177 179 181 178 171 153 146 137 102 140 107 42 32 26 19 
24 27 21 20 96 164 182 186 191 195 199 192 195 193 192 192 185 176 166 163 168 179 194 186 176 182 185 177 176 177 175 177 182 174 169 165 148 140 128 86 121 108 39 26 25 24 
24 20 19 21 50 164 181 188 189 198 200 197 194 180 111 83 113 124 121 122 128 129 135 134 133 134 139 163 165 167 170 177 172 166 161 163 146 136 126 46 17 31 32 28 27 21 
22 19 23 16 6 157 178 187 190 193 199 201 194 194 175 68 103 194 178 178 192 192 140 167 112 118 109 109 119 149 174 183 176 165 164 158 147 137 131 11 17 18 30 28 26 26 
18 23 24 18 8 145 171 188 189 192 198 199 196 198 204 163 122 155 182 189 207 205 194 204 185 186 173 103 42 91 165 180 178 170 163 151 145 136 109 18 20 18 29 30 30 27 
23 21 19 27 16 72 161 181 184 189 194 195 197 200 201 185 176 173 158 167 165 171 163 165 121 153 138 94 101 159 172 175 180 171 162 146 142 130 32 21 22 23 27 28 27 21 
20 23 20 19 15 7 148 172 181 187 190 193 196 198 202 186 177 178 184 164 162 156 157 147 144 145 131 122 148 175 171 182 176 167 148 146 133 112 7 24 20 14 29 18 21 27 
24 21 19 19 19 17 93 158 178 183 188 192 193 198 199 183 166 158 159 167 170 170 186 168 150 141 131 133 165 180 172 171 166 151 144 140 122 30 20 22 20 18 30 20 19 26 
24 24 18 18 20 22 56 132 170 182 186 193 195 193 194 196 188 162 142 139 138 142 141 134 126 133 140 154 172 165 163 164 153 143 143 132 106 8 18 20 18 17 28 19 17 24 
27 25 16 18 19 19 29 125 143 171 181 192 194 197 199 193 195 187 173 159 146 140 138 140 147 152 154 163 168 164 162 154 142 145 132 97 125 6 22 22 20 15 29 17 15 20 
17 23 20 15 18 19 7 133 116 154 172 177 193 200 201 200 199 196 192 184 180 175 172 170 169 168 170 166 168 165 151 147 144 135 106 119 127 8 15 17 21 20 24 18 17 19 
19 20 21 16 16 17 0 133 124 112 143 163 186 197 201 202 202 202 202 200 202 196 190 189 184 178 181 178 174 165 149 143 136 109 113 134 128 6 20 15 17 21 22 20 18 19 
19 24 22 17 15 18 6 133 134 123 111 139 155 190 197 200 201 203 201 201 203 201 200 198 192 191 186 179 170 155 134 128 103 115 134 133 129 7 29 20 19 16 26 21 18 18 
19 20 21 20 15 17 10 124 132 131 119 108 128 153 183 189 187 195 193 193 189 190 196 196 191 185 184 166 150 128 112 97 113 132 138 134 129 8 55 52 32 16 25 19 13 20 
28 16 16 18 15 17 32 105 130 128 129 116 111 117 145 149 161 167 170 171 168 174 181 179 172 168 162 141 114 95 94 116 131 135 137 135 126 17 53 67 55 48 31 21 17 21 
22 17 18 20 30 39 71 78 127 131 127 124 120 115 114 126 125 127 134 136 136 140 146 147 142 138 124 106 92 99 118 131 137 139 138 130 121 30 64 64 70 71 57 39 44 40 
21 40 44 47 52 52 79 35 121 132 130 123 123 118 118 120 119 112 107 106 101 108 105 104 102 99 89 94 109 123 135 136 144 139 136 127 119 39 67 72 67 73 68 60 75 68 
55 67 58 62 67 67 80 10 118 124 121 124 122 122 119 120 118 117 111 105 97 91 90 89 89 97 109 122 130 131 141 146 146 139 132 129 113 30 64 70 80 75 81 75 82 78 
