P2
46 56
255
131 126 126 120 120 111 110 117 118 110 110 93 91 76 65 41 48 56 66 65 78 85 73 66 70 70 73 84 87 81 72 70 62 63 99 105 118 118 121 121 123 123 123 122 124 122 
126 128 128 120 108 111 120 115 112 112 103 94 74 70 58 35 39 53 65 66 54 60 53 60 64 63 61 58 65 69 68 70 70 60 57 70 91 108 114 118 119 121 122 122 121 120 
126 127 121 121 117 116 119 117 105 97 95 81 84 74 68 52 43 37 50 54 61 59 50 47 53 60 54 58 54 56 54 58 66 76 65 65 61 66 83 99 112 115 116 119 118 120 
130 127 126 120 123 121 117 113 103 95 79 80 87 85 75 62 54 53 51 56 59 54 49 47 50 46 48 42 46 49 48 55 60 61 61 65 78 71 64 81 93 96 109 117 120 120 
126 122 126 121 123 121 121 107 85 76 81 83 82 88 86 71 72 64 63 57 54 63 57 54 48 45 42 38 46 46 51 48 49 52 66 64 63 71 62 54 72 108 101 111 117 119 
122 120 125 118 122 118 111 96 90 89 80 82 92 104 107 104 97 90 95 94 92 79 66 51 46 42 50 41 42 48 46 53 55 50 48 58 64 79 76 62 60 56 97 97 111 117 
117 119 113 113 117 108 92 87 80 67 76 97 116 135 150 128 109 122 123 116 128 105 83 68 63 46 39 51 44 48 48 56 52 60 67 68 72 73 83 70 65 62 58 80 99 112 
116 111 110 116 103 97 92 78 53 76 102 126 153 178 181 165 132 120 124 130 133 128 108 79 79 72 65 54 54 56 47 45 47 51 51 57 67 68 72 75 72 72 66 66 59 107 
110 112 113 101 89 87 68 50 55 93 132 166 185 197 199 190 159 125 122 144 135 131 111 92 88 84 67 69 58 62 63 46 43 43 39 56 51 66 63 62 68 71 68 60 48 61 
111 102 87 78 69 67 51 47 87 119 174 195 200 203 202 201 196 164 116 125 154 136 126 104 104 90 76 67 62 64 62 63 49 37 51 48 43 35 49 60 56 60 63 59 42 52 
104 83 73 59 55 49 46 52 111 174 197 201 201 201 205 205 203 197 172 131 108 125 130 111 102 96 88 67 61 66 74 66 65 54 37 53 43 47 39 48 53 52 57 52 47 46 
81 63 55 43 45 57 49 98 162 193 202 204 205 206 206 205 203 200 194 184 167 118 99 102 111 98 88 76 69 64 75 74 65 59 42 47 58 39 45 47 41 53 58 62 43 45 
64 53 39 39 49 44 74 142 189 201 203 205 206 207 204 204 204 203 200 194 188 170 150 124 93 84 83 82 66 65 63 72 57 58 49 40 53 46 43 39 42 40 50 53 54 50 
54 46 37 46 51 54 113 165 195 204 205 207 205 206 205 204 207 205 203 200 187 185 176 159 128 110 86 76 77 83 80 71 78 60 60 49 42 53 50 42 40 44 44 29 50 52 
64 47 43 46 46 68 136 184 200 205 206 207 207 207 206 205 206 206 206 207 201 184 182 177 159 128 115 108 76 68 72 81 80 74 71 60 58 57 35 44 40 43 44 47 52 61 
63 51 50 49 51 100 164 190 200 204 207 207 206 207 207 206 207 207 208 207 207 199 188 182 174 163 136 116 102 79 68 64 57 60 62 70 51 46 60 33 38 38 49 43 32 51 
68 56 53 51 41 136 184 197 201 206 202 196 196 201 204 205 204 204 204 205 202 202 199 195 185 176 163 139 118 101 80 65 58 55 57 66 65 59 54 52 47 42 34 28 33 29 
65 52 53 38 58 158 187 197 191 174 160 157 152 141 146 151 170 182 192 192 194 199 200 197 191 182 171 162 145 129 106 92 66 56 52 54 57 54 56 59 53 51 40 29 32 26 
61 55 44 31 90 172 191 169 169 185 180 159 129 115 114 120 119 128 149 167 181 193 195 192 185 178 166 151 140 128 102 75 67 57 54 59 56 54 52 54 55 63 56 50 38 37 
59 55 39 22 120 176 176 183 197 199 189 179 172 154 142 132 127 122 132 150 166 189 188 178 172 156 142 120 95 79 76 65 55 64 63 51 52 54 59 62 53 58 56 52 38 45 
66 50 38 13 132 185 182 192 192 183 170 158 152 150 148 139 139 140 144 153 173 191 187 175 157 129 118 116 105 104 102 106 115 108 103 89 68 51 47 51 62 55 60 54 50 40 
65 46 36 20 151 189 189 188 176 147 150 179 179 167 141 120 127 137 142 160 189 197 196 179 149 126 119 116 113 115 111 115 119 114 108 105 94 77 58 59 53 56 57 58 58 54 
59 48 29 50 165 194 195 184 167 165 163 132 103 84 91 108 111 118 129 139 199 205 203 183 144 114 112 114 109 97 107 108 107 101 84 98 99 89 73 41 41 50 53 56 50 56 
50 50 29 92 180 199 199 190 162 116 112 178 104 57 51 99 103 111 119 135 194 206 205 185 132 104 108 104 101 112 90 67 69 79 79 68 87 87 85 62 31 36 41 45 53 42 
47 53 19 128 190 201 202 198 178 139 146 182 135 76 65 124 121 115 147 169 197 206 205 178 128 98 113 107 94 137 87 52 46 55 76 48 64 88 86 74 32 32 38 45 47 53 
46 47 21 143 193 205 204 204 199 186 168 155 142 128 124 124 132 145 165 191 202 206 204 173 139 125 124 136 125 137 132 66 50 94 99 50 52 79 93 82 44 27 40 34 46 46 
46 49 28 148 200 206 206 206 202 194 181 166 144 130 126 135 143 169 194 200 205 208 204 166 139 145 137 144 138 127 119 104 103 93 78 64 73 84 102 86 41 29 32 30 40 45 
44 54 21 151 198 205 205 205 205 202 197 192 182 171 166 167 187 201 202 203 208 207 203 164 141 151 159 162 146 128 125 117 115 111 104 99 97 98 109 102 47 29 31 38 34 39 
49 50 12 147 198 207 204 205 206 206 205 203 201 200 196 201 204 205 204 204 206 208 201 161 144 148 162 177 171 152 141 128 123 119 119 118 117 111 119 114 47 35 38 39 38 37 
49 48 13 134 195 203 204 205 207 206 207 207 206 207 206 204 204 206 206 204 207 207 198 166 146 142 156 177 185 182 173 167 159 152 153 153 146 128 123 118 58 37 43 31 41 35 
47 45 21 106 190 202 204 204 206 206 206 207 207 204 205 203 205 205 204 207 207 206 196 173 150 137 149 174 181 186 189 187 184 184 179 174 163 144 132 119 62 27 37 30 41 43 
46 47 30 79 185 201 203 206 206 204 207 207 204 200 194 198 198 203 205 206 206 205 197 181 153 138 133 169 180 188 191 191 191 190 184 179 166 149 140 120 59 28 42 30 35 36 
43 45 33 63 175 196 202 204 206 206 205 205 203 194 185 187 188 205 206 207 205 199 193 175 144 142 131 156 176 181 188 193 190 187 184 178 164 146 141 117 40 31 31 38 28 32 
48 47 27 44 168 193 202 203 204 205 204 203 201 195 184 181 194 203 193 199 196 188 171 142 134 138 136 144 170 177 182 185 186 182 177 168 155 147 134 96 39 42 35 43 22 34 
45 47 28 43 162 192 196 201 203 203 201 201 196 190 180 191 202 195 147 162 179 156 141 102 125 134 133 142 158 169 176 181 181 175 169 161 150 140 123 79 30 38 35 34 29 37 
44 44 35 27 159 188 195 198 202 202 200 195 189 187 190 198 202 203 180 157 169 136 112 88 96 126 137 142 145 156 168 177 175 169 165 154 145 131 114 62 37 38 32 42 30 38 
44 42 38 8 158 188 193 197 201 200 198 193 189 194 198 200 203 203 198 188 176 136 124 115 116 133 138 142 145 151 160 162 166 164 160 147 135 125 103 53 39 27 41 41 37 41 
45 41 38 14 148 193 196 196 200 199 196 190 193 199 200 203 204 204 203 201 178 148 146 134 136 140 141 146 152 159 154 158 160 154 149 136 129 118 88 46 34 21 35 32 33 38 
55 35 33 23 133 192 196 196 199 196 196 194 197 200 204 204 204 203 203 201 175 163 148 141 145 142 146 147 150 159 160 158 154 149 143 131 126 112 84 45 27 21 33 35 36 43 
58 37 38 35 106 188 195 196 200 200 201 197 198 200 201 203 202 200 196 191 179 185 155 136 144 148 146 149 147 156 158 156 148 146 142 133 126 104 74 32 22 21 36 34 37 35 
53 29 37 33 51 182 193 197 198 201 203 198 188 168 143 157 153 153 145 139 144 130 112 115 124 136 136 142 145 149 151 147 150 142 137 128 122 100 72 30 14 32 41 25 56 33 
45 32 28 30 13 168 193 196 198 202 203 197 189 191 156 149 143 128 119 119 111 96 100 102 98 99 102 116 131 147 153 155 152 144 134 129 117 97 65 20 30 37 37 29 52 38 
39 33 27 30 19 138 187 193 199 196 199 192 196 202 196 181 187 179 144 119 108 99 94 99 96 90 79 84 108 138 151 159 151 143 137 128 113 88 47 25 33 29 25 32 42 42 
39 30 33 34 27 39 175 190 193 193 197 197 200 202 201 185 178 169 163 159 157 151 140 124 114 109 113 129 134 140 153 156 146 137 130 121 102 75 31 36 27 27 28 32 51 31 
42 30 30 38 26 16 141 185 190 193 197 198 200 201 200 197 182 158 144 137 132 127 120 117 123 118 130 148 148 142 145 145 137 129 125 114 92 49 33 36 22 25 34 34 49 31 
39 34 31 41 30 23 21 172 187 190 196 200 200 199 196 195 188 164 139 128 116 117 120 120 127 135 140 147 137 131 139 136 131 125 118 104 68 32 25 33 20 34 39 34 46 33 
39 30 34 35 30 24 18 118 180 189 191 196 201 202 199 196 191 172 154 143 134 134 133 136 140 137 138 144 142 137 131 128 124 122 113 86 42 39 22 24 34 38 36 36 53 37 
40 27 35 40 31 23 17 70 140 178 183 192 200 201 202 200 194 187 176 161 144 138 144 142 145 143 144 150 141 131 125 121 119 114 96 49 35 33 18 26 38 41 41 42 49 35 
52 32 36 47 31 29 24 59 109 142 173 181 198 201 203 202 201 201 197 192 181 169 165 159 160 154 150 152 138 124 120 117 116 100 62 40 35 28 27 34 34 40 36 41 43 37 
37 36 30 47 26 28 23 50 121 117 138 167 184 200 201 202 203 201 193 187 181 184 182 176 171 161 152 145 126 115 110 107 91 59 50 41 43 26 33 31 37 38 35 35 41 32 
35 37 35 38 31 24 24 35 115 127 122 127 159 189 191 192 190 185 179 171 174 177 174 168 155 154 144 128 113 102 98 79 65 57 48 44 42 36 28 37 36 33 25 32 40 29 
34 37 38 38 35 29 29 27 115 130 136 120 121 148 165 162 165 156 151 148 154 155 152 143 141 137 126 109 96 85 69 68 66 60 45 41 45 36 29 33 34 40 29 29 40 37 
43 34 37 41 37 38 33 18 106 127 132 130 122 120 128 140 135 130 124 126 127 128 124 122 119 115 98 87 84 79 75 72 64 59 51 46 40 31 31 40 47 40 38 26 41 48 
48 42 39 40 41 41 34 13 97 124 131 133 132 130 124 129 130 121 115 112 109 106 107 102 96 90 88 89 87 82 76 68 65 55 50 46 31 33 40 38 46 48 46 36 40 56 
51 44 40 49 43 38 31 11 90 114 126 130 130 132 132 130 131 134 131 122 112 105 102 97 100 99 98 95 91 81 76 71 69 57 55 46 38 32 35 30 48 40 44 51 40 47 
62 51 48 57 40 36 37 13 78 115 123 131 131 129 131 135 133 131 131 129 119 112 109 108 105 104 99 92 85 82 81 76 68 61 63 47 35 27 39 30 46 57 48 46 41 41 
