P1
20 30
0000000000000000000000000000000001100000000000001111111100000001111111
1111111000001111111111101110000001111100000011100000000000000001110000
0000000000000111000000000000000001110000000000000000011100000000000000
0001110000000000000000111000000000000000001110000000000000000011100000
0000000000001110000000000000000011100000000000111111111111000000011111
1111111110000000111111111111000000000000011100000000000000000111000000
0000000000111000000000000000001110000000000000000011100000000000000000
1110000000000000000011100000000000000000111000000000000000001110000000
0000000000111000000000000000001110000000