P1
20 30
0000000000000000000000000000001111100000000011111111111100000001111111
1111111000000011111100001110000000000000000011100000000000000000111000
0000000000000011100000000000000000111000000000000000011100000000000000
0001110000000000000000011100000000000000000111000000000000000011100000
0000000000001110000000000000000011100000000000000000111110000000001111
1111111110000001111111111111110000001111111100011000000000000111000000
0000000000011100000000000000000111000000000000000011100000000000000000
1110000000000000000011100000000000000000111000000000000000001110000000
0000000000111000000000000000001110000000