P1
20 30
0000000001000000000000000000111000000000000000011110000000000000000111
1000000000000000011110000000000000001111100000000000000011111000000000
0000011111100000000000000111011100000000000001110111000000000000111101
1100000000000011100111000000000000111001110000000000000100011100000000
0000000001110000000000000000011100000000000000000011100000000000000000
1110000000000000000011100000000000000000111000000000000000001110000000
0000000000111000000000000000001110000000000000000011110000000000000000
0111000000000000000001110000000000000000001000000000000000000000000000
0000000000000000000000000000000000000000