P1
20 30
0000000001110000000000000000011100000000000000001111000000000000000011
1100000000000000011111000000000000000111110000000000000001111100000000
0000001111110000000000000011111100000000000001110111000000000000111001
1100000000000001000111000000000000000001110000000000000000011100000000
0000000001110000000000000000011100000000000000000111000000000000000001
1100000000000000000111000000000000000001110000000000000000011100000000
0000000001110000000000000000011100000000000000000111000000000000000001
1100000000000000000111000000000000000001110000000000000000011100000000
0000000000100000000000000000000000000000