P1
20 30
0000000001000000000000000000111000000000000000011110000000000000000111
1000000000000000011111000000000000001111110000000000000011111100000000
0000011101110000000000000111011100000000000011100111000000000000111001
1100000000000001000111000000000000000001110000000000000000011100000000
0000000001110000000000000000011100000000000000000111000000000000000001
1100000000000000000111000000000000000000111000000000000000001110000000
0000000000111000000000000000001110000000000000000011100000000000000000
1110000000000000000011100000000000000000111100000000000000000110000000
0000000000000000000000000000000000000000