P2
46 56
255
126 125 122 123 125 125 125 123 126 114 93 85 87 80 84 87 88 104 90 71 82 72 74 66 74 73 68 92 72 81 93 93 99 106 95 95 100 101 114 118 120 122 122 119 121 119 
124 123 125 124 121 122 123 119 99 94 73 73 79 75 73 77 66 67 78 68 73 76 75 60 57 63 70 76 60 75 87 80 77 66 78 83 109 92 114 108 110 113 119 117 119 121 
125 124 125 125 123 120 114 95 84 87 58 54 53 64 53 63 58 58 62 57 74 72 77 74 78 80 95 102 75 80 66 62 64 66 61 78 87 86 93 94 83 72 119 121 121 121 
124 127 125 126 122 116 101 78 77 79 60 41 46 62 51 49 64 59 56 61 57 45 56 54 53 65 67 65 62 60 63 73 67 75 71 80 68 81 91 92 77 88 74 116 119 121 
121 125 124 124 117 88 64 64 48 44 43 44 47 46 54 51 42 39 37 57 45 33 40 40 50 57 64 56 59 66 89 91 76 66 68 76 92 91 90 115 101 92 73 103 122 120 
126 125 128 116 83 51 50 44 28 32 38 54 64 49 38 43 37 34 32 52 41 47 48 45 55 70 69 72 77 72 71 73 84 76 68 75 85 79 85 83 86 80 63 87 120 119 
120 124 120 89 73 59 42 52 65 39 79 78 77 72 65 47 39 34 30 40 32 34 37 49 56 67 64 78 69 75 83 66 52 59 70 56 69 78 76 79 67 63 67 73 110 119 
121 122 104 62 51 50 68 87 93 77 94 88 68 57 55 60 44 44 38 43 45 31 53 52 40 38 45 64 87 90 89 92 68 67 56 59 83 75 60 60 56 70 61 54 78 95 
126 124 78 59 60 58 79 87 92 81 82 78 68 76 80 77 67 56 43 40 39 48 49 31 26 22 32 51 63 88 97 81 68 65 60 77 78 64 62 63 64 62 56 48 46 80 
123 85 70 60 59 55 60 79 96 88 75 78 92 88 81 74 65 56 46 43 39 46 43 31 27 26 31 35 43 67 72 56 73 74 72 56 52 52 56 54 62 59 53 54 50 73 
109 72 58 64 51 54 62 88 77 76 87 85 76 67 61 69 49 41 40 41 46 55 50 40 40 30 32 33 60 58 51 57 67 55 52 55 54 41 42 54 43 50 51 51 40 58 
95 58 57 50 53 55 56 70 78 89 84 93 93 85 78 60 53 48 52 56 51 66 72 57 54 51 41 59 66 69 63 59 59 62 67 69 70 69 56 50 43 38 37 36 47 56 
58 71 54 85 62 53 51 64 82 69 74 82 79 102 91 78 64 62 60 70 63 74 79 76 91 85 77 96 94 59 86 81 96 98 93 81 79 66 60 46 44 48 43 34 31 48 
56 72 77 60 45 46 46 51 55 58 68 73 76 78 80 91 85 78 72 96 88 90 93 89 124 123 131 127 130 85 113 126 132 117 111 109 81 57 45 48 53 52 50 45 36 49 
70 67 60 52 40 41 46 41 48 52 57 62 73 79 77 89 92 82 106 111 118 125 120 130 161 161 159 144 150 125 152 150 154 153 141 131 108 80 39 43 37 55 53 36 43 43 
59 46 60 45 43 40 42 46 54 51 53 64 76 80 87 94 84 95 136 168 167 151 148 171 182 183 181 171 178 166 166 177 177 180 170 158 151 116 90 30 37 42 45 44 39 33 
48 51 60 54 41 39 47 52 54 69 65 73 83 91 101 88 105 132 159 171 178 186 185 192 200 196 194 193 186 188 190 188 182 181 183 170 169 157 137 77 47 74 39 40 34 47 
51 59 48 81 47 37 47 59 60 84 108 108 92 95 103 112 145 175 186 188 190 197 200 201 202 199 195 198 196 197 194 188 188 183 178 179 172 159 149 120 41 60 58 48 26 30 
65 78 47 71 72 43 46 47 72 105 122 114 117 128 147 165 183 188 189 194 200 205 204 203 200 197 197 197 198 196 197 190 188 188 180 177 170 162 155 137 93 59 72 49 51 46 
53 60 58 62 60 43 49 62 92 125 147 147 154 160 171 181 185 190 196 199 202 202 203 203 202 199 198 196 198 197 194 193 188 187 183 180 174 168 158 147 127 18 53 44 54 87 
52 67 64 57 51 50 46 82 96 140 160 164 166 175 184 189 193 195 199 201 202 203 206 206 204 201 199 197 200 199 201 196 190 192 187 182 180 170 163 154 126 15 44 45 32 97 
56 58 57 49 49 48 53 68 98 144 173 179 181 189 193 193 197 200 201 202 206 204 205 206 205 201 202 196 199 201 201 191 190 196 193 186 186 176 165 156 126 74 44 32 55 105 
56 56 50 63 44 47 50 69 106 151 174 180 186 190 193 196 198 200 202 203 206 206 204 206 207 200 199 201 198 197 197 197 197 199 196 191 185 178 166 161 135 129 20 31 52 110 
56 42 34 51 43 42 49 66 112 155 168 174 183 187 191 193 197 200 202 204 204 204 203 204 202 198 193 197 191 189 194 191 187 185 178 173 162 158 151 151 142 126 11 24 40 110 
44 36 43 34 44 43 38 70 128 155 171 177 179 181 185 191 197 200 199 201 202 202 199 197 195 191 188 191 186 185 181 170 156 130 107 107 103 91 106 110 111 92 40 31 41 109 
71 55 55 48 45 40 34 85 152 157 168 177 179 183 183 188 192 192 188 182 183 173 178 174 174 169 174 183 184 176 165 144 117 100 88 97 112 123 126 122 128 96 73 19 88 105 
102 61 35 46 49 29 26 97 154 155 171 181 178 177 182 178 165 164 155 134 109 95 92 107 125 136 152 172 184 159 141 117 106 105 88 108 99 87 72 98 108 110 105 53 104 104 
93 61 40 34 52 28 35 110 154 156 169 174 171 153 135 121 118 121 121 124 116 110 113 122 129 137 140 175 191 183 151 116 96 101 61 153 62 107 57 78 104 106 123 52 100 102 
92 89 53 35 31 30 34 102 153 159 167 170 153 132 137 132 131 107 93 87 80 92 105 101 124 141 153 177 199 200 168 113 125 164 92 87 77 157 103 70 99 114 130 50 100 102 
88 89 72 42 35 32 36 93 151 155 163 166 160 141 134 122 87 83 67 66 109 116 165 120 147 138 154 180 199 202 186 124 148 142 148 141 124 121 124 112 117 129 135 85 94 96 
89 90 83 51 52 45 41 119 150 161 161 165 157 149 135 122 93 89 142 90 95 166 166 148 162 156 164 183 194 201 198 154 144 147 137 129 140 143 143 140 141 147 139 102 90 95 
86 84 73 90 72 75 78 127 144 159 168 178 173 165 141 141 139 130 144 145 146 152 149 160 171 171 181 187 188 197 198 172 147 158 164 161 167 166 164 163 157 160 140 110 87 93 
90 84 77 149 108 101 97 131 140 156 168 179 188 185 184 193 190 184 181 175 166 172 178 186 187 187 186 187 185 193 198 190 157 156 174 180 180 174 176 175 182 168 142 112 84 91 
86 85 87 154 137 120 78 134 138 147 166 176 191 194 196 199 198 196 195 193 196 194 195 198 196 187 182 180 182 191 197 193 180 149 178 186 186 189 179 181 179 169 148 114 85 90 
86 86 86 94 180 155 106 134 137 145 159 169 183 190 198 202 202 202 201 201 201 200 201 201 197 188 185 174 173 185 192 185 186 168 159 182 187 190 185 179 178 162 146 112 77 89 
84 82 82 65 194 196 171 123 144 140 149 163 172 179 190 196 202 201 201 201 201 202 201 199 198 191 174 171 164 179 196 198 188 184 157 174 187 188 185 183 176 160 149 113 85 94 
86 84 82 57 174 186 155 127 140 142 145 150 164 172 182 187 193 200 200 200 201 200 201 197 195 184 161 165 158 175 180 188 187 178 121 150 188 185 187 178 174 158 141 111 83 92 
86 85 82 66 185 194 197 120 131 143 149 150 157 168 176 183 188 196 198 199 201 202 199 196 192 164 167 164 158 144 136 141 140 122 92 124 185 180 182 179 157 150 137 112 84 96 
85 84 82 83 142 148 182 105 130 142 140 148 155 163 174 178 185 192 195 195 199 198 196 190 182 153 145 149 104 54 79 112 103 71 79 112 175 175 179 172 157 142 131 115 83 96 
80 83 82 85 68 153 167 111 123 132 134 146 151 160 161 171 179 183 190 193 192 192 188 189 184 165 115 113 127 130 109 96 89 98 104 140 161 171 171 167 151 135 126 108 82 92 
81 81 80 82 81 80 142 118 115 127 129 141 151 152 163 166 170 176 179 182 182 183 180 189 190 193 171 128 124 130 138 129 123 127 140 143 140 154 161 161 145 131 124 106 89 94 
84 80 78 75 79 79 78 77 97 117 121 141 150 152 149 153 162 166 170 169 178 179 184 185 183 181 174 174 174 163 154 129 139 136 138 132 129 136 144 145 136 126 121 104 89 96 
83 78 80 76 76 75 75 79 77 106 118 132 140 150 148 148 151 152 162 163 154 171 174 168 165 165 168 166 165 165 149 140 147 145 134 124 115 107 121 128 118 113 116 95 92 95 
82 79 75 80 77 74 77 76 70 96 112 123 138 147 140 143 146 145 148 148 147 147 138 131 136 147 146 153 151 157 169 179 178 147 131 114 92 65 97 112 108 114 109 86 89 93 
82 78 80 77 71 75 78 77 77 75 100 121 134 142 137 133 139 143 137 134 125 116 102 94 101 110 127 136 148 145 139 145 130 91 82 81 103 124 121 121 130 113 99 86 89 91 
79 76 77 78 73 73 72 74 73 83 83 110 124 135 143 140 139 134 137 127 113 112 102 108 100 93 95 105 111 119 114 111 127 122 110 114 116 148 151 133 129 102 85 89 91 92 
81 75 75 72 73 70 74 75 69 99 74 93 118 125 133 138 135 142 137 140 138 137 142 148 149 160 158 157 151 152 144 137 134 131 129 116 124 139 136 128 112 97 77 89 89 89 
81 79 75 75 72 69 68 74 66 110 94 78 98 118 128 131 136 134 139 143 147 148 162 167 167 157 153 152 140 131 129 127 121 115 111 113 121 122 120 116 101 83 80 85 90 92 
76 78 74 73 70 69 71 75 64 117 108 86 78 102 114 124 132 135 135 134 139 145 150 150 157 147 142 137 133 122 113 109 112 108 111 112 112 120 115 109 90 72 85 87 88 90 
79 74 73 72 70 70 69 71 58 121 113 97 75 79 100 107 121 123 120 124 128 138 142 140 146 138 129 129 138 156 173 170 146 124 113 119 124 124 112 97 68 79 81 89 92 92 
77 75 72 72 68 69 68 70 51 123 117 106 85 71 78 95 104 109 115 120 122 133 138 142 143 141 146 147 152 153 146 147 141 126 121 127 126 114 97 61 71 81 86 86 89 91 
73 74 68 73 68 67 68 69 11 127 121 112 96 82 70 82 88 100 103 109 112 123 127 136 142 149 150 146 153 142 134 129 122 114 121 120 112 98 62 69 71 79 83 85 88 91 
82 77 72 68 66 70 91 54 29 126 120 120 104 83 73 71 78 83 86 90 94 105 114 125 139 138 145 139 129 122 117 111 100 95 107 104 92 65 67 69 70 76 85 84 85 87 
75 74 77 69 94 72 90 42 58 123 124 121 105 91 70 70 69 69 74 77 76 82 83 101 111 118 118 120 116 106 96 95 90 84 78 70 60 62 67 67 67 77 79 79 84 82 
77 77 70 96 138 63 74 20 118 125 129 120 112 102 92 75 74 74 71 73 77 76 71 62 68 79 81 79 76 65 65 64 57 50 46 60 55 61 65 65 64 72 80 77 81 82 
71 80 101 97 82 88 80 19 126 123 126 128 117 106 94 80 83 79 77 81 77 73 80 72 64 57 54 50 49 49 47 47 47 46 48 68 25 51 56 64 63 70 72 75 81 81 
