P2
46 56
15
2 2 2 2 2 2 2 2 2 2 2 2 3 3 3 2 2 2 2 2 2 2 2 2 2 2 2 2 2 2 2 1 2 2 2 2 2 2 2 2 2 3 3 2 2 2
2 2 2 1 1 2 2 2 2 2 2 3 2 2 2 2 2 2 2 3 2 2 2 2 2 2 2 2 2 2 2 2 2 3 2 3 2 2 2 2 2 3 3 2 2 3
2 2 2 2 2 1 2 2 2 3 3 2 3 2 2 3 2 3 2 2 2 2 2 2 2 3 2 2 2 2 2 2 3 3 3 3 3 3 2 2 3 2 3 3 3 2
2 2 2 1 2 2 2 2 2 2 3 3 3 3 4 3 3 3 3 3 2 2 3 3 3 2 2 2 2 2 2 3 3 2 3 3 2 2 3 2 3 3 3 3 3 3
2 2 2 2 2 2 2 2 2 3 3 4 4 3 3 3 3 3 3 3 3 3 3 3 2 3 3 3 3 3 4 3 3 4 4 4 2 3 2 3 2 3 3 2 3 3
2 2 2 2 2 2 4 3 3 4 5 5 3 3 3 4 4 4 3 3 3 3 3 3 3 3 3 3 4 4 4 4 3 4 4 4 3 3 3 3 3 2 2 2 3 3
2 3 2 1 2 2 3 3 3 4 5 4 4 4 4 4 4 4 4 3 3 3 3 3 4 4 4 4 5 4 5 4 4 4 4 5 4 2 3 3 2 3 3 2 3 3
3 2 1 2 2 2 2 3 4 5 5 5 5 5 4 5 4 5 4 4 3 4 4 4 4 4 5 5 6 5 5 5 5 5 5 5 5 4 2 2 2 3 2 2 3 2
3 2 2 2 2 2 2 3 5 5 6 6 5 5 6 5 5 5 4 5 4 4 4 5 5 5 6 6 6 6 6 5 5 5 5 5 5 5 2 2 2 3 2 2 3 3
3 2 2 1 2 1 2 4 5 6 6 7 6 6 6 6 6 5 5 4 4 5 5 5 5 6 6 6 6 6 6 5 5 6 5 6 6 5 3 2 2 2 2 2 3 3
2 2 2 2 2 2 3 4 6 6 7 6 6 6 7 6 5 5 5 4 5 5 5 6 6 7 7 7 7 7 7 6 6 6 6 7 6 6 4 3 2 2 3 2 3 3
2 3 1 2 2 2 3 5 6 6 7 8 7 7 6 6 5 5 5 5 5 6 6 7 7 7 7 7 7 7 7 7 7 7 6 7 7 6 5 2 2 2 2 2 3 3
2 2 2 2 2 3 4 5 6 7 8 8 7 7 6 6 5 5 5 5 6 7 7 7 7 7 7 7 7 7 7 7 7 7 7 7 7 7 6 3 2 2 2 2 3 3
3 3 2 2 2 3 4 6 7 7 8 7 7 7 6 5 6 6 6 7 7 7 7 7 7 7 7 7 8 7 7 7 7 8 8 8 7 7 6 3 2 2 2 2 3 3
2 3 2 2 2 3 5 7 8 8 8 8 7 7 7 7 7 7 7 7 7 7 7 7 7 7 8 7 8 8 8 8 8 8 8 8 7 7 6 3 3 3 2 2 3 3
3 3 1 1 2 4 6 7 8 8 8 8 8 8 8 8 8 8 8 8 7 7 7 7 7 8 8 8 8 8 8 8 8 8 8 8 8 7 7 4 3 3 3 3 3 3
3 3 1 2 3 5 7 8 8 8 8 8 8 8 8 8 8 8 8 8 8 8 8 8 8 8 8 8 8 8 8 8 8 9 8 8 8 8 8 5 3 3 2 4 3 3
3 3 2 2 3 5 7 8 8 8 8 7 6 7 7 8 8 8 7 8 8 8 8 9 8 8 9 8 8 8 8 8 9 8 8 8 8 8 8 7 3 2 2 3 3 3
3 3 3 2 3 5 8 8 8 8 7 6 6 6 6 6 6 7 7 8 8 8 8 8 8 8 8 8 8 8 8 8 8 7 7 7 7 7 8 7 3 2 3 3 3 3
2 2 3 2 3 5 8 8 7 7 6 6 6 6 5 5 5 6 7 8 8 8 8 8 8 8 8 8 8 6 5 5 6 7 7 7 7 7 8 7 2 3 3 3 3 3
2 7 7 2 3 5 8 8 7 7 7 7 8 8 8 8 8 8 9 9 9 9 8 8 8 9 9 8 7 7 6 6 5 6 7 6 6 7 7 7 3 4 3 3 3 3
2 7 9 6 2 5 8 8 8 8 8 9 8 7 5 4 3 3 6 8 9 10 9 8 9 9 8 8 8 7 7 7 7 8 9 8 8 7 7 8 3 3 3 7 8 3
5 6 7 9 3 5 8 8 9 9 9 7 6 5 4 3 3 4 4 6 8 9 9 9 9 8 8 7 6 4 4 5 6 5 7 8 9 8 8 8 3 3 8 9 8 9
8 6 8 11 8 5 8 9 9 9 8 5 6 8 2 2 2 3 4 5 7 8 9 9 9 8 7 5 4 5 5 3 2 2 5 7 8 9 8 8 4 3 10 9 9 8
8 6 9 9 9 6 8 9 9 9 7 6 6 12 7 2 2 4 4 5 7 7 9 10 9 7 6 6 5 5 6 3 2 2 6 6 8 9 8 8 5 4 9 9 10 8
5 5 10 10 9 7 8 8 9 9 8 8 8 6 6 5 5 5 5 5 6 7 9 10 10 7 7 5 4 5 6 6 3 5 6 7 8 9 9 8 5 7 10 9 10 8
2 5 10 9 7 7 8 8 9 8 8 8 9 9 7 6 6 6 5 5 6 8 8 9 9 7 6 5 5 6 6 6 6 8 7 8 9 9 9 8 7 10 9 9 8 9
1 6 9 7 7 7 8 8 8 8 8 9 9 8 7 7 7 6 6 7 8 8 8 9 10 8 6 6 6 7 7 8 9 8 8 9 9 9 9 8 7 8 9 9 5 6
2 7 9 7 7 7 8 8 9 9 8 8 8 8 7 7 7 7 8 8 8 8 8 9 9 8 8 7 7 7 7 7 8 9 9 9 9 9 9 8 8 7 8 9 6 3
2 7 9 6 6 8 8 9 9 9 9 8 8 8 7 7 7 8 9 9 9 8 8 9 9 8 8 8 8 8 7 8 8 9 9 9 9 9 8 8 8 7 8 8 8 3
3 7 8 8 6 8 8 8 9 10 9 9 8 8 8 8 8 8 8 9 9 8 8 9 10 9 8 9 8 8 8 8 8 9 9 9 9 9 8 8 8 6 9 8 8 3
3 4 7 8 8 6 8 8 9 9 10 9 9 8 8 9 9 9 8 9 8 8 8 9 9 9 8 9 9 9 9 8 9 9 9 9 9 9 8 8 7 7 10 7 5 3
2 1 8 8 9 7 8 8 9 10 10 9 9 9 9 9 9 9 9 8 8 8 9 9 10 9 8 8 9 9 9 9 9 9 9 9 9 9 8 7 8 9 8 9 2 3
2 2 7 8 10 10 8 8 9 10 9 10 9 9 9 9 9 9 8 8 8 8 9 9 9 9 8 8 9 9 10 10 10 10 9 9 9 9 8 8 9 9 8 9 3 3
2 2 1 8 9 9 8 8 9 10 10 10 9 9 9 9 9 8 8 9 9 9 9 9 9 9 9 8 9 9 9 10 10 10 9 9 10 9 8 8 10 9 8 3 3 3
2 2 2 5 9 9 9 8 9 10 10 10 9 10 9 9 8 7 8 10 6 7 10 10 9 9 8 9 9 8 9 9 9 10 10 9 9 9 8 8 9 9 9 3 3 3
2 2 2 2 2 8 9 8 9 10 10 10 10 10 10 9 8 8 8 8 8 7 9 10 10 8 6 8 9 9 9 9 10 10 10 10 9 9 8 8 9 10 3 3 3 3
2 2 2 2 2 2 1 8 8 10 10 10 10 10 10 9 9 9 8 8 7 9 9 10 9 7 7 8 8 9 9 9 9 10 10 10 9 9 8 8 6 2 3 3 3 3
2 2 2 2 2 2 2 9 8 10 10 10 11 10 10 9 9 8 8 8 7 8 9 8 9 7 7 8 9 9 9 9 9 10 10 10 10 9 8 8 3 3 3 3 3 3
2 2 2 2 2 2 2 7 8 9 10 10 11 10 9 9 9 8 8 8 7 7 8 7 8 7 7 8 8 9 9 9 9 10 10 10 9 9 8 6 3 3 3 3 3 3
2 2 2 2 2 2 2 3 9 9 10 11 11 10 9 9 9 9 8 8 8 8 8 6 7 7 7 8 8 9 9 9 9 9 10 10 9 9 8 4 3 3 3 3 3 3
2 2 2 2 2 3 2 1 9 9 10 10 10 10 10 10 10 10 9 9 8 8 8 8 8 8 8 8 8 9 9 9 9 10 10 10 9 9 9 2 3 3 3 3 3 3
2 2 2 2 2 2 2 2 8 9 10 10 11 10 10 9 6 5 5 6 5 5 5 5 5 5 5 5 5 5 6 8 9 10 10 10 9 9 9 2 3 3 3 3 3 3
3 2 2 2 2 2 2 2 3 9 10 10 11 10 9 8 7 8 7 7 7 6 6 6 6 6 6 6 6 7 7 7 9 10 10 9 9 9 7 3 3 3 3 3 3 3
3 3 2 3 2 2 2 2 2 9 9 10 10 11 9 8 8 9 10 9 8 7 7 6 6 7 8 9 9 9 9 8 9 9 10 10 9 9 3 3 3 3 3 3 3 3
2 2 2 3 3 2 2 2 2 4 9 10 10 10 9 9 9 9 10 10 10 9 9 9 9 9 9 9 9 9 9 9 9 9 10 9 9 8 3 3 3 3 3 3 3 3
2 3 3 3 2 2 3 2 2 2 9 10 10 10 9 8 9 10 10 10 10 9 8 8 9 9 9 9 9 9 9 9 9 9 10 10 9 3 3 3 3 3 3 3 3 3
3 2 3 3 3 3 2 2 2 2 2 10 10 10 9 9 9 9 9 9 8 7 7 6 7 8 8 9 9 9 9 9 9 9 9 9 8 4 3 3 3 3 3 3 3 3
3 3 2 3 3 3 3 2 2 2 1 10 10 10 10 9 9 9 8 8 9 8 8 8 8 9 9 9 9 9 9 9 9 9 9 9 9 5 8 3 3 3 3 3 3 3
2 3 2 3 3 3 3 2 2 2 2 8 10 10 9 9 9 9 9 9 9 8 8 9 9 9 9 9 9 9 9 9 9 9 9 9 10 6 6 10 2 3 3 3 3 3
2 2 2 2 2 2 2 2 2 2 11 5 10 10 10 9 9 9 9 9 9 9 9 9 8 9 9 9 9 9 9 9 9 9 9 9 10 6 5 7 11 3 3 3 3 3
2 2 3 2 2 3 2 2 2 1 11 1 9 10 10 10 9 9 9 9 9 9 9 9 9 9 9 9 9 9 9 9 9 9 9 9 9 7 8 5 9 4 3 3 3 3
3 2 3 2 2 2 2 2 2 10 11 1 5 8 10 10 10 9 9 10 10 10 9 9 9 9 9 9 9 9 9 9 9 9 9 9 7 6 7 6 6 13 2 3 3 3
2 3 2 2 2 2 2 2 1 13 13 3 6 5 6 8 10 9 9 9 9 9 10 9 9 9 9 9 8 9 9 8 9 9 9 9 6 6 6 6 7 11 10 2 3 3
2 2 2 2 2 2 2 2 8 13 13 3 6 6 5 5 7 8 10 10 9 10 9 9 9 9 9 9 9 8 9 10 10 9 10 9 5 6 7 7 5 7 13 2 3 3
2 2 2 2 2 5 9 9 12 12 12 11 5 6 6 6 5 6 7 9 10 9 10 10 10 10 9 9 9 9 10 9 10 9 10 10 6 5 6 7 7 12 13 13 2 3
