P2
46 56
255
116 117 115 119 117 116 83 33 40 51 42 47 50 57 74 71 68 67 51 59 39 35 36 28 29 30 77 91 109 103 93 74 86 107 112 115 112 114 117 113 117 115 115 112 117 117 
111 111 117 115 116 74 45 45 49 66 60 71 64 52 56 71 66 60 56 57 50 57 42 43 45 26 30 96 86 82 85 75 106 87 96 114 113 114 115 118 112 114 116 115 116 116 
117 124 115 112 79 59 60 49 43 50 76 89 65 49 47 60 70 65 52 48 47 45 58 42 53 36 32 38 63 50 38 40 39 58 80 104 111 115 112 114 115 113 112 112 117 117 
113 115 102 46 51 47 77 40 53 57 67 87 87 66 77 53 48 54 48 53 55 34 48 36 50 49 37 29 43 31 37 31 28 33 44 67 85 110 115 116 114 114 114 115 116 116 
123 106 42 37 41 66 43 39 42 68 85 76 77 85 77 69 53 51 41 53 46 38 50 48 35 44 41 43 28 48 37 37 42 42 34 36 51 79 93 112 115 114 111 114 112 118 
103 27 36 25 39 36 40 47 40 60 78 70 54 37 31 45 39 47 41 44 39 32 38 39 36 26 37 38 42 25 34 46 42 54 36 45 38 44 70 101 114 111 119 114 113 117 
38 33 28 32 36 27 35 35 38 50 65 69 55 50 39 35 31 29 31 34 47 37 35 36 25 34 33 48 27 22 48 54 47 51 35 35 63 34 54 71 113 113 115 116 114 112 
29 27 35 24 23 38 34 32 41 63 67 71 54 40 34 26 25 68 46 48 36 43 51 63 79 103 103 96 57 47 49 50 40 31 33 47 49 36 54 68 89 116 112 115 115 114 
33 41 44 36 36 34 27 32 35 59 65 66 67 53 45 52 80 57 51 44 50 46 87 109 123 128 139 145 110 93 64 49 43 27 23 49 75 32 57 52 61 107 113 112 114 115 
39 34 30 28 33 29 30 38 37 62 74 68 50 47 53 81 45 46 66 47 50 75 102 128 144 158 176 180 145 152 81 91 49 40 32 40 43 55 50 36 34 77 113 116 113 117 
21 21 21 36 27 31 38 42 39 46 57 59 53 41 40 47 72 76 65 46 68 118 130 123 153 177 183 181 169 160 114 117 57 54 39 65 57 68 48 22 27 44 111 107 116 116 
29 31 31 31 26 30 34 30 33 39 63 66 50 39 40 54 75 69 70 59 111 131 132 140 160 180 182 187 170 131 164 114 87 88 47 48 54 45 32 50 31 37 26 116 110 116 
30 30 27 34 22 30 21 30 32 34 42 45 57 28 57 59 73 84 84 114 122 130 138 149 172 180 187 191 177 169 174 161 113 30 74 56 44 39 39 29 38 20 36 55 114 117 
30 20 33 25 25 32 18 28 34 36 36 51 55 59 72 59 83 102 95 136 120 125 143 157 168 189 188 192 187 177 171 166 137 77 83 79 39 32 43 33 31 28 28 10 112 113 
30 21 32 22 30 29 24 22 31 40 44 57 66 74 82 72 127 83 117 133 130 137 146 163 179 185 190 191 193 188 179 175 171 135 38 92 51 25 39 53 38 37 24 20 56 111 
21 26 36 29 23 31 29 21 20 34 44 67 89 91 98 114 96 120 122 130 136 148 162 174 189 193 194 196 190 182 184 165 140 157 119 97 73 31 38 47 47 43 31 34 20 115 
27 34 27 26 29 32 59 32 23 39 48 92 101 111 109 113 107 143 136 142 135 157 178 186 196 193 198 193 187 162 129 92 80 107 128 131 93 31 32 48 35 33 30 24 18 115 
22 23 28 18 29 52 88 106 24 39 77 108 115 129 142 110 140 146 148 144 161 182 199 196 193 195 189 165 124 80 60 54 51 61 59 88 124 39 35 60 49 27 24 22 9 107 
22 22 19 33 26 66 127 152 90 53 95 119 135 157 165 158 152 155 172 179 187 196 200 201 191 169 126 76 69 47 39 74 109 122 130 83 120 41 20 73 34 37 18 33 14 101 
22 24 25 31 47 71 144 158 141 99 120 146 162 190 191 191 181 190 184 182 187 184 186 185 169 110 65 44 33 25 102 110 127 158 158 152 90 87 18 56 23 36 22 29 26 91 
22 23 26 32 56 98 144 152 163 160 178 183 181 184 186 178 165 149 158 146 156 166 165 152 142 79 59 47 41 78 81 82 86 97 124 134 125 107 24 57 25 31 28 18 31 36 
29 33 27 45 57 110 140 150 161 180 176 169 166 152 120 113 67 69 107 107 115 126 150 128 124 74 48 74 68 62 71 84 99 104 83 113 120 124 71 54 23 26 32 19 24 44 
23 27 54 38 65 101 137 144 158 165 102 95 91 68 51 45 42 39 67 70 85 98 117 130 131 88 90 68 50 79 43 50 125 46 79 120 119 135 100 36 25 21 30 23 22 21 
32 40 46 30 59 103 132 139 114 68 61 70 55 46 33 32 43 45 69 61 74 112 145 169 146 92 83 62 114 38 74 102 88 112 94 120 137 149 109 82 19 19 18 30 26 33 
35 53 27 33 47 109 127 116 72 74 87 93 89 74 54 51 44 45 75 77 65 155 187 188 163 96 106 78 103 65 110 137 153 139 112 144 153 165 138 116 10 20 25 40 6 62 
35 43 32 34 33 97 122 116 98 119 114 75 50 20 21 23 106 58 76 80 59 173 194 187 178 106 129 116 120 136 136 130 121 111 145 167 165 162 151 108 31 20 21 107 9 81 
34 32 52 29 45 66 124 131 111 110 75 39 85 35 59 63 123 84 62 98 107 155 186 186 181 133 162 142 150 143 144 148 170 181 181 185 179 163 147 110 65 36 84 105 31 108 
30 44 41 37 42 36 120 126 120 98 65 90 122 120 158 139 150 142 121 130 157 148 189 185 191 135 158 182 178 180 185 183 190 188 187 184 182 173 163 112 116 61 63 90 108 111 
37 42 25 25 34 26 113 128 139 119 138 124 142 139 137 124 105 116 141 167 164 154 170 187 184 161 142 172 187 195 193 192 189 191 186 189 186 181 164 128 103 110 70 80 101 105 
41 31 33 16 37 24 98 130 146 169 161 147 123 109 117 134 148 163 182 177 163 152 179 191 188 170 150 160 177 191 194 188 190 188 188 188 178 179 154 130 106 105 123 77 101 96 
22 28 21 24 30 25 98 128 161 167 171 171 176 178 178 186 191 184 192 172 167 163 179 197 186 182 167 146 168 180 193 195 189 188 191 188 186 171 152 122 101 96 122 63 100 92 
87 66 26 26 34 27 84 130 151 168 172 181 189 190 197 192 197 194 192 175 151 164 175 204 193 186 161 152 155 174 187 193 194 189 187 175 177 164 148 122 102 84 78 104 81 87 
117 88 87 26 42 38 90 136 152 169 177 184 185 195 196 198 196 188 186 163 160 146 149 181 176 163 120 117 147 148 194 192 194 188 189 179 165 152 135 117 108 82 107 114 107 84 
107 95 130 87 52 70 99 131 135 166 170 180 187 190 192 192 187 190 183 162 156 104 89 122 126 99 72 37 99 109 183 183 166 167 177 176 164 142 118 106 106 90 100 101 103 78 
109 104 146 99 79 99 93 121 140 152 164 176 184 180 188 189 181 183 180 174 108 88 10 67 86 97 102 82 95 87 126 175 168 148 119 147 160 152 115 106 106 93 101 98 79 80 
105 97 152 100 83 150 96 112 127 141 156 166 176 177 176 174 176 179 181 187 98 77 71 89 78 84 104 120 124 131 141 156 161 156 154 83 129 148 116 107 106 104 58 67 69 73 
109 99 152 153 137 143 119 105 109 132 143 153 166 160 168 169 165 154 171 173 152 123 137 140 104 99 98 119 138 137 138 133 134 132 142 135 101 156 119 113 103 113 48 62 64 61 
106 102 83 179 162 119 157 101 115 114 132 139 147 150 152 156 159 162 162 166 143 127 138 160 141 119 121 122 134 127 133 133 136 131 135 150 123 171 119 118 104 111 41 58 59 55 
104 105 81 113 168 185 116 106 113 109 121 125 127 143 148 157 150 156 158 149 136 126 127 132 163 147 150 159 162 151 151 147 123 129 123 168 144 187 117 113 99 111 40 51 52 56 
106 106 107 110 147 125 140 105 98 117 105 123 114 137 156 150 126 147 142 140 132 129 146 156 160 160 170 159 115 91 77 70 60 71 127 169 159 183 105 114 107 106 41 55 55 51 
109 105 108 102 100 148 144 121 84 112 119 112 123 136 149 145 149 148 142 151 144 144 116 112 93 88 101 85 81 109 107 108 119 136 164 157 185 167 109 108 108 107 37 49 55 51 
108 105 104 104 104 107 88 79 15 102 121 115 134 127 128 144 146 144 134 109 69 61 73 92 125 139 146 143 133 134 141 136 140 156 155 166 159 136 114 106 101 109 40 53 49 50 
103 103 104 104 101 105 105 99 107 64 118 117 126 134 140 145 167 171 161 134 127 122 111 130 143 155 155 156 155 150 145 137 147 154 150 154 151 115 112 106 105 109 45 52 51 51 
101 103 104 106 103 102 104 102 106 99 105 120 122 138 126 129 160 162 159 162 160 144 140 139 140 150 143 141 133 133 136 146 144 135 138 147 136 115 109 107 106 98 45 49 45 46 
101 103 105 107 106 106 104 99 100 105 98 109 116 122 126 133 138 152 166 151 159 153 144 140 126 126 129 116 124 132 145 131 131 135 147 131 130 117 111 105 103 68 46 47 51 50 
101 98 102 100 104 102 105 103 102 105 119 87 114 115 121 118 122 144 148 155 149 145 143 132 138 140 133 138 140 135 130 120 128 148 147 114 128 114 102 109 100 36 47 48 49 46 
102 100 105 101 106 103 102 101 100 100 114 109 95 107 109 110 111 109 133 139 153 145 141 126 121 130 131 128 127 120 116 131 143 147 148 120 131 105 100 101 86 37 48 47 45 42 
101 103 101 103 104 104 106 103 105 104 104 133 86 99 101 96 101 95 118 139 131 136 136 136 130 135 127 128 125 118 147 144 156 149 134 129 129 104 101 89 95 37 47 46 49 49 
98 101 102 103 103 96 104 105 100 103 98 137 127 77 93 100 90 101 108 131 128 140 134 155 163 143 145 135 127 146 160 162 150 135 126 142 120 94 85 85 88 35 43 42 39 48 
97 100 96 102 101 102 99 101 103 99 95 133 137 111 83 95 115 113 114 113 116 125 122 138 149 148 152 153 128 147 150 150 129 132 125 130 103 83 71 87 87 40 46 44 41 42 
103 102 103 100 102 104 102 104 103 104 97 130 143 134 98 86 96 115 121 98 123 130 125 134 139 137 143 147 148 151 141 131 119 121 120 108 87 66 81 85 83 44 42 39 43 47 
101 100 98 98 99 100 107 102 103 101 100 120 142 137 122 83 75 96 110 101 97 121 137 141 120 123 117 129 133 134 123 102 105 102 92 72 67 76 81 87 90 88 32 40 48 39 
98 99 101 98 102 99 100 104 101 105 100 110 137 139 133 112 76 77 74 82 79 91 109 116 117 119 97 89 99 97 91 80 77 73 58 68 68 78 83 84 93 10 126 35 38 37 
100 104 99 95 103 101 101 101 103 105 105 103 139 143 139 123 91 77 71 74 71 65 75 92 100 91 82 79 73 71 67 61 56 59 66 70 81 73 85 92 96 3 134 16 29 43 
100 96 98 99 101 104 99 97 101 102 96 47 137 138 141 132 111 86 87 86 79 66 69 63 60 57 59 59 51 55 56 61 60 68 77 79 90 86 86 85 94 7 121 84 26 22 
103 100 101 100 100 100 97 95 96 68 72 162 117 138 140 130 122 99 85 79 80 75 77 67 66 65 62 64 61 59 64 61 69 67 82 84 89 89 87 87 87 4 125 134 10 27 
