P1
10 10
0000000000001111100001100001000100000010010000001001000000100100000010
001000010000011110000000000000