P1
10 10
0001111000001100010001000000100100000010010000000101000000010100000001
001000001100011001100000011000