P1
10 10
0000000000000000000000011110000011000100001000001000100000100010000010
000100011000001111000000000000