P1
10 10
0001111100001100001001000000011100000001110000000111000000011100000001
011000001000111111100000010000