P2
46 56
15
3 3 3 3 3 3 3 3 3 3 3 3 3 3 2 2 2 2 1 1 1 1 2 2 1 2 2 3 3 3 3 3 3 3 3 3 3 3 2 3 3 3 3 3 2 3
3 3 3 3 3 3 3 3 3 3 3 3 3 2 1 2 2 1 1 1 1 2 2 1 1 1 2 1 2 2 3 3 3 3 3 3 3 3 3 3 3 3 3 3 3 2
3 3 3 3 3 3 3 3 3 3 3 2 2 2 1 1 1 1 1 2 1 1 1 1 2 2 2 1 2 2 2 2 2 3 3 3 3 3 3 3 3 3 3 3 3 3
3 3 3 3 3 3 3 3 3 3 2 1 2 2 1 1 1 2 1 1 1 1 1 1 1 1 1 1 1 2 1 2 1 3 3 3 3 3 3 3 3 3 3 3 3 3
3 3 3 3 3 3 3 3 3 2 2 2 1 2 2 1 1 2 2 1 2 2 2 2 2 2 2 1 2 1 2 1 2 2 2 3 3 3 3 3 3 3 3 3 3 3
3 4 3 3 3 3 3 3 2 2 2 2 2 1 1 2 2 3 3 4 3 3 3 3 4 3 3 3 3 2 2 1 2 1 2 2 3 3 3 3 3 3 3 3 3 3
3 3 3 3 3 3 3 2 2 2 2 2 1 2 2 3 4 4 4 4 4 5 4 4 5 4 4 4 4 4 4 3 2 2 1 1 2 3 3 3 3 3 3 3 3 3
3 3 3 3 3 3 2 1 2 1 1 2 3 4 4 5 5 5 5 5 5 5 5 5 5 5 5 5 5 4 4 4 3 3 1 1 1 2 3 3 3 3 3 3 3 3
3 3 3 3 3 2 2 1 2 2 3 4 5 5 6 6 6 6 6 7 6 6 6 6 6 5 5 5 5 5 5 4 4 4 3 1 2 2 2 3 3 3 3 3 3 3
3 3 3 4 2 2 1 2 3 4 5 5 6 5 6 6 6 6 7 7 7 7 7 7 6 6 5 6 5 5 5 5 4 4 4 3 2 1 1 2 3 3 3 3 3 3
3 3 3 2 2 2 1 4 5 5 5 6 6 6 7 6 7 7 7 8 8 8 8 8 7 7 7 6 6 6 6 5 5 5 4 4 3 1 2 1 2 3 3 3 3 3
3 3 2 2 1 2 3 4 5 5 6 6 6 7 7 7 8 8 8 8 9 8 8 8 7 7 7 7 6 6 6 5 5 5 5 4 4 3 2 1 1 2 3 3 3 3
3 4 2 2 1 2 4 5 5 6 6 6 7 7 7 8 8 8 8 9 9 9 9 8 8 7 7 7 7 6 6 5 5 5 5 5 4 4 2 2 2 2 3 3 3 3
3 2 2 1 2 3 5 6 5 6 7 7 7 7 7 7 8 8 9 9 8 9 8 9 8 7 7 6 6 6 6 6 5 6 5 5 4 4 3 2 1 2 2 3 3 3
3 2 2 2 2 3 5 6 6 7 7 6 7 7 8 8 8 9 9 10 9 8 8 8 8 7 7 7 6 6 6 6 5 6 6 5 5 5 4 3 2 1 2 3 3 3
3 2 2 2 3 4 5 6 6 7 7 7 7 7 7 8 8 8 8 9 8 8 8 8 8 8 8 7 7 7 6 6 6 6 6 6 5 5 4 3 2 1 1 3 3 3
3 2 2 2 2 5 6 6 7 7 7 7 7 7 8 8 8 8 8 8 8 8 8 8 8 8 8 8 8 8 7 7 7 6 6 5 6 5 5 4 2 1 2 3 3 3
3 2 2 2 4 5 6 7 7 7 7 7 7 7 8 9 9 9 10 9 9 9 9 9 9 9 9 9 10 8 8 7 6 6 5 4 4 5 5 4 3 1 1 2 3 3
3 2 1 2 4 6 6 7 7 7 7 7 7 8 8 9 10 11 11 11 9 10 10 10 10 10 9 8 8 6 6 4 4 4 4 5 4 3 4 4 4 1 1 1 3 3
3 2 2 2 4 6 7 7 7 7 7 7 6 7 8 8 8 8 8 8 9 9 8 9 8 8 7 6 6 4 3 3 3 3 4 4 4 4 3 4 4 1 2 1 3 3
3 2 2 1 5 6 6 7 7 5 6 6 5 5 4 4 4 5 4 5 6 7 7 7 7 7 6 5 4 3 3 3 4 5 6 6 6 6 5 3 4 2 1 1 2 3
3 2 1 3 5 6 6 7 5 5 5 5 5 4 4 3 4 3 4 4 4 5 6 7 6 6 5 4 3 3 4 6 6 6 6 6 7 6 6 5 4 3 1 1 2 2
3 2 2 2 5 6 7 6 6 7 7 6 6 6 6 6 5 4 4 4 5 5 6 6 6 6 5 4 3 4 5 5 6 5 5 5 5 5 6 5 4 4 1 2 3 3
3 2 2 2 5 6 6 5 7 7 8 7 7 7 7 6 6 5 5 5 5 7 7 8 8 7 6 4 3 4 5 6 5 3 4 5 6 5 5 5 4 4 1 1 3 2
3 2 1 1 5 6 6 6 7 8 8 7 5 6 8 7 5 4 3 5 5 7 8 8 8 7 6 3 6 5 3 3 4 0 1 3 1 2 5 4 5 4 2 1 3 2
3 2 2 2 5 6 6 6 7 7 3 7 7 3 2 0 3 2 3 6 6 6 8 8 8 7 6 4 7 2 5 7 5 2 4 5 4 3 5 5 5 5 6 2 2 2
2 5 2 1 5 6 7 7 7 5 7 4 2 3 1 1 7 5 8 6 6 8 7 8 8 7 6 5 5 6 6 5 5 4 4 5 6 5 4 6 6 6 4 5 2 1
2 3 4 2 5 6 7 7 6 5 4 3 5 5 5 9 8 6 5 6 7 8 8 8 8 8 7 6 6 6 6 5 3 3 2 3 4 6 7 6 6 6 4 5 2 2
2 2 4 3 6 5 7 7 7 7 6 7 7 6 6 5 4 5 7 7 8 7 7 8 8 8 8 7 7 6 6 7 6 6 6 6 6 7 7 6 7 6 5 2 3 2
1 1 6 8 5 5 7 7 7 7 7 5 5 4 4 5 6 7 7 7 7 8 7 8 8 8 7 7 6 6 7 7 7 7 7 6 7 7 7 7 7 6 5 2 4 1
0 2 7 7 5 6 7 7 8 8 8 8 7 7 7 7 7 7 8 8 8 8 8 8 8 9 8 7 6 6 6 5 7 7 7 7 7 7 7 7 7 7 5 4 4 2
1 4 7 5 5 6 7 7 7 8 8 7 7 7 7 7 7 8 8 7 8 7 8 8 9 11 11 7 7 6 6 7 5 6 7 8 7 7 7 7 8 7 5 5 1 3
2 6 6 4 5 6 7 7 8 8 8 7 7 7 8 8 8 8 4 7 7 7 8 9 10 12 9 8 9 8 7 8 7 6 7 8 7 7 6 7 8 6 5 5 3 3
2 6 5 3 5 6 7 7 8 8 8 8 8 8 9 9 8 6 6 9 8 9 10 9 8 8 7 7 7 6 6 6 5 7 6 7 6 6 6 7 7 5 4 5 3 5
2 5 7 3 5 6 7 8 8 8 8 8 8 8 8 7 7 6 6 8 7 7 7 7 7 6 5 5 3 1 1 2 4 5 6 5 5 5 5 6 5 5 3 4 3 4
3 7 6 6 5 6 7 7 8 8 9 8 8 8 8 7 6 8 8 6 2 1 1 2 5 4 3 4 2 4 5 6 6 4 6 5 4 3 4 5 5 4 3 4 4 1
1 7 6 5 5 6 6 7 8 8 9 8 7 7 7 6 6 7 9 7 7 7 6 4 2 2 1 1 1 3 5 4 4 6 6 5 3 3 3 4 4 4 3 4 4 2
1 7 6 7 6 5 6 6 6 7 7 7 7 6 6 6 6 7 7 7 6 7 6 6 3 2 1 2 3 5 5 6 6 6 6 6 5 4 3 3 5 4 3 4 3 1
3 4 6 4 6 6 6 6 5 6 6 7 6 5 5 5 5 5 7 8 7 7 7 7 8 8 9 6 6 6 6 6 7 7 6 6 5 5 4 4 4 4 4 4 3 1
3 3 3 2 6 6 6 6 6 6 6 6 6 5 5 2 4 7 7 8 8 7 7 7 8 8 8 6 6 6 6 6 6 6 4 3 4 5 5 4 4 4 4 4 3 2
3 3 2 2 6 6 6 6 6 6 5 5 6 5 4 4 6 8 8 8 8 7 6 6 7 6 6 4 4 4 3 4 4 3 1 1 2 4 5 4 5 4 4 4 3 2
2 2 2 3 5 6 6 5 5 6 6 5 6 6 4 4 8 8 6 6 7 7 5 4 3 3 3 3 3 4 4 3 11 10 0 2 7 5 4 4 4 3 3 3 2 2
3 3 3 3 4 6 6 6 6 5 6 6 6 4 3 2 6 2 1 4 3 4 4 5 6 9 8 5 10 14 8 9 8 4 6 5 7 6 4 3 4 3 4 3 2 1
3 3 2 2 2 5 6 6 5 5 5 6 6 4 3 3 6 2 1 3 6 10 11 12 10 12 13 7 12 13 6 5 7 6 6 5 6 7 4 4 3 3 3 3 2 2
3 2 3 2 2 5 6 6 6 5 5 5 6 5 4 4 7 5 8 7 7 10 2 6 3 7 4 4 4 6 7 6 5 6 5 6 6 7 5 4 3 3 3 2 2 1
3 2 3 2 3 4 5 6 6 5 5 5 5 5 3 4 8 8 7 7 8 8 7 7 7 8 8 10 10 10 7 5 9 4 6 6 6 6 5 4 3 3 3 2 2 2
3 3 2 3 3 2 5 5 5 5 5 5 5 5 3 4 7 8 8 8 8 10 7 7 10 12 11 12 10 8 4 4 5 4 6 6 5 5 6 4 3 3 2 2 2 2
3 2 2 2 3 3 5 5 5 5 5 5 5 5 4 4 7 7 7 8 7 7 6 6 6 7 6 6 6 4 4 4 3 4 5 5 5 5 5 3 3 3 2 2 2 1
3 3 2 3 2 3 2 5 5 5 5 4 4 4 4 4 5 6 6 6 6 6 5 5 4 4 4 4 3 3 2 2 3 3 3 4 4 6 5 3 3 2 2 2 2 1
3 3 2 2 2 3 1 9 5 5 5 4 4 4 5 4 6 5 6 6 5 5 4 4 3 2 2 2 2 2 2 2 2 2 3 5 5 6 4 1 3 2 2 1 1 2
3 2 2 2 3 3 2 13 3 5 5 4 4 4 4 4 4 5 7 6 5 5 3 3 2 1 1 1 1 1 1 1 2 3 4 4 6 6 3 2 3 2 2 2 2 2
2 2 2 2 2 3 6 13 11 5 5 5 4 4 3 4 2 4 6 7 6 5 5 4 3 2 2 2 2 2 2 4 4 5 5 4 5 3 1 2 6 4 2 2 2 2
4 3 6 8 5 6 8 14 13 6 5 5 5 4 4 3 3 4 6 6 5 6 6 6 6 6 6 6 6 6 6 6 5 5 5 5 3 2 2 1 3 5 5 5 6 7
9 8 9 5 6 7 8 4 13 14 6 4 5 5 4 4 3 4 4 5 6 6 6 4 5 7 6 6 4 5 4 5 5 5 4 3 2 2 2 4 6 5 5 6 7 8
7 9 6 10 13 8 8 8 6 13 13 6 4 5 4 4 4 2 3 4 4 3 3 3 3 5 3 2 2 3 3 4 4 3 2 2 1 1 5 9 4 4 7 3 5 10
8 7 14 12 8 4 9 10 7 7 11 13 6 4 5 5 4 3 2 2 2 2 2 1 2 3 2 2 2 2 2 2 2 1 2 1 1 3 3 12 3 6 6 8 4 5
