P2
46 56
15
3 3 2 3 3 3 3 3 3 3 3 3 3 3 1 2 2 1 1 1 1 2 1 2 2 2 3 3 3 3 3 3 3 3 3 3 3 2 3 3 3 3 3 3 3 3
3 3 3 3 3 3 3 3 3 3 3 2 1 1 2 2 2 2 1 1 1 1 2 1 1 2 1 2 3 3 3 3 3 3 3 3 3 3 3 3 3 3 3 3 2 2
3 3 3 3 3 3 3 3 3 3 2 1 1 1 2 1 2 1 2 1 1 2 1 1 2 1 2 1 2 1 2 3 3 3 3 3 3 3 3 3 3 3 3 3 3 2
3 3 3 3 3 3 3 3 3 2 2 1 1 1 1 1 2 1 2 1 2 2 2 2 2 1 1 2 2 1 2 2 3 3 3 3 3 3 3 3 3 3 3 3 2 3
3 3 3 3 3 3 3 3 2 2 2 2 2 2 1 2 2 2 3 3 3 2 2 2 1 1 1 1 2 1 1 2 2 3 3 3 3 3 3 3 2 3 3 3 3 3
3 3 3 3 3 3 3 2 2 2 2 2 2 3 3 3 3 3 4 4 3 4 4 3 3 3 3 2 1 1 2 1 2 1 2 3 3 3 3 3 2 3 3 3 3 3
3 3 3 3 3 3 1 1 1 2 2 3 4 4 4 4 4 4 4 5 4 4 5 4 4 4 4 3 2 2 2 1 1 1 1 2 3 3 3 3 3 3 2 3 3 3
3 3 3 3 3 2 1 2 3 4 4 5 5 4 5 5 5 5 5 5 5 5 5 5 5 4 4 4 4 3 3 2 1 2 1 1 2 3 3 3 3 3 3 3 3 3
3 3 3 4 2 2 2 3 5 5 5 5 5 6 6 6 6 6 6 5 6 6 6 6 5 5 5 5 4 4 3 3 2 1 2 1 1 2 3 3 3 3 3 3 3 3
3 3 3 3 2 2 4 5 5 5 6 5 6 6 6 6 7 7 6 7 6 7 6 6 6 5 5 5 5 4 4 4 3 2 2 1 1 1 2 3 3 3 3 3 3 3
3 3 3 2 1 4 4 5 6 6 6 6 6 7 7 7 7 8 7 7 7 7 6 7 6 6 5 5 5 4 4 4 3 2 2 2 1 1 1 2 3 3 3 3 3 2
3 3 3 2 3 4 5 5 6 6 6 6 7 7 8 7 8 7 8 7 7 7 7 7 7 6 6 6 5 5 5 5 4 3 2 2 1 1 1 1 3 3 3 3 3 3
3 4 2 1 4 5 5 6 7 6 6 7 7 8 8 8 8 8 8 7 7 7 7 7 7 6 6 6 6 5 5 5 4 4 3 2 2 1 2 1 2 3 3 3 3 3
3 3 2 3 5 5 6 6 7 7 7 7 7 7 8 8 8 8 8 7 7 7 6 7 7 6 6 6 5 6 5 5 5 4 3 1 2 1 1 1 1 3 3 3 3 3
3 2 2 4 5 6 5 7 6 6 7 7 7 8 8 8 8 8 7 7 7 7 7 7 7 7 6 6 6 5 5 6 5 5 4 3 2 1 1 2 1 3 3 3 3 3
3 2 1 5 6 6 6 6 6 7 6 7 7 7 7 7 8 7 8 8 8 7 8 8 8 8 6 6 6 6 5 5 6 5 4 3 3 1 1 1 1 2 3 3 3 3
3 2 3 5 6 6 7 6 7 7 7 7 7 8 8 7 8 8 8 8 9 9 10 9 8 7 6 5 5 5 3 5 5 5 5 5 4 2 2 1 1 2 3 3 3 3
3 2 3 5 6 7 7 7 7 8 8 8 9 9 8 9 9 9 10 10 9 8 7 6 5 5 4 4 4 5 4 4 4 5 5 5 4 2 2 1 1 1 3 3 3 3
3 2 4 6 6 7 7 7 8 8 9 9 9 9 8 9 9 9 10 8 7 6 5 4 3 4 4 5 6 5 5 5 4 5 5 4 4 3 2 2 1 1 2 3 3 3
3 2 4 6 6 6 6 7 7 7 7 6 6 7 8 8 8 8 8 7 5 4 4 4 4 6 7 8 7 7 6 7 6 5 5 5 4 3 2 1 1 1 2 3 3 3
3 2 4 6 6 5 5 6 5 4 4 4 4 4 6 7 7 7 7 6 5 4 4 5 7 8 8 7 7 7 7 7 7 6 5 5 5 4 2 1 1 1 2 2 3 3
3 1 5 6 4 5 5 5 5 4 4 4 4 5 5 6 7 6 6 6 5 4 4 6 7 7 8 8 7 6 7 6 7 6 6 5 5 4 2 1 1 1 3 3 3 3
3 2 4 5 6 7 7 7 7 7 6 6 5 4 5 6 7 7 7 6 5 3 5 4 5 6 7 8 6 5 6 5 6 5 6 6 5 5 2 1 2 3 2 3 3 3
3 2 3 4 6 8 8 8 7 7 7 6 5 6 4 7 8 8 9 7 6 3 6 3 5 6 7 7 7 6 6 5 5 5 6 6 6 5 3 1 2 5 2 1 6 3
3 1 3 5 6 8 8 10 7 6 6 5 3 4 5 7 8 7 7 7 6 3 6 4 2 2 2 2 2 2 3 3 4 5 6 6 6 5 4 2 4 3 6 3 6 2
3 1 2 6 6 8 7 7 7 7 7 5 5 4 6 6 7 7 7 6 6 5 5 6 4 3 2 3 3 3 4 5 5 6 6 6 6 5 4 3 4 3 6 5 6 1
2 2 2 6 6 7 5 7 7 7 4 1 2 4 5 7 7 7 7 7 6 6 5 6 7 5 4 3 4 4 4 6 6 7 6 6 6 6 4 3 2 4 6 6 6 1
3 3 2 6 6 6 5 6 2 2 3 3 3 6 6 7 7 8 8 7 7 7 6 6 7 7 7 7 7 7 7 7 7 7 7 6 6 6 5 4 0 3 5 6 6 1
2 2 2 6 7 5 6 3 5 4 5 5 7 7 7 6 8 8 7 7 7 6 7 6 7 7 7 7 6 6 7 7 8 7 7 7 6 6 6 4 1 2 5 7 5 1
3 2 2 6 6 6 6 5 6 5 7 7 7 7 7 7 7 8 8 8 7 6 6 6 6 7 7 8 7 7 7 7 7 7 7 6 7 6 6 5 3 5 4 6 4 2
2 2 2 6 7 8 7 7 7 7 7 7 7 7 7 7 7 8 11 9 7 7 6 7 6 5 7 8 8 8 8 8 8 7 6 6 7 6 6 5 4 4 5 7 3 1
2 3 2 6 7 8 8 7 7 7 7 7 8 8 6 8 9 9 11 9 7 7 8 8 8 6 6 7 8 8 8 7 7 7 7 7 6 6 6 5 4 4 5 4 6 1
3 3 1 6 7 8 8 7 7 7 7 8 8 7 7 11 7 8 8 7 7 6 6 6 7 6 8 7 7 7 8 8 7 7 7 7 6 6 6 5 4 3 6 5 6 1
2 3 1 6 8 8 7 8 8 8 8 8 6 10 9 7 8 6 6 6 5 1 1 1 2 5 9 8 7 7 6 7 6 7 7 6 6 6 6 5 4 3 5 5 6 1
2 3 2 6 7 8 8 8 7 7 8 8 7 6 3 2 5 4 3 4 2 2 2 4 2 3 8 8 8 7 6 6 6 6 6 5 5 5 5 4 4 4 6 6 4 2
3 3 1 6 7 8 9 9 8 8 8 7 6 5 2 1 4 3 3 3 1 4 5 5 5 6 7 7 8 7 6 5 5 6 6 5 4 5 5 5 5 4 2 3 1 2
2 3 2 6 7 8 8 9 8 7 7 7 6 6 6 6 6 3 3 2 6 7 7 6 6 6 6 6 6 6 5 5 5 5 5 5 5 5 5 4 4 4 1 2 2 2
3 3 3 6 7 7 8 8 7 7 7 7 7 8 7 7 7 7 6 7 6 8 6 6 6 6 6 6 6 6 5 4 5 5 5 5 5 5 5 4 4 4 1 2 2 2
3 2 6 6 6 6 6 7 7 6 7 7 8 8 6 8 7 7 8 9 7 7 6 6 6 6 6 7 6 6 5 5 5 5 5 5 5 5 5 4 4 4 1 2 2 2
3 3 6 6 6 5 6 6 7 6 6 6 7 7 8 8 7 7 7 7 6 7 7 6 5 6 6 5 4 4 6 5 5 5 5 5 5 5 5 4 3 3 2 2 2 1
3 2 2 5 6 6 6 6 7 7 4 7 7 7 8 8 7 6 6 6 6 6 5 3 4 3 4 3 2 1 4 4 5 5 5 5 5 5 4 3 3 4 1 1 1 2
3 3 2 6 6 6 6 6 7 6 5 6 7 6 7 7 4 2 3 3 2 2 2 3 2 2 4 1 2 4 6 5 4 5 4 4 4 4 4 3 3 3 2 2 1 2
3 3 3 6 5 6 6 6 7 5 5 7 4 4 5 4 2 2 4 6 2 9 10 4 6 2 7 7 6 5 6 6 4 4 4 4 4 4 4 3 3 2 2 1 1 2
3 3 2 3 6 6 5 6 7 5 3 6 1 1 2 6 4 7 10 6 2 1 1 4 6 6 5 6 6 7 6 6 5 4 4 4 4 4 3 3 3 1 2 2 1 1
3 3 2 2 6 6 5 6 7 5 2 7 5 7 7 7 5 5 6 7 7 8 8 7 6 5 7 6 7 6 6 6 5 4 4 3 4 4 3 3 4 1 1 1 2 2
3 3 3 2 6 6 6 5 6 5 3 7 8 7 6 7 6 7 8 9 9 9 9 8 5 6 5 6 6 6 6 6 5 5 3 3 4 3 3 3 3 2 2 2 2 2
3 2 3 2 2 6 6 5 5 5 5 7 7 8 6 8 10 6 7 8 7 6 5 4 4 4 5 5 5 5 5 5 5 4 3 3 3 3 3 3 1 2 1 2 1 2
3 3 2 2 2 5 5 5 5 5 5 7 7 7 7 6 7 6 5 5 5 5 4 3 2 4 4 4 4 4 5 5 5 4 3 3 2 3 4 3 1 2 2 1 2 1
3 3 2 3 3 2 5 5 5 4 5 5 7 6 6 7 5 5 3 3 3 3 2 3 3 2 3 3 4 5 5 6 5 4 3 3 3 3 4 3 1 2 1 2 2 2
3 3 2 2 2 2 6 5 5 5 5 5 6 6 6 5 4 3 3 2 2 2 2 1 1 2 3 3 5 5 5 6 5 3 2 3 3 3 3 2 2 2 2 1 2 1
3 3 2 3 2 2 2 5 5 5 5 5 5 6 6 5 4 3 2 2 2 2 2 2 3 4 4 5 5 6 5 5 4 2 2 3 4 3 3 3 6 2 2 2 2 2
2 3 3 2 2 3 3 3 5 4 4 5 6 6 6 6 5 4 4 4 4 4 5 5 6 6 6 6 6 5 5 2 2 2 2 3 3 3 3 2 7 2 2 1 2 1
3 2 2 2 2 2 2 1 8 5 4 4 4 6 7 6 6 5 6 6 5 5 6 6 6 6 5 5 5 3 2 2 1 2 3 3 3 3 3 1 10 4 7 5 5 4
10 12 9 7 10 9 6 8 11 6 4 3 3 4 4 4 4 4 4 6 6 5 5 4 4 5 3 3 3 2 2 2 1 2 3 3 3 3 2 5 13 0 7 9 8 9
13 12 12 10 10 7 7 4 5 14 6 4 4 2 2 3 2 3 3 3 4 3 2 2 3 3 3 2 2 2 1 2 1 3 3 2 3 3 4 6 12 3 4 4 6 9
13 13 7 8 9 5 7 6 6 4 13 4 5 3 2 2 1 2 2 2 2 2 2 2 2 1 2 1 1 1 1 2 2 2 3 2 7 3 4 11 6 2 6 9 9 7
