P1
20 30
0000000000000000000000000000000000000000000000001000000000000000000111
0000000000000000111000000000000000011100000000000000001110000000000000
0000111000000000000000011100000000000000000111000000000000000001110000
0000000000001110000000000000000011100000000000000000111000000000000000
0011100000111000000000011100111111100000000111011111111100000001111111
0001111000000111110000000111000000111000000001110000001110000000011100
0000011100000001110000000011110000111000000000011111111110000000000011
1111110000000000000111111000000000000000000000000000000000000000000000
0000000000000000000000000000000000000000