P1
20 30
0000000000000000000000000000000000000000000000000011110000000000000001
1111100000000000011111110000000000001111000000000000000111100000000000
0000111000000000000000001110000000000000000111000000000000000001110000
0000000000001110000000000000000011100000000000000000111000000000000000
0011100000000000000000111000000000000000001110000011000000000011100111
1111000000001110111111111000000011111111001111000000111110000001111000
0001110000000011100000011100000000111000000011100000011100000000011110
0001110000000000111111111000000000000111111100000000000000011110000000
0000000000000000000000000000000000000000