P1
20 30
0000000000000000000000000000000000000000000000000001110000000000000001
1111100000000000001111110000000000000111100000000000000011100000000000
0000011100000000000000001110000000000000000111000000000000000001110000
0000000000000111000000000000000011100000000000000000111000000000000000
0011100000000000000000111000011111110000011100011111111110000111001111
1111111100011111111000000111000011111000000001110000111100000000011100
0011100000000001110000011100000000111000000111100000011100000000111111
1111100000000001111111110000000000000111111000000000000000000000000000
0000000000000000000000000000000000000000