P1
20 30
0000000000000000000000000000000000000000000000000000000000000000000000
0110000000000000000111110000000000000011111100000000000001111010000000
0000001110000000000000000111000000000000000011100000000000000000111000
0000000000000111000000000000000001110000000000000000011100000000000000
0011100000000000000000111000000000000000001110011111111000000011101111
1111110000001111111111111110000011111000000011100000011100000000111000
0001111000000111000000001111000011110000000001111111111000000000000111
1110000000000000001111000000000000000000000000000000000000000000000000
0000000000000000000000000000000000000000