P1
20 30
0000000000000000000000000000000000000000000000000000000000000000000000
0000000000000000000000000000000000000000011000000000000000011111000000
0000000011111110000000000001111011000000000000111000000000000000011100
0000000000000001110000000000000000111000000000000000001110000000000000
0000111000000000000000011100000000000000000111000000000000000001110001
1111100000000111011111111100000001111111111111100000001111100000111100
0000111100000001110000000111000000111100000000111111111110000000000111
1111110000000000001111110000000000000000000000000000000000000000000000
0000000000000000000000000000000000000000