P1
20 30
0000000000000000000000000000000000000000000000000000000000000000000000
0000000000000000000000000000000000000000000000000000000000011111000000
0000000111111110000000000011111111000000000001111000000000000000011100
0000000000000011100000000000000000111000000000000000011100000000000000
0001110000000000000000011100000000000000001110011111100000000011101111
1111000000001111111111111000000001111100000111000000011100000001110000
0000111000000111000000001111000001110000000001111100111100000000001111
1111100000000000011111110000000000000001110000000000000000000000000000
0000000000000000000000000000000000000000