P1
20 30
0000000000000000000000000000000000000000000000000000000000000000000000
0001000000000000000011111000000000000001111100000000000000111110000000
0000000111000000000000000011100000000000000001110000000000000000011100
0000000000000011100000000000000000111000000000000000001110000000000000
0001110000000000000000011100011100000000000111011111111000000001111111
1111111000000111111100111111000001111000000001110000001110000000001110
0000111000000000111000000111000000011100000000111100000111000000000111
1111111000000000001111111100000000000000111110000000000000000000000000
0000000000000000000000000000000000000000