P2
46 56
255
108 111 113 113 114 113 114 114 115 114 115 112 113 112 128 121 104 126 113 111 113 118 130 116 121 119 114 107 121 118 118 119 121 116 117 113 114 109 112 111 113 111 108 112 114 112 
112 110 112 110 111 110 112 114 115 116 116 109 109 127 103 125 121 107 120 106 108 116 118 115 121 121 103 110 105 126 113 115 121 129 127 117 116 114 111 114 116 110 108 111 111 111 
109 111 109 111 111 113 114 114 111 104 122 130 121 119 119 118 111 102 109 104 96 102 106 107 116 117 100 98 100 107 126 115 120 125 133 114 134 114 116 114 111 112 113 112 112 114 
111 112 112 113 113 114 115 99 122 120 109 114 118 122 113 112 110 104 100 102 98 108 103 102 95 125 123 113 107 117 104 118 95 112 128 142 129 125 120 111 115 115 114 113 109 109 
111 111 114 112 111 108 123 107 129 131 125 100 95 119 116 109 95 104 98 87 96 91 105 109 113 101 118 119 107 110 112 103 119 84 120 114 128 129 121 95 106 112 109 111 111 115 
115 112 109 117 113 104 150 128 110 98 122 134 105 114 102 100 112 119 123 110 121 119 111 97 72 93 101 123 111 108 106 111 99 116 86 95 103 127 123 92 109 109 111 112 113 115 
111 111 113 110 97 114 120 120 100 101 86 113 116 101 107 113 113 99 119 131 130 129 117 109 90 78 96 106 112 111 92 107 72 95 102 63 77 107 118 122 111 110 110 112 114 111 
110 110 110 69 72 110 121 129 126 107 109 87 116 105 119 126 137 124 94 87 96 117 109 99 90 95 76 98 107 111 96 76 92 65 67 94 79 91 120 127 106 108 99 105 109 113 
114 109 93 88 86 104 113 102 103 96 83 87 100 121 127 135 134 130 123 106 116 101 104 116 112 88 82 90 87 91 96 76 69 74 67 73 69 70 97 104 100 92 95 100 113 114 
111 113 116 73 88 112 105 102 114 97 99 114 120 126 141 143 133 125 126 119 103 86 115 106 106 106 106 111 113 100 95 100 87 75 84 84 75 70 80 107 113 97 97 93 110 112 
109 111 59 84 106 120 135 139 118 108 114 148 160 169 175 169 161 153 160 162 151 139 138 127 129 124 132 146 151 148 127 115 123 119 111 117 117 102 72 73 99 113 93 97 113 110 
111 97 76 104 107 117 139 130 125 117 146 184 182 189 183 184 187 185 187 190 191 191 189 182 172 175 174 180 185 186 176 164 158 165 157 150 148 135 113 66 97 101 76 108 105 118 
107 59 59 80 100 106 133 124 122 131 170 184 183 190 190 191 195 194 197 198 199 199 200 198 198 195 195 194 199 195 196 189 183 185 184 175 171 158 143 122 86 99 93 92 98 109 
60 64 51 70 88 115 128 130 137 153 179 177 182 191 195 195 199 196 199 200 201 201 202 201 200 199 197 200 199 197 196 193 192 192 189 191 181 170 159 141 110 87 102 86 98 101 
49 39 49 60 74 91 107 123 140 162 172 176 179 187 192 197 195 194 198 200 202 203 201 200 202 200 201 200 199 200 196 193 192 194 192 194 184 181 161 153 144 75 93 95 93 93 
42 38 42 60 81 99 115 129 157 171 183 183 179 186 190 194 194 196 199 201 202 202 202 201 202 199 199 200 196 198 197 194 195 194 192 194 187 182 167 152 144 106 85 93 94 96 
45 45 50 60 73 86 110 129 153 173 181 185 180 182 181 190 190 192 195 198 200 202 201 203 202 202 199 197 195 199 194 195 194 194 193 196 189 183 171 159 144 128 86 97 84 107 
51 57 38 48 70 100 100 141 158 169 181 183 181 182 185 184 189 193 195 195 195 200 199 200 201 199 198 194 193 194 196 195 191 189 192 189 184 178 170 156 141 134 89 89 98 112 
57 41 38 51 67 88 108 123 146 165 175 179 183 184 186 183 185 192 194 195 195 198 198 197 196 195 195 196 192 192 193 193 191 187 188 189 182 172 161 150 141 132 99 80 65 107 
57 33 41 47 55 82 97 119 136 156 157 173 178 187 187 187 189 192 194 196 192 194 197 197 195 193 192 193 191 191 192 192 187 188 186 178 172 165 157 153 147 131 107 77 90 109 
52 36 45 40 58 64 82 107 126 143 159 167 177 180 187 184 184 189 192 199 196 197 196 196 197 194 195 195 193 191 193 193 188 189 185 187 177 175 162 158 151 134 109 65 101 106 
37 41 40 34 51 48 68 94 114 132 148 164 170 181 183 181 186 184 191 193 195 198 199 200 198 195 197 200 195 194 196 194 192 191 191 187 181 177 163 167 156 136 108 66 105 108 
25 39 29 33 41 42 60 86 111 125 143 157 169 176 173 181 183 187 194 194 195 196 200 199 200 200 198 199 195 193 192 194 191 191 191 187 181 175 168 169 149 137 117 62 107 107 
31 32 18 40 46 51 60 90 108 130 158 163 165 172 174 173 180 185 193 195 194 196 195 197 198 198 195 193 189 184 189 192 186 185 184 181 179 177 173 163 158 142 107 65 107 109 
35 33 27 32 42 46 60 82 116 154 159 161 164 171 168 172 181 187 193 194 189 179 168 168 166 161 157 168 163 163 171 181 170 169 168 154 153 151 144 148 154 148 105 94 106 108 
36 43 32 36 38 50 64 89 131 159 162 169 162 166 168 171 181 179 167 149 144 149 128 114 103 99 108 113 130 154 167 166 156 152 132 110 101 83 88 109 113 116 118 99 108 107 
48 37 43 32 44 53 65 98 143 169 169 164 167 167 163 160 148 151 160 178 182 189 192 192 175 152 138 128 133 158 178 174 149 131 121 140 153 171 174 171 149 124 89 100 109 105 
153 166 129 39 35 50 64 108 148 167 170 167 169 163 154 148 153 166 175 175 169 161 151 126 117 111 128 135 132 169 194 193 160 126 150 143 147 145 145 139 143 127 93 92 113 107 
76 112 97 69 60 50 87 122 153 163 167 169 165 168 170 166 159 146 118 102 107 133 104 64 95 90 146 150 143 177 198 195 163 131 120 118 135 120 50 56 68 104 111 57 101 107 
110 181 154 63 63 65 83 121 151 159 164 168 173 182 184 175 159 152 164 169 170 152 145 138 138 144 162 171 168 175 191 190 178 152 171 149 153 153 116 98 102 102 125 41 88 111 
144 189 192 107 59 80 92 110 145 153 162 165 177 177 174 185 191 187 175 157 152 161 160 148 135 142 160 182 178 169 190 190 179 146 139 116 128 152 156 132 119 130 146 24 49 114 
144 171 103 60 46 69 79 109 146 151 157 164 173 179 178 190 193 193 191 196 195 188 175 170 175 186 187 184 170 167 182 192 186 145 151 166 168 150 143 141 145 145 147 26 72 111 
166 138 103 95 68 70 81 101 138 151 152 166 169 182 186 192 198 199 197 199 197 194 193 193 196 193 187 178 164 165 174 191 188 154 132 167 181 180 176 174 164 158 142 52 98 110 
142 152 140 146 95 75 79 101 132 153 155 157 168 177 179 186 191 196 199 200 198 199 197 195 195 194 189 177 163 166 170 192 191 177 135 152 173 182 180 183 183 168 145 83 92 110 
155 183 171 136 128 70 80 114 117 156 150 158 164 172 181 175 184 185 195 197 197 195 193 190 193 187 175 163 152 157 167 192 198 189 158 143 166 182 183 183 182 165 145 83 92 107 
142 159 176 168 101 70 83 92 113 151 147 151 151 163 172 178 188 186 190 194 196 194 188 186 183 173 160 168 165 160 168 187 196 192 168 139 162 174 182 184 179 163 141 93 81 105 
60 151 169 147 101 55 71 79 104 141 147 155 162 158 167 172 176 180 189 189 186 185 176 170 175 164 158 166 169 152 138 159 180 168 130 116 142 162 170 173 165 152 133 99 80 95 
72 71 123 165 135 54 62 61 104 120 142 155 163 161 162 164 172 179 176 180 178 168 156 171 182 167 117 114 75 67 70 97 110 98 63 96 140 146 150 158 153 134 124 91 71 93 
78 80 77 54 120 74 49 55 85 108 129 143 154 161 159 155 161 166 167 162 155 148 165 179 182 180 175 134 120 120 105 80 81 83 102 127 137 146 144 137 139 128 112 83 75 85 
75 77 75 65 35 54 42 53 83 106 122 136 143 162 157 161 160 160 157 154 154 165 174 173 171 161 153 139 132 124 121 115 104 97 81 101 115 130 146 141 127 121 106 85 70 93 
76 76 76 78 30 64 53 51 79 83 114 113 121 145 152 153 163 157 158 170 162 160 152 147 147 138 131 131 131 134 134 122 117 106 93 93 89 114 130 143 132 120 108 79 81 94 
78 75 76 86 39 68 58 66 74 79 97 105 111 124 138 148 166 168 165 166 145 136 136 133 144 138 128 123 117 131 119 106 111 106 94 93 96 97 105 134 132 109 100 64 85 80 
73 72 75 85 38 93 66 58 64 63 75 106 107 107 128 133 137 149 160 146 127 122 125 109 108 98 82 87 97 93 84 86 85 75 70 86 93 91 95 115 117 104 90 60 79 87 
77 75 78 84 45 110 72 53 52 69 82 102 84 94 103 113 115 128 129 124 113 107 97 101 104 95 85 98 94 98 92 96 82 84 80 75 77 85 90 94 94 103 70 67 84 83 
72 74 73 78 60 98 66 49 58 55 56 66 78 85 93 94 107 103 99 102 101 102 120 135 144 144 144 141 147 152 147 144 142 128 121 136 124 89 81 97 80 81 70 69 84 81 
74 70 72 69 59 86 54 51 55 47 56 65 73 71 83 91 91 80 89 105 109 110 110 124 143 147 149 155 150 143 136 129 132 128 140 141 125 87 86 77 74 66 60 82 81 84 
72 73 89 66 58 97 42 53 56 47 44 61 58 70 76 81 79 73 75 91 96 99 106 121 124 132 140 136 123 131 125 137 135 151 138 122 115 90 67 79 59 57 63 80 79 76 
73 99 74 50 71 81 71 37 47 47 42 55 46 61 63 78 77 76 73 68 88 99 101 116 130 135 127 119 117 114 110 107 112 112 132 122 101 84 88 83 60 46 69 78 77 77 
107 96 57 30 64 103 74 52 39 36 46 42 52 60 60 58 53 70 69 78 83 94 104 102 109 114 118 123 124 119 105 110 121 112 110 105 93 89 76 73 70 56 76 78 77 73 
109 87 35 25 62 102 79 58 42 28 34 39 45 50 51 52 59 60 75 77 85 94 90 106 107 99 101 115 122 123 120 123 132 108 104 96 79 78 82 69 77 72 71 76 78 71 
107 81 20 17 91 106 91 66 47 35 30 33 32 33 43 47 69 67 63 66 57 70 87 100 99 98 97 94 105 113 113 116 115 105 103 101 86 81 87 69 76 77 76 74 73 77 
95 82 26 106 107 100 105 91 48 36 35 31 27 29 34 39 62 66 65 66 66 55 75 84 85 74 79 86 82 95 93 93 93 87 93 93 88 75 74 67 71 75 75 76 78 77 
101 85 70 136 112 108 109 95 62 47 41 38 26 26 28 40 50 60 59 66 61 65 73 70 67 73 84 80 68 76 83 91 100 82 73 77 79 75 56 61 64 69 72 70 73 70 
100 86 137 148 121 104 101 99 74 61 54 38 35 29 28 34 46 51 49 53 65 59 59 61 67 69 75 66 62 65 66 73 80 66 61 69 75 66 54 73 68 70 64 69 71 70 
96 88 159 154 131 101 104 95 81 77 49 41 39 38 31 32 40 44 52 49 52 50 55 53 67 58 52 54 58 51 48 59 61 53 57 54 52 48 68 84 69 67 72 70 71 69 
99 85 166 158 132 104 105 93 95 73 60 51 49 47 34 29 33 28 34 41 46 40 42 46 40 42 43 41 35 40 43 49 52 49 53 41 43 62 79 74 73 76 62 71 72 74 
