P2
46 56
255
112 111 113 114 113 112 113 116 113 107 116 103 105 121 116 120 124 114 103 102 115 105 107 128 117 130 108 121 120 131 97 129 111 101 106 103 115 111 113 113 112 109 114 115 111 110 
109 111 114 115 109 111 115 97 111 108 95 127 143 145 141 128 115 100 97 108 113 105 107 99 119 111 118 93 131 104 116 135 119 123 108 111 116 112 112 113 110 112 112 113 112 113 
110 108 114 113 111 114 118 93 95 85 95 96 109 105 128 119 121 105 98 114 111 95 115 95 109 123 124 90 98 83 120 125 130 118 114 113 113 91 93 111 113 114 113 111 110 112 
111 112 113 110 115 102 106 102 88 83 92 95 86 109 126 106 101 108 99 104 83 129 79 120 103 69 75 74 79 74 90 109 110 126 116 133 113 89 103 115 113 112 111 112 113 112 
112 110 111 114 105 93 104 85 74 98 116 101 108 116 106 113 117 110 99 103 120 106 141 89 81 97 73 87 77 58 71 80 96 93 136 144 111 100 77 95 117 113 110 114 111 111 
116 110 114 111 96 108 92 79 94 103 111 107 94 86 123 105 112 116 128 129 130 123 116 135 113 103 101 96 79 73 80 69 78 86 107 122 132 94 100 92 104 100 114 111 112 112 
113 111 117 97 82 103 105 97 86 74 66 79 98 120 127 134 146 159 171 180 182 176 166 160 164 165 150 146 140 132 118 87 76 67 74 103 136 116 107 93 88 110 112 111 114 113 
113 110 107 65 87 118 121 99 82 82 116 143 167 174 179 183 189 193 201 201 198 200 194 190 189 185 180 178 180 170 161 153 136 73 63 83 105 121 122 99 86 85 109 111 109 114 
113 110 101 77 104 122 114 77 99 155 163 180 185 192 199 201 203 202 202 201 201 198 196 197 196 193 196 192 189 184 177 164 163 144 93 65 66 98 129 127 109 95 92 112 112 114 
108 101 102 86 114 127 100 135 164 170 182 192 196 202 202 203 205 204 202 203 204 202 201 199 202 200 198 198 192 188 180 179 164 165 150 106 66 83 97 112 107 76 107 110 111 116 
111 107 93 109 136 121 138 173 179 180 191 195 200 201 204 203 203 202 202 201 200 200 202 201 201 200 198 200 196 194 186 183 179 169 163 152 114 62 69 99 109 102 88 106 113 114 
109 77 77 108 129 120 157 173 181 184 189 196 198 200 201 203 202 201 202 201 201 202 201 200 201 200 201 199 194 195 189 186 180 176 164 157 139 79 75 92 116 101 86 94 111 114 
103 69 67 113 130 152 158 171 179 183 186 194 198 200 201 202 202 202 202 202 201 202 199 199 200 201 198 197 197 193 189 182 176 175 159 158 139 131 71 74 104 111 104 97 100 111 
89 46 71 115 131 159 156 171 182 189 189 193 194 196 195 199 200 199 201 198 200 201 200 198 200 200 199 198 193 193 191 183 174 176 165 154 135 124 106 79 96 120 108 99 102 113 
77 50 83 102 146 156 161 161 179 186 185 188 190 195 193 196 198 198 198 199 201 201 201 201 198 199 194 195 192 191 188 181 177 176 160 149 137 128 134 77 75 91 96 84 90 112 
63 55 76 98 149 155 163 173 181 189 189 194 192 199 200 199 201 201 200 199 199 200 199 200 195 198 193 193 193 189 192 184 185 177 164 149 137 137 145 101 98 90 89 98 98 106 
50 53 88 115 141 159 167 175 182 187 190 191 197 202 201 201 202 201 200 201 202 200 201 198 199 195 197 194 194 185 191 188 188 180 172 150 145 139 137 117 86 99 90 53 96 107 
43 67 74 108 130 160 161 173 183 189 192 193 197 200 202 199 202 200 200 201 201 201 199 200 199 197 200 194 190 188 190 184 186 180 164 151 144 140 134 140 98 97 81 60 95 104 
39 54 79 107 130 157 166 175 186 188 188 189 191 188 187 186 193 197 195 198 200 201 199 200 197 194 194 194 191 193 189 189 187 181 167 156 153 140 138 124 103 97 76 56 54 112 
45 53 65 97 126 152 162 168 186 186 162 138 123 132 119 125 147 170 187 191 193 198 196 192 191 154 154 154 150 181 173 177 174 177 169 156 145 140 134 115 108 84 69 49 70 108 
51 43 56 87 123 150 153 170 162 146 165 169 160 147 128 142 147 145 181 188 188 189 189 183 167 140 138 105 99 111 132 138 159 165 166 158 141 132 131 106 98 80 70 42 74 107 
34 38 54 80 134 150 152 156 156 183 181 174 177 140 179 165 153 150 169 189 190 193 185 177 158 152 160 156 177 181 186 172 158 127 152 152 134 138 125 103 90 62 41 62 44 114 
31 39 49 91 134 148 137 152 170 171 113 109 83 84 92 104 169 158 146 190 195 194 189 163 154 172 172 112 108 98 83 135 181 164 131 130 137 128 119 90 63 43 41 37 97 110 
32 31 42 107 140 148 137 153 161 94 139 199 101 99 128 147 140 161 143 188 194 194 184 154 171 170 142 153 135 116 111 103 100 165 153 119 130 132 119 83 49 40 36 32 110 107 
23 38 58 120 148 143 143 148 133 108 148 182 155 135 156 195 108 180 157 193 198 196 168 163 170 156 154 203 218 141 91 135 72 147 147 136 125 136 125 83 35 36 26 30 105 111 
38 39 56 137 151 148 158 146 147 145 176 182 185 189 164 150 186 187 152 206 194 193 168 173 203 189 159 171 174 172 152 151 149 112 149 145 128 138 129 92 33 28 37 24 109 110 
27 42 59 143 144 164 175 158 163 161 157 153 154 145 141 153 159 174 160 206 195 193 163 162 170 173 150 155 173 184 178 163 147 154 143 161 140 135 128 84 70 28 31 23 109 110 
36 46 102 143 146 169 174 186 175 181 188 189 185 186 188 191 182 153 170 205 190 177 151 152 181 181 180 172 165 166 162 148 151 161 156 164 166 136 133 99 77 50 49 31 114 108 
50 71 116 143 149 162 186 191 191 188 195 196 195 195 193 193 172 146 187 203 193 184 151 151 168 186 193 194 189 195 193 189 186 174 181 177 182 143 142 115 52 59 38 41 110 109 
96 72 115 139 153 179 191 193 201 199 200 199 197 201 195 185 171 156 192 201 196 188 156 144 160 175 192 197 192 197 196 192 196 187 187 184 177 146 133 112 65 44 48 72 109 110 
70 82 125 132 162 170 185 186 193 199 200 202 197 198 193 181 154 157 193 199 196 185 153 133 160 170 182 194 198 196 198 196 199 187 191 182 175 148 127 115 43 44 93 121 102 108 
88 63 121 129 158 167 174 177 197 197 200 199 199 191 190 174 170 127 159 185 167 135 141 149 151 175 185 192 196 198 199 202 196 195 192 174 164 155 120 97 71 40 85 55 114 106 
76 87 119 132 148 163 177 179 190 198 198 196 192 191 187 161 146 78 109 132 123 107 91 146 163 154 186 193 193 196 199 197 196 189 183 172 158 145 121 89 58 44 128 98 127 109 
85 81 116 134 142 159 165 174 188 189 190 193 183 184 178 125 105 34 46 102 114 90 44 78 140 129 184 189 190 198 198 196 195 188 184 164 152 143 121 96 65 66 141 116 136 110 
78 93 106 134 142 152 165 181 183 185 185 185 178 184 174 123 129 116 117 108 126 148 122 136 104 138 175 183 185 191 192 192 194 182 177 166 148 144 122 93 61 60 143 113 120 106 
74 82 103 131 153 148 153 171 185 180 172 172 180 179 176 168 145 134 124 139 136 122 113 127 143 154 169 178 187 181 187 189 184 170 176 153 140 146 120 87 62 65 166 110 102 108 
90 67 98 127 147 148 154 170 175 176 177 174 182 177 162 145 144 143 134 118 132 123 104 110 106 139 165 174 180 188 179 180 183 172 162 162 145 148 121 106 81 66 120 121 98 107 
96 70 79 117 138 149 160 166 179 179 182 185 166 166 138 134 135 135 140 121 131 113 102 99 110 121 137 159 165 185 186 178 175 170 162 154 148 141 115 94 90 70 132 108 99 103 
144 42 103 118 128 159 165 177 154 184 178 165 140 157 122 117 113 136 112 111 111 118 114 126 127 122 114 139 153 170 187 184 176 168 169 154 144 128 114 103 84 91 123 108 101 102 
122 74 83 108 112 148 150 169 178 175 150 150 135 138 108 105 103 102 91 112 90 96 99 113 120 117 118 130 138 132 168 186 179 178 168 160 136 116 103 85 72 110 130 92 100 100 
74 61 92 93 117 115 157 150 173 157 139 123 113 91 75 80 69 76 127 137 94 155 144 116 93 100 110 86 120 141 132 173 180 167 158 142 134 124 98 74 66 125 101 94 96 97 
74 62 78 99 109 113 135 124 143 132 122 119 112 106 120 125 129 135 158 163 147 149 131 123 127 107 91 108 99 122 116 172 162 158 142 115 122 111 82 80 66 94 93 95 92 95 
74 63 54 108 94 96 122 103 115 115 105 124 125 148 173 175 174 169 176 174 167 171 174 163 154 148 149 140 112 113 120 143 130 136 126 98 108 99 75 75 69 87 90 87 90 93 
77 66 63 73 77 88 97 88 107 116 107 130 133 133 142 166 169 165 156 150 151 151 166 154 164 170 174 157 136 87 111 128 116 122 106 111 89 78 71 59 70 85 89 88 88 88 
75 76 52 74 80 77 81 89 79 102 113 88 108 122 128 117 133 144 142 134 132 133 143 155 164 166 169 136 112 115 105 101 101 101 105 90 90 58 73 68 63 84 85 88 88 86 
76 73 57 77 76 76 78 81 68 82 99 88 107 133 129 135 128 132 111 101 108 118 130 139 144 153 152 123 114 109 91 91 90 82 94 85 82 76 63 68 72 82 90 83 85 83 
70 66 61 58 43 66 74 88 72 81 91 110 98 140 124 116 121 125 129 132 128 144 147 124 115 141 120 123 102 111 96 98 84 80 88 90 66 61 72 55 70 77 83 78 82 82 
78 60 52 51 40 67 63 80 88 80 102 93 122 112 108 121 113 129 151 142 137 148 145 119 116 124 112 128 95 96 99 94 80 78 64 70 61 64 58 51 76 81 82 79 81 78 
74 72 63 49 51 59 53 59 77 74 76 102 103 116 101 100 107 120 131 135 153 140 139 104 133 99 100 109 94 94 89 102 79 73 60 57 70 51 53 69 77 78 78 79 78 75 
72 67 69 36 53 53 49 75 52 75 60 87 95 101 86 91 83 94 115 132 115 110 116 102 122 105 98 89 101 101 81 72 96 88 62 70 54 48 54 69 76 77 79 79 81 77 
70 73 76 44 39 46 54 51 80 70 64 75 91 96 81 82 85 80 106 102 112 99 104 110 96 102 90 86 109 98 70 69 78 74 37 70 47 49 53 74 74 79 85 74 82 78 
71 77 84 54 66 45 47 50 78 70 61 74 84 88 81 89 70 58 91 103 94 108 67 87 89 96 93 80 93 78 91 63 64 73 40 74 42 57 67 78 76 77 81 76 75 76 
74 91 72 54 83 34 37 48 60 67 62 88 70 76 71 71 63 79 87 76 92 80 91 81 93 64 92 102 74 76 64 64 51 54 56 47 48 61 71 77 75 75 76 75 72 75 
97 81 57 60 97 47 36 28 55 48 53 79 60 66 63 72 65 60 54 61 81 83 79 56 83 61 107 84 62 55 66 60 56 60 46 48 47 67 75 75 76 78 81 74 76 75 
97 72 39 55 98 51 35 31 54 57 44 55 60 57 68 49 45 48 48 54 74 54 69 71 70 55 58 69 46 58 60 47 50 59 31 78 63 69 72 70 69 71 74 76 75 78 
96 67 26 70 101 83 30 32 30 49 59 44 48 38 35 58 34 44 42 36 51 46 57 66 66 43 47 51 46 52 41 35 48 40 43 91 52 85 71 72 76 75 76 74 74 77 
