P2
46 56
255
112 111 107 107 105 110 107 108 114 133 137 134 153 133 128 146 139 123 122 115 116 112 109 121 116 112 107 115 101 119 139 139 125 131 157 138 143 117 117 104 108 104 109 106 108 110 
109 112 109 109 111 112 109 127 126 132 154 152 124 145 139 133 112 112 110 108 93 101 104 110 123 136 100 104 93 127 124 126 127 130 129 148 159 154 143 107 111 110 108 109 107 109 
108 107 110 117 111 111 117 143 138 117 120 142 147 117 126 106 111 119 103 107 107 106 105 95 97 152 125 127 124 118 124 126 111 95 123 121 144 138 136 134 109 109 105 107 105 106 
106 111 112 110 129 139 137 151 155 155 116 125 130 137 115 104 118 113 109 89 89 84 103 91 106 80 146 120 118 107 102 107 111 85 86 110 123 142 138 126 114 109 106 105 108 109 
104 110 117 117 158 184 149 126 115 136 146 130 119 140 120 125 112 135 141 105 116 115 105 85 84 94 119 121 114 112 107 99 107 100 90 79 98 112 132 122 128 121 104 103 107 109 
105 108 111 132 135 139 130 104 119 96 122 125 118 121 127 139 121 110 149 144 127 120 104 105 96 81 87 133 94 121 88 98 89 85 101 105 69 93 112 128 133 103 103 109 108 109 
117 81 79 102 130 142 149 144 115 124 99 121 128 136 155 160 155 125 77 102 113 124 104 101 98 98 78 90 110 86 109 73 85 81 69 64 84 89 93 125 115 104 104 109 107 107 
107 87 82 123 131 119 110 110 107 95 97 115 129 160 161 165 149 140 116 94 123 101 95 108 102 89 88 89 81 95 82 102 69 68 69 65 83 73 75 103 112 109 102 91 110 110 
106 93 106 133 130 131 127 131 105 116 126 144 140 143 166 161 150 137 138 116 94 84 112 97 96 102 102 98 104 95 93 89 96 72 74 83 76 76 75 88 108 108 99 89 102 109 
62 85 106 127 147 160 158 136 121 130 149 169 175 185 182 168 146 138 149 145 139 119 120 116 118 112 111 121 141 147 131 116 108 112 103 103 109 105 76 75 84 105 105 90 100 108 
89 104 118 135 146 156 140 134 125 148 182 191 192 195 180 178 181 177 182 184 188 189 176 179 164 165 166 162 181 177 177 159 153 148 153 142 137 134 124 85 79 89 83 96 99 100 
84 81 107 122 139 148 134 135 137 169 193 194 195 195 191 197 199 196 202 202 202 201 200 201 194 191 192 188 195 193 193 192 182 181 178 179 164 157 142 137 96 83 95 92 92 103 
69 70 93 104 144 144 140 148 159 188 189 191 191 200 198 200 203 201 205 202 205 203 201 201 201 199 199 195 198 197 197 195 192 190 189 186 189 178 165 150 137 81 78 87 92 98 
50 67 80 95 108 122 129 146 158 181 188 183 190 198 199 203 202 202 203 206 205 204 203 200 200 200 199 199 198 196 199 193 189 186 190 190 190 179 177 152 143 135 73 84 93 90 
46 52 79 102 121 134 140 166 172 190 190 186 185 192 194 200 200 198 201 203 204 205 204 201 199 198 195 198 195 192 193 190 187 189 188 191 184 181 174 159 141 131 79 80 83 91 
50 60 69 89 104 125 136 159 179 191 191 187 185 190 185 193 195 194 198 197 201 202 200 200 200 198 199 195 193 190 188 188 185 186 190 191 189 182 174 165 149 124 112 90 80 97 
56 33 57 81 111 107 152 169 176 185 192 189 189 187 185 188 192 195 194 192 195 196 199 195 195 193 191 188 186 183 185 184 183 184 184 185 177 173 170 157 142 123 118 76 83 99 
38 44 51 81 99 117 138 162 171 185 184 188 190 190 187 185 184 188 194 191 190 194 192 191 190 189 187 184 184 179 181 185 184 176 176 176 174 165 158 140 132 120 117 78 81 64 
34 44 54 61 92 105 129 140 159 170 180 185 190 192 187 183 185 190 189 188 186 188 184 186 182 178 179 179 179 182 180 176 180 172 172 166 161 152 141 134 130 124 117 93 77 98 
38 41 36 59 61 86 111 126 145 159 174 181 184 188 190 187 185 188 192 194 191 189 190 187 186 185 187 184 182 181 182 183 183 180 178 176 171 157 155 143 133 127 119 93 75 94 
42 40 35 53 49 61 92 109 128 145 162 174 183 187 189 183 184 186 191 192 194 193 191 191 190 192 193 190 192 189 186 187 189 183 181 183 177 171 162 148 146 143 123 102 74 99 
39 22 37 49 46 67 88 117 123 134 148 164 169 178 178 178 180 180 190 190 191 195 195 196 196 195 193 193 192 190 186 183 187 181 177 185 177 174 161 155 153 144 121 100 79 98 
26 26 46 50 54 63 87 119 126 138 155 160 162 169 169 175 182 182 190 190 193 193 195 194 193 191 190 187 188 183 177 176 180 176 173 177 176 166 167 155 151 150 132 99 90 104 
26 33 39 47 49 55 82 111 142 163 160 169 164 171 166 166 177 183 190 195 197 190 186 187 184 181 180 169 162 159 145 156 167 159 158 156 145 150 153 144 142 146 144 105 99 100 
42 28 35 40 55 63 81 115 154 170 164 163 164 168 167 174 183 181 190 181 170 153 136 123 118 109 101 100 110 115 130 132 146 132 128 127 98 94 84 73 94 107 119 123 96 103 
29 43 34 45 56 66 91 126 171 174 168 167 169 162 169 169 171 157 140 134 148 152 161 143 121 101 92 94 95 100 118 137 137 121 108 93 94 99 117 131 135 121 109 90 93 97 
184 106 39 44 57 65 99 140 173 177 169 168 167 163 157 151 136 147 159 172 176 170 157 135 124 103 107 99 96 99 135 168 167 123 89 111 111 116 108 116 121 130 122 93 85 95 
91 117 82 65 42 82 119 152 165 172 173 168 163 163 162 149 150 150 132 104 97 103 99 65 52 70 88 99 101 102 169 191 189 139 97 92 95 106 95 54 55 70 94 95 77 102 
138 86 72 64 59 77 114 140 167 164 171 169 169 176 172 150 131 102 118 126 120 125 116 77 89 104 126 137 106 140 184 195 190 162 125 109 99 128 111 60 62 82 88 112 29 95 
191 191 90 60 77 97 109 131 160 160 167 165 175 169 175 176 174 173 165 150 160 156 138 129 124 114 115 119 168 171 174 200 187 181 115 96 103 123 130 123 115 105 111 127 19 85 
117 69 53 60 70 78 105 128 155 152 161 166 172 169 169 185 188 177 178 170 141 117 105 110 117 124 147 174 180 168 168 189 193 180 134 134 119 104 94 100 110 120 121 130 19 94 
96 74 94 68 70 79 93 117 152 149 159 162 172 177 182 192 195 195 193 190 192 178 167 158 165 175 185 186 175 165 163 175 199 186 143 124 150 154 151 144 148 142 136 124 36 92 
135 123 155 97 76 76 92 117 152 152 161 163 166 176 174 182 192 195 197 191 193 189 185 189 183 181 186 185 176 165 164 169 196 190 166 115 144 159 173 176 175 169 153 129 62 99 
174 156 185 142 79 65 96 107 141 156 159 155 160 164 169 169 171 167 183 185 187 187 188 183 182 186 190 182 167 163 162 168 196 191 182 153 121 152 170 171 170 164 153 127 77 94 
138 178 178 135 88 70 93 101 138 153 153 159 152 159 170 171 177 178 179 187 186 189 184 180 178 172 165 160 174 165 153 162 185 190 191 173 120 144 166 172 173 167 145 123 81 87 
170 168 146 126 79 61 79 84 121 144 153 156 150 161 164 165 169 169 178 179 182 182 175 165 148 149 156 169 176 178 166 155 161 181 177 153 114 107 130 150 160 153 136 119 75 87 
92 130 163 167 70 64 71 77 109 140 150 157 162 159 163 165 163 163 169 171 168 164 153 136 152 158 128 149 140 128 118 106 103 127 128 96 77 117 102 116 134 132 113 118 72 71 
102 100 81 141 108 52 49 77 91 118 148 145 153 157 156 150 149 155 156 150 144 127 113 131 163 158 154 102 74 71 70 69 63 72 68 61 103 107 113 90 99 108 109 106 67 56 
98 100 58 20 59 50 58 68 88 107 137 136 146 157 151 149 143 137 130 120 110 102 105 148 156 155 153 140 117 91 85 80 78 77 89 77 86 100 108 99 93 99 108 105 65 67 
97 100 90 22 51 58 58 60 86 99 121 128 124 145 151 146 136 134 120 109 97 106 127 139 136 131 132 132 119 122 113 122 99 81 86 83 75 78 93 105 101 99 107 88 62 59 
105 101 108 38 50 66 64 56 101 85 108 112 114 127 133 133 143 129 113 108 110 125 137 130 132 143 135 126 110 106 106 107 84 86 89 81 92 80 77 91 108 111 93 75 56 49 
100 98 105 46 43 75 51 68 84 76 86 112 102 108 124 132 133 129 124 117 121 116 121 106 107 114 102 94 85 75 90 87 73 83 77 49 69 75 66 74 107 100 80 76 52 56 
99 94 99 52 48 94 58 59 67 58 91 106 85 90 111 116 112 124 115 117 111 104 83 71 42 60 65 83 73 96 104 88 105 87 55 13 43 54 62 69 89 81 86 77 60 56 
100 101 104 77 59 84 63 56 48 64 77 81 85 78 92 86 100 107 97 99 85 78 85 100 103 94 89 85 58 68 77 58 67 43 73 74 89 57 59 68 73 62 63 69 57 50 
95 95 104 77 71 91 67 76 57 67 57 75 75 77 84 83 85 91 83 95 84 87 97 111 118 123 130 132 125 115 115 115 115 100 107 100 106 85 60 52 77 52 63 67 52 48 
101 108 93 76 76 77 53 45 54 57 50 75 66 70 68 90 77 76 83 100 106 98 98 102 122 138 138 139 139 127 121 114 114 108 105 111 113 104 72 58 62 62 49 56 45 49 
114 94 56 43 106 89 68 59 49 52 62 59 71 65 69 75 73 79 64 75 103 87 87 94 114 120 114 113 112 109 124 125 129 124 129 127 98 94 79 55 60 58 48 43 50 43 
94 60 38 48 96 89 68 56 59 62 48 49 64 61 56 67 72 73 67 73 95 80 81 114 127 122 120 116 113 105 101 105 108 108 105 122 131 84 67 63 69 58 46 46 44 47 
85 34 35 44 117 126 90 60 34 38 42 45 49 53 48 58 63 61 69 75 85 91 92 96 107 123 119 121 110 102 105 93 111 102 105 101 108 86 65 74 59 59 50 48 43 50 
74 14 24 85 136 113 108 69 47 39 32 45 42 42 41 58 54 71 75 77 93 77 82 102 94 105 101 117 107 107 101 99 113 99 85 116 101 68 75 55 55 66 49 43 38 43 
77 12 105 139 126 126 112 88 54 34 32 39 36 54 48 55 60 63 62 61 48 75 86 98 92 94 84 99 89 111 98 104 98 97 79 111 100 83 68 72 46 49 45 43 44 46 
63 40 158 143 129 129 121 97 53 43 42 31 29 27 24 49 60 69 51 53 48 54 70 95 74 88 80 84 74 82 80 72 78 92 67 91 74 89 52 60 53 50 32 46 40 38 
57 132 156 149 136 121 108 84 66 61 38 34 33 28 22 55 52 51 55 62 50 61 70 82 72 58 78 86 55 65 75 62 94 71 76 69 72 65 58 42 56 42 50 44 46 36 
59 162 166 152 147 123 109 96 73 60 43 36 32 24 29 35 50 51 49 38 59 48 61 63 47 51 63 61 59 67 65 61 81 64 65 54 49 48 54 55 46 39 43 51 48 53 
62 171 165 151 139 124 124 113 103 84 57 49 42 31 27 35 32 33 43 43 46 32 68 43 54 54 51 43 34 48 54 49 50 53 54 46 46 47 48 58 63 45 42 31 48 42 
70 168 161 143 129 128 130 121 118 104 88 63 54 40 28 34 28 30 29 29 44 33 45 31 42 46 37 29 32 40 35 41 33 33 47 33 43 49 55 59 58 41 52 23 37 44 
