P2
46 56
255
110 112 113 110 110 106 99 81 72 85 87 51 52 48 65 45 38 40 48 43 41 40 37 46 53 57 64 52 48 51 66 66 59 54 92 85 84 92 94 104 104 107 105 103 103 105 
108 107 110 107 100 87 74 76 54 59 56 26 49 41 43 37 34 32 36 37 35 34 36 44 42 42 49 55 57 57 62 67 61 62 75 72 63 79 91 105 97 106 103 101 106 105 
110 108 105 108 82 96 68 60 50 52 49 32 39 28 36 27 31 32 33 34 32 38 31 35 26 30 42 48 42 42 51 48 60 56 61 54 60 67 65 86 65 101 103 104 103 104 
111 108 107 91 95 66 58 58 48 37 46 33 30 29 32 26 28 28 28 25 37 24 30 29 26 34 32 35 39 34 38 41 44 44 38 41 46 60 63 55 69 82 104 105 105 104 
102 101 90 91 85 72 65 40 39 33 28 34 23 30 24 25 25 28 23 30 24 29 30 26 30 28 29 25 38 35 31 33 31 26 34 34 46 53 50 54 47 84 95 103 103 103 
77 80 82 63 57 56 41 38 39 33 30 28 22 27 20 21 27 29 25 27 25 25 26 23 29 30 23 26 34 38 31 31 28 20 31 29 31 44 41 49 57 62 73 84 104 104 
84 68 66 64 73 58 57 45 35 42 37 32 27 26 24 32 27 28 31 24 25 25 23 27 24 27 24 27 37 29 33 23 28 20 24 26 25 28 32 36 53 49 81 85 104 104 
74 89 72 62 60 58 45 45 44 36 31 39 32 30 27 33 30 33 31 37 29 27 31 25 23 26 33 27 25 35 34 26 23 27 28 22 22 30 31 28 28 52 75 97 104 104 
84 74 74 65 57 39 43 52 46 44 34 34 31 33 36 34 41 34 34 38 35 37 32 33 25 31 26 28 33 36 22 45 16 23 23 22 27 21 27 26 30 48 79 91 99 104 
65 62 64 65 54 53 46 42 30 28 31 34 36 32 38 45 44 51 48 39 47 40 42 35 38 48 32 40 31 33 33 28 38 39 34 25 23 24 20 20 24 31 43 39 66 100 
54 57 60 49 55 54 42 34 34 47 36 49 51 48 50 55 50 55 58 57 45 44 55 67 58 50 56 45 57 34 52 38 30 45 36 34 26 21 23 21 20 24 29 63 65 96 
70 67 65 59 61 78 68 76 65 56 49 49 51 51 58 69 63 61 78 64 62 70 59 60 69 57 55 57 49 52 42 44 37 37 48 41 37 26 24 24 21 25 33 38 45 85 
63 76 47 55 65 80 85 74 66 60 55 47 55 62 61 77 71 75 70 77 71 72 63 58 62 62 63 52 55 59 51 49 46 54 53 61 49 42 25 23 20 21 26 38 57 97 
63 43 42 60 75 93 97 87 76 71 66 71 69 70 70 89 79 89 80 68 80 63 72 58 72 56 72 60 63 62 69 62 65 66 79 79 73 62 34 25 24 28 28 46 73 98 
63 40 55 56 63 80 87 101 96 93 90 92 82 96 98 96 98 92 83 78 73 68 76 75 74 73 82 77 91 90 90 95 96 102 113 110 93 77 45 27 27 25 29 28 61 104 
54 58 45 60 73 85 93 102 104 112 110 110 114 107 114 122 116 112 99 91 93 87 86 90 98 93 100 100 110 112 111 124 130 126 131 127 117 107 76 50 34 20 28 41 66 100 
50 54 51 52 94 107 111 123 126 130 126 127 129 135 140 148 135 113 117 103 99 102 104 102 107 103 116 118 115 129 126 134 132 136 125 117 123 111 91 82 59 37 26 50 86 102 
37 44 45 64 109 120 128 125 123 122 136 129 146 144 151 135 123 130 123 113 122 113 115 118 120 115 109 114 125 126 129 133 134 129 126 122 109 109 89 81 46 37 36 39 96 98 
37 46 43 92 118 135 137 143 137 128 143 139 155 149 133 141 117 125 121 108 118 105 115 114 122 120 123 111 112 126 128 113 124 132 125 117 112 101 77 69 57 44 40 45 102 95 
47 48 41 99 123 137 140 144 139 142 135 140 150 154 132 141 118 128 126 103 123 110 112 122 125 117 122 129 113 120 122 114 128 130 120 113 109 98 68 62 66 54 55 42 94 98 
55 47 53 93 125 137 144 147 151 145 139 142 146 152 139 141 135 135 131 106 119 120 122 130 129 132 120 129 126 132 131 124 129 131 118 115 104 85 62 53 62 48 52 64 91 96 
58 47 48 88 117 138 150 143 147 147 142 146 146 149 154 154 138 137 131 118 121 126 131 132 132 132 132 138 129 135 135 130 131 127 120 114 103 92 59 46 57 42 47 60 96 95 
95 53 48 78 112 134 143 152 149 143 152 154 153 158 160 158 145 136 122 136 145 135 140 141 144 134 146 138 132 137 131 142 137 130 124 112 109 93 67 50 46 37 48 73 95 95 
108 74 51 88 112 130 138 150 155 158 156 160 167 169 167 167 157 148 147 144 149 147 150 148 156 139 150 151 146 142 142 142 138 136 128 114 111 106 97 69 43 41 40 93 92 95 
106 98 43 105 117 130 133 148 158 163 170 172 174 170 170 167 158 151 156 144 147 148 147 148 152 147 144 146 141 140 138 133 135 131 132 126 113 106 109 93 44 49 45 72 95 96 
107 111 39 125 127 129 143 152 153 157 157 160 161 157 155 131 143 155 148 134 132 139 134 137 138 138 131 134 129 121 110 100 89 92 92 118 114 110 110 109 44 48 48 89 92 92 
105 105 49 137 133 135 142 128 124 119 114 119 117 113 121 103 119 128 135 125 136 137 125 123 116 96 95 70 60 47 44 48 50 55 63 61 66 72 103 116 47 57 85 45 92 91 
103 138 89 138 133 104 90 77 69 64 59 61 58 61 67 86 92 95 116 125 125 127 107 105 87 72 73 51 45 45 52 54 64 66 72 77 78 79 108 116 86 63 116 45 122 90 
110 83 142 137 138 69 65 69 71 68 67 71 64 62 64 74 82 92 97 107 123 120 115 97 84 63 48 49 45 40 37 34 36 50 71 87 98 104 115 115 117 93 115 63 117 93 
104 71 111 134 149 100 99 103 92 71 45 38 46 40 61 55 57 63 83 115 142 142 142 103 59 61 55 85 77 56 52 62 77 45 57 75 99 114 114 115 119 79 103 86 100 92 
89 149 125 131 141 131 104 89 65 35 90 74 51 54 96 79 71 90 85 116 162 175 149 98 74 79 66 69 92 89 74 94 83 79 95 109 111 119 117 112 125 49 80 99 93 91 
99 144 129 140 143 149 121 99 77 79 84 103 91 85 82 78 85 99 90 131 156 176 144 104 100 93 89 85 90 98 94 97 101 108 121 125 126 121 114 114 111 77 66 103 102 92 
98 115 134 120 138 147 144 133 122 115 114 111 101 95 89 85 92 100 130 142 159 194 159 105 125 112 100 97 102 103 105 107 119 124 129 125 126 123 121 113 114 93 83 92 108 91 
98 95 113 121 140 146 152 155 148 136 128 119 124 117 112 110 126 141 144 148 160 193 162 113 118 124 128 123 120 115 115 114 121 130 128 124 121 113 115 115 114 114 118 89 91 90 
100 86 129 168 129 144 153 156 160 154 146 140 129 127 141 150 149 155 145 148 167 179 161 128 115 112 135 140 135 135 130 131 124 126 129 124 118 114 116 108 117 115 116 115 91 87 
100 94 148 110 166 140 140 148 154 154 153 149 157 160 157 153 156 150 149 151 170 188 165 142 125 113 124 140 151 143 139 135 133 129 124 120 115 112 110 105 113 123 126 91 90 91 
101 99 105 160 160 133 140 140 142 148 147 154 160 159 154 155 144 128 147 155 171 180 169 152 131 117 97 127 141 147 138 136 136 131 126 119 111 105 109 105 117 114 110 82 89 87 
97 100 94 140 167 137 131 132 143 150 147 151 156 156 148 143 122 141 144 155 168 175 163 155 136 136 105 111 122 134 140 139 138 129 120 113 109 105 106 107 91 95 86 89 89 88 
104 103 97 92 141 164 124 131 134 135 141 148 154 152 137 126 115 142 148 150 157 162 155 146 120 116 112 101 109 114 130 133 137 126 114 114 109 105 106 91 84 84 85 85 87 88 
100 98 98 96 99 95 135 124 128 132 136 144 144 145 130 116 142 128 121 134 137 139 131 108 97 99 98 112 129 117 115 120 133 124 112 110 110 107 109 81 88 87 86 87 86 86 
101 98 97 98 98 98 130 130 127 128 139 138 146 139 127 143 159 130 78 84 108 107 99 73 53 81 99 111 135 138 125 125 121 122 113 106 106 107 110 76 84 85 81 82 82 85 
102 101 98 99 97 99 95 131 124 126 131 150 145 139 151 160 158 162 99 89 82 78 76 85 85 101 106 111 130 142 137 122 124 123 116 113 108 102 115 75 80 82 82 82 83 85 
101 99 97 100 99 96 91 137 126 122 133 135 147 151 156 148 154 147 135 100 103 97 95 93 112 110 111 117 127 133 135 127 130 122 116 113 112 107 109 80 81 83 88 80 79 84 
97 100 97 98 97 99 101 128 129 127 133 144 148 149 148 150 153 145 149 134 116 94 101 109 113 113 115 117 119 113 105 122 124 118 117 111 112 107 92 81 77 82 81 79 79 80 
101 100 98 98 98 97 95 94 131 125 136 143 146 149 138 142 141 144 145 137 141 123 117 116 98 90 91 87 85 71 90 109 116 117 117 112 111 107 72 78 75 77 76 76 77 78 
93 98 98 96 96 98 95 97 130 127 126 135 145 138 120 97 110 99 85 70 62 59 75 61 55 66 77 76 80 99 107 106 108 113 113 111 108 96 76 75 76 74 76 73 77 76 
99 99 99 98 98 98 98 97 96 135 131 122 137 126 120 129 106 94 104 123 122 128 118 113 106 111 105 96 104 113 117 108 103 112 111 109 106 69 75 74 76 75 75 76 75 75 
98 95 97 98 95 96 98 100 85 133 130 128 132 121 120 132 138 116 103 111 113 107 107 101 94 93 97 101 110 114 108 115 108 105 109 106 104 69 74 74 72 75 73 72 75 74 
99 96 94 99 101 99 96 99 86 149 120 126 124 128 128 121 131 132 111 108 95 92 79 74 82 89 97 100 106 117 115 121 111 112 108 102 106 64 68 74 72 73 72 74 71 73 
96 96 97 99 94 95 98 99 84 148 128 120 128 126 138 143 140 134 133 121 110 102 95 97 100 106 105 110 123 120 121 121 108 109 103 94 116 63 68 71 69 70 70 70 72 71 
100 98 93 97 96 95 95 99 93 149 126 121 113 123 134 133 140 137 142 144 148 142 137 130 130 133 132 132 134 129 122 112 107 102 101 107 117 64 70 70 71 71 70 73 68 72 
96 95 95 98 97 94 133 185 142 148 141 126 112 114 125 129 143 143 145 154 153 154 147 146 146 145 135 145 137 131 122 109 104 95 97 107 115 63 67 70 69 67 69 68 67 68 
96 96 93 93 102 200 211 148 139 146 144 128 119 109 111 124 126 133 138 144 144 149 141 140 139 138 139 137 125 114 109 103 97 94 104 107 108 115 78 75 68 68 67 66 66 68 
94 93 113 195 204 203 203 152 144 147 145 133 127 119 110 110 118 123 122 130 140 134 135 130 130 129 121 117 105 99 99 99 99 101 107 110 112 114 115 115 143 91 68 66 63 64 
113 186 200 203 207 202 202 157 145 147 146 142 133 125 117 113 107 114 109 116 116 117 118 115 111 112 101 101 97 98 101 106 103 104 108 110 112 114 112 117 85 173 169 58 65 64 
203 199 203 204 207 205 217 154 150 153 151 148 138 133 127 118 116 111 111 106 101 97 94 101 94 95 97 96 99 102 104 101 105 104 109 113 109 113 117 121 125 171 171 177 93 65 
