P2
46 56
255
106 110 107 108 105 111 104 98 82 84 72 67 68 58 46 62 48 39 34 38 33 47 38 38 37 41 56 46 45 57 64 85 68 75 70 78 89 93 91 99 104 105 105 101 103 105 
107 107 109 108 94 107 74 96 61 72 68 56 35 56 36 34 36 27 29 28 30 39 31 29 31 38 40 40 45 46 53 47 50 63 60 74 76 74 60 81 109 104 103 104 104 104 
107 107 108 101 106 96 110 63 89 56 50 51 41 32 41 29 24 27 28 23 30 37 27 30 38 29 35 30 33 31 43 39 44 46 44 57 66 63 54 73 101 102 101 107 107 103 
108 93 96 89 79 75 83 70 55 44 45 41 37 43 31 32 26 21 29 22 31 31 27 28 21 29 23 31 34 36 30 35 40 39 36 42 42 46 48 52 66 62 82 104 105 104 
101 98 88 87 55 79 71 70 59 58 47 32 30 32 36 29 27 18 20 33 22 27 30 29 23 35 26 27 25 25 21 30 41 47 31 36 35 43 58 54 49 60 71 82 101 102 
101 80 78 91 70 64 60 63 53 46 60 51 40 31 30 30 35 26 27 26 28 32 29 27 30 28 35 24 21 28 31 19 41 26 24 28 27 29 34 55 45 72 65 104 104 103 
90 101 66 59 59 54 58 46 47 42 34 29 32 33 39 29 27 28 27 24 36 30 35 30 26 33 28 27 20 20 24 28 32 27 41 27 27 24 27 32 45 52 63 72 91 103 
97 87 76 72 60 60 57 42 44 34 31 29 28 31 26 28 37 42 36 36 46 49 41 31 34 39 41 46 35 28 22 37 27 50 31 20 27 25 28 28 42 61 57 56 56 105 
85 69 53 58 57 43 55 54 53 40 45 48 47 43 48 42 46 49 48 46 48 55 67 49 45 57 52 67 57 45 35 32 55 33 36 29 31 21 22 23 35 37 59 75 84 100 
69 48 48 48 62 49 53 61 80 80 74 68 50 39 44 51 63 57 58 69 74 75 73 80 67 63 71 64 70 55 54 39 35 35 36 32 46 26 24 25 24 26 50 75 92 103 
56 53 59 72 60 42 51 65 82 84 76 77 65 57 60 57 68 62 80 83 74 83 74 79 74 65 61 77 72 71 66 53 53 49 40 37 35 40 29 21 26 25 32 45 63 75 
54 52 68 52 37 48 57 67 80 83 91 88 91 90 80 78 75 84 93 91 93 90 76 91 71 87 68 79 60 84 64 66 62 59 52 44 49 50 35 25 25 25 26 32 52 63 
55 55 67 29 48 41 53 66 71 76 85 86 102 102 101 98 98 103 106 117 105 82 85 80 77 93 79 85 81 80 86 86 96 86 76 81 67 72 58 35 24 29 25 32 43 51 
47 46 60 38 41 49 63 75 88 101 114 125 127 141 139 133 127 135 134 131 111 111 101 103 94 105 102 98 100 108 104 113 116 115 124 113 115 103 82 50 30 26 28 30 36 49 
75 48 46 42 43 50 85 106 125 134 132 136 125 141 143 146 141 157 158 154 123 132 109 127 123 141 129 140 124 119 135 132 145 144 149 143 131 118 113 82 32 22 27 30 49 74 
41 44 37 45 40 62 106 124 148 149 145 145 145 155 151 162 156 158 153 149 145 130 127 140 132 152 132 141 140 139 127 138 162 133 152 149 139 127 117 106 60 50 27 22 34 70 
42 38 37 42 47 93 115 135 152 146 147 143 154 156 164 174 174 150 166 134 143 138 119 145 126 140 144 151 138 150 145 139 143 147 138 136 143 127 111 112 80 54 28 26 31 79 
42 37 41 45 51 105 122 141 156 160 157 142 158 138 168 169 166 157 160 153 154 150 109 147 137 142 156 154 140 145 140 130 131 133 133 141 138 126 113 105 80 62 53 28 38 89 
70 42 43 43 58 104 125 136 150 157 160 164 154 159 168 168 161 168 169 168 166 152 126 131 152 159 164 156 158 147 145 150 149 147 143 144 137 122 109 97 74 65 57 41 36 97 
66 54 48 45 61 97 120 134 143 156 161 156 157 166 161 170 174 176 174 162 160 144 131 147 149 165 159 164 138 169 158 153 164 152 154 147 135 119 104 85 62 57 54 50 33 99 
81 51 39 47 65 87 117 127 144 156 162 160 166 166 177 170 185 181 177 173 161 152 163 174 161 170 174 159 166 171 163 151 167 156 158 148 138 118 107 79 49 69 60 49 61 96 
87 55 40 50 62 89 112 129 135 151 161 166 169 177 180 182 172 182 182 181 177 176 174 177 179 172 169 165 173 176 175 173 164 155 157 147 134 112 104 85 53 47 48 54 71 98 
89 87 42 51 75 109 117 131 138 151 162 165 172 177 173 179 175 179 174 182 177 185 171 164 168 169 172 171 175 175 169 161 160 160 150 146 134 113 109 95 55 47 46 54 88 94 
89 91 45 44 101 123 126 128 141 147 145 155 153 156 158 159 157 152 135 167 173 167 166 164 165 151 161 161 158 159 153 148 141 133 121 123 119 123 111 108 79 36 30 41 94 95 
85 88 56 38 115 128 124 129 122 110 106 95 90 94 87 103 108 109 118 134 143 149 155 165 156 144 140 124 116 91 70 65 60 60 63 63 72 83 96 102 105 39 42 63 92 93 
84 85 71 43 121 133 116 81 73 65 67 56 51 53 53 58 64 85 99 96 131 150 151 145 126 132 113 97 90 60 48 43 48 48 47 53 57 52 58 97 113 44 44 66 95 94 
83 85 82 41 127 135 73 64 71 87 98 95 97 90 86 77 67 80 84 96 112 126 151 152 151 131 109 83 67 53 58 74 77 80 94 102 101 94 74 79 118 39 43 91 93 91 
80 124 130 21 131 132 97 92 99 105 88 67 59 51 77 48 72 74 72 73 92 128 169 169 170 131 81 79 84 87 57 96 35 53 71 59 87 100 104 101 115 57 63 90 87 92 
93 47 127 47 130 128 129 108 91 87 58 43 107 69 56 60 142 81 95 118 87 131 163 177 163 115 89 120 94 135 72 79 64 109 65 51 89 98 115 118 111 68 109 64 98 94 
106 59 96 114 129 132 143 135 116 99 78 82 106 116 100 106 112 109 123 115 110 135 159 181 158 117 108 130 119 115 118 118 112 105 91 96 114 119 132 122 117 102 121 98 119 90 
84 118 126 110 126 135 148 147 150 142 135 130 131 125 122 124 119 118 128 119 142 140 161 192 170 118 130 113 126 121 126 124 122 125 129 133 138 138 136 129 117 98 127 93 104 93 
65 157 122 119 120 128 144 149 160 161 155 149 143 144 142 144 134 143 144 148 144 148 167 192 170 133 131 140 132 135 134 141 143 142 147 150 150 145 133 126 117 83 118 108 89 93 
72 142 135 96 119 128 141 154 160 163 164 160 159 152 153 160 163 164 155 152 149 148 175 188 171 144 132 131 145 150 147 146 146 148 149 155 152 146 130 121 110 125 102 112 86 94 
83 141 134 89 145 122 135 139 152 162 163 163 161 168 171 164 154 164 154 144 149 156 178 187 173 155 131 131 146 157 154 156 158 157 151 148 147 136 126 121 101 126 109 107 93 91 
86 115 103 116 132 117 134 141 140 150 158 159 166 171 168 160 169 159 136 132 147 159 179 188 177 163 130 126 133 154 159 151 154 158 151 146 138 123 127 113 104 124 127 112 88 93 
83 74 124 116 150 109 119 133 138 149 157 159 164 167 167 163 160 145 117 145 151 162 178 186 176 162 132 141 115 147 152 144 151 155 149 145 135 127 115 110 123 136 116 123 86 91 
82 77 134 136 126 130 119 117 135 140 143 152 162 164 166 155 144 139 123 133 141 156 165 175 165 147 120 128 110 130 146 152 160 150 153 143 129 124 111 99 138 132 139 92 90 89 
82 80 75 137 145 156 113 121 127 136 140 145 156 158 153 147 142 155 114 116 96 121 136 141 128 98 98 105 127 142 137 144 148 148 141 134 127 118 110 91 146 125 110 81 87 88 
81 81 79 70 117 135 114 124 128 132 140 148 147 152 144 147 163 170 141 82 68 70 98 100 80 69 55 99 143 149 160 147 135 149 139 133 124 112 103 97 97 94 86 86 86 86 
80 81 79 78 76 73 119 123 126 126 134 140 152 151 156 165 165 167 161 134 101 91 82 80 107 121 123 132 140 146 157 157 148 139 132 128 119 115 104 83 77 84 85 84 84 87 
79 80 81 79 80 78 90 123 123 131 132 137 145 155 158 168 163 156 152 163 144 139 125 133 129 144 143 135 141 144 152 155 143 142 131 129 117 114 106 71 77 79 82 85 86 86 
80 77 79 80 79 78 59 123 127 129 130 141 151 153 150 161 160 161 155 168 164 164 140 135 142 147 144 145 147 151 147 147 143 142 132 126 122 115 109 65 78 78 81 82 87 84 
78 78 78 77 76 76 66 124 122 126 132 142 151 155 152 145 143 146 146 129 116 112 134 152 127 108 108 115 122 131 124 123 142 138 133 125 120 114 114 69 74 78 79 81 84 84 
79 80 77 78 78 79 80 110 125 123 131 139 152 149 141 121 76 96 84 61 53 55 79 66 78 65 51 63 68 71 80 121 129 137 132 126 123 113 93 71 74 73 81 84 83 83 
80 81 77 77 80 75 78 64 122 124 130 125 145 138 142 149 154 116 112 140 134 107 97 86 103 106 118 126 120 119 139 135 136 135 127 125 117 111 61 73 73 79 79 81 82 82 
77 78 79 80 78 78 78 78 116 126 130 127 134 133 144 156 162 142 120 127 139 154 156 158 152 150 139 121 113 122 142 129 132 123 124 118 112 99 62 73 74 76 78 77 78 79 
76 72 77 79 77 79 79 79 117 113 125 127 126 131 142 135 153 160 133 124 116 117 106 115 106 107 105 114 124 131 135 124 136 127 115 114 107 54 64 71 74 75 71 75 75 75 
78 74 78 75 72 75 76 80 120 122 118 119 127 129 146 144 157 159 152 129 118 114 115 106 103 110 117 121 132 137 138 135 127 118 114 111 100 53 59 69 70 75 73 76 81 76 
76 78 76 74 74 75 77 80 124 122 104 111 121 123 135 138 142 145 160 150 151 146 146 133 138 143 142 147 150 154 144 135 131 119 111 90 103 58 66 70 70 72 73 71 73 74 
77 75 76 75 73 75 77 73 129 121 113 93 106 119 132 141 153 156 156 172 170 173 173 169 157 168 173 166 164 165 153 134 118 109 89 87 111 58 68 68 72 72 73 73 77 73 
79 79 76 75 75 77 75 66 129 128 112 106 84 110 116 126 138 141 166 163 162 167 170 170 170 170 168 159 163 157 146 126 113 93 80 101 109 61 70 70 69 70 70 72 73 72 
78 77 74 78 75 74 77 71 131 124 120 111 100 95 102 114 122 138 141 154 163 157 162 163 162 160 157 154 157 147 127 112 90 88 98 110 109 65 70 70 70 70 71 73 71 70 
78 75 74 73 77 156 135 120 134 132 123 114 107 100 99 90 109 117 129 140 150 146 147 148 149 147 150 142 135 127 111 87 86 93 110 114 102 70 72 71 71 71 71 74 73 72 
80 79 70 171 193 166 130 128 132 134 128 116 112 104 99 100 97 101 107 113 126 132 131 128 124 128 129 120 119 106 84 89 91 110 116 115 105 72 70 70 71 71 72 70 69 69 
74 139 192 199 194 160 137 131 139 139 132 122 119 109 105 107 103 101 92 102 108 109 107 110 111 111 109 102 93 87 86 91 111 116 115 115 103 109 115 148 80 69 70 71 70 70 
185 203 199 201 195 181 146 138 142 143 138 134 122 114 113 109 107 103 103 101 94 86 78 72 70 79 84 83 90 91 99 109 114 121 118 115 103 113 114 91 179 160 61 73 68 68 
