P1
40 40
0000000000000000000000000000000000000000000000000000000000000000000000
0000000000000000000000000000000000000000000000000000000000000000000000
0000000000000000000000000000000000000010000000000000000000000000000000
0000000010000000000000000000000000000000000000011100000000000000000000
0000000000000000111110000000000000000000000000000000000111111000000000
0000000000000000000000000111111100000000000000000000000000000000111111
1100000000000000000000000000000001111111111000000000000000000000000000
0001111111111100000000000000000000000000001111111111110000000000000000
0000000000011111111111111000000000000000000000000001111111111111110000
0000000000000000000001111111111111111000000000000000000000001111111111
1111111000000000000000000000001111111111111111110000000000000000000001
1111111111111111110000000000000000000001111111111111111111100000000000
0000000011111111111111111111110000000000000000001111111111111111111111
1000000000000000011111111111111111111111100000000000000001111111111111
1111111111110000000000000011111111111111111111111111100000000000001111
1111111111111111111111100000000000001111111111111111111111111111000000
0000011111111111111111111111111111000000000000111111111111111111111111
1110000000000000000000000000000000000000000000000000000000000000000000
0000000000000000000000000000000000000000000000000000000000000000000000
0000000000000000000000000000000000000000000000000000000000000000000000
0000000000000000000000000000000000000000000000000000000000000000000000
0000000000000000000000000000000000000000000000000000000000000000000000
000000000000000000000000000000000000000000000000000000000000