P1
40 40
0000000000000000000000000000000000000000000000000000000000000000000000
0000000000000000000000000000000000000000000000000000000000000000000000
0000000000000000000000000000000000000100000000000000000000000000000000
0000001110000000000000000000000000000000000000111000000000000000000000
0000000000000001111100000000000000000000000000000000001111111000000000
0000000000000000000000001111111000000000000000000000000000000000111111
1100000000000000000000000000000001111111111000000000000000000000000000
0001111111111000000000000000000000000000001111111111110000000000000000
0000000000001111111111110000000000000000000000000000111111111111100000
0000000000000000000001111111111111110000000000000000000000000111111111
1111110000000000000000000000000111111111111111100000000000000000000000
1111111111111111110000000000000000000000111111111111111111000000000000
0000000001111111111111111111100000000000000000000111111111111111111111
0000000000000000000111111111111111111111100000000000000000111111111111
1111111111110000000000000000111111111111111111111111100000000000000011
1111111111111111111111110000000000000111111111111111111111111111000000
0000000111111111111111111111111111100000000000011111111111111111111111
1111110000000000111111111111111111111111111111000000000011111110001111
1111111111100000000000000000000000000000000000000000000000000000000000
0000000000000000000000000000000000000000000000000000000000000000000000
0000000000000000000000000000000000000000000000000000000000000000000000
0000000000000000000000000000000000000000000000000000000000000000000000
000000000000000000000000000000000000000000000000000000000000