P1
40 40
0000000000000000000000000000000000000000000000000000000000000000000000
0000000000000000000000000000000000000000000000000000000000000000000000
0000000000000000000000000000000000000000000000000000000000000000000000
0000000000000000000000000000000000000000000000000000000000000000000000
0000000000000000000010000000000000000000000000000000000000011100000000
0000000000000000000000000000111100000000000000000000000000000000000011
1100000000000000000000000000000000000111111000000000000000000000000000
0000000111111100000000000000000000000000000000111111110000000000000000
0000000000000001111111111000000000000000000000000000000111111111110000
0000000000000000000000001111111111110000000000000000000000000000111111
1111111000000000000000000000000001111111111111100000000000000000000000
0001111111111111110000000000000000000000001111111111111111000000000000
0000000000001111111111111111100000000000000000000001111111111111111110
0000000000000000000001111111111111111111000000000000000000000111111111
1111111111000000000000000000001111111111111111111110000000000000000000
1111111111111111111110000000000000000001111111111111111111111100000000
0000000001111111111111111111111100000000000000001111111111111111111111
1110000000000000001111111111111111111111111000000000000001111111111111
1111111111111100000000000001111111111111111111111111110000000000000111
1111111111111111111111110000000000000111111111111111111111111100000000
0000000000000000000000000000000000000000000000000000000000000000000000
0000000000000000000000000000000000000000000000000000000000000000000000
000000000000000000000000000000000000000000000000000000000000