P2
46 56
15
2 3 3 3 3 2 2 3 3 3 3 4 3 3 3 2 2 3 4 5 6 6 6 6 6 5 5 4 4 3 3 2 3 2 3 3 3 2 2 2 2 3 2 2 2 2
3 3 3 3 3 3 3 3 3 3 3 4 3 3 3 3 5 7 7 7 7 7 7 7 7 7 7 7 6 6 5 3 3 3 3 2 2 2 2 3 3 3 3 2 2 2
3 3 3 3 3 3 3 3 4 4 3 4 3 2 5 7 8 8 8 8 8 8 8 7 7 7 7 7 7 7 7 7 6 3 3 3 3 2 3 3 3 3 3 3 2 2
3 3 3 3 4 3 3 4 3 3 4 3 3 7 8 8 8 8 8 9 8 8 8 8 8 8 7 8 7 7 7 7 7 6 5 2 3 3 3 3 3 3 3 3 2 2
3 3 3 3 3 3 3 4 4 4 3 5 8 9 8 9 9 9 8 8 8 9 9 9 8 8 8 8 8 8 8 8 8 8 7 7 3 3 3 2 3 3 3 3 3 2
3 3 2 3 3 4 4 3 4 4 6 8 9 9 10 10 10 9 9 9 8 9 9 9 8 8 9 8 8 8 8 8 8 8 8 8 7 3 3 3 3 3 2 3 3 2
3 3 3 3 4 3 5 3 4 6 9 10 10 10 10 10 10 10 10 9 9 10 9 10 8 8 9 8 9 8 8 9 8 8 8 8 8 7 2 3 3 3 3 3 3 3
3 3 3 4 3 3 4 4 5 9 10 11 11 11 10 11 10 10 10 10 9 9 10 9 10 9 9 9 8 9 9 8 9 9 9 8 8 8 7 3 3 3 3 3 3 3
3 3 4 3 3 4 3 3 9 10 11 11 11 11 11 11 10 10 11 10 10 9 9 10 9 9 8 8 8 8 8 9 9 8 8 8 9 9 7 8 1 2 3 3 3 3
3 4 3 3 4 4 1 9 10 11 11 12 11 11 11 11 11 10 10 10 9 9 9 10 9 9 9 8 8 8 8 8 8 9 9 9 9 9 9 8 8 1 3 3 4 3
3 3 4 4 3 3 8 10 10 11 11 12 11 11 12 11 10 10 10 10 10 9 10 9 10 9 9 8 8 8 8 8 8 8 8 9 9 9 9 9 8 5 1 3 2 3
3 4 4 4 3 3 11 11 12 11 12 12 12 12 11 11 11 10 9 9 9 9 9 9 9 9 9 8 8 8 9 9 9 9 8 9 8 9 9 8 9 9 0 2 2 3
3 4 6 5 4 6 11 11 11 12 12 12 12 12 11 11 11 10 9 9 9 9 9 9 9 9 9 9 8 9 9 9 9 9 9 9 9 9 9 9 9 9 5 3 2 4
4 3 5 6 4 11 11 11 12 12 12 12 12 12 12 12 11 11 11 10 9 9 9 9 9 10 10 9 9 9 9 9 9 10 10 9 9 9 9 9 9 9 8 1 2 2
4 4 3 4 4 11 12 12 12 12 12 12 12 12 12 12 12 12 11 11 10 10 8 10 9 10 10 10 9 9 9 9 9 10 9 10 9 9 9 9 9 9 9 1 2 3
5 4 2 1 5 10 12 12 12 12 12 12 12 12 12 13 12 12 11 11 10 10 9 10 10 10 10 9 9 8 9 9 9 9 9 8 8 8 9 9 9 9 8 3 3 6
4 4 4 2 5 9 12 12 12 12 11 11 12 12 12 12 11 11 11 10 9 10 8 9 9 9 9 7 7 7 6 6 6 6 6 6 6 6 7 8 9 9 9 3 3 4
3 5 3 4 4 8 12 12 12 12 10 8 9 9 9 8 8 7 9 8 7 8 9 8 6 8 8 6 7 6 4 4 3 3 4 4 6 6 7 7 8 9 8 4 3 1
3 3 3 2 3 7 12 12 11 9 9 7 7 7 6 6 9 9 6 6 7 7 7 7 6 8 7 6 11 4 4 3 4 5 7 7 7 8 7 5 5 9 8 4 3 3
2 2 2 3 4 6 12 12 11 8 6 7 9 9 9 6 8 7 7 5 7 3 7 8 7 8 6 5 6 7 9 6 8 8 8 8 8 9 10 10 7 4 9 5 2 3
4 2 3 4 4 5 12 12 5 9 12 12 11 11 10 9 10 8 7 7 8 8 8 10 8 9 9 4 6 6 6 4 3 4 3 2 4 4 7 10 8 3 8 5 4 3
6 3 2 6 2 5 12 7 4 11 12 11 6 4 4 5 4 4 6 6 6 8 13 5 5 2 2 5 3 5 4 4 8 3 8 3 5 5 2 6 7 3 3 14 4 4
4 2 6 6 1 3 9 8 2 12 11 1 12 3 12 4 9 4 5 6 9 11 5 6 8 6 6 6 7 7 5 6 7 5 5 4 6 5 5 5 4 3 3 11 1 3
4 4 5 4 3 7 6 7 4 10 3 3 9 4 4 5 6 5 6 8 10 11 0 13 10 8 9 3 7 8 7 6 6 6 6 6 7 9 10 9 9 6 7 4 2 5
5 4 3 4 4 2 7 7 3 14 9 10 10 8 8 7 5 6 6 9 10 8 7 12 10 8 9 2 8 8 7 6 6 6 6 6 7 7 8 9 9 10 4 6 2 4
4 4 5 5 3 3 10 9 4 13 11 11 10 8 7 7 8 8 10 11 10 3 12 11 10 8 8 8 4 10 9 8 6 6 6 7 8 7 7 8 9 11 4 9 2 5
6 6 7 6 5 4 11 5 8 12 10 10 10 10 10 9 10 11 11 11 10 4 12 11 10 8 8 8 4 9 10 9 9 9 8 8 8 8 8 9 9 11 9 9 2 4
4 4 6 5 5 4 11 8 11 12 11 11 10 10 10 10 11 10 10 10 8 11 11 11 10 8 8 8 8 3 9 9 8 9 9 8 8 8 9 10 10 4 13 9 2 3
3 5 7 5 5 2 11 13 7 13 13 12 11 10 10 10 10 10 10 12 5 12 12 11 11 9 8 9 12 6 5 9 8 9 8 8 8 8 9 10 9 9 11 10 2 3
2 3 5 4 4 3 10 12 9 12 13 12 11 11 10 10 10 9 10 5 9 12 12 12 10 8 8 8 10 9 6 5 6 7 7 6 6 6 7 8 10 11 11 10 2 3
4 4 4 7 5 5 9 12 12 11 6 6 7 8 8 7 7 6 8 8 12 12 10 10 9 7 8 9 7 9 11 5 5 5 5 5 5 6 8 10 11 11 10 10 3 3
4 3 2 6 5 4 7 12 12 13 13 12 10 11 8 8 7 6 5 13 12 9 5 9 10 6 7 6 0 5 9 5 7 8 8 8 8 8 9 11 11 10 9 9 3 2
6 3 3 5 6 4 6 13 12 12 13 12 11 11 10 9 7 7 9 11 8 1 2 10 10 5 7 3 2 2 8 2 7 7 8 8 7 9 10 10 11 9 8 8 3 2
4 4 4 8 6 4 5 12 11 12 12 12 11 10 8 7 7 9 11 10 8 7 8 7 7 5 3 4 7 5 5 6 8 7 7 7 6 7 8 9 10 8 8 7 3 2
4 5 5 4 5 4 5 12 12 11 11 12 11 9 7 8 9 11 11 11 10 8 6 6 4 2 7 5 5 5 6 8 9 8 7 7 8 7 8 8 8 8 7 5 4 2
4 4 4 4 4 4 6 10 10 10 11 11 7 10 9 8 9 10 8 7 7 5 7 4 5 5 7 5 4 3 6 5 7 7 7 6 7 8 5 8 6 7 6 3 3 3
3 4 3 4 4 4 6 9 9 10 11 12 11 10 6 8 7 8 7 6 5 5 6 5 4 5 4 3 4 5 3 5 6 5 5 6 5 7 10 7 5 6 4 4 3 2
4 4 5 4 4 4 4 8 8 9 9 7 11 5 7 6 7 6 5 5 5 4 5 5 5 4 4 3 3 5 3 6 5 5 5 4 4 5 7 6 4 5 2 3 3 2
3 4 4 3 4 4 6 5 6 8 9 7 8 5 5 6 6 6 6 6 5 5 3 4 5 3 4 4 4 4 4 5 4 3 4 2 4 4 5 4 3 3 2 2 3 2
4 3 4 3 3 4 5 6 7 7 7 6 7 4 5 2 4 3 2 4 5 7 6 11 11 7 8 7 5 4 4 3 2 1 2 2 2 2 5 3 3 2 1 2 3 2
3 4 3 4 4 5 6 4 5 5 7 5 4 6 3 3 3 4 1 2 7 1 2 8 5 2 4 5 3 1 3 4 2 3 3 3 3 3 4 4 3 2 3 2 3 2
4 5 3 4 5 3 4 4 4 4 5 7 5 4 3 4 5 6 9 10 10 8 5 8 8 8 8 7 6 7 6 7 5 4 4 3 4 4 5 5 4 3 3 2 2 3
4 3 3 3 5 4 3 3 5 4 5 5 5 4 3 4 5 6 9 11 10 10 8 8 8 9 7 6 6 6 7 7 6 4 5 4 5 4 4 3 4 2 2 2 2 2
4 4 4 3 4 4 6 3 3 4 4 4 4 4 3 3 5 6 7 10 11 11 9 8 8 8 6 6 6 7 6 6 6 5 5 6 3 2 3 3 2 1 3 3 3 3
4 4 3 6 3 3 3 3 3 3 4 4 3 3 2 4 3 5 6 6 8 7 8 7 6 7 5 7 5 7 7 5 5 6 3 5 3 4 2 3 3 2 2 4 4 3
4 4 4 4 4 3 3 5 3 5 4 4 2 2 2 3 3 4 5 5 6 6 5 6 6 4 5 5 5 5 5 5 4 5 2 2 3 3 4 2 2 2 2 3 3 2
3 3 3 4 2 4 3 4 3 5 3 5 5 4 3 3 4 4 4 4 4 4 3 4 5 5 4 5 4 5 3 3 4 3 2 3 3 3 3 2 3 3 3 3 2 2
3 3 2 3 3 4 4 4 4 5 2 4 6 6 3 5 3 3 2 2 4 4 3 3 3 3 3 3 2 3 3 3 3 4 2 2 3 4 4 4 2 3 2 3 4 2
4 3 3 3 4 4 3 3 3 5 3 4 3 5 2 3 7 2 4 2 3 4 3 2 2 2 4 2 3 3 3 3 3 3 2 4 3 3 5 2 3 2 4 2 2 3
3 3 3 2 3 2 4 3 2 4 3 5 4 3 3 2 6 5 2 3 1 3 5 3 3 3 3 2 6 4 3 2 3 2 2 2 5 2 2 3 5 2 4 2 2 3
4 4 4 3 3 3 5 4 6 4 4 3 5 4 2 2 2 6 4 3 4 5 7 4 3 4 3 4 5 2 5 3 5 3 3 2 2 4 1 3 4 2 2 2 2 3
4 3 4 3 3 5 4 5 7 4 3 4 3 4 2 4 2 7 4 3 5 4 5 5 3 1 3 4 3 2 2 3 3 3 4 2 2 3 5 2 3 4 4 2 2 2
4 3 4 5 4 4 3 3 3 5 3 2 3 3 5 5 2 5 4 2 7 2 5 2 4 3 2 3 4 2 3 1 4 4 4 3 3 2 5 1 3 5 3 1 2 2
4 4 3 5 5 3 3 4 4 2 3 3 5 5 4 3 3 5 1 5 7 1 7 2 4 4 2 3 2 2 2 2 4 3 4 4 2 4 5 3 3 4 2 1 1 2
4 5 4 3 5 4 3 3 4 3 3 5 3 6 5 3 3 2 5 7 4 0 7 4 3 4 2 1 4 2 2 3 3 3 4 4 3 4 3 3 2 2 3 1 1 2
4 4 4 4 5 4 5 5 3 5 5 8 8 6 2 3 5 4 7 3 3 4 5 3 3 3 3 2 3 3 4 2 3 4 4 2 2 2 3 3 2 5 1 1 2 2
