P2
46 56
255
156 155 156 154 155 156 154 154 154 154 154 149 125 101 103 104 103 98 93 94 85 85 93 99 79 97 117 115 128 132 154 152 151 154 152 156 152 151 151 152 150 151 152 151 151 149 
155 155 154 152 155 156 156 153 156 157 145 84 84 89 101 103 88 95 94 90 107 103 86 108 93 94 111 87 92 87 116 149 143 149 150 151 154 153 152 155 152 154 153 154 152 152 
154 153 157 157 155 155 157 155 151 135 83 89 94 108 100 89 87 104 99 109 116 111 110 126 110 98 110 87 99 88 94 96 98 127 141 150 152 152 153 153 153 151 152 151 150 151 
154 157 157 156 154 154 155 131 98 97 98 94 93 91 86 100 110 107 101 101 118 120 118 108 110 98 103 92 108 106 114 90 96 94 105 112 136 147 152 153 151 153 152 153 153 149 
155 155 157 154 155 154 130 72 91 84 90 90 87 73 89 107 101 97 76 123 125 111 108 120 105 127 104 98 109 108 107 104 99 86 102 96 106 100 150 150 151 153 153 153 152 151 
155 154 154 156 150 134 78 82 90 110 111 99 108 79 104 79 78 83 111 124 124 107 107 111 110 122 107 101 109 110 110 115 108 110 97 96 98 107 115 153 153 153 151 152 151 153 
150 150 153 152 140 75 85 112 108 108 93 133 123 98 85 63 66 81 86 98 108 89 81 116 114 98 105 109 103 107 106 109 108 121 104 97 117 113 96 110 145 148 150 154 153 152 
147 145 144 143 102 81 91 108 80 94 87 106 87 86 88 86 81 70 92 96 85 96 124 135 125 124 117 109 105 105 119 112 105 135 106 103 91 99 102 102 86 140 153 152 151 151 
143 142 142 100 81 115 106 85 66 56 97 84 80 74 84 71 62 56 66 80 66 85 82 89 119 111 118 105 112 117 112 110 113 100 107 92 76 79 98 102 85 64 152 153 150 151 
136 134 108 81 90 116 109 78 63 63 71 64 92 95 71 99 112 102 113 116 124 111 76 105 122 114 103 132 130 83 83 97 94 94 87 86 72 95 88 107 93 69 135 153 150 151 
137 115 94 103 101 100 92 82 81 70 69 84 80 103 65 87 75 84 91 85 72 79 98 90 83 87 80 83 126 111 92 85 78 106 82 55 102 91 99 109 100 91 83 152 150 150 
113 70 84 109 94 81 95 93 77 86 74 73 88 75 68 72 71 63 64 75 73 52 88 90 71 82 79 67 84 81 103 107 99 111 84 83 86 92 89 101 102 89 71 111 152 151 
89 69 82 105 98 99 84 81 72 71 71 86 75 92 73 67 79 74 63 63 100 94 98 58 45 94 74 56 50 85 104 82 87 85 85 96 93 94 96 99 102 113 80 61 152 152 
75 74 97 124 87 111 77 78 79 76 77 90 101 91 71 70 87 86 85 90 85 98 100 72 55 92 72 47 46 65 78 76 82 92 121 112 94 82 94 109 93 77 59 61 122 151 
67 65 83 109 102 89 98 83 79 80 78 91 104 98 83 90 89 77 78 90 97 105 79 68 63 75 64 55 62 56 64 66 76 103 114 119 92 89 84 89 93 85 74 83 110 150 
66 83 90 77 103 95 89 126 116 84 88 91 87 86 89 87 86 99 81 78 71 79 95 82 74 86 76 56 69 73 74 68 97 90 104 88 98 91 102 68 86 91 83 90 94 154 
60 72 70 98 95 74 99 158 142 102 105 104 99 97 74 77 89 105 102 87 93 95 119 97 85 104 82 81 81 91 63 64 83 93 97 102 136 114 73 74 87 90 81 102 89 120 
66 68 79 94 111 78 141 163 152 154 156 153 140 150 132 143 143 145 124 106 121 112 125 129 121 135 126 115 114 121 77 72 81 87 139 135 147 158 80 77 89 90 111 96 105 65 
69 69 86 88 78 111 160 161 166 168 167 159 160 165 161 162 183 168 169 149 139 145 159 138 154 150 169 154 147 117 103 87 84 124 148 163 159 169 127 93 106 102 95 72 61 71 
63 73 84 95 83 145 159 168 169 174 179 173 178 182 186 200 203 197 178 171 183 196 177 197 144 173 160 186 173 162 146 146 157 163 186 181 171 177 157 100 104 90 88 74 58 62 
64 63 80 77 104 151 164 163 170 180 191 189 197 199 206 206 207 212 212 206 202 207 203 199 194 194 203 203 202 204 195 194 181 185 189 188 172 174 162 109 116 117 102 90 69 64 
67 51 95 89 96 155 164 162 170 184 192 197 201 206 210 210 212 218 217 208 208 209 210 209 209 207 212 213 211 212 204 201 197 187 189 187 173 171 165 128 96 106 96 101 74 80 
63 45 117 86 103 149 164 161 165 183 195 198 205 206 214 214 216 216 215 215 208 211 210 211 212 209 212 209 212 207 206 204 203 199 193 189 164 169 173 132 103 108 86 84 67 65 
50 42 101 75 109 156 162 161 170 180 195 200 201 206 213 215 217 217 217 214 215 212 211 211 212 212 213 214 213 212 210 205 206 202 188 190 172 165 169 137 101 100 76 79 51 79 
59 60 90 67 124 150 157 156 171 182 194 201 204 206 210 215 217 219 220 218 217 216 212 214 214 217 217 215 215 214 212 207 208 204 194 187 172 169 161 151 84 95 87 72 70 72 
76 65 71 59 136 151 155 161 167 181 191 192 199 204 207 214 219 218 217 217 218 217 218 216 215 215 217 217 217 215 211 212 211 205 201 185 176 168 164 166 49 85 82 71 59 78 
63 59 61 55 141 153 157 164 171 180 172 169 185 192 197 200 206 214 212 215 218 218 217 215 214 215 213 216 216 210 212 210 208 197 195 189 175 170 164 160 76 73 63 70 47 117 
109 87 50 67 123 151 154 160 149 133 120 126 127 124 141 145 168 197 199 208 212 212 208 210 208 210 205 201 186 185 185 180 175 166 188 187 174 168 164 157 100 62 64 67 74 146 
118 137 82 75 62 152 153 152 147 144 147 154 152 149 135 127 96 135 154 196 203 206 206 199 187 182 132 146 107 132 147 144 183 190 157 131 171 161 162 162 81 47 59 50 137 146 
136 71 101 77 57 150 152 143 136 142 152 171 167 159 146 135 188 226 174 164 202 206 203 198 187 134 145 119 118 103 119 108 211 149 147 162 145 151 163 166 65 76 78 139 145 147 
148 86 97 59 136 141 154 153 152 141 116 124 127 149 158 130 126 146 160 155 194 213 208 208 130 163 152 133 137 128 153 152 155 173 154 158 156 158 175 143 72 90 143 94 147 146 
164 131 149 45 147 116 171 151 142 134 98 112 114 84 84 161 133 147 132 141 171 188 155 138 169 162 150 136 124 87 139 120 129 159 113 142 167 158 179 99 67 72 129 103 161 146 
157 155 140 23 153 166 149 165 170 166 144 149 183 170 170 185 165 158 152 158 160 210 211 191 163 165 175 155 189 143 123 144 149 138 142 138 152 58 172 156 90 85 164 140 172 147 
153 151 134 33 152 170 166 157 192 186 167 174 170 181 186 182 186 190 189 166 190 214 212 213 191 191 183 172 172 164 169 171 179 169 172 147 110 147 173 164 78 114 171 153 171 144 
142 142 140 114 150 164 168 156 186 192 188 188 175 175 185 192 198 186 214 140 187 218 211 212 139 215 197 193 184 169 175 176 172 183 185 159 149 183 174 161 119 133 175 145 140 143 
114 146 167 131 141 159 142 166 172 187 192 193 199 197 200 198 202 185 158 168 183 223 205 202 178 121 197 199 198 201 198 193 190 194 190 185 184 178 181 157 146 149 179 160 135 145 
99 161 145 173 133 157 172 190 165 191 201 202 200 199 206 198 194 160 170 174 188 219 208 202 190 180 149 206 199 201 200 199 198 194 195 184 181 139 176 151 154 153 187 175 138 143 
109 160 162 172 127 155 163 172 170 194 202 203 202 202 201 195 166 155 173 179 204 204 209 207 188 180 158 176 202 202 201 199 201 200 194 174 182 187 167 149 153 176 160 177 142 144 
113 106 165 172 132 149 160 164 170 179 170 168 174 184 183 173 179 168 158 188 198 209 208 204 187 171 172 155 161 215 205 204 203 191 178 166 186 178 162 146 177 168 174 143 142 140 
111 110 158 168 136 145 155 165 173 173 177 183 187 188 192 186 125 190 165 189 201 220 217 204 186 175 187 194 172 143 163 172 178 174 184 195 183 176 157 137 188 184 172 137 140 139 
111 113 107 151 142 141 155 168 174 179 186 191 198 196 187 188 153 147 144 166 184 195 199 190 181 165 168 195 196 193 195 199 193 192 185 189 177 169 151 131 181 183 147 137 138 137 
113 111 116 115 111 139 157 158 173 181 186 196 195 192 202 196 169 120 78 102 129 157 160 155 135 111 178 193 202 198 199 199 193 189 185 181 173 164 150 133 167 164 135 133 135 136 
114 112 114 112 101 133 152 154 163 180 183 188 194 204 199 196 193 180 136 101 87 110 127 150 166 182 184 186 197 200 198 200 198 187 180 175 170 158 151 134 133 136 136 134 134 132 
111 109 114 114 101 134 145 155 165 173 182 191 190 199 189 193 192 194 190 175 161 164 167 182 180 180 187 190 190 205 198 198 196 191 180 172 168 152 148 127 130 132 132 130 128 128 
110 109 112 113 112 129 137 155 169 172 177 186 182 183 182 180 189 191 196 195 201 186 177 187 187 184 183 185 187 190 195 190 191 185 178 166 159 157 151 130 132 130 132 132 130 130 
109 114 109 112 112 115 134 145 165 169 175 175 179 172 163 148 172 161 161 165 170 200 179 169 174 183 185 183 169 177 191 187 180 182 173 165 158 156 135 129 132 127 129 128 124 128 
113 111 110 109 108 103 132 140 152 171 179 171 181 175 150 115 105 108 105 126 130 136 131 138 133 125 123 128 134 139 185 188 176 180 171 162 158 154 124 130 129 131 129 130 125 129 
109 107 111 112 113 112 124 137 141 156 178 179 181 188 188 186 165 169 168 184 194 187 187 180 177 171 167 159 179 186 190 182 178 173 165 163 156 148 130 128 128 128 126 122 124 126 
111 108 107 117 115 114 124 125 136 148 160 173 177 186 193 190 182 166 154 157 161 170 170 167 169 168 178 183 188 197 191 177 177 168 166 158 150 127 123 127 122 127 124 123 123 124 
110 110 108 108 109 106 139 150 124 135 152 161 171 179 189 184 180 177 170 159 152 144 136 151 163 176 184 183 187 190 184 171 167 164 159 151 135 127 123 122 123 124 125 124 123 118 
111 106 109 111 108 75 220 158 130 130 140 150 162 166 177 177 177 178 176 175 175 174 172 175 178 181 182 182 182 181 180 168 161 156 151 134 148 125 124 124 122 123 123 118 119 119 
106 109 108 105 108 169 207 157 146 126 128 136 150 159 168 176 183 182 194 199 201 202 202 200 192 188 189 183 183 177 170 162 159 148 140 154 161 123 121 120 120 120 118 118 118 114 
105 109 108 111 64 215 178 154 151 128 129 132 134 152 157 165 178 193 201 203 202 203 206 209 206 205 189 191 173 170 159 157 146 138 147 164 204 88 123 121 119 119 119 121 116 115 
108 102 108 126 161 215 180 155 156 139 113 134 129 133 148 157 164 179 193 191 199 202 203 202 202 193 187 174 169 163 152 141 134 139 159 164 194 151 121 121 118 118 116 112 114 114 
140 137 153 209 206 215 197 159 158 147 132 116 132 134 126 144 152 154 169 178 178 183 180 186 182 181 169 165 155 152 136 126 134 160 165 169 188 205 123 124 114 112 111 114 114 113 
158 216 211 215 212 217 229 161 159 157 142 120 120 131 133 128 132 138 147 159 165 161 157 162 161 164 152 151 145 129 129 138 156 170 170 175 207 209 200 158 145 131 115 115 113 111 
