P2
46 56
255
74 76 73 77 67 48 43 39 62 54 38 36 42 31 32 26 31 38 46 41 39 34 42 42 49 62 72 80 80 69 73 70 54 46 39 28 30 21 26 58 66 69 67 67 65 65 
81 77 75 77 63 49 36 51 68 51 43 56 56 46 40 36 35 47 44 52 40 45 42 37 39 51 56 60 75 80 70 68 69 54 36 31 27 27 23 20 65 71 66 66 67 68 
76 73 72 73 45 38 47 75 68 61 77 84 76 52 42 34 40 34 46 58 49 46 33 31 33 40 45 50 54 53 55 58 77 66 56 34 33 26 19 26 44 66 66 64 66 66 
72 74 78 56 33 36 76 63 58 90 99 105 95 49 41 46 45 45 39 61 62 53 57 36 33 42 44 46 39 51 50 51 56 57 48 60 37 33 25 18 27 64 69 68 69 66 
76 74 74 42 41 62 57 54 84 100 123 123 89 70 50 40 51 64 61 47 61 66 51 50 46 38 45 54 53 55 45 56 39 52 46 45 46 32 29 22 21 36 65 64 66 65 
74 75 58 36 49 47 53 78 98 119 133 132 94 85 59 57 42 45 61 62 60 64 61 66 58 53 47 47 54 46 55 53 51 48 45 41 38 36 25 31 22 26 46 69 69 67 
77 73 39 38 44 43 66 96 107 130 139 128 108 104 60 61 51 43 58 56 59 46 50 41 70 73 58 52 41 55 46 42 47 42 41 44 39 34 35 19 24 22 17 65 68 67 
75 59 30 33 39 46 85 99 125 137 138 124 122 116 85 62 59 52 40 33 45 51 44 47 41 55 65 70 46 40 43 40 41 42 35 42 42 30 34 25 21 24 29 33 66 66 
77 44 40 35 40 66 93 112 133 140 135 124 130 117 108 78 70 54 52 46 32 37 40 38 53 56 52 49 47 36 36 29 29 33 50 38 38 28 24 30 19 18 21 22 55 67 
74 46 32 36 49 73 108 124 128 133 134 122 124 128 120 109 83 63 57 52 42 36 28 27 31 39 44 51 36 34 37 38 29 30 32 40 46 37 37 32 24 25 19 25 52 69 
76 38 31 34 61 92 117 126 128 132 135 130 121 126 125 126 110 84 63 57 50 47 45 38 33 25 28 28 37 32 32 31 32 29 33 35 26 51 22 28 25 20 19 16 39 71 
77 35 32 40 76 105 120 121 129 133 132 133 129 124 132 129 126 110 90 68 57 50 37 39 35 31 35 34 31 33 30 31 32 33 31 32 32 20 33 24 21 21 19 20 21 67 
73 35 29 53 93 113 114 120 125 131 132 135 129 125 132 133 130 125 118 100 85 72 54 50 45 43 34 38 34 28 30 33 29 32 33 35 20 29 26 24 18 17 20 17 17 57 
76 41 31 70 106 110 114 124 131 131 136 137 139 132 127 138 134 138 132 124 121 107 102 81 75 56 47 37 32 27 28 29 26 29 30 30 35 22 24 26 21 19 18 19 23 36 
74 45 37 81 108 110 118 126 129 129 134 132 132 130 131 130 133 136 139 132 128 124 121 109 93 100 79 60 41 35 31 23 25 25 30 29 30 26 21 24 18 23 16 18 21 25 
66 45 39 92 103 112 115 121 120 126 128 121 126 125 121 126 126 124 131 128 129 125 125 127 109 99 107 101 98 69 43 34 36 36 34 30 29 26 18 20 16 19 18 15 20 24 
65 30 47 95 97 105 105 112 109 115 121 115 126 118 110 110 116 122 125 122 120 125 120 121 111 106 93 109 112 102 82 63 56 66 73 56 24 30 25 21 24 18 18 15 18 20 
64 37 54 89 80 85 88 84 75 76 94 105 118 120 108 109 111 111 111 99 90 90 91 89 96 92 98 82 94 102 97 84 86 75 90 79 28 21 35 30 23 19 19 19 21 21 
60 41 49 76 68 76 68 56 52 51 60 75 111 123 115 123 111 93 90 79 70 65 68 73 77 80 90 91 86 92 92 89 92 86 89 89 46 28 30 32 28 20 19 16 20 19 
53 43 45 64 60 77 95 105 100 83 72 57 88 136 140 140 116 86 86 93 91 76 73 89 99 99 100 91 89 91 91 95 87 91 92 93 62 28 35 31 29 30 21 23 19 20 
50 51 49 60 68 88 84 87 74 67 65 59 61 139 145 142 117 99 100 87 62 62 44 48 56 69 76 96 100 91 94 92 95 97 92 89 76 24 34 31 31 22 32 20 22 26 
48 42 43 70 79 55 62 55 30 45 49 75 61 129 139 136 111 103 89 85 70 87 81 47 35 48 56 69 93 96 102 100 99 96 92 89 66 25 25 31 32 33 22 19 22 20 
61 34 42 87 78 54 58 86 59 70 77 75 90 130 132 123 113 108 98 102 86 83 95 82 94 90 94 96 89 89 96 102 108 102 94 74 49 22 26 30 27 34 32 27 21 20 
52 34 49 79 66 87 98 98 91 93 89 102 98 130 124 106 111 115 113 114 102 94 105 114 121 111 113 108 111 107 107 111 108 93 93 60 34 26 27 32 24 27 28 31 34 24 
38 38 52 97 97 105 98 101 95 99 104 107 110 126 121 101 104 115 122 126 115 122 119 113 114 119 126 121 114 116 108 111 107 89 87 59 36 31 28 30 26 30 29 29 26 26 
50 38 49 99 113 121 123 125 123 120 120 98 122 135 117 101 102 109 120 134 139 135 128 133 140 139 136 135 133 121 115 109 109 88 87 70 39 34 24 29 27 30 29 28 24 25 
65 39 52 99 123 116 129 130 130 130 122 92 134 136 112 103 106 105 119 134 142 147 146 141 141 142 143 133 135 125 114 105 101 88 83 88 44 26 24 27 31 33 35 27 31 30 
67 53 50 94 123 128 127 128 131 127 117 97 141 134 115 111 105 102 107 125 139 147 144 145 150 148 146 135 137 122 116 106 106 85 81 93 76 36 29 31 34 32 27 36 27 38 
66 59 51 101 118 131 135 139 133 124 111 109 145 129 115 103 102 102 102 123 136 142 152 150 151 151 146 138 130 119 110 102 98 84 80 95 78 53 39 39 40 46 36 38 32 33 
62 56 46 90 113 134 140 138 133 123 103 121 144 128 106 94 101 99 101 115 128 136 141 144 144 146 134 135 128 112 104 97 95 87 84 92 79 63 53 48 42 45 52 36 40 33 
61 55 48 91 114 129 136 132 133 122 100 124 145 116 103 103 113 111 94 111 121 130 134 135 142 142 132 133 123 112 99 96 96 82 85 92 77 62 50 73 75 89 71 23 36 39 
60 57 46 81 109 119 125 123 127 120 98 126 147 123 106 106 109 107 95 104 118 120 129 129 134 132 130 126 117 111 95 96 98 84 83 84 72 57 95 99 76 79 71 13 21 33 
58 57 48 77 102 111 116 117 120 116 90 118 124 118 96 84 75 91 85 94 110 108 114 125 129 124 126 119 107 105 91 88 100 83 86 86 69 58 103 88 79 95 24 16 24 24 
58 55 52 72 88 97 108 110 115 110 86 97 107 106 80 48 59 59 77 106 121 119 102 112 126 122 118 110 109 101 93 95 100 84 87 84 75 58 102 80 74 40 12 21 30 37 
59 53 52 74 79 82 99 105 105 105 90 80 87 93 62 77 82 96 97 103 121 122 121 101 102 117 117 111 99 93 99 92 94 85 89 79 72 59 96 76 30 17 20 25 35 43 
59 54 54 61 83 84 96 94 97 111 98 62 50 59 58 80 87 95 98 101 112 116 126 124 114 98 117 109 101 95 97 91 96 85 88 74 73 38 56 16 16 18 19 29 42 39 
55 57 51 55 93 85 94 98 111 107 94 70 45 46 60 78 93 90 92 102 109 116 117 119 114 111 99 113 103 95 107 95 94 81 78 70 67 58 56 13 17 17 29 21 37 35 
59 53 49 41 88 85 96 102 108 108 92 91 82 80 86 79 99 96 95 100 101 112 108 114 111 104 102 103 103 97 106 98 93 81 84 71 66 71 56 15 16 15 31 24 31 33 
56 54 56 42 80 87 96 95 93 97 99 90 94 100 92 93 104 96 99 101 101 106 102 97 104 97 104 97 103 92 101 95 88 80 82 73 62 71 40 14 17 23 28 29 31 35 
59 55 54 50 72 99 99 91 84 69 78 65 67 74 77 82 81 72 68 66 64 62 64 88 97 97 107 100 98 89 97 90 85 81 79 72 60 78 32 16 16 17 19 20 25 36 
59 56 57 53 53 94 94 104 85 74 50 22 53 74 80 75 103 90 95 79 72 51 82 86 98 99 108 100 94 91 93 87 88 79 79 66 56 77 22 15 15 15 21 28 30 39 
59 58 54 54 44 87 86 108 93 89 95 63 52 89 110 83 116 92 90 57 80 91 100 98 84 99 98 93 90 85 90 88 80 73 75 62 65 77 15 16 23 26 26 25 32 32 
61 57 54 52 49 74 83 90 98 102 94 107 96 75 63 54 63 67 93 98 93 96 103 95 93 102 97 95 87 84 88 80 76 69 67 57 76 77 11 19 32 27 28 28 26 28 
67 63 57 55 50 46 79 73 94 97 91 106 101 87 99 111 102 108 123 95 94 93 101 99 94 96 92 84 88 84 84 81 74 66 58 69 81 76 14 22 34 27 22 29 31 33 
66 66 56 53 53 49 53 73 86 94 90 90 98 90 101 110 100 106 95 94 90 93 97 100 91 83 84 74 83 82 78 78 68 60 60 76 82 82 19 26 31 26 24 30 36 39 
64 64 57 58 54 51 46 70 78 106 82 80 89 87 90 93 83 85 86 83 85 88 93 95 100 88 88 75 83 80 74 69 48 64 73 84 83 86 15 23 25 25 23 24 35 39 
64 63 58 56 54 51 51 42 89 102 91 75 78 77 84 78 78 73 72 83 89 89 90 91 96 88 74 78 74 74 60 53 56 73 89 83 87 87 14 21 21 23 30 34 37 41 
66 63 58 55 52 52 50 50 38 106 98 90 72 66 58 56 61 64 75 87 86 93 94 100 94 91 71 61 76 61 49 61 63 79 84 86 85 84 16 24 22 28 50 34 39 37 
64 65 60 59 53 52 50 49 49 99 97 98 91 79 83 76 93 98 99 96 90 98 101 94 99 85 75 58 57 54 56 78 84 87 89 90 88 81 26 30 28 31 49 50 35 36 
67 64 61 53 57 56 87 111 129 132 102 114 108 93 93 92 100 103 106 103 97 103 105 93 88 86 69 53 54 54 71 81 88 89 91 92 87 75 24 21 35 40 50 111 27 39 
64 64 64 81 129 153 154 147 142 133 112 110 111 104 92 98 94 95 97 98 98 100 102 94 88 71 53 53 56 67 81 86 93 93 93 92 88 82 52 32 22 40 78 123 67 36 
101 97 160 178 178 162 153 155 140 143 110 96 108 95 86 90 74 83 93 89 92 104 102 94 73 51 51 57 67 83 90 89 92 92 93 93 87 80 66 69 44 13 112 130 116 29 
167 181 183 175 181 166 167 159 155 150 116 71 85 104 84 91 77 83 90 90 91 91 91 77 44 52 60 69 82 92 93 92 93 91 94 93 89 76 80 82 75 56 114 132 108 40 
186 181 186 190 169 179 178 162 159 149 117 72 61 72 89 81 66 74 72 74 84 68 62 50 46 58 76 85 92 93 91 93 92 97 94 94 87 78 89 86 77 73 116 136 109 107 
182 185 191 179 178 181 173 178 167 155 129 73 70 59 62 69 63 64 61 51 53 55 55 58 61 78 86 85 96 95 95 101 96 96 97 95 87 77 96 98 79 85 123 139 107 114 
185 189 188 172 180 187 183 182 176 168 142 82 75 66 58 57 60 56 54 55 57 55 54 66 71 88 83 89 95 102 98 99 101 99 100 94 91 88 102 100 83 108 129 139 103 125 
