P2
46 56
255
88 89 88 93 92 95 92 91 94 100 95 90 86 87 79 75 49 37 28 30 36 48 42 43 48 80 97 75 56 63 101 62 84 86 91 93 89 87 91 87 89 84 87 87 87 87 
85 88 88 88 91 90 90 89 106 87 76 61 58 70 65 46 42 37 29 39 29 36 44 50 49 57 51 65 73 74 69 70 62 73 88 89 88 89 91 87 86 90 90 85 89 90 
86 87 87 87 90 89 87 80 78 75 63 53 51 40 60 37 40 25 27 33 38 45 52 58 44 46 51 65 69 51 52 71 65 52 59 81 86 87 92 88 88 88 85 88 90 87 
85 88 87 91 95 83 85 73 74 52 50 44 35 50 32 42 31 34 47 41 36 46 52 63 59 80 59 61 65 82 72 45 55 71 49 40 71 89 88 87 84 85 91 86 90 88 
85 87 84 88 70 91 88 74 92 77 45 23 64 36 34 46 47 47 51 37 64 41 27 47 51 66 65 75 52 62 57 92 71 57 65 57 35 64 86 88 89 85 87 85 86 89 
90 87 89 82 85 92 75 77 83 56 40 95 38 53 62 36 55 57 56 35 43 67 59 31 26 62 61 64 63 53 48 51 73 65 75 56 83 43 75 88 85 88 87 89 84 85 
87 87 76 68 62 68 60 78 78 49 66 49 58 41 58 77 73 69 53 54 58 60 93 72 46 45 67 70 55 64 60 44 42 53 49 66 81 84 57 80 88 90 86 85 83 87 
80 82 49 60 45 50 63 79 67 68 77 58 79 61 72 61 74 80 79 65 73 84 90 102 73 70 89 72 73 70 70 67 48 36 38 45 45 59 75 55 84 83 83 83 87 89 
82 63 56 32 52 61 69 58 105 71 62 66 75 58 73 66 101 88 80 91 86 111 116 140 111 68 88 99 86 96 60 98 71 72 43 44 38 37 53 62 50 85 88 93 89 88 
68 35 35 33 55 47 78 93 62 57 51 82 44 79 74 108 99 102 92 102 115 130 126 147 148 115 85 96 86 99 90 64 71 62 67 60 41 36 32 47 33 69 85 89 87 86 
43 34 28 41 70 54 68 52 36 48 65 66 61 103 103 123 112 107 119 130 135 128 143 155 151 142 98 78 91 86 87 77 88 49 65 65 47 58 44 43 38 46 81 89 88 85 
36 38 42 59 58 50 46 38 42 55 69 83 127 92 117 125 94 111 136 136 141 136 157 164 153 153 123 101 75 73 56 81 72 71 74 60 77 54 44 41 53 38 49 94 87 86 
51 34 35 49 40 26 41 47 48 77 77 137 116 99 112 96 107 127 135 163 143 144 164 167 160 152 136 109 80 68 68 51 56 69 52 62 67 61 64 52 52 46 46 92 91 87 
34 27 43 30 33 36 35 47 86 79 125 115 88 111 96 95 113 128 144 154 150 168 171 164 166 151 139 127 94 74 58 65 41 40 54 60 60 43 48 67 52 39 34 92 88 88 
29 33 40 23 32 32 39 96 114 115 113 92 114 90 91 111 112 129 143 142 165 175 172 170 161 154 142 136 113 85 67 51 50 49 32 34 40 47 42 40 39 57 37 62 87 90 
30 26 22 26 38 58 85 118 123 123 109 99 88 80 92 107 111 138 145 142 160 161 161 161 158 157 146 141 121 103 82 68 47 51 42 38 31 24 26 36 47 35 32 42 88 92 
26 28 20 43 58 81 99 115 119 125 66 91 68 81 106 106 130 148 143 158 173 171 165 166 163 162 148 129 128 120 105 81 60 46 40 45 37 29 24 21 29 50 31 32 82 90 
20 27 34 36 61 81 95 89 134 64 72 56 72 106 108 124 144 141 156 159 166 173 172 171 162 157 155 141 135 130 120 109 92 60 41 35 48 30 28 27 26 28 23 33 62 91 
27 29 34 43 93 67 91 118 85 77 71 81 93 112 130 134 134 143 151 166 174 168 165 162 162 161 155 145 136 138 133 134 113 98 78 59 37 33 36 29 23 28 28 35 32 90 
33 28 45 38 112 83 98 107 97 88 89 93 110 120 128 133 144 158 161 166 165 167 169 162 163 160 153 154 145 130 144 137 133 126 107 93 84 59 53 37 28 23 20 31 22 89 
34 23 36 51 89 76 98 94 116 103 91 99 110 122 126 148 159 164 170 166 161 159 155 152 147 145 140 142 130 131 122 136 127 124 113 107 106 91 75 72 49 36 35 30 18 92 
30 34 24 46 91 66 58 87 111 132 118 126 134 144 147 146 158 155 162 146 138 133 131 130 132 129 121 128 115 107 110 110 106 113 109 107 107 105 89 71 85 56 25 31 21 83 
30 30 35 41 78 40 51 91 131 136 139 135 132 148 148 153 144 125 128 111 105 96 106 109 108 105 114 121 103 93 100 94 102 101 93 87 97 90 94 83 75 86 13 27 37 67 
34 19 39 51 76 27 49 101 130 133 136 130 130 139 129 128 127 104 112 84 72 54 63 70 74 88 97 115 102 96 95 94 91 75 66 61 63 73 72 72 74 75 26 24 36 32 
26 26 45 51 75 17 37 112 132 131 128 120 124 128 116 113 105 86 81 79 75 68 67 74 75 78 88 122 123 129 112 77 64 60 50 51 55 64 79 84 76 85 49 24 37 31 
28 32 42 61 76 15 40 110 129 127 131 127 116 113 110 91 91 89 68 50 57 56 51 62 79 82 82 136 166 168 128 67 45 33 34 32 50 52 53 56 88 85 42 30 39 40 
29 36 30 49 65 12 46 109 132 125 139 121 119 109 99 85 60 55 40 34 39 106 62 68 71 75 87 142 171 160 144 68 57 58 48 39 80 70 63 67 77 90 47 38 32 52 
40 46 39 44 62 23 38 114 125 123 121 125 120 116 77 56 66 66 65 61 83 91 79 77 84 85 115 142 157 167 151 89 97 60 64 76 91 98 97 97 85 97 27 34 31 62 
42 40 42 32 49 18 40 109 121 128 134 128 122 104 110 109 121 118 123 113 108 94 84 90 95 109 143 139 138 169 150 112 87 87 80 81 84 89 103 104 99 86 32 36 37 82 
43 33 41 42 45 18 50 89 122 137 135 139 141 151 136 142 142 118 97 102 100 104 105 107 127 147 147 138 128 166 150 133 87 110 104 99 111 119 111 111 109 87 45 31 40 83 
41 51 43 45 36 25 57 80 117 129 124 139 138 141 162 150 149 149 149 137 129 120 127 149 149 142 136 126 120 143 166 141 76 112 124 121 116 114 122 111 112 94 58 43 72 77 
32 44 45 46 38 19 41 80 121 118 134 129 133 151 157 159 156 154 153 146 133 142 153 154 146 139 126 128 127 140 172 150 85 97 128 138 125 129 130 122 108 90 64 35 74 82 
26 41 41 38 41 40 66 85 120 117 125 128 133 145 145 162 158 155 150 155 159 161 152 150 141 126 127 132 135 142 177 151 115 83 117 132 139 138 135 128 113 87 68 55 80 80 
40 53 35 23 21 50 66 103 122 115 119 129 129 118 134 150 164 167 166 164 161 157 140 134 135 127 126 131 128 130 171 148 130 81 99 124 134 134 133 119 110 86 78 80 82 83 
57 40 53 60 57 41 78 120 119 113 123 126 116 129 142 145 151 156 162 159 153 142 137 136 125 125 131 136 124 123 159 152 138 74 86 108 126 116 118 116 105 87 75 83 83 78 
67 44 31 60 93 54 78 111 116 110 123 115 122 131 139 138 143 142 141 136 136 132 123 112 109 117 142 139 131 131 145 144 142 86 90 81 105 107 111 104 98 80 70 81 77 84 
64 23 21 41 93 73 67 108 114 118 113 110 119 123 131 128 126 123 121 127 125 121 110 103 122 116 121 118 120 121 133 128 113 90 85 81 81 101 104 99 93 77 74 82 82 85 
46 38 31 11 101 96 63 104 107 123 111 111 118 108 116 108 105 106 120 116 121 116 98 125 141 139 81 54 39 105 110 102 97 82 89 85 87 73 94 98 88 82 67 77 79 79 
63 45 47 24 12 81 68 112 102 120 108 116 112 106 98 93 94 107 117 112 111 100 129 142 143 136 101 62 66 68 98 85 85 76 83 80 101 99 77 102 85 96 44 78 81 83 
77 38 36 34 21 19 40 107 119 111 109 123 117 118 84 113 111 110 107 107 115 139 142 141 135 133 120 93 68 61 59 64 71 68 78 78 90 95 91 94 88 93 73 75 82 82 
75 61 38 45 32 35 18 106 110 107 102 119 120 116 100 118 114 105 132 121 145 134 130 127 130 122 118 116 101 81 76 68 74 77 77 87 88 99 90 87 82 86 57 80 77 78 
72 78 40 44 29 44 15 77 97 106 110 109 119 112 97 120 112 132 112 130 117 110 108 130 127 118 107 119 120 109 96 88 92 81 83 91 89 87 98 91 87 76 62 77 76 77 
67 70 75 32 43 25 24 56 109 97 112 104 107 116 106 125 123 113 105 104 92 77 72 98 99 98 96 84 87 88 87 79 67 74 38 67 73 89 96 85 85 63 79 77 74 75 
72 71 76 65 45 43 37 35 100 100 95 103 104 109 96 115 114 116 107 81 72 63 50 43 59 87 72 69 96 95 86 99 69 69 79 89 83 87 82 73 68 73 75 77 73 73 
73 73 73 73 51 29 24 16 97 109 102 94 103 103 103 114 113 109 109 84 86 81 112 116 69 43 35 47 87 101 46 71 54 85 78 88 87 85 78 73 70 76 73 75 73 67 
71 73 71 74 78 28 29 13 99 111 96 103 105 98 91 110 100 101 88 91 97 107 116 122 138 151 109 93 63 59 83 96 100 68 82 89 87 83 71 54 70 73 65 69 70 67 
70 68 72 73 75 62 25 11 97 117 105 99 96 106 94 88 97 94 95 98 99 109 112 109 113 119 122 116 103 126 113 94 78 82 89 87 94 87 67 66 64 66 68 66 67 69 
69 69 72 73 72 129 44 14 122 120 121 98 90 104 108 114 99 85 93 91 110 101 107 100 104 100 99 103 100 96 94 75 84 84 91 97 83 72 66 65 65 68 64 64 68 68 
73 69 69 73 158 170 112 2 127 113 119 94 100 91 102 94 106 100 87 90 106 95 100 91 89 93 98 83 85 85 80 81 80 84 86 95 73 114 59 65 64 64 65 61 67 69 
67 70 68 179 182 196 188 13 123 115 117 108 100 91 90 91 96 103 86 103 99 85 101 87 81 77 70 65 51 55 63 74 82 86 95 107 71 79 121 55 63 59 60 54 56 59 
72 98 191 186 191 202 210 64 118 119 114 117 98 99 87 77 103 97 104 101 100 102 90 90 81 79 75 79 79 90 87 91 99 99 98 81 63 101 99 96 59 56 60 56 57 59 
200 192 195 197 185 201 201 123 127 123 123 117 110 94 91 87 86 72 90 98 102 108 111 104 118 115 106 97 88 86 81 84 92 98 103 28 57 79 99 129 44 57 56 56 55 55 
200 197 195 197 189 197 207 170 134 122 125 122 107 99 90 91 89 95 87 83 98 112 112 132 107 106 103 96 83 79 76 86 90 102 91 17 64 73 112 107 114 89 59 55 51 52 
195 200 200 199 194 192 206 184 116 137 125 128 125 106 99 90 94 86 89 83 69 105 111 105 109 101 106 92 71 75 89 88 97 91 91 75 63 77 93 101 131 115 114 109 109 70 
198 200 202 200 197 188 203 184 185 144 135 122 131 121 106 101 90 92 91 90 82 78 72 96 99 94 99 91 71 78 87 93 95 93 85 94 67 95 89 108 131 118 118 116 118 117 
199 202 204 204 202 187 199 203 198 100 142 132 129 126 117 103 92 91 89 88 90 80 79 78 75 67 61 82 83 85 90 94 92 85 83 95 77 119 80 118 131 124 122 124 120 119 
