P2
46 56
255
86 87 91 88 87 88 90 92 90 91 90 92 90 81 88 75 45 37 44 49 71 57 57 49 44 75 68 71 77 82 85 84 84 86 88 85 86 87 86 88 84 84 86 85 85 86 
87 89 91 90 93 91 89 89 104 91 91 85 83 79 65 45 39 31 34 37 36 37 68 71 48 62 86 62 66 72 75 83 82 86 87 86 86 82 86 88 83 85 82 85 81 85 
87 88 87 89 89 88 90 93 80 74 62 59 56 52 40 44 34 36 32 40 49 41 42 57 81 84 52 70 45 51 64 65 79 83 85 86 85 87 87 86 85 81 82 84 86 81 
90 88 91 89 92 90 90 74 76 74 61 53 45 38 34 27 35 31 49 45 30 50 51 54 69 63 72 76 63 42 58 55 54 75 87 90 85 87 87 82 86 84 85 88 86 83 
86 87 87 90 92 84 90 87 87 52 54 49 34 52 43 24 39 49 42 59 63 48 58 62 89 101 69 63 70 73 57 51 40 41 67 83 86 83 85 82 83 86 83 86 85 82 
87 87 88 85 82 83 92 86 79 57 50 39 75 57 53 28 35 43 47 58 45 74 71 61 74 79 106 95 76 56 68 85 57 33 38 74 87 89 86 88 83 81 86 83 85 83 
87 89 92 72 61 62 67 72 94 47 66 63 69 48 53 52 44 58 39 48 54 45 67 57 58 48 77 72 75 86 75 69 82 72 51 50 68 89 88 86 87 86 84 86 83 83 
86 84 91 58 49 47 63 82 75 61 69 53 82 69 59 55 76 89 65 50 59 39 58 64 71 41 36 50 57 53 71 97 75 81 77 36 35 39 86 84 83 87 84 85 86 83 
85 89 80 40 38 58 82 84 65 59 59 84 78 77 81 95 89 110 85 73 66 71 65 64 78 89 51 41 34 46 47 53 71 87 84 65 36 38 56 86 84 88 85 83 85 86 
85 84 56 30 48 50 65 67 49 54 80 83 97 98 102 122 116 145 139 87 70 82 89 79 80 89 88 65 38 43 40 46 62 64 60 58 67 42 27 92 88 85 85 84 84 82 
88 71 32 47 46 51 38 45 55 69 85 101 106 119 125 128 146 170 170 107 91 80 84 87 79 68 81 74 63 58 38 45 46 37 52 51 57 52 42 77 83 87 81 85 87 83 
89 38 40 37 39 34 62 51 69 88 101 97 100 121 135 131 174 173 167 120 92 86 74 82 95 77 56 65 73 60 60 40 44 50 67 46 53 48 52 28 84 87 86 85 85 85 
62 38 56 32 31 38 52 77 81 100 92 94 115 135 136 158 184 184 171 138 107 81 79 60 71 70 68 72 55 80 71 61 45 49 60 54 54 56 51 48 67 84 85 87 85 85 
54 32 29 34 25 52 63 105 96 81 83 106 116 133 147 175 177 173 176 141 113 94 67 60 53 63 63 63 61 60 67 78 72 58 37 49 38 37 45 35 15 90 87 83 84 84 
27 39 27 24 47 75 94 84 71 78 94 103 131 128 173 175 180 178 177 152 125 107 78 67 53 50 36 45 57 59 54 41 54 65 69 32 38 49 42 29 37 44 84 82 81 85 
28 23 25 38 85 88 62 83 59 86 91 116 128 149 166 170 164 169 172 141 131 118 98 81 62 55 49 45 38 32 36 40 62 50 50 33 30 31 41 42 41 20 89 85 84 81 
31 18 39 68 68 112 76 54 75 85 104 124 144 160 165 168 164 166 169 146 131 138 121 98 83 55 60 52 44 31 28 24 34 33 48 29 34 33 33 30 33 29 88 85 86 85 
22 30 55 60 97 56 49 61 87 104 120 134 160 161 163 167 167 169 163 160 133 145 131 123 96 79 56 50 49 42 33 25 28 27 28 28 26 27 33 37 27 21 59 82 83 85 
26 32 91 72 87 60 57 80 107 117 122 145 152 154 160 165 169 171 170 162 144 142 141 138 126 107 90 69 52 43 39 41 37 31 27 33 30 28 33 29 32 24 11 86 86 81 
29 35 70 69 77 59 76 94 113 123 138 150 149 157 163 170 163 166 158 161 145 136 144 142 143 134 122 106 89 71 60 49 39 29 25 26 28 28 26 36 21 25 21 67 87 86 
34 75 74 71 85 83 75 104 116 137 151 154 156 159 158 152 155 157 146 148 145 142 129 145 136 136 132 118 109 107 98 78 82 61 44 34 29 31 28 33 21 19 17 57 81 86 
30 85 59 37 69 108 101 121 135 134 140 147 150 140 140 135 142 132 132 127 132 127 125 124 121 121 122 114 112 112 112 94 83 94 90 63 45 55 22 22 29 24 20 23 85 86 
20 84 51 24 70 118 122 124 136 139 137 116 118 106 114 119 107 113 110 116 121 114 107 101 108 109 108 105 102 102 98 95 86 81 85 94 74 78 31 20 35 27 23 23 77 80 
22 74 26 28 78 119 119 119 119 121 117 108 105 83 66 66 68 73 87 105 113 100 104 96 99 89 79 79 81 75 89 84 89 89 83 86 88 86 47 20 36 36 22 22 51 81 
33 70 27 22 78 120 112 115 107 101 93 83 74 80 80 68 66 68 68 83 124 127 138 108 80 66 67 66 63 71 80 83 82 78 84 82 85 91 76 23 39 32 30 25 36 76 
35 62 30 15 82 117 121 108 97 87 87 89 72 64 59 53 40 70 71 66 152 167 159 120 75 63 44 48 26 28 34 47 55 82 90 84 87 90 65 39 35 32 31 24 39 80 
31 48 39 23 77 109 127 111 96 90 63 59 50 28 25 46 60 67 64 71 146 164 152 125 88 67 53 85 39 38 52 75 51 58 79 91 89 93 56 38 35 29 37 29 47 77 
37 41 47 28 81 110 112 108 108 67 57 58 69 58 60 80 66 71 92 108 134 162 155 127 89 87 84 68 77 77 91 103 104 101 92 99 102 90 35 25 37 24 20 36 50 77 
40 37 45 36 77 118 122 118 104 107 117 114 116 110 107 98 76 99 116 135 124 155 151 121 103 103 90 86 85 89 96 95 104 103 99 97 98 87 40 27 36 23 32 31 71 80 
46 39 46 45 51 116 127 132 141 124 141 123 101 100 101 105 106 126 146 132 115 158 146 130 86 114 128 120 119 118 125 128 123 119 114 104 97 80 51 30 30 32 30 35 72 75 
44 43 36 37 52 112 118 132 136 159 140 147 149 143 135 125 144 154 137 123 109 151 155 125 87 102 128 147 140 136 130 125 133 119 121 104 92 84 82 29 31 34 31 38 67 74 
44 45 46 32 68 109 124 118 138 150 163 150 154 147 139 150 154 147 131 118 120 149 161 117 92 93 115 142 157 152 150 151 145 134 128 108 96 87 96 23 37 29 32 47 72 80 
43 45 42 28 66 108 116 124 134 145 150 157 155 153 160 155 143 140 121 121 127 150 159 131 108 94 100 128 140 152 155 157 155 145 127 98 89 84 86 32 59 32 43 47 76 80 
40 52 35 21 50 103 109 119 114 131 149 161 162 161 153 150 128 133 117 118 124 150 157 136 96 87 88 119 136 144 149 148 146 128 123 99 90 80 83 76 70 19 25 59 76 80 
42 55 36 49 47 104 111 113 121 134 141 150 151 144 144 135 135 121 117 128 112 143 161 137 87 102 97 97 121 133 127 133 135 127 112 99 89 83 82 83 30 26 38 72 75 78 
52 60 36 19 43 104 109 102 117 132 136 131 135 129 131 128 119 110 117 129 117 135 148 134 97 98 101 92 94 111 117 123 121 110 100 97 81 82 80 76 22 35 61 76 77 80 
71 52 31 22 68 98 104 93 112 117 117 120 117 125 121 122 108 114 107 106 107 129 122 115 90 67 84 89 98 83 104 117 108 103 97 87 85 78 88 23 27 40 57 75 77 76 
71 77 41 39 58 99 110 100 105 108 97 96 115 111 120 117 114 133 138 55 78 102 96 96 90 53 86 93 114 113 78 90 102 101 91 86 82 80 48 24 27 37 63 73 79 76 
73 73 75 40 38 70 96 110 109 95 86 99 109 112 110 114 131 136 129 73 52 90 85 89 71 74 79 92 105 120 115 99 86 107 95 93 94 79 31 17 25 33 49 69 71 76 
70 76 74 71 46 34 97 113 118 105 115 112 107 118 123 135 134 135 122 115 72 56 52 55 69 63 72 83 89 105 114 104 99 100 93 96 93 90 17 21 25 39 70 74 71 71 
70 71 73 71 68 16 111 107 110 111 116 112 125 115 134 125 124 121 118 116 112 92 64 60 77 80 74 83 87 97 107 97 98 87 97 94 85 95 12 24 26 45 65 75 75 75 
71 73 73 74 79 41 106 103 103 104 113 118 114 116 114 107 115 125 112 110 114 118 99 84 87 85 80 86 88 87 86 98 100 91 95 91 85 73 24 24 27 50 44 69 72 69 
71 72 68 70 75 75 62 86 97 111 107 117 112 103 87 63 64 89 95 82 77 79 79 69 72 71 75 44 28 52 82 98 97 94 83 89 88 20 25 32 35 27 60 69 71 70 
69 71 71 73 77 73 63 84 95 100 96 107 116 106 67 61 72 34 63 27 73 95 91 90 107 97 29 56 89 89 79 90 90 94 82 85 62 21 21 31 47 65 66 64 66 69 
70 71 74 74 72 72 70 39 83 101 103 95 105 100 88 90 115 127 91 51 32 46 60 36 54 48 90 87 88 90 88 87 86 97 80 102 11 27 26 27 43 60 64 63 66 69 
70 69 68 69 72 74 75 71 18 115 96 88 100 80 94 110 111 109 130 145 144 96 83 83 87 97 82 81 92 94 82 85 83 83 90 93 14 27 26 35 53 59 61 63 62 62 
67 67 67 71 66 71 74 71 33 113 94 97 86 92 97 100 113 106 106 107 128 101 128 119 97 80 80 94 89 88 94 86 80 89 85 92 14 39 35 51 60 59 57 58 62 62 
69 70 71 69 74 73 75 81 111 113 91 98 89 89 98 109 101 97 94 95 96 95 89 91 72 81 89 84 90 87 90 76 76 78 84 95 27 69 67 50 54 56 57 55 58 59 
70 71 70 68 69 73 76 174 159 103 100 80 94 93 92 100 103 87 85 83 79 80 94 83 73 74 77 83 82 98 95 66 87 83 84 92 38 48 99 50 55 53 54 53 54 56 
73 71 68 71 71 71 161 193 164 97 110 86 85 109 107 98 102 89 74 72 61 56 51 56 72 77 80 88 100 90 99 76 83 86 86 80 28 53 71 117 44 50 49 50 52 52 
67 71 65 73 180 183 177 200 166 89 117 98 82 79 110 96 110 111 101 99 84 80 73 85 86 89 91 100 96 92 76 87 86 90 91 82 15 59 78 117 50 50 48 47 52 53 
68 68 126 194 201 190 182 202 164 113 118 103 88 82 73 97 106 128 124 120 108 93 98 89 86 88 89 95 105 96 89 87 83 90 93 83 22 44 96 103 92 48 46 47 48 49 
186 184 197 193 197 192 182 203 176 104 119 117 93 83 83 74 108 111 110 106 100 90 74 71 75 89 90 101 102 88 89 89 88 91 88 77 36 53 89 102 126 112 94 59 45 46 
194 196 198 195 202 199 183 204 184 158 129 115 108 95 83 80 87 95 105 114 111 93 76 75 93 92 93 85 72 89 89 92 89 94 89 87 57 58 108 106 134 115 117 117 111 76 
197 197 198 196 201 200 188 204 185 176 130 118 114 106 90 81 85 81 73 83 87 82 73 80 72 85 83 81 84 89 88 94 90 90 88 93 56 73 98 114 139 125 124 119 119 120 
196 191 195 195 201 201 195 203 186 198 117 126 125 112 96 83 78 81 88 75 76 70 72 73 86 80 84 88 92 90 94 93 86 90 86 99 34 109 106 120 143 126 126 127 126 126 
