P2
46 56
255
89 92 91 91 85 88 84 91 84 86 72 59 48 42 41 35 27 45 35 34 41 39 57 46 73 71 43 75 55 61 53 63 55 66 50 26 50 83 85 81 82 80 76 83 82 80 
87 89 89 91 87 91 87 80 76 72 64 38 46 41 41 38 28 26 48 43 40 55 42 49 63 77 96 58 68 47 49 57 49 60 51 56 42 29 71 85 82 82 80 76 82 84 
88 87 89 90 86 81 72 90 86 58 46 50 48 36 29 47 45 45 38 35 49 62 53 74 47 74 67 90 107 90 66 52 47 49 48 52 45 57 36 66 81 78 83 85 78 81 
88 88 91 88 77 78 96 93 58 54 65 59 31 38 43 40 37 59 54 49 56 67 51 72 102 102 101 77 59 88 81 103 70 48 42 36 41 48 41 32 57 81 81 84 78 82 
89 88 92 67 59 76 73 60 64 51 64 47 35 32 42 52 42 53 48 70 68 47 63 64 76 94 98 91 114 74 70 97 78 90 58 54 48 44 37 44 31 46 82 81 81 83 
88 90 86 58 63 80 58 56 49 82 68 51 35 45 58 37 40 65 58 69 52 53 48 58 70 62 74 71 77 90 92 76 94 79 79 59 49 38 40 33 28 32 68 79 80 82 
89 92 66 48 78 65 55 47 79 88 85 64 78 78 66 49 57 44 53 59 66 66 57 44 40 51 57 60 61 73 84 79 86 78 81 82 69 60 39 40 32 31 34 61 80 80 
86 86 57 76 57 53 30 89 94 104 90 76 93 103 89 72 65 52 66 48 84 79 85 62 65 54 37 48 46 57 69 66 77 80 85 87 73 73 56 35 40 37 19 34 77 85 
87 78 40 54 43 33 74 86 114 92 95 120 119 131 111 80 67 66 59 58 57 86 93 76 76 51 44 36 41 51 45 54 70 60 64 63 85 67 77 61 40 47 31 18 46 80 
92 52 45 37 39 62 71 101 79 101 113 116 138 146 131 87 85 58 76 72 69 61 95 88 71 74 61 43 33 34 51 58 56 57 64 50 61 69 59 53 57 47 43 26 28 62 
72 40 38 31 47 73 84 74 99 106 114 146 162 162 124 116 92 67 64 87 99 82 63 63 76 91 69 56 54 36 47 54 54 69 73 60 75 43 55 53 55 44 25 41 26 33 
50 36 32 52 56 77 62 88 106 116 150 163 171 166 137 121 80 81 71 62 78 86 83 66 65 86 62 75 70 52 52 47 56 57 48 57 64 46 53 41 55 44 38 21 29 31 
41 38 41 48 75 55 76 102 111 134 158 168 167 159 150 134 102 74 75 67 59 66 66 60 62 61 69 41 81 90 74 63 56 53 53 48 51 50 50 53 40 35 38 38 21 24 
27 32 42 62 48 72 92 114 122 154 162 166 164 152 159 135 120 88 81 67 62 46 34 45 60 59 48 58 50 51 60 92 64 50 52 48 48 46 60 39 48 36 30 34 32 26 
24 52 44 55 62 83 94 116 144 150 154 154 163 144 158 136 130 121 88 82 63 56 51 39 28 39 42 47 50 72 58 55 48 48 48 37 30 34 41 47 52 45 42 44 42 26 
32 43 48 45 72 91 110 141 142 149 157 155 161 149 141 140 133 134 107 91 64 58 52 49 36 30 28 28 27 48 44 67 58 40 46 38 39 37 33 37 32 66 38 27 29 25 
49 31 56 59 87 101 131 150 148 151 151 157 157 160 151 146 149 140 136 112 96 72 56 57 41 42 36 35 28 28 30 30 30 33 38 36 32 31 38 29 35 30 36 36 21 23 
46 50 42 74 101 117 139 146 141 145 157 158 160 166 155 132 153 149 135 139 116 95 73 65 56 51 45 37 44 33 33 34 39 46 41 39 34 41 31 45 24 31 46 32 23 23 
60 43 65 88 115 134 136 137 142 151 152 153 157 151 149 150 138 157 142 153 135 123 104 86 82 68 54 49 42 45 40 32 32 34 37 36 35 29 41 41 40 35 21 30 22 21 
63 42 65 94 125 137 139 139 146 149 144 149 152 152 149 148 129 141 149 143 150 140 131 125 110 103 92 82 78 75 51 52 44 38 34 27 27 37 32 32 38 33 20 29 23 24 
48 47 71 114 126 130 140 141 140 135 138 137 136 132 138 137 131 122 131 137 137 130 125 125 116 114 105 105 94 92 98 95 81 66 48 40 36 34 48 43 32 35 29 24 20 17 
32 49 101 122 124 119 127 119 125 123 117 121 125 118 123 115 120 107 108 113 113 123 111 117 119 121 113 121 106 103 100 111 113 99 82 59 56 73 67 64 30 17 38 31 27 24 
19 40 102 120 115 91 110 106 92 99 83 92 99 103 117 114 107 99 93 108 104 105 96 95 99 117 108 109 112 104 110 98 103 105 102 82 92 89 90 91 40 29 17 35 37 22 
26 17 107 95 89 84 83 71 63 57 52 57 72 81 99 112 98 109 110 95 97 79 74 71 60 61 71 75 73 82 86 87 92 98 97 88 100 92 90 90 75 22 23 34 31 32 
23 17 112 89 80 74 80 81 86 75 63 57 63 60 72 130 146 151 132 97 74 71 71 76 64 57 59 74 84 86 90 88 87 84 87 94 88 99 96 99 86 26 22 44 29 36 
22 23 109 83 78 81 70 60 59 41 35 39 43 55 43 150 167 164 146 106 78 70 66 50 48 64 24 35 37 49 56 77 92 92 89 92 96 102 94 100 77 49 25 51 35 38 
25 25 114 95 87 63 52 55 62 27 25 30 54 65 43 140 160 156 146 102 85 59 69 54 68 104 39 44 32 65 46 52 72 94 100 95 100 102 99 91 50 39 22 38 20 36 
26 35 103 95 70 59 61 63 76 67 99 76 75 68 87 138 164 150 134 115 110 87 80 76 79 89 86 86 101 100 109 103 101 89 94 101 110 105 101 72 47 34 32 39 28 44 
28 51 111 109 92 109 106 111 111 101 103 88 92 108 117 133 162 145 110 110 116 123 109 104 100 101 107 108 109 100 103 106 103 106 105 103 113 94 96 81 37 30 32 40 30 30 
28 46 115 122 137 120 112 105 92 97 109 115 119 139 102 146 152 140 108 105 117 132 146 133 129 137 132 129 129 130 128 119 128 115 119 108 111 103 94 93 43 33 28 29 31 35 
31 43 111 120 132 139 133 143 137 141 129 134 150 128 102 160 161 131 93 101 106 123 143 156 148 147 140 142 147 143 143 134 138 133 124 113 118 104 89 101 52 43 27 30 31 24 
40 44 108 116 138 152 133 147 144 138 141 143 139 116 116 158 158 118 101 108 106 109 137 144 161 164 163 149 148 159 155 146 148 141 124 115 105 97 90 96 94 55 38 26 39 48 
52 42 101 115 133 144 146 141 139 145 147 137 138 111 115 173 149 123 121 110 105 102 129 139 154 160 153 161 167 163 167 154 144 125 115 104 103 99 86 93 93 71 50 40 36 36 
73 40 91 108 121 140 152 153 157 150 148 132 122 113 128 176 140 132 110 106 97 100 112 133 143 157 154 156 161 157 154 149 135 125 106 100 102 92 85 97 88 83 58 48 45 59 
81 39 86 106 124 128 142 152 152 144 140 129 118 109 132 174 145 114 94 92 114 99 102 121 135 144 145 150 153 151 142 138 129 121 104 93 102 89 91 90 91 66 82 86 81 79 
77 64 72 100 116 130 133 136 136 137 131 122 103 109 135 157 138 101 101 121 118 119 87 110 116 129 137 130 141 141 130 128 119 112 100 97 97 91 94 93 86 69 84 85 87 94 
76 83 47 92 115 119 123 125 121 125 123 117 110 107 132 143 130 113 102 99 98 97 83 98 102 110 128 126 129 136 129 121 111 104 98 89 92 91 89 89 81 65 91 80 83 24 
76 78 69 94 99 105 105 110 111 119 118 109 113 101 112 112 115 92 85 46 53 81 75 108 113 98 105 115 125 120 119 111 107 102 92 94 98 89 89 95 82 66 89 85 20 24 
73 74 69 99 88 94 90 102 109 111 113 112 127 114 85 87 86 90 64 73 60 77 86 104 132 127 100 98 110 112 114 108 101 97 94 97 88 94 88 90 74 49 50 18 19 17 
76 78 78 99 97 85 96 105 114 106 111 126 128 129 58 89 85 79 64 71 81 89 83 97 116 128 132 123 95 99 122 106 96 95 92 99 93 101 82 84 85 82 11 20 19 20 
74 78 80 91 106 97 107 106 107 112 128 129 125 121 82 51 57 51 55 67 72 83 86 98 111 117 133 125 114 110 94 109 101 96 100 100 104 88 94 81 82 92 7 18 21 21 
73 76 77 83 100 104 103 109 106 121 127 120 113 108 108 79 61 57 53 76 76 80 86 102 107 116 104 120 114 101 100 99 102 104 98 99 92 92 87 81 75 94 7 16 16 22 
73 72 76 69 97 101 96 114 109 114 109 112 127 103 108 103 90 71 63 85 85 84 92 101 114 107 99 102 113 92 100 90 100 97 101 99 87 88 85 89 85 82 12 17 15 20 
69 72 75 74 93 102 99 106 101 92 79 77 106 100 85 83 84 75 76 67 71 70 71 69 71 70 72 83 99 90 104 101 93 96 94 95 96 85 83 78 82 72 13 18 16 23 
68 74 75 73 74 91 96 103 118 82 63 60 42 9 67 46 74 72 64 79 99 78 11 79 21 42 61 72 94 94 106 94 94 93 86 95 90 84 80 82 84 64 14 25 26 20 
71 69 72 72 74 81 102 98 109 87 90 95 115 55 44 21 81 95 40 94 81 61 34 60 69 91 89 86 73 95 95 98 90 84 90 88 85 80 86 88 86 67 17 21 25 25 
74 74 74 76 76 65 97 88 93 97 100 120 111 123 118 93 62 35 36 40 52 70 81 84 79 91 90 84 88 89 95 98 95 83 80 97 85 91 92 88 83 66 17 24 27 20 
74 72 76 72 72 75 77 96 84 95 99 109 103 104 117 114 108 119 111 95 84 90 81 82 87 89 89 87 93 89 91 80 93 92 91 90 78 91 83 89 87 55 21 23 23 27 
69 77 69 72 75 76 71 77 94 93 123 93 93 100 96 114 83 113 111 87 81 75 79 87 88 88 91 99 89 89 94 81 91 97 94 80 73 87 93 85 97 52 26 27 27 34 
71 72 72 71 72 76 75 75 79 100 89 112 93 80 105 87 86 84 86 78 74 87 85 75 86 85 85 89 93 86 81 86 81 89 68 79 82 84 83 86 89 50 24 18 30 52 
76 71 71 72 76 76 77 77 74 103 118 102 111 88 78 68 77 83 73 74 67 73 71 79 84 79 89 81 93 89 81 73 76 75 66 92 88 85 86 94 90 57 35 23 37 51 
70 72 71 70 69 76 73 77 61 174 128 103 102 95 70 64 55 53 48 52 66 73 71 72 81 86 92 99 94 82 83 67 65 72 83 87 87 87 91 93 92 72 21 29 38 44 
71 73 69 73 69 72 87 161 184 189 138 115 112 122 99 97 70 73 72 83 87 82 86 89 96 99 94 102 97 89 79 68 60 88 82 86 93 87 92 93 86 81 48 14 11 73 
72 72 91 127 136 125 196 192 183 185 143 95 113 127 125 118 103 94 103 96 89 87 90 100 86 103 99 93 94 64 60 67 78 89 92 88 96 89 97 94 90 79 74 29 17 88 
165 193 180 185 188 196 195 196 190 176 155 103 84 120 123 110 100 90 74 73 79 83 79 89 90 92 111 83 62 62 69 83 87 87 81 85 87 88 93 99 91 84 82 46 9 97 
197 184 186 192 195 199 195 198 198 178 158 109 96 78 100 126 108 86 81 65 73 87 94 90 99 99 75 59 74 82 81 86 80 82 87 90 90 92 96 96 87 83 94 53 36 111 
