P2
46 56
255
105 105 108 106 107 106 106 104 107 109 107 110 96 92 39 23 50 49 67 69 75 77 76 74 84 85 67 74 65 78 73 50 99 106 103 104 102 102 102 105 104 105 100 100 102 100 
104 105 109 106 107 106 105 103 105 107 112 72 68 57 82 94 87 71 74 91 90 99 103 97 104 105 96 75 84 97 70 47 68 94 92 104 103 100 93 101 101 98 103 102 98 98 
105 104 105 103 105 107 108 103 109 92 61 83 90 79 86 102 107 106 101 107 94 104 96 101 105 108 97 100 84 81 87 65 58 54 55 49 77 86 91 72 104 100 98 99 101 101 
105 105 107 105 103 106 110 106 90 43 53 80 93 73 93 77 92 101 82 80 107 81 126 98 68 76 78 88 92 54 69 58 62 72 35 37 34 62 56 90 82 100 82 95 99 102 
102 103 104 105 107 106 104 104 69 73 78 73 65 108 109 90 95 88 67 49 68 89 85 112 87 76 98 76 52 93 54 57 68 48 61 34 24 52 73 62 72 95 89 95 97 100 
105 105 105 110 109 87 58 68 59 79 88 102 74 72 78 64 60 58 74 65 75 94 110 78 85 79 79 59 68 65 84 56 43 41 49 37 25 59 66 67 58 68 70 88 97 100 
102 104 106 106 103 41 46 63 52 68 91 65 71 76 70 65 55 51 64 28 67 106 106 93 82 99 103 87 73 63 34 70 66 74 58 44 42 44 43 44 54 46 58 69 81 92 
103 106 103 104 65 41 59 74 52 51 65 81 66 111 106 86 81 80 90 94 83 87 82 104 96 81 67 72 73 74 57 45 49 74 69 70 48 42 41 43 52 48 53 40 87 104 
110 107 108 73 57 32 53 56 50 42 54 78 89 93 81 97 80 79 92 110 87 72 88 100 71 67 76 72 53 49 40 55 35 31 30 50 38 67 44 41 52 49 50 56 37 97 
103 105 112 48 53 46 52 39 58 49 57 51 62 57 51 72 89 96 104 108 80 90 105 86 72 67 72 67 59 48 45 24 32 39 33 20 43 33 34 49 39 64 49 43 38 64 
107 102 94 47 42 43 30 40 31 42 48 39 43 62 63 71 86 97 100 81 57 51 65 68 78 65 55 67 80 61 75 50 36 38 31 17 26 22 29 40 41 39 48 51 54 25 
102 102 63 39 42 19 36 31 31 29 29 34 37 42 45 51 70 60 55 62 64 52 49 57 79 65 65 62 57 59 56 57 63 52 39 29 22 28 28 28 37 54 50 48 48 28 
105 41 36 32 38 27 27 20 21 31 25 43 54 54 58 71 88 108 114 114 105 97 81 67 63 64 72 67 76 78 81 66 58 56 52 24 26 25 25 29 40 54 55 55 40 38 
27 41 19 26 30 18 25 23 37 41 30 73 56 81 126 151 155 152 148 149 128 118 116 109 94 87 84 89 94 94 86 92 82 85 87 62 27 22 27 37 43 51 44 47 43 30 
30 14 37 38 30 23 27 29 59 81 58 76 118 171 179 178 170 162 159 149 140 137 137 135 124 116 112 113 115 112 115 116 117 111 99 88 57 21 19 32 56 47 53 34 41 30 
29 23 30 29 15 20 29 48 118 158 158 161 183 186 188 190 198 197 190 179 177 173 175 177 175 150 129 140 145 142 146 136 127 118 116 109 88 49 31 40 44 63 45 26 21 32 
25 27 21 23 33 36 70 136 164 168 185 189 186 191 193 191 197 196 198 199 195 196 192 194 197 188 172 155 153 157 155 147 139 130 133 124 115 74 45 39 37 54 51 31 20 31 
16 18 38 24 22 42 102 147 163 173 187 189 189 192 196 193 199 202 199 201 197 198 197 197 198 194 194 187 176 166 162 149 149 142 140 138 129 97 50 34 43 53 36 27 27 24 
26 31 19 27 24 63 113 152 167 180 188 191 194 194 198 197 201 201 199 200 198 199 196 197 198 196 195 195 190 189 182 164 158 151 142 141 135 114 76 31 33 31 26 21 24 20 
34 22 29 26 28 73 117 160 170 179 188 194 194 193 195 195 201 201 201 199 198 195 195 193 196 193 194 196 197 192 189 190 175 162 150 141 131 114 98 48 29 35 23 21 30 21 
29 28 28 24 39 70 126 163 171 185 188 191 191 197 198 198 200 200 199 196 198 193 195 194 197 196 198 194 194 196 186 189 183 174 161 142 137 119 112 65 32 34 16 19 30 21 
32 30 24 25 38 70 121 157 168 183 189 194 195 194 197 197 200 198 199 197 195 195 194 192 197 197 195 193 194 189 190 187 184 178 163 152 136 117 109 79 34 23 31 22 32 18 
30 25 22 27 39 73 140 153 170 183 187 193 193 189 190 193 197 193 190 191 192 193 192 190 193 193 193 194 188 187 184 183 179 174 163 154 144 113 109 78 33 26 31 25 26 30 
37 26 33 27 43 73 145 153 168 185 185 189 190 189 186 183 187 185 191 186 186 192 184 188 192 190 191 183 176 174 177 180 171 170 166 153 140 121 108 88 18 27 24 16 29 26 
23 24 32 30 34 123 147 152 180 180 186 189 185 184 181 177 169 175 173 178 179 182 177 179 180 180 178 179 176 178 171 172 166 172 170 152 139 109 102 93 21 20 21 13 19 35 
97 93 46 41 63 146 150 140 137 138 128 151 159 145 122 127 134 135 143 150 153 162 169 165 161 164 149 150 158 152 144 138 141 143 143 137 137 122 104 103 23 21 22 17 21 22 
121 64 38 47 117 155 153 123 128 134 110 114 108 92 95 87 82 77 91 111 126 140 171 169 150 120 99 92 78 71 79 80 89 109 115 116 99 101 95 101 49 37 22 17 23 15 
109 90 86 52 151 154 140 106 113 121 122 100 97 79 69 85 79 87 91 89 116 168 180 182 147 115 91 86 80 80 84 93 101 101 103 109 109 89 91 103 90 31 25 26 23 63 
84 131 103 68 160 155 145 122 107 82 82 88 49 46 57 103 81 99 100 72 157 190 202 199 167 129 73 88 91 86 59 79 61 72 78 79 100 95 80 105 103 36 31 31 54 80 
86 145 113 86 154 158 153 153 103 138 143 142 163 120 124 149 109 118 137 98 171 193 201 197 161 129 104 117 87 113 113 61 53 112 80 77 73 103 100 102 114 41 31 70 68 71 
90 158 109 119 145 151 164 170 160 166 165 166 167 162 147 151 164 147 163 164 169 193 199 196 147 142 127 134 137 133 141 136 134 131 126 118 93 105 105 107 112 44 34 87 60 62 
79 180 110 139 141 146 165 175 176 151 166 172 172 180 186 171 151 176 178 173 166 191 198 179 146 144 145 159 159 165 166 167 157 144 133 128 114 116 110 105 100 73 73 89 53 57 
82 210 144 123 142 144 160 175 189 173 167 171 166 166 161 173 188 187 171 167 165 196 197 172 145 143 137 166 175 168 155 158 160 156 127 125 134 128 114 99 99 90 57 97 50 57 
88 155 182 116 134 139 151 165 182 189 176 172 172 181 194 191 189 180 169 172 165 193 196 166 140 136 132 164 175 182 180 170 150 157 150 153 153 132 114 99 96 93 49 99 49 50 
91 125 198 109 140 137 148 163 156 172 180 181 180 188 192 187 179 168 140 168 162 197 196 147 140 118 131 157 177 184 181 184 168 163 155 159 153 133 110 99 93 85 73 61 52 47 
100 136 161 113 126 146 140 149 153 158 164 175 183 190 189 180 179 148 139 175 169 208 186 154 152 144 103 157 176 186 183 181 173 174 167 153 135 124 109 91 90 71 94 33 41 44 
99 89 141 113 116 147 148 146 152 157 160 173 185 181 182 176 165 126 158 150 173 173 171 166 133 121 104 152 176 176 181 173 170 167 155 136 124 117 108 95 88 97 94 34 49 44 
96 95 91 86 117 135 147 154 154 155 164 178 176 176 169 164 147 142 128 83 98 107 103 105 96 111 96 149 171 174 170 171 158 154 137 125 113 113 101 95 82 91 90 36 41 43 
95 94 100 91 124 121 145 157 157 160 165 168 171 173 155 149 159 162 124 75 65 72 76 70 62 89 106 143 166 172 167 155 147 141 120 122 110 110 98 87 72 77 43 37 41 41 
98 101 105 93 117 114 131 155 161 159 166 171 161 157 153 162 176 176 171 131 107 101 100 104 107 122 129 129 170 167 159 153 147 125 123 115 115 108 92 95 39 44 43 40 46 40 
98 95 96 96 97 119 124 149 160 167 166 165 161 164 161 177 172 158 149 153 147 131 106 110 106 108 115 134 155 165 152 142 135 128 124 116 112 106 94 96 39 46 37 42 35 44 
96 96 94 99 92 118 112 132 144 160 165 160 162 155 167 159 150 150 139 155 173 173 164 132 115 111 106 122 138 156 146 149 131 121 118 118 107 94 92 46 41 39 45 42 42 43 
99 95 100 98 98 95 122 127 138 149 158 160 152 152 159 155 145 142 161 147 112 140 130 100 122 112 114 118 138 149 141 132 138 127 116 118 100 97 90 35 39 40 39 45 40 43 
91 95 94 96 97 82 124 116 128 144 148 148 147 154 154 140 132 130 89 60 65 62 66 61 49 83 117 122 133 128 132 126 128 118 115 109 96 96 42 37 39 36 39 39 37 37 
98 94 93 94 100 96 103 121 120 128 133 145 142 133 119 82 66 60 34 35 99 83 103 114 48 35 70 88 112 128 126 116 121 115 109 107 98 87 34 42 39 39 43 44 46 41 
93 92 93 93 95 96 91 111 125 122 133 134 133 115 110 135 149 134 119 105 101 94 81 80 89 92 88 71 94 105 115 115 114 115 108 102 103 35 37 38 38 42 42 40 40 37 
92 94 92 92 97 95 93 98 111 124 122 129 125 127 143 150 137 130 131 163 157 154 156 162 139 128 116 135 122 112 115 115 114 112 99 103 84 37 46 40 35 37 37 40 39 41 
96 93 97 92 92 93 143 120 106 108 115 112 112 127 120 132 130 106 102 104 114 116 103 106 102 103 117 133 127 116 109 109 113 105 100 99 48 40 38 40 39 40 38 39 42 36 
87 90 90 94 88 162 79 134 104 101 106 101 107 109 123 129 134 121 75 71 60 64 67 76 92 106 121 113 113 109 107 106 102 102 94 89 36 36 36 34 40 42 40 47 45 38 
91 91 88 88 156 117 20 139 131 87 96 103 116 129 124 129 131 132 128 101 89 96 99 111 107 117 123 119 109 104 101 105 94 95 83 88 56 49 32 41 42 34 42 40 40 35 
88 89 92 82 137 96 80 138 141 127 79 85 112 133 138 144 148 146 161 171 164 157 158 163 161 149 143 133 127 107 106 94 86 86 97 96 14 77 55 40 35 39 41 37 40 37 
89 95 95 157 130 35 145 140 134 130 116 81 69 115 130 143 148 166 153 162 159 164 159 157 155 150 141 125 118 100 98 76 86 97 93 94 24 60 53 31 38 37 37 38 37 35 
122 133 110 126 165 0 148 136 139 136 125 103 67 69 114 128 136 138 135 137 136 145 137 133 132 119 122 112 100 97 76 95 96 95 95 96 20 25 82 37 45 32 41 37 38 41 
101 123 156 98 169 11 149 144 140 139 129 123 101 74 60 93 105 105 104 117 117 122 114 102 108 101 93 93 62 73 92 96 92 96 84 95 10 39 89 37 69 64 54 37 37 39 
130 76 155 122 149 12 154 145 139 139 133 123 117 87 77 65 63 75 79 84 88 85 86 88 91 83 71 71 96 92 89 102 95 92 94 98 8 53 84 58 65 55 58 62 62 70 
135 112 138 145 105 25 166 154 151 135 135 134 119 106 82 77 68 52 62 65 75 70 72 69 70 67 86 96 102 101 95 95 97 87 91 90 11 71 77 70 40 48 75 53 76 70 
