P1
# CREATOR: GIMP PNM Filter Version 1.1
100 100
0000000000000000000000000000000000000000000000000000000000000000000000
0000000000000000000000000000000000000000000000000000000000000000000000
0000000000000000000000000000000000000000000000000000000000000000000000
0000000000000000000000000000000000000000000000000000000000000000000000
0000000000000000000000000000000000000000000000000000000000000000000000
0000000000000000000000000000000000000000000000000000000000000000000000
0000000000000000000000000000000000000000000000000000000000000000000000
0000000000000000000000000000000000000000000000000000000000000000000000
0000000000000000000000000000000000000000000000000000000000000000000000
0000000000000000000000000000000000000000000000000000000000000000000000
0000000000000000000000000000000000000000000000000000000000000000000000
0000000000000000000000000000000000000000000000000000000000000000000000
0000000000000000000000000000000000000000000000000000000000000000000000
0000000000000000000000000000000000000000000000000000000000000000000000
0000000000000000000000000000000000000000000000000000000000000000000000
0000000000000000000000000000000000000000000000000000000000000000000000
0000000000000000000000000000000000000000000000000000000000000000000000
0000000000000000000000000000000000000000000000000000000000000000000000
0000000000000000000000000000000000000000000000000000000000000000000000
0000000000000000000000000000000000000000000000000000000000000000000000
0000000000000000000000000000000000000000000000000000000000000000000000
0000000000000000000000000000000000000000000000000000000000000000000000
0000000000000000000000000000000000000000000000000000000000000000000000
0000000000000000000000000000000000000000000011000000000000000000000000
0000000000000000000000000000000000000000000000000000000000000000000000
0001111000000000000000000000000000000000000000000000000000000000000000
0000000000000000000000000000000011111100000000000000000000000000000000
0000000000000000000000000000000000000000000000000000000000000111011100
0000000000000000000000000000000000000000000000000000000000000000000000
0000000000000000000001110111000000000000000000000000000000000000000000
0000000000000000000000000000000000000000000000000011100011100000000000
0000000000000000000000000000000000000000000000000000000000000000000000
0000000000111000111000000000000000000000000000000000000000000000000000
0000000000000000000000000000000000000001110000011100000000000000000000
0000000000000000000000000000000000000000000000000000000000000000000001
1100000111000000000000000000000000000000000000000000000000000000000000
0000000000000000000000000000111000000011100000000000000000000000000000
0000000000000000000000000000000000000000000000000000000000111000000011
1000000000000000000000000000000000000000000000000000000000000000000000
0000000000000000001110000000011100000000000000000000000000000000000000
0000000000000000000000000000000000000000000000011100000000011100000000
0000000000000000000000000000000000000000000000000000000000000000000000
0000000111000000000011100000000000000000000000000000000000000000000000
0000000000000000000000000000000000001110000000000011100000000000000000
0000000000000000000000000000000000000000000000000000000000000000001110
0000000000011100000000000000000000000000000000000000000000000000000000
0000000000000000000000000111000000000000011100000000000000000000000000
0000000000000000000000000000000000000000000000000000000111000000000000
0111000000000000000000000000000000000000000000000000000000000000000000
0000000000000011100000000000000011100000000000000000000000000000000000
0000000000000000000000000000000000000000000011100000000000000011100000
0000000000000000000000000000000000000000000000000000000000000000000000
0000111000000000000000011100000000000000000000000000000000000000000000
0000000000000000000000000000000001110000000000000000011100000000000000
0000000000000000000000000000000000000000000000000000000000000011100000
0000000000000011100000000000000000000000000000000000000000000000000000
0000000000000000000000111000000000000000000011100000000000000000000000
0000000000000000000000000000000000000000000000000001110000000000000000
0000011100000000000000000000000000000000000000000000000000000000000000
0000000000011100000000000000000000011100000000000000000000000000000000
0000000000000000000000000000000000000000111000000000000000000000001110
0000000000000000000000000000000000000000000000000000000000000000000000
1110000000000000000000000011100000000000000000000000000000000000000000
0000000000000000000000000000011100000000000000000000000001110000000000
0000000000000000000000000000000000000000000000000000000000011100000000
0000000000000000011100000000000000000000000000000000000000000000000000
0000000000000000001110000000000000000000000000001110000000000000000000
0000000000000000000000000000000000000000000000001110000000000000000000
0000000011100000000000000000000000000000000000000000000000000000000000
0000000111000000000000000000000000000011100000000000000000000000000000
0000000000000000000000000000000000000111000000000000000000000000000001
1100000000000000000000000000000000000000000000000000000000000000001110
0000000000000000000000000000011100000000000000000000000000000000000000
0000000000000000000000000011100000000000000000000000000000001110000000
0000000000000000000000000000000000000000000000000000000111000000000000
0000000000000000000011100000000000000000000000000000000000000000000000
0000000000000001110000000000000000000000000000000001110000000000000000
0000000000000000000000000000000000000000000011100000000000000000000000
0000000000011100000000000000000000000000000000000000000000000000000000
0001110000000000000000000000000000000000001110000000000000000000000000
0000000000000000000000000000000001110000000000000000000000000000000000
0011100000000000000000000000000000000000000000000000000000000011100000
0000000000000000000000000000000001110000000000000000000000000000000000
0000000000000000000000111000000000000000000000000000000000000001110000
0000000000000000000000000000000000000000000000000001110000000000000000
0000000000000000000000001110000000000000000000000000000000000000000000
0000000000011100000000000000000000000000000000000000001110000000000000
0000000000000000000000000000000000000000111000000000000000000000000000
0000000000000001110000000000000000000000000000000000000000000000000000
1110000000000000000000000000000000000000000001110000000000000000000000
0000000000000000000000000000011100000000000000000000000000000000000000
0000001110000000000000000000000000000000000000000000000000011100000000
0000000000000000000000000000000000001110000000000000000000000000000000
0000000000000000001110000000000000000000000000000000000000000000000111
0000000000000000000000000000000000000000000000011100000000000000000000
0000000000000000000000000001110000000000000000000000000000000000000000
0000000111000000000000000000000000000000000000000000000000111000000000
0000000000000000000000000000000000001110000000000000000000000000000000
0000000000000000001110000000000000000000000000000000000000000000011100
0000000000000000000000000000000000000000000000000111000000000000000000
0000000000000000000000000111000000000000000000000000000000000000000000
0000000001110000000000000000000000000000000000000000001110000000000000
0000000000000000000000000000000000000000111000000000000000000000000000
0000000000000011100000000000000000000000000000000000000000000000000000
1110000000000000000000000000000000000000000111000000000000000000000000
0000000000000000000000000000000111000000000000000000000000000000000000
0001110000000000000000000000000000000000000000000000000000000111000000
0000000000000000000000000000000011100000000000000000000000000000000000
0000000000000000000000111000000000000000000000000000000000000011100000
0000000000000000000000000000000000000000000000000000111000000000000000
0000000000000000000001110000000000000000000000000000000000000000000000
0000000000000111000000000000000000000000000000000001110000000000000000
0000000000000000000000000000000000000000000111000000000000000000000000
0000000000111111111000000000000000000000000000000000000000000000000000
0011110000000000000000000000000000000000011111111111111111111110000000
0000000000000011111111111111111111110000000000000000000000000000000000
0001111111111111111111111111111111111111111111111111111111111111100000
0000000000000000000000000000000000000001111111111111111111111111111111
1111111111111111111111000000000000000000000000000000000000000000000000
0000000000000111111111111111111111100000000000000000000000000000000000
0000000000000000000000000000000000000000000000000000000000000000000000
0000000000000000000000000000000000000000000000000000000000000000000000
0000000000000000000000000000000000000000000000000000000000000000000000
0000000000000000000000000000000000000000000000000000000000000000000000
0000000000000000000000000000000000000000000000000000000000000000000000
0000000000000000000000000000000000000000000000000000000000000000000000
0000000000000000000000000000000000000000000000000000000000000000000000
0000000000000000000000000000000000000000000000000000000000000000000000
0000000000000000000000000000000000000000000000000000000000000000000000
0000000000000000000000000000000000000000000000000000000000000000000000
0000000000000000000000000000000000000000000000000000000000000000000000
0000000000000000000000000000000000000000000000000000000000000000000000
0000000000000000000000000000000000000000000000000000000000000000000000
0000000000000000000000000000000000000000000000000000000000000000000000
0000000000000000000000000000000000000000000000000000000000000000000000
0000000000000000000000000000000000000000000000000000000000000000000000
0000000000000000000000000000000000000000000000000000000000000000000000
0000000000000000000000000000000000000000000000000000000000000000000000
0000000000000000000000000000000000000000000000000000000000000000000000
0000000000000000000000000000000000000000000000000000000000000000000000
0000000000000000000000000000000000000000000000000000000000000000000000
0000000000000000000000000000000000000000000000000000000000000000000000
000000000000000000000000000000000000000000000000000000000000