P1
10 10
1000000011110000011111100011100111111100001111100000011110000011111100
011100111111100001111100000011