P1
10 10
1100000011111000011101110011100011111100000111100000011111000011111110
011100011111100000111100000001