P1
10 10
1110000001011100011100111011110001111110000011110000001111000001111110
001110111001110001111110000011