P1
10 10
1110000001111100011100111011110001111110000011110000001111000001111110
001110011101110000111110000001