P2
46 56
255
121 121 118 120 122 119 120 120 122 119 118 118 128 159 164 135 136 135 127 119 126 139 133 124 121 116 109 122 109 100 107 103 117 111 113 116 113 117 114 119 115 114 114 115 116 116 
121 120 121 120 123 123 118 120 120 120 133 132 129 136 146 144 155 179 167 157 136 131 146 135 106 102 108 107 101 95 86 100 104 105 103 119 128 125 117 116 120 116 115 115 115 114 
117 120 119 120 120 121 118 120 122 116 125 123 132 126 155 182 162 145 119 104 119 148 152 119 102 127 109 121 107 110 105 110 109 104 108 121 125 123 115 112 115 112 113 118 116 117 
121 119 122 123 122 121 119 121 117 121 121 134 121 152 144 130 134 96 129 82 141 128 134 114 130 128 131 126 118 107 109 113 110 127 126 123 118 119 116 114 114 120 113 119 115 114 
120 122 123 123 120 122 119 121 121 123 134 146 152 128 131 127 112 114 97 113 143 157 118 146 122 109 120 118 128 121 123 94 105 111 106 122 126 137 121 115 113 114 117 119 116 119 
119 121 119 124 117 123 120 124 130 165 152 138 144 152 118 108 101 88 125 161 170 139 138 142 132 152 137 143 137 133 117 118 103 87 105 113 114 120 125 131 120 119 118 112 114 118 
123 121 119 119 123 119 133 153 142 155 165 146 147 143 124 81 74 114 164 121 194 149 156 158 153 163 171 163 159 158 159 135 133 113 117 116 98 116 111 132 134 128 121 115 113 115 
122 121 123 118 121 143 155 148 183 162 132 153 136 131 69 75 107 128 159 162 175 169 176 178 169 177 187 179 186 181 175 167 157 138 123 109 118 102 116 123 137 140 140 121 120 118 
118 120 121 127 132 157 150 163 140 133 124 165 111 90 65 83 104 142 155 168 178 182 195 185 184 190 191 190 186 187 191 187 184 169 160 136 117 85 88 117 131 131 140 156 126 118 
120 119 118 125 131 155 153 149 124 135 165 120 100 85 84 98 120 126 152 166 183 188 191 195 195 198 198 198 180 192 194 192 186 186 188 180 159 132 72 116 103 137 144 145 126 135 
117 119 118 118 134 157 162 107 106 149 129 110 96 95 117 131 125 115 146 164 186 192 199 194 191 197 195 199 195 192 195 193 191 192 192 192 190 172 110 98 128 117 137 149 156 112 
119 119 89 92 124 130 114 75 132 191 113 143 108 134 152 147 127 115 147 151 187 200 196 200 199 200 197 199 199 197 196 196 193 194 195 194 195 185 177 81 128 111 136 142 158 150 
124 81 96 110 127 127 99 94 158 140 163 117 131 207 192 138 129 114 143 157 196 201 202 200 201 200 200 198 197 196 195 195 192 195 194 192 194 186 177 161 85 117 116 137 145 157 
109 90 100 98 85 113 106 123 125 113 107 128 191 189 197 155 124 156 152 169 186 199 201 200 200 202 201 199 197 197 200 196 194 195 195 194 191 187 176 165 130 111 95 124 151 136 
86 97 89 72 89 112 102 118 107 102 119 161 145 169 138 172 177 145 168 174 191 201 202 197 201 200 197 200 201 198 199 199 195 196 196 193 190 187 178 172 166 94 106 107 134 151 
87 95 74 63 67 112 94 129 101 115 128 132 134 157 162 159 150 160 166 179 191 199 202 201 202 199 200 200 201 200 200 201 200 195 193 192 194 190 182 172 166 104 93 80 112 165 
90 71 72 67 68 112 65 142 104 130 123 120 129 144 151 169 175 173 170 171 190 196 203 201 199 201 199 200 200 200 201 201 200 197 195 195 196 185 183 172 165 107 68 55 77 111 
104 55 68 60 58 92 59 134 112 135 125 132 120 143 159 170 178 186 180 185 195 198 200 201 196 201 201 201 200 201 201 201 199 198 199 194 196 191 182 172 157 109 59 50 53 90 
77 72 73 74 64 67 45 94 146 137 126 129 132 148 155 180 174 185 185 189 198 202 201 200 200 201 200 200 200 198 201 202 202 199 200 195 197 189 179 175 156 117 53 59 52 73 
40 88 64 77 60 65 57 42 133 148 128 141 150 145 161 186 180 180 177 185 196 198 202 200 201 203 201 200 197 197 199 202 201 200 196 193 198 189 185 176 161 129 44 43 54 94 
59 66 51 59 63 47 49 58 121 141 138 152 160 151 163 176 176 182 180 178 187 188 193 195 196 199 200 194 197 195 199 202 202 194 196 191 194 185 178 172 170 137 44 46 66 93 
101 51 47 47 36 46 45 56 107 162 132 149 149 130 155 165 182 168 167 169 150 163 166 179 179 187 188 191 193 191 195 199 197 192 190 183 184 167 151 151 163 153 40 54 104 95 
100 58 67 49 29 61 45 62 108 155 112 136 128 150 148 146 150 135 129 123 106 111 108 108 120 131 162 184 188 189 191 187 185 185 182 167 151 134 112 117 129 133 119 74 99 93 
96 96 60 49 66 58 59 91 113 159 130 118 110 134 140 139 136 136 137 130 122 109 109 101 117 121 128 163 176 187 186 186 173 156 146 114 112 92 92 111 115 111 106 88 93 100 
93 96 68 56 70 60 67 96 129 164 138 114 128 132 133 125 102 91 93 75 100 119 92 104 117 119 133 157 180 195 190 187 147 126 96 75 63 73 78 99 120 125 106 83 90 88 
137 156 174 145 69 66 79 92 145 171 163 138 151 143 130 101 75 164 100 139 50 193 122 143 114 131 142 149 192 201 200 186 95 71 81 29 84 64 122 64 73 116 101 83 82 98 
119 64 89 172 120 73 73 82 166 173 173 173 177 147 136 105 131 179 81 101 99 186 158 151 186 122 161 158 191 203 196 195 101 67 163 93 43 66 170 93 89 110 104 89 94 97 
113 119 91 97 166 79 66 88 162 168 182 188 190 181 190 183 153 168 182 167 171 172 160 163 169 159 177 182 181 201 198 206 108 151 148 150 131 141 149 143 111 129 106 136 87 93 
136 141 156 150 133 136 63 122 167 171 180 188 197 194 197 197 179 167 174 173 174 163 172 174 168 187 194 183 176 198 191 202 123 134 143 154 155 160 161 152 158 152 121 73 89 93 
153 158 170 200 140 135 88 153 166 166 183 189 198 197 199 200 196 193 192 189 189 188 193 194 197 190 189 180 180 193 200 198 147 163 168 158 166 163 168 166 175 163 149 102 89 97 
169 158 167 170 118 109 132 150 163 165 180 190 196 198 201 201 201 200 199 197 196 196 202 203 200 193 187 180 175 192 194 194 185 158 188 192 184 180 177 179 173 167 156 125 86 93 
184 161 174 149 125 78 169 133 160 162 166 183 185 193 197 195 199 197 201 197 202 202 203 201 200 191 188 174 186 192 196 197 195 154 181 184 192 191 186 177 180 165 146 133 79 96 
106 179 180 148 173 152 195 112 149 159 171 180 187 188 192 194 198 195 200 199 202 204 204 203 194 178 178 169 182 195 201 198 193 162 171 186 191 194 190 186 177 141 138 146 88 96 
48 204 162 167 191 161 187 112 141 149 170 181 185 187 190 191 197 195 196 198 200 202 202 200 183 173 177 178 173 180 200 198 190 140 146 185 184 193 187 175 170 157 128 115 93 96 
72 177 142 189 172 163 188 112 134 143 156 173 182 177 182 188 191 194 189 193 197 202 197 190 171 167 167 161 148 137 175 171 144 114 130 172 185 186 182 176 161 159 133 83 92 98 
84 88 193 161 163 181 188 115 130 140 148 170 165 176 179 182 185 194 186 189 192 197 194 195 185 134 124 58 73 120 133 127 100 64 108 157 181 174 175 170 153 150 138 82 88 95 
87 61 166 194 169 194 173 116 130 136 150 160 167 172 174 178 183 189 190 191 191 191 195 199 195 176 130 136 140 97 101 96 97 120 145 165 173 169 175 162 148 133 124 85 97 98 
86 83 75 192 194 184 183 126 123 137 151 154 161 166 173 171 177 184 191 191 194 194 194 198 190 177 184 167 158 152 141 136 145 154 158 160 172 178 171 161 144 125 98 95 93 98 
81 80 70 133 182 185 190 165 112 134 143 159 163 168 174 172 178 178 188 196 199 194 186 181 178 177 176 167 171 156 151 151 152 155 152 149 164 180 173 153 137 128 79 91 92 99 
84 77 75 67 104 146 158 98 129 130 143 159 164 164 167 171 176 186 188 194 195 187 174 176 173 165 183 175 168 153 165 153 153 148 147 145 155 167 175 152 131 132 75 91 92 100 
79 78 76 77 75 74 83 80 100 125 145 152 157 166 165 166 171 186 189 194 187 181 172 165 167 168 185 189 187 187 188 189 167 169 151 141 147 155 161 147 127 136 76 91 93 100 
77 75 78 79 76 74 79 82 76 118 137 157 147 157 169 165 174 183 187 188 186 172 157 152 158 159 150 133 127 135 154 125 119 115 121 138 141 154 148 151 121 127 83 92 95 98 
74 76 72 72 69 76 70 76 58 117 131 143 153 151 159 165 176 182 185 185 170 144 112 95 94 89 86 68 88 71 84 66 58 44 82 76 122 141 146 143 126 103 85 89 97 97 
72 76 76 71 73 72 75 73 72 116 121 134 149 146 158 171 169 176 181 181 165 151 149 135 134 144 137 138 131 116 116 127 125 129 116 155 138 142 155 135 123 74 89 93 96 98 
77 74 74 76 74 73 77 79 73 96 117 123 131 151 153 158 170 175 174 183 181 170 189 189 175 186 175 180 184 177 180 177 165 155 144 156 159 162 152 129 127 64 91 93 97 97 
71 75 73 73 74 72 76 76 69 120 98 113 126 134 146 161 168 177 184 185 186 192 197 186 179 158 152 158 150 147 155 150 141 141 137 154 168 152 155 129 103 85 90 97 98 96 
76 72 73 74 72 73 73 73 66 122 94 98 114 128 140 155 161 169 176 184 190 181 189 184 183 169 148 132 123 122 111 115 117 129 150 156 163 146 147 119 62 88 87 93 93 96 
80 70 72 70 72 76 77 76 66 130 139 68 101 112 133 147 155 163 169 180 182 189 187 183 182 178 173 168 149 143 141 144 149 153 160 161 158 149 142 115 69 89 86 88 95 96 
76 71 70 73 75 73 75 76 68 129 128 111 71 89 114 131 141 150 165 172 180 183 186 185 181 175 181 182 181 182 179 178 171 167 168 155 154 146 129 61 76 83 83 92 96 92 
77 74 71 74 72 72 74 78 57 126 127 115 66 63 77 101 117 133 143 155 174 180 184 183 186 188 193 190 188 192 186 181 184 175 183 166 159 138 106 64 77 82 86 87 89 92 
77 75 75 70 71 74 73 79 58 136 126 123 88 65 67 68 86 104 114 147 162 168 177 173 187 185 189 190 192 180 183 187 171 186 173 159 151 136 48 68 77 82 83 84 92 91 
82 76 75 71 71 73 75 89 72 143 142 129 107 73 66 65 63 65 64 107 143 166 172 164 180 184 183 187 178 171 173 178 183 180 154 150 144 72 71 69 78 80 85 86 87 91 
82 76 74 75 70 70 87 83 84 142 147 142 121 94 69 66 68 64 64 67 90 131 149 157 150 171 172 168 169 149 159 164 159 151 137 123 113 16 37 72 71 79 80 84 88 89 
84 77 79 76 70 80 92 72 102 139 145 150 142 119 90 69 69 67 66 66 58 64 115 119 124 140 142 147 133 131 131 139 127 117 112 109 13 24 25 55 78 74 79 78 81 87 
83 73 68 74 82 81 88 53 130 139 157 155 155 133 113 89 76 69 68 62 65 66 63 73 85 91 96 94 89 76 78 81 77 73 87 114 10 24 25 38 60 79 78 84 81 86 
81 71 73 68 87 85 86 24 133 142 144 158 156 155 132 118 99 85 74 73 73 69 63 62 60 57 61 62 56 56 59 62 82 93 102 116 17 19 29 36 50 76 79 84 80 83 
