P2
46 56
255
38 40 40 41 42 38 41 39 41 39 44 40 51 45 56 47 33 54 43 23 33 44 35 54 79 62 57 56 38 34 39 51 55 56 50 65 50 57 45 52 77 29 38 36 38 36 
37 39 40 40 40 37 39 43 42 41 35 55 52 60 47 48 51 54 40 48 51 68 71 89 83 62 49 66 61 58 42 47 52 66 58 62 43 62 51 65 50 36 39 38 39 38 
43 42 38 40 37 44 41 43 39 45 56 57 44 56 44 59 69 58 44 71 61 82 103 77 65 58 71 54 59 73 72 51 71 59 63 55 72 55 51 57 58 41 42 42 38 33 
37 41 37 40 43 38 39 42 42 62 60 68 63 59 40 45 46 67 61 91 82 85 91 79 84 79 60 60 54 63 70 60 54 53 81 60 90 72 72 42 46 39 39 38 38 35 
47 46 39 39 40 40 46 47 59 74 88 61 81 62 54 31 83 72 76 111 91 103 80 103 93 105 95 93 69 53 71 66 61 69 72 69 62 76 74 67 60 47 50 45 41 43 
45 42 42 43 37 63 53 42 97 95 82 86 81 58 68 42 86 93 97 100 98 107 111 112 95 113 120 112 102 86 81 82 79 66 77 61 56 99 65 65 83 56 45 47 46 39 
39 46 44 46 76 41 60 65 72 67 176 51 98 81 82 54 93 106 115 102 95 102 127 112 100 124 130 125 116 101 85 85 78 90 93 95 51 109 46 48 35 58 49 52 50 46 
43 47 51 84 44 90 70 110 81 46 79 92 101 106 101 85 106 113 106 113 103 110 137 125 106 114 134 135 135 120 96 100 91 89 114 85 86 67 69 73 58 48 51 46 50 43 
41 42 58 44 95 62 91 96 71 80 98 74 110 123 120 107 99 116 104 112 80 115 144 139 121 132 128 125 131 106 95 135 98 103 58 87 103 85 98 53 53 33 53 47 55 50 
48 45 53 97 52 123 126 74 70 102 112 66 121 139 126 96 109 106 108 125 93 119 151 154 129 142 141 130 129 107 82 143 102 132 62 65 90 84 76 93 102 55 38 42 58 54 
34 30 70 59 98 165 104 84 85 98 127 90 123 142 121 110 104 87 96 108 71 126 148 157 128 142 134 133 136 120 120 133 122 128 53 105 99 124 89 99 96 48 45 44 49 61 
40 47 91 103 122 146 88 127 136 139 117 128 129 145 148 124 103 101 97 100 97 123 139 134 137 140 147 144 152 150 147 108 118 131 124 62 126 125 115 84 84 56 77 47 48 66 
44 48 88 52 130 105 112 109 115 132 126 146 158 145 153 137 139 150 151 148 145 147 144 143 142 148 148 154 147 149 150 118 107 123 138 125 80 99 110 100 68 68 73 75 72 75 
50 74 81 70 118 120 92 146 126 146 164 157 167 166 172 164 158 166 164 159 167 155 147 152 152 147 147 153 154 148 151 136 111 118 135 138 141 123 124 134 57 100 92 76 74 70 
42 98 76 83 88 105 80 135 128 140 162 168 159 164 164 164 168 170 166 167 174 171 169 154 161 144 155 152 161 152 151 141 121 138 138 138 145 141 131 124 125 68 110 91 77 71 
51 64 66 90 74 75 157 154 119 145 162 164 163 178 149 168 175 169 179 179 181 181 183 186 182 169 173 164 164 184 158 151 141 148 141 140 141 145 148 132 135 96 88 93 73 80 
61 68 96 56 79 96 130 157 110 166 157 156 181 160 159 150 140 144 146 141 141 138 162 167 167 174 189 160 163 182 174 168 152 150 148 143 148 140 140 141 134 143 112 117 87 81 
51 71 65 79 105 115 152 159 104 170 156 171 147 120 116 108 80 71 74 75 105 110 115 126 153 171 179 150 157 152 150 150 150 153 144 144 140 142 143 140 137 141 137 103 97 94 
66 66 63 56 49 191 118 125 133 155 154 139 120 116 104 94 102 96 90 75 91 105 103 120 161 172 170 148 137 130 113 102 97 113 121 127 143 129 136 131 141 137 133 121 93 104 
38 65 58 52 126 143 145 104 159 152 155 127 128 125 143 137 142 135 124 102 85 88 122 164 191 171 170 145 145 113 96 75 59 50 59 66 78 108 104 142 131 133 132 126 83 127 
74 67 51 73 175 130 149 100 158 158 145 137 157 150 134 94 70 50 27 72 56 100 145 168 194 172 161 156 155 115 76 65 71 77 82 76 82 84 95 113 140 129 141 113 97 111 
97 77 103 94 162 144 101 126 165 155 168 161 161 84 51 104 50 22 72 147 70 89 136 163 174 166 145 154 134 84 88 84 92 120 125 120 96 80 113 103 138 126 135 108 79 123 
106 86 95 134 133 121 98 153 163 169 166 157 99 103 135 135 119 90 99 139 118 130 153 162 160 162 140 144 127 102 60 93 42 103 71 105 121 120 113 113 125 129 140 96 88 91 
87 107 118 119 115 90 110 158 167 187 180 161 175 161 165 165 151 148 133 136 143 157 163 156 155 164 127 131 134 173 104 164 68 25 31 62 55 119 130 118 115 126 141 78 101 101 
101 92 110 88 72 129 147 160 166 188 181 178 180 180 180 180 173 164 160 161 165 164 163 170 155 161 127 124 136 134 117 125 122 83 85 118 65 44 129 137 135 127 141 76 121 94 
108 98 79 77 68 116 152 154 172 178 181 178 181 173 170 173 158 166 165 169 181 164 174 158 161 153 140 126 140 145 131 125 117 119 133 141 124 91 85 151 136 129 139 101 111 104 
92 101 106 83 118 141 153 155 167 173 182 168 183 175 168 160 166 157 167 183 187 173 166 158 172 162 139 129 137 138 139 138 135 142 145 149 148 151 131 125 161 150 138 106 113 139 
67 110 102 133 114 117 149 149 160 171 182 192 189 179 177 172 171 168 178 178 189 180 164 154 159 158 139 133 133 147 144 145 139 138 153 154 159 159 156 142 168 149 137 116 108 102 
22 101 114 107 106 100 146 151 156 175 171 177 181 184 180 171 171 170 175 185 192 161 168 148 179 187 139 137 125 150 151 144 141 135 135 146 159 151 151 152 160 158 135 99 95 82 
14 87 107 103 113 96 146 147 158 165 173 175 180 175 167 171 170 175 178 174 171 160 182 134 162 145 130 155 139 141 156 150 142 139 141 148 150 154 154 153 153 159 133 91 72 78 
12 85 124 93 126 118 144 149 157 169 169 171 179 184 178 173 172 173 173 164 154 161 138 64 123 106 117 118 141 130 148 147 144 147 142 149 143 153 156 169 155 148 135 108 81 77 
11 112 165 108 113 103 142 146 162 169 168 180 180 187 177 176 169 170 165 174 137 118 25 43 122 75 108 9 100 142 137 146 145 153 149 148 152 154 169 169 167 150 133 96 88 114 
34 150 142 110 103 112 142 148 160 167 166 181 175 175 177 172 166 158 166 179 132 94 102 147 100 62 105 43 83 113 146 150 144 150 148 150 152 156 170 164 168 141 124 81 112 95 
62 98 131 105 148 113 141 147 168 169 170 173 178 175 175 167 154 154 176 186 173 169 165 154 132 100 100 124 89 84 149 139 155 152 152 149 161 156 166 170 162 142 106 93 101 112 
47 33 147 124 105 129 134 147 164 172 176 168 167 173 172 154 157 168 183 178 166 170 161 157 125 131 147 139 143 146 147 137 143 152 152 160 161 163 163 165 153 140 69 99 102 107 
33 11 151 135 149 126 138 141 141 167 168 166 163 171 157 158 163 175 170 171 155 163 161 146 112 154 149 130 143 149 152 138 141 145 155 156 166 162 158 164 149 135 63 90 73 92 
45 53 146 131 137 118 134 135 149 166 169 157 161 163 142 169 154 151 162 162 165 177 159 147 130 153 158 143 135 135 146 154 142 141 144 152 155 158 154 163 145 131 82 96 91 19 
36 44 45 130 159 143 133 140 152 154 162 155 168 160 167 155 144 141 162 171 170 124 113 118 137 135 125 144 154 141 142 147 139 138 142 150 156 163 153 164 144 121 51 79 122 31 
41 36 41 128 141 140 122 145 149 143 157 151 162 159 166 129 142 152 159 101 73 59 46 56 63 73 67 78 103 149 146 151 132 141 147 146 153 156 151 154 131 124 89 104 34 24 
40 36 37 24 102 96 131 135 149 145 149 156 157 157 155 142 138 102 68 54 19 42 56 65 39 57 51 40 48 83 133 142 139 131 144 153 149 150 148 141 123 109 132 123 20 36 
41 41 40 40 49 45 132 135 133 147 146 151 154 157 152 126 116 132 105 95 84 93 73 52 29 33 35 29 18 31 53 105 127 122 147 148 150 147 144 136 125 101 127 104 28 34 
36 36 38 36 45 58 109 133 132 146 155 158 156 162 150 128 147 165 166 147 140 139 131 135 126 139 135 124 119 100 104 108 109 125 146 156 152 141 140 126 120 102 123 22 29 29 
33 37 36 32 39 36 107 129 131 144 144 150 159 148 138 136 160 161 155 155 146 146 136 125 130 126 121 125 128 130 145 145 114 124 147 145 142 144 138 128 116 116 130 22 34 32 
34 37 37 38 40 29 116 126 122 139 140 142 148 143 134 142 141 149 147 144 132 118 100 83 104 99 105 118 127 128 133 144 147 121 144 147 150 143 134 114 115 107 35 31 32 33 
33 35 35 36 36 41 115 122 135 140 144 143 142 142 135 137 141 142 153 145 141 116 100 78 64 79 85 106 115 135 135 140 138 133 137 136 146 130 128 110 90 26 29 35 32 32 
34 36 37 36 36 20 119 118 135 138 132 142 143 134 134 133 141 148 149 146 144 133 121 114 110 104 110 116 122 134 142 131 139 142 125 136 136 128 118 118 16 29 29 32 29 31 
37 35 33 33 39 23 113 116 125 134 132 132 135 135 135 137 157 148 153 156 144 144 150 152 147 143 130 127 127 136 131 138 142 141 130 126 134 124 113 124 28 31 28 30 29 31 
38 39 35 34 33 24 114 120 126 133 131 131 128 125 127 133 151 150 155 156 164 168 163 162 160 160 155 146 143 148 146 137 140 134 130 122 121 115 120 14 33 30 30 29 33 32 
39 36 35 33 34 29 120 118 124 123 130 127 124 128 128 131 137 143 150 165 158 159 157 152 149 153 132 141 147 145 145 140 139 123 129 119 119 117 110 30 31 26 29 29 28 33 
34 38 32 37 22 129 121 122 125 121 127 123 126 119 122 122 127 133 133 137 143 134 136 126 129 123 119 123 128 140 138 140 124 108 121 119 118 110 33 28 29 29 29 28 31 33 
32 38 36 15 194 44 116 126 125 120 127 124 121 124 110 112 116 124 126 114 129 119 118 111 108 109 104 111 119 119 124 118 108 107 114 113 117 122 22 26 28 32 34 27 31 29 
34 37 28 218 136 28 115 128 125 119 113 123 111 115 117 118 103 104 111 105 104 101 99 96 91 87 98 99 100 108 108 101 105 106 109 114 113 94 27 27 26 29 30 31 27 35 
32 30 46 226 138 22 113 122 125 114 116 117 118 116 110 105 100 84 94 89 82 85 84 77 76 80 79 82 88 95 99 92 95 102 111 118 112 30 31 28 28 26 31 31 33 33 
176 191 202 208 164 22 115 123 124 124 121 113 115 105 108 105 100 91 84 78 79 78 78 75 75 72 74 74 76 84 84 93 94 100 108 115 122 54 81 22 28 29 31 31 29 34 
197 197 210 172 171 48 127 128 127 125 122 114 112 105 106 94 96 90 89 74 73 72 71 76 78 76 67 72 77 83 90 93 101 110 114 116 117 63 64 112 35 27 32 33 38 33 
184 204 211 167 164 174 83 126 132 127 122 117 100 107 109 107 98 93 86 79 79 70 76 70 71 74 72 82 83 94 100 100 104 103 113 111 55 56 66 92 164 127 23 29 34 35 
