P2
46 56
255
34 33 38 39 54 65 85 66 68 73 71 56 80 66 34 39 45 60 120 129 115 121 144 101 85 81 79 98 127 105 107 88 81 89 79 84 99 116 113 96 92 78 87 90 66 1 
34 31 36 41 44 59 69 70 64 64 47 49 45 39 37 39 58 92 112 90 82 86 78 91 86 92 95 107 115 115 115 94 94 86 96 95 102 114 104 88 98 87 65 88 71 59 
38 38 43 44 50 79 78 65 65 54 47 38 38 44 50 63 90 101 83 94 89 87 85 106 105 110 91 109 116 126 126 98 92 107 96 93 110 119 107 94 94 73 58 87 83 43 
30 35 32 38 51 55 37 60 58 53 56 44 46 55 73 103 109 116 115 116 130 147 140 128 106 116 112 129 134 128 118 119 118 118 126 106 111 122 99 80 97 80 61 90 63 53 
24 34 28 34 29 41 41 52 68 70 71 67 71 90 108 120 130 144 162 171 173 167 172 152 131 143 133 153 153 144 144 144 152 151 148 134 134 129 115 91 102 91 74 88 40 93 
23 38 28 31 34 39 55 77 93 87 88 78 102 139 153 165 180 182 184 184 186 187 178 184 158 167 153 169 180 168 163 176 174 172 170 169 156 142 144 128 95 119 62 92 58 61 
25 48 31 39 51 65 89 80 66 92 115 133 163 168 157 177 174 181 185 185 188 186 189 183 182 177 175 175 176 174 168 172 181 177 170 171 157 158 148 145 119 99 87 90 73 42 
33 28 35 38 63 72 100 123 137 152 158 165 168 172 166 166 172 173 179 181 180 185 190 188 184 185 179 176 180 172 174 172 179 175 167 171 167 159 155 144 139 103 107 78 70 52 
20 31 29 43 48 75 95 121 140 154 166 168 164 159 170 166 171 173 177 177 177 182 182 186 182 179 180 176 177 175 176 179 179 177 168 173 173 168 159 152 144 137 134 88 91 47 
21 26 39 43 54 75 100 117 144 157 164 172 170 170 169 168 170 173 175 178 184 193 195 190 188 182 184 186 184 182 179 181 182 183 179 175 178 179 170 166 149 153 155 98 83 53 
24 29 26 37 57 75 107 124 141 151 165 171 172 171 175 175 172 177 176 187 198 203 210 206 200 203 191 191 188 185 181 189 187 186 185 185 183 182 181 173 166 156 156 111 87 74 
23 24 29 38 55 88 106 121 140 151 166 171 177 179 176 177 176 178 183 188 196 209 210 209 213 206 203 195 190 188 188 189 188 185 184 185 187 182 182 176 170 164 156 121 104 63 
28 25 31 42 57 74 95 119 136 150 157 171 176 179 178 176 178 180 181 190 196 196 212 216 213 207 208 200 188 189 186 189 187 183 185 183 181 183 182 179 174 162 158 138 100 81 
23 28 30 33 46 61 85 116 125 146 152 166 176 178 182 179 180 184 186 189 197 204 209 217 215 205 201 199 195 192 187 190 186 186 188 185 182 182 178 177 171 170 160 140 92 62 
25 28 27 32 47 53 72 98 123 144 157 169 172 182 183 188 181 188 188 187 196 194 210 212 215 211 207 202 195 192 189 191 183 184 187 183 185 183 180 176 175 171 165 150 100 63 
29 28 36 28 41 68 91 107 126 143 154 165 173 180 182 182 190 191 189 192 198 200 212 214 213 211 205 200 193 193 193 189 188 189 182 187 184 183 182 178 177 175 163 149 96 64 
25 27 31 34 39 48 69 106 122 140 157 163 172 174 185 186 189 191 189 195 197 204 208 211 213 208 206 197 195 192 190 189 189 189 187 185 185 181 181 180 178 178 166 153 105 63 
35 37 28 34 36 53 81 101 127 149 156 161 171 178 181 181 189 190 196 197 200 201 204 208 212 209 202 198 192 191 193 191 187 187 187 184 184 188 184 183 177 178 169 151 86 52 
32 37 28 30 38 46 62 107 133 152 159 158 171 175 183 187 189 191 197 196 200 204 206 207 206 205 201 195 200 194 190 189 192 188 186 187 185 189 186 187 184 180 171 154 66 58 
40 36 29 27 34 47 88 127 141 150 156 160 171 180 182 188 190 189 199 200 200 196 201 203 201 196 199 193 190 189 190 188 194 186 186 187 187 189 185 186 182 184 176 156 137 49 
28 24 29 36 35 76 113 127 135 148 155 165 170 178 181 186 192 195 198 196 192 192 191 195 198 193 193 194 194 190 189 189 189 191 190 187 185 181 183 181 185 182 176 157 175 30 
36 29 34 32 43 109 119 124 136 142 151 158 170 180 180 180 189 198 197 190 184 182 185 187 187 189 191 194 191 192 190 192 194 194 197 194 191 189 184 181 180 166 162 162 109 58 
87 45 37 35 66 113 119 130 133 136 150 159 168 171 162 168 173 178 178 182 171 175 172 177 187 184 187 189 197 195 194 199 198 196 200 185 168 150 145 151 158 161 147 146 96 158 
152 78 51 44 88 119 128 130 136 134 140 138 140 154 153 163 157 165 132 131 138 141 144 152 163 164 176 186 188 190 190 203 192 183 162 138 124 123 140 143 162 178 161 136 105 172 
139 125 94 77 103 124 131 129 130 125 122 122 138 138 138 150 144 161 157 150 130 121 127 131 134 146 151 173 179 181 191 201 183 161 152 113 87 41 82 128 118 108 158 144 163 159 
117 118 102 113 114 128 133 138 135 126 118 124 126 134 138 130 118 85 70 107 103 83 94 107 104 121 137 163 173 184 181 185 168 104 119 181 105 85 173 191 168 122 130 153 159 89 
114 114 101 113 118 133 134 144 145 134 124 114 82 72 110 140 89 85 87 173 161 133 123 145 151 127 147 163 175 195 177 169 157 121 138 189 200 180 198 183 154 128 154 159 163 45 
139 122 101 113 121 130 136 149 152 150 143 116 114 125 150 171 161 158 164 176 153 129 129 155 168 141 146 155 168 203 183 171 139 154 150 143 152 149 175 166 166 149 169 164 166 40 
152 131 103 113 122 127 135 153 159 155 159 152 152 134 143 127 143 168 148 144 133 137 144 163 145 152 147 147 170 194 192 173 151 137 148 152 161 172 193 184 168 161 172 168 112 50 
146 134 100 112 118 125 131 151 159 160 158 158 159 159 148 149 147 152 144 145 149 145 161 161 156 153 147 156 168 182 194 176 172 142 148 163 168 176 187 182 172 170 174 171 66 54 
101 137 100 109 116 122 127 143 159 163 163 159 158 165 164 161 161 161 158 155 154 162 171 164 158 153 149 167 161 174 212 181 183 143 154 162 187 199 200 183 176 174 173 177 51 52 
185 144 100 104 115 117 125 141 158 160 158 159 159 163 167 166 163 159 164 163 175 175 171 159 156 155 159 170 166 164 212 181 182 155 155 166 166 178 182 177 178 169 169 180 39 51 
173 160 93 100 111 112 116 135 144 154 155 155 157 163 165 167 169 171 173 179 168 173 167 162 156 157 170 170 167 165 206 189 174 166 150 164 176 174 180 182 178 174 169 166 48 51 
156 168 115 95 110 113 120 131 142 152 157 154 159 161 160 164 168 168 169 170 169 173 163 159 158 162 166 170 168 171 202 199 187 175 161 171 172 172 179 181 173 168 167 126 49 52 
72 111 128 90 107 110 112 125 133 152 153 148 155 156 163 161 172 173 168 168 166 165 164 158 143 148 160 166 172 172 191 200 188 185 174 185 177 175 178 182 181 168 173 79 54 49 
37 36 29 79 96 112 112 126 137 144 153 157 163 164 163 171 171 172 170 168 167 163 160 137 133 157 160 166 171 157 184 201 187 181 167 195 190 181 179 183 178 174 180 50 55 55 
34 36 28 69 93 108 113 122 130 139 152 159 160 167 161 168 171 161 171 168 166 163 149 128 153 157 159 169 174 178 191 194 188 182 170 189 193 190 190 185 188 179 177 43 53 55 
39 34 36 84 82 99 112 117 131 143 151 152 163 166 165 165 166 168 175 177 180 161 147 127 145 152 147 166 167 175 206 198 186 185 172 167 195 193 191 187 187 180 141 52 54 47 
36 36 37 67 68 90 116 112 130 139 149 154 157 165 166 167 170 168 173 171 162 163 169 132 126 144 149 130 138 160 183 187 189 183 162 147 192 193 191 187 187 180 94 54 52 48 
38 38 40 40 84 81 108 111 123 138 150 154 161 163 166 168 170 169 171 166 170 176 178 169 119 101 86 83 97 119 156 177 196 140 132 143 188 184 190 191 187 187 55 51 56 50 
35 39 36 31 107 59 103 113 119 128 145 152 154 162 162 164 167 168 166 174 179 182 176 172 163 161 159 155 145 130 144 153 133 129 138 171 188 191 188 189 180 183 47 48 53 48 
31 42 42 34 105 66 84 106 112 125 135 145 156 159 162 161 166 168 174 172 171 172 175 171 163 167 168 171 171 180 162 140 130 141 161 183 187 183 188 187 178 124 47 56 53 51 
32 32 42 29 96 99 67 97 110 124 128 143 151 154 157 160 158 166 168 170 171 162 172 176 175 173 177 180 182 183 189 183 177 170 177 182 186 183 190 188 182 59 51 51 51 47 
34 32 35 32 90 108 64 79 99 115 128 138 144 146 157 158 160 163 156 167 168 162 171 171 179 165 169 174 171 168 175 182 183 184 187 191 190 185 183 184 168 35 47 47 56 48 
32 25 37 34 86 109 95 68 87 108 118 133 141 145 150 154 161 151 155 158 152 147 149 150 154 140 131 153 160 171 174 175 184 188 193 192 195 182 182 180 71 47 47 48 55 47 
34 31 37 35 76 101 106 60 78 91 113 123 134 141 149 149 155 153 164 128 105 97 86 81 80 80 89 107 112 121 117 105 92 100 114 139 183 185 181 149 45 48 48 46 49 45 
36 35 35 37 70 103 117 96 73 74 95 116 125 134 143 146 144 154 164 163 147 135 120 118 124 136 154 137 137 138 124 119 117 129 149 171 195 181 183 53 45 45 46 45 47 51 
33 36 34 21 66 105 111 109 65 82 78 98 108 120 127 140 147 153 158 166 156 143 130 123 119 132 156 150 151 140 138 148 158 159 172 187 184 179 95 46 47 47 46 45 47 49 
40 40 26 19 74 102 114 118 83 82 86 89 97 105 117 133 139 143 143 149 157 152 141 124 115 133 144 138 148 154 159 165 156 177 182 178 165 128 33 44 45 45 43 46 47 49 
42 32 19 6 77 99 109 120 110 61 90 92 86 94 100 115 132 126 136 131 138 150 152 153 143 146 155 147 143 151 158 165 174 177 171 169 169 36 42 41 44 42 42 46 47 42 
44 29 23 39 85 94 110 120 117 100 62 92 93 83 81 99 113 128 130 140 138 141 146 147 154 156 164 163 166 170 179 176 179 181 172 158 171 15 44 39 40 46 41 45 45 47 
29 23 16 68 87 95 109 117 128 119 87 64 84 98 94 81 97 114 125 130 133 137 148 151 152 164 167 167 173 180 182 185 182 176 164 160 160 16 44 31 33 39 40 43 48 45 
30 23 23 81 84 96 110 116 127 129 118 90 60 81 96 101 84 88 109 120 128 131 137 145 153 156 160 166 173 177 172 180 172 170 154 160 113 23 30 32 32 37 36 35 40 42 
32 28 46 84 88 95 104 116 121 130 133 114 93 59 69 85 97 86 89 107 117 123 127 134 148 152 160 169 172 178 186 186 168 144 162 166 57 21 32 47 35 25 36 42 36 36 
33 30 55 85 90 90 96 115 127 130 133 127 111 102 81 63 81 95 107 72 101 109 118 126 134 152 159 169 171 170 168 158 149 161 162 110 33 22 34 39 36 33 31 33 38 36 
31 32 46 91 89 91 103 112 125 133 134 130 126 110 116 105 77 75 87 103 103 93 99 113 119 136 144 144 144 142 145 160 166 158 136 64 19 26 34 35 39 43 33 32 38 34 
