P1
20 30
0000000000000000000000000000000000000000000000000011111111000000111111
1111111110000111111111111111000001111111000000000000011100000000000000
0001110000000000000000011100000000000000000111000000000000000001110000
0000000000000111000000000000000001110000000000000000001111110000000000
0000011111111000000000000011111111100000000000000011111100000000000000
0001111000000000000000001110000000000000000001110000000000000000011100
0000000000000001110000010000000000111000001110000000001110000001110000
0011110000000011111111111000000000011111111100000000000011111100000000
0000000000000000000000000000000000000000