P1
20 30
0000000000000000000000000000000000000000000000000000000000000000000000
0000000000000011111111111110000001111111111111110000011111111111111000
0001110000000000000000011100000000000000000111000000000000000001110000
0000000000000111011111100000000001111111111110000000011111111111110000
0001111000000111000000001100000000111000000000000000001111000000000000
0000011100000000000000000111000000000000000011100000000000000000111000
0000100000000011100000011110000001110000000011111111111000000000011111
1111000000000000011111100000000000000000000000000000000000000000000000
0000000000000000000000000000000000000000