P1
20 30
0000000000000000000000000000000000000000000000000000000000000000000011
1111111000000111111111111111000011111111111111100000111111000000000000
0011100000000000000000111000000000000000001110000000000000000011100000
0000000000001110000000000000000011100111111110000000111111111111110000
0011111111111111100000111110000000111100001110000000000111000001000000
0000011100000000000000000111000000000000000001110000000000000000011100
0001000000000001110000111000000000111000001111000000111100000001111111
1111100000000011111111110000000000001111110000000000000000000000000000
0000000000000000000000000000000000000000