P2
46 56
15
9 9 9 9 9 9 9 9 9 9 9 9 9 9 8 7 7 6 6 5 6 6 5 6 6 6 8 9 9 9 9 9 9 9 9 9 9 9 9 9 9 9 9 9 9 9
9 9 9 9 9 9 9 9 9 9 9 9 8 6 5 6 6 5 6 5 7 6 5 5 6 5 5 6 6 6 7 9 9 9 9 9 9 9 9 9 9 9 9 9 9 9
9 9 9 9 9 9 9 9 9 9 9 7 5 5 6 6 5 6 6 6 6 7 6 6 6 6 6 5 5 5 5 5 7 8 8 9 9 9 9 9 9 9 9 9 9 9
9 9 9 9 9 9 9 9 9 8 6 5 5 5 5 5 6 7 6 5 7 7 7 7 6 7 7 5 5 6 7 6 6 5 6 7 9 9 9 9 9 9 9 9 9 9
9 9 9 9 9 9 9 9 7 5 5 6 5 6 5 5 6 5 5 7 7 6 6 5 7 7 6 6 6 7 6 6 6 6 6 5 6 8 9 9 9 9 9 9 9 9
9 9 9 9 9 9 9 7 5 5 6 6 7 7 5 6 4 5 4 5 7 5 5 8 7 6 5 6 6 6 6 6 6 6 5 5 6 6 8 9 9 9 9 9 9 9
9 9 9 9 9 9 7 4 6 6 6 5 7 6 5 5 6 4 3 4 6 4 6 6 7 7 7 6 6 6 7 6 6 6 7 6 5 6 6 9 9 9 9 9 9 9
9 9 9 9 8 8 4 5 6 6 4 5 5 5 4 4 5 4 4 7 6 7 5 5 7 6 6 7 8 6 5 6 6 6 5 6 5 5 6 5 6 8 9 9 9 9
9 8 8 8 8 5 5 6 5 4 3 4 4 5 5 4 5 6 5 5 5 4 4 6 6 6 5 5 6 6 5 7 5 6 4 5 5 5 4 6 5 4 9 9 9 9
8 8 8 8 6 4 6 6 5 4 4 4 4 5 5 4 3 4 4 3 4 4 4 5 5 5 5 3 5 6 5 7 5 6 5 5 6 5 6 6 5 4 7 9 9 9
8 8 8 6 6 6 5 5 5 4 4 4 4 4 4 4 3 4 4 3 4 6 5 5 4 3 4 4 3 4 6 5 6 5 4 5 4 5 5 6 6 5 4 8 9 9
8 8 5 4 6 6 5 5 4 4 4 4 4 5 4 4 3 5 4 5 5 5 6 5 4 3 3 3 3 4 4 4 5 4 6 5 5 5 5 6 5 6 5 6 9 9
8 8 5 4 5 6 5 6 3 4 4 5 5 6 6 5 4 4 4 4 5 5 5 5 2 3 5 3 3 3 3 3 3 5 6 7 6 5 5 7 6 5 4 3 9 9
7 7 4 5 6 6 6 5 4 3 5 5 5 6 5 5 5 5 5 4 4 4 4 4 4 3 3 4 4 3 3 4 5 5 7 6 5 5 5 4 6 5 4 3 6 9
7 5 4 4 6 6 5 5 5 6 4 5 5 5 5 5 5 5 5 5 4 5 5 5 5 5 4 4 4 4 3 4 4 4 5 5 5 5 4 4 4 5 5 4 5 9
6 3 5 5 5 6 5 4 7 8 6 7 6 5 6 5 5 7 8 7 6 6 6 7 7 7 6 6 5 7 4 4 4 4 5 7 8 7 4 4 5 6 4 5 5 9
4 4 4 4 6 5 4 5 9 9 9 9 9 9 9 8 9 10 10 10 8 7 8 9 8 8 8 9 9 7 6 5 5 5 7 7 8 8 5 4 4 5 6 6 6 6
5 3 3 4 6 7 4 9 10 10 10 10 10 10 10 10 11 12 10 10 10 10 11 10 10 9 9 11 10 9 8 7 7 9 10 9 10 10 8 5 5 5 6 4 4 4
4 3 4 4 5 5 6 9 10 10 10 11 11 11 12 12 12 13 13 13 12 12 12 12 11 11 12 11 12 12 11 11 11 10 11 11 10 10 10 6 6 5 6 4 3 5
4 4 3 4 5 5 8 9 10 10 11 11 12 12 12 13 12 13 13 13 13 12 12 13 12 12 12 13 13 13 12 12 11 11 11 11 11 10 10 8 6 7 6 6 4 3
4 4 3 4 5 6 8 9 10 10 11 11 12 12 12 13 13 13 13 13 13 13 13 13 13 13 12 13 13 13 12 12 12 12 11 11 10 10 10 9 5 6 6 7 4 4
4 4 3 4 5 5 9 9 9 9 10 11 12 12 12 13 13 13 13 13 13 13 13 13 13 13 13 13 13 13 13 12 12 12 12 11 11 10 10 9 6 6 4 5 4 4
3 3 3 4 5 4 9 9 9 10 10 11 12 12 12 13 13 13 13 13 13 13 13 13 13 13 13 13 13 13 13 13 13 13 12 12 11 10 10 9 6 6 4 5 4 4
6 3 3 5 5 5 8 9 9 10 11 11 12 12 12 13 13 13 13 13 13 13 13 13 13 13 13 13 13 13 13 13 13 12 12 11 11 10 10 10 5 5 4 4 4 4
7 3 4 4 4 6 9 9 10 9 11 11 10 12 12 12 12 13 13 13 13 13 13 13 13 13 13 13 13 13 13 13 12 12 12 11 11 10 10 10 4 5 4 4 3 3
7 5 3 3 4 6 8 9 9 10 10 8 8 9 8 9 10 11 12 12 13 13 13 13 13 13 12 13 12 11 12 12 12 11 11 11 11 10 10 9 8 4 4 4 3 3
7 6 4 3 3 5 8 9 9 9 9 9 10 14 9 8 8 6 8 10 12 12 12 12 12 11 11 7 8 8 9 8 12 12 11 9 11 10 10 9 9 4 4 3 3 4
7 7 5 4 3 1 9 9 9 10 8 9 8 13 9 9 8 10 14 13 13 12 13 12 12 11 8 7 9 7 7 4 14 14 14 10 8 10 10 9 9 4 3 3 3 8
7 7 7 6 3 2 8 9 9 9 10 9 9 9 9 9 9 10 14 13 11 13 13 13 12 10 10 10 10 9 10 10 12 13 11 9 10 9 9 10 7 3 3 3 5 8
7 7 7 5 5 3 5 10 9 9 9 6 7 6 8 8 8 8 7 10 9 12 11 10 10 10 10 9 8 8 7 9 9 9 8 10 10 10 9 9 3 4 3 9 7 9
7 6 7 6 6 4 10 9 10 9 9 7 8 9 8 7 12 10 7 8 10 10 13 13 10 11 10 8 8 9 3 6 8 6 9 8 9 9 9 5 7 3 6 7 9 9
6 6 7 9 8 6 9 9 9 10 11 10 9 9 9 10 11 10 11 10 9 12 13 13 12 10 11 11 10 10 10 9 10 9 9 9 8 6 10 10 9 3 9 8 10 8
7 5 8 10 6 8 9 9 9 11 11 11 11 11 11 11 11 12 11 13 8 12 13 12 13 7 11 12 12 11 12 11 11 11 11 11 8 10 10 10 10 3 11 10 9 8
6 6 9 9 6 8 9 10 10 10 11 11 11 12 12 12 12 12 11 10 10 11 13 12 12 9 11 12 12 12 11 11 11 11 12 12 10 11 10 10 10 2 10 10 10 8
7 6 9 10 6 8 9 10 12 10 11 12 12 12 12 12 12 12 10 10 10 11 13 12 12 11 10 11 12 12 12 12 12 12 11 11 10 11 11 10 9 8 10 10 11 8
6 7 10 9 8 8 9 10 11 9 12 12 12 12 12 12 12 10 9 10 11 12 12 12 12 11 11 9 12 12 12 12 12 12 12 11 10 10 10 9 8 12 8 11 10 8
7 7 9 9 9 8 8 10 10 10 11 11 10 11 11 11 11 11 11 9 11 12 13 12 12 11 11 11 9 11 13 12 12 12 11 10 11 11 10 9 8 12 9 10 8 8
6 7 6 10 10 9 8 10 10 10 10 11 11 11 11 12 11 8 11 10 11 12 13 13 12 11 11 10 12 10 10 10 11 11 11 11 11 11 10 9 8 9 11 10 8 8
6 7 6 10 10 10 8 9 10 11 11 11 11 12 12 12 11 9 8 8 9 10 11 10 10 10 9 10 12 12 12 12 12 12 12 12 11 11 10 9 8 10 10 10 8 8
6 7 6 6 10 11 8 9 10 10 11 11 12 12 12 12 12 10 7 5 5 7 9 9 8 9 8 11 12 12 12 12 12 12 11 11 11 10 9 9 9 11 10 8 8 8
6 6 6 6 7 9 8 9 10 10 11 11 12 12 12 12 12 11 11 10 7 6 7 9 10 10 11 11 12 12 12 12 12 12 11 11 11 10 9 9 10 11 11 7 8 8
7 6 7 6 6 6 8 9 10 10 10 11 11 12 12 11 11 11 11 11 11 11 11 10 11 11 11 11 12 12 12 12 12 12 11 11 10 10 9 9 9 10 8 8 8 8
6 6 6 6 6 6 7 8 9 10 10 11 11 11 11 11 11 12 12 12 12 12 11 11 11 11 11 11 11 12 12 12 12 12 11 11 10 10 9 9 8 8 7 8 7 7
6 6 6 6 6 6 6 8 9 10 10 11 11 11 11 10 9 10 9 9 10 9 11 10 10 10 11 11 11 10 11 12 11 11 11 10 9 9 9 8 7 7 7 7 7 7
6 6 6 6 6 6 6 8 8 9 10 11 10 11 11 9 6 6 7 7 8 8 8 7 8 7 7 7 7 7 10 11 11 11 11 10 10 10 9 7 7 7 7 7 7 7
6 6 6 7 6 6 6 7 8 8 9 11 11 11 11 11 11 10 10 10 11 11 11 11 11 11 11 10 10 11 11 11 11 11 11 10 10 9 9 7 7 8 7 7 7 7
6 6 6 6 6 6 6 6 8 8 9 10 11 11 11 11 11 11 10 9 9 9 10 10 10 10 11 11 11 12 12 12 11 11 10 10 9 9 7 7 7 7 7 7 7 7
6 6 6 6 6 6 6 6 7 8 8 9 10 11 11 11 11 11 11 11 10 10 10 9 10 10 11 11 11 12 12 11 11 10 10 9 9 9 7 7 7 7 7 7 7 7
6 6 6 6 6 6 6 6 9 7 8 9 9 10 10 11 11 11 11 11 11 11 11 11 11 11 11 11 11 11 11 11 10 10 10 9 9 8 7 7 7 7 7 7 7 7
6 6 6 6 6 6 6 6 9 8 7 8 9 9 10 10 11 11 11 12 12 12 12 12 12 12 11 11 11 11 11 10 10 9 9 9 7 9 7 7 7 7 7 7 7 7
6 6 6 6 6 6 6 12 8 9 7 7 8 8 9 9 10 11 12 12 12 12 12 12 13 12 12 11 11 10 10 10 10 9 9 7 9 8 7 7 7 7 7 7 7 7
6 6 6 6 6 6 4 14 8 9 8 7 8 8 8 9 9 10 11 11 11 12 12 12 12 12 11 11 10 10 10 9 9 8 7 9 9 9 7 7 7 7 7 7 7 6
6 6 6 6 6 6 12 13 9 9 9 7 7 8 8 8 9 9 9 10 11 11 11 11 11 11 11 10 10 9 9 8 8 7 9 9 10 13 6 7 7 7 7 7 6 6
6 6 6 6 7 5 13 14 9 9 9 8 6 7 8 7 7 8 8 9 9 10 10 9 10 10 10 9 9 9 8 8 8 8 10 10 10 12 8 7 7 7 7 7 7 6
7 8 8 10 11 12 13 14 9 9 9 8 8 7 7 8 7 7 7 7 8 8 8 9 8 8 8 8 8 7 8 8 8 9 10 10 10 13 12 7 7 7 7 6 6 6
9 8 12 13 13 12 13 14 8 10 10 9 8 7 7 7 7 7 7 7 7 7 7 7 7 7 7 7 7 8 8 9 9 10 10 10 10 14 12 13 8 8 7 7 7 6
