P2
46 56
15
9 9 9 9 9 9 9 9 9 9 9 9 9 9 9 9 7 7 7 6 7 7 8 7 8 9 9 9 9 9 9 9 9 9 9 9 9 9 9 9 9 9 9 9 9 9
9 9 9 9 9 9 9 9 9 9 9 9 8 6 6 6 6 6 6 6 6 5 4 6 5 5 7 6 7 7 9 9 9 9 9 9 9 9 9 9 9 9 9 9 9 9
9 9 9 9 9 9 9 9 9 9 9 6 5 5 6 6 5 5 5 7 7 6 7 7 6 5 6 5 5 5 6 8 8 9 9 9 9 9 9 9 9 9 9 9 9 9
9 9 9 9 9 9 9 9 9 9 5 5 5 6 5 5 7 7 6 6 7 6 6 6 6 6 6 6 6 6 7 5 5 7 8 9 9 9 9 9 9 9 9 9 9 9
9 9 9 9 9 9 9 9 6 5 5 6 6 5 5 6 7 7 6 8 7 7 7 7 6 7 5 6 6 7 6 6 5 6 6 6 7 8 9 9 9 9 9 9 9 9
9 9 9 9 9 9 9 5 5 4 6 5 5 5 6 5 5 5 7 7 6 6 6 7 7 6 6 6 7 6 7 6 6 6 6 6 6 6 9 9 9 9 9 9 9 9
9 9 9 9 9 9 5 5 6 6 6 7 7 6 5 4 5 5 5 6 6 5 7 7 6 6 6 7 6 6 6 7 7 5 6 6 7 6 6 9 9 9 9 9 9 9
9 9 9 9 9 5 4 7 5 5 6 6 5 5 6 5 4 4 5 6 5 6 7 7 7 7 6 6 6 7 6 6 7 6 6 5 6 7 6 7 7 9 9 9 9 9
9 8 8 8 7 5 5 6 5 4 5 5 5 4 4 4 4 4 4 5 5 5 6 7 7 7 7 7 6 6 6 6 6 5 6 5 5 5 6 6 5 7 9 9 9 9
8 8 8 7 4 7 6 4 3 4 4 4 6 4 5 6 6 6 7 5 5 5 5 7 6 6 6 7 6 5 6 5 6 4 5 5 6 5 7 6 5 3 9 9 9 9
8 8 7 5 5 6 6 5 3 4 4 4 5 4 3 3 4 4 3 4 4 5 6 4 5 5 4 6 5 5 7 5 5 5 4 6 5 5 5 6 5 5 5 9 9 9
8 7 5 6 6 6 5 6 4 5 4 6 4 4 4 4 4 4 3 4 5 6 5 3 6 4 4 3 5 6 6 6 6 4 4 5 5 5 6 5 6 5 5 8 9 9
7 5 5 6 5 5 5 5 4 4 4 5 4 4 4 4 4 4 5 5 5 6 3 3 5 3 3 3 4 5 4 5 4 6 5 5 5 5 6 6 6 6 4 5 9 9
7 4 4 6 6 6 5 5 4 4 4 5 6 5 4 5 4 5 4 5 5 5 4 3 4 4 3 3 3 4 4 4 5 7 7 6 4 5 6 6 5 4 4 4 8 9
5 4 5 6 6 5 5 4 5 4 5 5 6 5 5 5 5 5 4 4 5 4 4 3 4 4 3 4 3 3 4 5 5 6 6 5 5 5 4 6 5 4 4 5 6 9
4 4 5 5 6 5 5 6 6 5 5 4 5 5 4 4 5 5 5 4 5 5 5 5 5 4 5 4 4 4 3 5 5 6 6 6 6 5 4 4 5 4 5 5 6 9
4 5 4 5 5 5 4 8 8 6 6 6 5 6 4 5 6 7 6 5 5 6 6 7 7 6 5 5 6 4 4 4 4 5 8 8 8 6 4 4 6 5 4 6 5 8
4 4 3 6 6 3 7 10 9 9 9 9 8 8 9 9 9 9 9 8 7 8 8 8 8 8 8 8 7 6 5 5 5 7 7 9 9 9 4 5 5 5 7 6 7 4
3 3 4 5 5 4 9 10 10 10 10 9 9 10 10 11 11 10 10 10 9 10 11 8 10 10 11 10 8 8 6 7 9 10 10 11 10 10 7 5 6 6 6 4 4 4
3 4 4 5 4 7 9 10 10 10 11 11 11 11 12 12 12 12 12 11 12 12 12 11 10 12 11 11 12 11 11 11 11 11 12 11 10 10 8 6 5 6 5 4 4 4
4 3 4 4 5 8 9 10 10 11 11 11 12 12 12 13 13 13 13 13 13 12 13 12 12 12 13 13 13 12 12 12 11 12 11 11 11 11 10 5 7 7 5 5 3 4
4 3 4 5 5 9 9 9 10 11 11 12 12 12 13 13 13 13 13 13 13 13 13 13 13 13 13 13 13 13 13 12 12 12 12 11 11 11 10 7 7 6 5 5 4 4
4 3 5 5 4 8 9 9 10 11 12 12 12 13 13 13 13 13 13 13 13 13 13 13 13 13 13 13 13 13 13 12 13 12 12 11 10 10 10 8 6 5 5 5 4 4
3 3 5 5 4 9 9 9 10 11 11 12 12 12 13 13 13 13 13 13 13 13 13 13 13 13 13 13 13 13 13 13 13 12 12 11 10 10 10 8 6 6 4 4 4 4
3 3 5 4 5 9 9 9 10 11 12 12 12 12 13 13 13 13 13 13 13 13 13 13 13 13 13 13 13 13 13 13 13 12 12 11 11 10 10 9 5 6 6 4 4 5
5 4 4 4 5 9 9 10 10 11 11 11 12 12 12 13 13 13 13 13 13 13 13 13 13 13 13 13 13 13 13 13 13 12 12 11 11 10 10 10 4 5 5 4 3 3
6 4 3 4 5 9 9 10 10 11 9 9 10 10 10 11 12 12 13 13 13 13 13 13 13 13 13 12 12 12 12 12 11 12 12 11 11 10 10 10 5 4 4 4 3 4
7 5 3 3 4 9 9 9 10 10 11 11 11 8 7 7 8 10 11 12 13 13 13 12 12 11 9 9 8 9 8 8 7 8 9 11 10 10 10 10 6 3 3 3 3 6
7 7 5 3 1 9 9 9 9 8 9 5 13 7 7 8 10 11 13 11 12 12 12 12 11 10 10 8 6 6 8 11 14 13 13 8 10 10 10 10 5 2 3 3 3 8
7 8 6 4 2 9 9 8 9 10 9 10 9 10 9 9 7 14 14 8 13 13 13 12 10 9 10 9 10 10 10 10 13 12 8 10 9 10 10 10 4 4 3 6 6 9
7 8 4 5 4 10 10 9 9 8 7 7 7 7 8 8 8 8 10 8 14 13 11 13 10 10 9 8 9 7 9 10 9 9 9 10 10 10 10 7 4 4 6 9 9 9
7 9 6 7 3 9 8 10 9 8 7 8 8 7 7 11 9 8 7 9 10 12 12 9 11 10 9 7 9 5 5 8 6 8 8 9 10 7 7 10 5 4 8 7 9 8
7 9 9 9 5 9 8 9 10 10 10 8 9 10 10 11 10 11 9 8 12 13 13 10 12 11 11 11 11 10 10 10 8 10 10 9 6 9 11 10 6 2 11 10 8 8
7 9 9 8 7 9 10 9 11 11 11 10 10 10 11 11 12 11 10 8 12 13 13 12 11 12 12 11 10 11 11 11 11 11 11 8 9 10 11 10 7 6 11 10 9 8
7 9 9 7 8 9 10 9 11 11 12 12 12 12 12 12 12 9 10 10 12 13 13 11 8 11 12 12 12 12 11 12 11 12 12 11 12 10 11 10 8 6 10 10 11 8
7 8 8 8 8 9 9 10 10 11 12 12 12 12 12 12 12 10 10 10 12 13 12 12 11 10 12 12 12 12 12 12 12 12 12 10 12 11 11 10 8 10 9 11 11 8
6 6 9 10 8 9 10 10 11 12 12 12 12 12 12 12 10 9 10 11 12 12 12 13 11 11 9 12 12 12 12 12 12 12 12 10 10 11 10 9 9 12 8 10 10 8
7 6 10 9 10 9 10 10 10 11 11 12 12 13 11 10 11 10 10 12 12 12 12 12 11 11 11 9 13 12 12 12 12 12 11 11 11 11 10 9 8 9 11 10 8 8
6 6 9 10 10 8 9 10 10 10 10 11 11 11 11 11 9 11 10 12 12 13 13 12 11 12 10 11 8 10 9 10 11 10 12 12 11 11 10 9 9 11 10 11 7 8
7 6 6 10 10 8 9 10 11 11 11 12 12 12 11 10 9 9 9 10 12 12 11 11 11 10 10 12 12 12 12 12 12 12 12 12 11 11 10 9 11 11 11 10 8 8
6 7 6 8 10 8 9 10 10 11 11 12 12 12 12 11 10 5 4 7 8 10 9 9 8 7 11 12 12 12 12 12 12 11 12 11 10 10 9 8 10 11 11 8 8 8
6 6 7 6 7 8 9 9 10 11 11 11 12 12 12 12 11 10 6 6 5 7 8 10 10 11 11 12 12 12 12 12 12 11 11 11 10 10 9 8 10 11 9 8 8 8
6 6 7 7 7 7 9 9 10 10 11 11 12 12 11 11 11 12 11 10 10 10 10 11 11 11 11 12 12 12 12 12 12 12 11 11 10 10 9 8 8 8 8 8 8 8
7 6 6 6 6 7 8 9 10 10 10 11 11 11 11 11 11 12 12 12 12 11 10 11 11 11 11 12 12 12 12 12 12 11 11 11 10 10 9 8 8 7 8 7 8 8
7 7 6 6 7 6 8 9 10 10 11 11 11 10 9 9 10 9 10 10 10 11 10 10 11 11 11 11 10 11 12 12 11 11 11 10 10 9 9 7 8 8 8 7 7 7
6 6 6 6 6 6 7 8 9 10 11 10 11 10 8 5 6 6 6 8 8 8 8 8 8 7 7 8 7 9 11 11 11 11 11 10 10 9 8 7 7 7 7 7 7 7
6 6 6 6 6 6 7 8 8 9 11 11 11 12 11 11 10 10 10 12 11 11 11 11 11 11 10 10 11 11 12 11 11 11 10 10 10 9 7 7 7 7 7 7 7 7
6 6 6 6 6 6 6 8 8 9 10 11 11 11 11 12 11 10 9 10 10 10 10 10 10 11 11 11 12 12 12 11 11 10 10 10 10 9 7 8 7 7 7 7 7 7
6 6 6 6 6 6 6 8 8 8 9 10 10 11 11 11 11 11 10 10 9 9 9 10 10 11 11 11 12 12 11 11 10 10 10 10 9 7 7 7 7 7 7 7 7 7
6 6 6 6 6 6 6 8 7 8 8 9 10 10 11 11 11 11 11 11 11 11 11 11 11 11 11 11 11 11 11 10 10 10 10 9 8 7 7 7 7 7 7 7 7 7
6 6 6 6 6 6 4 11 9 7 8 8 9 10 10 11 11 11 12 12 12 12 12 12 12 12 12 11 11 11 10 10 10 9 9 8 10 7 7 7 7 7 7 7 7 7
6 6 6 6 6 6 11 11 9 8 7 7 8 9 9 10 11 11 12 12 12 12 12 13 12 13 11 12 11 10 10 10 9 9 8 10 10 7 7 7 7 7 7 7 7 7
6 6 6 6 6 4 13 9 9 9 7 8 8 8 9 9 10 11 11 12 12 12 12 12 12 12 11 11 10 10 10 9 9 8 9 10 7 7 7 7 7 7 7 7 7 6
6 6 6 6 7 11 13 9 9 9 8 6 8 8 7 9 9 10 10 11 11 11 11 11 11 11 10 10 10 10 9 8 7 9 10 10 7 13 6 7 7 7 7 6 6 7
7 7 9 8 12 12 13 10 9 9 8 7 7 8 8 7 8 8 9 10 10 10 10 10 10 10 9 9 9 8 7 7 8 10 10 10 7 13 7 7 7 7 7 7 6 6
8 9 13 13 13 13 13 12 10 9 9 8 7 7 8 8 8 7 7 8 8 8 8 8 9 8 9 8 7 7 8 8 9 10 10 10 8 13 11 9 8 7 7 6 6 7
