P2
46 56
255
96 98 98 97 97 98 98 103 96 101 97 82 36 35 30 34 30 27 26 53 51 46 53 42 34 34 33 30 28 36 41 61 78 91 88 90 49 82 93 96 90 92 92 91 96 94 
96 99 99 98 97 98 98 96 99 91 52 52 47 34 53 42 50 45 38 34 38 30 29 31 30 29 29 23 29 36 38 34 31 37 37 44 72 40 78 91 92 92 94 95 92 95 
99 97 99 101 99 98 99 99 70 51 50 57 59 64 50 46 33 31 32 27 26 25 30 29 25 24 26 28 33 34 29 33 27 27 24 25 31 28 35 76 96 91 94 90 93 92 
100 100 96 96 98 100 94 72 50 45 80 33 56 72 84 63 53 38 42 49 42 37 32 29 27 25 40 44 35 39 31 39 38 31 30 28 26 26 31 58 88 88 93 95 93 95 
99 99 98 97 99 76 66 59 51 34 30 28 29 30 28 33 33 57 62 46 43 32 32 34 34 40 41 41 38 34 37 30 36 29 30 29 29 28 22 23 65 49 84 90 91 96 
97 95 100 100 82 68 71 51 38 41 49 36 49 33 37 46 56 53 49 55 48 57 54 51 48 46 34 28 28 32 34 31 31 27 27 30 30 25 22 27 51 61 38 84 95 94 
98 98 98 94 66 60 53 65 56 80 70 78 46 54 45 50 52 61 57 47 36 29 30 46 51 51 35 38 38 32 34 33 27 23 23 24 25 36 22 23 33 56 87 32 66 96 
95 100 76 59 40 55 53 46 33 28 44 45 46 48 49 60 60 42 48 43 48 39 39 37 32 31 49 55 64 65 75 66 39 30 40 28 27 47 35 35 31 44 53 82 33 102 
97 79 30 36 43 77 25 18 27 52 46 41 42 47 56 59 69 71 47 32 36 44 48 63 65 82 97 83 37 40 42 56 55 39 31 33 36 37 33 50 49 53 48 59 51 98 
87 28 29 22 65 26 24 62 74 72 64 52 45 38 48 53 99 39 52 71 105 117 131 133 148 152 158 153 147 123 81 46 35 35 37 41 44 51 38 47 59 59 51 62 40 96 
29 24 21 55 46 19 71 87 67 80 90 83 77 56 36 68 90 107 117 128 168 172 171 177 176 171 173 168 169 166 163 149 72 67 63 78 84 60 47 53 60 48 36 40 34 100 
19 23 37 43 41 39 102 72 48 72 95 74 47 24 56 136 150 155 172 182 186 185 183 179 180 178 179 173 170 166 166 166 153 113 82 77 78 83 52 50 57 40 25 27 30 89 
19 35 31 56 26 86 74 72 73 28 30 21 23 42 134 154 165 183 183 186 188 184 185 185 181 179 176 169 169 164 168 165 154 147 126 119 126 112 79 53 54 29 27 24 28 48 
19 28 29 60 29 71 113 111 94 96 79 69 80 130 161 179 185 187 186 190 190 188 186 185 184 181 180 173 170 168 165 164 162 149 139 132 141 113 96 50 58 28 26 24 25 30 
21 25 43 73 56 69 126 148 157 164 169 170 181 181 186 189 186 187 188 192 189 188 187 189 187 182 178 176 173 170 163 163 155 153 146 144 143 109 105 60 38 35 24 22 23 32 
26 22 69 86 67 114 143 148 157 161 168 175 184 187 186 189 188 189 188 190 192 189 188 190 189 188 182 168 172 169 160 164 150 145 139 141 139 111 96 74 40 22 23 26 29 24 
27 21 79 103 99 129 136 142 152 160 166 171 178 183 186 185 187 188 189 190 192 191 188 193 189 186 181 171 173 165 161 158 147 149 142 141 132 107 89 66 37 21 22 28 24 13 
31 22 62 108 126 127 136 139 148 160 164 167 170 175 183 184 188 184 188 186 188 188 188 188 187 186 180 169 173 164 159 154 150 145 142 143 138 122 82 39 32 24 22 23 29 14 
27 20 43 103 125 121 133 138 137 154 159 166 173 171 178 182 181 186 183 188 189 189 189 189 187 183 177 171 166 155 153 155 151 141 139 140 135 125 83 43 32 26 30 23 26 16 
23 19 38 101 124 123 131 138 140 151 150 163 170 171 174 172 175 178 184 185 186 187 183 185 181 180 178 171 168 161 157 152 150 140 140 137 129 129 93 41 30 22 24 27 27 22 
31 25 27 97 120 127 128 132 147 152 161 162 170 166 173 176 179 183 181 180 183 182 183 181 179 175 179 172 169 166 163 154 144 140 136 135 131 128 118 63 27 25 22 29 34 44 
52 28 18 100 116 126 123 130 146 149 157 164 171 167 170 174 174 183 184 182 183 182 185 185 180 179 178 173 169 171 162 152 145 139 136 131 128 121 121 107 37 27 27 33 51 65 
66 38 14 99 114 119 124 128 140 147 155 165 167 175 175 184 176 187 184 182 180 179 180 184 183 185 183 180 171 171 167 157 154 149 145 134 125 122 120 115 68 32 36 85 88 71 
65 71 11 98 104 108 126 139 141 155 157 164 173 171 169 171 150 164 181 182 179 177 174 172 175 177 178 164 156 145 134 132 127 121 128 127 123 121 113 120 76 39 95 110 103 81 
61 65 55 88 95 107 111 107 110 124 130 134 136 148 154 157 155 167 171 171 169 163 156 145 139 121 101 90 90 107 125 130 129 126 120 120 119 125 121 120 65 84 115 125 99 87 
64 61 62 77 90 88 76 86 100 105 90 77 73 85 95 119 136 147 156 155 158 148 143 125 129 134 134 100 116 109 119 160 138 113 112 105 118 123 94 108 94 55 89 117 92 90 
64 64 66 54 94 86 74 86 97 104 116 115 106 101 86 96 104 120 133 126 122 116 101 113 118 116 117 111 108 108 110 107 114 121 115 108 95 116 106 77 109 93 103 124 87 92 
66 65 70 50 71 87 88 85 75 79 80 82 77 85 87 88 89 109 118 154 169 154 119 115 108 105 93 99 83 91 99 89 103 105 114 116 120 113 107 67 105 131 105 142 85 90 
62 66 91 78 66 114 84 69 43 75 116 101 94 94 113 92 98 90 108 123 136 148 99 127 119 96 109 148 92 70 99 124 105 118 113 130 127 97 68 91 105 107 130 120 82 90 
63 66 40 83 67 108 121 84 55 90 132 124 111 131 130 118 124 110 123 156 186 174 97 133 126 111 104 118 133 139 129 119 103 116 106 126 134 99 90 102 107 99 145 130 79 91 
60 64 59 94 64 92 121 116 102 86 84 98 98 109 133 141 137 107 90 167 189 178 100 99 131 131 114 119 132 133 115 111 107 108 115 122 127 107 98 112 112 93 143 128 80 92 
62 61 62 99 64 88 119 132 118 112 95 116 117 115 113 130 141 150 102 168 179 175 160 90 111 149 142 127 110 116 118 125 125 133 130 130 123 127 106 115 110 103 134 106 87 91 
63 62 65 66 68 87 109 127 133 130 118 118 118 119 136 143 127 95 120 168 189 172 153 123 103 122 149 141 141 138 137 147 147 147 141 137 122 130 116 118 110 110 117 110 87 91 
62 65 62 53 116 81 102 122 133 143 136 141 138 143 142 133 114 114 130 163 185 172 150 147 114 122 149 153 148 150 148 148 146 153 143 134 129 113 129 113 111 107 88 83 90 90 
62 58 62 60 64 159 93 118 126 140 141 150 150 149 137 127 83 123 133 157 186 173 161 151 144 103 137 138 148 149 147 152 143 133 148 152 113 115 123 116 110 105 77 90 88 89 
65 65 63 62 74 81 115 160 130 128 132 135 138 137 140 94 91 117 138 148 189 181 155 149 139 154 95 97 156 161 181 178 167 144 122 105 119 123 126 116 112 104 80 87 87 92 
64 64 64 61 64 81 83 92 95 96 103 102 100 112 124 136 111 124 135 147 181 186 156 156 140 149 140 122 124 130 130 129 136 131 136 120 132 117 120 117 110 96 96 84 90 90 
67 64 65 67 61 87 91 97 109 117 122 130 132 132 132 133 116 127 133 156 170 203 161 155 143 132 114 136 127 109 127 128 136 127 128 123 120 118 119 113 109 100 96 145 97 88 
63 67 61 61 59 81 91 92 102 116 124 130 130 127 118 127 97 77 104 143 147 151 141 119 91 73 117 131 139 127 105 118 124 123 118 111 114 116 119 116 107 91 84 136 139 156 
65 64 64 61 59 72 84 92 95 104 114 111 107 113 121 133 118 73 41 83 108 112 102 73 104 125 133 128 144 141 125 101 114 116 116 109 113 119 115 113 108 57 95 82 120 111 
66 67 59 63 60 60 81 97 92 99 96 103 107 110 119 137 121 119 60 56 50 58 74 118 136 133 130 124 135 131 131 114 105 116 115 114 117 119 117 110 112 15 115 96 132 146 
63 60 60 62 66 62 79 90 97 99 101 100 103 109 117 121 125 129 117 94 95 111 123 125 138 139 132 131 123 118 124 121 115 122 113 116 116 118 114 107 98 6 130 98 110 137 
66 61 60 61 56 89 138 76 92 105 108 116 111 110 100 84 107 118 128 117 117 137 138 135 113 109 111 105 91 72 85 117 121 127 115 117 115 112 111 103 89 25 102 102 98 142 
61 61 60 50 130 141 134 77 84 104 110 124 121 120 108 106 55 58 64 72 73 80 92 83 75 50 59 93 91 129 122 121 122 124 119 113 112 106 103 77 91 35 93 111 120 149 
62 61 56 129 143 145 99 117 71 87 101 113 126 130 140 142 112 110 122 89 67 64 66 75 90 106 107 102 122 133 139 127 131 122 114 110 107 104 86 76 85 44 93 125 136 128 
66 113 128 155 149 146 85 112 102 74 90 107 123 124 134 142 117 104 104 146 142 142 129 127 119 107 105 113 123 130 129 118 121 120 110 107 100 95 62 82 77 46 88 156 125 116 
146 156 140 156 152 152 97 113 112 64 73 92 113 119 121 139 133 102 95 100 112 116 114 111 105 98 106 121 128 134 122 118 112 109 104 98 91 53 70 88 71 67 104 153 122 112 
160 158 149 163 161 151 95 111 119 78 61 72 96 108 116 129 139 131 105 82 81 75 73 82 89 107 120 129 127 125 121 111 106 109 97 89 61 65 86 81 58 85 112 142 127 108 
163 163 159 159 163 143 99 120 126 74 55 52 78 92 103 113 130 142 127 125 113 114 116 127 125 128 134 125 133 121 117 106 100 93 83 54 61 82 87 74 84 95 127 141 133 99 
165 166 161 153 175 149 104 134 135 109 91 63 42 69 84 102 117 138 151 150 144 147 145 142 134 142 139 123 120 113 109 94 85 80 47 59 74 87 76 67 81 111 115 126 122 108 
174 174 165 173 147 152 117 154 149 144 92 49 59 35 68 85 97 118 126 135 142 139 152 148 140 137 114 112 110 103 88 77 74 49 55 64 88 85 69 98 115 38 32 54 77 31 
177 179 180 173 166 155 133 168 174 158 117 81 57 46 32 52 73 96 118 117 127 126 131 131 129 122 112 104 95 78 73 66 51 54 67 86 88 116 122 123 82 101 106 122 147 113 
171 178 176 168 147 164 140 161 174 172 129 114 71 52 39 31 28 64 87 95 96 97 102 104 99 102 92 77 66 72 51 44 52 63 74 102 120 102 92 100 138 118 122 126 147 110 
175 175 166 181 164 156 144 118 161 171 154 137 84 70 51 36 29 36 36 56 68 73 75 73 78 72 68 61 50 47 46 52 66 75 102 100 97 118 148 139 153 103 123 121 85 75 
177 152 151 169 154 145 123 120 162 179 162 140 86 106 62 45 39 27 31 31 30 33 33 39 40 44 46 47 47 47 49 64 91 91 99 146 155 152 150 148 137 106 111 79 105 134 
141 165 146 144 160 131 94 131 166 101 62 53 48 103 106 71 52 32 43 37 32 36 31 30 33 36 35 41 45 56 94 120 149 142 158 149 144 145 150 132 107 109 103 117 129 127 
