P2
46 56
255
37 34 39 41 42 41 32 35 36 38 29 37 36 42 37 40 32 33 37 35 38 36 39 32 33 34 43 35 37 54 42 36 43 44 28 36 28 29 43 39 28 23 32 24 39 33 
40 42 44 34 39 38 40 41 47 31 33 42 55 47 54 51 65 65 42 43 43 42 48 46 53 58 53 54 64 64 72 75 75 68 37 35 36 48 64 59 28 26 22 21 35 33 
34 40 32 33 38 39 42 38 24 33 40 66 43 63 71 82 102 109 99 88 74 56 60 63 68 77 75 83 85 87 89 88 90 83 76 61 53 64 64 59 27 24 28 23 30 31 
47 48 27 36 28 30 40 42 43 46 66 35 62 78 90 106 111 117 114 113 116 114 112 105 105 106 100 101 103 97 101 96 91 92 88 77 73 77 82 77 42 30 35 30 31 32 
43 45 38 28 33 42 73 67 61 52 78 56 86 106 117 124 123 123 120 114 119 114 114 111 112 113 111 106 107 104 104 96 96 93 95 90 94 93 97 96 64 58 21 33 35 37 
42 75 49 36 39 77 92 71 77 48 60 109 125 123 128 123 124 123 120 116 117 117 123 117 117 113 113 115 111 108 107 106 102 97 101 101 93 95 97 100 101 65 49 26 47 36 
53 98 67 40 71 54 60 75 83 121 140 140 137 128 127 130 128 128 125 126 120 119 116 118 122 121 114 113 110 111 107 111 105 103 103 103 96 98 101 104 108 78 75 31 55 51 
70 59 72 63 107 128 107 120 142 149 153 145 143 137 133 132 135 137 134 130 123 126 126 128 128 128 118 116 112 117 116 114 108 107 102 101 102 105 104 105 109 93 77 60 47 47 
94 57 46 115 133 123 140 165 161 154 161 152 146 141 139 141 134 134 138 133 128 121 124 123 131 126 126 123 120 115 117 115 107 111 114 109 107 112 110 113 109 102 97 71 48 45 
83 61 74 135 126 155 156 173 172 165 166 163 147 147 141 140 140 142 150 142 136 139 131 126 137 127 130 132 130 121 124 122 114 113 113 112 109 112 112 112 110 101 109 79 58 45 
53 85 117 126 165 180 172 185 187 179 167 151 152 146 139 140 144 141 146 146 145 138 143 138 142 137 136 134 129 118 121 117 117 114 111 112 109 116 111 115 118 107 115 104 60 47 
92 104 113 144 180 181 180 184 188 187 172 157 149 147 141 144 143 144 143 142 146 149 144 148 139 136 139 138 129 119 121 117 115 113 114 117 109 114 113 120 112 115 121 111 77 44 
99 118 114 149 185 192 190 194 190 197 173 160 147 143 143 141 143 142 140 142 137 148 140 143 147 144 137 134 132 131 121 121 118 118 118 115 115 123 120 128 120 123 132 118 86 48 
90 98 103 168 198 201 202 191 197 199 186 177 155 148 150 150 146 144 146 144 143 129 140 144 148 152 142 137 135 125 130 121 120 120 121 121 120 126 128 132 128 128 136 124 93 51 
81 79 102 184 189 203 205 203 195 197 188 175 158 151 144 149 153 147 149 150 147 103 136 150 151 144 151 136 128 134 126 128 125 122 125 127 127 134 135 137 126 132 143 132 79 60 
82 66 93 194 191 199 201 202 194 185 164 161 154 152 145 142 145 154 141 144 139 135 146 150 143 149 143 141 133 141 128 130 129 124 121 129 127 131 135 142 136 135 139 150 80 69 
75 63 92 193 193 191 206 202 173 149 149 121 110 103 96 89 102 106 125 134 130 134 138 144 144 139 134 125 126 121 121 110 109 107 105 105 112 114 127 142 145 156 145 148 79 69 
70 62 79 187 193 187 201 179 180 158 134 122 101 96 89 114 114 108 146 139 123 146 134 137 132 124 127 118 92 99 79 81 74 65 73 78 90 102 112 125 142 161 147 150 95 50 
66 53 78 188 188 187 187 130 120 149 167 154 163 145 215 222 147 130 113 100 68 105 124 115 101 96 92 99 62 91 93 93 85 100 99 99 109 110 105 90 89 156 146 145 93 38 
65 44 39 195 189 181 131 184 162 187 183 142 129 119 213 226 108 89 105 121 109 73 135 121 116 114 121 95 106 124 112 113 88 87 87 88 97 115 154 145 142 129 71 158 100 47 
65 39 34 144 209 144 184 170 140 164 142 107 101 93 96 164 95 71 77 106 120 104 155 138 107 128 131 106 121 130 63 226 75 91 89 89 94 99 106 123 141 142 56 77 134 36 
65 129 11 99 56 122 118 98 109 104 138 115 97 75 78 86 67 52 68 75 105 158 143 121 129 117 104 100 103 96 60 205 90 90 77 76 77 121 120 116 119 95 80 82 24 183 
31 116 193 175 107 183 163 123 114 103 75 72 80 44 38 54 62 49 59 93 106 143 173 145 120 131 111 98 86 63 69 77 40 62 29 76 127 121 127 136 155 170 102 73 79 124 
28 186 189 189 130 190 163 129 146 137 128 89 92 69 72 74 68 71 87 102 124 105 151 125 116 108 110 101 88 60 70 104 58 42 18 228 54 98 125 137 138 162 107 45 98 119 
49 139 206 187 136 184 156 133 140 151 156 124 102 85 86 82 76 82 95 124 130 77 114 118 111 109 92 88 105 79 83 80 76 73 75 107 149 119 118 114 118 152 98 37 103 159 
49 47 215 188 113 184 156 145 135 139 151 133 88 99 94 92 94 106 142 110 166 44 137 127 113 114 112 33 125 119 96 88 79 76 84 101 130 129 112 110 115 149 126 41 113 187 
47 22 187 180 70 183 165 155 139 133 131 121 111 108 104 114 125 156 150 118 94 106 154 135 114 116 120 74 94 127 116 103 91 88 86 97 104 100 99 112 123 141 77 38 107 170 
50 3 204 167 79 197 181 172 164 146 132 120 116 117 124 132 146 125 138 152 111 146 154 140 124 120 122 99 85 117 108 109 105 92 96 98 93 105 112 123 131 151 61 119 122 155 
50 29 197 170 193 90 202 182 172 157 141 128 127 129 134 133 165 126 161 101 136 160 171 145 129 122 122 124 89 82 115 110 106 106 107 102 106 109 115 125 137 164 67 120 136 189 
49 45 162 179 177 203 92 196 187 168 141 134 135 137 130 137 137 121 104 104 157 180 173 143 142 117 125 131 123 87 119 113 114 116 110 116 107 106 118 120 149 173 119 155 128 154 
51 46 170 178 175 183 203 147 152 162 148 139 136 132 121 126 133 71 149 138 160 190 181 147 146 120 122 133 126 122 67 96 122 124 115 112 114 113 128 141 148 156 171 150 140 105 
55 40 177 183 174 181 194 199 166 135 95 93 91 84 79 79 76 86 150 168 181 183 178 148 156 131 129 134 137 134 135 64 59 66 76 79 79 80 83 108 153 174 172 154 156 46 
52 39 178 183 172 178 185 188 171 157 140 126 123 107 104 101 103 108 172 164 155 164 173 132 126 123 119 187 148 154 173 70 87 107 107 110 109 113 129 135 180 176 173 162 153 97 
50 44 177 184 174 180 172 166 159 151 132 126 114 111 103 95 107 116 111 107 85 120 129 113 108 109 120 129 88 98 86 83 85 96 109 114 115 113 125 152 172 175 177 163 160 88 
49 45 158 180 178 175 162 161 135 140 122 111 109 96 92 101 108 115 144 120 93 97 70 109 82 98 115 110 106 115 83 82 85 85 94 109 109 110 127 133 157 163 173 170 166 24 
46 52 126 175 175 175 165 159 150 133 123 104 105 92 93 111 114 133 151 144 123 126 88 58 42 52 74 82 106 116 123 94 84 89 79 101 102 106 117 134 154 150 173 174 179 18 
54 52 85 176 176 171 169 156 151 130 118 104 90 92 104 113 130 149 154 153 129 140 125 85 58 46 51 93 111 122 127 119 92 95 90 87 100 103 123 142 156 155 169 174 182 17 
46 52 41 170 174 163 166 152 147 134 122 101 94 97 107 136 151 146 140 144 143 135 126 100 106 105 114 105 114 125 129 139 134 90 82 87 108 106 117 149 156 164 168 180 180 27 
47 52 18 175 170 165 160 151 146 134 124 106 96 99 129 141 151 160 154 148 142 124 115 111 114 111 106 97 106 117 130 143 155 124 77 92 101 107 129 150 157 164 168 169 142 37 
48 56 30 168 161 164 153 149 145 141 123 110 98 109 136 127 162 148 129 107 101 89 83 90 88 87 81 78 73 86 98 118 155 135 92 95 112 105 128 147 159 160 167 165 85 42 
50 53 51 118 155 159 153 148 145 136 124 111 95 126 124 138 115 80 72 49 30 66 67 78 32 59 70 80 55 28 29 68 92 118 96 101 112 112 126 136 152 157 156 169 17 43 
56 51 53 36 158 151 152 147 144 140 135 104 111 126 109 110 75 139 110 33 55 86 91 84 51 86 109 73 42 27 35 85 70 97 100 105 113 108 134 138 145 151 156 176 20 45 
49 49 57 33 163 149 152 149 140 138 138 115 123 119 134 153 145 147 117 95 82 135 88 137 112 112 122 88 79 92 109 123 127 106 88 111 110 120 137 135 145 146 157 85 41 46 
52 47 54 66 139 153 149 145 139 134 133 117 131 136 149 142 164 148 124 114 114 102 93 106 106 103 106 89 93 99 114 118 136 118 93 112 107 128 135 137 141 143 170 28 46 45 
51 51 20 227 111 149 145 145 138 132 138 133 133 137 146 141 143 135 137 111 104 100 116 114 111 98 103 97 88 110 123 133 117 126 99 104 117 127 127 133 141 139 81 39 47 43 
53 29 203 190 141 53 148 138 135 124 133 132 142 140 132 136 127 117 123 118 108 99 96 96 99 97 94 101 96 109 122 119 123 126 113 115 117 128 124 128 132 157 22 42 43 42 
43 146 223 152 143 11 150 142 125 126 133 139 136 144 132 129 122 121 114 105 90 79 64 63 59 65 67 77 89 101 112 107 118 121 118 109 118 122 121 130 139 167 34 39 46 40 
109 206 215 145 142 38 134 137 133 120 125 143 135 126 129 126 123 117 114 106 103 98 93 91 80 89 84 90 98 104 108 111 122 114 117 115 121 118 123 126 98 112 128 42 43 39 
198 215 181 181 119 98 48 128 131 130 111 129 130 132 131 129 128 118 112 125 119 121 107 106 112 108 110 114 110 112 114 121 119 118 120 118 115 111 125 147 8 126 199 36 45 42 
177 217 151 178 110 131 25 126 118 124 117 118 125 123 130 128 132 122 121 124 128 124 115 120 115 111 107 115 118 119 116 121 123 120 111 118 112 119 126 106 9 163 143 189 18 43 
207 220 142 168 89 123 33 64 124 112 119 123 111 115 130 129 126 119 118 124 123 121 108 117 108 111 109 116 113 112 127 117 121 112 111 109 113 125 122 43 22 172 100 194 182 34 
215 184 168 166 90 122 61 70 91 104 98 111 113 101 101 113 122 117 117 121 109 109 103 103 104 105 108 108 105 107 117 118 108 105 107 110 118 109 150 2 56 140 97 183 167 164 
214 172 191 174 102 121 100 73 79 99 107 91 103 104 86 102 114 108 108 96 96 92 98 96 100 92 100 98 100 102 106 97 94 104 107 111 97 131 105 5 61 127 150 117 204 185 
218 157 201 156 117 130 107 52 90 95 97 103 87 91 97 85 72 96 87 96 85 88 87 89 80 83 90 92 92 98 82 79 100 107 101 79 124 134 18 34 104 96 144 109 196 152 
221 149 189 140 141 121 112 62 90 95 96 91 99 83 74 87 76 70 68 70 72 75 74 73 72 74 78 83 75 77 77 92 100 69 88 100 121 75 16 73 134 87 155 147 147 205 
204 164 190 124 156 118 114 85 81 100 101 102 90 89 73 63 61 70 65 59 54 56 59 57 59 59 58 58 71 79 86 68 61 73 85 104 88 38 29 82 119 104 150 180 107 212 
