P2
46 56
255
98 101 96 99 97 95 98 94 98 96 100 95 94 95 97 88 56 42 38 37 40 38 36 35 38 37 45 66 83 96 93 95 93 93 89 87 88 91 93 91 89 92 90 90 87 91 
99 97 95 98 95 98 96 100 99 98 97 96 97 81 52 38 35 29 30 31 29 26 26 25 31 34 35 36 36 38 53 78 85 83 85 85 72 64 77 88 91 88 89 90 90 87 
97 99 99 102 98 97 99 99 100 99 99 81 44 40 45 47 36 37 39 34 33 38 34 29 30 33 37 37 35 32 30 30 35 67 86 89 93 89 80 70 87 93 88 88 90 89 
100 96 95 97 98 96 98 99 98 89 60 46 45 54 53 53 59 62 50 38 33 24 27 23 26 22 24 28 22 26 30 30 28 28 25 44 75 88 93 72 67 86 85 89 86 87 
99 101 96 99 100 100 98 96 78 53 36 36 55 64 45 44 54 60 63 51 42 35 30 29 31 31 34 33 33 32 28 26 29 28 24 23 26 35 64 78 56 78 86 87 90 91 
100 100 99 98 101 103 95 64 56 46 36 42 33 43 48 38 37 33 29 28 30 30 49 51 35 31 24 23 25 28 28 33 37 30 26 31 29 26 27 29 32 61 81 86 86 90 
100 100 100 100 101 96 78 61 53 60 49 43 57 58 38 39 46 44 39 42 49 52 46 46 41 42 39 37 36 36 34 36 40 38 36 37 32 29 20 26 32 41 73 86 86 88 
101 101 99 100 90 74 65 58 55 61 53 61 63 40 34 41 52 58 62 59 51 50 47 42 36 31 33 38 42 44 41 39 32 31 30 30 30 25 25 29 27 22 33 76 87 89 
101 103 100 77 48 51 69 69 63 52 46 30 22 37 44 46 43 42 52 61 52 43 35 28 26 32 32 34 27 35 48 46 37 33 31 27 27 27 28 24 24 18 31 36 65 84 
101 100 76 41 40 34 38 64 59 34 28 62 87 85 74 69 53 40 39 40 39 44 42 33 26 27 30 33 35 39 39 41 41 48 50 51 37 27 23 25 24 22 26 49 46 69 
103 87 36 26 26 40 61 55 53 41 68 90 80 80 85 89 82 73 65 49 59 61 45 46 60 72 84 89 92 101 101 100 89 46 31 47 53 44 39 29 26 29 28 26 43 46 
77 27 22 24 35 46 63 67 46 63 94 84 63 74 102 96 79 66 48 56 79 97 109 114 123 142 149 151 153 154 153 152 145 135 99 49 33 35 36 37 36 31 37 55 47 54 
30 27 23 25 35 58 79 65 46 85 92 93 89 54 43 45 34 28 36 93 134 149 154 160 168 172 173 168 167 167 163 162 158 161 161 141 88 46 44 45 43 40 39 54 62 54 
19 26 25 28 39 56 80 69 52 98 126 124 105 80 69 63 58 55 96 135 158 168 170 175 178 177 176 175 170 170 168 166 161 162 161 159 144 104 67 70 71 54 37 58 50 37 
28 28 26 26 41 86 96 77 64 115 143 152 162 169 159 149 139 154 169 178 182 182 184 183 181 181 179 177 175 173 171 166 160 159 155 149 144 123 101 82 77 65 45 48 38 27 
23 24 27 32 79 111 108 85 105 142 151 157 164 172 175 181 184 185 186 185 184 187 186 185 183 183 178 175 173 171 171 168 158 158 150 151 144 132 118 112 112 86 53 51 36 26 
29 26 31 39 85 111 125 126 136 145 149 151 161 168 176 179 183 185 188 186 187 187 186 187 186 183 180 175 177 178 169 168 161 156 149 147 143 132 120 117 121 103 63 49 35 20 
38 24 24 34 73 108 129 136 141 146 147 149 160 169 171 176 179 183 186 186 186 187 186 187 186 185 184 181 180 176 172 166 158 156 151 146 140 133 127 126 121 102 75 41 32 22 
45 26 22 35 65 103 126 135 137 142 147 148 151 161 167 173 178 178 186 185 185 184 181 185 182 183 181 179 177 175 170 165 155 152 147 142 139 129 123 123 116 101 77 46 29 24 
50 25 23 27 65 106 128 136 140 144 149 150 153 160 161 170 175 175 176 180 185 186 184 183 187 185 183 183 178 175 169 161 154 150 145 141 132 124 124 120 111 88 58 40 23 25 
47 22 22 27 73 111 127 140 143 143 144 152 157 162 164 167 172 175 176 175 179 181 181 185 185 184 180 176 174 165 163 157 150 145 141 138 133 125 124 122 113 85 39 28 22 22 
58 27 25 29 87 118 129 139 143 139 146 152 156 161 165 171 173 173 175 174 179 184 182 181 181 178 175 173 169 164 162 160 154 146 142 139 133 128 126 120 109 82 36 27 27 18 
69 43 25 35 94 117 127 133 141 139 146 151 155 161 168 173 176 172 177 182 179 180 179 180 179 180 181 174 169 163 165 159 151 150 145 140 129 123 120 115 111 82 31 30 26 22 
70 72 43 41 100 117 123 130 136 145 151 153 158 162 168 172 174 177 182 182 181 182 182 179 176 179 180 176 172 168 163 160 153 154 147 135 127 125 120 114 110 95 43 22 23 23 
67 78 64 42 97 112 120 130 130 132 131 138 150 160 163 168 171 170 170 164 157 162 176 178 172 172 174 168 169 170 165 164 158 157 151 140 130 126 122 112 105 99 59 27 25 36 
68 73 70 66 95 114 106 106 101 96 105 109 98 91 90 96 111 130 145 151 159 164 168 168 163 160 158 156 158 159 152 148 143 137 130 126 127 127 121 110 104 103 65 23 45 52 
68 68 81 78 89 113 104 102 104 110 120 124 115 108 99 103 138 161 159 148 140 139 139 140 137 133 122 112 106 91 86 80 85 101 110 110 106 102 103 108 101 102 62 39 57 62 
71 65 92 93 88 107 101 88 103 99 102 94 91 88 87 95 98 96 98 117 125 124 149 153 156 169 151 150 131 130 130 122 118 92 95 102 110 107 102 104 107 101 66 73 75 73 
70 62 86 86 100 116 112 108 92 82 78 78 71 61 62 57 69 81 93 94 107 130 150 156 138 111 104 100 101 104 103 104 101 102 108 114 110 98 88 92 96 93 75 96 83 78 
67 63 85 103 81 96 115 120 100 95 90 120 124 99 93 111 112 86 93 97 103 117 148 180 150 114 114 105 97 97 94 76 79 87 86 86 93 93 100 97 81 86 66 96 81 76 
70 68 75 97 94 107 111 118 119 119 112 113 136 145 138 137 132 128 119 117 119 128 153 168 134 110 122 118 106 128 113 89 101 112 82 62 76 100 104 99 104 83 87 110 71 80 
71 70 66 90 94 108 112 111 128 125 115 111 108 116 134 138 142 138 137 124 103 135 177 180 145 105 127 127 123 118 124 129 124 111 97 88 92 100 111 103 95 88 111 104 67 77 
68 68 71 90 95 110 118 118 129 136 128 106 111 127 132 127 123 141 143 124 113 148 175 172 157 112 121 140 136 133 130 113 107 99 102 105 100 101 111 98 96 92 106 90 71 83 
69 68 67 91 93 106 118 118 124 142 150 144 133 120 125 138 147 146 134 107 115 150 172 173 159 120 98 132 145 125 110 106 110 110 120 113 109 110 109 98 101 94 104 82 72 78 
72 70 71 95 97 105 121 123 122 130 143 146 151 156 154 152 139 133 121 120 141 149 174 175 153 130 110 113 136 134 130 124 122 127 128 129 125 122 115 100 103 97 107 90 75 84 
73 73 68 92 94 101 113 123 133 138 144 147 155 153 151 150 132 126 112 133 142 152 171 178 159 135 121 109 133 141 138 136 137 132 132 133 133 126 115 113 106 92 99 78 79 83 
74 67 68 86 95 103 111 113 137 152 153 154 152 149 147 145 118 98 115 131 141 152 171 180 159 138 132 115 112 135 139 142 141 138 135 128 130 129 137 121 92 93 90 74 78 86 
73 72 65 88 100 105 118 123 120 118 120 121 121 118 124 131 133 120 126 136 144 153 172 182 158 138 128 131 104 92 131 142 141 142 142 142 167 165 110 93 97 96 74 75 78 83 
75 73 67 81 99 109 115 118 120 129 138 138 146 143 139 132 133 127 128 141 146 154 177 187 167 141 138 131 118 116 123 120 115 107 105 97 100 106 107 102 100 95 73 79 85 84 
76 71 66 74 97 103 109 111 116 124 134 137 135 133 127 124 135 125 104 108 124 143 157 160 153 133 118 110 108 119 114 120 127 131 128 121 118 113 104 107 101 91 71 81 83 86 
69 70 67 77 92 99 111 112 114 116 114 112 113 111 118 135 148 140 107 52 62 97 120 122 114 93 67 80 105 125 122 112 121 121 118 113 110 102 103 104 102 87 73 82 81 81 
70 68 70 85 79 101 108 115 114 108 109 109 108 111 123 137 140 135 138 109 73 60 68 77 71 85 106 118 119 124 127 118 105 114 112 108 99 103 107 107 99 78 75 85 83 87 
70 63 86 77 57 96 106 113 118 114 114 112 104 112 123 125 132 134 143 135 123 97 78 73 94 122 125 120 116 119 118 117 105 103 107 104 105 104 106 106 101 92 78 82 83 84 
74 69 114 63 29 81 102 107 120 122 125 127 118 116 112 104 115 130 137 143 138 131 131 130 128 127 127 124 120 113 111 119 111 112 111 107 110 109 111 99 98 125 139 90 84 83 
135 127 119 53 38 56 93 102 112 119 125 133 128 121 105 91 68 76 88 99 102 106 116 119 111 103 99 100 95 87 77 106 117 121 115 108 106 109 106 97 82 120 153 156 136 115 
177 120 131 57 62 56 87 95 106 114 118 126 133 140 148 146 121 113 107 57 46 59 55 60 65 50 37 60 72 101 119 112 115 121 118 107 105 102 102 72 83 119 151 160 162 144 
132 125 140 74 59 82 80 85 96 107 115 126 129 140 148 145 132 118 124 136 133 124 115 103 100 101 102 95 101 122 129 124 125 122 108 104 101 102 83 51 109 117 157 156 169 151 
132 137 152 102 69 87 77 81 84 94 110 119 127 131 137 147 134 120 111 115 132 134 144 138 129 111 99 98 112 120 123 118 119 113 104 98 97 88 31 73 118 108 160 161 167 153 
147 142 158 127 73 87 72 76 73 85 96 111 119 128 133 143 138 125 105 103 106 103 106 107 101 95 98 108 120 125 115 105 106 104 102 93 90 52 28 109 130 104 155 164 169 152 
140 145 161 148 101 83 75 83 71 71 85 98 108 115 124 134 144 140 129 113 100 92 89 92 98 103 113 122 123 116 110 108 105 98 92 86 62 30 64 137 131 107 141 171 163 151 
133 142 163 168 128 90 77 89 78 69 70 75 91 107 119 126 138 144 147 147 138 129 124 129 126 124 128 123 119 113 105 102 96 89 79 62 44 46 96 142 128 112 135 165 153 152 
123 141 161 185 145 117 85 90 89 76 62 67 72 90 107 114 127 141 147 154 155 160 153 142 134 137 134 121 113 104 102 88 83 74 56 51 37 69 111 135 126 118 135 155 153 152 
124 144 167 184 166 123 118 86 89 82 73 58 65 69 86 100 113 120 129 135 139 143 146 144 139 133 117 115 105 98 84 74 64 56 55 38 66 96 117 133 127 130 126 155 150 154 
119 142 165 173 175 155 123 122 85 89 81 69 56 57 69 76 95 110 113 119 124 126 126 126 124 113 103 99 90 72 70 55 50 58 46 67 98 92 78 68 61 79 122 138 130 159 
129 138 164 176 169 153 131 135 122 81 85 75 66 58 52 63 70 77 91 91 94 99 100 99 96 94 84 73 69 61 44 44 54 75 96 120 91 51 68 112 131 105 98 114 142 134 
139 141 155 183 182 161 146 133 138 124 81 81 75 66 57 51 48 54 66 71 71 79 76 78 75 71 69 59 42 43 52 86 115 128 110 82 113 102 116 126 142 122 110 117 137 135 
