P2
46 56
255
107 109 108 109 108 110 110 109 111 110 75 96 87 67 90 60 64 110 70 68 52 94 115 113 120 114 73 50 48 37 31 32 45 47 95 110 109 109 113 110 112 110 110 111 110 107 
108 107 107 110 109 111 108 110 111 88 64 64 98 78 71 82 73 102 96 80 80 73 73 66 70 53 64 59 63 39 30 30 28 47 46 70 104 99 104 108 110 110 108 110 112 109 
105 111 112 107 109 111 111 101 84 74 61 106 135 139 81 90 72 82 82 92 95 78 85 85 76 73 63 52 65 44 67 48 47 65 50 54 68 89 81 91 111 109 110 113 112 109 
107 108 108 109 109 110 102 58 75 68 61 133 124 116 147 104 95 79 105 57 92 75 71 61 62 63 75 64 58 63 65 64 60 71 54 40 33 83 64 90 111 111 106 112 109 108 
106 107 112 107 110 113 59 71 58 108 94 84 112 120 90 150 118 98 91 82 88 101 83 67 58 50 42 66 71 64 46 32 105 54 70 28 29 49 70 89 109 104 110 112 112 110 
109 109 108 103 108 76 79 67 97 114 106 108 80 83 103 125 146 148 125 107 82 102 88 102 84 53 60 55 54 76 67 112 79 59 70 21 25 35 79 107 105 109 105 110 113 111 
109 107 108 101 86 65 56 86 95 93 107 104 109 112 92 94 110 120 131 130 140 120 91 78 84 110 84 65 82 76 85 79 67 72 74 29 22 27 48 110 106 111 106 113 112 110 
106 89 85 68 59 70 49 89 68 79 92 118 110 105 119 98 104 100 92 104 106 101 103 104 98 99 85 89 94 96 100 94 95 75 71 42 34 36 41 38 95 107 100 108 109 110 
110 75 53 48 56 64 53 47 60 66 64 68 92 97 107 100 95 111 109 94 89 95 86 85 94 103 115 127 137 144 144 148 123 106 82 87 49 34 47 73 70 80 108 104 110 110 
107 66 53 58 60 47 57 51 38 59 73 72 71 69 76 84 91 98 102 95 91 102 110 114 141 164 159 167 173 175 163 162 155 129 107 57 100 42 33 51 66 60 79 102 110 107 
109 72 23 50 61 52 74 58 34 26 59 57 75 89 96 97 111 121 125 133 137 147 156 163 177 184 181 182 183 189 183 176 164 154 129 90 111 76 37 42 61 69 65 86 104 111 
93 31 23 44 65 30 38 55 71 65 60 68 92 99 119 129 147 160 175 179 173 176 179 187 187 191 188 189 192 190 189 185 182 162 149 138 100 123 60 42 73 84 73 48 58 87 
27 21 42 47 68 48 53 47 73 93 106 110 122 151 166 174 183 194 192 190 189 189 194 194 194 198 196 196 198 197 186 183 180 174 159 156 135 140 76 58 55 60 98 71 25 45 
20 31 49 41 64 95 118 134 133 152 148 154 184 183 195 202 200 196 197 197 197 198 197 194 200 201 200 197 199 199 193 188 184 171 168 166 153 131 106 45 65 54 61 60 68 22 
20 38 41 75 78 104 159 161 172 169 180 184 194 199 197 198 201 203 202 201 198 196 200 198 202 200 202 201 201 199 193 184 185 176 165 168 146 124 130 74 53 60 28 45 33 33 
35 43 55 51 80 117 162 161 179 176 184 187 194 200 195 199 202 201 202 203 201 199 203 203 200 203 202 198 194 196 191 184 185 173 172 169 140 133 124 85 63 76 18 36 42 30 
36 43 37 47 74 117 158 165 172 179 185 185 191 196 196 194 198 200 200 200 199 198 200 198 198 202 203 189 190 192 189 181 185 176 171 159 142 130 114 80 64 80 34 20 29 28 
36 41 44 45 80 122 161 170 174 183 179 187 191 198 200 200 200 198 202 201 201 201 201 198 200 203 200 192 191 192 185 181 184 175 172 150 144 123 116 80 78 48 61 20 16 35 
31 43 37 44 82 119 159 163 177 182 183 188 193 196 201 201 196 202 200 198 199 199 201 200 200 199 196 192 196 186 183 181 187 180 166 142 141 125 97 77 74 55 55 31 19 17 
29 35 37 40 81 115 156 169 175 182 186 191 194 199 200 203 201 200 199 197 197 200 201 201 200 198 198 195 195 190 184 181 179 175 161 140 137 118 105 70 65 70 47 35 28 21 
35 34 30 31 88 119 166 172 181 189 187 192 196 198 201 203 205 201 202 200 196 198 201 202 202 204 201 200 198 194 186 179 172 174 152 132 139 115 94 67 55 50 46 26 24 33 
35 30 32 24 94 128 169 170 179 183 183 183 187 195 196 200 205 199 204 202 199 197 200 202 204 202 202 196 193 193 183 180 172 170 147 134 135 121 87 73 52 48 35 25 22 22 
30 53 38 35 104 134 166 170 175 176 181 173 174 179 186 189 189 197 203 195 191 197 194 195 196 197 191 186 191 185 178 181 175 172 149 133 136 131 87 56 38 43 50 24 21 20 
28 44 45 41 112 128 129 132 156 137 131 134 142 154 169 175 181 181 187 183 180 183 176 182 162 156 161 177 177 173 182 182 178 176 149 131 126 127 103 55 49 42 39 25 25 27 
23 23 50 45 105 102 101 91 118 106 86 90 92 94 122 147 160 165 175 177 174 167 156 152 139 106 108 98 116 126 138 143 142 139 148 129 126 132 116 42 38 39 30 23 21 27 
36 37 37 54 114 111 102 128 143 159 167 168 147 109 101 105 136 161 181 177 179 160 149 120 116 104 107 104 109 109 107 121 112 112 114 110 138 123 114 31 31 26 20 25 29 31 
64 50 45 37 130 120 111 126 122 126 142 162 129 149 158 123 121 168 183 191 189 168 129 130 142 147 145 165 182 181 178 162 139 146 117 104 136 123 110 32 27 27 27 28 34 42 
62 64 63 25 128 140 125 85 123 123 125 131 153 127 121 144 101 170 194 198 195 170 127 136 135 119 133 150 164 147 158 160 150 142 137 128 132 127 114 42 28 30 30 41 53 43 
63 90 56 36 141 132 128 133 110 90 74 56 113 149 109 147 122 172 197 203 196 148 138 147 104 119 77 99 153 166 159 113 116 148 153 144 135 128 123 30 27 61 63 83 96 51 
80 115 73 41 151 160 172 174 152 144 153 158 165 162 178 184 168 154 194 204 198 149 159 173 151 147 101 46 58 103 100 110 128 149 148 141 125 129 129 30 50 62 124 113 145 49 
77 97 94 55 158 182 183 167 162 127 134 142 154 175 179 182 177 159 195 203 191 145 169 171 166 158 164 162 156 146 151 156 161 168 153 156 138 128 134 43 68 121 152 126 165 86 
77 87 107 68 156 184 188 183 188 187 182 174 183 188 192 183 175 162 196 201 177 157 167 190 189 177 182 149 141 145 150 171 168 168 166 157 147 124 130 77 121 140 175 122 75 71 
73 73 92 112 169 187 190 193 192 189 187 184 190 193 179 173 169 156 201 200 172 153 167 176 188 196 190 181 170 173 172 174 180 184 166 167 141 124 122 143 145 145 191 156 91 101 
76 60 129 82 167 181 188 197 198 197 191 189 191 184 177 174 161 162 207 200 170 147 172 171 183 195 192 196 191 195 189 192 193 192 176 160 154 116 98 168 152 142 161 128 98 103 
73 73 119 118 148 170 180 186 195 197 193 193 191 183 173 174 160 177 207 202 170 153 167 173 182 193 192 189 197 199 193 194 193 177 163 162 149 107 81 158 152 161 148 77 90 103 
73 75 98 125 142 163 175 183 192 186 186 187 167 147 164 175 160 189 205 195 173 155 161 145 154 186 193 194 199 199 194 192 188 177 161 159 141 101 99 160 162 157 168 81 104 102 
73 71 72 119 128 157 163 175 178 178 173 155 139 121 168 170 178 201 203 196 174 159 169 173 143 150 177 191 197 196 196 193 187 178 165 146 128 93 116 167 157 163 86 94 97 100 
69 74 71 69 105 138 150 159 164 166 150 131 129 123 150 155 182 197 200 199 167 151 168 170 129 127 140 170 187 193 185 185 182 171 160 138 118 89 149 148 140 150 77 97 98 102 
68 71 71 69 72 108 133 145 146 144 123 124 140 124 69 94 156 177 184 175 147 135 137 138 140 158 110 134 165 174 178 169 159 157 146 130 109 73 147 128 111 66 86 99 96 101 
72 72 73 70 76 63 108 122 124 103 122 123 138 136 93 55 70 105 132 104 77 72 85 116 144 151 162 96 133 155 154 151 146 140 132 120 110 57 33 30 71 83 89 98 98 97 
73 70 72 72 65 76 95 112 101 103 121 143 147 148 129 80 54 49 64 71 107 117 125 126 132 144 144 137 110 113 128 126 125 122 112 103 107 10 24 57 83 90 94 97 99 97 
72 71 73 71 66 92 80 127 147 112 113 112 138 136 133 131 104 89 109 110 130 131 125 126 142 135 147 145 150 132 77 109 107 113 97 103 97 51 74 79 90 90 95 99 98 98 
65 73 68 70 70 76 73 133 164 119 134 114 91 124 138 135 139 116 131 110 129 128 140 138 134 137 127 137 144 135 114 128 121 106 116 112 55 70 82 82 90 95 95 97 99 102 
64 68 69 71 69 62 95 91 148 170 135 136 135 101 62 92 126 147 144 146 138 138 124 116 107 97 99 110 127 134 157 132 116 99 112 94 25 79 82 84 91 92 96 93 98 98 
67 68 70 68 70 71 64 69 117 152 155 145 143 136 132 130 112 116 108 108 115 131 122 130 131 139 142 133 135 139 161 128 110 125 102 92 32 43 82 88 91 94 97 97 97 100 
69 71 69 66 70 72 71 77 69 121 156 163 141 136 131 148 156 190 186 169 175 169 159 140 140 149 153 145 146 163 135 115 108 116 61 122 24 55 80 87 88 95 97 97 98 98 
67 68 68 70 67 63 60 43 73 83 140 148 140 138 125 128 140 145 139 134 133 143 142 138 143 153 158 152 157 144 114 104 114 81 81 102 20 51 49 94 91 95 98 94 95 99 
65 63 65 64 62 56 62 29 64 70 119 134 149 145 128 110 125 119 125 117 123 123 122 145 143 151 155 152 151 129 108 120 103 62 119 107 9 53 48 55 63 94 101 97 97 97 
65 62 58 56 58 67 54 41 9 91 97 126 143 144 135 139 117 117 114 111 131 127 135 145 146 147 150 149 141 114 114 123 74 101 127 101 15 55 51 66 47 53 56 89 100 101 
66 62 57 65 57 62 35 26 13 72 96 122 136 153 148 147 146 133 127 129 124 138 139 142 150 155 150 141 123 117 124 85 89 127 124 98 26 55 51 58 52 55 54 54 58 90 
68 66 58 53 64 53 30 33 21 86 65 112 130 138 165 164 158 162 160 155 152 156 154 163 157 159 142 134 126 112 98 80 121 131 121 105 45 59 51 56 54 55 53 56 48 53 
66 64 69 60 75 43 39 25 12 85 91 65 116 131 158 181 157 165 152 142 154 159 169 163 163 150 132 128 102 88 72 114 136 131 121 90 52 59 55 61 50 59 53 55 54 53 
67 66 57 54 69 45 36 28 3 91 89 88 85 125 146 157 160 160 153 145 150 158 163 164 152 139 122 111 67 68 106 129 133 127 124 77 56 55 60 56 55 53 48 55 53 54 
77 78 66 76 62 49 47 31 10 94 74 93 68 104 119 134 156 146 155 146 157 164 159 143 141 129 107 70 75 100 126 138 134 122 121 56 64 52 56 56 55 51 55 58 55 55 
76 75 71 85 66 58 52 29 26 89 75 90 86 60 84 104 136 132 139 148 140 137 131 136 114 92 66 80 98 127 135 136 132 122 103 62 56 55 57 61 48 58 55 55 51 57 
72 76 65 76 68 63 48 30 25 98 82 84 87 74 61 54 72 84 97 105 104 103 95 77 63 64 78 100 123 135 138 133 125 107 62 64 55 51 54 59 55 55 60 55 54 60 
