P2
46 56
255
109 108 114 111 110 113 108 112 111 112 115 85 78 93 77 81 78 77 109 57 65 66 91 99 88 92 85 68 79 61 55 51 37 60 74 98 111 108 110 107 110 107 109 108 106 108 
111 111 110 112 113 112 113 111 113 111 102 69 70 86 73 67 76 79 117 91 69 76 54 86 107 118 100 73 53 44 36 29 27 42 45 85 107 107 107 109 108 108 109 109 109 109 
112 110 111 112 110 112 109 110 104 87 71 68 90 126 152 91 96 61 80 72 87 83 72 75 64 68 49 48 54 72 51 31 28 20 32 42 67 100 99 108 110 110 108 111 113 110 
110 109 110 111 107 110 112 113 69 77 69 75 126 129 115 149 102 93 73 96 74 80 74 73 79 75 75 65 63 54 49 72 40 30 39 52 44 73 93 97 90 111 107 107 107 111 
113 111 113 110 111 116 112 80 84 84 103 118 76 108 124 92 144 100 89 90 93 63 81 75 56 55 63 65 69 68 66 61 63 54 65 52 38 33 77 66 70 106 109 111 110 111 
110 107 111 109 109 105 69 76 69 102 124 93 117 78 88 109 121 148 132 106 89 84 89 96 69 66 57 37 59 65 62 46 35 105 52 63 27 31 54 67 87 104 102 111 107 107 
110 112 112 99 85 70 65 77 90 79 98 110 101 108 112 92 94 112 126 140 137 106 82 92 96 93 61 51 63 65 75 65 110 72 55 66 23 33 38 76 104 114 106 113 111 108 
111 109 102 72 64 59 76 47 95 71 73 90 109 107 105 123 101 92 93 120 111 103 120 119 102 82 100 99 71 84 79 87 76 56 73 67 26 26 32 61 105 103 111 107 110 109 
108 109 79 60 57 63 59 72 37 55 70 66 64 94 104 117 102 93 97 87 81 90 86 87 91 88 80 79 93 91 100 97 92 87 67 73 37 26 22 62 67 103 103 105 103 108 
110 111 100 32 48 51 54 61 66 37 61 70 72 69 72 80 85 93 97 98 96 84 90 87 91 110 121 131 137 140 146 142 136 111 95 70 74 37 35 34 68 60 98 105 108 107 
110 112 38 33 52 63 47 61 64 39 39 63 61 75 93 92 98 105 115 111 113 117 126 127 147 162 167 163 174 173 166 159 159 146 105 84 93 69 39 34 55 42 91 107 100 108 
118 36 27 28 56 74 56 48 39 72 72 69 83 87 109 119 128 139 148 158 155 159 168 173 179 191 184 180 187 187 187 180 174 156 140 113 56 108 36 27 55 68 49 91 97 108 
109 28 26 51 49 81 77 77 72 105 113 111 119 130 156 165 169 175 190 187 186 183 180 191 190 191 192 192 191 193 187 186 179 170 156 148 107 119 68 44 51 72 51 42 78 91 
93 25 43 40 60 96 101 148 153 141 153 149 173 185 187 197 197 195 196 196 195 197 194 195 196 200 195 198 200 197 188 187 183 175 164 155 138 116 107 55 52 68 103 74 28 48 
94 35 41 61 64 98 122 167 166 179 183 180 187 200 201 200 198 201 204 200 197 195 199 200 201 202 199 197 198 197 193 191 182 179 167 159 151 117 130 41 58 53 60 63 67 27 
75 38 47 41 55 107 134 168 171 180 182 186 189 198 201 199 203 203 204 203 200 198 201 201 198 200 202 198 199 196 191 190 185 172 168 166 159 121 141 70 53 61 28 53 37 27 
49 35 37 49 47 113 143 170 172 174 184 185 188 195 201 195 198 201 198 201 202 201 203 202 200 203 202 197 195 195 191 183 183 171 172 167 151 127 129 81 63 86 22 46 45 35 
47 36 45 39 52 117 147 171 170 181 182 189 195 196 203 199 196 200 201 202 198 201 199 199 199 200 205 184 191 189 188 183 183 176 168 161 144 125 121 86 55 82 31 25 32 31 
53 34 42 44 57 111 149 167 174 184 185 190 194 196 200 201 194 204 199 201 199 197 201 198 201 202 199 189 194 192 185 183 181 174 173 154 142 124 120 76 56 53 54 22 27 27 
39 38 44 38 57 120 149 173 179 184 188 191 193 199 199 203 203 201 200 196 197 198 201 199 201 200 199 193 194 183 180 180 185 175 164 142 138 126 105 92 71 45 64 21 17 24 
40 31 36 35 66 129 166 175 181 190 188 193 197 200 202 202 206 202 201 199 196 201 202 202 202 200 197 195 195 188 182 178 177 176 157 139 138 122 94 88 73 61 45 25 23 16 
45 24 42 35 86 131 169 176 180 181 180 185 189 195 198 200 205 200 203 200 198 199 201 201 204 204 200 201 195 193 184 179 169 171 150 134 136 111 102 62 62 56 49 29 24 19 
45 50 46 41 99 134 164 169 172 177 183 178 173 181 187 191 192 197 204 199 198 199 200 205 204 200 200 193 192 190 181 178 171 164 141 131 136 106 92 56 52 41 34 24 22 28 
35 19 51 57 97 114 122 119 156 129 120 127 142 159 174 178 183 186 192 184 185 193 187 191 186 193 187 184 188 179 181 175 171 170 143 130 126 122 65 55 44 44 31 30 19 15 
64 40 33 54 109 116 116 88 119 105 83 92 89 99 133 157 168 172 172 179 175 169 165 171 151 139 154 167 173 174 184 181 175 166 143 139 121 126 78 48 46 33 30 20 26 18 
80 51 43 46 133 114 120 140 126 122 121 129 108 97 101 122 148 168 176 168 170 161 143 138 118 110 91 99 114 132 136 148 142 146 134 136 127 124 81 42 66 29 28 25 18 22 
73 88 56 26 142 145 122 87 76 146 86 104 86 108 140 104 140 172 188 184 188 156 130 121 121 114 115 116 108 110 116 109 112 103 104 133 138 115 74 31 51 29 21 19 26 26 
74 100 69 29 155 134 129 98 124 175 129 45 95 147 116 132 118 185 195 198 196 150 128 147 147 119 118 107 123 142 157 147 144 131 106 107 128 122 69 26 39 25 26 26 29 26 
79 118 67 61 156 157 145 143 146 181 180 152 161 160 124 158 126 191 200 201 192 134 140 128 119 145 113 27 45 54 121 121 141 140 124 117 129 125 63 15 22 28 31 39 55 35 
79 107 105 88 166 175 155 164 155 165 173 167 152 168 190 192 148 188 203 201 189 140 183 125 135 179 140 88 79 114 110 116 135 140 149 138 124 123 59 21 28 38 45 54 95 47 
79 111 125 94 173 188 182 153 148 152 157 170 175 181 187 185 163 188 203 201 179 154 180 177 160 172 181 177 161 164 144 134 143 154 146 135 126 131 52 29 54 79 83 83 82 88 
85 112 109 123 184 193 196 187 183 167 173 184 189 192 189 182 162 188 201 196 163 164 187 185 167 165 156 161 165 165 160 161 167 145 161 134 131 127 49 68 80 129 117 130 59 89 
78 84 101 155 186 192 198 196 196 193 192 195 191 184 177 172 157 196 201 181 156 166 180 193 189 158 161 156 154 157 167 154 166 164 163 144 127 124 51 76 121 151 126 159 53 95 
73 68 142 153 173 183 191 200 194 194 198 192 187 179 176 175 158 204 201 181 148 168 170 177 196 194 189 177 170 169 170 175 183 163 165 138 127 120 96 132 150 170 125 79 89 98 
80 67 145 140 169 178 187 194 197 198 196 193 191 180 177 169 172 207 203 177 152 171 172 181 191 193 196 193 197 194 194 194 191 174 158 150 119 110 142 154 146 176 157 87 99 101 
74 69 136 134 155 170 179 183 187 185 188 165 156 164 175 167 187 204 199 167 154 156 157 182 192 193 192 199 199 194 194 192 183 163 155 143 107 88 168 136 172 132 104 94 98 99 
75 75 70 116 148 165 171 181 179 172 155 142 124 166 174 176 198 204 194 168 155 161 157 140 184 195 195 200 200 195 194 189 177 162 159 139 100 86 138 167 139 165 64 93 98 100 
74 76 77 93 128 151 160 159 165 150 127 132 125 156 167 187 199 201 198 169 153 172 174 137 138 176 192 195 195 198 193 185 179 162 146 127 95 109 163 161 160 125 90 96 94 98 
74 75 77 82 89 126 139 140 136 114 131 144 127 58 110 177 189 194 185 157 147 162 157 125 131 138 170 186 194 188 185 182 174 162 134 117 84 151 153 148 166 61 90 99 98 97 
74 76 77 75 68 110 120 117 95 126 128 146 131 85 45 94 130 155 125 102 82 66 104 148 158 119 136 167 173 176 169 154 155 146 129 108 91 153 129 119 83 76 95 94 99 96 
72 73 75 67 91 107 117 98 111 122 146 141 149 126 78 54 58 76 61 86 107 119 134 140 145 161 99 134 153 154 152 144 137 131 120 106 76 77 57 62 78 82 95 95 99 97 
74 72 75 72 107 92 139 161 118 104 107 128 146 136 119 96 78 88 113 125 128 132 135 141 141 143 139 100 112 129 125 117 117 106 97 98 13 27 54 76 85 87 96 95 94 97 
69 75 71 71 72 76 144 171 126 134 128 80 129 146 145 136 123 116 122 142 127 132 138 126 139 139 150 138 123 91 103 107 110 104 103 40 45 70 75 78 81 94 94 95 96 98 
73 70 73 72 64 89 114 152 167 140 130 147 108 77 119 143 134 142 141 133 137 133 129 120 118 110 121 119 122 124 121 118 90 103 104 56 74 76 78 81 88 92 92 96 97 99 
74 70 74 74 74 73 66 128 162 164 149 146 142 141 126 107 114 118 108 112 103 95 107 110 126 134 127 133 139 141 121 103 115 99 83 30 74 75 78 83 89 93 97 95 93 97 
69 70 70 73 69 66 82 86 142 164 141 142 143 150 150 185 194 167 175 174 147 144 140 143 144 147 133 135 158 132 109 108 114 60 67 48 58 79 79 85 89 92 94 98 95 97 
71 67 68 63 59 64 60 66 113 143 162 147 131 133 143 151 154 156 149 156 153 141 143 144 150 154 150 150 134 113 102 113 76 90 24 47 49 80 81 88 91 91 93 97 97 96 
67 66 62 59 59 57 15 96 88 129 146 144 132 124 128 123 130 119 133 131 125 140 144 146 153 154 156 142 116 101 113 93 59 110 17 48 54 68 81 90 91 91 97 96 97 97 
64 58 59 58 69 38 26 35 98 120 137 151 142 136 121 120 119 119 134 117 128 143 144 140 153 149 143 130 108 119 100 55 97 115 70 44 56 65 52 56 81 95 95 94 95 96 
65 64 61 64 57 39 30 12 81 127 133 148 158 146 146 129 120 127 125 132 136 141 145 149 147 146 130 121 118 113 66 80 121 107 86 51 54 56 49 51 53 54 82 97 95 94 
61 59 42 72 42 25 31 16 91 100 130 138 171 168 154 160 158 146 141 151 149 160 155 152 144 138 118 114 117 68 78 113 126 118 73 50 58 56 48 54 52 49 48 56 82 95 
69 60 62 63 35 35 32 30 82 70 116 132 157 175 160 164 146 143 158 161 165 162 162 150 130 120 114 105 73 79 117 127 122 119 49 60 53 56 52 61 59 55 55 55 55 52 
62 53 82 61 52 40 39 72 80 98 59 124 148 152 162 164 144 149 160 173 168 172 151 141 122 116 87 59 75 108 128 128 119 114 45 59 53 55 55 54 50 47 52 55 54 49 
76 66 80 55 46 41 32 100 86 87 93 94 118 134 152 148 163 141 159 163 161 160 139 131 110 74 67 78 106 129 132 128 120 93 54 56 53 57 57 46 51 55 54 52 53 53 
71 67 73 62 48 44 30 106 85 80 92 81 71 95 137 137 139 143 148 145 135 128 118 106 70 68 82 102 128 134 130 122 116 68 63 54 58 53 52 56 55 56 51 57 61 56 
73 79 67 62 58 47 31 105 92 75 84 91 74 54 70 81 96 113 108 103 99 100 72 59 64 78 103 129 137 135 130 119 98 60 53 50 60 56 53 58 54 50 55 56 61 56 
