P2
46 56
255
104 104 106 108 106 108 109 108 109 105 93 98 76 79 65 78 76 66 76 73 115 102 64 66 86 102 95 65 59 50 45 43 35 38 83 99 111 104 106 111 111 111 111 113 108 111 
106 106 106 108 108 105 110 110 109 56 59 80 77 91 90 118 147 111 88 95 92 93 108 80 80 79 77 64 65 54 65 54 46 42 64 78 75 85 85 74 95 111 113 110 113 111 
107 106 105 107 104 108 106 110 78 41 67 80 76 99 110 132 116 133 154 95 94 77 107 83 95 79 61 65 64 64 52 60 68 59 49 86 49 57 60 96 91 108 109 115 111 110 
101 107 107 106 107 109 98 100 59 64 61 69 99 85 108 102 107 123 105 144 137 92 84 77 89 81 83 67 55 43 69 66 49 51 38 90 53 49 56 103 107 104 107 110 110 110 
106 104 104 109 108 112 57 48 54 71 64 76 99 111 108 87 96 104 111 113 124 140 131 105 83 78 86 96 82 53 62 47 54 58 81 80 66 29 95 79 110 109 111 105 109 108 
108 108 107 103 110 80 51 54 57 66 72 103 95 121 110 108 113 100 104 96 94 111 117 119 116 121 105 75 69 87 79 67 72 57 78 51 80 30 52 88 107 108 106 111 113 110 
108 108 107 108 100 88 57 71 46 50 81 73 82 98 110 113 110 104 100 97 103 89 75 74 90 82 73 84 75 66 68 70 78 85 69 38 55 39 74 102 101 112 112 107 112 110 
110 104 103 106 74 68 52 62 59 32 62 63 67 76 70 78 90 92 93 97 90 80 83 89 80 77 88 75 93 102 117 123 130 126 119 90 52 75 42 56 106 107 107 109 115 115 
111 75 56 40 43 56 47 64 43 81 37 34 57 74 74 92 79 71 76 82 86 80 80 81 82 100 112 115 144 159 150 156 164 150 145 129 85 72 38 37 62 92 104 108 109 114 
113 51 49 67 54 51 69 41 46 61 62 41 36 47 67 75 76 85 104 94 102 116 122 123 136 147 156 162 172 182 174 176 175 175 164 149 132 82 41 36 51 56 76 107 113 111 
107 38 49 36 37 45 54 37 38 45 61 71 60 62 63 69 99 101 117 118 133 138 160 172 169 175 173 182 180 183 183 182 184 175 172 166 143 118 98 48 43 64 55 84 105 108 
106 40 31 39 39 50 44 49 39 35 43 39 55 88 114 109 116 144 164 165 170 180 189 185 183 185 182 190 189 192 191 191 192 186 173 168 155 131 121 64 46 68 52 61 92 109 
75 28 23 23 91 85 76 70 58 71 68 113 138 155 158 139 178 187 191 193 190 192 191 191 190 190 193 193 192 196 195 194 189 185 178 172 163 147 147 119 61 61 40 64 62 106 
18 19 23 65 78 89 129 107 115 151 156 164 169 166 178 187 198 203 202 201 192 199 200 199 194 192 196 197 194 198 193 197 193 186 182 169 163 154 146 115 76 62 82 50 35 45 
22 25 46 53 76 119 129 135 129 166 171 169 184 183 192 188 198 201 201 199 200 200 200 199 200 199 197 201 198 197 201 199 189 181 183 170 168 152 146 108 94 45 78 33 43 33 
19 32 44 58 120 103 120 134 137 163 174 175 181 185 192 195 195 200 200 201 196 201 199 199 197 198 197 197 193 197 196 201 177 184 180 175 166 155 146 115 94 64 54 68 22 29 
16 40 55 60 56 95 105 128 134 160 169 179 179 185 190 191 195 195 201 200 199 199 200 203 200 196 198 198 196 199 198 190 182 190 179 170 170 159 139 121 96 69 57 52 21 24 
35 37 50 44 72 73 88 123 136 152 168 175 179 188 184 190 197 198 199 203 202 195 202 198 198 197 198 199 195 198 194 190 184 185 177 173 163 159 140 122 96 70 62 40 37 18 
35 41 44 49 52 71 92 118 128 148 167 173 180 188 192 193 199 199 201 202 202 201 195 200 196 198 200 199 199 199 196 192 190 189 181 175 162 157 139 122 87 57 59 53 37 27 
34 35 46 48 52 58 89 112 123 148 162 176 184 191 193 195 199 201 204 204 202 199 197 197 197 198 199 198 201 200 197 196 194 190 184 175 166 157 132 118 91 54 44 44 45 22 
35 39 42 47 37 61 83 129 130 143 171 179 184 187 192 192 191 197 198 201 203 202 196 198 197 199 202 199 201 203 199 189 193 187 181 171 158 156 138 114 106 53 42 43 51 25 
36 39 45 44 36 54 97 124 130 151 171 177 180 184 181 184 182 185 186 192 198 190 196 200 196 199 200 197 191 193 183 183 176 179 168 172 166 155 139 119 112 40 36 44 38 22 
29 44 40 54 40 50 107 129 132 150 171 154 159 171 167 150 150 162 160 159 177 173 187 187 184 184 186 171 165 166 149 120 138 120 121 127 131 125 128 118 116 34 40 51 36 19 
31 41 24 63 45 47 111 136 130 131 123 124 129 129 124 101 96 96 96 114 139 158 173 171 167 171 171 160 142 133 112 98 80 86 91 108 119 99 91 104 119 31 43 58 25 23 
21 41 28 56 54 54 115 129 135 128 117 121 112 128 139 142 139 126 102 103 113 137 161 174 176 175 182 153 127 114 119 116 124 138 143 153 147 130 124 83 114 25 26 41 27 32 
25 31 26 34 65 43 117 135 131 125 132 146 147 120 108 102 113 133 121 163 140 117 153 186 190 191 193 149 124 148 126 130 116 105 112 125 134 147 138 90 120 34 33 23 29 26 
26 24 24 38 54 52 124 140 136 128 132 133 98 109 126 78 112 96 134 114 155 132 142 191 196 197 192 125 145 127 124 148 77 64 83 123 116 122 128 112 120 43 16 31 42 54 
48 40 34 38 54 36 126 138 126 143 136 118 116 147 123 116 97 117 185 125 157 138 134 193 199 201 197 125 166 137 176 136 76 60 89 155 98 110 126 123 123 37 30 51 102 79 
70 44 63 48 50 34 126 134 150 132 137 153 139 170 191 159 151 183 178 172 160 192 162 184 197 202 195 134 170 168 166 178 140 125 161 153 119 125 125 129 124 22 70 78 137 92 
141 75 82 81 43 44 124 133 156 159 160 177 172 173 179 178 179 164 168 185 195 191 180 178 192 201 196 135 165 173 171 167 170 163 162 152 145 147 137 141 130 50 127 104 132 96 
145 128 116 103 50 46 125 137 163 171 189 161 169 160 150 164 176 180 184 189 193 186 178 174 188 202 195 140 164 182 173 173 166 150 147 150 155 158 158 146 126 111 151 115 105 99 
77 142 132 112 57 47 118 133 159 180 185 182 172 177 179 181 180 192 198 197 189 182 184 169 183 203 198 143 160 170 192 177 165 157 157 159 164 163 156 142 123 142 180 152 80 106 
8 156 151 116 37 103 98 127 151 175 191 195 191 188 193 188 196 201 196 193 184 176 177 164 179 206 198 142 154 159 182 187 190 184 184 174 179 180 171 146 118 157 185 139 106 104 
38 163 159 151 68 141 95 121 150 173 189 192 199 194 192 194 194 192 195 187 178 179 177 168 185 205 198 149 141 156 172 184 185 184 183 178 184 185 167 141 105 145 164 118 104 106 
63 140 116 184 102 163 98 107 145 168 182 183 192 196 191 196 193 192 193 190 174 161 171 172 195 205 195 164 138 141 178 185 183 188 182 178 184 183 165 149 110 158 127 100 99 104 
70 78 152 107 178 124 98 89 140 159 173 181 186 192 197 192 194 192 185 166 163 169 173 178 205 201 199 173 141 142 162 184 184 186 184 179 175 167 159 139 132 149 160 91 100 104 
73 54 142 159 153 150 103 88 125 154 163 173 180 187 188 187 187 181 157 139 161 168 163 179 199 202 200 175 136 156 132 167 182 181 179 182 179 170 154 128 153 156 140 100 102 105 
75 70 52 161 172 159 99 105 108 131 150 165 172 180 183 185 182 157 142 126 143 102 126 136 177 184 185 138 122 130 144 150 172 177 175 176 172 157 144 104 146 138 110 98 103 102 
70 70 47 121 158 158 89 103 94 117 137 154 157 170 171 174 168 141 157 168 102 80 48 85 105 122 117 70 68 107 164 141 161 170 168 163 154 147 129 101 123 99 97 102 99 101 
68 67 57 29 46 71 49 95 88 101 112 132 147 157 153 157 145 140 179 167 165 120 93 68 63 74 77 115 131 143 157 163 142 151 155 148 143 133 111 80 89 95 98 100 102 103 
66 68 61 21 20 25 10 93 90 94 92 107 123 137 144 137 133 163 160 166 149 151 141 114 127 121 132 132 127 130 157 158 162 126 142 141 129 119 101 76 93 95 100 100 103 103 
66 69 68 44 27 18 20 60 104 100 106 97 115 135 138 125 158 169 171 150 163 153 149 142 122 116 128 132 131 140 145 140 168 152 118 131 121 103 103 86 89 94 98 100 100 103 
71 68 72 70 51 26 21 16 91 99 114 106 115 140 145 137 147 153 152 147 159 150 168 156 127 111 136 125 139 141 131 140 158 148 127 135 119 94 94 90 95 99 98 102 101 103 
67 66 65 66 68 68 65 74 68 107 122 124 123 144 167 140 139 133 138 158 163 165 158 162 153 147 141 142 139 135 139 127 130 131 145 136 116 113 82 94 93 97 100 101 105 103 
65 67 71 70 70 70 74 25 55 94 111 127 125 143 166 146 138 120 99 92 107 109 117 125 158 144 108 106 93 94 93 111 129 133 149 124 106 109 86 95 95 95 99 102 102 100 
62 66 68 67 66 70 61 25 58 65 101 117 118 126 151 165 145 154 148 153 120 96 81 68 66 82 94 113 116 123 131 132 131 135 139 115 106 85 92 95 99 98 103 102 103 100 
65 67 67 69 66 68 44 18 54 75 70 108 114 116 130 152 154 161 160 152 138 151 160 186 178 167 171 153 138 131 142 141 139 137 132 111 108 53 88 95 94 98 100 100 102 100 
66 67 67 69 64 63 38 17 52 94 51 89 98 107 123 142 145 150 157 154 142 132 139 129 116 121 121 126 133 128 137 142 142 141 124 102 98 42 50 95 97 98 99 96 104 100 
77 74 76 76 64 64 28 19 48 96 75 60 91 113 119 134 136 146 150 155 145 134 113 116 117 121 121 114 120 137 138 141 140 133 111 111 27 48 48 49 61 83 99 101 103 102 
81 78 71 74 71 70 41 19 61 96 88 57 68 111 112 128 134 139 145 149 147 152 143 132 127 125 133 128 137 136 138 143 140 122 107 84 14 48 55 54 60 52 55 71 93 100 
82 79 72 70 77 48 30 11 94 87 92 72 53 66 113 120 127 139 154 166 156 152 158 148 144 141 132 145 148 143 150 145 130 110 82 74 14 51 52 63 56 52 52 52 57 62 
82 78 74 64 83 59 37 4 100 91 97 92 67 54 66 105 124 132 154 159 172 172 169 176 165 160 174 164 165 158 161 141 122 87 88 64 21 53 51 59 61 52 53 56 55 56 
72 69 75 73 73 58 43 14 107 93 102 96 81 65 54 51 99 118 133 148 172 184 167 174 162 146 164 160 166 166 155 127 104 85 101 65 29 55 55 61 50 51 59 53 51 56 
81 71 69 81 69 57 52 30 118 101 104 100 91 74 61 59 49 83 120 127 146 161 159 160 156 136 146 160 155 149 130 110 78 102 108 71 34 57 53 60 49 55 58 58 55 60 
66 66 68 84 67 66 57 70 119 101 109 113 102 86 72 59 57 51 80 110 114 132 144 140 137 144 138 148 130 117 112 75 99 112 107 79 50 54 54 62 57 61 52 56 56 54 
72 82 68 85 63 57 57 74 120 114 105 110 107 96 74 67 55 58 51 54 82 93 118 108 121 124 119 107 97 82 79 100 119 118 89 61 59 50 55 58 55 50 57 53 58 57 
