P1
20 30
0000000000000000000000000000000000000000000000000000000000000000000000
0000000000000000111111111100000000111111111111100000011111111111110000
0000111000000000000000001110000000000000000011100000000000000000111000
0000000000000011100000000000000001111011110000000000011111111110000000
0001111111111100000000001111000011100000000001000000011100000000000000
0001110000000000000000001110000000000000000011100000000000000000111000
0000000000000011100000000100000001110000000011110000011100000000011111
1111100000000000111111110000000000000011111000000000000000000000000000
0000000000000000000000000000000000000000