P1
100 100
0000000000000000000000000000000000000000000000000000000000000000000000
0000000000000000000000000000000000000000000000000000000000000000000000
0000000000000000000000000000000000000000000000000000000000000000000000
0000000000000000000000000000000000000000000000000000000000000000000000
0000000000000000000000000000000000000000000000000000000000000000000000
0000000000000000000000000000000000000000000000000000000000000000000000
0000000000000000000000000000000000000000000000000000000000000000000000
0000000000000000000000000000000000000000000000000000000000000000000000
0000000000000000000000000000000000000000000000000000000000000000000000
0000000000000000000000000000000000000000000000000000000000000000000000
0000000000000000000000000000000000000000000000000000000000000000000000
0000000000000000000000000000000000000000000000000000000000000000000000
0000000000000000000000000000000000000000000000000000000000000000000000
0000000000000000000000000000000000000000000000000000000000000000000000
0000000000000000000000000000000000000000000000000000000000000000000000
0000000000000000000000000000000000000000000000000000000000000000000000
0000000000000000000000000000000000000000000000000000000000000000000000
0000000000000000000000000000000000000000000000000000000000000000000000
0000000000000000000000000000000000000000000000000000000000000000000000
0000000000000000000000000000000000000000000000000000000000000000000000
0000000000000000000000000000000000000000000000000000000000000000000000
0000000000000000000000000000000000000000000000000000000000000000000000
0000000000000000000000000000000000000000000000000000000000000000000000
0000000000000000000000000000000000000000000000000000000000000000000000
0000000000000000000000000000000000000001011111111111000000000000000000
0000000000000000000000000000000000000000000000000000000000000000000011
1111111111111111111111111111111111111111111111111111111110000000000000
0000000000000000000000000000111111111111111111111111111111111111111111
1111111111111111110000000000000000000000000000000000000000111000000000
0011111111111111111111111111111111111111111111111000000000000000000000
0000000000000000001110000000000000000000000000000000000000000000000000
0000001110000000000000000000000000000000000000001110000000000000000000
0000000000000000000000000000000000000111000000000000000000000000000000
0000000011100000000000000000000000000000000000000000000000000000000111
0000000000000000000000000000000000000011100000000000000000000000000000
0000000000000000000000000001110000000000000000000000000000000000000011
1000000000000000000000000000000000000000000000000000000001110000000000
0000000000000000000000000000111000000000000000000000000000000000000000
0000000000000000011100000000000000000000000000000000000000111000000000
0000000000000000000000000000000000000000000000011100000000000000000000
0000000000000000001110000000000000000000000000000000000000000000000000
0000000111000000000000000000000000000000000000001110000000000000000000
0000000000000000000000000000000000000111000000000000000000000000000000
0000000011100000000000000000000000000000000000000000000000000000000111
0000000000000000000000000000000000000011100000000000000000000000000000
0000000000000000000000000001110000000000000000000000000000000000000011
1000000000000000000000000000000000000000000000000000000000111000000000
0000000000000000000000000000111000000000000000000000000000000000000000
0000000000000000001110000000000000000000000000000000000000111000000000
0000000000000000000000000000000000000000000000001110000000000000000000
0000000000000000001110000000000000000000000000000000000000000000000000
0000000011100000000000000000000000000000000000001110000000000000000000
0000000000000000000000000000000000000011100000000000000000000000000000
0000000011100000000000000000000000000000000000000000000000000000000011
1000000000000000000000000000000000000011100000000000000000000000000000
0000000000000000000000000000111000000000000000000000000000000000000011
1000000000000000000000000000000000000000000000000000000000111000000000
0000000000000000000000000000111000000000000000000000000000000000000000
0000000000000000001110000000000000000000000000000000000000111000000000
0000000000000000000000000000000000000000000000001110000000000000000000
0000000000000000000111000000000000000000000000000000000000000000000000
0000000011100000000000000000000000000000000000000111000000000000000000
0000000000000000000000000000000000000011100000000000000000000000000000
0000000001110000000000000000000000000000000000000000000000000000000011
1000000000000000000000000000000000000001110000000000000000000000000000
0000000000000000000000000000111000000000000000000000000000000000000001
1100000000000000000000000000000000000000000000000000000000111000000000
0000000000000000000000000000011100000000000000000000000000000000000000
0000000000000000001110000000000000000000000000000000000000011100000000
0000000000000000000000000000000000000000000000001110000000000000000000
0000000000000000000111000000000000000000000000000000000000000000000000
0000000001110000000000000000000000000000000000000111000000000000000000
0000000000000000000000000000000000000001110000000000000000000000000000
0000000001110000000000000000000000000000000000000000000000000000000001
1100000000000000000000000000000000000001110000000000000000000000000000
0000000000000000000000000000011100000000000000000000000000000000000001
1100000000000000000000000000000000000000000000000000000000011100000000
0000000000000000000000000000011100000000000000000000000000000000000000
0000000000000000000111000000000000000000000000000000000000011100000000
0000000000000000000000000000000000000000000000000111000000000000000000
0000000000000000000111000000000000000000000000000000000000000000000000
0000000001110000000000000000000000000000000000000111000000000000000000
0000000000000000000000000000000000000001110000000000000000000000000000
0000000001110000000000000000000000000000000000000000000000000000000001
1100000000000000000000000000000000000001110000000000000000000000000000
0000000000000000000000000000011100000000000000000000000000000000000001
1100000000000000000000000000000000000000000000000000000000001110000000
0000000000000000000000000000011100000000000000000000000000000000000000
0000000000000000000011100000000000000000000000000000000000011100000000
0000000000000000000000000000000000000000000000000011100000000000000000
0000000000000000000111000000000000000000000000000000000000000000000000
0000000000111000000000000000000000000000000000000111000000000000000000
0000000000000000000000000000000000000000111000000000000000000000000000
0000000001110000000000000000000000000000000000000000000000000000000000
1110000000000000000000000000000000000001110000000000000000000000000000
0000000000000000000000000000001110000000000000000000000000000000000001
1100000000000000000000000000000000000000000000000000000000001110000000
0000000000000000000000000000011100000000000000000000000000000000000000
0000000000000000000011100000000000000000000000000000000000011100000000
0000000000000000000000000000000000000000000000000011100000000000000000
0000000000000000000111000000000000000000000000000000000000000000000000
0000000000111000000000000000000000000000000000000111000000000000000000
0000000000000000000000000000000000000000011100000000000000000000000000
0000000001110000000000000000000000000000000000000000000000000000000000
0111000000000000000000000000000000000001110000000000000000000000000000
0000000000000000000000000000000111000000000000000000000000000000000001
1100000000000000000000000000000000000000000000000000000000000111000000
0000000000000000000000000000011100000000000000000000000000000000000000
0000000000000000000001110000000000000000000000000000000000111000000000
0000000000000000000000000000000000000000000000000001110000000000000000
0000000000000000001110000000000000000000000000000000000000000000000000
0000000000001110000000000000000000000000000000001110000000000000000000
0000000000000000000000000000000000000000001110000000000000000000000000
0000000011100000000000000000000000000000000000000000000000000000000000
0011100000000000000000000000000000000011100000000000000000000000000000
0000000000000000000000000000000011100000000000000000000000000000000011
1000000000000000000000000000000000000000000000000000000000000011100000
0000000000000000000000000000111000000000000000000000000000000000000000
0000000000000000000000111000000000000000000000000000000000111000000000
0000000000000000000000000000000000000000000000000000111000000000000000
0000000000000000001110000000000000000000000000000000000000000000000000
0000000011111110000000000000000000000000000000000111111111111000000000
0000000000000000000000000000000111111111111100000000000000000000000000
0000000001111111111111111111111000000000000000000000111111111111111111
1100000000000000000000000000000000000000111111111111111111111111111111
1111111111111111111111111111000000000000000000000000000000000000000000
0000000000011111111111111111111111111111111111111110000000000000000000
0000000000000000000000000000000000000000000000000001111111111111111111
1100000000000000000000000000000000000000000000000000000000000000000000
0000000000000000000000000000000000000000000000000000000000000000000000
0000000000000000000000000000000000000000000000000000000000000000000000
0000000000000000000000000000000000000000000000000000000000000000000000
0000000000000000000000000000000000000000000000000000000000000000000000
0000000000000000000000000000000000000000000000000000000000000000000000
0000000000000000000000000000000000000000000000000000000000000000000000
0000000000000000000000000000000000000000000000000000000000000000000000
0000000000000000000000000000000000000000000000000000000000000000000000
0000000000000000000000000000000000000000000000000000000000000000000000
0000000000000000000000000000000000000000000000000000000000000000000000
0000000000000000000000000000000000000000000000000000000000000000000000
0000000000000000000000000000000000000000000000000000000000000000000000
0000000000000000000000000000000000000000000000000000000000000000000000
000000000000000000000000000000000000000000000000000000000000