P2
46 56
255
114 112 108 111 111 112 112 112 89 59 70 87 91 111 142 121 119 126 144 115 101 163 148 114 113 121 63 77 64 76 70 74 55 37 50 52 95 113 114 111 111 110 110 110 104 109 
109 111 111 108 116 111 106 90 98 100 100 105 125 141 161 137 123 126 117 97 153 156 150 129 148 152 64 98 91 90 83 89 69 82 62 47 49 56 115 111 113 111 113 112 111 109 
110 108 107 112 105 97 71 64 73 88 100 125 120 137 133 126 125 120 113 99 174 123 159 130 122 105 107 117 109 94 88 71 67 79 74 77 70 49 43 114 110 112 110 113 109 111 
113 111 110 102 65 35 65 76 103 113 137 125 128 105 130 128 130 147 109 96 164 103 136 134 108 101 113 122 123 95 80 64 62 65 74 87 72 73 54 39 119 110 110 111 108 107 
109 108 111 77 35 75 81 73 63 90 117 144 133 106 120 133 120 120 121 87 147 97 121 112 114 104 122 131 110 114 93 73 74 79 76 66 70 60 65 66 21 114 111 113 115 113 
111 108 65 48 67 87 95 118 140 160 170 174 158 118 86 118 126 117 118 90 139 110 114 120 122 107 108 111 127 122 111 91 78 86 95 93 78 66 51 54 71 43 113 113 107 111 
104 108 48 86 108 118 125 156 175 187 169 110 105 107 86 75 116 101 103 99 141 120 119 117 120 89 116 138 137 120 109 106 92 90 97 103 87 96 70 58 38 66 61 111 112 112 
115 67 89 100 73 52 88 105 122 95 94 95 104 85 96 83 80 93 115 117 147 122 146 121 110 107 138 150 152 156 140 116 113 119 123 122 104 102 86 83 77 35 51 92 110 108 
91 98 111 83 103 104 128 141 114 93 112 89 90 94 110 114 117 117 131 139 140 121 155 133 120 121 135 164 173 163 132 116 124 123 120 112 118 112 89 87 89 82 37 29 102 107 
95 98 85 94 103 92 101 124 128 119 122 136 124 119 127 137 161 159 164 163 169 149 160 138 143 136 141 146 152 170 163 149 128 123 118 109 116 120 94 79 82 88 76 50 45 102 
93 75 104 116 119 119 104 102 106 114 126 137 115 131 154 177 190 192 193 190 186 186 180 156 137 138 145 171 174 178 156 137 117 116 105 97 92 101 95 111 100 72 89 78 47 37 
100 114 134 127 104 88 90 104 107 102 119 135 158 179 197 199 201 204 203 201 203 202 193 178 156 161 153 160 151 143 137 130 115 91 95 85 89 81 72 108 124 111 84 76 63 30 
162 149 120 82 84 101 83 99 102 110 152 168 189 199 203 204 205 206 203 207 206 204 198 191 186 178 175 172 172 170 159 151 135 121 105 90 78 95 95 102 112 103 132 80 79 52 
137 82 88 92 67 73 94 118 150 166 180 187 197 201 202 203 205 205 203 203 202 200 200 198 197 194 184 175 159 177 182 178 166 146 131 108 92 81 54 85 108 70 71 108 75 66 
112 88 90 99 86 102 121 175 186 187 188 193 195 200 198 202 203 204 201 201 201 199 196 198 200 195 194 199 197 185 178 178 180 167 143 141 118 93 82 77 106 83 46 99 92 70 
112 92 72 98 92 113 148 184 189 187 189 188 193 196 200 200 202 202 202 201 198 200 199 193 195 200 198 201 198 193 193 181 166 165 155 152 146 120 85 66 76 108 118 87 89 88 
110 84 122 101 97 132 168 174 188 189 187 189 185 187 193 198 200 198 197 196 198 196 197 190 194 198 192 192 194 194 193 181 179 165 170 181 163 140 106 82 60 59 103 128 134 82 
76 130 108 93 92 131 168 177 187 188 184 187 183 189 188 188 191 195 196 197 194 196 196 193 192 193 192 187 185 187 179 177 176 173 174 179 173 161 124 96 62 75 68 93 102 120 
110 122 100 92 109 142 167 174 180 190 182 184 180 183 184 187 188 193 193 196 193 191 194 194 195 192 194 189 187 183 183 177 176 182 183 181 172 161 134 103 67 48 85 67 82 102 
112 109 91 99 115 149 160 170 178 184 184 185 182 185 183 189 188 192 192 190 193 195 198 197 198 195 192 193 182 188 187 188 188 187 180 179 171 158 148 117 73 61 77 63 87 89 
107 107 110 89 121 152 161 158 176 182 182 181 184 187 189 190 189 193 193 196 194 198 197 199 200 198 196 196 186 195 192 194 191 181 180 182 175 156 152 139 99 41 80 83 64 99 
81 70 96 109 125 160 158 161 170 178 178 189 189 191 192 195 197 196 200 196 199 198 200 199 197 195 193 198 197 197 197 195 194 192 186 184 177 158 152 138 118 57 58 92 80 62 
73 122 103 69 111 155 163 156 166 181 183 184 188 189 191 194 196 199 199 197 197 197 197 196 195 195 198 198 198 194 194 192 194 192 191 189 182 166 150 139 134 77 25 88 88 64 
89 107 103 49 112 151 158 164 170 179 186 189 188 189 189 189 192 192 193 194 189 193 192 193 191 191 195 196 190 188 188 188 192 192 192 192 186 178 153 137 130 86 28 70 82 44 
79 72 91 49 120 144 154 165 171 178 186 191 188 192 183 184 182 182 181 181 184 186 186 185 186 181 182 183 175 176 179 175 174 169 176 174 178 175 160 145 132 93 37 71 70 43 
75 66 56 42 130 140 150 163 168 168 170 157 147 130 120 119 120 119 134 148 168 170 168 171 172 164 150 150 118 104 98 97 100 100 109 118 117 131 149 135 125 100 41 47 54 24 
68 74 42 44 128 140 147 137 131 132 118 112 97 84 68 71 73 76 101 100 128 130 150 156 149 140 113 96 86 82 68 62 61 80 88 85 90 91 108 107 129 108 40 36 41 22 
66 63 38 45 124 147 129 93 102 96 95 86 85 79 71 60 55 74 86 97 105 120 143 153 145 130 106 94 81 65 46 38 39 46 51 73 91 94 103 106 129 120 44 37 27 39 
71 51 44 43 120 142 119 99 96 89 68 55 46 29 34 32 53 47 45 63 82 109 141 146 157 134 115 79 60 44 78 27 40 27 96 36 53 85 106 119 131 127 45 42 18 39 
109 51 46 50 125 131 130 109 89 69 49 38 87 41 31 44 118 47 75 67 70 115 177 188 181 148 110 82 78 69 120 67 37 49 126 83 67 79 105 121 129 129 65 52 33 43 
110 61 33 54 131 139 127 112 84 74 65 64 93 117 80 102 94 73 70 92 76 142 181 197 189 169 110 124 105 87 88 103 103 97 87 89 101 115 116 126 130 132 53 49 36 39 
96 71 48 30 133 146 144 140 152 134 116 102 100 95 96 86 84 83 87 113 145 161 181 196 195 171 121 124 108 86 72 69 80 81 95 103 113 116 133 140 141 141 38 53 30 41 
110 74 47 18 132 152 153 153 164 150 134 112 95 79 75 66 93 114 131 174 175 163 176 196 195 182 128 154 140 109 92 87 76 85 91 106 119 119 136 144 149 143 44 36 37 49 
143 99 45 19 130 147 159 156 161 162 151 139 123 118 113 129 150 172 172 178 173 161 161 196 193 182 133 153 162 162 142 122 120 126 128 131 132 140 143 144 147 142 27 32 52 51 
148 149 76 31 122 143 152 161 171 171 175 177 178 173 173 182 183 176 168 172 171 164 164 190 198 189 147 154 158 161 167 173 170 164 159 156 156 161 165 153 147 143 18 31 63 60 
118 141 114 76 106 142 152 160 168 180 188 184 187 181 187 184 181 172 168 169 169 168 167 190 201 192 158 154 154 152 163 172 180 183 183 180 174 170 167 156 143 139 14 34 69 66 
113 161 143 104 82 125 144 151 163 171 175 183 183 187 182 179 175 168 162 159 156 170 177 195 200 191 184 148 136 140 152 163 172 175 181 179 180 170 158 148 134 139 19 40 74 61 
151 125 153 126 75 114 132 142 154 167 171 177 182 179 171 171 156 135 134 167 162 173 189 200 198 194 191 184 157 104 124 142 153 166 166 172 171 170 157 140 127 140 32 54 86 78 
188 156 76 97 23 127 121 130 147 153 158 167 171 172 164 143 111 88 120 174 155 172 181 197 187 187 192 184 149 111 118 112 130 147 160 162 151 149 140 137 123 127 36 70 93 73 
158 133 107 27 15 121 112 110 128 142 153 159 162 156 141 106 85 112 112 158 117 154 158 172 168 172 167 145 122 142 117 109 117 129 133 133 134 132 127 124 124 103 44 67 93 86 
146 160 67 118 21 101 121 102 97 120 137 150 142 135 117 84 131 149 150 102 84 60 84 112 109 112 98 78 92 115 127 133 97 106 119 121 121 119 120 118 126 58 54 70 106 108 
126 135 110 84 31 64 112 111 102 101 123 136 129 112 87 109 154 147 148 140 57 50 53 63 65 70 62 56 116 115 121 130 123 75 104 114 115 113 108 117 132 25 68 61 112 127 
134 105 122 44 48 9 111 111 107 86 114 117 113 101 77 140 143 154 149 158 100 63 68 67 63 70 82 104 113 116 122 124 125 113 75 102 117 113 112 119 136 15 71 55 106 131 
123 128 67 49 26 32 103 101 100 91 102 109 102 81 114 135 145 153 162 161 151 97 89 84 84 79 112 120 122 126 123 122 116 125 102 99 119 119 111 121 94 31 74 53 106 133 
134 90 51 78 84 71 62 95 100 105 103 99 105 87 138 112 104 140 151 160 153 137 103 116 118 111 110 129 133 132 127 114 79 106 119 115 125 120 118 129 18 38 68 67 88 126 
93 57 50 87 53 40 55 82 96 109 121 111 118 108 121 85 31 44 60 72 76 92 88 73 79 81 78 72 82 72 42 55 77 91 112 123 125 121 116 93 18 28 49 77 76 121 
78 39 78 43 46 35 37 25 83 106 117 111 119 120 110 84 89 49 16 76 66 90 97 97 83 97 73 76 85 67 85 132 122 108 111 113 115 116 112 9 12 17 25 64 87 84 
63 69 53 31 33 32 30 18 33 81 111 99 109 115 114 113 131 145 98 60 39 36 57 62 61 62 43 62 92 84 119 131 128 121 108 102 106 110 61 6 14 20 21 50 83 89 
73 46 36 33 28 35 22 23 21 98 73 95 98 107 121 133 149 146 134 126 131 122 117 106 84 94 94 109 90 111 129 129 129 119 105 97 99 63 62 11 14 21 11 18 60 98 
70 37 26 30 24 35 19 13 20 104 86 67 84 97 112 125 141 144 139 117 112 118 139 127 106 95 88 90 104 124 120 125 128 125 109 103 77 55 64 9 16 21 11 26 22 64 
53 33 31 30 26 22 16 22 23 109 109 71 65 89 104 124 128 129 135 122 101 80 66 79 83 76 69 92 105 114 116 123 123 123 109 84 68 48 78 7 16 25 8 19 23 43 
32 35 30 25 25 15 21 17 16 99 110 102 61 72 100 124 130 124 124 125 104 86 74 73 64 75 80 100 109 113 120 121 127 116 85 72 60 56 74 4 18 18 13 25 31 34 
32 30 28 26 29 21 19 15 9 96 108 105 80 49 60 114 136 136 132 129 109 105 98 91 89 82 98 109 118 121 126 130 123 93 72 74 61 59 65 9 21 29 17 22 22 35 
39 39 32 28 31 20 21 24 6 95 106 107 88 60 51 69 126 150 153 137 134 144 151 141 134 124 135 135 129 128 126 127 111 71 62 75 67 68 36 20 18 19 16 31 31 26 
36 37 27 23 24 10 20 29 16 85 107 101 92 79 57 55 60 127 119 144 145 152 156 150 156 153 147 135 124 118 114 116 67 77 72 77 65 68 9 13 22 15 29 32 28 36 
35 35 30 37 24 17 20 26 30 60 95 104 99 87 63 58 62 57 92 107 123 125 134 130 119 109 113 115 103 103 89 65 66 68 68 73 69 50 10 22 25 13 24 37 38 47 
