P1
# CREATOR: GIMP PNM Filter Version 1.1
100 100
0000000000000000000000000000000000000000000000000000000000000000000000
0000000000000000000000000000000000000000000000000000000000000000000000
0000000000000000000000000000000000000000000000000000000000000000000000
0000000000000000000000000000000000000000000000000000000000000000000000
0000000000000000000000000000000000000000000000000000000000000000000000
0000000000000000000000000000000000000000000000000000000000000000000000
0000000000000000000000000000000000000000000000000000000000000000000000
0000000000000000000000000000000000000000000000000000000000000000000000
0000000000000000000000000000000000000000000000000000000000000000000000
0000000000000000000000000000000000000000000000000000000000000000000000
0000000000000000000000000000000000000000000000000000000000000000000000
0000000000000000000000000000000000000000000000000000000000000000000000
0000000000000000000000000000000000000000000000000000000000000000000000
0000000000000000000000000000000000000000000000000000000000000000000000
0000000000000000000000000000000000000000000000000000000000000000000011
1110000000000000000000000000000000000000000000000000000000000000000000
0000000000000000000000111111111111111110000000000000000000000000000000
0000000000000000000000000000000000000000000000000111111111111111111111
1100000000000000000000000000000000000000000000000000000000000000000000
0000001111111111110000011111111111000000000000000000000000000000000000
0000000000000000000000000000000000111111110000000000000000011111110000
0000000000000000000000000000000000000000000000000000000000000001111110
0000000000000000000000111111000000000000000000000000000000000000000000
0000000000000000000001111100000000000000000000000000001111100000000000
0000000000000000000000000000000000000000000000000011110000000000000000
0000000000000000111100000000000000000000000000000000000000000000000000
0000000001111000000000000000000000000000000000001110000000000000000000
0000000000000000000000000000000000000111100000000000000000000000000000
0000000001110000000000000000000000000000000000000000000000000000001111
0000000000000000000000000000000000000000111000000000000000000000000000
0000000000000000000000000111100000000000000000000000000000000000000000
0111000000000000000000000000000000000000000000000000001110000000000000
0000000000000000000000000000000011100000000000000000000000000000000000
0000000000000011100000000000000000000000000000000000000000000001110000
0000000000000000000000000000000000000000000111000000000000000000000000
0000000000000000000000001110000000000000000000000000000000000000000000
0011100000000000000000000000000000000000000000000000001110000000000000
0000000000000000000000000000000111000000000000000000000000000000000000
0000000000000001110000000000000000000000000000000000000000000111000000
0000000000000000000000000000000000000000000000111000000000000000000000
0000000000000000000011100000000000000000000000000000000000000000000000
0000001110000000000000000000000000000000000000000111000000000000000000
0000000000000000000000000000000000000111000000000000000000000000000000
0000000001110000000000000000000000000000000000000000000000000000000111
0000000000000000000000000000000000000011100000000000000000000000000000
0000000000000000000000000000111000000000000000000000000000000000000011
1000000000000000000000000000000000000000000000000000000000111000000000
0000000000000000000000000001110000000000000000000000000000000000000000
0000000000000000000111000000000000000000000000000000000001110000000000
0000000000000000000000000000000000000000000000000111000000000000000000
0000000000000000011100000000000000000000000000000000000000000000000000
0000000000111000000000000000000000000000000000111000000000000000000000
0000000000000000000000000000000000000000111000000000000000000000000000
0000001110000000000000000000000000000000000000000000000000000000000000
1110000000000000000000000000000000001110000000000000000000000000000000
0000000000000000000000000000000111000000000000000000000000000000011100
0000000000000000000000000000000000000000000000000000000000000111000000
0000000000000000000000000111000000000000000000000000000000000000000000
0000000000000000000001110000000000000000000000000000000111000000000000
0000000000000000000000000000000000000000000000000000111000000000000000
0000000000000001110000000000000000000000000000000000000000000000000000
0000000000001110000000000000000000000000000011100000000000000000000000
0000000000000000000000000000000000000000001110000000000000000000000000
0000111000000000000000000000000000000000000000000000000000000000000000
0011100000000000000000000000000000111000000000000000000000000000000000
0000000000000000000000000000000011100000000000000000000000000000111000
0000000000000000000000000000000000000000000000000000000000000011100000
0000000000000000000000001110000000000000000000000000000000000000000000
0000000000000000000000111000000000000000000000000000001110000000000000
0000000000000000000000000000000000000000000000000000111000000000000000
0000000000000011100000000000000000000000000000000000000000000000000000
0000000000001110000000000000000000000000000011100000000000000000000000
0000000000000000000000000000000000000000001110000000000000000000000000
0000111000000000000000000000000000000000000000000000000000000000000000
0011100000000000000000000000000000111000000000000000000000000000000000
0000000000000000000000000000000011100000000000000000000000000000111000
0000000000000000000000000000000000000000000000000000000000000011100000
0000000000000000000000001110000000000000000000000000000000000000000000
0000000000000000000000111000000000000000000000000000001110000000000000
0000000000000000000000000000000000000000000000000000111000000000000000
0000000000000011100000000000000000000000000000000000000000000000000000
0000000000001110000000000000000000000000000011100000000000000000000000
0000000000000000000000000000000000000000001110000000000000000000000000
0000111000000000000000000000000000000000000000000000000000000000000000
0111000000000000000000000000000000111000000000000000000000000000000000
0000000000000000000000000000000111000000000000000000000000000000111000
0000000000000000000000000000000000000000000000000000000000000111000000
0000000000000000000000000111000000000000000000000000000000000000000000
0000000000000000000001110000000000000000000000000000000111000000000000
0000000000000000000000000000000000000000000000000001110000000000000000
0000000000000001110000000000000000000000000000000000000000000000000000
0000000000111000000000000000000000000000000000111000000000000000000000
0000000000000000000000000000000000000000111000000000000000000000000000
0000001110000000000000000000000000000000000000000000000000000000000001
1100000000000000000000000000000000000111000000000000000000000000000000
0000000000000000000000000000011100000000000000000000000000000000000111
0000000000000000000000000000000000000000000000000000000000011100000000
0000000000000000000000000000111000000000000000000000000000000000000000
0000000000000000001110000000000000000000000000000000000000111000000000
0000000000000000000000000000000000000000000000001110000000000000000000
0000000000000000000111000000000000000000000000000000000000000000000000
0000000111000000000000000000000000000000000000000111000000000000000000
0000000000000000000000000000000000000111000000000000000000000000000000
0000000000111000000000000000000000000000000000000000000000000000001110
0000000000000000000000000000000000000000011100000000000000000000000000
0000000000000000000000000011100000000000000000000000000000000000000000
0011110000000000000000000000000000000000000000000000000111000000000000
0000000000000000000000000000000001111000000000000000000000000000000000
0000000000000001110000000000000000000000000000000000000000000000111100
0000000000000000000000000000000000000000000011100000000000000000000000
0000000000000000000000000011100000000000000000000000000000000000000000
0001110000000000000000000000000000000000000000000000000001110000000000
0000000000000000000000000000000001110000000000000000000000000000000000
0000000000000000001111000000000000000000000000000000000000000011100000
0000000000000000000000000000000000000000000000000111100000000000000000
0000000000000000000001110000000000000000000000000000000000000000000000
0000000000111110000000000000000000000000000000000011100000000000000000
0000000000000000000000000000000000000000001111100000000000000000000000
0000000001110000000000000000000000000000000000000000000000000000000000
0001111110000000000000000000000000000111110000000000000000000000000000
0000000000000000000000000000000000011111110000000000000000000000111111
1000000000000000000000000000000000000000000000000000000000000000000111
1111110010000000000000111111100000000000000000000000000000000000000000
0000000000000000000000000000011111111111110000000111111110000000000000
0000000000000000000000000000000000000000000000000000000000000011111111
1110111111111100000000000000000000000000000000000000000000000000000000
0000000000000000000000000011111111111111110000000000000000000000000000
0000000000000000000000000000000000000000000000000000000000011111111110
0000000000000000000000000000000000000000000000000000000000000000000000
0000000000000000000000111000000000000000000000000000000000000000000000
0000000000000000000000000000000000000000000000000000000000000000000000
0000000000000000000000000000000000000000000000000000000000000000000000
0000000000000000000000000000000000000000000000000000000000000000000000
0000000000000000000000000000000000000000000000000000000000000000000000
0000000000000000000000000000000000000000000000000000000000000000000000
0000000000000000000000000000000000000000000000000000000000000000000000
0000000000000000000000000000000000000000000000000000000000000000000000
0000000000000000000000000000000000000000000000000000000000000000000000
0000000000000000000000000000000000000000000000000000000000000000000000
0000000000000000000000000000000000000000000000000000000000000000000000
0000000000000000000000000000000000000000000000000000000000000000000000
0000000000000000000000000000000000000000000000000000000000000000000000
000000000000000000000000000000000000000000000000000000000000