P1
# CREATOR: GIMP PNM Filter Version 1.1
100 100
0000000000000000000000000000000000000000000000000000000000000000000000
0000000000000000000000000000000000000000000000000000000000000000000000
0000000000000000000000000000000000000000000000000000000000000000000000
0000000000000000000000000000000000000000000000000000000000000000000000
0000000000000000000000000000000000000000000000000000000000000000000000
0000000000000000000000000000000000000000000000000000000000000000000000
0000000000000000000000000000000000000000000000000000000000000000000000
0000000000000000000000000000000000000000000000000000000000000000000000
0000000000000000000000000000000000000000000000000000000000000000000000
0000000000000000000000000000000000000000000000000000000000000000000000
0000000000000000000000000000000000000000000000000000000000000000000000
0000000000000000000000000000000000000000000000000000000000000000000000
0000000000000000000000000000000000000000000000000000000000000000000000
0000000000000000000000000000000000000000000000000000000000000000000000
0000000000000000000000000000000000000000000000000000000000000000000000
0000000000000000000000000000000000000000000000000000000000000000000000
0000000000000000000000000000000000000000000000000000000000000000000000
0000000000000000000000000000000000000000000000000000000000000000000000
0000000000000000000000000000000000000000000000000000000000000000000000
0000000000000000000000000000000000000000000000000000000000000000000000
0000000000000000000000000000000000000000000000000000000000000000000000
0000000000000000000000000000000000000000000000000000000000000000000000
0000000000011111111111100000000000000000000000000000000000000000000000
0000000000000000000000000000000000001111111111111111111111100000000000
0000000000000000000000000000000000000000000000000000000000000001111111
1111111111111111111111000000000000000000000000000000000000000000000000
0000000000000000000001111111111000000000000111111111110000000000000000
0000000000000000000000000000000000000000000000000111111100000000000000
0000000001111111000000000000000000000000000000000000000000000000000000
0000000111111000000000000000000000000000001111100000000000000000000000
0000000000000000000000000000000000011111100000000000000000000000000000
0000111100000000000000000000000000000000000000000000000000000001111110
0000000000000000000000000000000000001110000000000000000000000000000000
0000000000000000000000111110000000000000000000000000000000000000000111
0000000000000000000000000000000000000000000000000011111000000000000000
0000000000000000000000000000111000000000000000000000000000000000000000
0000000001111000000000000000000000000000000000000000000000011100000000
0000000000000000000000000000000000000011110000000000000000000000000000
0000000000000000000011100000000000000000000000000000000000000000000111
0000000000000000000000000000000000000000000000000001110000000000000000
0000000000000000000000000011100000000000000000000000000000000000000000
0000000000001110000000000000000000000000000000000000000111000000000000
0000000000000000000000000000000000000000001110000000000000000000000000
0000000000000011100000000000000000000000000000000000000000000000000000
0001110000000000000000000000000000000000000111000000000000000000000000
0000000000000000000000000000000001110000000000000000000000000000000000
0011100000000000000000000000000000000000000000000000000000000000111000
0000000000000000000000000000000111100000000000000000000000000000000000
0000000000000000000000001110000000000000000000000000000000001111000000
0000000000000000000000000000000000000000000000000000000111000000000000
0000000000000000000111100000000000000000000000000000000000000000000000
0000000000000001110000000000000000000000000000001111100000000000000000
0000000000000000000000000000000000000000000000111000000000000000000000
0000000011111000000000000000000000000000000000000000000000000000000000
0000001110000000000000000000000000000111111000000000000000000000000000
0000000000000000000000000000000000001110000000000000000000000000000111
0100000000000000000000000000000000000000000000000000000000000000000111
0000000000000000000000000001110000000000000000000000000000000000000000
0000000000000000000000000001110000000000000000000000000011100000000000
0000000000000000000000000000000000000000000000000000000001110000000000
0000000000000000111000000000000000000000000000000000000000000000000000
0000000000000000011100000000000000000000000000111000000000000000000000
0000000000000000000000000000000000000000000000011100000000000000000000
0000011100000000000000000000000000000000000000000000000000000000000000
0000000011100000000000000000000000011100000000000000000000000000000000
0000000000000000000000000000000000000011100000000000000000000000011100
0000000000000000000000000000000000000000000000000000000000000000000011
1000000000000000000000000111000000000000000000000000000000000000000000
0000000000000000000000000000111000000000000000000000000111000000000000
0000000000000000000000000000000000000000000000000000000000111000000000
0000000000000011100000000000000000000000000000000000000000000000000000
0000000000000000001110000000000000000000000011100000000000000000000000
0000000000000000000000000000000000000000000000001110000000000000000000
0000111000000000000000000000000000000000000000000000000000000000000000
0000000011100000000000000000000000011100000000000000000000000000000000
0000000000000000000000000000000000000011100000000000000000000000011100
0000000000000000000000000000000000000000000000000000000000000000000011
1000000000000000000000000111000000000000000000000000000000000000000000
0000000000000000000000000000111000000000000000000000000111000000000000
0000000000000000000000000000000000000000000000000000000000111000000000
0000000000000001110000000000000000000000000000000000000000000000000000
0000000000000000001110000000000000000000000001110000000000000000000000
0000000000000000000000000000000000000000000000001110000000000000000000
0000011110000000000000000000000000000000000000000000000000000000000000
0000000111000000000000000000000000001110000000000000000000000000000000
0000000000000000000000000000000000000111000000000000000000000000001110
0000000000000000000000000000000000000000000000000000000000000000000111
0000000000000000000000000011100000000000000000000000000000000000000000
0000000000000000000000000001110000000000000000000000000011100000000000
0000000000000000000000000000000000000000000000000000000001110000000000
0000000000000000011100000000000000000000000000000000000000000000000000
0000000000000000011100000000000000000000000000011100000000000000000000
0000000000000000000000000000000000000000000000111000000000000000000000
0000000111000000000000000000000000000000000000000000000000000000000000
0000001110000000000000000000000000000011100000000000000000000000000000
0000000000000000000000000000000000001110000000000000000000000000000011
1000000000000000000000000000000000000000000000000000000000000000011100
0000000000000000000000000000111000000000000000000000000000000000000000
0000000000000000000000000111000000000000000000000000000000011100000000
0000000000000000000000000000000000000000000000000000000111000000000000
0000000000000000000111000000000000000000000000000000000000000000000000
0000000000000011100000000000000000000000000000000011100000000000000000
0000000000000000000000000000000000000000000011100000000000000000000000
0000000000011100000000000000000000000000000000000000000000000000000000
0001110000000000000000000000000000000000011100000000000000000000000000
0000000000000000000000000000000001110000000000000000000000000000000000
0011100000000000000000000000000000000000000000000000000000000011100000
0000000000000000000000000000000001110000000000000000000000000000000000
0000000000000000000001110000000000000000000000000000000000000000111000
0000000000000000000000000000000000000000000000000001110000000000000000
0000000000000000000000000111000000000000000000000000000000000000000000
0000000000111000000000000000000000000000000000000000000011100000000000
0000000000000000000000000000000000000001110000000000000000000000000000
0000000000000000011100000000000000000000000000000000000000000000000011
1000000000000000000000000000000000000000000000001110000000000000000000
0000000000000000000000000001110000000000000000000000000000000000000000
0000000001111000000000000000000000000000000000000000000111100000000000
0000000000000000000000000000000000000000111100000000000000000000000000
0000000000000111110000000000000000000000000000000000000000000000000000
0111110000000000000000000000000000000000011111100000000000000000000000
0000000000000000000000000000000001111100000000000000000000000000000001
1111100000000000000000000000000000000000000000000000000000000000111111
0000000000000000000000000011111110000000000000000000000000000000000000
0000000000000000000000000011111110000000000000000000111111111000000000
0000000000000000000000000000000000000000000000000000000000111111111110
0001111111111111111000000000000000000000000000000000000000000000000000
0000000000000000000011111111111111111111111111000000000000000000000000
0000000000000000000000000000000000000000000000000000011111111111111111
1100000000000000000000000000000000000000000000000000000000000000000000
0000000000000000001111110000000000000000000000000000000000000000000000
0000000000000000000000000000000000000000000000000000000000000000000000
0000000000000000000000000000000000000000000000000000000000000000000000
0000000000000000000000000000000000000000000000000000000000000000000000
0000000000000000000000000000000000000000000000000000000000000000000000
0000000000000000000000000000000000000000000000000000000000000000000000
0000000000000000000000000000000000000000000000000000000000000000000000
0000000000000000000000000000000000000000000000000000000000000000000000
0000000000000000000000000000000000000000000000000000000000000000000000
0000000000000000000000000000000000000000000000000000000000000000000000
0000000000000000000000000000000000000000000000000000000000000000000000
0000000000000000000000000000000000000000000000000000000000000000000000
0000000000000000000000000000000000000000000000000000000000000000000000
000000000000000000000000000000000000000000000000000000000000