P2
46 56
255
123 121 123 123 122 124 124 122 123 115 120 126 115 103 114 117 114 126 119 122 113 88 104 108 107 88 75 66 65 66 62 55 64 63 93 112 118 118 117 116 119 117 117 118 117 116 
123 123 123 122 123 124 124 119 109 115 118 98 107 102 103 104 112 118 109 79 80 94 111 106 95 85 73 55 56 63 57 59 42 41 43 86 114 118 117 116 116 117 117 117 117 116 
121 121 122 123 122 123 123 99 125 112 99 70 80 104 94 87 85 93 100 108 108 105 109 103 92 86 80 74 77 74 61 64 52 45 41 49 82 110 121 115 118 116 118 116 118 118 
121 122 125 120 121 123 108 121 100 111 102 92 69 79 79 62 81 68 71 81 80 76 69 80 86 86 75 67 60 55 50 63 56 54 49 44 48 85 109 116 114 118 115 115 115 115 
122 123 121 121 123 105 124 96 94 89 104 89 78 75 71 78 78 80 94 78 84 92 92 88 83 70 63 65 55 66 66 73 58 62 61 53 50 54 105 115 115 119 120 116 115 119 
123 122 121 121 86 101 76 80 107 111 99 92 69 74 82 95 91 91 77 85 83 87 77 78 73 76 69 74 81 78 79 86 90 82 96 92 76 54 76 109 118 117 113 116 117 116 
123 123 126 83 89 73 75 90 93 95 80 68 69 82 90 98 101 99 82 83 75 88 89 84 86 85 87 94 102 99 102 106 117 112 116 118 126 85 62 67 92 115 114 116 112 117 
121 120 104 79 64 68 73 83 90 101 78 40 71 108 100 101 107 101 94 90 110 111 101 99 105 103 108 100 109 122 129 131 142 137 144 144 143 135 77 62 67 96 97 115 114 111 
120 126 58 70 73 74 70 82 95 95 68 68 98 122 125 117 119 129 136 141 142 141 141 134 128 131 126 137 149 154 152 153 155 147 155 157 150 145 139 49 57 79 103 99 114 114 
121 99 64 67 61 59 72 78 103 87 68 72 128 163 159 159 165 176 161 169 168 174 175 157 152 153 154 155 161 157 165 163 157 157 169 179 165 158 139 139 25 50 86 101 98 109 
125 64 62 54 66 71 78 91 99 81 67 96 135 172 172 186 191 194 195 198 195 195 198 189 179 180 176 178 173 175 179 172 165 161 166 183 178 175 154 137 124 54 46 87 101 111 
93 60 47 67 75 73 79 97 75 77 88 110 148 172 187 190 193 199 200 202 201 200 199 196 193 182 181 176 180 177 176 178 176 171 168 167 178 180 159 141 134 67 51 60 85 90 
52 54 66 58 63 63 76 79 97 99 100 123 160 178 188 191 195 200 197 201 198 197 197 197 187 185 183 181 177 183 177 181 177 174 171 170 163 159 154 145 130 129 48 59 87 79 
48 58 60 56 50 64 69 77 105 100 108 134 166 184 187 193 195 196 195 199 197 197 193 192 188 181 182 179 179 174 176 178 173 170 167 162 160 149 145 145 133 136 46 53 75 58 
46 55 56 55 54 59 60 86 98 105 111 141 168 187 191 191 192 194 196 193 193 190 188 194 188 184 184 181 176 180 179 173 167 164 161 155 147 143 133 138 127 131 64 52 60 51 
53 51 45 50 55 45 65 78 99 99 110 143 169 189 193 193 194 191 194 190 187 192 191 193 190 184 183 178 178 177 177 172 166 164 161 159 151 139 133 129 126 130 113 37 60 90 
49 37 48 54 53 41 62 71 76 106 122 152 180 194 193 192 190 191 189 193 190 193 193 191 188 183 184 180 178 175 168 167 166 161 163 150 150 149 134 134 128 136 122 49 34 67 
41 36 48 42 54 48 64 71 85 95 124 152 178 191 190 190 187 189 191 188 193 194 195 191 186 181 182 178 178 171 170 166 163 166 163 155 154 149 141 141 133 135 120 35 48 50 
39 42 51 46 52 53 51 58 72 100 120 158 182 189 190 190 192 189 193 194 193 192 192 192 188 184 185 183 181 174 171 168 165 165 162 158 155 151 143 138 142 130 122 46 40 44 
53 63 51 42 41 36 42 52 72 96 126 167 183 188 192 194 194 191 191 194 193 192 191 191 186 186 182 185 183 177 169 170 168 170 167 162 160 156 144 140 141 135 126 53 53 40 
101 94 56 46 37 38 39 47 65 101 143 176 188 188 193 193 188 190 189 194 193 191 189 189 183 183 178 175 172 172 167 170 165 166 168 161 164 157 148 146 142 130 126 46 50 44 
103 119 61 41 31 37 36 48 86 121 168 178 184 187 192 196 191 193 191 188 185 181 176 178 176 169 170 166 166 163 157 163 160 158 160 157 154 149 150 148 146 137 124 45 40 46 
116 146 110 41 35 51 40 56 112 144 174 184 183 183 187 191 192 192 176 164 136 134 129 134 135 151 163 154 156 155 156 152 148 149 151 145 144 146 144 149 147 137 122 28 51 74 
131 172 151 111 100 90 81 100 132 173 179 180 181 183 186 185 179 173 153 133 121 106 102 104 102 103 112 133 150 152 148 149 141 139 136 137 135 132 123 120 127 129 118 22 41 96 
157 174 174 162 121 121 155 146 169 177 178 178 181 180 171 159 156 152 132 128 114 102 99 91 89 93 96 101 135 148 144 147 136 128 119 106 90 90 95 86 100 121 112 28 35 108 
180 146 135 91 141 151 159 173 175 177 180 181 175 174 153 154 146 157 151 136 124 115 103 95 95 110 114 116 126 151 156 150 127 114 90 77 64 66 72 73 83 89 89 38 67 110 
189 117 112 95 143 168 156 175 177 181 177 183 177 173 150 159 151 131 88 61 47 56 80 101 71 75 109 117 138 160 166 147 118 89 68 54 59 79 105 105 96 85 82 54 110 111 
187 127 115 142 148 175 164 175 181 181 182 179 179 162 153 131 92 77 84 119 78 76 125 108 79 94 120 110 146 176 174 148 106 71 76 59 62 50 55 41 84 85 88 88 110 109 
149 168 144 165 190 178 163 174 180 183 185 181 172 180 161 130 145 159 158 139 125 114 115 111 95 107 112 118 167 193 185 158 97 82 72 87 77 58 88 47 41 87 93 108 109 109 
149 181 175 153 186 171 165 167 173 181 182 185 187 188 185 188 176 168 157 138 129 122 109 97 108 111 120 146 185 198 185 169 102 102 87 98 101 92 94 75 50 83 114 107 104 106 
170 179 188 128 169 169 165 168 168 181 182 181 186 187 189 193 194 185 167 153 142 138 128 135 143 147 163 178 194 196 184 169 108 105 104 82 91 107 110 103 100 104 112 107 108 106 
185 172 182 182 174 167 162 167 170 174 181 184 186 190 192 193 192 186 177 171 166 157 172 175 184 190 193 195 195 199 183 168 117 101 121 116 109 103 91 97 115 120 114 110 104 108 
181 178 184 168 172 160 162 164 172 170 177 180 186 190 190 189 190 183 181 176 181 181 192 182 191 194 194 196 189 197 183 172 126 114 122 132 122 127 114 131 124 118 107 108 106 104 
178 179 171 185 159 157 159 162 169 172 178 181 189 188 188 183 183 182 175 186 187 186 182 183 188 193 196 196 192 195 186 172 135 115 126 143 147 143 136 131 128 121 107 102 103 104 
160 173 179 169 154 156 155 163 167 170 176 180 186 184 183 180 182 184 182 183 185 180 179 178 180 187 193 195 197 194 189 166 157 116 122 142 147 148 145 134 123 117 110 104 107 103 
110 140 153 123 157 150 156 159 138 171 169 180 183 183 183 179 187 186 180 182 176 175 167 162 146 178 181 186 195 197 179 166 167 127 106 134 146 146 148 136 122 108 103 104 105 104 
113 110 111 103 149 147 144 162 154 165 175 182 179 180 162 178 181 181 181 173 168 162 150 132 144 190 187 188 198 194 179 164 165 139 94 119 135 142 138 135 121 113 103 105 105 105 
110 110 112 106 143 149 148 149 164 156 173 172 178 177 175 176 173 175 176 160 153 140 132 123 150 193 190 194 196 186 172 163 153 140 113 103 120 132 126 126 115 116 104 104 99 102 
111 111 113 107 137 142 151 150 159 151 169 173 180 175 172 171 162 167 160 148 133 125 126 134 132 170 175 164 170 168 161 148 135 117 111 94 109 118 121 117 103 109 98 99 104 103 
113 111 110 109 129 134 145 149 156 160 169 170 164 169 166 168 165 156 141 132 121 122 146 150 151 111 99 85 116 136 126 114 110 94 99 92 90 106 108 106 94 104 100 98 98 100 
113 109 110 107 123 129 140 143 155 161 163 169 169 165 166 161 150 140 122 117 121 132 141 148 140 124 112 104 89 104 101 88 83 77 94 97 85 89 103 102 97 101 99 102 100 97 
110 111 108 108 123 123 131 131 152 156 162 164 163 167 167 161 143 121 113 125 125 134 122 121 127 116 120 124 86 73 82 73 84 99 72 102 79 72 93 101 103 102 97 97 96 98 
110 110 112 111 130 118 121 130 146 148 164 162 164 167 163 160 138 111 128 130 133 127 117 127 127 120 125 102 117 78 76 91 93 74 82 78 85 74 93 104 105 99 102 97 100 98 
106 109 109 78 135 127 110 121 136 139 150 163 161 159 161 151 135 117 119 112 106 107 101 115 123 124 108 69 119 82 82 102 80 70 75 87 89 85 106 106 104 99 98 99 98 97 
108 108 136 21 138 127 112 110 121 137 145 151 154 154 153 152 138 111 112 119 91 95 95 77 104 115 96 73 120 56 76 100 62 71 76 72 72 95 106 108 100 98 97 97 97 95 
105 105 107 11 141 126 126 117 110 130 139 148 148 143 152 148 138 116 99 97 95 96 104 109 112 99 87 95 110 57 58 90 87 80 72 78 101 107 101 95 98 96 98 99 97 94 
120 115 75 39 150 132 130 125 115 121 132 141 135 123 140 140 128 113 113 117 123 122 125 125 120 115 103 97 93 87 92 89 89 86 85 93 106 101 91 93 95 94 96 96 96 95 
65 142 56 49 134 131 131 129 121 115 124 132 133 129 130 126 118 111 128 133 141 139 136 133 119 107 97 90 85 85 91 89 96 99 95 95 103 94 91 92 99 97 94 98 94 93 
121 146 49 76 128 137 130 128 124 120 115 121 122 122 120 115 113 117 147 149 152 148 142 137 119 112 103 98 99 98 101 104 107 109 97 93 96 89 70 92 96 93 96 94 92 93 
132 147 51 85 126 140 131 128 124 125 117 116 117 114 116 116 109 132 152 157 156 152 152 147 132 133 134 123 122 116 102 107 110 110 98 94 86 88 16 59 94 95 98 94 94 94 
132 143 82 89 126 141 133 133 122 125 123 114 107 111 112 114 115 128 141 149 161 161 155 146 156 157 146 132 120 120 117 110 110 105 89 88 84 101 60 36 80 93 100 95 97 91 
133 132 125 84 126 127 139 136 124 127 123 110 112 110 105 108 109 117 127 142 153 149 155 153 155 146 139 115 114 115 108 107 108 99 85 87 37 103 91 35 84 80 104 108 91 93 
129 125 144 92 120 121 130 136 134 133 121 115 113 114 107 108 110 109 111 120 140 143 143 142 144 136 119 104 103 112 102 97 94 82 81 23 64 102 88 16 85 85 84 99 92 96 
96 125 150 108 81 118 120 128 125 130 130 121 117 114 115 111 112 118 115 114 109 120 122 117 110 108 100 91 94 97 90 85 77 74 72 34 83 99 62 16 84 88 86 95 96 96 
85 127 140 142 107 114 118 119 121 126 127 121 122 115 117 112 117 117 118 111 105 95 98 94 92 87 82 79 83 78 78 76 71 79 24 54 80 93 42 30 85 96 92 73 92 82 
86 129 124 139 118 98 107 115 119 121 123 121 115 112 110 110 115 118 110 112 111 104 96 91 85 87 85 81 78 76 71 70 77 42 50 61 103 90 40 40 88 95 91 58 99 92 
