P2
46 56
255
110 114 109 109 113 109 111 110 111 113 110 111 81 42 60 52 54 69 57 60 70 58 69 56 72 83 91 84 68 70 75 91 75 74 56 83 77 103 108 104 90 96 106 106 106 107 
109 109 114 111 111 109 110 110 112 115 90 54 43 51 68 74 45 57 64 71 75 80 59 47 69 69 60 84 77 75 68 74 79 64 66 52 52 46 96 94 103 59 113 100 107 106 
112 110 110 110 111 112 111 111 105 91 41 50 59 43 77 60 61 88 76 65 63 39 54 66 65 71 80 74 75 73 65 71 66 72 44 44 54 42 32 60 103 85 104 95 108 104 
109 111 110 110 112 113 110 113 107 49 37 70 51 54 61 76 59 67 69 51 43 51 62 36 49 87 90 89 72 86 72 74 45 58 55 55 44 42 24 49 79 81 94 92 102 101 
109 110 110 111 111 110 112 112 77 51 40 73 52 49 60 70 87 96 90 85 80 59 77 79 79 63 72 88 89 63 71 73 69 43 52 65 72 46 27 41 64 57 84 85 98 103 
110 109 113 111 111 110 110 85 61 47 51 58 52 41 47 58 85 53 57 65 67 60 81 82 80 68 79 80 64 65 68 57 43 58 37 46 61 58 45 42 41 50 61 66 91 104 
107 110 113 111 112 113 116 48 53 56 42 41 63 57 47 56 56 54 61 61 71 83 87 85 61 76 79 76 77 69 47 39 32 31 36 33 28 47 40 51 32 47 53 60 73 98 
112 109 110 109 110 110 104 41 47 34 34 40 32 44 47 40 37 52 54 65 78 81 91 75 59 51 77 81 71 68 56 52 48 38 31 30 24 17 38 31 45 40 60 52 27 100 
111 111 112 107 110 101 57 35 37 30 41 22 31 40 44 33 34 46 53 60 58 48 48 60 59 41 51 77 76 71 59 50 40 44 42 30 33 28 29 22 38 40 46 55 57 93 
110 110 108 111 109 38 29 22 31 31 27 26 34 40 43 60 68 72 82 89 102 109 123 113 78 53 43 48 58 70 66 72 72 60 53 48 33 27 26 21 34 46 49 58 55 46 
111 111 105 107 40 45 17 43 33 22 27 27 35 46 83 103 118 137 153 156 164 161 157 155 150 123 100 85 75 73 74 77 79 80 53 28 30 25 20 22 27 28 35 55 56 27 
107 105 112 38 31 22 45 42 30 25 28 33 64 88 101 127 165 183 180 190 182 170 171 167 164 160 156 137 112 98 104 107 102 95 82 61 40 19 24 22 30 35 45 62 51 28 
105 109 55 29 26 26 28 31 22 29 51 101 140 161 155 181 184 189 190 193 197 190 187 185 183 180 184 169 154 147 134 133 127 120 110 94 82 20 29 22 30 31 47 58 37 38 
102 114 29 30 28 22 31 33 35 55 108 144 153 173 182 186 188 191 193 196 197 197 197 195 192 190 191 189 178 170 166 169 164 152 137 125 104 94 26 21 30 43 35 45 40 38 
104 62 31 27 24 30 36 24 34 73 127 150 162 183 188 193 190 195 196 198 201 200 200 199 196 194 197 194 195 190 180 179 172 163 150 137 118 102 43 31 44 57 45 45 33 42 
98 49 27 28 26 27 24 30 38 92 137 158 176 184 193 195 193 197 198 199 200 198 197 198 198 196 200 199 193 195 189 186 176 164 156 146 138 123 89 37 45 44 65 49 27 40 
90 81 28 33 29 28 31 33 56 102 148 165 173 187 194 194 196 199 198 200 199 199 195 197 195 198 199 196 196 197 190 190 188 178 166 156 147 131 100 45 54 41 50 36 29 22 
88 90 30 27 25 31 28 34 55 110 150 169 179 185 189 192 198 199 198 201 200 198 196 196 196 197 201 197 196 197 193 190 185 177 171 159 150 136 105 43 37 53 41 27 30 11 
84 82 70 34 33 31 26 35 69 112 151 163 177 185 193 195 194 201 202 200 201 199 197 198 197 198 201 195 200 197 192 190 186 185 173 161 148 134 109 75 42 40 21 28 27 10 
79 77 74 34 28 29 36 42 64 125 147 161 177 184 189 198 198 194 200 199 199 199 201 197 197 199 199 199 196 200 195 194 190 185 180 162 149 137 118 85 30 48 22 25 31 7 
78 76 70 35 26 26 34 40 69 135 144 160 179 184 191 196 194 193 196 196 198 198 197 198 197 194 199 198 197 198 193 188 190 187 177 162 151 138 117 91 33 45 23 22 27 76 
78 75 80 37 23 31 37 41 107 139 139 172 180 182 189 191 190 188 188 193 194 195 198 198 192 194 200 198 195 193 189 183 183 183 178 165 152 132 121 93 41 33 29 19 17 104 
75 72 82 34 24 37 44 65 135 138 141 147 141 141 160 165 166 168 175 187 181 189 190 196 191 192 196 194 192 187 184 187 185 176 182 166 147 125 118 96 37 38 24 24 16 106 
73 72 76 84 52 39 45 116 151 136 117 118 135 120 131 120 109 95 98 105 132 164 173 183 188 182 185 173 182 180 183 177 176 178 179 171 147 131 108 85 22 30 25 24 18 100 
76 79 66 30 91 41 69 149 157 128 111 134 154 157 150 144 133 124 109 91 94 113 149 171 192 182 166 144 140 109 120 122 140 143 149 150 130 135 102 93 29 23 29 25 28 91 
77 75 63 54 119 52 103 153 147 122 116 122 104 94 86 46 58 109 111 106 118 119 149 186 196 184 153 117 94 82 73 71 72 93 121 122 114 107 93 104 25 22 24 22 44 88 
70 78 49 95 120 62 137 151 154 141 125 112 97 101 92 56 99 172 111 145 121 114 176 197 201 190 157 118 111 105 100 111 121 129 121 118 119 90 90 113 26 16 27 24 33 83 
74 74 51 126 118 49 148 149 152 165 143 151 161 158 178 156 152 191 170 138 187 145 174 201 199 185 150 102 143 127 129 70 131 60 85 108 120 95 86 118 23 32 22 24 29 84 
77 76 58 127 103 79 142 151 151 176 174 162 173 169 174 171 165 178 197 189 174 164 172 198 197 175 156 142 156 132 177 87 58 76 116 96 87 99 88 119 43 41 20 22 66 77 
76 76 56 139 81 120 140 142 155 176 189 168 178 186 189 195 195 204 185 179 174 172 171 196 195 160 154 136 185 178 166 173 158 159 137 96 102 111 105 115 44 31 29 76 78 77 
72 80 41 154 108 116 137 134 149 177 193 186 179 185 188 189 188 189 189 183 166 160 179 201 187 161 160 150 152 189 185 176 158 155 145 137 108 124 113 117 68 27 67 79 84 79 
72 74 34 167 122 115 134 134 148 173 188 192 184 179 183 189 191 200 193 173 169 159 189 201 182 151 156 149 172 175 193 180 188 177 150 137 133 132 114 112 56 71 74 78 76 78 
72 78 62 175 130 115 135 139 148 170 168 184 187 189 191 198 200 194 190 167 144 164 184 203 172 152 149 142 168 184 188 175 167 163 149 145 156 133 112 104 56 127 67 81 81 80 
76 74 62 132 166 116 129 143 144 162 167 177 180 187 190 198 198 195 187 153 161 172 192 199 172 157 117 150 171 188 183 175 170 169 162 165 157 129 113 102 88 131 66 77 80 79 
74 72 48 163 139 118 118 146 147 157 167 171 183 186 191 193 193 189 189 144 169 161 194 203 187 154 136 155 180 195 185 185 173 175 159 162 150 125 106 109 101 142 69 76 77 77 
73 76 65 132 112 115 106 142 150 163 159 175 177 190 188 188 192 186 177 140 118 99 153 152 147 120 133 144 184 187 187 186 183 176 167 157 134 123 102 104 106 133 78 78 78 75 
73 72 73 74 63 119 103 129 153 168 171 165 182 187 187 183 177 180 184 97 77 52 102 88 92 84 128 152 187 188 186 182 171 165 157 145 135 115 96 91 118 65 72 79 78 79 
67 73 74 73 66 116 104 118 155 173 169 170 183 179 179 182 182 189 191 150 83 96 90 91 90 90 117 159 181 187 180 171 162 157 142 132 129 115 96 75 145 59 75 77 78 77 
76 73 73 74 69 115 113 108 146 169 170 168 180 180 183 181 182 184 183 172 161 147 158 151 124 147 165 165 179 184 182 165 154 150 133 123 130 112 93 89 114 69 78 78 79 78 
72 74 72 75 76 92 114 113 141 158 167 171 176 178 172 180 180 179 164 156 166 171 157 159 129 137 155 163 170 177 176 161 150 139 132 131 125 99 98 113 98 81 75 75 78 76 
74 73 70 73 72 64 109 122 124 155 163 172 175 166 164 177 170 159 165 149 172 194 180 192 152 137 141 141 161 168 165 157 140 136 130 131 120 85 96 78 70 74 75 77 78 76 
70 74 73 73 72 70 99 114 121 148 152 166 168 162 154 168 173 153 158 168 150 113 170 137 143 148 131 138 142 162 159 152 134 133 135 121 108 95 75 73 73 73 75 78 79 76 
72 69 71 72 71 70 81 116 121 141 148 158 155 149 163 169 149 146 136 89 77 93 88 89 71 136 147 142 147 148 139 148 134 129 129 111 92 94 64 73 76 73 73 75 76 74 
71 73 68 73 75 74 68 99 123 131 138 154 157 150 153 143 105 85 53 36 132 107 112 129 54 70 136 143 153 139 126 137 134 130 121 106 93 67 70 75 78 76 77 79 77 80 
72 69 72 71 73 71 67 93 117 133 138 147 147 148 146 137 154 132 125 115 124 106 83 92 82 15 72 104 140 142 121 130 129 125 120 104 87 61 71 72 73 76 76 77 75 74 
73 71 72 69 72 75 69 100 105 123 138 148 151 151 155 175 178 160 158 156 177 156 162 164 146 141 127 117 132 130 128 128 126 117 112 102 49 61 71 74 78 77 76 79 75 76 
71 73 75 70 71 69 69 117 84 117 135 132 136 144 156 163 166 163 139 137 140 151 153 147 145 137 157 173 139 138 135 121 123 119 112 75 54 66 70 73 75 74 76 76 72 72 
68 71 73 73 69 74 74 119 88 105 112 125 129 131 146 154 159 163 135 108 97 89 91 100 113 135 149 159 147 135 132 120 115 116 102 47 64 70 71 72 75 76 70 72 76 72 
70 73 72 72 71 69 75 113 112 79 104 107 127 136 137 148 144 163 159 149 135 121 127 128 134 135 144 140 136 130 124 113 112 109 78 45 62 71 73 76 75 77 75 74 75 75 
70 69 73 68 73 73 124 116 116 91 85 104 117 130 141 145 164 163 181 178 182 173 165 167 152 149 137 132 126 119 118 110 103 92 94 55 68 70 73 71 73 73 76 75 73 73 
74 71 66 69 58 137 40 119 117 111 69 79 104 129 139 157 162 169 175 181 177 177 175 172 167 166 138 139 126 119 111 97 96 76 104 57 69 71 72 73 75 73 72 68 73 69 
69 67 74 70 115 104 29 115 111 117 103 62 72 107 126 150 163 166 168 171 173 172 171 166 161 150 141 130 121 113 98 86 67 101 95 66 66 72 76 73 69 71 73 77 69 68 
68 67 66 50 154 100 69 119 119 115 108 88 56 78 116 142 146 146 158 156 149 159 152 158 149 143 137 116 113 91 78 66 101 107 85 103 72 72 72 70 70 70 69 69 73 71 
68 64 72 111 122 71 121 122 118 123 108 103 78 55 77 103 120 124 123 148 149 144 134 132 131 126 122 106 76 66 60 82 112 105 90 99 66 68 69 68 71 69 70 71 70 68 
69 99 107 146 121 51 132 121 123 122 124 101 94 65 55 66 81 93 106 108 109 114 111 117 111 110 101 61 65 66 87 113 112 108 97 42 100 69 72 67 68 66 69 71 71 65 
139 125 98 157 145 51 134 126 128 121 118 121 104 85 67 53 56 67 67 68 76 78 82 83 71 65 64 65 66 87 115 114 114 98 79 54 129 62 78 71 72 72 70 69 67 67 
