P1
20 30
0000000000000000000000000000000000000000000000011000000000000000001111
1100000000000001111111100000000000011111111100000000001111000011100000
0000111000000111000000011100000000111000000111000000001110000001110000
0000111000001110000000000111000011100000000001110000111000000000011100
0011100000000001110000111000000000011100001110000000000111000011100000
0000011100000111000000000111000001110000000011100000011100000000111000
0000111000000011100000000111000000111000000001110000011100000000001111
0011110000000000011111111000000000000011111100000000000000001100000000
0000000000000000000000000000000000000000