P1
20 30
0000000000000000000000000000001100000000000000001111111000000000001111
1111110000000001111100111110000000111100000011100000001110000000011100
0001110000000001110000011100000000001110000111000000000011100011110000
0000001110001110000000000011110011100000000000011100111000000000000111
0011100000000000011100111000000000001111001110000000000011100011100000
0000001110001110000000000011100011100000000000111000111000000000001110
0011100000000001110000011100000000011100000011100000001110000000111100
0001111000000001111111111100000000001111111110000000000000111111000000
0000000000000000000000000000000000000000