P1
20 30
0000000000000000000000000000000000000000000001111111111000000111111111
1111110000111111111111111100000111100000000111000000000000000001110000
0000000000000111000000000000000011100000000000000000111000000000000000
0011100000000000000001110000000000000000011100000000000000000111000000
0000000000011100000000000000001110000000000000001111111110000000011111
1111111100000011111111111110000000011101110000000000000000011100000000
0000000001110000000000000000011100000000000000000111000000000000000001
1100000000000000001110000000000000000011100000000000000000111000000000
0000000011100000000000000000111000000000