P1
20 30
0000000000000000000000000000000000000000000000000011111110000011111111
1111111100011111111111111111100011111111000000111000000000000000001110
0000000000000001110000000000000000011100000000000000000111000000000000
0000111000000000000000001110000000000000000111000000000000000001110000
0000000000000111000000000000000011100000000000000000111000000000000111
1111111000000000111111111111000000000111111111100000000000000111000000
0000000000011100000000000000000111000000000000000001110000000000000000
1110000000000000000011100000000000000000111000000000000000001110000000
0000000000111000000000000000001110000000