P1
20 30
0000000000000000000000000000000000000000000000000000000000000000111111
1111111000000111111111111111000000111111111111110000000000000000011100
0000000000000001110000000000000000111000000000000000001110000000000000
0001110000000000000000011100000000000000000111000000000000000001110000
0000000000001110000000000000000011100000000000001111111111100000000111
1111111111000000001111111111100000000000011100000000000000000111000000
0000000000011100000000000000000111000000000000000001110000000000000000
0111000000000000000001110000000000000000011100000000000000000010000000
0000000000000000000000000000000000000000