P1
20 30
0000000000000000000000000000000000000000000000000111110000000000000111
1111100000000000111111111100000000011110000111000000001110000001111000
0001110000000111000000011100000001110000000111000000111100000001110000
0011110000000011111111111100000000011111111111000000000011111101110000
0000000000000111000000000000000001110000000000000000011100000000000000
0001110000000000000000011100000000000000000111000000000000000011100000
0000000000001110000000000000000011100000000000000000111000000000000000
0011100000000000000000111000000000000000001110000000000000000001000000
0000000000000000000000000000000000000000