P1
20 30
0000000000000000000000000000000000000000000000001111110000000000000111
1111100000000000111111111100000000011100000111000000001110000001110000
0000111000000111000000011100000011110000000111000000111100000001110000
1111110000000011111111111100000000011111110111000000000011111001110000
0000000000000111000000000000000001110000000000000000011100000000000000
0001110000000000000000011100000000000000000111000000000000000001110000
0000000000000111000000000000000001110000000000000000011100000000000000
0001110000000000000000011100000000000000000111000000000000000000100000
0000000000000000000000000000000000000000