P2
46 56
15
5 5 5 6 5 5 4 3 2 3 3 5 6 6 7 7 8 9 9 10 10 10 9 9 8 9 8 9 9 9 10 9 8 8 9 9 9 8 9 9 10 10 9 8 9 9
5 5 5 5 4 4 2 3 2 2 3 4 5 5 5 7 7 8 8 8 8 9 9 10 9 9 9 9 9 9 9 9 10 9 8 8 8 8 9 8 9 10 10 9 8 9
5 5 5 5 4 4 3 2 2 2 2 2 3 2 3 4 5 7 8 9 9 8 8 8 8 9 10 9 9 9 9 9 9 10 9 8 7 8 7 8 8 9 9 10 9 9
5 5 4 4 4 3 2 3 2 2 2 2 2 3 4 4 4 5 7 7 7 7 8 8 7 6 8 10 10 9 9 9 9 9 10 9 7 8 7 7 8 8 9 9 10 8
5 5 4 5 5 4 4 3 3 2 2 3 3 4 4 3 4 5 3 2 4 4 5 4 5 8 6 7 9 9 10 9 8 9 9 9 9 6 7 7 8 7 9 9 9 9
5 4 5 5 5 6 5 4 4 3 3 3 3 4 4 4 5 3 5 3 4 3 3 6 6 5 7 6 8 9 8 10 10 8 8 9 9 8 7 7 6 7 7 9 8 10
5 4 4 5 5 6 5 5 5 4 4 3 5 5 5 5 5 5 5 4 2 3 4 5 5 6 6 7 6 9 9 9 9 9 9 7 8 9 8 7 7 6 7 7 8 8
4 3 4 3 4 4 5 5 5 5 5 5 5 6 4 6 4 4 4 3 5 6 6 6 6 6 7 7 7 9 9 8 9 10 7 9 7 7 9 8 7 7 5 7 7 7
4 4 4 3 3 5 5 6 6 6 7 7 8 7 6 5 6 4 4 5 6 6 6 6 5 5 4 7 7 9 8 8 8 10 8 6 8 7 7 8 7 7 6 5 6 6
3 4 4 3 3 5 6 7 7 8 9 9 10 10 8 7 5 4 5 5 6 6 7 9 9 9 7 5 6 8 8 8 9 9 10 7 5 7 7 6 7 6 6 5 5 6
3 5 4 3 4 5 7 9 10 10 11 11 11 11 11 8 7 6 6 7 8 9 11 11 11 11 10 8 5 8 8 9 6 9 10 8 6 5 7 7 7 6 6 4 5 5
3 5 5 4 6 7 9 10 10 11 11 11 11 12 12 10 9 8 9 9 11 11 11 12 12 11 11 10 7 8 7 8 6 8 10 8 8 5 4 6 6 6 5 5 4 4
3 5 5 6 7 8 9 10 11 11 11 11 11 12 12 12 11 11 11 11 12 12 12 12 12 12 11 11 8 8 6 8 5 6 9 9 7 6 4 4 7 6 4 4 4 3
3 5 5 6 8 9 9 10 11 11 11 11 11 12 12 12 12 12 12 12 12 12 12 12 12 12 11 11 9 8 7 7 5 6 8 9 5 7 5 4 3 6 6 3 4 4
2 5 5 6 8 9 10 10 11 11 11 11 11 12 12 12 12 12 12 12 12 12 12 12 12 12 12 11 9 9 8 6 5 6 7 9 5 5 6 4 3 3 6 2 3 3
3 4 4 6 8 9 9 10 11 11 11 11 11 12 12 12 12 11 12 12 12 12 12 12 12 12 12 11 10 9 9 8 4 6 6 8 4 5 6 5 4 3 3 5 2 3
3 3 3 5 7 8 9 10 10 11 11 11 11 11 11 11 11 11 11 12 12 12 12 12 12 12 12 11 10 10 9 10 8 6 5 8 5 4 4 5 5 3 3 3 3 2
3 2 3 6 7 8 9 10 10 10 11 11 11 11 11 11 11 11 11 12 12 12 12 12 12 12 12 11 11 10 10 10 9 7 6 8 4 4 4 5 4 4 3 3 3 4
2 3 4 5 7 8 9 10 11 10 11 11 11 11 11 11 11 11 12 11 12 12 12 12 12 12 12 11 11 10 11 10 9 8 6 7 5 4 3 4 5 4 3 3 4 3
4 4 4 5 7 9 9 10 10 10 11 11 11 11 11 11 11 11 11 11 12 12 12 12 12 12 12 12 11 11 11 11 10 8 6 7 6 6 4 4 5 4 4 4 5 4
4 4 2 5 8 8 9 9 10 11 11 11 11 11 11 11 11 11 11 11 11 11 11 11 12 12 11 10 9 8 10 9 8 7 6 6 6 6 6 4 3 4 4 4 3 2
4 3 2 4 8 8 9 9 10 11 11 11 11 11 11 11 11 11 11 11 11 11 11 11 11 10 8 7 8 8 8 8 8 8 7 6 7 7 6 6 5 3 2 2 3 3
4 3 3 1 7 7 7 8 9 10 10 10 11 11 11 11 11 11 11 11 11 11 8 7 6 6 8 9 10 10 10 10 9 9 9 7 7 8 8 8 7 5 3 2 3 4
4 3 3 3 6 6 5 5 6 6 8 10 10 10 10 10 10 10 10 10 10 8 6 4 7 7 7 7 8 8 8 9 9 9 9 8 7 9 9 9 8 7 4 4 3 4
3 3 4 4 6 8 8 7 5 5 5 5 8 9 9 9 10 10 9 9 9 8 6 6 7 6 6 5 5 6 5 5 7 7 8 8 9 8 9 8 8 8 6 4 5 6
3 3 3 4 6 7 7 6 5 4 4 4 6 7 8 9 10 10 10 9 9 8 8 7 7 5 3 3 4 3 3 3 5 6 8 9 10 10 9 8 8 8 7 5 7 7
3 3 3 4 4 5 3 3 3 2 2 3 5 5 6 8 10 11 11 10 9 9 8 7 6 5 9 5 1 4 5 5 3 8 9 10 10 10 9 8 8 8 7 6 9 7
3 3 4 4 4 4 2 2 7 5 4 3 4 5 5 7 11 12 12 11 10 10 9 7 6 7 9 7 5 6 7 5 8 10 11 11 11 10 9 8 8 8 8 6 9 8
3 3 3 4 5 4 2 4 8 5 3 5 9 6 5 7 11 12 12 11 11 11 10 9 8 7 7 7 8 8 8 10 10 11 11 11 10 10 9 8 8 8 7 6 10 7
3 3 3 5 5 7 5 5 7 8 6 7 8 8 6 8 10 12 12 12 11 11 11 11 9 8 8 8 9 9 9 10 11 11 11 10 10 10 9 8 8 8 7 6 10 9
3 4 4 6 6 9 7 7 7 8 8 8 9 9 8 9 10 12 12 12 12 11 12 12 12 11 10 10 10 11 11 12 12 12 12 11 10 10 9 8 8 8 7 7 9 10
3 3 5 6 6 9 9 7 7 8 9 10 10 10 9 8 11 12 12 12 12 11 12 12 12 12 12 12 12 12 12 12 12 12 12 11 10 10 9 9 7 7 7 7 8 9
3 3 6 6 6 9 10 10 10 10 10 11 11 10 9 8 11 12 12 11 12 12 12 12 12 12 12 12 12 12 12 12 12 12 11 11 10 9 9 8 7 7 7 7 2 2
3 3 7 6 6 9 10 11 11 11 11 10 10 10 10 9 11 12 12 11 11 12 12 11 11 12 12 12 12 12 12 12 12 11 11 10 10 9 9 8 7 8 7 7 0 1
3 2 7 5 6 9 10 11 11 11 10 10 10 9 8 10 11 12 12 11 11 11 11 11 10 9 10 11 11 11 11 11 11 11 10 10 10 9 8 8 7 7 7 6 2 2
3 3 7 5 7 9 9 10 10 10 10 10 9 9 9 9 11 12 12 11 11 12 12 11 10 8 7 8 9 10 10 10 10 10 9 9 9 9 9 8 7 7 7 5 1 3
3 5 6 6 6 8 9 9 10 9 9 9 6 9 9 9 11 12 12 11 11 11 11 11 9 8 9 7 7 8 9 9 9 9 9 9 8 8 8 8 7 7 7 4 1 1
3 6 5 7 5 7 8 8 9 8 8 8 5 8 8 7 10 11 10 10 9 9 8 7 8 10 10 9 8 6 7 8 8 8 7 7 8 7 8 7 7 7 7 3 2 0
3 6 5 6 4 6 7 7 8 8 7 8 4 5 5 5 7 8 8 8 5 6 8 10 10 10 10 10 9 8 6 7 7 7 7 7 7 7 8 8 7 7 6 4 3 0
3 5 5 6 4 5 6 6 7 7 7 7 4 6 4 3 4 5 6 6 8 10 10 10 10 10 11 10 10 9 8 6 6 7 7 8 8 8 8 8 7 7 6 4 3 3
3 4 6 6 6 4 4 5 6 6 7 6 6 7 7 5 4 4 5 8 8 10 10 10 10 10 10 9 9 9 8 8 8 9 8 8 8 8 8 8 8 7 5 5 3 3
3 3 5 6 5 5 4 4 6 5 7 6 6 6 7 7 7 8 8 8 8 7 6 6 5 5 5 4 2 6 7 7 9 9 8 8 8 9 8 8 7 6 6 6 4 3
3 3 4 5 6 6 5 5 6 8 7 6 5 2 2 3 3 3 5 4 6 8 6 9 6 8 6 5 7 9 9 9 9 9 9 8 8 8 8 7 7 5 6 4 5 3
3 3 3 3 5 6 7 7 4 7 8 8 7 6 3 0 5 6 8 9 8 9 9 9 8 6 7 8 9 9 10 10 9 9 9 8 8 8 7 7 6 6 5 4 9 3
3 3 3 3 3 3 4 4 4 4 8 9 9 6 7 6 5 3 6 7 5 6 5 6 7 9 9 8 9 10 10 10 10 9 8 8 8 8 7 6 5 6 6 4 9 2
3 3 3 3 3 3 3 3 3 4 5 8 9 8 6 6 7 7 7 7 6 6 7 8 8 8 8 9 10 10 10 10 10 9 8 8 7 7 6 5 6 7 7 3 10 2
3 3 3 3 3 3 3 3 3 3 4 6 9 7 8 5 6 6 6 6 7 6 6 7 8 8 10 10 10 10 10 10 9 8 8 7 7 6 5 6 7 7 7 4 10 10
3 3 3 3 3 3 3 3 3 3 3 4 6 9 7 8 6 6 7 7 7 8 8 9 9 10 10 10 11 10 10 10 9 8 7 7 6 5 6 7 8 7 8 4 12 12
3 2 3 3 3 3 3 3 3 3 3 2 4 7 6 9 8 8 9 9 8 9 9 10 10 11 11 11 11 10 10 8 7 7 6 5 5 6 7 7 8 8 8 0 13 12
3 3 3 2 3 3 3 3 3 3 3 3 3 5 6 8 9 9 10 11 10 11 11 11 11 11 11 10 10 9 8 7 6 5 5 5 6 7 8 8 8 8 8 1 12 10
3 3 3 3 3 3 3 3 3 3 3 3 5 9 5 6 9 9 9 10 10 10 10 11 11 10 11 10 9 8 6 5 5 4 5 6 7 8 8 8 8 8 8 6 10 9
3 3 3 3 3 3 3 3 3 3 3 2 8 9 6 3 8 8 8 9 9 9 9 9 9 9 9 8 7 5 5 4 5 6 7 8 8 8 8 9 8 9 6 12 9 10
3 3 3 3 3 3 3 3 3 3 3 3 10 9 7 1 5 7 7 7 8 8 8 8 8 8 7 6 5 4 4 6 7 7 8 8 8 8 8 9 9 9 5 11 10 11
2 3 3 3 3 3 3 3 3 4 6 7 9 9 8 4 2 5 5 6 6 6 6 6 6 5 5 4 4 5 7 8 8 8 8 8 8 8 9 9 9 8 11 9 10 12
2 3 3 3 3 3 3 6 10 9 9 9 9 9 8 6 1 3 3 4 5 5 5 5 5 4 4 5 6 8 8 8 8 8 8 8 8 9 9 9 8 9 9 11 10 11
3 3 3 3 3 6 11 11 11 10 10 10 9 9 8 7 3 3 3 4 4 4 4 4 4 4 4 6 7 8 8 8 8 8 8 8 8 8 9 9 7 12 10 11 11 11
