P2
46 56
15
7 7 7 7 7 7 7 7 7 7 7 8 8 10 9 9 10 9 7 6 7 7 7 6 6 6 5 6 6 6 5 6 8 7 7 7 7 7 7 7 6 6 6 7 7 7
7 7 7 7 7 7 7 7 7 8 8 8 8 7 8 8 9 9 8 8 7 7 7 6 7 6 6 6 6 6 7 7 6 7 7 7 7 7 7 7 7 7 7 7 7 7
7 7 7 7 7 7 7 7 7 7 8 8 7 7 7 9 10 6 8 6 6 7 7 8 6 6 7 6 5 6 6 7 7 8 7 7 7 7 7 7 7 7 7 7 7 7
7 7 7 7 7 7 7 7 8 9 7 10 9 7 9 9 9 7 8 8 8 7 8 8 8 8 8 7 7 5 6 6 7 7 7 8 8 7 7 7 7 7 7 7 7 7
7 7 7 7 7 7 7 8 8 9 9 9 8 9 5 12 6 7 9 9 8 9 9 9 10 9 9 8 8 7 7 7 5 6 7 7 8 8 8 7 7 7 7 7 7 7
7 7 7 7 7 7 7 8 9 8 8 8 7 5 9 9 8 9 10 10 10 10 10 11 11 11 10 10 9 9 8 7 7 6 6 7 7 8 8 8 7 7 7 7 7 7
7 7 7 7 7 8 10 10 9 9 8 5 8 6 10 8 9 10 11 11 11 11 11 11 11 11 11 11 11 10 10 9 7 7 6 5 7 8 8 8 8 7 7 7 7 7
7 7 7 8 8 8 8 9 8 9 5 5 7 8 9 8 11 11 12 12 11 12 12 12 11 11 12 12 11 11 11 11 10 9 7 5 6 9 8 8 9 8 7 7 7 7
7 7 7 8 8 9 8 7 8 6 6 7 8 7 7 8 10 11 12 12 12 11 12 12 12 12 12 12 12 12 12 12 11 11 10 6 7 6 8 8 8 9 8 6 6 7
7 7 6 8 8 8 8 9 7 6 8 9 8 7 8 7 11 12 12 12 12 12 12 12 12 12 12 12 12 12 12 12 12 12 11 9 6 7 7 7 9 9 8 8 6 7
7 6 6 6 6 7 12 8 8 9 11 10 7 7 8 8 11 12 12 12 12 12 12 12 12 12 12 12 12 12 12 12 12 11 11 11 8 5 6 9 7 10 10 7 7 5
7 5 5 6 6 7 8 6 7 12 13 10 6 8 8 10 11 12 12 12 12 12 12 12 12 12 12 12 12 12 12 12 12 11 11 11 10 7 7 7 8 9 10 10 6 5
6 6 6 4 6 7 7 7 10 10 10 9 10 8 9 10 11 12 12 12 12 12 12 12 12 12 12 12 12 12 12 12 12 12 11 11 10 8 7 6 8 9 9 8 7 6
6 6 4 4 5 7 6 7 8 9 8 9 8 7 10 10 11 12 12 12 12 12 12 12 12 12 12 12 12 12 12 12 12 12 11 11 10 9 4 5 8 9 10 7 6 3
5 6 4 3 5 7 6 7 7 8 8 8 8 9 10 10 11 12 12 12 12 12 12 12 12 12 12 12 12 12 12 12 12 12 12 11 11 10 6 7 4 8 10 8 7 5
6 5 4 3 5 7 5 6 7 7 8 8 9 9 10 10 11 12 12 12 12 12 12 12 12 12 12 12 12 12 12 12 12 11 11 11 10 9 6 4 4 3 9 7 5 5
7 6 4 3 4 7 6 6 7 8 8 8 10 10 10 11 12 12 12 12 12 12 12 12 12 12 12 12 12 12 12 12 11 12 11 11 10 8 6 5 4 5 5 7 6 5
7 7 4 3 5 7 7 6 7 8 8 9 10 10 10 11 12 12 12 12 12 12 12 12 12 12 12 12 12 12 12 12 12 12 11 11 10 9 7 4 3 2 6 6 5 6
7 7 4 3 4 4 7 6 7 9 8 9 11 10 10 11 12 12 12 12 12 12 12 12 12 12 12 12 12 12 12 12 12 12 11 11 10 8 7 3 3 2 4 7 6 6
7 7 3 3 2 3 7 8 8 9 9 9 10 10 11 11 11 11 11 12 12 12 12 12 12 12 12 12 12 12 12 12 12 11 11 11 10 9 7 4 3 2 4 6 5 6
7 7 4 3 2 2 3 7 9 8 8 10 11 11 10 10 10 10 10 11 11 12 12 12 12 12 12 12 12 12 12 11 11 10 9 9 10 10 7 5 3 2 4 5 6 6
7 6 5 3 2 2 4 7 7 9 8 7 8 8 8 8 7 7 7 7 7 10 11 11 12 12 11 12 11 11 11 10 9 8 8 8 9 8 8 6 3 3 5 4 5 6
6 6 5 3 3 2 5 7 6 6 8 8 8 8 9 8 7 6 6 6 6 7 8 11 12 11 11 11 10 10 8 7 6 5 6 6 7 7 7 7 4 3 6 4 5 6
6 5 6 4 3 3 5 8 7 6 7 7 7 6 6 5 4 6 4 5 6 7 8 10 11 12 12 11 9 7 6 5 4 5 6 7 8 8 7 7 4 5 5 5 6 6
6 6 9 8 3 4 5 8 8 7 8 7 6 5 8 4 8 4 7 7 6 7 7 9 12 12 12 9 7 5 4 5 3 3 6 5 5 7 7 7 2 4 4 6 6 6
5 8 6 9 4 3 5 9 9 9 9 8 6 6 11 5 2 5 11 8 10 6 9 10 12 12 12 9 6 6 6 6 2 3 9 5 5 7 7 7 3 5 5 5 6 6
5 7 4 6 8 4 5 10 10 10 11 9 9 8 10 9 7 10 10 9 9 9 10 10 12 12 12 9 8 8 9 10 6 5 10 8 5 7 8 7 4 6 6 5 6 6
7 7 7 6 7 5 5 9 10 11 11 11 11 9 10 10 10 10 10 9 10 11 11 10 12 12 12 9 9 9 9 10 9 8 9 9 9 8 9 8 4 7 7 5 6 6
8 8 8 11 6 6 8 9 11 12 12 12 12 11 10 11 11 11 11 11 11 11 11 10 11 12 12 10 10 9 9 9 10 10 10 10 10 10 9 9 4 5 2 6 5 6
6 9 9 11 11 6 9 9 11 11 12 12 12 12 12 12 12 12 12 12 12 11 11 10 12 12 12 10 10 11 11 11 11 11 11 11 11 10 9 9 5 7 4 5 5 6
4 11 9 10 9 2 8 9 10 11 12 12 12 12 12 12 12 12 12 12 12 11 11 10 12 12 12 11 10 11 11 12 12 12 11 11 11 10 10 9 8 9 6 5 5 6
5 7 9 10 8 5 7 9 10 11 11 11 12 11 12 12 12 12 12 12 12 11 10 11 12 12 12 12 9 10 10 11 12 12 11 11 11 11 9 9 9 8 7 6 6 6
5 3 10 11 9 10 6 8 10 11 11 11 11 12 12 12 12 12 12 12 11 10 10 10 12 12 12 11 9 9 11 12 12 12 11 11 11 9 9 8 7 8 8 5 6 6
5 3 12 11 10 10 6 7 10 10 11 11 11 12 11 12 12 12 12 12 11 10 10 9 11 12 12 10 8 9 11 11 12 12 11 11 11 10 9 8 7 8 9 5 6 6
5 5 11 9 11 9 7 7 9 10 10 10 11 11 11 11 12 12 12 12 10 10 9 8 9 10 10 7 7 9 10 11 12 11 11 10 10 10 8 7 8 8 7 6 6 6
5 5 6 11 8 11 8 7 8 9 10 10 10 11 11 11 11 12 12 12 11 7 4 2 7 8 7 3 4 7 10 11 12 11 11 10 10 9 8 7 9 8 5 6 6 6
5 5 3 12 11 11 7 7 8 9 10 10 10 11 11 11 12 12 12 12 12 7 6 7 5 6 6 7 6 9 11 10 11 11 10 10 9 8 8 7 9 9 5 6 6 6
5 5 5 10 12 11 9 7 8 9 10 10 10 10 11 11 12 12 12 12 11 11 10 10 9 9 9 9 9 10 10 11 11 11 10 10 9 8 8 9 8 7 5 6 6 6
5 5 5 5 10 11 11 6 8 9 9 10 10 10 11 12 12 12 11 11 11 10 10 11 10 9 9 9 9 9 9 11 11 11 10 9 8 8 8 8 10 4 6 6 6 6
5 4 4 4 5 9 9 6 8 9 9 9 10 11 11 11 12 11 11 10 10 10 10 10 10 10 9 9 9 9 9 10 10 11 10 9 8 8 7 10 8 5 5 6 6 6
4 4 5 4 4 4 5 5 8 9 9 10 10 10 11 11 11 10 10 10 10 10 11 11 11 11 10 10 10 9 8 9 10 11 10 9 8 8 6 8 4 5 6 6 6 6
5 4 4 4 4 4 4 5 7 9 9 9 10 10 11 11 11 10 10 9 10 11 10 9 11 11 11 9 9 9 9 8 10 10 10 9 8 8 7 4 5 5 6 6 6 6
4 4 4 4 4 4 4 4 7 8 9 9 10 10 10 11 10 9 8 7 7 7 6 6 6 7 6 6 6 6 8 7 9 9 10 9 8 8 7 4 4 5 5 6 6 6
5 5 4 4 4 4 4 4 6 7 8 9 10 10 10 11 10 9 7 3 3 4 4 4 3 2 3 3 2 2 3 7 8 9 9 9 8 7 5 4 4 5 5 5 6 6
5 4 4 4 4 4 4 4 5 7 8 9 9 10 10 11 10 10 10 11 10 11 11 11 10 9 9 10 9 8 9 10 9 9 9 8 8 7 3 4 4 5 5 6 6 6
5 4 4 4 4 4 4 4 5 7 7 8 9 10 10 10 11 10 11 11 9 10 10 11 11 10 11 10 10 9 9 10 10 10 9 8 8 8 3 4 4 5 5 5 6 6
5 4 4 4 4 4 4 4 4 5 7 7 9 10 10 11 11 11 11 11 11 9 7 7 6 7 7 7 7 8 10 10 10 10 9 8 7 6 3 4 4 5 5 5 5 6
4 5 4 4 4 4 4 4 4 6 6 7 8 9 10 11 11 11 11 11 11 10 9 8 8 7 8 8 8 9 9 10 10 9 9 8 7 3 3 4 4 5 5 5 5 6
5 4 4 4 4 4 4 4 4 8 3 6 8 8 9 10 11 11 11 10 11 10 10 10 9 9 9 9 9 9 10 10 9 10 9 7 7 3 3 4 4 5 5 5 5 6
5 4 4 4 4 4 4 4 4 7 7 4 7 8 8 9 10 11 11 11 11 11 11 11 11 11 11 11 11 10 10 10 10 9 8 7 3 3 3 4 5 5 5 5 5 5
5 5 4 4 4 4 4 4 4 7 7 4 4 6 7 8 10 10 11 11 11 11 12 12 12 11 11 11 11 11 10 10 9 9 7 5 3 3 3 4 5 5 5 5 5 5
5 5 4 4 4 4 4 4 3 8 7 5 4 4 5 7 9 10 10 10 11 11 11 12 11 11 11 11 11 11 10 9 9 8 6 1 3 3 3 4 4 5 5 5 5 5
5 5 4 4 4 4 4 4 2 8 7 6 4 3 4 4 7 9 10 10 11 11 11 11 11 11 11 11 11 10 10 9 8 6 7 0 2 4 3 4 5 5 5 5 5 5
5 5 4 4 4 4 4 5 1 8 7 7 5 4 4 3 4 7 9 9 9 10 10 10 10 9 10 10 10 9 8 8 6 6 8 0 2 2 4 4 4 5 5 5 5 5
5 5 5 4 4 4 4 5 1 8 8 8 6 4 4 4 3 3 6 7 7 8 8 8 8 8 8 8 7 8 7 6 5 6 7 0 2 2 3 4 4 5 5 5 5 5
5 5 5 4 4 4 4 5 1 8 8 8 7 5 4 4 4 4 3 4 5 5 5 5 5 4 5 5 5 5 4 4 5 6 8 0 2 1 2 4 5 4 5 5 5 5
