P2
46 56
255
51 48 43 46 51 45 43 49 56 58 58 87 54 49 44 59 37 28 38 27 23 56 31 36 22 53 44 41 32 39 37 58 41 36 42 41 41 44 45 44 39 40 40 40 42 40 
48 45 46 42 49 47 47 48 72 85 87 90 65 66 58 62 68 55 52 44 64 48 58 60 49 55 43 36 35 43 46 46 67 48 29 41 42 41 40 38 43 40 42 44 41 38 
44 49 48 50 48 44 50 93 79 95 88 84 102 76 90 73 77 75 63 66 58 55 73 52 55 57 56 47 57 52 42 52 53 67 34 38 44 45 40 42 42 41 41 37 43 41 
45 45 49 47 47 43 81 92 76 72 94 74 74 78 88 94 103 98 104 79 66 70 66 86 86 78 50 75 49 30 46 50 52 59 48 31 30 43 43 37 38 41 39 40 39 39 
50 49 50 45 50 17 131 97 119 53 71 82 87 91 115 101 100 120 99 111 73 91 86 101 101 81 74 71 78 61 65 49 51 66 68 48 27 26 44 41 41 41 41 38 38 37 
47 46 49 52 45 34 98 65 80 68 114 102 136 146 150 148 155 142 133 131 107 126 132 129 104 120 108 98 100 80 77 59 59 61 68 51 20 27 31 41 39 39 39 36 37 40 
49 54 48 48 30 124 102 72 91 145 153 172 185 186 191 192 172 177 158 116 148 180 170 174 176 169 136 128 107 95 91 86 68 55 59 59 53 38 32 38 37 38 43 37 37 39 
52 51 50 41 34 108 85 107 161 177 184 186 189 193 194 194 196 197 190 185 193 195 188 186 183 177 173 164 133 129 111 117 114 98 64 53 71 37 55 30 35 34 39 39 39 39 
46 47 55 34 42 103 104 166 168 178 188 190 194 195 195 197 200 200 195 199 201 199 196 188 188 176 179 167 159 154 144 136 123 120 106 60 56 54 43 39 33 30 35 38 35 38 
49 52 76 16 89 81 155 159 177 182 189 195 195 195 198 201 201 204 202 201 205 199 198 192 182 182 177 169 164 159 154 146 133 122 114 102 44 56 64 46 30 31 29 29 37 35 
50 61 70 55 114 131 162 175 186 186 193 193 193 194 196 198 201 199 198 197 200 198 197 186 183 180 167 166 165 153 152 148 148 124 117 104 108 29 74 58 33 29 31 31 34 34 
52 55 49 83 105 142 167 187 189 186 189 190 190 189 193 197 195 202 201 199 201 201 200 194 186 180 173 169 160 156 155 155 145 134 118 112 112 57 46 72 43 25 28 28 27 33 
49 45 56 113 148 139 169 182 189 185 191 193 191 192 193 198 199 199 201 199 196 200 194 189 188 183 173 165 158 158 158 152 150 142 133 114 105 85 45 63 57 29 29 27 29 30 
49 30 69 105 141 154 172 188 191 192 184 193 195 196 194 198 196 197 197 199 202 193 196 198 193 190 185 183 166 157 151 152 152 145 132 105 98 99 62 49 78 26 30 26 29 28 
50 35 110 142 134 161 180 189 191 193 196 198 202 203 201 203 199 201 199 198 203 203 202 203 201 193 183 178 166 167 163 152 152 145 135 111 98 93 75 28 96 24 21 26 28 25 
48 37 63 151 144 162 184 194 188 194 196 199 197 204 207 206 208 200 204 199 204 210 210 207 201 184 192 182 169 153 153 143 150 140 138 125 100 101 74 50 64 27 26 25 26 28 
48 62 60 128 146 169 186 189 180 187 196 199 198 197 203 208 205 200 209 204 196 209 205 204 174 143 132 157 159 160 151 148 135 131 140 123 98 103 82 65 54 37 28 26 28 24 
50 58 58 121 136 164 175 168 171 184 182 153 139 153 175 197 202 199 194 208 182 207 190 176 150 117 108 107 122 142 155 142 149 123 126 117 103 102 81 71 47 46 81 25 27 23 
56 41 81 126 138 158 166 172 180 171 131 99 110 127 147 166 192 198 192 210 185 203 169 136 117 93 97 130 157 145 157 142 139 137 110 118 106 104 81 55 50 44 42 28 24 28 
53 46 127 107 138 151 169 171 151 165 174 173 140 156 159 155 176 197 197 197 174 186 179 179 170 143 119 127 130 122 129 132 126 131 117 110 106 108 97 38 41 38 23 24 23 28 
50 49 102 112 140 145 133 146 171 178 156 156 132 111 126 118 114 102 148 133 98 95 118 118 120 129 129 80 103 121 134 120 117 91 116 109 113 99 98 42 40 49 24 27 26 30 
51 44 93 75 131 141 145 141 152 188 159 129 88 129 138 133 149 117 177 125 151 120 116 124 125 98 177 44 15 51 87 91 84 131 96 118 113 102 98 37 48 38 23 30 25 26 
51 46 38 148 139 145 147 158 119 108 71 61 75 133 108 133 166 160 157 169 170 109 116 170 144 161 185 85 65 85 128 84 122 123 115 92 118 97 62 40 44 31 23 24 26 26 
45 52 48 46 152 155 151 128 112 116 143 86 113 152 136 167 169 194 181 173 164 82 105 132 130 116 104 100 89 99 121 112 124 125 123 123 117 95 57 42 55 103 114 14 26 27 
51 141 149 38 115 167 158 157 156 157 119 120 135 117 112 119 142 54 142 136 79 68 120 103 104 111 117 128 122 119 119 105 98 100 123 153 46 103 91 45 107 100 65 85 23 24 
44 122 39 109 147 160 166 149 156 148 158 167 172 179 173 170 161 71 197 183 169 80 134 138 145 171 172 170 154 152 140 124 118 114 122 135 52 118 104 57 99 118 25 127 23 26 
16 107 78 148 145 182 157 137 147 167 176 189 190 191 192 173 172 169 191 178 190 70 139 115 160 176 188 185 170 170 166 162 149 152 134 136 66 115 106 81 83 118 30 137 16 25 
2 123 63 145 134 164 167 181 171 164 168 183 191 188 179 174 96 202 201 173 183 121 134 133 152 178 179 185 179 168 168 167 162 165 154 148 73 109 102 91 107 123 55 129 7 28 
5 130 135 161 130 153 175 187 183 169 182 180 178 181 184 187 182 188 198 178 169 176 37 150 156 185 184 172 170 164 167 170 167 164 158 151 108 103 103 104 60 94 75 125 11 27 
39 118 160 137 121 158 171 184 190 184 183 176 186 193 125 87 203 190 201 183 170 175 142 87 151 185 169 173 166 160 166 162 153 157 139 108 121 103 101 104 49 69 88 129 16 26 
69 132 164 68 114 150 168 177 172 185 175 191 187 155 115 189 184 192 207 183 181 165 161 151 89 160 178 170 160 161 161 169 149 156 149 110 111 105 89 108 52 58 94 127 21 27 
74 135 169 122 136 135 157 171 174 180 181 177 165 107 123 173 149 169 162 133 122 127 156 164 146 89 153 170 158 141 156 162 151 133 132 128 108 103 80 121 80 84 91 93 23 25 
8 170 179 132 117 125 128 133 158 155 159 129 123 145 116 110 59 135 111 110 114 71 73 98 127 43 116 96 99 102 114 116 141 149 145 129 113 106 71 108 112 113 98 38 21 23 
64 175 133 166 80 130 169 171 165 168 123 100 89 91 125 95 41 61 72 74 45 39 33 33 50 93 93 68 65 87 110 116 125 148 147 127 117 100 76 106 99 106 120 6 22 27 
49 75 158 168 92 123 160 163 149 136 127 118 119 127 176 106 102 52 68 33 53 45 60 89 98 145 178 169 167 157 150 119 104 103 108 112 113 98 67 105 97 103 74 26 23 23 
54 15 168 159 118 124 152 143 131 178 176 181 167 159 157 92 110 123 56 34 66 86 114 92 126 112 138 172 180 167 163 154 131 114 106 101 92 84 73 88 107 87 19 17 20 22 
54 45 73 157 89 114 130 143 156 179 179 179 159 116 120 112 115 76 103 94 99 128 133 103 108 90 118 117 176 172 161 152 140 150 123 85 91 67 73 39 54 21 24 22 19 26 
48 46 36 109 110 97 131 161 152 182 177 185 133 127 120 137 140 126 155 175 162 149 128 121 109 115 83 102 143 170 162 152 129 143 120 102 65 88 73 23 25 26 18 18 24 22 
50 45 39 37 50 102 103 145 144 165 184 155 145 127 110 100 87 62 61 72 67 85 87 87 90 111 75 92 103 166 166 140 135 132 128 83 89 75 53 16 23 20 21 20 22 20 
49 45 40 40 36 102 125 108 116 161 180 136 128 118 78 48 22 32 53 39 34 46 67 63 48 53 58 116 108 119 164 139 143 94 108 86 83 81 40 23 20 16 21 22 19 22 
52 44 41 36 40 79 93 113 97 145 181 157 121 142 160 126 149 144 214 162 124 164 201 110 153 132 161 146 135 129 151 129 112 93 94 91 77 65 29 22 24 24 23 21 17 20 
50 44 36 33 32 86 115 107 104 117 151 136 105 175 191 155 162 159 149 145 151 159 165 156 147 126 145 162 152 125 143 122 92 78 99 89 64 77 22 28 21 24 21 20 17 21 
47 43 39 36 27 63 101 96 110 84 131 146 99 180 178 161 141 161 157 164 167 151 154 130 129 126 127 157 150 115 127 107 98 75 89 77 56 65 25 24 21 23 23 22 24 26 
47 49 37 37 36 33 96 88 111 96 113 117 99 159 160 150 134 143 137 138 154 137 127 124 102 112 143 136 135 116 88 81 71 83 72 65 65 46 19 23 24 24 23 22 21 21 
53 46 45 36 36 35 65 84 97 95 100 96 124 166 156 128 146 124 72 65 74 75 72 88 87 105 130 146 151 102 56 70 64 56 79 44 46 19 22 23 21 22 21 21 26 22 
47 40 38 37 35 35 45 57 88 80 96 80 105 135 160 141 119 104 105 82 101 62 105 110 114 132 151 120 114 81 42 55 71 66 63 46 69 18 20 22 23 22 20 22 17 24 
49 47 46 40 33 37 33 58 97 67 61 58 78 130 143 174 173 160 140 121 127 148 140 153 155 157 131 103 87 61 52 30 59 68 66 50 51 21 20 20 21 21 19 23 19 21 
48 49 44 41 38 39 34 66 70 68 47 71 66 85 127 175 161 171 161 137 147 131 159 157 129 152 119 108 63 57 54 40 68 41 56 44 48 21 19 23 21 22 17 24 18 25 
46 47 44 45 38 36 42 49 56 52 54 76 52 72 104 121 125 132 137 173 136 138 163 136 124 134 93 68 37 35 49 30 53 46 52 45 29 24 19 21 24 20 22 19 19 18 
46 46 45 38 40 38 38 30 55 50 48 45 51 52 73 97 99 105 123 128 113 127 150 97 92 82 37 53 50 28 39 37 43 39 51 84 66 21 18 20 21 21 20 25 24 19 
50 48 46 42 39 40 19 134 48 41 40 46 66 49 75 53 94 86 124 107 94 116 120 102 107 85 44 51 31 30 42 43 38 47 63 91 17 93 17 22 23 21 20 21 28 20 
46 50 48 42 37 33 151 114 39 50 39 46 48 65 65 61 62 83 106 87 84 60 55 52 50 43 45 37 30 23 33 26 37 49 76 96 15 38 59 20 19 22 22 20 16 22 
49 45 45 47 40 61 178 106 27 30 45 36 68 44 36 61 51 63 46 60 60 60 32 52 33 30 20 22 20 23 24 27 44 65 92 86 10 53 101 22 20 24 19 22 22 23 
51 49 47 41 68 187 153 89 40 18 52 28 37 45 45 51 39 49 35 33 38 28 28 77 33 27 22 29 21 34 28 26 46 86 85 82 12 34 75 106 83 30 33 33 29 24 
48 46 94 143 173 183 179 71 59 21 47 46 46 42 29 29 31 40 19 25 41 25 28 60 22 28 35 27 29 24 29 41 66 83 87 71 25 40 106 110 58 124 91 108 111 113 
91 176 199 212 168 162 177 62 20 14 31 49 34 29 31 31 30 32 34 17 38 22 30 28 36 18 32 25 25 33 47 74 84 80 83 32 17 42 66 109 115 61 123 121 157 122 
