P2
46 56
255
50 50 52 49 49 51 34 22 138 73 85 89 58 68 81 74 91 107 105 111 102 104 100 85 79 77 90 94 86 70 69 50 56 52 61 53 45 51 26 32 39 42 41 38 38 42 
50 49 49 48 46 47 26 13 112 105 99 70 78 121 101 127 132 127 137 129 152 137 123 99 88 99 104 104 95 93 74 74 59 65 59 69 68 70 45 23 29 42 39 39 40 42 
49 48 45 49 51 30 29 79 107 74 88 85 153 158 170 181 178 189 188 172 166 156 144 132 130 134 135 117 130 117 103 93 83 61 74 79 54 70 53 20 32 36 38 42 36 40 
51 49 49 50 38 35 37 99 97 101 155 171 176 187 191 192 194 193 196 194 195 178 157 171 188 176 176 172 171 161 135 119 96 94 90 83 46 52 60 48 33 29 36 35 39 38 
50 49 49 43 63 28 58 108 92 168 176 179 184 193 193 195 199 198 198 201 201 199 196 198 203 197 191 183 182 172 166 149 131 119 116 114 97 63 57 72 36 47 36 30 33 39 
48 49 52 44 72 71 94 81 159 174 166 184 192 194 197 199 198 200 203 205 203 201 201 201 203 198 194 189 175 180 173 165 152 142 133 123 117 99 45 58 47 49 32 34 34 33 
47 48 46 40 80 95 116 128 164 170 184 188 192 195 197 199 199 202 204 204 206 201 202 203 202 198 198 185 183 173 169 170 158 153 145 132 121 109 102 33 62 58 37 32 31 27 
51 50 54 43 60 95 107 150 166 178 191 194 193 196 193 196 198 199 203 205 205 198 196 200 201 195 197 186 180 171 169 164 157 157 148 142 124 113 99 63 45 68 42 29 30 29 
50 53 55 45 92 123 153 150 175 194 190 194 189 192 196 195 196 198 200 200 203 202 201 199 202 192 198 188 183 172 170 161 153 156 149 140 140 119 103 102 48 63 57 31 29 27 
53 47 54 77 91 133 151 156 182 194 194 192 194 197 197 195 197 197 197 201 199 202 200 195 196 196 192 192 182 174 166 164 155 159 152 149 144 127 105 102 66 38 81 37 31 27 
52 47 54 107 89 151 144 164 182 194 195 199 195 190 198 202 198 197 203 198 196 200 197 198 198 195 191 196 187 185 174 170 156 143 153 156 146 126 105 103 91 31 76 46 27 29 
53 50 45 126 98 160 158 170 188 190 199 197 200 201 203 205 206 204 205 207 198 202 192 201 204 201 202 198 190 189 180 175 165 162 153 154 138 126 104 93 107 78 71 46 24 29 
51 54 41 113 106 144 161 173 185 193 193 199 198 199 203 205 209 207 207 209 203 210 198 202 208 206 203 201 197 188 185 169 154 154 149 149 140 133 115 101 105 69 49 60 22 23 
53 49 38 77 95 146 151 174 185 195 194 181 194 198 202 202 195 205 209 204 203 211 206 201 210 206 205 189 164 159 159 168 158 151 137 135 130 136 118 93 111 75 36 61 27 25 
54 52 45 85 95 147 148 168 179 187 173 179 187 179 158 144 160 175 189 199 198 198 208 196 205 200 191 160 150 122 113 113 134 151 143 139 124 121 114 101 88 69 40 57 62 29 
46 51 50 72 83 141 146 160 184 177 184 180 172 128 100 109 129 148 173 194 195 194 210 178 190 192 159 123 106 87 80 100 116 137 126 134 123 110 111 103 93 61 48 53 56 23 
47 51 49 75 107 142 144 156 161 177 175 162 170 177 179 137 109 112 133 167 187 201 208 186 194 179 114 96 80 120 189 193 163 151 149 123 121 111 106 102 102 55 41 41 24 23 
50 50 40 78 117 145 149 154 151 146 151 172 168 151 143 127 148 142 125 135 145 154 156 144 139 132 128 110 108 124 124 130 120 100 108 101 119 109 97 100 96 55 36 41 21 25 
50 49 47 76 86 157 152 132 148 143 166 132 193 150 124 108 149 138 125 152 141 199 199 186 102 102 74 123 116 122 63 41 70 109 113 110 106 90 109 106 97 62 44 33 24 25 
51 54 50 51 63 148 175 162 150 132 102 152 96 57 41 73 144 106 165 146 194 135 110 87 116 109 146 104 143 191 71 64 53 105 73 88 113 103 90 103 102 33 41 20 21 25 
50 50 48 45 51 140 132 164 166 153 136 114 170 57 102 121 175 139 167 185 119 54 200 181 134 109 159 160 156 162 149 103 141 138 119 110 116 112 130 120 70 37 35 77 61 22 
51 39 129 101 123 153 131 165 165 162 155 133 161 124 130 130 127 131 143 145 160 111 82 77 81 99 115 116 113 103 98 91 103 121 121 122 124 116 120 68 90 40 94 112 106 14 
57 98 129 188 106 78 155 176 174 167 177 149 155 156 148 153 148 133 137 169 155 161 185 159 73 82 114 91 115 117 112 116 107 109 104 100 97 126 150 121 55 41 116 48 69 18 
60 164 63 137 189 90 153 191 189 156 139 147 165 165 192 198 183 171 188 160 66 204 195 172 56 88 109 140 155 161 155 144 135 127 107 105 115 130 135 127 106 46 121 91 53 36 
54 160 104 159 140 89 143 183 170 166 171 176 181 184 186 200 193 195 179 173 88 198 201 184 82 106 116 146 170 175 173 159 161 151 152 132 139 129 126 114 117 68 112 103 49 64 
51 193 143 166 159 58 141 168 171 190 186 190 183 177 190 197 193 181 170 110 201 191 191 179 187 50 126 134 163 166 171 169 162 163 166 159 162 144 129 100 117 77 100 116 41 82 
32 187 173 179 147 61 142 150 185 191 184 191 183 185 193 192 182 176 183 166 199 194 189 169 172 150 127 137 168 172 163 160 156 162 165 166 164 143 128 67 109 82 58 115 44 43 
28 182 171 182 129 133 142 137 171 179 185 187 180 194 192 189 191 148 82 192 202 206 196 174 160 167 55 133 164 161 167 168 157 162 158 152 153 125 130 88 110 80 33 103 65 24 
33 196 149 173 112 134 85 143 158 178 185 182 193 192 191 192 172 102 207 162 198 206 198 170 161 165 156 50 172 164 164 162 161 161 167 146 147 122 111 103 101 104 39 99 86 10 
58 164 140 175 132 105 117 139 165 172 184 193 196 182 182 160 99 123 182 147 157 153 159 130 115 135 144 151 52 156 168 159 147 157 164 148 137 120 109 100 98 104 105 112 107 12 
52 24 171 179 184 119 124 144 173 155 126 122 123 128 129 144 149 105 119 33 165 112 113 104 99 61 87 125 32 95 88 105 106 116 103 112 134 126 108 99 75 106 114 104 108 20 
54 31 170 141 189 146 113 132 168 170 170 175 164 111 77 68 73 125 92 44 50 95 65 85 45 35 40 43 48 105 60 63 92 118 134 133 149 137 111 96 78 108 109 98 56 20 
55 49 103 173 177 146 126 128 163 164 156 131 141 142 142 127 153 186 147 89 64 82 43 48 65 63 73 78 96 174 164 152 139 129 110 103 118 140 103 104 60 110 105 105 13 22 
51 50 42 145 175 157 110 123 141 140 143 176 189 179 179 153 171 172 121 148 130 92 29 49 64 65 86 115 141 161 172 172 160 159 135 109 99 102 100 105 62 90 107 25 19 21 
52 47 43 18 154 140 94 104 132 149 168 184 182 176 176 179 126 140 92 118 120 101 98 79 95 104 95 113 87 128 129 171 162 160 150 127 111 97 106 83 74 39 35 22 20 23 
56 45 46 40 32 60 112 99 127 168 156 176 174 181 157 140 122 109 122 125 71 136 143 115 95 112 104 78 90 109 107 155 168 154 150 128 144 98 79 71 73 16 23 25 22 19 
51 50 42 38 40 42 114 113 103 127 141 164 169 180 114 127 121 104 121 115 117 110 125 120 113 92 94 98 97 59 89 118 163 150 143 117 130 103 86 56 72 22 23 17 18 19 
54 41 41 37 35 39 69 98 124 91 106 159 169 174 119 107 84 66 58 30 23 33 35 28 32 36 55 56 63 54 84 99 135 156 131 128 106 100 68 71 67 24 19 21 24 21 
45 45 43 39 39 39 49 82 92 110 108 161 168 171 101 71 114 100 92 126 83 71 63 51 67 86 101 114 84 80 69 86 105 146 115 125 101 118 79 78 67 21 23 19 23 24 
49 49 42 34 34 41 30 90 115 97 81 130 155 151 118 77 165 179 160 168 180 163 180 173 178 150 155 126 144 145 131 96 122 137 110 97 87 98 78 62 36 24 21 22 21 19 
49 45 44 36 37 38 38 63 94 95 87 83 113 152 106 131 172 169 162 154 156 155 157 162 148 136 150 128 114 147 145 116 120 124 105 88 89 86 73 44 33 24 23 26 19 14 
49 48 42 41 36 36 40 46 109 89 89 87 110 119 110 111 169 165 143 123 125 116 121 104 98 96 117 126 133 134 136 130 85 117 97 84 75 75 65 59 16 23 17 22 20 21 
52 46 45 39 39 39 36 44 79 81 104 94 95 131 84 146 159 168 141 131 100 93 107 81 83 86 110 105 116 129 123 123 86 97 61 76 70 84 63 30 23 22 21 22 21 18 
48 48 47 42 35 37 37 34 46 42 95 84 91 89 78 119 147 164 159 141 119 112 97 101 121 123 107 116 130 128 119 95 90 73 65 53 63 57 65 17 22 21 21 20 21 19 
48 50 45 42 41 40 38 37 41 67 83 76 76 75 76 90 144 142 161 165 164 148 119 113 155 147 156 147 137 117 102 88 87 69 62 62 76 44 44 22 23 22 23 16 23 21 
47 48 44 39 42 39 37 39 40 58 64 67 67 75 68 74 112 124 184 157 169 145 146 125 159 162 143 134 130 95 84 50 57 52 57 50 50 56 62 19 21 23 22 18 25 21 
48 48 46 43 40 35 37 36 40 94 46 51 58 56 61 63 76 110 127 121 135 125 174 145 147 162 142 99 116 104 67 36 33 46 36 49 40 54 32 21 22 26 20 19 22 24 
48 51 48 46 45 39 34 29 135 55 66 35 43 34 51 64 52 75 91 105 109 126 117 115 133 145 82 83 84 75 62 33 39 30 49 26 35 49 21 19 23 26 22 24 21 24 
47 48 47 45 45 41 40 135 109 21 44 41 46 46 48 79 55 75 74 99 87 126 97 80 112 135 107 84 69 51 29 43 41 41 36 40 41 78 92 14 21 25 23 19 21 24 
52 53 47 46 43 43 61 168 65 24 31 46 43 40 43 64 90 71 68 63 79 102 76 82 72 79 79 80 29 36 30 36 43 39 28 38 51 72 33 95 18 24 25 19 20 24 
44 49 45 46 47 28 193 153 21 43 19 59 31 25 48 61 61 30 51 49 71 59 68 71 62 33 67 43 30 23 23 32 32 34 25 43 76 36 39 80 28 23 22 23 20 21 
48 46 47 47 35 118 177 164 14 32 16 94 30 41 35 40 37 44 70 56 59 39 27 51 25 23 61 25 26 21 27 25 25 28 29 47 75 14 21 71 118 83 18 23 28 21 
48 49 49 118 176 180 158 133 112 6 19 89 73 47 42 37 40 29 30 34 43 41 34 40 31 29 67 22 31 22 15 25 30 27 43 77 75 10 32 82 94 57 113 101 111 114 
67 84 195 205 184 180 198 106 164 12 12 77 85 33 31 43 38 22 33 28 37 35 22 34 28 39 33 43 23 28 19 24 32 28 63 83 88 7 34 34 95 119 67 119 83 94 
172 186 139 188 171 163 206 137 132 20 25 47 98 36 33 25 24 27 22 31 38 36 27 33 31 30 20 23 20 19 32 27 44 66 80 76 77 10 39 69 136 123 25 82 98 106 
133 155 105 184 179 183 134 120 70 35 30 32 85 89 32 35 23 36 21 23 29 45 37 36 37 29 30 32 24 33 32 38 66 83 75 77 28 21 37 106 102 131 68 58 113 118 
