P1
20 30
0000000000000000000000000000000000000000000000000000000000000000000000
0110000000000000000111110000000000000011111000000000000000111000000000
0000000111000000000000000011100000000000000000111000000000000000011100
0000000000000001110000000000000000111000000000000000001110000000000000
0000111000000000000000011100000000000000000111000111111000000001110111
1111110000000111111111111110000001111110000001110000011111000000011100
0000111000000001110000001110000000011100000001110000001110000000001111
1111110000000000011111111000000000000011111100000000000000000000000000
0000000000000000000000000000000000000000