P2
46 56
255
36 37 42 35 39 37 35 38 50 41 45 41 44 53 49 47 39 42 36 42 34 41 48 42 36 34 37 36 36 43 51 34 38 40 41 33 47 39 34 32 44 47 45 48 49 46 
37 41 42 33 36 31 38 41 45 46 50 51 58 56 50 46 49 46 44 44 49 49 42 42 38 37 39 34 44 46 42 43 43 51 44 37 48 51 44 35 43 41 49 50 51 47 
38 43 34 33 35 37 37 43 42 55 62 59 56 50 48 55 52 47 43 47 50 45 53 50 47 49 46 51 50 53 57 53 70 56 60 54 41 44 54 47 46 48 50 53 47 44 
42 37 35 30 41 40 40 60 62 69 52 54 61 58 64 60 59 57 56 57 52 58 57 61 59 63 68 74 65 64 61 57 64 66 82 54 37 54 57 51 47 50 42 58 47 47 
39 37 34 38 53 51 47 41 69 69 64 65 68 70 66 68 63 58 59 64 60 69 72 73 70 72 79 75 82 82 78 75 77 59 94 81 40 49 52 42 57 30 54 53 49 49 
43 34 33 33 41 46 54 56 80 78 66 81 74 80 79 78 64 73 65 66 68 75 79 76 78 83 93 94 100 85 81 82 91 72 97 90 62 31 49 52 45 55 50 39 48 51 
44 32 34 37 42 42 54 72 89 91 90 85 89 92 90 87 80 77 65 72 75 80 90 88 96 94 103 111 100 91 88 96 85 90 92 93 89 46 43 53 41 48 42 44 47 48 
40 35 35 38 35 37 57 74 92 116 75 101 103 110 98 80 83 76 74 81 84 92 97 103 108 109 111 122 109 97 99 106 95 101 110 90 101 71 40 40 44 43 41 38 46 52 
36 29 36 42 31 42 76 89 112 88 111 106 107 88 95 76 80 83 84 89 101 113 108 110 110 113 113 128 109 111 106 117 101 106 117 105 104 87 44 35 40 41 39 33 51 50 
46 30 39 39 32 50 80 106 100 122 123 114 105 99 84 91 80 82 101 106 112 116 108 120 115 119 118 121 114 116 113 119 117 117 116 109 106 97 55 44 29 42 41 38 43 52 
45 33 44 38 39 61 84 105 119 128 128 117 112 87 100 89 92 108 114 110 117 112 117 120 117 119 119 122 122 124 124 124 124 123 127 116 122 106 74 46 32 38 41 41 39 56 
49 33 52 42 46 75 98 116 127 127 105 112 99 100 108 107 109 114 107 111 116 116 120 119 125 125 129 130 133 135 128 132 140 129 129 117 125 108 79 54 48 46 40 42 40 56 
39 38 43 50 54 74 115 122 123 127 123 119 123 123 128 126 127 126 125 124 124 122 120 126 129 131 136 134 133 136 139 138 133 136 129 125 129 119 84 51 34 49 43 39 39 54 
48 35 29 42 51 99 122 123 125 130 125 129 131 134 134 131 130 137 136 140 133 134 132 134 142 142 138 134 133 135 138 142 144 139 132 129 128 128 86 53 48 52 39 40 36 55 
49 45 31 44 78 111 127 127 127 131 124 128 130 134 133 134 129 135 140 141 142 141 134 142 147 145 140 141 135 142 140 146 139 139 133 132 125 135 101 57 42 44 47 41 41 55 
47 39 32 45 95 122 130 123 124 113 107 107 118 120 120 122 120 128 141 142 142 142 142 143 141 147 140 141 139 143 137 139 130 121 131 128 128 133 123 60 55 45 52 48 47 57 
44 37 36 44 108 126 127 118 111 101 98 102 88 91 97 103 119 128 136 141 135 137 140 145 143 134 135 127 112 113 111 115 117 116 113 119 129 130 126 83 47 55 49 45 51 58 
42 40 34 43 116 130 122 107 98 105 98 101 95 95 95 110 137 144 148 147 131 137 133 138 139 138 127 106 87 83 81 94 109 107 111 117 122 131 129 113 55 47 54 55 58 56 
46 47 35 49 119 132 112 113 122 124 131 120 116 111 101 111 130 143 149 156 142 139 145 149 140 130 133 122 116 110 108 105 111 124 112 111 111 124 134 122 50 40 51 43 57 56 
49 46 39 48 120 130 124 132 135 141 138 110 93 71 60 67 92 122 150 150 154 143 150 150 133 129 129 109 108 109 114 118 126 145 137 129 116 128 133 128 47 61 51 55 60 57 
47 57 36 62 122 130 131 140 147 126 104 76 52 62 73 68 65 105 126 137 153 160 154 148 124 126 108 78 68 73 90 100 102 136 141 139 130 123 134 132 56 68 47 40 55 59 
65 135 105 47 116 132 141 148 142 93 114 84 28 44 57 67 79 91 103 108 153 159 161 143 125 103 79 73 75 56 50 57 97 106 120 134 142 138 134 134 56 57 44 35 66 61 
145 141 147 54 122 135 148 148 123 96 106 94 63 40 77 71 74 66 112 112 148 156 160 139 108 105 88 87 94 39 65 39 124 70 115 138 147 142 138 137 58 54 37 133 158 149 
146 148 142 116 126 135 141 139 124 123 108 115 89 81 87 89 87 86 102 115 143 150 158 139 109 109 75 73 90 57 45 83 131 90 98 132 142 146 143 143 67 65 125 160 156 112 
115 133 144 149 126 139 141 138 136 130 136 153 124 108 103 101 105 103 119 132 134 160 153 129 97 101 88 94 95 82 93 106 117 115 129 130 145 148 144 140 81 55 158 187 142 138 
97 128 152 117 125 138 140 137 139 135 135 139 127 114 113 113 116 129 135 127 128 158 155 128 129 108 98 106 110 114 114 126 143 128 143 144 146 147 145 140 84 83 127 174 137 164 
125 132 163 177 119 136 137 136 136 139 134 134 132 122 124 119 136 146 136 128 129 159 161 128 137 146 130 113 126 126 125 135 137 142 151 148 149 137 144 142 120 146 141 173 138 169 
150 146 161 149 124 135 143 144 144 140 143 143 131 133 133 140 148 143 139 130 138 153 166 134 132 148 153 132 126 131 130 142 148 150 148 154 150 145 143 138 128 132 153 164 139 106 
129 149 116 126 123 135 150 153 151 145 142 145 143 142 147 147 143 143 139 132 136 157 165 140 134 147 152 153 147 134 142 152 151 158 154 151 154 147 140 135 129 109 137 150 150 75 
100 143 122 116 125 131 143 149 158 152 148 143 147 153 154 154 143 142 128 137 147 170 172 146 138 143 149 157 157 152 146 150 153 156 155 159 158 147 140 136 129 135 115 143 153 91 
63 130 120 102 128 127 148 154 155 155 153 148 150 155 150 150 149 138 132 137 152 157 157 148 139 136 151 158 160 169 161 160 161 163 154 160 158 146 131 133 130 142 113 151 147 135 
29 105 143 112 134 124 139 153 153 155 156 153 149 152 152 150 136 137 140 149 152 150 153 149 144 133 143 153 166 165 168 165 165 154 158 154 148 150 136 132 132 133 116 160 127 150 
21 130 136 138 90 127 144 156 158 158 154 156 153 152 148 135 132 164 126 149 171 152 152 145 137 144 137 152 160 166 165 164 168 161 160 158 154 144 134 130 124 124 128 167 122 94 
44 140 132 161 141 125 147 155 156 161 154 154 153 152 139 129 128 171 75 91 167 165 166 118 55 170 135 145 152 160 165 162 165 156 159 160 161 143 136 134 118 158 156 129 154 39 
46 65 138 157 158 128 143 152 160 158 157 162 156 144 136 136 139 123 147 132 141 163 148 118 116 144 136 143 143 150 159 163 161 164 159 156 156 144 137 135 147 153 144 140 149 49 
43 24 143 146 150 130 138 160 159 153 163 162 156 140 143 144 131 131 118 137 154 153 150 122 126 127 142 147 146 145 153 158 163 164 166 160 156 143 134 136 164 160 147 143 55 57 
44 37 50 152 156 141 133 160 160 169 165 162 149 146 145 142 130 130 112 129 146 134 145 110 116 128 143 145 156 147 151 154 165 165 166 156 151 145 136 133 151 151 145 123 49 50 
45 41 44 39 87 106 132 160 167 164 176 165 153 153 147 135 130 125 126 127 127 93 127 109 112 128 140 144 152 148 146 148 163 172 163 160 156 147 140 130 155 163 156 48 54 55 
44 44 44 44 44 22 133 152 168 166 178 166 155 156 145 139 135 134 140 137 132 100 128 117 124 132 135 137 147 151 154 146 161 166 163 162 152 141 140 123 144 86 45 52 53 53 
50 41 42 43 45 32 144 148 162 169 173 167 158 155 158 159 153 145 141 132 131 131 130 132 133 140 123 143 148 141 149 161 163 171 160 154 150 145 140 93 52 51 53 50 53 56 
44 44 43 43 46 45 141 145 163 169 168 160 166 141 134 119 112 119 104 97 100 105 102 112 109 103 106 122 128 133 156 147 157 165 161 157 156 149 144 49 51 51 51 54 56 54 
49 45 42 43 42 45 97 145 163 170 170 155 164 113 96 103 98 107 106 99 95 92 84 94 94 93 99 82 96 104 149 156 160 167 159 159 155 146 149 42 52 53 51 53 54 55 
48 43 44 42 46 45 32 147 159 163 168 163 155 116 128 153 146 130 128 121 114 110 116 113 117 125 132 144 139 127 141 160 158 166 159 163 152 145 150 45 54 50 48 53 55 56 
50 47 40 42 47 43 33 152 149 163 168 169 138 135 142 155 163 171 161 152 146 144 150 142 150 149 158 154 151 151 140 159 157 161 161 161 146 143 103 53 50 49 54 54 53 56 
47 45 45 44 43 45 47 96 148 165 164 171 135 143 151 158 160 165 159 155 140 137 154 150 148 151 154 147 151 150 133 158 156 167 159 159 155 148 43 53 47 47 50 54 55 55 
45 48 42 46 44 44 44 30 154 164 168 177 154 141 154 157 159 161 149 137 121 113 121 134 140 148 153 145 153 149 140 155 162 158 160 152 148 130 48 49 48 50 50 53 53 54 
45 48 47 50 44 43 41 47 111 160 168 163 151 142 146 150 147 148 144 136 143 142 146 148 145 146 149 143 143 141 143 159 158 162 165 156 149 41 48 47 51 48 51 49 50 55 
43 49 49 45 42 44 45 42 23 161 162 167 171 146 148 149 141 142 140 141 143 143 152 154 152 146 147 141 148 142 144 162 159 160 154 152 154 46 48 46 45 54 51 52 51 50 
49 48 52 49 45 43 46 43 47 155 160 163 158 154 151 144 144 142 144 142 147 148 148 156 149 146 146 146 140 147 159 158 158 159 156 137 159 45 49 53 52 50 55 52 51 52 
44 48 51 47 45 44 42 39 42 127 154 167 162 158 144 148 146 150 145 147 149 150 145 144 149 144 143 143 145 147 147 152 158 158 146 143 149 121 80 52 54 49 55 55 55 52 
45 43 42 46 48 44 39 39 39 73 152 163 162 159 147 150 153 155 160 162 144 149 145 150 147 148 157 145 147 143 152 150 156 146 152 152 133 99 109 136 48 51 49 50 49 52 
43 44 46 45 44 45 39 39 33 151 146 159 163 158 155 156 149 160 164 160 150 154 157 155 143 150 148 148 151 153 152 147 144 157 155 156 118 111 89 110 152 52 54 51 51 52 
44 40 42 42 45 41 36 34 26 165 151 153 163 161 159 152 161 161 158 162 165 156 165 156 157 155 148 142 150 147 144 146 160 154 159 157 112 118 117 79 145 68 52 52 55 50 
45 44 44 42 44 38 36 35 174 139 78 149 164 160 165 169 162 162 163 164 163 154 157 162 156 152 152 155 147 146 148 161 158 162 158 154 102 100 122 88 121 210 37 51 52 51 
42 42 43 42 38 40 36 11 227 210 52 98 129 155 163 173 171 166 162 162 162 164 165 161 165 158 154 155 152 155 160 164 158 160 160 154 105 108 113 85 121 158 166 46 48 52 
45 46 38 38 39 38 38 117 211 222 27 103 97 105 129 159 168 179 172 171 167 161 161 161 165 161 163 162 161 169 167 162 157 154 158 156 86 111 104 94 104 125 209 39 48 53 
