P2
46 56
255
35 37 41 39 28 28 37 48 44 37 36 44 44 48 50 48 39 46 39 47 44 44 41 39 46 43 43 36 30 33 31 37 34 43 43 53 43 39 35 43 55 45 52 47 42 46 
38 38 44 29 27 31 40 40 37 35 39 44 53 53 41 38 40 47 41 44 44 44 50 42 35 35 42 34 40 41 36 40 42 56 63 50 43 35 41 57 45 61 51 47 50 48 
38 41 37 31 27 34 42 31 35 43 44 46 42 39 40 41 45 47 47 46 39 47 42 48 43 59 47 39 36 39 39 41 62 55 57 53 61 50 45 43 48 64 56 54 50 48 
35 38 39 27 19 28 33 34 34 39 40 43 52 48 52 50 50 38 50 44 43 37 44 45 54 46 34 42 39 37 41 63 39 57 54 49 38 53 47 48 61 61 71 53 50 47 
37 38 27 21 28 33 39 40 40 51 48 59 51 54 60 67 56 50 49 48 49 53 52 59 47 43 51 47 48 54 65 58 64 58 75 62 64 49 72 52 46 61 57 52 50 47 
41 35 26 30 27 33 35 41 39 44 56 59 65 70 64 63 55 65 55 50 54 56 55 53 60 46 57 54 68 69 75 72 69 94 82 78 53 45 46 40 65 48 64 57 55 47 
40 32 34 27 29 39 36 34 38 49 57 65 56 55 67 65 72 58 63 60 68 58 62 61 63 62 73 77 85 83 88 65 79 82 86 102 62 35 52 53 54 55 49 52 52 51 
39 29 30 35 34 36 35 43 46 57 69 48 52 60 68 69 76 61 60 64 67 67 68 73 80 74 77 102 86 83 98 86 89 87 72 94 96 56 54 61 41 51 41 50 56 51 
40 25 20 26 27 38 54 43 59 69 59 69 78 75 71 77 75 68 64 65 69 75 71 77 87 88 94 107 102 95 104 96 94 104 82 105 108 72 39 44 46 50 48 49 54 56 
32 25 27 25 21 32 34 61 74 74 72 74 77 65 86 81 91 70 78 76 71 76 77 95 82 93 110 106 108 104 100 93 101 105 105 113 109 95 50 38 45 53 48 48 56 53 
36 27 20 19 22 26 43 62 70 72 94 92 91 84 84 89 96 73 80 68 74 84 90 98 100 111 110 116 120 112 108 103 104 100 121 120 112 108 66 55 32 46 54 38 53 53 
29 23 23 24 22 27 42 67 78 87 109 86 94 93 101 100 85 79 79 79 86 96 98 114 116 124 114 115 129 125 124 121 122 106 127 133 114 117 83 47 34 37 47 38 54 55 
36 25 24 24 25 28 41 61 89 94 76 107 106 93 86 86 77 92 86 87 103 108 121 119 121 130 126 129 130 122 119 123 124 127 136 126 118 120 102 62 50 47 45 45 54 57 
38 23 20 24 26 30 44 58 79 82 102 111 113 110 99 93 86 86 84 103 117 129 124 121 124 128 129 134 137 130 134 133 134 132 137 145 122 129 107 59 40 49 43 44 55 58 
40 25 26 27 25 30 42 69 77 92 104 110 112 108 96 86 82 101 108 123 118 130 127 125 127 126 135 136 135 139 145 138 146 150 142 134 127 140 113 59 57 53 49 49 61 57 
44 34 26 29 25 30 47 72 95 98 101 111 93 98 96 97 106 103 128 126 126 130 131 130 131 130 132 139 138 142 150 147 151 157 148 146 137 143 121 69 53 50 56 56 59 59 
47 41 25 23 28 32 54 84 95 95 107 118 114 110 118 114 117 118 118 118 125 130 129 131 128 136 139 144 142 145 151 153 157 155 154 148 142 142 139 88 57 60 51 65 58 57 
49 47 24 25 26 34 67 90 95 97 109 115 118 123 128 129 127 133 125 132 138 145 139 141 134 142 140 149 142 145 148 155 159 151 148 145 144 147 143 116 58 49 51 60 61 59 
46 42 23 26 30 36 71 94 96 98 109 111 114 123 129 125 128 131 122 132 139 144 141 149 143 145 148 150 147 153 152 152 151 140 129 141 136 141 144 138 63 56 56 60 61 56 
45 45 42 25 29 36 76 96 94 100 104 100 95 96 103 104 109 111 106 123 134 135 141 143 141 138 138 145 143 129 126 127 127 131 127 127 126 138 141 134 51 53 57 59 64 60 
43 44 45 25 26 31 83 89 97 90 86 82 77 80 71 73 71 82 87 110 117 128 120 131 139 142 146 131 131 105 85 84 87 114 123 120 130 130 142 140 66 69 55 58 58 59 
44 47 43 30 27 27 84 86 89 77 69 66 69 79 89 95 88 96 97 110 104 125 123 132 136 159 155 141 137 133 130 130 121 134 150 142 131 129 140 149 72 69 53 62 59 59 
46 48 89 42 27 27 85 85 78 70 74 81 80 81 77 69 65 62 76 76 77 102 122 135 156 159 143 146 144 98 84 88 97 118 153 155 147 136 137 148 82 57 52 125 160 134 
45 77 122 110 32 27 85 85 80 73 83 72 60 62 52 62 63 63 66 68 60 79 120 149 161 150 139 133 101 78 91 81 83 94 110 138 148 153 147 150 109 77 115 172 161 140 
34 77 43 118 60 27 88 90 84 82 83 59 48 33 41 25 74 57 67 76 83 58 131 168 166 142 145 105 87 86 45 57 36 125 81 122 155 159 153 149 127 75 167 173 168 104 
32 68 58 70 77 24 85 97 89 80 66 44 78 40 29 31 101 71 73 69 89 54 130 171 172 137 114 123 98 91 73 41 133 144 110 99 143 158 161 155 142 46 153 204 157 102 
32 68 63 86 74 47 86 92 97 86 66 62 87 99 56 76 84 74 73 74 91 63 127 172 178 135 146 106 84 90 102 76 103 133 126 129 142 159 162 156 150 91 159 218 149 103 
36 73 78 98 72 56 84 96 108 113 102 84 70 71 77 75 78 79 90 84 76 100 119 167 178 146 112 109 106 103 112 107 126 159 137 150 159 162 162 158 145 154 170 215 150 107 
40 99 93 95 91 48 81 91 108 115 121 102 83 87 86 92 92 95 95 105 116 105 106 160 180 144 118 114 111 121 125 133 144 167 150 160 164 163 153 153 147 121 159 189 151 152 
41 77 97 89 77 47 75 90 106 119 129 119 107 101 102 106 107 99 118 125 117 105 106 143 184 141 150 137 126 121 135 141 148 152 160 161 162 166 163 156 140 144 133 187 144 165 
44 48 85 107 99 86 70 86 103 113 123 134 125 115 103 111 106 110 122 117 113 105 111 140 181 146 148 162 152 137 135 136 147 160 171 166 164 168 160 147 137 175 117 183 125 117 
42 28 85 127 94 97 66 79 102 107 115 118 125 126 121 118 125 125 124 114 114 105 118 145 180 155 146 161 160 151 150 144 154 162 164 163 169 176 160 148 140 155 120 192 130 61 
40 33 111 127 113 90 68 68 95 111 116 119 119 118 125 130 138 142 129 124 113 113 130 151 178 166 153 155 162 168 163 163 164 165 169 166 172 165 161 142 148 112 160 165 170 49 
40 38 99 71 117 90 67 72 89 96 113 119 126 128 134 143 146 150 137 114 112 121 143 169 170 181 156 151 168 176 172 176 179 174 173 175 169 160 162 145 144 157 172 144 156 62 
39 38 50 120 106 123 69 72 82 98 110 114 126 124 132 139 139 146 134 101 120 122 133 159 156 168 160 157 157 171 180 177 180 180 181 164 172 166 155 146 137 177 156 165 69 62 
37 37 27 117 94 109 75 72 81 102 105 111 121 128 132 138 137 131 113 113 103 100 117 147 168 164 161 154 151 164 171 169 182 179 180 163 170 171 161 147 145 180 159 166 56 63 
37 36 35 75 94 92 109 68 78 97 104 115 122 132 128 136 134 112 107 97 100 91 94 130 140 180 149 153 152 153 154 171 174 175 179 174 171 167 162 141 152 171 162 86 60 58 
41 34 37 28 90 102 110 69 76 97 100 115 119 129 135 136 133 114 117 77 107 40 72 124 135 162 106 118 149 161 157 160 175 180 184 183 172 169 160 144 167 178 163 55 60 61 
45 40 37 38 35 68 92 68 72 97 104 111 117 127 132 132 120 125 127 116 69 73 80 113 140 138 138 132 149 159 164 160 169 173 186 181 180 169 159 151 166 91 56 57 59 61 
39 36 30 35 36 37 38 44 73 91 102 106 118 124 131 116 124 123 124 117 76 64 90 119 122 142 124 129 155 162 170 161 162 174 184 185 181 170 161 152 43 59 56 60 60 60 
38 35 38 37 37 33 35 31 77 82 98 107 108 124 119 117 119 119 113 109 96 76 99 138 87 137 118 127 150 152 166 168 172 170 187 183 178 173 159 160 44 58 57 59 59 59 
40 34 36 37 37 37 38 33 74 78 93 100 108 124 114 113 115 97 107 111 113 105 105 116 87 124 125 136 142 145 160 163 169 171 180 184 178 169 159 171 50 60 57 56 56 59 
41 40 34 36 36 37 35 39 66 80 91 100 102 112 106 117 113 97 100 111 113 114 108 127 128 130 146 157 148 155 163 161 174 174 180 181 175 174 156 155 61 62 54 59 59 61 
38 40 36 37 34 34 36 36 43 78 87 100 102 107 103 125 107 77 73 69 91 82 87 88 91 83 92 101 100 103 114 130 169 172 180 184 170 168 154 107 61 62 59 63 61 62 
39 40 38 35 37 34 32 35 27 74 86 97 102 105 116 137 83 82 64 63 72 89 83 86 95 100 109 114 116 124 136 127 146 174 175 184 170 172 155 58 57 54 57 61 65 63 
38 40 37 37 37 35 34 37 38 72 85 92 99 105 124 144 87 91 99 94 92 100 104 110 100 115 131 145 169 169 165 153 153 181 175 176 176 172 161 50 59 59 65 64 63 63 
44 42 35 38 38 34 38 37 40 34 78 95 97 100 117 123 111 109 102 102 102 117 125 123 130 143 154 163 165 171 171 173 160 165 170 177 172 166 100 61 59 57 61 62 61 62 
40 40 41 39 40 37 37 34 37 41 75 88 93 102 110 102 106 97 105 105 106 123 126 111 126 137 151 159 169 169 175 168 158 169 173 172 174 166 53 56 60 60 60 63 63 60 
41 43 38 39 42 40 39 39 37 39 57 84 93 92 97 92 93 100 97 100 94 94 93 98 108 124 144 158 164 161 163 152 157 173 171 174 170 83 60 64 65 66 62 61 66 63 
40 43 44 42 41 40 41 36 39 39 51 86 95 91 93 89 89 93 99 109 115 122 121 136 138 159 157 160 161 161 166 157 163 172 174 175 152 85 60 59 63 62 65 60 62 59 
45 44 39 42 41 39 38 40 39 41 118 62 101 94 91 91 86 92 100 113 114 118 127 140 149 153 156 158 160 158 154 161 162 166 169 171 65 94 136 53 64 67 65 59 60 62 
43 38 45 45 44 44 40 40 41 23 156 74 66 105 101 89 96 94 101 105 108 115 125 144 155 147 156 163 167 161 153 149 159 166 165 169 73 108 122 150 56 58 56 60 56 62 
44 42 43 39 41 45 43 41 39 98 132 81 70 78 105 100 89 90 90 88 103 101 119 129 140 141 156 171 168 158 165 159 162 161 163 167 78 106 83 141 56 60 61 56 61 58 
39 47 40 44 45 44 44 43 29 190 164 92 83 75 71 91 104 100 93 88 98 109 130 124 139 144 157 155 151 151 161 148 165 163 163 141 80 128 124 153 219 50 67 60 60 59 
39 44 41 42 41 42 36 38 46 197 229 76 102 92 82 81 91 105 102 105 115 114 133 139 144 154 142 148 139 149 148 158 167 164 165 111 108 119 120 115 172 88 59 60 65 58 
42 40 43 41 36 58 114 150 156 194 219 53 110 107 100 92 83 90 101 117 123 129 136 138 135 143 144 152 154 157 169 165 168 166 168 88 121 112 121 120 117 232 44 62 56 57 
