P2
46 56
255
37 38 41 34 36 33 39 39 40 38 38 47 48 50 50 44 38 38 44 41 37 39 38 43 41 44 37 33 33 40 33 31 34 42 45 47 47 38 36 42 46 50 48 47 47 42 
36 40 39 29 31 35 33 37 46 43 45 48 43 39 38 43 43 41 45 50 43 38 38 39 38 42 44 42 38 38 33 36 42 50 47 51 45 46 41 41 45 57 53 44 47 48 
40 40 37 33 33 31 35 38 41 49 48 46 48 47 44 52 47 48 47 44 40 42 42 39 45 48 43 36 38 37 43 46 54 52 50 48 54 55 45 38 48 43 53 49 52 44 
41 36 38 27 35 35 38 41 42 44 52 55 54 53 65 62 53 48 49 49 46 45 48 49 49 43 38 40 39 38 44 59 49 40 56 53 46 42 62 47 49 59 50 51 49 50 
36 42 33 32 33 42 41 41 44 52 56 70 67 63 63 59 56 55 55 50 51 51 58 48 43 51 48 51 52 53 66 59 55 67 65 66 45 57 46 53 44 50 50 46 49 48 
42 45 36 34 36 44 64 51 63 74 82 80 61 58 59 69 72 66 55 54 54 58 55 59 57 51 57 62 67 66 72 69 58 72 76 79 58 55 52 48 48 37 44 47 52 48 
41 49 40 31 32 43 54 54 58 77 87 77 64 69 75 72 71 73 64 61 59 61 61 63 72 68 68 78 91 79 81 73 68 74 76 83 79 41 49 50 41 53 50 43 52 48 
49 43 28 40 43 37 44 63 70 91 90 91 87 82 76 83 78 81 71 70 63 68 64 69 76 77 84 92 96 87 94 89 80 86 83 95 86 67 39 44 45 55 37 47 51 47 
48 42 41 37 37 36 40 60 86 94 96 101 84 87 96 92 91 89 73 80 74 75 72 82 84 82 96 100 106 101 102 90 83 95 91 93 94 89 43 38 44 49 44 47 56 54 
48 45 33 29 45 31 44 70 84 103 110 115 97 102 99 103 104 84 86 76 78 80 85 88 92 96 101 102 111 110 104 92 91 96 95 108 102 91 51 42 34 42 43 41 53 56 
40 47 34 43 47 37 50 73 103 108 114 101 110 111 113 103 92 86 86 78 80 90 94 101 110 112 112 113 113 118 114 103 100 105 104 115 110 98 74 51 37 47 48 38 54 52 
44 55 31 39 45 36 55 80 97 104 117 128 124 113 107 99 89 85 85 86 93 98 111 114 116 117 115 116 120 120 112 112 112 113 111 116 116 105 92 47 35 45 44 32 56 55 
44 44 35 45 43 49 71 86 104 120 130 129 127 119 108 97 88 89 88 93 107 114 119 117 114 125 123 125 124 122 119 117 120 124 122 127 118 116 96 54 39 44 45 37 55 59 
50 48 38 47 42 57 68 97 121 124 132 127 113 119 96 91 99 106 102 116 118 119 121 120 123 124 124 126 128 127 127 126 126 131 128 128 121 121 97 56 41 45 36 39 58 56 
46 50 44 36 39 51 92 113 130 130 128 129 123 120 119 122 121 118 119 120 115 120 121 124 123 126 128 127 130 129 133 135 129 136 136 132 125 127 109 58 48 51 40 41 60 59 
49 52 29 31 41 65 110 126 133 129 132 135 132 131 132 134 134 132 130 130 126 120 121 123 123 130 135 133 131 132 137 136 138 143 138 137 130 127 121 71 54 49 58 51 58 57 
49 50 26 35 49 87 122 130 131 130 133 132 129 131 135 135 136 136 133 139 138 139 131 130 131 139 138 138 135 131 136 142 141 145 141 135 131 129 132 89 50 53 47 64 56 56 
49 48 41 33 53 92 127 135 131 130 130 119 111 118 124 131 128 132 127 135 139 141 142 144 140 139 144 142 138 136 134 138 144 140 133 137 132 131 129 112 51 42 43 58 59 58 
48 49 51 40 58 88 130 135 132 129 112 105 106 104 99 101 109 115 121 130 141 136 137 138 141 138 137 139 138 136 132 129 129 126 121 116 124 126 134 125 55 44 48 60 59 59 
47 47 56 38 49 82 131 132 127 113 109 109 106 105 94 87 90 103 126 142 141 139 130 130 136 141 143 134 128 106 92 92 99 121 123 120 117 120 130 126 47 48 48 57 58 59 
43 122 116 40 61 83 134 137 123 118 122 125 136 129 132 135 128 132 145 153 152 154 141 137 136 148 147 133 124 116 101 101 91 103 117 109 110 112 126 127 54 64 50 60 55 59 
35 127 149 107 40 89 136 135 136 133 140 146 133 112 89 69 54 59 103 129 146 163 154 143 151 148 136 132 133 118 117 116 122 128 145 138 134 118 127 137 61 61 60 126 128 55 
84 100 113 149 57 90 139 140 144 147 152 121 110 85 64 54 60 66 73 101 133 149 158 152 150 138 128 126 102 75 74 82 96 92 113 139 144 136 129 135 55 57 128 153 134 157 
128 108 130 185 141 91 131 144 148 148 133 94 110 138 37 46 34 61 75 83 115 132 155 158 153 135 124 92 78 84 86 49 43 46 94 117 138 144 137 139 76 51 168 145 159 142 
138 103 149 151 154 111 139 146 152 149 119 100 102 202 122 40 43 71 70 84 124 126 152 160 158 126 109 102 87 92 111 54 42 43 99 106 141 147 143 141 85 68 158 144 169 129 
91 85 160 165 156 117 141 143 147 144 136 132 130 109 101 89 82 80 88 87 101 122 149 160 161 121 125 94 73 82 103 100 57 87 103 112 134 148 149 142 90 121 160 152 170 136 
38 88 173 156 119 127 141 142 146 140 143 139 152 150 121 107 100 97 95 92 109 134 142 158 156 124 104 93 95 98 102 100 111 138 124 132 144 147 146 143 115 161 150 150 132 146 
28 96 144 116 124 120 142 141 141 141 140 144 147 137 118 115 112 110 111 122 136 134 135 157 160 131 110 105 104 113 117 130 145 143 138 146 144 149 147 140 121 134 146 158 90 98 
34 113 144 113 114 120 137 143 146 144 143 141 139 130 124 118 116 117 131 140 142 135 134 148 155 131 136 125 115 115 123 127 138 147 146 148 151 151 146 133 129 119 134 152 101 55 
46 124 151 111 103 131 132 145 152 152 149 142 141 137 127 123 125 136 144 144 145 135 135 152 159 138 135 141 134 129 126 129 138 148 151 150 150 152 140 131 136 126 131 139 134 51 
48 124 136 128 108 142 133 141 154 161 154 147 138 138 134 132 137 137 140 145 144 135 138 154 164 145 137 144 141 139 136 133 141 145 152 148 155 154 139 130 133 110 145 128 141 53 
49 64 112 143 131 108 135 136 151 157 161 157 150 140 136 146 145 147 143 148 140 137 141 154 157 145 137 144 148 146 147 143 148 147 154 156 159 156 138 129 114 121 166 125 86 56 
43 25 139 143 150 116 142 133 151 164 162 159 156 152 147 147 146 148 148 143 133 139 147 157 160 157 141 140 153 157 158 157 159 159 158 157 156 150 139 126 129 156 136 154 46 58 
43 45 124 143 160 167 143 129 154 162 159 162 157 150 147 150 150 145 137 137 139 143 144 148 150 149 143 138 151 157 164 162 161 166 156 157 157 148 137 132 158 159 141 146 50 59 
41 45 18 143 148 153 140 131 153 162 168 160 154 157 154 155 149 132 140 148 151 155 156 155 159 151 145 135 147 152 156 161 160 162 159 155 160 154 137 133 168 155 143 51 55 52 
46 41 40 87 157 156 146 133 147 162 164 160 159 161 159 158 143 126 134 161 107 126 169 160 154 158 139 147 145 140 153 156 159 165 161 158 155 153 136 130 157 150 145 49 56 55 
44 43 40 42 38 131 147 133 145 165 170 167 167 167 164 156 143 136 139 131 139 123 145 169 168 134 105 137 144 144 144 152 162 166 169 164 155 153 137 129 152 162 58 52 55 55 
43 44 42 44 46 42 29 141 140 169 166 170 175 171 164 147 146 145 133 132 127 145 157 164 153 127 124 133 143 153 147 146 158 166 169 166 157 148 133 130 105 46 51 51 54 56 
47 45 44 43 44 45 40 145 139 165 172 175 176 171 160 147 145 142 131 129 116 129 146 139 145 122 120 136 146 152 150 150 157 170 175 166 160 150 138 136 51 53 51 52 57 58 
45 45 43 44 42 46 47 120 142 156 175 172 180 170 159 153 145 138 132 128 120 123 129 118 136 121 117 133 138 148 153 154 155 167 170 163 158 149 138 104 53 53 52 53 54 55 
47 47 42 43 44 43 42 50 145 152 167 177 184 174 158 157 154 147 142 132 137 139 129 108 122 119 123 130 134 144 147 150 155 159 165 161 151 148 142 72 55 54 54 55 56 54 
46 47 41 45 41 49 44 25 148 153 167 174 174 171 163 161 164 168 156 147 138 131 133 141 134 134 138 143 135 147 149 154 157 161 166 160 154 145 147 45 52 53 53 55 56 56 
45 45 45 43 44 44 45 44 139 147 165 174 176 166 168 152 106 82 91 101 91 81 84 91 82 86 92 89 86 87 109 137 154 163 166 160 155 144 154 46 55 50 52 54 57 54 
49 43 44 47 44 45 43 43 61 148 162 169 176 169 158 136 116 137 113 113 116 110 100 102 104 108 109 107 111 127 125 126 155 163 166 155 156 144 116 51 55 54 53 55 57 52 
49 48 46 48 47 45 42 47 36 153 156 168 170 177 155 141 135 153 167 157 140 123 117 111 111 116 131 147 158 153 148 142 156 158 163 160 156 147 50 53 53 50 57 57 52 58 
44 47 45 48 48 46 44 46 47 65 153 164 169 173 150 148 153 153 160 164 161 158 152 150 154 152 153 153 158 157 158 145 146 159 162 158 151 132 49 52 53 58 56 55 55 54 
46 49 48 50 47 47 49 46 45 39 147 162 166 171 157 143 155 162 163 166 161 154 138 133 144 150 150 154 158 156 151 145 151 156 160 160 147 63 56 53 56 60 54 55 52 54 
49 47 50 50 49 50 45 46 40 47 42 164 168 166 157 145 148 154 153 150 140 124 112 110 116 131 139 152 154 150 145 147 154 158 157 154 138 69 56 56 53 57 55 56 53 55 
48 51 47 50 49 50 48 45 40 43 31 161 165 166 166 150 148 147 143 142 145 143 140 139 142 145 149 149 151 149 147 146 147 156 157 152 150 81 138 49 53 53 50 53 52 52 
47 49 46 51 48 48 48 43 41 41 37 142 165 168 159 157 153 150 144 147 148 141 143 144 148 146 146 147 148 147 147 148 149 154 154 146 161 103 106 174 42 54 53 51 52 54 
46 47 47 47 46 46 46 41 40 38 176 88 162 167 168 155 151 152 148 147 150 147 150 146 143 146 149 150 151 144 146 148 149 155 147 150 161 101 85 124 182 51 53 54 53 55 
45 43 48 47 46 50 44 38 35 25 176 20 153 164 163 162 151 151 152 154 153 159 148 151 147 153 155 153 151 152 144 146 150 144 148 157 146 118 129 91 153 72 50 54 50 52 
49 47 48 47 45 44 45 40 40 174 176 24 84 132 163 163 160 152 154 161 162 161 154 153 153 154 151 147 144 149 145 145 147 150 155 156 125 110 121 98 102 219 32 48 53 52 
45 49 45 45 47 42 43 37 19 223 209 52 97 87 101 138 162 154 159 158 159 158 161 156 159 153 156 147 141 146 145 140 155 159 155 157 108 107 103 111 121 177 162 46 56 54 
44 44 47 42 44 43 38 37 134 218 208 59 98 101 94 87 112 143 164 162 156 161 157 152 155 155 152 156 148 143 156 160 161 157 161 159 90 97 115 119 88 114 213 35 50 51 
43 42 42 38 38 90 157 150 199 207 206 177 92 103 106 101 92 98 124 150 164 158 164 165 166 163 156 153 151 158 163 158 164 158 165 162 96 89 98 125 127 194 208 219 38 48 
