P2
150 65
255
20 20 20 19 19 19 18 18 18 19 19 19 19 21 21 22 24 25 29 34 39 45 48 53 56 60 63 63 61 59 55 59 68 58 54 50 53 57 51 59 81 101 105 108 108 109 108 107 106 106 103 100 97 95 91 88 87 88 89 91 92 94 89 74 59 54 55 52 51 46 43 43 42 42 41 41 42 41 41 40 37 36 30 28 26 24 20 16 15 14 13 13 12 12 10 10 9 9 9 9 8 7 7 7 7 8 8 9 10 9 9 11 13 13 15 16 17 18 20 23 23 24 27 30 33 34 33 32 34 35 34 33 32 32 31 31 32 33 33 33 34 34 33 32 32 34 34 33 31 30 
22 22 22 21 21 21 21 20 20 21 21 21 21 22 22 23 25 26 30 35 39 45 49 54 57 63 69 77 81 75 67 75 83 72 62 55 57 62 60 57 79 109 119 120 122 123 122 121 120 119 117 113 111 108 104 101 100 101 104 106 106 103 98 86 67 60 62 56 54 50 49 49 48 48 48 48 46 45 44 41 38 36 31 29 28 25 21 17 15 14 13 13 12 12 10 10 9 9 9 9 9 8 8 8 8 9 10 11 11 12 12 13 15 15 17 19 21 22 24 27 28 28 31 34 37 38 37 36 38 39 38 38 37 37 36 36 38 39 40 40 42 42 42 42 41 41 43 42 40 39 
24 24 24 23 24 23 23 22 22 22 22 22 22 23 24 25 27 28 32 36 40 44 49 55 59 64 74 85 91 86 77 94 108 95 76 64 56 59 69 60 76 110 128 130 131 131 131 129 128 128 125 122 119 116 112 109 108 109 114 116 114 112 105 89 72 67 70 60 57 53 52 52 51 50 51 51 48 47 45 42 39 38 32 28 27 23 20 16 15 14 13 13 12 12 10 10 9 9 9 9 9 10 10 10 10 11 12 13 13 14 15 15 17 18 19 22 25 27 29 32 32 33 36 38 41 42 40 40 42 43 42 42 42 42 41 41 43 44 47 48 49 50 51 51 52 52 54 54 53 52 
28 28 28 28 27 26 25 23 23 24 23 23 24 25 25 26 28 29 32 36 40 45 48 54 59 68 81 89 95 97 85 94 125 113 89 74 65 65 74 70 71 106 132 135 135 136 136 135 134 132 129 127 123 119 115 112 111 114 119 121 120 117 104 92 74 72 75 65 60 54 52 53 54 53 52 50 48 46 45 41 37 35 32 28 26 22 18 16 15 15 14 14 12 12 12 11 11 10 10 10 10 11 11 12 14 14 14 14 14 14 16 18 19 21 22 25 28 29 33 36 37 38 39 42 46 46 44 46 48 48 47 46 45 45 45 46 49 51 54 56 57 59 61 61 62 64 65 66 65 64 
30 30 30 30 29 28 27 25 25 25 25 25 26 28 27 28 30 31 33 36 39 44 46 53 59 71 85 92 99 103 90 95 125 120 99 83 75 68 73 77 76 102 132 138 140 141 141 140 137 135 132 130 127 123 119 117 115 115 119 121 119 117 102 93 76 76 76 67 62 55 52 52 52 51 49 47 45 43 42 38 34 32 28 25 23 20 18 16 15 14 14 13 12 12 13 13 12 11 11 11 11 11 11 13 15 16 16 16 16 16 20 21 21 25 26 28 31 33 37 39 40 42 42 43 46 47 46 46 48 49 49 50 51 50 51 53 54 57 61 64 68 71 74 75 78 81 82 82 81 79 
33 32 33 33 32 31 29 28 27 27 27 28 30 32 31 30 32 32 34 36 38 43 44 51 57 67 79 88 97 102 90 96 120 123 100 81 79 69 71 75 78 100 132 137 140 141 141 140 139 137 134 132 128 124 120 117 117 120 124 125 121 120 103 91 75 76 75 66 61 55 52 52 51 49 48 46 43 39 38 35 31 30 25 22 21 19 17 15 14 14 13 12 14 14 14 14 13 12 12 12 12 12 12 13 16 17 18 19 20 20 21 23 23 27 30 29 32 37 39 40 42 43 44 45 46 48 49 50 52 54 55 54 54 55 57 59 61 66 72 76 80 83 87 89 92 96 97 97 96 95 
35 35 35 35 35 33 32 31 30 28 30 32 35 36 35 33 33 33 34 36 38 42 44 49 54 64 75 83 90 96 87 95 124 126 104 85 84 70 72 75 75 98 136 137 141 142 142 141 140 139 138 136 132 125 122 119 120 121 123 123 121 122 106 92 76 76 75 66 59 54 51 52 50 48 46 42 39 37 33 31 28 26 24 22 20 17 15 13 13 12 12 12 13 13 14 14 13 13 14 13 13 13 14 16 18 18 19 21 22 23 26 27 28 31 34 34 37 40 43 43 45 47 48 49 50 51 51 53 56 58 61 62 62 63 64 68 72 77 83 88 92 95 100 103 106 109 111 111 109 108 
37 37 36 36 36 36 34 33 32 31 32 35 38 39 37 35 34 34 33 34 36 38 41 45 51 59 67 74 82 91 83 94 120 125 100 84 83 70 70 73 76 101 137 138 140 142 142 141 139 139 138 136 132 126 123 121 121 123 125 125 123 122 106 94 76 76 74 65 59 54 50 50 48 45 43 38 36 34 30 28 26 24 22 21 19 17 14 13 12 12 12 12 12 12 13 14 14 14 14 14 14 14 16 18 20 20 21 23 24 25 28 30 31 34 35 37 39 41 44 45 45 48 49 50 52 53 53 58 62 63 66 69 70 70 72 76 80 87 93 101 104 106 112 115 118 121 122 121 118 117 
38 38 38 38 38 38 36 34 34 34 34 36 38 40 38 36 36 35 34 34 36 37 38 42 46 55 60 64 71 82 78 90 118 114 90 86 83 72 68 69 78 111 140 142 141 142 142 141 139 139 137 133 131 127 121 118 118 123 128 129 123 121 105 92 75 75 72 64 59 54 50 48 45 41 39 35 32 30 27 26 25 22 20 19 18 17 16 14 14 14 14 14 12 12 14 14 14 14 13 13 14 17 18 20 22 23 24 25 26 27 31 33 33 37 37 39 41 43 46 47 47 49 50 52 55 57 57 61 68 72 75 78 80 80 81 85 90 97 103 110 113 117 122 125 127 128 130 129 126 126 
40 39 40 41 41 39 37 36 36 36 36 37 39 41 39 37 36 37 37 37 38 39 38 41 45 51 55 60 67 75 73 81 115 94 78 81 78 70 69 72 88 116 139 141 143 142 142 141 139 138 135 132 129 124 119 116 116 119 124 124 120 118 102 89 75 73 70 62 58 53 46 44 42 39 38 32 29 29 24 24 23 20 19 19 18 17 16 14 13 14 14 13 12 12 12 13 13 13 14 15 16 19 19 22 22 26 27 28 29 30 33 35 36 38 38 40 43 44 47 48 50 52 53 55 59 62 61 63 74 82 87 89 92 92 93 95 100 107 112 118 121 125 129 131 132 134 135 134 132 130 
46 44 42 42 44 43 40 40 40 38 38 39 41 41 40 39 37 38 39 38 38 38 39 40 43 46 50 56 63 66 69 80 96 78 75 78 71 67 65 71 96 125 141 142 144 142 143 140 138 137 134 131 127 123 117 114 113 116 118 117 115 109 94 82 72 68 65 58 54 48 42 42 39 35 33 31 29 27 24 22 22 20 20 19 18 17 16 14 13 13 13 13 13 12 11 13 13 13 15 17 17 20 22 24 27 24 27 29 30 32 34 35 37 39 39 42 46 46 48 50 52 54 55 58 65 67 63 68 80 89 95 99 102 103 102 104 109 116 121 126 130 132 135 136 137 138 138 137 136 134 
51 49 47 46 48 47 45 45 44 41 40 40 42 43 43 42 42 42 40 40 39 38 40 40 42 45 48 52 57 58 59 66 74 69 76 74 68 64 63 86 105 128 138 141 142 140 140 138 134 134 133 127 123 119 113 109 107 109 112 109 106 101 86 76 67 64 61 55 52 47 41 39 35 32 33 32 27 28 29 24 22 20 20 19 18 17 16 15 15 15 15 14 14 13 12 14 15 16 17 18 19 17 11 17 23 27 28 31 33 35 35 37 39 41 42 45 48 49 51 53 55 57 57 63 74 72 71 78 91 100 107 110 113 112 110 113 119 125 128 133 136 138 140 140 140 140 140 138 136 135 
51 51 51 53 53 52 49 48 47 43 42 42 43 44 45 45 44 43 42 41 39 38 39 39 41 43 46 50 53 53 52 60 72 68 67 65 63 61 76 92 105 133 137 140 140 139 138 136 132 131 131 125 119 113 106 102 99 99 101 99 95 88 73 65 57 56 54 49 46 43 38 34 32 31 20 6 7 5 8 17 21 21 19 20 19 17 16 16 15 15 15 16 15 13 14 15 17 16 19 20 14 81 146 42 24 29 27 30 33 35 37 39 42 43 45 48 50 52 56 59 61 63 62 71 82 79 79 89 102 113 121 122 123 123 121 121 126 131 133 137 139 141 141 140 140 139 138 136 133 131 
58 57 60 61 61 60 58 57 54 49 49 47 46 45 48 50 47 47 47 44 41 39 39 39 40 42 44 44 47 48 49 55 59 55 56 56 58 66 76 86 115 130 129 136 138 138 137 135 133 130 128 123 115 106 99 93 86 85 85 82 77 73 63 55 50 51 47 45 41 39 36 31 34 23 77 134 155 142 109 50 16 20 20 20 16 21 18 20 18 16 16 18 16 13 15 16 15 20 20 24 8 90 161 109 28 27 30 30 33 36 38 41 43 47 47 51 52 56 61 64 68 72 72 78 87 86 87 98 111 127 133 135 135 135 134 132 132 134 138 140 141 141 141 139 138 138 136 134 130 125 
68 69 76 79 76 73 69 62 57 54 52 49 47 47 48 50 51 50 49 46 42 40 40 39 39 41 42 42 44 44 45 46 46 47 49 56 58 66 76 97 116 119 123 127 130 131 132 131 128 125 122 117 109 102 93 85 77 75 74 70 64 61 54 50 44 46 43 41 37 34 33 29 28 34 86 107 143 175 215 237 90 12 15 15 23 25 20 24 19 17 17 19 18 12 13 16 17 19 20 21 16 66 64 16 28 31 30 33 36 37 41 44 46 49 51 56 58 62 66 71 74 79 89 97 104 98 96 111 127 143 147 148 148 146 142 139 138 139 141 141 142 142 141 138 136 136 133 128 124 118 
80 84 95 103 104 100 89 73 63 61 58 53 49 48 47 47 49 47 43 41 39 38 38 37 36 37 38 38 39 39 40 41 44 49 49 53 56 67 82 98 104 105 114 117 118 120 121 121 120 117 114 108 101 94 87 79 71 68 69 67 63 59 52 47 40 41 40 38 34 32 30 28 25 31 44 37 46 44 73 121 88 77 83 42 18 10 9 1 11 21 19 19 17 12 12 17 17 20 20 22 16 98 38 23 28 29 31 39 39 41 46 49 51 55 58 63 66 70 77 83 83 87 101 108 117 108 107 127 142 156 157 159 161 157 151 147 145 144 145 145 141 139 138 134 132 131 127 121 116 110 
92 101 109 118 126 123 111 94 79 73 67 62 55 51 47 46 45 43 41 38 37 37 37 36 35 35 34 34 35 37 39 40 40 44 48 50 57 68 79 84 89 95 100 106 105 107 109 109 109 107 105 99 91 85 79 73 65 63 63 61 58 56 51 42 39 39 38 36 33 32 29 30 26 25 60 77 68 67 48 35 24 22 37 66 32 64 97 157 96 3 20 19 17 13 13 16 22 21 19 23 61 160 170 44 30 31 31 35 37 43 47 50 54 59 63 68 72 78 84 91 94 101 110 115 127 118 115 134 152 166 168 170 169 164 157 153 151 148 148 146 144 140 136 130 126 123 118 114 106 101 
103 113 123 129 136 137 133 116 99 87 77 67 60 57 52 49 46 43 41 39 37 36 35 35 35 34 35 34 34 36 38 40 39 44 51 54 57 62 67 72 77 81 85 90 91 93 94 94 95 93 92 87 80 75 71 66 60 59 59 58 56 55 49 41 38 37 36 34 31 28 28 27 28 28 25 24 19 19 19 18 18 39 80 81 109 186 158 171 151 41 31 24 21 17 16 17 16 23 16 18 88 49 77 54 68 45 59 60 71 55 47 57 60 65 71 75 79 85 93 102 105 110 120 129 139 124 122 138 158 174 179 178 174 170 163 158 155 151 150 146 143 138 133 127 120 115 110 105 96 91 
111 124 134 139 143 144 142 130 114 97 94 86 76 67 58 53 48 43 43 42 40 36 35 35 33 32 34 34 33 34 35 37 43 48 49 50 52 54 58 61 65 68 70 74 77 79 81 81 81 79 79 74 71 69 66 63 57 54 55 55 53 52 47 39 36 36 34 32 29 26 30 25 28 32 20 21 30 32 41 51 96 116 136 125 121 116 72 62 45 69 102 105 59 40 38 35 23 27 30 0 78 157 29 34 85 49 28 51 79 59 53 65 70 73 79 83 88 95 100 107 110 115 125 135 146 130 131 144 163 178 183 183 180 171 161 154 148 147 148 145 141 135 130 123 114 107 102 96 87 80 
115 129 139 144 149 148 147 143 122 103 102 103 95 85 76 67 60 53 48 45 43 39 37 36 34 34 36 36 35 34 34 36 42 45 46 45 47 50 52 53 55 57 60 63 66 67 69 70 70 69 69 66 64 63 61 58 55 55 53 54 52 49 45 35 32 35 33 31 29 28 27 27 31 22 65 100 71 94 99 109 104 82 81 81 66 35 35 37 20 36 83 97 55 55 42 45 64 130 109 59 138 232 124 17 86 120 71 50 34 56 60 67 75 78 85 88 91 94 93 101 112 120 125 135 148 134 133 147 166 178 184 186 183 170 148 133 130 139 134 141 141 133 126 117 108 101 94 88 80 73 
117 128 140 148 149 149 148 143 125 108 105 107 99 91 82 74 67 59 53 49 47 42 40 39 37 36 36 35 34 34 34 35 40 43 43 43 44 47 49 48 49 51 53 55 57 58 59 60 61 61 60 59 57 56 57 56 55 53 52 52 50 46 41 33 31 34 32 30 29 29 26 30 28 23 58 78 23 75 52 34 18 19 38 29 25 23 19 44 103 121 126 81 42 43 59 77 99 125 113 93 160 236 213 184 206 217 228 203 100 49 68 71 79 87 91 89 94 89 67 71 85 105 124 136 151 137 134 146 163 177 182 181 175 167 149 126 123 129 123 131 134 128 122 113 103 95 87 80 72 65 
121 127 143 153 153 156 150 139 123 105 103 105 97 88 79 71 63 57 52 47 44 39 39 39 37 36 35 34 34 33 32 35 39 40 40 41 41 43 44 46 47 48 49 50 51 52 53 54 54 55 56 55 54 56 57 56 53 52 50 51 49 42 38 30 29 33 32 31 30 31 29 27 28 32 25 23 30 24 24 27 28 31 26 16 20 24 23 68 95 95 99 95 61 39 83 98 205 193 129 65 80 121 155 220 203 207 197 223 227 94 60 81 83 90 95 98 94 89 64 62 68 98 128 135 152 139 134 143 158 173 177 175 166 164 153 123 123 124 115 125 127 121 115 105 96 89 81 72 63 58 
122 130 144 152 152 152 148 137 121 105 104 103 95 86 77 70 63 56 52 49 44 41 39 38 36 35 36 35 32 32 31 34 39 40 41 40 40 41 43 45 43 45 47 47 48 50 49 52 53 54 55 55 56 57 54 51 51 49 47 47 44 41 35 28 27 30 28 27 27 29 28 27 30 32 33 31 34 27 38 25 26 18 20 57 83 114 153 163 158 150 145 130 72 51 66 74 74 227 102 29 44 18 41 56 189 232 224 212 236 152 60 82 87 92 95 98 93 65 70 65 60 78 110 134 143 132 128 136 146 163 166 166 161 156 142 111 115 129 138 148 153 128 110 101 91 82 73 65 59 55 
127 138 150 155 155 153 148 133 118 108 105 101 91 83 74 67 60 55 53 49 45 42 39 38 36 35 35 34 31 31 30 33 39 39 41 39 38 40 42 43 44 42 45 48 50 52 50 53 54 53 51 51 48 52 56 55 51 49 47 47 43 39 33 25 26 29 28 28 29 30 29 29 30 32 33 34 34 31 21 32 52 78 124 134 166 208 185 192 182 124 118 134 133 82 18 24 13 91 245 93 27 63 42 54 151 246 239 235 250 137 65 84 77 85 88 92 93 69 84 64 53 62 74 112 142 123 122 136 137 155 158 155 155 144 117 97 99 119 141 154 165 141 108 95 88 75 66 60 54 49 
133 145 157 159 159 157 150 135 119 107 103 100 90 82 74 67 59 55 53 49 44 41 39 38 36 35 35 33 30 30 30 32 38 38 41 39 38 43 37 65 95 93 96 95 95 97 94 95 95 93 87 87 73 61 52 54 53 49 47 46 41 36 31 24 25 29 31 34 35 34 30 29 30 33 36 33 26 32 84 127 131 136 121 101 91 95 143 74 49 41 15 29 36 40 14 0 40 4 117 245 62 21 34 65 70 193 243 241 219 106 64 76 126 138 92 89 91 64 52 51 51 51 57 68 109 118 107 121 132 146 147 143 131 119 92 87 94 103 121 152 161 127 103 91 79 68 60 54 49 46 
131 141 152 154 157 154 147 133 117 105 104 101 92 84 77 68 62 56 53 49 44 41 39 38 36 34 34 33 31 29 29 31 38 37 40 37 37 40 39 51 75 64 51 42 40 38 40 44 52 65 76 82 70 62 45 33 51 48 45 42 37 32 25 22 26 29 29 33 35 35 31 30 34 35 29 37 80 118 106 72 38 24 12 0 0 0 15 2 3 2 8 13 22 14 23 90 97 28 10 152 178 10 26 34 36 51 97 112 80 127 91 89 143 162 138 102 72 52 45 47 47 48 49 49 68 77 78 104 128 129 132 127 109 92 78 83 91 101 121 147 153 118 95 84 69 61 55 49 45 41 
131 140 149 154 154 150 148 137 123 109 105 103 96 86 78 70 63 57 53 49 44 40 38 37 35 33 33 33 31 29 28 30 37 35 38 38 39 37 34 24 19 36 49 66 73 77 70 53 35 18 11 24 27 37 62 31 27 44 49 40 36 28 22 20 26 29 31 36 38 35 33 38 37 38 54 74 58 28 9 1 5 11 10 18 19 25 18 13 12 12 9 10 17 4 101 187 123 91 84 53 102 145 65 63 64 51 111 200 195 201 176 75 62 140 132 84 65 45 45 43 39 41 44 45 52 65 80 98 114 116 109 96 90 94 75 74 83 96 114 133 142 110 87 76 60 55 50 45 42 38 
134 142 151 154 154 153 153 140 123 109 107 105 95 86 79 70 64 57 53 49 44 41 37 36 34 32 33 32 30 28 26 30 34 36 39 30 31 47 68 98 113 129 133 136 134 136 140 147 145 122 86 35 7 43 66 45 24 20 34 42 36 32 23 18 26 29 29 31 26 26 29 39 24 27 30 11 4 11 22 16 11 0 14 34 43 42 41 12 9 7 25 17 13 26 50 135 122 81 75 13 90 202 195 86 84 70 80 70 65 26 126 178 44 66 73 74 68 42 41 39 38 37 37 42 52 70 74 80 89 90 72 69 84 88 89 71 71 87 106 117 125 100 77 63 53 51 46 41 38 35 
133 139 146 150 152 153 153 144 124 104 108 106 93 86 79 71 64 58 53 49 44 39 37 35 33 34 33 32 29 29 25 33 35 31 32 62 97 119 138 147 159 171 187 192 188 176 159 136 124 134 154 152 99 22 40 89 110 83 42 27 28 22 19 18 26 30 35 44 48 63 56 24 18 35 19 19 20 28 24 9 57 85 94 56 5 10 17 16 20 29 22 36 40 35 35 69 88 95 111 60 53 95 227 100 27 42 53 64 52 66 79 189 138 51 50 43 28 28 33 33 37 35 37 36 46 60 62 65 71 67 52 59 71 82 76 66 72 79 97 103 106 87 65 56 50 46 43 38 35 33 
133 137 145 152 153 152 148 140 121 103 105 104 91 82 75 68 63 56 51 47 44 39 35 37 32 36 30 29 29 25 23 24 38 67 118 133 144 155 160 159 158 148 135 140 147 165 198 201 196 161 127 131 156 104 39 111 115 106 106 92 81 84 93 103 109 114 123 120 119 90 38 22 41 44 20 44 59 37 63 168 160 144 151 193 203 76 34 37 25 25 72 53 11 22 81 79 75 76 66 70 62 34 133 228 80 49 60 71 66 56 56 58 193 143 102 80 86 72 41 30 27 28 32 34 39 41 52 52 55 55 47 52 62 68 64 57 63 68 87 93 94 75 54 50 45 43 39 36 35 31 
130 135 142 148 151 151 146 136 117 98 98 94 84 76 69 63 58 53 48 45 42 38 33 34 33 29 38 41 28 20 31 72 115 128 105 120 131 101 84 81 73 61 55 55 58 70 85 110 138 143 121 118 127 146 67 37 50 46 35 44 66 73 81 87 82 74 59 56 51 36 49 49 18 47 129 190 114 92 188 96 116 164 172 86 154 220 62 26 30 106 139 159 126 54 28 81 97 58 25 83 56 13 25 135 234 189 69 70 73 56 50 47 60 96 96 94 84 41 25 40 46 31 19 24 32 33 36 41 45 46 43 47 55 60 58 49 55 59 72 81 80 60 46 46 39 37 33 30 28 26 
127 130 135 138 139 141 139 129 110 91 89 87 76 70 64 58 54 49 46 43 41 37 33 29 33 25 71 106 113 112 115 124 114 101 99 94 67 52 37 19 12 11 10 10 11 15 25 48 81 99 111 116 116 126 121 24 8 9 8 15 18 33 38 38 37 37 43 45 43 55 32 13 70 105 107 173 111 192 74 135 255 244 242 236 130 225 145 18 92 123 115 142 117 136 78 17 53 46 47 62 52 11 14 39 146 205 164 61 51 54 56 25 18 18 14 23 34 62 94 125 122 105 74 39 23 28 27 34 39 38 35 43 49 51 47 39 48 50 59 66 65 49 39 39 34 34 28 23 21 20 
124 131 137 137 135 135 126 116 101 84 81 73 62 60 54 52 51 47 45 42 39 38 32 31 26 43 162 116 91 108 110 98 102 97 74 43 21 11 10 25 36 45 50 49 49 43 32 17 14 59 93 89 99 97 101 85 27 23 28 32 45 53 43 44 75 112 114 122 38 23 12 37 118 106 70 95 82 155 207 235 232 108 177 247 221 24 60 62 100 129 151 152 124 94 76 67 27 28 59 32 59 10 26 44 69 184 227 94 32 53 26 20 28 17 18 22 29 32 42 71 112 120 118 103 66 26 22 26 32 32 30 37 40 41 38 31 38 43 52 56 51 41 35 32 29 27 22 22 23 18 
95 99 100 96 93 88 78 78 71 65 65 53 52 53 48 48 48 45 43 40 37 36 31 35 23 49 122 127 47 72 79 84 60 34 12 11 25 40 52 55 48 38 34 36 40 43 50 62 54 21 30 72 49 56 96 100 61 45 70 103 133 128 137 183 221 235 239 137 58 7 17 40 104 112 106 101 109 47 178 248 207 205 207 201 82 25 62 36 98 169 137 119 117 113 103 34 13 77 54 22 60 31 33 54 47 122 240 191 57 66 4 24 15 57 73 54 62 51 58 31 24 66 104 105 106 68 28 21 25 27 26 30 35 34 32 28 31 34 40 38 38 32 27 26 26 24 21 18 17 16 
71 69 67 66 65 65 64 65 60 58 56 57 62 60 52 49 46 41 40 39 36 35 31 28 28 33 67 42 42 88 38 28 10 14 21 42 60 48 29 19 24 27 35 45 42 30 25 24 39 63 46 69 18 19 47 19 38 110 221 226 239 255 255 255 247 241 255 101 49 11 0 25 52 114 109 94 106 110 38 116 155 144 125 58 48 66 33 55 121 120 163 177 111 92 55 10 41 80 16 38 19 43 52 49 44 39 119 243 119 84 35 11 34 70 54 37 118 120 58 88 83 25 41 80 90 97 64 23 22 24 21 24 31 29 27 26 26 33 38 36 32 25 24 25 22 20 19 16 13 11 
67 64 65 66 68 66 65 67 67 62 56 67 69 65 57 52 50 41 38 37 37 33 32 31 26 35 65 39 44 44 18 18 19 37 56 58 31 19 33 54 68 77 77 67 61 65 68 55 30 25 57 62 70 36 47 82 46 142 251 216 202 162 115 167 227 240 237 155 165 148 66 51 35 63 145 88 106 127 116 68 72 94 54 58 54 19 27 84 109 108 110 145 127 63 41 20 94 39 32 33 20 41 47 45 35 25 27 154 228 84 106 51 37 36 35 17 99 156 98 17 63 82 30 25 58 76 80 50 23 18 20 23 23 23 22 20 21 31 38 34 26 18 20 21 16 15 14 12 11 10 
70 65 68 74 77 80 84 79 73 71 59 64 70 68 76 67 59 49 41 38 36 32 30 28 18 54 81 28 28 15 11 11 27 35 42 18 15 53 72 77 87 94 91 76 58 50 61 58 78 56 35 45 93 12 31 83 53 34 54 103 95 104 77 13 114 236 205 173 111 121 108 42 61 29 46 93 93 106 136 119 76 27 11 15 4 22 101 98 78 109 155 189 124 50 45 61 64 17 35 66 81 41 48 48 37 46 24 33 193 206 62 48 33 61 67 58 71 33 96 64 45 50 70 26 21 44 59 61 27 14 16 17 21 20 19 17 17 27 33 26 20 17 17 17 14 13 13 12 12 12 
74 72 75 79 76 81 92 85 74 82 68 72 84 84 87 77 67 54 44 38 35 33 25 30 68 101 114 130 159 179 172 172 177 178 177 181 183 189 187 195 198 203 195 197 195 189 198 190 196 195 174 152 112 114 117 140 127 126 151 162 184 185 184 184 178 122 77 58 58 69 55 29 42 160 197 211 208 171 123 172 201 183 146 156 157 100 71 54 135 164 94 34 7 10 17 64 20 36 36 100 67 39 41 41 28 49 55 12 62 223 168 24 57 88 59 59 78 65 37 58 36 30 41 32 16 19 34 42 30 16 15 15 17 17 15 15 15 17 19 15 14 17 15 12 11 10 10 11 11 10 
85 80 79 89 83 81 85 85 91 98 83 75 88 88 89 88 77 59 46 38 34 30 28 36 112 112 114 119 106 96 89 90 91 88 81 82 78 78 74 70 72 71 67 69 68 60 65 66 64 81 85 84 88 121 117 103 112 115 116 93 103 87 96 79 68 71 73 38 69 84 47 117 218 254 252 253 255 255 223 200 227 251 225 215 196 170 129 92 109 15 6 12 19 31 40 26 35 41 53 96 37 42 37 41 27 7 49 37 25 78 243 133 29 104 112 89 68 55 83 73 90 60 56 53 18 14 20 22 22 16 11 11 14 13 13 13 12 13 14 14 13 14 14 11 9 10 10 10 10 8 
100 87 83 96 94 94 91 93 101 104 88 76 89 87 94 88 72 63 49 36 35 29 28 29 36 32 35 34 46 60 59 61 59 67 77 72 76 81 78 77 81 75 71 73 76 78 51 67 60 47 65 46 21 32 31 22 11 22 23 47 65 68 67 93 127 87 106 20 0 42 54 205 255 245 231 218 184 169 162 137 153 147 120 162 94 119 167 45 33 30 12 15 16 26 35 24 42 32 28 36 38 43 33 32 23 9 15 29 50 18 105 248 125 59 146 139 106 87 44 103 99 99 75 49 34 7 16 15 11 11 11 11 12 12 12 12 12 15 16 15 12 11 9 8 8 9 8 8 7 6 
106 102 84 90 98 108 107 105 97 96 86 75 84 89 91 74 65 72 54 36 37 33 31 27 26 27 24 26 23 25 39 28 13 24 43 48 45 57 68 48 38 30 28 24 47 49 35 45 41 31 46 41 47 58 43 52 57 40 43 36 61 74 80 87 88 84 91 96 43 47 123 235 168 84 38 11 3 12 7 25 89 72 24 37 93 205 86 2 60 141 70 17 22 26 25 22 30 26 11 22 36 35 29 28 29 19 5 57 130 75 42 135 246 100 45 174 138 116 79 58 154 95 101 48 37 15 10 10 8 9 10 10 10 10 10 10 12 18 20 17 14 12 9 10 9 8 7 5 4 4 
98 98 84 94 99 106 108 107 105 98 81 72 86 94 88 77 70 69 48 32 33 29 30 30 30 29 25 27 24 30 25 47 126 139 162 178 189 187 190 188 187 188 186 186 182 184 186 181 186 179 183 183 186 181 189 187 192 181 183 193 174 190 179 170 156 154 159 187 180 173 186 181 133 146 158 160 153 139 150 180 181 109 40 31 92 57 40 62 116 60 90 23 37 35 7 22 30 12 13 28 29 27 23 23 27 21 17 82 100 40 31 27 170 231 55 84 182 126 111 50 90 86 105 89 55 21 6 3 4 5 8 9 10 9 9 8 11 18 14 7 8 8 6 6 6 5 4 4 4 5 
85 78 70 82 85 86 90 88 82 75 68 66 74 77 72 66 62 55 46 42 37 37 37 34 35 33 30 29 25 26 19 47 93 92 73 66 59 57 56 52 51 52 50 52 57 62 55 57 54 52 49 49 50 54 44 37 35 44 49 44 59 64 54 59 54 53 48 44 49 53 42 35 39 63 62 67 71 60 61 77 86 92 40 4 19 46 44 77 69 32 27 9 26 14 9 17 21 5 14 21 20 20 17 16 18 15 7 14 83 21 27 26 65 198 149 16 64 89 80 69 33 53 66 54 90 37 2 6 5 6 9 9 7 7 6 5 8 14 10 5 7 6 6 6 5 4 4 4 4 5 
63 61 60 58 58 59 60 59 57 55 56 58 51 50 51 49 45 42 43 44 42 41 38 36 36 32 32 30 30 27 28 31 33 47 65 45 44 39 41 41 38 38 34 35 42 50 45 49 49 44 44 45 48 42 29 39 42 39 37 27 40 17 17 38 25 14 34 49 40 36 28 44 37 28 23 17 17 17 25 40 37 46 38 10 15 23 2 26 35 12 12 13 21 11 30 54 28 4 9 10 11 11 10 9 9 10 7 11 28 18 24 26 51 49 40 37 26 57 83 74 53 41 59 37 38 36 5 5 4 4 6 7 6 6 5 4 5 6 3 5 7 6 5 5 4 4 4 4 4 5 
53 51 51 50 48 50 51 50 50 49 45 45 45 45 43 40 40 38 35 35 35 35 33 29 27 24 25 25 27 20 34 34 36 45 144 96 34 18 25 27 12 15 8 3 5 1 4 12 23 11 8 10 4 2 1 2 2 7 21 22 17 23 24 22 22 21 25 17 16 9 47 77 66 57 47 29 3 11 19 33 33 42 31 21 6 3 6 9 9 17 11 15 13 16 19 22 7 7 8 6 6 8 7 7 5 7 4 9 6 51 44 29 71 56 54 55 56 47 87 64 44 55 70 82 34 29 4 5 1 1 4 6 5 4 4 3 3 4 3 2 4 5 4 4 4 3 3 3 4 4 
43 42 41 41 41 38 40 43 37 38 40 38 36 35 34 33 32 31 30 28 26 25 26 23 22 22 20 19 22 15 32 38 39 41 76 150 69 36 30 10 13 10 16 17 18 15 17 30 10 9 12 9 3 6 3 5 4 7 8 9 5 8 9 9 8 7 8 7 13 19 15 14 10 4 10 15 11 19 10 0 3 0 1 3 3 5 2 5 6 5 3 5 6 7 5 2 8 10 9 7 7 9 8 8 7 10 7 8 3 40 92 27 41 69 54 54 47 67 81 53 39 25 36 89 68 20 2 6 3 2 7 9 8 7 7 7 5 5 5 3 3 3 3 3 2 2 2 2 2 3 
42 41 39 37 38 35 36 37 31 33 33 32 30 30 30 29 29 29 28 28 26 26 27 25 24 25 26 21 23 22 16 40 39 39 33 75 128 94 52 11 21 35 18 33 40 23 21 14 4 1 3 4 3 2 4 2 2 8 5 1 0 2 6 6 4 7 5 2 3 1 2 1 3 4 2 5 11 16 18 19 18 21 17 14 16 12 11 5 5 5 2 3 4 2 2 4 7 9 11 11 11 12 12 11 10 10 10 4 5 15 75 102 37 24 52 53 55 51 44 44 56 58 9 26 54 12 7 3 2 3 8 11 9 8 8 9 9 7 7 7 6 6 6 6 5 4 4 4 4 4 
39 37 35 32 30 34 34 29 33 33 30 28 28 28 28 30 29 29 31 32 32 35 32 29 31 31 32 30 31 32 20 13 47 41 37 28 41 74 87 69 82 74 56 45 38 14 8 2 5 4 3 2 3 2 1 1 5 4 4 4 3 3 4 2 2 4 4 2 2 4 1 1 0 0 4 4 4 2 4 6 6 4 5 10 17 13 10 7 6 3 0 1 3 3 2 3 6 8 9 11 13 14 14 13 13 13 14 7 5 9 43 105 131 57 27 24 15 29 39 12 30 85 58 27 24 8 12 3 0 2 5 5 3 3 3 3 4 1 1 3 2 1 1 1 2 3 3 2 2 2 
43 43 47 46 45 49 52 47 53 54 49 47 48 51 49 49 47 52 52 48 47 46 51 51 48 44 41 44 46 44 41 16 11 46 49 40 41 29 32 45 53 51 50 34 17 13 16 16 9 4 1 2 4 6 5 8 9 8 6 5 8 8 5 3 3 3 3 7 6 9 12 13 15 13 10 12 10 5 4 2 2 2 2 2 4 4 4 5 3 2 2 2 6 14 16 15 16 16 16 16 17 18 18 18 16 16 17 22 11 7 26 48 98 128 48 31 18 33 53 26 17 60 71 40 5 7 5 4 4 17 22 19 18 18 18 17 20 21 20 19 20 18 15 14 14 14 14 13 12 11 
56 58 65 67 61 60 66 60 61 63 57 55 58 57 55 54 43 44 45 48 49 42 42 45 40 36 37 38 38 34 31 34 15 6 27 39 50 46 45 36 32 26 26 26 29 26 14 7 0 4 2 2 2 13 35 45 34 39 46 48 47 41 34 28 25 25 28 34 35 37 43 36 36 39 33 28 25 25 31 36 39 38 35 15 2 15 35 37 36 40 42 41 42 42 37 37 38 36 34 31 30 34 34 34 32 33 28 28 23 7 8 30 49 64 61 68 30 46 49 49 33 45 26 3 4 3 3 5 14 36 35 30 30 30 30 27 24 25 24 21 22 21 20 21 24 26 27 27 27 25 
59 59 56 56 54 52 57 57 54 54 55 55 55 54 51 49 49 50 52 50 48 50 51 49 52 50 48 42 38 39 39 34 38 26 5 8 16 26 33 31 34 33 27 21 13 6 3 3 2 4 0 4 19 31 32 35 35 38 38 37 32 33 34 34 32 33 38 37 39 44 42 41 36 36 39 39 38 36 39 41 44 44 43 36 16 6 24 40 43 43 43 40 40 39 35 35 35 37 37 31 27 29 27 27 26 30 30 26 27 25 10 4 21 45 47 61 37 28 28 24 23 6 3 5 6 4 0 5 18 8 5 6 3 5 5 7 14 19 22 27 29 31 31 29 27 27 27 25 21 19 
86 86 86 88 88 83 84 85 82 79 75 71 70 68 69 65 65 60 52 46 43 40 40 36 33 34 36 26 23 26 23 20 19 17 6 1 0 0 0 0 0 0 0 0 0 2 4 4 4 3 6 11 17 18 16 20 16 15 20 21 18 20 21 20 19 18 18 14 14 13 10 10 9 8 6 8 9 9 7 8 8 8 6 10 11 7 4 7 19 17 12 11 12 11 13 17 18 19 20 23 29 30 31 33 36 36 37 40 42 39 43 29 5 5 20 26 26 18 13 10 4 3 4 4 2 4 17 41 45 50 60 63 53 46 48 44 47 48 42 37 32 36 35 26 22 24 26 28 30 31 
54 54 52 53 61 63 60 59 62 60 62 62 62 58 56 59 63 69 64 57 61 66 73 75 79 82 85 82 80 82 83 82 78 73 75 75 70 73 78 75 71 75 80 75 75 79 83 85 83 90 86 82 81 77 76 81 75 73 80 80 86 91 87 80 75 69 62 63 55 49 44 42 37 33 31 29 24 20 19 22 20 20 20 18 19 20 20 20 28 29 25 32 34 31 31 33 33 35 35 33 34 34 35 36 35 30 30 34 30 27 29 26 16 4 1 2 3 5 3 4 4 4 7 5 17 41 54 51 48 50 54 51 54 60 62 56 53 54 45 46 51 50 49 49 49 49 50 53 57 58 
81 75 74 53 43 59 71 87 86 91 97 97 90 83 83 86 79 82 82 79 77 73 75 70 67 65 63 63 61 62 62 59 55 50 49 48 47 56 59 53 55 53 46 50 53 52 51 49 50 46 47 50 51 50 48 58 58 58 60 67 72 67 67 71 72 74 73 71 74 78 80 80 78 74 75 74 72 72 73 76 80 79 77 77 74 75 76 69 73 73 70 71 63 59 56 57 55 52 49 55 65 62 57 53 54 52 48 47 44 38 35 31 28 33 30 24 21 12 4 0 0 0 0 3 18 21 24 31 27 26 20 7 17 20 27 43 48 51 46 48 52 49 47 45 45 46 46 49 50 46 
46 47 56 35 16 25 32 39 42 43 41 41 36 32 33 33 36 40 38 32 31 23 22 44 64 59 55 62 66 72 72 71 72 67 73 79 85 83 80 80 82 86 86 95 93 101 101 93 96 103 105 101 109 103 106 111 106 109 110 115 111 97 100 107 100 103 103 91 90 92 83 86 89 89 86 84 85 86 86 84 76 69 66 70 73 67 67 64 68 69 57 57 57 51 56 54 51 54 51 56 58 54 48 56 58 57 57 51 54 58 57 56 54 58 58 57 61 56 46 41 48 56 55 47 56 54 55 64 70 74 72 69 73 69 71 65 64 58 52 54 52 49 50 44 47 51 46 49 52 47 
71 72 79 79 90 90 92 96 102 101 93 94 96 93 96 95 93 96 101 102 104 97 96 102 102 96 98 100 103 94 92 82 88 89 86 85 90 86 78 77 78 79 79 86 83 81 86 93 91 97 99 96 107 101 102 103 97 98 97 107 115 108 105 111 109 104 108 105 97 99 94 98 98 98 93 94 98 102 103 98 87 64 52 49 52 38 47 61 62 62 66 63 64 62 60 68 70 70 68 78 83 81 85 84 86 89 82 85 85 80 88 87 78 83 81 75 77 81 84 70 67 74 73 71 75 71 65 65 65 62 58 53 43 46 47 44 39 33 28 28 26 26 28 28 27 26 26 31 26 20 
83 79 81 87 84 88 97 96 95 100 100 99 92 93 95 90 82 84 89 86 92 92 85 80 87 82 73 82 83 87 84 83 84 79 85 84 80 75 71 69 71 74 67 69 71 79 79 73 85 89 91 88 96 89 82 85 84 85 84 92 95 93 96 91 84 96 99 90 101 93 89 90 81 83 69 65 66 67 67 69 73 75 75 70 77 65 61 68 81 77 79 74 76 83 71 69 75 75 64 67 68 58 62 66 65 58 52 53 49 48 54 54 54 48 45 48 48 48 46 41 33 38 43 40 45 47 48 49 47 42 40 32 37 34 39 41 41 45 50 45 48 52 51 60 52 45 49 55 46 42 
59 62 63 64 55 57 63 59 59 65 65 72 68 61 60 62 67 65 63 65 60 51 53 49 48 45 57 53 50 51 53 51 59 55 53 56 53 62 68 67 70 70 69 74 70 72 72 68 75 67 62 65 62 59 53 63 63 58 63 55 50 42 46 43 27 27 23 22 27 21 16 19 16 11 11 17 17 14 14 19 21 26 46 55 69 75 72 68 70 66 78 76 68 63 65 62 64 62 50 52 52 52 46 55 54 49 49 48 49 54 51 50 56 52 53 53 55 47 52 55 52 54 60 56 55 53 48 53 54 49 58 47 48 42 38 45 44 40 47 45 43 41 36 34 35 31 27 30 30 24 
40 34 35 38 42 42 40 46 52 45 38 43 35 25 18 8 5 4 5 7 5 2 7 9 16 27 40 57 50 28 29 31 41 45 46 44 38 38 43 41 36 27 25 33 31 24 22 22 23 22 19 19 21 16 24 22 20 31 32 28 33 38 34 36 46 47 45 41 43 47 52 56 55 58 66 66 63 64 61 65 59 56 57 59 52 54 60 51 52 52 54 53 53 55 48 48 48 51 53 53 55 54 49 50 49 48 49 52 55 57 53 49 52 52 48 49 50 41 42 38 40 44 41 35 30 28 19 18 18 13 17 16 12 8 7 6 3 2 5 3 2 2 1 0 0 0 0 0 0 0 
36 37 41 38 34 31 25 27 30 29 28 25 20 14 10 6 4 5 5 6 7 5 5 7 11 14 23 25 13 15 18 14 16 20 25 25 30 35 35 35 42 43 42 45 45 47 44 43 50 58 53 48 54 53 56 54 49 54 53 51 51 45 44 40 38 43 50 43 43 42 40 41 39 36 37 38 37 40 40 44 41 43 39 36 40 44 50 46 50 46 45 44 49 54 55 50 47 51 51 34 34 39 37 33 32 35 30 24 21 21 21 19 16 15 12 12 11 10 12 10 7 6 5 9 6 6 9 9 11 9 8 10 9 8 10 12 12 15 16 14 20 21 20 21 23 21 20 24 26 26 
15 17 15 15 19 19 22 27 24 27 30 21 20 24 33 30 22 21 30 35 30 28 26 26 22 10 19 27 37 44 44 43 40 46 50 46 44 48 51 49 40 34 31 38 34 32 41 39 38 36 36 37 37 39 43 40 29 36 32 29 28 34 34 35 42 43 41 35 36 47 42 48 49 45 46 47 41 39 43 42 46 48 39 33 33 36 40 42 41 31 32 33 33 39 35 31 34 35 33 37 36 32 32 33 32 27 27 33 35 27 28 32 32 31 36 34 34 39 41 38 34 32 30 32 31 29 30 34 35 26 27 32 30 27 28 29 26 28 26 23 25 22 21 18 16 13 13 16 15 17 
23 19 13 15 19 17 17 16 15 15 17 20 20 22 28 23 17 14 17 15 7 11 7 7 5 1 5 11 21 30 32 28 31 32 26 25 30 28 30 31 27 25 25 29 29 32 31 31 32 33 34 31 33 38 43 46 42 47 35 37 35 36 33 38 47 43 37 30 29 33 32 28 36 35 31 33 31 31 34 30 28 29 25 26 28 29 27 29 32 34 33 25 23 25 23 23 26 29 26 29 29 24 23 25 23 23 24 21 23 21 22 25 23 24 21 11 11 9 6 0 1 3 1 0 3 2 0 0 0 3 2 1 0 0 0 1 0 1 1 1 2 2 2 4 3 6 5 5 8 6 
23 21 16 4 0 0 0 0 1 3 3 6 3 2 1 1 5 6 1 3 6 2 2 3 3 0 2 2 5 10 14 11 9 12 11 11 21 19 16 17 22 23 27 30 28 29 28 22 23 27 20 20 29 25 21 24 22 21 16 20 17 17 21 16 13 14 14 18 17 13 15 10 12 14 15 15 16 20 18 17 17 22 21 19 19 23 29 33 36 41 42 34 30 32 36 31 31 37 39 32 39 36 28 31 38 38 37 35 36 30 35 38 31 30 33 29 21 22 17 12 11 14 16 18 16 16 17 24 19 19 20 19 20 20 19 19 21 20 21 22 27 25 19 25 19 26 22 16 27 29 
24 23 24 22 18 18 17 16 16 17 17 13 18 20 18 16 16 15 12 9 3 8 18 21 19 23 22 21 21 22 23 23 22 21 19 20 18 18 20 21 24 22 23 20 18 19 19 16 16 17 18 23 21 18 22 23 22 26 29 30 33 29 28 33 33 30 27 28 30 32 31 35 36 33 34 35 39 36 36 37 37 36 35 34 30 28 33 38 36 38 38 36 34 32 37 37 38 37 35 29 33 33 25 31 35 31 24 26 31 26 27 26 26 29 25 27 24 26 26 26 31 29 25 24 18 19 22 20 21 21 21 19 18 19 22 22 20 19 19 23 26 22 18 23 22 23 20 24 28 26 
17 14 11 13 13 10 9 9 7 7 8 3 6 6 7 4 3 5 5 8 6 16 25 20 24 31 28 27 27 29 31 31 31 30 30 27 24 28 32 35 34 34 33 29 32 35 34 35 34 38 34 34 32 28 32 30 32 35 33 29 30 28 30 35 36 32 30 32 34 35 32 36 39 37 39 37 43 38 36 39 39 37 40 43 43 43 43 44 41 42 41 39 43 40 40 38 37 33 30 32 29 28 26 22 23 20 20 24 22 18 19 18 21 19 18 24 26 22 18 22 25 22 19 23 22 25 26 22 26 27 25 26 27 26 29 27 25 28 24 22 19 16 14 16 13 13 9 10 12 10 
