P2
150 65
255
255 255 255 255 255 255 255 255 255 255 255 255 255 255 255 255 255 255 255 255 255 255 255 255 255 255 255 255 255 255 255 255 255 255 255 255 255 255 255 255 255 255 255 255 255 255 255 255 255 255 255 255 255 255 255 255 255 255 255 255 255 255 255 255 255 255 255 255 255 255 255 255 255 255 255 255 255 255 255 255 255 255 255 254 255 255 255 255 255 251 251 246 203 214 254 251 253 251 253 254 252 255 255 255 255 255 255 255 255 255 255 255 255 255 255 255 255 255 255 255 255 255 255 255 255 255 255 255 255 255 255 255 255 255 255 255 255 255 255 255 255 255 255 255 255 255 255 254 254 254 
255 255 255 255 255 255 255 255 255 255 255 255 255 255 255 255 255 255 255 255 255 255 255 255 255 255 255 255 255 255 255 255 255 255 255 255 255 255 255 255 255 255 255 255 255 255 255 255 255 255 255 255 255 255 255 255 255 255 255 255 255 255 255 255 255 255 255 255 255 255 255 255 255 255 255 255 255 255 255 255 255 255 255 254 255 255 255 255 255 253 235 231 207 203 251 248 250 255 253 251 253 252 254 255 255 255 255 255 255 255 255 255 255 255 255 255 255 255 255 255 255 255 255 255 255 255 255 255 255 255 255 255 255 255 255 255 255 255 255 255 255 255 255 255 255 255 255 254 254 254 
255 255 255 255 255 255 255 255 255 255 255 255 255 255 255 255 255 255 255 255 255 255 255 255 255 255 255 255 255 255 255 255 255 255 255 255 255 255 255 255 255 255 255 255 255 255 255 255 255 255 255 255 255 255 255 255 255 255 255 255 255 255 255 255 255 255 255 255 255 255 255 255 255 255 255 255 255 255 255 255 255 255 255 254 255 255 255 255 255 254 235 194 169 161 219 231 238 243 248 247 248 252 255 255 255 255 255 255 255 255 255 255 255 255 255 255 255 255 255 255 255 255 255 255 255 255 255 255 255 255 255 255 255 255 255 255 255 255 255 255 255 255 255 255 255 255 255 254 254 254 
255 255 255 255 255 255 255 255 255 255 255 255 255 255 255 255 255 255 255 255 255 255 255 255 255 255 255 255 255 255 255 255 255 255 255 255 255 255 255 255 255 255 255 255 255 255 255 255 255 255 255 255 255 255 255 255 255 255 255 255 255 255 255 255 255 255 255 255 255 255 255 255 255 255 255 255 255 255 255 255 255 255 255 254 255 255 255 255 255 254 236 149 172 231 246 232 233 210 234 253 250 250 254 255 255 255 255 255 255 255 255 255 255 255 255 255 255 255 255 255 255 255 255 255 255 255 255 255 255 255 255 255 255 255 255 255 255 255 255 255 255 255 255 255 255 255 255 254 254 254 
255 255 255 255 255 255 255 255 255 255 255 255 255 255 255 255 255 255 255 255 255 255 255 255 255 255 255 255 255 255 255 255 255 255 255 255 255 255 255 255 255 255 255 255 255 255 255 255 255 255 255 255 255 255 255 255 255 255 255 255 255 255 255 255 255 255 255 255 255 255 255 255 255 255 255 255 255 255 255 255 255 255 255 254 255 255 255 255 255 253 247 173 202 252 241 248 255 215 237 248 250 250 254 255 255 255 255 255 255 255 255 255 255 255 255 255 255 255 255 255 255 255 255 255 255 255 255 255 255 255 255 255 255 255 255 255 255 255 255 255 255 255 255 255 255 255 255 254 254 254 
255 255 255 255 255 255 255 255 255 255 255 255 255 255 255 255 255 255 255 255 255 255 255 255 255 255 255 255 255 255 255 255 255 255 255 255 255 255 255 255 255 255 255 255 255 255 255 255 255 255 255 255 255 255 255 255 255 255 255 255 255 255 255 255 255 255 255 255 255 255 255 255 255 255 255 255 255 255 255 255 255 255 255 254 255 255 255 255 255 253 251 246 255 242 225 226 250 207 232 254 246 251 255 255 255 255 255 255 255 255 255 255 255 255 255 255 255 255 255 255 255 255 255 255 255 255 255 255 255 255 255 255 255 255 255 255 255 255 255 255 255 255 255 255 255 255 255 254 254 254 
255 255 255 255 255 255 255 255 255 255 255 255 255 255 255 255 255 255 255 255 255 255 255 255 255 255 255 255 255 255 255 255 255 255 255 255 255 255 255 255 255 255 255 255 255 255 255 255 255 255 255 255 255 255 255 255 255 255 255 255 255 255 255 255 255 255 255 255 255 255 255 255 255 255 255 255 255 255 255 255 255 255 255 254 255 255 255 255 255 254 253 254 242 237 218 215 252 199 213 252 249 249 253 255 255 255 255 255 255 255 255 255 255 255 255 255 255 255 255 255 255 255 255 255 255 255 255 255 255 255 255 255 255 255 255 255 255 255 255 255 255 255 255 255 255 255 255 254 254 254 
255 255 255 255 255 255 255 255 255 255 255 255 255 255 255 255 255 255 255 255 255 255 255 255 255 255 255 255 255 255 255 255 255 255 255 255 255 255 255 255 255 255 255 255 255 255 255 255 255 255 255 255 255 255 255 255 255 255 255 255 255 255 255 255 255 255 255 255 255 255 255 255 255 255 255 255 255 255 255 255 255 255 255 254 253 254 253 253 253 253 250 253 244 233 222 241 171 147 126 189 249 245 254 255 255 255 255 255 255 255 255 255 255 255 255 255 255 255 255 255 255 255 255 255 255 255 255 255 255 255 255 255 255 255 255 255 255 255 255 255 255 255 255 255 255 255 255 254 254 254 
255 255 255 255 255 255 255 255 255 255 255 255 255 255 255 255 255 255 255 255 255 255 255 255 255 255 255 255 255 255 255 255 255 255 255 255 255 255 255 255 255 255 255 255 255 255 255 255 255 255 255 255 255 255 255 255 255 255 255 255 255 255 255 255 255 255 255 255 255 255 255 255 255 255 255 255 255 255 255 255 255 255 255 249 251 252 248 247 249 250 244 247 246 254 255 249 177 143 167 215 240 245 254 254 253 253 254 254 253 252 253 254 253 252 253 255 255 255 255 255 255 255 255 255 255 255 255 255 255 255 255 255 255 255 255 255 255 255 255 255 255 255 255 255 255 255 255 254 254 254 
255 255 255 255 255 255 255 255 255 255 255 255 255 255 255 255 255 255 255 255 255 255 255 255 255 255 255 255 255 255 255 255 255 255 255 255 255 255 255 255 255 255 255 255 255 255 255 255 255 255 255 255 255 255 255 255 255 255 255 255 255 255 255 255 255 255 255 255 255 255 255 255 255 255 255 255 255 255 255 255 255 255 255 251 253 239 245 255 252 255 255 255 234 168 174 243 192 104 140 222 255 250 253 255 254 253 253 253 254 254 253 254 254 254 254 255 255 255 255 255 255 255 255 255 255 255 255 255 255 255 255 255 255 255 255 255 255 255 255 255 255 255 255 255 255 255 255 254 254 254 
255 255 255 255 255 255 255 255 255 255 255 255 255 255 255 255 255 255 255 255 255 255 255 255 255 255 255 255 255 255 255 255 255 255 255 255 255 255 255 255 255 255 255 255 255 255 255 255 255 255 255 255 255 255 255 255 255 255 255 255 255 255 255 255 255 255 255 255 255 255 255 255 255 255 255 255 255 255 255 255 255 255 254 246 252 246 252 187 96 123 152 135 108 71 59 106 67 49 74 115 177 230 253 250 252 254 253 254 249 250 252 251 253 253 253 255 254 254 254 254 254 255 255 255 255 255 255 255 255 255 255 255 255 255 255 255 255 255 255 255 255 255 255 255 255 255 255 254 254 254 
255 255 255 255 255 255 255 255 255 255 255 255 255 255 255 255 255 255 255 255 255 255 255 255 255 255 255 255 255 255 255 255 255 255 255 255 255 255 255 255 255 255 255 255 255 255 255 255 255 255 255 255 255 255 255 255 255 255 255 255 255 255 255 255 255 255 255 255 255 255 255 255 255 255 255 255 255 255 255 255 255 255 255 250 251 252 244 150 39 18 33 22 34 38 46 76 129 155 135 91 45 140 215 251 250 245 251 246 255 243 239 250 247 250 249 252 254 255 254 254 254 255 255 255 255 255 255 255 255 255 255 255 255 255 255 255 255 255 255 255 255 255 255 255 255 255 255 254 254 254 
255 255 255 255 255 255 255 255 255 255 255 255 255 255 255 255 255 255 255 255 255 255 255 255 255 255 255 255 255 255 255 255 255 255 255 255 255 255 255 255 255 255 255 255 255 255 255 255 255 255 255 255 255 255 255 255 255 255 255 255 255 255 255 255 255 255 255 255 255 255 255 255 255 255 255 255 255 255 255 255 255 255 255 253 247 245 247 250 193 83 107 154 157 87 105 115 155 190 185 244 201 111 164 187 232 251 237 255 196 110 137 186 235 236 246 254 253 252 252 253 253 255 255 255 255 255 255 255 255 255 255 255 255 255 255 255 255 255 255 255 255 255 255 255 255 255 255 254 254 254 
255 255 255 255 255 255 255 255 255 255 255 255 255 255 255 255 255 255 255 255 255 255 255 255 255 255 255 255 255 255 255 255 255 255 255 255 255 255 255 255 255 255 255 255 255 255 255 255 255 255 255 255 255 255 255 255 255 255 255 255 255 255 255 255 255 255 255 255 255 255 255 255 255 255 255 255 255 255 255 255 255 255 255 248 245 253 246 242 252 241 250 255 245 215 215 204 208 190 153 189 230 225 189 190 181 241 255 147 24 17 80 135 216 235 243 253 255 254 251 250 253 255 255 255 255 255 255 255 255 255 255 255 255 255 255 255 255 255 255 255 255 255 255 255 255 255 255 254 254 254 
255 255 255 255 255 255 255 255 255 255 255 255 255 255 255 255 255 255 255 255 255 255 255 255 255 255 255 255 255 255 255 255 255 255 255 255 255 255 255 255 255 255 255 255 255 255 255 255 255 255 255 255 255 255 255 255 255 255 255 255 255 255 255 255 255 255 255 255 255 255 255 255 255 255 255 255 255 255 255 255 255 255 255 253 249 246 249 252 244 249 245 241 245 252 248 239 237 228 214 176 154 189 198 131 128 129 95 18 37 72 52 111 218 217 242 236 243 250 253 252 253 255 255 255 255 255 255 255 255 255 255 255 255 255 255 255 255 255 255 255 255 255 255 255 255 255 255 254 254 254 
254 254 255 255 255 255 255 255 255 255 255 255 255 255 255 255 255 255 255 255 255 255 255 255 254 255 255 255 255 255 255 255 255 255 255 255 255 255 255 255 255 255 255 255 255 255 255 255 255 255 255 255 255 255 255 255 255 255 255 255 255 255 255 255 254 254 254 255 255 255 255 255 255 255 255 255 255 254 254 254 255 255 255 253 255 251 252 252 248 249 246 255 253 250 251 252 246 239 255 247 181 89 110 191 120 28 20 16 74 170 137 120 209 139 167 231 226 226 245 255 251 253 255 255 255 255 255 255 255 255 255 255 255 255 255 255 255 255 255 255 255 255 255 255 255 255 255 254 254 254 
254 254 254 254 254 255 255 255 255 255 255 254 255 255 255 255 255 255 255 254 254 254 254 254 254 254 254 254 254 254 254 254 255 255 255 255 255 255 255 255 255 255 255 255 255 255 255 255 255 255 255 255 255 255 255 255 255 255 255 255 255 255 255 255 254 254 254 254 254 254 255 255 255 255 255 254 254 253 253 253 253 253 254 255 254 254 254 253 254 251 249 249 249 250 251 245 236 241 245 218 69 30 17 46 43 49 31 27 22 85 121 203 94 0 155 255 249 239 246 242 253 254 255 255 255 255 254 254 255 255 255 255 255 255 255 255 255 255 255 255 255 255 255 255 255 255 255 254 254 254 
255 255 255 255 255 255 255 255 255 255 255 255 255 255 255 255 255 255 255 255 255 255 255 255 255 255 255 255 255 255 255 255 255 255 255 255 255 255 255 255 255 255 255 255 255 255 255 255 255 255 255 255 255 255 255 255 255 255 255 255 255 255 255 255 254 254 254 254 254 254 254 254 254 254 255 255 254 253 254 254 253 253 253 254 254 254 254 253 252 250 250 250 248 248 254 255 237 239 235 253 189 43 16 64 70 32 76 59 37 71 60 85 11 92 119 136 105 165 244 245 250 255 255 255 255 255 255 255 255 255 255 255 255 255 255 255 255 255 255 255 255 255 255 255 255 255 255 254 254 254 
255 255 255 255 255 255 255 255 254 254 254 254 255 255 255 255 255 255 255 254 254 254 254 254 253 254 254 254 254 253 253 254 255 255 255 255 255 255 255 255 255 255 255 255 255 255 255 255 255 255 255 255 255 255 255 255 255 255 255 255 255 255 255 254 253 253 253 253 254 255 255 254 254 255 254 255 255 254 254 253 253 253 252 251 252 253 254 253 254 249 244 239 240 236 211 206 240 246 245 251 224 88 31 46 32 54 55 152 81 47 45 50 89 85 57 85 39 138 247 249 247 254 255 255 255 255 255 255 255 255 255 255 255 255 255 255 255 255 255 255 255 255 255 255 255 255 255 254 254 254 
254 253 253 253 253 254 254 254 254 254 254 254 254 255 255 255 255 255 254 252 250 250 247 248 250 247 248 249 251 252 252 251 254 253 253 254 253 252 254 254 254 254 253 254 255 255 255 255 255 255 255 255 255 255 255 255 255 255 255 255 255 255 255 254 254 254 253 254 255 254 252 253 253 253 252 251 250 252 253 255 255 255 255 252 249 242 231 215 198 178 146 134 131 122 115 107 169 207 205 222 225 140 33 21 20 56 77 74 174 55 34 34 70 88 84 98 57 149 248 245 249 254 255 255 255 255 255 255 255 255 255 255 255 255 255 255 255 255 255 255 255 255 255 255 255 255 255 254 254 254 
254 254 254 254 254 253 254 254 254 254 254 254 254 255 254 255 255 254 252 250 243 251 255 255 255 250 252 252 250 249 250 251 252 252 253 254 254 253 254 254 254 255 254 253 253 255 255 255 255 255 255 255 255 255 255 255 255 254 254 254 254 254 254 254 253 253 253 253 251 250 248 250 253 255 255 255 248 241 237 223 203 184 175 167 151 132 125 123 110 107 115 125 116 109 122 115 110 137 128 67 48 32 39 21 18 11 51 71 62 118 31 49 54 40 180 187 219 224 249 243 249 255 255 255 255 255 255 255 255 255 255 255 255 255 255 255 255 255 255 255 255 255 255 255 255 255 255 254 254 254 
251 250 250 250 251 251 252 254 254 255 255 253 253 254 253 253 253 252 252 239 252 243 188 172 207 226 239 253 255 255 254 255 253 255 254 252 250 251 252 253 252 251 252 253 254 253 254 254 254 254 254 255 255 255 255 255 255 254 254 254 254 254 254 254 253 252 250 248 252 255 255 247 235 221 202 181 168 155 137 125 122 119 115 120 126 124 122 127 129 128 136 121 131 136 117 143 114 87 146 84 24 37 31 35 7 28 3 69 78 96 177 87 70 38 72 135 152 222 245 250 247 255 255 255 255 254 254 254 255 255 255 255 255 255 255 255 255 255 255 255 255 255 255 255 255 255 255 254 254 254 
249 255 255 254 250 248 251 251 252 254 255 253 254 254 255 253 251 249 253 255 210 149 111 112 114 122 147 158 177 196 213 224 235 242 247 248 250 253 255 255 255 255 255 255 255 255 254 254 254 253 253 254 254 254 254 254 254 253 253 253 253 253 253 252 246 251 255 255 232 209 189 171 154 148 148 144 142 140 128 123 121 113 103 98 94 77 66 63 65 52 47 40 39 29 41 94 68 26 104 144 43 34 32 35 27 20 19 19 61 72 114 141 129 188 132 145 188 249 244 248 250 253 254 255 255 254 254 254 255 255 255 255 255 255 255 255 255 255 255 255 255 255 255 255 255 255 255 254 254 254 
227 176 159 164 202 232 247 255 255 255 248 249 242 251 236 238 248 255 245 173 119 122 138 102 73 73 77 86 97 112 123 127 135 143 150 154 161 169 176 184 195 201 205 208 217 237 245 248 248 250 251 255 255 255 255 255 255 255 255 255 255 255 255 255 255 252 229 184 166 147 137 131 121 113 100 84 72 62 52 42 34 35 41 24 35 56 50 57 63 70 88 83 101 97 88 112 57 31 103 165 74 50 38 30 49 30 32 29 23 93 83 136 155 228 207 253 255 247 246 250 249 253 255 255 255 255 254 255 255 255 255 255 255 255 255 255 255 255 255 255 255 255 255 255 255 255 255 254 254 254 
200 56 32 43 93 104 119 158 196 238 241 255 255 245 232 207 223 181 127 117 122 109 78 59 55 46 42 42 39 46 55 57 71 83 95 102 107 112 110 111 113 119 103 99 128 133 138 138 141 145 143 147 149 151 153 155 158 154 152 152 153 154 159 151 167 191 146 113 89 71 55 44 35 29 29 30 32 28 30 37 40 40 45 34 66 116 107 108 113 112 122 97 95 103 94 105 68 36 70 105 73 47 36 62 25 30 15 8 54 63 111 125 217 150 120 200 247 248 246 253 253 255 255 255 255 254 254 255 255 255 255 255 255 255 255 255 255 255 255 255 255 255 255 255 255 255 255 254 254 254 
202 33 39 54 58 43 38 14 22 55 86 138 189 219 240 251 230 98 61 103 84 57 40 32 28 31 37 34 29 29 30 26 25 28 30 33 43 54 65 82 82 87 91 108 132 121 131 127 125 128 130 129 128 126 124 121 120 117 114 111 106 100 96 96 47 81 119 35 26 32 36 34 38 40 39 37 38 37 36 37 35 32 36 44 34 37 39 43 34 32 32 35 33 34 38 26 40 52 38 51 46 39 76 61 25 9 30 96 22 36 94 96 158 143 120 178 255 245 247 253 249 254 255 255 255 254 254 254 255 255 255 255 255 255 255 255 255 255 255 255 255 255 255 255 255 255 255 254 254 254 
217 115 93 97 121 43 29 14 25 2 13 33 47 60 82 136 187 192 121 21 27 29 29 27 25 27 33 33 26 28 30 25 31 32 27 23 20 24 25 18 41 39 35 54 58 72 87 93 93 98 102 94 91 88 84 79 76 73 70 68 65 60 55 47 23 105 84 27 51 38 38 38 41 40 37 37 41 38 36 38 37 37 41 38 44 41 37 33 41 45 38 42 43 35 39 43 37 31 76 113 42 43 58 42 29 76 180 224 166 168 243 212 108 164 161 217 248 249 249 253 253 254 255 255 255 255 255 255 254 254 254 254 254 254 254 255 255 254 254 254 255 255 255 255 255 255 255 254 254 254 
243 232 222 233 238 230 97 8 14 71 206 231 239 233 152 127 201 165 196 182 59 51 69 52 40 38 25 22 20 20 23 24 25 23 35 16 32 37 14 26 81 90 45 40 32 42 44 42 46 52 50 51 50 47 44 41 39 38 36 37 38 34 38 43 21 53 39 26 37 30 29 34 36 36 38 34 33 37 32 32 35 33 37 38 38 41 40 47 43 41 48 47 51 54 47 48 60 50 64 95 44 31 54 59 70 123 91 108 145 146 144 132 59 87 102 222 255 245 247 250 250 252 254 253 253 255 254 250 252 254 250 255 254 252 253 251 251 254 255 254 254 255 255 255 255 255 255 254 254 254 
250 240 245 205 141 137 81 8 37 211 250 234 224 172 133 72 45 101 90 191 198 120 162 95 82 113 127 106 86 54 29 31 27 22 13 36 20 24 29 77 78 56 42 26 22 23 26 25 26 29 26 33 34 35 35 34 33 35 34 34 36 35 43 46 23 62 86 75 66 71 72 74 73 75 81 77 74 71 83 75 79 67 68 84 67 93 100 85 83 94 86 79 90 77 69 83 75 96 83 50 35 66 80 87 228 203 189 179 179 174 84 129 162 160 93 111 230 251 242 249 247 251 247 249 253 250 248 247 246 249 250 249 245 249 248 251 251 251 248 249 253 255 254 254 255 255 255 254 254 254 
246 255 204 49 29 0 21 7 87 222 179 122 70 35 40 80 99 98 89 167 130 139 174 141 146 207 199 86 203 235 190 180 167 164 82 60 96 17 30 51 88 63 78 73 79 72 78 83 85 82 80 83 83 84 84 82 80 76 77 83 86 79 65 44 27 68 84 58 54 58 60 56 50 54 54 44 40 44 42 45 40 50 42 39 42 35 29 43 35 27 33 36 28 20 32 34 39 41 29 14 30 99 94 65 154 240 247 254 255 205 167 255 205 233 194 78 115 250 254 238 239 239 221 218 218 201 200 207 194 202 212 207 220 231 238 235 237 243 248 249 251 254 255 255 255 255 255 254 254 254 
248 245 217 201 175 172 41 26 79 133 70 63 83 87 99 108 124 155 209 175 167 234 208 172 145 129 98 19 71 97 113 115 140 161 189 122 98 24 15 24 14 26 27 32 28 25 25 33 31 24 27 27 29 32 33 30 27 27 29 30 33 44 36 30 46 35 43 51 57 25 23 25 25 20 37 86 115 63 29 14 30 48 15 33 11 115 168 103 57 50 23 39 17 21 73 61 72 52 19 54 38 100 84 45 58 140 232 232 255 149 208 247 227 239 255 187 97 147 206 162 154 159 155 154 139 119 108 106 99 105 107 107 150 147 153 187 217 228 237 248 245 248 252 255 255 254 253 254 254 254 
245 235 238 241 255 255 154 78 72 90 104 96 85 91 164 220 255 255 192 140 99 51 17 4 7 3 8 18 13 1 0 6 0 20 98 119 108 24 30 54 62 59 73 100 73 84 84 91 100 109 112 115 111 109 111 111 104 103 108 102 95 79 89 71 67 74 87 60 22 20 29 19 21 35 40 84 114 69 89 93 176 190 89 23 29 87 152 196 148 34 36 33 92 121 155 210 135 40 28 51 47 19 36 17 54 154 224 247 254 184 160 238 237 245 233 157 73 105 133 216 140 101 83 55 39 38 30 24 30 32 30 36 49 52 53 51 57 105 181 230 254 253 249 242 241 248 250 254 253 254 
246 229 231 240 235 171 148 126 130 110 99 125 192 253 255 228 153 69 25 13 3 19 26 30 32 26 28 25 24 28 30 25 23 81 103 90 51 14 36 44 76 77 62 55 63 50 67 45 50 63 50 63 55 53 55 48 44 49 43 39 43 46 47 78 123 83 46 20 24 34 28 25 26 37 43 116 56 71 85 180 227 216 195 72 63 81 141 189 217 95 41 47 180 162 144 195 189 80 14 48 43 39 37 17 93 202 243 242 246 249 198 136 187 136 107 135 64 177 177 208 176 37 36 20 26 22 32 37 38 31 30 33 21 17 28 19 25 31 42 88 134 208 255 244 247 244 252 254 254 254 
247 251 252 243 167 156 196 168 175 168 225 255 255 238 140 45 17 12 26 26 33 24 19 21 23 25 29 30 25 30 31 16 67 123 147 102 16 26 24 34 90 18 45 35 39 32 36 38 48 40 37 39 35 39 41 41 43 40 39 49 38 42 32 69 59 117 123 17 38 37 47 34 42 53 59 127 101 57 146 135 174 190 142 115 119 125 150 188 171 84 32 33 38 143 174 168 114 33 18 69 32 27 23 34 130 223 240 238 245 255 204 102 33 44 95 99 63 59 175 172 199 125 36 86 94 102 109 119 116 113 104 90 94 77 50 38 26 24 31 28 42 61 116 214 255 246 248 254 254 254 
251 247 249 243 245 243 247 240 255 255 249 250 195 65 12 25 27 30 29 16 23 34 55 65 71 93 96 102 106 98 85 86 131 146 106 38 26 45 39 76 48 41 34 41 73 107 105 103 142 164 123 89 119 101 50 38 43 38 39 48 44 23 53 64 116 135 96 47 35 50 47 28 29 69 166 163 124 128 89 119 238 255 128 39 97 40 133 255 239 94 24 51 42 25 94 85 42 16 36 34 27 34 20 67 180 229 241 252 241 120 48 76 92 56 30 26 67 52 58 170 171 209 134 156 195 213 219 218 218 216 214 191 188 155 139 126 91 63 38 22 23 35 51 70 153 245 252 250 252 252 
252 254 251 254 253 251 251 252 239 242 246 147 36 24 37 33 25 30 20 53 82 90 102 101 126 124 166 153 187 157 173 154 145 124 60 46 50 27 68 64 35 39 42 47 55 67 69 69 74 83 81 64 78 69 47 41 36 38 49 31 34 72 73 143 138 48 14 52 38 31 31 51 86 47 164 223 139 52 6 167 251 183 87 138 108 105 53 179 252 177 8 57 100 13 24 28 40 23 32 37 33 23 27 101 196 243 237 225 88 5 34 45 63 24 25 40 49 68 61 80 178 169 208 243 247 247 240 248 243 249 251 245 255 236 228 198 168 139 120 84 31 23 38 41 60 128 235 252 247 253 
255 255 255 254 253 253 253 248 239 245 151 31 34 31 23 28 12 56 100 98 110 119 176 204 225 253 231 250 255 255 249 194 145 96 27 82 63 44 96 45 37 43 39 39 34 30 34 33 28 27 32 38 32 33 37 38 42 50 33 31 52 57 25 80 45 13 36 39 74 112 152 108 76 121 193 174 43 17 88 213 234 141 89 113 152 137 43 113 216 239 125 48 88 20 17 27 23 24 32 31 23 23 37 116 213 245 237 82 7 39 52 34 24 35 21 39 86 89 191 203 117 194 159 218 232 246 242 255 254 255 254 241 245 245 246 248 250 223 179 141 113 57 24 27 31 67 122 237 255 246 
255 255 254 254 253 253 254 249 255 173 55 46 29 29 32 17 72 115 90 120 192 248 239 255 233 206 179 145 106 112 182 148 106 81 43 67 57 74 83 39 36 36 34 42 39 38 42 41 38 38 39 39 38 39 39 40 47 45 20 26 102 92 9 19 64 76 72 32 85 218 203 118 96 221 247 219 121 41 149 241 248 173 58 72 131 96 59 159 241 241 183 47 106 61 23 35 26 23 22 27 29 22 59 119 244 252 110 14 30 38 38 31 26 15 60 131 168 105 225 247 120 109 188 177 216 214 180 172 178 197 217 232 237 244 249 241 246 247 243 207 159 136 62 33 18 40 73 156 248 249 
255 255 254 254 253 253 249 253 212 113 54 36 31 24 26 94 117 89 170 221 241 232 241 186 113 63 41 47 40 131 180 132 88 49 41 11 22 38 47 43 50 50 46 44 42 43 35 36 40 40 35 37 43 40 45 57 40 27 23 58 66 42 71 66 206 252 226 137 71 217 231 186 146 186 235 209 154 172 204 173 202 222 210 227 235 233 217 200 208 177 171 177 138 172 190 46 27 39 26 21 27 30 72 177 255 196 35 14 32 47 25 30 20 66 133 174 249 148 149 148 117 66 114 196 174 213 131 116 125 125 131 162 185 223 249 252 252 243 240 244 217 169 152 70 24 28 28 104 221 255 
254 255 255 255 254 253 248 251 208 104 50 28 26 20 68 112 101 183 238 240 249 229 127 75 74 124 137 131 120 180 145 123 68 29 42 32 30 62 43 17 22 36 37 45 46 50 56 47 35 45 46 41 43 56 47 39 32 28 34 65 38 38 91 52 55 58 99 122 112 189 191 200 118 176 228 170 115 158 191 102 109 117 124 132 129 127 121 107 127 122 139 171 117 141 202 85 19 29 25 29 25 51 117 234 247 101 16 23 36 31 27 22 56 140 175 244 249 152 42 36 37 51 16 103 193 182 209 143 144 166 163 162 183 201 232 242 247 244 245 239 247 224 151 149 35 30 31 58 175 249 
255 255 255 255 255 252 254 239 185 94 46 25 21 47 106 72 137 227 247 249 228 124 109 150 198 208 188 179 187 174 133 170 125 79 33 12 41 81 71 78 58 34 35 34 40 31 46 62 72 50 46 51 51 37 26 16 23 35 26 44 32 30 54 94 126 142 170 189 199 185 156 177 192 167 197 186 199 201 168 139 142 138 156 140 142 131 130 154 146 142 156 128 85 66 78 132 27 29 29 17 33 66 152 255 218 46 27 37 53 27 37 30 118 167 233 248 239 102 105 64 18 53 51 24 98 188 189 215 100 81 163 205 213 219 230 238 242 245 248 241 246 247 192 148 106 19 33 26 157 245 
255 255 255 255 253 251 252 236 178 79 34 22 16 63 120 92 185 255 240 245 204 109 167 222 186 185 177 170 126 54 148 219 216 206 190 135 131 115 40 79 85 37 19 27 91 131 78 38 20 35 62 78 53 18 28 34 37 37 31 39 40 26 142 227 231 215 217 228 213 179 156 189 233 210 186 209 196 172 205 153 157 149 154 131 135 123 120 152 160 139 168 141 86 128 164 146 25 28 30 18 37 69 210 255 190 31 17 48 48 58 15 60 145 191 248 248 255 143 98 100 13 29 19 55 45 142 202 202 173 72 56 74 168 234 244 244 243 247 254 252 249 248 223 156 133 31 26 25 129 235 
255 255 254 253 250 248 248 236 166 46 22 20 11 101 194 114 120 161 204 205 163 136 208 182 188 209 173 143 100 73 121 162 185 179 168 156 219 196 68 45 46 112 119 53 34 52 101 155 123 35 23 114 55 21 40 64 53 43 10 50 61 0 88 164 153 157 140 146 124 145 147 199 220 207 192 200 195 164 158 163 197 195 189 193 185 189 197 188 189 205 169 121 117 156 238 87 21 43 30 35 78 161 240 249 204 51 38 51 16 38 33 67 155 166 199 210 208 179 108 61 76 67 59 95 81 124 161 167 218 211 167 46 85 213 228 231 237 247 254 249 245 248 236 169 157 61 32 18 83 217 
255 255 255 253 251 248 249 211 170 87 48 49 32 117 210 121 122 145 140 153 136 196 177 126 174 130 98 93 17 25 54 80 98 122 63 75 84 56 48 24 25 93 129 76 78 28 13 38 89 41 29 29 48 44 16 16 31 34 44 104 116 67 24 14 38 77 83 92 79 85 73 156 197 167 146 184 218 162 134 155 198 225 208 192 181 189 183 208 214 199 149 206 120 84 146 49 30 31 24 139 235 247 246 250 213 97 108 112 82 92 97 97 122 177 204 193 188 196 201 127 119 135 127 123 85 116 103 141 138 181 215 115 19 153 219 217 226 238 247 248 241 210 201 173 166 48 28 14 63 207 
253 254 254 254 252 253 237 139 108 135 133 130 143 137 141 127 181 188 193 172 116 116 101 100 114 106 116 113 117 112 116 126 114 117 109 104 100 81 73 66 61 43 13 42 41 32 40 18 0 5 18 20 37 35 26 29 26 21 65 65 110 162 137 135 140 119 111 121 122 83 86 145 147 123 132 135 156 143 168 124 90 68 84 111 85 98 89 68 75 83 68 105 50 62 52 21 72 164 200 243 254 246 248 252 250 179 113 70 47 55 52 80 142 144 210 216 217 226 227 172 95 85 98 86 86 86 149 141 178 180 122 44 105 173 203 204 212 232 247 252 245 237 215 163 139 35 27 25 86 218 
254 254 254 254 252 251 249 230 201 155 158 162 158 162 167 163 141 147 116 32 32 95 108 95 92 121 120 78 78 70 69 75 74 66 83 92 99 106 106 123 102 107 125 150 149 154 150 123 118 99 71 37 23 22 33 35 31 45 118 72 70 73 30 57 89 125 166 162 138 133 144 154 139 122 132 144 132 128 138 124 86 43 46 141 131 87 79 42 59 88 73 75 79 45 32 88 181 255 255 245 249 249 253 247 255 225 152 94 38 32 22 54 193 216 217 223 213 205 209 204 130 137 159 150 131 38 69 79 47 59 64 64 158 198 192 191 213 246 253 246 238 238 208 149 85 20 20 24 110 229 
255 255 255 253 251 249 245 252 204 87 39 28 31 42 110 146 127 187 243 171 115 93 93 106 120 143 149 166 169 157 160 143 137 122 103 96 77 75 54 43 46 23 34 31 29 28 29 90 91 75 96 73 87 63 21 21 37 27 54 33 56 69 42 62 69 59 111 136 82 97 106 73 52 42 58 83 71 59 55 68 70 43 44 51 40 50 47 67 46 29 47 54 38 60 134 186 243 247 246 247 250 253 250 246 251 247 231 189 56 29 30 37 135 221 224 246 249 246 248 251 255 217 185 169 178 159 142 137 80 123 176 171 182 181 180 201 241 252 244 248 255 214 178 131 47 17 19 42 150 249 
254 254 254 254 252 252 249 253 234 142 45 31 28 24 26 107 110 97 180 255 255 222 178 122 75 69 65 64 67 84 107 120 154 172 184 195 213 228 226 222 228 212 208 202 195 186 174 194 174 137 140 126 125 186 143 22 22 25 27 32 39 45 50 64 58 41 33 35 49 46 43 34 32 23 17 21 19 23 33 51 55 43 33 15 33 53 47 78 72 64 74 124 146 172 185 204 248 253 255 254 252 254 252 253 250 248 246 234 81 14 48 20 56 182 211 213 251 245 241 246 248 243 216 179 163 159 149 156 159 163 149 163 161 182 219 241 243 240 246 240 207 190 173 64 9 37 25 74 217 246 
253 254 254 255 254 253 253 247 251 195 71 36 32 23 20 38 99 123 101 148 223 251 255 250 252 232 212 183 158 122 113 90 77 69 57 44 55 33 56 66 64 91 91 122 143 141 165 142 156 176 171 162 160 148 82 28 25 21 24 21 34 26 22 29 24 30 39 29 28 27 25 34 25 33 40 38 55 67 63 51 42 40 37 47 58 43 114 156 168 183 193 146 204 229 228 240 252 254 254 252 252 255 253 248 255 251 237 249 177 29 25 36 40 59 190 224 216 238 254 241 243 254 246 240 231 206 185 180 170 173 183 194 228 242 245 244 247 240 240 212 196 182 79 16 24 29 44 159 254 241 
253 254 255 255 255 255 251 253 246 252 163 44 31 35 29 16 36 96 118 119 106 149 210 226 238 252 255 255 255 255 254 255 255 248 232 162 100 63 76 46 15 31 26 22 28 21 7 28 14 19 12 13 10 19 23 33 47 50 40 47 43 22 29 28 29 24 28 24 28 25 22 33 36 42 46 51 59 46 43 60 70 81 110 134 103 141 176 184 198 220 216 235 252 255 254 253 253 252 252 252 252 253 254 254 253 246 251 242 255 167 27 33 39 29 70 160 221 221 213 235 242 245 240 245 255 255 252 252 252 248 254 250 249 244 243 247 246 219 201 200 163 58 16 21 36 30 130 252 251 247 
253 254 255 255 255 255 251 251 245 249 241 159 46 29 36 36 18 27 55 107 120 129 120 129 151 187 207 210 200 220 205 188 172 148 146 137 86 96 58 28 36 27 28 28 17 41 176 216 199 197 180 175 163 174 196 209 215 224 218 215 187 164 175 163 164 166 174 173 180 180 179 176 186 185 187 192 191 202 212 225 237 250 255 250 234 247 255 248 249 255 255 255 250 252 253 253 255 254 254 255 255 254 254 253 253 251 252 244 251 254 174 36 23 35 34 46 116 179 220 217 211 229 232 244 251 245 245 246 247 249 251 248 243 236 239 213 206 203 183 102 37 6 40 32 22 150 238 249 246 254 
255 255 255 255 255 255 254 244 255 249 250 255 177 56 26 31 31 29 14 23 42 95 108 122 137 118 144 134 139 136 136 136 125 115 99 80 53 23 20 33 20 29 30 2 79 210 249 255 255 255 255 255 255 255 255 255 255 255 255 255 255 255 255 255 255 255 255 255 255 255 255 255 255 255 255 255 255 255 255 255 253 250 247 251 254 251 250 250 252 253 255 254 255 255 255 255 255 255 255 255 255 255 254 253 253 255 255 251 252 241 255 212 69 26 29 32 29 33 102 158 196 217 210 229 226 231 225 225 224 228 227 213 228 204 215 195 177 107 37 20 28 27 23 63 168 254 250 247 251 252 
255 255 255 255 255 255 254 253 249 252 251 247 246 218 118 26 22 25 31 28 24 12 22 33 56 80 77 86 75 88 78 64 52 29 23 24 20 26 28 28 16 3 40 134 238 254 245 240 248 248 251 250 250 250 250 251 251 251 252 252 251 250 250 251 251 251 252 251 250 248 250 251 250 251 251 251 251 251 251 251 251 251 251 254 253 252 253 253 254 255 255 255 255 255 255 255 255 255 255 255 255 255 255 253 253 255 255 254 250 244 238 247 247 143 54 21 24 35 15 27 56 99 128 168 178 199 192 199 209 186 195 187 171 144 109 71 25 13 34 30 15 45 123 215 254 250 250 251 252 254 
255 255 255 255 255 255 251 254 252 249 254 250 248 250 255 206 91 36 14 10 30 24 30 31 14 27 17 20 19 24 23 19 23 31 33 29 23 16 8 3 47 117 219 255 253 243 250 244 248 251 251 254 254 254 254 254 254 254 253 253 253 253 253 254 254 254 254 253 253 252 254 254 254 254 254 254 254 254 254 254 254 254 254 253 253 252 252 252 253 254 255 255 255 255 255 255 255 255 255 255 255 255 255 254 254 255 255 255 251 242 239 240 243 255 233 146 64 28 20 27 18 22 17 34 40 57 61 67 72 59 58 49 28 20 21 15 19 29 25 53 119 214 255 249 247 245 253 253 254 255 
255 255 255 255 255 255 255 251 252 255 253 255 251 249 245 252 249 214 140 81 40 10 15 15 12 22 18 16 16 9 18 14 12 4 12 9 10 43 95 157 231 255 255 242 248 251 252 253 250 252 252 254 254 254 254 254 254 255 255 255 255 255 255 255 254 255 254 254 254 255 255 254 255 255 255 254 255 255 255 255 255 255 255 255 255 254 254 255 255 255 255 255 255 255 255 255 255 255 255 255 255 255 255 254 255 255 255 255 253 249 250 253 252 247 255 255 243 198 119 77 40 29 12 15 17 11 9 12 9 12 14 20 14 12 24 40 52 103 172 229 255 255 250 250 254 250 249 255 254 254 
255 255 255 255 255 255 255 255 255 255 255 255 254 251 251 249 247 249 255 252 219 173 136 102 77 67 68 65 62 62 62 63 70 84 104 140 191 235 254 255 255 247 252 255 250 255 254 254 254 255 254 255 255 255 255 255 255 255 255 255 255 255 255 255 255 255 255 255 255 255 255 255 255 255 255 255 255 255 255 255 255 255 255 255 255 255 255 255 255 255 255 255 255 255 255 255 255 255 255 255 255 255 255 255 255 255 255 255 255 255 255 255 255 255 254 247 244 255 255 246 214 179 143 108 94 87 83 78 71 76 80 79 92 116 153 198 241 255 255 250 247 251 253 254 254 255 255 254 254 253 
255 255 255 255 255 255 255 255 255 255 255 255 254 252 255 250 250 253 242 235 238 237 230 224 223 222 220 220 220 221 222 223 222 217 229 238 233 236 246 247 246 249 252 251 251 254 254 254 254 254 254 255 255 255 255 255 255 255 255 255 255 255 255 255 255 255 255 255 255 255 255 255 255 255 255 255 255 255 255 255 255 255 255 255 255 255 255 255 255 255 255 255 255 255 255 255 255 255 255 255 255 255 255 255 255 255 255 255 255 254 254 254 254 254 252 247 251 240 253 237 229 239 233 228 225 223 223 220 216 220 220 217 221 230 232 236 241 238 245 248 252 255 254 254 254 254 255 254 254 253 
255 255 255 255 255 255 255 255 255 255 255 255 254 253 255 249 240 231 224 209 209 207 206 211 212 211 213 213 213 213 211 209 212 214 212 210 212 215 212 219 238 252 252 253 255 254 254 254 254 254 254 255 255 255 255 255 255 255 255 255 255 255 255 255 255 255 255 255 255 255 255 255 255 255 255 255 255 255 255 255 255 255 255 255 255 255 255 255 255 255 255 255 255 255 255 255 255 255 255 255 255 255 255 255 255 255 255 255 254 253 253 253 253 254 255 247 241 233 210 215 214 202 208 211 210 213 214 213 215 210 207 214 215 206 211 210 212 216 221 233 246 253 254 254 255 255 253 254 254 253 
255 255 255 255 255 255 255 255 255 254 254 255 255 254 241 234 221 211 217 214 218 217 210 211 211 213 216 217 218 217 215 215 215 211 217 218 213 217 219 213 212 221 232 246 255 254 255 254 254 254 254 254 255 255 255 255 255 255 255 255 255 255 255 255 255 255 255 255 255 255 255 255 255 255 255 255 255 255 255 255 255 255 255 255 254 254 254 254 254 254 255 255 255 255 255 255 255 255 255 255 255 255 255 255 255 255 255 255 254 253 253 254 255 251 243 223 212 215 218 212 218 217 220 226 229 235 236 232 233 234 229 228 227 221 215 214 216 214 212 220 231 231 239 254 254 251 254 253 253 253 
255 255 255 255 255 255 255 254 254 254 255 254 250 238 225 222 223 219 217 218 219 220 224 227 229 232 232 233 233 232 231 230 228 226 229 228 221 220 221 220 217 214 218 228 240 253 254 254 252 253 255 254 254 253 253 252 252 252 253 253 253 253 253 254 255 255 255 255 255 255 253 253 253 253 254 254 254 255 255 254 253 253 252 252 252 253 254 254 254 254 254 254 254 254 254 254 255 255 255 255 255 255 255 255 255 255 255 255 255 255 255 252 244 230 221 226 217 218 224 226 230 238 242 248 252 251 248 248 249 248 247 247 248 249 244 238 230 223 220 221 218 219 225 234 246 252 251 253 253 252 
255 255 255 255 255 255 255 252 252 255 255 246 234 225 220 222 224 222 224 228 229 232 235 237 238 240 241 242 242 242 241 240 237 235 237 235 228 228 223 221 223 223 222 219 222 236 245 254 255 254 252 254 254 254 254 254 255 255 254 254 253 251 251 250 253 253 253 253 253 253 252 252 253 253 254 254 254 255 255 255 255 254 254 254 254 254 255 254 254 255 255 255 255 254 254 254 255 255 255 255 255 255 255 255 255 255 255 255 252 249 249 240 224 222 230 218 222 234 243 244 248 250 250 251 252 253 254 252 250 252 253 253 250 247 250 251 249 243 234 227 220 223 220 214 233 252 253 253 254 254 
255 255 255 255 255 255 254 253 254 253 247 235 230 233 225 224 224 227 237 234 234 237 240 244 248 250 252 254 255 255 255 255 250 246 247 242 232 229 230 227 224 225 227 226 223 226 235 241 239 234 231 233 234 235 237 239 241 239 237 236 235 234 232 232 235 235 235 235 235 235 235 236 236 237 237 238 237 237 239 241 243 245 246 247 247 248 249 250 250 252 253 253 254 255 255 255 255 255 255 255 255 255 255 255 255 255 255 255 255 246 235 233 226 225 235 240 242 249 250 249 253 254 253 254 255 255 255 255 255 255 254 254 254 253 252 253 253 251 246 242 236 226 222 224 223 232 247 250 252 254 
255 255 255 255 255 255 254 254 255 251 239 229 228 230 229 233 236 236 238 238 242 248 253 255 255 255 255 255 254 253 253 253 249 245 243 240 235 235 231 228 228 229 230 227 229 235 233 231 231 233 236 234 232 230 228 229 230 229 228 228 229 230 231 231 230 230 230 230 231 231 230 230 230 230 230 230 231 231 230 229 229 231 232 229 230 232 237 242 247 247 246 248 251 254 255 255 255 255 255 255 255 255 255 254 255 255 255 254 250 235 224 229 230 231 240 247 248 252 251 250 255 251 250 253 255 255 252 249 248 250 252 254 254 252 255 254 253 251 249 249 244 240 236 230 227 230 235 247 252 255 
255 255 255 255 255 255 255 253 252 248 236 228 228 227 232 237 238 238 237 249 251 251 250 248 247 243 237 237 235 233 232 232 234 234 233 234 237 239 243 245 246 247 248 249 250 251 250 249 250 252 253 249 249 248 242 235 231 230 230 231 231 231 232 232 229 229 229 230 231 232 229 228 228 227 227 226 229 234 235 236 234 231 228 228 232 238 242 243 243 245 247 247 248 249 249 251 255 255 255 255 255 255 254 254 254 255 254 253 241 227 226 229 232 238 248 249 252 254 253 252 254 254 253 252 252 250 244 241 244 245 246 248 250 250 252 254 255 255 253 251 251 249 242 235 231 228 228 242 252 253 
255 255 255 255 255 255 255 253 249 245 235 231 233 232 241 241 236 240 250 253 251 248 243 238 236 234 235 238 243 246 249 250 250 251 253 253 251 249 250 250 248 246 244 243 240 234 239 241 242 239 236 235 241 244 239 234 233 235 236 238 239 239 238 239 242 241 239 236 235 234 233 233 233 234 234 234 232 232 236 238 237 233 229 230 233 237 239 237 233 233 235 238 242 245 247 251 254 254 254 254 254 254 255 254 254 255 254 251 242 231 230 232 239 246 250 250 254 255 253 252 254 251 248 246 246 247 246 247 248 248 249 249 249 249 248 250 254 255 255 254 253 252 248 242 235 228 227 237 248 251 
