P2
150 65
255
143 140 138 140 140 139 140 141 143 143 143 142 143 144 144 144 145 145 145 145 145 146 146 147 146 146 146 146 147 148 150 152 153 152 149 145 147 149 150 151 151 150 151 152 153 154 153 153 153 154 155 156 156 155 155 156 155 155 155 156 156 157 157 157 156 155 155 156 156 156 157 157 157 157 157 157 156 155 152 153 154 155 154 153 152 151 150 150 151 149 147 151 154 150 146 153 151 144 147 147 146 143 143 143 141 140 140 141 141 140 138 138 138 137 139 139 137 138 137 134 131 130 130 130 130 131 130 128 127 127 127 126 126 125 124 123 123 122 121 121 120 119 117 116 116 113 110 109 110 219 
139 136 135 136 137 135 137 138 139 141 141 140 140 140 141 142 142 142 138 138 140 141 143 144 143 143 142 142 143 144 143 143 144 143 141 139 142 144 145 146 146 145 145 144 143 144 148 153 152 150 149 148 148 147 151 152 151 151 151 152 152 152 152 152 151 149 149 150 150 150 151 151 152 153 153 153 153 152 149 147 148 147 147 146 144 145 147 145 140 143 147 145 142 142 145 143 140 139 139 139 139 138 136 135 134 133 133 134 134 133 132 131 131 131 134 134 131 131 131 128 127 127 126 124 123 122 120 118 118 119 120 120 121 123 121 118 115 112 112 112 111 109 106 104 105 105 102 99 98 218 
139 137 135 137 137 136 137 138 140 142 142 142 141 142 143 143 143 143 141 141 141 142 143 143 143 142 142 142 144 144 145 145 145 145 145 145 145 145 147 148 148 147 148 146 144 146 151 157 155 152 150 149 150 151 151 151 150 149 150 150 153 154 154 154 153 152 151 151 151 152 152 153 152 152 153 154 154 153 153 152 150 149 148 148 153 149 148 153 150 154 149 145 146 138 142 144 140 139 138 137 137 137 138 137 136 135 135 135 136 137 135 134 134 134 136 136 131 130 131 130 129 128 126 125 122 121 121 121 122 122 122 123 123 122 122 120 119 118 117 115 115 114 114 113 113 109 106 106 99 217 
139 136 134 136 137 135 136 138 140 142 143 143 141 141 141 142 143 143 147 147 146 145 145 144 146 145 145 145 146 147 146 146 146 146 147 147 146 146 148 148 148 148 148 147 147 148 151 153 152 150 149 149 151 154 154 153 152 152 153 153 154 154 154 154 153 152 151 151 151 152 152 153 151 150 152 153 153 153 154 154 152 150 150 150 156 154 148 134 106 104 131 150 147 139 147 141 140 142 140 139 139 140 141 141 140 139 139 139 139 138 137 137 136 136 137 135 131 129 130 130 130 130 129 128 127 126 126 128 127 127 126 126 125 125 124 123 121 120 119 118 118 116 113 110 111 109 103 107 101 217 
140 136 134 135 136 136 137 138 139 141 143 143 142 141 140 140 142 144 144 144 144 144 144 144 145 145 145 145 145 145 146 147 147 147 148 148 146 146 146 147 147 147 147 148 149 150 151 152 153 153 152 151 150 149 149 149 150 151 151 151 152 152 152 152 152 152 152 151 152 151 152 151 152 153 154 154 154 155 153 151 151 151 150 150 148 147 106 46 19 11 26 82 143 141 146 140 142 143 142 142 142 141 140 140 140 139 139 138 138 138 139 139 138 137 135 135 134 132 131 130 129 130 129 128 127 126 127 127 127 126 125 125 125 124 124 123 121 119 118 119 120 118 113 108 108 107 108 108 97 218 
141 138 136 137 138 138 138 139 140 141 142 143 142 142 142 142 143 144 146 147 146 147 147 147 146 146 146 146 146 146 146 147 147 148 148 148 148 148 148 149 149 150 149 149 149 150 151 151 152 153 152 152 151 151 151 151 152 152 152 153 153 154 154 154 154 154 154 154 154 154 154 153 155 156 156 156 157 158 156 155 154 151 149 147 147 148 95 47 51 40 9 12 100 146 143 150 145 144 143 143 142 141 141 141 141 141 140 139 140 141 141 141 140 139 138 137 136 135 133 132 130 130 130 129 127 126 127 128 128 127 127 127 126 125 125 124 122 120 120 120 119 118 115 111 112 110 110 110 99 219 
144 140 138 140 141 140 140 141 141 142 142 143 142 143 145 146 145 144 145 145 145 145 145 145 147 147 147 147 147 146 148 148 148 149 149 149 151 151 151 152 152 153 152 153 153 153 153 153 149 149 150 152 153 154 153 153 154 155 155 155 155 155 155 155 155 155 155 155 155 155 155 155 154 154 154 155 155 156 157 156 155 153 150 148 149 139 99 91 92 62 49 26 73 160 149 143 146 149 147 145 144 143 143 145 143 143 142 142 142 143 144 143 142 141 140 139 138 136 135 134 134 133 133 132 131 130 130 131 131 130 130 130 128 126 127 126 124 121 121 122 120 117 115 114 115 109 110 110 98 219 
145 143 140 142 142 142 141 141 142 142 143 143 144 145 146 146 146 145 147 147 147 147 147 147 147 147 147 147 147 148 147 147 147 148 149 150 151 152 152 152 153 153 154 154 153 153 153 154 152 151 151 151 152 151 153 153 153 154 155 155 155 155 155 155 155 155 155 156 156 157 156 156 156 155 155 155 156 156 156 155 154 152 151 149 157 151 99 66 71 56 39 43 72 139 152 149 154 155 149 153 151 146 147 145 145 145 145 144 144 144 145 143 144 143 141 140 139 139 138 136 135 136 136 135 134 133 132 130 130 129 129 128 127 127 127 126 124 123 122 123 121 118 117 115 115 110 112 109 100 219 
146 145 141 144 141 142 141 143 143 143 144 144 147 146 145 145 146 147 148 148 149 149 150 150 148 148 148 148 149 151 148 148 149 150 151 152 152 152 152 153 153 153 153 153 153 153 153 153 153 152 152 152 153 152 154 155 154 154 156 157 156 156 156 156 156 156 156 156 157 158 157 156 157 157 155 155 156 157 156 155 155 155 154 156 146 156 150 101 75 54 51 93 72 39 115 163 152 152 148 149 150 152 153 148 150 150 150 149 146 146 146 141 144 145 143 142 140 141 141 138 135 136 137 137 136 135 134 132 132 131 130 130 129 127 126 125 125 124 124 123 122 120 118 116 116 116 117 112 107 220 
147 145 141 145 142 142 142 143 144 144 144 145 145 145 145 145 146 148 148 148 148 149 150 150 147 146 146 146 147 148 150 150 150 151 151 152 152 153 153 154 154 154 154 154 154 154 154 154 154 154 154 154 154 154 155 155 155 155 156 158 157 157 157 158 158 158 159 159 159 159 158 157 158 158 157 157 157 158 160 160 159 157 155 153 152 157 158 154 157 145 151 161 161 133 102 116 140 153 160 151 154 156 149 154 154 155 154 154 150 148 148 143 145 145 144 145 143 143 143 140 138 139 140 139 138 136 136 136 136 135 134 133 132 128 129 127 126 125 125 125 124 121 119 118 116 114 115 111 107 221 
148 147 142 146 143 143 143 144 144 145 145 146 145 144 145 146 147 149 148 148 149 149 150 150 150 150 149 150 151 152 155 155 155 155 155 155 154 153 154 154 155 155 156 156 156 156 156 156 156 155 155 155 155 155 156 156 156 156 157 158 157 157 158 159 160 161 161 161 162 161 159 157 159 160 158 158 159 160 161 161 160 159 157 156 157 157 156 156 155 157 165 151 140 131 152 146 118 125 155 154 145 160 153 153 155 156 155 154 152 154 152 146 148 148 146 147 145 146 146 143 141 143 142 141 139 138 137 137 136 136 135 133 132 130 130 129 128 127 127 126 125 123 121 119 118 115 116 112 107 220 
147 143 143 145 143 144 144 144 144 144 145 144 144 144 145 146 147 147 147 147 147 148 148 149 149 148 147 148 149 152 152 153 153 153 153 154 153 153 154 155 155 155 155 156 156 157 157 158 156 156 157 157 157 157 156 155 156 156 157 159 159 159 160 161 162 163 163 162 160 159 160 161 160 159 160 160 161 161 160 159 159 159 159 160 159 153 153 160 161 156 158 149 135 98 111 162 164 127 145 164 156 157 153 153 155 156 154 153 155 152 153 153 147 150 150 148 148 146 143 143 142 142 143 143 141 137 136 137 136 136 135 134 134 132 131 129 127 126 126 127 126 124 122 121 120 121 119 115 108 222 
147 141 143 145 142 143 144 144 144 144 144 144 144 145 145 145 146 146 148 148 147 146 146 145 144 145 146 148 148 149 150 151 151 152 152 153 153 153 154 155 155 155 156 156 156 156 156 156 157 158 159 160 160 160 156 155 155 156 157 159 159 160 161 162 163 164 163 161 160 160 160 162 162 162 163 164 164 163 163 163 162 160 159 158 160 161 159 159 159 158 156 140 151 122 47 109 166 154 144 163 152 161 157 150 149 159 160 155 163 161 156 153 149 152 148 149 149 146 143 145 146 143 144 142 140 138 138 138 138 137 137 136 136 134 133 131 129 127 126 125 124 122 121 120 119 122 119 116 108 223 
149 143 143 144 141 142 144 144 144 144 144 144 147 147 147 148 148 149 150 149 148 146 146 144 145 147 150 151 151 149 150 151 151 152 152 153 153 153 154 155 155 155 156 157 156 155 154 154 155 156 157 158 158 158 158 157 157 158 160 162 160 159 161 161 162 163 163 163 163 163 163 162 164 167 167 167 167 165 166 167 165 163 161 160 156 159 160 157 163 166 168 160 160 108 62 78 142 118 114 81 79 105 158 164 159 155 157 158 152 122 127 159 153 154 154 146 150 149 148 151 152 147 144 141 140 141 141 140 140 139 138 137 136 136 135 133 131 129 128 126 125 124 122 121 120 121 119 116 108 223 
150 143 144 144 140 141 144 144 144 144 144 144 145 145 145 146 146 147 147 147 147 147 147 147 148 148 148 149 150 152 153 153 154 154 155 155 154 153 154 155 155 156 154 154 154 154 155 155 156 157 158 159 159 158 156 155 155 156 158 159 160 160 161 162 163 164 163 164 165 166 165 162 166 168 168 168 166 165 164 164 163 163 162 162 159 164 165 156 154 138 123 107 95 89 46 32 29 41 78 49 49 30 92 123 148 154 166 128 47 7 26 68 116 149 154 152 153 151 149 151 151 147 146 144 143 141 142 143 142 140 138 137 136 135 134 132 130 128 127 126 125 124 122 121 120 121 119 116 108 223 
148 146 145 144 142 142 143 143 143 144 144 144 145 145 145 145 146 147 146 147 148 148 148 149 146 146 146 147 149 150 152 154 155 155 154 152 153 155 156 156 155 153 154 155 155 156 157 157 157 158 159 159 160 160 157 155 156 157 158 159 160 159 160 161 162 161 162 164 166 167 167 165 166 168 168 168 166 165 163 161 161 162 164 164 160 164 165 169 167 139 66 15 23 1 50 33 17 0 14 27 32 65 48 69 141 171 141 53 27 52 25 6 25 123 162 149 152 153 152 153 153 148 147 145 144 143 143 141 140 141 140 138 134 131 132 130 129 128 127 124 121 121 122 121 120 122 119 116 108 223 
147 146 144 144 144 144 146 145 145 145 144 144 142 145 147 148 146 145 148 148 148 147 147 147 148 149 150 151 152 153 152 152 153 154 153 152 154 154 155 156 155 154 155 156 156 157 157 157 156 156 157 157 158 158 159 159 160 160 162 163 161 161 162 162 162 162 165 167 169 171 170 168 169 169 169 168 167 165 164 162 160 162 164 161 167 164 158 167 166 148 143 153 143 107 38 30 70 31 14 43 48 72 124 105 172 142 52 13 55 88 111 48 65 161 158 156 158 155 151 150 150 150 148 146 144 144 144 142 141 141 141 139 136 135 134 133 132 131 130 129 125 123 124 123 121 122 120 116 109 223 
146 145 143 143 144 145 146 145 144 144 143 143 145 144 142 143 145 147 148 148 147 146 146 145 148 148 149 150 151 152 151 151 151 152 153 154 154 154 154 154 156 157 157 156 157 157 158 158 156 156 157 157 157 158 159 160 161 162 163 163 163 165 166 163 163 168 167 168 170 170 170 169 168 169 170 171 170 170 170 168 167 166 165 163 158 159 166 163 158 168 179 171 160 122 64 23 34 70 62 31 33 46 95 108 152 84 0 19 15 24 30 69 157 159 142 150 158 153 152 155 153 151 150 147 146 146 146 145 142 142 142 141 140 138 136 135 133 132 132 133 129 126 125 123 121 123 121 117 110 223 
145 144 143 144 145 145 140 140 143 142 141 142 141 144 146 145 146 144 144 145 146 146 146 148 148 148 149 150 151 152 151 150 149 150 153 155 154 153 153 153 156 158 158 157 157 158 158 159 158 158 158 159 159 160 159 158 159 160 161 161 163 170 167 161 160 170 173 172 176 179 179 176 179 178 175 169 166 162 159 157 157 163 169 171 166 174 178 174 175 157 130 87 56 45 22 30 70 105 71 117 106 80 75 63 112 95 32 34 8 3 57 141 82 32 73 134 151 151 156 158 152 154 151 149 148 148 148 147 143 142 143 143 141 138 138 135 132 130 130 130 127 126 126 125 123 124 121 118 110 224 
145 143 144 145 145 142 143 136 142 142 144 149 139 141 142 145 147 142 143 145 147 147 148 148 148 149 150 151 152 152 153 154 150 149 154 155 155 156 156 155 155 158 160 160 160 160 160 160 159 159 160 160 161 161 161 157 160 164 161 162 168 165 167 175 185 175 166 157 145 135 122 115 103 90 87 70 63 43 34 36 45 53 58 59 61 69 70 75 85 65 39 42 120 157 127 109 114 121 90 134 157 106 65 18 37 84 83 62 51 84 89 44 0 2 30 80 125 159 158 154 151 155 152 150 149 150 150 147 143 142 142 141 139 139 139 137 135 132 131 129 126 126 126 124 123 124 122 116 113 224 
143 141 141 143 144 142 142 145 142 131 127 148 149 148 147 144 142 143 148 144 144 149 149 143 146 148 148 150 151 151 152 155 151 150 156 155 154 156 156 155 155 159 160 160 160 160 160 160 160 160 160 161 161 161 162 162 164 167 167 169 164 161 177 142 87 57 37 30 25 15 4 6 4 4 1 7 13 42 81 74 74 68 64 63 67 58 50 59 66 77 75 57 40 76 138 130 138 128 130 81 43 145 173 100 16 17 58 84 89 96 21 22 66 83 46 13 81 163 158 153 155 153 152 151 150 150 150 147 143 142 143 141 140 140 138 136 134 133 131 128 125 125 125 123 121 121 123 120 116 223 
142 140 138 141 143 145 137 137 147 146 90 63 93 112 135 148 152 148 151 148 147 151 150 144 145 146 147 147 147 148 150 154 153 152 156 155 156 158 158 157 157 160 160 160 160 160 160 159 160 161 161 162 162 162 163 166 165 164 166 164 168 178 92 71 80 39 14 3 3 4 2 7 7 6 8 4 7 54 103 101 110 122 128 125 117 112 118 118 100 95 84 38 0 6 26 80 106 156 87 31 12 37 139 169 86 31 92 120 116 147 181 213 226 242 205 176 194 162 155 162 155 151 153 153 153 152 151 148 145 144 144 142 142 141 138 135 133 133 133 129 126 126 126 124 122 120 123 120 116 223 
142 136 135 140 143 144 138 149 138 174 164 88 99 56 74 112 111 114 118 128 131 131 138 145 152 152 155 159 160 161 159 161 158 156 158 153 154 158 157 155 156 160 159 159 160 159 159 161 162 161 161 161 161 164 161 164 165 161 170 169 166 83 8 21 30 18 15 6 4 6 4 3 7 4 7 2 0 4 5 3 6 21 39 55 58 55 44 22 5 0 7 6 8 15 19 41 18 38 17 1 9 7 52 152 175 102 73 193 216 225 246 255 234 168 109 217 236 153 158 155 150 152 153 155 154 152 151 148 145 144 144 143 142 142 138 135 134 134 134 132 129 127 127 126 124 121 123 118 114 222 
139 131 134 139 137 141 147 141 124 122 160 126 61 81 179 169 116 100 71 59 65 69 59 57 62 57 66 80 90 100 106 119 128 138 154 161 158 156 152 154 160 155 157 160 161 159 158 159 157 156 162 163 160 168 159 162 167 153 169 164 87 7 6 3 1 3 7 5 3 2 1 2 4 4 2 3 4 4 3 2 3 3 10 24 18 4 0 0 4 2 4 5 5 8 6 8 7 0 18 22 4 16 5 90 154 171 97 99 201 218 212 177 84 38 59 199 205 158 160 153 156 153 155 155 153 150 149 148 146 145 145 143 141 140 138 136 134 134 134 132 130 127 125 125 125 120 122 118 114 222 
136 136 136 137 139 143 145 182 222 203 203 165 71 67 171 205 200 167 124 105 105 100 79 80 71 57 39 21 10 6 3 9 14 21 52 88 122 149 164 160 157 159 158 155 153 157 160 157 159 160 160 160 160 162 158 167 167 169 173 114 7 7 18 9 8 2 0 0 2 5 5 2 1 1 1 0 1 1 3 2 1 3 7 11 16 12 6 6 9 4 0 0 0 2 2 3 7 15 17 12 8 9 10 32 92 160 170 72 93 160 83 29 45 31 65 174 148 159 157 158 158 155 156 157 155 152 151 150 147 146 146 144 142 141 139 137 135 136 133 129 131 132 130 127 125 121 122 119 115 222 
138 136 133 138 140 129 120 188 222 213 183 122 85 50 31 37 60 50 88 131 126 101 103 107 102 91 71 55 43 28 15 7 4 2 1 8 21 50 88 120 147 159 162 160 158 156 156 155 156 159 159 161 166 162 165 161 103 76 75 38 79 118 76 53 38 23 11 6 1 3 4 2 1 1 1 0 0 1 2 1 0 5 8 5 6 6 1 0 3 17 23 37 57 46 18 12 18 8 0 8 18 0 20 16 12 75 151 154 82 115 47 41 52 39 58 140 148 163 159 157 157 157 158 158 156 154 152 151 149 148 148 146 144 144 142 140 139 139 136 131 134 134 131 128 126 121 123 119 115 223 
133 135 133 139 127 90 88 84 85 88 66 72 68 59 46 39 24 20 16 34 42 47 72 96 77 65 57 64 62 35 16 5 1 6 5 1 3 6 9 19 46 70 97 123 140 157 160 164 166 170 162 154 153 136 97 62 72 79 32 27 184 195 107 80 60 54 32 14 6 2 9 8 3 4 1 2 5 2 4 6 8 0 1 5 3 15 54 93 109 113 120 114 95 61 28 13 13 39 41 12 36 39 33 32 14 21 116 202 222 220 179 61 35 125 101 154 168 161 164 158 163 156 159 159 157 154 153 152 149 149 148 147 145 143 141 139 137 136 136 136 135 133 130 128 126 123 125 121 117 224 
132 135 140 127 79 45 46 41 34 30 33 27 28 24 23 27 22 22 10 7 6 1 1 6 53 38 13 40 46 20 2 3 1 4 5 1 1 3 3 2 2 5 9 19 31 46 60 73 77 79 67 51 44 19 38 69 80 38 44 124 172 142 104 69 56 40 31 7 7 1 2 9 7 3 7 9 2 6 8 0 13 10 35 53 73 108 143 152 141 138 126 114 122 119 115 47 44 122 52 38 74 57 26 14 11 3 82 172 228 199 101 112 78 74 81 121 161 162 159 160 158 154 157 158 157 155 153 153 151 149 147 147 147 144 143 141 138 135 135 137 135 132 129 127 127 125 126 122 118 225 
132 134 134 132 117 111 113 106 108 35 0 3 7 9 2 14 0 5 5 3 4 7 7 2 36 52 32 3 2 6 3 0 0 1 2 0 2 4 6 4 2 3 6 0 5 0 0 0 0 0 0 2 1 10 18 24 11 54 166 218 215 216 207 174 171 132 105 102 86 60 46 41 29 19 13 0 9 3 27 43 59 73 98 98 99 93 81 76 65 58 64 51 43 55 68 43 43 115 66 41 34 45 97 144 101 47 61 84 103 168 147 129 110 43 47 50 117 168 154 161 156 156 157 158 158 157 156 154 152 150 149 148 149 149 147 144 141 139 138 137 136 133 130 128 127 125 126 122 118 225 
135 134 131 132 136 150 158 131 89 23 56 60 27 42 2 11 5 8 4 4 2 1 3 8 0 13 26 9 13 4 2 0 2 2 2 3 3 5 5 1 1 2 4 2 0 5 3 7 7 5 9 15 17 2 4 32 114 214 213 185 181 179 146 130 134 160 113 122 106 117 123 104 94 82 74 68 114 75 88 85 64 42 50 48 36 46 45 12 14 33 40 35 33 39 76 73 69 154 103 44 54 52 111 188 172 164 171 129 61 117 181 144 115 134 102 107 145 159 159 167 156 161 159 157 156 156 156 156 154 152 150 150 150 149 148 145 142 140 139 138 137 134 131 129 128 125 126 122 118 225 
133 128 136 131 139 192 125 19 9 47 42 23 15 37 4 11 12 6 16 15 12 8 14 12 23 43 1 10 1 2 5 9 3 1 2 4 9 7 5 13 8 6 22 62 33 6 8 8 18 42 48 38 22 50 124 153 164 156 138 147 153 131 81 104 85 155 111 100 116 123 127 118 110 98 105 110 107 49 70 42 23 102 197 211 198 153 77 56 59 75 94 104 135 146 100 28 27 46 37 61 79 70 128 171 169 174 172 175 119 51 113 200 133 157 182 170 174 164 160 164 161 160 159 157 156 154 154 157 156 155 152 150 149 148 147 143 140 141 141 138 136 134 133 131 129 124 126 121 117 224 
133 125 130 129 126 145 118 47 23 21 5 5 6 24 14 12 0 7 2 3 45 93 130 81 74 101 19 40 60 29 3 0 12 2 8 9 8 14 33 7 8 3 6 16 30 5 10 12 6 17 13 15 3 36 116 146 137 105 97 96 109 109 85 126 134 129 113 137 127 133 130 118 109 127 120 71 137 103 32 30 52 165 178 164 222 125 96 132 110 127 200 203 182 194 144 22 9 8 64 167 152 98 160 175 173 174 173 172 175 46 28 118 195 135 151 170 161 163 164 160 159 161 159 157 156 155 156 157 155 153 151 150 150 149 146 142 140 141 140 134 132 131 131 128 126 124 125 120 116 224 
127 127 129 128 125 126 133 84 46 32 47 37 11 12 11 10 14 39 56 94 133 138 151 113 84 140 141 91 69 82 76 51 8 10 7 4 14 133 177 133 114 74 54 41 3 6 10 13 5 4 8 15 4 0 0 28 73 101 106 98 83 88 101 97 95 96 113 121 121 119 110 103 49 91 138 155 168 113 57 21 103 203 202 195 195 171 191 211 179 176 174 187 189 112 55 50 24 34 125 183 148 112 174 175 174 174 173 176 159 69 70 66 143 187 136 155 177 163 163 165 159 161 158 155 154 154 154 153 151 148 147 149 150 147 142 140 140 139 137 135 132 130 130 127 126 124 125 120 116 224 
126 132 128 127 130 125 103 50 41 44 42 39 22 6 10 42 109 117 128 146 135 141 136 137 102 60 104 141 122 48 51 81 30 4 7 7 13 85 111 142 149 167 151 137 42 28 16 14 8 4 6 3 12 8 12 9 1 16 45 84 94 91 94 93 91 93 90 90 72 77 65 66 115 158 142 229 154 100 69 44 78 180 225 217 215 219 214 226 225 223 178 205 227 90 36 37 24 43 157 191 112 136 179 174 173 171 169 171 160 52 129 115 101 165 174 131 139 169 162 159 163 160 166 169 167 162 160 162 161 160 158 155 152 146 138 138 143 140 135 135 132 131 131 129 126 124 125 120 117 224 
129 124 125 128 127 103 62 41 50 52 27 19 8 0 51 119 143 132 129 134 128 138 133 132 144 146 97 72 107 136 105 52 38 3 6 12 11 0 3 0 22 52 119 80 31 38 47 32 15 9 3 2 3 5 3 3 6 5 0 7 50 71 81 68 43 23 22 7 17 56 64 52 90 120 155 184 192 146 73 84 87 173 199 197 197 198 208 209 207 213 223 225 227 184 166 58 25 76 184 174 90 161 175 171 170 170 168 178 149 43 80 166 113 100 162 199 180 146 165 168 164 152 136 130 122 118 114 112 117 124 132 139 150 154 149 142 141 137 141 131 130 137 124 124 129 123 126 123 118 225 
122 125 126 129 126 80 44 44 48 31 3 0 6 58 126 139 122 133 143 138 139 143 140 128 129 129 140 127 90 77 77 56 29 48 31 16 29 12 7 5 4 0 16 14 6 4 9 12 6 6 6 3 1 2 13 7 0 4 15 17 12 12 0 0 0 5 27 4 28 73 60 22 22 108 140 151 152 103 70 69 75 174 207 205 206 207 200 210 198 168 200 232 216 191 164 68 31 59 89 97 106 178 168 173 172 170 168 172 144 120 51 105 134 91 178 239 237 174 100 80 57 37 26 16 6 0 2 2 0 9 24 33 38 63 94 124 142 141 145 134 131 133 127 122 126 123 125 121 117 225 
120 122 120 119 113 70 56 50 51 45 35 34 73 127 136 128 139 133 119 106 94 62 57 61 59 47 27 34 31 71 50 0 0 55 85 43 63 7 1 16 15 8 4 3 6 9 4 1 4 3 0 0 5 21 12 8 13 16 15 11 9 20 4 7 44 83 78 41 28 53 31 32 65 92 152 146 68 42 47 86 154 171 216 202 208 209 208 215 207 207 191 150 109 144 125 17 39 58 55 72 136 181 165 170 170 168 171 171 133 162 116 37 105 149 88 178 229 232 132 24 10 6 18 27 41 60 72 70 59 29 7 13 6 5 2 17 48 78 108 132 135 129 133 122 125 122 123 118 115 224 
125 114 126 121 123 118 122 126 127 128 128 137 129 129 135 124 97 74 51 13 4 2 45 79 75 53 76 85 23 99 147 33 5 15 0 94 193 107 51 11 20 34 35 25 17 10 1 5 5 6 19 41 59 67 63 47 28 25 16 0 5 2 26 33 58 158 161 78 52 85 16 46 101 91 101 80 47 14 62 103 149 184 222 223 218 215 213 214 211 208 100 114 134 128 127 120 61 55 57 89 162 172 169 169 171 166 170 167 127 151 188 122 42 69 148 211 180 236 236 122 86 154 177 196 211 222 227 212 199 103 9 23 18 18 14 4 2 7 56 125 133 125 135 123 123 121 121 116 112 222 
120 121 116 130 126 119 102 106 95 106 113 120 121 117 82 59 83 85 63 14 0 2 8 8 16 80 147 84 25 20 33 85 49 5 31 168 137 109 197 142 56 42 37 39 47 45 42 36 32 38 55 75 72 67 44 21 5 18 41 32 19 14 37 41 12 10 57 62 31 6 4 3 8 12 43 43 23 73 126 57 53 193 229 222 229 234 223 229 223 186 114 139 144 155 124 143 136 121 125 143 174 174 169 173 167 168 169 176 124 161 167 96 35 19 126 231 212 198 245 221 163 223 244 236 226 232 219 221 212 179 110 74 33 15 10 16 7 17 39 80 124 143 124 131 123 121 119 116 110 223 
117 121 112 118 127 130 37 2 67 88 95 91 96 79 57 110 70 32 18 34 63 78 80 83 120 122 90 140 76 72 63 45 115 70 76 183 159 156 152 71 32 10 25 52 50 45 37 49 52 55 57 58 39 14 0 8 10 15 85 108 101 125 39 20 74 43 14 8 26 23 3 10 34 56 37 54 63 108 94 14 69 208 182 206 199 190 204 209 212 159 151 177 171 107 142 133 81 99 164 180 164 167 169 169 165 174 165 165 133 127 68 3 16 23 30 90 134 110 184 246 212 152 216 229 226 217 219 216 186 193 211 193 182 156 108 47 25 18 9 12 28 86 122 133 122 124 120 119 111 223 
126 103 132 51 59 92 0 11 64 61 107 99 37 39 57 58 58 70 74 110 131 128 129 134 93 18 34 41 8 68 147 123 140 120 75 106 153 93 9 0 9 9 71 151 148 86 32 55 20 33 41 38 11 24 61 88 29 25 62 78 113 122 42 92 153 93 24 7 9 18 11 6 20 18 58 50 51 98 49 94 158 176 134 168 174 190 201 213 218 228 210 176 180 134 108 84 68 128 168 172 165 165 170 167 165 165 161 176 127 42 6 18 19 13 21 24 19 41 111 194 250 194 147 222 232 220 200 174 199 197 155 172 174 189 200 196 147 64 23 19 15 12 55 112 130 122 117 121 111 221 
123 115 112 92 142 138 78 61 38 14 34 20 0 0 0 0 0 9 17 35 38 40 65 91 78 69 112 98 82 80 68 82 90 88 132 128 49 0 24 13 9 10 6 55 141 141 77 73 20 19 19 31 18 26 112 75 17 3 5 8 10 49 166 161 117 78 94 77 37 14 18 20 19 54 68 31 42 72 79 162 194 186 136 132 205 238 212 233 233 237 244 230 187 107 67 79 127 175 166 160 175 165 164 167 164 165 175 144 58 6 18 13 18 21 10 48 127 166 69 114 193 246 196 140 216 224 187 141 159 189 182 148 145 149 157 170 192 205 136 47 25 15 8 46 103 124 112 121 107 219 
117 115 117 145 214 235 232 225 220 202 175 154 126 98 75 49 33 11 0 0 0 0 0 0 14 19 42 51 67 76 74 75 84 111 81 59 24 11 11 11 10 9 5 8 44 147 182 170 176 169 170 150 149 75 50 31 25 2 11 11 6 70 225 188 168 211 231 213 178 107 87 29 56 96 67 47 66 104 178 225 212 225 238 220 210 220 228 225 224 229 231 248 207 97 81 117 175 165 168 168 168 169 170 163 170 159 167 64 15 16 16 19 31 32 82 151 107 67 108 202 223 210 252 186 128 194 217 225 208 205 212 173 169 180 204 181 157 154 200 187 73 23 17 4 35 111 122 114 113 215 
118 115 110 114 133 138 153 165 172 199 213 224 234 238 245 225 206 191 167 142 111 86 59 34 23 10 0 0 0 0 6 27 96 122 108 79 40 4 22 7 9 18 5 6 13 43 85 161 213 195 188 209 210 215 167 74 1 12 20 11 16 115 216 210 183 209 231 214 187 164 214 172 154 97 103 58 67 153 233 223 220 220 229 234 213 220 226 227 225 232 240 237 184 130 130 148 161 164 170 165 160 164 160 170 154 180 103 66 29 18 7 44 36 116 203 157 88 75 99 158 128 127 218 249 180 165 234 236 243 250 252 251 236 199 159 133 139 132 137 189 202 73 13 20 15 48 123 110 105 219 
117 110 113 111 111 115 106 67 42 25 39 111 141 139 159 175 198 206 226 239 248 250 240 226 214 200 160 144 118 94 59 116 220 167 154 148 114 99 53 37 19 5 7 16 2 3 29 90 135 134 125 161 168 175 196 169 86 31 30 31 39 114 214 213 188 221 231 194 175 193 217 233 145 75 103 53 74 161 225 213 224 227 222 229 223 214 210 234 238 227 228 227 99 100 151 158 165 165 164 161 159 164 154 165 164 156 73 37 22 14 26 30 100 213 172 111 76 73 85 63 79 63 112 222 239 190 197 221 188 178 189 212 246 242 215 175 134 122 132 130 174 205 48 25 11 13 75 117 97 225 
117 108 117 113 112 116 96 40 21 6 43 130 105 109 112 80 48 24 32 69 99 126 165 178 201 226 243 252 250 241 245 235 232 232 217 201 197 175 156 128 95 51 25 23 22 15 10 87 140 75 65 43 108 176 140 185 198 136 55 24 30 83 218 219 184 210 227 212 193 208 211 176 58 81 151 67 61 115 209 224 215 230 227 233 241 221 196 189 191 194 184 115 64 150 146 152 164 163 160 161 164 168 160 162 162 158 143 42 17 18 36 58 179 203 138 76 56 83 96 96 92 77 103 195 224 243 177 212 215 173 131 140 190 224 241 233 174 128 128 122 131 192 149 30 18 16 29 107 105 214 
114 108 116 113 114 115 71 30 9 14 101 140 123 112 39 21 20 35 43 29 22 44 83 58 77 69 93 104 132 169 189 187 192 213 234 234 237 225 233 218 204 187 141 104 78 51 28 66 100 130 133 82 70 158 213 196 192 209 159 61 90 104 203 214 200 202 228 210 235 208 135 134 173 172 183 186 130 61 118 192 209 228 221 225 219 214 221 178 167 130 65 51 112 182 129 158 165 161 162 162 162 162 157 164 159 162 139 40 15 24 43 101 218 190 144 71 64 66 63 88 67 112 195 187 176 226 237 166 166 181 212 214 227 190 217 220 199 142 123 118 117 167 208 66 24 13 16 93 102 219 
114 107 111 109 116 109 51 23 8 37 149 134 157 98 92 106 128 114 111 100 68 116 129 124 127 132 133 126 137 156 151 150 151 147 160 170 186 214 218 232 242 249 233 224 174 151 134 117 89 120 170 122 82 103 125 167 173 186 190 112 68 89 179 182 164 194 225 217 178 122 174 208 212 212 192 210 182 99 73 98 163 173 169 161 191 200 188 143 84 51 105 123 131 167 141 167 158 162 161 162 162 162 162 155 155 164 114 30 13 26 61 133 231 183 137 98 74 90 78 118 170 193 219 145 130 195 242 230 206 204 165 205 217 188 203 196 144 141 116 126 105 129 209 104 19 11 9 71 102 221 
113 109 110 110 114 98 31 14 14 74 172 155 185 100 132 127 130 121 64 81 123 118 122 135 65 140 205 179 178 174 178 173 167 166 155 152 153 154 148 153 157 171 202 242 255 246 246 197 142 158 104 58 90 112 123 116 110 134 107 135 126 86 74 63 100 176 227 217 172 92 105 177 200 209 214 202 198 226 148 75 116 147 127 129 154 143 86 45 87 139 166 113 124 165 152 167 157 158 158 158 158 157 162 157 156 166 112 23 17 28 51 139 231 199 139 131 118 107 114 185 219 132 186 177 100 150 217 162 144 229 143 169 197 160 186 193 105 109 123 126 111 116 185 130 17 16 9 56 104 220 
116 113 114 112 115 95 32 22 18 96 179 157 180 106 115 129 124 104 62 73 115 124 144 127 118 151 185 178 167 160 157 142 163 152 132 98 123 146 151 131 111 73 78 101 152 186 197 206 123 151 176 172 137 110 69 21 45 99 71 46 86 47 42 35 71 79 145 96 62 66 109 142 160 171 183 166 140 208 150 117 130 119 137 133 143 146 133 139 175 184 147 67 168 162 159 164 162 164 164 164 164 163 163 163 160 168 129 28 18 30 40 131 235 210 173 142 105 139 153 202 216 127 198 196 131 129 164 172 167 188 166 175 235 182 190 183 98 106 112 95 97 122 184 122 13 24 12 62 112 215 
117 113 115 113 116 100 26 22 18 79 184 168 178 104 121 131 136 136 117 131 93 121 146 128 136 156 154 132 124 115 103 111 140 118 107 116 137 136 138 119 104 85 31 64 97 100 96 118 138 131 150 161 146 141 114 81 42 12 23 25 19 19 17 38 33 70 73 34 76 135 156 159 154 155 155 140 170 190 168 176 166 172 164 142 157 184 169 130 127 113 80 152 176 146 176 170 178 173 175 175 174 174 169 166 167 178 153 52 11 28 49 94 219 225 200 199 156 141 199 219 222 217 227 212 226 168 125 190 164 110 189 200 200 188 205 143 118 122 134 109 102 128 199 79 18 17 12 87 115 220 
119 113 118 115 118 112 44 35 23 54 178 164 186 119 99 108 142 159 120 101 102 76 120 167 131 112 139 165 117 115 97 168 135 88 86 132 147 145 133 119 132 124 108 105 83 57 30 95 175 166 165 163 148 131 156 178 171 171 148 86 57 71 55 52 49 90 90 109 145 112 105 117 122 129 117 91 112 113 108 101 87 103 84 79 91 110 113 130 114 125 193 192 159 178 184 182 180 185 185 185 185 185 183 181 179 185 172 90 18 20 43 68 177 234 225 208 182 161 201 235 241 236 212 209 174 175 203 202 206 209 143 116 154 213 165 124 131 145 143 133 99 168 167 49 21 5 32 116 118 227 
120 112 120 116 118 124 72 20 29 40 133 188 165 168 111 130 155 142 142 121 101 113 134 144 134 115 101 101 108 111 152 169 146 115 129 141 146 175 142 156 172 54 23 30 14 15 43 144 173 176 182 180 171 128 134 171 166 146 170 154 163 179 167 160 160 166 152 126 125 103 105 103 101 110 122 124 131 131 128 141 172 193 201 192 203 200 209 191 191 207 193 173 194 195 183 201 191 196 195 196 196 195 195 193 192 191 198 160 41 28 29 47 102 218 228 218 190 187 193 209 236 242 236 231 193 173 177 215 212 193 161 194 195 152 130 149 156 169 144 116 140 198 89 21 14 19 80 136 128 225 
125 118 115 121 123 127 106 33 30 20 54 181 168 176 146 113 136 132 155 165 129 135 122 122 121 106 100 102 124 150 158 155 154 163 153 133 139 128 121 169 115 15 22 42 31 21 100 186 195 192 195 200 202 203 206 196 175 129 109 21 74 95 112 138 156 159 185 195 197 204 199 201 209 209 211 209 205 208 204 205 210 206 203 198 200 196 188 191 192 194 196 200 195 200 196 196 197 198 199 201 202 201 204 193 202 193 200 211 114 19 31 36 49 121 227 230 212 201 191 193 196 218 246 252 245 242 236 237 218 206 201 161 149 141 170 197 203 176 119 145 199 119 34 17 6 40 125 145 130 225 
129 127 124 131 131 132 134 78 31 29 29 96 179 156 179 130 103 155 178 195 165 155 153 146 142 139 143 158 170 173 171 180 177 179 188 180 101 104 167 145 26 13 32 36 20 55 176 198 206 201 202 205 207 206 205 205 210 207 182 60 67 102 88 161 152 178 202 214 210 211 210 212 214 211 211 210 211 210 208 209 211 208 206 214 211 207 210 212 212 206 206 207 208 206 206 206 205 206 207 209 209 209 207 203 206 201 198 209 198 103 28 31 37 50 121 206 234 212 209 200 190 196 204 211 220 222 223 232 219 185 161 171 189 199 182 148 146 126 159 195 128 36 26 24 30 118 159 143 144 229 
137 138 137 141 142 144 150 147 70 34 35 43 87 181 172 180 184 150 135 163 180 183 184 186 189 186 186 192 196 193 196 196 200 212 190 127 122 162 129 23 17 29 42 13 38 159 213 212 210 213 213 213 213 215 210 220 207 217 232 132 63 131 64 181 233 228 222 224 217 219 219 220 223 220 220 220 220 220 220 219 218 217 218 220 217 214 215 217 216 211 212 214 213 213 213 212 212 213 213 213 212 211 209 210 204 208 207 198 217 198 99 31 18 39 33 88 180 217 223 215 211 205 201 200 199 201 204 196 203 203 199 204 186 177 141 132 145 199 174 91 32 22 20 29 124 176 159 155 157 224 
156 156 153 157 161 167 163 175 155 77 27 42 44 62 155 172 173 178 155 146 168 184 192 201 200 200 206 211 211 206 207 199 175 138 120 134 156 95 24 14 31 25 19 45 145 221 213 223 216 221 222 220 220 222 222 223 223 220 233 202 88 101 81 114 225 227 223 229 226 231 231 227 232 232 231 231 231 231 228 226 226 228 227 224 224 224 221 221 221 219 218 216 216 215 214 214 213 212 212 212 210 208 206 205 205 201 203 206 192 202 205 114 43 19 30 40 47 109 183 212 221 218 209 209 200 195 195 191 190 178 182 185 164 157 179 197 183 115 53 30 21 12 42 127 156 138 143 137 130 224 
180 174 176 179 178 182 182 184 196 172 97 32 42 42 40 106 153 173 185 189 183 185 201 204 205 211 202 176 160 166 157 122 109 139 147 120 55 7 28 25 20 24 42 158 232 220 225 226 227 230 230 228 227 225 233 230 227 229 226 235 125 75 93 79 173 220 215 220 224 228 229 228 224 222 222 220 218 218 215 212 210 205 199 195 194 194 190 188 186 181 177 174 171 167 164 163 159 154 154 154 154 150 150 151 150 150 150 147 150 156 158 160 116 55 25 18 33 29 55 90 137 172 199 205 203 206 208 200 192 200 196 184 185 179 153 111 59 27 22 12 21 70 118 124 124 113 116 108 109 220 
197 191 195 200 201 204 203 207 201 218 205 136 51 32 56 35 71 102 134 172 199 205 211 212 214 216 181 131 137 188 188 157 131 98 48 12 22 22 30 13 25 88 190 232 222 226 218 221 225 220 220 219 219 220 218 221 220 212 205 215 158 83 148 78 68 183 182 185 188 189 188 185 185 185 185 185 185 186 187 188 187 184 182 180 176 172 169 167 163 158 156 154 149 144 140 138 136 134 132 131 129 125 122 123 125 124 123 128 132 124 119 129 132 121 99 50 22 27 25 22 38 58 79 87 106 126 133 137 135 128 111 95 79 53 35 22 20 17 18 63 110 128 136 126 122 122 124 123 122 225 
213 208 210 213 212 215 215 207 220 222 209 221 191 112 49 51 42 43 50 61 84 110 137 156 169 170 153 134 119 98 74 54 26 11 15 23 20 20 16 60 148 216 208 199 179 180 173 159 159 157 155 153 153 153 157 159 161 165 168 171 160 83 124 122 37 142 182 175 175 176 180 183 185 185 188 190 193 195 195 195 197 198 199 200 198 195 195 196 196 194 190 187 183 179 176 175 172 168 164 161 156 150 145 142 139 131 123 121 119 118 117 109 110 114 111 116 90 53 38 34 23 23 18 32 27 24 30 29 30 24 21 22 15 12 20 19 35 79 121 144 137 135 140 131 131 128 126 123 117 225 
220 213 214 217 216 219 220 223 220 219 224 224 233 226 191 131 73 56 42 37 41 53 59 59 62 64 53 43 37 23 20 13 20 23 11 13 30 78 150 210 224 205 188 181 169 169 174 158 157 161 156 156 163 169 167 168 168 164 161 169 129 45 77 84 73 179 201 198 199 200 200 198 200 202 201 202 203 204 202 201 201 201 201 200 201 202 201 203 203 201 202 202 201 199 199 199 199 199 197 195 194 190 190 190 186 184 179 173 167 163 155 144 141 135 127 129 121 121 103 89 73 62 47 38 36 33 32 36 34 31 39 46 53 70 85 115 141 150 149 148 143 147 150 144 147 145 146 145 141 229 
227 220 221 224 223 226 226 225 224 226 229 232 229 229 236 238 214 178 140 95 68 53 36 41 46 44 44 42 37 32 25 26 27 36 68 106 149 195 202 178 176 176 171 169 169 166 164 166 166 167 165 163 156 133 129 148 172 186 189 190 178 109 46 100 187 203 202 202 202 201 199 196 198 200 199 199 199 200 199 198 199 199 200 200 199 198 198 198 198 198 200 202 202 203 204 204 205 207 207 207 207 208 208 208 209 210 209 208 211 213 209 209 210 207 204 203 201 198 197 196 195 192 188 182 178 176 178 180 179 178 183 196 204 202 204 201 196 197 197 195 197 197 198 201 197 198 201 196 196 239 
239 232 231 230 226 226 227 228 230 231 230 229 230 228 224 232 228 207 191 175 120 76 67 53 47 46 45 48 54 58 77 92 118 146 165 169 174 163 160 167 167 164 167 166 164 164 166 168 166 168 168 156 128 95 82 75 67 75 94 112 120 65 93 196 202 190 204 205 207 208 208 207 210 213 217 218 216 213 210 211 213 216 219 220 221 221 222 223 225 225 227 229 231 233 236 238 238 238 238 238 238 238 238 238 238 238 237 235 236 237 236 235 235 233 234 236 236 237 236 235 232 231 234 236 236 235 234 232 232 232 232 235 234 228 223 217 214 214 213 208 208 208 207 208 203 201 204 206 202 241 
240 235 236 237 231 231 233 234 235 235 234 233 238 235 233 237 219 183 164 158 157 163 166 165 164 165 167 172 177 181 181 181 175 161 154 156 156 156 164 169 165 168 172 172 171 169 165 162 162 162 165 166 165 176 178 173 163 147 134 126 134 164 219 230 225 232 234 236 239 243 245 247 244 244 248 249 247 244 241 241 242 244 245 245 246 247 247 248 248 249 247 246 246 245 245 244 243 243 243 243 243 243 243 242 243 243 242 241 239 239 240 236 233 234 234 232 233 232 231 230 229 229 230 230 229 227 227 225 222 224 226 224 222 223 221 222 221 217 214 214 213 211 210 209 207 208 203 208 205 240 
240 236 239 241 236 236 240 240 238 239 240 241 238 241 241 240 246 252 254 253 252 251 255 252 253 253 252 252 250 248 246 235 225 224 227 227 228 231 230 230 236 240 240 242 244 246 245 244 247 244 243 248 250 252 249 250 250 250 255 255 255 255 255 246 251 252 249 251 252 252 251 250 251 251 252 253 252 251 251 251 251 250 250 249 250 250 250 250 249 248 248 249 248 248 248 248 247 246 247 247 247 247 245 244 245 244 243 241 239 238 240 239 238 240 241 240 241 241 240 238 238 238 237 235 233 231 232 233 229 229 231 231 230 230 227 228 228 225 224 225 223 221 217 215 214 213 208 217 210 241 
