P2
150 65
255
251 251 251 251 251 251 251 251 251 251 251 251 251 251 251 251 251 251 251 251 251 251 251 251 251 251 251 251 251 251 251 251 251 251 251 251 251 251 251 251 251 251 251 251 251 251 251 251 251 251 251 251 251 251 251 250 250 250 250 250 250 250 250 250 250 250 250 250 250 250 249 248 248 249 249 249 249 249 249 249 249 249 249 249 249 249 249 249 248 248 247 247 248 248 248 248 248 248 248 247 247 247 247 247 249 247 247 249 248 248 240 178 209 252 247 242 252 249 250 250 249 249 249 248 248 247 247 246 246 246 246 246 246 246 246 247 247 247 247 247 247 247 247 246 246 245 245 246 246 246 
251 251 251 251 251 251 251 251 251 251 251 251 251 251 251 251 251 251 251 251 251 251 251 251 251 251 251 251 251 251 251 251 251 251 251 251 251 251 251 251 251 251 251 251 251 251 251 251 251 251 251 251 251 251 251 250 250 250 250 250 250 250 250 250 250 250 250 250 250 250 249 248 248 249 249 249 249 249 249 249 249 249 249 249 249 249 249 249 248 248 247 247 248 248 248 248 248 248 248 247 247 247 247 248 249 247 246 247 245 249 209 59 103 140 231 253 246 244 247 249 249 247 248 248 248 248 247 247 246 246 246 246 246 246 246 247 247 247 247 247 247 247 247 246 246 245 245 244 244 244 
251 251 251 251 251 251 251 251 251 251 251 251 251 251 251 251 251 251 251 251 251 251 251 251 251 251 251 251 251 251 251 251 251 251 251 251 251 251 251 251 251 251 251 250 250 250 250 250 250 250 250 250 250 250 250 250 250 250 250 250 250 250 250 250 250 250 250 250 250 250 249 248 248 249 249 249 249 249 249 249 249 249 249 249 249 249 249 249 248 248 247 247 248 248 248 248 248 248 248 247 247 247 247 248 245 244 246 249 251 255 164 28 108 79 90 204 255 251 248 246 247 250 250 249 249 248 248 247 247 247 247 247 247 247 247 247 247 247 247 247 247 247 247 246 246 245 245 247 247 247 
251 251 251 251 251 251 251 251 251 251 251 251 251 251 251 251 251 251 251 251 251 251 251 251 251 251 251 251 251 251 251 251 251 251 251 251 251 251 251 251 251 251 251 249 249 249 249 249 249 249 249 249 249 249 249 250 250 250 250 250 250 250 250 250 250 250 250 250 250 250 249 248 248 249 249 249 249 249 249 249 249 249 249 249 249 249 249 249 248 248 247 247 248 248 248 248 248 248 248 247 247 247 247 247 250 248 247 249 247 255 125 48 110 107 69 81 222 253 246 248 249 251 250 250 249 249 248 248 248 248 248 248 248 248 248 247 247 247 247 247 247 247 247 246 246 245 245 247 247 247 
251 251 251 251 251 251 251 251 251 251 251 250 251 252 251 251 251 252 251 251 251 251 251 251 251 251 251 250 251 251 251 251 252 251 250 250 250 251 251 251 251 251 251 249 249 249 249 249 249 250 250 250 250 250 250 250 250 250 250 250 250 250 250 250 250 250 250 250 250 250 249 248 248 249 249 249 249 249 249 249 249 249 249 249 249 249 249 249 249 248 248 248 248 248 248 248 248 248 248 247 247 247 247 248 249 245 244 247 243 252 158 31 74 81 86 89 199 255 243 248 253 245 249 250 250 249 248 248 248 248 248 248 248 248 248 247 247 247 247 247 247 247 247 246 246 245 245 246 246 246 
251 251 251 251 251 251 249 251 252 249 248 251 252 252 252 252 252 252 251 249 251 251 252 253 252 251 251 250 251 251 252 251 250 250 252 250 249 251 251 251 251 251 251 249 249 249 249 249 249 250 250 250 250 250 250 250 250 250 250 250 250 250 250 250 250 250 250 250 250 250 249 248 248 249 249 249 249 249 249 249 249 249 249 249 249 249 249 249 249 249 249 249 248 248 248 248 248 248 248 247 247 247 248 247 245 248 242 247 246 250 207 33 13 17 16 59 231 248 249 247 245 250 250 250 250 249 248 248 248 248 248 248 248 248 248 247 247 247 247 247 247 247 247 246 246 245 245 248 246 246 
251 251 251 251 251 251 253 251 250 251 252 253 252 251 251 251 251 251 251 250 250 250 250 249 250 251 251 252 251 251 251 250 246 249 254 253 250 251 251 251 251 251 251 250 250 250 250 250 250 250 250 250 250 250 250 250 250 250 250 250 250 250 250 250 250 250 250 250 250 250 249 248 248 249 249 249 249 249 249 249 249 249 249 249 249 249 249 249 249 249 249 249 248 248 248 248 248 248 248 248 247 247 248 247 244 250 241 244 244 241 187 191 207 196 188 76 93 241 255 243 247 249 251 248 248 248 248 248 248 249 249 249 249 249 249 247 247 247 247 247 247 247 247 246 246 245 245 248 246 246 
251 251 251 251 251 251 252 246 244 251 253 245 248 250 249 250 249 249 246 245 246 247 249 251 250 250 252 253 252 250 251 252 250 249 251 252 253 251 251 251 251 251 251 251 251 251 251 251 251 250 250 250 250 250 250 250 250 250 250 250 250 250 250 250 250 250 250 250 250 250 249 248 248 249 249 249 249 249 249 249 249 249 249 249 249 249 249 249 249 249 249 249 248 248 248 248 248 248 248 247 248 248 248 248 246 237 234 247 220 179 151 184 243 227 246 178 13 103 220 247 235 251 246 247 247 247 248 248 248 248 248 248 248 248 248 247 247 247 247 247 247 247 247 246 246 245 245 248 246 245 
251 251 251 251 251 251 245 252 255 255 253 255 253 253 255 254 255 255 255 255 255 255 255 251 249 250 252 252 251 249 247 249 250 245 241 248 253 251 251 251 251 251 251 251 251 251 251 251 251 250 250 250 250 250 250 250 250 250 250 250 250 250 250 250 250 250 250 250 250 250 250 250 248 249 250 249 248 246 246 247 247 247 246 248 250 250 249 249 249 248 248 249 247 249 249 248 247 247 247 248 247 247 246 246 246 241 245 232 137 31 43 62 86 48 74 41 7 2 112 238 224 243 247 247 246 248 247 249 248 246 246 246 246 246 246 247 247 247 247 247 247 247 247 246 246 245 245 248 246 245 
252 252 252 253 253 250 248 227 194 205 215 209 216 220 177 141 168 177 188 194 204 212 217 228 246 247 252 255 255 255 255 251 247 255 254 248 247 250 246 251 255 253 251 251 251 251 251 251 251 250 250 250 250 250 250 250 250 250 250 250 250 251 251 250 250 249 250 248 251 251 245 246 248 243 246 249 254 253 255 255 255 255 253 252 247 245 247 244 251 250 248 251 249 249 248 249 249 248 249 251 244 249 246 243 246 248 255 243 191 152 146 161 113 22 3 20 15 0 79 255 235 225 255 241 250 241 244 246 243 247 245 244 244 245 246 247 247 247 247 247 247 247 247 246 246 245 245 249 247 245 
252 252 252 253 253 249 246 237 169 152 168 175 180 184 98 59 63 52 80 87 98 103 106 118 124 126 142 145 149 150 138 141 187 200 225 236 247 247 251 252 252 251 252 251 251 251 251 251 251 250 250 250 250 250 250 250 250 250 250 250 250 251 251 249 249 251 252 254 250 247 245 245 253 255 254 240 224 214 211 208 207 207 208 226 248 253 255 255 252 248 248 245 247 251 250 246 248 253 251 248 247 247 245 245 251 202 203 252 255 212 168 149 228 204 69 8 35 36 89 188 213 198 201 231 248 241 249 248 244 247 248 248 248 246 246 247 247 247 247 247 247 247 247 246 246 245 245 249 247 244 
253 252 252 253 253 250 245 243 243 217 129 127 151 178 189 159 133 106 81 66 57 46 55 68 69 76 92 91 93 94 79 89 95 106 88 105 180 246 251 252 250 254 255 251 251 251 251 251 251 251 251 251 251 251 251 251 251 250 250 249 249 247 249 252 253 251 249 242 250 255 255 248 210 157 96 63 49 37 20 29 36 55 69 98 140 166 198 216 220 231 249 252 251 248 246 249 251 251 244 246 253 242 245 244 229 135 101 202 179 93 40 130 247 255 254 144 30 13 41 62 91 115 88 129 239 249 248 245 246 243 247 248 249 247 246 247 247 247 247 247 247 247 247 246 246 245 246 249 246 243 
253 252 252 254 253 249 248 250 243 251 240 123 34 47 80 128 170 173 183 197 193 161 131 89 58 49 52 44 33 48 54 83 71 54 42 49 131 250 251 250 251 255 251 251 251 251 251 251 251 252 252 252 252 252 252 252 252 250 250 249 248 249 249 248 248 245 242 255 255 217 149 78 32 29 40 60 61 98 109 93 56 48 36 54 63 81 113 127 159 176 187 191 222 237 250 252 249 248 244 246 248 242 255 210 132 96 83 40 17 17 30 163 252 234 248 255 218 116 31 16 57 78 88 69 99 104 129 226 251 244 245 247 247 249 249 247 247 247 247 247 247 247 247 246 246 245 245 248 245 242 
252 252 252 253 252 251 251 245 255 241 246 227 66 47 37 25 39 44 72 160 251 254 229 231 226 172 123 104 74 54 41 11 10 0 47 134 220 248 249 248 251 255 249 251 251 252 251 250 251 252 252 252 252 252 252 252 251 251 251 250 250 249 248 247 241 246 251 194 98 38 18 37 99 140 141 158 145 218 226 227 215 200 190 134 128 93 74 84 66 102 108 151 149 164 189 218 238 252 255 247 247 248 184 76 46 67 46 7 39 15 21 136 255 250 247 246 255 210 40 2 59 57 65 84 94 58 25 74 211 252 249 241 249 249 246 247 247 247 248 247 246 248 247 246 246 245 245 248 245 242 
252 252 252 252 252 252 247 252 238 245 247 246 113 16 17 31 41 49 65 78 92 134 168 187 209 213 167 105 90 59 80 39 53 181 228 255 255 244 249 248 245 249 251 249 250 253 252 249 248 250 251 251 251 251 252 253 252 250 249 250 252 252 242 242 255 203 108 76 98 93 46 48 48 46 23 20 29 89 122 144 182 234 204 205 223 181 212 140 157 135 133 127 117 96 75 70 83 106 174 234 255 238 120 70 52 17 20 59 85 103 110 68 185 201 246 241 250 145 4 27 83 60 52 32 56 98 113 53 63 181 249 239 245 245 249 249 246 246 248 247 245 249 248 246 246 244 245 248 246 243 
251 251 251 251 251 251 252 249 245 255 252 249 241 200 170 89 20 43 72 48 26 30 20 25 62 140 167 174 177 104 56 76 202 253 238 231 217 243 255 255 255 246 243 246 249 248 250 253 252 249 250 251 251 253 253 252 252 252 250 249 247 247 248 253 144 72 135 186 187 113 25 23 25 31 23 18 28 23 30 40 50 63 87 117 130 148 159 167 225 105 96 128 97 69 43 22 25 25 28 64 178 174 88 62 22 17 14 55 95 231 170 12 48 84 156 247 253 219 34 63 72 64 87 47 25 26 54 103 82 71 179 253 238 245 251 251 246 244 246 247 247 248 247 246 246 245 246 248 246 243 
251 251 250 250 250 250 246 252 236 120 67 78 166 245 205 61 14 6 17 23 29 44 31 50 66 71 96 194 201 193 177 151 132 226 224 85 88 133 151 185 231 242 252 255 255 255 252 254 248 249 249 248 249 250 251 247 250 255 255 250 243 243 241 169 119 193 176 102 43 6 11 15 8 29 30 20 28 27 36 46 30 29 17 18 23 39 45 87 114 40 35 101 24 3 14 15 17 18 15 28 60 55 49 86 48 97 85 120 154 48 17 13 54 73 70 255 255 250 165 47 28 78 77 81 105 123 111 78 109 104 98 178 255 243 244 251 246 245 247 247 247 246 246 246 246 246 247 247 246 244 
250 250 250 250 250 250 248 251 234 111 47 23 6 20 41 14 7 7 5 0 9 32 32 39 59 44 66 46 82 149 183 202 143 95 96 16 54 94 92 86 105 109 142 168 189 209 236 255 254 255 255 255 255 254 250 248 247 247 247 246 245 253 192 85 181 204 225 160 86 56 26 23 21 26 37 33 19 33 34 34 38 49 44 39 24 18 28 9 13 45 22 116 94 15 15 7 9 20 50 66 29 52 170 222 145 103 102 119 54 83 21 11 15 20 28 104 105 111 78 50 72 65 44 32 48 144 251 122 126 195 152 100 157 255 252 247 247 247 248 247 245 246 246 246 246 246 247 247 246 244 
251 252 253 252 252 252 249 244 253 251 220 202 168 73 74 47 40 18 3 11 12 16 71 75 51 31 44 23 25 36 60 106 143 127 102 48 9 14 38 70 74 81 78 78 77 82 92 113 139 162 179 198 210 228 244 251 254 255 255 253 255 251 115 128 110 28 132 246 248 210 179 99 55 55 54 45 28 17 26 25 37 42 44 41 43 47 31 28 36 29 45 84 39 18 22 33 52 61 150 196 170 209 209 144 86 84 97 139 101 99 87 0 9 10 4 0 4 21 53 73 60 27 29 31 36 26 117 156 9 74 183 195 119 166 253 252 249 243 251 253 244 246 246 246 246 246 247 246 246 245 
253 253 252 251 251 250 248 249 244 241 139 149 113 64 26 48 49 43 31 14 26 35 172 247 191 100 29 54 48 38 35 30 42 73 118 137 145 99 43 22 12 21 28 50 70 74 76 77 65 61 60 63 73 85 95 105 124 129 132 140 130 141 86 138 29 11 8 92 225 244 234 234 96 60 76 67 73 51 28 29 27 28 31 32 33 38 39 40 49 27 51 29 5 43 67 108 147 219 246 206 153 98 65 66 45 22 24 85 148 17 15 13 24 23 44 59 70 69 52 35 27 31 26 23 25 32 28 88 89 0 13 97 192 157 209 255 244 248 250 248 247 246 246 246 246 246 247 245 246 245 
253 252 250 249 250 250 247 250 247 247 143 102 106 28 9 7 0 10 25 18 28 32 198 250 254 250 189 87 39 34 49 43 33 34 20 34 65 106 140 127 84 43 17 4 9 21 35 58 77 81 84 84 78 73 73 74 67 69 76 74 76 42 82 56 3 23 45 33 54 187 242 237 232 105 29 45 159 199 125 108 82 83 60 51 47 31 42 55 29 15 0 26 87 164 207 249 243 175 110 56 32 25 31 34 15 10 14 5 15 15 35 35 52 53 63 49 42 36 29 32 38 39 36 39 46 28 15 26 109 62 0 0 54 169 231 252 243 252 249 244 249 246 246 246 246 246 247 245 246 245 
250 248 248 249 251 255 243 239 246 241 216 130 85 49 30 17 78 156 152 169 191 238 249 248 246 245 255 248 175 82 44 51 50 48 36 30 10 13 28 50 90 102 111 74 38 17 8 4 21 27 42 63 76 83 85 89 81 85 93 93 101 88 53 24 18 41 38 49 50 53 142 211 250 231 106 22 30 188 254 238 199 117 78 81 65 38 15 20 30 74 142 219 255 252 254 225 122 61 65 70 72 67 68 47 56 35 37 50 55 48 41 40 41 37 35 32 38 41 48 43 36 38 38 39 42 38 46 45 57 84 108 92 61 101 226 250 249 249 248 247 245 246 246 246 246 246 247 245 246 245 
250 253 251 245 252 252 255 252 241 254 227 57 37 52 33 32 60 98 93 76 48 64 212 255 242 249 245 250 251 238 135 41 24 49 57 50 39 36 18 17 11 15 46 81 102 84 62 41 29 15 7 6 15 31 46 55 72 71 69 79 67 73 87 50 33 45 56 32 45 44 27 73 138 218 250 106 7 38 166 172 83 41 26 13 10 42 108 157 224 243 255 226 227 243 224 81 80 85 97 120 115 105 98 101 58 47 54 25 37 30 45 33 32 37 35 35 44 32 21 29 39 31 37 43 33 48 41 37 44 50 87 130 149 167 222 251 250 245 246 248 245 247 247 246 246 246 247 245 246 245 
248 229 231 248 255 183 137 205 251 241 90 15 31 53 67 51 39 29 39 63 50 57 214 255 250 253 252 249 247 252 249 198 112 31 24 51 48 43 56 44 31 38 34 44 42 45 67 56 51 50 36 29 20 5 0 2 14 25 32 43 54 53 64 62 43 39 34 47 27 33 41 30 48 74 146 232 121 13 30 24 2 9 46 104 186 227 255 255 224 163 110 117 160 245 101 35 104 137 164 157 133 151 113 69 28 28 33 39 16 30 91 39 19 28 36 38 38 40 34 28 26 29 27 22 31 32 33 50 49 35 28 75 145 175 247 251 247 245 244 246 247 247 247 246 246 245 246 245 246 245 
199 149 184 213 199 200 183 167 175 124 7 6 32 182 216 220 214 217 211 229 253 243 245 246 254 250 247 251 252 245 243 250 251 191 78 19 24 47 43 43 51 48 44 46 45 53 49 38 48 44 51 57 53 47 50 37 19 8 1 0 9 18 23 33 31 22 37 42 34 45 41 34 51 55 57 77 62 37 84 67 91 172 225 251 255 248 196 131 58 22 5 42 136 127 165 202 188 147 104 66 54 24 28 20 19 25 28 8 64 98 39 25 28 27 21 24 36 41 52 68 64 33 22 21 29 20 41 67 58 48 49 35 149 248 240 250 247 246 246 246 247 247 247 246 246 245 246 245 246 245 
141 53 124 149 43 138 252 254 234 189 111 34 163 255 255 255 250 255 255 252 253 250 252 248 249 248 249 252 244 246 246 239 243 252 248 176 73 34 30 51 33 42 48 37 43 45 46 53 42 43 40 37 44 49 44 52 63 61 59 48 24 18 3 5 12 0 28 47 41 37 37 45 40 27 36 51 48 115 196 231 255 255 254 237 168 92 24 0 0 14 62 126 94 82 201 224 141 109 128 114 99 52 11 14 15 32 36 45 145 238 188 160 116 93 76 50 37 30 31 43 47 36 32 30 17 30 24 31 89 50 51 59 149 234 251 247 247 247 247 247 247 247 247 246 246 245 246 245 246 245 
249 229 156 37 60 87 117 162 224 252 252 189 117 136 189 246 255 238 241 250 247 248 252 252 250 245 234 253 255 255 253 247 247 246 255 255 250 116 22 33 46 33 36 68 41 52 32 29 45 40 47 48 41 41 43 35 30 40 42 48 67 56 45 23 27 83 131 151 125 62 37 40 40 65 144 218 242 246 255 255 234 183 108 44 0 0 20 70 146 194 235 239 130 24 79 238 240 239 215 179 66 5 13 47 23 0 29 48 50 73 63 120 187 229 200 144 123 97 56 26 16 35 31 28 25 11 36 47 93 83 163 229 251 251 247 246 247 248 248 247 247 247 247 246 246 245 246 245 246 245 
250 234 243 222 199 143 75 57 76 129 188 254 255 197 129 121 194 246 255 246 242 253 247 247 240 242 202 154 163 207 248 239 254 255 193 240 233 92 164 122 42 58 107 92 132 214 201 122 89 58 49 29 30 26 35 39 42 38 27 60 68 38 12 38 82 140 179 211 220 215 208 203 203 235 252 240 239 227 182 107 46 5 0 27 91 143 204 234 243 230 224 235 214 98 52 133 244 241 184 106 26 13 7 32 46 8 0 59 97 67 53 36 35 72 86 148 135 90 81 83 53 35 39 71 98 58 34 96 164 233 255 252 251 249 245 248 248 247 246 246 246 248 246 245 245 245 247 245 246 245 
250 239 236 248 239 254 208 148 90 55 62 108 184 236 255 216 143 135 176 236 255 249 255 250 255 255 254 221 127 57 140 205 145 193 132 170 165 161 193 64 91 101 94 170 249 255 252 252 216 178 147 123 88 42 7 0 12 17 7 14 21 51 116 67 157 238 237 229 226 207 221 229 236 231 218 210 190 131 21 0 10 50 52 107 225 250 229 224 215 227 231 220 255 183 33 30 158 173 135 89 35 11 24 25 14 7 127 167 127 118 109 81 18 3 16 16 25 16 10 14 11 18 14 67 81 140 168 250 253 245 242 244 246 250 248 246 247 247 247 247 248 248 246 245 245 245 247 245 246 245 
254 237 242 248 245 243 254 254 236 182 109 62 54 85 143 221 255 219 173 126 167 238 226 197 165 140 122 87 89 46 20 154 139 31 58 156 139 182 126 92 126 124 238 255 247 242 243 247 251 253 230 209 176 157 126 60 22 0 40 83 80 182 212 155 238 249 242 251 244 239 231 232 217 210 236 219 209 213 165 96 61 83 95 41 70 146 221 246 222 237 230 246 235 253 146 37 41 165 255 203 46 10 11 8 10 142 240 243 248 215 186 173 110 49 27 19 31 30 30 23 16 8 0 42 89 173 255 238 249 247 249 253 245 242 248 248 248 247 247 246 246 248 246 245 245 245 247 245 246 245 
245 255 205 111 199 242 248 246 247 255 246 204 134 81 55 72 124 205 251 251 185 141 125 78 38 31 34 33 84 73 69 76 167 171 172 96 83 121 80 62 78 198 255 251 255 254 255 255 255 242 252 255 243 214 181 160 138 83 87 125 109 136 50 86 229 245 230 235 250 253 248 238 249 224 187 160 143 151 87 44 33 18 41 83 83 57 82 172 244 240 239 236 248 229 144 104 112 115 211 154 1 25 6 22 173 240 233 240 236 233 245 249 246 227 190 86 29 38 43 39 31 85 140 158 209 242 252 250 253 255 255 255 255 255 255 243 242 245 249 249 250 248 246 245 245 245 246 245 246 245 
248 243 233 173 212 239 243 239 249 247 248 252 253 220 163 105 74 75 126 185 244 245 213 169 126 92 65 78 145 144 118 46 136 132 142 162 69 35 2 0 4 8 86 161 194 215 174 172 199 255 252 235 251 255 247 229 198 167 155 110 73 5 0 117 255 214 238 241 162 104 237 217 120 40 25 26 24 29 33 6 16 23 30 41 51 94 90 54 85 200 248 245 205 125 106 92 99 90 75 130 177 42 31 195 243 244 235 236 238 240 239 236 233 243 255 211 73 25 33 37 74 178 183 150 124 95 70 74 100 108 113 133 164 193 220 251 255 253 244 246 245 247 249 247 243 246 247 246 246 244 
250 245 253 255 251 245 246 254 246 239 246 247 249 242 246 243 198 148 101 87 114 152 220 240 231 177 128 92 57 64 70 80 97 141 98 53 15 0 13 3 11 6 0 0 27 20 42 105 116 93 180 255 232 238 245 248 255 143 125 157 155 98 35 138 245 225 227 240 119 69 141 54 39 73 54 41 67 66 107 104 51 44 21 21 34 32 62 133 97 69 116 168 95 97 131 96 50 112 67 112 79 78 215 245 239 237 238 238 238 243 240 238 244 242 233 245 219 72 106 186 241 103 0 0 0 0 0 0 7 24 50 52 52 49 62 91 143 212 244 255 251 247 246 247 245 249 242 247 246 243 
251 249 250 251 249 247 250 248 245 254 246 247 245 252 246 243 250 248 214 169 113 71 84 119 181 233 238 217 146 91 63 26 0 15 7 10 5 4 5 9 6 11 27 20 0 2 24 55 98 40 41 158 252 247 239 241 239 79 19 60 75 164 181 160 180 230 212 217 226 143 21 63 92 160 143 59 74 46 61 111 157 97 104 58 37 36 35 33 110 138 20 59 103 114 92 113 76 103 75 28 103 228 241 239 245 241 241 241 237 240 242 236 245 233 248 254 187 86 199 235 203 172 14 6 19 30 79 105 67 65 79 97 113 109 111 94 78 56 104 184 236 247 245 248 250 244 246 247 245 243 
250 251 251 253 254 249 248 254 247 235 255 207 115 147 217 253 254 250 250 251 229 184 118 76 69 90 159 211 253 224 166 108 52 2 13 8 8 12 4 8 1 23 24 1 47 44 23 94 137 106 68 45 101 210 254 248 255 220 113 6 10 22 63 156 192 209 212 202 171 51 49 82 177 183 94 52 33 56 35 73 62 63 111 140 145 79 38 47 37 66 30 19 37 45 57 49 65 31 15 36 208 247 245 237 236 237 239 240 235 235 244 231 246 254 222 113 11 13 73 208 163 210 76 32 78 103 112 114 119 68 29 27 31 21 33 53 79 77 23 18 175 255 246 237 253 249 244 247 245 244 
248 251 248 250 253 246 252 253 235 255 201 81 78 60 53 94 171 233 249 254 245 254 241 204 137 88 63 74 131 206 249 239 181 120 30 9 5 1 5 9 7 33 7 53 52 46 121 154 173 130 81 97 57 35 100 153 116 147 226 116 26 12 13 128 224 206 202 216 116 27 57 164 177 91 31 34 21 24 41 92 69 33 32 50 98 124 145 79 61 41 26 32 35 40 24 27 4 113 115 7 85 237 236 242 243 239 241 241 241 247 236 255 242 142 30 1 13 16 25 176 227 164 132 21 36 30 15 26 24 42 39 46 48 32 24 14 1 12 22 72 92 160 250 249 247 243 248 247 245 244 
249 251 249 247 249 252 250 246 250 200 89 68 91 49 15 9 14 72 147 217 240 254 244 241 247 221 156 111 57 73 117 186 241 249 192 137 39 23 9 13 20 16 53 18 72 142 150 131 112 148 169 122 112 69 53 16 0 0 46 147 76 70 0 97 221 206 194 209 96 8 88 196 111 44 39 38 34 25 33 16 25 47 51 43 38 44 79 87 54 27 26 26 52 104 132 137 67 104 181 66 23 138 245 237 240 241 242 242 242 238 250 186 54 0 3 14 38 22 25 57 210 187 197 106 19 63 26 31 30 37 32 16 25 15 26 26 19 11 24 74 79 74 117 223 249 240 247 245 247 243 
249 249 249 249 247 245 245 255 213 96 74 78 40 16 27 27 38 36 28 110 194 195 223 255 255 248 251 223 182 105 69 63 96 155 243 239 220 134 38 10 18 22 29 104 184 154 146 88 24 171 213 165 168 156 92 70 94 62 50 16 46 56 0 89 217 198 205 206 110 14 112 143 48 39 47 42 49 38 31 28 25 26 32 41 47 47 36 52 34 39 41 32 29 26 80 140 154 100 72 62 26 53 203 244 247 241 242 242 241 249 133 4 4 18 13 13 20 23 23 48 152 229 172 203 70 47 49 25 41 27 94 99 59 16 1 13 23 23 17 14 39 80 82 86 194 255 242 243 248 246 
253 248 246 250 251 247 250 234 104 102 89 31 16 27 25 36 63 43 116 189 217 191 153 157 216 232 251 247 240 239 193 121 77 61 146 122 159 155 64 29 6 17 109 196 181 169 77 5 10 97 192 195 159 193 200 102 37 6 56 48 20 64 53 84 218 200 202 215 102 29 64 55 38 42 40 38 41 40 43 46 26 22 22 20 20 40 42 44 51 53 44 50 46 46 26 41 105 162 166 93 56 10 95 249 247 241 240 231 238 143 0 8 8 22 9 4 16 8 34 91 93 187 215 195 144 0 39 39 21 123 234 255 234 202 142 59 9 11 33 26 15 23 67 83 73 184 254 245 249 242 
253 251 247 247 249 253 250 154 96 84 45 15 23 19 39 66 36 137 251 204 120 53 23 46 141 188 189 235 245 244 255 242 213 163 52 58 150 104 103 61 41 137 182 192 166 64 5 3 37 177 172 175 185 214 175 78 17 22 14 47 55 84 129 129 195 212 194 180 165 35 31 25 39 36 34 39 41 36 29 28 28 8 19 52 92 140 160 134 78 37 55 44 50 51 58 45 39 72 122 177 149 86 27 130 245 255 213 251 183 12 3 18 19 10 2 3 9 8 14 37 64 70 179 185 195 105 29 35 36 131 219 227 252 255 255 244 170 55 9 24 17 18 9 55 80 73 188 254 248 245 
249 253 253 247 245 252 215 104 116 62 10 22 9 47 68 34 148 255 247 248 255 225 195 147 217 121 102 142 182 238 243 253 255 255 181 176 162 111 105 116 132 163 147 124 21 0 0 7 0 125 135 110 163 106 81 34 26 18 14 77 102 115 146 147 187 205 97 49 88 94 13 34 17 12 19 17 19 25 28 20 12 50 111 167 202 211 213 227 164 23 41 34 58 99 78 30 51 33 50 89 156 160 118 39 57 193 255 227 29 3 12 18 12 3 1 9 0 41 82 34 93 80 67 177 189 224 84 71 92 80 102 100 161 199 235 252 255 234 122 4 25 24 13 15 63 78 85 218 247 247 
246 249 251 249 253 255 171 101 91 32 16 4 25 72 49 95 248 249 241 244 244 248 132 97 201 153 115 115 109 132 159 219 240 241 255 164 97 212 193 110 85 103 157 76 29 87 95 127 153 148 156 142 128 100 116 122 91 78 95 98 101 86 92 132 208 214 104 58 104 66 24 27 23 24 21 21 11 13 20 30 30 135 155 149 135 153 190 197 173 45 30 39 32 38 32 42 44 41 35 10 56 91 121 82 68 210 255 96 0 22 20 9 3 8 13 0 38 213 211 36 61 77 72 105 189 215 188 78 95 99 118 111 96 109 145 209 239 249 243 156 3 21 25 6 23 63 71 125 250 245 
248 247 249 246 254 244 144 116 59 10 18 12 52 66 36 210 255 240 249 238 247 136 91 124 159 227 179 141 127 113 84 101 145 189 131 96 115 185 221 235 215 132 88 96 131 166 147 149 152 171 178 155 189 198 138 131 87 127 126 54 83 98 105 112 192 224 216 205 154 22 52 23 26 30 28 26 21 23 19 25 67 157 151 181 162 175 213 182 59 24 30 38 9 32 31 32 37 33 35 41 8 36 36 56 229 252 234 116 56 10 9 4 5 5 6 20 181 255 219 64 20 71 85 65 152 184 236 150 91 58 152 108 115 102 110 120 166 233 242 255 130 1 32 15 17 33 80 67 203 251 
253 248 250 244 254 217 120 100 49 12 4 18 77 51 100 245 237 252 242 245 167 87 107 44 111 179 28 13 36 98 138 142 154 183 191 220 229 221 206 180 188 243 233 159 96 86 116 133 137 129 133 163 204 200 177 175 135 97 78 100 105 91 108 73 195 229 217 226 151 7 35 34 25 25 31 28 24 27 22 31 133 204 187 185 191 196 216 175 33 18 54 23 6 32 34 34 38 36 25 35 29 57 43 151 255 237 252 241 69 0 5 5 4 14 0 136 255 231 83 35 37 44 65 72 94 200 187 224 49 0 27 58 111 149 139 113 110 158 248 241 247 65 6 26 17 14 63 76 127 254 
249 245 251 246 255 204 117 72 30 4 4 14 76 47 155 255 249 252 245 219 83 95 55 1 79 170 122 166 190 206 191 230 244 228 235 230 234 230 230 232 196 183 175 215 238 201 121 80 139 148 133 119 127 158 132 153 182 201 209 166 149 134 126 133 165 232 221 243 166 23 42 26 39 30 38 37 28 25 25 37 127 217 209 227 248 238 239 119 40 29 36 17 12 33 34 35 37 32 39 34 28 40 32 209 255 246 255 194 7 1 4 2 4 0 36 218 217 119 25 37 40 25 49 112 140 224 191 209 194 53 25 88 43 136 195 97 120 118 175 254 255 176 10 11 20 7 44 76 87 221 
248 247 250 243 255 187 125 83 15 8 2 19 75 34 173 255 248 248 255 170 97 89 6 98 225 194 142 137 160 112 191 229 215 228 214 223 215 229 231 210 233 226 235 196 177 200 255 235 155 119 98 94 120 139 132 83 22 30 109 166 148 189 170 135 209 240 220 241 174 111 81 40 37 37 41 37 33 40 38 31 44 76 89 110 148 184 208 80 31 32 28 11 21 42 39 35 37 32 37 35 36 35 25 197 255 240 255 141 0 6 3 5 8 0 95 238 39 0 30 51 36 26 36 61 89 167 241 180 242 91 57 180 66 14 62 122 123 109 131 228 245 236 55 0 26 4 23 73 70 179 
251 244 244 243 255 179 103 78 16 7 1 26 73 20 167 255 248 252 245 174 111 79 73 130 171 127 0 8 115 42 154 235 225 229 236 239 242 227 218 226 194 218 157 112 74 27 54 156 234 240 192 128 109 130 124 83 25 63 140 86 43 57 40 69 102 222 129 190 226 139 81 64 36 42 40 37 36 35 41 40 32 31 33 31 22 21 56 34 32 32 24 22 37 45 38 34 36 32 33 28 34 34 21 146 254 242 255 110 1 3 3 5 8 1 145 252 110 26 38 59 91 114 32 9 45 90 213 218 235 151 136 255 128 19 25 128 137 116 112 200 251 255 101 0 20 16 9 73 65 167 
248 248 249 248 254 203 97 65 15 1 7 18 67 20 154 255 246 242 254 209 113 113 15 76 207 178 156 175 211 181 175 214 214 194 199 140 100 197 255 223 176 128 28 0 0 7 8 0 35 118 204 232 233 224 169 99 68 50 79 128 62 9 12 27 56 55 143 92 67 47 23 61 44 30 26 26 34 25 20 29 30 27 24 32 39 33 29 33 30 33 24 31 38 34 26 27 29 25 26 21 30 38 29 90 243 247 255 95 1 4 11 0 13 7 168 255 255 125 94 96 190 135 18 27 65 129 145 192 88 133 76 49 45 34 62 156 123 106 132 183 240 255 122 6 7 4 10 69 67 164 
250 253 248 247 247 220 116 82 32 3 8 0 75 20 110 255 249 254 201 105 82 135 82 4 81 133 116 103 90 79 50 42 109 135 90 8 2 42 145 228 255 182 74 10 8 9 9 5 8 0 75 195 156 195 233 244 194 157 84 34 11 23 18 9 0 11 30 14 12 26 7 96 83 23 36 25 23 24 24 22 20 27 28 19 18 22 20 16 20 22 24 23 21 20 23 25 24 26 28 24 30 35 35 39 210 255 255 113 0 6 4 10 7 0 167 255 244 168 102 85 192 107 15 62 117 174 56 95 45 85 185 191 140 33 50 81 114 120 124 193 242 255 124 0 2 8 4 57 67 163 
251 247 243 250 250 236 123 89 48 6 11 3 52 41 41 195 218 113 28 25 84 136 132 88 54 49 0 0 0 36 65 87 148 106 46 18 16 4 0 42 86 43 40 7 3 14 8 3 4 3 163 255 218 163 145 188 204 132 43 47 45 56 55 57 48 49 48 31 103 134 75 74 54 28 31 25 29 24 22 32 26 30 24 21 11 27 34 25 35 16 9 14 13 24 22 22 26 24 24 23 27 31 39 24 132 255 254 121 0 8 6 8 5 3 122 254 249 200 92 105 116 101 45 7 152 255 92 47 207 195 172 222 101 10 27 107 160 116 131 210 255 255 78 0 8 2 12 56 71 176 
250 248 248 250 248 252 168 81 68 17 9 0 25 53 7 27 32 30 59 58 31 85 134 137 132 113 77 65 82 127 162 154 129 110 90 44 15 11 3 7 1 5 5 8 2 10 15 4 9 37 212 249 236 255 230 84 7 21 25 33 20 17 21 14 37 28 20 38 37 54 32 19 24 14 8 26 5 19 13 14 20 12 20 25 60 38 29 30 34 18 109 101 52 24 21 22 16 24 24 24 25 28 34 31 45 227 255 157 10 5 6 0 14 0 63 255 249 246 140 110 104 140 65 0 28 70 21 131 246 179 20 59 13 7 0 51 128 120 128 138 223 203 44 0 6 6 22 62 82 202 
252 250 250 252 250 252 203 90 87 32 2 12 7 5 6 10 46 56 38 71 140 211 239 189 151 145 147 136 138 137 113 77 75 107 140 162 183 150 80 23 9 12 14 3 2 24 16 1 1 108 255 243 254 203 70 21 45 47 18 25 36 140 46 138 61 117 125 15 137 100 98 131 30 101 130 25 99 70 97 60 45 147 72 17 80 32 22 34 37 15 52 189 173 55 18 27 23 27 23 21 21 21 22 24 32 134 255 224 18 8 6 9 5 12 11 153 235 124 56 125 106 115 37 10 18 11 59 45 62 45 16 46 63 62 37 100 115 133 75 7 39 30 2 4 16 8 32 59 105 229 
253 251 251 253 251 250 237 144 69 62 22 0 9 10 5 10 11 20 152 246 255 254 241 255 243 232 205 190 167 156 158 180 217 236 252 255 255 255 193 39 13 16 4 2 15 15 9 0 21 198 255 238 129 40 44 48 38 55 44 44 36 120 230 173 72 233 225 61 202 237 230 226 42 211 250 64 190 183 221 104 118 255 156 18 20 19 20 38 20 25 12 12 19 16 19 24 24 23 25 24 21 20 19 24 29 60 231 250 109 0 14 11 16 9 2 15 31 26 25 59 103 111 117 99 129 110 89 36 15 32 54 100 94 153 142 120 146 143 61 0 14 6 10 9 20 4 61 60 150 255 
252 250 250 252 251 245 255 218 93 68 54 7 6 8 15 9 3 22 145 255 254 242 240 238 246 251 254 255 255 255 255 255 253 248 251 255 243 175 60 34 6 9 6 12 24 11 6 0 124 255 195 84 21 34 41 48 43 36 49 44 39 40 217 112 106 193 190 130 159 204 195 189 109 197 186 155 186 157 179 135 174 186 199 58 48 42 36 33 34 34 32 33 28 23 27 29 25 23 26 25 25 24 25 27 29 15 154 255 201 9 19 9 16 4 11 8 35 39 50 138 179 124 122 119 125 145 173 130 126 143 146 142 144 126 130 135 177 236 243 117 3 14 2 24 4 31 59 80 222 255 
250 250 251 252 251 249 247 254 174 67 64 44 8 9 17 4 45 61 20 94 193 246 255 249 252 247 246 246 246 248 248 249 252 255 255 200 128 42 4 16 8 4 14 28 11 11 0 88 232 197 56 36 49 42 35 40 36 45 36 42 43 38 62 52 62 44 55 66 56 57 62 53 66 55 38 72 69 46 62 62 71 38 66 52 13 23 29 28 26 27 28 25 21 23 19 18 19 15 16 15 14 12 11 11 20 7 45 226 255 125 0 17 16 4 18 8 6 10 182 255 250 227 160 130 116 103 113 121 124 133 129 118 133 141 153 208 240 255 247 104 9 12 4 14 13 59 61 152 255 249 
250 251 252 252 251 251 248 250 250 141 77 51 42 8 6 13 9 42 70 45 45 95 153 215 246 255 255 255 255 255 255 242 219 177 136 93 49 26 16 1 6 14 16 7 11 0 51 218 255 215 216 229 213 224 214 214 214 219 212 212 214 202 203 201 203 193 205 196 197 193 192 189 186 197 187 189 189 191 194 185 189 191 179 178 185 179 171 172 174 172 166 159 155 152 149 145 143 143 142 144 148 153 157 160 167 155 159 229 247 240 74 0 12 13 1 9 15 8 69 201 255 255 250 233 187 156 151 143 133 138 144 157 166 215 243 255 255 194 54 3 9 11 5 21 44 47 102 238 255 247 
250 251 252 252 251 250 251 242 237 252 131 64 42 37 18 8 11 8 17 48 58 54 44 54 86 110 141 154 150 141 131 123 104 86 71 41 17 10 8 9 7 9 17 15 1 52 206 251 245 255 254 249 255 254 255 255 255 255 255 255 255 255 255 255 255 255 255 255 255 255 255 255 255 255 255 255 255 255 255 255 255 255 255 255 255 255 255 255 255 255 255 255 255 255 255 255 255 255 255 255 255 255 255 255 255 255 255 248 243 254 219 44 0 17 15 10 7 22 1 22 101 199 251 255 255 255 245 235 234 237 241 251 255 255 251 191 96 7 0 6 18 13 9 49 45 89 226 247 244 251 
250 251 252 252 251 250 252 248 245 245 243 160 55 44 54 25 15 4 6 1 10 34 45 43 39 38 40 42 53 62 62 57 47 28 13 9 9 8 7 16 9 2 5 0 64 210 251 241 247 246 251 249 251 251 248 248 244 249 249 251 248 249 249 245 244 245 248 245 247 247 244 248 248 243 247 248 247 245 244 244 243 242 244 243 246 248 247 243 243 245 246 246 248 246 245 245 244 245 247 247 247 247 247 246 247 247 245 247 254 245 248 209 52 0 21 10 15 2 20 12 0 18 66 134 187 222 242 250 252 250 244 223 188 132 67 12 0 17 5 21 12 18 55 34 78 208 253 247 251 253 
251 252 252 252 251 251 246 251 254 245 255 253 195 77 36 32 31 17 18 4 6 0 3 8 4 10 12 14 16 9 4 8 9 8 4 4 12 10 12 5 9 0 8 116 235 255 241 249 251 252 245 250 249 247 247 250 245 250 249 251 248 248 248 250 249 251 247 249 247 247 247 245 246 245 248 249 249 248 247 250 247 247 247 247 246 247 251 248 248 249 250 249 249 249 249 249 247 247 249 249 249 249 249 248 246 248 250 250 245 250 243 251 216 78 0 4 15 4 1 13 21 13 0 0 0 22 45 51 59 54 40 27 0 0 0 13 20 11 4 11 26 41 36 105 214 252 244 250 254 248 
253 252 251 250 251 252 249 249 250 252 249 248 255 228 139 59 22 26 23 15 12 8 4 8 3 0 4 2 1 5 9 6 3 4 8 14 11 4 16 0 2 59 185 255 249 246 243 242 248 250 250 250 249 248 248 249 249 249 249 249 249 247 246 246 246 246 246 246 247 247 247 246 246 248 248 245 246 248 248 246 247 248 249 249 247 247 247 248 248 248 248 247 247 248 248 248 248 247 246 246 245 245 245 245 244 246 248 249 249 249 247 242 255 236 133 22 0 11 12 9 11 14 17 16 14 12 4 1 3 0 0 11 15 15 16 13 10 8 24 25 27 39 145 237 255 241 251 253 250 250 
250 249 248 247 248 248 245 245 247 247 247 246 243 249 246 210 131 53 14 2 8 16 10 10 8 7 8 7 6 6 8 8 4 5 5 0 0 0 20 75 169 253 255 235 243 244 239 238 243 242 241 241 241 240 240 241 241 240 239 239 238 240 240 239 238 238 237 239 240 240 240 240 241 240 237 235 236 238 237 236 236 235 234 236 238 239 237 237 237 237 237 236 235 237 238 239 240 240 242 242 242 242 242 242 245 243 240 240 244 248 239 250 240 242 255 203 94 19 0 0 9 6 10 7 3 13 17 11 12 14 9 10 12 12 6 20 18 16 26 26 101 205 246 249 247 240 248 251 250 248 
248 247 246 245 245 246 244 244 245 245 244 243 243 242 237 246 252 220 149 85 38 9 0 2 1 1 1 0 1 1 0 1 2 3 14 31 57 124 179 224 237 212 206 207 209 208 203 201 201 195 195 195 195 195 196 191 192 193 195 196 197 199 200 201 202 204 206 203 203 204 205 205 206 203 199 196 196 197 196 197 200 201 202 199 195 194 197 197 197 196 196 196 199 200 202 203 203 204 208 209 211 213 216 217 217 218 221 223 225 226 225 226 228 227 231 244 243 198 117 44 8 0 2 3 6 11 7 4 10 15 13 7 7 9 8 3 13 45 106 200 250 255 245 246 252 246 253 250 248 244 
248 247 245 245 245 245 245 245 245 244 242 241 236 237 236 237 220 218 222 206 174 131 86 41 16 17 13 13 13 9 9 7 12 34 73 114 142 156 150 155 139 158 160 158 161 162 161 161 160 156 156 156 157 158 158 157 157 158 159 161 161 161 162 163 164 166 166 169 170 171 172 173 175 172 167 164 164 165 164 162 162 163 162 160 158 158 159 159 159 159 158 158 158 159 160 160 159 159 161 161 162 163 164 164 162 163 165 166 166 166 165 172 169 171 174 166 170 180 184 172 130 69 25 3 0 0 0 0 0 0 0 0 0 2 32 84 144 205 245 243 237 239 243 246 236 246 244 244 243 241 
248 247 247 247 247 249 246 246 247 246 245 244 241 244 245 246 244 237 228 225 226 228 226 219 211 207 204 201 200 199 197 195 194 195 196 195 194 199 204 209 204 215 214 218 220 221 219 218 217 219 219 219 220 220 220 220 220 220 220 220 220 221 220 219 218 220 220 223 224 225 225 226 225 225 225 223 222 221 220 219 218 218 217 217 218 219 220 219 219 220 220 219 218 218 218 219 218 218 219 221 220 218 218 218 220 219 218 219 220 218 217 214 216 213 212 208 204 210 206 199 207 206 191 173 160 159 157 156 157 153 150 153 159 174 193 223 230 219 227 231 238 239 237 243 239 242 244 247 247 245 
249 249 249 249 250 252 251 251 251 250 248 247 246 250 249 245 248 245 243 249 253 251 249 255 255 255 255 255 255 255 255 255 255 255 255 254 251 255 250 251 255 249 255 251 250 249 251 255 255 253 253 253 253 253 253 253 253 253 253 253 253 254 253 251 251 252 253 253 252 253 253 253 252 254 255 254 254 252 252 250 249 249 250 249 249 249 250 250 250 249 250 250 250 250 250 250 250 250 250 252 252 250 251 252 251 249 249 251 252 250 248 251 253 254 252 249 251 251 252 255 254 250 255 255 255 255 255 255 255 255 255 255 255 255 253 245 250 252 247 246 247 249 249 248 250 250 251 250 249 247 
