P2
150 65
255
255 255 255 255 255 255 255 255 255 255 255 255 255 255 255 255 255 255 255 255 255 255 255 255 255 255 255 255 255 255 255 255 255 255 255 255 255 255 255 255 255 255 255 255 255 255 255 255 255 255 255 255 255 255 255 255 255 255 255 255 255 255 255 255 255 255 255 255 255 255 255 255 255 255 255 255 255 255 255 255 255 255 255 255 251 254 243 211 245 251 252 254 253 252 252 253 254 255 255 255 255 255 255 255 255 255 255 255 255 255 255 255 255 255 255 255 255 255 255 255 255 255 255 255 255 255 255 255 255 255 255 255 255 255 255 255 255 255 255 255 255 255 255 255 255 255 255 255 255 255 
255 255 255 255 255 255 255 255 255 255 255 255 255 255 255 255 255 255 255 255 255 255 255 255 255 255 255 255 255 255 255 255 255 255 255 255 255 255 255 255 255 255 255 255 255 255 255 255 255 255 255 255 255 255 255 255 255 255 255 255 255 255 255 255 255 255 255 255 255 255 255 255 255 255 255 255 255 255 255 255 255 255 255 255 255 255 222 145 234 255 252 252 255 251 248 252 255 255 255 255 255 255 255 255 255 255 255 255 255 255 255 255 255 255 255 255 255 255 255 255 255 255 255 255 255 255 255 255 255 255 255 255 255 255 255 255 255 255 255 255 255 255 255 255 255 255 255 255 255 255 
255 255 255 255 255 255 255 255 255 255 255 255 255 255 255 255 255 255 255 255 255 255 255 255 255 255 255 255 255 255 255 255 255 255 255 255 255 255 255 255 255 255 255 255 255 255 255 255 255 255 255 255 255 255 255 255 255 255 255 255 255 255 255 255 255 255 255 255 255 255 255 255 255 255 255 255 255 255 255 255 255 255 255 255 250 255 229 118 217 243 236 249 252 249 253 250 251 255 255 255 255 255 255 255 255 255 255 255 255 255 255 255 255 255 255 255 255 255 255 255 255 255 255 255 255 255 255 255 255 255 255 255 255 255 255 255 255 255 255 255 255 255 255 255 255 255 255 255 255 255 
255 255 255 255 255 255 255 255 255 255 255 255 255 255 255 255 255 255 255 255 255 255 255 255 255 255 255 255 255 255 255 255 255 255 255 255 255 255 255 255 255 255 255 255 255 255 255 255 255 255 255 255 255 255 255 255 255 255 255 255 255 255 255 255 255 255 255 255 255 255 255 255 255 255 255 255 255 255 255 254 254 255 254 255 250 255 237 139 217 228 210 247 253 252 250 250 252 255 255 255 255 255 255 255 255 255 255 255 255 255 255 255 255 255 255 255 255 255 255 255 255 255 255 255 255 255 255 255 255 255 255 255 255 255 255 255 255 255 255 255 255 255 255 255 255 255 255 255 255 255 
255 255 255 255 255 255 255 255 255 255 255 255 255 255 255 255 255 255 255 255 255 255 255 255 255 255 255 255 255 255 255 255 255 255 255 255 255 255 255 255 255 255 255 255 255 255 255 255 255 255 255 255 255 255 255 255 255 255 255 255 255 255 255 255 255 255 255 255 255 255 255 255 255 255 255 255 255 255 253 254 252 249 252 250 247 251 246 188 175 156 119 165 247 236 251 252 252 255 255 255 255 255 255 255 255 255 255 255 255 255 255 255 255 255 255 255 255 255 255 255 255 255 255 255 255 255 255 255 255 255 255 255 255 255 255 255 255 255 255 255 255 255 255 255 255 255 255 255 255 255 
255 255 255 255 255 255 255 255 255 255 255 255 255 255 255 255 255 255 255 255 255 255 255 255 255 255 255 255 255 255 255 255 255 255 255 255 255 255 255 255 255 255 255 255 255 255 255 255 255 255 255 255 255 255 255 255 255 255 255 255 255 255 255 255 255 255 255 255 255 255 255 255 255 255 255 255 255 255 254 250 245 255 252 239 252 254 255 144 41 51 90 32 196 253 247 240 255 253 255 254 254 255 255 255 255 255 255 255 255 255 255 255 255 255 255 255 255 255 255 255 255 255 255 255 255 255 255 255 255 255 255 255 255 255 255 255 255 255 255 255 255 255 255 255 255 255 255 255 255 255 
255 255 255 255 255 255 255 255 255 255 255 255 255 255 255 255 255 255 255 255 255 255 255 255 255 255 255 255 255 255 255 255 255 255 255 255 255 255 255 255 255 255 255 255 255 255 255 255 255 255 255 255 255 255 255 255 255 255 255 255 255 255 255 255 255 255 255 255 255 255 255 255 255 255 255 255 255 255 255 251 251 252 248 255 234 158 147 98 18 18 82 77 105 201 255 246 250 253 255 254 254 255 255 255 255 255 255 255 255 255 255 255 255 255 255 255 255 255 255 255 255 255 255 255 255 255 255 255 255 255 255 255 255 255 255 255 255 255 255 255 255 255 255 255 255 255 255 255 255 255 
255 255 255 255 255 255 255 255 255 255 255 255 255 255 255 255 255 255 255 255 255 255 255 255 255 255 255 255 255 255 255 255 255 255 255 255 255 255 255 255 255 255 255 255 255 255 255 255 255 255 255 255 255 255 255 255 255 255 255 255 255 255 255 255 255 255 255 255 255 255 255 255 255 255 255 255 255 255 252 253 255 250 255 212 80 91 134 115 39 75 106 66 118 100 199 255 242 253 255 255 253 253 255 255 255 255 255 255 255 255 255 255 255 255 255 255 255 255 255 255 255 255 255 255 255 255 255 255 255 255 255 255 255 255 255 255 255 255 255 255 255 255 255 255 255 255 255 255 255 255 
255 255 255 255 255 255 255 255 255 255 255 255 255 255 255 255 255 255 255 255 255 255 255 255 255 255 255 255 255 255 255 255 255 255 255 255 255 255 255 255 255 255 255 255 255 255 255 255 255 255 255 255 255 255 255 255 255 255 255 255 255 255 255 255 255 255 255 255 255 255 255 255 255 255 255 255 255 255 254 251 251 245 255 179 83 115 51 59 148 158 103 136 117 77 108 235 246 252 255 255 253 253 254 255 255 255 255 255 255 255 255 255 255 255 255 255 255 255 255 255 255 255 255 255 255 255 255 255 255 255 255 255 255 255 255 255 255 255 255 255 255 255 255 255 255 255 255 255 255 255 
255 255 255 255 255 255 255 255 255 255 255 255 255 255 255 255 254 254 255 255 255 255 255 255 255 255 255 255 255 255 255 255 255 255 255 255 255 255 255 255 255 255 255 255 255 255 255 255 255 255 255 255 255 255 255 255 255 255 255 255 255 255 255 255 255 255 255 255 255 255 255 255 255 255 255 255 255 255 255 250 255 247 216 173 126 67 17 139 214 176 152 108 139 167 148 205 250 246 251 249 249 251 252 255 255 255 255 255 255 255 255 255 255 255 255 255 255 255 255 255 255 255 255 255 255 255 255 255 255 255 255 255 255 255 255 255 255 255 255 255 255 255 255 255 255 255 255 255 255 255 
255 255 255 255 255 255 255 255 255 255 255 255 255 255 255 254 254 254 255 255 255 255 255 255 255 255 255 255 255 255 255 255 255 255 255 255 255 255 255 255 255 255 255 255 255 255 255 255 255 255 255 255 255 255 255 255 255 255 255 255 255 255 255 255 255 255 255 255 255 255 255 255 255 255 255 255 255 255 254 246 230 180 139 75 81 160 114 147 212 202 72 109 171 162 176 166 206 255 247 245 252 244 253 249 253 255 255 255 255 255 255 255 255 255 255 255 255 255 255 255 255 255 255 255 255 255 255 255 255 255 255 255 255 255 255 255 255 255 255 255 255 255 255 255 255 255 255 255 255 255 
255 255 255 255 255 255 255 255 255 255 255 255 255 255 254 254 253 253 255 255 255 255 255 255 255 255 255 255 255 255 255 255 255 255 255 255 255 255 255 255 255 255 255 255 255 255 255 255 255 255 255 255 255 255 255 255 255 255 255 255 255 255 255 255 255 255 255 255 255 255 255 255 255 255 255 255 255 255 251 244 125 34 64 128 233 255 219 160 134 139 139 145 129 137 137 131 132 225 252 252 247 250 251 253 254 255 255 254 254 255 255 255 255 255 255 255 255 255 255 255 255 255 255 255 255 255 255 255 255 255 255 255 255 255 255 255 255 255 255 255 255 255 255 255 255 255 255 255 255 255 
255 255 255 255 255 255 255 255 255 255 255 255 253 253 253 253 253 252 255 255 255 255 255 255 255 255 255 255 255 255 255 255 255 255 255 255 255 255 255 255 255 255 255 255 255 255 255 255 255 255 255 255 255 255 255 255 255 255 255 255 255 255 255 255 255 255 255 255 255 255 255 255 255 255 255 255 255 255 252 253 214 132 193 255 250 240 246 239 215 151 107 180 200 162 140 137 45 155 251 248 251 242 253 254 254 254 254 253 254 255 255 255 255 255 255 255 255 255 255 255 255 255 255 255 255 255 255 255 255 255 255 255 255 255 255 255 255 255 255 255 255 255 255 255 255 255 255 255 255 255 
255 255 255 255 255 255 254 254 253 254 254 250 255 255 253 253 250 252 255 254 255 255 255 255 255 255 255 255 255 255 255 255 255 255 255 255 255 255 255 255 255 255 255 255 255 255 255 255 255 255 255 255 255 255 255 255 255 255 255 255 255 255 255 255 255 255 255 255 255 255 255 255 255 255 255 255 255 255 252 250 255 255 255 249 248 246 244 245 255 248 168 95 197 194 215 210 63 66 187 255 244 249 246 250 251 254 253 252 254 253 254 254 255 250 255 255 255 255 255 255 255 255 255 255 255 255 255 255 255 255 255 255 255 255 255 255 255 255 255 255 255 255 255 255 255 255 255 255 255 255 
255 255 255 255 255 255 253 246 251 246 254 255 232 208 237 255 243 246 252 253 255 255 255 254 255 255 255 255 255 255 255 255 255 255 255 255 255 255 255 255 255 255 255 255 255 255 255 255 255 255 255 255 255 255 255 255 255 255 255 255 255 255 255 255 255 255 255 255 255 255 255 255 255 255 255 255 255 255 254 251 251 250 245 251 252 249 251 242 244 234 255 211 120 179 206 254 183 36 113 215 239 247 243 247 252 251 243 249 255 249 249 250 253 248 252 255 255 255 255 255 255 255 255 255 255 255 255 255 255 255 255 255 255 255 255 255 255 255 255 255 255 255 255 255 255 255 255 255 255 255 
255 255 255 255 255 255 253 249 249 251 231 160 92 72 90 187 248 250 251 254 255 255 255 254 255 255 255 255 255 255 255 255 255 255 255 255 255 255 255 255 255 255 255 255 255 255 255 255 255 255 255 255 255 255 255 255 255 255 255 255 255 255 255 255 255 255 255 255 255 255 255 255 254 253 253 253 253 253 254 254 253 251 249 253 247 248 255 252 247 226 131 201 243 156 53 197 225 147 83 138 172 222 255 243 237 252 255 240 226 244 242 252 248 254 252 255 255 255 255 255 255 255 255 255 255 255 255 255 255 255 255 255 255 255 255 255 255 255 255 255 255 255 255 255 255 255 255 255 255 255 
255 255 255 255 255 255 252 255 250 255 164 57 88 91 89 71 170 250 252 253 255 255 255 254 255 255 255 255 255 255 255 255 255 255 255 255 255 255 255 255 255 255 255 255 255 255 255 255 255 255 255 255 255 255 255 255 255 255 255 255 255 255 255 255 255 255 255 255 255 255 255 255 254 254 254 254 254 254 251 250 250 251 253 248 254 248 245 199 132 147 205 90 207 255 164 90 232 161 81 79 99 199 251 245 254 232 151 103 99 205 255 249 252 247 254 255 255 255 255 255 255 255 255 255 255 255 255 255 255 255 255 255 255 255 255 255 255 255 255 255 255 255 255 255 255 255 255 255 255 255 
255 255 255 255 255 255 252 247 253 254 194 54 58 56 90 76 88 216 255 252 255 255 255 254 255 255 255 255 255 255 255 255 255 255 255 255 255 255 255 255 255 255 255 255 255 255 255 255 255 255 255 255 255 255 255 255 255 255 255 255 255 255 255 255 255 255 255 255 255 255 255 255 254 253 253 253 254 254 251 253 254 251 253 251 232 154 119 84 87 46 151 205 110 225 255 161 99 133 138 53 77 191 197 252 198 77 105 196 218 213 237 252 250 246 255 255 255 255 255 255 255 255 255 255 255 255 255 255 255 255 255 255 255 255 255 255 255 255 255 255 255 255 255 255 255 255 255 255 255 255 
255 255 255 255 255 255 252 253 250 250 255 108 30 55 39 94 80 138 252 249 253 254 254 254 255 255 255 255 255 255 255 255 255 255 255 255 255 255 255 255 255 255 255 255 255 255 255 255 255 255 255 255 255 255 255 255 255 255 255 255 255 255 255 255 255 255 254 254 254 254 254 255 254 251 253 252 248 251 250 254 246 255 244 176 109 78 86 80 95 109 61 141 177 138 237 255 215 95 74 104 115 120 163 189 108 182 248 176 166 159 226 246 250 254 252 255 255 255 255 255 255 255 255 255 255 255 255 255 255 255 255 255 255 255 255 255 255 255 255 255 255 255 255 255 255 255 255 255 255 255 
255 255 255 255 255 255 255 252 253 251 253 224 43 40 44 57 81 75 217 255 249 254 253 253 254 255 255 255 255 255 255 255 255 255 255 255 255 255 255 255 255 255 255 255 255 255 255 255 255 255 255 255 255 255 255 255 255 255 255 255 255 255 255 255 255 255 254 254 254 254 254 255 251 254 250 254 246 240 246 186 157 180 125 85 83 91 103 110 109 88 81 78 93 67 148 255 188 89 63 71 97 106 161 174 214 137 126 121 88 123 214 250 250 250 252 255 255 255 255 255 255 255 255 255 255 255 255 255 255 255 255 255 255 255 255 255 255 255 255 255 255 255 255 255 255 255 255 255 255 255 
255 255 255 255 255 255 254 250 252 254 245 255 129 27 52 35 70 84 143 249 255 251 245 255 255 255 255 255 255 255 255 255 255 255 255 255 254 254 254 254 254 254 255 255 255 255 255 255 255 255 255 255 255 255 255 255 255 255 255 255 255 255 255 255 255 255 255 254 255 255 254 255 252 241 252 249 245 255 219 112 104 77 81 65 70 45 39 67 84 93 95 85 50 46 56 117 173 78 30 21 67 47 103 168 183 92 119 153 114 187 230 253 249 252 255 255 255 255 255 255 255 255 255 255 255 255 255 255 255 255 255 255 255 255 255 255 255 255 255 255 255 255 255 255 255 255 255 255 255 255 
255 255 255 255 255 255 255 251 247 250 254 255 224 53 37 50 56 83 115 219 254 244 253 253 255 255 255 255 255 255 255 255 255 255 255 255 253 253 252 252 253 253 255 255 255 255 255 255 255 255 255 255 255 255 255 255 255 255 255 255 255 255 255 254 254 254 254 255 254 254 255 255 253 247 247 246 255 170 93 82 67 53 30 45 60 99 134 175 194 197 200 200 173 96 46 32 79 109 34 30 40 49 147 137 151 168 151 150 134 207 246 252 252 253 252 255 255 255 255 255 255 255 255 255 255 255 255 255 255 255 255 255 255 255 255 255 255 255 255 255 255 255 255 255 255 255 255 255 255 255 
255 255 255 255 255 255 253 254 254 249 253 249 255 154 41 37 36 64 83 194 255 243 252 250 254 252 251 253 252 252 252 251 253 253 252 255 251 252 255 255 254 250 254 255 254 255 254 255 255 255 255 255 255 255 255 255 255 255 255 255 255 253 253 255 254 253 255 253 254 253 250 251 253 255 250 237 178 71 40 52 47 93 138 163 171 172 141 114 82 74 72 118 157 211 88 37 41 86 39 11 10 31 149 159 119 171 154 80 95 199 249 247 250 254 252 255 255 255 255 255 255 255 255 255 255 255 255 255 255 255 255 255 255 255 255 255 255 255 255 255 255 255 255 255 255 255 255 255 255 255 
254 254 254 255 255 255 254 254 254 255 254 254 249 241 87 13 43 38 105 255 252 253 248 255 255 255 255 255 255 255 255 255 255 255 255 255 255 249 225 216 245 255 252 249 255 248 249 252 254 255 255 255 255 255 254 255 254 253 255 254 254 251 247 248 248 254 254 237 248 247 242 255 240 210 133 85 71 84 122 148 170 173 122 97 78 42 50 48 60 72 59 33 20 89 66 18 29 5 20 34 18 11 32 162 184 142 161 190 222 239 246 255 247 250 255 255 255 255 255 255 255 255 255 255 255 255 255 255 255 255 255 255 255 255 255 255 255 255 255 255 255 255 255 255 255 255 255 255 255 255 
252 253 253 254 254 254 253 253 253 253 253 252 248 245 194 103 29 78 178 159 127 108 115 117 124 155 184 180 157 148 160 144 135 128 119 99 96 77 52 49 109 192 252 245 249 247 249 253 254 255 255 255 255 255 252 254 253 252 255 255 250 251 252 249 250 245 240 246 245 249 250 189 115 82 87 120 158 166 141 113 78 60 54 71 107 135 149 147 155 168 142 101 48 14 48 32 23 32 15 9 22 35 11 22 194 173 137 160 179 217 249 245 244 254 253 255 255 255 255 255 255 255 255 255 255 255 255 255 255 255 255 255 255 255 255 255 255 255 255 255 255 255 255 255 255 255 255 255 255 255 
253 254 254 255 255 255 255 255 255 255 255 255 243 239 252 163 156 150 118 14 34 50 51 55 46 51 60 62 54 52 50 53 58 52 56 47 29 25 39 38 36 48 141 247 250 248 252 248 255 255 255 255 255 255 251 252 252 250 253 251 245 254 255 255 255 255 245 255 231 165 115 93 111 138 150 127 84 56 51 59 72 71 71 67 122 159 157 168 153 166 155 147 47 33 48 23 29 26 16 34 40 46 59 59 74 156 116 162 133 120 247 250 250 236 253 255 255 255 255 255 254 253 254 254 254 254 254 254 254 254 254 253 254 255 255 255 255 255 255 255 255 255 255 255 255 255 255 255 255 255 
253 253 254 254 255 254 254 254 254 255 254 254 249 236 245 159 154 159 54 57 27 43 34 44 55 44 44 57 72 87 82 88 84 69 86 86 61 54 39 35 49 32 33 131 237 255 247 248 253 255 255 254 254 254 250 252 252 252 255 255 255 246 217 167 132 155 223 188 94 99 128 121 109 84 50 43 56 66 65 63 69 47 48 54 71 124 126 107 85 91 57 47 25 39 34 21 24 16 24 11 57 27 40 59 128 117 173 180 172 109 169 253 254 240 254 255 255 255 255 255 254 253 253 253 253 253 253 253 253 253 253 253 254 255 255 255 255 255 255 255 255 255 255 255 255 255 255 255 255 255 
249 246 244 250 245 249 250 252 250 248 251 250 246 243 247 178 110 105 46 45 43 47 73 57 50 46 39 39 38 35 52 58 56 57 74 79 73 71 68 57 57 72 56 26 125 227 253 242 250 255 254 255 255 255 255 255 254 238 220 178 138 101 48 55 62 59 57 76 107 104 70 65 47 53 88 82 62 53 65 60 68 57 59 58 77 71 46 54 46 44 35 28 45 52 53 34 36 9 11 7 20 42 96 94 146 143 142 205 177 145 101 183 255 248 250 251 254 255 255 248 255 252 252 253 253 252 251 253 254 254 254 252 252 255 253 254 255 255 255 255 255 255 255 255 255 255 255 255 255 255 
246 246 255 249 248 252 250 252 250 253 255 255 255 255 255 189 98 114 67 34 56 56 45 54 43 39 43 49 47 39 26 18 19 32 41 41 34 36 39 42 50 62 80 58 35 93 201 255 243 247 247 239 227 211 186 153 112 70 42 42 49 58 80 102 99 33 26 64 53 37 43 82 109 94 97 83 93 104 100 90 104 93 85 81 85 70 59 62 65 69 58 63 77 67 76 20 14 7 8 23 29 180 255 239 229 161 112 210 240 181 143 91 193 252 247 250 252 248 254 251 250 250 248 251 255 251 248 251 251 250 251 250 250 253 252 251 252 254 255 255 255 255 255 255 255 255 255 255 255 255 
245 216 161 184 218 222 237 229 220 222 220 209 195 197 174 162 134 129 105 30 15 36 25 20 26 25 26 30 33 32 32 23 20 23 21 17 14 11 12 16 24 30 47 73 67 54 66 101 78 90 86 72 70 50 38 31 42 66 73 79 93 115 111 87 39 29 20 8 34 50 57 42 46 56 54 48 55 43 38 35 29 31 34 34 28 34 52 53 51 64 67 60 47 26 7 84 60 3 15 28 79 248 249 245 255 167 203 255 241 230 185 147 90 191 255 244 254 252 249 255 252 251 250 248 246 250 251 250 254 255 255 251 248 249 252 253 255 253 250 255 255 255 255 255 255 255 255 255 255 255 
223 144 113 87 113 118 119 119 112 108 104 95 98 84 70 77 95 114 127 86 16 10 20 14 7 5 5 4 5 5 18 17 24 29 23 30 42 38 24 16 20 30 35 48 81 94 76 87 83 88 81 78 90 92 95 116 113 96 100 95 91 75 64 47 0 14 58 128 190 197 136 55 59 68 35 78 86 11 5 12 21 63 49 27 40 47 48 52 66 59 59 74 124 162 103 225 167 7 21 38 153 255 244 249 252 160 208 255 243 254 229 179 133 100 197 255 245 249 251 245 248 255 253 255 254 248 239 233 229 224 228 235 239 251 255 248 250 254 253 255 255 255 255 255 255 255 255 255 255 255 
188 81 96 132 118 79 74 71 61 60 62 53 45 45 52 48 85 129 118 122 114 103 74 86 88 90 90 77 60 49 32 10 6 18 20 20 36 40 46 33 27 32 31 21 32 41 58 66 76 76 78 78 72 71 67 66 56 49 55 45 32 49 13 16 79 184 249 236 207 172 155 151 149 156 127 61 5 0 19 21 16 53 17 17 54 114 154 145 174 155 122 117 159 200 238 255 206 28 29 68 204 253 248 250 247 164 211 254 249 245 255 215 175 140 87 216 255 243 255 255 252 231 206 180 165 160 155 143 138 135 136 144 138 159 232 252 247 248 251 255 255 255 254 255 255 255 255 255 255 255 
198 92 47 49 75 74 71 69 70 71 67 57 76 70 100 74 64 91 115 117 120 105 70 52 45 51 63 76 93 107 106 101 71 39 34 42 52 36 30 34 31 23 31 32 27 17 20 18 16 21 25 31 33 34 42 39 45 41 39 42 36 16 47 170 219 225 195 156 179 183 171 197 166 111 59 60 95 122 151 172 162 141 112 100 60 41 68 167 207 200 185 176 148 138 167 211 175 36 17 87 236 253 250 248 255 171 188 255 246 247 246 252 205 172 128 95 152 255 227 190 153 128 129 129 122 104 92 79 68 71 65 79 121 187 236 252 255 254 251 242 247 254 250 249 254 255 255 255 255 255 
211 121 116 64 27 46 43 54 51 56 130 152 165 121 57 93 153 121 127 143 145 144 140 129 108 98 99 114 126 124 125 165 150 133 128 126 125 104 91 68 53 31 28 29 30 24 29 31 27 30 34 37 36 35 32 28 34 29 31 33 19 54 166 222 174 161 174 173 167 179 189 149 74 88 133 168 162 196 221 228 235 213 196 151 136 149 110 68 114 169 185 192 218 208 173 162 121 26 2 140 255 246 248 245 255 182 172 255 249 251 247 248 250 112 162 128 121 128 105 119 107 87 62 35 20 14 10 10 18 17 16 28 52 86 102 124 169 206 234 255 252 245 249 241 250 253 253 253 253 253 
242 237 234 234 121 5 29 22 10 64 180 162 105 127 133 124 156 144 133 143 139 137 142 134 140 137 131 130 127 122 126 144 119 121 121 128 130 143 133 126 116 107 65 22 18 17 15 23 20 21 25 30 35 38 44 38 38 49 66 66 23 34 30 86 156 179 211 183 157 159 105 75 126 161 149 109 157 193 195 205 192 211 205 193 133 125 176 143 60 105 119 147 172 198 219 213 84 24 12 190 255 240 255 254 253 219 157 246 243 250 250 245 247 172 61 87 76 48 113 58 28 5 19 26 33 36 36 37 36 31 37 38 37 53 53 55 66 78 104 163 225 255 248 243 251 255 255 255 255 255 
243 240 254 189 27 18 20 45 0 55 166 144 156 167 143 51 91 95 88 91 89 87 81 80 69 67 64 56 49 47 46 40 40 44 36 54 60 52 91 143 156 168 128 38 2 4 2 2 28 30 22 24 34 44 57 60 65 65 71 56 15 13 11 39 162 152 145 141 120 111 101 103 155 149 122 124 114 123 177 201 202 198 137 140 129 140 134 149 144 107 96 121 102 96 125 164 27 10 57 220 254 246 253 248 253 255 147 204 255 245 243 253 240 179 96 39 123 154 175 69 29 34 51 70 86 101 119 119 121 125 115 93 75 63 45 45 48 44 65 48 84 151 225 255 245 255 255 254 255 255 
249 246 247 126 14 30 165 221 166 145 200 184 164 110 37 12 10 16 22 10 15 14 10 15 15 9 6 12 11 0 5 15 12 0 13 10 14 21 58 155 158 130 131 112 54 8 9 9 30 43 25 19 32 40 32 40 46 42 48 48 15 16 14 9 49 107 112 135 139 70 79 112 145 135 127 132 121 119 123 119 133 135 117 112 155 120 129 122 135 35 107 127 141 99 81 88 17 16 113 255 250 246 253 247 253 255 202 146 255 239 255 224 120 70 67 60 153 208 173 157 53 49 115 138 169 198 193 219 214 218 215 205 206 171 152 130 77 47 31 43 48 40 75 184 255 250 250 252 252 252 
248 251 237 109 36 120 255 251 255 255 202 60 1 6 13 12 12 12 14 12 14 15 9 4 4 10 9 9 14 14 9 8 20 15 16 19 7 42 126 131 195 190 52 38 34 16 4 5 36 71 41 35 46 42 29 36 44 52 59 58 24 0 0 6 22 67 121 132 126 109 24 106 192 171 153 151 165 187 117 37 26 97 177 168 157 150 140 178 120 67 128 122 85 76 123 56 41 61 188 255 248 251 253 242 252 252 253 137 197 255 234 101 41 34 23 19 19 137 198 170 153 42 143 232 215 251 219 236 243 237 237 239 244 227 233 212 182 159 89 36 36 40 39 57 146 250 242 252 253 244 
250 255 204 93 63 210 248 241 249 141 19 0 25 14 11 24 11 12 11 11 11 33 45 35 29 25 10 2 5 7 12 5 11 12 13 12 31 123 160 150 196 80 6 5 4 10 21 31 23 65 43 54 53 38 37 42 48 49 53 63 53 110 83 118 177 26 26 83 123 124 84 54 161 219 214 200 163 193 206 187 176 199 178 179 187 203 207 148 51 125 119 90 20 194 124 13 85 85 241 251 250 253 250 250 246 247 254 218 141 215 107 31 35 8 14 21 18 20 157 192 168 138 70 186 247 252 237 223 248 226 236 235 236 246 255 224 236 234 185 144 57 28 47 34 46 126 243 254 246 253 
253 237 114 79 114 230 251 244 105 9 22 16 12 20 16 12 19 44 92 133 149 169 169 173 175 175 155 112 64 26 8 1 8 7 10 26 124 150 159 130 41 11 16 8 13 17 16 13 11 62 47 51 57 56 51 52 53 41 37 58 59 181 132 170 116 10 19 39 56 107 156 94 93 160 183 206 225 194 199 201 201 212 190 209 203 148 144 39 100 110 98 41 150 198 17 57 70 124 253 251 255 245 253 241 249 249 250 252 211 105 29 21 7 26 13 27 64 50 39 168 181 160 147 110 227 241 246 229 238 212 239 233 244 248 244 237 250 238 239 219 188 95 39 36 33 26 144 247 251 247 
255 169 70 117 174 242 252 94 0 32 17 19 15 18 30 67 141 182 174 181 165 152 116 115 101 112 119 98 68 43 64 59 11 4 24 109 151 161 116 42 22 29 13 9 8 6 7 13 10 55 68 58 53 60 67 68 68 66 62 68 80 95 38 40 92 84 39 205 174 33 139 163 86 119 81 45 95 134 144 147 136 117 118 76 70 84 59 72 110 74 80 74 223 101 53 49 44 188 255 247 250 251 253 241 247 253 250 246 138 29 25 17 21 21 35 86 165 219 89 68 198 182 155 142 212 255 247 244 222 229 231 247 255 252 236 226 241 233 251 222 223 218 113 51 42 38 38 165 255 245 
255 215 172 219 247 254 118 16 26 22 19 22 25 42 138 182 171 143 156 135 79 63 21 26 15 18 40 40 37 24 51 81 72 62 107 143 147 113 43 10 15 32 16 3 8 5 8 4 16 72 85 57 65 73 55 47 46 38 29 39 37 0 26 134 188 29 124 253 255 186 97 123 92 39 126 77 13 5 3 57 62 3 17 42 122 137 32 102 82 149 95 189 182 102 141 42 54 199 254 246 249 251 250 253 248 245 253 171 23 20 13 15 30 27 103 184 209 255 229 149 155 196 164 160 176 169 143 135 125 154 186 199 220 255 233 229 233 235 242 243 237 212 220 137 44 53 31 70 211 255 
245 251 255 249 253 194 42 34 21 19 22 21 45 172 180 137 159 159 75 38 61 60 92 93 76 62 19 20 36 46 41 42 79 145 144 134 104 41 14 14 6 30 21 7 13 7 12 11 7 30 11 53 163 65 2 8 12 0 22 0 12 129 188 156 150 129 179 213 222 212 155 69 73 22 58 151 116 74 29 11 21 25 73 128 169 135 62 48 180 153 129 247 99 119 100 61 95 232 247 250 245 247 249 248 250 253 233 57 22 16 10 29 28 77 185 227 236 223 233 210 83 97 190 110 165 155 126 110 123 123 132 126 123 170 223 225 230 244 235 245 245 248 224 189 127 54 44 36 129 249 
250 245 249 249 244 92 43 23 14 31 12 60 169 177 108 165 162 61 63 111 126 132 158 135 135 113 74 93 60 32 34 84 160 127 126 119 49 18 4 19 12 14 25 16 15 6 11 9 8 5 9 103 101 58 13 21 16 6 18 97 164 136 92 125 144 121 94 126 115 32 67 126 33 40 69 95 113 74 8 6 8 9 53 114 114 112 80 88 222 96 227 159 115 167 66 43 190 255 241 252 251 242 255 251 249 255 139 11 32 6 30 21 37 140 197 226 255 246 178 36 30 23 113 192 120 187 181 167 140 163 150 167 136 140 142 213 251 239 247 252 250 238 227 225 186 62 51 36 73 214 
253 253 242 255 188 56 35 16 23 22 30 143 170 132 173 180 77 92 138 133 109 103 106 119 117 104 149 209 143 72 68 128 177 181 127 40 15 24 3 17 16 8 31 12 2 9 20 12 13 8 8 46 38 22 53 25 0 102 157 123 99 134 176 149 109 106 107 95 69 58 40 18 16 35 62 65 130 117 78 38 59 87 135 126 119 106 15 74 103 145 78 114 85 62 54 73 225 253 247 253 246 243 177 181 255 229 58 21 17 15 23 20 101 184 172 148 199 252 140 54 51 31 40 153 175 109 187 180 183 174 178 171 211 132 137 138 235 251 241 244 237 246 247 213 197 129 46 39 41 153 
252 249 249 255 129 60 22 25 19 20 92 184 139 132 227 143 115 135 114 99 77 73 89 95 74 50 35 80 170 175 106 139 197 214 48 23 21 10 4 15 5 12 25 17 26 7 20 6 24 9 30 130 108 74 80 107 151 130 104 140 208 185 125 104 107 112 83 81 107 62 6 13 18 13 54 152 213 140 98 113 138 172 190 124 125 153 60 14 138 56 132 109 12 35 20 154 255 235 248 254 238 157 105 151 255 171 29 37 9 28 27 37 147 225 250 222 163 146 77 80 72 86 59 126 177 167 113 179 159 150 145 122 183 196 137 119 188 247 242 239 236 233 239 228 220 172 53 33 39 108 
253 247 255 237 103 39 20 29 21 41 135 173 121 156 235 129 114 107 185 179 98 102 99 117 101 35 3 13 73 98 71 156 207 90 24 36 30 15 11 8 18 5 12 143 165 87 73 67 22 16 24 69 59 75 152 126 112 152 191 145 95 88 112 85 68 53 61 55 56 38 55 84 21 32 25 98 114 146 169 128 121 110 169 154 123 94 50 147 83 119 164 29 39 22 25 212 248 246 247 254 217 142 133 198 255 134 2 23 20 22 30 61 177 229 238 247 225 85 58 81 88 78 149 201 145 150 162 103 189 176 105 142 177 156 138 150 160 222 224 229 238 235 244 232 203 190 87 34 38 73 
253 249 255 232 89 33 21 27 35 67 159 128 119 221 179 114 123 111 113 136 134 110 86 108 36 9 18 40 66 118 158 82 101 28 61 48 19 30 14 8 8 27 82 153 70 38 107 129 41 13 3 52 118 137 112 154 212 145 87 82 71 50 64 110 71 13 30 13 15 15 65 45 16 15 19 123 169 119 150 212 210 209 175 70 71 102 140 140 61 196 86 10 44 0 87 252 249 241 252 214 131 123 204 250 247 71 54 83 21 30 24 89 203 236 245 237 247 158 27 29 53 139 182 169 168 94 173 170 173 169 124 98 143 188 127 145 177 219 242 238 240 244 244 240 213 194 98 41 32 70 
252 253 255 223 76 41 25 33 50 78 169 133 116 193 173 137 139 122 119 118 94 80 63 43 25 28 44 53 36 43 87 44 67 70 26 30 26 18 27 4 27 37 37 0 48 84 73 68 70 95 120 145 122 137 196 175 97 20 88 139 134 160 178 179 173 104 29 61 19 17 36 14 19 15 25 121 214 125 166 193 221 207 171 139 100 134 197 68 138 90 45 34 12 17 147 255 245 253 182 118 126 189 255 249 238 149 213 143 0 37 21 104 187 229 238 233 248 235 203 148 131 174 208 141 175 125 158 188 144 132 149 125 136 194 168 152 152 238 255 247 245 246 248 242 194 189 104 46 39 70 
254 250 255 225 74 34 38 49 77 93 149 104 107 212 154 126 108 67 136 110 20 40 155 135 39 40 23 36 38 39 41 61 85 83 54 38 32 30 9 92 101 40 44 32 50 55 47 65 123 137 122 150 190 160 106 63 6 80 138 138 151 144 143 140 139 159 71 27 20 18 10 24 36 32 30 75 217 144 151 209 229 223 170 113 113 196 88 120 128 14 7 19 44 55 81 201 249 174 120 131 194 255 248 248 250 251 255 132 4 37 19 110 173 234 255 239 242 235 237 189 159 151 217 181 146 166 183 164 155 136 150 154 162 204 136 109 183 241 249 244 250 240 243 249 186 176 110 40 34 78 
253 251 255 236 99 29 35 45 47 68 101 98 110 171 145 113 143 127 138 158 157 181 196 182 171 167 163 165 166 159 174 163 188 171 178 153 133 131 130 152 157 137 94 93 153 150 143 153 143 154 180 147 93 62 31 53 17 109 202 195 200 209 216 202 209 186 129 62 27 18 8 14 24 47 43 68 151 222 146 166 184 190 155 57 175 137 63 171 103 5 13 25 45 111 29 109 209 132 142 196 252 253 246 248 251 250 252 176 19 29 18 101 160 227 243 244 226 238 244 211 153 153 142 166 205 170 147 184 171 164 177 177 206 174 173 151 213 228 228 239 249 240 237 240 169 169 89 30 39 109 
255 252 250 251 132 35 30 31 55 129 136 161 155 146 151 145 149 125 118 112 100 106 101 105 117 116 131 122 116 118 106 111 126 145 136 130 142 164 189 185 181 200 191 185 198 186 193 182 166 133 51 6 7 12 14 32 18 32 108 182 182 187 164 173 185 75 43 79 36 7 16 17 4 18 10 43 88 176 129 158 137 151 149 185 175 54 177 117 71 70 134 142 128 149 179 233 214 169 200 253 250 245 253 251 253 253 255 215 38 26 23 73 176 205 237 242 245 237 225 242 208 138 146 139 183 192 187 183 177 172 153 150 163 166 149 222 231 211 234 217 231 244 248 219 145 170 65 32 44 162 
255 252 249 255 175 51 21 24 70 196 194 190 187 175 187 190 180 190 197 196 200 214 212 217 225 216 225 230 234 232 235 236 239 226 236 231 201 164 116 96 92 90 88 71 60 60 76 65 11 5 3 30 26 34 35 32 50 46 48 99 115 116 107 129 69 21 42 45 35 49 57 50 41 49 47 86 174 175 174 186 183 198 178 136 98 192 141 55 19 157 180 191 228 170 166 236 237 244 251 249 254 251 249 255 251 248 250 240 88 18 37 28 167 170 237 239 237 224 251 249 255 189 150 178 170 164 183 187 187 154 151 141 131 186 212 251 246 241 226 245 237 221 250 169 164 130 41 30 66 225 
252 250 250 255 215 81 36 17 45 139 157 186 203 210 209 217 216 204 206 211 196 188 175 162 162 145 161 141 101 102 104 99 85 78 68 57 45 11 18 39 47 57 65 82 91 97 105 110 126 143 128 130 143 148 161 160 150 149 145 153 147 139 144 145 143 148 150 148 141 142 132 140 152 147 158 154 170 145 157 156 150 147 152 171 202 112 25 25 7 127 218 142 192 240 232 245 249 253 252 251 253 249 246 254 251 248 249 255 153 28 51 17 101 185 186 232 248 249 235 248 232 220 230 197 177 162 135 139 147 157 166 168 184 217 243 245 247 255 236 230 238 249 201 129 183 64 24 34 138 255 
250 246 251 250 252 148 56 24 29 33 31 68 139 169 141 167 209 207 178 171 147 137 137 135 138 140 130 129 149 134 101 87 111 110 68 25 50 111 123 127 144 137 129 131 119 112 107 122 124 117 113 106 117 118 121 120 133 131 144 132 142 140 153 149 180 186 191 192 187 208 194 204 205 202 207 204 194 211 209 199 189 182 168 128 37 22 35 23 39 59 111 127 198 251 249 249 250 252 254 252 253 255 252 253 252 249 249 254 244 62 34 32 34 168 149 211 238 236 244 231 240 227 233 240 245 234 194 200 214 219 238 247 230 228 215 235 242 240 255 239 207 195 135 170 119 37 37 65 217 255 
252 248 254 245 255 224 86 39 28 36 47 36 86 166 173 146 153 173 198 211 193 169 173 182 167 183 194 212 234 226 212 177 165 143 87 18 69 204 200 209 209 197 204 206 216 233 232 227 231 231 229 231 231 234 234 227 237 241 220 236 234 231 226 204 167 124 125 180 142 89 86 87 75 92 86 54 45 44 37 26 20 7 0 1 19 36 57 69 118 148 144 221 255 249 253 246 254 255 255 255 255 255 254 251 250 250 250 250 255 194 28 37 31 57 172 134 191 253 245 230 216 244 236 246 250 254 225 236 249 237 255 254 222 228 225 230 245 233 229 253 209 116 172 152 51 29 38 176 252 243 
253 251 255 247 251 254 213 65 29 26 22 27 25 61 136 157 149 138 145 172 189 200 216 220 201 217 226 220 206 176 147 125 100 57 23 5 30 74 93 118 96 183 221 184 157 142 132 123 138 134 126 130 127 113 104 132 107 40 68 60 50 54 51 35 29 31 38 71 24 11 32 44 33 20 35 37 81 123 130 137 142 148 149 162 174 194 233 244 242 255 255 255 244 249 254 249 254 255 255 255 255 255 255 254 253 253 253 254 250 255 152 21 39 24 58 167 134 177 242 235 225 248 241 255 244 233 236 224 229 244 245 249 239 238 242 227 234 243 235 173 142 178 148 70 34 38 140 249 249 247 
254 250 254 253 250 249 255 198 59 29 21 22 23 10 39 87 145 162 156 145 138 150 169 178 164 172 164 142 125 113 104 74 37 12 7 14 10 3 8 0 80 231 248 235 212 190 186 192 195 199 206 214 218 219 208 243 210 66 15 18 26 23 25 28 37 39 36 51 85 175 218 230 228 214 223 222 245 255 255 255 255 255 255 255 255 255 254 255 251 248 247 250 250 255 250 249 255 255 255 255 255 255 255 254 254 254 254 254 254 245 250 125 14 44 19 52 152 137 156 192 245 250 244 248 232 235 248 228 240 245 242 251 232 232 255 241 245 201 147 135 179 130 57 40 23 118 243 253 253 248 
253 255 252 255 254 255 247 248 198 68 26 23 22 30 15 10 30 67 104 119 135 137 133 138 138 126 114 110 95 66 48 13 10 13 10 15 13 23 10 111 248 252 248 255 255 255 255 255 255 255 255 255 255 255 255 251 254 249 197 158 158 164 166 172 181 180 192 217 247 255 253 255 252 255 255 255 254 249 244 245 247 248 249 250 249 248 249 248 253 252 252 250 249 252 254 254 253 255 255 255 255 255 254 253 252 251 252 254 247 243 248 246 124 26 35 24 34 122 147 154 195 202 232 236 228 249 249 233 242 249 235 254 242 219 237 198 161 149 162 166 108 48 42 33 138 246 252 246 251 254 
254 255 254 254 254 255 248 235 255 209 92 33 13 25 20 27 9 12 11 23 37 48 57 56 48 54 51 31 13 8 7 16 7 17 17 17 8 28 147 254 249 240 254 253 252 252 253 250 252 253 252 252 252 250 251 251 245 252 255 255 255 255 255 255 255 255 255 255 251 249 247 250 250 252 251 251 250 250 253 254 253 253 254 254 251 252 254 252 253 254 253 254 255 253 253 253 254 255 255 255 255 255 255 254 254 253 254 253 255 248 251 253 247 155 44 20 34 24 52 133 170 184 187 178 203 217 217 223 199 222 208 192 194 159 160 171 173 155 110 51 26 18 67 166 253 249 251 253 251 253 
255 255 255 255 255 255 250 252 244 255 244 163 66 16 17 18 23 18 13 8 10 8 0 3 7 5 2 2 7 15 18 8 19 9 0 25 87 193 255 243 249 247 253 254 254 254 254 254 253 253 254 254 254 254 252 251 252 250 248 248 249 248 248 248 248 248 250 252 253 253 254 253 252 251 252 252 252 252 253 254 254 254 254 254 254 253 253 253 253 253 253 253 253 254 254 253 254 253 253 253 253 253 253 253 253 253 253 253 253 249 254 243 247 255 207 114 26 13 18 15 38 93 148 170 182 183 184 191 175 176 180 173 187 184 168 134 92 55 19 16 47 134 221 255 248 249 252 254 254 252 
255 255 255 255 255 255 252 251 249 247 249 254 235 154 71 24 14 20 16 14 15 16 15 11 9 10 14 18 16 10 11 0 7 39 99 195 255 255 249 247 254 255 255 255 255 255 255 255 255 255 255 255 255 255 255 255 255 255 255 255 255 255 255 255 255 255 255 255 255 255 255 255 255 255 255 255 255 255 255 255 255 255 255 255 255 255 255 255 255 255 255 255 255 255 255 255 255 255 255 255 255 255 255 255 255 255 255 255 255 253 255 253 247 255 255 255 208 124 45 25 25 12 19 37 59 85 101 116 133 136 130 110 100 71 40 30 11 22 68 135 214 255 252 244 251 252 254 255 255 255 
255 255 255 255 255 255 250 255 251 241 245 242 241 247 217 185 106 43 32 27 17 16 18 11 10 10 10 10 13 15 14 58 131 197 232 236 232 223 228 241 230 225 229 233 232 232 232 232 231 231 231 231 231 231 231 232 231 231 231 231 232 232 232 232 232 232 232 232 232 232 232 232 231 230 231 231 231 230 231 232 232 232 232 232 231 230 230 230 230 230 231 231 231 231 231 231 231 230 230 230 230 230 231 231 231 231 231 231 233 234 229 231 233 228 229 234 238 235 206 139 77 48 40 31 20 21 23 24 29 33 40 33 31 32 33 49 98 164 217 244 251 235 249 243 247 253 254 255 255 254 
255 255 255 255 255 255 252 246 235 229 220 202 180 133 116 102 85 60 30 23 11 10 16 12 11 14 14 10 14 23 37 66 87 78 78 103 124 132 128 128 127 139 131 131 131 131 131 131 132 132 132 132 132 132 131 131 131 131 131 131 130 129 129 129 129 129 130 130 130 130 130 130 131 132 132 132 132 132 131 131 131 131 131 131 131 131 131 131 131 131 131 132 132 132 132 132 131 131 131 131 131 131 131 132 132 132 132 132 129 133 134 130 132 130 130 132 127 108 103 90 71 55 31 22 26 23 21 28 25 24 21 21 28 31 40 59 91 102 118 141 179 212 233 228 243 252 253 255 255 254 
255 255 255 255 255 255 253 247 242 236 239 226 218 209 186 164 170 160 158 158 153 148 148 152 147 153 157 152 152 157 161 149 154 166 168 178 192 190 192 192 187 187 189 189 189 189 189 189 189 189 189 189 189 189 189 189 189 189 189 189 189 189 189 189 189 189 190 190 190 190 190 190 189 189 189 189 189 189 189 189 189 189 189 189 189 189 189 189 189 189 189 189 189 189 189 189 189 189 189 189 189 189 189 189 189 189 189 189 189 189 189 191 192 190 189 191 190 185 171 160 160 161 160 160 151 150 153 152 151 148 146 149 149 155 162 161 166 173 194 197 218 239 234 251 248 252 255 255 254 254 
