P2
150 65
255
104 94 96 93 99 100 96 97 94 97 103 111 114 110 118 125 123 124 131 128 124 129 133 131 121 125 122 119 123 128 122 121 126 124 126 129 130 128 126 120 122 128 124 126 128 126 129 132 130 125 134 139 137 134 131 136 137 133 131 133 133 128 130 130 124 122 132 133 135 138 137 140 135 134 144 147 148 138 135 134 138 135 131 137 139 139 140 148 138 135 139 136 137 141 140 138 143 146 146 145 140 144 143 139 138 136 140 136 139 143 147 139 146 147 140 133 134 132 129 138 139 129 129 132 132 129 130 132 132 129 125 128 128 130 136 137 135 131 130 129 124 119 124 130 128 125 126 130 120 210 
114 104 105 99 100 99 100 104 94 90 92 90 98 101 102 104 96 95 98 96 95 99 106 103 97 108 110 114 121 128 122 122 125 123 130 134 133 134 135 132 132 133 129 128 132 130 123 120 123 131 134 136 135 137 133 135 141 137 129 127 130 137 137 133 128 134 138 136 136 141 144 138 140 141 130 133 137 134 135 134 140 141 138 142 147 151 154 154 142 138 141 141 146 141 136 143 148 147 141 136 140 135 141 152 142 138 147 143 143 144 152 146 139 144 138 141 141 130 133 139 136 135 132 132 132 130 138 141 136 131 130 131 128 129 132 132 136 127 126 129 129 124 124 123 118 115 119 124 113 212 
131 126 132 128 126 131 131 125 115 118 130 132 134 135 123 115 123 118 105 105 109 99 97 102 96 101 95 89 86 88 88 91 100 106 108 104 103 109 117 121 126 128 129 126 123 125 127 132 134 134 136 133 127 126 127 119 128 138 134 136 134 133 136 140 140 134 130 132 125 121 127 132 134 128 126 131 143 140 137 132 142 145 139 141 141 143 143 142 143 138 132 131 135 132 133 141 142 141 143 134 131 137 145 147 144 143 149 141 152 152 141 147 151 139 141 147 148 137 138 142 139 139 139 138 138 138 140 146 147 136 132 132 128 134 136 129 132 140 142 135 127 129 129 123 121 126 131 133 122 214 
136 131 138 132 129 135 139 142 137 136 138 136 139 138 137 136 139 143 138 141 144 132 129 132 126 127 117 110 120 127 123 124 128 129 123 114 113 114 111 116 122 121 123 121 118 124 128 126 120 113 117 122 122 116 119 124 128 129 127 126 127 128 125 130 131 120 123 124 124 129 129 129 129 127 130 127 120 126 128 126 134 137 132 137 138 132 135 139 133 131 133 130 131 135 133 137 140 137 148 143 137 138 139 137 137 136 132 133 137 134 194 210 148 136 139 146 144 137 132 129 130 142 135 141 148 139 134 139 139 129 131 131 126 130 135 134 133 128 134 135 131 126 129 128 123 126 129 131 119 216 
136 136 146 138 129 128 125 128 133 133 130 137 141 140 143 139 134 144 142 139 146 141 137 134 129 137 147 149 141 134 138 145 143 138 141 142 139 136 132 126 134 140 140 143 145 142 138 133 130 131 134 134 134 137 141 141 130 128 135 132 126 129 129 132 129 125 126 123 128 133 128 125 130 131 128 128 129 129 128 124 120 117 112 115 122 119 119 123 128 127 125 129 125 122 128 126 120 126 132 132 134 136 138 138 137 143 142 146 132 210 252 208 138 147 152 143 131 133 137 139 141 130 136 132 132 138 132 133 128 125 128 128 130 133 131 128 130 131 127 126 128 126 132 134 126 122 121 121 108 214 
128 118 120 115 119 122 117 117 121 122 123 131 131 130 132 123 113 122 122 124 135 137 135 133 137 138 141 138 133 135 140 143 140 133 140 148 142 145 150 140 146 150 137 140 144 132 128 132 136 135 140 141 138 137 136 141 142 142 141 134 131 133 128 122 127 126 134 139 128 127 135 135 135 132 132 135 136 135 134 131 125 124 134 134 124 125 129 132 128 128 128 121 116 115 121 117 109 113 114 114 120 125 123 123 123 117 123 138 172 247 241 178 143 132 128 130 119 116 128 127 129 127 131 123 121 129 129 133 128 128 126 117 125 129 120 118 124 126 117 123 124 117 120 126 127 126 121 117 109 215 
136 120 116 116 122 128 123 125 127 127 128 135 130 127 132 126 118 138 141 125 125 130 133 126 133 131 121 113 126 128 126 128 129 121 125 134 133 140 134 128 136 134 134 145 142 132 127 129 132 127 128 132 133 125 128 130 130 132 137 135 126 126 137 135 139 138 140 147 140 137 143 141 143 145 141 137 128 132 129 121 125 129 133 137 134 137 145 143 138 128 122 123 129 133 127 126 128 124 123 116 122 129 127 128 126 118 121 105 175 229 136 137 165 131 122 124 121 119 111 102 106 124 117 125 134 115 124 130 126 127 123 116 120 115 108 117 121 114 110 121 119 115 124 131 130 125 119 119 110 214 
131 124 130 131 117 122 123 128 128 128 130 140 142 129 130 143 138 136 138 127 135 135 138 136 138 142 139 135 150 137 134 140 144 139 141 152 160 157 148 148 148 143 157 173 168 165 167 171 178 183 182 175 187 182 188 188 185 181 181 183 177 172 173 170 175 163 151 151 149 143 137 133 141 142 134 134 136 132 136 136 131 134 138 147 148 137 142 142 131 123 126 116 118 124 128 134 140 137 131 129 136 138 128 120 123 132 126 131 129 122 137 136 126 131 136 134 129 123 121 125 124 123 117 113 122 123 119 118 119 116 120 117 112 113 111 108 112 121 125 124 127 123 125 121 118 123 122 125 110 213 
156 159 170 169 166 155 155 169 176 180 178 168 185 195 192 193 189 186 189 191 201 197 198 197 204 204 211 199 210 216 225 226 230 227 222 225 232 237 234 227 219 236 239 234 233 232 234 232 230 225 224 211 218 211 205 195 182 184 181 166 155 152 136 136 141 135 134 138 133 132 138 133 133 134 127 126 127 127 134 132 126 132 132 119 119 127 123 114 115 121 131 123 125 126 130 143 142 131 137 133 132 132 132 128 125 131 137 131 127 160 156 129 138 137 120 124 125 124 126 122 122 124 121 120 120 121 112 114 122 122 122 119 116 116 117 113 105 101 102 107 106 100 100 99 105 110 100 99 95 211 
229 225 229 226 243 237 237 239 236 239 244 235 227 232 232 231 234 236 237 230 233 227 224 228 235 227 232 225 224 226 233 228 231 229 224 222 226 230 232 236 234 229 225 217 209 214 216 199 184 166 173 174 158 161 155 145 136 137 135 128 120 124 135 132 133 128 129 134 131 136 147 141 135 137 132 131 129 134 135 125 127 138 129 124 123 117 127 132 125 121 127 116 132 136 128 135 143 137 137 141 138 136 138 138 144 139 133 133 124 112 116 128 120 127 114 117 121 120 126 128 129 127 126 132 128 125 123 122 125 129 128 125 121 115 117 122 120 116 119 119 109 108 116 112 109 115 113 114 103 212 
213 209 206 207 210 200 203 210 220 225 225 223 221 229 231 231 231 235 239 236 230 224 217 215 219 218 225 234 220 217 224 223 220 211 200 192 187 182 173 172 168 158 155 153 144 139 139 135 128 119 122 113 99 104 108 109 108 106 109 113 113 111 108 106 112 115 121 122 115 117 123 126 135 132 116 115 123 122 118 116 119 119 120 134 132 113 111 114 118 111 109 111 97 101 96 101 106 106 92 90 90 101 118 129 115 100 102 116 63 4 45 115 114 115 123 117 107 106 122 118 118 120 118 122 129 130 117 114 121 126 123 119 112 109 114 116 113 117 120 119 117 121 124 124 113 111 118 117 95 209 
171 172 175 185 177 159 167 173 174 169 166 163 163 172 173 174 178 175 172 170 170 171 169 162 159 160 165 175 168 172 176 168 161 159 157 148 147 157 148 140 132 125 118 121 122 116 116 114 110 117 117 117 113 105 105 108 109 110 115 119 118 116 110 111 121 119 121 126 126 121 119 119 117 123 126 127 128 134 136 132 128 126 120 118 124 126 123 115 114 110 109 118 113 123 122 124 118 115 110 114 115 116 119 121 112 126 104 64 16 48 112 112 116 132 132 91 64 111 139 115 121 127 127 130 136 134 127 126 131 133 128 132 131 117 115 125 131 127 125 125 126 122 117 125 128 122 124 127 103 211 
107 96 98 101 103 105 106 98 97 98 97 95 97 99 93 94 101 102 102 101 99 97 102 103 98 99 95 97 98 101 97 95 101 102 99 99 97 92 92 96 99 98 93 96 94 89 93 96 93 93 98 103 104 102 98 100 102 100 101 101 101 105 102 102 108 109 109 110 107 102 96 98 96 96 101 96 93 96 95 94 97 102 103 98 101 101 90 79 82 96 97 98 94 105 101 105 104 104 104 107 106 106 108 103 107 97 36 23 3 85 171 126 152 133 113 115 116 111 113 103 105 109 108 110 116 116 120 124 123 121 116 115 118 123 122 119 117 115 113 112 113 113 108 113 114 108 107 111 100 210 
70 69 63 67 71 64 70 67 63 65 69 69 75 80 76 71 78 80 79 80 83 84 83 81 78 81 81 80 76 76 77 76 74 72 70 69 70 72 73 70 70 72 68 63 61 63 65 62 59 64 66 66 66 67 67 66 67 64 61 64 61 63 66 70 75 76 75 72 68 70 70 64 64 65 70 66 65 66 65 66 65 59 66 67 62 63 56 52 58 65 73 75 73 74 75 80 83 84 80 82 82 80 78 81 80 60 20 17 27 43 30 81 85 80 91 93 86 84 87 78 80 86 87 84 83 84 87 87 84 84 83 82 84 86 83 79 82 86 87 85 81 82 79 76 73 74 72 80 73 201 
104 97 99 94 91 83 87 92 93 94 95 95 95 94 92 88 92 95 96 97 96 95 94 97 99 99 98 98 96 93 92 94 94 94 97 100 101 102 102 97 98 103 102 97 95 92 90 89 88 87 89 91 91 89 87 87 92 91 89 92 87 83 85 90 92 86 84 83 83 82 84 84 85 79 87 88 76 86 103 109 112 89 87 91 87 85 79 62 76 92 78 86 88 85 90 90 86 87 94 92 90 89 87 89 85 88 83 30 42 133 94 84 89 87 86 92 90 93 100 94 89 92 92 90 89 91 87 88 89 83 81 84 86 86 86 89 93 89 86 86 86 84 82 80 80 81 76 80 66 195 
233 225 232 226 223 222 222 220 219 215 212 215 212 206 199 195 193 190 181 172 167 166 165 164 160 156 153 147 142 150 148 144 150 156 164 170 169 166 163 163 164 164 166 159 154 155 155 154 153 153 154 155 155 154 157 165 168 169 171 171 170 165 163 165 165 161 160 158 153 148 145 148 150 151 167 139 140 181 186 177 198 173 160 163 164 158 157 129 114 156 167 167 166 165 166 163 159 157 155 151 149 151 153 158 154 149 110 86 82 106 140 156 159 159 166 163 168 166 162 159 156 158 160 164 165 165 169 167 161 160 162 159 153 152 154 158 162 160 158 157 157 153 152 152 153 155 151 155 139 219 
234 222 229 220 217 218 214 204 202 201 198 191 187 182 178 176 171 164 158 160 169 175 175 172 168 163 161 158 151 156 154 150 158 164 169 168 163 159 158 163 165 162 158 158 158 154 151 151 152 155 153 153 155 157 160 165 164 165 170 169 166 162 161 163 164 162 161 160 157 153 152 156 150 150 165 125 177 185 176 152 165 165 162 162 165 169 170 160 139 159 174 168 171 172 166 165 167 166 164 163 157 155 152 148 162 152 89 95 108 82 85 209 148 158 160 158 167 169 164 166 165 160 158 163 169 171 169 169 170 167 166 159 157 163 163 158 161 165 167 167 166 165 164 162 163 167 163 163 153 224 
196 183 186 176 173 170 170 170 169 167 163 158 160 160 158 156 159 158 156 160 162 161 159 155 150 148 147 147 145 143 145 147 151 158 159 154 154 161 160 159 157 153 149 150 151 149 148 149 152 155 151 148 150 155 153 150 151 158 162 162 158 157 155 155 156 156 157 159 157 155 150 152 147 146 158 143 143 153 142 148 155 156 156 166 163 161 163 179 151 149 158 156 160 161 154 161 153 152 150 151 150 146 147 150 151 133 79 56 49 38 36 123 226 172 149 165 168 164 161 163 167 165 160 159 162 158 159 163 166 166 160 158 160 159 157 156 158 160 162 163 162 163 165 167 167 167 163 161 151 224 
158 144 150 149 156 155 157 159 155 154 158 157 156 155 155 156 162 161 157 156 153 149 148 148 148 148 148 149 147 145 145 148 148 147 149 149 150 153 156 151 146 145 145 146 145 144 143 146 148 150 146 145 147 151 151 149 149 154 156 155 154 154 153 152 151 151 149 146 144 143 145 148 140 142 157 152 152 145 152 154 146 146 142 146 151 155 156 227 194 125 140 145 144 141 150 154 138 146 144 147 155 165 137 108 136 96 53 10 17 9 15 106 243 186 151 161 154 150 165 168 155 153 160 160 153 156 161 159 156 159 167 164 157 155 160 161 156 158 158 158 158 159 160 162 161 159 157 159 150 223 
160 152 163 162 164 162 158 155 155 156 156 157 155 154 156 161 161 158 158 158 154 148 145 147 148 148 147 144 146 151 154 156 156 157 160 163 161 157 155 152 148 146 146 146 145 144 145 149 151 147 149 150 151 151 147 147 154 158 156 151 152 153 153 151 149 147 147 147 146 145 147 149 146 150 154 148 149 143 144 157 161 156 161 161 122 98 97 140 210 186 146 146 140 131 113 114 99 84 81 100 102 70 72 49 37 42 8 52 56 55 53 189 179 157 142 146 158 176 216 245 234 201 166 154 160 156 161 168 170 165 165 165 164 164 165 165 161 162 161 161 161 157 158 161 161 160 159 162 153 224 
168 163 170 170 167 165 166 169 169 166 160 160 164 162 166 167 161 160 163 163 159 157 154 152 153 157 156 159 164 168 167 162 159 160 160 162 161 158 154 155 156 156 155 156 154 151 155 159 158 156 157 156 155 155 152 156 162 166 165 157 156 154 154 154 151 149 149 151 154 156 158 159 160 163 164 162 157 154 147 139 117 88 67 57 17 8 11 16 63 109 115 90 123 138 126 147 122 135 149 122 78 89 91 54 8 24 43 35 112 168 61 164 143 142 201 173 160 175 149 184 243 236 178 166 170 164 169 172 169 164 162 162 163 167 172 175 174 174 174 173 172 171 170 170 170 171 170 168 159 226 
166 161 166 167 165 167 168 164 162 163 164 166 164 159 157 154 152 154 156 157 156 156 156 152 152 155 154 161 164 164 160 155 151 154 160 160 153 146 149 150 152 153 153 154 154 154 155 155 152 150 155 161 161 157 156 163 165 165 166 160 151 151 153 154 153 150 151 154 157 158 159 157 154 156 157 158 155 88 29 23 21 23 33 63 86 75 95 93 94 103 135 134 112 114 122 85 31 114 170 69 39 82 37 9 22 17 60 30 24 108 175 197 206 130 145 180 167 142 135 112 168 196 168 170 170 170 171 168 166 168 170 168 167 167 171 173 175 177 178 176 173 171 171 172 174 176 177 176 164 229 
188 183 185 184 178 179 178 173 170 169 171 172 169 169 164 162 169 170 168 167 167 167 166 162 164 166 167 169 169 164 162 161 164 170 167 158 155 160 158 159 160 159 158 158 159 158 155 154 156 156 158 164 165 154 159 169 163 154 155 155 152 151 153 156 154 154 156 158 158 156 155 153 151 155 156 154 157 121 104 137 158 157 146 160 157 129 120 75 69 77 79 113 129 141 131 131 146 162 157 79 15 10 32 18 23 43 16 17 20 16 113 160 127 122 157 219 242 188 162 167 166 169 169 166 169 170 169 165 163 166 169 169 168 168 169 168 168 173 178 182 183 180 178 178 178 179 180 188 181 236 
222 212 214 210 207 207 207 199 194 202 201 199 196 203 198 201 201 201 200 200 197 198 197 196 194 203 199 198 194 201 202 197 194 189 187 185 186 190 190 189 189 189 188 186 191 189 180 176 185 192 187 188 190 182 182 186 183 181 183 183 184 183 184 184 183 186 189 190 189 187 187 187 187 184 183 190 191 184 168 137 100 88 93 117 126 148 167 178 188 200 196 204 206 204 200 209 200 183 155 93 73 27 17 15 44 90 29 11 18 30 10 83 197 248 211 129 219 178 175 177 188 186 181 185 186 184 189 194 198 199 199 198 202 203 199 200 201 202 205 210 213 218 219 220 220 219 218 223 220 246 
224 213 221 222 221 209 222 209 216 224 221 220 217 206 221 212 215 217 214 212 209 214 209 208 209 209 198 208 211 174 153 190 201 200 210 212 210 210 212 217 217 214 215 215 214 210 208 201 196 198 201 194 191 203 202 200 201 198 198 202 203 201 200 202 205 202 199 201 205 204 199 194 207 216 196 154 114 98 100 125 161 192 208 210 213 208 198 187 174 168 160 145 125 107 109 102 81 87 100 112 88 30 28 20 15 42 19 15 16 19 24 35 200 218 36 86 206 203 207 204 206 211 217 218 218 220 217 221 225 227 224 222 228 228 224 226 228 226 226 229 233 234 238 243 248 249 248 246 246 255 
231 218 220 220 223 219 219 226 219 118 93 151 247 245 227 222 234 227 224 217 217 224 216 220 213 208 223 199 103 33 14 42 59 76 84 87 92 102 108 126 140 145 151 157 161 175 190 202 207 208 209 209 212 220 217 213 213 216 216 214 212 208 205 207 210 212 209 207 210 209 204 217 207 151 89 104 153 183 221 223 192 167 157 135 114 104 96 89 81 85 89 84 67 63 66 62 57 61 51 43 92 89 17 28 26 4 11 14 26 19 19 17 58 157 79 144 215 224 214 224 228 221 219 224 230 229 225 226 230 232 232 233 232 233 237 237 235 237 239 242 245 241 241 244 247 249 250 247 244 254 
241 235 235 228 233 235 219 230 151 43 42 147 210 231 209 208 219 223 232 229 224 229 229 229 221 226 214 80 6 8 12 9 5 9 6 6 7 8 6 6 8 10 10 13 17 23 31 76 127 154 157 164 156 146 146 150 156 162 169 174 176 177 179 182 185 184 193 201 203 214 231 207 105 111 174 208 215 208 141 101 96 92 80 70 64 58 54 48 47 42 37 42 47 46 48 52 58 64 55 51 51 85 89 35 20 24 19 33 56 35 12 17 40 137 239 230 225 218 232 223 220 225 230 233 233 235 230 229 232 234 236 238 233 235 243 243 243 237 235 239 244 244 243 244 246 248 250 248 244 254 
235 229 232 232 229 227 221 238 161 54 58 91 70 84 155 185 171 185 185 185 207 215 224 234 239 243 159 64 61 32 26 17 15 10 10 13 13 9 9 11 12 11 12 15 14 14 8 8 25 31 27 23 15 14 16 18 17 14 16 21 22 22 23 28 31 34 41 49 54 70 98 62 138 204 209 207 172 90 89 78 61 51 36 45 44 33 60 99 98 137 131 101 107 101 103 140 142 89 85 50 59 54 124 97 17 33 15 48 77 31 54 43 44 181 203 218 241 226 231 235 226 225 230 236 237 238 237 236 238 241 244 242 238 237 240 244 247 245 248 250 246 245 244 242 244 248 248 248 243 254 
233 231 240 240 234 233 229 235 231 174 155 102 88 161 222 195 140 156 162 156 160 164 165 156 155 174 118 28 18 34 35 32 51 34 25 24 23 15 14 14 13 8 7 11 10 7 12 14 8 6 13 3 6 8 6 8 9 9 8 7 7 6 5 6 7 9 9 9 14 12 8 77 195 188 200 159 69 99 69 40 42 48 51 54 43 51 63 72 87 80 83 76 78 86 74 78 68 64 64 56 58 40 37 42 45 13 14 6 11 17 20 64 49 49 47 42 202 244 220 233 234 234 231 230 232 232 235 238 239 238 239 238 236 236 238 238 238 241 242 243 242 242 242 242 243 246 247 247 242 254 
237 234 241 241 236 237 238 235 232 250 190 59 94 153 245 121 148 225 231 225 209 173 126 115 95 115 119 92 42 4 7 11 14 23 25 26 28 31 41 49 47 40 33 33 37 33 32 32 21 16 13 20 24 23 23 19 17 20 21 20 20 21 23 23 23 22 24 21 27 18 25 146 202 198 171 79 112 64 33 47 51 51 50 48 45 48 47 41 39 36 37 40 41 36 38 33 30 34 21 23 18 20 28 60 30 4 80 59 32 59 27 29 41 78 13 18 69 216 238 231 230 226 230 233 232 233 236 239 241 242 239 237 237 238 238 237 235 240 240 240 243 243 244 246 247 247 247 246 242 254 
242 242 243 241 237 242 243 240 235 249 165 129 197 197 213 134 231 237 196 139 111 116 138 85 50 128 119 67 73 32 37 21 8 6 0 0 2 0 9 9 17 15 11 20 24 24 28 32 22 8 9 20 26 25 24 24 25 27 28 29 30 30 28 28 29 28 34 35 24 7 18 118 142 153 74 45 36 13 20 17 17 15 20 12 12 15 12 5 8 18 10 18 13 11 17 15 25 11 33 36 15 21 12 31 36 40 175 202 74 225 132 70 93 132 97 17 11 89 236 232 232 233 229 232 238 244 240 240 240 238 239 239 239 242 242 240 240 240 240 241 243 243 244 245 247 248 249 248 247 253 
248 240 233 234 238 240 235 225 236 219 150 232 255 245 207 170 190 111 124 143 169 179 163 46 59 95 50 59 63 43 53 18 4 77 87 84 53 33 24 10 5 15 44 10 7 6 0 3 6 15 15 10 7 13 12 9 7 10 13 15 12 6 8 13 12 12 8 13 14 14 15 12 9 32 13 66 80 24 20 22 14 21 0 7 12 13 25 46 31 7 15 17 14 16 14 15 12 25 96 94 19 13 61 109 125 127 187 195 137 109 166 223 229 122 158 54 17 19 110 238 241 235 233 239 240 236 231 235 242 243 242 243 242 239 242 247 245 238 240 246 245 244 245 246 247 248 249 248 249 253 
245 238 237 242 239 232 233 231 234 212 185 255 221 188 153 134 139 150 195 170 136 90 69 98 79 53 61 38 40 24 16 31 144 237 229 239 222 212 204 188 98 51 96 34 0 2 10 11 7 19 21 23 25 28 26 28 40 53 54 48 49 56 52 45 44 44 30 33 41 23 16 21 17 19 7 170 173 50 56 22 17 28 71 35 50 50 58 99 41 6 10 5 19 14 29 62 21 9 27 21 9 43 133 180 130 170 130 131 120 32 227 222 220 172 142 178 34 20 18 127 238 234 235 231 236 225 234 236 234 241 244 244 244 244 248 250 247 247 244 243 244 247 247 246 248 247 248 249 249 253 
242 237 242 242 240 240 235 237 237 237 233 237 194 117 139 150 184 173 108 57 78 143 207 235 216 230 187 35 10 28 23 45 79 81 61 60 72 84 108 117 113 160 134 29 71 50 0 13 9 13 32 36 25 25 27 33 44 50 44 33 34 50 66 64 51 45 39 40 44 42 36 19 21 12 57 175 110 46 21 11 0 62 159 70 74 82 46 47 17 50 65 12 7 16 28 56 16 17 15 18 17 99 182 171 140 186 83 121 50 8 80 234 224 231 156 224 158 15 23 68 228 223 209 230 240 250 247 241 242 237 237 245 246 250 250 249 248 251 248 241 237 237 240 243 243 247 249 248 246 253 
245 243 235 231 233 237 228 231 232 234 235 220 197 160 162 177 122 42 71 177 227 242 242 236 209 170 106 37 8 12 4 9 0 0 0 0 0 0 0 13 111 233 133 11 126 190 141 26 6 7 16 27 25 28 29 26 23 21 22 21 20 19 19 21 24 27 30 31 30 33 33 18 23 0 118 141 49 25 18 40 129 137 57 40 114 79 111 91 82 77 124 100 48 51 27 6 14 13 23 10 42 175 228 179 173 154 117 108 67 11 14 87 223 199 118 119 204 156 27 123 223 192 72 85 102 125 168 223 250 251 244 235 244 247 245 240 247 241 243 246 241 235 238 244 245 239 240 248 242 254 
247 244 233 239 243 235 229 243 228 233 218 181 144 114 119 77 78 153 238 230 229 237 195 120 40 1 2 10 16 1 5 2 7 9 7 6 6 7 5 97 194 207 62 7 0 20 97 101 36 7 2 6 18 34 39 33 39 45 42 42 45 47 43 41 46 42 39 36 31 30 22 35 16 61 113 27 10 18 18 55 161 226 195 41 63 70 107 110 108 129 132 146 113 97 77 13 30 18 14 12 107 225 238 187 191 131 119 132 230 46 11 15 64 99 116 47 47 70 24 37 147 239 213 96 61 65 54 64 118 173 217 241 234 234 241 244 242 240 245 250 247 246 243 245 250 250 247 247 243 254 
245 237 242 242 239 241 240 235 239 219 182 156 158 161 165 196 230 237 227 230 205 98 20 1 8 18 13 3 7 32 46 63 61 58 70 67 67 72 63 125 198 155 22 5 12 10 2 18 31 9 4 5 6 14 19 10 22 30 20 24 32 33 29 28 36 40 37 32 25 25 33 16 35 137 29 7 24 20 28 51 32 75 68 78 107 141 169 150 190 191 167 151 112 90 20 56 130 53 4 48 177 217 184 179 152 130 209 95 192 182 99 60 12 124 165 40 9 31 59 70 91 179 230 162 71 51 41 51 35 48 147 249 245 238 235 240 242 238 239 243 241 244 246 243 239 244 248 246 243 254 
244 237 242 240 236 240 239 241 237 236 240 240 234 247 240 234 224 224 237 149 25 0 17 17 7 10 40 73 93 86 88 106 131 118 135 126 144 128 87 80 112 41 27 28 7 10 10 15 5 7 5 6 2 4 7 10 8 10 5 7 12 10 11 12 17 16 19 16 14 11 15 4 76 60 11 21 30 25 9 8 15 7 15 93 97 158 177 188 212 201 202 138 83 48 24 38 60 23 12 106 225 214 177 187 102 181 211 112 120 97 194 142 114 172 25 15 36 66 98 73 97 125 187 247 226 171 159 59 39 38 159 169 166 240 238 236 240 235 236 242 245 244 249 251 245 242 245 242 242 252 
245 236 238 236 231 241 239 236 234 236 235 229 231 227 229 225 233 233 116 3 17 18 11 3 45 100 90 112 110 150 187 198 214 219 190 217 214 220 136 110 95 15 44 107 91 29 1 9 9 3 3 6 4 3 7 3 6 5 13 12 2 0 8 4 13 8 15 9 20 26 15 39 141 148 42 12 31 24 44 50 25 12 33 113 89 158 163 196 211 209 181 117 80 94 65 57 167 43 15 106 195 166 165 139 123 229 137 69 106 139 212 144 211 120 17 23 23 65 90 58 64 124 149 194 234 160 115 150 166 105 152 125 179 247 227 233 234 237 242 243 239 243 244 246 250 249 246 242 242 252 
246 236 237 236 235 240 234 236 240 239 237 231 234 232 227 226 235 104 2 13 26 8 17 94 99 91 108 177 222 233 239 216 180 148 162 126 164 180 93 112 60 36 105 116 75 125 69 1 3 10 6 7 2 3 5 6 5 10 86 105 48 14 18 5 12 22 42 56 77 75 63 122 136 157 67 22 8 43 125 125 35 9 35 80 51 52 102 113 119 109 115 109 94 120 85 91 149 98 8 44 45 89 150 80 169 227 223 172 85 182 173 140 198 55 9 54 127 124 197 157 82 115 106 143 220 225 172 72 112 181 212 75 39 197 248 227 240 237 239 239 237 241 243 243 242 246 249 241 242 252 
240 233 234 238 237 235 229 235 240 240 235 231 233 228 226 235 142 1 15 18 5 13 110 104 107 192 214 204 167 119 84 37 20 20 13 20 12 24 129 133 37 14 31 21 14 19 129 94 9 13 6 5 5 5 5 6 8 7 20 38 33 11 20 13 8 25 31 89 113 89 122 127 49 66 92 79 39 34 74 87 65 32 23 24 33 49 76 87 95 91 56 63 68 43 40 59 101 170 83 32 48 64 102 141 220 212 230 193 57 53 177 215 177 33 16 147 178 160 188 95 77 96 78 77 157 222 244 48 88 209 208 198 83 18 179 255 232 235 237 237 228 232 243 248 246 243 244 242 243 254 
233 233 238 240 235 238 232 231 236 235 224 230 228 225 237 181 18 9 14 19 8 121 121 126 210 210 163 83 15 0 2 12 25 30 30 32 17 52 196 88 6 12 0 0 3 11 0 116 60 1 12 8 5 5 2 5 6 4 2 0 7 13 3 11 23 28 25 64 88 69 159 66 40 103 100 79 66 83 85 86 88 36 15 57 80 102 118 138 144 161 149 63 31 49 19 36 82 157 192 89 95 152 200 188 174 217 223 157 35 48 159 201 158 30 39 188 97 97 112 20 8 22 15 20 67 174 234 184 105 206 199 112 182 99 25 187 245 231 232 236 234 229 237 242 243 242 242 241 241 253 
240 237 233 232 234 238 238 239 230 227 234 226 227 226 235 86 6 19 7 4 83 142 108 225 234 221 114 75 67 35 29 68 92 96 84 73 55 94 129 29 33 79 106 126 104 43 84 44 86 40 1 13 4 1 5 7 8 6 9 10 20 18 1 14 25 46 36 43 74 96 178 79 92 139 65 82 148 141 145 147 93 15 52 152 152 155 155 148 164 156 207 219 45 17 22 32 30 69 129 216 218 219 215 206 180 210 226 192 39 56 141 161 162 20 37 188 66 25 51 65 42 138 63 14 20 91 199 235 249 239 219 172 106 191 91 39 210 245 236 239 235 235 234 236 236 238 241 241 242 254 
240 238 238 237 238 240 232 233 235 237 234 227 222 235 199 29 7 9 5 28 127 41 75 91 105 102 117 124 119 60 84 118 127 127 116 101 73 73 47 16 24 33 137 188 117 159 207 183 87 18 9 8 3 10 8 5 1 10 18 33 43 76 45 8 15 47 67 112 114 139 169 112 145 112 79 155 174 151 161 176 128 32 39 117 152 149 152 152 158 155 163 147 36 17 26 13 16 74 132 177 181 212 215 220 196 179 228 179 24 106 197 168 160 93 111 213 116 55 89 150 107 226 192 59 39 46 94 189 215 241 240 236 172 118 187 58 84 236 234 238 235 242 244 241 240 241 244 244 239 253 
240 236 240 236 230 230 225 229 231 229 225 225 224 230 146 4 7 14 3 63 89 0 8 3 6 0 6 95 120 109 104 95 88 92 89 80 71 70 66 47 57 40 21 24 39 97 72 94 57 16 17 8 6 10 9 11 10 12 6 20 44 43 112 114 48 29 74 118 89 139 141 128 165 105 58 136 158 181 183 182 105 15 28 36 85 148 167 189 179 170 128 53 13 8 33 86 25 36 108 165 152 228 219 215 215 159 223 168 46 81 139 132 140 80 74 186 130 107 138 131 132 202 228 170 123 173 144 181 157 180 242 245 237 160 145 168 14 165 245 232 235 242 241 238 238 239 241 245 239 252 
232 230 236 234 231 232 231 235 226 223 228 226 219 233 112 3 14 13 5 84 70 15 20 0 11 0 65 181 183 193 189 188 170 168 156 139 124 117 110 101 91 89 80 67 64 47 40 28 19 39 24 15 14 17 7 67 88 18 5 40 77 14 29 47 65 33 16 22 20 22 48 90 94 87 51 71 89 99 99 88 70 71 39 53 97 116 61 62 63 76 61 27 10 13 29 111 44 25 70 139 195 223 222 217 221 193 154 162 52 35 127 173 174 107 0 107 102 0 8 16 21 133 186 166 130 64 73 89 104 150 216 245 233 192 135 179 73 57 241 242 234 240 238 237 235 234 233 241 240 252 
238 232 235 234 235 238 233 230 223 225 231 229 221 236 104 2 13 9 1 96 86 63 168 143 92 52 31 36 47 65 84 98 114 122 145 161 173 182 183 181 172 167 164 155 136 127 117 98 82 59 67 58 44 48 38 46 39 44 51 59 17 13 7 3 8 20 22 10 9 41 91 83 90 90 79 104 92 86 86 88 150 115 18 37 64 31 22 21 27 18 23 24 8 36 30 5 60 80 46 136 234 216 229 228 218 227 163 202 164 34 136 199 107 52 10 59 167 28 27 33 13 59 224 230 197 72 54 115 116 117 210 245 246 207 115 136 133 16 164 243 231 233 235 236 237 237 238 240 233 251 
238 225 229 225 233 238 232 224 222 223 225 232 224 242 154 11 9 9 0 64 154 136 224 184 149 138 48 31 49 45 35 26 28 17 21 23 32 43 52 70 86 100 126 145 169 174 182 180 175 175 167 165 143 129 124 112 96 88 87 83 61 41 43 36 32 28 30 31 25 79 107 94 117 119 105 92 81 80 69 46 38 18 14 45 76 24 9 20 17 0 8 9 18 36 64 114 161 70 31 107 223 227 229 231 228 230 224 180 210 147 96 40 17 9 23 4 145 154 11 24 29 14 109 251 250 243 202 160 131 165 241 246 254 219 110 155 186 29 105 241 238 233 238 239 245 248 246 242 243 253 
237 221 227 229 232 236 230 225 238 238 230 241 232 235 212 38 12 9 15 10 160 85 76 13 0 0 8 12 59 152 143 133 123 103 86 83 79 67 53 36 26 23 12 3 16 19 26 44 66 81 88 115 134 145 157 163 165 161 158 158 154 146 139 135 118 51 27 23 41 62 61 77 72 61 64 66 75 72 81 87 89 79 75 63 54 75 77 77 70 82 96 102 124 141 146 165 141 98 75 105 219 234 223 236 231 232 226 200 175 247 193 32 24 28 14 20 29 171 75 10 31 29 65 100 233 249 250 251 239 255 245 241 255 224 115 143 219 50 71 229 236 235 237 237 240 245 245 239 242 253 
235 223 234 235 238 232 235 243 243 241 242 232 237 233 241 111 4 17 9 7 58 141 17 67 83 46 23 14 34 81 95 122 134 145 154 156 159 164 162 157 158 154 134 114 104 97 78 42 33 4 20 19 28 59 71 65 60 70 96 112 125 134 138 136 152 154 142 136 144 162 151 156 160 150 153 167 178 174 173 166 163 150 150 135 130 121 110 120 130 131 138 166 170 174 188 220 235 232 223 213 233 228 229 230 232 229 221 230 192 202 235 146 7 24 23 25 6 55 218 67 0 60 85 29 125 246 245 249 248 245 250 250 242 198 105 142 220 47 60 217 238 233 240 236 235 243 247 242 243 253 
237 230 234 234 239 240 239 244 243 245 244 241 241 236 241 219 39 0 15 15 0 73 130 67 177 226 182 183 118 75 70 49 40 40 32 37 29 26 38 34 41 46 56 65 81 85 105 122 117 43 15 14 15 31 36 28 27 37 50 66 68 70 77 76 90 92 83 107 103 82 86 99 101 80 88 82 80 84 88 90 107 113 98 61 102 155 178 186 216 213 221 218 236 224 227 227 231 225 231 235 236 232 232 234 235 231 227 224 209 192 218 217 100 13 23 20 24 21 180 233 81 26 47 122 193 187 229 233 231 239 243 228 223 180 110 166 199 39 64 219 224 234 234 234 237 242 239 236 241 252 
244 235 235 234 231 238 240 244 244 243 241 241 242 242 232 245 179 16 7 19 14 0 76 118 74 125 207 255 244 241 213 191 175 186 206 215 186 152 136 126 118 110 93 70 41 43 20 18 32 51 23 20 15 10 16 25 4 2 7 5 3 8 34 51 47 59 69 71 76 89 91 94 103 106 150 164 69 121 165 179 234 221 223 218 217 228 236 222 224 222 220 223 228 221 218 233 230 232 226 224 230 229 227 230 232 234 231 220 219 188 208 222 217 86 6 22 25 20 22 181 241 146 111 176 235 203 227 226 215 213 225 219 196 142 149 230 130 9 96 224 227 231 237 240 236 242 242 237 244 252 
236 232 235 235 236 245 240 245 246 239 239 237 240 231 232 214 239 160 19 15 7 20 9 48 110 95 99 128 172 213 207 190 213 210 239 218 228 189 211 191 204 181 150 104 117 60 16 13 14 6 0 53 167 180 182 200 129 121 151 131 134 132 128 127 140 145 158 173 186 198 212 221 218 231 229 229 168 76 103 106 222 220 225 224 211 218 221 220 229 225 218 234 226 234 217 224 226 225 231 229 233 227 224 232 226 231 239 221 211 198 163 210 210 209 84 10 28 16 26 20 117 247 251 226 217 221 223 219 233 233 211 232 185 130 211 203 49 43 160 236 227 229 234 237 237 238 238 236 235 250 
231 230 231 226 237 236 227 237 239 232 235 231 225 227 221 219 224 229 167 36 3 13 18 10 11 57 99 101 99 109 130 148 170 183 157 136 100 108 165 112 112 108 98 62 17 3 9 18 12 0 75 197 217 223 215 225 229 229 225 228 230 222 237 240 236 226 213 226 229 225 222 224 201 193 174 153 140 144 167 214 222 225 221 219 230 213 214 214 211 228 218 226 225 231 222 209 233 220 224 226 234 232 220 219 225 223 223 223 210 205 150 146 207 211 206 111 16 20 21 22 16 60 183 246 246 237 229 213 218 229 195 168 184 209 184 93 76 130 203 242 237 229 230 236 242 240 242 244 234 248 
233 218 228 229 233 227 230 234 231 226 224 223 226 234 221 216 224 207 228 197 83 16 3 11 11 7 4 30 59 76 99 108 94 97 88 86 91 115 105 85 62 37 11 1 14 11 11 1 30 131 205 208 184 205 197 189 191 194 195 194 183 187 171 162 164 163 183 201 197 199 184 175 156 169 183 196 203 224 211 222 218 206 212 201 210 208 200 198 185 216 204 213 226 219 219 200 228 217 218 213 212 222 224 214 220 218 218 226 219 187 193 135 202 199 203 218 138 44 7 20 24 12 22 86 188 239 250 249 238 234 220 220 228 202 147 121 115 172 237 234 230 238 232 221 237 239 238 241 230 247 
221 211 228 231 225 229 228 227 228 227 225 221 224 223 214 213 221 215 217 206 220 156 69 13 2 4 8 9 0 3 16 21 27 38 45 35 33 25 19 7 0 8 13 6 5 4 28 92 154 195 188 177 194 184 178 174 166 153 159 181 175 187 165 182 193 165 163 168 154 143 166 184 182 196 200 198 195 190 199 201 213 184 187 184 197 190 203 199 179 196 205 201 206 204 211 197 207 214 214 207 203 213 221 209 204 214 215 208 214 198 191 121 152 207 197 189 207 188 101 23 9 20 22 14 27 65 130 184 224 233 234 240 217 184 153 112 156 228 229 224 228 229 239 226 219 227 236 232 227 247 
202 219 210 213 214 215 214 215 220 217 212 211 199 198 207 208 209 206 191 196 197 202 207 165 96 47 22 10 12 9 7 4 4 6 0 7 4 3 9 3 3 2 6 21 60 113 160 171 168 167 172 162 165 169 172 172 183 177 181 192 175 155 121 114 112 136 153 160 183 172 178 193 177 178 182 175 186 186 202 195 191 178 170 188 183 177 176 180 181 180 202 182 193 196 199 182 179 195 200 207 198 198 207 198 201 196 202 206 199 203 179 187 114 180 193 194 186 187 211 172 107 61 29 23 22 15 10 27 44 67 81 82 80 69 96 156 217 203 228 220 221 225 230 222 225 211 212 229 223 246 
210 208 210 210 215 215 210 214 206 205 211 202 192 197 208 208 200 200 210 200 192 189 177 181 191 168 115 64 14 4 6 6 5 6 6 8 4 1 10 25 52 74 121 148 187 177 172 154 164 159 175 146 171 164 178 161 153 123 98 91 79 99 102 139 170 163 181 177 176 167 171 189 175 170 180 175 179 164 162 169 171 172 167 155 163 188 159 176 168 163 183 174 184 186 192 181 157 184 194 195 186 178 194 195 189 194 185 198 202 193 197 188 162 143 215 188 190 175 165 169 153 133 76 38 30 18 25 23 10 11 26 25 72 143 189 204 202 209 207 223 225 220 229 218 221 213 201 200 211 245 
202 201 193 205 205 194 195 203 197 194 197 187 193 190 179 172 169 156 127 118 112 83 60 52 34 30 30 26 21 7 17 9 15 17 10 12 12 43 109 149 172 183 174 150 178 157 168 153 167 157 168 149 150 122 101 78 71 79 102 134 162 193 150 171 189 157 172 174 185 171 171 192 175 171 183 175 187 171 177 187 195 174 162 179 159 182 175 184 175 149 174 174 158 177 183 198 167 178 183 196 190 174 183 204 177 195 192 189 203 196 203 171 172 118 123 115 105 85 76 85 80 84 79 71 67 55 45 50 62 86 140 193 190 214 209 203 215 217 212 220 229 231 234 224 226 224 214 204 214 247 
123 127 122 125 120 124 126 123 122 124 124 125 121 119 113 104 101 96 91 93 92 88 93 103 90 85 88 83 82 79 77 79 86 89 77 80 89 108 128 119 115 120 121 114 123 117 122 115 127 120 126 115 91 93 80 92 119 118 140 116 121 128 110 126 135 131 141 130 150 148 143 156 140 148 166 154 157 144 149 144 156 138 112 126 130 125 128 139 158 154 173 192 191 202 213 226 219 207 221 223 223 215 218 229 223 222 226 216 223 232 208 206 203 200 196 200 214 205 152 193 199 188 205 213 213 216 215 218 229 237 238 244 251 238 244 240 247 241 239 240 243 239 241 238 244 237 241 237 228 248 
64 69 88 90 92 99 87 81 80 83 94 108 107 101 102 106 106 114 116 105 102 100 81 81 88 82 83 83 75 82 90 98 104 114 113 111 91 77 98 102 110 107 114 110 102 114 109 102 89 86 95 103 98 117 119 115 118 114 96 101 109 89 104 92 98 96 98 115 129 139 138 145 123 133 138 120 120 113 105 86 100 115 125 135 145 154 178 186 214 216 216 229 223 214 225 223 231 231 234 234 226 233 230 226 221 218 217 216 229 215 222 235 229 217 207 207 209 223 175 177 184 161 167 178 170 170 170 151 159 146 179 189 172 193 204 213 205 227 234 230 226 211 207 199 207 208 215 216 217 243 
31 22 26 28 39 39 24 21 29 40 50 54 55 49 52 56 52 50 41 38 42 43 33 20 33 35 34 22 28 39 28 41 33 39 55 60 43 39 62 67 54 55 67 48 56 48 47 33 27 31 24 15 34 51 54 48 62 59 39 41 61 38 42 37 27 49 59 69 118 150 138 151 130 112 123 131 150 145 169 176 165 148 152 175 154 137 168 179 150 179 177 186 156 137 111 132 163 172 158 149 152 137 139 142 169 164 181 176 162 129 152 158 138 137 118 150 125 148 183 173 155 173 157 172 106 80 146 111 71 74 51 93 104 132 148 165 136 116 124 142 122 151 143 121 130 119 120 141 113 204 
22 18 25 21 22 27 25 22 17 20 23 27 23 16 20 21 15 13 20 26 19 17 21 37 53 29 15 23 23 26 20 28 10 23 26 41 45 39 42 29 26 29 51 49 39 34 17 68 99 38 28 36 33 22 30 33 14 22 41 29 20 29 47 27 39 43 48 57 99 155 171 148 161 123 132 100 108 112 123 127 137 98 87 70 107 117 126 164 129 174 162 171 174 140 134 144 124 168 182 156 137 114 65 112 140 154 183 164 168 155 142 143 117 138 138 133 143 79 70 115 125 139 135 124 95 92 89 73 45 61 64 36 49 64 109 127 95 101 92 88 91 75 105 94 109 116 126 105 88 208 
11 0 1 2 8 6 9 7 1 9 5 7 4 5 12 9 2 0 6 8 5 7 21 26 16 24 8 7 13 13 34 30 18 23 15 35 38 9 7 13 11 12 36 29 16 21 21 74 104 47 38 20 27 39 35 32 44 33 11 45 56 27 66 33 39 44 45 53 71 145 144 129 117 130 126 90 74 67 49 17 59 42 29 66 79 114 125 115 105 141 155 151 109 104 135 121 105 147 151 143 105 121 79 72 135 83 117 122 123 98 87 117 118 174 155 105 121 60 44 66 89 102 154 134 123 91 109 109 82 78 91 75 86 127 86 49 94 106 141 166 173 119 77 85 128 133 154 159 148 222 
108 106 110 116 116 108 113 111 111 123 115 109 110 116 118 112 108 111 114 115 114 110 113 114 110 118 116 115 117 115 118 123 123 117 119 130 130 117 111 114 123 117 120 131 125 119 139 158 163 159 150 112 109 124 130 118 137 163 122 108 143 124 124 117 126 144 147 130 138 167 175 171 162 187 172 160 135 116 132 124 126 123 123 163 155 122 150 178 141 133 149 184 151 163 196 186 183 197 187 203 161 154 190 160 171 143 159 145 139 127 133 155 150 149 162 167 163 140 132 135 144 171 211 185 197 197 187 177 175 185 172 180 177 187 186 160 189 198 209 196 197 211 171 171 175 185 199 206 199 228 
