P2
150 65
255
255 255 255 255 255 255 255 255 255 255 255 255 255 255 255 255 255 255 255 255 255 255 255 255 255 255 255 255 255 255 255 255 255 255 255 255 255 255 255 255 255 255 255 255 255 255 255 255 255 255 255 255 255 255 255 255 255 255 255 255 255 255 255 255 255 255 255 255 255 255 255 255 255 255 255 255 255 255 255 254 254 254 254 254 254 254 254 254 254 254 254 250 249 196 176 255 250 253 255 252 254 251 253 254 254 255 255 254 254 255 255 255 255 255 255 255 255 255 255 255 255 255 255 255 255 255 255 255 255 255 255 255 255 255 255 255 255 255 255 255 255 255 255 255 255 255 255 255 255 255 
255 255 255 255 255 255 255 255 255 255 255 255 255 255 255 255 255 255 255 255 255 255 255 255 255 255 255 255 255 255 255 255 255 255 255 255 255 255 255 255 255 255 255 255 255 255 255 255 255 255 255 255 255 255 255 255 255 255 255 255 255 255 255 255 255 255 255 255 255 255 255 255 255 255 255 255 255 255 255 255 255 255 255 255 255 254 254 254 254 254 254 252 253 153 118 255 249 249 245 255 253 252 253 255 255 255 255 255 255 255 255 255 255 255 255 255 255 255 255 255 255 255 255 255 255 255 255 255 255 255 255 255 255 255 255 255 255 255 255 255 255 255 255 255 255 255 255 255 255 255 
255 255 255 255 255 255 255 255 255 255 255 255 255 255 255 255 255 255 255 255 255 255 255 255 255 255 255 255 255 255 255 255 255 255 255 255 255 255 255 255 255 255 255 255 255 255 255 255 255 255 255 255 255 255 255 255 255 255 255 255 255 255 255 255 255 255 255 255 255 255 255 255 255 255 255 255 255 255 255 254 254 254 254 254 254 254 254 254 254 254 253 251 255 170 89 244 247 255 248 251 253 253 250 254 255 254 254 255 255 255 255 255 255 255 255 255 255 255 255 255 255 255 255 255 255 255 255 255 255 255 255 255 255 255 255 255 255 255 255 255 255 255 255 255 255 255 255 255 255 255 
255 255 255 255 255 255 255 255 255 255 255 255 255 255 255 255 255 255 255 255 255 255 255 255 255 255 255 255 255 255 255 255 255 255 255 255 255 255 255 255 255 255 255 255 255 255 255 255 255 255 255 255 255 255 255 255 255 255 255 255 255 255 255 255 255 255 255 255 255 255 255 255 255 255 255 255 255 255 255 254 255 255 255 255 254 254 254 254 254 254 254 246 250 192 51 146 130 202 255 246 251 248 249 254 254 251 251 253 255 255 255 255 255 255 255 255 255 255 255 255 255 255 255 255 255 255 255 255 255 255 255 255 255 255 255 255 255 255 255 255 255 255 255 255 255 255 255 255 255 255 
255 255 255 255 255 255 255 255 255 255 255 255 255 255 255 255 255 255 255 255 255 255 255 255 255 255 255 255 255 255 255 255 255 255 255 255 255 255 255 255 255 255 255 255 255 255 255 255 255 255 255 255 255 255 255 255 255 255 255 255 255 255 255 255 255 255 255 255 255 255 255 255 255 255 255 255 255 255 255 255 255 255 255 255 255 254 254 255 255 254 251 244 243 206 133 255 157 134 255 249 247 252 254 255 250 247 249 251 253 254 254 255 255 255 255 255 255 255 255 255 255 255 255 255 255 255 255 255 255 255 255 255 255 255 255 255 255 255 255 255 255 255 255 255 255 255 255 255 255 255 
255 255 255 255 255 255 255 255 255 255 255 255 255 255 255 255 255 255 255 255 255 255 255 255 255 255 255 255 255 255 255 255 255 255 255 255 255 255 255 255 255 255 255 255 255 255 255 255 255 255 255 255 255 255 255 255 255 255 255 255 255 255 255 255 255 255 255 255 255 255 255 255 255 255 255 255 255 255 255 255 255 255 255 255 254 251 255 250 252 255 246 245 250 242 244 255 213 162 255 250 245 248 246 246 253 255 247 247 252 251 253 255 255 255 254 255 255 255 255 255 255 255 255 255 255 255 255 255 255 255 255 255 255 255 255 255 255 255 255 255 255 255 255 255 255 255 255 255 255 255 
255 255 255 255 255 255 255 255 255 255 255 255 255 255 255 255 255 255 255 255 255 255 255 255 255 255 255 255 255 255 255 255 255 255 255 255 255 255 255 255 255 255 255 255 255 255 255 255 255 255 255 255 255 255 255 255 255 255 255 255 255 255 255 255 255 255 255 255 255 255 255 255 255 255 255 255 255 255 255 255 255 254 254 254 253 247 249 252 248 250 255 251 254 255 203 159 108 47 144 238 236 241 239 251 217 172 222 255 243 252 253 255 255 255 254 255 255 255 255 255 255 255 255 255 255 255 255 255 255 255 255 255 255 255 255 255 255 255 255 255 255 255 255 255 255 255 255 255 255 255 
255 255 255 255 255 255 255 255 255 255 255 255 255 255 255 255 255 255 255 255 255 255 255 255 255 255 255 255 255 255 255 255 255 255 255 255 255 255 255 255 255 255 255 255 255 255 255 255 255 255 255 255 255 255 255 255 255 255 255 255 255 255 255 255 255 255 255 255 255 255 255 255 255 255 255 255 255 255 255 255 255 254 253 252 252 255 254 249 255 240 167 130 89 101 22 0 1 27 33 225 255 252 255 231 122 100 85 136 241 255 252 255 255 255 254 255 255 255 255 255 255 255 255 255 255 255 255 255 255 255 255 255 255 255 255 255 255 255 255 255 255 255 255 255 255 255 255 255 255 255 
255 255 255 255 255 255 255 255 255 255 255 255 255 255 255 255 255 255 255 255 255 255 255 255 255 255 255 255 255 255 255 255 255 255 255 255 255 255 255 255 255 255 255 255 255 255 255 255 255 255 255 255 255 255 255 255 255 255 255 255 255 255 255 255 255 255 255 255 255 255 255 255 255 255 255 255 255 255 255 255 254 253 252 252 248 234 228 212 190 113 19 16 14 21 80 96 26 31 10 89 172 207 213 90 57 83 81 77 220 255 252 255 255 255 254 255 255 255 255 255 255 255 255 255 255 255 255 255 255 255 255 255 255 255 255 255 255 255 255 255 255 255 255 255 255 255 255 255 255 255 
255 255 255 255 255 255 255 255 255 255 255 255 255 255 255 255 255 255 255 255 255 255 255 255 255 255 255 255 255 255 255 255 255 255 255 255 255 255 255 255 255 255 255 255 255 255 255 255 255 255 255 255 255 255 255 255 255 255 255 255 255 255 255 255 255 255 255 255 255 255 255 255 255 255 255 255 255 255 255 254 255 254 250 252 229 51 14 19 0 0 7 0 91 146 131 121 56 48 23 0 167 226 95 20 14 0 54 146 225 255 250 252 251 253 253 254 255 255 255 255 255 255 255 255 255 255 255 255 255 255 255 255 255 255 255 255 255 255 255 255 255 255 255 255 255 255 255 255 255 255 
255 255 255 255 255 255 255 255 255 255 255 255 255 255 255 255 255 255 255 255 255 255 255 255 255 255 255 255 255 255 255 255 255 255 255 255 255 255 255 255 255 255 255 255 255 255 255 255 255 255 255 255 255 255 255 255 255 255 255 255 255 255 255 255 255 255 255 255 255 255 255 255 255 255 255 255 255 255 255 254 255 254 251 252 233 100 65 107 139 146 118 52 99 142 143 162 103 127 35 21 125 213 49 2 3 0 135 255 253 252 250 251 251 252 252 255 255 255 255 255 255 255 255 255 255 255 255 255 255 255 255 255 255 255 255 255 255 255 255 255 255 255 255 255 255 255 255 255 255 255 
255 255 255 255 255 255 255 255 255 255 255 255 255 255 255 255 255 255 255 255 255 255 255 255 255 255 255 255 255 255 255 255 255 255 255 255 255 255 255 255 255 255 255 255 255 255 255 255 255 255 255 255 255 255 255 255 255 255 255 255 255 255 255 255 255 255 255 255 255 255 255 255 255 255 255 255 255 255 255 254 254 254 253 252 249 255 251 255 255 255 255 180 184 208 209 194 70 113 169 175 203 146 114 52 12 145 190 222 242 245 255 255 250 253 248 254 255 255 255 255 255 255 255 255 255 255 255 255 255 255 255 255 255 255 255 255 255 255 255 255 255 255 255 255 255 255 255 255 255 255 
255 255 255 255 255 255 255 255 255 255 255 255 255 255 255 255 255 255 255 255 255 255 255 255 255 255 255 255 255 255 255 255 255 255 255 255 255 255 255 255 255 255 255 255 255 255 255 255 255 255 255 255 255 255 255 255 255 255 255 255 255 255 255 255 255 255 255 255 255 255 255 255 255 255 255 255 255 255 255 255 254 254 254 255 253 248 247 250 241 245 251 239 221 228 156 109 129 184 200 191 204 147 61 74 138 155 85 68 93 114 137 206 254 250 252 255 255 255 255 255 255 255 255 255 255 255 255 255 255 255 255 255 255 255 255 255 255 255 255 255 255 255 255 255 255 255 255 255 255 255 
255 255 255 255 255 255 255 255 255 255 255 255 255 255 255 255 255 255 255 255 255 255 255 255 255 255 255 255 255 255 255 255 255 255 255 255 255 255 255 255 255 255 255 255 255 255 255 255 255 255 255 255 255 255 255 255 255 255 255 255 255 255 255 255 255 255 255 255 255 255 255 255 255 255 255 255 255 255 255 254 255 254 255 254 255 249 253 255 242 253 246 250 244 250 251 251 240 207 220 201 191 140 186 135 54 11 33 47 57 86 34 134 254 249 250 255 255 255 255 255 255 255 255 255 255 255 255 255 255 255 255 255 255 255 255 255 255 255 255 255 255 255 255 255 255 255 255 255 255 255 
255 255 255 255 255 255 255 255 255 255 255 255 255 255 255 255 255 255 255 255 255 255 255 255 255 255 255 255 255 255 255 255 255 255 255 255 255 255 255 255 255 255 255 255 255 255 255 255 255 255 255 255 255 255 255 255 255 255 255 255 255 255 255 255 255 255 255 255 255 255 255 255 255 255 255 255 255 255 255 253 251 252 254 254 255 254 244 244 252 247 252 248 242 231 249 255 252 241 254 157 99 65 169 241 161 51 56 38 53 31 156 212 229 247 246 255 255 255 255 255 255 255 255 255 255 255 255 255 255 255 255 255 255 255 255 255 255 255 255 255 255 255 255 255 255 255 255 255 255 255 
255 255 255 255 255 255 255 255 255 255 255 255 255 255 255 255 255 255 255 255 255 255 255 255 255 255 255 255 255 255 255 255 255 255 255 255 255 255 255 255 255 255 255 255 255 255 255 255 255 255 255 255 255 255 255 255 255 255 255 255 255 255 255 255 255 255 255 255 255 255 255 255 255 255 255 255 255 255 255 254 254 252 252 254 252 251 252 251 255 239 179 134 92 112 169 99 211 255 247 234 140 145 182 200 210 145 18 44 73 135 194 227 231 235 254 254 255 255 255 255 255 255 255 255 255 255 255 255 255 255 255 255 255 255 255 255 255 255 255 255 255 255 255 255 255 255 255 255 255 255 
255 255 255 255 255 255 255 255 255 255 255 255 255 255 255 255 255 255 255 255 255 255 255 255 255 255 255 255 255 255 255 255 255 255 255 255 255 255 255 255 255 255 255 255 255 255 255 255 255 255 255 255 255 255 255 255 255 255 255 255 255 255 255 255 255 255 255 255 255 255 255 255 255 255 255 255 255 255 254 252 254 247 248 255 255 250 218 216 244 157 46 48 47 56 24 10 79 216 229 204 115 69 187 210 199 193 97 16 64 113 131 170 234 235 254 255 255 255 255 255 255 255 255 255 255 255 255 255 255 255 255 255 255 255 255 255 255 255 255 255 255 255 255 255 255 255 255 255 255 255 
255 255 255 255 255 255 255 255 255 255 255 255 255 255 255 255 255 255 255 255 255 255 255 255 255 255 255 255 255 255 255 255 255 255 255 255 255 255 255 255 255 255 255 255 255 255 255 255 255 255 255 255 255 255 255 255 255 255 255 255 255 255 255 255 255 255 255 255 255 255 255 255 255 255 255 255 255 255 254 251 251 251 255 219 151 118 92 64 86 65 86 108 134 128 99 59 0 110 154 122 156 74 43 138 195 216 187 72 48 81 130 187 218 240 249 254 255 255 255 255 255 255 255 255 255 255 255 255 255 255 255 255 255 255 255 255 255 255 255 255 255 255 255 255 255 255 255 255 255 255 
255 255 255 255 255 255 255 255 254 254 255 255 255 255 255 255 255 254 254 255 255 255 255 255 255 255 255 255 255 255 254 254 254 254 254 254 255 255 255 255 255 255 255 255 255 255 255 255 255 255 255 255 255 255 255 255 255 255 255 255 255 255 255 255 255 255 255 255 255 255 255 255 253 250 254 253 251 253 248 252 255 255 202 77 58 67 93 139 161 199 231 236 235 224 208 187 146 89 198 208 84 38 46 43 84 188 197 144 11 59 183 195 242 250 253 255 255 255 255 255 255 255 255 255 255 255 255 255 255 255 255 255 255 255 255 255 255 255 255 255 255 255 255 255 255 255 255 255 255 255 
255 255 255 255 255 255 255 255 254 254 255 255 255 255 255 255 255 253 253 253 253 253 253 252 254 255 255 255 255 255 254 254 254 254 254 254 254 254 254 254 254 254 254 254 254 254 254 254 255 255 255 255 255 255 255 255 255 255 255 255 255 255 255 255 255 254 254 254 255 255 255 254 253 252 248 247 247 254 255 247 223 196 102 96 160 204 220 240 244 250 244 245 245 247 242 222 210 161 177 226 98 5 38 36 26 152 206 195 104 63 146 239 230 252 252 255 255 255 255 255 255 255 255 255 255 255 255 255 255 255 255 255 255 255 255 255 255 255 255 255 255 255 255 255 255 255 255 255 255 255 
255 255 255 255 255 255 255 254 253 253 254 255 255 255 255 255 255 253 253 253 253 254 254 254 254 254 254 254 254 254 253 252 252 252 252 252 252 252 252 253 253 253 252 252 252 253 254 254 254 255 255 255 255 255 255 255 255 255 255 255 254 254 255 255 255 253 251 253 253 249 252 254 251 249 249 255 255 224 179 142 156 162 196 250 241 251 238 248 236 222 219 209 198 212 230 234 212 186 161 155 100 4 7 1 8 114 207 210 194 144 185 234 245 243 254 254 255 255 255 255 255 255 255 255 255 255 255 255 255 255 255 255 255 255 255 255 255 255 255 255 255 255 255 255 255 255 255 255 255 255 
255 255 255 255 255 255 254 254 254 253 253 254 255 255 255 255 255 253 250 250 250 250 249 248 250 251 249 250 251 253 252 252 253 253 253 253 253 253 252 251 250 250 248 247 250 251 253 253 255 255 255 255 255 255 255 255 255 255 255 255 255 255 253 253 251 251 249 250 255 247 250 253 255 255 243 212 175 159 170 197 231 246 253 233 232 225 215 200 191 199 186 189 197 197 191 195 202 181 174 155 107 0 8 15 0 69 182 174 195 191 214 252 245 246 253 255 255 255 255 255 255 255 255 255 255 255 255 255 255 255 255 255 255 255 255 255 255 255 255 255 255 255 255 255 255 255 255 255 255 255 
254 253 255 255 255 254 251 250 246 250 254 254 255 255 255 255 255 254 253 247 250 249 253 255 255 255 255 255 255 255 253 250 248 248 248 247 245 247 252 255 255 255 255 255 252 252 250 253 253 255 255 254 255 255 255 255 254 255 255 255 252 254 255 248 246 253 251 251 249 245 255 255 216 195 179 180 205 238 244 243 233 219 210 202 194 194 193 197 193 195 194 187 181 177 188 192 193 196 187 139 91 18 9 4 11 32 74 219 213 202 184 217 241 248 249 254 255 255 255 255 255 255 255 255 255 255 255 255 255 255 255 255 255 255 255 255 255 255 255 255 255 255 255 255 255 255 255 255 255 255 
253 251 255 251 253 254 255 255 255 255 247 249 255 252 253 255 254 252 244 250 246 255 241 211 182 141 116 103 103 104 97 98 101 100 95 92 90 95 105 110 121 134 162 203 235 255 252 249 253 254 255 254 255 255 254 253 252 254 253 252 250 245 242 247 255 249 201 206 255 241 184 146 160 195 229 234 238 220 206 203 194 189 190 189 183 178 183 176 172 169 162 168 173 181 190 194 193 195 189 139 42 22 2 6 42 40 42 105 141 201 207 209 200 243 255 253 254 254 255 255 255 255 255 255 255 255 255 255 255 255 255 255 255 255 255 255 255 255 255 255 255 255 255 255 255 255 255 255 255 255 
255 255 255 249 254 254 221 205 195 198 252 244 250 248 250 254 253 249 246 239 255 202 83 46 25 10 9 1 4 16 26 35 40 39 41 51 60 61 59 60 59 59 44 51 137 202 249 248 251 250 249 255 252 249 252 254 253 254 253 248 246 248 254 252 190 83 34 49 160 113 160 197 232 228 215 199 181 180 175 176 178 178 177 176 177 178 180 180 183 187 187 193 190 192 197 199 198 191 200 112 1 11 44 57 52 53 22 53 124 205 230 203 199 242 247 255 253 254 254 255 255 255 255 255 255 255 255 255 255 255 255 255 255 255 255 255 255 255 255 255 255 255 255 255 255 255 255 255 255 255 
254 252 249 251 254 226 48 14 16 52 223 250 248 251 252 250 251 255 250 249 239 93 0 13 22 6 12 13 6 3 9 7 2 5 10 12 28 39 46 65 78 80 87 55 51 68 149 255 244 244 248 253 252 250 249 253 255 251 247 255 255 250 192 91 38 41 66 23 104 193 223 213 191 192 169 168 182 178 185 183 188 190 191 193 194 186 186 188 190 192 195 192 187 191 200 199 196 199 187 65 0 11 31 57 72 72 71 107 174 217 212 219 190 208 255 251 253 253 254 254 255 255 255 255 255 255 255 255 255 255 255 255 255 255 255 255 255 255 255 255 255 255 255 255 255 255 255 255 255 255 
251 255 250 249 253 212 25 2 37 53 206 247 251 248 251 255 255 241 231 228 190 166 73 34 30 18 16 11 9 12 8 11 12 7 3 2 6 8 15 28 46 54 77 83 72 59 57 157 242 255 255 245 248 249 248 254 252 255 255 236 175 79 43 51 52 69 44 82 221 208 188 188 183 185 199 197 184 192 189 191 186 187 191 193 193 191 190 197 194 190 194 193 198 202 204 204 198 196 149 16 7 1 2 49 188 192 148 127 67 183 229 191 210 190 231 255 252 253 253 254 254 255 255 255 255 255 255 255 255 255 255 255 255 255 255 255 255 255 255 255 255 255 255 255 255 255 255 255 255 255 
251 246 246 251 250 230 43 9 6 25 217 255 250 253 238 223 211 213 213 220 223 218 215 202 175 154 124 99 82 64 47 28 22 22 13 7 2 10 5 12 15 21 55 88 102 101 81 64 101 176 236 249 255 255 249 245 228 174 102 41 13 38 64 81 72 16 60 108 89 127 151 166 189 181 168 166 175 158 164 169 166 164 176 173 160 178 174 179 191 187 193 199 193 200 200 180 160 146 101 10 8 17 36 57 211 255 221 145 169 238 244 214 204 194 203 236 255 253 253 249 255 254 255 255 254 254 254 254 255 255 255 255 254 254 254 254 253 254 255 255 255 255 255 255 255 255 255 255 255 255 
242 249 252 236 248 242 70 3 3 16 116 184 213 194 179 202 211 204 199 194 190 198 209 207 209 217 214 203 188 167 147 108 75 29 9 2 6 8 3 4 4 17 25 29 54 75 76 52 43 28 56 86 109 102 86 73 33 10 18 44 67 74 83 55 11 10 0 24 81 152 180 170 104 46 34 42 49 83 142 96 85 76 81 78 119 116 96 91 104 119 120 127 135 162 190 205 213 152 172 101 0 42 42 88 255 247 249 255 142 197 255 237 206 212 183 213 242 254 245 253 250 253 251 251 253 253 252 252 253 254 254 254 255 251 250 252 254 255 253 253 255 255 255 255 255 255 255 255 255 255 
244 248 183 179 206 208 130 57 48 60 39 100 152 167 171 180 189 204 216 221 219 218 219 212 210 213 219 224 228 231 221 214 181 125 71 30 0 0 9 7 2 9 4 11 13 23 57 51 45 25 18 16 11 17 20 34 57 68 66 65 56 58 28 21 1 29 125 215 215 151 97 23 8 1 0 0 0 2 36 38 69 53 32 18 105 57 0 11 10 9 11 19 36 43 83 159 208 250 255 171 11 59 35 164 255 244 247 253 178 108 250 253 222 208 208 184 211 254 251 244 248 253 254 255 255 255 254 254 254 254 255 255 255 255 253 251 249 250 253 255 255 255 255 255 255 255 255 255 255 255 
247 246 134 135 147 167 201 144 46 95 136 177 177 180 181 214 218 206 186 185 171 160 163 167 160 157 160 162 164 170 190 200 202 205 138 109 51 32 27 17 4 0 6 4 6 10 15 64 62 61 63 62 48 51 52 42 30 27 31 32 26 16 13 8 87 216 212 104 24 0 0 14 4 6 9 13 45 55 53 56 75 76 95 78 100 74 39 17 0 4 3 0 6 2 0 6 32 108 179 136 15 40 68 226 252 254 250 246 255 100 160 255 244 210 208 197 190 189 243 246 254 235 233 232 225 219 215 219 219 217 216 218 218 225 236 247 251 252 251 253 255 254 254 254 254 255 255 255 255 255 
243 240 200 205 225 209 174 160 110 164 199 179 189 218 196 162 124 115 114 113 106 106 105 96 93 90 90 87 77 85 62 83 126 66 66 71 88 89 71 61 34 4 5 3 8 7 9 26 40 30 31 14 6 11 14 21 33 58 65 39 32 14 31 158 228 113 25 0 5 16 21 21 37 29 58 73 68 45 65 98 112 120 99 73 59 71 97 79 61 40 30 24 13 7 0 7 24 0 73 121 5 38 133 244 250 250 251 249 253 211 95 221 255 236 204 220 220 145 184 233 217 214 216 224 243 252 242 245 248 245 241 240 244 235 222 222 243 255 253 252 254 254 253 254 254 255 255 255 255 255 
198 134 145 142 139 158 161 152 196 186 188 204 190 169 175 126 91 99 64 66 79 85 80 87 86 86 90 87 76 69 72 79 93 65 95 66 74 64 62 76 60 121 163 107 3 17 16 27 20 27 35 30 51 49 52 61 59 57 57 65 64 33 76 134 63 10 12 17 51 54 76 96 77 67 60 57 32 73 161 198 196 196 191 166 86 43 47 64 104 111 81 110 85 54 56 12 15 15 160 70 5 69 119 247 252 251 252 251 249 255 186 154 250 255 192 201 183 169 181 216 227 232 218 196 159 143 121 117 116 120 123 149 181 214 241 253 255 252 245 246 254 251 250 251 251 255 255 255 255 255 
178 67 90 81 88 138 192 193 173 181 197 182 177 179 173 144 118 136 148 141 123 125 137 128 127 138 133 130 145 151 148 136 120 132 116 123 114 78 60 51 127 203 182 178 45 24 59 67 52 33 48 56 66 58 57 57 60 63 64 61 61 55 11 0 15 29 39 74 94 114 116 135 78 74 47 46 73 142 202 165 101 96 165 196 164 72 47 47 63 90 83 124 105 145 118 102 67 112 188 11 33 36 95 253 252 252 252 252 250 248 244 175 129 255 190 166 237 230 197 205 183 80 39 36 23 43 39 48 46 57 56 61 65 71 116 159 192 232 252 255 255 247 252 255 250 254 255 255 255 255 
193 77 78 107 171 183 190 164 190 185 178 174 180 165 140 167 210 200 160 98 57 64 62 43 49 61 52 53 81 94 112 141 176 165 147 141 133 130 104 90 224 222 201 73 31 26 62 161 65 30 62 65 63 60 68 63 65 66 68 68 77 38 17 31 15 34 112 112 108 111 90 69 89 48 48 50 120 181 177 62 86 104 54 171 200 131 54 44 47 56 90 95 78 140 127 147 92 106 119 3 44 21 192 255 250 253 253 252 251 244 247 199 156 156 196 159 194 218 219 199 193 95 38 43 34 39 34 37 27 34 36 48 59 64 75 84 85 105 155 199 248 255 242 244 253 255 255 255 255 255 
220 148 159 205 236 202 170 195 186 174 182 167 129 119 188 192 117 44 10 0 0 0 0 4 4 3 1 0 0 0 8 26 59 117 173 175 148 143 102 97 97 167 113 84 43 2 32 67 35 37 64 53 56 55 55 50 50 53 57 60 67 40 5 2 8 23 76 119 118 108 114 56 80 62 36 42 113 208 182 82 77 87 80 155 193 97 47 45 50 57 100 74 120 148 137 66 70 106 59 24 59 53 236 255 251 254 253 254 252 249 233 156 170 198 172 170 169 190 225 215 170 172 72 3 0 0 0 3 10 8 0 0 0 9 16 20 37 53 68 81 142 210 249 255 248 251 252 253 255 255 
251 249 246 225 211 171 199 199 187 186 132 108 150 176 102 0 0 3 2 9 5 10 7 11 8 4 9 11 9 5 8 13 10 8 53 120 180 96 85 62 50 32 86 124 92 37 4 36 51 29 58 55 59 58 61 59 61 54 57 59 60 75 75 136 103 124 150 20 53 78 105 122 75 82 56 33 23 125 212 189 149 146 169 180 111 40 37 50 59 75 69 106 130 116 39 108 88 162 11 68 47 118 255 250 252 251 255 245 250 253 172 98 191 160 42 46 153 159 208 232 197 177 149 90 134 145 173 181 165 175 153 132 91 58 25 26 14 16 22 55 47 71 155 228 255 248 251 253 254 255 
250 249 248 219 197 193 207 184 145 104 153 189 106 20 0 11 6 10 14 9 2 1 2 0 0 0 0 0 1 10 8 7 13 11 0 24 67 72 55 53 44 96 128 124 129 68 12 29 30 22 48 59 50 61 54 53 57 60 59 52 61 56 150 255 246 72 48 43 8 76 98 107 110 77 67 49 39 27 74 138 154 153 146 91 42 33 65 41 126 99 81 136 72 24 127 119 88 133 8 84 29 184 255 249 254 253 248 255 241 187 116 160 115 0 2 0 76 177 173 215 229 188 190 202 230 204 188 216 200 215 195 215 221 220 200 141 86 27 27 13 20 49 57 108 194 255 252 246 251 255 
247 247 236 220 189 217 218 198 168 228 187 46 4 3 15 2 6 10 2 0 13 21 42 55 70 65 47 40 25 8 0 8 2 17 20 21 38 29 54 39 131 161 138 130 132 123 48 3 13 16 35 58 52 61 56 56 54 56 56 56 62 68 92 147 114 62 101 29 102 250 156 64 118 115 106 91 41 30 35 32 33 41 28 34 48 46 79 101 131 67 132 81 21 71 133 23 153 64 0 96 89 232 245 250 249 248 249 242 167 159 148 70 12 5 13 11 0 115 178 189 221 222 184 187 196 224 182 159 222 234 227 220 186 169 202 206 224 188 103 43 22 15 31 54 82 178 250 253 251 251 
255 252 245 248 231 244 251 252 255 186 45 22 11 5 10 4 0 0 42 104 157 177 188 193 174 181 177 183 141 98 87 43 12 8 20 77 66 66 55 116 172 141 141 138 142 149 80 12 16 12 53 59 56 46 62 62 52 52 53 51 43 39 17 0 110 154 43 21 222 255 255 166 85 107 102 102 107 79 29 38 33 55 130 39 36 52 120 155 63 115 128 50 30 122 57 74 199 11 29 75 174 255 240 254 247 246 247 176 145 204 105 5 6 11 9 0 86 189 173 155 203 217 209 174 238 255 213 138 251 254 252 255 223 150 204 189 169 196 233 169 74 23 32 35 52 82 186 255 249 250 
252 250 253 253 254 251 244 253 185 55 28 10 16 9 9 15 38 143 206 182 116 106 163 42 36 27 16 93 97 53 139 180 120 60 73 79 51 62 40 172 142 136 141 149 129 142 124 31 11 13 19 32 20 111 172 89 13 15 12 6 26 22 90 149 157 93 23 34 102 188 211 255 201 108 88 63 140 156 115 60 29 57 57 52 83 111 168 132 55 71 126 92 74 117 13 213 108 7 61 97 222 249 248 251 246 255 188 130 196 125 16 11 13 13 0 111 224 149 157 187 190 209 205 193 177 254 205 92 217 243 246 242 144 183 254 255 243 173 168 236 215 89 16 19 30 76 89 213 249 250 
253 248 252 253 251 250 247 230 79 46 14 1 6 18 27 133 223 198 111 68 64 19 85 76 1 26 69 95 84 38 37 46 123 102 68 68 46 42 22 78 167 138 138 139 128 143 130 64 12 24 4 13 8 68 51 19 20 13 0 28 82 114 102 58 61 46 28 28 15 64 80 67 105 113 60 93 130 188 172 56 27 18 19 17 67 102 133 132 136 73 166 102 110 38 102 226 26 23 40 148 255 243 252 242 253 230 129 171 183 11 7 9 11 8 113 239 145 152 230 224 190 180 141 209 181 142 129 135 164 153 199 141 111 239 250 242 247 255 152 141 243 229 71 22 10 47 54 129 243 248 
252 249 252 255 254 254 248 153 60 11 3 6 20 59 171 227 169 121 63 151 115 82 136 167 143 156 118 53 114 152 90 49 103 85 49 29 30 25 17 21 122 145 145 135 137 134 107 64 18 18 11 7 28 12 18 24 3 23 77 121 77 48 52 51 34 13 14 55 38 43 78 50 83 36 30 62 52 64 83 90 17 14 13 29 56 34 43 60 73 81 114 101 76 10 173 209 23 17 35 202 255 251 253 248 254 160 131 207 76 0 11 9 19 85 243 180 112 252 232 113 111 173 193 158 198 166 179 202 193 185 183 165 138 188 219 250 220 138 155 199 147 209 240 65 7 15 51 84 173 255 
254 254 253 254 252 255 208 63 29 8 8 8 40 156 228 147 12 100 198 140 150 172 174 180 162 178 154 187 165 79 107 140 187 189 96 21 21 19 17 11 26 97 142 136 114 66 22 0 8 17 6 17 41 53 58 34 92 108 80 43 55 55 26 16 10 16 6 17 21 21 17 20 31 39 18 43 89 80 108 102 76 89 72 80 79 53 72 62 2 39 74 47 53 15 71 101 18 69 125 250 246 252 246 255 222 122 182 179 19 7 13 4 50 193 154 143 101 129 115 72 131 156 157 179 159 213 160 176 204 230 190 199 180 157 156 164 121 181 247 255 201 147 251 186 33 8 44 62 117 238 
250 253 252 253 253 251 128 43 14 6 6 4 107 219 165 30 93 235 181 144 175 158 155 141 127 161 181 172 210 191 119 172 204 194 100 49 23 24 9 14 16 16 45 126 208 101 93 113 90 53 8 18 0 47 110 103 79 33 61 64 22 5 14 15 16 26 20 28 16 21 28 18 58 44 47 26 47 55 74 89 109 85 77 98 88 70 41 27 26 60 41 42 52 12 17 18 6 59 200 253 250 241 251 255 177 108 220 113 0 8 6 0 135 227 121 133 157 95 75 99 92 148 108 167 147 199 186 144 155 100 147 177 202 180 149 138 193 255 248 243 254 181 181 255 108 12 22 49 90 199 
254 255 250 248 253 233 58 50 1 3 1 43 185 191 131 43 188 183 133 138 150 167 84 106 145 162 88 59 128 191 196 210 161 88 27 45 35 33 43 28 26 56 66 110 109 93 178 178 179 131 26 30 99 99 69 49 55 70 86 42 36 32 20 37 65 49 27 30 21 25 9 38 98 25 38 24 29 53 58 64 63 123 101 81 78 53 33 24 64 58 32 75 49 77 114 6 0 115 255 248 252 250 252 241 116 155 232 49 2 14 4 30 197 179 168 235 137 94 68 102 193 227 126 151 209 149 195 202 141 139 163 191 146 178 176 155 195 248 248 252 255 187 135 248 182 30 10 40 66 163 
250 249 253 248 255 185 56 35 0 13 0 93 184 173 98 117 184 149 152 109 117 154 149 141 140 136 42 33 25 107 203 142 70 48 39 7 6 31 51 25 64 101 92 62 0 18 60 38 28 68 98 104 68 36 51 60 41 90 31 22 33 47 58 61 77 68 34 33 66 20 15 67 29 2 2 26 75 66 40 106 156 203 179 133 90 32 20 46 69 27 68 129 241 200 52 0 57 231 255 242 251 253 255 221 152 235 208 28 7 13 0 78 236 142 182 255 197 78 67 139 232 141 91 193 195 191 176 215 195 168 152 168 178 174 178 171 160 210 175 171 184 145 171 224 230 63 4 31 67 137 
252 246 251 244 255 151 56 10 1 11 2 128 199 139 28 151 159 119 125 118 144 84 145 153 125 100 63 65 83 137 148 112 103 81 77 55 43 35 45 74 104 116 76 31 46 64 81 85 90 102 69 50 65 98 42 46 35 17 16 42 47 51 59 62 63 70 77 22 43 20 15 18 34 46 44 48 26 61 57 67 176 203 207 148 182 133 35 79 22 57 49 54 90 29 2 7 169 255 250 245 253 251 254 246 244 255 179 12 1 9 0 110 250 170 124 159 154 80 69 144 177 138 135 115 170 176 208 220 192 173 185 177 156 188 199 188 167 192 204 218 232 245 152 176 245 89 11 18 73 120 
249 253 255 246 244 148 56 26 11 6 28 113 151 133 119 105 102 108 108 108 112 111 93 104 93 87 106 82 105 87 76 74 65 85 69 86 79 85 58 78 64 52 9 16 51 93 84 76 75 49 53 44 47 136 79 31 10 27 62 25 32 47 47 40 46 43 57 85 41 22 18 8 13 46 83 96 100 161 181 204 218 241 220 187 128 44 69 27 36 78 16 10 7 0 6 51 236 252 249 254 253 250 252 253 243 254 186 13 2 9 5 107 233 156 183 214 220 194 184 140 164 188 192 100 143 196 186 173 187 177 186 211 199 191 228 184 158 191 252 255 244 255 171 167 240 81 5 15 69 125 
253 249 255 216 89 63 45 42 24 7 19 32 46 57 29 35 32 32 27 10 23 20 12 20 17 13 12 19 3 17 20 21 22 21 27 33 30 32 29 26 42 35 44 54 59 51 58 57 49 41 18 7 4 5 16 5 8 52 21 5 29 18 9 23 31 33 22 85 129 37 20 19 31 114 90 82 70 62 77 72 85 88 62 37 21 75 49 24 85 14 101 76 1 11 4 153 255 250 250 254 250 254 251 250 249 255 195 14 0 12 0 109 244 144 220 255 250 254 242 173 198 208 190 163 134 177 155 155 177 189 185 187 181 208 151 196 174 182 242 241 245 255 142 169 220 74 0 33 65 139 
254 246 255 208 38 38 16 14 4 3 2 6 16 37 31 48 36 50 48 51 68 58 61 68 74 75 78 79 82 79 71 75 71 64 74 49 34 45 85 34 35 8 17 2 5 1 5 10 7 21 28 14 25 31 24 27 44 69 41 40 63 72 40 35 51 32 13 17 20 30 14 37 32 86 68 78 91 26 16 21 17 28 48 80 106 45 12 84 36 107 124 19 9 2 89 238 251 252 253 255 254 254 252 254 245 255 221 41 0 13 0 70 243 177 188 255 244 242 210 175 158 180 126 203 137 172 180 181 190 196 190 123 181 213 155 213 182 180 164 159 207 192 114 183 201 47 5 37 71 153 
246 254 253 241 166 135 72 34 12 17 27 53 92 89 86 109 96 93 76 71 71 61 66 73 63 39 42 36 47 85 131 133 85 60 19 22 30 66 92 81 87 87 88 62 63 80 103 110 110 128 134 132 136 142 139 143 148 129 138 151 134 136 149 145 134 125 100 115 98 95 107 83 102 97 110 136 75 81 57 72 85 82 90 77 36 22 70 50 32 96 16 5 0 59 155 255 242 254 254 255 255 254 254 249 251 254 246 80 0 14 11 10 207 216 125 218 187 155 135 192 164 191 201 133 128 154 132 153 161 155 209 175 170 145 218 180 187 231 229 219 185 157 159 204 158 15 14 42 84 190 
252 250 243 252 255 252 141 43 5 7 14 21 125 164 104 29 122 128 66 84 59 44 92 97 73 81 100 102 75 66 51 47 51 42 43 52 60 62 43 68 61 49 53 44 53 58 56 61 62 55 45 45 39 27 27 19 20 31 20 15 16 15 11 19 30 31 32 32 32 44 39 53 40 35 37 48 19 47 39 35 39 48 37 28 47 63 49 31 37 0 16 7 35 95 133 242 249 253 254 255 255 254 253 248 253 245 255 142 0 11 20 0 110 251 164 145 174 213 234 242 206 176 214 204 189 177 149 173 189 153 137 208 196 197 216 198 237 242 253 249 253 126 160 210 77 9 24 46 112 231 
255 252 253 248 248 255 189 71 17 0 4 0 78 206 162 86 100 174 193 182 154 124 152 142 158 176 133 122 157 145 123 118 34 38 36 33 23 40 31 38 31 23 41 23 12 20 21 25 23 32 37 19 0 0 3 3 7 1 1 7 5 6 5 2 0 0 6 24 29 15 19 24 22 81 100 113 95 36 43 41 46 51 48 44 29 15 42 36 0 1 0 41 78 100 229 242 254 253 254 255 255 254 253 255 252 245 255 215 35 1 10 23 28 205 246 127 235 255 246 243 251 189 164 194 216 180 146 165 209 180 187 208 223 212 199 188 198 251 254 255 170 114 204 155 18 16 29 57 165 247 
252 252 253 250 251 253 245 145 51 0 8 8 11 138 200 176 128 39 136 176 206 161 170 183 174 157 126 143 145 149 175 103 88 80 68 101 100 72 70 52 44 36 32 12 0 0 3 0 0 0 0 0 15 23 15 6 0 0 8 12 5 4 3 6 7 10 8 43 74 11 1 0 5 151 206 225 191 45 10 12 5 0 0 0 0 0 1 27 125 145 114 219 200 221 246 249 249 254 254 255 255 254 254 251 245 250 244 255 128 0 25 14 8 86 233 182 98 236 255 253 190 133 206 195 190 196 202 200 196 211 198 180 201 212 243 219 168 189 236 167 124 187 177 52 13 19 50 106 223 255 
255 255 253 253 251 249 252 227 77 14 7 7 3 26 128 197 172 107 27 80 162 167 188 183 145 195 172 188 216 240 200 112 112 66 127 190 102 20 8 4 0 5 3 23 75 72 71 85 95 108 104 110 171 208 200 186 142 74 14 0 1 0 0 0 0 0 6 13 0 0 34 74 80 140 205 200 190 180 207 210 192 142 88 55 50 98 166 228 255 255 255 255 251 246 247 253 251 255 255 255 255 255 255 251 246 255 242 255 234 59 6 29 20 22 130 218 135 98 200 179 147 206 252 242 247 189 164 204 210 197 201 167 230 249 247 241 238 165 149 123 196 182 69 22 17 37 86 177 249 247 
255 255 254 253 253 252 250 249 187 39 7 4 7 11 14 101 181 185 138 69 120 85 117 166 201 197 158 204 189 155 93 142 111 197 188 72 8 7 5 0 5 4 2 143 252 255 247 255 255 255 255 255 255 255 255 255 255 253 180 80 35 35 37 40 46 50 58 67 89 160 217 247 255 250 252 249 248 253 255 255 255 255 254 242 239 255 255 253 246 247 242 253 249 246 251 252 251 255 255 255 255 255 255 254 249 254 253 249 255 208 35 22 29 19 34 128 217 154 103 123 180 255 255 240 253 188 158 245 248 251 232 160 206 255 255 252 192 108 156 210 180 63 23 13 23 79 140 247 250 245 
255 255 255 254 254 254 250 245 255 135 15 15 8 5 6 27 56 133 181 179 168 92 54 52 38 101 101 49 58 84 120 208 189 133 35 1 9 5 4 13 9 4 113 248 247 245 250 248 249 250 248 250 249 250 249 247 248 245 255 250 230 232 235 239 243 247 246 247 255 255 252 249 249 253 251 251 250 254 248 252 249 250 254 254 254 250 245 251 248 249 255 255 254 253 253 253 253 255 255 255 255 255 255 252 255 252 255 253 247 254 191 15 18 25 23 48 113 196 197 168 104 161 205 242 255 167 199 255 255 255 255 196 169 202 168 123 117 171 223 156 54 27 20 33 60 120 236 249 251 240 
255 255 255 255 255 255 245 248 247 249 137 47 32 8 12 8 11 34 66 110 141 180 186 175 158 169 179 172 192 193 165 114 45 7 2 9 8 5 12 8 3 116 245 241 244 247 249 251 253 254 253 253 255 251 249 251 250 246 248 250 248 255 255 255 255 255 253 253 249 247 253 254 249 251 253 253 252 251 251 253 254 255 255 253 252 253 254 252 252 254 251 254 255 255 255 255 255 255 255 255 255 255 255 254 254 252 252 255 255 246 255 192 36 11 16 16 23 50 136 180 198 149 128 129 124 143 165 193 187 173 169 131 149 134 138 177 220 184 98 29 17 17 36 54 140 239 253 237 252 243 
255 255 255 255 255 255 252 250 251 244 250 171 95 18 13 12 7 7 14 21 34 48 66 97 111 115 117 106 82 42 21 0 0 13 6 9 8 5 0 27 138 238 250 243 249 249 252 249 255 255 255 252 254 255 254 251 251 254 250 250 252 251 251 252 252 252 253 255 254 255 254 254 255 255 255 253 254 253 255 254 254 253 254 254 254 254 252 253 255 255 255 255 255 255 254 255 255 255 255 255 255 255 255 255 254 255 254 253 253 240 249 255 227 73 14 21 17 8 0 41 97 158 171 180 158 190 148 152 143 141 158 162 205 199 194 155 88 29 17 25 36 43 91 166 242 253 241 253 252 254 
255 255 255 255 255 255 252 244 253 246 245 255 226 114 28 0 1 13 6 5 6 2 0 1 0 0 0 0 0 0 3 4 7 8 6 0 0 10 79 198 255 249 243 250 248 249 250 253 253 253 253 253 253 253 253 254 254 253 254 254 253 254 253 253 253 253 253 253 253 253 253 253 253 253 253 254 254 254 253 253 253 253 253 253 253 254 254 254 254 254 254 253 253 253 253 253 253 253 253 253 253 253 253 253 254 254 254 253 251 249 250 240 251 249 173 58 39 19 46 17 6 5 33 76 105 130 154 145 161 164 156 152 114 85 36 16 23 25 39 39 72 138 209 255 249 247 253 253 255 255 
255 255 255 255 255 254 248 251 242 255 251 242 255 253 211 116 41 4 0 0 7 11 6 11 6 4 6 7 7 6 4 6 4 0 0 14 75 180 251 248 240 251 254 255 254 253 253 254 255 255 255 255 255 255 255 255 255 255 255 255 255 255 255 255 255 255 255 255 255 255 255 255 255 255 255 255 255 255 255 255 255 255 255 255 255 255 255 255 255 255 255 255 255 255 255 255 255 255 255 255 255 255 255 255 255 255 255 255 255 253 249 255 242 254 255 234 147 86 51 43 51 54 33 12 10 0 11 17 10 11 21 14 15 14 30 41 40 59 90 127 203 255 244 239 251 254 253 252 251 251 
255 255 255 255 255 255 247 255 251 255 246 246 250 252 255 255 226 170 90 42 13 9 7 5 6 4 1 1 3 6 5 3 18 54 125 201 244 253 243 239 247 247 243 243 242 242 242 243 243 244 244 244 244 244 243 243 243 243 243 243 243 243 243 243 243 243 243 244 244 244 244 244 244 244 244 244 244 244 244 243 243 243 243 243 243 242 242 242 242 242 242 244 244 244 244 244 244 244 244 244 244 244 244 242 243 244 244 244 244 239 245 242 246 243 235 241 254 235 175 119 79 63 67 71 75 59 54 59 55 49 46 42 53 59 73 89 122 167 216 251 253 247 251 250 249 251 254 254 254 253 
255 255 255 255 255 254 253 253 245 237 228 221 212 188 151 130 113 111 94 70 43 16 1 1 2 2 2 1 2 3 8 29 63 85 93 100 102 111 134 146 146 146 146 146 146 146 147 148 147 145 146 146 146 146 146 146 146 146 146 146 146 146 146 146 146 146 146 146 146 146 146 146 145 145 145 145 145 145 145 146 146 146 146 146 146 145 145 145 145 145 145 145 145 145 145 145 145 145 145 145 145 145 145 143 144 145 146 145 146 149 140 148 141 145 141 117 82 42 60 54 34 6 10 12 14 19 29 34 40 38 29 24 33 35 48 74 115 131 142 168 194 222 228 234 245 250 253 255 255 255 
255 255 255 255 255 252 252 253 249 240 235 232 228 209 180 161 149 136 133 127 125 129 128 122 120 119 116 117 119 122 123 127 124 119 124 136 143 156 168 174 173 171 172 172 172 172 172 172 172 172 172 172 172 172 172 172 172 172 172 172 172 172 172 172 172 172 172 172 172 172 172 172 172 172 172 172 172 172 172 172 172 172 172 172 172 172 172 172 172 172 172 172 172 172 172 172 172 172 172 172 172 172 172 173 173 173 173 173 173 176 175 173 173 177 179 173 147 116 104 90 90 92 84 82 81 82 87 90 99 103 118 123 118 125 130 142 148 150 169 190 214 231 237 243 245 249 253 255 254 252 
