P2
46 56
255
135 136 136 137 132 131 133 134 127 126 118 54 40 32 31 33 26 30 27 27 29 34 31 25 29 25 31 36 26 18 26 45 58 110 128 127 129 128 133 132 132 133 129 133 132 131 
137 137 135 136 132 132 134 132 122 97 43 33 33 30 30 32 23 28 27 26 20 25 26 24 21 25 30 28 29 27 29 32 25 34 26 88 123 132 133 132 132 135 130 132 131 131 
137 137 134 131 132 132 138 97 49 37 36 26 39 27 29 27 29 29 31 32 25 29 30 32 34 21 29 26 28 30 30 19 35 25 33 30 28 97 131 126 128 127 130 132 127 129 
133 136 136 136 125 120 37 33 35 33 35 28 40 29 28 30 27 28 30 29 28 31 37 28 31 27 26 30 28 27 27 28 32 24 39 31 26 38 51 125 128 128 131 132 130 127 
137 134 134 135 113 26 24 35 29 40 32 38 37 30 28 34 34 32 31 30 27 39 27 38 32 42 31 42 33 35 31 29 29 36 55 34 24 39 36 46 128 127 123 125 127 129 
135 129 136 113 30 25 34 35 28 38 30 32 37 36 25 39 43 34 33 29 31 54 31 76 44 34 36 28 56 37 41 29 38 41 61 41 56 23 43 49 28 122 121 124 129 127 
136 135 110 32 34 34 38 39 35 41 36 39 43 38 29 48 60 43 38 34 59 69 59 62 53 31 43 48 76 42 41 33 38 48 36 35 72 29 45 43 39 41 125 129 126 126 
133 132 21 42 30 37 34 39 34 42 32 45 50 52 37 54 59 42 58 42 68 43 54 65 45 66 59 60 47 59 39 59 46 48 62 39 48 71 31 35 47 45 25 134 124 125 
131 69 31 42 33 52 37 48 46 49 40 44 54 53 52 55 53 52 56 51 65 51 48 51 63 64 60 58 51 68 41 68 58 61 66 44 47 61 38 38 58 40 30 111 123 128 
128 40 34 48 43 55 51 50 48 52 56 47 54 58 54 60 51 53 56 52 54 58 38 60 70 77 65 51 37 66 44 66 56 58 46 65 60 53 54 40 55 53 55 27 118 127 
61 57 50 51 53 63 49 47 52 62 61 53 49 41 47 63 48 68 59 56 44 59 41 56 68 63 63 51 54 49 51 46 61 35 54 62 64 53 60 59 53 53 31 25 108 130 
30 52 49 56 40 58 57 47 55 58 55 51 41 44 62 40 51 58 57 50 60 55 53 56 55 56 49 50 55 35 51 41 48 39 66 62 53 61 45 62 47 43 31 42 48 113 
35 47 51 50 46 52 54 49 55 55 65 54 50 43 48 40 46 44 49 39 59 46 47 49 41 54 45 45 42 42 44 39 44 49 62 45 58 43 57 54 55 57 40 39 25 105 
35 53 41 57 48 56 66 57 69 63 76 60 59 56 63 62 73 66 64 77 66 60 57 50 55 70 71 66 62 71 74 82 67 75 52 47 65 68 56 66 66 64 48 38 26 100 
43 43 61 49 60 66 72 78 73 67 77 86 104 109 113 116 144 137 135 137 133 104 95 94 86 122 131 135 121 127 147 145 135 123 90 60 69 65 67 62 63 54 48 42 29 84 
40 57 54 54 66 77 77 86 85 95 87 91 115 133 172 166 168 166 171 178 168 150 158 169 168 161 165 184 167 174 167 182 150 134 94 93 92 72 79 68 61 48 44 38 33 51 
51 65 61 64 77 70 88 97 102 116 113 113 122 138 171 179 148 162 165 181 173 170 173 181 178 173 184 193 189 191 184 182 175 134 114 101 86 70 69 76 66 67 58 28 31 23 
49 45 59 66 78 84 91 91 115 123 108 127 133 162 175 175 169 168 166 183 180 187 174 188 187 189 198 195 199 198 191 193 192 154 129 100 87 82 74 88 69 65 73 34 31 20 
49 34 52 59 72 73 90 101 115 121 123 139 152 187 185 194 196 189 188 200 187 200 188 197 202 198 203 195 203 202 200 197 197 187 154 128 109 82 74 70 65 72 45 47 23 31 
41 49 51 43 65 72 79 108 129 136 138 165 175 190 189 196 200 196 197 199 201 198 195 190 202 203 203 203 203 202 203 201 197 190 183 153 130 96 66 60 49 56 48 38 45 35 
43 38 42 43 61 62 68 126 141 150 157 165 180 187 193 196 200 199 202 203 202 199 197 198 202 204 203 205 206 199 202 196 197 189 184 161 154 130 93 52 42 37 40 28 34 38 
48 35 35 34 48 53 76 130 149 156 169 167 173 179 192 193 199 197 202 202 200 200 202 200 198 201 204 200 201 198 199 195 193 188 179 168 157 148 117 67 39 34 32 29 26 34 
45 31 26 36 41 52 83 125 149 159 166 175 180 181 191 196 195 197 200 198 196 200 200 197 197 201 202 197 197 198 198 192 189 183 176 171 158 153 118 89 40 27 29 24 34 26 
33 35 32 29 38 40 71 123 146 161 173 173 185 186 189 193 197 195 196 198 197 198 199 195 193 198 198 191 195 192 192 189 185 183 176 168 157 152 121 90 36 25 24 26 26 28 
32 36 32 27 36 40 71 121 148 166 174 179 185 189 191 193 197 197 194 197 198 199 200 194 197 197 196 194 194 192 192 188 185 185 173 167 162 151 133 86 32 25 24 21 26 39 
45 25 30 28 29 33 77 125 150 167 174 185 188 192 197 197 200 199 199 199 201 199 201 200 198 200 199 199 194 196 196 192 193 188 178 169 162 147 127 86 27 24 24 23 29 34 
46 22 27 34 32 43 91 125 143 166 171 176 185 190 193 197 201 201 201 200 201 202 203 201 202 201 199 199 199 196 200 200 194 186 181 175 163 145 123 78 23 25 23 22 22 27 
45 26 27 35 37 64 118 131 152 141 117 142 151 175 181 186 195 198 199 199 199 199 201 201 200 200 201 198 200 199 197 190 186 180 167 161 157 144 119 80 32 24 23 20 30 23 
53 24 33 36 29 105 139 134 105 63 63 64 66 85 91 106 137 163 174 182 191 195 196 197 196 192 192 190 188 174 159 133 125 114 103 98 86 138 121 107 39 24 23 19 30 23 
53 26 37 30 38 117 151 84 82 123 107 84 78 73 57 55 56 74 102 152 181 189 198 194 191 184 175 151 100 78 63 61 59 52 55 57 64 36 116 119 41 25 21 20 29 17 
51 36 35 33 52 138 129 94 132 146 137 125 106 96 101 87 92 101 98 112 167 185 193 193 188 176 167 103 86 71 68 80 105 123 143 143 140 106 39 128 64 19 27 22 26 13 
35 35 38 37 71 145 131 114 111 107 74 63 72 41 57 47 88 91 120 108 146 187 194 195 193 170 125 107 110 92 76 80 90 91 100 118 123 131 71 128 77 22 25 23 23 15 
31 32 48 50 84 151 150 138 113 108 59 86 157 52 34 54 154 99 108 131 108 195 201 202 199 151 115 104 116 88 32 109 30 59 55 84 100 112 111 125 99 20 21 18 16 21 
28 33 57 43 92 155 178 181 166 138 63 121 191 80 66 55 196 164 120 159 125 184 206 204 199 132 152 122 136 159 57 49 32 150 85 43 112 115 129 133 106 21 24 22 12 19 
30 28 60 51 88 153 181 187 188 166 128 112 112 148 146 153 163 155 175 173 160 183 208 205 196 141 172 167 137 156 89 93 116 148 100 85 124 149 156 142 114 27 29 25 16 21 
33 28 77 67 70 150 182 186 190 178 159 140 141 140 137 149 151 163 185 188 174 189 207 206 195 149 172 152 159 157 133 126 112 131 116 134 164 172 169 153 100 49 23 27 22 25 
33 42 41 112 43 137 173 186 192 187 186 177 168 165 163 164 178 195 200 185 179 187 208 206 192 156 169 194 160 152 158 147 139 143 139 164 174 172 166 150 72 83 21 24 18 22 
29 40 26 105 57 128 165 178 192 193 200 199 196 192 191 192 199 200 195 185 184 186 207 207 182 162 166 191 196 183 164 150 158 163 166 173 173 169 159 147 65 70 41 20 17 21 
40 26 14 96 90 110 156 178 185 192 200 202 202 204 202 200 199 197 192 188 179 185 208 208 180 163 165 183 199 202 198 196 197 193 191 190 177 167 152 119 105 43 66 28 25 21 
31 21 29 56 126 91 144 166 184 192 199 202 202 205 201 201 201 198 187 183 179 188 205 205 177 161 165 178 193 198 200 200 200 197 195 190 177 164 145 97 120 8 53 51 21 21 
25 21 24 11 97 91 126 155 181 189 199 199 202 201 200 199 193 190 157 170 179 194 204 204 186 154 148 169 189 195 200 198 200 199 193 189 177 156 136 108 111 20 45 50 30 19 
17 17 22 15 15 86 117 145 171 187 193 194 197 195 196 192 188 173 158 190 177 200 202 204 195 151 146 157 187 193 198 198 194 194 189 182 170 144 114 102 27 20 32 38 34 27 
18 14 22 23 25 73 111 132 158 172 183 191 192 190 185 181 176 172 171 188 178 199 204 203 192 165 176 151 180 188 194 191 191 184 182 173 153 135 115 6 31 27 28 32 35 30 
19 17 16 25 22 47 114 117 144 157 169 177 180 176 172 163 168 177 137 124 175 192 198 196 187 161 131 167 170 178 188 183 186 177 171 165 147 119 99 19 31 25 28 29 35 28 
19 17 28 27 18 10 121 118 131 147 162 166 165 162 153 159 185 179 162 115 105 153 168 163 125 86 138 178 164 168 169 172 174 169 162 147 132 108 67 22 25 26 22 34 32 34 
21 20 24 16 26 12 124 117 118 129 144 147 145 151 159 179 185 187 169 143 117 102 89 90 89 142 165 171 168 163 165 165 164 163 147 134 121 109 27 18 24 26 21 37 25 37 
26 32 21 21 40 14 96 124 119 119 136 143 145 145 163 164 182 186 184 167 139 111 106 113 144 164 172 171 169 156 149 144 151 151 132 121 114 113 7 24 22 26 27 38 33 44 
43 29 17 33 31 22 17 118 123 115 135 149 144 131 126 147 178 182 185 185 170 143 143 153 163 170 169 166 154 149 125 147 149 147 126 122 112 75 18 28 28 30 25 36 35 41 
32 21 27 39 18 26 12 105 122 121 120 151 163 117 129 107 97 125 155 167 172 183 185 177 175 176 169 160 133 111 110 151 155 140 120 121 112 20 22 29 30 38 28 33 20 45 
19 25 36 37 40 20 21 42 109 117 117 125 147 151 170 176 176 120 97 75 93 115 131 117 95 91 93 88 140 139 132 158 153 127 118 118 69 22 26 35 34 41 34 31 25 37 
20 32 44 37 30 18 21 36 95 112 115 121 140 159 168 167 175 176 152 170 157 119 105 124 135 132 131 157 161 174 144 140 132 109 112 90 30 29 31 35 31 42 32 21 19 30 
17 34 32 34 20 16 19 37 105 91 109 126 141 154 160 159 148 161 158 147 144 148 146 137 129 138 146 144 166 157 146 134 110 106 95 14 34 35 46 43 37 35 36 21 19 18 
22 34 22 24 18 17 17 47 108 105 89 113 135 160 162 168 162 135 142 146 130 130 127 133 139 139 130 157 162 156 144 122 104 92 14 23 42 38 49 39 30 33 35 19 22 19 
20 26 29 18 17 20 18 59 105 108 104 94 120 146 169 170 179 164 150 130 121 117 120 115 124 140 156 162 158 151 123 105 85 29 14 30 29 32 34 34 21 35 22 19 19 17 
24 25 20 21 16 20 28 72 107 117 110 100 95 124 151 172 180 183 181 182 175 169 169 166 163 167 166 162 156 128 95 79 70 17 18 20 27 26 20 18 28 32 20 20 21 21 
31 30 28 18 22 40 42 74 109 115 115 109 102 96 128 156 178 187 190 192 192 190 187 186 183 177 165 151 130 84 77 83 70 23 21 18 18 17 18 28 38 22 18 15 18 20 
