P2
46 56
255
133 133 130 129 128 132 126 130 134 124 130 127 94 34 31 33 31 25 27 28 31 35 27 43 36 27 25 35 42 52 51 104 120 116 125 126 127 128 126 129 127 125 128 127 126 126 
132 131 133 130 132 128 126 128 125 128 131 117 47 23 32 30 29 22 28 36 29 37 30 39 25 34 34 30 34 32 34 24 27 92 123 125 125 128 126 128 127 125 126 124 126 125 
132 132 131 130 131 124 127 117 121 114 87 49 36 31 27 32 31 31 31 28 32 33 36 40 41 50 35 30 47 33 21 38 27 28 33 127 127 122 126 126 122 122 128 126 125 127 
131 130 133 127 128 127 127 119 98 51 46 43 42 31 36 34 34 33 34 38 31 49 34 55 53 60 48 41 37 48 27 51 29 31 42 24 95 123 115 123 125 119 123 125 124 126 
130 129 131 128 116 122 112 104 47 34 37 38 44 38 35 41 49 41 43 41 41 52 45 49 43 52 58 53 52 52 45 61 51 36 48 33 41 46 124 124 117 124 122 125 125 127 
133 135 133 127 116 115 85 42 38 32 28 35 45 42 43 47 49 45 47 55 42 50 50 49 36 62 46 60 52 38 47 53 62 33 36 34 43 47 21 119 120 123 123 125 125 126 
131 127 124 130 100 51 37 40 39 39 37 41 46 45 44 52 45 49 48 46 53 43 54 40 40 65 44 55 46 44 51 39 63 35 49 43 36 73 38 47 111 107 124 120 123 126 
131 130 133 92 38 31 48 44 37 37 46 45 50 47 43 41 34 45 45 48 41 48 50 46 48 54 51 48 48 45 36 36 34 51 60 51 46 47 40 51 41 57 123 117 121 117 
127 122 77 41 37 33 48 52 43 41 46 55 44 52 50 48 83 78 86 104 116 89 98 86 85 94 100 108 98 85 83 79 56 59 47 40 50 49 46 53 44 35 95 103 123 120 
123 134 32 31 43 46 42 39 44 51 56 59 68 93 114 142 140 148 165 150 166 152 159 156 159 152 168 167 162 157 153 149 129 106 58 55 57 40 49 49 44 38 43 114 102 120 
132 88 37 41 50 51 33 51 54 61 59 76 95 110 147 171 167 157 141 161 175 171 165 156 175 185 188 179 184 182 168 156 165 125 92 84 73 57 47 49 41 44 38 90 120 100 
123 41 40 40 54 36 49 65 80 82 105 112 119 133 164 172 183 184 174 180 187 178 189 172 183 193 188 190 188 194 191 178 185 160 121 89 72 73 59 50 45 40 31 23 107 102 
68 35 45 45 46 46 67 73 86 104 126 120 131 163 187 187 194 196 186 196 192 197 196 190 187 197 195 194 193 195 197 191 190 182 156 118 78 65 63 58 48 55 45 31 108 117 
24 35 36 51 49 65 58 81 104 120 130 146 151 185 189 193 198 203 199 202 199 200 198 196 198 197 196 200 199 199 198 196 194 187 184 154 121 78 57 54 73 42 52 32 78 105 
36 41 48 57 46 66 75 79 119 129 145 165 171 181 186 197 202 202 202 203 203 203 200 201 201 200 202 202 200 201 200 198 196 187 183 171 144 123 68 56 63 55 51 41 25 103 
35 32 40 53 52 69 74 85 136 142 161 177 178 182 191 196 202 200 201 201 202 203 203 203 202 202 206 204 200 201 199 199 195 186 184 177 166 147 98 57 44 51 36 27 19 108 
41 24 44 47 51 60 74 101 147 156 168 179 182 188 191 198 200 201 202 201 202 203 204 200 201 202 203 202 202 202 199 197 192 188 186 174 165 149 130 74 53 42 32 50 22 106 
35 29 40 44 53 54 79 110 135 162 171 180 189 193 191 197 197 201 203 202 202 203 202 204 202 203 204 201 201 200 198 197 192 189 182 175 167 151 144 100 54 36 46 22 29 82 
36 37 39 37 53 44 72 97 135 166 175 183 185 191 192 197 200 201 201 203 202 204 204 204 204 205 203 202 201 202 201 197 195 193 184 174 166 161 138 113 52 33 29 31 24 48 
31 25 42 37 45 36 65 100 125 165 175 179 186 191 192 198 201 203 202 203 203 203 206 206 204 204 205 202 201 201 201 201 197 189 187 174 174 162 140 107 52 35 29 30 28 46 
26 23 36 38 37 46 51 104 140 155 172 176 174 173 184 190 196 199 199 202 201 203 205 204 204 204 203 202 201 201 199 196 191 189 184 171 171 160 140 110 48 32 23 29 23 12 
30 28 29 37 33 39 43 113 145 159 154 112 113 111 108 117 119 131 153 173 191 200 203 204 203 203 199 192 189 169 141 118 113 132 138 140 147 153 132 106 44 28 26 25 23 19 
17 28 24 29 33 37 65 125 142 143 70 74 59 66 65 69 69 75 93 116 169 196 201 202 203 198 190 191 120 95 85 75 65 64 59 64 71 106 134 109 39 33 20 20 25 17 
24 22 32 45 42 30 78 131 131 64 127 146 153 159 158 144 116 124 128 133 145 189 195 202 201 193 188 156 129 112 101 96 115 125 123 123 100 53 113 113 41 31 22 26 20 24 
29 27 21 50 35 36 125 152 66 150 178 169 168 160 157 159 158 161 159 148 139 178 197 203 202 197 179 139 137 151 151 162 168 175 172 169 154 151 22 133 42 29 28 21 22 31 
27 23 17 46 40 57 147 127 111 152 152 121 117 98 90 96 112 130 132 158 148 148 196 201 200 196 151 132 144 124 119 127 121 135 127 139 147 142 122 105 77 25 23 19 21 43 
28 26 25 46 32 82 154 113 144 138 116 86 65 120 36 100 51 140 144 125 168 146 183 203 200 189 131 153 117 128 98 66 40 70 60 116 121 134 141 65 104 16 25 20 19 45 
27 17 41 40 30 104 155 130 145 134 124 62 123 168 48 44 32 208 131 142 189 162 182 203 202 183 138 170 108 169 91 52 94 54 119 33 117 131 134 93 119 12 26 24 18 41 
27 21 41 36 27 131 162 156 169 142 136 69 100 161 101 115 116 169 156 186 183 170 182 204 201 176 148 185 170 157 115 76 70 105 146 71 75 128 137 116 125 20 21 19 24 50 
31 27 38 49 37 145 162 184 190 176 168 142 142 146 140 138 152 156 175 194 176 177 176 202 202 174 159 170 173 173 158 130 128 108 114 100 126 127 156 139 133 25 26 28 23 28 
33 36 39 52 32 145 170 184 188 187 177 179 175 176 170 175 178 190 200 193 176 176 179 201 201 172 161 161 195 179 169 175 157 147 148 140 156 167 170 152 135 42 23 32 21 29 
35 46 45 42 37 140 166 184 187 190 188 196 196 195 197 198 200 202 200 188 183 170 187 205 203 187 161 163 189 198 195 187 178 179 186 176 176 172 178 169 143 51 27 23 24 30 
34 41 51 46 31 134 164 180 184 190 197 200 201 202 203 202 201 201 199 185 174 168 198 204 203 195 154 163 182 196 200 200 200 197 196 196 189 179 172 168 145 59 24 22 23 28 
30 50 52 64 38 122 154 176 184 190 196 201 202 202 203 203 203 199 200 175 171 174 200 205 205 198 168 146 182 194 198 200 201 201 200 196 193 182 172 158 138 60 31 24 19 19 
32 45 55 66 46 109 145 169 181 187 196 202 202 203 203 202 201 200 200 167 173 173 193 201 201 191 168 161 179 198 199 201 203 201 201 194 192 183 169 152 129 56 43 17 16 16 
35 41 85 75 78 99 133 161 177 186 194 201 199 202 202 201 198 199 194 152 106 97 148 164 164 133 104 137 176 200 198 202 202 198 200 196 191 183 161 142 112 61 104 8 20 24 
41 37 122 81 103 81 119 149 167 184 192 196 199 201 198 199 195 194 192 147 103 90 107 108 101 84 103 115 181 194 198 200 199 198 195 192 186 175 158 133 96 79 114 12 21 24 
49 35 129 107 99 70 116 144 158 177 190 192 195 197 195 192 193 193 195 197 140 133 137 114 131 131 125 157 184 192 195 197 194 195 193 191 179 169 151 127 92 92 64 48 21 23 
54 30 33 120 133 78 115 134 152 169 181 187 189 190 191 190 192 194 194 196 193 182 173 156 160 160 179 180 181 182 194 194 193 190 188 182 176 161 142 114 106 114 57 45 19 22 
46 37 4 93 116 85 116 134 145 165 176 184 184 185 186 189 194 193 195 200 197 195 189 187 175 178 179 184 180 182 189 192 188 186 184 177 167 152 134 96 145 117 33 43 24 24 
24 32 28 68 123 108 117 131 146 156 168 176 179 182 180 189 187 187 194 195 198 199 200 197 188 186 187 182 181 176 176 185 182 179 178 166 156 146 127 97 135 118 24 52 39 24 
25 23 21 11 100 96 117 135 142 148 163 175 171 176 174 171 172 186 187 189 181 177 193 195 194 184 185 182 180 170 170 163 183 175 173 159 145 143 122 106 139 44 29 41 37 33 
20 25 20 22 13 19 122 139 145 144 152 175 180 173 151 133 123 128 124 124 117 130 136 148 142 132 127 138 147 151 139 145 170 170 168 153 143 136 125 99 84 9 30 23 27 33 
18 16 16 18 21 19 91 133 146 151 151 169 180 181 147 170 185 144 144 152 137 121 117 114 120 103 105 96 105 109 124 139 165 177 160 146 143 136 123 30 20 13 24 19 26 35 
16 19 19 18 28 25 24 121 142 151 149 154 174 175 171 188 190 187 187 177 170 183 181 179 176 169 144 155 156 172 178 167 175 173 157 140 145 132 132 3 25 17 23 21 24 35 
18 17 19 14 24 26 9 113 132 150 149 154 158 173 181 186 186 183 185 181 181 166 167 168 167 166 170 167 162 172 180 165 165 165 146 140 140 127 107 10 22 21 19 16 20 17 
18 17 18 23 19 25 22 42 120 136 144 153 162 168 174 179 178 178 169 174 176 176 172 170 168 168 164 159 164 177 172 166 163 151 141 138 134 119 28 22 18 19 21 14 23 22 
15 16 19 21 13 23 24 12 105 117 137 148 165 173 177 177 184 187 183 183 176 168 162 162 165 165 165 170 179 181 173 166 162 144 138 135 121 78 13 22 19 19 18 21 18 21 
21 24 23 22 14 28 22 14 88 100 118 131 154 166 174 181 186 191 194 193 196 196 193 193 193 189 185 185 184 177 166 162 154 138 132 121 91 8 22 21 22 22 21 20 18 29 
27 26 22 18 21 34 19 13 91 99 92 115 135 152 166 176 187 189 197 198 202 202 202 202 202 199 196 191 181 175 164 145 139 127 114 86 23 17 22 19 21 21 25 26 21 30 
36 24 16 18 34 27 19 8 91 96 89 80 107 128 146 168 177 186 194 198 200 200 199 201 201 192 192 188 170 161 140 126 121 105 71 38 38 33 25 26 24 27 27 26 26 28 
28 23 23 33 45 18 27 8 92 107 95 86 78 93 113 141 162 174 183 185 192 192 192 191 192 184 176 170 155 140 115 107 81 70 50 47 47 33 24 33 33 23 29 31 30 28 
24 26 26 46 40 19 21 5 91 110 104 96 89 82 84 96 124 141 156 168 172 175 173 175 174 168 152 141 123 97 83 69 69 73 38 27 46 32 30 37 42 19 32 33 42 31 
27 22 44 45 33 26 15 6 93 104 109 101 94 86 84 88 84 98 108 115 130 138 141 143 139 132 114 94 81 63 69 73 77 80 34 15 43 37 40 41 37 18 38 32 47 38 
38 20 39 44 45 27 19 7 100 109 112 112 98 96 90 89 89 89 86 89 87 91 88 94 86 81 71 69 67 75 76 81 92 89 16 16 45 49 33 39 29 31 31 26 32 38 
30 23 26 26 40 20 17 22 95 108 116 109 109 100 97 93 91 94 88 86 81 77 76 78 76 75 70 68 74 82 84 91 97 90 17 25 24 36 26 24 24 40 25 22 31 29 
