P2
46 56
255
132 124 133 135 142 98 62 77 35 37 31 33 29 35 38 30 29 30 30 32 29 29 24 24 39 36 34 39 35 31 37 39 28 118 119 130 132 133 131 129 132 131 130 130 130 129 
115 108 128 125 121 62 42 42 30 37 37 34 34 33 35 31 39 27 27 42 32 39 29 36 32 32 38 31 42 36 40 45 34 43 83 127 123 126 124 125 129 124 130 130 129 131 
119 92 62 85 31 30 42 35 33 36 37 26 36 30 64 49 36 32 32 50 30 36 41 54 51 41 68 40 38 47 36 37 41 42 57 50 118 120 127 130 132 128 124 127 128 130 
117 87 80 30 33 29 37 29 38 36 34 30 36 30 62 38 24 40 40 52 49 53 50 48 49 61 49 71 66 44 56 41 42 43 58 64 49 100 125 127 122 126 131 131 128 128 
91 61 33 33 30 32 40 30 29 46 51 40 37 38 54 39 40 70 36 47 78 41 58 48 68 49 75 62 70 71 54 66 70 49 51 72 37 77 77 124 124 130 122 123 128 129 
43 33 35 29 38 30 39 40 28 41 47 50 45 31 68 21 55 72 36 58 64 48 69 50 55 74 63 69 72 78 66 65 49 49 71 64 67 46 73 55 117 128 117 130 122 122 
36 26 46 33 33 34 46 42 32 46 47 35 47 32 63 22 57 51 43 45 55 49 56 60 73 64 52 55 60 50 77 51 70 48 28 74 46 61 52 70 61 121 120 126 122 127 
31 27 47 35 32 34 61 42 47 69 52 50 60 42 62 25 52 63 39 47 49 53 55 51 57 47 55 44 44 42 56 52 31 60 46 50 52 78 52 60 55 118 124 117 123 123 
34 41 61 47 36 43 52 59 45 61 61 60 54 52 58 46 50 46 29 39 45 43 51 43 46 38 59 32 42 66 44 56 33 37 35 36 47 52 51 52 61 73 114 121 118 125 
17 65 62 50 52 61 38 54 58 57 57 52 55 68 63 48 47 38 28 44 37 40 41 31 38 38 45 38 38 29 29 31 37 26 42 25 46 36 54 45 59 54 122 121 117 123 
34 66 42 53 59 55 47 43 57 61 47 53 69 62 56 49 38 39 35 44 36 28 39 33 48 39 37 39 28 26 47 33 33 34 26 30 36 23 42 46 43 62 63 107 89 119 
37 46 49 60 52 47 44 81 70 72 63 76 69 64 60 50 45 50 50 46 47 46 46 50 55 48 44 42 36 40 43 48 41 41 45 43 34 29 34 56 61 64 39 97 95 112 
50 33 50 43 52 54 90 72 112 61 92 101 86 79 76 70 76 75 83 81 86 105 83 97 98 106 81 66 64 61 78 87 92 85 92 81 74 55 43 44 46 56 46 91 104 106 
57 50 44 46 58 93 84 105 89 115 85 99 99 91 119 88 107 131 128 147 135 147 139 153 146 146 130 125 112 117 117 122 137 121 133 128 121 77 60 73 46 47 41 72 103 112 
63 57 53 52 70 80 118 102 95 100 106 113 117 121 108 105 120 124 157 164 175 163 160 146 143 145 151 135 139 150 140 141 153 146 157 143 149 105 78 61 57 59 44 56 117 111 
57 59 55 47 67 98 98 101 96 100 113 119 115 133 135 131 138 140 150 151 184 173 153 136 156 143 159 147 146 156 162 154 161 170 169 162 150 130 95 59 56 54 56 50 96 111 
55 52 49 64 72 93 90 108 85 107 116 119 139 133 136 133 150 152 163 171 183 180 191 167 167 161 162 171 152 157 172 178 171 180 177 173 162 147 111 78 59 46 49 42 86 102 
52 63 49 59 71 89 99 104 67 100 109 115 138 141 148 145 166 167 184 190 191 193 190 188 182 163 175 175 160 163 172 180 166 179 175 171 169 150 142 102 66 43 39 43 82 94 
46 52 58 49 69 77 94 102 53 95 102 115 134 162 159 162 175 186 189 190 193 187 192 188 179 183 181 178 166 170 162 176 166 178 169 169 164 148 136 118 94 48 34 24 42 88 
47 47 45 52 62 65 79 86 56 89 102 115 155 164 167 172 178 183 187 179 185 187 188 184 181 181 182 179 175 171 168 177 172 168 165 168 156 147 136 123 106 57 32 31 80 59 
50 40 53 57 51 62 70 73 68 93 102 140 166 168 171 173 175 181 179 179 182 186 186 183 182 180 174 174 172 172 168 173 167 161 164 161 151 140 134 122 108 61 29 38 56 38 
44 51 50 41 44 55 54 55 66 104 120 143 160 165 176 174 183 182 175 180 184 183 182 177 178 172 176 173 171 170 166 164 162 154 157 148 145 137 135 120 109 70 27 29 29 50 
53 58 56 38 36 47 47 45 67 88 126 151 148 164 174 178 182 185 177 182 180 180 182 178 175 176 175 170 169 167 169 164 156 154 151 145 141 139 130 121 114 63 21 34 51 50 
38 48 46 33 41 44 41 47 63 92 118 146 153 163 178 182 182 181 184 183 185 182 180 178 181 177 179 176 175 173 171 164 159 159 157 156 149 145 132 125 115 57 22 29 45 46 
43 28 41 37 38 36 37 40 60 92 121 157 164 159 173 178 180 188 185 186 189 184 186 184 183 184 181 179 180 176 176 169 164 163 163 162 160 148 137 124 116 42 28 17 57 55 
49 37 27 36 35 34 44 42 66 113 134 158 161 174 175 184 182 186 181 184 181 184 183 183 183 183 181 175 179 176 173 172 169 165 167 161 152 146 134 115 116 33 29 26 96 79 
54 40 35 29 32 43 47 60 92 131 149 160 169 180 180 143 139 154 143 159 164 166 168 167 168 165 173 174 174 172 166 155 156 153 147 132 109 98 88 66 73 24 29 29 95 101 
53 36 32 30 39 52 60 97 130 160 165 161 171 137 92 83 87 81 75 69 69 67 68 95 115 132 157 170 174 168 154 145 129 110 76 56 47 42 41 37 44 25 19 57 103 104 
54 45 35 29 36 53 86 120 156 171 173 149 102 97 122 117 105 90 93 75 58 62 72 84 95 98 142 161 168 166 145 135 115 67 56 50 55 75 85 98 103 28 23 81 104 101 
66 48 39 29 50 48 112 130 168 180 145 119 129 156 164 150 136 115 98 92 82 85 95 106 112 115 138 163 172 164 142 118 81 84 80 67 61 70 76 92 104 25 31 93 99 99 
68 55 56 34 45 62 122 152 173 172 138 148 141 131 108 79 74 75 62 33 40 47 65 93 108 116 140 178 184 179 150 90 70 75 84 25 38 39 36 53 97 14 35 76 90 98 
97 76 46 50 45 65 125 159 177 166 148 141 120 105 88 57 86 147 81 38 38 24 82 92 112 125 135 186 200 196 164 89 78 114 110 31 28 37 37 57 96 27 77 101 68 100 
101 73 41 48 45 63 128 170 175 182 180 166 147 146 117 78 121 155 142 56 48 83 99 85 128 127 159 191 202 202 186 106 86 99 123 41 46 84 56 81 122 51 60 93 95 74 
102 53 52 51 48 72 136 166 176 189 189 190 186 183 163 141 138 116 120 113 114 113 116 121 144 147 184 190 202 204 200 105 96 105 110 93 86 82 95 118 129 69 60 100 89 97 
84 68 52 80 48 64 133 166 182 189 189 193 192 185 173 161 144 143 134 120 121 116 125 158 176 173 189 193 199 209 198 115 124 100 105 113 106 103 109 129 127 93 79 90 99 90 
121 65 60 85 57 63 127 155 175 184 190 191 195 197 187 178 161 149 139 135 139 152 181 187 189 192 190 193 194 208 196 142 129 140 130 116 117 122 135 133 123 94 60 69 97 100 
92 76 105 96 73 59 118 148 171 180 188 192 195 197 198 200 196 193 193 188 190 188 188 198 193 194 191 192 194 204 196 156 130 154 163 168 168 159 155 143 125 77 19 75 92 89 
69 62 139 100 99 67 114 143 160 174 185 190 192 196 200 202 201 200 200 198 193 191 191 196 192 194 192 193 194 195 198 160 124 146 160 167 174 167 158 145 128 55 29 70 70 89 
49 111 108 102 110 77 119 139 149 165 178 186 196 198 199 202 202 200 196 196 189 192 187 182 176 186 184 191 194 199 197 169 115 139 156 169 170 163 157 150 137 40 11 45 71 89 
27 115 132 127 122 90 118 146 145 163 167 180 192 194 199 200 198 197 194 192 185 177 160 133 168 181 178 188 198 200 194 176 126 123 146 162 170 148 146 137 135 10 12 87 44 66 
38 17 82 110 138 98 115 147 142 157 165 176 184 188 194 191 192 189 187 180 166 150 137 119 183 195 192 185 189 199 194 176 146 106 130 148 151 145 142 131 120 6 21 49 82 64 
37 25 16 22 27 94 110 149 142 153 158 165 181 183 183 181 183 180 170 159 145 123 135 160 153 161 169 185 189 185 183 170 145 107 116 132 130 133 131 120 76 20 30 34 75 68 
27 24 25 23 10 80 113 154 152 154 153 154 166 169 166 162 165 154 142 124 111 120 154 167 174 109 108 114 134 155 149 134 109 91 101 117 123 124 117 116 23 25 18 14 44 79 
20 28 17 22 16 64 107 145 153 154 153 147 152 156 156 147 141 130 117 107 129 143 169 174 168 152 131 121 99 95 89 115 119 117 88 104 112 113 106 104 9 21 21 13 59 79 
22 27 22 24 20 62 95 140 151 158 154 146 140 139 143 132 124 111 109 124 132 160 179 177 179 180 147 116 109 109 115 120 123 114 91 97 100 109 96 58 14 19 23 19 42 71 
32 20 28 20 30 51 89 130 146 155 154 148 139 143 144 130 119 108 109 112 138 172 178 180 181 182 167 129 131 127 124 125 125 104 96 86 111 112 109 19 19 22 21 24 12 61 
20 22 33 20 45 50 116 113 137 147 152 151 143 142 142 133 132 99 109 76 105 131 144 155 159 160 146 152 146 135 118 116 107 79 84 100 121 101 87 13 21 19 25 26 19 46 
24 27 44 14 51 64 116 102 125 138 146 148 149 142 136 141 137 107 137 152 114 67 62 105 97 106 100 101 101 94 71 57 87 115 107 119 117 107 21 23 17 18 22 22 19 33 
35 33 49 22 41 70 117 128 99 124 133 144 145 140 135 128 129 133 153 155 173 165 162 125 82 149 126 117 114 85 69 81 116 123 109 117 100 70 19 25 17 19 20 19 22 53 
36 36 37 23 26 76 120 115 111 104 121 127 139 137 137 136 140 148 158 162 167 168 164 154 149 137 118 102 99 107 88 106 117 125 111 104 96 18 23 22 20 17 22 14 27 68 
29 35 33 29 12 84 119 121 116 101 101 121 130 135 138 144 152 163 163 154 155 154 159 154 143 118 111 104 98 93 106 116 121 124 107 97 21 22 19 22 19 17 20 24 21 59 
32 37 32 32 11 82 121 127 117 113 104 96 113 125 134 147 156 171 170 165 164 151 143 142 138 122 118 113 115 117 112 116 129 121 100 26 21 22 24 21 19 18 18 27 23 60 
35 38 25 22 35 79 114 125 123 117 108 105 98 114 130 142 156 168 174 175 169 158 149 137 126 118 114 110 108 112 116 124 125 120 31 24 20 17 24 19 16 15 20 31 22 64 
26 31 18 18 66 79 119 124 127 120 117 110 107 97 106 127 137 156 166 174 176 172 167 163 152 142 131 132 130 130 128 133 129 57 17 18 20 21 20 16 19 17 33 27 47 48 
19 30 29 21 74 86 117 127 129 124 116 116 114 109 101 102 118 129 152 167 171 180 180 176 182 176 170 161 154 147 143 132 115 8 15 19 19 21 20 19 21 20 26 27 55 65 
27 36 42 62 81 87 118 126 130 130 133 118 117 119 114 110 102 104 119 144 155 162 180 182 176 172 164 159 156 141 136 118 22 19 18 19 22 18 17 14 17 18 18 63 66 65 
