P2
150 65
255
195 228 199 214 188 168 179 196 161 133 132 112 61 49 51 38 41 42 22 16 12 14 16 13 13 16 32 170 220 181 110 160 179 151 151 184 141 63 57 83 100 184 187 141 134 191 186 114 49 42 91 108 162 171 131 32 25 21 24 40 59 65 53 47 71 88 92 63 45 50 70 72 62 62 54 48 44 46 30 32 54 54 52 54 47 50 46 52 63 54 49 51 50 53 66 58 57 56 57 58 57 56 53 56 58 48 47 57 60 50 44 61 58 46 45 36 40 57 59 116 153 165 166 167 171 172 176 177 180 182 184 184 192 201 198 187 190 198 198 199 200 203 208 210 208 208 213 202 199 201 
215 222 228 225 215 198 176 207 167 137 131 115 110 64 38 49 58 50 24 20 17 17 17 16 18 14 25 122 168 95 51 70 100 130 136 118 98 101 138 173 154 150 176 210 189 212 216 150 74 41 76 144 193 221 148 45 44 51 53 47 54 60 47 42 42 51 95 114 71 46 42 46 49 56 62 69 74 76 76 88 108 120 147 141 95 69 42 49 59 56 48 49 51 49 54 51 49 50 49 49 47 46 43 48 55 55 55 69 73 57 56 61 58 57 54 46 45 55 59 81 97 135 157 167 171 172 176 177 179 182 183 183 187 191 188 182 190 197 197 200 201 201 202 202 202 205 201 197 197 199 
193 205 234 228 214 190 172 192 178 141 131 114 132 82 52 71 99 73 31 23 21 18 19 18 18 16 23 97 110 44 50 48 53 50 59 89 107 156 181 210 200 135 133 187 167 169 188 142 86 78 63 114 179 229 155 84 81 71 52 45 53 56 47 32 34 34 43 66 77 69 53 43 32 41 51 60 76 80 60 86 114 123 120 81 44 45 51 49 48 50 45 47 52 43 35 42 46 41 43 50 55 43 35 40 45 50 49 53 54 56 60 60 59 72 73 88 83 66 68 90 95 96 117 152 166 171 175 177 179 180 182 182 187 195 196 190 199 203 200 203 206 210 207 205 206 206 202 197 198 200 
133 143 222 235 202 192 191 181 157 118 105 83 86 86 57 87 117 94 40 26 22 19 19 19 19 17 18 30 37 75 102 58 90 137 157 175 150 168 160 188 197 133 128 181 184 149 174 146 76 100 97 122 138 203 196 127 137 105 74 61 58 52 50 34 41 44 37 32 32 50 66 56 34 34 48 54 64 70 54 47 38 46 53 39 26 35 56 61 43 49 46 46 61 61 49 40 40 36 37 43 54 50 44 46 44 40 39 49 50 50 54 48 51 65 69 92 105 99 90 113 135 125 112 131 163 168 172 174 178 180 180 179 188 201 210 212 220 214 205 205 218 234 231 225 216 211 206 197 197 198 
92 86 146 175 174 164 128 124 121 108 79 70 79 79 58 93 93 92 51 28 25 19 19 19 21 18 18 22 38 81 112 90 101 223 243 241 218 140 103 170 204 125 113 184 188 174 198 111 59 60 122 150 160 160 191 168 179 156 142 109 63 60 64 46 45 45 38 37 29 31 34 38 42 32 41 51 42 44 44 38 37 38 39 39 31 32 48 82 52 54 51 56 96 111 75 47 36 30 30 40 49 38 41 44 47 38 33 35 35 31 36 43 47 57 66 76 87 90 98 132 143 146 123 95 150 165 167 171 173 182 186 188 188 187 191 196 210 219 212 207 216 227 231 232 226 227 232 222 209 204 
130 122 122 127 134 123 94 85 95 92 72 85 114 120 80 105 99 125 62 32 29 21 17 19 20 18 19 23 29 42 55 89 112 174 229 249 237 164 94 80 89 81 93 142 169 169 142 59 51 70 112 148 183 181 188 156 172 159 160 116 61 60 77 72 54 49 39 34 33 35 33 34 36 32 35 44 38 36 30 21 32 35 39 45 56 55 53 61 56 55 53 61 88 109 87 53 34 25 28 40 46 34 32 35 46 47 39 38 41 39 37 37 45 58 66 83 89 67 75 109 130 142 135 125 137 153 154 146 154 188 169 145 139 130 130 131 138 141 139 137 136 137 137 137 138 142 144 139 130 126 
123 128 110 122 115 110 99 91 95 97 92 100 125 130 111 106 84 98 54 32 29 22 17 17 20 20 20 22 55 107 76 82 128 171 198 229 232 215 160 79 61 57 60 78 97 90 66 40 66 149 163 126 130 122 131 117 112 111 140 107 60 56 71 78 63 56 43 41 38 34 32 34 36 32 34 34 34 33 34 26 33 34 41 54 54 47 47 46 48 45 49 53 65 83 92 61 46 51 54 57 64 45 38 37 45 36 39 56 60 55 49 50 51 53 68 85 92 85 77 109 130 141 146 148 146 144 141 136 148 191 131 74 70 64 64 67 62 49 48 47 47 47 47 46 46 46 61 68 70 70 
77 86 110 114 78 93 95 96 114 127 136 108 78 68 94 82 62 51 43 30 24 21 19 19 20 21 22 25 81 202 160 104 147 180 183 169 176 201 164 73 49 54 59 61 69 83 83 60 86 180 235 202 172 160 141 125 93 51 77 85 70 69 77 75 64 62 50 47 38 36 35 32 39 40 37 33 37 36 37 39 49 51 42 57 49 33 36 41 48 48 58 65 70 99 120 73 98 107 99 93 84 87 100 68 55 38 41 58 58 44 42 55 54 46 60 76 71 79 83 126 139 140 142 141 142 141 134 127 131 157 117 76 79 81 80 81 59 32 32 34 33 34 35 36 37 40 72 84 87 89 
86 99 75 70 72 83 87 90 108 144 168 135 84 74 86 79 78 79 52 28 24 24 23 23 22 23 26 31 94 232 225 160 142 136 146 148 119 88 76 54 44 51 78 129 123 170 182 139 158 160 235 244 226 233 223 210 179 81 86 88 83 90 91 79 62 59 64 54 58 66 49 45 47 56 55 42 43 41 38 62 124 142 49 51 60 55 50 52 61 90 104 122 115 130 135 85 68 104 137 121 97 128 117 70 47 34 44 45 37 36 40 56 57 48 54 64 74 86 87 131 145 145 144 142 141 140 127 100 89 90 93 97 101 105 106 105 76 48 81 85 77 77 76 74 71 79 103 107 113 115 
64 70 64 65 75 82 97 102 113 147 162 131 80 91 103 96 93 90 85 35 23 24 24 25 24 24 28 35 103 240 250 232 196 160 155 188 188 136 120 96 63 98 135 184 202 229 233 220 230 221 240 250 246 248 230 234 206 113 119 120 95 100 91 80 69 66 87 98 148 162 122 123 118 88 95 87 62 63 50 63 165 184 80 77 126 126 122 83 67 98 103 131 103 93 69 54 41 71 67 64 55 50 49 43 40 33 37 37 32 34 41 71 62 41 43 53 57 68 81 130 144 146 147 147 144 141 134 118 109 107 110 116 120 124 125 124 72 25 90 59 31 29 28 28 24 61 125 131 138 143 
71 68 61 55 54 72 104 102 121 149 173 157 112 81 90 98 90 111 130 44 25 25 27 26 30 25 28 36 97 237 253 253 231 182 183 218 221 168 153 165 165 214 215 203 208 221 217 202 196 167 188 196 176 165 152 177 180 128 144 143 113 105 90 77 69 73 143 167 213 233 207 198 177 132 137 139 119 162 121 93 200 218 106 99 130 154 174 100 75 83 83 91 65 42 31 30 31 35 34 33 30 28 24 29 31 34 36 31 31 35 39 45 42 45 44 42 48 59 74 129 143 143 144 144 143 140 136 129 120 119 122 124 126 132 142 148 77 26 96 52 24 23 22 22 17 61 133 143 156 172 
57 64 61 48 47 62 99 121 165 183 181 154 137 116 141 120 123 133 128 46 30 33 29 25 29 24 29 36 87 230 253 253 237 190 198 225 233 171 157 210 227 252 252 243 233 233 223 194 169 165 193 208 200 198 202 212 229 168 169 166 152 132 98 70 61 67 162 223 234 239 234 216 188 166 171 184 191 220 217 193 222 211 105 105 151 190 226 162 125 131 127 133 111 91 63 42 32 35 36 34 29 26 23 33 38 35 36 33 33 34 34 37 34 41 42 45 48 53 67 122 142 140 137 142 141 138 133 130 125 125 128 128 133 141 148 149 76 27 98 59 23 21 24 23 17 66 137 147 156 169 
42 54 56 41 43 57 88 139 226 215 167 150 161 142 138 124 141 159 138 50 41 53 39 36 37 29 30 35 74 221 254 255 238 192 199 225 239 188 160 211 227 252 253 254 255 255 253 252 247 248 251 251 254 254 255 255 244 173 170 191 172 139 100 72 60 56 139 233 249 244 246 244 222 205 202 210 233 235 236 240 241 201 103 113 151 185 231 199 176 191 194 215 222 211 168 120 69 63 73 39 26 24 25 39 39 31 28 26 27 32 31 30 30 28 32 39 39 45 63 100 120 141 150 162 158 146 145 143 141 138 140 142 147 151 150 145 71 27 112 127 44 21 27 26 21 70 143 155 158 157 
41 43 44 45 67 72 93 131 180 190 182 174 177 156 160 162 170 167 145 51 35 49 46 39 41 32 27 30 55 199 250 251 238 201 210 229 238 218 199 212 219 244 249 249 243 244 239 241 242 240 246 246 241 240 250 248 239 162 150 187 168 145 115 85 66 50 94 177 234 237 229 227 236 236 221 223 243 245 247 248 234 193 94 87 105 120 166 146 149 182 194 224 214 201 200 164 89 67 48 44 39 38 39 54 41 23 27 22 24 27 31 34 35 33 31 33 34 42 49 93 121 143 146 149 151 148 147 147 146 143 146 145 147 151 149 145 70 26 110 129 50 27 29 29 30 81 156 182 178 173 
73 71 72 88 113 148 113 128 167 144 121 150 180 180 183 193 185 180 173 66 28 33 34 30 27 28 26 27 34 135 202 202 193 184 185 187 188 161 149 159 168 179 175 170 159 151 135 129 134 139 145 148 141 130 150 158 172 148 140 162 141 127 110 91 68 49 60 86 116 117 109 111 127 126 126 129 132 135 146 153 136 116 79 68 60 62 77 69 68 80 90 96 84 80 83 90 81 69 55 61 66 64 60 61 42 31 46 45 46 44 44 45 38 31 35 41 43 43 51 113 140 147 147 147 147 147 148 145 142 143 144 148 151 153 152 147 67 34 82 49 34 30 32 33 33 86 156 174 195 206 
92 95 94 121 176 210 148 155 200 152 112 130 159 173 191 188 151 154 156 71 31 32 34 27 22 25 24 26 27 80 138 155 131 122 127 115 97 86 102 120 131 139 137 113 109 95 95 68 64 80 67 56 60 71 75 97 99 136 144 137 114 101 92 84 63 51 50 46 44 46 45 46 51 52 60 73 66 71 78 64 46 41 34 31 32 34 34 33 33 32 28 27 30 35 47 72 82 83 80 76 77 75 73 65 48 43 65 66 64 66 64 60 56 52 53 59 56 50 69 130 144 146 147 144 142 136 128 102 98 105 128 148 149 152 153 150 67 38 92 40 33 36 37 36 31 94 172 184 202 197 
101 110 106 123 168 169 140 141 180 169 161 152 138 150 189 175 149 133 134 65 37 41 42 34 24 25 21 22 23 66 119 145 141 123 122 78 62 79 100 121 143 134 136 100 102 101 91 97 94 111 106 78 87 98 77 90 85 116 119 114 106 91 75 67 57 50 47 51 47 58 58 45 43 41 40 50 53 54 49 45 43 34 20 24 32 28 29 29 30 27 20 22 22 27 45 69 71 70 69 68 70 69 69 73 78 60 71 91 96 75 82 103 88 70 68 67 59 53 80 142 152 152 147 132 124 120 120 86 84 93 121 149 150 151 153 147 64 41 105 44 33 35 41 44 42 99 171 184 199 187 
114 98 89 103 133 150 149 132 136 137 118 133 119 101 153 151 156 135 125 81 41 45 52 50 38 32 22 21 23 52 110 148 139 136 109 68 65 70 101 100 110 92 111 121 132 126 91 127 144 136 132 140 147 130 110 105 98 85 111 102 91 78 67 62 59 52 47 55 52 46 73 70 51 44 39 34 42 36 41 47 46 38 33 26 26 25 23 28 29 23 23 25 22 28 45 57 59 60 60 60 59 59 58 81 98 67 67 107 124 82 87 123 119 82 71 71 62 55 80 153 179 183 176 154 127 128 121 87 84 93 121 149 150 151 155 151 62 36 95 36 24 27 36 42 56 99 151 162 163 163 
61 64 63 97 141 143 142 116 125 144 137 118 104 82 69 109 145 136 132 111 83 72 61 62 51 40 29 25 27 36 93 155 128 96 68 48 43 51 55 70 113 144 138 117 118 132 98 109 130 78 94 159 175 152 122 116 129 87 74 74 68 68 69 69 61 56 47 69 109 84 88 74 58 52 51 42 44 40 38 47 41 34 31 28 27 26 23 24 25 26 28 28 26 31 41 48 49 48 48 47 46 47 46 64 75 49 50 61 63 61 66 80 83 72 66 67 55 48 80 147 160 189 200 170 128 123 117 86 82 93 119 149 147 150 154 152 77 59 102 55 55 55 60 62 66 102 149 161 160 161 
94 97 110 129 132 130 142 123 117 132 136 120 117 78 51 99 118 130 135 127 116 94 68 64 52 39 30 26 28 34 64 100 112 91 54 32 29 44 55 61 110 158 167 120 123 131 103 112 99 66 93 141 152 144 155 127 108 57 55 67 64 69 69 72 63 58 51 73 128 110 72 65 59 61 66 53 39 33 35 41 34 31 34 36 39 32 26 25 26 34 30 28 24 32 40 39 34 33 31 29 29 33 35 38 39 35 40 46 50 52 51 51 50 54 67 88 67 38 65 142 164 194 203 173 118 108 96 84 89 91 107 125 126 129 127 126 107 99 105 100 101 100 103 99 98 98 120 136 137 138 
128 134 153 141 116 122 123 109 107 129 110 108 136 96 57 104 57 91 133 122 107 75 46 43 38 32 29 24 27 34 40 63 89 103 111 58 34 45 51 93 132 149 153 98 81 109 112 113 68 40 54 113 137 123 131 117 89 38 53 69 71 69 68 66 60 53 48 61 106 114 74 61 61 52 64 52 43 37 43 45 31 25 34 40 32 32 35 29 32 40 37 37 31 32 51 69 64 63 61 58 60 65 68 68 68 81 85 91 97 101 104 94 83 81 93 123 113 83 94 162 181 169 165 147 119 113 95 106 105 97 102 95 95 95 95 95 94 93 92 92 92 93 95 97 97 98 98 98 100 101 
121 143 151 135 112 111 119 97 112 118 107 111 125 91 61 93 61 84 165 118 70 52 36 39 33 28 28 25 26 32 34 52 71 92 113 80 67 114 112 108 148 157 126 85 90 109 112 102 91 80 83 98 92 97 102 119 105 113 94 79 82 78 73 66 62 53 50 54 101 111 93 87 95 77 71 73 86 78 77 77 74 76 73 78 82 86 91 89 92 96 104 102 97 88 118 159 157 155 154 152 151 159 164 167 170 201 221 239 241 244 244 218 184 173 173 173 175 176 175 175 174 169 156 138 130 118 100 99 99 103 103 94 95 95 97 98 99 97 99 100 103 102 101 103 102 100 100 100 100 100 
128 96 80 75 60 70 94 119 160 168 168 165 167 154 157 158 151 160 180 133 72 71 59 50 39 32 31 29 25 29 32 48 110 181 184 182 182 191 186 175 179 176 170 170 168 163 161 156 149 146 150 151 152 152 153 154 156 160 129 94 96 98 92 85 75 62 54 54 97 112 100 101 99 97 121 150 163 155 151 150 153 152 147 146 146 143 141 139 135 139 149 120 116 109 103 98 91 90 94 126 125 110 124 138 136 142 161 182 187 194 196 172 151 145 144 143 146 145 143 142 141 130 113 101 96 93 92 98 96 94 92 90 96 93 93 94 96 97 106 112 110 109 114 122 121 120 124 127 132 132 
197 144 66 38 37 42 46 61 114 144 167 175 178 180 181 184 184 185 185 150 98 65 49 45 43 35 30 29 27 27 28 32 61 135 154 146 141 135 132 124 124 125 127 134 134 129 121 120 113 107 107 107 112 119 117 116 116 114 110 111 109 104 98 91 86 74 65 59 69 78 75 78 103 134 160 159 147 137 128 126 129 125 120 119 121 115 114 110 106 110 107 76 75 71 67 64 63 62 60 81 121 139 121 116 122 118 112 116 119 125 126 124 124 126 127 128 126 125 127 130 132 130 130 129 124 119 118 120 121 120 123 133 147 140 136 134 130 127 132 144 155 168 186 197 191 190 192 193 198 198 
249 242 172 107 55 44 53 56 61 66 80 98 118 136 138 139 140 138 138 117 84 49 40 44 49 37 29 30 29 26 31 38 37 50 85 103 103 102 99 94 93 92 91 90 87 84 81 80 76 73 74 76 79 83 78 77 73 69 95 124 114 99 101 105 97 84 66 55 60 71 90 119 159 169 146 128 119 119 121 122 125 124 121 125 134 122 120 117 115 114 85 68 71 72 72 70 72 73 70 67 73 122 154 138 122 123 124 118 111 109 111 113 116 119 121 125 124 122 121 121 120 123 124 124 124 124 123 123 122 123 125 135 161 166 172 179 178 180 186 205 230 244 229 198 185 187 187 191 195 195 
250 250 249 230 148 90 55 53 85 108 100 66 53 77 84 88 89 84 86 69 48 43 41 42 45 36 28 25 28 28 32 41 45 42 41 48 50 51 53 55 56 56 55 55 55 57 60 58 56 56 58 59 57 57 55 53 55 57 100 126 114 95 106 121 109 91 73 66 87 117 162 170 156 145 122 120 122 122 124 123 123 127 131 137 135 120 127 126 126 120 82 73 78 77 75 76 79 79 78 77 73 73 86 143 156 113 106 126 127 112 106 106 107 108 108 111 111 114 116 115 116 120 123 123 123 120 117 115 115 115 116 116 131 146 168 185 182 187 203 234 247 253 212 141 110 111 111 116 119 119 
253 252 252 252 240 204 136 112 78 58 58 51 53 43 28 31 34 43 48 48 45 43 44 46 47 42 35 31 33 34 37 40 42 45 43 41 41 42 44 45 46 49 50 50 52 54 55 57 57 57 58 62 59 54 55 54 57 63 107 127 119 119 118 116 113 112 106 120 155 165 163 158 143 133 131 131 133 133 132 131 133 141 149 150 125 115 141 145 146 125 77 79 86 85 83 84 85 85 84 90 102 94 87 91 111 165 141 105 113 131 130 116 115 117 118 127 132 140 144 141 139 135 131 129 129 129 128 127 126 129 132 129 130 130 138 144 152 166 198 231 248 252 200 111 83 88 96 106 118 125 
255 255 254 253 249 233 181 122 86 87 75 54 57 56 63 65 47 48 45 43 46 49 51 51 54 55 54 52 52 52 53 52 53 55 54 52 53 51 50 51 51 51 52 55 55 56 58 58 59 62 66 74 81 88 95 101 110 119 148 154 136 126 107 97 95 106 135 156 174 168 148 153 156 154 150 150 160 167 154 148 145 148 149 145 128 120 130 133 135 113 77 88 91 90 89 89 90 93 96 104 108 100 93 90 85 149 149 104 105 108 115 117 118 126 128 132 135 137 138 139 142 148 153 154 150 145 141 139 138 137 138 140 142 143 149 156 170 184 208 236 247 243 205 161 162 173 183 190 195 198 
255 254 254 253 242 210 172 125 98 123 117 68 58 72 111 96 58 57 54 54 54 56 56 56 60 62 64 62 61 60 58 57 57 62 65 64 65 66 69 72 71 68 69 73 77 84 90 93 102 109 114 120 127 134 139 142 144 142 137 127 113 103 98 101 114 136 158 170 181 181 171 177 174 169 155 148 140 143 143 142 140 138 133 126 118 104 92 94 103 110 103 110 110 109 109 108 107 108 112 115 115 116 115 114 113 114 111 103 104 105 107 115 119 120 120 118 116 112 112 114 116 121 124 125 137 137 136 137 141 145 153 163 177 188 199 211 223 231 234 237 239 230 215 205 188 190 194 196 206 207 
254 254 254 254 240 185 123 101 63 87 124 96 75 87 120 100 65 70 73 73 72 68 63 71 80 82 80 70 66 67 70 73 78 85 92 105 106 113 118 120 125 135 131 129 126 122 120 117 119 120 120 116 112 113 110 108 105 98 96 96 97 100 105 115 138 160 172 176 176 176 177 173 171 165 155 148 146 140 132 128 123 121 118 114 110 89 66 74 98 114 116 116 118 118 119 115 111 110 111 113 114 115 117 117 115 110 104 99 100 103 103 106 110 116 116 113 110 102 99 95 91 87 85 90 125 143 144 148 155 164 172 179 187 191 194 195 198 203 210 218 222 225 228 218 204 204 204 207 218 218 
254 254 254 254 243 209 169 132 89 98 115 112 104 106 119 112 83 80 81 83 83 83 85 86 87 89 88 92 94 95 96 97 96 95 97 102 104 106 107 126 185 220 177 127 115 115 112 104 103 106 117 123 116 111 100 94 98 99 87 82 83 85 93 117 139 157 166 168 165 162 162 160 160 160 158 156 150 141 125 115 102 95 91 90 90 85 82 91 102 94 91 91 95 99 101 95 92 97 100 100 95 89 87 90 93 95 96 96 94 92 91 89 88 103 106 93 88 80 77 72 69 66 68 72 114 164 169 175 177 177 183 185 187 190 196 203 210 214 220 225 227 231 239 243 245 244 242 240 238 236 
254 252 253 253 251 250 234 178 128 120 112 102 93 86 92 91 78 71 71 70 71 72 73 75 75 75 74 74 74 76 76 75 73 73 74 75 76 76 80 99 170 216 180 127 110 95 86 82 100 125 108 82 62 47 41 39 45 57 68 72 72 73 89 116 141 160 169 170 162 160 164 164 162 164 165 163 160 157 149 142 128 115 102 98 93 94 98 99 99 90 77 82 87 91 94 89 87 89 94 96 96 104 106 96 86 82 82 85 87 91 94 87 89 96 99 91 85 77 76 74 73 73 71 67 104 151 147 141 139 142 143 145 151 151 152 156 163 168 178 184 186 187 185 183 180 179 178 181 187 189 
233 242 241 240 236 231 195 141 97 84 73 64 56 53 51 50 48 46 48 53 54 55 56 56 57 57 58 59 59 63 63 64 63 62 62 63 62 77 101 118 149 173 162 146 134 121 116 116 127 88 36 13 26 45 47 35 18 11 33 70 76 78 93 118 145 165 175 176 172 170 174 172 170 171 172 172 170 170 169 166 158 146 124 111 97 95 101 104 105 94 82 90 98 102 108 105 103 99 97 108 118 89 58 41 36 40 38 28 26 43 68 97 98 99 98 97 90 81 79 87 92 94 90 79 82 90 85 79 79 82 80 80 82 82 82 84 88 87 94 95 94 92 91 92 92 93 92 97 106 111 
131 144 166 169 159 146 119 98 59 44 39 38 35 32 30 29 28 32 39 46 47 47 48 49 50 48 49 51 52 55 55 56 56 56 58 60 58 108 166 173 173 173 173 170 165 155 155 148 79 23 46 83 96 91 70 48 32 23 43 82 72 72 93 120 147 167 176 178 178 177 176 174 172 171 172 174 172 173 174 173 166 159 137 120 103 95 90 86 86 81 79 87 94 102 110 111 108 99 100 98 64 44 51 75 92 105 102 81 54 37 62 105 110 104 104 105 101 97 96 101 105 109 105 97 85 74 74 76 73 78 76 73 75 76 77 77 79 75 78 79 81 80 80 82 82 82 80 81 79 80 
80 70 89 101 89 79 69 58 32 24 23 21 20 20 20 27 36 40 42 42 44 46 46 46 48 47 48 50 53 55 56 59 61 62 63 65 68 89 133 156 159 163 162 166 166 165 161 96 35 52 129 132 93 66 50 41 34 34 33 27 29 60 85 109 139 160 170 172 172 171 170 170 167 167 166 167 167 168 168 166 164 160 144 132 124 117 106 93 82 81 88 98 106 110 112 112 112 111 111 69 44 99 123 122 130 138 150 154 130 84 50 39 72 104 103 106 106 105 103 96 89 84 84 78 67 64 66 78 76 77 75 72 74 77 77 77 81 79 80 79 78 78 77 76 79 83 82 81 80 82 
33 49 41 44 46 39 31 24 14 14 17 17 20 23 27 34 40 42 43 43 44 48 49 49 54 57 58 58 60 63 64 67 68 71 74 78 79 83 93 107 111 147 169 169 169 170 158 62 52 150 135 97 86 123 97 72 47 37 36 31 25 37 70 93 127 157 174 182 181 180 179 178 180 178 174 175 174 173 172 170 171 167 157 149 144 139 134 125 113 100 95 103 115 120 119 114 109 112 105 77 153 144 135 139 176 186 198 158 148 122 78 31 32 94 102 101 104 107 107 103 95 79 69 63 63 67 79 89 90 92 94 94 92 96 96 96 99 99 101 98 101 102 100 97 97 98 100 100 100 102 
20 28 33 20 22 19 15 19 25 21 11 22 32 30 30 34 37 39 41 42 43 46 46 45 50 55 57 56 58 62 63 64 65 71 74 74 74 77 77 78 78 99 114 113 109 112 131 121 99 169 117 103 113 103 69 50 57 41 40 32 24 20 54 71 103 143 172 191 199 196 190 188 191 187 175 166 154 146 143 146 144 142 146 146 143 141 141 138 140 137 133 128 126 128 128 126 118 114 80 98 158 139 132 176 179 175 188 200 172 168 127 58 37 65 72 66 67 76 80 83 82 74 63 61 75 79 84 86 87 89 91 93 95 97 96 96 100 101 103 103 107 106 105 105 98 99 109 113 113 115 
18 17 18 12 8 7 8 13 25 22 13 18 25 26 27 31 32 32 34 35 37 41 42 41 45 47 50 52 54 58 59 58 59 63 60 60 61 62 64 64 65 64 59 58 53 56 81 116 105 161 116 97 102 97 68 51 58 37 39 32 26 19 34 42 50 63 82 94 106 111 111 114 117 116 113 110 103 97 94 97 95 95 100 101 100 100 101 99 99 101 104 100 94 90 86 88 88 71 45 97 137 126 122 181 192 178 186 202 172 191 165 76 38 36 36 37 41 45 49 55 56 58 55 55 67 72 76 78 78 78 80 82 83 86 85 83 86 88 86 86 92 92 93 95 89 90 97 99 99 100 
18 18 10 8 7 8 9 10 16 21 25 25 27 30 31 33 36 37 40 42 43 45 47 48 50 49 50 54 56 58 60 60 67 70 63 65 66 67 68 68 68 69 69 66 66 66 67 66 85 146 128 88 78 82 75 62 54 39 37 41 85 101 101 105 103 72 40 35 34 34 34 31 27 26 25 25 26 28 28 28 28 30 32 34 35 35 33 33 34 36 37 38 37 33 28 30 34 28 25 69 137 138 156 172 191 212 212 180 186 185 149 61 34 35 37 38 44 47 43 46 48 53 56 58 61 66 78 84 74 70 72 73 73 77 76 77 79 81 79 80 82 82 83 84 84 84 85 88 90 88 
23 20 18 18 18 19 22 24 25 28 29 32 36 39 41 42 43 45 48 51 53 55 59 62 64 67 70 72 71 74 80 88 92 101 109 113 115 120 127 133 137 143 145 152 156 158 164 168 175 186 167 114 76 50 42 38 34 29 43 112 156 156 150 143 125 102 79 71 60 56 53 46 46 50 54 59 67 72 84 98 111 118 125 133 143 147 143 141 138 138 141 135 133 130 125 122 118 120 119 124 156 161 168 177 179 193 188 180 170 133 101 51 42 53 58 59 63 58 48 50 54 61 67 72 76 82 86 92 100 108 112 113 109 103 104 104 114 130 131 124 120 113 105 103 108 109 111 118 125 128 
38 40 43 46 47 48 49 50 52 51 52 58 62 63 64 65 68 71 73 72 74 75 76 78 79 81 90 98 113 141 163 182 190 197 200 205 209 208 210 213 214 211 211 214 213 205 203 195 184 173 160 140 106 76 69 67 73 79 98 124 134 139 140 144 152 160 168 171 169 171 174 176 182 184 190 193 193 193 197 202 202 204 207 209 211 213 209 207 207 203 200 202 207 207 209 209 205 205 203 204 208 200 182 179 174 162 154 142 126 103 106 106 107 114 122 129 128 131 133 139 140 137 133 131 133 138 138 137 135 131 124 119 115 117 120 125 136 146 149 153 150 146 137 133 132 132 134 137 135 134 
77 78 80 81 82 82 81 80 81 80 80 84 85 86 88 90 91 93 93 92 96 103 110 124 142 157 173 182 195 209 209 211 208 196 190 192 188 179 174 174 171 167 167 164 162 161 163 166 166 164 166 169 170 173 180 183 192 201 208 213 221 226 227 229 232 234 235 235 233 233 232 231 229 227 222 221 216 214 213 212 215 216 218 220 222 220 219 217 219 219 214 215 218 221 226 227 222 216 207 206 205 203 197 196 195 190 183 175 173 173 176 178 178 177 182 181 178 180 180 180 180 177 173 171 171 176 177 179 180 177 178 183 183 187 188 187 193 199 196 191 185 183 174 166 158 156 154 153 147 142 
86 86 85 85 86 86 87 89 89 89 88 89 90 91 90 90 92 98 105 119 133 146 155 165 174 174 166 156 153 150 143 135 131 127 129 136 140 143 149 159 167 178 189 197 202 210 213 213 218 222 221 224 224 221 223 224 225 226 226 223 223 223 224 220 223 225 224 225 226 227 226 226 223 219 220 219 218 216 216 217 217 217 218 219 221 220 222 219 219 218 217 215 215 208 200 189 181 174 164 161 164 166 165 167 173 174 173 176 175 175 176 178 182 186 188 192 196 207 211 214 214 211 207 201 197 198 203 209 212 214 212 211 207 199 189 177 169 166 168 169 172 180 186 193 201 204 201 195 189 188 
72 72 72 72 72 72 71 71 71 70 70 69 70 72 73 79 82 86 90 97 102 106 109 116 127 138 141 146 152 159 163 165 166 170 174 181 186 186 185 185 184 181 179 181 181 183 183 181 183 185 184 184 186 182 184 187 191 190 188 184 182 183 184 180 178 181 179 180 185 187 184 182 183 185 183 183 185 184 183 182 182 178 177 178 178 178 179 179 179 179 178 174 169 162 157 146 139 133 124 122 121 135 150 157 162 171 174 183 187 187 191 197 201 202 203 203 203 203 204 199 196 191 186 179 166 157 158 157 151 150 149 152 158 162 161 164 171 180 185 194 198 204 204 208 212 212 208 201 194 195 
70 71 71 72 71 72 71 69 66 64 66 73 88 105 118 126 130 135 141 141 142 147 153 160 166 167 168 169 166 163 166 169 171 171 172 178 179 182 182 178 176 176 179 178 177 176 175 173 174 176 174 173 171 169 168 164 165 166 168 169 170 170 171 168 168 167 163 161 160 162 160 160 158 157 158 159 160 158 154 151 150 149 148 148 145 142 136 135 130 126 121 111 104 104 105 110 117 127 134 139 144 150 156 155 155 160 161 163 165 166 169 171 169 162 160 155 149 140 135 136 137 138 143 144 148 153 156 157 157 160 161 163 166 165 168 168 167 166 164 163 163 162 159 162 165 168 167 163 155 149 
76 74 73 74 73 73 76 82 90 98 112 128 144 149 154 156 159 159 160 158 159 159 161 163 168 169 168 170 167 163 164 163 167 167 167 172 171 166 167 166 164 163 165 169 169 169 168 164 160 158 163 167 168 169 171 169 171 173 175 175 175 175 176 174 176 175 176 174 171 171 166 165 158 154 151 151 150 150 151 153 152 151 151 149 144 140 135 133 132 131 129 129 134 140 144 152 155 162 166 167 165 166 168 168 167 169 169 171 171 169 171 176 175 169 169 161 158 157 156 162 162 163 167 171 175 175 173 171 166 163 161 162 157 154 158 160 159 157 155 151 146 141 132 127 123 119 115 111 105 101 
79 75 79 84 90 100 117 134 147 153 156 156 158 161 163 164 168 170 173 172 173 171 173 177 176 176 173 177 178 169 167 167 168 171 171 167 167 165 166 173 173 166 163 164 163 167 169 168 162 156 161 166 169 167 168 169 169 169 171 178 175 172 172 172 175 174 175 174 170 166 161 163 161 161 162 161 163 167 172 175 174 173 171 169 162 159 166 172 178 184 188 188 190 186 181 182 179 180 180 185 184 185 185 185 187 188 189 189 192 188 189 193 191 188 187 183 179 179 178 174 172 170 173 178 177 172 171 168 161 152 151 153 154 156 162 167 168 162 151 137 126 116 100 91 84 81 80 81 81 82 
101 109 123 138 149 155 162 162 160 158 151 151 157 159 158 160 162 161 163 161 160 164 169 170 166 170 173 176 175 161 158 163 164 159 162 163 162 165 164 170 174 173 175 178 178 179 181 181 180 178 172 167 170 171 169 168 171 169 166 174 167 160 156 156 155 158 163 166 171 175 177 178 182 181 179 176 175 177 179 178 178 178 176 178 178 180 185 181 180 184 193 191 194 192 191 192 194 190 184 181 184 185 185 183 182 185 186 189 191 190 193 196 195 194 193 190 191 191 190 186 185 182 181 182 181 183 182 182 186 183 181 181 176 163 150 136 123 110 99 92 91 90 88 87 86 86 85 85 89 89 
144 145 150 148 147 149 155 157 150 149 146 145 155 158 154 155 160 159 160 158 161 162 164 165 166 164 163 168 164 150 150 160 159 155 155 157 162 163 161 165 171 174 168 165 169 173 176 172 172 173 171 173 170 166 167 166 164 165 169 170 166 161 163 174 182 186 186 182 185 189 189 186 185 185 188 186 180 176 180 185 187 185 179 179 179 180 181 177 179 184 183 189 189 186 184 185 191 191 188 184 188 183 182 182 181 184 187 185 186 190 191 190 191 189 190 191 190 191 189 190 189 189 184 178 177 174 173 171 164 153 141 124 109 98 93 88 87 85 86 94 103 104 101 104 102 99 96 95 96 96 
134 138 142 140 140 143 141 139 136 138 137 139 144 146 142 143 145 147 150 148 150 154 156 157 157 156 156 152 150 151 149 150 150 149 148 153 156 152 151 152 155 158 158 159 162 165 163 162 164 166 168 172 161 154 159 163 162 156 162 165 162 160 160 167 172 171 175 173 172 173 172 170 171 172 175 174 174 171 164 164 166 165 165 166 170 173 172 174 177 177 178 181 177 178 180 180 180 183 183 182 183 181 179 175 173 175 177 174 176 183 181 180 181 182 180 179 181 183 181 181 179 174 174 166 161 160 151 140 120 103 93 84 82 81 83 87 91 96 102 105 110 110 106 105 105 104 101 97 93 93 
134 137 135 135 133 133 132 132 131 134 137 140 143 144 139 138 139 142 143 141 141 147 147 147 148 149 146 142 143 145 142 141 143 145 144 145 146 148 152 155 157 158 157 158 158 157 158 159 160 165 166 169 161 160 162 164 164 154 154 156 155 158 160 161 166 165 169 169 169 168 167 166 169 167 166 165 164 163 156 159 159 159 161 162 163 162 162 163 162 165 167 165 164 166 169 170 169 168 168 171 176 180 180 175 170 166 167 167 169 171 169 174 175 177 176 171 171 171 165 155 152 141 136 133 121 111 101 89 79 75 74 74 73 76 80 85 92 95 97 95 92 93 90 89 89 87 85 86 83 81 
139 137 135 133 135 136 135 134 137 137 136 135 135 138 138 140 140 141 142 143 145 146 146 145 144 143 142 142 143 143 145 143 143 147 147 148 150 155 160 157 154 154 153 157 156 155 156 154 158 160 160 156 156 158 158 157 153 151 152 156 159 159 161 165 164 164 168 169 166 167 167 166 166 165 167 166 164 161 157 158 161 165 160 160 158 161 162 161 164 161 162 162 164 169 169 169 172 171 170 171 173 173 173 174 171 164 166 170 172 173 168 165 166 170 166 152 147 138 126 115 110 105 100 95 87 79 75 74 73 72 72 73 75 79 82 83 84 81 81 83 81 80 79 82 83 83 82 81 79 77 
133 132 138 140 138 139 138 134 137 140 141 138 137 141 141 145 145 146 149 150 150 147 148 145 145 146 146 148 148 145 148 145 144 148 149 151 152 154 159 155 153 155 156 158 158 160 159 155 159 160 158 159 157 159 159 156 158 161 158 156 156 156 159 162 162 159 164 165 165 168 171 170 168 167 167 168 170 165 165 164 165 165 164 164 163 166 165 163 163 162 163 162 169 172 169 172 170 170 171 172 176 174 172 170 172 166 166 168 166 161 153 145 138 134 129 127 127 125 122 114 104 94 87 81 78 74 74 75 74 75 75 76 75 75 76 78 78 77 79 81 83 86 87 87 85 82 78 78 77 77 
134 133 138 139 137 139 141 140 140 142 144 139 139 143 144 148 148 149 150 147 146 147 146 143 143 145 144 146 144 146 147 148 149 148 151 154 159 158 156 158 156 153 153 157 157 158 159 158 155 154 156 159 156 159 156 154 156 160 156 154 155 155 157 159 159 155 163 163 159 163 165 166 167 165 165 166 165 163 168 166 165 164 164 165 165 167 166 164 168 166 166 169 169 173 172 169 167 168 172 172 170 169 168 163 163 153 146 142 137 130 130 132 131 132 131 128 124 113 101 88 80 74 75 73 75 77 80 82 83 84 81 80 78 79 79 78 81 83 84 85 86 88 88 87 85 84 79 82 82 83 
134 132 131 135 136 139 141 142 142 139 136 139 142 145 149 147 145 145 140 139 138 142 141 140 141 142 141 144 145 145 144 147 147 146 149 148 148 149 147 152 152 147 147 151 150 150 152 152 148 152 151 154 154 154 150 149 152 155 154 153 154 154 155 156 158 159 159 159 161 163 164 162 162 162 163 158 152 155 158 160 161 160 163 161 163 164 164 164 173 171 165 168 171 173 171 173 171 170 175 169 163 162 156 152 147 132 131 131 132 134 133 132 129 122 114 97 91 82 75 73 73 75 79 81 86 92 97 97 93 87 82 77 76 76 77 78 80 80 80 80 81 80 82 83 84 88 92 96 100 99 
132 132 127 131 134 136 134 133 136 135 135 138 138 142 142 140 136 136 135 135 135 134 134 139 143 144 140 143 144 141 142 144 145 150 149 147 147 145 146 153 154 151 149 153 154 153 152 149 149 152 149 150 148 149 150 148 151 155 153 151 150 152 155 154 155 153 153 156 161 159 161 162 160 158 155 150 146 145 146 151 158 157 160 159 156 160 160 158 156 163 163 163 167 168 169 170 170 164 162 154 142 138 127 122 119 111 113 110 108 106 101 95 92 84 76 74 74 72 73 78 84 91 95 99 103 104 102 98 91 85 81 77 76 76 77 80 81 82 81 83 83 83 83 87 92 100 106 109 110 107 
129 128 126 127 129 133 133 131 128 131 136 135 133 137 135 138 139 139 138 143 141 140 135 145 159 164 155 151 150 151 143 138 140 145 144 143 147 150 152 156 156 160 161 161 159 152 147 141 146 156 151 155 156 154 156 154 157 161 160 157 158 160 159 155 159 158 159 165 167 165 163 161 157 157 156 154 143 137 141 153 158 155 158 156 152 159 163 162 159 163 159 162 165 163 160 154 146 132 122 115 106 109 109 109 107 100 96 89 82 75 71 71 71 69 69 73 74 79 86 88 91 94 94 95 92 89 86 84 86 90 89 87 85 85 87 90 94 98 100 106 108 109 108 109 108 106 98 92 89 88 
131 130 129 135 135 136 135 137 141 141 141 136 128 134 134 138 144 146 145 147 147 145 143 144 148 153 147 147 147 135 130 129 129 132 133 135 140 146 146 147 151 153 150 148 146 143 142 137 140 145 147 147 150 150 153 153 153 153 159 162 157 158 160 159 160 163 166 164 166 163 162 157 157 151 146 145 141 142 148 153 158 159 157 159 157 158 163 165 167 161 155 151 134 129 128 122 117 124 128 130 125 121 115 111 102 91 86 79 79 78 74 76 76 69 70 73 73 75 76 77 77 84 88 90 90 90 90 89 92 91 90 88 90 93 98 103 106 111 121 126 127 124 114 104 91 86 79 78 80 82 
140 143 143 142 140 140 135 134 137 135 130 125 123 123 117 115 115 111 111 109 108 103 101 101 101 98 96 98 97 88 90 94 92 91 94 91 91 91 93 93 94 93 91 90 90 89 91 92 92 93 96 95 98 100 101 103 106 109 112 117 123 136 150 156 164 168 168 167 166 167 165 160 156 156 162 164 160 159 164 164 162 165 162 162 166 160 158 160 161 156 148 144 139 143 143 141 138 134 131 120 109 99 89 84 79 75 76 74 74 76 76 79 82 80 79 79 80 82 83 86 88 92 94 95 89 87 86 83 83 83 84 87 89 93 96 102 107 108 108 107 102 98 94 94 93 94 91 86 83 83 
112 112 108 101 95 93 88 86 83 81 77 73 72 70 66 64 60 57 54 54 57 58 58 57 58 57 58 59 57 54 56 59 61 59 62 65 65 63 64 64 62 63 64 63 64 61 62 61 62 62 61 62 64 66 64 64 64 66 64 66 78 97 117 134 151 160 159 160 160 161 162 157 157 165 167 163 160 160 163 162 158 160 159 162 164 160 158 159 160 157 154 158 158 155 149 133 112 99 87 78 75 74 71 73 72 73 72 72 72 76 81 88 95 100 101 106 111 116 117 117 117 110 108 104 100 95 93 91 87 85 83 82 87 92 94 93 90 85 86 86 88 94 100 101 97 92 85 81 76 76 
56 55 55 54 54 53 52 54 55 55 56 57 56 55 58 56 57 57 55 57 58 58 58 57 57 59 60 61 60 57 58 59 60 59 60 63 64 63 64 62 60 62 64 62 62 62 61 61 64 62 61 62 64 65 63 63 64 63 62 65 71 79 103 126 144 155 160 160 157 161 160 160 160 160 165 162 159 159 158 160 160 159 158 159 160 162 164 160 157 158 161 153 146 136 119 97 79 73 71 74 74 73 74 72 70 72 72 77 83 97 111 132 143 147 149 154 160 162 158 154 154 148 138 136 130 123 115 105 94 87 82 81 83 83 85 82 78 79 80 83 80 79 78 76 73 73 73 74 73 73 
48 50 51 51 53 52 54 60 66 67 68 66 58 56 55 54 55 54 53 53 51 52 56 56 57 58 59 59 60 59 60 62 62 60 62 62 63 65 64 62 63 62 63 61 60 64 63 63 65 64 63 62 64 66 65 61 63 63 64 64 67 82 108 126 141 157 160 160 157 158 156 162 164 162 162 160 156 158 159 161 157 158 158 158 159 157 162 154 152 144 135 124 111 95 77 72 68 71 72 72 72 73 69 70 73 81 93 115 130 147 158 164 165 164 165 164 163 169 170 163 160 155 147 134 117 99 88 78 77 75 77 79 82 80 76 78 77 81 79 77 74 73 71 70 71 72 72 71 72 72 
55 58 61 63 68 72 76 78 76 72 66 60 53 51 51 51 52 50 49 50 52 51 53 54 55 56 57 57 58 57 58 60 60 59 62 63 62 64 65 63 62 63 62 62 62 61 62 61 60 61 62 62 64 65 64 63 62 63 64 65 72 91 114 135 147 154 152 152 151 152 152 155 158 159 159 161 159 160 160 161 158 156 153 153 159 158 154 147 137 118 100 92 76 72 66 67 67 67 68 69 69 72 73 79 93 116 131 142 148 153 156 156 157 154 149 143 135 126 126 124 118 111 105 96 92 89 85 85 88 87 90 95 100 100 103 105 99 91 85 78 74 71 71 72 72 73 73 72 73 73 
55 59 62 64 66 66 65 62 56 53 49 49 47 46 46 46 47 46 46 48 50 49 50 50 51 53 54 54 55 54 55 55 54 57 58 59 60 60 60 59 58 60 60 60 61 61 60 58 57 58 60 62 63 62 62 64 64 64 64 68 84 108 129 149 152 155 152 152 147 142 149 148 149 149 150 155 155 154 153 151 150 148 146 148 149 147 140 122 106 89 76 73 67 66 64 63 64 64 63 66 66 77 92 104 122 136 144 146 148 147 145 138 131 121 111 99 94 87 87 90 91 95 92 90 93 95 100 100 100 101 102 109 109 102 101 95 85 77 73 71 71 71 74 77 74 74 73 72 73 73 
47 47 47 46 46 48 49 48 45 46 43 44 44 42 42 43 44 44 44 45 45 46 46 47 48 51 53 52 51 51 51 51 50 53 53 53 54 55 55 55 55 55 56 57 57 59 59 57 56 57 58 58 61 63 61 63 64 61 64 76 103 127 140 151 145 150 149 145 141 141 136 135 138 137 134 134 140 139 139 140 139 133 142 145 126 118 119 96 79 69 68 68 65 64 64 62 63 63 62 69 75 93 122 128 138 148 149 142 144 141 132 119 105 99 101 94 90 88 87 86 89 99 102 97 94 94 98 97 104 107 98 90 83 78 75 72 72 72 73 74 73 74 75 75 73 74 74 72 74 74 
