P2
150 65
255
61 65 67 71 75 74 75 90 106 110 111 109 100 112 126 123 132 133 101 83 86 84 78 86 91 89 93 78 74 81 80 70 67 69 74 84 79 74 74 68 57 61 66 65 64 55 55 59 62 68 61 59 62 72 81 96 78 71 86 87 91 91 84 74 67 70 81 77 77 76 64 67 73 78 87 75 62 74 86 93 94 88 67 73 69 66 70 67 57 72 71 65 64 68 62 61 57 56 49 51 54 62 55 60 59 50 48 56 54 43 35 49 52 45 49 71 102 75 54 55 54 43 42 44 41 39 44 45 41 42 42 43 48 52 47 47 52 49 53 58 46 40 38 38 36 36 38 41 34 30 
63 66 68 71 72 70 76 90 100 101 108 110 104 120 121 127 136 114 87 80 86 88 86 84 88 103 105 88 80 80 83 73 66 65 73 76 69 69 70 67 61 60 57 66 67 59 56 62 77 72 62 60 67 81 90 112 91 80 105 115 106 109 90 65 65 70 80 77 74 73 75 78 88 95 108 96 77 80 88 100 92 75 68 74 72 72 78 74 71 80 72 63 61 60 58 60 59 59 58 61 64 62 49 49 51 55 51 52 54 54 44 47 46 47 49 52 59 59 49 52 51 42 42 40 40 39 40 45 43 41 43 42 49 57 53 49 49 45 45 43 48 50 40 40 51 45 33 30 30 25 
65 68 69 70 68 68 75 82 89 92 100 103 110 113 123 137 130 98 87 106 108 103 107 98 103 112 100 92 80 77 84 72 65 72 71 73 67 67 66 67 64 64 61 65 65 59 62 84 106 69 60 63 65 81 105 133 107 106 134 132 109 99 80 65 70 79 88 83 92 107 110 101 106 116 110 95 86 86 91 104 80 70 63 61 66 76 82 75 74 87 81 69 61 59 58 57 59 55 59 62 63 56 43 41 45 52 44 45 51 50 47 51 47 47 54 50 47 43 44 46 46 45 41 41 43 42 40 45 47 47 48 45 55 55 51 49 53 48 47 47 54 53 40 42 45 38 31 29 28 23 
66 68 67 65 67 69 78 88 95 92 86 112 144 130 142 132 106 99 103 122 153 121 104 125 112 112 98 88 86 78 73 65 68 68 71 78 69 64 61 61 60 71 75 71 65 62 69 95 108 82 77 92 72 74 110 138 115 108 153 137 107 91 84 85 114 92 77 86 107 111 110 119 118 132 117 82 93 127 134 136 109 84 67 62 66 88 78 70 83 93 86 73 64 64 54 54 56 51 57 53 52 50 52 49 44 42 39 45 52 51 46 51 51 51 53 44 44 45 50 55 54 50 47 47 46 43 42 43 48 55 54 45 48 48 47 55 56 45 44 43 39 39 36 34 38 35 38 32 27 26 
64 66 68 68 65 66 71 83 94 98 102 122 155 145 138 135 115 137 121 101 140 113 89 153 165 112 95 94 85 74 69 70 74 68 66 77 71 62 63 70 71 78 76 68 61 73 82 96 116 92 82 105 95 79 131 157 160 154 187 204 164 141 107 107 136 93 87 82 93 97 106 117 100 101 111 97 110 127 126 112 78 69 68 68 71 79 78 80 88 89 78 68 68 61 56 56 62 59 54 46 43 49 52 49 51 48 45 50 52 50 46 48 54 54 52 45 44 46 48 56 57 51 47 52 52 60 51 43 47 54 53 46 44 43 40 46 47 39 39 38 33 33 31 33 35 32 35 37 33 32 
64 67 71 72 65 62 67 71 81 92 101 125 166 169 142 144 122 138 117 90 131 110 83 140 143 98 94 106 99 72 65 70 75 65 61 67 63 59 61 66 69 80 75 69 62 89 94 93 107 84 82 112 119 102 154 181 183 197 191 179 166 160 128 130 134 87 93 91 81 81 98 102 88 89 107 115 110 101 98 108 86 71 67 70 74 72 77 81 82 84 83 68 72 61 54 61 60 59 53 49 55 53 50 50 52 50 55 59 55 48 48 54 56 51 47 42 44 58 56 54 57 57 50 47 49 55 51 45 43 47 51 48 43 39 38 40 43 38 39 36 34 31 32 32 28 29 31 33 33 32 
65 68 73 70 62 62 65 69 74 81 103 106 113 129 112 113 104 135 105 83 120 103 73 103 120 88 83 81 76 69 66 65 67 65 63 63 61 59 61 66 72 71 71 76 70 82 96 128 151 116 100 126 127 113 132 132 142 189 153 122 152 176 163 162 148 76 89 110 92 90 116 108 96 100 123 132 132 135 157 144 98 73 76 75 73 68 73 78 76 86 84 64 69 60 60 63 54 55 52 47 51 55 50 46 49 53 59 63 60 60 58 54 53 50 49 47 50 89 81 59 67 67 57 50 47 48 54 47 41 43 45 43 44 46 48 42 42 37 37 39 37 32 35 34 28 28 30 27 25 26 
64 64 68 67 65 65 63 69 75 77 82 93 88 109 123 96 99 116 97 82 116 97 70 81 86 81 80 72 80 77 67 63 64 68 65 67 64 60 70 87 94 95 84 85 90 88 95 142 158 122 96 134 131 122 163 185 195 209 199 183 203 182 147 147 128 86 92 138 114 101 132 130 98 114 188 189 158 140 141 117 95 82 82 80 74 72 78 93 86 98 84 64 58 64 67 62 59 59 51 49 53 47 44 46 63 78 68 65 57 61 54 53 55 49 46 45 47 50 59 63 59 55 64 64 56 48 53 46 44 49 47 42 43 44 42 45 46 42 39 35 38 34 32 33 34 33 34 28 24 24 
62 60 64 66 65 67 65 73 86 86 76 85 89 104 109 96 96 105 101 87 107 89 69 74 71 72 78 76 82 74 67 64 64 67 64 67 76 72 79 99 97 88 80 82 82 105 116 150 170 137 110 144 147 135 189 225 219 206 182 216 218 179 153 152 145 97 102 147 123 110 156 156 148 164 217 204 161 137 153 136 102 93 87 92 84 95 85 94 86 118 93 66 61 62 60 58 53 53 49 47 50 50 52 48 52 62 55 54 50 43 47 59 54 42 38 41 44 46 53 59 53 47 55 67 58 45 53 52 47 50 45 47 44 45 44 45 44 41 40 36 35 36 37 32 30 32 30 29 27 25 
66 61 64 68 66 67 67 75 95 97 88 84 87 97 102 97 103 101 109 122 99 85 77 75 72 69 79 83 85 72 66 67 66 75 82 86 93 80 93 104 91 83 76 76 77 128 140 148 187 188 151 159 180 189 210 223 216 196 205 230 220 189 182 158 148 151 164 190 153 139 187 179 155 173 198 190 158 161 157 147 118 116 122 122 88 92 78 83 78 120 96 64 60 57 58 53 47 46 48 47 48 52 53 50 50 46 45 51 53 46 46 46 43 39 38 39 44 50 53 60 55 55 51 52 50 48 56 53 50 46 47 54 49 47 44 45 44 42 41 40 40 45 40 35 27 28 28 29 28 26 
64 61 64 66 63 66 70 75 106 115 82 84 94 102 121 112 132 106 116 134 113 97 88 86 82 92 107 92 85 70 66 63 70 102 123 116 122 92 95 93 84 79 79 76 81 132 156 191 215 227 186 187 224 232 233 233 230 223 233 232 223 211 209 168 179 208 214 224 189 134 150 187 170 164 182 213 177 154 147 158 126 129 138 126 94 88 79 77 72 120 100 66 58 56 55 51 51 49 49 46 47 47 43 43 44 46 46 48 48 44 38 41 42 46 50 42 42 44 46 55 52 49 48 46 49 56 53 49 53 58 44 46 47 43 40 45 46 44 44 49 45 42 38 39 33 27 27 26 25 24 
63 63 65 69 68 73 78 94 131 134 118 107 125 109 87 97 123 120 122 137 139 132 109 108 103 101 106 107 90 70 69 68 85 130 145 117 129 108 90 108 107 90 87 83 89 147 175 198 225 234 216 212 235 239 239 239 236 235 235 236 235 225 198 153 171 190 219 227 231 211 208 226 193 150 190 228 206 186 145 169 152 152 129 120 112 84 73 70 70 117 98 62 56 54 51 49 47 47 49 48 47 46 40 38 39 42 46 46 43 44 43 41 41 66 69 47 45 45 45 44 42 42 45 47 52 51 49 47 51 55 51 41 47 51 47 41 40 41 44 53 47 36 33 34 31 26 26 25 25 25 
68 63 61 66 71 83 80 92 128 140 145 140 143 126 116 104 101 110 128 159 141 150 154 120 113 98 92 114 103 78 79 93 105 101 112 122 109 102 106 145 146 111 92 91 116 152 172 201 232 237 236 237 238 239 239 238 237 236 236 237 235 225 168 147 159 203 230 233 235 236 235 235 225 207 217 230 217 194 159 154 126 111 96 98 98 85 84 87 73 117 98 59 51 50 50 50 50 49 49 45 43 42 41 43 45 45 46 45 43 43 43 42 49 59 48 41 45 46 43 41 41 45 43 45 47 47 47 46 52 52 54 47 46 49 48 41 43 41 42 40 37 34 29 30 27 24 25 24 24 24 
70 64 56 59 66 79 88 106 133 147 167 161 167 157 157 129 118 145 161 174 172 154 126 130 123 115 101 151 146 100 111 131 129 106 123 127 100 99 123 153 135 97 96 116 131 149 168 193 225 233 234 237 237 238 238 237 236 235 235 236 233 227 194 196 188 206 221 222 221 231 232 233 233 232 232 229 212 174 117 107 97 85 85 86 79 86 106 102 82 118 102 63 52 51 51 51 51 49 47 44 44 40 41 42 45 41 38 43 43 40 40 50 72 68 58 51 47 46 42 38 39 45 42 39 42 48 49 46 45 41 48 45 45 55 50 43 47 49 42 34 33 34 31 28 27 24 24 23 23 23 
69 61 59 56 61 69 96 133 159 163 174 179 181 190 189 155 144 137 126 154 181 174 187 183 173 160 145 180 165 127 146 155 167 173 152 140 152 158 144 126 106 90 96 132 139 139 150 157 198 208 225 237 237 237 235 236 236 236 235 234 233 233 228 215 169 175 186 197 205 224 228 230 232 231 231 228 206 167 121 100 96 98 89 85 80 94 118 97 89 125 107 73 58 60 56 51 50 48 49 44 41 41 45 40 39 34 35 40 41 36 35 44 49 57 62 54 49 48 44 38 39 44 45 43 41 43 43 44 40 37 38 37 42 53 48 40 48 58 44 32 34 31 28 24 28 27 25 24 23 23 
60 54 51 49 61 73 101 137 162 167 174 182 188 188 166 175 187 192 192 188 176 166 194 169 149 161 173 178 197 189 165 157 192 202 197 177 167 176 173 158 132 113 112 126 135 142 153 161 175 181 214 233 233 234 233 235 235 235 234 233 233 235 230 220 186 154 131 123 135 168 219 231 228 230 230 201 146 121 100 94 87 84 77 78 77 82 86 79 86 119 100 68 63 58 55 50 46 44 48 44 42 43 45 49 60 49 32 40 39 34 33 40 52 50 48 50 52 48 44 40 38 34 41 45 36 36 44 45 37 38 41 40 38 40 41 35 37 45 40 33 30 26 26 26 25 25 24 23 23 23 
60 62 58 52 60 71 101 138 164 168 175 181 187 187 166 184 203 206 208 207 194 160 185 166 155 170 188 197 210 216 206 188 195 194 199 187 166 171 175 162 147 130 129 147 153 156 165 150 169 192 203 224 221 231 234 232 233 234 234 233 233 231 229 220 162 109 85 79 83 99 177 225 226 228 225 198 134 100 99 92 73 73 73 68 62 74 77 74 72 114 97 67 54 48 41 40 38 38 37 41 39 40 42 44 63 54 36 44 39 33 30 41 48 43 43 44 43 51 44 39 37 36 41 44 38 32 38 44 38 40 42 39 42 51 51 41 37 37 41 38 32 26 27 27 25 24 25 24 23 23 
49 57 61 57 62 77 108 141 167 172 176 182 184 191 197 198 201 201 199 197 186 164 174 172 158 172 182 200 203 199 210 219 214 184 180 178 162 169 178 156 148 136 137 165 159 162 166 155 174 200 196 206 210 225 230 231 232 232 231 222 229 232 227 208 150 108 109 115 116 115 160 218 223 221 228 226 184 130 99 82 67 75 75 68 66 69 82 77 72 122 114 70 54 46 39 38 33 36 33 40 40 36 37 35 52 42 34 37 38 32 32 40 44 37 39 37 44 52 44 36 36 40 42 41 37 30 34 42 39 40 40 38 41 50 52 53 42 36 45 37 32 28 28 26 26 26 25 25 23 23 
41 43 45 46 74 103 126 146 170 175 178 183 188 192 196 197 197 172 140 143 158 152 137 130 145 165 162 179 182 194 211 206 211 186 173 164 160 176 171 150 141 120 117 130 131 145 151 160 179 191 198 185 206 220 230 231 231 232 215 153 189 219 217 198 169 170 182 190 194 197 202 217 214 211 226 226 217 204 117 76 66 70 69 68 69 67 73 65 87 131 107 69 58 52 42 43 43 42 42 43 45 41 39 38 37 33 31 40 46 33 31 42 47 35 38 38 48 51 43 38 34 39 49 48 35 28 33 40 37 39 39 38 40 44 54 43 50 62 72 58 55 49 30 27 28 27 25 24 24 24 
44 44 45 51 98 133 136 153 172 176 180 184 188 191 194 197 199 166 99 92 129 135 103 98 130 147 162 173 174 185 193 190 195 185 183 164 160 171 170 155 132 101 100 132 149 146 165 185 171 182 190 190 214 222 227 228 230 232 217 141 170 210 222 206 183 189 203 212 217 218 220 226 218 217 225 224 218 216 165 122 83 96 108 97 87 66 65 64 79 128 108 80 65 55 44 49 47 43 42 38 41 71 99 78 69 34 28 32 38 34 30 35 71 80 58 40 44 50 43 37 35 44 52 45 34 30 34 40 37 39 39 36 41 47 72 65 72 94 93 89 83 67 35 30 32 28 25 24 24 24 
47 48 48 69 122 146 143 154 172 175 180 184 187 187 184 182 178 164 87 84 121 123 87 92 135 151 164 180 181 179 175 176 172 172 183 180 170 176 176 159 142 100 96 137 154 124 138 166 167 183 200 205 206 205 218 227 230 229 219 167 189 216 222 205 185 192 209 205 207 223 224 226 217 209 195 198 214 218 217 192 102 96 109 76 71 86 97 74 70 126 119 78 71 59 47 50 45 43 38 39 41 95 169 133 130 94 53 35 38 34 32 53 102 102 71 44 46 51 45 36 35 48 48 42 34 32 30 39 39 38 40 36 43 52 83 99 98 107 101 93 91 85 57 45 37 29 25 23 23 23 
51 46 50 72 119 142 146 153 171 174 178 181 186 163 124 103 107 120 78 81 105 113 85 97 158 170 180 178 176 189 190 184 173 165 174 187 179 163 171 164 153 109 106 133 139 108 105 131 187 207 209 189 190 209 225 228 227 228 225 219 221 225 222 205 185 194 209 205 207 226 223 227 218 196 124 146 204 218 215 214 182 171 156 114 139 137 90 73 73 123 137 76 56 58 48 49 46 45 41 44 52 68 95 113 150 174 135 48 46 39 33 69 99 89 72 47 51 50 45 34 34 46 44 42 37 37 38 38 40 35 38 37 41 47 77 94 89 86 92 82 72 72 68 53 34 28 25 22 23 23 
55 57 64 79 112 138 146 155 173 176 179 180 176 130 79 71 69 71 64 69 80 94 78 87 140 158 182 189 190 192 196 191 185 183 184 182 181 165 163 168 155 108 101 127 138 89 90 126 189 206 203 192 198 224 225 224 225 226 223 223 225 224 222 203 183 195 207 214 219 221 223 225 217 210 202 205 213 215 214 212 198 192 184 169 157 179 165 114 80 118 115 69 54 57 51 49 46 50 43 47 52 55 49 83 133 157 149 66 32 38 33 55 69 67 65 58 55 51 45 36 44 56 46 39 47 47 55 50 39 34 37 35 38 40 63 84 81 76 86 69 68 75 67 52 41 32 30 29 26 26 
66 67 65 74 91 120 143 154 170 171 169 164 156 125 91 80 71 69 68 72 77 89 82 86 123 138 162 173 176 178 181 178 172 170 168 171 174 173 160 151 142 101 95 120 134 92 90 122 168 181 184 190 195 203 206 208 208 210 215 221 222 221 219 201 181 192 205 214 217 219 210 216 213 212 215 208 204 206 207 208 196 187 194 190 188 193 152 105 69 113 103 69 65 60 59 55 52 53 49 53 55 57 57 76 93 96 91 63 42 41 38 49 59 60 59 57 56 51 43 38 49 56 51 42 50 48 48 48 40 34 37 36 37 41 53 69 74 76 82 71 73 74 57 50 44 34 33 30 26 25 
76 72 68 68 92 129 137 144 155 128 105 99 92 89 89 89 88 90 89 90 94 93 90 91 97 94 94 98 104 108 107 113 113 107 104 109 113 120 114 107 108 93 86 134 151 91 98 111 114 116 119 120 118 116 121 127 129 131 164 213 215 216 217 199 179 187 200 209 214 215 205 211 213 199 175 159 149 153 168 172 168 168 182 185 192 175 124 105 89 119 98 82 102 92 84 84 79 79 80 75 72 68 67 67 60 46 43 45 45 46 42 34 39 42 43 50 57 49 41 38 38 38 42 43 46 39 36 38 38 40 37 37 39 39 45 54 60 67 76 72 70 66 52 48 40 29 27 24 24 24 
68 67 66 67 83 99 94 96 116 98 72 69 72 82 89 89 95 93 87 85 80 80 81 85 87 78 76 100 106 108 105 96 96 94 91 101 106 108 108 104 99 92 87 124 136 102 107 102 106 107 111 100 99 97 98 92 81 79 109 194 204 206 208 194 175 185 198 208 213 216 215 216 201 182 177 184 156 161 190 188 177 160 140 149 166 163 149 107 92 111 97 51 58 64 62 61 64 62 63 70 75 64 64 63 58 54 53 54 50 44 39 33 33 37 37 49 58 52 45 38 32 35 36 36 35 30 31 35 39 37 40 36 38 42 41 44 48 62 65 63 58 59 49 46 42 32 32 30 30 26 
58 62 70 73 70 74 71 73 81 92 82 72 74 79 78 81 89 90 89 87 85 79 72 78 83 69 81 107 115 119 120 120 123 125 121 119 115 106 101 98 100 104 99 96 99 103 101 95 95 101 103 104 104 106 99 97 78 64 108 174 187 193 198 186 170 183 192 201 206 211 215 215 186 164 157 152 131 144 161 148 135 120 103 103 112 136 111 90 80 105 102 55 53 69 68 48 45 54 70 70 74 66 59 56 56 53 53 54 50 48 43 36 31 30 33 49 58 51 45 37 34 34 34 33 31 31 39 44 44 44 45 37 41 45 43 44 48 57 62 58 57 56 53 56 52 39 35 34 31 27 
59 61 72 76 70 63 66 71 71 84 85 74 72 73 67 67 66 76 92 85 84 80 72 90 96 78 86 97 99 101 103 110 119 119 117 113 109 96 87 93 102 106 102 93 95 94 90 82 85 92 91 97 98 101 89 90 69 62 111 149 163 178 186 173 153 161 172 179 180 172 190 186 164 144 139 137 132 146 127 104 85 86 80 80 96 106 75 82 71 105 105 58 59 62 60 55 57 68 87 87 78 79 75 76 73 66 76 70 57 58 58 52 39 33 36 51 57 50 46 44 40 32 33 41 40 40 51 56 48 52 52 49 52 54 54 54 56 57 55 56 57 58 63 63 56 49 45 44 33 27 
57 55 59 72 79 68 65 70 74 70 68 72 74 73 74 74 71 86 95 94 96 92 98 109 109 96 85 101 106 108 103 92 95 92 93 91 94 87 86 89 90 96 93 88 86 81 88 91 90 87 90 94 93 94 91 97 101 111 120 128 135 140 143 141 134 134 135 136 137 129 123 117 113 112 118 113 103 104 100 99 98 102 100 101 96 89 91 84 70 108 99 56 57 61 72 92 98 101 98 99 101 100 94 100 97 90 85 75 69 61 59 60 48 39 39 51 55 51 52 59 54 47 51 57 56 53 55 57 54 62 62 57 59 55 54 55 54 55 49 52 53 54 57 54 54 61 55 53 50 46 
52 55 61 67 64 60 64 64 69 71 73 76 71 70 73 79 87 89 90 98 103 100 95 83 81 85 88 108 118 122 114 94 84 75 79 80 79 86 92 92 89 89 82 75 73 71 77 79 82 88 84 86 84 86 89 92 93 92 89 100 108 108 109 110 111 115 119 120 119 116 108 107 126 132 130 122 119 119 121 122 127 128 126 125 124 123 126 125 121 140 131 106 99 106 99 95 92 102 100 88 81 81 73 73 71 65 68 72 69 62 61 69 70 62 53 51 46 44 47 56 54 51 54 57 56 48 50 50 58 56 54 52 55 53 51 53 57 55 50 48 49 46 49 50 53 58 53 51 52 54 
66 70 75 78 78 77 77 77 80 88 89 90 86 81 81 87 92 89 95 98 97 92 91 78 83 86 76 106 122 123 105 84 77 68 70 71 79 105 111 109 100 86 79 74 74 80 84 76 83 89 82 81 79 76 86 97 100 105 111 116 119 120 121 122 121 122 122 125 130 137 134 134 142 143 141 140 138 139 131 122 130 137 135 135 137 137 136 137 140 140 145 141 141 133 106 93 85 94 86 72 68 65 58 55 56 56 57 60 60 58 59 69 70 65 63 55 45 46 50 59 59 59 60 57 56 53 48 47 53 52 50 52 54 51 49 48 46 49 48 45 47 43 45 45 42 45 46 49 45 43 
116 118 119 119 120 117 114 119 122 123 126 124 123 121 120 120 120 117 118 116 112 110 113 113 114 103 79 90 96 100 93 93 102 101 105 111 117 124 127 127 127 127 122 124 127 125 122 116 116 113 113 114 113 114 128 150 163 171 171 171 172 173 174 172 168 159 158 158 144 141 145 142 142 142 142 143 145 144 120 110 130 137 143 147 146 145 144 142 140 140 138 126 128 138 143 130 106 92 85 80 75 63 63 60 60 58 55 58 56 55 60 61 60 55 56 63 59 57 61 60 62 67 66 57 45 47 52 57 56 56 52 49 50 52 49 44 39 46 47 47 43 43 50 49 49 55 52 51 40 35 
133 135 144 145 150 156 151 155 154 153 156 153 159 161 150 146 140 137 133 132 132 132 134 137 142 129 117 131 133 134 132 118 128 144 144 143 138 139 139 138 138 126 118 122 121 115 115 121 125 126 122 118 121 132 133 133 139 146 141 143 143 144 157 168 160 149 149 153 151 145 145 149 155 159 161 161 161 151 114 113 137 142 148 157 159 157 155 153 152 161 156 137 139 135 132 139 146 141 130 107 83 77 83 88 90 83 78 79 76 68 69 74 73 68 69 76 76 79 78 74 75 71 71 75 68 62 68 72 71 68 68 65 66 65 64 67 60 59 65 65 58 58 64 63 64 62 61 61 52 48 
89 90 93 96 103 110 125 143 144 136 123 123 134 146 145 151 141 140 138 138 139 140 142 142 142 130 126 141 143 141 139 116 125 143 137 138 135 135 136 133 115 85 81 79 79 79 79 84 88 89 87 88 89 93 86 85 91 94 93 94 110 135 149 152 149 150 154 155 152 149 154 158 161 159 159 158 158 141 111 121 143 147 143 146 152 151 151 151 148 159 154 139 146 145 139 137 145 151 156 148 133 113 97 90 90 88 87 84 81 72 66 66 65 64 64 63 66 74 73 67 68 62 61 67 65 59 58 64 65 63 63 59 63 59 56 60 61 61 59 57 55 54 57 54 54 51 50 54 53 49 
61 63 61 64 66 72 82 83 79 79 80 92 98 105 112 135 140 140 143 141 140 139 138 134 130 121 114 126 128 123 125 112 119 132 132 132 130 134 139 132 101 69 69 66 67 67 67 67 69 67 72 76 71 70 70 72 75 80 100 127 150 148 132 138 154 160 153 151 155 157 159 159 158 158 159 159 154 131 113 128 147 155 152 147 150 150 152 151 151 156 148 140 145 146 146 144 147 152 154 154 154 150 140 127 123 124 125 125 123 118 115 110 108 104 98 78 63 64 65 61 61 59 52 55 59 56 56 62 64 68 61 57 59 60 59 56 54 52 49 55 54 52 52 52 50 46 50 51 51 51 
58 60 63 62 61 60 60 60 59 61 67 70 80 97 100 124 140 140 148 144 138 138 138 134 127 126 121 123 124 121 123 123 128 133 135 135 132 145 151 167 153 83 66 69 72 68 65 67 69 70 72 76 77 80 82 82 96 124 159 165 121 85 69 91 145 160 155 154 158 160 160 159 159 162 166 167 148 127 121 135 155 161 160 152 151 150 151 150 152 150 146 146 150 151 152 155 158 154 155 155 155 152 150 150 149 148 146 145 144 143 142 143 142 142 142 109 70 64 62 58 56 62 60 55 60 58 61 58 64 58 59 58 52 53 59 52 54 57 55 53 56 52 47 47 52 50 51 52 65 67 
56 59 62 60 55 56 62 59 59 62 63 65 66 75 87 108 121 121 121 124 129 126 130 130 128 129 128 128 129 130 129 132 135 138 138 155 169 179 184 188 178 100 68 72 75 83 94 105 119 132 143 154 157 160 158 151 161 168 172 161 133 100 88 103 144 161 159 161 162 163 163 162 162 162 160 160 160 154 157 159 161 161 162 161 161 161 162 161 160 160 162 154 143 135 137 150 157 154 156 156 150 139 137 136 138 144 147 144 143 144 141 143 142 135 125 81 62 61 62 63 62 59 56 56 52 49 52 53 55 54 54 58 52 46 53 56 52 56 57 53 50 51 49 48 51 52 55 64 72 72 
56 55 55 56 56 54 55 55 56 61 63 63 63 66 73 82 84 99 124 118 114 118 117 117 117 118 115 115 117 126 135 148 159 169 174 183 191 193 191 188 179 142 132 143 149 159 164 167 171 174 173 176 174 171 171 170 165 162 167 167 164 156 147 144 156 161 159 158 155 155 153 151 142 125 110 115 138 144 145 145 145 145 145 145 144 143 142 141 142 140 141 121 96 91 100 125 142 147 143 133 123 116 112 113 116 121 126 130 129 131 128 119 104 86 81 68 64 56 57 61 60 59 57 55 56 50 49 49 54 55 55 53 50 46 51 56 53 49 50 51 53 53 52 51 51 58 61 64 66 68 
52 54 54 53 52 50 50 48 50 55 61 63 64 61 64 66 69 90 122 123 115 117 114 120 121 127 136 140 146 159 173 182 187 191 194 198 195 178 170 168 166 176 180 181 179 174 170 167 166 165 165 165 163 160 158 155 148 146 147 146 142 141 139 137 132 127 125 122 120 118 116 117 113 98 91 93 106 108 105 104 104 104 104 104 104 103 102 101 102 101 104 105 106 116 125 137 142 148 145 139 132 126 114 112 116 126 126 129 130 133 130 116 97 77 72 74 67 54 54 58 60 58 56 53 49 53 55 50 53 52 53 50 48 48 51 54 64 71 73 81 89 80 62 60 58 63 64 57 54 59 
62 59 60 64 63 62 64 62 60 60 65 67 66 65 68 70 80 107 127 140 153 152 152 159 168 177 183 179 179 186 191 190 188 189 193 229 237 222 202 175 165 172 177 169 150 115 96 88 87 97 114 127 128 122 118 112 109 115 115 114 112 108 106 106 105 106 104 105 106 102 103 109 108 104 104 104 103 101 103 102 103 104 106 106 107 108 110 111 114 114 115 125 142 138 115 91 71 66 68 76 93 123 140 140 140 140 139 137 138 137 135 135 134 133 127 110 98 77 75 75 74 77 81 83 80 83 83 75 74 74 78 81 81 88 86 84 95 103 105 105 104 99 92 94 92 94 95 95 92 93 
111 111 113 115 115 116 118 117 118 119 123 127 130 131 134 138 145 156 164 170 186 193 201 205 208 209 206 201 197 192 188 187 188 200 206 211 204 199 185 155 147 149 131 74 55 47 49 49 47 48 46 53 79 105 113 115 113 117 117 121 119 120 121 120 118 116 115 115 117 116 116 118 119 117 117 119 117 116 119 120 121 122 123 124 123 123 123 123 122 121 118 118 98 62 43 42 44 43 44 41 38 46 68 107 121 120 118 113 112 112 113 118 119 113 103 101 102 97 107 116 116 115 115 117 117 114 113 111 111 111 112 113 113 114 113 111 112 113 113 112 109 110 110 112 112 111 112 114 111 109 
150 150 143 142 144 142 134 130 131 129 131 136 137 139 140 150 160 160 165 167 170 171 171 178 183 190 197 202 204 202 198 186 183 198 191 161 142 133 132 134 132 97 58 40 45 61 70 84 78 68 56 44 45 69 101 109 104 103 104 107 106 107 107 105 103 102 101 101 101 101 101 101 102 101 100 99 100 97 98 98 96 96 96 96 94 94 93 92 92 92 95 78 43 39 47 68 77 83 96 83 57 41 36 56 82 93 90 89 88 89 87 88 89 89 83 82 82 91 110 118 116 117 118 117 114 112 113 111 111 111 111 110 108 108 110 112 110 112 112 112 110 110 112 109 108 109 110 110 108 107 
182 184 175 167 167 157 135 122 124 123 124 131 142 147 150 157 158 159 164 169 172 175 171 180 185 180 180 173 172 169 169 160 158 159 145 139 127 106 101 98 92 56 40 56 66 95 132 194 159 112 92 61 48 36 75 100 94 90 93 93 93 92 92 92 93 93 93 93 92 92 92 92 92 92 92 91 91 91 92 92 92 92 92 91 91 91 90 90 90 91 90 53 38 55 92 155 131 156 205 178 109 64 47 37 56 85 83 81 80 76 77 73 70 70 69 68 70 89 104 109 107 104 103 105 105 99 97 98 97 97 98 97 96 99 100 103 100 101 103 105 104 102 109 106 100 103 101 98 103 104 
140 144 146 146 147 152 162 174 179 180 176 174 170 170 167 171 168 167 170 168 172 176 174 178 177 173 171 159 153 146 141 134 135 125 103 93 90 88 88 86 80 47 48 67 118 169 198 217 209 198 183 129 63 40 53 85 82 76 78 76 75 75 76 76 76 76 76 76 76 76 76 76 75 75 74 73 73 73 73 73 74 74 73 73 73 74 74 74 76 74 66 40 49 81 124 195 206 196 208 195 138 105 55 39 39 69 73 67 64 58 56 52 50 49 51 59 72 90 93 93 92 95 91 92 96 97 96 96 94 94 92 90 95 97 92 96 96 95 95 98 101 101 97 98 99 99 100 105 111 112 
129 130 136 141 143 143 148 149 148 150 148 148 147 148 140 147 148 149 151 157 161 160 156 157 158 161 162 158 157 159 150 136 137 139 111 89 85 82 81 74 67 43 49 89 154 204 203 184 189 207 180 143 72 45 40 63 69 69 68 67 68 68 68 68 68 68 68 68 69 69 69 69 69 68 68 67 67 67 67 67 67 67 66 65 65 65 65 65 64 64 54 40 54 97 130 185 189 180 181 199 185 135 58 41 33 47 50 44 40 38 42 52 59 65 70 88 95 99 104 115 123 116 111 108 113 115 122 120 105 105 111 109 111 112 110 105 105 114 118 124 124 126 129 124 116 115 113 116 122 123 
125 123 125 130 132 131 133 131 133 136 135 137 139 136 126 130 134 138 135 144 150 146 142 143 143 144 145 145 147 148 137 125 132 143 128 104 101 99 98 82 74 59 58 82 122 163 182 173 177 191 152 127 66 42 34 40 46 48 48 50 50 50 50 50 50 49 49 49 50 50 50 50 49 49 48 48 48 48 48 48 49 48 47 46 45 45 45 44 42 41 38 38 52 86 172 174 172 173 175 161 143 113 53 49 45 48 48 48 50 58 69 82 85 89 94 98 99 100 104 134 153 131 126 115 129 129 136 135 107 104 106 105 109 108 105 97 108 120 120 123 121 120 121 117 114 112 108 111 113 113 
102 101 103 106 104 107 105 105 105 104 108 108 108 108 107 110 110 111 113 113 116 118 115 121 119 117 119 123 129 122 107 111 112 107 108 116 116 109 103 101 98 92 84 58 80 149 164 147 126 148 142 78 50 37 30 29 32 40 48 50 47 45 45 47 45 45 45 44 42 41 41 41 41 41 41 41 42 41 41 43 43 42 41 41 40 41 40 38 39 40 41 42 46 55 85 127 120 144 164 137 104 64 46 50 52 55 57 61 66 69 72 76 77 80 86 90 91 95 96 100 105 101 107 103 104 103 103 106 99 97 98 99 102 100 102 102 106 108 106 108 106 103 97 97 96 88 83 85 84 84 
111 111 113 114 116 122 131 136 141 145 148 150 151 151 148 142 135 130 127 127 131 128 123 123 121 120 119 119 125 122 109 105 105 100 98 95 92 87 82 79 76 71 67 57 52 76 92 94 87 88 67 45 39 35 34 35 37 41 43 42 41 40 44 49 44 43 43 42 40 40 40 40 41 41 41 41 41 40 40 41 41 41 41 41 40 40 40 38 37 37 38 37 36 40 44 62 77 88 90 69 49 40 39 43 42 42 42 47 50 52 55 59 60 64 69 73 74 75 77 78 78 81 83 86 88 84 85 85 82 87 85 86 89 87 87 87 87 86 84 83 83 82 82 83 84 76 74 76 78 77 
127 129 130 130 128 129 132 134 138 142 147 154 160 163 164 161 155 149 144 144 149 148 148 149 151 155 157 160 158 151 150 142 139 134 128 121 117 112 110 108 104 100 95 93 89 85 84 85 85 83 82 82 82 83 83 84 85 85 86 85 86 86 86 87 86 86 86 86 86 86 87 87 87 87 87 87 87 86 85 85 85 85 86 85 85 85 85 84 84 84 83 82 80 79 76 75 77 77 76 74 74 75 76 77 79 80 81 84 85 85 87 88 89 90 92 93 93 95 96 96 98 99 99 100 100 101 103 102 101 103 103 103 102 101 101 102 103 102 102 102 102 102 103 103 103 101 101 100 99 99 
125 127 130 130 129 129 129 129 130 129 131 133 135 141 147 150 154 151 145 138 133 132 132 133 136 144 153 162 170 182 187 188 186 181 173 162 154 145 140 139 139 141 142 141 138 135 132 131 130 129 128 127 126 126 126 126 127 127 127 127 126 126 126 125 125 124 124 124 124 125 126 126 125 124 124 124 124 124 123 123 123 123 123 123 120 121 121 120 123 122 122 121 122 122 122 121 121 122 121 120 120 119 119 118 118 117 117 118 118 117 116 116 117 116 115 114 114 114 113 112 112 111 110 108 109 109 110 111 110 110 110 109 108 106 106 107 107 109 108 105 104 104 104 104 103 103 103 103 101 101 
122 123 124 125 128 129 129 129 132 133 135 139 142 144 147 149 148 147 143 140 137 134 132 131 131 132 133 135 136 140 144 148 151 152 152 147 145 142 140 139 137 135 135 135 136 136 136 136 136 136 136 136 135 134 133 132 131 130 130 130 130 130 130 130 129 129 129 129 127 128 128 129 128 127 127 127 127 127 127 126 127 127 127 127 125 126 126 125 126 125 125 124 125 125 124 124 123 123 122 121 121 121 120 120 119 119 120 120 118 118 117 117 118 117 117 116 116 117 117 115 115 114 113 112 111 112 113 113 112 112 111 110 109 108 109 109 109 110 109 107 106 106 106 106 106 105 104 103 103 103 
129 129 129 129 130 130 130 130 131 131 134 136 140 143 148 152 153 151 148 145 142 138 134 133 133 133 133 133 132 132 131 131 132 132 132 132 132 132 133 135 134 134 134 134 134 133 133 133 134 133 133 134 135 135 135 135 135 135 134 134 134 134 134 134 133 132 131 131 132 132 131 130 132 131 130 130 129 130 130 129 129 129 129 129 128 128 128 128 128 128 128 128 127 128 127 126 125 125 124 123 123 123 123 122 122 122 122 122 120 120 120 119 120 119 118 118 119 119 119 117 118 117 116 116 116 115 114 114 112 113 113 112 111 111 110 110 110 111 110 109 108 108 108 108 107 106 105 104 103 103 
135 135 135 135 136 135 134 134 133 132 131 132 134 137 141 143 142 143 145 146 148 147 145 143 141 139 137 135 134 134 133 131 132 132 132 133 133 133 134 135 135 135 135 135 135 135 135 135 137 137 136 137 136 136 136 136 137 137 138 139 138 138 138 138 138 137 136 136 137 136 134 133 136 136 135 134 133 134 134 133 133 132 131 131 131 131 131 131 131 131 131 131 129 129 129 127 128 128 127 126 124 124 125 123 123 122 123 122 121 122 122 121 121 121 120 119 120 121 119 117 118 117 117 116 117 116 114 113 112 114 115 114 113 112 110 109 109 110 111 110 108 107 107 107 107 107 106 105 104 104 
143 143 143 143 142 141 139 138 136 135 134 134 133 135 136 137 138 140 143 146 149 155 160 163 163 161 158 155 151 146 142 140 137 135 135 134 135 135 136 136 136 137 137 136 137 137 137 137 138 138 138 139 138 137 138 139 138 137 136 136 137 137 138 138 138 138 138 137 138 138 138 137 137 137 137 136 134 135 135 134 133 133 134 134 133 133 133 133 131 131 131 131 130 130 130 129 129 129 128 127 127 127 126 126 126 126 125 125 124 124 124 123 123 123 122 121 120 121 121 120 119 118 118 117 117 116 116 116 114 114 113 112 112 112 112 112 111 111 110 109 109 109 109 108 107 107 106 106 105 105 
137 139 142 144 144 145 145 143 142 141 140 138 137 137 137 138 138 136 136 137 139 140 142 144 147 149 151 152 154 153 151 150 150 146 144 139 138 137 137 137 137 138 138 137 138 138 138 138 138 138 139 140 139 139 139 139 139 139 138 137 137 138 138 139 138 138 138 138 139 140 139 138 138 139 139 138 138 138 137 135 134 134 134 134 135 134 133 133 133 133 133 133 133 132 133 132 131 131 130 129 129 128 127 127 128 127 126 126 126 125 124 124 124 125 125 125 124 123 122 122 121 119 119 119 120 119 118 118 116 115 115 114 115 114 114 113 113 112 112 111 110 110 109 108 109 110 107 108 107 107 
131 132 134 136 139 142 144 143 143 143 143 142 141 140 140 139 138 139 138 137 137 137 137 138 139 138 140 143 145 148 150 151 151 150 150 147 144 142 140 141 141 140 140 141 140 140 140 140 138 139 139 140 141 142 142 140 141 141 141 142 142 141 141 141 141 141 141 141 141 141 141 139 141 141 141 141 140 140 139 138 137 137 137 137 137 136 135 135 136 136 136 135 134 134 134 134 132 132 131 131 131 130 129 129 130 129 128 128 128 127 126 126 124 125 125 126 125 124 123 123 122 121 120 120 120 120 120 118 118 118 117 117 116 116 115 115 115 115 114 113 113 114 113 111 112 113 110 110 109 109 
131 132 134 134 133 135 137 140 140 141 141 141 141 141 141 141 140 140 140 138 139 140 140 141 142 141 141 143 144 143 143 146 146 145 146 146 145 145 144 142 141 140 139 140 141 141 141 141 141 141 141 141 141 141 141 141 142 143 143 143 143 143 142 142 143 142 142 143 143 144 143 142 143 143 143 143 141 140 140 138 138 139 139 138 138 137 137 137 136 135 135 135 135 135 135 135 133 133 132 132 133 131 130 130 131 131 130 130 130 128 128 128 128 127 126 126 125 124 123 123 123 121 120 121 121 121 121 120 118 119 119 118 118 118 118 116 115 115 115 113 114 114 114 113 112 113 112 112 112 112 
133 133 134 134 133 134 134 135 137 137 137 137 137 138 139 139 139 138 138 137 137 138 138 139 141 142 143 143 144 143 144 145 144 145 146 147 146 145 144 143 144 143 142 142 142 142 142 142 143 142 142 142 142 142 141 140 142 143 142 141 142 142 142 142 141 140 140 141 143 143 143 143 143 143 143 143 143 143 142 142 140 139 139 140 139 139 139 140 139 138 137 138 137 136 136 136 136 136 135 135 135 133 132 132 131 131 131 131 131 131 130 129 129 129 128 128 128 128 127 127 128 125 125 126 124 122 124 125 121 121 121 121 120 120 119 118 117 117 116 115 116 116 116 116 115 114 114 114 112 112 
134 134 135 136 136 135 135 135 137 137 137 137 138 139 140 139 139 139 140 140 138 139 140 140 142 143 144 144 144 146 147 147 147 147 146 146 146 146 145 145 145 145 144 144 144 144 144 144 145 145 146 146 145 145 144 144 146 146 146 144 145 145 145 145 145 144 144 145 144 144 144 144 145 145 145 145 144 144 145 145 144 141 141 144 143 143 143 143 142 140 139 140 140 140 140 140 139 138 137 137 136 135 135 135 134 134 134 134 133 133 132 131 132 132 131 130 130 130 129 129 131 129 128 129 128 125 127 126 124 123 123 122 122 122 121 120 119 119 118 117 117 117 117 117 117 115 114 113 114 114 
134 134 135 136 136 136 137 137 138 137 137 136 136 136 137 138 139 140 141 141 140 140 141 141 143 143 143 144 144 146 147 147 149 148 147 147 147 146 146 146 145 145 144 143 143 144 145 145 146 146 147 148 148 147 147 147 147 147 147 146 147 147 147 147 146 146 146 146 145 145 145 145 145 145 145 145 144 144 143 143 144 142 142 144 144 143 143 143 143 143 143 142 140 141 141 140 140 140 139 139 138 138 138 138 137 136 135 135 135 134 133 134 134 134 133 132 131 132 131 130 131 129 128 128 129 128 127 126 125 125 124 123 123 123 122 121 120 120 120 118 117 117 117 116 116 115 114 114 114 114 
133 134 135 135 135 135 137 137 137 137 136 135 135 135 136 137 137 138 139 139 140 140 140 140 141 141 141 141 142 142 143 143 144 144 145 145 146 146 146 146 146 146 145 145 144 143 144 144 144 145 146 146 147 147 147 147 147 147 147 147 146 146 146 146 146 146 146 145 145 145 145 145 145 146 146 145 145 144 143 143 143 145 144 143 143 143 143 143 143 143 143 143 140 141 141 140 140 139 139 138 138 137 137 137 137 137 136 136 135 135 136 135 134 133 132 131 130 131 131 130 129 129 129 129 129 129 128 128 127 127 126 125 125 125 124 123 123 123 122 121 119 118 118 117 117 117 117 117 116 115 
131 134 135 134 135 136 137 137 136 136 135 135 136 136 137 138 138 139 139 140 140 140 140 140 141 140 140 141 141 141 142 143 142 143 144 146 146 146 146 146 146 147 148 148 147 147 146 145 144 144 145 145 147 147 147 147 147 147 147 148 148 148 148 148 147 147 147 147 146 146 146 146 145 145 145 145 145 145 144 144 145 145 145 144 143 143 143 143 143 143 143 143 141 142 142 141 142 141 140 140 141 141 141 141 140 140 139 138 138 138 138 137 137 136 135 134 133 134 134 133 132 132 131 130 131 130 130 129 129 129 128 127 127 127 126 125 125 124 124 123 123 122 121 120 119 119 119 119 118 118 
131 133 135 134 134 133 134 134 134 135 135 136 136 136 137 138 138 139 139 140 140 140 140 140 140 140 141 142 141 140 141 142 142 143 144 144 144 145 145 146 145 147 148 148 148 148 147 146 144 144 144 144 144 143 145 147 146 146 147 147 147 147 147 147 147 146 146 147 147 147 146 146 145 145 145 145 144 144 145 145 145 144 144 145 145 143 143 143 144 143 143 143 142 142 142 141 142 142 144 150 168 173 173 171 171 171 170 168 169 169 169 169 170 169 167 167 166 166 167 166 166 165 164 165 165 165 163 161 160 160 160 160 160 160 159 158 157 157 157 156 155 153 154 153 151 151 151 151 150 150 
132 133 133 131 131 128 130 132 134 135 135 136 137 137 138 139 139 139 140 141 141 141 141 141 141 141 142 143 143 141 141 142 143 143 143 143 143 144 144 145 144 145 146 146 147 146 146 145 144 144 144 144 145 145 146 147 148 148 149 150 149 149 149 148 147 147 147 147 146 147 147 148 147 147 147 147 146 146 146 146 146 146 146 146 146 145 144 145 145 146 145 144 143 144 144 143 142 149 170 175 181 181 178 175 175 176 176 176 175 175 176 176 175 175 175 174 175 176 176 178 178 175 175 179 178 178 178 177 177 177 178 179 179 179 180 180 179 180 180 180 180 178 179 179 178 178 178 178 179 179 
134 134 133 132 132 131 134 134 134 135 136 136 136 137 137 138 138 139 139 140 139 139 139 139 139 140 140 141 141 141 143 145 144 143 143 142 142 143 144 144 143 142 143 145 146 146 145 144 144 144 144 144 144 146 146 145 147 148 149 149 148 148 148 148 147 148 148 147 145 145 145 145 146 146 146 146 146 145 144 144 145 145 145 145 145 144 143 143 144 145 145 142 143 144 144 143 143 146 162 162 163 163 163 163 163 165 166 166 165 166 168 169 167 165 167 171 177 181 174 171 172 171 173 175 174 176 177 177 178 179 180 181 181 182 184 186 186 187 187 187 190 189 190 190 190 190 190 190 190 190 
