P2
150 65
255
51 57 65 64 64 62 61 62 62 62 62 62 59 40 24 28 31 32 31 34 30 27 30 31 29 27 28 26 27 28 23 15 18 24 22 16 17 21 26 37 39 35 33 38 39 31 25 24 71 126 112 121 135 157 155 150 160 161 154 150 151 158 164 169 171 171 170 169 170 171 172 172 171 169 168 166 163 161 156 149 111 77 56 51 52 44 43 50 50 49 60 64 60 54 47 54 52 53 52 41 43 47 45 44 46 59 68 126 158 164 165 168 168 168 168 168 168 169 169 170 169 168 168 167 166 165 165 164 163 164 163 161 158 157 156 156 154 152 115 61 27 30 63 68 47 44 44 38 35 30 
69 72 69 68 69 66 66 66 67 67 67 68 74 57 33 31 30 28 27 32 32 28 27 31 33 33 33 28 26 26 25 22 21 18 15 20 25 26 29 42 43 39 36 41 44 39 36 38 71 106 102 110 120 125 123 129 143 153 159 163 167 170 171 170 171 170 169 169 170 170 170 170 169 167 166 165 162 160 154 145 105 71 49 45 50 43 41 48 51 54 62 62 62 56 40 35 34 37 46 40 34 37 39 42 46 53 64 98 133 163 166 168 168 168 168 168 168 167 167 167 167 167 166 165 164 164 163 162 160 160 159 158 157 155 154 155 153 152 101 36 43 64 79 79 72 70 60 48 46 42 
76 76 73 73 72 71 70 71 71 71 71 72 78 63 48 49 37 29 25 30 33 32 28 28 34 33 32 28 26 27 27 27 27 21 17 23 30 33 35 43 44 41 39 44 47 46 45 45 71 102 105 113 115 122 128 134 142 155 164 168 167 167 170 170 171 171 170 170 169 169 168 168 167 166 165 163 161 159 153 144 103 72 54 52 51 43 40 47 49 49 47 46 54 59 48 37 28 26 37 37 28 37 44 45 48 47 63 95 110 148 160 166 168 168 168 168 169 168 167 166 167 167 166 166 165 164 163 163 161 160 159 158 157 156 156 155 153 151 85 35 69 82 80 77 85 86 70 53 58 57 
76 79 77 76 74 74 74 73 74 73 67 68 76 62 49 60 58 45 28 30 35 35 33 33 35 33 32 29 27 24 20 23 27 25 24 25 23 28 31 41 44 38 38 41 42 41 41 42 81 127 123 123 122 134 144 146 149 156 163 167 166 167 169 170 170 170 169 168 170 170 170 170 168 167 165 164 162 159 153 144 107 76 53 51 54 49 48 47 49 47 44 34 46 58 57 46 33 29 35 40 39 44 52 50 45 46 64 118 129 140 149 160 165 167 166 167 166 166 165 163 164 164 164 164 162 162 161 160 159 157 157 157 157 157 156 153 153 150 81 43 52 54 70 74 82 85 73 55 50 52 
66 72 79 78 77 73 75 72 71 58 40 40 69 60 40 38 37 31 27 28 33 33 33 33 32 28 29 29 26 20 15 19 26 26 31 30 24 27 32 39 39 35 37 40 40 35 29 28 84 141 131 132 137 142 153 164 165 167 169 169 170 170 169 168 169 169 169 169 170 170 170 170 168 167 165 164 162 159 153 144 110 82 55 46 47 48 50 44 49 50 42 45 57 59 51 48 44 35 35 38 38 46 59 58 52 51 76 118 128 146 155 158 160 163 162 162 163 164 163 162 161 161 161 161 159 158 158 157 158 156 156 156 155 153 151 151 151 147 80 36 46 62 77 71 74 81 82 75 57 46 
48 54 63 63 59 55 61 60 55 46 38 39 64 58 38 30 25 29 31 30 27 27 31 31 32 29 29 31 26 19 18 21 29 26 33 34 28 30 38 36 32 33 30 36 41 38 29 25 88 152 145 150 154 151 150 157 156 158 162 166 167 167 168 168 167 168 169 170 169 168 169 168 167 166 165 163 161 158 154 146 110 77 50 39 40 38 32 29 35 43 40 48 54 52 45 41 39 31 29 38 35 40 51 54 52 51 66 105 123 144 154 157 160 162 162 162 162 162 162 162 162 161 160 160 159 159 158 158 156 156 155 154 153 152 151 150 149 144 83 43 53 69 70 67 75 80 74 61 46 43 
42 41 44 45 41 40 43 43 40 37 38 42 52 52 45 40 39 60 47 37 34 34 34 32 32 33 32 29 29 27 25 26 32 30 34 36 32 35 40 37 32 34 33 37 41 40 31 24 84 145 140 146 156 158 157 158 159 160 162 165 166 167 168 169 169 169 168 168 167 166 166 166 166 165 163 162 160 157 155 147 105 67 46 42 43 41 35 28 27 34 40 55 50 39 37 39 37 33 30 38 35 36 46 52 56 53 59 100 129 148 153 157 158 160 160 160 161 161 161 161 161 159 158 159 158 158 157 157 155 155 154 153 151 151 150 150 147 142 82 44 56 72 68 63 61 56 53 55 75 88 
36 34 33 30 29 30 30 28 28 29 32 38 49 54 58 65 73 84 78 74 74 73 69 46 36 39 40 38 47 62 63 68 71 65 49 37 38 42 43 62 67 71 60 40 39 43 52 57 102 140 136 144 153 155 153 157 163 165 166 165 165 166 166 167 167 167 167 167 167 167 167 167 165 164 163 162 161 157 154 147 109 71 49 49 52 45 38 38 43 43 42 39 44 45 41 43 35 34 34 43 47 50 58 63 62 54 60 90 115 145 152 155 156 158 159 158 160 160 160 160 160 158 157 158 157 156 155 154 154 154 153 152 150 149 148 147 145 140 80 42 59 75 71 55 41 56 87 102 105 108 
30 30 32 30 26 28 28 26 26 28 31 36 47 65 79 83 82 87 92 93 95 96 96 76 45 42 42 39 45 79 95 96 97 87 54 39 43 42 57 100 109 107 79 44 44 63 96 115 116 117 123 144 158 161 162 163 163 163 164 165 166 167 167 167 164 162 165 167 166 166 166 160 153 154 161 162 155 148 149 147 105 68 53 49 50 47 39 33 39 44 44 37 38 42 44 43 38 40 35 42 58 68 67 65 63 57 57 63 76 123 150 156 158 159 159 158 159 159 159 158 158 158 157 156 155 154 154 153 153 152 152 151 149 148 147 145 144 137 77 41 56 64 51 42 76 96 101 103 104 106 
27 26 29 30 29 31 31 29 29 33 42 48 62 76 87 90 90 93 97 100 102 104 103 98 76 48 45 44 42 61 90 107 109 89 49 37 43 44 67 115 122 105 67 43 46 61 100 127 127 131 132 148 157 162 161 163 164 163 164 166 165 165 163 154 135 120 133 145 143 132 125 121 109 113 130 138 129 118 127 137 100 71 57 52 50 52 48 43 43 40 50 48 50 46 47 47 46 54 49 39 46 57 61 61 65 61 54 53 66 120 150 156 158 159 158 157 158 158 158 158 159 158 158 157 156 155 153 152 152 151 151 150 149 148 146 145 144 135 75 46 53 43 41 63 93 100 99 101 102 104 
36 30 33 33 35 40 45 44 38 42 57 67 83 88 93 94 92 94 98 103 104 106 107 105 103 74 47 50 45 46 68 107 114 94 51 37 43 45 71 120 124 84 52 45 47 49 62 92 125 141 140 151 158 162 161 162 163 163 164 164 165 165 158 139 114 92 93 94 91 89 89 86 86 95 100 104 107 107 110 111 86 72 58 50 49 51 52 49 40 39 47 44 44 46 45 47 49 52 50 37 44 51 51 47 51 54 49 49 59 109 137 144 150 157 158 158 157 157 158 158 159 158 158 157 156 155 153 151 151 151 150 149 148 147 146 145 144 134 69 37 33 37 72 89 94 97 99 101 101 102 
51 46 49 48 52 58 66 63 62 63 69 81 91 94 97 97 95 98 103 106 107 109 111 110 111 103 72 55 48 45 52 96 115 108 66 37 42 44 72 122 111 59 47 49 46 46 56 96 132 144 142 146 151 156 162 166 166 167 166 166 165 163 150 135 111 82 73 69 67 70 77 74 73 78 90 97 96 100 100 88 78 76 60 49 50 48 46 43 37 35 38 39 35 42 44 44 43 40 40 38 51 66 63 52 45 44 46 51 53 74 90 112 132 155 159 159 159 159 158 157 156 156 156 156 155 154 153 152 152 151 150 149 147 146 145 145 144 131 58 29 28 40 69 82 94 96 98 99 101 100 
72 66 67 72 76 77 77 75 77 82 84 92 99 101 102 101 100 105 109 110 112 112 114 116 117 118 112 72 49 50 49 75 112 125 92 39 48 49 68 107 79 46 47 51 47 60 94 139 148 149 149 148 144 146 156 168 170 169 168 167 165 160 122 102 90 68 64 70 76 70 66 61 56 60 82 84 79 87 87 82 89 100 108 111 110 103 99 99 98 99 96 93 91 89 86 81 82 82 85 84 81 73 69 70 66 78 80 63 49 49 69 124 145 157 160 162 161 161 160 159 159 159 159 159 158 158 157 156 155 154 154 154 152 151 150 150 146 133 74 54 54 56 63 73 88 89 89 89 86 82 
88 87 91 93 92 92 89 88 90 93 97 98 100 100 101 100 100 103 106 106 108 109 110 112 114 115 115 91 60 44 46 54 85 124 105 43 45 56 59 59 47 44 51 57 54 95 134 146 147 151 151 152 149 153 157 159 157 157 155 151 144 131 119 116 93 65 57 60 68 62 53 55 59 64 76 77 75 75 77 78 104 128 142 144 145 134 119 118 119 120 119 120 120 118 118 116 116 118 120 116 109 102 101 92 97 127 128 83 51 39 54 111 139 154 160 159 160 159 159 158 157 157 156 156 156 155 155 154 153 152 152 152 151 150 150 149 147 145 115 81 77 77 79 80 80 77 68 59 50 45 
100 99 98 99 98 98 98 98 99 99 98 98 99 99 99 99 100 100 101 102 102 103 104 105 105 105 108 94 64 42 44 47 60 102 104 51 43 63 63 48 44 47 49 57 69 115 132 134 134 137 137 139 142 145 145 146 150 153 151 145 122 92 92 93 79 66 61 56 51 49 51 59 73 73 77 79 88 92 91 89 112 147 156 159 159 137 108 105 107 107 107 107 106 105 104 104 105 103 103 99 92 105 135 130 128 137 114 53 38 36 39 61 93 132 148 156 157 157 157 157 154 154 153 152 152 151 150 150 149 148 148 147 146 146 144 144 142 142 129 92 85 84 84 82 72 64 50 41 34 33 
108 108 107 108 107 107 107 107 106 106 105 104 106 106 106 106 107 107 107 107 108 109 110 111 111 113 113 104 73 47 49 47 54 103 116 67 46 69 72 58 52 61 58 70 97 130 134 134 136 138 138 140 141 145 146 147 149 149 144 137 117 92 69 61 62 60 61 57 48 46 52 67 80 80 90 93 107 115 110 106 120 148 156 159 158 146 131 129 130 130 130 129 127 127 127 127 126 124 124 119 111 116 147 149 144 147 126 54 37 39 41 43 57 103 133 154 156 155 155 156 156 156 155 154 153 152 151 151 151 151 150 149 149 148 145 144 144 142 128 93 86 85 84 77 60 47 37 36 36 34 
110 111 111 111 111 111 111 111 110 110 109 109 109 109 109 109 110 110 111 113 113 113 113 113 114 116 117 116 98 60 56 53 59 96 105 66 48 68 75 66 59 65 80 122 136 138 139 142 142 143 145 146 148 151 156 158 152 146 140 133 124 111 83 70 66 63 63 64 62 59 67 89 93 101 117 121 131 136 133 123 114 115 115 117 114 129 141 143 144 145 145 144 143 143 142 142 141 140 136 131 125 115 117 117 115 108 92 46 38 44 51 65 59 68 96 138 151 155 156 156 154 155 156 154 154 154 153 152 152 152 151 149 148 147 147 148 146 144 126 89 85 86 83 76 59 48 42 46 42 36 
114 114 114 114 113 113 113 113 114 114 114 114 112 112 112 112 112 112 113 115 117 117 117 117 117 118 120 121 113 79 65 57 59 58 45 38 45 64 70 72 67 63 80 131 140 141 143 143 143 145 147 149 150 152 157 161 151 145 141 136 128 119 110 100 82 79 86 87 88 92 98 103 109 124 132 135 142 146 147 138 129 133 133 133 131 143 151 151 153 154 154 153 152 151 151 150 150 149 145 140 135 127 127 126 127 113 79 47 45 51 76 109 97 62 56 78 92 119 143 155 156 154 155 153 152 152 151 150 150 150 150 150 149 149 150 151 148 145 126 89 84 83 82 82 73 60 53 50 38 35 
114 115 115 115 115 115 115 115 114 115 115 116 115 115 115 115 115 115 114 115 118 118 118 118 116 118 120 123 117 82 68 59 59 54 37 34 45 57 64 69 62 60 61 104 132 143 143 146 146 147 150 151 153 153 158 165 156 151 150 147 143 137 131 125 118 113 107 105 117 122 118 119 134 142 145 147 149 153 155 151 146 149 149 149 148 152 155 154 155 156 156 155 155 154 153 153 152 152 150 145 141 138 142 141 139 126 97 56 47 57 94 129 124 88 64 48 54 74 112 151 153 151 152 153 152 151 151 151 151 149 148 148 149 149 150 151 149 147 126 88 82 83 82 80 74 64 54 49 37 30 
116 117 117 118 118 117 117 116 116 116 116 116 116 116 116 116 117 117 117 117 118 119 120 120 119 121 121 111 90 65 61 55 55 55 46 48 51 54 59 60 51 55 58 88 123 141 140 144 145 146 150 154 155 154 153 158 156 156 158 159 160 158 156 155 154 155 151 149 154 153 152 155 161 162 163 164 167 169 168 168 167 167 167 167 164 166 167 165 166 165 165 164 165 164 164 163 161 161 161 159 157 156 161 158 156 150 137 105 91 95 120 145 142 127 109 84 79 87 110 149 156 156 156 156 156 154 153 153 153 152 151 151 151 152 152 152 152 152 130 96 90 91 89 84 74 69 64 61 52 48 
117 117 116 116 117 117 117 117 118 118 118 118 118 118 118 118 117 117 117 117 118 118 119 120 122 124 123 88 61 55 59 54 56 58 55 55 51 50 55 62 56 52 57 69 98 133 138 140 140 141 142 145 148 149 145 136 129 142 147 148 149 149 150 149 150 152 149 150 150 150 152 151 152 152 152 151 153 154 154 158 160 159 159 159 159 159 159 158 159 159 159 158 159 159 158 158 159 157 157 158 158 159 159 157 157 156 157 155 152 153 153 155 154 152 153 150 147 148 148 154 155 155 155 155 154 153 152 153 154 153 153 153 152 152 151 150 151 150 146 138 136 135 134 133 128 125 124 123 119 117 
119 119 119 118 116 118 119 119 119 118 118 119 119 119 119 118 118 119 119 119 119 120 122 122 124 113 91 62 52 56 60 52 54 59 58 55 51 54 57 58 55 51 56 59 69 99 114 135 144 147 150 152 155 156 155 148 141 155 162 164 163 162 163 164 165 164 163 164 166 167 165 166 167 167 166 166 166 164 161 166 169 169 168 169 171 170 169 168 167 167 167 166 166 166 165 165 165 165 163 164 164 165 164 162 161 161 160 160 159 160 158 159 157 155 155 155 154 154 153 153 151 151 151 152 149 147 146 145 145 144 143 143 141 139 138 136 136 134 134 133 132 130 128 127 125 123 122 119 118 115 
116 117 117 116 109 107 107 103 103 108 114 115 113 113 115 113 107 105 105 112 114 111 112 109 97 72 53 50 52 55 57 54 56 63 61 57 56 57 57 56 56 57 58 59 58 61 67 95 134 148 150 151 154 158 159 157 155 160 162 165 165 164 164 164 166 166 167 167 167 168 169 168 168 169 170 170 170 169 164 167 172 173 172 171 172 171 173 172 170 171 171 171 171 171 170 169 169 169 168 170 169 170 169 167 167 166 165 164 164 164 163 163 163 161 160 161 160 159 158 157 156 154 154 155 155 153 153 150 150 148 146 146 146 143 142 143 142 140 139 138 137 131 128 126 127 125 126 122 121 121 
128 127 126 122 111 105 102 98 99 109 119 121 115 116 120 118 103 93 92 104 106 100 97 93 84 79 80 77 78 79 79 82 87 86 82 80 78 75 74 77 77 78 76 74 73 70 68 73 107 126 120 113 115 127 145 158 160 164 164 165 166 167 165 163 164 168 169 168 166 168 169 169 169 169 170 171 173 171 164 165 169 171 174 175 172 171 172 172 172 173 172 170 169 170 170 170 167 167 169 166 167 168 169 168 167 167 166 166 166 165 164 163 164 163 162 163 162 161 159 157 155 153 152 152 150 148 147 140 143 142 133 132 135 137 131 130 129 130 128 125 122 121 120 115 118 116 117 119 117 119 
154 154 154 155 155 156 158 159 159 160 162 162 163 165 166 166 166 166 166 168 168 167 168 168 168 168 169 169 169 170 170 171 170 169 167 167 168 167 168 169 169 168 168 167 168 168 167 167 168 167 164 161 161 161 167 176 182 185 186 186 187 188 186 184 184 185 187 186 186 186 186 186 186 186 187 187 188 188 183 185 186 186 187 188 187 187 186 185 186 185 183 181 179 179 179 180 177 175 176 168 169 174 176 175 175 173 172 173 172 171 168 167 168 168 167 166 165 162 158 155 156 152 149 149 138 131 130 116 112 113 108 103 107 106 100 94 87 86 85 82 81 85 87 83 82 81 82 86 90 89 
164 165 166 166 166 166 166 166 169 169 169 169 171 172 173 173 173 173 173 173 174 173 174 174 174 175 176 176 176 176 177 177 178 178 178 178 179 180 180 181 181 182 182 183 183 183 183 183 185 185 185 185 186 186 186 187 186 184 185 188 187 188 188 187 187 187 187 187 187 187 187 187 188 188 188 188 188 187 188 189 189 189 189 189 190 191 193 193 193 192 192 192 193 192 192 193 193 192 191 191 191 191 191 192 192 190 190 192 193 192 190 189 189 190 189 187 187 188 187 185 186 186 184 181 176 173 171 168 166 165 165 165 164 162 159 155 151 150 149 148 144 143 142 142 141 142 141 139 137 135 
172 173 173 174 175 175 175 176 178 178 179 180 181 181 181 181 182 183 184 184 184 184 186 186 186 186 186 186 187 188 188 189 190 190 190 190 190 190 191 191 191 192 193 193 193 192 192 194 194 195 196 196 197 196 195 196 196 196 196 196 196 198 198 197 197 196 196 195 195 195 195 195 195 195 195 195 194 193 195 195 193 193 193 193 193 193 194 195 195 194 194 194 193 192 192 193 192 192 192 192 191 191 191 191 192 192 191 190 190 189 189 188 188 188 187 186 185 186 186 185 186 187 187 186 186 186 186 186 185 184 184 186 185 185 183 182 181 181 181 181 179 178 177 177 178 177 177 176 175 174 
171 171 172 173 173 174 175 176 177 178 178 179 180 181 182 181 181 183 184 183 184 184 186 188 187 188 189 189 189 190 190 191 192 193 193 192 192 192 192 192 194 195 196 196 196 196 197 197 198 200 201 200 200 201 199 200 200 200 201 201 204 205 204 203 203 204 203 203 203 203 203 205 205 205 205 206 206 207 207 207 205 206 205 206 206 208 213 220 223 223 223 223 222 221 222 221 220 220 220 220 220 219 219 218 219 218 218 217 216 216 215 215 213 211 207 200 200 200 199 198 198 198 198 198 197 197 196 195 194 193 192 192 192 191 190 189 187 186 185 185 184 183 183 182 181 180 180 180 180 179 
173 174 174 175 176 177 178 178 180 180 179 179 180 181 182 182 182 183 183 184 185 184 185 186 187 187 189 189 188 188 189 190 190 192 193 193 193 193 193 193 194 195 196 196 197 197 197 197 197 199 200 199 200 201 199 200 200 201 202 202 203 203 200 197 195 191 187 187 186 184 183 183 183 184 184 185 186 188 192 195 203 209 210 210 214 227 238 241 242 241 241 241 241 241 241 240 239 239 239 239 239 238 238 237 236 235 234 234 234 234 233 233 232 229 227 209 201 200 200 202 202 202 202 202 201 201 200 199 198 198 197 197 198 197 197 196 195 194 193 192 191 191 190 189 190 191 191 190 188 188 
173 174 175 176 176 176 177 178 180 180 179 179 179 181 181 181 181 181 182 184 185 184 184 184 187 188 189 189 189 189 189 189 189 191 192 193 193 193 194 194 194 196 197 197 198 198 198 197 197 197 198 198 199 200 199 200 201 201 203 204 197 173 135 119 111 105 101 102 100 98 99 99 99 96 93 94 94 96 108 114 160 219 231 231 230 214 189 183 184 184 184 184 185 185 185 185 185 185 186 185 184 183 183 183 183 182 182 182 182 182 180 184 198 224 229 219 208 201 200 201 200 200 200 200 200 200 200 199 198 198 197 196 197 196 196 195 196 195 195 194 193 192 191 191 191 191 190 190 188 188 
172 174 175 176 176 176 176 178 179 179 179 179 180 180 180 180 181 181 182 182 183 184 185 186 186 188 189 188 189 189 189 189 189 191 192 192 192 192 193 193 194 195 197 198 198 198 198 198 198 197 197 198 198 198 198 200 201 203 197 184 149 107 91 90 100 116 120 122 124 124 126 126 110 83 75 97 122 112 88 88 119 197 233 232 214 133 90 86 86 86 86 86 86 86 86 86 87 83 83 77 76 79 80 79 78 79 80 79 79 80 78 81 96 165 214 222 217 203 200 201 200 200 200 200 199 200 200 199 198 198 196 196 195 195 195 195 195 195 195 195 194 194 193 192 191 189 189 189 187 187 
170 172 173 173 174 173 174 176 177 177 177 177 177 178 179 180 181 181 182 182 182 183 184 185 185 187 187 187 186 188 189 190 190 192 192 191 191 191 192 192 192 193 195 196 196 196 196 196 198 199 199 198 197 197 197 199 198 191 159 118 93 88 107 129 167 192 196 197 199 199 201 200 158 98 80 123 185 170 100 89 99 163 230 230 208 111 85 86 87 86 85 84 85 85 85 85 82 74 74 65 64 70 73 70 69 70 69 68 69 67 64 63 60 92 168 222 222 210 202 201 200 200 200 200 200 201 201 200 198 198 196 196 195 195 195 195 195 195 195 195 194 194 193 192 190 188 187 188 187 187 
170 170 172 172 172 172 174 175 177 177 178 178 177 177 178 179 180 181 182 182 182 182 183 183 182 184 186 187 187 188 190 190 190 191 191 191 191 191 191 191 191 191 192 193 193 194 195 196 197 198 199 198 199 197 195 192 162 123 99 88 90 95 140 190 200 201 203 204 204 203 204 203 163 99 76 105 143 128 94 89 95 142 224 231 229 155 82 88 93 90 89 90 90 89 89 89 86 76 77 67 66 72 73 72 72 71 71 71 71 68 65 64 65 60 102 206 222 217 208 202 201 201 200 200 200 200 200 199 198 198 197 197 196 196 195 195 195 195 194 194 193 192 192 192 190 189 188 188 188 188 
171 171 172 172 172 173 174 175 176 177 178 178 179 179 180 181 180 181 182 182 182 182 184 184 183 184 186 187 187 188 188 189 189 190 191 191 191 191 191 191 189 190 191 193 193 194 195 196 195 197 196 196 197 195 172 145 110 85 96 118 117 115 156 201 203 204 205 205 205 204 203 203 163 96 73 97 114 104 91 88 94 125 216 229 233 199 109 81 83 86 88 87 87 86 85 85 81 73 73 65 62 70 71 69 69 69 69 69 68 67 65 63 63 58 87 193 209 199 207 204 201 199 199 200 199 198 198 198 197 197 197 197 196 196 195 194 193 193 193 193 191 191 190 190 190 190 189 188 188 188 
155 165 172 172 173 173 173 174 176 177 177 178 178 179 179 180 179 180 181 181 182 182 183 184 185 185 186 187 186 187 188 188 188 189 190 191 191 192 192 192 193 192 191 192 193 192 192 191 189 187 185 168 144 132 114 95 84 89 122 155 142 82 132 203 207 208 208 208 207 205 205 204 165 99 74 96 112 107 100 91 100 108 177 199 205 199 171 130 113 116 117 116 115 115 114 113 112 109 109 106 105 108 106 107 107 108 108 107 107 107 106 105 107 116 143 187 184 175 181 182 190 200 198 198 197 197 197 197 196 196 196 196 195 195 194 193 192 192 193 193 193 192 191 190 190 189 188 188 188 188 
121 134 144 145 148 150 149 150 153 157 159 163 170 177 177 177 178 178 179 180 181 182 183 183 184 184 185 186 187 186 188 188 188 188 187 185 184 180 176 173 169 165 159 155 152 148 144 141 135 133 129 112 96 93 91 84 84 94 124 145 125 65 102 157 157 157 156 155 154 150 149 146 128 100 84 93 108 110 110 97 103 94 107 118 120 122 123 118 114 113 113 114 115 114 113 113 111 111 111 111 110 109 108 107 106 107 107 107 107 108 107 106 105 111 115 113 112 111 108 119 164 198 198 198 197 196 196 197 197 196 194 193 194 194 193 192 192 192 191 191 193 192 191 190 190 189 188 188 188 188 
102 102 103 104 106 107 101 98 107 112 111 121 141 169 177 176 177 176 176 177 179 180 181 181 181 181 182 182 184 185 184 183 175 158 150 139 130 120 115 110 107 106 103 102 101 101 101 102 100 102 98 97 97 96 99 101 101 100 102 101 87 69 83 102 104 104 103 102 102 95 83 81 93 105 99 98 100 100 103 99 105 96 100 108 106 106 105 104 103 103 102 101 102 103 103 103 102 102 102 102 103 104 105 105 103 101 101 102 101 100 98 97 95 94 94 95 95 99 100 109 155 196 197 198 196 196 196 198 197 196 195 195 194 194 192 192 192 191 191 190 189 188 189 189 189 189 188 188 187 187 
98 97 97 97 99 99 98 88 85 88 76 74 111 159 175 176 177 175 174 175 176 177 177 178 178 179 180 180 182 184 174 125 102 95 94 94 94 97 101 103 105 106 105 104 105 104 104 105 105 104 102 100 95 95 101 104 104 104 104 104 103 104 106 106 103 101 97 94 96 93 84 89 99 99 95 97 99 95 92 90 90 81 87 92 90 90 89 89 88 86 88 91 96 97 98 98 98 99 99 99 98 98 99 100 98 98 93 88 87 84 82 82 82 82 82 83 84 90 91 100 150 198 198 196 196 195 194 194 194 195 195 194 194 193 193 192 191 191 190 189 186 186 187 188 187 187 186 186 186 186 
93 93 92 92 92 91 94 81 67 93 116 82 102 159 175 175 175 175 176 177 177 179 179 178 178 179 181 183 182 184 162 93 74 69 76 84 86 86 85 83 83 83 82 82 82 81 81 83 85 85 83 82 77 72 73 73 73 73 73 73 72 74 74 72 70 69 67 66 67 67 67 69 70 67 64 66 67 67 66 65 63 57 61 66 64 64 64 64 64 63 70 88 99 95 94 91 90 92 95 91 86 84 86 90 92 99 100 79 64 61 62 62 61 60 60 61 61 62 64 76 132 197 196 197 196 196 195 194 194 195 195 194 194 194 194 193 192 189 188 189 188 187 187 187 186 186 186 185 184 184 
73 73 73 74 75 73 74 64 53 70 102 80 84 136 153 152 152 153 154 155 155 157 158 158 158 159 159 161 161 164 143 86 71 57 60 64 59 46 37 29 30 30 30 30 30 30 31 35 48 58 58 59 62 60 61 60 61 61 61 61 61 60 60 61 60 60 61 61 61 62 61 59 61 59 56 59 60 60 60 60 59 54 57 62 60 60 60 59 60 63 69 84 91 77 70 68 66 69 71 68 67 65 65 67 73 88 96 90 70 57 56 55 55 54 54 55 56 55 55 63 121 181 183 185 186 187 187 187 187 188 188 187 185 185 185 185 183 183 182 181 181 181 180 180 180 179 178 176 175 175 
45 46 46 46 45 45 43 46 53 55 51 54 61 88 104 98 91 93 93 92 91 93 96 96 97 98 95 90 89 93 86 61 52 50 52 49 33 16 14 21 26 28 29 29 29 25 20 15 22 43 55 59 63 63 65 65 64 64 64 64 66 65 65 66 67 67 67 67 68 67 67 68 68 67 65 67 68 68 68 68 66 59 62 67 66 66 66 65 67 69 70 68 63 41 30 30 27 28 30 30 31 28 28 28 33 59 78 82 73 62 61 62 62 60 60 60 60 61 59 64 99 137 138 138 140 142 143 143 143 144 143 142 140 138 138 139 137 140 137 135 136 135 136 137 134 133 132 130 130 131 
27 27 34 43 38 30 25 49 84 77 55 56 60 60 61 64 67 66 65 65 65 67 69 70 72 71 67 65 64 59 46 40 39 40 40 34 19 17 27 35 39 47 53 53 49 36 33 29 18 20 45 54 52 51 53 54 54 54 54 54 55 55 55 55 56 56 56 56 56 56 56 56 57 57 54 56 56 56 56 56 57 50 53 58 58 57 56 56 57 59 61 52 33 21 19 25 28 36 41 41 38 31 27 23 18 23 39 60 61 53 52 53 53 53 52 53 52 52 52 62 81 94 95 94 94 95 96 96 96 97 93 92 90 89 90 93 91 91 90 89 89 87 87 88 85 84 86 83 83 85 
25 24 31 39 33 25 22 26 39 41 40 42 45 46 46 52 59 57 55 55 55 57 58 57 58 58 58 57 58 54 45 36 34 36 35 26 16 26 34 50 69 92 97 103 102 73 51 37 27 14 29 47 46 44 46 47 47 47 47 47 48 48 48 48 48 48 48 48 48 48 48 48 49 48 46 48 48 48 48 48 48 43 46 49 49 49 48 48 49 51 52 35 21 22 27 39 60 82 94 92 88 66 45 33 24 15 22 45 49 44 42 41 40 44 46 46 44 43 46 62 77 83 85 75 73 71 72 74 73 75 73 73 73 73 80 88 80 75 75 75 74 73 73 74 71 71 73 71 72 74 
32 32 32 30 23 22 24 25 28 37 46 48 49 48 49 51 54 55 56 57 56 55 54 55 55 56 58 56 56 55 53 46 44 40 37 21 18 31 41 73 94 98 79 81 102 104 73 42 31 20 20 39 41 40 41 41 41 41 40 39 40 40 41 41 41 41 40 40 41 41 41 41 41 41 41 42 43 43 43 43 41 38 39 41 41 41 41 40 41 40 37 22 16 25 32 60 96 105 92 90 105 100 72 43 29 18 17 28 27 28 34 32 30 45 52 52 51 52 51 54 59 76 86 75 71 69 69 69 68 66 68 69 70 70 69 71 69 68 68 68 69 67 65 65 65 64 64 62 63 63 
24 26 28 28 25 25 30 33 33 40 45 50 52 47 50 55 56 57 60 61 59 55 55 59 60 59 61 61 57 50 47 47 47 42 31 18 18 32 45 86 95 88 64 62 85 96 79 43 30 19 12 19 26 28 30 31 31 31 31 31 31 32 32 33 32 33 34 35 35 35 34 33 31 31 32 32 32 32 32 32 32 29 27 26 26 26 27 29 30 26 23 18 17 27 35 73 102 93 61 58 86 99 88 50 31 28 27 39 42 44 48 49 53 68 74 78 82 85 84 80 76 79 82 84 85 86 82 75 73 71 74 76 79 79 72 69 70 70 71 72 75 76 76 75 72 67 62 60 61 62 
11 14 17 20 23 23 28 30 29 30 32 46 50 38 39 41 43 45 46 47 48 47 47 48 47 47 47 42 37 33 33 34 39 42 37 36 34 30 36 76 101 97 91 88 92 84 63 36 24 12 10 15 17 17 16 16 16 17 17 18 18 19 20 20 19 21 26 29 29 28 26 25 20 19 20 20 19 19 19 19 20 21 21 21 23 21 20 22 26 24 20 18 14 23 32 62 100 97 90 88 94 97 77 42 31 36 41 46 48 51 60 72 71 70 75 78 79 80 82 78 75 79 81 84 82 76 73 71 72 71 74 77 78 75 70 68 66 66 66 66 69 72 70 68 67 60 55 54 52 51 
17 19 23 28 28 28 32 32 32 33 36 43 42 37 40 40 43 46 48 49 49 49 49 49 48 47 45 44 45 45 45 43 42 41 39 39 36 27 27 40 58 78 82 80 71 49 34 25 17 14 17 18 22 21 19 18 19 19 19 21 23 24 25 25 21 21 22 24 23 22 22 23 25 26 26 25 21 21 21 21 22 23 24 24 22 21 21 21 21 21 20 19 17 19 23 37 61 77 88 86 86 70 43 30 28 34 36 39 41 43 52 61 63 67 76 78 76 69 67 71 70 69 75 84 84 77 73 70 71 71 69 67 65 63 65 65 63 65 65 64 69 72 66 65 66 61 57 58 55 50 
41 43 45 46 48 50 52 54 58 60 60 62 63 64 67 69 72 74 75 75 73 73 73 73 72 71 70 71 70 68 65 62 61 58 62 59 50 42 40 38 38 42 47 43 38 35 36 36 37 39 40 42 43 43 43 44 45 43 43 44 45 45 45 45 46 47 47 46 45 44 44 45 46 47 47 46 45 45 45 45 46 46 46 45 43 43 42 41 38 37 36 35 33 30 28 31 34 38 46 47 43 38 33 34 37 41 42 45 47 46 48 51 53 57 60 63 64 62 63 68 71 73 76 79 81 81 80 79 80 81 80 81 82 81 83 83 82 85 84 81 82 82 80 80 79 77 75 76 74 69 
88 90 91 90 92 93 90 91 93 95 95 98 97 98 99 100 102 101 101 102 103 104 104 104 104 105 105 104 103 104 104 102 102 101 101 101 97 95 93 94 95 95 96 96 95 95 97 97 100 102 100 99 100 101 101 101 103 102 101 101 102 103 105 106 105 106 106 105 104 103 103 104 104 104 104 104 102 101 100 102 105 105 104 104 103 101 98 97 93 94 96 98 97 96 92 87 83 83 82 84 86 88 90 90 92 94 94 95 94 93 92 92 93 95 93 93 95 96 97 96 96 98 100 103 104 106 107 109 111 111 110 110 111 110 110 109 107 107 106 106 106 106 106 106 106 106 106 106 105 103 
101 101 102 103 102 102 102 103 104 106 107 108 108 107 107 106 105 104 105 106 107 108 109 109 109 110 111 112 112 113 113 113 112 113 114 115 115 116 116 114 115 116 116 117 117 118 117 117 117 118 117 115 117 117 117 117 117 118 118 118 118 118 118 118 119 121 121 121 123 123 122 121 121 121 121 121 120 116 114 120 124 124 124 124 124 123 122 122 121 121 122 122 123 123 123 121 121 119 119 119 119 120 119 118 116 117 117 116 115 115 115 115 116 117 117 118 119 118 118 119 119 119 119 120 119 118 117 116 118 121 122 120 119 119 119 118 116 115 115 115 114 115 115 114 114 114 113 111 112 113 
100 100 101 101 102 102 102 102 103 104 105 106 105 105 105 105 104 104 106 107 107 108 108 109 107 108 109 109 110 110 111 113 113 114 114 115 115 116 117 117 115 115 116 117 117 118 118 117 117 116 116 118 119 119 119 119 118 119 120 121 121 121 120 120 120 121 120 119 121 121 122 122 122 122 122 123 121 118 120 122 123 123 123 123 124 123 123 124 123 122 122 122 121 122 122 121 121 120 120 121 119 120 120 118 118 119 118 117 117 118 119 119 120 119 118 118 118 120 120 119 119 118 117 116 116 116 116 116 116 115 116 115 114 114 115 115 113 113 113 113 111 112 112 111 111 112 111 110 111 111 
99 99 100 100 100 100 100 100 100 101 102 103 103 103 104 104 104 105 106 107 107 108 109 109 108 107 107 108 107 107 108 110 111 110 109 110 112 113 113 113 113 114 115 115 115 115 116 118 116 114 115 118 117 117 118 118 117 117 119 119 118 117 118 118 120 119 118 118 119 119 121 122 121 120 120 120 120 119 119 117 117 118 118 117 119 119 119 119 121 121 121 120 119 120 120 119 117 117 117 117 117 118 119 117 116 117 118 117 117 117 117 117 116 115 115 115 114 116 116 114 114 114 115 113 113 114 114 114 113 111 110 110 110 110 110 110 110 109 109 108 109 108 108 108 106 106 106 106 106 106 
94 94 95 96 97 97 97 97 99 99 99 99 101 101 101 101 103 103 103 103 104 105 105 106 105 104 104 105 106 105 106 107 107 106 107 108 109 110 110 109 110 111 111 112 110 110 110 112 111 110 111 113 112 112 113 113 114 114 114 114 113 114 115 115 115 115 115 115 116 115 115 116 115 114 114 115 116 115 115 114 114 114 114 114 116 115 115 114 113 114 113 111 110 111 113 113 112 112 111 111 112 114 114 113 113 114 114 113 112 112 112 112 110 109 109 110 110 111 111 110 109 108 110 109 110 111 109 107 108 108 108 107 107 106 104 104 106 105 105 104 103 102 102 103 104 102 100 99 98 98 
93 94 94 95 94 94 95 95 97 97 96 96 98 98 98 98 99 100 101 101 101 101 102 102 104 103 103 104 104 104 104 106 105 104 104 104 105 106 106 105 106 107 108 108 107 106 106 107 108 109 109 109 109 110 110 111 112 111 110 110 110 111 112 112 111 111 112 113 114 113 112 112 111 111 111 112 113 112 111 111 111 110 110 111 113 112 111 110 110 111 110 109 109 108 108 110 107 107 109 109 108 109 109 108 109 110 110 109 108 108 108 107 107 106 105 106 105 106 106 105 105 104 105 105 104 105 105 104 103 103 102 101 101 101 100 100 99 99 98 98 96 95 95 97 99 98 96 95 93 93 
92 92 93 93 93 93 93 93 94 94 94 94 95 96 97 97 97 97 96 96 98 98 98 99 101 101 101 101 100 101 102 102 102 102 102 102 103 103 103 103 103 102 102 103 104 105 105 104 105 106 106 105 105 106 106 107 107 107 106 105 105 106 107 107 107 108 107 109 109 108 108 109 108 107 108 109 108 107 107 106 108 108 108 108 108 107 107 106 108 108 108 108 107 107 107 107 106 106 107 107 105 105 105 105 105 105 104 104 104 103 103 102 102 103 102 101 102 101 101 100 101 101 101 99 100 100 100 100 97 97 97 97 96 95 95 96 96 95 94 94 93 92 92 92 93 93 93 92 91 91 
90 90 91 91 92 92 91 91 93 93 92 92 93 94 95 95 94 94 95 95 96 96 96 96 96 97 98 99 98 99 99 100 100 100 100 101 101 101 101 101 102 101 101 102 103 103 103 101 102 103 103 102 102 102 103 104 104 104 104 104 103 103 104 104 106 107 105 106 106 105 105 106 106 105 105 105 104 104 104 105 104 104 104 104 105 104 103 103 105 104 102 101 103 103 102 101 101 102 102 102 102 102 102 103 103 101 100 101 101 101 100 99 99 100 100 99 99 98 97 97 97 98 97 96 95 95 95 95 93 93 94 95 93 92 92 93 93 93 92 91 90 90 90 89 89 88 88 88 86 86 
89 90 91 90 90 90 91 92 92 93 93 92 92 93 93 94 93 93 94 95 96 95 95 96 94 95 96 98 98 98 99 100 100 99 99 99 100 100 101 101 101 102 102 101 100 101 101 101 102 104 103 101 101 101 102 103 102 103 105 104 103 104 104 104 106 107 105 105 105 105 105 105 105 104 104 103 103 104 106 107 104 103 103 102 103 103 102 102 103 102 102 102 102 102 100 99 99 99 99 100 100 100 100 100 100 98 96 97 98 98 98 97 95 96 97 97 97 97 96 95 95 95 94 93 94 94 93 93 94 93 92 92 92 92 91 91 89 89 89 89 90 89 89 89 86 86 86 86 85 84 
91 92 93 92 92 93 95 96 95 96 97 96 95 96 97 98 98 97 97 98 99 98 99 99 97 98 100 100 100 100 101 102 102 101 101 101 102 104 104 103 104 103 103 104 102 102 102 102 103 104 105 105 105 105 106 106 106 107 107 107 105 105 105 105 106 107 108 107 104 105 106 107 109 109 108 106 106 106 106 106 105 103 105 104 103 104 104 103 103 104 105 106 106 105 104 104 104 104 104 103 101 100 101 101 101 101 100 100 100 101 101 100 98 98 99 99 100 100 99 98 98 98 98 99 99 96 95 96 96 96 95 94 94 94 93 91 91 91 91 91 91 90 90 90 89 89 88 88 86 86 
94 93 94 96 96 97 97 97 98 99 100 99 98 99 99 99 101 101 101 101 100 102 103 103 102 103 103 103 103 103 104 105 105 105 105 105 106 109 109 105 106 105 105 106 105 106 107 108 107 107 109 110 109 109 110 111 110 110 110 112 111 108 108 111 112 112 116 114 112 111 110 110 111 110 111 112 111 110 110 109 106 106 110 110 110 111 111 110 110 110 110 109 109 108 108 107 107 107 107 107 108 108 108 108 107 106 106 105 106 107 107 106 105 104 104 103 104 104 103 103 103 103 102 102 101 99 99 100 100 100 99 98 99 99 97 95 97 96 95 94 96 95 95 96 96 95 94 93 92 92 
99 98 98 99 100 99 99 99 101 103 102 102 104 103 103 103 105 107 108 106 102 105 107 106 108 107 106 106 108 109 109 109 109 109 109 111 111 113 112 110 108 107 109 110 109 111 113 113 112 112 113 114 113 114 115 115 113 112 113 116 115 114 114 114 116 117 119 117 116 117 118 117 114 115 114 117 117 116 116 114 111 111 114 113 114 117 117 115 116 116 116 115 115 115 115 114 112 113 114 114 114 114 114 113 112 111 112 111 111 112 112 111 110 109 109 109 110 110 109 108 108 108 108 108 107 107 107 107 105 103 103 104 105 106 103 102 103 103 102 102 101 100 101 101 101 101 100 99 100 99 
101 102 102 103 104 105 106 106 106 106 105 108 108 108 108 110 109 110 111 110 109 110 111 111 111 111 111 111 112 112 112 112 112 112 113 114 115 114 114 116 113 112 116 116 116 117 117 116 117 117 118 119 118 118 118 118 118 118 118 120 120 119 118 117 119 121 121 121 121 120 121 121 120 121 120 122 121 120 123 121 118 119 118 112 112 118 121 119 118 120 122 122 121 120 119 119 117 119 119 119 118 118 118 118 117 116 119 118 118 118 116 114 114 115 115 114 113 113 112 112 113 113 113 113 113 113 112 112 111 108 106 106 110 112 111 110 108 108 107 107 106 105 106 105 104 104 104 103 104 102 
102 103 104 106 107 106 106 105 106 108 107 108 111 110 109 109 109 110 110 110 113 112 112 113 112 113 114 115 115 113 113 115 115 114 114 116 116 117 119 119 117 117 118 116 117 119 120 119 119 118 119 121 121 120 120 119 120 119 120 121 121 120 120 120 122 123 122 120 122 120 119 121 124 124 121 122 123 123 125 124 121 122 122 119 115 115 117 120 121 123 123 122 119 120 121 121 120 121 121 120 119 120 121 121 121 120 120 119 119 119 119 117 117 116 117 117 117 116 115 114 114 114 114 115 116 115 113 112 112 111 110 108 109 109 112 110 111 110 109 108 108 107 108 106 103 104 105 104 104 103 
104 105 107 109 109 109 109 109 110 112 109 110 111 112 111 110 114 114 112 115 115 115 115 115 115 116 116 117 119 118 118 119 118 117 118 119 119 119 122 122 122 120 119 119 120 122 123 122 122 122 122 124 126 125 125 124 123 123 124 124 125 126 127 126 126 128 128 125 125 125 126 127 131 129 126 125 125 125 126 126 126 128 127 127 125 116 113 121 125 126 127 126 126 126 125 124 125 123 115 115 121 123 121 120 122 123 123 124 124 123 124 122 121 122 122 122 120 121 120 118 117 118 119 118 118 116 116 116 116 115 115 116 113 113 113 113 113 112 113 112 112 113 113 112 109 108 109 108 106 105 
105 106 108 110 110 110 111 112 112 112 110 113 113 112 109 106 109 112 113 116 117 116 115 115 115 116 117 118 120 121 121 120 120 119 120 121 121 119 123 124 122 119 119 121 121 121 122 123 125 125 124 124 126 125 129 133 130 126 125 126 127 129 129 128 126 130 130 128 127 128 129 130 131 131 129 128 127 129 130 129 129 130 130 129 131 122 114 123 130 130 129 130 129 129 128 126 128 129 124 125 128 126 123 125 125 126 126 124 124 127 125 123 125 125 125 124 124 123 123 123 124 124 123 120 120 119 120 121 122 122 121 120 118 118 118 118 117 115 116 114 114 116 117 116 113 113 113 112 111 109 
109 108 107 109 109 110 110 110 110 113 112 113 114 112 108 104 105 108 109 112 115 114 114 113 114 115 115 116 119 117 116 117 117 118 120 121 119 117 120 122 121 120 119 120 122 121 122 123 122 122 122 121 116 112 132 154 145 122 114 121 124 126 127 126 125 127 127 124 124 126 128 129 129 131 129 128 126 128 128 126 124 125 130 130 131 128 121 125 129 128 128 128 124 125 126 126 128 130 125 124 125 126 124 125 126 128 128 125 125 125 122 124 124 125 126 126 126 124 123 124 123 123 122 121 121 120 120 122 122 122 121 118 118 117 118 118 119 117 116 115 112 115 118 117 116 119 119 116 114 113 
