P2
150 65
255
169 169 172 171 172 171 168 170 174 181 183 189 220 233 232 215 200 199 197 195 196 194 191 192 190 193 193 193 193 193 190 190 191 190 190 190 188 186 183 181 180 179 179 179 177 175 174 175 173 171 171 169 167 166 165 165 170 175 174 168 168 159 140 140 142 145 136 125 129 124 106 110 118 107 104 111 111 113 120 119 117 113 102 101 102 99 102 101 100 105 105 94 108 111 113 137 159 120 87 102 92 98 106 105 105 90 88 117 123 119 124 116 107 134 148 127 117 120 120 116 118 121 115 96 100 116 120 116 129 166 162 146 164 182 178 158 118 126 125 143 107 114 140 131 123 125 169 198 148 153 
157 157 160 160 159 158 158 160 161 160 162 162 181 187 188 194 210 224 224 222 219 218 219 222 220 219 219 218 218 218 215 216 217 217 216 213 212 211 210 209 208 208 206 204 203 200 198 196 194 193 191 189 187 186 186 185 188 191 188 184 180 160 163 164 158 154 141 131 120 119 122 119 115 115 115 113 116 121 119 116 111 108 108 106 100 97 105 104 103 103 98 99 101 105 105 115 120 104 93 97 92 96 94 97 108 106 106 119 119 117 115 112 108 110 112 114 110 104 106 111 119 114 104 96 113 120 101 104 132 142 141 131 130 120 133 133 151 202 156 121 126 135 135 132 132 132 146 149 157 155 
142 144 147 148 146 144 146 147 144 144 147 150 156 148 163 202 221 230 233 231 230 229 228 200 187 201 219 219 220 221 221 207 199 209 225 233 232 232 231 232 225 210 208 220 224 222 221 222 218 209 210 216 222 222 221 221 220 221 220 217 212 204 209 202 175 147 168 153 128 126 129 122 111 117 116 114 122 117 108 105 110 108 106 106 98 94 104 100 102 103 100 101 109 103 96 106 106 99 105 109 97 89 89 114 125 120 115 118 117 112 109 102 100 95 95 101 102 93 94 97 98 94 90 99 114 115 106 100 104 103 102 100 94 101 110 140 175 183 134 111 144 144 126 121 120 121 133 154 190 194 
127 130 132 132 131 130 130 130 131 131 132 131 131 132 165 198 199 229 233 233 231 230 225 145 115 157 212 206 199 217 219 154 116 138 199 234 234 234 234 236 196 121 122 197 224 211 207 222 193 115 114 158 222 228 229 229 228 228 228 228 217 194 174 183 179 168 153 130 135 134 128 125 124 117 103 105 109 110 109 108 116 108 112 111 100 97 100 90 91 95 97 101 128 129 103 95 102 104 108 109 102 100 100 106 112 112 110 111 112 104 99 100 93 87 90 88 90 87 95 97 96 100 99 106 101 100 101 108 104 115 139 135 119 95 108 109 125 151 164 135 116 114 116 123 128 157 209 226 240 240 
113 114 115 114 116 115 115 117 118 116 119 116 113 115 122 140 165 223 229 230 229 229 224 139 106 151 208 183 179 215 213 145 103 126 193 233 233 234 234 236 189 101 104 195 227 197 172 210 194 91 86 141 220 228 229 230 230 229 228 228 223 216 191 185 207 212 141 110 116 118 132 135 118 114 110 109 120 127 114 116 117 109 107 105 94 96 98 90 89 90 84 97 109 111 87 86 97 106 112 111 106 109 104 105 114 111 107 104 111 118 107 95 96 90 82 82 84 84 85 89 92 99 99 98 100 92 92 100 107 106 153 201 159 110 119 94 111 156 177 164 131 117 143 168 173 196 208 211 212 185 
98 99 101 103 108 105 104 106 104 103 101 100 99 99 100 111 149 219 230 228 228 228 221 135 100 139 174 164 171 192 188 136 98 121 189 232 231 231 231 233 187 98 102 175 190 169 163 192 183 91 86 144 221 228 229 229 228 228 227 228 225 221 203 185 191 210 146 110 118 118 126 137 134 122 111 111 122 125 123 120 110 110 110 100 98 94 105 108 108 100 97 98 90 98 101 106 109 118 113 108 98 102 102 100 106 103 96 102 109 106 97 91 95 96 79 80 81 80 83 87 92 98 95 95 95 90 91 93 96 101 161 211 173 150 113 94 121 161 184 170 156 150 172 177 159 178 179 190 176 128 
91 94 99 100 98 89 92 95 94 95 93 94 93 90 90 98 140 216 225 227 227 226 220 131 90 129 159 136 143 181 185 126 86 112 185 232 229 230 230 231 182 89 93 158 157 142 160 177 164 85 82 146 221 228 229 230 229 229 227 227 221 207 193 191 181 169 136 118 130 144 129 121 125 134 125 108 120 115 118 123 110 107 107 100 84 82 111 116 110 108 100 97 102 113 125 111 103 110 109 99 97 96 93 90 93 92 89 94 96 100 91 98 100 96 88 86 80 81 83 94 110 127 99 92 88 85 90 97 98 99 108 115 143 169 146 132 129 170 180 142 117 122 140 164 167 188 182 155 136 128 
107 105 102 100 98 95 96 95 90 90 89 90 90 88 87 92 130 213 225 224 223 224 223 178 153 172 194 187 190 204 204 164 138 153 200 228 229 229 229 230 193 123 124 177 182 166 167 174 166 104 99 157 221 227 223 209 205 216 219 225 211 197 192 178 161 152 134 119 115 123 114 110 113 121 107 99 109 115 126 115 99 100 107 100 89 88 107 103 95 102 102 112 104 108 115 108 109 111 105 101 97 88 83 80 81 87 92 91 90 87 84 83 83 81 82 87 86 92 94 96 95 101 90 83 84 84 90 91 93 91 119 112 126 162 169 195 182 180 151 111 95 92 100 106 106 126 117 114 122 147 
161 148 133 129 128 127 127 127 121 121 120 120 119 119 117 119 144 209 218 207 197 212 221 223 224 222 219 219 219 220 218 220 220 222 225 226 228 227 228 228 222 209 207 214 217 218 217 216 209 189 184 202 224 225 217 191 178 190 200 193 171 165 163 141 126 127 126 115 118 119 115 115 108 106 111 108 108 126 133 113 103 97 101 97 90 95 107 104 100 99 99 102 103 104 109 112 112 110 107 99 95 89 89 87 87 89 92 95 95 83 81 79 81 79 79 85 88 93 89 97 91 92 90 93 90 85 89 86 91 89 98 98 112 133 138 181 158 123 107 89 82 84 95 104 113 116 114 110 145 167 
195 188 178 162 143 138 135 136 136 136 136 137 137 137 137 132 136 165 167 166 148 179 200 206 219 220 224 224 224 225 224 226 227 227 225 225 222 223 226 227 226 226 226 226 226 225 225 226 226 226 226 225 224 225 223 222 218 216 205 165 134 128 119 121 112 115 115 122 142 145 128 118 112 110 108 121 136 151 154 129 104 100 103 100 102 101 101 100 102 96 97 100 101 107 124 113 107 105 108 103 94 101 107 103 96 84 85 83 82 78 76 83 87 81 80 81 80 78 80 89 84 76 84 118 107 100 87 80 81 91 90 102 115 118 146 165 163 176 154 111 100 99 97 126 185 184 138 131 154 144 
200 202 198 194 181 169 154 141 131 132 133 132 125 124 124 114 112 117 113 122 119 128 140 153 169 184 199 219 222 221 223 223 224 223 218 205 203 212 221 220 224 226 226 225 225 224 224 225 227 226 225 225 223 223 221 214 209 205 199 185 148 128 117 117 112 122 127 127 122 124 114 108 102 94 127 159 154 141 146 144 119 110 108 117 115 106 107 104 97 93 104 94 93 100 111 106 94 99 101 95 87 91 109 100 85 80 82 77 75 77 78 81 75 68 73 75 78 82 77 77 73 69 74 82 79 83 78 74 77 89 85 85 98 120 142 130 142 144 126 97 95 100 91 110 150 168 162 153 115 101 
199 200 204 202 199 197 188 174 148 129 119 107 98 97 97 95 97 97 98 99 96 94 96 105 113 124 145 170 180 195 203 205 213 220 219 189 188 181 178 187 194 207 222 224 225 224 224 225 226 224 224 223 223 216 207 202 200 190 179 172 141 116 112 105 119 140 133 121 107 104 104 100 106 107 133 179 170 128 158 162 122 114 120 121 110 100 106 107 94 92 101 91 89 97 105 102 92 93 90 89 86 88 86 87 82 83 89 76 70 69 73 72 67 67 71 74 79 74 66 64 66 72 72 71 70 74 76 73 81 96 84 77 86 106 133 126 132 119 104 88 83 88 90 91 109 120 141 152 114 93 
197 191 168 171 200 202 196 187 169 135 97 84 82 84 88 85 83 88 91 91 84 84 85 86 88 96 103 102 109 130 153 166 175 202 216 199 180 144 130 151 150 160 187 209 215 220 219 219 219 221 221 223 220 210 185 179 184 178 172 158 135 133 122 107 120 123 110 102 95 86 95 98 97 108 139 160 156 135 150 132 111 116 116 106 104 112 114 108 106 105 108 104 96 90 90 102 101 91 86 87 88 88 82 81 79 82 78 74 76 70 71 73 70 68 70 74 75 67 62 63 66 72 70 71 69 72 76 79 79 81 78 76 83 92 95 119 120 113 100 72 67 71 90 79 79 85 110 119 95 72 
172 121 66 103 192 199 195 190 178 139 87 79 83 84 79 76 79 82 87 86 75 79 87 82 77 79 87 79 77 84 95 146 152 155 153 154 167 149 128 145 128 103 107 152 184 203 208 207 215 220 223 221 219 215 140 76 97 109 101 104 104 115 105 104 110 108 106 98 100 114 102 90 86 94 106 138 168 181 134 101 96 97 110 108 114 131 130 122 115 123 118 103 102 100 96 101 99 91 88 85 89 84 80 76 72 73 72 75 80 69 67 68 67 65 70 71 72 70 62 61 62 66 76 102 90 81 93 85 82 74 75 78 91 119 104 103 92 72 75 72 70 75 88 84 73 63 58 63 59 58 
104 69 54 94 187 196 194 191 167 121 84 80 79 75 73 72 79 81 82 79 76 79 82 78 76 76 81 81 80 73 79 150 171 147 125 121 126 134 130 123 104 73 84 123 123 134 149 151 191 220 219 218 217 208 133 77 98 121 108 110 114 120 110 110 112 111 96 79 139 174 169 147 123 137 139 162 188 177 109 110 102 90 113 139 128 142 152 137 144 140 122 104 98 92 75 65 77 92 91 84 85 80 80 76 73 74 74 76 74 69 73 81 69 72 74 76 74 69 68 63 61 67 75 95 104 84 85 93 90 75 70 73 82 95 90 80 77 73 71 63 57 65 72 62 61 56 52 56 60 56 
90 61 53 90 183 193 191 186 152 112 77 74 72 69 68 73 75 76 79 76 72 72 71 71 71 75 72 71 68 62 70 143 176 163 139 107 107 112 111 105 90 71 88 115 114 129 133 141 186 216 215 215 211 208 125 75 105 139 129 127 130 138 134 125 126 127 103 81 166 202 206 179 150 157 174 180 185 168 112 109 100 89 108 154 146 153 155 137 142 139 123 102 97 91 66 61 86 90 78 78 82 81 79 84 80 80 81 75 69 72 76 74 67 74 75 79 75 71 70 67 74 76 81 91 99 83 81 85 78 55 51 51 56 74 83 77 76 67 54 47 43 51 60 58 64 56 46 49 56 51 
88 61 52 85 180 191 189 184 159 120 81 72 67 66 63 67 73 76 82 75 71 73 69 59 54 62 62 60 61 68 74 137 171 169 157 114 105 107 101 104 93 83 90 104 111 131 130 145 183 211 213 209 200 200 143 129 130 150 133 128 146 152 154 147 149 148 124 108 178 200 203 180 153 164 175 177 178 166 117 103 86 86 113 157 165 153 156 140 147 135 103 98 126 102 68 75 90 81 82 92 93 87 84 89 84 84 83 72 67 71 77 76 71 75 79 77 73 75 75 72 77 77 71 71 71 74 86 97 80 56 55 46 52 69 83 67 53 47 44 46 42 45 54 60 72 68 56 52 52 41 
81 57 49 82 177 188 186 184 177 156 98 83 80 80 68 76 85 84 93 79 73 74 75 54 46 58 62 58 59 64 68 130 165 169 159 113 96 98 96 103 93 71 75 112 123 123 122 127 166 206 205 198 188 185 127 99 121 155 127 116 153 162 166 166 162 162 134 117 184 198 197 176 156 167 168 162 168 160 97 84 75 79 116 158 159 143 153 146 148 139 120 107 111 94 60 71 64 65 80 97 98 94 87 87 83 80 80 81 79 76 79 76 69 62 66 67 66 71 72 76 81 73 67 68 73 72 77 93 92 81 78 72 87 80 77 68 55 50 47 46 46 46 60 68 62 57 54 50 53 46 
79 56 50 79 174 186 186 185 182 167 113 96 91 87 75 84 94 89 88 84 89 92 89 63 50 68 83 76 80 89 92 136 161 161 152 111 90 88 94 106 91 67 79 115 114 118 130 128 156 180 190 186 171 173 104 62 107 149 131 128 159 168 171 172 169 165 138 126 188 196 199 174 155 166 171 169 176 163 84 72 71 74 116 157 145 137 147 148 148 143 128 107 113 99 60 70 55 72 97 102 98 89 87 89 83 74 78 75 76 76 75 70 64 62 61 66 67 64 61 68 73 66 63 66 72 71 72 73 77 76 77 74 76 70 72 75 66 56 50 47 57 66 66 65 59 52 48 46 54 55 
89 56 46 74 170 185 185 184 186 174 123 101 94 90 82 90 95 85 85 97 103 102 114 112 108 112 120 121 127 136 140 145 151 141 125 119 104 95 95 98 97 98 113 137 139 151 167 179 179 153 144 127 122 123 95 75 105 143 151 159 162 169 175 177 174 172 163 163 193 198 199 175 152 160 172 177 179 165 113 110 117 117 139 160 136 132 141 148 149 148 142 141 158 108 66 69 55 86 100 94 86 84 81 81 76 69 69 72 75 70 67 66 65 66 72 74 72 63 59 61 62 64 64 63 65 67 75 73 69 68 69 70 67 71 73 73 66 53 45 44 64 69 68 65 62 57 55 61 61 57 
82 52 45 70 167 184 185 184 186 178 131 105 96 92 85 91 94 92 94 105 111 115 127 131 134 139 141 145 148 156 158 152 145 147 150 142 126 111 109 103 109 121 137 163 169 173 180 190 187 178 159 122 126 143 91 63 99 141 150 163 163 169 175 175 175 176 173 174 199 209 205 174 150 158 171 174 176 174 171 170 169 164 141 112 86 99 112 102 110 142 151 141 122 106 86 76 74 95 110 96 83 83 79 78 76 64 66 70 68 65 66 61 61 68 72 70 69 69 64 62 61 64 66 63 67 69 72 69 67 74 87 91 80 85 84 69 54 47 58 82 110 128 136 143 141 132 123 105 83 71 
107 71 57 78 171 187 186 188 189 180 136 106 98 91 81 85 86 80 80 96 102 108 114 120 125 128 131 134 136 140 143 142 140 140 143 147 150 122 110 101 110 128 142 161 168 174 180 183 183 183 174 141 133 145 120 104 122 124 130 141 138 141 145 148 151 155 156 157 179 186 180 153 137 151 167 171 177 178 178 176 172 161 108 81 69 84 90 70 87 135 152 138 96 98 85 64 69 85 87 96 93 86 78 72 71 67 69 65 64 66 62 58 56 64 68 70 69 71 66 62 65 59 58 58 61 68 68 63 66 70 77 77 74 76 77 73 72 87 113 146 175 190 185 180 181 178 144 117 105 99 
162 152 147 150 178 186 186 186 186 181 142 108 92 85 75 72 68 53 53 56 57 63 64 64 65 66 67 68 69 70 70 70 73 72 74 97 118 83 78 76 74 84 88 95 101 107 110 109 110 115 112 108 101 106 113 114 115 110 106 103 102 100 100 101 102 104 103 104 114 119 113 105 108 120 140 150 155 155 156 158 153 140 92 69 65 86 94 86 103 124 136 128 96 99 86 63 58 77 60 95 108 85 70 77 73 64 65 65 70 72 65 67 69 67 62 62 64 70 65 57 66 60 56 60 65 71 69 65 61 59 62 64 73 78 94 121 122 108 103 106 113 133 167 183 184 188 167 154 159 163 
118 120 121 121 121 122 120 119 119 116 101 89 84 80 77 78 76 73 75 76 77 76 75 74 74 73 72 73 75 77 77 76 78 78 80 81 81 80 80 81 82 87 89 89 89 90 92 92 90 89 83 84 94 119 120 121 117 115 113 109 109 110 109 106 106 106 100 98 99 101 98 86 65 68 78 81 83 81 82 82 82 80 77 68 64 74 72 68 70 72 74 74 69 94 85 62 61 70 66 73 78 70 66 84 84 73 68 62 63 61 65 65 68 67 66 62 68 74 65 53 65 56 60 64 55 42 43 47 56 57 61 53 52 88 139 163 152 127 121 119 122 131 151 165 167 147 136 153 162 165 
92 93 95 95 97 97 98 98 100 99 101 103 105 105 105 106 106 103 102 104 107 105 101 102 105 104 101 102 104 104 105 105 105 105 106 106 106 108 109 109 109 111 113 113 113 111 111 111 112 111 111 110 116 127 131 133 145 164 163 159 158 159 158 156 154 142 127 121 120 118 114 107 96 95 97 99 96 95 96 97 93 91 92 90 89 90 88 86 84 84 82 78 74 96 93 82 81 81 75 74 76 81 85 90 90 79 73 66 63 57 64 61 60 68 78 94 96 118 126 121 121 114 106 77 72 73 57 55 61 68 72 68 62 82 118 135 128 108 105 109 118 125 122 118 89 77 62 80 119 119 
110 110 109 110 110 111 112 113 113 113 114 115 115 114 114 115 116 118 118 117 121 122 119 121 123 123 121 122 123 123 123 123 123 123 123 124 125 124 125 127 126 129 130 130 130 129 128 129 130 132 133 134 133 130 133 146 175 191 188 186 185 184 185 186 171 141 131 128 128 127 125 124 124 123 122 122 119 118 121 123 122 117 117 115 113 117 114 111 110 109 109 109 109 107 110 109 108 107 107 108 107 107 107 104 104 94 86 74 68 59 68 62 59 58 82 152 166 172 175 175 175 173 162 112 111 104 92 78 67 78 90 99 117 137 109 70 46 46 66 73 71 66 67 67 59 110 85 61 83 87 
108 110 109 111 111 112 115 116 117 117 117 120 120 119 120 121 123 125 128 129 131 128 126 127 127 127 126 127 127 128 128 127 127 126 127 129 129 128 128 130 132 134 134 134 136 134 136 139 139 139 138 140 138 142 169 189 192 194 196 192 189 190 185 175 151 134 138 137 134 131 130 130 130 127 128 130 129 123 124 124 125 122 120 118 118 118 113 114 116 113 110 110 112 112 110 111 109 105 102 99 91 89 91 90 101 112 85 84 87 80 83 67 63 67 79 105 132 149 153 158 160 161 160 158 126 97 104 97 88 92 87 126 133 133 128 104 68 61 82 83 75 68 63 53 50 76 76 63 72 80 
156 154 146 137 126 121 117 116 114 117 117 119 118 119 121 123 124 125 127 128 129 130 130 128 128 128 129 129 128 129 128 127 128 126 127 129 129 128 128 129 130 132 132 134 134 136 137 137 136 134 135 144 158 179 193 193 193 198 192 189 189 185 174 154 140 136 136 137 137 134 134 132 128 127 131 129 129 126 123 121 119 117 115 116 118 117 115 113 116 115 113 111 107 104 103 102 97 95 93 93 92 88 87 88 90 93 82 85 89 95 98 79 76 85 86 81 88 97 102 108 115 124 128 134 108 108 102 87 82 81 94 139 142 140 143 140 132 126 125 122 120 117 113 112 109 109 115 117 122 124 
231 236 231 216 194 176 149 134 121 120 117 119 121 121 122 124 126 126 126 126 129 132 133 130 131 131 131 131 130 131 132 132 133 133 132 132 132 132 133 136 137 136 134 137 138 136 137 138 137 135 150 177 194 197 198 197 198 201 195 191 189 186 166 143 146 151 146 141 134 129 125 120 112 110 115 112 106 104 97 94 93 92 91 91 97 97 95 103 112 107 104 106 109 108 108 108 103 100 99 102 102 99 100 101 101 98 99 98 98 105 104 86 85 97 92 92 92 87 86 84 87 89 90 95 84 98 89 74 75 72 96 127 130 134 137 139 139 141 143 143 142 138 132 129 123 122 124 123 124 123 
163 197 236 246 248 245 231 212 179 162 146 134 127 128 130 131 132 134 134 133 133 133 134 136 135 136 136 136 135 135 132 133 134 135 136 137 137 138 138 137 138 142 143 141 139 139 134 132 149 180 197 208 208 206 205 206 205 204 202 198 195 188 181 187 169 129 117 113 113 115 117 114 116 120 107 84 74 79 78 79 77 77 75 73 72 75 72 72 73 75 81 82 83 101 119 118 115 112 114 117 112 110 115 111 110 108 107 106 104 110 104 88 89 96 97 94 94 100 104 100 94 95 93 93 83 84 85 82 86 82 94 123 125 128 129 130 130 131 132 135 135 137 137 137 136 136 136 134 132 131 
83 102 148 181 217 230 239 241 236 227 212 187 160 143 132 127 127 129 130 128 127 128 129 131 130 132 131 131 131 131 130 131 133 136 136 135 137 139 140 140 141 146 147 146 142 136 143 163 188 208 208 211 207 203 201 203 201 201 202 200 205 199 167 140 127 125 142 144 140 142 145 144 145 144 109 79 78 84 85 84 83 83 81 80 77 78 79 75 72 72 73 75 78 84 91 93 100 107 117 119 116 115 118 114 111 111 114 110 110 110 106 89 92 108 107 101 99 104 104 100 98 97 93 87 85 91 92 92 94 92 90 101 105 104 113 121 127 132 126 128 131 132 131 129 131 133 135 137 134 134 
67 68 73 93 139 168 189 200 227 241 249 242 219 192 165 143 129 123 125 125 123 126 127 126 126 129 129 130 131 129 133 135 134 134 136 139 140 141 143 146 146 149 142 139 141 160 184 200 206 207 208 211 207 205 204 203 205 202 202 204 189 142 113 119 139 147 145 145 146 144 146 147 147 144 97 76 83 87 86 87 85 85 85 85 84 83 86 85 81 76 73 72 74 76 82 86 80 82 96 104 114 120 123 123 121 117 115 112 116 111 108 94 99 119 117 111 109 109 106 104 103 101 97 92 88 85 92 94 94 93 88 94 98 88 94 107 113 116 115 121 128 131 131 130 131 131 131 130 130 130 
67 68 67 68 73 86 124 154 186 194 203 227 243 233 217 183 157 150 154 153 155 155 156 157 157 159 157 152 153 159 162 162 163 162 163 166 166 164 163 164 166 171 158 150 171 199 199 200 201 201 203 205 199 192 190 197 203 215 195 150 115 105 133 142 161 164 164 165 166 163 162 160 163 147 90 78 90 92 91 92 93 93 92 92 91 89 89 90 89 87 89 82 77 77 77 77 81 86 91 80 71 89 106 112 110 108 95 90 92 86 93 83 100 109 107 105 106 106 104 101 99 99 100 98 91 90 93 93 95 94 94 96 97 95 93 91 90 87 88 89 95 102 109 123 134 136 139 139 138 137 
67 69 68 68 69 69 77 94 125 141 155 170 178 185 192 184 180 175 168 167 171 163 156 141 131 137 144 150 154 161 163 164 165 166 167 168 166 164 165 168 169 165 160 161 163 163 163 163 165 164 168 167 155 144 178 208 188 159 121 89 88 117 137 141 153 153 151 150 151 150 148 147 146 132 90 85 98 100 96 97 97 96 94 93 92 91 90 87 87 87 90 85 78 77 79 78 77 76 78 78 72 67 69 76 78 79 84 81 75 63 62 82 114 132 128 124 126 127 130 132 132 131 133 131 127 128 128 128 129 128 129 130 128 124 125 126 123 122 125 125 115 113 125 131 135 134 134 131 139 143 
68 71 70 71 72 70 70 69 69 70 73 76 82 91 103 120 133 140 138 141 144 129 116 90 75 78 108 176 193 195 194 195 196 197 197 194 191 189 187 185 182 173 170 169 167 166 169 172 176 180 174 168 144 134 169 158 108 81 55 31 56 106 122 114 113 113 110 109 109 109 108 107 105 99 84 83 92 92 88 88 88 87 84 82 83 82 80 79 78 78 76 76 77 76 79 80 80 75 76 75 76 77 78 78 77 77 77 78 79 77 81 118 144 159 157 154 154 155 157 160 159 156 157 156 153 154 153 153 154 155 155 154 154 151 152 152 151 148 150 149 145 141 146 145 140 135 135 135 139 144 
76 76 75 77 73 73 73 72 75 75 72 70 68 69 68 71 74 75 79 79 72 65 51 54 63 69 91 161 182 183 182 177 177 178 178 173 168 181 191 191 190 192 190 185 180 171 165 157 146 141 130 120 109 99 91 87 84 75 57 42 52 76 82 82 82 82 82 82 81 81 80 79 80 81 81 84 84 85 85 86 88 89 89 90 91 91 91 93 88 79 76 82 90 87 89 86 82 81 78 73 72 78 86 83 77 77 81 91 99 96 82 117 133 138 142 140 139 129 124 129 137 144 134 132 129 127 124 123 127 126 128 129 132 132 133 129 129 127 130 129 129 132 135 137 131 129 133 134 133 140 
81 81 82 83 80 85 90 81 59 48 40 37 35 35 35 44 69 91 102 92 74 83 64 50 56 60 80 115 127 124 126 137 148 163 169 160 152 142 134 121 114 108 105 100 96 90 90 87 86 85 88 88 90 91 91 94 96 99 95 92 93 96 100 100 100 100 100 101 103 100 70 59 79 100 100 105 107 109 112 112 115 114 115 117 118 119 117 107 93 77 74 72 73 73 81 90 72 70 63 54 55 54 54 55 59 67 80 105 110 106 120 123 118 108 110 109 109 109 105 102 105 105 101 104 100 98 99 96 96 98 97 98 95 92 97 94 93 90 93 92 92 95 96 95 95 96 93 94 93 99 
69 68 71 76 63 61 66 55 40 28 28 31 31 28 26 32 55 77 87 79 62 73 69 77 116 82 69 97 110 123 142 177 184 152 124 107 103 96 90 88 86 80 75 70 69 71 78 88 94 99 86 73 69 70 73 80 87 88 88 85 86 89 85 81 79 78 75 74 75 73 60 55 68 77 76 76 79 82 84 84 86 87 87 86 91 91 87 82 75 80 78 90 89 71 68 76 61 62 56 54 65 71 81 83 93 108 120 117 106 88 95 105 105 108 108 111 112 112 112 107 106 107 106 102 100 99 100 99 98 97 99 101 98 96 97 99 99 93 95 95 93 90 87 87 88 87 86 87 87 86 
27 26 29 34 30 25 34 37 33 30 31 35 37 30 25 30 55 70 80 78 66 66 64 90 112 85 49 61 86 131 150 180 190 153 92 65 77 91 94 86 73 49 38 32 31 37 49 63 82 86 66 51 51 54 57 63 64 61 65 62 60 63 58 52 50 49 48 47 46 45 43 42 44 46 48 49 49 49 48 48 49 55 57 55 53 52 49 50 52 55 57 54 56 47 34 37 38 41 46 64 96 102 110 101 96 91 84 77 73 63 65 90 96 108 113 113 111 112 113 110 110 114 115 114 114 111 109 108 106 103 103 100 102 105 102 101 98 91 91 91 90 88 88 90 88 86 86 86 85 83 
34 35 34 29 24 21 37 48 44 44 46 49 49 39 31 31 39 58 67 71 73 46 32 37 49 56 50 55 68 126 137 112 112 94 73 63 65 67 59 33 23 29 36 39 41 40 37 31 25 31 41 50 49 43 44 45 44 42 44 43 42 41 42 43 42 43 43 43 44 44 44 43 43 44 45 46 48 48 48 48 47 47 48 49 49 49 49 49 47 33 22 26 36 41 41 40 36 25 19 50 104 101 83 70 63 63 62 62 60 53 53 52 49 62 84 103 104 103 101 99 101 111 115 120 121 117 112 110 110 107 109 108 107 108 103 100 96 89 86 82 78 80 80 79 80 81 80 76 78 78 
76 64 61 51 37 30 22 26 30 31 32 33 32 29 27 27 29 32 36 41 37 21 15 20 28 33 41 62 61 65 87 80 68 51 48 47 46 42 27 25 35 40 51 71 75 71 57 43 35 26 29 40 41 39 38 40 40 40 40 40 40 40 39 39 40 40 40 39 40 40 40 40 40 40 40 40 40 40 40 40 40 40 40 40 40 39 38 36 30 24 33 43 64 77 76 76 63 43 35 26 45 50 40 36 34 34 33 32 31 31 32 32 33 50 85 106 104 102 101 102 102 105 105 106 107 106 106 107 106 103 104 105 102 101 98 98 96 94 94 92 91 90 89 89 91 92 91 90 91 92 
143 108 130 128 64 40 25 21 26 27 27 28 26 25 26 25 25 23 22 20 19 19 22 28 33 33 41 68 72 55 80 92 71 34 33 32 33 26 21 37 45 74 82 108 123 102 77 81 49 38 26 26 30 32 31 34 31 31 31 31 32 31 31 31 31 31 31 31 31 31 30 30 31 31 31 31 31 31 31 31 31 31 31 31 32 32 32 27 20 31 40 74 89 110 106 115 88 79 47 35 16 25 29 30 31 30 30 31 30 30 29 29 38 85 93 84 88 90 91 92 90 91 92 91 91 90 91 92 91 90 91 91 91 90 89 90 90 88 88 88 88 84 85 89 89 89 88 87 87 86 
170 168 177 154 104 68 33 24 24 31 31 35 35 33 33 30 28 34 36 35 45 57 65 64 62 66 66 73 73 36 30 34 33 30 32 34 34 21 24 37 50 110 121 135 134 140 117 103 77 42 30 20 26 30 30 31 30 30 30 29 30 30 30 30 30 30 30 30 30 30 30 30 31 31 31 31 32 32 32 32 31 30 30 30 30 30 30 25 20 37 55 104 105 135 138 144 124 115 62 41 25 23 28 27 28 29 28 31 34 37 40 56 79 89 79 79 82 85 83 84 84 83 84 85 83 84 86 87 86 86 86 86 86 87 87 87 88 87 87 83 75 72 79 80 75 72 71 72 73 73 
153 148 165 159 131 91 34 28 32 32 21 21 20 19 17 25 43 60 66 61 73 71 67 67 68 72 76 81 79 69 60 49 39 30 26 23 23 17 23 36 69 94 88 112 108 122 112 71 78 40 31 17 24 30 30 30 30 30 30 29 29 29 29 29 29 29 29 29 29 29 29 29 31 31 31 31 31 31 31 31 30 30 30 30 31 31 31 27 27 41 77 94 100 113 115 122 108 100 68 42 52 56 57 58 60 64 64 70 76 78 76 81 103 99 80 78 80 84 85 87 87 88 89 89 88 90 91 90 89 89 89 89 88 90 90 88 86 85 87 86 84 84 84 81 80 80 80 79 79 81 
146 149 140 141 142 79 32 29 49 44 18 14 12 14 16 38 63 72 75 76 84 84 81 84 91 94 98 103 105 105 105 103 95 82 72 54 45 38 36 35 65 99 80 93 89 94 95 87 77 35 27 14 20 28 29 28 28 28 28 29 30 30 31 31 31 31 31 31 33 33 33 33 35 36 36 36 36 37 39 40 44 45 47 48 49 50 50 48 42 36 68 105 99 91 84 94 102 104 59 42 75 85 87 89 92 95 95 98 103 106 109 108 112 117 114 111 114 116 118 123 124 126 125 122 125 128 128 127 125 124 124 125 124 125 124 121 118 118 119 119 118 119 119 118 117 116 113 111 111 114 
132 145 103 101 83 40 27 22 23 20 16 18 17 18 21 26 32 42 48 59 65 73 78 84 90 91 94 95 100 106 108 106 100 91 84 68 60 49 43 31 35 90 135 110 70 92 128 113 54 28 20 15 15 19 18 17 17 18 20 21 20 20 21 22 22 22 22 22 23 24 24 24 26 26 26 26 26 26 27 27 29 30 31 31 30 31 32 32 30 31 40 91 151 103 65 112 144 82 35 35 48 53 58 65 68 73 77 82 86 90 94 101 105 108 112 117 119 117 120 128 131 133 133 133 136 136 137 138 137 136 135 134 135 135 135 135 134 134 132 130 131 131 131 131 127 124 123 125 124 124 
85 90 80 60 34 24 23 24 26 27 30 32 34 36 36 39 40 42 44 47 49 53 56 61 65 70 74 75 76 77 73 66 62 60 56 47 44 39 35 31 30 37 54 75 73 69 58 38 26 27 28 31 31 33 33 35 35 35 35 36 36 37 38 39 39 39 39 39 38 38 38 38 39 39 39 39 39 40 40 40 40 40 40 40 39 39 38 36 33 32 30 35 54 67 71 72 54 39 39 47 52 57 59 62 65 69 72 75 79 86 87 92 95 99 100 103 105 106 109 115 117 119 121 124 127 129 130 129 127 131 134 135 134 133 134 135 133 133 132 130 131 131 131 130 128 126 125 125 123 122 
51 51 50 50 52 54 58 61 64 67 69 71 74 75 75 74 73 73 75 77 80 83 86 89 91 96 98 98 96 94 90 87 86 85 83 82 79 78 75 71 66 58 54 55 56 55 55 56 61 67 72 74 77 78 79 80 80 80 80 80 82 83 83 84 84 83 83 84 83 83 83 84 85 84 84 83 84 85 84 84 83 84 84 85 85 85 83 81 78 75 69 64 58 59 61 62 62 69 78 84 87 89 91 92 93 96 98 100 103 105 105 108 109 110 111 111 112 114 116 117 118 117 118 120 123 124 125 125 125 126 130 130 130 131 131 130 131 131 131 131 130 129 129 130 130 127 126 125 123 123 
97 97 98 99 101 102 102 102 102 102 104 105 106 105 105 104 104 104 105 108 110 111 113 114 116 117 118 117 117 116 116 115 115 115 114 114 114 115 115 115 116 115 115 115 114 113 114 115 114 115 114 114 115 116 116 115 115 116 116 115 116 116 117 118 117 116 116 117 118 119 120 120 120 120 119 118 120 120 120 120 120 121 120 120 120 121 122 122 121 123 124 124 125 125 125 125 121 119 119 121 122 122 122 122 121 122 122 123 125 123 123 123 123 123 122 122 122 122 122 122 121 119 119 120 121 122 122 123 123 123 125 125 125 125 125 125 127 127 127 127 125 126 126 124 124 123 122 122 121 121 
104 104 103 103 104 105 105 105 105 106 106 107 109 109 110 110 111 112 113 116 117 117 117 117 120 120 121 123 123 122 122 122 123 123 124 123 123 124 124 123 123 122 122 123 123 122 121 122 122 123 123 122 123 123 122 122 121 122 122 122 125 126 127 127 125 124 125 126 126 126 127 127 126 126 125 125 127 127 127 127 128 128 127 126 126 127 127 127 128 129 129 128 130 129 127 126 126 127 127 127 127 126 126 126 126 126 127 128 128 125 126 125 126 125 125 124 123 123 123 123 123 122 121 121 122 122 123 123 123 122 124 123 123 121 122 123 123 123 123 123 125 123 122 122 121 122 123 121 119 119 
101 102 104 105 105 106 107 107 108 108 108 110 110 110 112 114 116 116 117 118 119 120 122 123 123 124 126 127 127 126 127 128 129 129 129 129 128 129 130 129 128 128 128 128 127 127 127 127 127 127 128 128 129 129 129 128 128 128 128 129 129 129 130 129 129 129 130 130 129 129 128 126 126 127 127 127 127 127 127 127 128 128 128 128 129 129 128 127 128 128 127 127 128 126 126 127 127 128 127 126 126 126 125 124 124 123 124 125 124 123 123 122 123 122 122 121 119 119 119 119 120 119 119 118 117 117 118 118 118 118 119 119 118 117 119 118 119 119 118 118 119 117 117 117 116 116 116 115 115 114 
108 108 109 109 110 111 112 112 115 115 115 117 118 118 120 122 120 120 121 122 125 127 130 131 129 130 131 132 134 135 136 136 135 135 135 135 136 137 137 136 136 136 136 136 137 137 137 137 134 134 135 135 135 135 135 135 133 134 135 135 134 134 133 132 133 133 133 133 132 133 133 132 132 132 132 132 129 129 129 129 130 131 131 130 130 130 129 128 128 126 124 124 127 127 126 125 124 125 126 126 124 127 127 124 124 122 122 122 122 122 123 124 124 123 121 119 119 121 122 121 119 120 120 120 117 117 118 118 118 118 117 116 116 115 116 115 115 115 114 114 115 113 113 113 111 111 112 112 112 111 
113 113 113 113 115 116 117 118 121 121 122 123 124 124 125 127 126 127 128 128 131 132 133 134 135 136 135 135 136 139 140 138 139 139 139 139 140 141 140 140 139 138 138 139 139 139 138 138 137 136 135 134 136 136 136 136 134 134 135 135 133 134 135 134 135 135 134 133 131 133 134 135 135 134 134 135 135 135 134 134 135 135 135 136 134 133 133 133 133 131 130 132 131 132 131 129 129 130 129 127 126 127 128 128 126 125 126 127 128 127 127 126 126 126 125 125 125 124 123 123 123 124 125 126 124 123 121 120 120 121 121 122 121 120 121 120 119 118 117 117 118 117 116 117 116 115 115 114 113 113 
112 113 115 116 116 117 118 120 120 120 121 122 122 123 124 126 127 127 127 128 131 133 131 132 133 136 135 133 136 139 138 136 137 138 138 139 139 138 137 137 137 136 136 137 137 137 137 137 136 136 136 135 135 135 136 136 135 135 136 136 132 131 131 131 134 133 135 133 133 135 136 135 137 136 135 135 138 137 134 135 136 135 135 136 136 134 133 134 133 133 133 133 131 131 131 131 132 131 130 129 129 128 128 128 127 127 127 127 127 125 125 125 124 125 125 125 125 124 123 123 122 124 125 124 123 123 121 118 118 119 121 122 120 120 120 118 118 119 118 117 118 118 117 117 117 116 115 114 114 114 
113 114 115 115 115 116 118 119 120 121 122 122 120 121 124 125 128 129 130 130 131 132 130 131 133 135 135 134 136 137 136 135 135 135 136 136 136 139 140 138 139 138 138 139 138 139 141 141 138 137 138 140 140 140 140 140 137 137 138 138 135 133 133 136 138 136 137 138 137 138 138 137 138 138 138 139 139 137 135 138 137 136 135 135 136 134 133 132 133 134 134 133 133 133 134 135 135 132 131 132 131 130 130 131 132 131 130 130 130 128 129 128 126 126 126 126 128 126 126 126 125 126 125 123 123 124 124 123 121 121 121 121 121 122 121 119 118 119 119 116 118 117 116 115 115 115 114 114 113 113 
117 118 118 118 118 119 120 122 123 124 125 125 125 125 126 128 128 130 132 133 133 135 134 135 136 137 137 135 136 137 138 140 140 140 141 141 141 143 142 140 141 142 142 143 143 143 144 146 144 143 145 148 148 147 145 144 144 143 142 140 140 140 137 134 135 134 133 130 132 133 132 131 130 129 130 132 136 138 137 139 141 141 139 137 138 135 132 131 132 132 132 133 136 136 135 135 136 137 138 137 137 135 135 136 136 135 133 132 132 130 131 129 128 128 128 128 130 129 128 128 128 129 128 127 128 129 129 127 127 126 126 125 124 124 123 122 122 122 122 121 121 121 120 120 120 119 118 117 118 118 
117 119 120 119 121 122 123 123 125 126 126 127 126 126 127 128 128 129 133 134 133 134 136 137 136 136 136 136 135 135 137 139 139 138 138 138 139 141 140 137 139 141 141 141 142 142 144 147 147 147 148 149 148 147 145 143 141 140 138 137 137 137 135 133 131 132 132 130 131 132 132 131 129 126 124 127 125 130 138 139 141 140 139 139 139 136 133 134 135 134 134 135 135 133 133 134 135 136 138 137 136 135 135 137 136 134 132 130 131 130 130 129 130 129 128 129 129 127 126 127 128 129 128 126 126 127 128 128 127 126 125 125 123 123 123 123 121 121 121 120 120 120 119 119 120 120 118 117 116 116 
120 121 121 122 123 124 124 125 124 125 127 128 128 127 127 128 129 130 132 133 133 133 133 134 135 136 136 137 136 135 136 137 137 137 137 137 138 138 139 138 139 141 140 140 141 142 144 144 145 146 147 147 147 147 145 141 139 135 132 134 141 143 144 139 137 137 137 137 133 135 135 133 132 129 124 130 127 131 141 141 141 141 141 141 139 138 137 138 138 138 137 136 134 133 134 136 136 135 136 133 132 133 134 134 133 132 130 130 131 129 128 129 130 129 128 128 127 125 124 125 125 126 126 125 123 123 125 127 126 125 124 123 123 123 123 122 121 120 119 119 118 117 117 116 117 116 116 115 116 116 
120 119 119 122 123 123 122 122 125 125 126 126 125 126 127 128 129 130 131 132 133 133 133 134 137 136 135 136 135 135 135 136 137 137 137 137 137 138 139 139 138 140 140 140 141 142 142 142 143 143 143 144 144 143 143 144 143 142 138 136 140 146 148 151 148 145 143 142 138 137 137 138 138 137 137 138 140 142 142 141 141 139 138 138 139 139 137 137 137 138 138 137 135 133 132 133 135 137 138 135 135 136 135 133 133 132 132 131 131 132 131 129 130 129 128 128 126 124 123 124 125 125 123 122 123 121 121 123 122 120 119 119 119 119 119 119 121 120 118 117 118 117 116 115 116 116 116 115 113 112 
118 120 120 123 122 122 123 123 124 124 126 125 125 127 128 127 127 129 130 129 131 132 131 131 132 135 136 135 134 136 134 135 136 136 136 136 137 136 137 138 139 140 140 139 140 139 139 140 141 141 142 143 141 140 141 143 145 145 143 142 141 140 141 142 142 141 141 141 139 139 141 142 140 141 142 142 143 141 137 135 137 134 136 136 136 135 134 134 134 134 134 134 135 133 131 130 135 135 137 139 140 139 137 135 132 133 131 129 130 131 131 131 130 129 127 126 126 126 125 124 125 125 125 125 124 122 121 122 120 120 118 121 120 119 119 119 118 120 119 117 118 119 117 115 114 114 114 114 114 113 
117 120 120 121 123 123 122 122 122 124 124 125 125 125 126 127 128 129 129 130 130 131 131 131 132 133 132 130 131 133 129 134 137 137 138 138 136 134 136 139 139 139 139 138 138 139 139 138 136 136 139 141 137 138 140 141 141 140 140 142 143 142 142 142 143 144 144 145 144 144 143 143 142 141 141 141 138 136 136 137 138 137 135 133 136 135 134 134 133 134 135 135 137 139 135 135 135 136 137 138 138 136 138 136 133 132 130 127 129 130 130 130 129 127 126 127 127 128 127 125 123 123 124 124 124 123 121 119 120 121 118 117 117 119 119 117 115 118 117 116 117 118 116 114 113 112 112 113 113 113 
116 116 114 116 121 121 121 120 122 124 122 124 124 123 125 126 126 126 128 130 127 128 130 131 131 131 131 131 130 130 131 134 135 135 136 136 136 137 137 136 137 138 138 137 138 139 138 137 135 134 135 137 136 138 139 140 139 137 136 137 140 139 139 141 140 139 137 137 136 137 139 140 140 140 139 139 137 137 136 134 136 138 133 133 135 133 132 134 135 134 134 135 135 133 133 133 134 134 134 133 130 132 139 140 136 130 131 128 128 130 129 127 128 129 128 128 127 126 125 126 125 123 123 123 122 122 123 121 119 119 117 115 116 118 117 115 116 116 115 114 114 114 113 111 111 111 111 111 108 108 
113 115 115 115 116 117 118 118 119 118 118 120 121 121 123 120 119 121 124 126 126 127 127 128 129 129 130 130 132 134 131 131 131 131 133 135 135 135 135 135 135 135 135 135 133 135 134 132 134 132 132 132 132 132 134 136 136 135 135 135 135 133 132 131 135 135 130 133 132 130 133 133 132 133 133 133 134 134 133 132 132 133 132 132 134 132 130 130 131 131 131 131 133 132 132 132 133 133 133 133 131 131 132 133 133 132 131 129 130 131 130 129 128 128 127 126 125 124 125 126 125 124 124 123 122 120 121 122 121 117 117 116 117 117 117 115 116 114 113 114 113 112 111 111 110 110 110 110 110 110 
111 114 113 113 112 114 116 117 118 117 118 121 122 123 121 121 122 121 122 125 127 126 126 126 129 129 127 127 129 130 129 131 132 131 131 133 133 133 133 133 134 134 134 133 131 131 131 130 130 131 132 131 132 133 134 134 135 136 135 134 133 133 133 133 136 134 132 133 133 131 133 133 130 131 132 132 131 132 132 131 132 134 134 134 135 133 134 129 130 133 134 132 133 133 133 134 132 132 132 132 129 129 129 129 129 130 129 128 126 125 125 127 127 124 126 124 122 122 122 124 124 124 123 121 120 120 119 119 119 115 117 117 115 114 115 116 116 115 113 111 111 111 110 110 111 110 109 108 108 108 
109 111 111 112 112 114 116 118 116 119 121 122 122 121 119 124 126 123 123 125 127 125 124 125 126 126 127 127 127 127 127 129 128 127 128 129 130 131 131 130 131 132 132 131 131 131 130 128 128 132 132 132 135 135 135 134 132 135 135 131 129 129 132 134 132 130 129 130 129 128 129 130 130 129 131 131 130 130 129 129 131 133 134 134 132 129 131 128 125 128 130 129 126 127 129 129 129 128 129 128 126 129 128 125 125 126 125 124 124 123 125 126 127 125 127 125 124 124 123 125 123 121 121 122 122 122 118 116 120 117 115 113 113 113 113 115 116 115 112 109 111 110 109 109 108 107 106 105 105 106 
