P2
150 65
255
95 95 77 65 72 71 75 82 77 64 69 88 83 68 69 58 50 59 76 73 82 75 78 77 77 84 76 74 83 89 86 81 80 82 82 84 85 85 90 91 92 94 103 99 93 97 103 108 105 120 99 96 99 119 132 126 119 151 155 167 212 253 252 253 254 254 254 254 253 252 251 251 251 251 251 250 250 251 248 243 245 248 249 248 248 249 250 251 251 252 254 255 254 254 255 253 252 253 253 254 255 255 252 250 243 220 170 165 202 167 128 110 116 100 86 103 116 164 170 162 154 164 137 118 127 144 112 121 122 125 133 148 103 145 163 74 61 60 57 77 65 75 119 143 163 134 155 196 219 224 
106 95 89 82 77 78 70 68 67 65 66 73 66 64 60 56 62 66 61 67 76 78 83 79 73 79 74 70 75 85 85 82 78 78 80 83 82 81 87 92 94 89 91 86 87 95 105 125 106 116 108 117 113 126 136 126 118 150 163 186 219 250 251 253 254 254 254 254 254 254 253 253 253 253 253 253 253 253 252 251 252 252 253 253 252 252 252 252 252 253 254 255 254 255 254 252 250 254 254 254 254 254 254 253 250 228 186 193 219 169 129 113 127 115 108 107 132 168 162 162 143 116 88 90 137 164 125 119 127 138 142 122 109 161 178 91 66 63 68 84 69 76 117 152 174 174 198 179 146 186 
90 79 66 71 67 64 63 58 57 61 63 55 53 52 50 66 79 70 64 52 70 85 92 68 53 59 61 61 64 72 75 79 80 71 68 65 67 69 79 88 85 83 87 90 87 99 116 129 123 129 119 116 106 115 111 103 122 153 181 206 222 240 250 254 254 254 254 254 255 255 254 253 252 252 252 253 253 251 250 251 251 254 254 252 253 253 254 254 254 254 255 255 255 255 254 250 242 250 255 254 252 253 253 252 253 237 217 229 233 172 117 111 126 141 154 124 130 163 166 171 126 84 82 96 161 169 128 103 124 153 131 109 93 118 173 135 71 55 75 86 82 97 131 136 106 153 194 121 97 171 
69 72 63 73 92 78 59 53 53 56 58 59 48 51 57 66 70 65 65 64 77 85 87 71 55 54 56 57 56 63 67 67 68 62 62 61 65 72 77 77 78 87 89 82 82 93 105 112 112 109 106 113 106 100 99 104 126 164 167 169 195 235 248 253 254 254 254 254 254 253 252 252 253 253 252 248 242 231 236 244 225 234 246 251 252 253 254 255 254 254 255 255 255 255 253 246 234 246 254 254 253 254 252 252 251 243 228 219 198 125 95 100 140 183 178 154 153 168 167 165 115 81 114 149 175 169 148 124 153 156 120 96 92 114 155 141 79 65 97 87 94 114 141 126 71 134 183 113 100 165 
64 71 69 69 87 84 60 51 51 66 81 81 57 63 89 77 70 57 62 68 74 76 85 81 63 64 67 58 53 56 59 56 55 59 59 64 67 66 68 77 82 82 81 80 80 85 89 90 93 89 94 95 101 96 101 111 138 155 142 153 192 229 249 252 254 254 254 254 252 248 246 252 253 254 249 234 225 224 236 241 214 214 219 228 243 252 253 253 254 253 253 253 254 255 250 240 230 241 249 248 247 245 243 243 240 238 218 197 167 116 90 85 123 182 170 169 191 156 139 136 105 127 171 146 155 151 141 140 178 130 107 75 93 122 131 135 110 79 101 112 106 119 136 116 72 111 146 102 98 167 
58 65 65 64 71 85 68 61 56 66 76 70 93 81 72 72 72 54 60 66 68 71 77 80 72 64 61 58 55 57 61 61 59 56 51 61 64 64 65 67 74 77 76 77 75 86 90 86 85 80 90 90 91 89 102 113 123 134 155 169 197 224 241 252 252 249 246 243 244 247 249 254 253 254 253 245 234 238 248 247 233 227 219 217 218 226 236 244 251 253 254 254 253 250 245 239 232 230 224 216 212 209 212 207 200 193 182 149 125 120 114 95 113 154 151 149 183 184 153 122 103 172 177 111 157 140 101 120 138 121 99 77 81 106 92 128 105 75 92 122 125 136 139 110 79 122 148 100 103 183 
59 61 58 52 54 53 55 57 55 55 60 60 59 65 47 48 59 56 61 63 60 57 55 65 73 71 66 63 60 60 63 63 66 64 54 62 65 57 60 66 70 74 72 76 77 88 90 81 82 85 96 98 93 89 95 114 113 118 159 147 168 175 218 250 247 234 231 241 249 254 254 254 254 253 254 253 246 240 248 252 251 246 233 225 217 213 211 217 234 246 254 254 252 247 243 242 235 224 209 198 189 185 182 173 167 158 159 145 118 110 116 101 101 109 106 156 186 206 215 160 123 205 201 131 158 152 85 75 87 110 87 88 93 88 68 138 110 98 108 132 141 138 123 111 84 129 133 93 116 192 
61 62 54 48 48 51 57 55 57 59 56 58 54 51 51 48 65 66 66 61 61 59 47 57 72 66 64 64 59 51 56 61 65 67 58 60 62 62 70 73 76 76 73 78 79 86 86 77 85 96 109 100 85 91 100 118 138 143 151 168 154 161 211 241 246 246 248 253 254 254 254 254 254 254 254 253 254 251 251 253 254 253 250 246 237 228 217 212 210 217 226 238 249 249 249 249 248 247 243 240 237 236 234 231 226 211 176 191 208 200 185 154 149 162 170 178 185 208 219 144 136 206 190 152 134 109 77 82 103 126 116 120 152 116 99 133 119 165 118 92 128 121 132 117 100 147 132 113 138 154 
65 61 56 53 59 59 59 58 55 59 64 59 57 52 57 57 71 73 68 61 62 66 63 61 66 59 58 57 55 47 52 62 61 61 58 54 57 71 74 75 84 84 75 76 76 83 87 83 94 93 101 101 90 92 98 118 145 145 137 162 166 186 211 239 250 254 255 254 254 254 254 254 254 254 254 254 254 254 254 254 254 254 254 254 253 246 236 226 217 208 202 208 222 238 248 251 253 252 253 253 254 255 255 255 254 238 198 225 254 251 227 203 207 209 207 185 180 207 202 118 134 178 146 148 122 77 88 119 123 160 161 173 185 158 144 183 146 159 128 102 125 129 154 131 155 184 121 87 108 101 
68 64 64 66 71 67 62 63 66 67 63 58 58 56 61 69 81 69 68 69 64 71 69 65 64 65 63 57 57 60 60 72 68 66 65 58 65 74 72 78 82 84 79 81 85 94 98 89 93 98 103 109 96 100 115 120 117 118 132 141 190 231 233 237 249 252 254 254 254 254 254 254 254 254 254 254 254 254 254 254 254 254 254 254 253 253 252 247 239 230 218 206 198 203 207 236 249 253 253 252 254 254 254 254 255 229 190 228 253 248 236 205 211 219 218 202 201 199 163 109 127 134 95 90 94 117 115 111 127 146 171 199 198 214 190 190 132 128 156 157 160 171 193 184 155 123 121 107 99 105 
75 75 70 73 72 72 61 65 71 71 57 54 66 66 74 68 77 73 64 70 58 62 67 58 57 67 69 62 67 68 55 63 64 69 76 60 64 84 72 78 83 78 80 82 85 88 91 87 93 102 98 102 91 102 113 111 100 113 140 161 187 210 232 244 251 253 254 254 254 254 254 254 254 254 254 254 254 254 254 254 254 254 254 254 253 253 253 252 253 249 239 222 207 201 194 225 223 222 240 249 253 253 253 253 254 218 178 224 247 242 233 214 225 226 219 206 211 181 143 114 137 123 83 83 126 189 148 110 152 177 179 176 194 206 209 205 161 191 187 209 175 171 203 192 113 81 91 92 123 108 
76 73 65 63 59 61 59 61 60 62 58 53 65 59 56 54 52 60 70 75 67 61 58 80 100 70 55 63 70 56 45 46 51 66 64 57 60 74 76 85 86 88 87 83 86 89 88 84 88 100 91 94 89 94 94 94 105 132 137 142 147 185 215 245 250 253 254 253 254 253 254 254 254 254 254 254 255 254 254 254 254 254 254 254 254 252 253 253 254 254 253 244 227 219 221 214 172 176 202 233 251 253 253 252 254 208 170 222 245 237 237 226 226 223 221 210 204 170 141 112 144 107 94 144 188 153 165 120 146 158 172 167 185 181 191 206 201 184 153 203 164 137 162 159 131 81 63 101 109 83 
71 71 57 48 50 53 54 58 58 62 66 56 55 49 54 57 57 58 81 99 69 59 64 95 111 96 85 74 63 50 46 45 49 58 56 55 58 65 72 90 88 94 91 91 92 97 93 92 98 108 96 99 96 94 91 93 111 132 132 135 154 201 236 248 248 252 253 252 252 253 253 254 253 253 252 253 252 253 254 253 253 252 253 253 252 253 252 253 253 254 254 252 247 242 245 228 192 207 233 244 252 252 251 248 251 217 185 224 247 241 239 233 231 224 224 204 197 180 139 162 193 104 116 202 200 162 172 138 150 162 163 176 171 176 180 183 189 197 171 202 163 121 142 135 158 128 77 86 72 58 
68 60 62 58 42 36 43 51 54 55 57 50 55 63 72 70 55 67 106 131 78 59 92 130 129 129 120 86 64 77 80 61 56 53 53 60 59 60 71 95 86 87 93 109 119 105 101 109 111 111 100 101 97 104 108 110 111 120 165 161 188 226 230 244 209 184 195 196 193 198 196 197 208 218 220 214 199 196 195 196 196 195 198 195 195 213 210 202 196 201 191 191 188 214 251 251 250 246 243 250 249 245 240 237 239 208 188 201 203 214 186 175 170 171 191 198 196 190 143 194 216 124 156 226 185 171 156 149 152 144 148 187 177 173 192 167 182 204 199 185 162 146 193 179 148 137 93 88 81 87 
69 60 58 58 48 40 32 44 52 50 49 48 57 60 67 83 82 94 111 112 77 66 119 138 133 127 128 117 92 84 98 85 62 60 70 77 75 67 73 92 89 89 101 122 123 114 107 104 106 111 108 97 104 98 107 127 136 157 183 168 190 230 220 235 165 117 126 129 126 132 132 133 158 182 188 171 141 132 128 129 127 125 130 128 134 169 168 157 150 161 140 152 165 210 249 252 253 242 234 240 239 234 232 232 234 182 171 189 170 207 161 146 148 153 169 162 165 156 125 190 214 142 175 209 171 177 149 135 154 145 163 193 191 181 195 187 190 204 213 189 182 175 200 197 133 82 105 142 119 107 
60 57 51 46 44 40 30 33 40 49 55 47 50 54 72 81 91 92 98 84 66 73 108 110 113 115 131 122 104 84 97 103 78 67 75 87 83 76 76 89 94 93 97 118 114 104 107 103 104 115 112 100 128 105 110 132 146 179 190 187 194 224 213 237 155 96 94 96 99 99 99 106 145 171 178 158 117 106 93 91 88 89 93 99 113 156 161 172 179 195 184 197 199 228 246 252 252 236 227 229 229 229 225 226 230 179 174 195 176 217 182 178 188 179 168 144 142 129 107 182 197 153 188 172 158 174 143 131 139 143 162 180 189 189 195 193 183 192 205 192 181 171 188 174 118 75 106 135 119 102 
38 34 33 42 38 47 58 51 47 55 58 50 46 61 110 119 119 90 75 74 64 68 86 83 80 79 94 75 74 90 95 101 91 83 74 74 75 76 75 78 80 77 85 103 99 100 100 101 106 113 111 113 143 125 127 137 144 169 179 180 201 235 225 245 160 98 86 84 93 87 83 101 149 178 183 164 120 106 81 75 73 73 78 90 113 165 190 227 242 245 223 179 158 213 247 253 253 230 215 217 218 216 219 217 223 174 166 208 188 215 180 186 204 213 204 170 151 137 114 161 152 157 172 143 165 170 156 154 154 159 169 180 190 174 188 196 186 169 160 169 158 135 145 137 115 105 102 96 81 73 
35 28 35 71 78 90 115 100 69 67 56 60 57 60 92 112 122 82 61 68 68 67 79 70 80 95 105 78 79 95 101 98 91 87 83 75 76 74 70 84 74 70 76 82 87 85 87 99 102 104 107 117 149 134 156 169 171 181 181 185 217 245 236 247 172 108 89 86 97 91 85 109 168 198 200 182 137 120 84 76 71 71 76 94 120 185 219 247 250 242 195 142 127 192 247 252 253 229 212 214 214 210 198 195 206 161 150 216 205 207 168 169 183 198 202 195 173 139 112 129 121 141 148 148 161 157 166 153 148 159 155 159 161 130 146 180 174 147 143 137 138 123 112 119 121 115 98 86 85 87 
56 43 39 60 101 117 84 85 74 66 62 65 60 60 69 85 104 51 46 67 75 71 79 79 114 117 117 105 100 105 102 92 92 91 82 76 76 64 62 68 70 64 79 83 87 86 94 99 99 102 112 123 147 146 207 239 235 231 224 220 237 249 240 252 228 189 168 158 171 165 133 150 228 244 243 237 217 202 125 85 74 75 77 102 153 226 250 252 249 241 180 120 107 176 247 252 250 228 210 214 217 201 179 149 141 135 130 214 231 189 148 158 162 152 151 156 163 137 106 105 113 139 134 154 151 142 137 135 122 155 140 130 118 123 144 156 145 131 115 92 100 99 111 131 115 110 103 103 93 97 
69 46 36 45 83 91 68 73 64 55 65 57 54 61 64 80 100 55 48 64 78 77 86 91 103 102 93 98 96 95 93 85 82 84 85 74 71 67 64 73 76 73 73 77 81 87 94 99 99 107 114 120 142 159 216 253 250 250 247 242 244 248 243 254 252 240 232 216 226 226 178 175 246 254 254 254 253 248 176 107 75 77 80 111 168 236 254 252 249 237 172 113 101 171 250 253 250 227 202 190 174 150 132 131 131 125 123 179 199 151 135 125 111 110 106 96 119 117 96 99 112 127 112 117 102 115 119 124 110 141 141 122 123 127 158 173 133 107 100 95 107 105 121 134 108 99 106 107 98 96 
68 46 41 42 59 62 59 63 65 63 61 60 76 79 71 87 103 79 78 84 87 83 78 74 69 84 83 89 87 96 94 78 74 67 65 71 70 64 63 68 69 82 77 84 92 84 92 126 103 104 113 126 141 168 215 248 239 230 244 251 248 246 241 253 252 245 246 229 234 237 183 179 246 253 253 252 251 251 199 125 76 78 85 119 171 236 253 253 251 244 188 114 97 172 249 253 252 213 165 125 97 86 87 115 143 130 110 112 119 95 98 93 81 84 78 74 84 86 82 80 81 84 90 100 102 101 100 89 75 85 88 93 93 107 128 128 99 83 96 99 98 99 102 97 87 87 90 84 91 92 
84 74 83 84 70 68 70 73 73 72 67 72 89 91 84 97 96 85 88 91 88 89 76 71 81 90 91 89 91 95 92 90 94 75 63 71 73 65 70 79 71 76 80 78 77 81 92 120 114 114 127 145 138 163 216 251 245 235 237 238 246 248 238 250 251 248 247 236 239 240 204 195 247 253 253 252 250 248 199 128 79 81 89 123 167 235 254 252 249 238 179 125 113 174 250 246 233 207 174 128 94 85 92 121 152 122 100 96 92 82 79 83 77 62 64 62 65 75 72 68 71 76 81 87 95 90 93 89 87 89 83 90 86 95 99 91 86 70 80 89 82 85 93 86 77 86 82 77 90 85 
112 114 106 104 80 72 81 79 71 71 70 73 89 88 82 79 60 68 80 94 88 94 81 72 81 98 102 91 88 84 79 86 91 83 78 78 75 67 73 81 72 78 77 69 77 94 100 123 125 131 137 137 138 167 224 250 251 241 227 210 227 243 240 253 251 251 252 251 252 252 244 233 250 253 253 253 251 250 206 133 85 83 91 126 166 237 255 253 246 235 193 198 177 196 242 213 188 171 165 127 91 95 93 118 127 100 102 98 87 82 67 55 58 63 74 73 70 69 76 68 61 60 69 73 81 83 76 74 91 87 88 97 86 71 77 85 83 78 86 96 78 79 75 79 78 88 93 95 86 74 
140 148 117 98 87 87 90 82 69 75 70 64 74 81 73 68 65 71 75 83 84 105 90 78 81 91 95 91 95 88 79 87 88 75 72 74 69 64 60 63 67 86 86 77 92 106 115 128 137 142 146 151 176 181 226 250 251 235 214 224 226 223 229 249 253 252 252 253 252 253 253 250 252 253 253 253 254 253 213 142 92 88 94 128 168 237 253 254 249 245 229 231 217 212 219 180 158 137 103 110 107 113 113 118 117 103 109 106 91 90 78 55 47 44 53 74 80 71 68 72 68 71 71 86 80 75 73 76 83 84 86 88 88 78 75 82 82 88 87 86 85 83 65 69 79 75 80 84 79 71 
142 156 134 106 85 85 74 67 65 69 66 51 53 66 63 70 69 73 68 65 82 111 98 82 85 92 99 105 102 85 83 93 89 76 84 75 64 64 61 60 68 130 137 91 101 93 114 160 139 127 140 132 164 167 209 250 240 230 216 236 237 227 219 231 247 250 250 249 249 251 254 253 253 253 253 253 254 254 228 170 114 113 120 139 167 237 253 252 246 239 234 234 225 195 200 158 125 104 96 106 100 97 109 110 107 113 115 115 109 96 82 66 54 55 55 76 87 77 67 67 67 70 75 89 91 93 85 78 78 79 80 78 89 83 82 86 78 80 77 67 74 77 70 72 70 69 75 83 77 71 
123 127 108 92 87 82 60 59 67 65 72 56 58 72 66 74 73 74 71 74 91 116 102 83 80 97 111 121 109 88 83 94 92 76 82 86 81 70 65 54 68 106 112 95 98 126 180 226 198 140 159 177 177 175 202 245 214 188 214 243 236 207 229 243 240 233 229 233 241 246 252 253 253 253 253 251 247 237 221 189 147 142 154 156 164 227 239 238 235 238 234 228 209 176 187 140 102 84 78 88 81 69 64 71 81 80 77 94 102 104 92 71 56 60 64 57 71 82 77 76 84 73 73 72 77 88 91 94 93 103 92 83 94 90 77 66 62 62 79 89 82 75 70 65 72 72 74 70 59 54 
95 98 92 86 84 81 62 56 67 68 83 72 80 78 67 67 73 72 69 69 92 122 107 86 80 104 112 113 102 90 86 89 88 73 72 96 109 95 76 61 87 124 105 91 94 140 184 219 213 166 192 207 213 215 203 231 206 148 202 243 242 210 232 253 246 241 243 247 250 250 252 251 252 248 230 211 190 164 142 140 129 118 133 144 159 221 236 233 228 211 195 195 196 166 154 112 83 69 63 73 68 55 48 58 69 69 67 73 89 93 90 77 57 53 52 40 61 84 76 67 80 68 60 68 69 78 71 83 91 92 85 79 85 72 67 51 57 61 67 77 73 65 68 74 77 70 66 69 73 69 
85 91 91 86 83 80 74 71 72 70 79 74 81 75 69 67 67 68 67 64 95 124 99 79 81 94 103 101 99 101 106 97 90 81 80 100 120 134 108 82 94 180 165 123 123 145 176 209 194 191 199 203 208 206 178 185 188 146 188 245 246 247 245 251 245 239 246 251 251 252 251 249 228 185 136 116 97 94 89 89 91 93 87 96 120 152 169 201 208 140 110 108 117 107 90 74 64 65 63 60 55 47 44 59 68 67 69 68 72 79 84 72 49 51 49 58 74 79 77 73 87 67 56 68 67 67 67 78 75 71 80 73 82 84 63 52 60 52 43 43 61 64 71 68 64 59 60 70 74 70 
91 102 96 86 82 81 82 92 80 77 82 71 72 72 66 66 63 65 69 67 100 123 83 68 76 81 84 92 97 110 125 116 111 95 90 92 98 109 109 86 82 148 142 94 97 147 195 231 224 225 224 223 228 221 186 167 191 167 184 229 238 243 230 218 241 241 246 251 251 252 249 232 161 118 99 94 82 84 86 88 88 83 76 75 85 84 90 134 169 133 116 103 95 80 75 72 68 66 65 59 58 51 46 67 77 66 59 71 84 70 71 81 58 46 49 68 80 74 76 74 92 83 78 94 83 77 69 71 77 74 82 82 80 85 72 59 55 51 47 42 52 54 62 61 65 61 51 63 72 69 
85 111 111 83 67 64 70 73 73 86 87 77 68 66 57 65 63 58 61 69 111 123 78 60 65 68 73 73 80 109 113 99 99 96 95 88 90 99 95 86 84 104 96 83 133 213 238 249 251 250 248 247 243 237 216 174 188 205 195 215 207 176 176 172 235 251 252 252 251 248 236 179 96 84 89 92 85 89 87 82 75 80 81 82 87 84 82 89 103 132 131 110 88 79 72 82 67 64 64 58 57 58 54 66 69 78 79 66 83 91 90 87 77 76 84 64 69 79 79 73 73 80 86 78 78 85 75 69 66 67 72 81 74 65 69 64 55 62 66 66 65 61 52 57 68 69 67 62 55 54 
78 86 93 83 65 64 73 69 74 83 83 79 69 64 61 63 60 54 54 62 113 127 73 56 64 66 68 65 71 84 86 87 85 82 85 97 99 94 94 92 89 97 90 94 156 238 249 251 251 249 237 233 228 234 230 199 170 216 204 193 188 170 182 169 232 253 251 252 250 237 196 146 96 88 88 92 92 89 82 79 73 84 80 77 78 78 78 84 100 150 148 135 116 84 69 79 65 59 56 51 59 62 64 97 86 73 87 57 60 82 95 95 90 82 81 70 68 67 78 79 70 66 76 78 74 88 78 69 64 61 62 71 76 70 70 64 59 59 65 63 69 69 54 57 67 65 52 48 53 55 
74 72 84 105 80 72 78 78 77 77 76 71 62 65 64 56 51 55 58 69 115 127 76 57 66 68 56 59 67 77 81 79 76 75 76 83 87 85 79 82 79 81 75 102 158 213 229 244 246 225 197 187 201 229 236 230 173 176 174 167 198 198 195 159 233 253 252 247 217 171 110 96 93 92 86 84 77 82 80 77 81 82 72 71 70 71 80 94 95 100 92 115 121 89 68 64 68 63 56 57 68 65 73 124 119 75 71 68 59 65 81 95 91 73 68 74 77 78 73 64 56 60 67 71 63 78 87 88 68 63 63 66 74 72 75 77 80 77 61 55 50 56 65 77 61 51 46 39 54 62 
73 78 86 99 103 109 102 87 107 104 79 78 70 65 60 57 52 56 64 69 118 127 75 59 66 66 59 58 65 73 79 76 74 73 72 77 79 79 72 75 73 76 78 87 122 149 153 170 180 163 142 135 157 194 198 213 172 156 171 167 213 213 203 173 231 247 243 234 196 165 120 113 102 96 79 70 70 74 72 69 74 76 66 62 63 66 77 91 86 72 66 91 103 90 84 68 64 58 53 59 62 57 67 88 103 83 62 69 63 59 70 84 74 61 65 71 74 75 68 64 52 58 61 67 56 56 68 79 76 68 67 66 60 51 58 63 73 76 70 66 61 58 65 74 67 66 65 57 42 46 
80 86 92 104 126 131 107 96 143 148 103 91 76 66 58 54 51 54 59 64 123 130 64 56 61 62 64 62 65 71 76 79 84 88 85 89 92 92 87 82 83 84 103 95 121 148 142 142 133 123 130 130 132 149 170 186 171 161 173 155 188 211 215 220 228 230 233 232 231 224 191 168 140 134 100 71 68 66 75 74 64 61 67 69 61 68 78 82 79 70 62 93 101 102 101 79 65 59 59 58 55 54 64 72 82 72 60 65 64 54 57 64 58 54 72 75 78 77 59 61 61 59 63 70 57 47 60 62 68 68 71 77 62 41 48 56 63 70 70 66 61 68 67 67 68 75 68 63 57 53 
117 112 96 107 119 115 94 86 119 117 95 85 82 68 59 56 52 52 52 69 131 132 63 58 61 67 68 65 66 69 73 80 92 112 118 124 127 119 116 100 86 102 117 110 125 146 150 152 152 151 150 151 152 158 165 167 162 162 165 159 166 174 180 184 185 186 188 192 212 208 174 149 122 98 79 76 84 72 69 68 64 69 72 73 72 63 62 74 84 94 104 115 114 105 98 90 77 69 68 69 65 61 59 66 69 66 69 68 63 61 68 68 65 65 69 67 65 64 61 68 69 66 69 73 65 67 72 75 67 66 66 79 63 47 58 65 65 72 70 68 61 64 59 60 67 72 79 72 62 56 
131 113 85 94 102 88 85 87 103 115 99 87 94 72 59 60 59 58 52 74 138 137 77 56 57 59 56 60 64 66 64 71 96 133 138 139 139 127 122 118 98 102 115 119 127 140 144 149 146 148 150 149 155 163 167 166 171 173 162 166 171 165 163 164 166 158 162 178 190 191 163 117 121 113 93 96 98 70 74 103 82 66 70 68 73 69 79 106 116 140 184 169 145 137 126 126 120 107 91 95 91 87 81 81 80 76 74 67 57 55 70 67 61 68 66 68 64 62 72 77 76 72 76 68 54 58 61 78 74 66 61 70 66 65 57 57 57 62 60 63 60 60 55 53 60 66 66 60 55 48 
105 96 78 77 90 83 84 96 87 87 86 85 90 74 61 56 53 59 54 78 142 130 68 58 64 62 52 58 63 69 68 76 95 131 146 147 140 135 133 128 112 83 100 111 122 143 146 144 144 145 146 149 150 151 152 149 149 151 145 160 169 170 171 170 167 172 185 186 183 179 175 166 169 172 156 154 127 89 85 109 98 85 92 86 104 132 153 146 135 147 164 154 120 102 95 112 118 114 113 109 110 109 105 95 88 75 75 64 56 54 50 47 55 58 58 63 65 66 69 65 66 64 64 72 72 68 62 65 72 73 56 57 58 59 54 55 52 48 53 63 60 63 62 61 53 53 54 48 43 38 
84 79 79 75 78 72 74 86 79 72 81 79 87 75 59 52 48 48 47 76 139 126 57 60 68 69 53 53 57 57 57 72 82 107 124 138 137 126 128 124 112 85 98 102 103 111 117 113 113 121 134 150 143 134 132 130 132 132 130 135 143 140 158 165 151 148 169 179 168 171 160 153 149 145 139 138 133 123 118 119 118 121 121 132 156 169 173 163 150 151 150 142 132 105 92 104 116 117 127 127 125 127 117 99 97 86 81 63 60 49 39 51 65 58 59 62 58 62 64 65 69 68 62 70 72 68 66 58 64 65 51 50 55 63 59 48 48 46 43 51 56 62 62 71 63 47 50 49 36 35 
81 79 81 80 76 67 66 80 83 80 95 86 84 75 61 55 50 47 52 83 137 127 63 56 52 61 58 55 58 70 74 78 84 99 113 116 110 110 114 113 100 79 91 95 108 112 121 129 130 132 129 119 109 111 111 105 111 112 121 124 133 130 135 137 132 135 145 137 114 105 97 95 93 93 91 91 92 92 93 93 89 93 119 125 116 119 120 119 121 121 121 130 140 131 112 118 118 129 144 129 118 110 101 91 86 75 71 63 60 44 41 49 54 56 56 61 61 58 62 57 54 61 65 61 64 58 57 59 59 66 64 49 50 57 49 52 55 52 45 43 48 44 48 55 62 57 58 56 49 51 
75 79 82 82 81 75 60 67 76 81 95 84 80 78 67 60 51 47 43 82 135 129 64 55 48 56 55 54 56 65 71 75 83 98 104 104 100 112 114 112 98 80 84 96 131 148 159 163 156 156 135 107 94 98 97 99 106 112 121 118 129 145 143 132 132 136 112 100 101 101 109 111 110 112 111 111 108 107 106 105 99 90 131 135 104 106 106 103 103 99 99 96 121 134 129 123 118 131 148 139 120 101 87 82 82 79 75 73 67 50 45 48 47 50 56 51 55 60 66 64 63 57 59 66 66 67 70 67 58 68 63 54 51 45 50 65 55 44 47 47 48 41 45 47 54 58 62 56 45 50 
74 73 71 74 74 69 59 58 67 68 73 68 68 76 75 68 60 57 52 86 136 126 58 54 50 52 63 63 63 65 67 71 78 93 99 94 93 104 104 104 102 84 76 89 120 153 178 182 177 170 140 109 93 92 94 102 103 112 124 126 136 157 145 127 112 107 111 121 124 133 145 150 152 150 143 138 133 131 131 130 118 98 116 141 124 133 135 131 129 131 119 105 100 104 115 130 125 120 125 133 121 122 102 90 86 79 75 79 79 72 54 40 39 54 61 62 64 66 66 63 59 63 63 64 68 66 76 73 50 53 54 55 55 38 48 64 57 50 55 60 60 59 54 56 53 51 48 50 45 53 
81 77 68 65 69 69 64 58 59 60 58 55 61 68 72 69 62 64 62 91 136 125 64 54 55 58 64 65 68 71 72 71 73 75 79 81 85 88 91 101 103 80 71 79 102 126 137 141 138 130 117 96 76 81 88 88 99 106 114 121 134 129 113 107 113 119 124 136 149 154 153 158 158 157 153 148 143 141 144 144 129 107 106 139 125 142 144 141 138 148 151 130 114 106 101 115 132 122 121 126 111 97 90 89 86 78 75 73 75 75 58 39 42 51 55 66 63 67 66 65 60 63 60 61 62 71 76 75 63 60 56 48 58 47 43 55 60 54 54 58 63 66 56 58 53 48 53 53 47 51 
82 77 71 71 71 67 60 54 51 50 52 58 68 71 71 69 66 61 57 91 138 124 59 49 54 62 66 71 75 80 83 81 80 79 81 86 86 80 82 93 93 74 71 77 93 99 95 95 81 72 84 79 64 55 59 75 87 100 118 114 108 106 120 131 131 141 155 165 161 158 155 157 160 157 157 160 159 152 144 145 144 121 104 137 132 148 157 158 160 172 179 173 160 130 119 114 110 121 142 125 108 90 82 92 89 87 78 57 59 53 46 40 37 43 46 64 62 61 61 63 59 58 58 53 64 77 72 68 75 75 55 52 64 58 50 44 49 61 61 62 60 60 61 61 53 52 57 52 49 55 
79 80 76 75 72 69 65 64 63 63 66 69 71 70 67 65 64 60 59 94 133 120 59 53 53 60 67 73 78 83 88 89 88 85 84 85 80 79 82 85 87 78 84 87 94 93 90 89 81 75 80 79 72 70 77 88 101 114 109 84 93 118 136 140 149 160 164 170 165 160 160 161 165 161 161 164 167 157 139 143 149 134 110 131 150 155 170 180 185 189 188 186 186 165 140 129 124 117 125 118 92 100 103 95 85 72 65 51 49 53 47 42 39 43 45 51 51 49 54 57 55 57 55 53 65 86 71 60 72 73 62 65 61 62 66 66 62 58 66 76 74 66 59 57 60 58 53 50 46 51 
78 84 85 78 79 77 77 75 73 73 73 69 68 70 73 71 67 62 55 93 138 114 46 47 49 58 69 75 78 83 88 94 93 86 84 86 87 98 104 97 92 84 88 96 96 103 104 103 106 113 110 113 118 118 121 125 110 98 87 59 65 118 147 147 163 177 175 174 173 173 174 174 176 175 177 176 176 167 148 151 149 142 114 124 162 151 165 173 176 180 182 179 176 172 155 138 137 137 122 106 90 88 98 107 108 100 95 91 91 92 81 68 61 52 49 42 42 44 51 50 50 57 58 63 73 106 101 89 92 83 84 89 75 74 72 62 64 57 78 83 85 82 74 65 63 59 58 62 67 70 
77 80 81 78 76 76 73 74 75 73 76 77 75 75 75 70 66 61 58 92 132 115 43 57 61 66 80 88 90 87 89 94 94 89 90 90 91 102 107 118 119 113 114 122 119 117 120 120 115 115 108 106 104 102 99 97 94 94 79 53 64 117 138 141 145 155 155 154 155 154 150 147 148 150 153 152 149 139 129 129 131 123 105 107 114 128 152 150 148 153 154 151 149 151 148 141 143 143 143 121 96 94 97 103 106 105 104 104 103 104 102 97 96 95 94 66 46 58 55 48 50 48 52 55 74 115 99 84 100 88 88 91 84 69 74 79 70 61 75 75 73 72 71 68 68 58 49 53 72 84 
85 86 84 84 85 85 84 86 84 85 87 83 84 82 80 76 74 73 69 101 127 113 52 62 65 73 89 92 96 92 96 101 98 100 103 101 100 102 100 117 118 113 110 112 110 100 95 92 88 89 89 90 93 97 96 92 95 94 87 81 74 90 104 109 108 107 108 109 108 108 107 105 103 104 106 104 104 103 99 100 97 97 102 100 91 110 125 119 116 118 119 116 117 119 118 115 115 115 115 111 104 105 107 108 109 108 107 109 110 111 112 112 115 114 122 110 71 54 55 62 60 50 53 61 76 94 91 93 92 79 85 92 86 71 72 83 79 74 76 72 69 66 61 60 70 63 42 41 64 86 
94 98 95 94 98 96 98 97 98 100 101 98 95 90 86 83 88 88 91 117 133 117 77 74 75 82 89 95 99 100 102 107 109 106 102 97 94 91 87 85 86 85 85 86 90 93 93 96 98 99 102 103 103 106 106 105 111 113 117 118 111 110 115 114 111 110 110 110 111 112 111 111 112 111 112 112 112 112 112 99 86 86 103 114 97 113 120 118 116 116 116 115 115 115 115 116 115 117 117 120 123 123 124 124 125 127 127 126 129 128 130 134 136 134 151 179 116 33 42 67 66 55 57 75 90 80 94 97 56 52 68 85 77 75 68 69 61 66 63 57 51 46 41 45 57 58 37 37 47 53 
103 105 102 96 98 99 103 102 102 105 106 107 105 101 93 88 95 104 116 121 124 117 92 89 85 90 101 102 104 97 95 96 94 91 86 83 83 82 84 86 86 86 89 94 98 104 105 110 112 111 114 116 116 118 118 125 128 126 131 135 133 134 134 131 130 130 129 127 125 126 126 125 125 125 126 127 128 127 126 108 90 94 119 130 113 125 133 130 129 128 129 129 130 128 128 130 131 134 135 137 140 139 141 142 140 140 143 142 144 142 138 140 147 152 157 189 140 39 36 52 56 46 47 74 91 79 95 89 64 62 66 64 60 63 54 53 55 56 52 53 49 44 42 47 58 48 29 35 41 42 
154 154 152 148 142 137 133 132 131 129 125 122 125 124 122 116 108 118 135 127 109 113 113 112 112 113 118 106 97 89 85 84 85 85 86 87 89 93 91 85 83 83 85 88 89 101 113 125 125 128 126 128 128 130 122 117 117 115 116 118 119 119 120 121 124 127 131 132 134 135 135 134 131 131 132 133 138 139 137 134 135 143 140 127 115 108 110 108 107 109 115 126 136 139 140 138 135 136 138 151 158 161 156 156 155 151 149 145 144 129 115 126 137 142 132 143 122 63 58 78 96 85 71 63 63 65 75 98 70 35 45 34 32 54 55 51 60 48 47 47 46 46 46 50 58 51 38 34 49 60 
179 178 178 179 177 176 172 172 169 164 164 159 156 151 148 136 104 96 108 115 104 99 109 125 140 139 136 111 110 105 89 68 63 63 64 64 69 82 81 66 60 54 52 57 62 78 97 117 114 93 89 90 91 90 82 81 81 81 78 79 80 81 81 81 82 85 87 88 89 90 90 89 88 88 89 90 92 95 93 92 96 98 93 86 80 74 74 72 71 76 78 86 103 114 117 111 106 112 120 126 136 138 123 108 102 98 96 92 91 86 80 90 91 91 85 85 91 104 104 120 127 124 121 117 102 84 78 84 80 56 60 56 49 60 64 60 60 47 52 54 53 56 48 53 70 71 63 55 54 61 
144 141 142 145 151 152 147 146 143 138 138 131 125 122 123 119 116 104 106 116 114 108 104 107 123 124 114 79 73 74 72 68 65 66 66 69 76 69 48 23 21 28 33 34 30 27 44 83 128 115 81 75 74 76 72 77 79 80 78 78 79 80 80 77 75 76 78 78 77 78 77 76 77 77 78 79 78 77 80 82 81 82 87 91 92 87 80 79 77 77 81 99 107 93 70 53 47 53 63 63 77 116 140 106 75 71 71 68 68 67 68 70 71 70 70 65 101 172 181 185 186 190 177 177 167 159 154 149 148 150 145 135 124 120 121 114 114 113 117 113 112 107 98 97 105 108 103 100 92 83 
123 121 124 125 130 130 131 132 133 133 137 135 132 133 136 132 133 130 119 127 133 132 135 134 128 110 91 61 55 55 59 65 64 65 63 67 65 36 28 39 46 57 60 57 53 48 38 37 83 128 81 61 60 64 59 63 65 64 64 64 65 66 66 66 65 66 68 69 68 67 66 66 68 69 69 69 69 69 69 70 69 69 71 74 75 71 68 68 68 63 72 84 68 45 31 34 37 38 37 31 31 48 82 104 87 60 63 59 59 58 58 59 59 59 52 55 109 185 185 188 191 196 193 194 191 189 188 187 182 178 174 171 168 166 165 165 164 163 164 161 161 161 159 156 155 153 145 142 141 136 
111 114 120 121 120 122 127 126 127 126 130 129 127 132 142 138 135 133 131 129 135 137 145 138 96 58 51 47 45 49 54 57 56 55 56 53 37 28 43 58 69 88 92 87 80 73 61 47 34 65 69 51 49 52 49 51 53 52 52 52 53 53 53 53 54 55 56 56 57 57 57 57 58 58 57 56 56 58 58 56 56 55 54 53 55 52 50 51 51 55 61 44 29 33 47 55 61 63 59 58 47 27 19 55 94 96 92 92 92 90 90 91 90 88 69 61 80 120 131 150 158 159 160 165 158 153 153 157 158 157 156 155 158 157 156 158 159 158 159 159 159 161 164 166 166 165 163 161 157 154 
115 114 116 116 111 108 111 110 117 118 120 113 115 114 113 117 116 121 122 121 124 130 135 128 84 43 40 39 38 43 47 47 47 44 48 38 31 46 55 76 98 99 94 95 93 101 94 70 45 32 50 50 48 48 46 47 48 49 48 49 50 50 50 50 50 50 50 50 50 51 52 52 52 52 52 52 52 51 51 51 50 51 51 50 51 49 48 49 52 50 43 34 39 50 58 80 98 103 105 82 64 55 37 24 45 62 60 62 61 60 60 60 58 57 49 43 42 51 56 116 150 150 147 142 137 135 135 134 134 134 136 137 136 130 128 130 129 127 130 131 134 134 137 142 140 138 139 135 134 133 
106 106 104 107 101 100 112 112 113 115 115 107 114 106 96 99 103 108 112 114 115 130 132 127 103 53 33 32 32 35 39 40 41 41 44 29 32 51 56 101 106 84 110 118 96 85 112 78 53 35 38 47 42 41 40 40 41 42 42 43 44 44 44 44 45 45 46 46 45 46 47 48 45 45 46 46 48 46 45 45 46 47 46 46 45 43 43 44 49 45 33 36 52 60 82 121 125 122 132 121 98 76 57 30 24 46 44 48 47 47 47 48 46 44 41 35 34 34 42 116 154 154 147 139 135 138 137 131 128 123 125 129 127 132 129 122 121 119 125 126 131 131 134 139 137 134 133 127 117 114 
126 125 124 124 124 127 123 119 118 120 125 127 129 125 116 113 112 111 116 124 125 127 122 115 117 102 50 38 36 37 39 37 37 44 42 24 34 54 70 97 98 170 170 161 169 118 91 112 61 50 35 37 34 33 32 32 33 34 35 35 35 35 35 35 37 37 37 36 35 36 38 39 37 36 36 36 37 37 36 36 35 34 35 35 35 34 34 35 37 35 29 45 57 94 121 117 131 136 127 108 124 102 69 47 30 38 48 45 46 47 47 47 44 43 43 46 46 56 75 124 138 142 139 135 132 127 123 122 121 116 116 117 114 111 111 110 110 111 116 113 113 114 113 115 112 114 121 131 131 129 
160 160 163 165 162 162 158 148 141 148 151 157 159 159 150 143 145 144 143 138 137 142 132 127 127 121 69 48 47 47 47 44 45 46 40 23 36 54 79 89 125 191 163 151 167 158 107 124 68 55 37 34 37 36 36 35 34 35 35 36 36 36 36 36 36 36 36 36 35 34 34 33 35 35 35 35 33 33 33 33 32 33 34 35 35 34 34 34 34 33 32 50 63 114 96 155 165 168 161 133 96 115 75 56 41 32 42 40 41 40 40 41 40 47 58 79 75 98 117 114 117 120 121 125 122 111 106 110 113 111 110 107 107 109 108 107 111 113 110 104 104 98 103 102 97 101 106 114 124 126 
160 164 165 170 171 168 167 161 154 155 148 156 154 156 154 151 155 156 158 148 144 147 143 141 141 135 104 87 89 76 77 86 85 75 66 44 44 53 80 98 131 216 187 160 199 165 100 122 65 52 34 30 37 37 37 36 35 35 36 36 36 36 36 36 34 36 38 39 36 35 32 32 34 34 34 34 34 35 36 36 35 36 38 39 39 38 38 40 38 30 35 52 71 121 129 188 158 185 175 173 95 108 60 54 56 60 59 58 55 52 62 81 86 97 102 104 107 117 118 117 118 109 104 110 115 116 116 113 103 104 110 108 105 105 108 107 108 105 96 87 90 89 84 86 85 84 88 87 92 94 
141 148 149 155 156 156 156 156 151 148 143 147 147 150 151 150 150 149 148 142 141 141 139 136 136 133 128 122 114 103 105 103 99 92 86 71 55 52 75 112 118 209 225 207 215 134 97 104 60 49 32 25 31 31 32 32 31 30 31 30 30 32 32 33 34 34 36 39 38 36 34 34 34 33 34 35 35 36 35 37 35 35 37 39 39 37 34 38 37 28 33 52 75 122 131 198 174 193 191 185 101 107 60 53 67 92 100 105 105 112 122 147 152 155 153 154 154 155 155 153 155 155 150 154 156 154 148 146 138 137 142 139 138 142 140 139 134 133 128 122 121 119 111 115 118 115 116 114 113 114 
112 117 124 138 138 130 130 126 113 108 113 113 111 114 111 115 116 113 112 111 110 106 103 102 99 98 96 95 94 84 82 78 76 70 69 68 58 47 57 97 123 115 124 138 124 119 108 65 51 38 26 29 36 36 35 34 33 31 32 31 33 36 34 34 38 39 40 39 41 41 41 41 42 42 43 45 45 45 43 45 46 45 46 47 46 43 38 40 43 34 29 49 70 121 115 166 231 232 217 152 123 103 57 52 65 98 109 121 126 133 140 147 148 154 157 158 156 160 167 166 169 175 172 172 167 162 155 156 157 157 155 153 155 155 154 157 157 160 152 147 150 153 154 161 157 148 141 148 152 156 
113 113 118 124 120 114 115 113 104 102 108 107 106 105 100 103 105 99 101 98 92 90 89 89 88 84 81 79 78 76 74 67 67 65 61 60 57 43 49 72 101 114 111 110 111 106 80 55 43 32 28 33 34 35 35 32 31 32 36 37 37 39 38 38 44 49 54 47 41 39 38 39 41 40 40 41 40 40 39 42 43 41 40 40 41 41 39 39 42 39 32 42 64 107 130 135 168 169 147 133 129 81 52 56 70 93 98 111 114 118 127 135 135 139 144 143 145 155 158 159 159 161 155 152 152 151 149 151 149 147 144 140 144 141 137 139 140 151 151 148 150 150 151 155 151 144 134 138 143 146 
107 108 108 105 105 106 106 106 106 105 105 103 102 101 100 100 101 99 96 93 91 90 87 84 81 77 73 71 67 64 60 56 54 50 44 43 40 34 32 44 55 74 83 88 79 63 50 36 31 29 31 32 31 34 35 33 34 34 35 35 37 41 41 43 44 43 45 42 44 44 45 46 50 49 47 46 46 48 50 54 54 52 50 50 53 54 52 52 51 51 47 43 45 69 97 121 147 145 140 109 73 55 52 66 74 81 80 87 90 90 95 108 102 98 100 101 104 107 105 96 94 101 103 107 105 106 109 114 103 101 109 107 110 113 115 116 103 104 106 112 121 123 133 134 130 130 125 122 127 127 
108 108 108 108 107 107 108 108 109 109 108 107 106 106 106 106 107 106 105 104 103 102 99 98 96 94 92 90 88 85 82 79 77 73 69 66 64 58 54 54 55 59 63 64 63 57 53 54 56 57 58 58 58 59 58 58 59 58 57 57 57 58 59 59 57 57 57 57 57 57 56 55 57 57 56 55 54 54 55 55 55 54 52 52 52 50 47 45 44 42 38 35 35 46 63 80 92 93 90 70 53 47 50 61 65 71 71 74 77 77 83 92 94 96 99 101 103 106 107 104 104 107 106 108 106 103 106 111 101 98 106 103 101 102 102 98 97 97 92 97 95 97 105 102 97 102 104 102 100 100 
108 108 108 108 107 108 108 109 110 111 110 110 113 113 113 113 112 111 110 110 112 111 110 109 109 108 106 105 107 106 106 105 106 106 105 104 102 103 104 103 103 101 101 102 103 101 101 102 102 102 103 104 102 100 101 104 102 101 100 100 100 100 98 97 97 97 97 97 97 97 96 96 93 92 92 92 94 93 92 91 89 89 88 87 85 82 79 75 72 69 64 59 52 43 38 41 44 47 44 42 48 56 63 64 65 69 69 71 73 75 77 79 82 83 86 88 91 91 93 97 100 101 101 102 104 105 105 105 107 104 105 102 104 104 103 101 102 105 102 99 99 101 98 98 99 102 103 102 102 102 
