P2
150 65
255
174 180 192 195 191 175 157 153 160 178 186 167 116 134 150 169 148 134 105 138 152 166 183 210 215 188 190 188 197 213 213 206 209 204 203 208 212 217 215 212 208 172 174 198 194 192 194 212 216 211 200 200 204 202 194 199 167 172 124 131 154 182 175 158 187 193 205 207 201 210 221 222 228 237 245 253 255 255 254 252 247 246 246 247 245 245 252 249 246 252 253 251 250 251 253 254 254 254 254 254 254 254 253 252 232 172 176 168 166 199 191 192 224 251 253 251 251 252 237 207 188 135 150 193 216 173 141 117 126 129 157 117 95 78 86 154 89 63 88 125 95 67 132 171 182 164 153 145 146 160 
161 169 186 198 175 161 169 167 189 195 201 196 175 163 163 173 168 175 167 182 198 171 161 174 203 172 173 166 171 186 192 188 196 194 178 193 207 211 206 194 191 196 195 176 178 180 173 178 200 210 203 206 206 200 191 206 204 198 180 178 183 188 177 186 182 194 200 205 202 206 221 219 228 245 251 252 254 254 252 249 238 236 240 241 244 243 242 240 239 243 250 250 246 248 250 252 253 253 253 253 254 254 253 252 236 200 200 176 192 220 224 239 247 251 252 252 245 214 216 232 223 186 184 200 195 156 117 94 87 93 109 113 96 107 128 115 74 74 97 88 77 99 150 175 187 171 142 144 139 142 
158 167 185 186 166 169 185 182 189 204 207 208 205 191 180 189 197 190 192 186 196 194 194 169 172 176 203 192 191 190 194 193 197 194 179 192 201 212 206 205 205 215 203 151 162 172 171 170 193 208 205 201 200 203 203 210 209 213 207 203 191 172 172 182 155 191 188 193 191 202 215 213 222 236 248 247 247 246 247 242 229 228 232 239 242 241 239 237 237 239 244 243 241 243 244 246 249 250 251 252 253 252 251 251 245 231 229 203 200 219 232 248 251 252 253 247 222 172 182 212 212 209 197 176 180 160 99 73 89 71 68 81 85 102 116 88 72 76 88 81 85 112 138 152 161 166 160 157 139 131 
172 186 191 197 171 174 194 183 190 202 206 194 198 201 190 190 200 189 196 188 193 195 209 207 198 206 208 210 205 200 198 182 193 211 215 218 216 210 205 214 217 213 185 126 122 122 146 174 187 204 204 175 179 195 206 209 212 208 205 213 212 194 172 163 171 181 193 196 160 157 183 192 207 221 233 232 233 238 240 237 236 230 223 231 237 234 233 230 234 238 236 233 240 239 237 237 242 245 248 249 247 240 236 238 239 230 232 209 198 209 219 231 233 246 251 235 218 209 209 217 218 218 189 177 189 182 119 95 107 81 79 75 89 52 67 81 86 76 73 67 89 91 100 133 162 168 168 148 120 142 
193 195 199 186 160 174 198 187 204 210 199 197 199 190 178 180 191 187 207 201 207 212 207 197 207 214 212 206 209 196 194 188 190 200 199 203 212 215 209 199 197 209 211 200 198 154 142 155 169 202 201 201 207 199 192 206 211 209 199 217 215 217 184 181 186 180 195 198 186 182 168 188 208 208 222 230 229 231 229 228 233 229 230 233 237 233 229 227 233 234 233 239 239 238 237 238 241 239 241 237 226 208 192 202 220 218 204 212 214 182 177 200 221 226 220 228 220 209 216 224 222 217 199 206 203 199 148 111 128 129 101 83 73 45 57 81 83 86 87 75 70 76 127 154 162 167 150 135 156 166 
173 190 207 201 191 199 198 192 180 180 181 188 179 192 199 196 190 180 195 183 188 192 188 198 196 205 217 204 206 213 194 191 195 194 190 198 203 208 203 202 199 186 193 199 203 214 204 187 171 192 205 215 224 220 210 220 224 220 210 209 210 214 184 174 190 184 178 182 187 186 187 203 216 219 227 231 233 232 225 223 232 231 235 235 239 234 231 233 236 239 240 239 229 227 230 235 241 234 230 229 211 164 144 171 206 212 202 208 203 191 188 181 185 195 198 219 212 200 208 211 206 210 197 210 213 203 191 182 176 182 171 147 122 99 124 145 159 153 142 78 72 76 110 130 148 149 132 127 138 152 
133 143 176 193 205 194 191 193 184 183 182 181 170 154 161 181 192 181 192 177 168 191 197 203 203 198 210 205 210 220 202 198 201 202 191 202 195 192 196 187 185 183 186 197 189 208 216 216 195 171 190 198 208 213 213 216 217 222 222 208 206 204 192 175 183 145 127 154 189 191 209 216 224 228 221 226 235 230 217 220 225 226 232 235 242 231 216 218 220 232 242 238 229 226 225 229 241 232 222 221 196 166 186 199 210 211 196 203 193 206 211 169 134 147 172 195 201 199 208 209 209 209 202 213 205 195 181 175 170 156 148 131 141 160 169 160 180 182 160 105 117 111 123 148 154 127 112 110 125 132 
164 154 136 148 186 183 181 185 163 169 189 178 180 138 136 151 191 180 180 191 178 186 191 197 210 199 206 205 215 217 214 218 217 215 213 212 197 201 205 180 167 189 196 190 204 208 208 221 215 199 171 156 167 183 187 191 199 204 209 213 216 214 208 194 183 154 142 146 184 200 204 205 217 219 212 222 226 219 215 220 213 213 223 231 237 224 213 213 199 217 235 240 241 232 228 215 230 199 174 190 166 150 188 202 204 204 204 200 197 201 210 199 154 111 118 117 133 166 177 196 201 207 210 211 202 190 160 135 102 76 73 65 93 149 169 149 171 175 157 143 144 146 157 150 125 111 105 114 123 107 
167 183 186 180 164 178 207 208 185 192 199 189 202 170 145 113 126 169 157 181 189 187 179 171 177 197 208 197 201 203 204 215 217 217 211 216 202 196 207 197 197 208 201 194 200 211 214 216 191 173 159 143 157 155 154 155 163 159 158 176 203 200 204 200 196 200 208 190 173 185 208 205 217 218 219 224 225 217 217 217 209 191 207 222 225 219 229 219 201 206 221 226 241 242 235 213 172 112 77 106 151 148 149 165 180 194 203 186 189 205 209 211 209 178 157 124 115 145 124 117 144 175 192 200 199 191 182 193 153 77 65 66 88 137 162 171 161 149 171 166 144 131 119 95 101 106 97 101 105 98 
193 195 185 189 197 192 189 199 197 200 204 197 179 176 158 125 120 148 158 183 186 181 195 194 187 201 191 200 206 199 202 213 210 208 204 216 206 203 209 200 197 189 194 209 207 198 195 178 141 128 124 123 133 134 150 134 142 141 142 152 165 168 165 161 156 176 210 211 196 186 195 196 201 210 215 211 208 209 213 211 210 198 184 196 200 192 225 221 211 187 183 184 198 210 169 118 90 76 71 105 153 156 131 117 149 198 201 181 191 212 214 210 208 201 186 191 184 178 168 158 140 119 141 169 187 174 144 170 183 167 128 98 89 133 163 163 167 156 165 129 79 99 130 109 132 114 76 77 89 92 
197 197 203 198 181 173 170 184 181 176 195 188 136 151 194 190 190 184 187 201 211 195 196 196 190 193 163 167 183 176 166 199 200 203 218 215 206 216 210 210 207 178 170 200 210 183 161 134 115 110 111 119 125 113 115 106 122 129 122 122 129 134 137 149 139 151 188 203 209 195 182 197 200 211 202 199 209 210 216 206 198 195 177 186 195 176 194 203 185 170 148 145 151 163 107 77 73 64 56 61 75 83 78 67 103 156 192 193 186 180 192 196 196 211 211 196 188 189 184 185 189 163 149 181 171 137 91 111 120 131 174 186 168 157 140 101 139 151 124 91 74 86 121 122 113 113 77 68 78 78 
201 193 196 200 185 184 177 178 180 170 185 192 149 148 160 185 194 149 150 192 205 190 181 193 190 173 180 189 192 180 175 194 203 209 216 195 195 215 214 214 209 195 193 201 207 198 170 133 134 127 134 134 133 117 108 105 118 122 120 114 122 137 148 149 148 150 183 203 209 203 201 203 201 203 196 214 230 205 187 182 183 178 173 174 165 163 154 171 180 152 137 131 120 112 79 71 71 62 52 50 40 42 41 47 69 100 155 197 192 172 173 194 193 200 207 198 161 171 159 167 199 199 188 195 181 180 156 130 152 147 170 201 203 169 86 44 89 89 79 93 85 73 82 87 88 78 53 60 61 55 
220 207 202 196 164 168 184 172 156 135 154 188 172 187 192 181 179 111 85 157 189 182 178 177 154 176 190 205 211 209 200 200 205 214 209 172 172 197 211 209 202 208 213 214 211 209 194 169 174 187 171 148 142 153 154 126 121 121 120 120 120 125 139 143 141 148 195 207 210 205 206 204 202 207 215 231 242 194 149 161 181 175 167 154 132 122 122 144 164 142 141 109 94 80 67 90 123 116 99 105 115 121 94 78 67 66 98 161 169 169 164 184 185 190 191 206 195 190 161 161 197 210 209 197 195 196 195 193 194 184 188 197 203 201 120 44 80 65 66 85 58 51 63 62 64 57 72 70 58 67 
192 194 211 200 184 171 183 183 111 65 94 170 155 164 202 200 181 151 131 157 192 200 198 170 135 157 181 194 199 209 200 197 199 199 197 208 203 186 185 180 169 199 215 217 213 210 213 218 205 217 204 158 155 182 197 142 119 153 150 128 118 133 127 130 143 163 206 210 208 213 206 206 203 206 218 219 220 215 204 190 187 188 168 145 106 97 88 83 91 107 99 78 61 65 71 120 155 165 186 191 213 203 202 188 165 127 140 131 123 153 171 172 182 188 185 196 208 202 189 201 203 194 181 179 183 185 186 162 148 181 192 192 194 203 177 102 103 113 95 81 62 80 97 61 49 59 92 81 70 83 
184 190 196 179 187 195 173 158 141 101 116 162 153 181 193 197 208 177 185 196 192 193 205 186 145 149 161 166 156 180 170 186 203 199 203 217 202 179 190 188 181 192 199 208 213 220 224 224 223 235 225 191 174 174 170 160 140 183 157 128 121 133 119 120 155 180 205 211 210 214 197 189 205 206 170 126 153 190 211 202 184 164 116 87 76 92 121 115 95 86 89 81 74 90 113 123 98 149 176 167 193 195 198 203 200 194 186 181 172 178 191 200 210 207 201 190 198 187 168 177 196 197 188 185 190 182 189 184 178 162 163 173 180 185 191 168 143 86 79 121 121 116 110 104 110 108 91 84 60 54 
180 177 160 176 177 171 185 167 111 86 117 167 182 186 171 170 177 171 180 194 184 164 186 187 178 183 177 161 143 119 122 141 177 198 185 202 204 174 155 196 204 200 206 208 215 205 203 214 187 179 179 198 199 176 135 122 122 154 146 123 126 140 137 147 169 188 204 198 192 187 202 196 203 206 145 112 136 150 170 170 192 190 114 89 122 122 148 160 143 103 79 78 73 70 76 90 125 170 183 163 176 177 183 198 195 200 174 118 113 149 178 175 168 186 204 204 188 151 163 187 190 204 204 200 202 182 178 188 181 169 161 172 166 177 193 181 150 106 68 62 91 115 140 160 166 163 137 112 97 94 
139 134 134 152 165 159 181 193 114 66 92 123 136 153 141 141 141 135 151 157 167 171 187 181 185 177 160 143 136 125 126 158 174 189 186 184 196 196 169 170 181 203 207 183 188 207 195 159 135 125 133 155 200 201 156 121 113 120 156 161 154 156 144 133 143 167 197 189 168 162 193 202 210 204 127 120 160 170 160 157 176 182 108 79 156 167 162 136 98 84 63 59 55 53 53 87 129 145 143 126 175 171 167 185 199 182 171 150 145 150 153 153 123 124 178 189 137 92 139 189 191 174 180 203 194 189 177 170 169 176 157 149 143 145 169 194 170 131 101 63 55 64 117 131 147 152 148 142 138 132 
66 68 119 136 157 164 154 152 140 122 128 113 84 101 109 124 168 131 102 111 130 161 195 191 206 178 178 168 160 152 134 153 165 161 171 182 178 169 150 150 170 185 193 188 188 201 194 153 125 115 124 140 168 186 166 144 125 125 157 194 196 164 130 103 119 157 190 210 182 167 187 193 189 188 130 116 149 178 177 178 189 179 111 103 139 119 95 107 60 54 48 45 58 72 94 132 162 159 141 140 130 132 109 145 165 158 155 134 123 152 151 160 158 139 141 153 121 68 91 106 122 126 124 151 144 158 165 159 145 135 136 126 126 139 132 121 137 120 90 76 89 101 103 97 111 120 118 112 91 77 
49 49 61 76 115 116 94 85 78 85 109 93 79 125 149 122 108 90 86 104 144 150 168 168 201 199 195 215 223 177 175 188 177 150 154 168 153 131 111 146 170 174 179 189 182 142 137 156 132 127 125 135 165 171 137 123 119 124 140 171 185 147 122 120 125 145 159 188 193 160 136 135 142 142 122 144 169 158 157 165 185 186 136 115 169 98 87 98 80 57 49 54 63 73 82 97 94 92 85 101 104 90 80 78 71 66 66 63 75 78 81 90 93 102 101 108 105 72 61 48 50 70 81 91 85 85 98 96 96 92 88 99 105 108 101 90 70 57 59 69 82 87 83 85 87 84 77 73 75 76 
37 39 46 46 89 126 127 104 88 96 102 65 62 85 103 84 71 68 67 119 185 178 166 154 154 167 186 205 197 167 149 167 196 166 136 133 112 82 82 124 139 123 114 126 123 109 111 130 129 133 140 143 125 111 113 116 124 120 121 126 147 136 135 149 145 132 150 171 165 133 124 139 154 137 143 180 178 134 145 161 169 188 170 122 106 83 78 101 71 58 54 56 61 64 74 60 54 51 48 69 69 69 70 55 46 37 43 50 50 56 65 67 62 80 88 96 99 81 62 49 49 52 47 48 49 52 54 52 54 57 58 76 81 88 114 144 124 114 108 117 120 115 104 98 89 81 67 64 63 60 
72 70 62 65 84 122 161 152 149 157 119 99 90 90 98 87 101 110 93 151 235 233 212 167 126 139 156 185 180 195 173 149 175 165 134 118 99 82 78 105 119 102 87 88 87 105 108 101 107 111 110 113 112 91 97 109 129 121 125 130 155 151 152 157 152 131 145 156 133 135 153 145 146 149 154 172 158 136 127 138 177 185 184 163 101 78 68 65 66 56 56 62 65 77 97 63 51 47 42 57 61 56 54 55 54 49 46 36 36 52 61 55 43 53 63 76 87 73 59 75 81 89 85 58 57 60 58 62 78 99 78 78 95 100 140 168 163 163 154 141 144 145 137 130 109 81 64 67 57 49 
120 107 101 108 99 124 169 154 155 157 151 159 150 127 145 129 100 104 117 188 243 245 242 234 203 179 171 184 182 180 183 179 171 154 142 128 109 96 89 107 119 106 93 80 78 95 103 102 97 93 107 101 101 104 89 82 111 113 122 125 119 116 129 133 146 156 147 129 127 141 137 119 121 125 98 95 111 131 111 110 136 130 143 174 91 69 69 64 52 58 72 83 83 78 71 57 45 38 35 38 49 43 39 41 48 60 52 28 25 23 28 53 57 65 66 47 49 56 59 67 60 57 68 65 61 63 58 53 97 141 116 110 112 98 116 123 132 143 132 119 139 146 137 120 112 90 67 68 64 57 
105 100 102 107 99 106 106 96 100 93 87 102 112 94 100 111 96 91 102 141 177 200 211 211 200 179 155 139 121 100 101 109 110 107 102 95 94 109 109 105 116 96 77 77 84 106 100 94 93 93 111 126 121 107 121 102 102 103 115 111 121 112 114 122 158 198 184 148 133 143 151 155 138 130 103 85 90 85 77 71 71 88 150 200 145 88 70 53 43 41 46 64 69 63 52 43 37 35 32 32 32 32 29 27 34 39 31 20 19 17 19 32 38 39 45 32 26 22 22 25 25 26 37 63 67 80 70 61 60 71 74 70 80 87 93 88 95 116 132 143 149 147 123 95 87 73 65 62 67 69 
48 45 47 44 63 101 92 86 90 88 82 63 59 62 69 82 97 141 150 165 165 184 189 198 196 194 177 136 112 89 80 69 69 76 69 68 88 143 157 133 120 95 71 72 88 114 110 104 100 102 106 120 143 139 137 119 110 102 121 135 139 123 128 128 142 164 145 134 139 142 164 179 175 163 123 82 75 74 64 64 63 54 83 127 115 63 53 52 53 44 48 62 62 60 54 41 35 36 35 31 28 29 30 28 29 31 30 21 19 19 22 29 29 27 25 27 31 33 28 23 24 27 26 29 38 52 52 56 53 61 68 62 72 76 78 74 78 90 104 107 108 114 105 100 86 76 62 61 62 63 
66 68 67 65 90 108 95 94 98 94 91 68 66 88 107 100 97 141 160 190 183 188 191 191 180 191 189 150 129 103 101 106 113 81 82 78 89 139 158 169 132 85 79 72 86 113 117 114 126 137 125 133 177 195 165 118 104 92 121 156 150 134 136 129 135 154 146 136 153 158 167 176 172 161 139 102 79 58 59 83 63 34 44 50 43 44 49 58 63 47 42 57 54 54 50 44 39 38 38 35 33 33 32 32 33 31 31 27 25 25 25 32 35 35 30 29 30 35 34 26 26 25 25 27 31 32 38 48 49 57 69 68 63 62 66 67 68 68 78 79 79 88 102 111 103 112 104 79 65 65 
98 105 105 99 91 84 97 101 105 104 95 75 62 114 191 169 137 145 113 148 182 190 187 189 192 199 174 171 152 134 147 170 181 120 109 114 125 187 207 169 112 53 68 61 80 105 117 132 149 150 150 153 155 149 150 130 122 114 121 123 128 138 132 132 133 137 130 136 174 181 164 148 125 120 133 136 90 40 53 89 63 44 49 56 48 48 53 48 44 44 38 50 51 49 47 44 39 34 33 30 36 35 35 37 35 35 35 32 34 38 34 33 38 43 40 37 34 30 28 33 36 38 36 31 43 54 52 58 51 47 51 43 49 58 54 58 56 52 64 72 73 79 92 98 124 153 146 108 93 85 
82 90 85 82 75 73 84 86 93 95 88 82 81 122 162 151 148 156 135 127 137 145 140 154 165 163 148 135 118 124 100 101 118 131 127 143 167 196 208 176 112 64 73 92 99 105 100 93 94 99 77 69 85 99 119 141 136 115 128 133 141 140 123 126 128 125 127 135 146 154 148 142 139 140 148 151 118 79 88 107 96 94 94 99 96 91 88 78 76 79 81 84 79 75 72 68 66 64 60 56 58 55 51 59 58 45 45 39 33 36 37 25 27 36 38 36 32 39 34 39 45 37 35 33 39 38 32 31 47 59 63 45 52 65 56 60 60 52 58 63 65 71 84 91 88 93 90 92 99 86 
81 81 81 81 78 78 89 108 119 110 101 99 101 110 113 101 91 109 108 108 91 87 92 108 114 112 104 102 98 110 96 91 92 99 98 114 125 131 140 145 127 101 104 105 105 107 109 106 108 114 112 116 123 129 141 148 143 132 128 141 146 150 142 144 138 119 119 115 115 122 118 118 120 120 120 120 122 115 114 113 112 111 111 111 111 110 111 110 110 109 111 110 108 108 113 114 112 109 108 109 109 107 106 108 106 99 93 84 70 42 37 27 32 41 38 39 28 27 37 37 33 32 40 39 35 28 27 31 41 48 62 59 50 55 53 54 56 48 52 56 59 58 71 75 70 74 70 66 70 71 
90 92 98 90 80 81 84 108 129 120 105 109 107 113 120 121 107 105 104 104 103 104 106 106 108 110 112 111 114 113 114 113 115 115 118 117 121 123 127 131 129 128 127 115 112 122 130 133 142 150 153 153 155 156 160 157 151 146 133 154 150 161 153 135 112 95 100 108 126 134 140 140 144 141 118 112 113 111 103 99 99 99 98 98 98 97 98 96 97 98 100 99 100 102 109 114 105 102 101 101 100 101 102 101 102 102 105 119 117 69 43 37 31 35 36 42 39 38 38 35 29 28 33 35 34 26 35 45 37 36 51 53 41 49 44 35 40 40 43 51 58 58 59 63 63 69 72 69 73 73 
125 122 131 123 101 100 91 95 126 129 122 115 113 111 112 122 125 123 119 117 117 118 119 122 124 124 124 125 123 126 128 129 130 127 126 133 137 140 142 144 143 147 145 133 134 145 153 158 158 160 159 156 159 166 168 169 162 165 147 160 158 154 122 94 96 112 142 171 189 191 193 193 194 189 155 143 125 121 107 110 109 109 109 108 107 108 109 109 110 110 110 110 113 116 116 120 105 106 107 105 105 106 106 107 107 108 110 126 136 111 64 44 42 29 25 30 37 48 43 31 37 51 39 33 28 31 38 45 49 35 36 34 37 49 48 40 43 49 47 44 48 58 61 58 56 62 75 77 74 77 
125 112 107 110 113 107 103 97 122 144 141 121 105 112 114 114 114 116 125 127 121 121 124 126 130 131 133 137 139 140 142 144 145 145 148 150 151 153 153 156 156 154 155 154 155 160 161 161 165 165 163 162 164 163 170 174 171 173 158 155 134 109 102 109 150 190 200 204 204 204 204 204 205 198 171 156 129 131 115 117 122 123 124 124 123 123 124 125 125 126 126 128 128 131 126 132 112 118 119 120 121 121 122 123 122 123 123 124 138 148 115 50 43 40 33 35 38 39 37 30 28 37 40 28 24 30 35 36 31 25 34 41 46 56 65 57 49 50 58 56 54 58 70 70 67 79 86 80 76 75 
141 129 118 123 136 127 112 108 103 129 147 141 120 136 127 112 107 111 115 137 142 145 144 147 149 147 148 151 152 151 151 153 156 156 157 153 153 154 154 159 157 160 160 158 157 161 165 169 174 177 177 178 178 174 170 166 156 159 135 113 107 104 138 184 206 208 213 216 216 217 216 216 215 207 190 170 136 137 122 128 136 137 139 141 142 143 143 143 144 145 146 147 146 148 142 145 124 132 135 137 140 141 142 142 142 141 143 141 143 158 150 84 47 38 37 39 39 39 43 53 46 40 47 38 39 48 42 34 35 47 53 44 55 62 57 49 52 51 66 83 82 85 92 96 100 107 121 113 107 104 
118 114 106 105 113 113 103 103 94 118 153 151 131 108 102 94 92 97 96 107 122 150 156 155 159 157 157 156 157 156 153 157 158 158 155 158 162 164 165 164 162 163 164 165 165 166 169 170 172 175 177 176 175 158 126 118 119 123 105 106 93 88 165 216 214 209 214 218 218 219 219 219 219 214 205 181 142 146 134 140 149 150 154 156 159 160 160 161 163 164 164 164 165 168 160 156 141 143 151 154 155 158 160 161 162 162 164 167 161 172 176 133 100 91 88 79 73 74 74 74 67 56 57 62 52 53 47 43 45 54 50 50 60 68 65 58 67 76 85 102 113 122 125 126 126 126 130 132 140 149 
135 137 140 141 145 148 152 154 161 175 184 174 170 114 91 93 89 88 81 86 95 113 161 175 176 178 180 178 177 178 175 176 179 179 175 178 180 181 182 181 180 180 179 178 174 161 157 156 157 152 153 148 141 124 102 101 109 111 116 106 68 57 130 176 175 176 178 178 177 177 178 178 177 176 177 162 155 160 148 147 153 155 159 162 163 164 166 167 168 169 169 168 169 171 169 168 165 157 161 163 165 168 170 171 171 171 173 175 174 186 191 169 147 148 151 147 141 140 138 135 129 118 110 112 107 102 100 97 99 101 101 100 98 106 101 101 102 108 110 96 101 104 95 102 133 139 147 152 161 168 
229 230 228 230 233 236 236 239 241 241 244 221 188 145 85 78 74 85 86 81 81 79 136 193 200 201 204 203 202 203 205 205 207 208 208 208 207 209 208 207 202 194 183 160 145 126 121 118 110 103 103 106 113 119 128 133 137 137 141 141 134 132 142 150 154 157 160 161 160 162 165 167 167 170 172 177 183 170 173 177 176 178 180 178 178 179 180 180 179 179 179 179 180 181 183 187 191 189 186 189 189 190 191 192 192 193 195 196 200 201 201 193 174 179 186 184 181 178 174 173 174 178 180 176 177 177 174 171 171 172 170 157 84 83 59 48 73 104 93 65 98 72 69 100 154 167 198 214 226 226 
234 233 228 231 230 230 238 240 239 238 238 228 172 167 107 73 65 80 140 133 110 78 86 133 141 147 151 148 147 148 148 149 151 154 157 162 160 158 164 160 143 113 103 94 95 100 107 114 119 127 128 125 132 136 139 140 141 137 140 149 144 141 149 152 152 153 154 155 156 155 154 153 155 155 156 155 153 140 148 150 151 153 153 152 152 152 151 151 151 152 153 154 155 154 155 156 156 159 161 161 161 160 159 158 157 158 158 158 159 157 157 152 149 177 193 194 194 192 190 186 186 188 188 186 186 184 183 184 181 179 176 154 129 130 110 99 95 107 94 62 80 77 154 161 157 151 186 212 226 224 
229 228 220 218 215 217 224 225 214 187 177 208 170 138 103 69 61 67 101 105 83 75 74 90 97 103 106 106 107 108 108 109 110 112 112 114 115 111 123 156 161 161 139 99 94 83 79 82 90 94 95 93 90 82 72 66 69 66 69 75 73 73 75 75 74 73 74 77 78 78 78 78 83 83 78 84 78 70 75 76 78 78 77 76 77 78 78 79 79 79 80 80 79 77 77 78 78 78 86 101 113 116 114 111 98 78 72 73 74 72 70 69 85 118 127 129 129 129 128 123 123 121 120 121 120 121 121 121 121 118 112 86 64 73 92 105 111 124 120 126 119 101 116 132 147 149 153 168 154 123 
145 145 164 186 197 196 196 195 192 185 183 186 145 105 89 67 63 63 66 60 62 79 85 62 64 92 97 98 97 100 101 104 106 105 105 107 108 106 121 169 192 195 138 66 55 57 60 58 57 54 55 61 65 73 80 77 50 44 43 51 50 51 51 50 48 46 47 49 50 50 51 51 51 53 50 54 50 44 50 51 52 53 53 52 53 53 52 52 53 52 52 52 51 50 50 49 58 77 85 80 77 76 76 84 89 98 87 54 50 49 50 57 85 104 101 100 100 102 101 98 96 95 93 92 90 89 86 84 83 82 82 67 33 36 63 91 80 70 77 108 99 82 83 121 138 126 109 110 67 33 
74 31 32 65 123 127 124 121 114 111 107 99 80 88 87 76 63 84 62 51 66 112 104 59 65 89 91 94 95 97 96 96 97 98 99 98 100 112 112 114 123 109 72 54 56 66 43 21 16 14 20 24 20 15 50 112 86 57 51 58 59 59 59 59 59 60 60 59 59 59 59 58 59 59 59 59 59 53 59 60 60 62 63 62 62 62 63 63 64 64 64 64 63 63 63 57 70 66 33 20 17 17 16 13 14 50 96 82 71 73 76 87 121 114 97 93 93 95 95 94 92 91 89 88 85 83 81 79 78 75 74 74 40 33 64 99 76 38 36 41 48 45 35 51 71 67 62 58 29 25 
50 43 42 35 24 40 55 53 54 53 57 54 47 53 54 57 43 61 55 54 62 67 66 71 80 83 85 88 88 88 87 91 92 86 86 88 88 88 98 99 98 94 89 83 64 33 26 30 37 41 43 47 50 42 24 17 55 104 98 112 114 113 114 113 111 111 109 107 108 107 106 105 107 108 108 106 103 96 113 118 114 113 109 105 104 103 102 102 103 100 96 94 92 88 88 59 36 29 34 42 47 49 48 44 34 14 20 71 99 106 110 109 108 94 91 89 86 90 88 83 83 85 83 79 76 76 78 77 73 71 70 67 65 53 34 22 20 25 38 41 41 26 15 18 24 26 28 21 20 25 
104 100 66 47 34 33 49 45 42 43 40 38 38 36 31 30 39 63 80 84 89 95 98 102 109 116 123 126 125 124 121 114 118 122 118 120 102 44 31 32 32 31 30 32 31 24 32 47 86 118 120 99 63 52 54 29 19 40 43 45 47 46 47 46 46 45 44 43 44 44 44 43 43 43 42 40 41 37 40 44 43 41 40 40 40 40 38 38 38 36 35 34 33 33 33 25 22 38 48 75 122 130 123 90 60 42 31 31 39 38 39 39 36 51 92 111 107 103 102 95 94 96 95 93 90 88 86 84 80 74 72 70 68 65 37 11 5 4 8 13 17 14 13 16 17 13 11 15 27 38 
154 162 110 72 40 33 35 28 20 17 19 24 26 21 14 26 48 60 65 67 72 78 81 85 92 98 103 105 105 104 102 98 104 110 103 103 93 58 39 33 30 22 20 27 28 31 51 100 160 196 202 194 135 58 55 56 22 20 32 33 37 37 39 39 38 38 36 35 36 36 35 35 34 34 33 32 33 31 32 32 32 31 29 29 29 29 29 29 28 27 27 27 25 24 23 16 30 48 82 163 218 228 226 186 124 54 59 61 39 32 32 31 37 80 123 135 127 108 105 106 107 109 109 106 104 98 95 94 88 80 78 77 71 67 44 17 7 5 5 5 6 5 6 9 7 5 11 21 34 41 
128 149 142 88 42 37 50 49 14 7 11 12 10 19 33 48 53 55 55 57 62 66 70 73 79 82 85 86 85 80 79 83 88 86 82 81 78 79 72 47 33 24 23 30 30 37 67 130 172 192 194 202 171 89 51 58 27 13 29 36 40 42 44 44 42 41 39 38 36 36 35 35 36 36 37 37 37 35 32 30 27 27 27 26 27 26 25 25 26 25 24 21 18 19 19 19 36 59 142 199 218 224 231 220 169 63 51 72 63 52 54 57 73 103 106 110 106 92 87 91 94 97 93 86 81 76 78 74 69 63 59 61 53 48 38 25 14 7 8 9 10 7 6 4 8 15 20 23 32 39 
145 129 98 72 36 30 45 44 28 26 28 30 35 47 58 61 63 68 74 78 81 86 92 97 100 103 103 102 100 98 97 97 99 97 96 97 95 90 85 75 66 56 52 44 40 36 56 112 147 167 166 165 132 71 45 47 23 13 20 26 28 29 30 30 28 28 29 30 30 31 31 31 31 29 30 29 28 28 30 30 28 29 31 32 32 30 30 31 32 29 26 21 15 14 14 18 30 50 106 167 188 195 199 186 143 56 53 94 102 103 103 108 107 106 109 112 110 106 98 93 92 98 98 91 89 91 89 85 82 78 77 78 70 66 60 53 42 25 17 12 11 11 13 21 34 41 30 21 30 34 
95 78 52 37 27 28 34 39 41 46 49 53 55 57 59 62 67 71 76 80 82 84 88 91 92 94 96 95 95 93 91 91 91 88 87 85 82 78 75 70 64 54 49 42 36 31 37 54 84 112 112 99 74 42 37 36 30 31 32 33 33 34 34 33 33 34 34 35 36 36 36 36 35 34 35 35 36 35 36 35 35 34 33 32 33 31 29 30 28 27 27 25 21 20 18 18 21 30 49 95 134 145 139 108 70 44 53 71 79 86 85 81 84 91 97 101 101 100 100 100 100 99 97 97 102 99 97 94 93 88 81 73 71 68 64 59 52 43 41 36 33 30 28 28 29 31 28 22 23 28 
57 51 48 51 57 62 67 70 71 73 74 76 77 79 82 84 86 89 93 95 95 97 100 102 101 102 100 99 99 99 100 100 99 99 98 96 94 91 88 83 80 77 71 67 64 56 48 44 47 57 57 53 45 44 51 56 62 69 70 71 73 73 71 70 71 71 70 72 72 72 74 72 70 71 71 71 71 70 69 69 70 69 67 66 66 67 64 65 64 62 60 58 55 51 47 43 37 35 38 44 59 65 60 48 47 59 68 72 75 80 81 81 83 88 94 97 98 99 99 100 99 98 98 97 96 95 93 90 90 88 84 80 78 75 71 69 66 60 58 55 52 48 43 39 34 30 28 24 17 18 
86 89 92 92 94 93 91 91 92 93 94 95 95 96 98 100 101 102 104 105 106 106 107 108 106 106 105 104 105 107 109 109 110 111 110 108 107 105 105 101 100 101 99 97 99 99 96 93 90 87 87 86 87 91 94 95 99 102 100 101 102 102 102 101 100 103 103 104 104 104 102 101 100 102 103 104 103 101 100 99 97 97 97 96 97 99 97 97 96 95 94 93 92 92 91 90 88 87 85 82 83 82 83 86 89 89 91 90 91 95 96 99 102 104 105 104 105 107 106 105 104 103 103 102 102 102 101 99 98 98 97 95 93 91 88 88 86 87 84 81 78 77 75 73 68 62 58 52 46 41 
102 101 99 96 92 92 95 98 98 98 99 100 100 102 104 105 107 107 106 106 106 106 106 106 106 106 105 105 106 105 105 106 106 107 108 109 109 107 107 105 105 102 102 104 104 105 109 114 112 110 111 110 108 105 106 105 105 106 105 105 106 106 107 109 108 111 108 108 112 111 108 106 107 109 110 110 107 105 105 105 106 106 106 106 108 106 104 104 103 103 102 102 102 103 103 102 102 102 101 99 101 102 102 102 102 100 98 98 98 99 99 101 102 104 106 106 106 106 104 104 105 106 105 104 103 104 104 102 102 103 103 102 100 98 96 95 94 95 94 94 93 92 90 89 91 90 89 86 83 82 
96 96 95 95 97 98 98 98 97 98 98 99 100 102 104 104 106 104 102 101 102 102 101 101 102 102 102 101 100 101 102 104 105 104 105 106 106 105 106 107 109 109 106 110 111 110 109 110 110 108 106 106 105 105 106 108 108 107 106 106 106 106 108 109 109 108 109 111 113 108 104 104 105 104 104 105 106 107 106 105 103 104 104 105 104 105 104 104 105 106 103 104 103 102 102 102 101 101 102 100 99 100 99 99 98 98 101 101 98 98 99 99 99 98 99 100 102 103 102 100 102 104 106 106 103 99 99 102 101 101 99 97 95 95 95 96 94 95 96 94 92 92 91 89 90 90 87 84 84 84 
98 98 97 97 98 99 99 99 99 99 100 101 103 103 101 98 99 100 99 99 100 100 98 98 100 101 101 101 101 101 101 102 102 101 102 104 104 103 103 104 105 106 104 105 104 103 103 104 104 104 106 108 105 104 105 105 101 101 102 102 103 105 107 107 106 105 105 104 104 104 104 106 105 104 104 104 104 102 103 106 104 103 103 102 101 104 105 103 100 101 98 99 99 99 99 99 98 100 100 100 98 95 94 97 96 96 100 100 98 98 97 96 96 96 97 98 98 98 98 96 94 94 96 99 99 98 98 98 97 97 95 92 91 92 92 91 89 90 90 88 87 87 87 86 86 83 81 80 80 80 
96 97 99 100 101 99 99 100 101 101 101 102 101 98 95 95 98 99 99 98 98 100 101 102 103 104 103 104 103 105 105 105 105 104 105 108 109 106 107 107 106 107 107 107 108 107 107 108 109 110 110 109 109 107 107 106 103 107 107 107 107 108 106 106 105 106 105 103 105 107 108 109 110 110 110 110 107 106 107 109 111 110 108 106 107 108 108 105 104 104 103 104 103 104 104 103 103 105 104 102 99 96 99 104 105 103 101 100 101 101 100 99 100 102 102 99 99 100 98 94 92 96 99 101 103 101 100 100 100 101 95 92 93 93 93 93 92 91 89 88 88 88 87 89 90 88 83 81 82 82 
97 97 98 98 97 98 100 101 102 102 100 99 96 92 93 97 102 103 104 104 104 103 104 106 105 106 104 105 105 107 108 107 109 111 111 109 109 110 110 110 111 110 109 109 111 113 111 108 110 113 113 110 107 104 108 110 111 112 110 110 111 112 109 107 105 106 107 107 110 110 110 110 111 110 111 112 113 110 107 107 111 112 110 108 111 111 112 109 110 108 106 107 107 105 105 107 106 104 104 102 101 100 107 105 104 105 105 103 103 102 100 100 101 103 103 102 102 102 99 97 96 100 102 101 100 101 100 98 100 99 97 94 93 91 90 91 92 91 90 90 90 91 89 89 90 90 86 85 85 85 
95 95 95 94 93 97 101 101 100 97 96 96 95 96 98 101 102 101 100 99 103 104 104 103 100 102 103 106 107 104 106 108 108 109 107 106 105 105 105 108 111 110 108 109 111 113 113 111 111 108 106 106 107 108 111 112 113 112 111 112 109 109 108 111 108 108 111 114 114 113 112 111 114 112 111 111 114 114 114 114 115 116 114 113 112 112 112 110 109 108 108 108 108 108 108 108 107 104 107 106 105 102 106 110 109 108 108 108 105 104 104 104 104 103 102 103 103 104 102 97 96 99 101 100 98 97 98 99 97 94 96 95 94 92 91 90 89 89 89 88 89 91 88 86 90 90 86 84 84 84 
92 94 94 94 96 97 96 95 93 92 92 94 98 98 98 98 99 99 100 102 101 103 102 99 100 100 102 104 105 104 104 106 105 108 104 104 105 107 107 107 107 108 108 111 112 111 109 109 108 105 105 106 110 112 112 110 109 110 110 109 105 106 106 108 108 107 109 112 112 111 110 108 109 108 111 110 110 112 114 113 114 114 112 111 112 110 110 110 107 108 108 106 106 107 105 106 105 105 105 105 104 102 109 108 106 107 106 104 103 102 101 101 101 100 100 102 101 99 98 97 95 93 95 98 97 95 95 97 94 93 92 91 92 92 92 93 92 93 90 89 88 88 91 88 88 87 86 85 85 85 
95 96 96 95 96 93 90 90 89 92 95 96 98 97 98 97 99 103 105 104 104 103 100 99 102 102 104 106 108 106 108 108 105 105 104 104 106 108 109 108 109 111 110 111 112 109 108 108 107 108 110 111 113 110 112 111 110 111 111 109 107 110 108 107 109 112 109 109 109 111 110 106 108 108 111 108 108 108 108 110 109 108 112 109 111 111 110 110 110 110 105 105 104 103 106 107 104 105 106 105 103 102 107 105 105 107 106 103 102 101 99 98 97 99 100 100 98 98 98 97 96 93 93 96 98 96 96 98 94 93 91 92 93 92 93 94 93 95 92 92 89 87 86 86 86 85 86 86 84 84 
99 99 94 92 89 88 89 91 91 92 94 96 98 99 98 101 103 104 104 103 102 102 102 104 106 106 107 108 109 104 110 111 107 104 105 108 108 108 110 111 112 115 113 112 112 109 107 105 108 112 111 110 107 106 109 109 109 108 107 109 109 112 112 110 110 114 112 110 110 111 113 110 112 113 112 111 112 112 110 112 114 113 117 116 114 113 111 111 115 114 108 109 110 106 108 110 106 107 106 108 106 106 103 106 108 105 104 104 102 102 100 98 98 98 100 99 98 97 98 99 96 96 95 94 95 96 97 100 96 95 97 95 93 92 92 92 91 92 93 93 91 88 85 86 85 85 84 84 83 83 
93 92 90 89 86 87 88 90 95 95 95 96 98 101 100 99 99 99 98 98 96 98 102 105 108 107 106 105 105 101 102 105 105 105 106 107 108 109 110 111 110 114 114 110 107 106 106 102 105 107 104 104 105 107 107 107 108 108 107 109 107 108 110 111 111 112 112 111 112 110 112 112 114 113 112 112 112 114 111 110 112 111 115 116 114 113 112 112 113 113 111 110 105 107 109 109 107 108 106 107 105 107 107 104 103 105 104 102 103 103 102 100 100 98 98 99 98 96 95 97 97 97 97 97 96 94 93 97 96 91 95 94 93 89 86 89 90 89 88 87 87 86 87 85 84 83 80 80 82 83 
88 87 91 91 92 94 96 97 95 95 96 97 100 100 97 99 102 101 99 98 99 101 104 107 108 108 107 107 105 102 103 105 107 106 108 111 111 111 111 111 109 109 106 105 104 103 104 102 102 105 104 104 105 110 110 107 106 106 104 107 107 109 110 110 111 113 115 115 111 111 110 109 111 109 108 108 108 109 107 106 106 105 106 108 107 105 104 107 107 106 108 107 106 106 106 105 106 106 106 106 104 103 105 104 102 104 105 105 104 100 98 98 99 101 98 97 97 96 96 96 96 96 97 97 93 93 91 92 94 94 92 92 92 92 90 87 87 87 86 85 85 83 86 87 87 86 82 81 77 78 
86 85 90 94 98 99 100 99 97 96 98 99 101 101 99 101 102 104 101 102 104 106 107 110 109 111 113 109 108 109 109 108 106 109 111 112 113 111 112 111 110 112 110 109 109 107 109 111 111 113 113 113 114 114 114 110 108 108 108 111 110 111 113 114 115 114 117 115 113 113 115 113 115 114 112 110 110 108 109 109 109 109 108 107 106 104 104 105 103 104 103 106 105 105 106 106 107 107 107 107 105 107 109 104 103 106 105 105 104 103 102 101 100 97 99 99 98 97 96 96 97 96 96 98 96 97 94 93 93 96 94 92 92 94 92 88 87 88 86 83 87 85 84 85 87 87 83 82 80 80 
88 89 96 99 99 98 98 98 98 101 100 101 103 103 103 102 101 104 102 105 106 109 109 109 107 110 111 110 109 107 107 109 109 109 112 114 115 113 112 114 113 114 111 111 112 113 115 115 116 115 116 118 117 117 115 109 112 115 113 115 115 116 117 116 119 119 116 115 115 116 117 117 117 117 118 118 118 117 119 119 117 117 115 114 114 113 112 110 109 107 105 108 108 109 109 110 110 109 108 108 109 110 111 108 109 112 109 105 106 105 104 104 103 104 102 102 101 101 101 101 101 99 100 102 101 101 98 97 95 98 93 93 94 92 93 92 91 91 89 87 88 88 87 86 86 86 86 85 84 84 
95 96 99 99 99 99 99 99 100 102 105 104 105 105 106 103 104 103 107 112 110 112 111 113 111 108 106 110 113 112 112 113 119 115 112 115 113 117 116 115 114 113 111 111 111 117 122 122 118 116 116 118 118 122 117 115 114 113 112 114 118 121 120 117 118 118 120 117 117 119 118 119 117 119 122 122 119 119 120 122 117 115 122 118 118 119 119 117 114 111 112 115 113 114 114 114 113 113 113 111 111 111 112 110 112 112 108 107 106 105 105 104 103 106 105 104 102 103 105 104 103 104 102 100 100 102 98 96 97 101 95 95 95 93 96 94 94 93 91 91 90 89 88 85 85 86 88 87 87 88 
91 92 93 93 95 95 95 95 99 98 97 96 98 101 100 96 99 102 104 108 108 107 104 105 107 105 102 107 108 106 106 108 109 110 108 109 109 111 110 112 110 110 111 105 106 114 115 119 117 113 115 118 116 116 116 115 114 111 110 112 112 113 113 113 114 112 114 118 118 115 113 113 114 115 115 112 110 111 112 113 113 110 113 113 113 113 112 112 112 108 108 107 110 113 112 113 111 112 109 112 108 106 108 106 105 107 108 107 106 107 105 103 100 101 104 102 102 102 102 102 99 96 93 96 99 97 96 96 95 95 94 92 92 90 90 92 94 94 90 89 88 86 89 86 84 84 82 81 82 85 
91 93 93 94 93 95 100 96 98 98 98 97 99 100 100 100 100 101 104 103 105 106 107 106 106 104 102 107 107 104 108 109 107 111 109 107 110 111 107 112 111 107 105 105 107 114 114 118 117 113 112 112 112 110 113 109 112 111 110 110 110 110 112 114 115 113 112 114 114 115 115 114 112 111 111 112 111 111 114 116 114 113 108 109 109 110 107 109 112 111 112 110 112 113 111 111 111 112 109 108 106 105 108 107 105 105 105 105 106 105 102 101 100 100 102 100 100 100 101 102 99 99 97 99 100 95 97 96 92 89 91 90 93 97 94 91 89 90 87 86 87 86 87 89 86 85 83 82 81 81 
92 92 92 90 90 93 96 96 97 95 98 97 96 96 96 100 102 103 106 105 101 101 105 104 105 103 101 100 101 102 107 107 105 109 110 108 111 111 111 114 111 105 103 104 110 114 110 111 111 115 110 107 108 108 110 108 110 108 108 109 109 106 108 110 112 112 110 110 110 112 113 112 107 109 112 113 110 110 110 113 108 108 105 107 107 105 100 103 108 109 106 104 105 108 107 107 107 106 104 103 104 105 106 105 103 102 101 101 102 100 100 99 100 98 101 96 96 94 98 99 99 102 101 99 97 97 94 94 90 87 90 90 95 98 91 91 90 88 87 88 88 86 86 85 85 86 83 80 81 81 
95 92 91 89 90 92 93 95 90 92 98 97 95 97 98 102 104 101 99 101 100 101 106 102 99 102 100 94 97 102 104 102 102 101 103 107 111 108 112 117 109 104 104 106 110 112 107 110 111 113 112 111 110 114 120 112 112 109 108 109 108 108 109 106 105 112 111 107 110 113 111 106 103 107 109 108 107 109 108 109 107 101 103 110 106 104 100 102 101 104 107 104 101 106 107 106 106 103 103 104 106 105 104 104 105 105 103 100 102 103 101 97 95 97 96 98 98 96 95 99 99 95 94 95 92 94 94 97 94 89 88 87 90 91 90 90 89 88 87 87 88 85 84 82 78 80 79 80 82 82 
