P2
150 65
255
38 35 34 34 39 39 46 49 49 50 51 40 26 37 47 51 50 62 65 66 59 61 69 85 78 71 85 80 75 91 117 99 105 108 93 139 149 82 77 51 41 41 40 52 75 80 101 132 141 148 169 149 123 94 80 73 86 90 96 111 113 124 156 155 137 94 94 93 92 90 101 97 90 102 102 104 128 167 197 177 158 169 147 161 209 208 194 186 178 178 185 185 210 188 158 151 149 146 148 152 153 153 151 144 143 149 150 152 151 149 148 150 150 147 147 145 145 147 149 149 147 144 146 144 146 148 145 139 141 142 140 142 141 138 136 136 136 136 134 132 131 131 127 126 127 126 125 125 124 122 
39 34 27 30 43 46 51 50 43 41 46 39 28 25 28 37 40 48 54 61 58 58 60 79 64 60 67 75 69 91 122 192 173 128 128 212 222 111 58 41 54 60 64 55 76 85 73 89 111 125 140 120 120 115 90 76 82 87 80 91 97 117 144 130 121 113 99 94 95 89 89 84 86 98 94 93 107 130 191 186 176 164 140 158 160 163 168 164 173 193 194 176 167 157 141 145 149 142 146 149 152 143 141 144 146 147 148 148 149 149 148 147 147 146 146 143 142 145 145 143 143 145 144 144 143 143 141 138 139 141 138 137 135 134 132 131 131 132 130 128 128 128 125 125 124 122 120 118 120 118 
44 45 35 28 34 42 41 44 39 36 41 40 34 31 34 35 35 39 42 44 39 52 53 52 52 53 61 64 68 75 107 205 213 175 177 221 224 122 49 57 63 54 50 48 54 67 56 58 80 96 135 137 115 121 111 95 87 81 73 82 87 104 134 116 106 120 107 87 84 83 83 83 100 110 95 103 128 119 156 146 141 140 122 131 137 132 144 135 146 180 175 161 152 143 133 142 146 142 148 147 148 143 143 145 145 149 146 145 145 146 146 143 143 144 144 141 141 143 143 141 139 142 141 141 140 140 138 136 135 138 135 132 131 131 130 128 126 126 125 123 123 124 124 123 120 118 117 116 116 115 
41 43 38 28 26 26 37 44 42 36 37 40 39 39 37 38 40 45 55 46 33 37 42 41 39 49 58 84 93 67 107 139 159 172 146 134 128 64 48 101 106 54 51 49 48 48 44 40 58 72 94 114 104 100 109 108 101 92 75 79 88 94 113 94 77 83 83 75 76 80 89 92 98 107 93 104 145 117 132 142 116 117 117 133 160 169 164 147 117 143 153 158 157 151 144 148 151 150 148 144 148 149 147 145 144 144 144 144 144 144 144 141 141 141 141 141 140 138 138 140 139 137 136 136 136 137 135 133 133 134 132 129 129 129 127 125 124 124 122 120 120 120 122 120 116 116 117 117 112 112 
48 36 28 26 33 35 42 41 42 38 40 42 47 41 38 38 42 43 43 50 47 46 44 43 44 48 55 65 72 67 65 76 96 119 90 98 111 51 43 65 69 53 52 57 54 57 58 49 44 50 69 84 87 94 106 104 95 90 90 90 88 90 92 83 76 79 85 89 82 87 105 102 86 92 88 90 109 112 95 94 99 104 124 175 193 204 198 149 128 135 146 145 161 156 152 154 156 157 154 154 157 156 156 157 158 157 156 155 155 151 151 150 150 149 148 147 146 146 146 146 144 142 140 139 140 139 139 139 136 137 135 132 134 134 133 131 128 128 126 123 122 120 120 117 115 116 115 112 108 106 
38 28 24 31 36 35 52 57 52 51 46 46 45 41 43 42 47 46 47 50 46 43 46 50 62 49 55 52 44 49 51 58 61 65 66 67 67 56 52 52 59 57 61 67 67 63 68 65 47 46 58 64 76 89 90 89 95 88 94 91 84 86 88 93 89 88 91 90 79 78 97 100 84 87 91 103 98 98 94 86 83 109 141 163 171 165 147 146 165 163 166 168 166 173 196 196 196 198 197 197 197 197 199 199 196 196 191 192 191 188 188 187 186 183 183 180 181 179 178 178 176 173 170 168 167 166 165 165 163 161 159 158 155 153 153 151 149 148 146 142 140 138 136 133 129 123 112 109 108 103 
39 30 28 35 35 32 52 59 47 48 46 47 52 43 37 42 51 54 55 57 57 51 49 60 71 55 51 55 46 49 57 57 54 59 63 55 58 60 51 51 51 56 59 60 60 63 60 54 48 50 43 48 72 76 74 77 89 86 85 82 77 75 75 81 75 75 76 75 74 76 86 102 90 83 86 112 98 91 103 86 85 100 117 134 149 130 120 149 162 172 203 198 185 186 167 168 201 222 218 222 222 206 180 181 203 228 227 226 225 226 215 186 183 203 211 207 211 209 200 185 186 209 214 212 211 210 208 207 205 202 198 194 191 191 188 186 177 175 182 185 184 181 178 175 164 140 110 109 112 109 
35 28 23 26 32 34 48 54 46 42 49 57 51 46 47 46 48 54 53 56 58 60 55 63 60 48 43 51 54 55 55 60 57 53 52 54 57 52 44 43 43 51 47 42 44 47 51 47 46 56 62 70 70 69 76 76 79 78 66 67 68 75 68 67 64 68 70 72 73 68 73 84 96 88 85 93 92 89 96 90 98 104 104 113 112 112 127 139 159 185 193 160 175 171 87 96 167 211 200 222 230 163 63 60 140 231 230 230 230 234 182 70 70 165 197 174 186 204 159 68 76 188 225 222 220 219 217 217 215 214 200 176 159 167 161 151 84 77 153 200 197 195 192 189 175 141 127 118 93 92 
33 30 28 29 33 37 48 52 54 47 44 43 40 39 40 39 45 51 52 54 51 43 42 51 49 50 49 49 49 46 45 48 49 48 50 53 55 64 63 65 68 67 61 50 50 48 48 50 45 50 68 79 72 77 80 76 77 73 71 71 74 74 67 63 66 69 69 69 61 56 71 81 80 77 74 78 83 79 76 91 104 100 93 96 103 110 115 137 174 187 166 145 165 151 123 124 148 184 197 222 229 158 56 56 142 231 230 233 230 233 174 57 62 178 196 147 161 212 157 51 66 191 221 221 220 219 217 217 216 213 193 156 115 132 163 142 52 45 150 201 197 196 192 188 177 165 153 119 90 83 
32 30 34 36 38 33 38 42 46 42 37 34 35 31 33 46 47 50 50 54 57 43 39 46 40 37 38 46 47 48 50 50 44 41 49 52 52 58 63 62 66 65 60 56 55 48 44 44 43 42 56 71 75 79 79 75 73 71 75 79 79 74 75 64 68 72 76 80 67 70 80 76 73 74 73 77 83 81 81 94 106 101 90 99 102 101 107 126 136 161 174 183 166 134 104 108 136 168 190 206 209 145 51 58 147 233 230 231 230 232 168 55 64 155 158 134 143 188 140 51 71 198 222 220 220 219 217 216 214 210 163 114 91 93 135 127 50 48 158 201 198 196 192 188 178 172 146 106 73 72 
30 31 31 30 35 28 21 30 41 37 30 27 27 25 33 40 41 44 43 55 56 51 45 47 38 37 35 38 37 42 46 44 42 40 45 44 41 50 59 58 55 54 56 56 57 44 39 47 53 66 63 68 74 78 77 72 72 67 70 72 71 74 76 67 72 76 70 77 83 87 90 83 74 74 81 79 83 88 91 91 93 90 85 88 91 89 107 120 137 143 150 164 156 138 102 109 152 182 193 207 204 140 59 69 155 232 230 228 230 230 162 54 65 157 156 139 150 178 130 46 73 201 221 219 218 217 215 214 213 208 146 96 89 91 125 110 44 47 164 198 196 194 190 186 178 172 153 103 66 73 
41 41 35 29 31 32 22 23 30 30 35 26 21 22 30 29 34 35 47 55 52 47 48 41 39 42 39 41 40 39 42 37 35 34 33 36 35 38 49 46 45 50 48 53 57 54 45 46 52 67 71 74 68 67 72 72 69 64 62 64 65 65 70 70 73 73 69 73 75 74 79 78 72 73 77 82 82 83 83 87 86 85 83 86 90 97 142 141 154 158 149 146 146 158 135 139 186 197 204 199 188 169 148 164 200 231 229 229 229 229 196 144 149 194 198 191 195 199 169 122 139 209 220 218 215 215 213 212 209 202 173 149 142 142 152 122 83 90 175 196 193 191 188 185 178 167 146 114 91 94 
38 49 44 32 27 27 19 14 18 20 29 26 26 26 30 37 40 40 48 56 55 50 35 28 31 40 34 42 49 48 44 39 35 27 25 33 31 30 33 39 49 60 60 53 47 46 45 49 49 54 70 72 68 71 71 67 69 66 56 58 64 71 73 76 74 67 65 67 70 71 75 70 70 73 76 85 108 106 85 92 91 90 96 98 104 110 124 166 177 185 187 169 180 163 154 161 209 216 218 210 210 212 214 229 229 228 227 228 228 228 227 226 226 225 222 222 221 219 219 219 220 219 217 215 215 214 213 212 206 198 187 175 157 159 172 185 180 175 180 186 188 189 187 183 178 175 161 155 138 120 
38 43 36 30 39 37 28 17 11 17 24 32 49 41 28 31 36 38 38 44 47 57 47 29 27 43 42 39 46 39 36 35 32 27 24 24 26 29 31 38 44 47 47 53 49 40 40 49 48 53 65 70 64 65 60 55 57 61 60 58 58 65 68 67 65 63 61 60 62 69 71 71 69 66 68 83 102 100 112 101 88 103 111 105 108 116 114 160 147 130 134 114 124 124 139 153 161 186 215 224 231 229 229 228 225 226 210 207 211 223 227 223 223 223 223 224 223 221 220 220 220 216 215 212 213 210 204 182 160 155 165 175 186 196 202 204 203 198 192 182 177 176 176 178 178 175 172 169 161 158 
36 34 32 32 47 46 41 38 16 11 18 30 51 49 28 38 63 62 57 58 50 50 32 22 25 38 38 29 30 28 29 30 30 30 28 24 25 30 34 45 50 55 56 67 68 49 44 46 48 50 55 63 65 63 64 62 62 64 57 58 54 59 70 70 61 57 61 66 64 65 67 76 77 78 76 80 91 104 105 97 103 131 114 111 115 123 116 117 105 92 92 86 89 92 97 105 101 111 127 157 177 175 187 209 222 223 213 169 159 186 196 177 188 220 224 223 221 220 218 218 217 216 215 208 183 156 141 147 169 182 194 198 200 200 200 199 197 196 194 189 184 177 170 169 167 170 174 170 168 167 
35 28 28 31 39 43 44 52 33 17 14 19 22 23 23 32 38 41 46 55 44 34 26 22 26 27 23 24 24 24 24 30 31 32 32 26 25 30 35 50 48 48 55 63 63 48 56 55 50 53 55 61 70 69 68 66 64 65 62 63 63 69 76 77 69 64 67 74 64 65 66 74 68 70 76 73 84 103 113 116 137 142 120 123 128 123 99 87 74 67 67 75 79 80 80 81 83 78 76 94 98 101 115 159 185 193 192 144 121 132 128 119 144 185 189 188 186 197 214 216 217 217 212 196 145 117 123 154 143 147 148 145 145 144 144 143 142 142 143 140 143 158 177 176 165 167 169 161 160 158 
27 24 23 22 33 37 33 30 39 35 18 15 22 26 29 35 47 56 59 39 28 27 25 25 32 27 20 21 23 24 24 27 27 27 29 30 27 29 34 40 45 54 58 70 72 61 63 87 86 81 62 64 72 67 61 61 60 64 75 77 72 62 71 83 72 76 75 75 60 63 74 73 75 71 73 84 100 82 60 100 138 143 136 121 119 113 88 86 73 70 76 75 66 64 71 72 81 77 70 82 81 93 100 109 117 124 125 137 144 124 101 86 95 112 110 96 89 146 211 216 214 211 205 191 160 119 126 133 60 55 85 90 82 68 68 62 65 77 77 71 85 133 180 182 175 175 135 88 80 79 
44 38 31 21 26 32 29 28 41 42 35 27 22 27 27 45 61 47 50 35 21 21 22 28 37 30 21 22 22 22 26 26 26 28 30 32 29 32 32 35 47 56 65 83 91 89 87 94 88 75 69 65 85 82 66 68 77 87 90 86 79 72 76 91 81 80 77 74 64 64 74 80 78 74 79 85 95 88 84 114 166 185 160 145 132 105 85 85 81 74 67 67 71 68 68 70 70 64 62 69 74 80 79 86 102 116 103 110 128 114 94 77 82 98 97 91 86 153 213 211 209 206 199 191 169 134 140 112 58 63 105 105 102 89 87 61 72 103 98 86 101 150 176 179 173 168 115 66 65 63 
74 69 54 52 49 48 59 56 51 51 47 44 28 26 30 50 69 36 31 29 23 22 22 29 40 32 21 21 20 24 24 24 25 27 30 33 32 32 34 28 36 51 65 97 106 113 118 110 87 81 84 72 91 99 82 78 87 87 81 73 71 72 74 78 78 80 74 70 63 62 72 76 79 85 99 100 98 95 104 105 142 167 151 142 141 107 86 82 76 70 68 69 69 65 60 61 61 60 58 61 58 68 78 104 135 139 113 92 96 92 82 73 79 98 99 103 100 161 201 195 197 197 190 187 171 143 147 111 89 83 126 121 122 118 110 82 96 122 115 99 114 161 172 176 167 161 126 101 91 74 
80 80 72 73 72 64 76 71 50 41 53 63 48 26 33 45 64 63 58 46 41 25 16 25 38 33 19 19 20 20 21 22 23 25 29 33 36 35 34 28 42 68 76 103 106 119 128 119 91 78 88 81 90 80 83 77 75 76 71 63 60 62 74 80 78 70 73 70 56 58 69 71 78 85 92 103 99 105 93 85 86 98 105 106 116 103 87 83 78 70 74 77 77 57 46 50 48 53 58 57 56 94 107 136 158 140 112 94 92 86 79 76 87 108 104 98 102 145 168 188 198 185 173 178 169 154 152 109 107 96 144 154 146 140 126 98 113 104 86 92 122 164 168 173 164 156 135 108 78 66 
56 54 57 60 52 52 52 53 51 43 63 70 59 39 33 37 41 97 119 82 55 30 26 25 34 31 20 21 19 19 23 20 22 23 28 34 36 34 34 29 45 90 85 99 106 120 128 131 114 84 95 90 106 78 80 77 65 60 58 65 62 64 71 70 73 69 66 58 50 57 70 72 73 72 74 78 86 91 94 89 94 109 111 107 106 102 95 100 88 89 85 97 105 62 35 50 64 67 70 72 92 153 168 172 167 137 101 72 90 95 79 72 85 109 113 112 110 155 180 180 187 171 159 166 160 164 154 79 59 89 161 169 158 144 133 105 121 129 115 113 136 165 172 180 163 157 136 104 75 48 
47 40 43 43 40 42 45 45 46 52 52 52 52 42 25 38 41 71 110 118 107 89 81 50 34 38 36 31 28 25 24 22 22 22 27 35 37 38 34 30 43 94 89 81 93 114 126 132 129 90 95 87 78 68 83 75 65 63 59 58 54 56 66 65 68 81 65 45 38 54 64 59 66 67 67 71 76 75 79 83 108 126 131 124 134 120 100 103 88 94 103 104 100 96 96 112 125 130 137 142 150 162 169 161 147 117 104 84 86 93 90 92 113 141 150 145 148 167 179 153 130 110 110 123 139 154 146 77 64 88 162 173 165 153 145 140 144 145 139 136 148 169 171 176 157 151 143 131 116 105 
44 40 40 41 37 35 46 45 46 46 41 37 39 36 25 34 47 46 61 104 119 110 99 62 36 39 38 30 29 33 28 30 30 20 26 38 40 43 34 27 37 65 61 50 53 59 73 92 114 86 88 83 66 62 71 68 61 55 57 50 54 60 61 62 80 82 71 57 54 55 56 58 71 72 64 65 69 71 71 75 90 103 108 113 148 130 110 105 91 104 121 108 123 136 145 151 155 158 163 167 171 172 167 150 139 139 136 121 110 107 102 118 135 157 168 176 180 177 176 162 136 96 112 136 137 135 135 78 70 104 163 171 163 154 147 152 150 142 136 129 152 177 183 181 155 150 148 148 146 144 
31 33 36 36 32 29 37 37 35 32 34 31 30 41 37 27 42 51 48 60 74 68 46 42 44 39 34 32 36 47 51 60 63 45 55 63 60 62 44 24 27 32 32 31 33 35 38 50 78 75 65 60 58 55 61 62 63 56 60 57 60 67 77 96 115 111 85 71 66 67 81 94 98 109 94 71 68 70 69 72 80 91 90 97 130 134 130 97 89 98 89 103 120 124 127 130 134 136 139 141 142 140 139 140 139 134 127 121 115 124 123 114 124 151 162 164 166 167 165 160 144 106 116 104 100 106 120 120 118 129 129 128 123 119 117 124 120 115 113 104 126 144 145 142 139 147 146 146 141 137 
35 37 34 31 35 34 34 34 31 33 30 35 38 39 39 23 27 47 57 58 63 41 39 49 45 43 47 51 51 58 68 67 63 66 71 77 78 71 56 34 32 33 27 28 32 38 47 64 73 68 57 53 52 58 84 84 80 68 80 75 73 74 128 168 178 171 138 93 82 97 94 90 82 84 93 89 64 63 75 79 80 78 84 87 94 111 129 104 82 62 48 55 55 58 59 59 60 60 59 60 61 63 66 68 69 67 64 62 65 83 83 66 68 72 74 77 76 79 82 86 82 74 71 58 66 78 82 86 92 91 88 87 85 85 84 84 83 84 85 83 84 85 83 82 85 86 80 78 77 77 
36 32 32 31 34 39 36 39 38 36 43 42 43 41 42 34 45 57 58 64 67 57 53 58 52 53 61 60 57 51 58 61 59 60 61 62 62 62 63 44 36 34 33 38 37 42 48 56 58 60 59 63 65 68 75 69 70 68 73 75 76 83 104 114 115 118 112 82 75 85 100 94 78 75 77 91 84 71 73 77 71 80 88 95 100 94 103 110 102 89 88 90 91 91 92 95 96 95 94 93 93 94 95 96 97 97 97 95 97 97 96 96 93 89 92 93 89 91 91 92 90 87 86 84 86 91 92 92 97 99 101 102 103 104 105 107 111 114 116 118 117 116 115 113 111 103 80 71 70 68 
37 33 36 38 37 38 36 36 41 40 44 38 37 36 39 38 41 46 48 56 60 60 61 58 53 41 46 61 67 57 56 59 60 56 59 63 58 62 66 58 45 34 37 43 44 43 46 49 49 52 55 57 62 68 67 64 68 69 73 76 78 82 82 85 88 91 89 76 80 91 96 97 106 114 132 150 159 157 150 150 152 160 169 166 151 144 149 158 160 155 159 167 177 177 179 179 180 183 192 201 201 201 194 160 144 145 143 140 140 134 128 132 132 107 110 107 95 102 108 106 108 112 111 110 110 108 111 111 109 108 107 106 108 109 110 112 116 118 121 125 127 130 134 137 141 142 133 127 126 123 
39 38 36 34 30 33 38 37 40 41 41 38 37 36 32 33 36 33 37 46 56 52 50 53 45 34 35 47 64 72 58 59 59 61 64 62 60 60 64 65 51 39 39 40 43 44 45 48 50 49 51 51 62 74 72 72 73 73 74 75 75 75 80 83 86 90 87 78 82 97 101 94 124 169 212 202 186 182 177 172 169 167 167 164 168 219 234 239 206 140 122 119 119 115 114 115 113 121 147 208 250 247 246 184 113 74 72 69 69 69 68 67 67 65 63 63 63 64 65 74 92 119 124 122 123 121 120 121 120 118 117 117 118 117 116 117 116 115 114 113 111 112 113 115 115 117 122 128 134 135 
36 38 31 30 30 32 36 39 40 41 38 38 39 33 29 35 37 42 50 47 49 57 59 55 60 54 66 77 75 60 52 60 63 57 55 57 61 65 62 61 56 55 53 55 59 63 62 64 70 66 67 70 70 72 73 75 76 76 79 79 77 75 81 81 84 89 89 79 84 96 101 107 162 173 129 117 117 118 116 111 104 103 102 89 77 172 238 239 180 82 68 68 69 69 69 69 67 68 68 92 182 235 245 246 215 106 68 67 67 68 67 65 64 65 64 63 62 60 62 63 62 78 106 121 120 121 122 123 121 120 119 119 120 121 121 120 117 115 114 112 110 109 109 108 108 107 107 107 106 105 
30 27 32 31 27 30 35 34 31 32 32 33 34 33 31 35 38 42 45 45 46 48 50 55 54 49 52 53 50 52 54 55 58 60 62 57 56 60 65 70 73 75 73 72 73 76 72 69 70 66 69 72 75 77 76 77 78 85 82 80 78 82 83 83 81 85 90 89 91 98 153 169 145 125 113 116 116 115 115 115 111 98 89 96 93 161 238 239 204 95 74 74 74 74 74 73 74 74 72 70 84 172 245 246 244 211 139 76 72 73 71 71 71 69 68 69 69 68 67 67 67 67 71 94 112 114 112 115 115 117 115 113 113 116 117 116 114 114 116 117 118 117 114 112 110 110 111 110 109 107 
14 18 25 24 23 25 26 26 30 29 24 26 28 29 32 34 37 38 39 43 44 43 48 50 49 48 48 49 51 54 57 63 62 62 66 68 67 72 74 77 81 81 80 77 77 78 76 77 81 80 79 81 87 88 88 87 90 89 88 89 88 92 89 95 95 96 97 99 126 151 166 142 118 121 120 120 119 121 119 119 96 89 111 117 108 160 237 241 221 109 81 82 81 82 82 82 82 81 77 77 75 103 197 242 244 248 225 127 86 80 79 78 78 76 75 76 76 76 76 75 74 77 72 70 94 112 108 112 114 117 115 113 113 114 115 114 114 115 117 118 119 120 118 118 118 118 119 116 115 113 
25 28 32 36 36 33 32 35 41 42 44 43 42 45 49 51 58 61 59 57 60 62 65 66 69 70 70 70 69 72 75 81 86 83 78 71 71 73 74 78 80 80 80 79 79 81 82 86 86 89 88 90 91 94 92 86 88 93 95 93 93 90 97 100 109 105 112 141 175 144 131 138 127 131 133 134 132 131 121 100 91 116 136 132 122 161 237 239 234 126 95 94 94 94 94 94 94 93 88 86 87 88 112 214 246 243 248 219 147 88 85 85 86 85 84 85 85 84 84 84 85 83 84 82 79 101 107 108 109 111 110 110 109 108 109 110 109 110 113 114 110 111 113 118 114 113 115 113 111 110 
74 75 77 76 75 74 75 75 76 78 82 84 87 93 92 92 92 94 97 100 100 102 104 105 106 105 105 110 111 113 111 112 114 113 111 107 107 110 113 114 114 114 113 114 113 117 116 116 116 115 114 113 115 115 114 118 121 129 133 113 87 85 100 107 120 137 177 157 78 74 120 137 135 136 140 141 141 126 79 83 133 146 148 147 141 168 239 230 224 140 107 109 108 107 107 107 107 108 103 98 100 99 103 178 245 239 239 248 231 145 103 96 96 96 97 97 99 99 99 98 97 99 98 97 89 95 106 102 100 99 100 101 99 100 100 100 99 100 101 101 98 97 98 99 98 97 97 97 99 99 
103 105 105 103 105 104 106 106 104 106 111 110 109 116 117 117 115 113 114 116 118 120 122 125 124 122 123 126 127 128 125 124 124 123 123 124 129 139 138 137 137 136 135 132 133 139 141 141 147 155 168 180 191 199 206 212 215 220 218 186 129 109 106 110 157 181 133 97 64 59 98 128 131 131 133 135 132 113 94 115 139 142 144 146 148 181 240 231 230 183 153 157 157 159 161 163 167 171 173 172 175 178 185 223 248 240 239 245 245 231 209 190 187 189 190 192 193 194 196 197 198 197 198 200 193 196 174 129 126 127 123 120 125 128 126 126 125 125 126 128 127 122 123 124 123 123 122 122 123 124 
94 96 98 98 101 102 104 105 106 108 110 109 107 112 113 117 117 117 117 118 118 116 114 123 125 123 125 124 125 128 129 130 129 130 131 131 133 136 134 133 132 130 134 156 173 193 202 211 221 228 236 241 243 246 245 245 244 245 245 244 232 223 208 199 224 213 195 188 178 183 194 204 210 212 215 217 217 217 220 223 227 227 228 218 206 210 221 236 246 243 238 239 239 239 239 239 240 242 242 242 241 205 182 180 200 239 237 241 243 244 243 243 242 242 242 242 242 242 242 242 243 243 242 241 229 174 146 144 142 142 138 133 137 139 138 139 138 137 135 133 131 130 132 132 128 129 130 130 129 130 
89 91 92 92 97 102 111 114 116 114 113 109 106 107 107 110 110 111 112 114 117 119 121 125 125 126 127 126 126 129 129 131 133 136 137 134 134 136 133 133 140 170 195 225 236 243 244 245 246 246 246 245 245 246 245 246 245 246 246 246 247 246 240 245 244 244 245 244 241 242 242 243 245 245 245 244 242 241 243 245 246 245 243 191 135 134 150 220 248 247 246 245 245 245 244 244 243 242 241 241 236 155 105 103 148 232 234 238 239 238 237 237 237 237 237 235 235 235 234 232 232 232 232 232 222 146 120 169 167 167 166 167 165 165 163 162 160 159 157 154 155 152 154 155 154 153 154 154 151 149 
108 108 109 112 123 136 156 150 130 116 99 84 84 78 76 78 79 82 82 83 88 85 88 89 85 86 87 86 87 90 90 93 95 98 99 97 95 101 107 113 162 230 244 244 244 243 240 242 240 240 241 241 242 243 243 243 243 242 241 240 240 238 232 238 238 237 237 237 237 236 236 236 236 236 236 236 236 236 237 238 235 237 235 222 206 206 211 225 239 239 238 238 238 238 237 236 235 235 236 236 236 228 223 225 231 235 235 240 240 240 239 238 239 237 237 233 231 232 228 227 228 226 226 229 220 145 112 137 139 142 146 150 154 155 145 145 144 144 142 144 142 138 143 150 149 145 144 146 139 133 
144 122 109 100 83 80 78 77 68 52 48 46 45 68 75 73 75 75 75 78 82 76 76 76 76 78 78 78 78 79 78 79 79 79 78 80 81 82 85 127 173 224 237 236 235 235 235 239 243 239 234 229 225 223 224 227 232 242 242 237 234 234 228 234 234 233 233 233 234 234 232 232 233 233 233 233 235 234 234 234 233 234 233 234 234 234 233 226 233 233 233 233 234 234 233 232 232 232 233 233 231 234 239 238 226 192 166 138 127 119 118 125 138 178 209 234 237 229 227 228 225 225 225 225 222 197 149 103 96 96 97 99 100 100 105 98 95 95 97 96 95 92 96 101 97 98 99 98 96 97 
89 66 47 47 53 71 74 74 81 69 57 49 50 67 73 75 77 77 75 78 80 79 79 80 81 82 83 84 84 80 77 82 82 81 86 85 84 80 90 140 169 204 226 233 234 237 232 197 147 110 91 74 67 63 65 71 88 115 163 223 236 232 224 229 232 232 232 232 231 231 232 232 232 232 232 233 233 234 234 234 234 234 234 234 235 234 233 227 232 233 234 234 234 234 233 233 233 233 233 233 233 232 205 131 88 55 42 32 28 25 24 26 28 38 57 119 187 232 229 227 226 225 223 222 221 223 201 175 159 124 97 95 93 93 103 93 94 105 102 93 93 92 92 93 92 91 95 95 91 93 
54 39 37 40 65 86 79 72 76 77 56 51 54 54 54 71 77 75 78 79 80 79 79 80 81 81 84 81 81 79 77 79 85 95 101 105 92 85 118 180 200 200 214 229 233 219 153 61 25 19 24 28 31 34 34 30 25 20 38 103 199 237 218 218 224 222 223 223 222 223 222 225 227 227 225 225 228 228 229 229 228 227 226 225 225 225 224 216 223 225 225 225 226 225 223 221 221 221 221 222 230 192 97 41 31 31 32 34 36 37 36 33 28 23 20 18 73 202 221 207 205 204 202 201 200 199 200 201 197 154 102 93 93 94 94 93 90 91 94 95 94 93 91 89 86 83 87 89 88 89 
49 45 46 47 53 60 50 48 45 40 36 33 36 46 61 79 86 86 90 90 91 89 89 92 94 97 102 97 97 99 97 93 95 97 92 108 113 97 139 213 221 216 218 225 229 137 38 13 23 40 51 53 54 53 55 52 48 45 31 20 95 217 207 205 207 192 194 197 193 194 191 201 213 216 218 219 221 219 217 216 213 212 210 208 208 211 210 201 208 208 208 209 210 211 212 212 210 209 209 210 208 124 37 30 32 39 44 45 45 47 44 43 41 37 27 17 22 143 209 204 203 203 202 200 199 197 193 193 179 123 95 93 93 98 93 91 87 88 90 96 93 93 89 84 79 79 80 79 79 80 
38 38 34 31 31 28 27 25 24 25 24 32 48 79 96 106 119 125 131 131 134 137 138 137 140 139 136 140 141 137 135 134 135 139 137 134 136 124 118 171 191 193 194 204 190 57 16 22 46 53 43 50 65 85 73 76 53 42 44 34 38 128 200 205 213 212 216 216 214 216 214 215 216 215 214 214 215 215 216 216 216 216 216 216 216 217 216 210 213 213 213 214 215 214 214 213 213 212 212 209 187 66 24 32 42 42 45 84 99 91 105 70 43 40 40 21 10 110 192 192 189 181 172 165 157 152 152 160 159 130 125 126 129 131 129 129 131 128 125 124 125 125 120 118 122 123 120 121 119 118 
20 20 21 21 23 28 35 36 40 41 41 46 55 75 92 98 104 110 119 123 119 118 116 123 132 133 129 133 132 130 129 119 117 119 119 120 123 116 107 142 185 201 202 205 160 30 23 44 47 39 55 68 105 164 145 117 88 60 44 44 33 54 161 176 180 184 187 189 189 188 188 189 189 186 185 187 187 188 191 193 192 192 193 194 196 197 196 192 196 199 200 200 201 201 201 201 202 201 204 196 149 41 26 40 41 57 93 138 154 169 163 101 79 45 37 35 26 82 131 126 126 121 118 118 118 118 114 119 125 120 122 123 127 122 126 130 133 134 130 125 131 135 127 120 120 117 124 129 127 126 
18 23 35 40 48 47 47 48 53 57 57 56 61 77 103 93 88 94 98 104 107 100 89 101 111 111 111 116 112 106 104 97 95 95 97 99 99 98 96 115 153 182 186 191 144 44 35 48 40 42 72 88 159 220 219 183 109 70 49 42 36 26 86 101 96 103 106 107 108 106 108 109 107 107 109 110 111 116 123 124 120 118 122 122 123 125 125 126 124 124 126 124 124 124 124 124 124 121 122 121 84 33 34 39 40 79 91 166 219 228 206 134 99 71 37 41 49 72 87 91 94 92 96 101 102 99 97 98 99 97 100 104 106 106 109 116 121 117 108 101 111 115 104 98 95 99 112 115 116 115 
27 40 48 52 56 51 53 49 55 61 62 56 61 71 82 83 81 87 82 80 97 91 82 104 115 98 108 109 104 85 82 88 94 98 92 90 91 87 86 86 88 89 92 92 87 75 59 41 41 53 70 101 143 163 162 148 101 63 52 38 35 28 43 42 37 40 42 45 48 49 47 42 39 38 36 35 34 34 36 35 36 38 34 35 37 38 37 39 42 39 37 36 36 39 41 40 38 34 34 38 39 31 34 35 44 87 104 153 171 188 182 134 96 79 44 38 53 81 83 83 83 77 85 105 86 78 93 96 86 74 78 75 83 92 100 109 104 96 93 106 101 95 103 105 107 112 112 105 102 104 
21 24 26 30 33 35 40 45 50 54 61 60 62 65 69 70 70 77 77 78 83 89 94 101 104 98 100 102 98 97 99 96 95 97 99 98 98 95 95 93 95 92 89 80 77 70 61 37 37 50 86 109 127 158 156 103 87 71 51 36 31 32 34 35 34 35 36 39 39 40 42 40 40 39 38 37 38 37 38 38 40 41 41 40 40 42 41 43 47 46 42 44 45 45 46 47 44 38 33 28 24 19 28 30 38 95 121 119 161 175 168 154 133 72 41 42 63 76 76 81 88 96 97 98 94 91 92 96 93 90 94 88 84 83 94 102 93 89 94 103 100 100 98 101 94 91 94 91 102 104 
27 28 31 35 39 43 47 51 58 62 67 71 73 75 76 77 79 79 81 83 85 89 91 91 92 93 93 92 91 93 92 94 93 93 93 90 88 85 84 80 78 74 70 64 61 52 48 40 33 39 63 84 95 106 118 81 67 53 38 28 27 26 27 27 29 30 30 31 34 34 34 35 35 35 35 35 37 37 37 38 37 37 37 37 38 38 37 36 38 39 39 39 41 40 39 39 37 32 29 24 18 17 21 26 31 52 81 106 140 132 127 128 107 46 35 49 66 71 75 79 82 89 94 98 101 105 104 104 108 111 111 106 104 105 108 109 110 110 111 113 112 112 106 107 106 104 102 103 104 104 
54 55 58 62 66 68 69 70 76 78 81 83 85 88 90 90 92 91 90 91 93 96 98 99 99 100 99 97 99 104 103 101 100 97 97 96 94 90 88 85 82 77 74 71 68 62 56 52 42 32 36 46 56 62 62 53 44 33 30 31 35 39 43 44 46 46 45 45 47 48 50 50 50 50 50 50 51 50 50 50 49 50 51 52 52 51 49 49 50 50 50 51 51 49 48 48 48 45 44 41 38 35 30 29 28 29 35 53 67 77 70 49 39 32 39 53 57 61 64 68 72 78 81 84 89 93 95 100 103 104 104 104 103 105 106 107 109 110 110 109 108 108 109 109 111 112 111 110 109 109 
84 85 88 90 90 91 93 95 94 96 98 99 100 102 103 103 104 104 104 105 107 108 108 108 108 109 110 110 113 120 117 110 109 108 109 110 109 107 106 104 102 99 98 96 94 92 88 84 79 70 56 47 46 45 46 47 51 58 68 73 76 80 83 83 84 86 88 88 85 85 86 86 86 87 87 87 86 85 85 86 86 86 86 85 84 84 84 85 85 85 85 86 85 85 85 85 84 81 79 78 77 74 71 68 64 54 48 43 42 41 43 46 51 64 72 76 76 81 83 83 84 87 90 94 95 95 97 100 102 104 105 105 106 109 111 113 115 115 115 113 112 113 113 113 113 114 113 111 109 109 
97 98 100 101 101 102 103 103 104 105 107 106 106 106 108 109 107 108 106 107 109 110 110 110 112 113 114 114 115 115 116 115 114 115 115 116 116 114 114 116 116 116 116 116 116 116 116 114 112 113 112 109 108 108 109 110 110 111 110 108 110 112 113 113 112 107 108 115 116 115 114 114 113 114 115 115 114 114 114 115 114 115 114 112 112 112 113 114 113 112 112 112 110 110 110 110 108 109 109 108 108 110 110 108 108 108 108 106 105 105 106 107 108 108 107 106 105 104 104 105 105 104 106 108 107 107 108 109 110 111 112 113 113 115 118 120 120 119 119 119 118 118 117 117 116 114 113 112 114 114 
100 102 103 104 103 104 106 107 106 107 107 106 106 107 109 109 109 110 109 110 112 113 113 112 114 116 117 116 116 117 118 118 117 118 119 119 119 119 120 121 121 121 121 121 120 121 120 119 121 121 121 121 121 123 124 123 122 123 122 121 124 125 125 124 123 120 120 124 127 127 126 125 124 124 125 125 123 124 126 127 126 126 125 124 124 125 125 126 126 128 128 126 125 124 124 124 124 123 122 121 122 123 122 120 120 122 121 122 123 121 119 119 118 117 116 116 116 113 111 111 111 111 112 113 113 112 112 113 114 114 114 114 116 117 119 120 120 120 121 122 123 122 119 117 117 116 114 113 113 114 
100 101 103 104 104 105 105 105 106 106 107 106 106 108 108 107 108 109 111 111 112 113 114 114 115 116 117 117 115 116 117 118 119 119 120 121 123 122 122 122 121 121 122 123 123 123 121 120 121 122 123 124 124 124 125 126 126 127 126 125 126 126 126 126 127 128 128 127 127 127 127 126 127 127 126 125 126 126 128 130 128 127 126 126 125 124 125 126 127 127 127 126 125 124 124 125 124 124 123 124 123 123 123 123 122 123 123 123 122 119 118 119 118 117 117 116 116 114 112 111 111 111 112 113 114 114 113 112 111 112 113 113 113 114 115 116 119 119 120 121 121 119 117 115 115 116 115 115 113 113 
101 100 100 99 100 102 103 103 103 104 106 107 107 107 107 107 107 109 110 109 110 110 111 112 111 112 112 113 113 114 116 117 116 116 116 117 119 119 119 119 118 119 119 120 120 120 121 121 120 120 120 120 121 122 122 123 124 125 124 123 123 123 123 123 124 125 126 124 123 124 124 125 126 125 124 124 125 124 125 126 124 124 124 124 127 125 125 125 125 124 122 121 122 121 121 123 123 123 123 123 121 120 120 120 119 119 118 117 116 117 117 115 115 116 115 113 113 115 114 111 110 110 110 110 111 112 112 111 111 112 112 112 114 114 114 114 114 114 113 113 115 114 112 111 112 112 112 112 108 107 
98 98 98 98 99 100 100 99 100 101 101 102 104 104 104 103 104 106 106 105 105 106 106 107 108 108 109 109 109 110 111 112 111 111 113 114 115 115 115 116 115 116 116 117 116 116 116 117 118 118 117 116 118 119 120 120 119 120 119 118 120 120 120 121 122 123 123 122 121 121 121 121 120 120 121 121 123 122 122 122 121 121 122 122 121 120 121 122 120 120 119 119 120 119 120 120 120 119 119 119 118 117 117 118 117 115 116 118 117 116 115 115 115 113 113 113 113 113 113 113 112 111 111 111 110 111 112 112 113 113 112 111 112 111 110 109 108 108 109 109 109 109 108 108 109 108 108 107 105 104 
97 97 98 98 98 99 99 98 99 100 101 102 104 104 104 104 102 103 104 104 105 104 104 106 107 107 108 108 108 108 109 109 109 110 112 113 113 112 113 114 114 113 113 113 113 113 113 115 115 114 113 114 116 116 117 118 119 118 117 118 119 118 118 118 118 120 121 120 120 120 119 119 118 118 118 118 120 119 118 118 119 119 118 118 115 115 116 118 119 119 118 117 116 115 118 118 118 116 116 117 117 117 116 115 115 114 114 115 115 115 112 113 113 113 113 111 111 112 111 112 111 111 110 109 110 109 111 111 111 111 110 109 109 109 109 109 109 109 108 107 108 107 107 108 109 108 107 106 105 105 
100 100 99 99 99 100 102 102 103 104 104 105 105 106 108 109 107 107 107 108 108 107 107 108 110 112 112 112 113 112 112 112 113 114 114 115 116 117 117 118 119 119 119 119 120 119 119 120 119 117 116 118 119 119 120 122 123 120 119 120 120 122 122 120 119 120 121 123 122 122 122 122 122 122 122 122 121 121 122 122 123 123 124 124 123 121 121 122 122 123 123 123 120 121 124 122 120 120 120 119 119 120 119 117 119 119 118 117 115 115 115 113 114 116 115 113 113 114 113 114 114 113 111 111 112 112 112 109 107 108 108 109 110 111 111 112 113 111 109 110 109 108 108 107 107 106 106 105 106 106 
100 101 102 102 101 102 104 104 105 105 106 107 106 107 108 108 109 109 110 110 110 110 110 111 112 112 113 114 116 113 112 114 115 115 115 116 116 119 120 120 119 120 121 121 121 118 117 118 119 121 122 121 120 121 121 121 122 122 122 122 121 122 122 122 123 123 123 124 123 124 124 124 124 125 125 126 125 125 126 125 125 125 126 125 126 125 125 125 124 124 124 125 125 125 124 122 122 122 122 121 121 121 120 119 120 117 118 121 119 116 117 117 117 116 116 116 115 116 115 115 115 116 115 115 115 112 112 111 110 110 110 110 112 112 111 109 109 108 107 109 108 107 105 102 104 104 103 104 104 103 
97 98 99 99 98 99 101 103 104 103 104 105 104 105 106 105 106 106 106 106 105 107 108 108 110 110 110 110 112 111 111 112 112 111 112 114 114 113 115 116 115 114 115 117 115 113 112 112 116 117 117 116 116 116 116 116 118 118 118 120 120 119 120 122 123 124 124 123 124 124 123 123 125 125 124 124 125 126 125 124 123 122 123 123 125 124 123 123 124 124 124 123 123 122 120 120 120 120 120 120 120 119 118 118 117 116 115 114 113 113 114 115 116 117 116 114 115 116 116 115 115 114 113 113 110 109 114 116 113 113 113 113 114 112 109 109 108 109 107 107 106 107 107 107 107 105 104 105 104 102 
98 98 99 100 100 100 101 101 102 103 102 101 101 103 103 103 103 104 106 106 105 107 110 110 110 107 107 110 110 108 106 107 107 107 109 112 113 112 112 113 113 114 114 113 113 115 115 113 116 115 115 117 117 117 117 117 118 118 119 120 120 121 120 118 119 119 120 122 121 120 120 120 122 122 120 119 119 119 118 117 117 117 120 121 121 120 119 119 120 118 119 121 120 119 119 119 118 119 118 115 118 116 115 117 116 114 113 112 112 111 111 111 112 112 112 113 113 112 112 113 112 110 109 111 111 109 110 109 110 110 110 110 110 109 108 108 107 108 105 104 104 105 104 102 102 102 101 100 103 105 
97 97 96 98 101 101 100 99 100 100 98 99 101 102 103 103 104 105 106 106 107 109 110 110 111 110 110 110 110 110 108 108 110 112 112 112 112 114 114 115 114 114 115 117 118 117 116 116 117 115 116 119 119 118 117 118 120 119 120 121 120 118 119 119 119 119 120 120 117 117 118 118 118 118 118 118 118 118 118 118 117 118 121 121 119 120 121 121 122 119 120 123 123 121 120 121 122 121 119 117 118 118 118 118 116 114 114 115 114 113 114 113 113 112 113 115 116 113 112 114 113 112 111 112 112 110 110 110 109 109 108 108 109 109 109 107 107 107 105 105 105 103 102 103 102 101 100 100 102 104 
98 97 95 98 98 98 100 100 99 98 96 99 102 103 103 104 106 106 106 106 107 108 108 107 108 108 107 106 108 110 111 113 113 113 113 112 113 116 116 115 115 116 117 117 117 116 116 116 116 118 119 118 119 118 117 117 117 117 119 121 118 116 116 115 117 118 118 118 118 118 118 118 116 117 119 119 118 117 118 119 117 118 120 120 119 121 122 121 121 121 120 120 121 120 120 120 121 118 119 118 116 116 115 115 114 112 113 112 114 113 111 115 115 116 115 113 114 112 111 112 112 111 111 111 111 110 110 111 109 107 104 103 105 107 108 108 108 107 106 106 107 104 101 101 102 100 98 99 101 102 
97 97 95 97 97 98 99 100 100 100 99 102 103 103 103 104 104 104 104 103 103 105 107 106 105 106 108 109 109 111 110 110 111 110 111 113 114 113 111 114 115 113 114 115 115 115 115 117 116 117 117 117 119 118 117 117 117 116 116 117 116 115 117 118 119 118 116 116 118 117 116 116 117 118 120 121 118 117 118 119 119 119 119 118 118 119 119 120 122 121 119 119 119 119 118 117 117 115 114 118 120 117 115 116 116 114 114 114 113 113 116 117 115 114 112 112 114 112 111 113 112 112 112 112 111 110 110 110 109 108 106 106 106 106 106 105 106 105 105 104 104 103 101 100 101 100 99 99 99 99 
95 95 95 96 98 98 98 98 99 100 100 100 101 102 102 101 103 104 104 105 105 105 107 105 104 105 107 108 109 110 110 110 111 109 108 109 110 110 111 113 113 111 112 112 112 112 112 112 112 114 112 113 111 114 113 114 115 115 116 117 116 115 115 117 118 118 117 117 117 116 115 115 117 117 119 119 118 118 118 119 120 119 120 120 118 116 114 117 120 119 119 119 118 118 115 117 117 117 117 117 117 115 113 114 115 115 115 115 112 111 112 113 112 113 114 114 113 111 110 113 113 112 112 112 110 110 109 108 108 108 108 107 106 105 105 104 103 101 104 102 103 102 101 101 100 101 101 101 97 96 
94 94 94 95 97 98 98 97 98 98 99 100 100 101 101 99 100 100 101 102 103 104 104 103 103 104 104 105 106 107 108 108 108 107 107 108 108 107 108 109 110 107 109 109 108 109 109 108 108 113 112 111 109 111 111 112 112 113 113 114 116 116 115 114 116 117 116 113 113 113 113 113 113 114 117 117 117 117 117 117 117 115 117 117 117 117 116 115 115 116 116 116 117 115 115 115 116 116 116 115 113 113 112 112 112 112 112 112 111 112 111 109 111 112 112 111 112 111 110 110 109 109 109 109 110 108 108 109 108 107 105 104 103 103 104 104 102 100 100 101 100 100 100 99 98 99 99 98 96 95 
95 95 95 95 97 98 98 98 96 97 99 100 101 101 100 98 100 101 102 102 101 103 102 102 105 105 105 105 103 105 107 107 106 106 107 108 107 106 107 109 109 107 109 109 109 108 108 109 109 111 112 112 112 113 111 111 112 112 113 114 115 115 114 112 114 114 114 114 114 114 113 112 110 111 116 117 116 115 115 114 117 116 117 118 117 114 115 114 113 114 116 118 117 114 115 114 115 114 114 113 112 113 113 112 112 111 112 112 112 110 109 109 109 111 112 112 112 112 110 107 107 108 107 107 108 109 108 106 107 107 106 105 103 103 104 104 102 101 99 98 99 99 97 96 98 98 97 95 95 94 
