P2
150 65
255
120 108 110 106 83 86 91 107 123 116 95 94 97 106 119 138 164 191 189 207 207 205 185 174 207 192 190 130 102 111 117 121 127 105 105 133 142 101 114 153 163 157 159 193 198 200 190 177 130 92 93 100 80 72 80 81 80 82 84 93 89 87 93 80 79 80 82 100 109 98 92 99 104 112 121 114 134 160 143 138 128 117 108 129 175 176 167 167 171 162 141 146 139 174 190 175 167 182 185 178 162 158 176 181 175 162 138 106 131 167 163 140 156 157 155 162 170 176 161 149 151 136 134 145 167 178 179 194 204 209 177 163 175 192 187 171 162 171 194 206 206 199 157 142 150 177 198 200 207 218 
162 111 86 93 96 88 79 85 100 106 99 88 81 83 93 103 112 150 166 187 199 201 174 146 156 189 179 119 99 108 111 139 165 126 134 184 171 112 110 125 132 137 140 164 185 191 180 149 108 84 88 91 84 79 80 86 79 80 78 80 86 82 81 70 75 77 86 90 102 115 93 88 99 108 123 122 131 139 113 101 102 100 105 105 115 128 147 152 164 168 163 168 165 176 186 171 169 175 165 167 159 158 170 176 176 165 137 133 154 151 158 167 172 179 173 159 144 146 151 153 157 145 142 142 160 179 181 179 181 170 165 161 154 174 183 180 169 177 214 230 228 205 181 174 152 142 146 171 179 167 
175 137 94 92 89 85 71 69 84 90 87 78 72 73 75 80 85 116 139 164 160 179 186 145 145 172 178 114 98 110 113 141 177 142 123 152 141 106 101 105 115 118 135 138 137 152 150 131 103 89 74 77 80 77 76 78 73 72 73 71 80 76 75 75 81 80 84 87 98 105 105 91 100 113 121 137 130 106 94 87 101 106 108 117 104 102 109 137 155 164 170 171 162 164 176 169 165 164 161 160 162 154 163 168 180 182 148 136 162 164 165 176 174 178 174 155 141 131 144 152 151 147 147 139 145 143 144 146 164 167 179 158 160 166 166 184 192 187 218 234 230 227 228 215 179 158 150 149 151 120 
156 143 122 89 76 83 78 68 71 77 82 75 73 70 69 67 64 71 87 96 89 135 182 163 173 155 137 107 100 115 114 133 156 151 124 114 117 127 118 104 109 109 110 112 114 117 120 116 105 94 77 72 75 73 66 67 67 78 75 70 67 69 82 78 76 83 86 91 86 92 101 89 92 99 94 107 94 94 95 95 98 103 92 102 108 104 97 119 132 147 158 169 158 161 171 172 161 150 169 166 187 169 171 177 192 199 170 150 156 151 160 165 162 166 165 154 149 131 133 117 121 132 132 119 142 136 132 147 153 137 153 148 155 160 170 186 213 230 228 227 218 217 238 236 224 210 207 174 153 124 
131 129 126 93 64 70 77 74 70 71 76 72 70 70 70 67 69 70 64 71 75 92 128 157 153 118 101 97 97 106 105 114 125 128 129 127 128 122 105 95 92 95 99 94 99 107 110 111 104 96 80 75 68 74 70 61 63 75 71 66 64 70 95 86 84 85 83 81 85 80 80 89 97 88 80 81 77 90 111 122 98 76 89 101 136 123 93 101 112 150 157 144 151 163 165 162 163 182 191 199 214 197 174 161 162 191 193 177 158 145 147 147 137 136 127 121 118 104 130 139 128 147 145 118 138 149 164 165 154 159 153 142 141 142 188 203 211 211 222 225 183 192 230 227 206 208 191 164 120 98 
122 117 147 110 70 73 80 71 71 68 66 65 73 76 75 76 79 81 84 70 66 70 103 167 193 173 137 98 92 102 107 116 116 129 141 145 144 134 127 125 117 107 113 107 111 126 128 123 115 96 84 116 92 75 78 73 70 65 65 62 71 66 66 70 70 71 80 80 74 73 75 75 79 80 85 86 79 82 93 114 141 124 103 112 137 130 112 130 130 147 148 129 144 158 162 152 151 185 182 172 188 173 193 189 168 167 167 172 167 167 161 139 138 141 147 136 129 119 115 128 130 143 151 144 145 146 155 148 152 164 160 162 174 170 192 207 212 196 198 213 200 208 196 166 179 187 179 142 92 84 
106 109 131 116 78 78 74 64 68 68 64 66 76 76 74 74 69 71 79 68 68 75 87 150 182 146 132 97 92 104 105 129 146 149 168 170 151 140 138 134 133 120 116 110 123 135 124 103 107 91 69 86 84 69 73 76 71 65 66 63 70 62 63 69 71 67 70 76 76 76 72 73 74 77 81 86 85 83 86 89 137 146 131 132 137 149 148 155 152 150 133 120 135 132 129 132 133 157 171 154 161 185 208 185 163 151 145 158 161 169 156 141 144 156 168 165 159 143 127 123 121 136 138 136 142 151 158 139 148 177 179 193 191 177 178 194 184 174 168 173 187 193 169 139 171 173 175 143 89 76 
105 109 147 151 89 69 57 53 74 81 69 67 66 64 58 59 57 65 80 106 115 113 94 119 171 165 153 98 93 101 94 127 156 145 156 154 141 115 107 105 98 102 103 96 102 101 91 81 88 93 77 64 69 77 72 71 67 63 70 90 83 64 74 83 68 67 60 67 72 73 73 63 62 68 75 76 82 85 82 76 108 132 136 150 141 151 165 159 153 146 123 125 126 109 101 120 114 132 159 162 173 174 171 160 157 143 138 151 157 166 158 136 131 141 149 150 155 159 154 158 145 139 138 143 133 135 157 142 140 160 183 178 167 166 171 183 163 151 141 140 141 142 151 145 168 176 191 185 116 112 
74 84 133 138 82 65 57 59 71 73 68 61 52 54 57 61 52 59 71 89 107 148 164 140 118 183 158 102 101 104 99 121 149 130 121 117 120 121 116 99 97 113 121 124 111 95 99 92 90 83 80 73 70 73 69 71 62 61 62 79 84 64 82 81 68 57 57 60 62 61 72 77 74 69 80 94 82 79 87 89 117 131 109 123 141 156 144 164 172 155 117 91 79 91 107 123 114 128 154 149 150 144 151 155 153 164 168 155 134 137 150 142 127 113 123 152 160 155 148 146 148 134 131 135 124 102 109 125 118 105 124 136 135 142 143 122 130 138 140 126 118 118 124 137 135 128 141 144 127 113 
66 69 88 83 67 64 62 61 62 63 60 52 46 46 47 51 51 60 69 80 114 165 175 146 143 165 143 96 95 112 110 113 122 113 104 99 97 96 96 92 89 91 95 108 107 97 93 90 87 68 69 70 65 65 67 65 61 62 61 64 58 52 73 67 59 55 56 63 73 77 81 92 71 65 84 90 94 88 80 73 77 71 66 125 171 164 163 163 158 153 137 117 112 129 123 127 120 117 123 130 131 139 143 164 166 153 163 160 145 134 135 138 131 143 143 155 166 133 126 125 125 124 120 127 122 119 121 110 114 107 117 113 121 118 124 111 132 137 129 114 119 114 118 126 116 115 109 110 108 105 
67 68 68 71 74 66 62 59 51 57 58 48 43 49 45 46 49 55 68 78 94 118 133 149 159 151 114 93 92 109 109 108 112 90 92 92 85 88 92 98 103 86 86 94 95 94 91 94 87 76 65 57 59 61 66 64 61 63 67 74 64 51 64 62 56 57 64 69 72 74 81 79 58 59 71 73 89 96 83 70 59 54 57 97 147 165 162 152 151 149 135 133 135 147 133 133 139 123 133 146 153 149 145 161 169 157 147 148 130 127 127 141 131 125 141 146 141 133 124 110 109 112 111 109 118 140 138 119 132 123 121 117 115 120 109 110 123 122 121 125 122 121 141 136 102 100 95 89 96 93 
63 62 62 67 68 61 59 57 54 60 67 64 53 56 51 56 56 56 61 62 64 79 102 146 159 138 105 87 88 105 100 104 109 83 90 83 65 63 72 73 91 103 89 79 90 110 117 142 130 96 82 69 70 74 67 63 65 64 66 69 62 56 54 55 57 63 75 86 74 69 68 67 70 70 80 105 140 132 95 76 64 68 69 70 138 159 150 141 136 146 132 134 143 142 141 131 137 135 146 152 161 158 158 151 150 140 117 121 120 128 127 137 143 126 132 121 117 128 127 113 110 98 99 97 107 116 113 115 129 123 109 117 127 124 110 122 112 110 121 130 118 117 126 120 98 86 82 78 74 76 
73 64 55 59 86 79 62 61 61 68 86 86 75 58 53 54 61 66 61 55 53 63 73 106 110 99 99 85 90 100 92 108 104 62 67 77 64 43 48 48 69 90 71 68 87 122 139 147 113 76 90 75 77 77 69 62 65 61 67 67 83 61 67 59 59 60 71 78 71 80 100 129 129 110 120 113 156 156 123 108 104 119 91 65 113 103 95 109 121 106 80 86 114 123 142 136 147 135 130 129 143 148 140 132 126 115 122 136 134 137 135 124 121 116 124 118 121 143 144 103 94 89 90 97 106 115 113 130 138 128 105 93 110 111 117 114 116 125 131 103 93 88 87 96 95 83 83 72 69 75 
76 64 46 73 137 142 114 91 88 76 62 67 60 44 46 44 51 57 47 48 51 62 71 75 88 74 82 88 92 99 95 104 91 47 47 55 55 50 49 51 54 63 60 43 72 130 120 91 81 81 80 77 75 75 65 63 68 66 60 73 136 84 81 77 86 92 80 88 89 83 106 139 160 129 125 126 181 211 152 99 126 159 119 87 85 105 140 113 111 99 78 101 88 105 128 133 131 140 147 127 125 143 143 140 130 101 105 133 132 133 134 112 110 120 124 126 130 143 140 104 94 90 91 100 115 128 132 117 132 150 140 142 114 109 116 103 101 123 128 127 127 109 84 85 98 92 77 69 59 55 
79 73 53 80 128 147 160 116 83 73 64 61 60 50 42 42 49 53 43 44 52 75 75 56 53 54 76 83 86 102 102 106 90 46 47 59 64 70 64 57 57 75 65 50 78 114 102 93 118 118 75 62 98 115 103 107 76 55 44 51 122 85 88 139 112 92 102 110 101 108 149 147 120 103 79 103 176 205 156 112 131 127 153 146 140 152 148 128 125 125 138 128 126 137 141 141 146 151 161 149 145 135 122 130 124 130 126 137 130 128 125 107 107 114 113 122 124 136 141 139 121 103 109 115 111 109 134 127 121 113 134 155 129 102 103 97 106 130 114 110 104 111 93 81 84 68 74 74 61 59 
69 51 40 45 80 115 107 80 61 65 70 71 70 66 53 42 46 55 40 45 51 64 60 53 55 56 79 79 80 97 99 104 87 48 49 56 57 58 59 57 63 78 75 74 82 117 132 127 143 132 69 52 140 223 187 125 77 44 40 39 66 75 88 160 113 83 128 148 142 142 147 115 97 99 94 114 129 146 153 133 128 131 180 160 115 108 86 92 120 123 121 117 140 148 146 154 158 157 160 144 134 132 134 128 119 113 114 143 128 111 104 116 114 111 114 120 111 97 118 134 125 128 131 128 126 115 124 138 122 98 125 131 109 87 95 97 95 105 94 93 93 102 103 97 95 79 73 69 61 62 
36 32 35 35 54 80 83 72 65 73 71 62 71 69 58 38 30 43 35 40 40 31 32 49 57 77 92 78 75 86 91 100 86 51 50 51 53 53 53 53 57 70 72 50 69 146 163 149 146 134 72 49 110 190 176 82 71 49 48 49 45 68 90 156 136 107 141 154 130 113 101 111 128 140 152 146 136 145 181 172 105 111 179 192 108 96 78 92 100 91 90 117 130 106 118 142 152 145 146 139 128 129 123 114 125 128 110 108 102 108 102 131 119 108 117 115 108 91 95 99 92 98 107 112 101 115 111 116 105 88 101 115 84 72 82 85 84 91 94 93 96 98 110 101 84 78 61 61 61 52 
33 35 33 32 53 64 66 58 58 59 48 61 78 70 49 44 41 33 41 39 39 39 40 64 54 77 89 81 79 86 87 96 84 53 52 51 53 53 53 53 52 56 58 60 81 140 167 162 152 137 75 40 59 86 83 71 73 50 65 84 81 86 115 162 174 138 170 174 145 135 148 142 139 153 176 163 167 179 192 170 119 111 119 152 169 101 74 71 90 140 160 91 56 67 83 86 105 106 99 118 123 128 132 128 130 142 143 108 93 100 93 118 109 99 112 112 114 90 77 77 72 59 47 62 71 85 73 69 78 76 81 93 97 81 72 69 77 83 81 86 92 90 79 77 85 81 73 75 66 56 
34 36 35 36 48 61 72 66 70 63 53 59 71 66 75 52 52 51 53 45 44 45 46 44 41 56 83 82 86 89 87 99 85 53 51 48 51 53 53 53 52 55 53 68 85 130 155 147 150 137 72 39 49 61 68 59 77 59 80 103 117 95 138 194 194 144 183 190 183 181 145 130 106 116 175 186 199 196 187 159 129 121 120 123 141 96 77 86 129 174 189 102 66 67 55 53 55 57 62 84 83 85 106 114 125 129 132 135 114 84 87 87 100 104 102 88 85 65 54 65 59 39 44 57 64 69 67 66 63 60 50 41 63 92 83 68 65 62 74 87 96 94 79 80 89 91 107 104 90 77 
35 37 35 33 48 62 70 64 68 61 63 60 56 59 63 51 53 50 50 46 43 39 43 43 42 55 81 80 85 85 81 93 83 54 68 89 67 55 54 54 53 73 73 52 65 128 154 144 144 131 65 46 58 78 89 78 87 76 99 97 110 102 145 185 177 136 180 201 189 176 159 146 124 145 191 206 203 178 175 159 137 130 126 118 108 92 72 98 156 179 187 135 97 64 44 50 56 58 50 50 51 49 59 106 141 124 109 102 94 68 69 79 79 83 90 73 63 52 41 43 43 35 37 47 52 52 57 50 40 36 33 28 37 58 69 59 53 53 58 58 63 68 77 85 77 74 97 106 100 93 
36 39 33 33 50 58 58 57 53 53 57 57 50 53 46 52 48 46 46 48 51 52 56 51 46 58 80 74 74 69 67 81 78 58 75 109 84 57 57 53 60 92 85 49 61 131 150 142 142 124 63 52 68 95 87 100 97 83 102 81 90 105 120 151 168 128 159 173 185 194 219 204 159 156 182 214 188 151 162 155 146 137 128 121 111 101 84 76 135 176 173 197 187 101 58 42 38 41 35 36 35 46 81 147 176 103 80 89 67 41 50 57 51 42 42 46 46 40 38 36 40 39 37 44 35 27 32 36 38 38 35 30 30 25 34 36 38 41 38 42 49 60 128 129 71 71 76 86 90 86 
34 40 36 37 46 51 53 52 51 51 50 48 46 43 39 41 47 56 50 50 53 61 80 67 46 58 78 67 63 65 71 88 84 62 63 58 60 59 57 57 74 94 70 43 64 135 145 155 147 114 63 45 54 59 62 79 89 59 67 72 84 101 133 162 164 128 148 148 149 165 181 193 159 151 193 209 166 131 141 153 157 146 131 125 112 94 97 138 152 148 174 194 197 168 116 47 33 35 31 31 29 56 154 185 190 135 111 109 82 37 48 49 48 41 34 29 34 37 35 40 48 44 39 42 28 22 27 34 37 34 30 32 31 26 27 33 35 38 42 42 80 132 115 99 113 109 113 125 116 91 
48 49 48 50 52 68 62 53 48 44 45 45 44 40 42 48 47 46 44 53 55 58 68 59 46 73 87 74 72 74 85 102 121 140 135 133 133 132 130 119 103 88 95 117 113 101 84 87 98 105 64 45 53 59 63 71 87 62 61 69 95 105 133 158 154 129 145 150 181 173 155 173 162 188 228 198 130 102 148 169 154 141 130 120 94 74 89 140 181 177 189 188 185 182 123 49 31 33 32 29 30 56 127 169 179 182 155 115 90 37 34 45 64 55 42 44 40 35 34 47 57 47 35 28 24 19 21 25 28 28 26 31 29 24 25 31 33 39 39 42 98 146 156 155 185 194 206 209 161 124 
87 82 79 76 66 79 72 58 48 43 47 46 41 41 46 49 55 48 46 51 49 48 47 46 47 88 102 92 90 96 108 116 135 160 154 167 169 167 164 131 97 89 125 153 134 87 77 68 89 113 59 47 53 57 58 67 86 67 65 78 100 108 126 136 129 126 159 163 160 161 182 203 205 221 201 176 131 108 130 124 110 133 134 109 68 63 69 123 185 195 180 188 177 175 106 50 31 31 33 31 34 82 167 149 159 163 125 119 98 41 40 37 49 51 47 44 42 44 39 54 66 50 32 27 26 20 18 16 20 23 20 24 23 22 25 29 33 49 53 77 113 126 138 133 147 179 203 202 156 115 
167 164 166 155 131 118 99 92 83 79 80 76 74 76 78 76 73 77 86 91 85 81 81 89 89 111 118 115 113 122 132 130 131 140 132 150 156 159 145 99 76 97 127 128 120 106 105 87 91 97 56 62 60 59 64 67 80 59 60 65 82 110 140 147 98 115 132 152 137 152 213 220 207 199 147 150 130 112 102 104 107 124 181 175 104 77 73 96 155 178 170 170 175 185 120 57 30 30 29 40 56 103 178 163 161 175 155 133 100 37 41 46 41 40 44 41 37 40 44 63 73 50 32 28 27 25 19 14 15 16 19 19 24 25 26 32 41 49 69 74 70 74 86 93 112 137 164 173 164 128 
230 235 243 239 215 203 179 167 152 143 135 121 110 107 101 97 95 95 95 94 93 93 92 92 93 123 137 133 138 148 153 145 128 112 111 112 113 110 92 76 68 86 100 98 97 96 96 86 83 72 61 62 61 57 66 72 88 74 72 72 90 112 85 81 81 102 88 82 85 97 130 127 120 125 113 110 111 116 136 152 141 135 185 184 163 144 145 158 185 166 144 142 157 141 91 69 66 69 54 71 88 70 81 124 167 130 107 131 98 34 32 35 34 32 33 39 39 36 45 75 80 42 28 34 29 22 17 16 18 15 19 17 26 23 25 34 48 60 57 54 56 82 94 94 115 131 143 170 153 93 
243 246 248 248 244 245 242 238 235 229 220 213 208 198 188 175 164 154 142 134 127 120 115 111 107 127 138 144 149 154 161 155 128 90 86 89 90 90 87 82 79 80 82 81 85 84 86 84 81 82 81 82 81 80 80 82 95 86 82 83 92 107 90 83 87 105 92 86 88 88 95 94 101 116 134 146 128 112 113 108 107 108 112 111 112 114 118 119 126 132 142 152 158 170 182 186 182 182 171 167 174 168 166 185 202 178 144 144 138 122 117 107 99 85 78 72 74 74 71 79 80 57 48 45 39 34 37 46 43 31 30 27 31 23 29 33 36 35 32 30 31 43 63 79 93 109 146 183 144 94 
171 177 186 190 189 184 185 192 192 178 156 166 195 205 201 209 225 221 211 202 190 174 158 146 132 136 141 149 153 159 167 160 140 111 105 105 104 103 102 101 101 102 103 100 100 101 100 98 98 99 99 99 99 97 97 98 102 100 99 99 103 109 100 96 98 108 101 96 97 101 112 130 142 131 114 111 99 94 94 93 94 94 98 98 98 98 99 96 82 74 72 82 83 96 123 135 144 153 163 167 173 179 177 169 159 144 134 143 143 143 145 146 143 132 123 115 115 112 91 83 86 91 92 95 100 108 108 110 106 103 100 94 90 79 77 81 74 60 63 69 63 65 82 97 88 79 112 151 107 78 
137 135 131 117 99 90 91 99 92 87 89 92 98 100 95 122 166 174 174 170 163 152 140 131 122 131 136 141 148 159 161 157 146 129 127 128 126 127 127 126 124 122 121 119 120 120 120 119 121 120 117 115 113 115 116 115 111 117 119 116 114 111 113 110 109 116 113 110 121 137 160 161 119 96 105 119 123 124 125 125 124 123 125 124 125 125 125 126 109 92 74 83 79 92 124 125 120 115 110 110 119 142 164 170 169 155 154 152 133 105 101 99 99 104 104 103 100 87 72 79 86 97 100 102 105 109 115 114 118 119 117 118 119 117 116 119 113 101 110 121 120 119 125 125 111 82 99 143 93 57 
204 200 192 180 175 173 163 160 149 138 123 113 87 78 78 81 97 115 123 121 125 123 112 101 99 111 118 125 128 131 135 137 137 135 134 137 135 138 139 138 138 141 140 139 139 139 141 143 144 140 137 134 133 135 136 134 124 137 137 134 124 117 120 115 110 120 135 152 183 170 106 102 127 132 134 134 136 136 138 138 143 140 135 136 140 137 139 142 131 109 86 86 86 95 139 143 143 144 144 144 142 132 121 119 117 121 139 179 198 199 174 122 106 124 128 125 115 106 96 91 90 95 105 108 113 118 128 133 122 120 120 120 120 121 124 120 116 113 108 110 107 106 106 103 103 103 99 103 97 86 
239 238 237 231 204 185 153 147 145 148 144 128 107 92 70 62 74 94 104 105 109 109 103 105 109 109 113 119 116 116 117 115 119 122 125 133 133 133 138 145 147 148 148 147 145 146 146 143 142 140 142 143 146 145 144 143 135 143 144 143 129 122 106 107 140 174 185 165 118 94 112 137 147 153 153 152 153 151 151 155 158 156 151 151 152 155 155 150 135 125 106 85 93 92 129 148 154 154 154 155 156 151 148 138 127 120 119 109 136 238 248 236 225 220 219 214 200 126 103 94 88 87 91 86 101 124 129 132 126 123 127 128 120 125 129 134 130 122 124 127 119 116 123 121 120 113 110 109 117 107 
234 235 231 180 142 118 78 73 65 90 130 77 85 109 104 99 99 104 107 109 109 111 114 114 116 116 118 116 114 117 119 116 117 120 123 129 130 125 129 136 135 138 140 137 136 136 135 130 131 130 129 128 133 138 143 147 148 157 153 151 138 136 150 179 195 173 116 74 51 63 118 136 141 149 150 150 150 152 151 153 153 155 154 155 157 159 159 157 150 154 147 125 129 129 140 157 162 162 164 167 167 168 171 172 172 173 175 175 196 247 252 252 251 253 254 248 194 91 77 72 70 75 73 75 93 120 125 127 128 127 123 126 122 125 126 130 129 126 128 132 127 125 127 127 129 126 122 123 128 124 
228 230 193 109 76 70 60 60 46 73 138 75 86 107 109 110 111 107 102 104 104 103 109 107 105 106 104 99 100 109 118 121 120 120 119 122 123 117 116 118 117 115 111 109 113 120 121 126 138 146 151 157 168 178 188 199 205 209 213 215 221 226 231 232 219 183 152 142 122 136 171 181 187 190 193 196 199 203 206 208 210 212 215 217 220 222 225 227 228 233 235 224 203 227 234 237 237 241 246 246 248 248 248 249 250 250 251 252 253 253 253 252 251 243 229 206 141 72 66 58 61 63 60 71 80 98 103 105 110 108 112 121 116 116 118 115 119 123 118 116 116 121 121 121 122 122 121 121 121 120 
189 216 186 123 103 98 100 102 98 120 148 129 142 165 168 168 167 160 143 151 162 160 160 158 157 155 150 146 146 147 152 158 159 158 153 152 154 152 147 147 146 142 141 142 148 166 180 193 207 217 223 225 230 232 233 237 236 238 239 239 240 241 235 220 231 240 239 240 232 230 240 244 245 245 245 245 245 245 245 246 245 245 244 244 245 245 244 243 244 243 240 216 170 202 231 234 235 237 244 247 249 250 250 248 247 245 243 241 241 241 241 240 241 186 118 88 83 76 69 61 64 64 60 72 77 81 81 79 89 94 99 103 99 102 106 107 118 122 114 109 108 108 109 111 112 110 110 108 107 106 
154 168 172 170 174 176 168 153 141 134 124 118 113 129 155 181 183 149 140 172 184 184 185 185 184 186 188 188 188 186 187 187 186 186 184 184 181 177 177 187 199 209 215 220 223 227 228 230 232 232 229 230 232 235 240 244 241 236 236 239 237 236 226 210 227 230 229 227 227 227 229 230 230 230 230 230 230 231 231 231 230 230 230 230 229 230 230 230 230 226 208 203 194 210 221 226 227 226 235 244 245 246 246 245 243 242 233 223 216 207 204 202 205 124 61 89 133 142 137 132 129 123 118 113 110 108 110 110 112 113 112 112 110 112 112 115 120 121 119 121 118 108 110 111 109 110 109 111 108 106 
64 64 65 67 74 81 91 83 73 70 69 68 68 77 88 137 163 133 119 122 109 125 135 139 145 150 154 154 150 153 156 160 159 152 148 143 139 140 150 138 143 199 217 216 217 220 219 202 164 131 114 107 108 110 129 157 208 241 233 218 217 218 209 193 199 201 200 200 200 202 205 206 208 209 210 211 210 211 212 213 211 211 212 212 212 212 211 210 210 206 204 199 195 204 203 205 217 217 187 146 117 108 103 106 112 134 160 203 207 182 174 172 171 147 137 152 177 185 185 183 183 180 179 175 174 178 177 176 176 177 177 175 175 170 168 169 172 174 174 172 172 171 172 171 168 167 165 166 167 168 
36 36 36 36 38 38 45 42 70 84 53 52 55 57 80 129 143 134 120 105 99 98 93 92 89 89 87 82 81 85 83 87 88 84 83 100 114 136 145 132 133 171 189 184 189 165 110 67 47 34 41 58 62 57 46 44 71 116 181 202 192 191 181 166 174 175 174 174 174 176 179 181 179 179 180 180 180 180 179 179 179 179 178 177 176 176 174 173 171 169 167 157 163 167 166 168 156 92 45 35 29 30 29 29 32 32 36 74 124 150 146 145 145 140 142 140 142 145 151 155 153 153 153 148 146 148 149 149 149 151 151 151 150 151 150 148 148 151 153 153 156 158 157 159 162 165 164 164 162 161 
26 26 26 25 24 23 24 26 45 56 47 57 67 71 86 98 98 99 97 89 92 87 81 87 88 90 90 87 91 93 93 99 102 99 99 119 136 143 137 130 131 130 129 129 121 56 20 28 43 68 81 85 115 175 126 76 48 25 63 117 132 133 127 117 125 126 125 124 125 125 125 125 123 122 122 121 121 120 120 119 119 119 118 118 119 119 118 116 114 112 109 109 117 120 120 95 41 22 29 44 60 71 97 97 83 58 43 24 24 87 120 125 126 127 127 127 128 119 115 118 118 119 117 117 115 112 112 111 109 107 107 107 106 106 106 107 106 108 107 107 109 110 111 113 112 113 111 109 107 96 
22 23 23 22 22 22 28 36 42 39 39 48 80 98 103 92 89 85 88 84 85 97 103 121 127 124 119 109 108 113 110 112 109 103 100 116 128 131 132 134 135 135 134 139 103 26 28 33 80 147 112 52 115 218 112 78 82 39 26 60 134 154 150 137 148 150 149 149 149 148 147 147 144 144 144 144 144 145 146 146 147 147 148 149 151 150 149 149 148 148 141 145 161 164 164 86 19 32 45 78 60 64 183 185 108 102 76 43 30 56 121 156 154 152 152 148 143 132 126 128 127 124 122 124 127 120 120 121 123 117 116 117 119 122 122 119 117 119 119 116 112 110 106 102 100 101 93 90 74 58 
28 32 35 36 39 45 56 64 70 66 66 72 83 96 106 106 105 104 106 114 117 124 129 131 128 125 119 126 128 127 129 127 127 133 127 97 83 103 121 132 133 136 137 136 85 25 33 51 69 58 104 120 146 146 96 67 81 43 26 27 92 136 135 124 138 141 140 140 141 140 138 137 134 134 135 135 135 135 134 134 136 136 135 135 136 135 135 134 133 130 121 136 143 148 141 49 26 44 100 126 96 93 137 138 75 74 96 49 37 48 67 125 132 130 128 120 113 112 113 116 118 115 114 112 113 116 112 115 115 113 115 113 115 116 118 119 117 115 119 120 115 116 114 111 108 105 103 105 101 95 
27 25 27 31 35 37 37 36 40 43 50 56 59 65 67 69 76 78 75 77 76 81 81 82 83 83 87 93 93 90 89 90 91 91 81 70 69 99 116 122 122 125 128 122 71 22 30 60 82 65 134 178 168 154 106 91 91 43 26 17 67 141 151 146 152 153 153 153 151 151 150 150 149 148 149 148 147 147 147 147 148 147 146 146 146 145 145 144 142 145 146 141 134 129 106 32 27 54 82 71 108 135 145 135 114 97 98 58 33 69 69 91 116 125 127 129 133 131 130 132 134 135 133 129 127 133 134 137 137 138 139 136 135 137 139 137 135 132 131 131 129 128 128 128 128 128 127 129 131 129 
39 41 44 47 49 52 55 56 60 66 68 72 76 79 80 82 87 89 89 89 89 92 91 92 95 94 95 94 93 90 83 80 80 82 80 76 75 87 88 87 80 71 71 72 50 31 31 48 122 159 148 131 159 172 63 56 73 38 25 20 49 99 110 109 107 107 106 106 107 106 106 105 105 104 105 103 101 101 101 101 101 101 100 100 100 99 100 98 97 98 100 92 83 71 51 25 25 53 91 65 123 176 157 179 135 64 74 53 34 73 73 65 87 94 97 99 100 97 96 99 101 103 102 97 89 95 100 102 103 103 106 106 104 104 109 111 110 107 107 110 106 102 103 101 102 106 110 112 114 115 
49 53 59 63 62 66 71 73 75 81 85 91 92 94 98 103 107 112 110 114 124 124 124 125 127 129 127 125 123 119 115 108 107 105 104 98 91 85 79 71 62 51 46 45 41 38 32 26 72 139 119 84 114 160 117 97 50 25 26 28 29 32 37 38 38 38 40 41 42 42 41 40 41 42 46 47 46 45 45 46 48 48 47 48 50 49 50 49 50 48 50 48 48 46 44 41 29 37 93 153 169 102 82 146 152 108 90 38 49 81 81 81 87 85 88 90 92 91 92 95 94 93 93 93 85 86 88 90 91 93 95 95 92 93 92 91 90 90 92 94 90 88 86 81 81 83 84 83 81 84 
95 95 96 98 100 103 105 106 109 112 115 117 120 119 121 125 126 127 129 128 129 131 132 133 136 135 132 129 129 127 125 121 120 115 110 103 97 90 85 76 70 61 56 48 43 39 35 31 31 41 61 74 79 80 56 36 29 26 27 30 32 32 31 30 29 29 29 28 28 28 28 27 27 28 29 29 27 28 27 26 26 26 25 25 26 25 25 25 25 24 26 25 25 24 22 21 20 21 31 73 110 117 117 120 117 68 41 43 60 71 75 84 87 93 99 100 100 102 104 103 104 104 107 111 113 112 109 114 117 118 119 119 119 121 124 121 116 118 121 123 123 123 123 122 122 119 118 118 115 113 
133 132 133 134 136 136 137 139 139 139 139 138 139 141 143 144 143 144 146 144 143 147 150 149 150 151 151 150 150 150 150 148 148 148 147 145 142 141 139 138 136 132 131 125 124 122 119 116 112 108 107 105 106 105 106 107 111 112 112 114 117 114 113 113 112 112 111 110 108 107 106 105 107 107 106 106 104 103 101 100 99 98 100 98 96 94 92 92 91 88 88 86 85 82 78 74 72 68 63 59 65 77 82 75 65 60 70 83 88 94 98 103 107 111 114 116 118 121 122 120 121 122 125 128 129 127 128 124 127 126 127 128 128 131 131 127 126 130 133 132 133 133 133 131 128 129 130 131 128 123 
141 141 143 145 147 148 147 149 147 147 146 147 147 150 152 151 151 153 153 151 150 153 153 153 155 157 156 156 156 157 158 156 156 158 159 158 159 158 158 160 161 160 160 159 159 159 160 160 161 163 162 161 160 162 163 162 161 160 159 158 160 159 158 158 158 160 160 158 157 158 159 160 160 158 159 159 160 159 160 159 157 156 157 156 156 155 154 153 153 153 152 151 153 151 148 145 146 146 146 143 140 139 137 134 134 139 140 140 141 143 143 143 143 143 144 144 145 145 146 146 145 145 145 146 147 147 146 144 145 145 145 145 145 145 143 141 143 145 143 142 141 141 141 139 137 136 138 138 138 137 
137 137 137 139 139 139 140 141 142 144 144 146 146 146 147 147 144 146 147 147 149 150 147 147 148 150 148 148 149 151 152 151 152 153 154 154 155 155 155 155 156 157 157 156 155 156 158 159 158 157 157 158 158 158 159 159 159 158 158 158 160 161 161 159 158 159 159 159 163 161 161 163 163 161 162 162 161 161 163 162 160 158 156 154 156 159 160 158 157 157 156 155 158 157 156 154 152 153 155 157 154 155 155 155 154 154 154 154 154 151 150 152 154 153 151 150 152 150 150 151 150 150 150 150 149 147 146 147 147 148 150 151 149 147 146 147 148 148 147 147 146 146 147 144 145 144 145 144 144 143 
133 132 132 134 134 134 136 136 139 141 140 142 141 139 139 141 141 142 142 142 146 143 139 140 139 141 142 144 146 147 149 150 150 148 150 152 151 151 151 151 150 152 153 151 151 151 151 152 152 152 152 153 154 153 154 156 156 154 154 153 155 154 153 154 154 154 154 154 154 155 157 158 157 155 156 155 154 154 155 154 154 154 154 154 152 151 152 152 153 154 154 152 152 152 152 152 152 150 150 151 152 152 149 148 150 152 153 152 151 148 147 147 148 148 147 146 147 148 147 145 145 145 144 144 144 144 144 143 142 142 142 143 140 140 140 139 136 134 136 138 139 138 138 136 135 135 138 137 137 136 
133 130 130 133 134 135 135 135 137 137 135 137 137 136 137 138 139 139 140 140 143 141 140 141 139 140 143 144 146 146 145 146 146 145 145 148 147 146 146 147 146 146 149 147 148 149 146 147 148 148 146 148 150 151 151 150 150 149 151 150 150 151 148 150 150 149 152 151 151 151 153 153 154 152 152 150 149 150 150 151 151 150 150 149 148 147 148 150 151 150 150 151 150 149 148 147 146 147 146 144 146 147 147 145 146 148 148 146 145 146 145 144 144 144 144 144 142 143 142 140 141 140 140 139 138 138 140 140 139 138 137 136 138 137 136 136 134 132 132 133 134 133 132 131 131 130 132 131 131 131 
132 132 132 132 133 133 133 133 132 132 133 131 132 134 135 135 136 137 138 139 139 138 137 138 140 140 140 140 140 141 142 142 142 142 142 141 141 143 144 143 142 145 145 145 145 146 146 148 148 145 146 146 148 150 149 147 146 145 146 146 147 148 151 148 147 146 149 148 149 148 149 148 147 147 150 150 150 149 148 148 150 148 147 147 147 146 146 147 149 147 147 148 146 147 146 145 144 145 144 142 141 143 145 144 143 144 144 143 141 143 142 140 141 141 141 141 139 137 136 137 136 136 136 136 136 135 136 135 135 136 135 133 133 133 133 134 132 130 129 129 130 129 129 129 128 127 127 126 127 127 
126 127 129 128 129 129 129 128 128 129 131 129 131 132 131 130 132 132 134 136 134 135 135 134 137 137 135 136 136 137 140 141 140 140 139 139 140 142 144 144 144 145 144 144 144 145 144 145 143 141 144 144 143 144 145 144 144 144 145 144 143 146 148 147 148 148 145 144 144 145 146 146 144 144 147 148 145 146 144 145 145 144 143 144 145 144 143 142 143 144 147 144 144 143 141 143 144 144 144 143 143 142 141 141 141 139 139 141 139 137 136 137 139 138 140 140 138 136 136 137 135 132 133 134 134 133 132 129 130 133 133 130 130 130 130 131 130 126 126 126 127 127 127 127 125 125 125 124 123 123 
123 121 122 124 125 126 125 124 127 126 126 127 129 130 130 130 132 131 131 131 128 129 131 132 133 133 130 132 134 134 135 137 137 134 134 137 137 136 136 136 136 137 137 136 138 138 138 138 137 137 139 139 138 136 138 138 138 138 138 138 139 139 139 138 139 141 139 138 138 139 139 139 140 140 141 141 141 142 140 141 143 141 139 138 139 139 139 138 139 140 141 139 138 138 136 138 137 138 140 140 139 141 140 137 136 137 137 137 137 135 134 136 136 134 135 135 134 134 133 132 131 129 131 132 131 131 131 129 128 127 126 126 127 126 124 123 124 124 123 121 124 124 123 123 121 121 121 119 118 118 
122 122 119 121 123 124 123 122 123 124 124 124 124 125 125 126 128 127 126 127 128 127 128 130 130 130 128 130 131 132 131 132 133 131 131 134 135 131 131 133 133 135 135 134 135 135 135 135 135 136 135 138 137 134 136 136 136 137 137 137 137 136 134 135 135 136 134 134 136 136 135 135 136 136 136 137 137 138 136 137 135 136 137 136 135 135 134 133 136 137 134 135 134 134 132 134 133 135 135 135 134 134 133 132 133 135 135 134 134 131 130 130 128 124 125 125 126 128 127 125 126 125 126 124 124 124 124 124 125 123 122 123 122 121 120 119 121 121 117 118 120 119 118 117 116 116 115 113 113 113 
118 118 119 120 119 120 120 120 119 120 123 121 120 122 122 122 122 122 120 123 125 124 125 126 125 126 125 129 129 127 126 127 127 129 128 130 132 130 131 131 132 131 131 131 131 132 132 131 131 132 132 134 132 132 134 135 134 135 134 134 135 134 132 134 134 133 132 132 133 134 133 132 134 134 132 132 134 133 132 133 134 134 133 132 132 132 131 132 133 133 132 131 130 130 130 129 131 132 131 128 128 127 128 130 129 129 129 130 130 130 129 127 123 118 120 120 122 125 125 123 124 124 120 113 114 116 118 120 121 118 119 117 117 117 116 116 117 115 114 115 114 113 113 113 112 111 111 110 110 110 
111 113 116 118 114 114 114 114 117 118 120 122 119 119 118 117 118 120 118 119 121 122 123 123 123 125 124 125 125 122 122 125 126 125 123 127 128 129 131 130 129 128 127 127 126 128 128 125 127 131 130 129 128 129 130 129 131 129 131 130 132 131 132 133 132 131 130 130 129 129 131 129 128 130 133 130 131 131 131 132 131 130 129 129 129 130 128 129 129 129 129 127 127 125 123 124 126 126 124 120 122 124 126 126 124 124 124 122 123 124 123 122 123 121 122 119 119 120 120 119 119 120 120 118 119 118 115 113 115 115 113 112 112 113 112 111 111 111 110 109 108 108 108 108 107 107 106 106 106 106 
112 111 111 112 114 114 112 112 114 114 112 112 111 113 114 114 115 118 117 118 117 118 119 118 120 122 120 119 120 118 120 121 123 123 122 125 125 123 123 123 123 122 123 127 128 126 124 123 127 128 128 130 128 127 126 127 128 126 129 128 128 126 130 130 128 130 129 127 126 126 123 122 124 126 125 127 127 129 132 131 127 127 126 124 124 125 125 126 127 123 122 125 123 123 123 122 122 123 124 122 121 122 122 119 117 118 119 118 117 118 119 118 118 117 117 116 116 115 114 114 113 114 115 114 115 114 110 109 113 112 109 110 109 112 110 107 107 108 107 105 105 106 106 105 104 103 101 100 102 101 
112 110 110 111 112 114 112 112 112 111 112 113 111 113 113 111 112 115 116 118 116 113 114 114 118 120 120 120 119 116 118 119 118 120 120 119 119 119 120 119 118 117 117 123 124 121 122 122 123 120 120 122 122 122 121 125 125 123 126 126 125 125 127 125 123 125 125 123 123 123 123 122 126 125 122 123 125 126 124 126 121 121 123 125 125 123 124 123 121 121 120 125 126 122 121 123 122 122 124 123 120 118 116 118 119 116 115 117 118 115 117 118 117 115 113 113 114 115 115 114 111 111 111 111 113 114 110 109 111 109 107 107 106 108 107 106 106 105 104 104 104 105 106 104 102 102 100 98 101 101 
111 112 113 112 111 111 113 112 111 112 115 118 115 117 116 112 112 115 116 118 119 117 119 120 123 124 124 123 123 124 122 123 123 123 124 124 123 123 124 124 124 123 121 124 122 123 124 120 122 123 121 123 124 125 123 124 125 125 125 123 123 125 123 124 123 123 123 123 124 125 124 123 126 125 122 124 127 128 126 129 125 124 130 127 125 126 127 123 121 122 121 123 125 122 119 119 119 120 122 119 119 118 117 120 120 118 116 115 117 117 116 117 114 112 116 113 111 111 111 112 111 110 109 108 109 111 110 110 111 109 108 108 107 105 107 107 105 105 104 103 103 103 105 103 103 103 101 99 100 102 
114 115 118 118 118 117 117 115 114 118 119 122 120 120 120 120 119 120 120 121 122 124 124 125 128 127 128 124 124 126 124 124 125 126 126 126 126 127 125 126 128 130 128 129 127 128 127 125 128 129 127 127 127 129 128 127 127 128 126 128 127 129 127 124 125 124 124 124 127 128 127 126 127 125 123 124 126 126 128 128 128 127 130 130 126 128 129 127 125 124 124 126 128 125 122 119 117 120 122 120 120 119 120 122 122 121 121 119 119 122 119 118 119 114 114 115 116 116 116 116 115 114 114 113 112 114 114 113 114 113 112 112 111 108 108 107 107 107 106 105 103 104 104 102 102 103 101 100 102 103 
111 112 116 117 117 114 117 117 116 114 115 119 118 118 118 118 122 123 121 119 118 121 121 121 124 122 122 122 124 126 124 123 125 123 123 124 124 126 125 127 128 128 127 127 128 130 131 130 133 130 130 133 130 127 131 130 129 130 128 129 126 129 129 125 128 129 129 129 130 130 130 129 131 129 133 132 130 129 130 127 129 129 129 131 129 128 128 128 131 128 127 130 132 129 127 124 122 125 125 123 120 120 122 124 124 123 123 123 123 124 124 123 122 121 122 121 122 120 119 120 118 118 118 115 117 116 115 114 116 115 112 110 112 111 111 110 109 108 107 104 104 104 105 105 106 105 104 102 102 103 
114 116 115 117 116 112 120 122 120 117 119 118 117 119 121 122 121 122 124 125 126 122 124 123 123 125 122 124 123 125 124 125 128 125 125 127 125 127 127 129 130 128 129 126 125 127 129 129 129 130 129 129 126 128 130 128 129 131 128 129 126 128 129 128 130 129 130 132 133 130 127 126 128 131 128 128 130 131 133 132 130 131 131 131 128 127 128 130 130 129 131 133 132 129 130 128 123 125 126 125 125 126 127 127 126 124 120 123 123 123 126 125 122 121 125 124 124 124 122 122 121 121 121 118 118 119 118 116 115 117 115 111 113 113 113 112 109 112 109 110 110 111 111 109 108 108 108 106 103 105 
115 115 115 116 116 115 117 117 116 114 119 119 118 121 122 122 120 121 122 123 126 124 128 127 127 126 125 126 125 125 125 129 131 130 131 130 127 130 130 130 130 129 131 130 129 129 131 129 130 131 131 130 130 132 130 131 133 130 132 133 131 130 131 133 133 132 134 133 132 132 131 130 133 134 130 129 130 131 132 129 130 131 130 131 131 132 131 133 131 126 127 129 130 129 131 128 127 129 130 129 127 127 128 127 127 126 123 126 126 123 125 124 123 122 122 122 122 122 119 120 120 121 121 120 120 121 121 119 119 118 116 113 112 114 116 117 116 116 111 112 113 113 112 111 109 109 109 108 109 110 
117 115 116 119 118 117 116 116 115 115 116 118 121 122 120 121 120 121 122 123 126 124 125 126 126 125 129 125 124 125 125 129 128 127 130 130 129 129 129 129 127 126 128 126 126 129 129 127 127 129 130 131 129 131 130 132 134 133 131 132 133 132 132 132 131 132 132 131 132 132 131 131 132 132 129 130 130 129 131 130 129 129 128 131 132 132 132 132 131 129 129 128 132 130 130 128 130 129 129 130 129 128 125 128 130 127 127 127 127 128 125 123 124 123 123 125 125 123 122 121 121 122 123 123 120 119 119 119 120 118 117 118 117 116 115 117 118 115 114 116 117 114 113 113 110 109 110 112 112 111 
115 116 117 118 116 116 116 118 119 120 119 120 123 122 121 123 123 121 120 122 126 125 124 126 126 126 126 125 126 127 127 129 128 126 128 129 130 128 127 127 127 127 127 127 127 127 126 127 129 130 130 131 129 128 127 132 135 135 132 133 134 133 132 131 129 133 131 129 132 132 130 129 131 132 130 129 128 129 133 130 130 132 129 129 133 132 132 130 129 132 132 128 127 128 130 127 127 128 126 126 127 128 127 128 129 127 128 127 125 125 124 127 128 125 122 122 123 123 123 120 121 124 124 122 120 120 120 121 121 119 118 119 119 117 117 119 119 116 116 114 114 113 113 114 112 112 113 112 110 111 
114 115 115 118 116 114 115 118 117 122 125 125 122 122 122 123 123 122 123 124 123 123 124 124 126 125 124 123 125 128 128 128 127 127 126 126 128 128 126 124 128 130 129 130 131 126 130 129 130 132 131 133 132 130 129 130 131 130 129 134 134 133 133 132 132 134 134 132 132 134 133 133 136 132 131 130 133 133 137 133 131 134 135 133 130 131 131 130 131 132 131 129 128 132 134 130 130 133 131 131 132 133 135 130 128 129 128 126 126 130 130 125 123 124 123 122 122 122 121 120 122 123 122 120 120 122 119 117 119 119 117 118 121 118 118 118 118 118 118 116 114 115 112 112 114 114 116 115 110 112 
