P2
150 65
255
80 67 68 72 84 81 67 70 79 86 94 83 94 83 63 65 76 77 78 89 128 149 153 173 216 123 81 88 92 146 178 177 176 193 195 197 191 201 211 215 208 177 173 194 191 188 189 188 198 193 184 176 182 185 179 195 195 176 156 147 163 170 175 144 96 89 88 87 87 128 227 226 182 184 182 211 236 230 224 217 229 223 232 233 209 202 202 185 156 151 148 144 146 136 137 150 158 166 172 139 144 190 203 175 125 96 100 126 121 106 133 142 168 233 227 191 152 141 161 172 187 225 243 238 171 128 109 92 94 93 99 98 89 89 93 96 89 86 96 120 125 125 138 152 139 136 133 117 105 113 
110 83 67 67 73 75 66 67 79 130 171 133 107 79 62 66 75 78 82 88 122 131 122 162 176 94 79 92 98 135 171 183 175 173 175 186 185 188 190 193 198 178 168 173 178 179 181 182 176 179 161 158 170 175 178 185 180 176 141 114 119 117 101 88 91 95 86 81 113 165 191 173 154 148 177 204 204 198 207 216 198 187 188 192 181 167 156 154 141 133 136 136 136 133 131 156 171 155 138 125 137 179 197 188 161 126 115 125 140 177 177 159 187 221 214 198 186 176 151 136 169 185 197 184 141 126 103 93 98 93 95 91 90 90 96 100 96 98 101 98 97 100 112 116 127 127 103 98 104 113 
99 89 65 69 71 76 81 73 68 101 131 111 74 64 60 64 74 82 85 97 136 133 125 157 125 79 78 89 100 131 172 189 182 181 178 174 169 188 194 208 211 189 176 170 166 171 174 173 169 171 162 159 172 175 177 170 175 179 126 95 93 84 82 87 96 94 105 127 165 183 164 131 108 116 164 189 190 177 181 189 166 161 154 164 172 146 127 130 128 135 138 130 129 132 144 147 153 150 134 117 116 131 141 129 133 118 99 123 146 164 151 127 135 147 149 141 131 124 114 112 124 120 120 107 101 105 112 99 111 101 100 97 87 86 130 134 104 108 105 104 96 98 127 127 124 120 97 98 104 112 
79 74 57 62 71 74 88 82 66 67 70 71 60 62 59 66 79 85 88 107 179 192 181 181 90 75 85 81 97 152 180 189 190 174 160 157 167 198 204 218 214 199 203 197 196 192 185 182 176 184 185 175 199 215 196 174 163 155 104 78 88 92 91 97 104 112 164 190 188 190 191 156 110 116 159 186 182 174 181 177 172 170 145 139 145 134 117 109 110 135 148 137 141 144 154 120 109 109 107 101 101 98 100 98 101 101 97 115 116 110 109 107 108 100 94 90 87 88 89 92 100 109 106 107 112 130 134 103 91 84 95 109 99 114 155 128 112 123 134 132 109 117 155 148 130 120 123 121 111 114 
99 100 75 56 67 69 72 76 80 81 71 71 63 60 63 64 75 87 96 108 181 221 203 161 77 77 79 86 104 153 181 188 193 177 170 168 178 206 202 206 208 194 183 189 196 189 188 182 182 184 191 189 178 173 140 118 95 85 79 78 83 90 91 109 150 174 213 210 184 181 171 141 120 126 189 214 182 184 188 167 162 154 144 137 126 123 121 112 114 134 144 145 155 130 137 137 127 107 101 97 99 95 96 101 102 101 96 99 98 90 91 97 91 76 83 90 93 95 94 94 100 113 120 115 100 81 91 99 90 88 95 107 98 110 112 118 110 117 108 107 101 110 175 168 127 132 131 121 105 108 
77 88 90 64 59 67 72 70 72 77 71 66 63 63 66 66 76 92 97 106 150 162 178 141 80 76 78 97 117 151 168 182 185 184 181 170 164 190 196 187 190 185 159 149 153 152 161 161 151 134 123 115 102 89 79 77 78 80 83 83 93 111 130 142 165 171 174 170 175 170 139 120 119 131 154 171 159 169 163 143 152 151 137 128 115 116 120 121 138 134 139 135 140 127 124 124 122 118 114 111 111 110 108 107 105 103 103 102 104 108 104 102 97 92 100 109 114 112 106 113 113 107 107 113 107 112 126 128 116 119 129 138 120 126 111 103 102 127 109 106 112 119 148 140 117 113 118 114 120 127 
116 126 142 98 53 58 70 71 66 71 72 70 72 63 56 71 82 90 96 116 166 169 186 126 80 79 85 118 146 168 173 193 192 191 196 184 161 184 187 184 188 177 154 126 120 105 101 93 87 81 79 76 76 75 76 77 76 79 96 125 157 165 171 154 155 157 150 154 174 167 151 138 112 114 126 141 146 163 169 140 137 129 124 111 102 102 105 111 131 127 131 118 120 121 112 116 115 116 113 108 102 104 107 107 106 109 114 115 115 112 108 107 108 105 107 108 108 109 125 133 130 128 138 137 139 139 117 124 134 121 111 113 119 122 111 104 105 117 116 115 112 114 132 123 113 115 126 125 122 118 
142 152 176 130 60 55 66 74 69 70 79 74 74 71 63 69 77 98 122 144 175 179 163 86 71 85 96 134 170 179 171 167 166 161 178 179 153 152 156 150 137 97 86 80 78 76 74 72 75 74 74 71 72 74 80 85 99 121 152 179 167 159 160 160 152 159 153 151 166 176 165 145 115 120 123 118 135 147 134 120 108 108 106 96 92 91 91 101 128 124 127 114 125 115 101 97 91 97 96 99 94 94 96 96 100 115 122 109 104 96 96 100 100 97 98 93 89 97 118 117 106 117 135 125 109 95 87 108 144 128 97 95 112 113 114 109 109 106 112 103 99 101 122 122 125 136 126 104 105 125 
137 145 145 120 64 54 54 63 73 71 69 72 79 76 60 69 86 125 160 180 172 174 165 77 72 87 93 117 151 185 180 158 158 145 153 144 108 84 83 83 82 76 78 76 74 73 74 71 70 75 80 82 100 112 105 121 147 168 174 169 158 164 154 138 149 172 172 161 174 172 158 145 108 110 113 118 137 128 100 105 97 94 96 97 96 94 90 96 127 124 132 118 120 114 96 95 89 92 99 110 111 99 105 102 103 109 112 106 100 96 96 93 90 90 96 86 79 85 94 87 83 92 98 106 107 99 103 112 142 121 99 94 106 126 117 108 105 113 114 109 113 116 121 129 137 118 116 128 152 177 
99 107 115 108 66 58 51 50 64 70 71 73 72 72 67 79 97 158 160 160 161 169 132 73 81 89 90 126 157 166 165 152 132 106 93 86 78 78 77 77 81 81 81 77 74 73 76 80 95 115 134 162 166 176 150 133 109 116 154 154 147 136 138 146 143 150 142 147 159 142 145 144 112 98 109 117 107 97 98 94 86 89 89 92 90 89 88 95 126 125 135 124 125 114 98 101 96 100 104 104 106 96 99 99 101 103 104 102 101 99 94 90 91 88 89 85 83 84 87 91 97 101 100 99 120 126 128 142 154 123 108 105 112 114 114 120 126 127 114 116 121 122 119 117 111 108 126 144 167 171 
68 69 69 72 66 65 55 49 53 64 75 75 75 74 75 73 91 146 136 105 92 125 87 66 77 84 82 101 107 95 94 92 80 75 73 77 81 83 84 81 80 83 75 69 67 66 67 70 80 85 92 108 107 118 111 97 83 102 127 99 100 94 93 107 105 103 104 104 101 96 101 106 89 79 86 83 75 72 74 75 74 76 78 80 78 80 81 84 98 98 102 108 132 102 82 87 89 91 88 86 84 84 91 84 83 86 81 81 83 82 80 82 86 88 95 85 81 78 83 94 99 93 90 94 120 137 108 106 142 110 113 116 105 102 107 116 120 121 117 120 119 128 132 130 140 139 124 122 161 156 
63 65 74 75 70 66 63 56 53 61 77 79 79 78 79 71 80 103 117 89 83 104 66 62 70 70 71 79 78 68 72 74 76 79 80 82 81 80 79 73 70 69 63 64 65 66 66 65 65 66 69 73 87 95 94 91 76 102 114 70 69 68 74 82 77 72 79 80 76 75 78 78 76 75 74 74 74 74 74 74 74 75 76 76 76 76 77 78 80 81 80 98 130 95 77 80 79 79 78 77 77 78 78 77 75 76 76 76 75 75 76 75 75 77 78 74 75 77 79 81 81 82 83 87 92 99 90 92 131 104 103 105 103 104 109 124 119 112 117 127 122 132 150 139 142 137 123 126 146 156 
60 65 71 69 73 72 67 64 58 55 67 90 88 84 87 82 75 85 110 90 91 95 60 61 69 69 75 75 73 67 70 76 80 84 85 79 75 69 67 66 63 60 61 66 64 63 64 66 65 67 70 77 88 93 98 94 73 99 112 70 71 71 73 77 79 80 77 78 80 78 78 77 76 74 73 74 74 74 74 74 74 75 76 77 77 78 79 80 82 81 82 103 132 97 83 82 80 80 79 79 79 79 79 79 77 81 84 81 79 81 79 79 79 77 77 75 78 79 80 82 84 87 89 92 95 99 106 109 137 109 104 108 110 111 114 120 116 111 114 117 128 146 153 142 133 123 122 119 128 125 
68 74 71 67 67 69 70 69 63 56 56 77 91 84 79 74 67 80 96 86 79 69 64 75 82 79 88 81 76 74 76 85 83 80 75 69 65 63 63 67 66 63 65 67 66 65 65 65 65 66 70 76 81 86 92 86 71 103 111 67 67 68 68 68 73 78 76 77 80 77 74 73 74 73 73 73 73 74 74 74 74 75 75 76 77 76 77 81 82 82 83 105 133 95 82 81 81 80 80 79 78 78 78 77 78 79 80 79 79 78 77 76 76 76 76 77 79 81 82 85 86 89 92 94 100 109 123 127 139 110 107 111 110 114 113 109 111 113 114 111 130 140 147 158 148 126 114 114 111 113 
75 72 69 67 63 64 67 72 72 65 58 67 89 85 76 82 82 82 93 93 85 74 73 83 86 81 91 82 81 89 87 91 88 72 67 66 64 65 65 69 69 65 66 67 66 69 70 70 70 73 78 81 78 76 85 81 72 109 112 68 71 71 71 71 72 76 78 78 75 74 74 75 75 75 75 75 78 77 76 76 76 76 77 78 78 77 77 82 82 82 82 104 135 94 85 85 87 85 83 81 79 81 82 81 81 84 86 85 83 79 77 77 78 78 78 81 84 85 85 89 91 93 96 98 102 108 112 121 140 110 108 110 112 112 111 111 112 110 111 110 111 112 116 121 119 107 100 102 106 117 
63 61 62 62 60 60 62 67 80 81 66 64 84 94 83 83 85 86 99 108 96 87 82 90 94 86 83 80 91 121 104 73 70 66 64 64 63 64 64 67 68 65 65 65 65 69 72 72 72 75 77 78 77 77 79 76 72 110 109 68 71 71 72 72 72 74 79 77 75 74 75 76 76 76 76 77 79 77 76 77 76 76 77 78 77 76 76 81 83 81 80 103 139 97 91 92 92 89 85 82 79 81 83 84 83 84 86 87 86 81 78 79 79 79 79 81 86 87 86 88 90 92 95 98 100 101 101 109 134 103 104 105 105 106 107 107 106 107 108 107 107 108 107 106 104 101 99 99 100 104 
57 57 58 58 58 58 59 61 84 95 80 75 85 95 92 87 85 91 101 109 103 92 87 101 100 95 85 91 102 99 76 63 63 63 63 64 64 65 66 66 66 67 67 68 68 68 70 70 68 69 70 70 71 71 69 67 73 108 105 70 71 71 72 73 72 72 74 74 75 75 75 75 76 76 76 76 77 77 77 77 76 76 77 78 78 77 77 82 82 82 82 102 143 99 91 91 91 88 84 82 81 83 85 86 85 84 83 83 83 81 79 79 79 80 81 81 82 83 84 85 85 87 90 93 93 95 95 111 129 97 98 97 95 97 102 103 104 105 105 103 104 105 106 106 106 103 97 95 94 95 
57 57 57 57 57 57 58 59 65 79 89 88 93 91 85 99 105 96 92 104 111 103 126 138 136 126 114 109 90 68 66 64 64 65 65 64 65 67 67 67 66 66 68 68 68 69 70 70 69 69 72 75 74 73 73 73 74 110 103 68 71 71 73 73 72 72 74 74 75 75 75 75 75 75 75 75 75 76 76 76 76 77 78 78 77 76 76 81 82 83 82 103 147 96 88 88 87 85 84 84 84 86 87 87 86 84 83 83 83 82 80 79 78 78 80 81 82 81 82 84 85 85 87 89 89 90 90 114 124 94 94 94 94 96 101 103 104 105 105 104 102 103 104 104 101 99 94 94 94 95 
56 56 56 56 57 57 57 58 59 66 79 88 93 102 108 104 92 94 94 104 97 106 134 163 170 168 157 91 67 65 64 64 64 65 65 64 65 66 67 67 66 66 67 67 68 68 69 69 68 69 74 80 74 71 77 84 82 112 100 69 71 71 71 72 72 72 73 73 74 74 75 75 74 73 74 75 75 75 75 75 76 76 76 76 76 75 75 81 82 81 80 106 148 96 89 91 89 88 87 86 87 86 88 87 87 86 85 86 86 84 83 82 82 82 82 82 83 81 83 87 88 87 89 90 91 89 92 120 120 94 95 96 95 97 102 103 102 106 109 108 102 101 102 103 102 100 97 97 96 97 
58 59 60 61 61 60 60 62 63 64 66 80 101 119 124 114 101 90 86 102 111 112 122 160 198 192 121 70 64 63 63 64 64 64 64 64 65 66 67 67 67 67 67 67 68 69 70 70 69 69 74 80 74 73 77 78 76 115 100 69 71 71 71 71 72 72 72 72 72 73 74 74 74 73 73 74 75 75 76 77 75 74 74 73 75 74 75 81 80 80 80 105 139 91 86 87 87 85 84 85 86 84 85 85 85 85 85 85 85 83 82 82 82 82 82 83 83 83 85 88 87 85 87 90 92 90 94 130 119 96 96 96 97 97 97 99 100 104 106 105 101 100 101 103 102 99 98 98 100 101 
57 58 59 60 59 58 58 60 62 61 60 67 90 112 115 116 104 97 99 121 130 124 138 174 214 191 76 61 61 60 61 62 63 63 63 63 62 63 64 64 64 64 64 64 65 66 67 68 67 67 71 75 69 68 73 73 71 112 97 67 70 70 70 70 70 70 70 70 71 71 72 73 73 72 71 72 73 76 87 81 74 74 73 72 73 73 74 78 78 75 77 100 124 82 79 87 86 83 81 81 82 82 80 82 84 84 84 84 83 82 81 82 82 83 84 85 85 84 84 87 86 82 86 91 94 94 99 140 118 99 97 96 96 96 96 97 97 98 100 101 101 100 99 101 102 100 97 97 99 99 
64 64 67 69 65 65 64 65 66 65 63 62 72 98 112 123 114 108 122 129 123 129 168 205 241 191 78 70 70 73 75 71 69 69 68 67 67 68 68 71 68 68 68 68 71 75 75 76 74 74 74 74 71 73 76 79 79 114 99 71 71 72 73 73 68 67 67 67 66 68 68 69 69 71 69 72 79 77 82 74 71 70 68 68 69 69 70 72 74 73 73 103 122 77 75 85 80 76 75 75 76 76 76 76 77 78 79 79 79 78 78 78 78 80 82 83 82 82 78 82 84 79 81 83 89 88 92 138 108 91 91 89 91 93 93 93 94 94 95 98 101 100 94 95 94 95 95 94 91 91 
76 75 76 76 72 70 71 71 84 81 70 73 77 86 99 116 118 115 127 125 112 129 162 211 247 184 88 77 73 72 75 76 72 71 71 72 73 75 76 79 73 73 73 73 76 77 75 76 75 74 74 77 78 81 87 86 79 116 99 72 75 79 77 75 74 75 75 74 74 74 73 78 86 84 84 89 105 107 100 84 81 78 74 75 75 76 76 82 85 87 81 108 131 84 81 100 89 84 86 86 85 86 86 85 86 90 94 94 93 92 90 89 90 93 95 96 96 94 92 95 103 99 94 97 97 99 102 141 109 97 102 106 108 105 103 100 99 95 98 101 109 111 102 98 100 104 103 100 98 98 
87 84 79 73 61 65 67 67 86 91 83 115 132 85 73 89 109 117 113 120 116 122 148 202 244 183 93 87 83 85 87 82 79 80 81 81 83 82 82 86 80 80 81 81 83 81 80 83 82 81 84 88 89 92 93 95 93 117 103 85 87 92 89 88 91 93 92 88 86 86 90 95 93 89 94 93 98 98 99 95 96 93 89 87 87 89 89 84 85 89 80 109 129 93 91 97 99 99 102 100 101 100 98 96 99 103 104 104 105 106 107 106 106 107 106 105 105 103 101 97 99 102 100 108 104 106 110 142 111 104 107 110 110 102 101 100 99 99 102 98 99 101 97 96 97 98 98 96 93 93 
32 33 34 35 35 35 32 33 40 49 55 109 161 75 56 100 139 145 145 123 111 124 141 196 238 186 86 86 87 90 91 84 82 83 80 80 84 84 85 87 84 85 86 88 86 84 83 84 83 84 90 94 90 91 89 89 91 114 100 84 88 89 90 90 92 97 96 96 96 97 98 97 90 86 96 98 98 94 97 102 103 99 98 100 95 91 90 87 84 87 78 109 123 97 100 109 114 116 119 114 113 113 110 106 108 111 108 108 110 113 115 116 115 114 112 111 110 107 106 103 101 99 100 103 104 105 112 145 114 104 106 107 103 101 103 103 104 105 106 101 95 92 90 91 91 93 94 94 91 89 
46 49 50 49 52 51 41 35 33 43 56 62 90 86 98 189 230 200 171 123 102 124 147 179 207 188 84 69 74 78 79 79 80 82 81 83 84 82 82 84 86 86 88 90 90 90 89 88 90 87 89 94 92 92 88 86 88 106 106 100 97 93 92 93 96 100 103 107 101 94 96 97 95 94 101 106 112 113 118 125 135 140 145 148 147 140 138 138 136 131 126 145 145 127 131 131 123 128 136 128 121 121 118 114 113 111 110 114 115 114 113 112 113 112 110 109 110 108 105 106 106 103 103 98 103 111 112 139 112 103 106 108 107 108 114 115 114 113 107 101 102 97 88 88 89 90 91 90 88 87 
65 63 61 60 60 62 62 58 56 58 60 64 63 91 140 189 203 204 208 152 107 106 118 142 179 196 99 64 64 66 64 71 77 77 79 81 82 80 83 85 86 89 91 92 94 92 91 92 91 88 87 89 97 94 93 94 94 96 93 94 91 90 90 96 101 101 98 95 93 93 99 105 126 152 171 179 186 190 198 197 200 200 199 201 201 202 204 206 210 210 211 212 213 212 211 207 203 196 183 164 143 128 119 118 119 119 120 125 127 130 129 129 127 123 120 119 119 118 107 107 110 104 103 102 117 126 120 137 134 134 142 147 150 153 154 154 148 134 125 116 108 100 92 92 93 94 92 90 87 86 
75 75 74 73 77 77 79 80 79 75 74 71 67 71 101 144 176 188 192 142 103 88 85 111 161 184 122 71 64 59 56 74 82 72 72 74 76 77 80 81 82 86 89 88 88 86 88 92 89 87 82 80 91 77 78 92 87 81 83 79 84 94 95 95 93 90 90 91 94 95 97 117 174 187 185 185 181 178 173 172 170 169 170 168 171 171 174 187 192 178 169 172 178 186 195 202 209 213 219 216 209 196 182 149 124 117 115 117 117 115 111 111 112 116 116 114 111 105 98 96 96 91 92 90 94 98 103 117 109 114 117 119 122 125 123 123 118 110 107 101 100 94 90 88 88 89 89 88 85 85 
82 82 81 80 84 85 82 85 89 85 81 81 74 69 76 104 131 130 146 106 77 68 66 80 120 155 144 82 68 65 65 80 75 66 68 66 68 75 78 81 83 85 87 87 86 84 85 85 80 79 72 66 72 66 64 74 72 74 88 87 83 90 93 96 97 95 99 99 107 107 112 146 167 157 148 149 142 133 132 139 132 126 129 131 135 127 118 170 184 148 141 145 147 151 153 155 160 168 181 194 204 217 227 207 163 134 123 110 109 103 102 101 104 113 109 106 103 94 84 75 78 76 74 80 90 89 96 112 107 107 106 104 105 106 103 101 98 94 89 90 95 98 94 88 90 90 89 88 82 81 
93 93 94 95 98 101 98 101 106 102 97 96 97 86 100 117 118 99 90 97 96 102 83 82 114 146 155 87 62 72 73 65 64 63 67 69 70 77 84 91 92 93 95 97 95 86 83 77 71 67 64 66 69 68 66 71 66 64 73 92 80 71 85 94 93 86 87 89 96 98 149 160 122 113 107 126 118 117 126 136 132 129 128 134 134 122 115 167 177 151 165 167 164 169 172 171 169 158 148 142 159 179 196 211 205 186 165 123 110 102 103 105 108 112 104 95 88 74 73 66 59 68 73 75 86 92 90 99 106 104 103 100 98 100 95 91 86 82 81 79 87 90 90 87 89 89 92 90 82 80 
187 189 191 193 195 197 198 202 203 202 202 202 202 203 203 206 210 216 218 219 223 206 163 183 210 193 165 101 57 69 74 61 58 61 66 59 59 68 69 72 70 71 73 74 74 72 70 66 62 58 63 65 62 66 60 66 69 64 63 69 73 70 79 85 83 78 76 86 90 124 156 120 105 107 122 137 112 93 103 115 125 125 125 134 133 123 122 169 178 156 165 168 168 170 173 175 181 175 174 171 158 154 143 184 203 204 202 180 158 123 101 96 96 96 96 77 69 71 83 68 55 72 80 71 84 99 100 101 99 101 99 90 84 78 74 72 69 70 77 75 75 81 81 81 75 73 86 85 83 83 
232 233 234 234 233 233 232 230 232 232 232 231 233 209 157 163 137 204 234 232 229 227 222 226 229 204 173 143 85 57 63 54 53 61 66 66 72 72 69 76 71 65 76 91 95 97 93 87 74 59 59 69 79 95 101 112 122 129 138 147 152 154 157 156 155 147 132 126 145 168 121 91 89 94 130 131 100 102 106 116 128 131 123 126 135 132 119 165 178 159 173 169 169 172 173 170 171 169 173 176 170 173 168 154 160 195 207 205 200 172 146 123 109 94 89 76 71 74 76 70 66 67 74 70 85 93 96 99 84 80 87 88 88 77 69 61 63 70 68 67 69 69 80 80 70 66 73 78 80 83 
227 228 228 228 228 227 223 222 224 224 224 226 229 198 124 130 105 190 231 227 226 223 213 222 229 196 149 132 110 74 67 62 59 64 69 64 62 67 67 72 74 66 68 76 78 77 80 75 85 105 127 157 172 189 198 204 207 209 210 210 209 206 203 201 202 199 181 166 168 177 148 129 122 130 148 130 111 114 112 119 125 124 126 131 135 130 117 168 184 153 158 159 162 165 166 164 164 169 167 171 168 170 168 146 137 184 214 210 210 209 203 208 190 129 103 90 88 79 78 83 94 99 95 85 95 97 86 102 86 73 86 84 100 99 87 79 83 87 80 78 78 81 83 86 80 69 76 75 80 88 
226 226 225 223 223 222 218 218 222 221 217 222 228 201 118 110 115 197 231 226 225 193 162 214 226 171 108 104 106 109 101 91 82 74 73 64 64 70 70 73 72 67 72 73 70 83 103 134 157 177 193 207 204 195 194 193 191 188 187 187 186 186 186 186 183 182 167 169 184 190 190 190 189 189 184 175 172 170 168 170 171 169 171 175 171 170 175 187 192 177 169 169 169 169 169 168 171 173 169 172 169 168 168 180 181 194 207 218 218 216 229 240 237 199 145 89 85 89 84 89 93 108 105 101 102 97 93 110 97 90 96 82 95 108 102 107 101 89 97 100 101 104 95 97 90 89 100 93 94 109 
192 202 218 226 223 221 218 216 216 217 217 222 224 218 182 173 173 206 214 214 220 209 208 216 197 148 108 110 111 104 107 118 126 126 110 87 82 78 80 88 89 89 88 87 88 133 170 182 173 155 183 218 206 183 186 192 195 194 192 193 194 193 192 193 190 188 176 176 192 194 194 194 194 194 192 193 194 195 194 195 195 195 195 194 185 176 194 192 191 202 205 204 205 208 208 207 208 210 210 209 209 214 216 216 212 204 204 211 218 223 217 228 243 249 221 130 96 98 91 98 96 90 91 108 94 96 94 96 98 100 107 100 97 101 102 104 103 90 98 103 107 111 102 101 94 96 112 112 96 102 
55 63 105 158 224 231 219 219 218 219 220 221 223 225 225 227 221 205 201 210 222 221 222 211 189 172 179 189 161 89 87 95 95 102 115 119 121 117 114 113 119 129 130 150 168 179 185 183 180 179 187 193 193 194 194 196 197 195 188 184 182 182 186 186 180 179 176 176 180 182 183 184 183 184 184 185 188 186 183 184 183 183 185 186 184 175 179 180 182 189 192 195 196 202 208 217 223 216 212 221 219 214 207 201 198 198 202 208 215 224 229 221 220 243 246 230 208 190 181 160 161 159 160 161 161 161 161 160 161 162 162 162 162 159 158 158 158 158 159 161 165 169 169 171 171 170 170 170 167 169 
38 37 41 58 143 209 223 218 206 205 204 201 199 198 200 202 197 193 208 189 154 163 199 200 179 160 205 228 171 83 82 90 91 90 94 101 104 109 110 105 106 111 129 166 175 177 178 183 188 187 162 139 134 135 152 177 197 204 199 197 188 174 173 174 174 175 170 172 177 177 177 178 177 178 179 181 185 184 180 180 181 181 184 188 193 189 181 176 179 183 184 185 185 190 194 199 202 198 195 199 198 193 190 193 196 199 203 206 209 213 218 223 225 222 226 238 236 186 147 149 148 147 146 150 155 155 152 143 145 145 143 140 139 142 139 138 140 141 140 141 142 140 141 144 147 149 150 149 147 145 
45 45 42 38 61 129 211 202 138 128 129 127 124 121 121 123 124 127 139 148 160 182 226 228 209 190 226 200 131 83 86 86 87 87 88 89 90 94 96 96 98 110 146 186 185 183 184 179 139 91 61 42 40 44 51 67 103 151 190 204 204 195 180 168 169 172 165 167 175 175 175 176 177 177 177 177 177 177 178 180 184 183 180 180 185 184 179 173 175 178 179 179 180 182 185 185 184 182 178 177 181 188 188 177 163 150 148 151 157 177 194 211 216 221 212 205 201 166 127 122 122 124 122 124 127 126 124 121 120 121 119 116 118 119 117 114 116 118 116 116 118 119 116 114 113 113 117 116 114 115 
51 50 45 41 32 56 174 207 179 168 173 177 180 182 185 189 191 195 197 206 209 210 207 186 172 161 145 101 86 86 90 89 88 85 84 85 85 82 91 114 104 92 116 172 194 197 167 94 45 37 46 54 55 57 52 44 35 37 112 194 207 212 203 184 169 169 162 166 176 176 176 176 178 178 178 178 177 177 177 179 181 181 177 176 177 178 178 171 173 177 178 177 178 178 179 177 176 173 173 186 185 161 123 81 59 50 52 51 49 64 94 162 196 219 229 198 174 166 144 130 127 119 119 119 120 119 122 117 115 116 115 112 112 109 108 109 109 107 107 106 110 112 112 115 116 114 117 118 120 122 
58 51 50 49 38 38 130 201 198 195 194 195 192 191 190 183 177 159 136 123 106 109 114 119 141 121 92 88 87 87 86 82 81 81 81 82 84 77 98 135 138 127 132 148 163 122 63 40 50 52 55 64 66 63 58 55 60 50 41 98 190 209 212 207 182 163 159 160 172 173 173 173 174 174 174 175 174 174 173 174 174 175 174 175 174 175 177 168 172 176 176 176 177 176 178 175 170 174 188 179 128 67 54 52 55 60 63 63 59 53 51 52 85 186 218 232 216 186 182 146 126 113 118 121 115 113 112 111 113 111 109 110 107 104 107 110 107 105 108 106 105 106 109 112 111 109 114 116 117 117 
116 91 54 52 48 39 69 120 126 114 108 101 93 82 71 85 100 79 77 83 85 91 92 91 95 95 94 96 93 87 87 89 90 90 90 105 111 92 89 95 99 128 130 105 99 49 42 51 63 86 103 140 142 146 106 83 60 61 48 37 148 212 213 222 199 164 152 156 167 169 169 169 169 170 171 171 171 171 171 171 172 172 172 173 172 173 174 165 171 174 174 174 175 174 173 168 162 186 183 121 50 52 60 90 100 133 137 143 124 93 75 52 47 89 161 222 232 232 224 145 107 137 155 145 121 103 103 106 104 105 105 109 109 109 110 108 104 102 106 105 105 105 105 101 100 101 99 95 95 94 
91 98 63 52 52 49 37 38 50 50 47 38 32 29 40 102 99 74 69 68 69 76 75 74 77 76 75 75 73 69 73 79 77 76 79 82 86 79 75 80 74 75 79 71 50 42 52 52 94 120 182 228 216 197 172 132 83 55 55 34 103 221 210 219 213 172 142 144 159 162 164 165 166 166 167 168 169 169 169 170 170 170 170 171 170 171 172 163 170 173 173 173 172 171 168 160 160 182 162 70 48 60 102 135 159 202 220 235 210 141 112 65 50 39 68 176 214 198 181 154 147 190 199 135 100 104 102 101 103 104 105 109 108 105 105 101 98 95 94 96 95 93 93 89 89 92 87 83 82 80 
106 102 82 59 49 51 37 33 42 41 38 31 30 37 63 76 54 51 50 49 49 51 52 53 55 57 55 56 55 55 58 62 63 64 66 63 62 61 60 60 61 59 58 54 49 52 52 55 112 125 186 190 171 157 176 139 94 52 53 38 62 186 201 201 216 178 115 103 118 121 124 125 128 130 131 132 134 135 136 137 139 140 140 141 142 143 147 139 145 148 148 149 147 148 145 143 162 172 128 50 50 69 136 140 176 175 194 220 214 160 119 78 50 42 28 68 131 142 118 115 116 141 138 103 81 85 86 85 85 85 85 87 85 84 83 83 81 79 77 79 80 77 76 73 71 72 70 68 68 66 
148 135 78 50 54 65 41 30 30 29 30 32 35 49 63 57 61 63 62 60 61 66 68 70 67 66 68 71 73 74 75 75 74 76 77 78 77 78 77 75 74 74 71 73 72 60 51 54 110 118 106 100 96 94 99 116 92 50 52 38 37 66 108 123 131 109 82 76 76 78 79 80 83 83 85 87 89 89 90 91 93 93 94 95 95 97 99 100 99 98 98 99 99 107 111 111 137 132 64 39 49 66 136 126 121 119 133 152 150 131 130 76 51 47 37 42 58 75 79 91 101 89 79 82 82 83 82 80 80 79 78 78 77 77 78 78 76 74 72 70 68 65 66 63 61 60 59 58 58 56 
112 95 54 45 74 103 99 99 103 105 109 108 114 118 119 122 120 124 131 120 108 117 130 124 116 106 104 103 105 101 98 97 98 106 107 106 104 101 99 97 93 90 87 82 77 69 58 48 74 121 122 103 85 88 105 113 70 48 47 39 42 42 49 52 54 55 55 54 53 54 54 54 55 57 58 59 61 62 62 61 60 62 60 55 52 56 61 62 61 62 61 59 58 59 61 63 65 59 47 41 45 52 81 127 126 103 100 117 130 141 113 56 56 79 84 88 93 98 101 102 102 105 106 109 108 109 109 108 109 105 105 110 109 107 107 106 107 106 102 98 96 94 93 89 87 85 83 83 83 82 
64 52 49 69 111 132 137 140 140 143 146 137 132 120 109 116 121 121 121 111 105 109 106 106 104 101 100 100 100 99 97 96 97 98 97 95 94 91 90 88 84 78 73 67 62 56 51 46 47 63 93 104 101 99 86 65 48 45 41 35 35 36 37 38 36 37 37 37 37 38 39 39 39 39 39 39 41 43 43 43 44 45 44 40 38 42 45 45 46 46 45 44 44 44 42 42 40 39 37 36 39 42 50 74 98 107 106 111 111 87 62 51 61 81 88 97 102 110 116 125 129 133 135 139 142 144 146 147 148 146 145 146 146 142 140 137 138 137 135 131 129 125 121 119 117 115 112 110 106 104 
51 61 88 104 109 107 107 104 99 97 96 94 90 87 83 81 83 84 84 85 87 89 90 93 96 100 100 100 102 102 102 102 101 100 99 98 97 95 94 89 85 80 77 74 71 65 61 57 52 48 49 52 54 50 49 47 49 49 50 51 52 53 56 57 55 55 55 54 56 56 57 58 57 57 57 57 57 58 57 55 56 55 56 57 58 57 55 54 55 55 54 54 52 53 52 50 49 48 47 45 45 43 47 47 50 55 54 55 54 53 54 64 71 79 83 90 96 103 107 112 117 124 129 133 139 143 146 147 147 146 143 141 141 139 139 135 134 131 127 126 125 119 115 114 113 112 109 107 104 102 
80 83 83 82 80 80 82 82 82 83 83 86 88 89 90 91 93 94 97 98 99 100 102 104 106 107 110 110 110 111 111 110 109 109 109 108 106 106 105 102 100 99 97 92 91 89 89 87 87 87 86 91 90 86 86 86 88 89 89 89 90 90 90 92 93 94 95 95 94 94 95 96 98 98 98 98 96 97 96 96 96 97 97 96 95 94 94 95 95 94 95 94 94 94 94 94 93 93 92 92 93 93 91 89 89 94 97 101 106 115 123 144 152 158 163 167 172 179 186 175 148 128 129 130 137 140 142 143 144 143 141 140 140 139 140 140 138 134 132 133 134 132 130 128 124 122 121 120 120 119 
86 86 86 86 86 87 89 91 90 91 93 94 95 96 96 97 99 100 102 103 104 104 106 107 108 109 110 110 110 111 111 111 110 109 108 107 106 103 102 103 102 102 101 99 98 99 99 100 102 103 103 102 101 103 103 101 102 103 104 104 104 104 104 105 105 105 106 107 107 105 105 106 108 109 110 111 111 111 111 111 109 110 111 111 111 110 111 112 112 111 113 112 111 114 116 116 118 121 122 127 135 144 150 155 162 171 179 188 194 200 205 213 215 218 223 226 228 232 236 208 163 137 140 141 140 141 142 144 144 143 142 141 140 140 140 140 138 138 138 139 138 137 136 135 135 132 132 130 127 127 
88 88 88 89 91 91 92 93 93 94 95 96 98 99 100 101 103 104 105 107 108 107 107 109 108 109 110 110 110 110 109 109 108 108 109 110 110 111 111 110 109 106 105 105 104 103 103 104 105 106 106 106 107 108 106 105 106 106 106 106 107 108 107 105 106 106 107 108 109 108 108 110 110 111 111 112 113 113 113 113 111 111 113 115 115 118 121 122 124 128 130 134 138 141 145 146 148 150 152 157 163 168 171 174 176 180 182 186 190 193 198 200 202 203 204 204 202 203 201 172 148 141 142 142 142 141 140 140 139 140 140 139 137 137 137 136 136 137 137 135 134 134 134 134 131 129 130 130 129 129 
92 92 92 93 94 94 95 97 98 100 100 100 101 102 103 104 104 106 107 107 109 109 109 109 110 109 109 110 110 111 110 111 112 113 115 117 116 118 117 115 114 113 113 113 111 110 108 107 110 110 110 112 110 110 109 108 109 109 109 108 109 111 109 108 109 111 111 112 114 113 112 113 111 110 112 111 113 114 115 116 115 117 120 123 125 127 126 128 129 131 129 131 134 135 138 139 141 143 144 145 145 149 149 151 153 156 157 160 161 161 161 162 164 165 164 164 162 161 163 159 156 149 144 144 143 141 140 138 138 139 140 140 138 137 137 138 137 137 137 135 135 135 135 134 132 131 132 132 132 132 
93 93 94 95 94 94 96 98 98 99 101 101 102 103 104 104 104 106 106 106 108 108 108 108 109 109 110 111 113 114 114 118 119 119 119 119 119 120 120 119 118 118 118 118 116 115 113 113 114 114 117 120 120 121 121 121 122 123 123 122 121 124 123 123 119 119 117 115 115 113 112 113 112 112 116 116 116 116 116 116 115 117 117 116 117 117 119 121 123 122 120 123 122 123 125 125 125 128 129 127 126 128 131 132 134 136 136 138 140 141 143 148 152 156 161 168 170 173 178 183 183 171 155 146 146 146 145 145 144 144 143 144 143 142 142 143 142 143 142 140 139 139 140 140 137 137 138 138 137 137 
92 93 93 93 94 93 93 94 97 98 98 97 99 99 99 99 99 100 101 102 106 106 106 106 106 105 107 109 110 111 112 115 116 116 117 117 117 119 120 120 122 124 126 127 129 131 131 132 131 134 136 136 136 135 131 128 127 126 125 122 121 122 121 121 117 115 116 119 117 116 116 117 119 118 118 116 118 117 117 116 117 116 115 115 115 118 122 120 120 121 120 121 121 124 124 123 123 124 124 124 125 126 129 129 131 135 136 139 142 147 151 156 159 165 168 171 172 172 173 165 157 150 145 145 146 146 146 146 144 142 142 142 143 142 142 143 142 142 142 140 139 138 138 138 136 135 134 134 135 136 
92 93 93 92 92 93 94 94 95 95 95 95 96 96 97 98 99 100 101 103 105 105 104 104 104 104 106 110 112 116 118 122 124 124 123 123 124 126 125 127 128 130 131 131 133 136 132 132 131 130 129 127 126 124 122 121 122 123 123 122 122 122 122 124 123 124 125 124 123 123 123 123 123 121 118 116 117 118 117 115 117 117 118 120 118 120 122 121 120 120 121 121 124 124 122 123 123 124 126 128 130 129 130 132 134 139 141 144 145 146 148 149 151 155 155 157 156 155 154 147 144 144 143 143 143 144 144 143 141 138 139 139 140 141 140 138 138 139 139 138 135 135 135 135 135 134 132 131 131 131 
90 91 91 90 92 93 93 92 91 91 92 93 94 95 96 97 98 100 101 101 102 103 104 105 107 108 109 110 112 115 117 121 122 121 118 117 117 115 114 117 117 119 121 122 124 123 122 122 123 122 121 121 121 120 120 121 122 123 123 122 122 123 122 122 125 126 125 122 123 123 123 122 121 120 118 117 116 118 118 117 118 119 120 122 121 120 120 121 120 120 119 119 121 121 119 122 124 124 124 125 128 128 129 130 130 134 136 138 138 137 137 136 138 141 140 142 142 142 143 140 140 140 139 139 139 139 138 136 136 133 134 134 134 136 136 134 133 135 135 133 132 132 132 132 132 131 130 128 128 128 
88 88 89 90 92 93 94 94 94 96 95 96 96 96 96 95 96 98 100 100 101 102 104 107 108 106 105 104 104 105 105 107 108 110 110 110 110 110 111 113 113 114 116 116 116 115 118 120 118 118 118 119 119 120 119 119 119 119 120 119 119 120 120 120 122 120 118 118 118 119 119 118 117 118 119 119 117 118 118 118 121 121 121 121 122 121 121 121 121 122 121 120 120 120 120 122 123 123 121 121 125 126 126 126 126 128 128 129 131 132 133 133 136 137 135 136 137 137 138 138 138 137 136 135 135 135 134 132 132 131 131 130 130 130 130 131 130 130 130 129 129 129 127 128 127 126 125 125 125 125 
90 91 92 93 95 96 96 96 96 98 97 96 95 97 98 98 100 100 100 100 101 102 104 106 106 103 105 106 106 108 109 108 108 107 109 112 111 111 112 112 112 113 115 116 116 115 116 117 116 119 121 121 120 120 120 121 120 120 120 119 119 120 120 120 120 120 120 121 121 120 120 121 121 121 120 119 119 120 120 119 120 121 122 122 124 125 126 125 123 122 123 124 121 122 123 123 124 127 127 128 130 133 133 131 133 135 136 137 138 140 142 144 146 144 140 140 141 141 140 138 137 136 135 134 134 134 133 131 130 130 129 128 127 126 126 127 127 126 126 127 126 125 123 124 125 124 123 123 124 124 
86 91 94 95 96 95 95 96 97 97 99 96 96 98 98 98 100 101 101 102 104 105 105 104 107 107 105 108 109 109 110 110 110 109 110 114 114 113 112 111 111 115 116 114 115 114 115 117 119 119 120 122 122 121 120 119 119 120 122 123 123 124 124 122 124 126 126 125 123 125 126 126 125 126 126 125 124 124 126 128 125 125 126 127 129 128 128 130 131 128 133 133 133 135 139 141 145 145 145 150 156 156 156 156 156 157 157 155 156 153 150 148 146 144 142 138 137 137 140 143 145 146 146 145 141 138 136 135 133 134 133 130 131 130 129 129 131 132 132 131 131 128 129 128 126 126 126 128 129 129 
88 91 94 94 95 96 97 98 98 99 101 98 99 99 99 99 98 101 104 100 101 101 100 101 105 107 105 104 103 103 104 105 105 109 109 109 110 110 110 109 108 108 110 112 112 114 114 115 117 119 119 118 120 121 118 118 120 121 121 121 121 121 124 124 122 123 127 127 127 128 126 126 126 126 127 127 128 128 131 135 133 134 135 136 137 137 138 139 141 140 142 144 148 151 154 153 154 153 153 153 154 153 149 145 145 145 143 139 137 135 134 134 135 138 141 148 153 157 158 157 155 152 149 147 145 142 138 137 135 135 134 134 134 133 132 133 136 135 134 136 135 133 134 135 134 133 135 136 134 133 
95 97 98 98 99 100 99 100 101 103 106 104 105 102 101 103 101 102 103 104 102 101 101 102 105 107 105 102 102 103 104 103 105 107 105 106 108 110 110 108 107 108 107 112 114 116 117 116 118 120 119 117 119 120 119 120 122 120 122 122 122 122 122 124 124 126 130 132 134 135 134 134 131 132 133 135 139 140 143 146 150 152 153 154 155 156 156 156 153 152 149 152 154 151 149 147 144 141 141 138 136 133 131 130 130 133 132 132 134 141 148 155 161 168 170 174 174 171 167 164 160 157 152 148 147 145 142 140 136 134 134 131 129 128 130 131 132 133 134 134 134 133 134 135 134 133 132 133 131 127 
96 96 97 97 97 97 98 99 100 100 101 104 105 102 103 107 108 107 105 108 109 108 108 109 110 110 110 108 109 112 113 112 114 117 116 119 119 121 122 120 121 123 121 125 127 128 128 129 130 134 134 135 136 135 134 135 137 135 139 141 142 144 144 146 149 151 151 153 155 156 156 158 159 160 160 160 162 166 166 166 164 163 160 159 155 152 145 139 139 137 136 134 134 131 131 131 133 132 133 132 132 133 132 134 136 145 153 165 176 188 194 196 193 187 183 178 177 178 176 171 166 165 161 158 154 152 148 145 141 137 137 134 132 131 133 134 133 132 133 136 135 133 132 132 132 131 131 133 130 129 
96 92 93 96 98 97 97 99 102 103 101 102 99 102 104 106 105 106 106 106 107 109 110 109 109 110 115 115 114 117 118 117 119 121 122 125 124 125 126 126 128 130 132 132 135 135 133 135 137 140 141 144 147 147 151 155 152 156 158 161 158 159 159 158 161 159 163 168 167 167 169 171 168 164 158 151 148 145 141 141 134 138 133 132 133 131 130 131 133 129 128 129 132 132 132 131 133 132 132 134 137 149 160 173 183 192 199 205 204 202 200 194 190 185 182 178 176 175 175 173 169 166 164 158 154 151 149 143 140 138 137 136 134 132 131 131 130 129 131 134 133 133 133 131 130 129 129 129 129 128 
92 88 91 95 94 94 95 97 101 102 104 101 101 103 103 104 104 107 110 111 112 112 113 114 116 115 116 115 117 121 123 123 124 126 128 130 133 135 137 138 139 138 139 140 142 146 145 145 149 149 154 157 160 161 162 163 163 164 163 165 164 167 169 170 171 174 171 169 165 158 150 145 139 135 132 130 129 128 129 128 125 130 132 129 128 128 128 126 127 129 130 129 128 128 129 134 142 154 165 180 192 201 207 209 210 206 207 208 205 203 200 193 188 185 184 179 177 171 172 173 169 165 166 163 156 151 152 149 144 141 138 136 134 135 130 130 130 128 129 131 130 131 132 130 128 129 128 126 128 126 
89 89 92 94 94 95 95 96 101 101 101 100 103 103 103 106 109 109 111 114 116 114 114 118 118 119 120 122 123 126 128 131 132 135 137 139 140 143 143 146 146 146 146 149 150 152 154 158 158 156 158 163 164 163 161 163 167 169 170 169 170 172 171 169 162 156 149 142 136 126 119 120 122 119 119 122 122 121 124 123 122 124 126 124 122 123 123 121 122 122 125 132 137 145 160 175 189 201 207 213 214 211 208 205 204 203 204 201 202 200 197 192 188 185 183 182 180 173 172 171 168 165 162 159 156 153 149 147 144 141 139 137 134 135 128 127 127 124 124 125 125 125 123 124 124 123 123 123 121 121 
92 91 92 94 98 100 98 98 101 100 100 102 106 106 107 107 109 111 112 116 116 115 115 120 123 125 125 128 130 132 133 136 137 140 144 145 146 149 149 149 146 151 154 154 152 154 156 159 160 164 163 162 161 162 162 168 172 171 171 167 161 153 142 133 126 120 116 116 118 115 116 118 118 116 117 119 118 118 119 119 119 119 119 120 120 119 118 119 123 126 139 162 186 201 210 212 215 212 206 205 204 202 202 200 196 195 195 191 191 189 190 189 189 190 187 183 180 175 171 169 167 163 161 157 153 151 148 145 143 139 138 137 134 132 125 120 122 122 120 119 120 119 116 116 119 119 120 120 116 115 
