P2
150 65
255
26 28 26 26 27 27 27 27 30 37 52 49 61 69 77 79 95 105 108 108 108 109 108 107 109 108 105 104 106 99 98 99 100 115 128 121 113 64 35 28 32 32 30 51 77 61 28 29 32 33 33 18 20 20 20 20 22 22 17 17 22 23 24 24 30 43 44 34 21 17 20 25 46 64 41 23 24 26 25 23 39 52 43 25 11 14 17 18 25 57 70 69 58 66 81 79 80 81 84 82 82 85 84 85 85 76 72 61 47 39 40 40 37 33 37 35 34 30 32 29 26 18 15 18 28 26 40 43 31 33 36 31 39 54 67 61 37 35 33 30 37 55 61 63 56 51 51 52 43 36 
28 29 26 26 27 28 27 25 30 36 53 49 57 64 74 80 96 106 109 109 110 111 110 109 109 107 105 106 106 102 97 89 94 114 128 123 114 95 74 38 31 35 34 31 50 46 28 31 35 40 44 22 22 19 21 19 21 21 18 20 23 23 24 24 36 54 54 45 26 22 24 25 47 67 46 26 22 26 39 28 41 57 57 39 20 24 28 29 31 40 43 46 44 49 57 55 55 52 56 66 75 82 85 87 87 81 78 73 71 65 61 59 55 47 57 37 21 22 27 30 25 19 14 11 21 19 45 58 34 31 36 40 40 54 67 61 42 37 36 33 40 48 50 48 44 42 45 43 32 25 
29 31 28 26 27 30 27 25 27 36 59 54 59 65 72 79 97 106 109 109 110 110 109 108 109 109 109 108 107 104 101 92 96 117 128 122 111 98 96 70 46 36 37 35 34 30 31 35 37 57 67 53 53 50 52 49 50 50 48 48 50 50 49 49 59 68 67 65 56 50 47 48 62 73 60 48 47 50 62 49 42 41 38 36 31 33 32 32 30 29 30 29 29 31 31 30 31 30 29 35 48 65 78 88 91 90 90 91 91 88 90 87 80 59 67 49 31 30 33 37 36 34 29 25 33 31 54 71 48 54 60 43 47 53 55 46 37 34 36 32 34 33 33 32 29 29 32 33 32 29 
30 32 29 27 29 31 28 28 31 38 60 53 63 69 73 79 97 105 106 108 109 109 109 109 109 108 107 107 105 99 99 102 102 119 130 122 113 101 101 96 67 33 40 38 33 28 33 39 42 70 82 84 85 86 86 86 86 85 85 84 84 83 83 84 83 83 83 83 83 83 78 77 84 84 83 82 80 78 79 75 63 56 50 43 33 35 35 35 32 30 30 27 27 25 24 24 22 26 25 28 41 60 78 88 91 89 92 96 99 97 95 95 96 93 92 86 83 82 84 83 82 82 82 81 82 80 85 79 81 84 87 75 74 68 55 41 37 35 33 33 28 26 27 26 21 24 27 29 29 27 
32 33 31 32 32 30 30 30 30 34 50 47 56 66 75 81 97 104 105 106 107 107 107 107 107 106 105 105 105 105 101 99 102 119 129 122 113 105 104 103 76 33 37 42 38 32 34 39 54 86 90 93 93 93 93 93 92 92 93 93 93 92 92 93 92 92 92 92 92 92 87 86 93 94 94 94 92 91 89 86 78 73 60 48 46 47 47 40 30 28 28 25 28 23 20 21 21 23 26 31 47 77 99 104 105 102 102 106 108 106 104 104 104 102 98 98 97 96 98 97 97 97 96 95 94 93 91 83 91 93 92 91 83 65 51 38 33 35 32 32 26 25 25 22 22 26 29 30 25 20 
46 45 43 43 41 39 38 37 35 38 50 45 48 65 78 84 91 103 106 108 108 107 107 107 107 107 107 107 106 104 101 101 105 119 131 123 113 104 103 102 93 48 38 47 44 36 36 41 66 91 94 97 95 96 96 96 96 96 96 96 96 96 96 96 96 95 95 95 95 95 90 89 97 97 97 97 95 93 91 89 84 81 70 60 52 54 56 47 35 36 34 29 29 26 20 20 19 23 30 47 78 97 106 111 110 108 109 113 114 110 109 111 111 108 105 105 105 104 105 105 105 105 104 104 103 103 100 92 100 102 101 100 94 81 69 57 49 47 40 41 35 28 26 26 28 32 33 29 22 20 
97 96 95 94 91 90 89 88 86 88 94 89 84 90 97 92 81 97 107 110 111 110 110 110 109 109 109 109 107 103 101 104 108 123 134 125 114 102 98 95 94 77 56 50 49 39 38 44 79 94 97 98 98 99 99 99 99 99 99 99 98 98 98 98 97 97 97 97 97 97 92 91 99 98 98 99 98 96 93 92 89 87 78 71 62 65 61 47 40 48 44 35 37 31 22 22 20 27 43 58 85 100 110 112 111 110 112 114 114 111 110 112 112 109 107 106 107 107 107 107 106 106 106 106 105 106 103 95 101 102 102 101 98 88 79 71 63 62 58 56 52 43 35 36 39 40 36 30 21 23 
92 92 92 92 92 92 92 93 99 103 105 105 104 100 88 79 73 84 96 101 103 103 103 103 103 103 103 103 103 97 96 101 102 121 134 126 115 98 93 94 95 91 68 51 52 42 40 47 88 96 101 100 101 102 102 102 102 101 101 102 102 102 102 101 101 101 101 101 101 101 95 95 103 102 102 103 101 99 97 96 92 89 83 80 76 75 68 52 39 50 45 36 40 36 28 29 34 41 64 74 99 107 114 114 112 113 115 115 114 113 113 113 115 113 111 110 110 110 110 110 110 110 110 110 108 110 106 98 106 107 106 105 102 96 90 81 72 73 73 69 66 58 44 44 49 45 39 33 24 28 
94 94 93 92 92 92 90 89 101 112 112 111 109 102 73 66 73 83 95 101 105 105 105 105 106 105 105 104 104 100 101 103 103 124 134 122 115 103 99 98 96 89 63 50 51 44 42 47 90 98 102 104 104 105 106 105 104 103 103 104 104 104 104 104 104 104 104 104 103 103 97 98 104 104 104 104 104 102 101 100 98 96 93 91 88 84 79 65 58 55 45 35 33 35 35 37 43 54 79 90 104 106 109 110 111 111 112 113 112 113 113 114 114 114 114 114 114 114 114 115 115 115 115 114 114 116 111 104 110 111 109 108 107 103 97 86 79 86 82 78 75 71 59 57 56 53 48 40 36 40 
102 101 100 100 98 99 96 97 103 105 112 109 108 101 78 74 82 90 96 100 105 105 105 105 107 107 106 106 104 99 101 103 104 122 133 125 113 92 89 90 90 81 57 48 50 46 44 48 78 94 93 94 95 96 96 95 94 93 93 94 95 95 95 95 95 95 96 95 94 94 93 95 97 97 97 97 96 96 95 95 95 94 93 92 90 87 84 79 72 55 38 30 28 44 51 43 52 76 92 97 102 103 104 105 106 107 108 108 107 108 109 109 111 111 111 111 110 110 110 110 110 110 110 110 111 110 109 107 107 107 107 106 106 105 101 91 91 99 94 90 86 84 78 69 65 62 62 52 39 36 
109 109 108 107 107 106 101 99 97 88 85 88 84 86 78 76 85 93 99 102 105 105 105 105 107 107 106 105 104 100 101 103 103 122 133 125 115 97 95 94 95 77 54 51 52 48 42 44 55 66 70 82 91 98 98 97 96 96 96 96 96 96 96 96 97 96 96 96 95 95 96 97 96 97 97 97 96 96 95 95 94 93 92 92 91 88 83 80 72 54 37 30 33 47 61 68 80 89 92 95 96 97 97 98 99 99 100 100 101 99 101 101 101 101 102 100 101 101 101 100 100 100 99 98 98 97 97 97 96 95 96 96 95 96 92 80 84 92 89 87 85 83 79 76 73 67 64 58 54 53 
111 110 110 109 108 107 103 100 99 96 85 91 88 90 86 81 89 96 101 103 105 105 105 105 105 105 104 104 103 101 101 103 103 124 134 126 116 101 100 99 100 76 51 52 51 51 45 42 47 42 51 57 65 87 103 104 103 104 104 102 103 103 103 104 104 104 103 103 101 101 102 103 103 103 104 105 103 103 102 101 101 100 98 97 95 93 89 86 80 66 48 37 38 46 57 71 94 100 101 103 104 105 106 106 105 106 106 107 108 107 90 94 107 107 107 108 107 106 106 106 105 105 105 105 105 104 103 102 102 102 102 102 101 99 96 81 89 96 94 94 92 91 91 90 85 82 80 79 79 81 
109 108 107 107 106 106 102 99 98 98 90 96 93 96 91 87 93 98 101 102 102 102 102 102 102 101 100 100 101 100 99 98 99 123 135 128 118 103 102 102 98 64 46 47 48 53 49 44 50 44 46 50 52 66 101 105 106 106 105 104 105 105 105 105 105 105 106 106 102 102 103 104 104 104 105 106 105 105 104 103 103 102 101 99 98 97 94 92 86 74 55 39 34 58 82 89 100 104 104 105 107 107 108 109 108 108 109 110 108 101 72 78 103 110 109 111 110 110 110 110 110 109 109 108 108 108 108 108 108 108 108 108 107 105 102 87 96 103 101 102 101 100 99 99 97 95 94 94 91 89 
112 112 111 110 110 110 109 108 108 110 105 107 105 106 103 101 104 106 107 108 106 106 106 106 105 104 104 103 102 103 102 101 101 124 134 128 120 103 98 86 69 50 54 55 53 54 47 49 54 53 46 50 47 53 96 108 109 108 107 107 107 107 106 107 107 107 107 106 105 105 105 106 106 106 107 107 107 107 106 106 106 105 104 103 102 102 100 98 94 84 69 50 36 62 94 103 105 107 107 108 110 109 110 110 110 110 110 111 110 104 99 101 107 111 110 111 111 109 109 110 111 111 109 109 109 108 108 108 109 109 108 108 106 105 100 88 99 105 104 102 102 102 102 102 100 99 98 97 96 96 
113 113 112 111 110 110 110 110 110 111 108 108 108 108 107 106 106 106 106 106 104 104 104 104 103 103 102 101 102 103 103 102 102 125 133 126 113 70 56 50 49 52 54 54 50 50 46 54 51 47 41 43 42 49 92 110 110 109 109 108 108 107 107 108 108 108 109 110 109 108 108 109 108 108 108 108 109 109 109 109 108 107 105 104 104 104 103 101 98 92 84 68 50 66 93 105 105 107 109 111 111 110 110 111 111 111 111 111 112 111 110 111 113 114 112 113 114 113 112 112 112 111 111 110 112 111 110 110 111 110 110 109 108 107 101 89 101 106 107 104 104 104 105 105 103 102 100 99 99 99 
119 118 117 117 115 115 115 115 115 114 114 113 112 112 112 112 112 111 110 109 108 108 108 108 107 106 106 105 105 106 106 104 105 127 133 127 108 54 44 48 49 50 51 47 46 50 42 43 44 41 41 39 41 48 79 111 111 111 109 110 110 109 108 109 109 109 109 109 110 109 109 109 110 109 108 108 108 108 108 109 109 108 106 105 106 106 105 103 101 98 91 72 61 85 103 108 109 109 109 111 112 111 111 112 112 112 112 112 112 112 113 112 112 113 112 113 113 114 113 112 113 112 112 112 112 111 110 110 112 112 111 111 110 109 102 89 103 109 108 106 106 106 106 107 107 105 102 102 101 102 
119 119 118 117 117 117 118 118 117 118 118 117 116 116 116 116 115 114 113 112 113 113 114 112 111 111 112 112 111 112 111 110 111 131 134 127 108 53 44 47 50 52 51 56 57 58 49 47 52 47 47 47 39 40 59 83 98 105 106 107 107 107 107 108 108 111 111 110 110 110 109 109 110 110 109 109 109 109 109 109 110 109 108 107 107 107 107 107 105 100 98 90 83 92 107 111 112 111 111 112 112 112 112 112 112 113 113 114 113 113 113 113 112 114 114 112 112 112 112 112 113 113 113 113 114 113 112 112 111 112 112 111 112 112 104 89 103 110 109 108 108 110 108 107 100 97 93 94 98 102 
119 118 117 117 117 118 118 117 117 117 118 116 116 116 116 116 115 115 114 114 114 113 114 111 110 110 109 109 110 111 111 112 111 129 136 128 107 50 47 51 54 56 58 60 56 55 56 52 55 57 56 54 51 45 49 51 56 65 69 71 77 76 74 73 73 95 108 112 111 111 110 110 112 111 110 110 109 109 109 109 108 108 108 108 108 108 109 109 108 105 105 105 104 106 110 111 113 114 114 113 113 113 114 113 112 112 114 115 115 112 112 113 113 113 113 113 114 114 114 114 114 114 114 114 114 113 113 114 114 114 112 111 112 111 104 88 103 108 106 106 94 92 91 81 65 52 53 60 67 69 
119 120 119 117 111 116 114 110 117 118 117 117 116 116 116 117 115 113 112 113 108 108 112 106 99 94 89 88 84 87 90 84 81 121 138 128 105 55 54 52 51 51 51 49 50 49 45 48 49 48 46 43 42 45 46 48 47 45 41 43 43 44 43 41 45 54 76 99 108 107 110 109 109 110 109 108 110 110 109 108 107 106 107 108 109 108 109 109 109 109 108 109 113 113 111 112 114 114 114 113 115 114 108 112 113 113 113 112 113 112 112 113 114 112 111 113 113 113 113 114 115 115 114 114 111 110 112 113 114 113 111 110 108 108 98 85 97 97 92 89 78 62 53 46 31 24 24 28 32 33 
140 142 143 143 141 141 138 137 143 142 142 143 143 143 142 142 143 140 137 139 134 135 135 129 124 119 117 117 116 119 120 113 112 133 136 128 120 110 109 106 104 102 98 101 102 102 100 100 100 97 95 93 92 94 93 93 93 93 90 92 89 88 87 85 85 83 87 98 110 114 120 118 117 116 117 112 115 117 113 107 102 101 102 105 106 105 99 103 102 102 104 110 113 113 117 112 111 113 116 113 110 114 101 108 112 114 113 110 111 114 115 115 115 113 112 113 113 112 112 113 114 113 113 112 110 103 105 110 108 107 105 104 102 100 87 72 83 81 74 69 55 39 32 31 19 17 18 18 22 27 
139 140 141 141 143 143 145 144 144 144 144 146 147 147 148 148 149 150 149 151 151 150 150 152 151 152 152 152 155 169 168 162 161 146 135 127 134 163 165 165 167 166 159 165 165 160 162 164 164 162 164 168 164 159 160 159 155 154 154 154 154 154 154 154 152 153 155 153 153 154 153 153 153 151 151 149 149 150 148 145 144 144 144 144 144 145 143 142 142 142 141 143 142 142 144 142 138 138 141 140 138 141 140 139 137 139 138 135 136 138 139 139 138 136 135 136 135 134 134 134 134 133 132 132 130 126 127 128 126 125 123 122 119 117 110 100 105 103 98 94 90 81 77 77 70 69 69 68 67 70 
153 153 154 155 156 156 156 155 155 155 156 157 157 158 158 158 159 160 160 160 160 160 160 160 159 159 159 158 162 173 169 167 165 148 137 126 135 166 169 169 173 175 167 169 169 168 170 169 168 166 169 172 167 159 159 161 154 151 152 152 151 149 150 149 148 149 148 146 145 146 146 146 147 148 147 148 147 145 143 142 142 143 143 143 144 144 142 141 141 142 141 141 140 140 140 140 139 138 138 137 137 137 137 136 134 133 134 133 133 133 134 133 133 132 131 131 131 131 131 131 131 131 132 132 132 131 131 130 131 131 130 129 129 129 129 129 129 129 129 129 129 130 129 128 129 128 128 127 125 124 
155 155 155 155 156 156 156 156 156 157 158 158 158 159 160 160 160 161 162 162 162 162 162 162 163 163 163 163 168 175 173 172 170 149 135 124 137 172 175 176 182 181 173 176 176 175 177 176 175 172 177 180 175 168 169 171 165 162 164 164 163 161 163 163 162 163 163 162 164 164 164 164 164 163 163 164 164 164 163 162 164 164 164 163 161 160 159 160 157 157 158 159 159 158 157 157 157 156 155 155 156 156 154 151 150 153 153 157 158 158 156 154 153 153 153 153 152 152 151 150 148 148 148 148 148 147 146 146 146 145 145 144 143 142 141 141 142 141 140 140 140 139 139 138 137 136 136 135 135 135 
158 158 157 157 158 158 158 158 158 158 159 160 159 160 160 161 161 162 162 162 163 163 163 163 164 163 163 163 164 169 172 173 171 149 134 123 135 172 175 177 184 179 172 177 176 176 177 176 175 173 178 180 173 169 170 172 165 163 164 164 164 163 165 166 164 165 166 166 166 166 166 166 166 166 166 167 166 165 165 165 165 164 143 120 122 116 120 127 128 128 128 128 129 129 130 129 129 129 129 128 129 123 114 118 128 139 132 131 123 105 117 154 159 159 159 159 159 158 157 156 157 156 155 155 154 154 153 153 153 153 152 152 153 152 150 149 149 149 149 150 149 148 148 147 146 146 145 145 144 144 
158 158 158 158 158 158 158 158 158 159 160 160 160 160 162 162 164 164 163 162 163 163 164 165 165 164 164 163 162 165 170 174 172 148 134 123 136 175 177 181 186 175 172 179 176 177 176 175 175 175 178 177 172 168 169 172 165 165 166 165 166 167 167 169 163 154 146 142 137 134 131 129 127 126 125 124 122 120 120 121 118 111 76 65 76 78 82 83 86 86 86 86 87 86 85 83 82 81 80 78 77 70 65 75 83 90 78 58 48 28 56 141 160 160 159 159 157 156 156 156 157 157 155 155 154 154 154 154 154 154 154 152 153 153 151 150 149 149 148 148 148 148 147 147 147 146 145 145 145 146 
156 156 156 156 156 157 158 159 160 160 161 161 160 160 162 162 164 164 162 162 162 162 163 163 163 164 164 164 163 164 167 172 171 145 133 124 139 175 176 181 183 173 174 178 175 175 175 173 173 174 176 173 170 169 170 170 165 165 166 166 166 167 164 152 115 80 72 68 63 62 60 59 58 57 56 56 56 62 61 62 64 61 66 72 72 72 72 72 70 70 70 70 68 64 59 56 55 51 47 45 42 39 40 39 35 41 41 43 41 37 61 138 157 159 160 159 157 158 158 158 157 157 155 155 156 156 156 155 155 155 155 153 152 152 152 151 151 150 149 149 149 149 148 148 147 147 145 145 145 145 
156 156 157 157 157 158 158 159 159 159 160 161 161 161 162 162 163 163 162 162 162 162 163 163 163 162 162 163 164 162 165 169 169 143 131 123 137 171 173 177 176 169 172 172 172 173 173 172 171 172 172 170 167 167 168 166 163 164 165 166 166 160 120 85 65 53 54 55 57 58 60 61 60 59 59 59 52 61 62 60 65 63 76 88 90 90 90 89 88 88 88 88 88 88 87 87 87 86 86 85 84 85 85 80 75 79 78 79 69 57 58 70 105 156 162 159 158 158 158 157 158 157 157 157 156 156 155 155 155 155 154 153 152 152 152 152 151 151 150 149 149 149 149 149 149 149 147 146 144 144 
157 157 157 157 157 157 157 157 156 157 157 158 160 160 160 161 161 161 161 161 162 162 162 162 162 160 159 160 161 161 162 164 164 139 129 122 134 167 168 169 168 164 167 167 167 168 168 167 167 168 167 166 166 167 164 159 163 163 164 157 127 95 70 60 60 64 71 76 77 77 77 77 77 77 77 77 63 62 65 58 64 67 70 88 102 100 100 100 100 100 100 100 100 100 100 100 100 100 100 100 100 99 97 95 93 91 91 91 89 78 66 62 68 104 141 160 158 158 157 156 157 157 157 157 155 155 154 153 154 154 153 152 152 152 152 152 151 150 149 148 148 147 148 150 149 148 148 148 147 146 
158 157 157 156 157 157 157 157 157 158 159 159 159 159 159 159 160 160 160 160 161 161 161 161 162 161 160 161 160 161 161 161 161 136 126 119 131 163 164 166 165 166 166 166 164 165 165 164 163 165 165 166 165 165 163 159 163 160 139 111 76 56 54 60 71 78 81 80 80 81 81 81 81 81 81 81 67 64 63 60 68 70 67 79 106 109 110 109 110 110 110 110 110 110 110 110 111 111 110 111 110 106 102 102 102 99 96 95 96 94 82 64 63 65 86 142 158 157 156 156 156 156 156 156 154 154 153 153 153 153 152 152 152 152 152 152 151 150 150 149 147 147 147 149 149 148 147 146 146 146 
153 154 154 155 154 155 155 156 157 158 159 158 158 159 159 159 159 159 159 159 159 159 159 159 161 161 161 161 162 162 163 163 160 134 124 117 129 162 164 165 165 165 165 165 165 165 165 164 164 165 164 165 166 165 162 161 148 116 109 141 85 36 50 60 68 71 73 75 74 75 78 80 80 80 80 81 69 58 55 62 73 74 75 74 100 115 118 119 119 120 121 121 121 121 121 121 122 121 121 120 118 113 109 109 106 99 94 90 85 78 75 63 54 51 56 89 134 157 156 156 157 156 155 154 154 154 154 154 153 153 153 153 152 152 151 150 150 150 150 149 149 148 149 149 149 148 147 147 147 147 
153 153 153 154 153 153 154 155 156 157 157 156 157 157 158 159 159 159 159 159 159 159 159 159 160 160 160 160 161 161 161 161 157 131 121 114 128 161 163 164 164 164 164 164 165 165 165 165 164 164 165 165 158 151 149 132 96 73 113 179 108 33 40 45 46 54 53 54 55 57 61 64 64 63 63 64 53 43 44 60 77 77 84 79 69 85 103 120 128 128 129 129 129 129 130 129 128 127 127 126 123 121 120 114 99 78 78 76 70 57 59 67 62 50 56 55 77 143 157 154 156 155 155 154 154 154 154 154 152 152 152 152 152 152 150 150 148 148 149 149 148 148 148 148 148 148 148 148 148 148 
135 142 152 153 152 153 153 154 156 156 155 154 155 156 156 157 158 158 158 158 159 159 159 159 159 158 159 159 159 159 159 158 153 132 120 112 127 160 162 166 165 164 163 159 157 153 151 148 143 137 127 107 94 92 92 83 64 48 49 71 68 48 52 57 50 57 55 56 57 57 56 56 55 54 54 54 51 52 48 58 79 73 71 74 64 64 75 85 91 92 92 92 92 92 92 91 90 89 88 86 84 82 83 76 70 68 66 65 60 49 44 44 45 47 51 52 53 93 136 156 155 155 155 154 154 154 154 153 151 150 151 151 152 151 150 150 149 149 148 148 147 147 147 147 147 147 147 147 146 146 
109 122 151 152 152 153 153 153 153 154 154 154 155 155 155 154 154 155 156 157 157 157 157 157 157 158 157 157 157 157 159 166 166 154 149 148 157 174 171 166 160 146 137 122 114 101 92 84 78 71 61 51 47 45 47 50 44 36 36 38 44 50 49 50 49 48 47 48 51 52 49 49 48 50 69 71 77 72 52 52 76 68 56 57 64 65 70 77 78 80 82 82 83 83 82 81 80 80 79 78 78 78 77 77 76 74 72 67 63 58 57 56 55 54 51 50 50 65 112 154 153 153 154 154 154 154 153 152 150 150 150 151 151 150 149 148 148 149 149 148 147 147 147 147 145 145 144 143 144 144 
107 121 145 156 167 164 162 160 158 156 155 154 155 154 153 152 153 154 155 155 155 155 155 155 155 156 154 159 159 140 133 137 137 134 130 124 117 100 90 77 70 59 53 49 49 49 48 46 43 45 40 37 35 35 36 34 34 34 32 31 31 29 28 29 31 31 31 30 33 34 32 33 34 35 49 50 53 50 39 38 52 51 45 41 43 46 52 57 59 63 69 75 81 84 87 88 90 91 92 91 91 95 97 96 95 95 95 91 89 82 79 79 76 76 78 74 70 64 97 150 153 153 152 152 153 153 152 151 151 150 150 149 149 149 148 148 147 147 147 147 148 147 147 146 144 144 143 142 142 142 
110 114 126 162 204 205 200 194 182 172 163 152 149 147 152 153 153 153 154 155 155 154 153 153 153 154 151 167 150 78 72 79 80 78 75 74 75 73 55 40 38 37 38 42 49 61 64 66 71 76 75 61 45 38 44 45 40 32 27 26 24 22 22 23 22 23 23 22 21 21 21 21 21 23 22 23 21 22 24 29 28 29 28 28 28 26 27 28 29 32 37 41 47 55 60 71 88 97 103 103 104 108 109 111 114 113 116 118 116 102 97 100 94 93 110 113 105 74 88 142 151 151 151 151 151 152 152 151 150 150 149 148 147 148 149 149 148 148 148 147 147 147 146 145 145 144 143 143 142 142 
144 144 145 147 155 159 146 129 92 83 83 79 74 97 148 152 152 152 152 153 153 151 150 151 151 152 152 153 128 93 96 75 68 61 57 64 79 91 77 45 39 40 41 41 41 37 41 57 75 74 62 41 34 30 26 25 23 22 22 22 22 22 21 20 20 21 23 22 21 21 21 21 20 20 20 20 19 20 21 25 23 23 24 24 23 22 22 22 23 22 24 25 23 25 29 41 60 76 82 85 87 83 78 91 102 111 110 74 65 63 69 74 71 57 60 61 55 50 71 138 152 151 151 151 150 148 149 150 150 149 149 148 148 148 147 146 148 148 146 147 146 141 137 145 152 154 156 157 159 159 
140 141 141 140 145 126 94 92 74 66 56 62 50 75 144 154 155 154 153 153 153 152 152 152 152 150 150 149 120 69 65 58 59 75 84 72 65 51 45 36 33 31 31 32 32 32 35 40 46 43 39 39 35 27 26 25 27 27 27 27 27 28 29 30 30 31 32 31 32 32 32 32 31 30 29 29 28 28 26 29 33 32 31 30 29 29 28 26 27 27 20 26 33 36 35 31 31 34 33 32 31 33 34 41 51 66 65 42 33 33 39 43 44 37 32 31 29 41 63 138 150 149 149 150 148 148 148 147 147 147 147 146 145 145 144 142 139 126 129 130 131 135 140 147 154 164 169 167 166 165 
130 129 128 129 131 95 78 77 65 60 47 53 45 60 109 114 117 118 118 118 118 121 121 122 124 125 128 133 107 48 40 43 44 57 68 49 34 24 20 21 22 23 23 22 20 19 21 25 35 43 39 36 38 31 30 31 32 31 32 35 37 39 40 41 42 42 41 40 41 41 41 41 41 40 38 36 36 34 33 37 48 49 48 47 46 46 46 47 48 45 28 35 41 31 22 17 15 14 14 14 14 12 12 14 16 24 33 38 32 37 38 38 36 31 27 28 26 36 59 130 142 140 140 141 141 141 140 139 140 140 139 137 134 133 133 132 114 76 74 72 74 75 79 85 92 103 109 113 122 141 
96 84 84 99 115 96 83 69 53 50 45 50 50 59 78 79 80 80 80 80 80 80 80 81 89 123 164 151 123 72 50 50 47 48 45 27 24 23 28 36 40 41 40 38 36 30 23 20 21 30 43 43 42 35 33 34 34 33 36 41 42 43 44 45 45 46 46 45 46 45 44 44 43 42 40 38 36 34 34 36 43 43 42 42 41 42 44 45 49 48 38 42 25 18 16 19 22 25 27 28 27 24 20 17 12 9 14 36 36 40 41 41 40 42 41 40 43 52 68 98 102 92 90 92 94 92 89 87 89 90 89 88 84 83 84 82 74 71 60 40 41 41 43 47 51 55 80 84 91 108 
49 48 48 51 54 57 60 55 49 49 47 51 52 57 61 58 60 60 61 61 61 60 60 64 66 115 148 95 76 77 60 55 50 41 30 23 30 41 43 41 40 40 38 35 37 38 37 34 23 17 33 49 53 49 51 53 54 53 53 53 52 53 55 55 52 52 53 53 52 52 53 52 50 51 51 50 49 50 48 44 47 47 47 46 45 46 46 46 47 45 39 27 15 17 28 34 39 43 48 49 46 43 36 30 23 13 9 23 32 38 39 36 35 35 35 34 33 50 66 57 55 52 56 55 56 57 57 58 57 57 56 54 52 50 56 65 72 71 66 45 43 39 38 39 46 57 78 84 97 92 
27 27 27 27 27 27 29 30 32 34 34 37 39 38 36 40 56 56 56 58 59 59 57 60 58 68 82 63 60 60 37 29 30 29 24 34 41 42 40 35 33 31 29 29 30 34 37 38 35 23 23 38 36 32 30 31 31 30 30 29 29 29 30 30 29 29 29 29 29 29 29 29 28 28 28 28 28 27 25 23 25 25 25 25 25 26 26 25 25 24 27 16 16 29 36 35 50 52 51 51 50 59 50 44 39 26 15 16 25 25 23 20 21 23 19 19 18 34 50 46 43 46 50 49 51 49 49 49 50 48 47 48 45 42 47 52 73 73 74 67 53 44 45 50 53 57 66 75 86 108 
22 22 22 22 22 23 23 23 23 24 23 26 28 29 31 43 58 58 57 58 58 59 58 59 59 59 63 59 48 39 32 27 29 24 26 38 40 40 36 30 30 32 33 32 30 31 33 37 39 34 24 32 31 27 25 25 25 24 23 23 23 24 24 25 24 23 23 23 22 22 22 22 23 23 23 23 24 21 21 21 21 21 21 21 21 21 21 21 20 21 22 18 29 34 32 46 50 36 27 26 26 39 56 55 47 37 25 18 21 23 23 20 22 26 20 22 27 32 43 50 48 44 44 44 42 41 40 41 42 40 39 40 40 39 40 37 43 40 43 67 49 39 40 42 44 44 54 77 87 97 
20 19 20 21 21 20 20 19 20 20 19 22 24 30 40 47 49 50 50 49 48 50 51 52 52 52 55 60 50 32 34 34 36 29 31 39 41 39 32 32 34 33 34 36 37 31 33 39 39 36 25 25 28 24 24 25 24 24 24 23 23 23 23 23 22 22 22 22 21 21 21 21 20 20 20 20 20 20 20 20 19 18 18 18 18 17 17 18 18 18 16 22 34 32 35 57 24 23 25 24 23 19 21 63 63 37 28 20 19 22 23 27 33 38 36 38 40 38 40 47 45 41 40 38 35 35 36 38 40 39 39 38 36 34 35 39 40 40 46 70 49 31 30 33 40 43 36 42 51 49 
16 17 19 20 20 20 20 20 22 22 20 23 24 31 39 44 47 45 46 49 51 52 53 53 51 50 50 51 48 43 43 43 44 44 41 39 40 38 34 33 37 34 34 37 37 31 36 42 38 36 24 16 18 18 20 22 24 24 24 24 23 23 23 23 23 23 23 23 22 22 22 22 21 21 21 21 19 19 19 19 19 17 16 17 21 19 17 18 21 19 11 23 31 33 40 59 22 27 28 30 25 26 18 68 68 28 30 33 38 39 41 48 49 50 51 51 51 52 52 51 51 50 49 49 50 49 49 47 47 46 44 44 42 41 38 35 33 30 36 47 42 27 24 28 26 26 31 43 42 41 
13 16 18 18 18 19 20 21 22 23 24 27 27 31 34 36 39 39 40 41 43 44 44 44 44 44 42 41 42 44 42 42 42 41 38 35 36 39 38 30 30 31 33 32 30 38 44 41 35 33 20 13 17 18 19 19 20 20 20 20 20 20 20 20 20 20 20 20 20 20 21 21 22 22 21 21 18 18 18 18 20 18 18 18 19 17 17 18 17 16 13 20 29 39 51 88 53 27 26 26 24 26 45 75 48 29 27 30 31 33 35 35 38 42 41 43 43 43 42 42 41 43 44 44 45 50 54 46 41 38 35 34 33 31 28 25 24 23 22 23 21 19 16 14 11 9 12 13 12 12 
14 16 20 19 17 18 19 20 21 22 24 24 24 28 31 31 32 33 34 35 36 37 38 39 39 37 36 37 37 38 37 35 36 36 34 31 31 37 39 37 37 35 33 35 38 43 43 37 30 25 18 18 21 21 21 21 20 19 22 23 21 21 21 21 21 21 20 20 21 20 20 21 20 21 21 20 18 18 18 18 19 18 17 17 18 18 19 21 21 17 16 17 23 30 42 71 96 75 59 54 51 57 72 51 30 25 27 31 31 32 33 31 31 35 37 39 37 36 38 38 35 35 36 37 36 43 49 47 42 42 41 38 39 36 30 27 25 24 26 24 19 18 17 16 16 14 13 11 7 5 
18 20 28 27 20 20 21 22 26 26 26 26 29 30 32 34 36 38 41 43 43 43 45 45 45 42 41 43 41 41 39 37 36 36 34 31 30 32 35 38 42 47 44 44 43 38 33 28 25 18 20 22 22 22 22 22 22 21 26 28 25 25 25 25 26 25 24 23 27 24 22 23 22 25 25 23 22 21 21 22 22 22 21 21 23 22 22 23 22 21 19 18 16 22 24 40 51 75 100 98 85 60 48 39 29 24 27 29 29 31 31 30 29 34 35 36 36 35 40 39 38 39 38 36 38 42 41 39 39 39 40 42 41 38 36 33 30 26 25 21 20 19 18 17 20 19 15 13 12 9 
34 36 38 40 38 39 41 43 47 49 51 52 52 52 53 55 55 58 61 63 64 64 64 63 63 61 60 59 57 56 54 50 49 46 43 40 38 34 33 33 33 33 34 34 32 31 30 31 32 33 35 35 37 37 38 38 38 37 37 36 36 36 36 36 36 37 38 38 38 38 38 36 34 34 31 31 32 32 32 32 31 30 29 30 30 29 27 27 26 26 24 22 23 22 23 25 26 28 32 34 32 30 28 26 29 31 30 31 31 34 36 37 38 39 39 40 40 42 45 47 48 50 51 49 48 48 50 50 48 47 48 50 49 47 44 41 40 40 40 37 33 30 26 24 22 20 17 15 14 14 
73 74 74 74 76 77 79 79 80 82 83 83 82 83 84 84 83 83 85 86 88 88 88 88 85 82 81 82 82 83 82 82 81 78 78 78 76 74 74 71 71 71 71 71 72 72 72 74 76 77 77 77 79 81 79 77 77 77 79 80 79 78 77 76 76 78 79 80 79 78 80 79 77 77 74 74 74 73 72 71 69 69 69 67 68 68 68 68 68 68 68 67 65 66 65 64 60 60 61 62 61 60 61 63 65 67 66 66 67 67 68 69 69 69 69 68 67 68 68 69 71 71 71 72 72 71 72 74 73 72 72 71 71 71 71 69 68 70 70 68 67 65 62 59 56 54 52 50 47 46 
79 78 80 84 92 95 90 91 94 93 93 94 95 95 96 97 96 97 98 99 99 99 99 99 99 98 98 99 100 98 98 99 100 98 100 99 98 98 100 97 98 99 99 100 100 99 99 94 99 106 98 89 90 89 87 88 84 79 86 90 91 92 93 94 94 94 95 95 94 91 94 97 98 99 98 98 98 96 94 92 91 91 90 89 90 91 91 92 92 92 91 90 90 91 91 91 89 88 87 86 85 83 82 82 83 85 84 84 85 85 85 86 85 85 85 85 84 84 84 84 86 85 85 85 85 84 84 85 85 85 85 85 85 85 85 84 84 83 81 80 80 80 79 78 78 77 77 76 73 73 
79 83 93 96 93 92 96 102 104 105 106 107 110 107 105 103 102 99 96 95 94 92 92 92 92 91 92 92 92 90 91 94 97 99 104 110 113 119 119 119 119 120 119 117 116 117 107 92 117 136 111 96 91 90 87 89 84 77 86 92 91 93 94 92 92 91 89 88 90 92 95 98 99 100 101 102 100 99 97 96 93 91 91 92 93 94 93 92 94 95 94 93 94 93 91 90 90 87 85 83 84 83 83 84 84 85 85 86 86 86 85 84 85 86 86 85 84 83 84 85 84 84 84 83 81 81 82 84 85 84 84 86 85 84 85 84 82 82 80 78 78 78 79 81 82 82 80 79 78 78 
98 96 85 84 94 100 108 108 106 107 109 109 100 83 75 73 73 71 70 71 70 69 69 70 72 72 72 72 72 70 69 70 72 77 81 79 92 120 120 119 117 119 120 119 117 109 99 115 133 151 160 167 141 118 106 98 88 86 94 95 96 99 97 97 96 96 95 95 95 94 93 93 94 94 94 94 89 90 92 92 90 90 90 92 93 93 92 91 92 92 90 89 90 90 89 89 88 89 90 88 88 89 88 86 85 85 85 85 85 85 84 83 83 82 82 83 83 82 83 85 84 83 83 82 82 84 85 84 82 82 82 81 81 80 82 81 79 79 78 77 76 76 77 79 78 77 76 76 77 77 
83 87 97 101 102 101 102 101 99 99 101 102 97 89 84 82 79 76 75 74 74 73 74 75 74 76 78 80 80 80 82 86 89 95 99 101 103 109 111 112 112 111 108 105 106 97 106 129 124 100 152 224 227 214 202 190 172 156 146 132 119 114 110 105 100 97 96 96 95 94 92 91 92 93 94 95 95 95 94 95 96 95 95 95 95 95 94 93 92 93 92 91 92 92 92 92 91 89 89 89 90 91 90 86 86 85 85 85 86 86 85 85 85 85 84 84 82 79 78 78 80 81 83 84 84 83 83 84 83 83 83 82 81 80 81 80 79 79 79 78 77 77 78 80 78 77 77 77 76 76 
89 92 93 93 93 93 94 94 93 93 94 95 96 96 96 96 94 93 93 93 91 92 93 94 95 96 98 98 98 100 103 105 105 106 107 105 104 105 107 109 110 107 103 101 95 94 104 110 100 90 134 208 229 229 230 229 229 222 220 214 208 205 200 194 186 177 167 156 145 131 118 111 103 96 95 97 97 97 95 96 97 97 96 95 95 95 93 93 94 93 92 92 94 93 93 94 94 92 91 91 90 88 89 88 88 88 87 86 86 86 86 86 86 85 84 85 86 85 84 84 82 81 83 83 83 83 84 84 82 82 81 80 79 80 80 81 80 79 77 76 75 76 77 78 76 76 76 76 74 74 
83 83 84 84 85 85 85 85 86 86 86 85 85 86 86 87 86 86 87 87 86 86 87 87 88 88 88 88 89 90 91 91 92 91 91 92 92 93 94 95 95 93 91 90 88 93 108 126 139 148 179 216 229 233 230 228 229 229 229 228 228 230 230 229 229 231 228 226 224 216 203 193 178 166 152 143 130 120 107 101 96 93 92 93 93 93 92 92 93 93 92 92 92 91 90 91 92 89 87 87 86 86 88 86 87 87 86 86 86 86 86 86 85 84 85 86 86 84 84 85 84 82 82 81 82 82 83 83 82 81 80 80 79 78 78 78 78 78 77 76 75 75 76 76 74 73 73 73 73 73 
83 85 85 84 83 82 80 79 80 79 80 78 78 79 80 81 80 80 81 81 80 81 82 82 83 83 83 84 85 83 83 84 84 83 84 84 83 84 85 85 86 87 86 86 87 93 121 169 209 226 228 225 225 227 228 227 223 224 222 218 220 222 224 224 222 220 222 223 224 225 226 227 229 228 225 223 217 206 189 177 161 151 138 132 125 119 115 111 109 105 103 101 99 96 94 94 93 90 88 89 88 89 91 88 88 87 87 87 86 85 86 87 85 84 84 85 86 84 84 85 82 81 83 83 83 82 80 79 81 81 80 80 80 79 78 78 78 78 78 77 76 76 76 76 75 75 75 75 74 74 
124 121 127 117 98 89 86 85 84 84 86 83 83 85 84 86 87 87 87 86 85 86 87 87 87 87 87 87 87 88 88 87 88 88 88 87 87 89 90 89 90 91 90 89 88 90 93 112 166 209 219 220 222 219 218 221 220 219 216 214 217 221 217 219 223 222 223 221 223 223 223 225 225 223 222 222 225 224 224 226 224 224 220 218 213 209 207 205 201 194 188 182 177 167 159 151 146 139 136 130 126 124 121 115 111 108 103 100 100 96 95 92 91 89 89 85 84 82 81 84 85 82 82 81 82 81 80 79 80 79 78 79 80 78 78 79 77 76 76 76 75 75 75 75 75 75 75 74 73 73 
154 154 160 148 112 90 83 83 82 81 83 81 81 82 81 82 83 83 84 83 83 84 85 84 84 84 84 84 83 86 86 83 85 86 86 86 85 85 85 87 88 86 87 91 89 88 90 93 138 188 213 221 221 222 222 222 221 220 219 220 219 219 218 217 221 221 220 220 220 217 218 221 222 221 214 216 218 217 218 220 219 218 217 219 217 214 216 216 215 214 215 215 214 212 208 210 212 210 208 209 205 205 205 199 197 197 194 188 186 183 178 172 168 159 152 147 139 130 126 120 115 109 106 102 100 97 92 88 84 82 81 80 77 76 76 77 77 76 75 74 74 74 74 74 73 72 72 73 74 74 
126 128 131 121 98 85 81 81 81 79 79 79 81 80 80 80 80 82 84 83 82 83 83 84 84 84 84 83 82 83 83 81 82 85 85 88 87 84 84 84 86 85 85 86 87 91 99 111 150 185 209 217 215 217 217 214 217 217 218 218 215 215 217 214 218 219 216 217 218 214 213 218 218 213 209 214 215 212 214 212 209 212 212 212 210 212 213 215 213 208 209 209 210 210 208 208 209 209 208 209 212 211 212 211 211 210 211 208 208 208 206 205 203 203 200 196 194 189 184 175 167 159 155 150 143 136 127 122 117 112 108 103 98 96 91 86 84 79 77 75 75 75 75 74 73 72 72 73 71 71 
166 163 154 149 142 134 129 124 116 115 112 109 108 107 107 106 105 105 105 105 104 105 106 106 107 105 104 105 106 106 105 109 109 110 114 118 116 113 114 116 118 121 126 129 136 148 159 176 195 207 214 214 214 216 214 212 217 217 216 214 215 220 217 215 220 219 218 217 215 213 209 215 215 212 213 212 210 207 209 205 207 211 209 207 204 212 212 212 208 206 207 206 209 209 209 209 209 203 200 199 205 204 208 205 205 206 207 208 205 203 205 202 202 204 204 202 204 203 205 203 198 195 194 194 185 178 171 163 156 149 144 138 131 128 122 117 110 103 98 93 88 87 84 81 78 78 76 73 71 70 
224 228 220 219 222 218 215 215 210 210 208 206 206 204 203 201 201 199 197 198 197 198 199 200 202 201 200 201 203 204 200 202 202 202 205 208 205 204 204 203 203 206 210 213 217 213 213 218 220 218 219 220 221 221 220 219 219 220 218 215 219 221 222 221 220 220 222 222 216 215 217 217 217 216 214 212 212 214 210 208 212 210 208 211 213 214 207 209 205 205 207 206 209 208 209 207 206 206 204 199 204 204 200 197 201 205 205 206 202 202 205 201 200 202 204 204 205 204 206 206 203 205 205 206 204 200 201 196 194 190 184 177 169 164 152 149 140 132 126 119 116 113 107 102 98 96 90 84 81 79 
223 224 222 222 224 225 223 223 222 222 222 225 223 221 223 222 221 224 221 219 223 224 224 223 223 222 223 224 223 221 219 219 219 219 217 219 220 223 223 220 218 219 220 219 218 219 219 218 219 223 222 220 223 222 221 220 219 218 220 222 221 219 221 221 220 220 219 220 216 215 217 217 217 217 218 217 216 216 218 218 215 215 215 215 214 211 210 209 207 210 212 211 210 208 209 206 205 209 206 205 209 206 204 204 202 200 203 208 207 203 203 206 206 205 206 208 209 207 207 204 205 206 206 206 206 201 203 201 201 202 202 201 197 193 190 186 182 174 166 157 153 146 135 130 124 119 110 106 100 95 
219 224 225 226 223 225 222 223 224 225 224 225 223 223 221 221 224 223 222 224 223 221 220 220 222 220 220 223 221 222 222 222 223 222 217 218 220 222 222 220 218 218 220 222 223 221 220 221 221 222 222 224 224 222 221 220 220 221 224 223 222 221 224 225 223 220 222 222 218 217 216 217 218 220 218 216 217 216 219 218 218 216 215 217 215 212 217 216 214 215 216 215 212 213 211 209 210 214 209 207 206 208 208 206 204 206 204 210 211 208 208 211 211 210 209 210 209 205 204 204 203 207 206 208 208 206 205 206 206 207 206 204 203 202 204 203 200 197 197 193 190 186 178 174 169 164 153 144 129 123 
221 225 223 221 223 223 221 221 223 223 222 220 223 222 220 221 226 225 223 223 222 220 221 220 221 221 222 220 220 220 219 222 222 219 217 219 221 223 222 220 219 219 220 223 222 223 221 217 221 221 219 221 222 221 221 219 222 226 224 223 223 221 221 223 221 221 223 223 220 219 220 220 221 221 219 217 219 219 217 218 222 218 216 217 219 218 221 219 218 218 219 218 215 216 216 216 218 217 216 213 207 208 210 210 208 210 211 211 211 212 212 211 211 212 210 208 208 206 206 206 206 209 207 210 210 210 212 211 213 211 209 209 207 207 208 204 203 205 207 208 206 204 202 199 196 197 185 177 172 169 
221 222 218 217 219 220 217 217 220 222 220 219 225 221 223 223 223 223 221 218 218 220 222 222 224 225 226 223 223 224 220 219 221 218 218 220 218 216 216 215 217 218 221 225 222 224 223 219 221 220 218 221 223 229 224 222 223 226 224 223 223 221 219 222 222 224 225 225 222 220 220 219 219 217 219 219 222 223 217 218 221 220 219 221 222 219 219 217 218 219 218 216 215 216 217 218 217 218 218 216 214 214 212 216 213 209 213 214 209 214 216 214 214 216 213 211 211 208 209 212 213 211 209 211 209 209 211 211 212 210 208 207 207 208 207 204 208 206 204 209 209 203 203 203 200 202 198 195 193 190 
