P2
150 65
255
67 65 68 68 61 59 60 57 57 60 68 72 71 67 65 58 57 60 55 51 53 54 55 53 53 56 56 59 68 69 70 68 75 92 119 135 114 90 88 100 102 90 67 65 79 81 81 91 86 80 83 80 78 80 85 96 85 82 84 84 92 97 90 87 88 90 90 89 87 87 86 83 71 70 66 67 71 73 73 73 78 82 86 95 102 113 100 104 96 92 93 84 78 92 102 100 103 121 98 104 108 107 107 109 109 110 111 111 111 113 116 118 119 120 120 119 119 119 119 119 117 115 115 117 114 112 112 103 104 117 116 117 118 117 116 114 114 113 111 110 109 109 108 108 108 109 109 109 109 109 
67 63 59 59 60 62 62 62 64 64 69 67 67 65 61 58 57 61 60 60 63 62 56 54 56 56 61 59 65 73 69 63 61 57 64 84 81 86 92 108 115 114 99 86 87 84 85 86 80 82 84 82 82 79 83 86 91 86 79 77 83 83 83 81 79 82 85 85 84 81 73 74 72 76 67 59 64 66 70 67 63 69 75 78 84 88 85 95 100 92 83 83 82 103 126 125 126 111 109 122 124 123 125 127 126 126 127 128 130 132 134 135 135 136 137 135 135 135 135 135 132 130 129 130 127 125 111 95 119 134 137 136 137 137 135 134 132 131 129 128 127 126 125 125 125 126 126 125 124 124 
62 65 63 62 61 62 60 62 65 66 62 57 57 57 60 57 54 56 58 63 67 67 64 56 52 52 58 61 66 65 63 64 58 50 48 51 49 55 66 76 93 100 100 98 93 88 89 86 83 83 81 78 80 81 80 79 87 86 82 75 78 79 80 79 76 81 81 79 85 81 73 77 77 78 72 68 68 65 68 70 66 67 69 69 75 76 78 72 74 78 77 74 74 90 104 97 87 98 133 142 145 146 147 147 147 149 149 150 152 153 154 155 156 156 156 156 155 155 155 155 152 150 149 148 145 132 102 125 147 153 155 157 157 156 155 154 154 153 151 149 148 147 146 146 148 148 147 147 146 146 
61 64 63 64 64 60 59 65 65 61 56 52 54 56 56 53 52 52 55 57 56 60 64 65 61 57 51 54 62 70 67 63 61 54 53 52 51 52 59 76 88 92 99 92 87 84 86 91 83 81 78 76 76 78 77 74 76 80 77 74 77 83 81 81 80 80 78 80 89 79 78 84 81 82 77 74 75 74 69 68 67 67 69 71 72 75 82 78 72 71 76 73 71 67 70 74 71 94 135 122 124 134 149 151 160 166 167 168 169 168 169 171 172 171 171 172 170 170 170 170 171 170 170 169 165 144 115 162 167 170 170 171 172 171 170 170 170 169 167 165 164 164 164 165 166 166 165 164 163 163 
66 64 61 64 68 67 65 61 59 54 55 53 59 63 64 64 64 57 56 53 49 52 52 57 58 56 57 59 58 63 64 62 64 62 61 62 56 54 62 76 80 89 90 84 78 82 86 86 82 77 74 76 77 78 77 74 73 76 74 74 82 91 88 87 81 77 75 76 80 78 86 88 81 82 90 86 73 73 71 73 72 71 80 80 73 72 73 75 70 69 80 72 70 67 67 68 78 138 169 99 87 124 158 159 169 174 175 176 176 176 176 178 179 178 178 179 178 178 178 178 177 176 176 175 171 143 123 171 175 180 180 179 180 179 178 178 176 176 175 174 174 174 174 175 176 175 174 174 171 171 
53 57 67 70 69 65 65 65 66 65 62 55 52 60 60 58 63 56 51 50 44 46 49 54 56 53 52 54 55 54 55 57 61 63 64 61 56 60 74 82 81 84 79 75 76 79 83 79 75 73 73 72 77 80 77 73 71 76 77 82 88 86 84 83 77 77 77 79 74 75 87 87 77 78 99 110 98 88 87 88 87 84 80 77 74 74 76 75 74 73 74 67 67 65 61 66 85 151 193 128 124 153 174 174 178 177 176 179 179 179 179 179 180 180 180 180 181 181 181 181 181 179 179 179 174 138 125 175 180 185 185 185 184 183 182 182 182 181 181 181 180 180 171 169 174 177 178 178 175 174 
58 58 67 70 69 66 64 64 60 63 62 58 50 55 54 52 60 57 55 52 44 45 49 53 51 48 50 47 48 56 55 57 60 62 62 57 53 58 73 85 83 80 75 71 70 70 71 73 75 78 73 73 81 91 87 78 81 83 81 84 87 83 81 82 77 78 81 79 74 77 82 82 83 82 102 111 102 93 89 98 102 91 78 87 88 83 83 77 74 72 71 68 65 62 58 61 68 93 128 106 103 111 125 130 139 153 156 173 179 178 176 175 178 179 180 179 180 182 182 181 180 179 179 180 175 130 129 178 183 187 187 187 188 187 186 186 184 184 184 184 181 180 154 154 164 175 180 180 178 177 
61 57 58 63 66 63 61 60 57 55 56 53 49 53 55 52 56 58 59 51 46 47 49 52 55 53 51 49 47 49 51 54 54 56 61 64 63 68 79 86 84 75 71 69 66 68 69 75 79 77 75 77 86 96 91 87 89 89 87 84 84 79 74 75 74 73 76 76 76 77 81 81 75 73 103 110 101 97 89 88 100 97 77 89 108 96 88 69 65 74 81 82 84 79 75 73 82 97 116 87 92 93 77 85 88 113 138 171 177 175 175 175 176 178 180 180 180 181 181 180 178 177 178 180 172 119 132 180 184 188 188 188 189 187 186 186 185 185 185 185 184 176 149 161 169 178 182 181 178 177 
63 58 57 62 69 63 55 55 56 54 53 49 49 51 56 54 54 54 51 49 51 54 51 50 52 55 53 51 50 46 46 49 50 53 59 68 73 77 77 77 79 79 76 76 79 79 77 76 76 77 84 86 89 85 80 78 79 81 80 83 85 87 81 75 69 67 69 70 74 76 79 80 76 79 98 106 105 102 106 102 73 90 103 93 100 97 100 78 64 65 72 90 96 91 97 88 114 153 176 143 154 134 80 90 106 108 138 174 175 173 175 177 178 179 180 181 181 181 180 180 179 177 178 181 170 114 135 182 183 185 187 188 187 187 185 185 186 186 186 186 184 176 140 139 163 180 183 181 180 178 
60 62 69 70 67 64 58 69 109 109 73 56 53 54 52 55 52 55 57 58 52 51 55 54 54 57 58 52 51 50 53 58 60 63 66 69 76 78 75 73 78 81 77 73 75 74 73 73 74 81 84 84 82 78 75 74 77 78 74 78 82 80 77 74 71 62 65 73 75 75 77 79 74 76 90 95 114 121 104 101 81 77 107 91 94 100 105 89 74 74 77 84 84 80 94 104 119 154 171 156 143 147 122 124 140 144 137 144 164 176 175 177 180 180 179 179 180 180 179 178 178 178 179 181 167 105 139 183 183 183 186 189 187 187 186 185 186 186 186 186 183 181 173 167 177 182 182 180 180 178 
57 64 88 98 80 61 59 79 131 134 95 65 61 57 55 55 49 51 59 56 46 48 51 56 57 62 63 58 54 49 53 66 72 86 98 96 90 79 77 76 77 80 75 69 67 65 66 67 72 76 76 77 81 76 76 72 72 72 73 80 87 92 77 72 68 68 74 78 75 71 79 86 83 83 97 100 109 119 113 114 114 98 111 99 91 101 103 100 88 85 81 78 79 81 105 111 105 138 163 160 141 125 125 155 167 171 168 159 165 178 180 181 182 182 182 182 182 181 181 181 181 183 184 183 166 97 145 184 184 184 185 188 186 185 184 184 185 186 186 184 183 183 184 183 183 181 180 179 179 173 
71 79 113 131 128 99 87 89 115 118 106 79 74 66 54 53 48 45 44 43 45 50 53 59 62 63 71 81 79 66 62 70 84 106 113 100 91 83 83 81 80 81 76 72 72 71 73 74 70 67 78 89 82 75 77 71 68 67 73 79 87 92 69 68 67 72 71 70 66 63 73 85 86 88 95 96 95 100 114 121 128 120 118 115 105 105 95 99 102 104 90 83 86 98 118 99 95 129 159 163 163 145 131 162 173 173 174 174 174 177 180 179 180 182 182 182 182 181 181 182 182 183 183 182 162 92 149 184 184 183 182 182 182 182 181 181 182 184 183 181 181 180 180 179 179 177 176 176 177 159 
88 97 128 133 138 136 136 114 96 118 113 92 93 86 67 45 40 42 40 41 47 50 56 63 72 74 88 98 95 100 98 91 96 114 114 109 105 99 93 83 83 88 86 83 85 77 77 79 71 75 90 91 79 74 72 66 64 63 74 76 73 78 66 69 65 67 66 68 71 70 74 80 81 81 89 86 88 97 99 105 106 106 110 109 104 109 110 115 108 96 90 89 94 107 108 102 99 119 152 166 165 164 168 169 172 172 173 174 175 176 177 178 179 181 181 181 181 180 180 181 181 180 180 182 155 87 152 184 182 181 180 179 181 180 180 179 181 181 180 180 180 179 178 178 177 176 175 175 175 142 
92 87 104 118 118 121 127 118 95 92 78 72 69 87 98 49 40 40 39 41 41 45 56 73 95 99 102 111 117 120 121 118 111 117 121 118 114 110 105 101 104 115 113 96 84 74 72 75 86 88 82 73 73 74 68 62 58 60 69 73 75 71 67 68 65 62 64 68 75 76 75 77 76 82 86 80 76 81 88 87 91 100 109 111 107 104 103 106 112 80 76 85 84 86 98 114 110 131 149 164 168 166 166 168 171 172 171 173 174 175 175 176 177 179 180 179 179 179 179 180 181 180 179 181 150 85 156 183 180 178 178 178 178 179 179 178 180 180 179 178 177 177 177 177 176 176 176 176 172 128 
77 68 70 79 78 89 105 99 84 80 75 68 66 81 96 52 41 42 42 42 43 45 46 74 109 109 106 110 114 117 116 116 117 122 123 121 116 111 109 107 109 112 108 95 83 72 65 68 74 74 71 73 70 60 62 60 59 64 67 69 64 63 63 63 61 60 59 61 65 68 72 71 74 77 86 84 89 92 89 91 100 104 110 109 107 104 104 100 94 83 88 88 86 83 82 93 118 145 156 162 164 165 166 168 170 170 170 173 173 174 174 175 176 177 178 177 177 178 178 179 181 179 177 176 144 86 159 182 180 177 178 177 176 177 177 176 178 177 177 176 175 175 175 175 175 175 175 175 168 115 
67 70 65 65 68 78 88 85 85 84 75 70 66 65 67 48 43 45 46 43 43 44 44 66 88 85 91 108 117 119 114 113 117 123 121 122 124 110 97 93 97 94 91 87 79 71 71 78 79 70 73 88 91 77 72 64 63 71 68 65 60 58 55 53 54 57 55 61 62 57 63 68 72 77 85 87 91 99 106 99 96 101 109 106 106 103 98 98 96 92 92 89 86 82 82 90 117 141 156 162 165 165 165 166 167 168 167 170 172 173 174 174 174 175 176 175 175 176 177 178 177 177 176 176 138 87 162 180 180 178 178 177 176 177 177 176 176 176 175 174 173 173 173 173 174 174 174 174 162 100 
80 81 75 82 88 80 88 86 82 84 75 68 62 56 59 47 46 48 47 44 44 45 44 62 72 62 68 100 114 113 112 110 113 117 117 116 117 103 89 81 82 86 88 89 85 83 83 92 86 82 83 80 85 92 78 69 70 76 66 61 64 60 54 56 54 57 59 61 56 54 60 69 72 76 79 85 94 101 103 83 63 76 104 104 104 101 90 87 85 85 86 87 85 83 80 90 115 138 155 163 165 165 165 165 167 170 169 169 170 172 173 173 174 174 174 174 173 173 175 176 176 177 176 175 133 92 166 178 179 178 176 174 174 176 177 176 176 176 175 174 172 172 173 173 173 173 174 174 151 85 
97 90 82 90 85 74 75 69 67 70 64 60 57 58 69 52 47 49 48 45 45 47 47 57 66 59 59 91 104 105 107 105 109 110 109 115 105 86 79 66 65 79 86 90 88 95 87 75 85 105 104 98 88 95 78 63 75 76 57 61 62 61 60 57 61 64 64 62 58 59 64 69 69 67 68 78 98 103 94 70 56 62 91 99 98 90 77 68 64 71 78 79 82 80 77 87 112 135 156 163 166 165 165 167 168 168 167 170 171 173 173 172 174 174 174 174 173 173 175 176 175 176 175 174 125 99 166 177 178 177 175 172 171 174 177 178 174 173 174 174 170 170 170 171 172 171 172 172 136 69 
82 83 77 74 73 70 66 63 61 62 63 66 67 70 86 56 47 50 49 46 46 47 49 54 68 65 69 82 87 92 95 93 95 103 106 105 104 95 82 59 52 70 92 97 99 106 98 89 94 102 103 101 99 101 86 64 76 70 60 63 65 48 45 46 50 57 61 65 66 66 61 65 70 67 74 86 94 95 80 70 66 66 76 85 88 73 61 54 53 57 62 74 79 74 72 85 108 129 151 159 162 161 161 164 165 165 163 167 170 171 173 171 174 173 173 175 174 173 174 175 174 173 173 170 118 105 164 175 175 176 174 173 170 172 172 171 171 170 171 170 169 169 168 166 168 169 169 170 123 54 
68 67 65 63 64 63 61 62 63 64 66 64 65 66 70 54 51 51 49 48 46 46 48 50 62 68 71 71 73 79 82 80 80 86 89 89 90 88 85 74 68 70 82 90 89 85 80 78 79 83 84 81 82 80 82 68 69 69 67 68 64 49 48 50 56 57 61 64 68 70 63 63 73 79 78 79 83 80 70 66 70 74 69 71 70 62 65 68 57 59 70 71 70 64 65 76 102 124 146 149 151 148 136 121 126 139 135 138 132 135 143 150 145 148 145 134 133 156 162 161 158 151 144 138 103 104 146 151 150 158 152 156 160 162 162 158 154 158 161 163 163 164 162 161 156 154 144 140 118 91 
74 72 71 71 75 75 72 74 72 70 69 65 60 62 58 54 53 53 53 53 51 51 50 51 51 59 65 65 66 67 69 70 73 75 77 76 77 77 78 80 81 81 81 81 79 78 76 76 79 79 77 76 76 78 84 66 71 75 74 67 60 56 57 54 60 58 60 60 62 65 71 71 75 79 74 73 78 74 75 77 79 76 69 66 72 72 89 92 76 74 80 80 73 66 71 69 80 98 117 115 114 106 84 66 70 81 82 84 73 78 95 107 90 83 77 68 74 108 117 106 98 93 80 75 73 81 97 83 77 84 82 87 104 121 113 94 87 103 127 134 125 115 120 125 113 106 93 96 109 114 
70 71 70 71 72 72 71 70 69 66 63 64 62 59 59 59 56 54 55 54 55 52 52 54 54 55 56 57 59 61 61 64 63 64 65 66 66 66 70 72 72 74 77 75 74 73 72 75 75 75 74 73 75 78 88 66 68 71 66 59 60 65 68 65 68 71 73 73 74 79 82 81 84 85 88 88 88 88 88 89 86 87 82 79 79 77 80 79 75 77 77 83 93 84 83 73 70 73 81 82 80 73 67 72 74 73 75 70 69 68 71 68 70 70 66 68 68 71 73 64 59 63 63 70 68 61 66 66 64 59 61 60 63 70 65 60 60 60 71 76 70 62 63 68 67 65 66 73 86 90 
73 73 71 73 75 74 73 75 79 76 72 75 67 68 71 67 63 60 57 62 65 60 62 61 61 60 59 58 64 64 62 65 63 61 62 65 67 67 70 68 69 74 76 73 75 75 85 102 95 87 79 74 75 80 88 67 71 72 74 78 84 94 98 99 93 92 90 87 88 88 88 88 87 87 84 80 80 85 89 91 96 102 102 101 105 110 120 116 101 89 82 82 79 77 75 76 77 79 79 83 87 87 88 90 80 77 82 78 76 77 79 80 82 87 87 87 86 85 89 85 82 87 87 88 85 81 83 84 81 81 85 84 80 76 73 78 80 78 76 74 75 76 74 71 72 75 72 67 68 70 
98 101 100 98 98 96 99 103 103 96 98 98 87 92 96 93 89 89 87 91 95 82 81 81 72 68 67 66 65 63 65 59 55 58 62 64 66 67 71 72 72 74 74 77 83 87 84 80 83 87 80 78 81 86 88 71 78 85 98 98 94 90 88 85 85 84 83 86 88 89 88 90 90 90 74 59 68 84 86 89 88 85 82 83 87 96 96 109 119 127 134 132 125 104 87 79 75 73 74 75 74 86 107 111 100 82 84 85 84 83 88 90 88 91 96 97 93 91 94 94 94 93 95 96 97 95 91 89 90 90 88 88 91 91 86 86 86 87 87 85 82 83 86 85 84 84 85 83 80 78 
152 146 138 137 135 140 143 141 134 132 143 138 125 129 127 128 129 128 127 119 117 119 124 122 113 108 104 99 92 86 83 75 73 78 81 81 82 84 84 82 82 83 83 85 90 90 82 80 83 85 87 89 92 94 98 98 102 102 102 91 94 96 91 91 94 96 95 96 97 93 86 92 109 105 73 57 85 103 102 105 104 101 97 90 83 89 87 85 83 82 97 121 144 146 139 128 115 100 83 77 72 72 80 98 113 100 84 80 83 81 81 85 89 88 87 92 95 95 93 91 91 90 90 93 96 98 92 88 90 88 91 87 87 93 92 91 89 86 86 87 84 84 90 88 87 87 92 91 85 85 
141 160 163 157 147 144 144 140 135 138 140 137 135 135 136 138 141 139 135 131 130 133 136 134 131 133 134 131 125 122 122 117 116 119 121 120 117 117 117 116 118 118 115 115 116 115 111 117 114 114 112 108 101 94 108 119 99 92 97 107 114 112 114 112 110 112 110 108 109 102 89 91 116 114 70 61 107 125 126 128 126 121 119 116 118 108 83 81 96 91 75 76 75 83 93 120 150 162 154 122 95 96 98 118 150 169 139 88 79 83 87 85 88 90 87 90 93 95 95 94 91 89 91 96 96 96 96 99 96 91 92 92 92 89 85 90 97 97 93 88 84 85 86 85 83 87 93 95 91 96 
198 210 228 229 222 216 206 202 193 184 181 174 160 147 139 140 144 143 141 139 138 139 141 141 142 142 143 141 140 137 136 136 135 138 137 137 135 137 138 141 140 137 135 134 133 131 118 108 114 110 102 102 107 90 91 91 87 90 97 117 121 123 124 121 120 118 117 118 119 115 104 102 114 103 66 66 100 107 108 107 105 103 102 101 99 96 85 84 98 99 78 80 78 78 76 78 79 87 97 102 99 103 107 108 113 122 124 116 103 87 117 148 147 141 148 152 147 150 151 145 143 136 133 133 130 141 141 140 138 136 132 120 124 122 126 130 121 121 120 124 121 111 99 94 94 101 94 105 122 136 
135 135 134 133 132 126 112 104 94 94 95 94 83 77 74 97 146 153 150 149 143 141 145 150 151 148 143 144 142 140 141 143 145 147 146 146 145 147 145 138 135 131 127 121 115 100 87 84 91 98 109 105 93 63 63 80 94 102 104 112 112 110 107 106 107 104 102 102 103 103 103 101 102 97 85 85 92 95 95 94 92 92 92 92 90 90 90 90 93 84 79 80 78 78 78 78 78 76 77 78 78 79 80 80 81 81 80 82 90 82 81 97 106 118 133 153 159 168 176 172 171 161 158 166 165 171 178 175 175 173 169 162 172 173 179 181 182 179 177 183 182 179 177 161 126 119 109 117 174 200 
106 109 92 87 93 83 69 60 59 66 66 75 58 54 60 77 155 176 186 181 175 169 167 174 180 169 155 151 150 163 173 188 192 177 167 153 140 131 122 108 105 103 100 93 89 88 87 87 84 93 97 92 85 69 65 77 91 95 92 88 87 86 84 84 84 83 82 81 83 84 79 76 81 87 87 86 88 87 87 87 87 87 87 86 88 87 87 86 86 86 84 85 84 84 84 83 81 82 82 83 85 85 85 85 85 82 81 95 117 151 150 148 148 146 147 149 153 164 167 166 165 161 163 167 174 172 180 177 178 186 184 185 182 174 177 174 174 169 159 158 161 168 165 150 132 131 133 126 142 146 
110 111 97 99 109 91 77 66 57 58 65 96 75 51 54 69 112 137 144 137 143 145 148 155 169 176 189 189 195 203 189 160 142 116 106 98 92 88 86 85 87 90 87 87 87 88 91 90 79 78 77 89 97 100 99 97 98 98 97 96 97 97 97 96 97 97 98 100 103 100 89 83 89 94 93 88 90 92 94 95 95 97 98 98 96 96 99 100 102 106 112 103 99 97 98 101 101 99 98 94 99 97 95 95 93 86 85 98 124 193 213 218 220 218 215 208 205 201 202 206 205 201 197 188 182 174 171 164 171 181 186 185 178 173 170 171 169 171 166 163 161 159 157 156 156 155 149 145 136 130 
89 93 92 88 74 58 50 52 49 51 57 63 63 62 63 67 75 86 97 103 103 94 91 93 103 159 237 228 194 126 90 87 87 88 79 58 50 46 44 45 49 65 75 78 77 77 79 76 65 62 72 101 110 112 107 98 94 92 89 87 88 88 89 92 92 90 88 88 83 77 79 79 78 71 66 65 69 71 73 75 75 74 73 70 68 69 73 75 81 78 73 64 60 65 76 95 105 93 88 90 92 90 87 91 94 88 76 63 75 106 115 126 137 156 166 174 179 183 181 180 185 191 190 195 195 198 174 141 148 159 180 191 189 172 157 153 157 150 144 137 135 132 129 128 126 126 123 123 126 127 
68 72 73 75 75 74 72 69 60 63 63 57 51 51 52 53 53 56 79 98 102 98 94 119 163 219 231 187 153 94 70 71 67 51 40 36 38 38 38 37 35 32 37 54 66 69 67 63 63 63 66 79 82 85 85 82 82 80 78 76 75 74 75 77 77 75 73 73 71 70 69 68 66 64 62 61 65 66 67 68 65 64 62 60 60 61 61 48 37 32 30 33 32 33 34 41 56 75 89 79 78 77 75 80 84 87 79 68 79 86 84 81 83 88 92 95 99 103 106 112 116 121 122 127 132 146 122 85 100 118 165 163 178 184 170 139 139 136 135 136 135 132 130 126 106 90 82 79 84 88 
48 49 51 52 54 55 53 50 43 53 55 45 43 44 45 47 53 75 97 100 103 109 108 152 198 173 127 98 86 76 74 62 48 34 37 43 48 58 63 54 48 40 34 31 42 61 60 57 58 59 60 64 65 66 66 65 65 65 65 65 64 64 64 63 62 62 62 62 64 65 64 62 60 59 58 57 57 57 58 58 56 56 56 56 56 55 43 28 29 35 38 44 51 43 40 37 33 46 68 70 68 66 63 62 65 71 67 57 52 54 67 79 78 81 80 78 77 75 75 76 73 73 73 72 81 109 106 96 100 111 136 121 130 135 123 111 109 110 108 109 106 103 81 62 41 31 30 30 29 30 
34 35 36 36 36 36 34 33 34 38 38 42 42 44 51 70 91 107 118 117 115 117 119 108 84 74 64 67 67 65 62 50 40 41 47 62 78 112 120 110 93 59 44 33 29 43 48 48 49 53 51 49 50 49 49 50 49 49 49 49 48 48 48 48 47 46 46 47 49 48 47 47 47 46 46 46 47 47 46 46 46 46 47 47 47 40 27 32 40 59 86 96 116 91 77 55 42 37 42 53 52 50 49 48 52 58 55 46 43 47 71 93 95 97 97 95 92 92 89 87 85 84 83 82 88 118 101 77 87 95 85 85 89 87 82 81 99 109 105 95 77 59 33 30 34 39 40 40 38 36 
32 30 30 29 29 32 39 39 49 54 53 71 83 71 74 98 103 104 106 107 107 107 110 95 57 47 46 48 50 51 53 47 39 42 53 83 114 145 142 149 136 99 66 39 32 35 46 45 44 46 44 44 44 43 42 43 43 43 43 43 43 43 43 43 43 43 43 44 44 43 42 42 43 43 43 43 44 44 44 44 45 45 43 43 42 32 28 39 63 99 126 150 156 144 118 80 47 39 32 42 46 46 45 44 43 42 43 40 41 67 93 104 108 110 110 108 108 107 104 102 101 96 92 92 89 97 82 49 47 49 53 62 65 65 61 60 66 71 70 68 48 32 36 39 51 69 98 86 55 46 
45 30 20 22 38 64 85 83 89 90 91 96 95 91 89 87 83 85 87 87 90 87 87 92 80 53 48 46 47 46 48 42 36 42 58 93 134 141 136 129 140 109 79 41 33 29 41 48 44 43 43 43 42 42 41 41 40 40 40 40 40 40 40 39 38 39 40 42 41 40 40 40 42 43 43 43 44 44 44 44 45 45 45 45 45 28 32 45 90 120 163 148 145 152 145 93 53 44 45 46 47 45 46 47 49 51 56 64 72 89 86 90 96 99 100 99 101 99 96 93 91 86 81 80 74 67 56 48 53 56 57 60 63 64 63 61 59 57 56 49 30 33 40 56 120 125 106 99 110 91 
24 29 34 36 55 66 79 93 109 121 133 138 137 135 132 130 128 120 111 106 101 100 102 98 93 84 79 73 72 69 72 69 63 48 50 79 100 128 136 129 111 80 59 40 31 24 34 39 35 33 35 34 36 37 38 39 38 39 39 39 38 38 38 38 38 38 39 39 40 41 42 42 45 46 48 49 50 50 50 50 51 51 52 53 50 34 35 42 71 99 141 152 164 141 104 83 51 46 51 50 51 54 57 58 61 63 65 74 78 71 66 74 76 77 78 79 79 79 78 76 74 73 71 68 64 61 58 56 57 56 48 45 48 49 51 53 55 55 54 40 29 35 36 57 113 108 70 71 98 90 
32 39 44 40 42 45 56 69 88 102 119 140 152 149 148 150 152 145 137 130 115 108 107 107 104 104 100 93 89 83 77 61 52 41 40 53 62 77 84 76 65 55 39 31 27 25 30 29 28 27 28 28 28 29 30 31 30 31 31 32 32 32 32 32 32 33 32 32 33 33 34 35 35 35 34 33 34 33 33 32 32 33 32 30 30 30 28 35 44 70 84 105 103 95 65 57 43 47 51 53 55 57 60 62 64 71 76 82 85 83 83 85 86 88 89 88 89 90 89 88 88 88 88 88 81 76 72 66 62 59 51 44 37 30 26 26 27 29 31 31 29 33 36 48 69 85 78 78 97 82 
59 62 64 67 67 66 67 69 73 74 76 79 81 82 85 87 90 92 95 96 96 95 94 96 92 90 89 88 89 99 99 71 58 52 51 49 51 54 54 52 48 46 42 45 46 47 49 52 56 60 52 49 50 50 50 51 51 51 50 50 48 47 48 47 46 46 46 46 47 48 48 48 48 47 46 46 46 45 44 43 43 44 44 42 41 40 37 39 39 43 49 58 58 53 48 45 48 53 56 56 56 60 66 70 74 81 86 92 92 95 97 97 98 103 105 102 101 102 103 104 105 104 103 102 97 89 82 75 68 59 54 49 44 39 35 33 32 31 30 29 29 32 37 38 54 73 78 82 76 55 
90 91 92 95 95 94 94 95 99 99 99 100 99 101 102 103 104 105 106 107 107 108 110 109 107 107 107 108 107 105 107 106 104 106 102 101 102 99 99 98 98 97 97 100 101 100 101 101 100 102 100 99 99 99 99 99 98 97 97 97 97 97 96 96 99 99 98 98 98 97 96 95 94 94 93 93 92 92 91 92 94 97 98 97 96 92 90 88 85 83 83 82 83 84 86 89 90 89 88 88 88 89 91 92 93 96 98 102 105 108 111 112 113 119 121 118 116 114 113 114 115 115 114 114 111 109 107 104 103 99 92 89 86 84 81 77 74 71 67 65 63 59 53 50 46 46 48 47 45 45 
94 94 95 95 95 96 96 96 97 98 99 99 99 99 100 101 102 103 103 104 102 103 103 104 106 107 107 107 108 109 109 110 110 110 110 113 122 120 113 111 111 110 109 109 109 109 111 113 113 114 113 113 115 115 115 115 115 114 114 115 115 114 114 114 115 115 114 114 113 113 113 114 113 113 113 113 112 112 112 112 114 117 117 115 114 115 115 115 116 116 116 115 114 115 115 113 112 112 112 111 112 113 114 115 115 115 116 117 118 120 122 124 125 126 126 125 125 125 124 123 123 123 124 123 122 121 121 120 119 118 116 115 113 110 110 109 107 106 105 104 102 101 100 99 99 97 98 99 97 97 
90 90 91 92 92 93 94 95 94 94 95 95 95 95 96 96 97 97 98 99 98 99 100 100 101 102 103 103 103 104 105 105 105 107 121 164 193 195 186 173 167 161 154 143 135 124 119 115 111 109 108 109 109 109 109 109 109 108 108 109 108 109 109 110 109 109 110 111 110 110 110 110 110 110 110 110 110 111 112 112 110 110 111 112 114 114 113 112 114 116 117 115 114 115 115 113 114 114 113 112 113 114 114 114 114 115 117 118 120 120 120 119 119 120 121 122 124 123 122 122 121 121 121 121 120 119 118 117 118 118 118 118 117 115 115 113 113 113 111 111 112 112 111 111 111 113 113 112 113 114 
91 91 93 94 93 93 94 94 92 93 94 94 95 95 95 97 96 97 98 98 99 100 101 101 100 101 102 102 102 103 103 103 105 134 179 224 229 228 229 229 229 227 226 223 218 203 187 170 153 143 136 131 124 119 116 114 111 109 109 107 107 105 104 105 105 106 107 108 106 106 106 107 108 108 108 107 106 107 109 111 112 111 109 109 109 109 109 110 112 111 109 110 110 110 111 112 114 110 108 109 109 110 110 109 108 109 110 112 114 115 114 112 111 112 114 116 115 114 114 113 111 111 111 111 111 111 111 111 111 111 111 111 112 112 111 108 108 108 107 107 108 107 105 104 105 106 105 103 103 103 
91 92 92 90 89 89 89 89 90 91 92 93 95 94 95 97 97 98 98 99 99 99 100 100 97 98 99 99 99 98 98 103 129 193 219 224 225 223 221 221 223 223 225 227 227 224 225 224 220 214 210 204 191 177 165 157 149 141 135 127 121 116 112 111 109 108 107 106 104 104 105 105 104 104 104 104 104 105 106 108 110 110 109 108 107 108 109 109 107 108 107 108 108 109 110 110 109 111 111 109 108 110 110 108 109 110 110 109 110 112 113 112 112 114 113 112 109 107 108 106 106 106 105 105 106 105 104 102 103 103 103 103 103 102 101 101 101 101 100 99 99 99 99 99 99 99 98 97 98 98 
93 93 92 92 92 92 92 92 93 94 95 96 96 96 97 98 98 99 100 100 99 101 107 110 113 113 114 116 117 122 134 173 202 219 219 222 224 223 222 222 224 222 223 227 227 225 226 226 226 225 226 222 216 208 198 186 174 164 153 142 133 128 124 122 123 120 116 113 110 110 111 111 107 105 104 102 103 104 106 106 107 107 107 107 109 110 111 111 110 112 110 109 109 111 111 109 107 109 111 111 109 109 109 108 107 106 105 105 105 105 104 105 106 106 108 109 108 107 107 106 105 104 102 101 102 101 101 101 100 99 100 100 100 98 98 99 98 97 97 96 97 98 97 97 97 96 95 95 95 94 
93 93 92 92 94 94 94 94 95 95 96 96 96 97 98 99 100 100 101 103 112 149 185 193 197 198 199 199 200 206 213 224 226 225 225 226 226 226 226 226 226 225 224 225 225 224 225 226 225 224 223 222 221 218 215 207 200 194 186 177 169 162 150 140 134 127 123 120 115 115 115 115 114 112 113 111 111 110 109 108 107 106 105 106 109 109 109 109 109 110 110 108 107 106 106 105 105 104 105 107 108 108 108 108 107 106 105 105 104 103 103 103 104 105 106 108 108 106 106 107 106 105 104 102 102 101 101 101 101 100 100 102 100 100 100 100 98 98 97 98 98 98 97 96 95 95 94 93 93 92 
92 92 92 92 94 94 94 94 94 94 95 95 96 97 99 100 99 104 108 133 170 209 228 229 226 227 225 223 222 220 224 226 225 224 224 225 226 225 225 225 224 224 223 222 223 224 223 222 223 222 221 220 219 218 220 220 218 215 215 213 210 208 197 187 176 162 153 143 132 127 123 122 118 116 118 117 118 117 116 114 114 110 108 109 111 110 109 108 108 107 107 108 105 105 106 106 107 105 105 106 107 107 107 107 107 107 106 105 103 105 106 104 105 106 106 107 107 107 107 107 106 106 105 105 103 103 104 104 105 105 105 104 101 101 102 102 101 100 100 100 99 99 98 98 98 97 97 96 94 94 
89 91 93 93 92 93 94 94 93 94 96 97 98 101 104 110 118 135 157 179 195 203 211 212 216 216 218 220 220 220 222 221 221 219 217 217 219 219 219 218 218 218 218 215 214 217 218 217 217 217 219 220 217 217 217 216 217 215 217 218 217 215 214 212 206 203 196 187 169 154 138 130 124 119 115 112 111 112 113 114 117 118 116 113 113 113 111 109 107 105 105 107 106 106 107 108 108 107 107 106 106 106 106 106 106 106 105 105 104 106 105 103 105 105 105 105 105 107 107 105 105 105 105 105 105 105 104 104 104 105 104 103 103 102 102 101 100 100 100 100 100 99 99 98 99 98 97 96 96 97 
96 97 97 96 95 96 98 99 98 99 101 102 106 117 127 137 145 155 162 169 176 179 183 187 192 195 200 205 208 209 211 212 214 213 214 216 217 216 214 212 212 212 215 214 211 213 214 214 212 211 213 216 214 212 211 212 212 211 211 211 210 211 208 207 207 204 207 204 195 188 175 167 154 143 127 118 109 105 105 104 104 105 106 106 107 108 108 107 107 105 104 104 103 103 103 103 103 103 103 103 103 103 103 103 103 104 103 102 101 102 102 101 102 102 102 102 101 102 102 101 101 101 101 101 102 101 101 102 102 102 102 102 101 101 101 100 99 99 99 98 97 97 98 98 97 96 96 96 97 98 
95 93 92 93 93 94 96 97 98 99 101 102 104 110 117 126 137 148 154 157 163 164 167 170 173 175 181 186 192 198 201 205 206 209 211 211 212 216 217 215 215 213 214 215 214 216 216 214 213 212 213 217 215 213 212 211 212 211 211 212 211 211 208 208 207 204 205 205 203 203 197 191 180 173 160 150 136 126 118 112 106 104 105 106 107 105 104 105 104 105 106 105 104 103 103 104 105 104 103 102 102 101 101 102 103 104 102 100 101 102 102 101 101 101 101 100 101 101 101 100 100 100 99 99 99 98 98 100 100 99 100 100 99 99 99 99 97 97 97 97 96 96 96 96 95 94 95 96 95 96 
90 90 90 90 90 91 93 94 94 94 95 97 99 102 106 114 126 139 148 156 162 165 167 167 167 165 167 170 173 179 185 189 193 198 200 201 204 205 208 210 213 213 213 214 213 215 213 214 214 213 213 214 213 212 213 209 208 207 206 209 208 209 208 207 208 204 202 203 203 202 200 197 194 189 181 168 158 151 140 130 119 112 109 107 105 104 101 102 101 101 102 103 103 101 101 102 104 104 103 102 102 102 102 102 103 103 102 100 101 102 102 101 100 100 100 100 100 100 100 100 100 101 100 98 98 98 98 99 99 96 97 97 97 97 97 97 97 96 95 95 95 95 94 93 93 93 93 94 94 94 
89 89 89 89 89 90 92 93 92 92 93 96 99 102 105 112 120 128 138 150 159 166 171 174 171 170 167 164 161 165 169 170 174 179 182 186 188 192 196 197 200 203 204 207 208 210 208 208 209 210 207 204 206 209 209 206 204 208 205 201 206 208 202 204 206 203 200 199 198 201 200 201 203 200 193 185 177 169 160 153 141 132 122 114 109 104 103 101 99 100 101 101 102 101 100 100 100 101 101 102 101 101 101 101 101 101 101 101 100 99 99 100 99 98 98 98 98 98 98 98 97 99 99 97 96 96 96 97 98 95 96 95 97 97 97 97 96 95 95 94 93 93 93 93 93 92 92 91 91 91 
88 88 88 88 88 87 86 87 90 90 92 94 94 96 99 103 107 115 125 135 145 155 158 166 165 166 166 164 161 157 155 156 157 163 165 167 171 174 179 185 187 191 193 197 197 201 201 204 208 208 206 203 205 206 202 203 203 201 203 208 207 204 204 206 205 204 202 200 201 204 197 198 197 198 195 195 194 191 185 181 176 172 162 157 149 138 128 115 106 103 101 100 101 100 100 100 97 98 100 101 100 100 100 100 101 100 99 99 99 100 100 99 99 99 99 99 98 98 98 99 99 96 95 95 97 97 96 96 96 94 96 94 93 94 94 93 94 94 93 92 91 92 93 93 91 91 91 92 91 90 
87 88 87 89 89 88 87 88 91 90 90 92 92 93 95 98 99 107 114 123 134 142 152 158 161 165 165 165 165 164 160 155 152 154 156 161 165 168 171 177 180 187 192 196 197 198 199 204 209 209 208 208 207 206 205 204 205 205 208 212 208 204 204 203 206 206 205 203 203 204 202 202 201 204 202 200 203 203 202 202 196 193 191 186 181 181 175 164 156 144 132 122 113 108 104 102 100 100 101 101 99 100 100 99 100 100 100 100 99 99 99 98 98 99 99 100 98 98 99 100 100 97 96 96 95 95 95 95 95 93 94 94 92 94 93 91 92 91 90 91 90 91 91 92 92 91 91 92 90 90 
86 86 88 88 86 87 88 87 89 90 90 88 88 90 91 92 94 98 103 109 116 125 134 143 153 157 159 162 161 166 165 160 159 153 151 151 152 157 161 166 171 179 187 193 195 197 199 202 205 206 207 207 206 206 207 204 205 207 208 208 210 209 210 208 209 210 209 207 206 204 206 204 201 202 204 203 203 204 203 200 196 199 204 200 200 198 193 196 198 191 183 174 160 146 131 121 112 107 103 103 103 101 100 100 101 102 102 101 102 101 100 99 98 98 99 100 100 100 101 102 101 101 101 99 97 96 96 95 96 95 92 93 94 94 93 92 91 90 90 92 91 91 90 90 92 92 92 92 90 90 
85 85 86 85 85 87 87 86 86 87 88 87 88 90 90 90 91 94 94 97 101 109 118 127 138 144 147 153 154 157 159 157 156 153 148 141 140 144 147 151 155 163 170 177 180 187 191 195 198 198 198 199 201 202 202 202 202 203 204 205 209 209 207 210 208 206 207 206 203 201 200 198 198 197 199 199 199 200 194 193 196 198 200 200 199 198 193 193 199 198 196 196 193 184 168 157 144 131 118 115 111 108 105 104 103 101 101 103 104 103 100 102 102 101 100 101 101 100 100 100 99 100 100 99 100 98 96 95 95 94 93 94 95 94 93 93 93 93 93 93 93 92 91 91 93 93 93 92 90 90 
85 85 86 86 88 88 88 88 88 89 89 89 91 91 92 92 91 91 90 94 96 97 102 109 117 126 131 136 141 142 143 145 147 147 146 146 142 140 138 134 136 142 148 160 166 172 179 181 188 193 193 193 196 195 199 200 201 204 208 208 206 206 202 202 199 196 197 197 202 204 204 202 200 201 201 199 198 198 196 196 197 200 202 200 198 195 192 192 195 194 196 195 196 192 186 185 179 166 157 146 132 123 119 116 111 109 107 104 102 101 99 100 100 98 97 98 99 98 98 97 97 97 97 97 96 95 95 97 96 93 94 93 93 93 92 91 92 92 91 91 92 92 91 91 90 88 91 89 89 89 
87 87 87 87 90 91 91 91 92 93 93 93 95 92 95 92 90 89 88 93 94 94 95 98 101 106 114 118 125 132 133 138 139 143 146 147 146 143 142 135 132 134 137 146 153 164 166 171 182 188 188 188 191 194 197 198 199 198 201 199 198 194 195 189 191 191 192 189 191 189 187 188 189 191 190 189 190 193 197 195 189 191 191 190 189 190 189 190 192 189 186 185 186 185 185 191 193 190 189 183 174 162 154 144 136 126 121 113 110 106 106 103 102 100 100 100 98 98 97 96 97 97 97 97 96 98 98 97 96 95 97 96 94 94 93 92 92 92 91 91 91 91 89 89 91 91 88 88 88 88 
84 85 86 86 87 88 91 91 92 92 92 91 94 92 92 91 91 91 90 90 92 92 90 93 94 95 99 103 109 119 120 128 131 135 136 138 140 139 139 138 135 132 131 136 142 152 159 161 173 181 183 187 190 193 193 195 200 204 202 200 203 202 202 201 201 203 201 200 197 194 194 191 192 198 194 194 198 198 193 193 189 189 188 189 191 192 189 197 196 193 192 192 192 191 194 196 197 193 188 191 188 185 180 177 171 162 154 143 138 130 126 117 110 106 107 104 101 103 103 100 98 97 98 96 94 97 98 96 94 94 95 96 94 94 93 94 93 93 94 93 93 93 90 90 91 91 89 90 90 92 
84 85 86 85 87 86 89 90 91 92 93 95 96 94 93 93 93 92 92 91 90 89 89 88 91 91 93 95 99 102 104 112 117 120 123 128 128 130 132 132 132 130 128 132 134 136 142 148 154 162 168 173 176 182 185 187 193 200 200 200 203 205 206 205 202 203 200 201 201 201 201 197 198 200 203 202 204 201 196 195 194 195 195 197 202 199 195 199 198 197 196 192 193 194 195 196 195 191 189 191 189 190 188 188 188 186 181 172 166 155 152 139 130 121 118 114 111 112 111 108 106 105 105 101 100 100 98 98 97 94 98 106 101 94 93 92 93 94 96 94 93 93 93 91 91 90 90 89 90 91 
83 85 85 85 84 85 88 87 87 89 91 93 95 97 97 94 93 94 95 93 92 91 91 88 90 92 94 94 93 94 97 100 102 108 114 121 123 123 124 127 128 127 132 130 132 134 132 138 142 149 155 162 168 172 173 179 183 184 190 197 201 203 204 201 197 198 204 199 195 196 198 195 192 193 199 198 197 197 197 193 195 199 191 189 193 192 192 195 198 196 188 186 191 192 190 192 190 189 190 191 188 189 187 185 187 192 189 183 181 178 174 164 156 146 139 132 128 127 122 117 117 118 117 112 111 110 108 104 102 101 98 98 95 95 93 93 93 94 98 96 93 90 91 91 93 91 89 88 87 87 
83 83 83 82 84 85 85 86 86 87 88 89 93 91 90 93 94 97 100 96 94 92 89 91 92 91 90 89 91 92 93 94 95 98 100 106 110 113 115 118 121 124 128 126 128 131 131 134 136 138 144 153 159 163 167 173 168 169 184 192 188 185 194 192 192 192 199 200 192 191 190 187 193 197 197 199 197 194 196 194 196 195 194 193 193 196 199 194 196 193 189 192 194 192 185 187 189 190 185 190 195 188 179 188 191 188 188 184 185 182 181 183 177 163 157 151 147 145 142 134 134 137 135 130 126 119 116 115 112 112 105 104 100 98 97 93 94 96 95 94 93 90 90 90 94 93 90 87 87 88 
80 82 83 81 82 83 83 84 86 87 90 91 92 91 92 95 95 96 99 98 97 98 96 97 96 94 92 90 91 95 93 93 94 97 97 99 101 102 108 112 113 114 115 120 125 129 129 129 131 128 137 145 153 159 164 168 166 172 178 180 181 183 185 193 195 193 197 197 195 196 194 196 194 188 191 190 186 183 187 188 193 193 193 194 192 191 193 190 191 188 182 188 189 189 190 192 192 191 187 185 187 189 188 186 187 186 189 184 180 182 181 179 179 176 175 172 168 160 155 144 141 143 143 142 141 139 135 128 125 122 117 112 109 106 106 103 100 99 96 96 94 95 92 92 93 91 89 89 89 89 
82 83 83 81 80 84 83 83 84 86 87 90 92 93 94 95 96 98 101 99 100 102 102 102 99 96 95 94 93 95 93 94 95 98 98 99 98 100 105 107 109 109 108 109 110 116 120 126 127 126 132 135 139 144 152 157 162 164 168 175 175 177 177 186 190 186 191 196 196 194 191 191 186 182 184 180 183 183 188 194 192 191 193 188 182 183 185 185 181 175 173 180 182 189 192 190 185 184 187 183 181 183 189 184 184 183 185 181 180 181 183 181 178 184 185 186 180 172 169 162 154 150 147 142 144 148 150 147 142 135 128 125 121 116 109 107 108 105 103 100 98 98 96 93 91 91 91 89 87 87 
85 85 85 84 81 84 82 82 83 83 81 84 89 91 92 92 92 97 103 102 104 103 103 105 105 101 100 98 98 97 97 98 96 96 95 98 97 97 96 95 97 100 101 102 102 108 113 121 123 126 128 128 128 130 138 143 154 160 164 166 166 165 167 179 184 185 190 197 190 185 188 190 189 184 190 190 191 191 192 195 189 180 189 197 196 196 197 193 187 184 182 186 183 186 190 186 184 183 184 183 185 181 182 182 181 176 177 184 182 178 178 173 172 173 177 177 174 175 178 180 175 170 163 148 148 151 150 148 153 150 144 146 138 130 116 108 107 105 103 103 103 101 100 99 94 91 89 87 85 85 
