P2
46 56
255
128 126 126 126 128 127 127 121 123 119 123 123 123 130 123 125 127 119 116 105 104 115 113 110 97 112 113 122 123 109 120 122 128 125 127 127 127 128 130 127 124 124 123 124 126 126 
127 124 128 128 127 126 122 123 118 126 131 125 116 127 131 129 127 115 106 107 101 120 117 134 141 134 150 119 121 114 115 124 122 105 131 131 131 132 127 127 124 123 127 124 125 124 
126 129 127 127 126 112 92 107 120 119 125 123 128 114 111 113 110 114 111 109 99 117 120 114 132 117 157 149 128 120 124 129 104 136 134 134 126 136 129 131 124 125 125 124 123 124 
125 128 127 125 113 109 106 116 119 131 133 123 128 125 97 85 71 71 75 84 84 94 102 97 102 111 157 146 126 125 121 128 108 130 136 142 128 109 138 133 126 126 126 124 124 125 
127 133 130 115 115 114 101 131 137 129 132 120 114 102 91 80 81 79 81 91 112 132 116 112 125 151 153 128 130 119 126 122 111 129 115 145 117 109 143 113 125 122 123 125 123 126 
130 125 125 112 122 122 133 140 136 136 118 108 98 95 84 94 92 89 99 99 100 109 119 143 143 139 134 131 126 118 144 111 113 124 127 119 119 110 106 99 104 125 125 123 125 123 
128 125 105 123 127 135 144 138 133 128 118 110 107 97 101 95 99 99 110 105 109 110 126 120 132 138 147 135 129 137 129 125 131 130 140 133 117 122 112 108 100 119 123 124 125 126 
117 118 106 119 137 143 143 140 135 124 120 98 91 108 96 99 104 103 92 96 109 129 135 136 138 138 144 140 137 129 129 135 135 126 117 122 132 154 125 111 101 91 125 125 123 123 
124 122 112 114 119 128 138 143 139 125 109 98 100 108 102 103 117 105 108 106 118 127 144 142 154 158 140 135 134 126 119 116 122 114 116 121 126 129 132 108 84 79 117 121 122 125 
121 97 108 111 119 124 123 126 137 127 117 110 112 115 114 124 128 130 121 117 133 134 135 136 134 149 143 131 139 144 139 129 98 91 96 115 124 134 124 99 90 65 98 122 123 120 
85 93 101 123 115 117 130 133 137 141 154 131 139 138 134 135 143 144 136 134 138 145 145 146 146 152 159 153 156 155 156 155 143 99 88 92 106 114 103 93 92 81 77 123 122 119 
85 71 86 123 126 128 132 130 135 151 146 163 164 150 155 155 172 175 162 160 163 161 157 163 159 152 162 157 173 162 162 158 156 133 124 123 124 118 97 80 87 66 88 117 119 120 
98 71 109 145 141 139 138 147 144 151 152 159 168 168 183 180 183 187 186 184 182 177 172 176 165 169 169 173 170 168 171 163 159 156 145 123 104 92 83 90 80 79 96 84 123 122 
100 83 140 154 150 157 161 160 144 145 167 176 190 189 197 198 195 196 196 192 193 189 187 186 183 176 177 181 176 175 175 168 166 159 164 155 111 117 131 90 96 86 88 82 124 121 
87 117 152 153 160 168 173 174 175 176 185 190 198 203 205 203 199 201 201 197 198 196 195 195 192 190 189 183 179 178 180 168 165 162 160 163 148 123 121 115 71 82 88 69 122 120 
61 143 152 159 169 174 181 186 189 190 189 198 202 203 200 202 201 202 202 201 199 203 196 197 197 194 194 189 179 180 177 171 169 157 163 162 154 143 114 114 86 75 90 59 120 118 
105 148 153 160 170 180 185 182 191 194 190 196 198 200 199 199 201 202 203 202 201 203 203 202 203 198 195 194 188 187 180 172 168 163 166 164 159 147 123 105 107 80 87 78 112 117 
132 150 151 161 167 180 185 184 188 192 193 197 199 200 197 201 201 200 201 204 203 205 204 204 198 196 195 194 195 189 180 175 172 159 161 163 160 145 124 89 76 100 83 79 105 116 
133 146 151 158 170 173 182 181 184 191 187 191 196 197 197 201 201 200 199 201 200 201 200 200 198 198 197 197 191 188 176 173 165 162 158 159 155 147 127 94 65 71 60 92 104 115 
130 145 146 156 164 165 172 172 175 185 164 182 192 196 198 199 197 197 197 196 198 196 196 197 199 197 197 196 193 185 176 172 161 165 162 153 155 147 127 115 71 60 57 70 101 113 
126 148 146 153 164 174 175 173 174 175 179 185 192 196 198 198 196 197 200 197 197 200 196 197 194 199 197 194 192 182 173 167 163 159 163 147 156 145 144 113 95 69 59 65 95 115 
116 141 149 154 168 177 183 181 180 176 180 190 192 193 196 199 196 199 199 199 200 201 198 198 199 196 197 192 189 179 171 164 162 163 158 150 150 146 128 118 101 81 77 53 106 114 
99 133 145 154 170 180 186 187 186 183 185 189 193 198 196 198 199 200 199 199 198 198 197 197 197 196 194 189 182 173 167 162 159 161 154 152 146 151 135 108 102 75 66 70 93 113 
82 127 146 148 170 177 187 190 187 191 192 191 192 196 197 195 195 200 199 197 201 202 201 196 196 192 194 184 179 170 164 159 163 162 154 147 154 144 130 96 85 79 67 71 84 113 
72 131 148 151 168 173 184 187 186 188 193 192 189 192 193 192 197 196 197 198 202 200 195 197 190 189 189 184 179 166 163 160 161 158 157 155 153 135 139 102 87 82 58 57 95 117 
85 135 143 136 148 152 162 169 179 174 181 183 185 187 185 188 178 174 172 170 162 160 165 163 170 181 179 178 180 176 158 158 163 160 157 156 156 136 120 98 96 85 56 41 108 114 
100 123 115 110 102 115 110 118 138 148 163 170 177 174 174 167 161 152 128 123 111 101 106 111 129 154 146 157 163 165 155 157 164 165 158 152 154 131 106 99 96 85 147 174 150 149 
98 99 95 82 65 82 91 94 97 116 131 147 158 157 154 144 140 132 120 113 104 93 97 99 120 135 149 159 154 155 148 151 167 166 160 153 152 117 115 77 96 143 160 113 81 94 
104 101 99 83 70 64 52 47 52 63 93 125 159 178 171 144 125 113 114 111 96 93 90 63 95 106 121 103 144 156 157 162 168 164 164 153 160 129 96 74 129 144 171 168 126 89 
99 108 99 75 57 103 55 42 44 66 71 119 186 197 194 175 152 147 147 131 101 131 149 78 59 71 107 98 121 138 163 171 175 166 163 161 161 122 99 118 154 165 169 170 131 141 
88 125 101 79 93 133 80 78 96 91 71 141 193 199 195 185 170 162 170 159 140 149 166 117 128 138 153 140 140 163 177 187 182 176 167 160 162 142 122 136 141 108 156 193 129 138 
89 124 137 113 126 132 128 127 125 108 110 158 194 198 197 179 177 183 183 166 142 139 143 148 161 171 177 179 180 190 192 187 186 170 168 159 149 138 131 152 150 158 139 168 141 170 
90 138 158 128 118 115 122 133 141 134 130 148 192 197 193 176 180 185 185 179 186 181 162 149 148 153 162 177 186 192 195 192 186 178 159 148 144 138 163 195 193 186 147 158 149 168 
96 131 166 176 166 159 158 168 162 141 137 148 190 193 185 176 175 181 178 178 186 193 193 195 190 190 193 197 197 192 190 192 182 169 156 145 142 133 165 179 155 202 146 182 164 104 
93 130 153 167 178 178 178 174 162 138 135 155 199 193 183 176 169 176 180 181 191 194 193 196 198 196 196 196 198 194 190 190 182 164 153 141 143 133 170 149 164 168 179 170 168 95 
92 120 147 163 171 176 179 177 166 134 137 162 195 197 190 181 172 169 164 176 191 193 192 195 196 201 201 197 198 195 190 185 175 156 150 141 140 134 157 177 193 179 180 172 106 99 
95 102 143 161 164 174 174 175 156 129 141 162 185 194 199 185 169 176 171 159 166 179 187 188 189 195 202 194 195 190 187 182 167 154 147 143 138 134 168 182 187 171 184 120 96 97 
96 90 140 155 163 169 169 159 117 124 134 165 178 187 186 160 157 165 162 147 165 167 161 177 182 186 189 190 183 184 180 177 160 151 144 140 135 124 187 187 178 179 155 89 97 94 
96 89 125 140 152 155 153 129 115 111 81 127 155 162 142 109 67 71 111 144 174 184 169 140 165 177 181 177 179 177 170 163 158 155 150 138 133 127 145 144 143 118 91 93 94 94 
94 95 101 120 133 142 135 105 125 125 87 69 96 98 110 110 132 135 156 166 167 180 179 167 130 166 175 167 164 165 162 161 156 151 146 139 125 133 66 90 90 95 93 96 95 93 
96 92 90 101 118 130 121 119 120 121 105 95 96 93 122 130 149 159 165 168 165 173 177 182 170 135 171 169 167 164 160 162 153 150 143 133 119 122 78 89 90 94 94 97 92 95 
94 93 87 94 103 120 117 117 110 119 124 118 130 142 144 151 160 173 175 181 175 172 165 153 155 161 155 171 168 168 158 155 153 144 142 126 110 116 82 90 94 93 94 94 94 94 
92 96 90 100 95 119 125 107 85 119 131 141 140 147 155 148 146 154 159 157 156 159 147 124 91 147 163 173 173 166 153 154 151 145 136 122 104 127 79 88 89 93 93 92 94 95 
93 90 92 86 104 112 143 132 80 57 67 84 88 85 94 101 113 108 89 108 93 96 57 118 144 144 166 175 172 160 151 161 149 140 127 109 118 126 83 86 93 90 91 92 92 96 
91 92 91 88 105 97 137 154 124 106 72 56 102 98 150 148 156 155 110 138 131 144 164 177 182 178 176 171 159 149 152 152 149 133 118 103 132 114 84 89 90 91 91 92 95 96 
93 90 86 94 81 108 114 158 156 138 120 121 121 121 138 141 142 150 182 182 178 180 184 186 187 180 188 172 155 152 150 143 138 121 96 130 131 97 86 91 90 93 92 89 90 92 
92 92 89 87 88 87 96 138 161 157 144 120 136 149 153 157 161 162 171 181 181 184 184 181 178 173 176 163 155 152 150 139 119 96 120 137 123 91 88 91 91 96 91 91 91 92 
89 89 86 86 85 85 98 102 142 157 146 137 132 142 148 148 151 159 172 176 182 179 177 171 171 173 178 161 151 149 143 122 97 106 142 139 123 86 87 89 91 92 92 94 91 89 
86 87 83 85 85 85 82 92 121 154 147 140 141 150 154 153 149 157 162 170 175 174 169 166 175 181 171 155 148 141 122 89 100 133 144 134 121 83 88 91 89 90 90 91 89 92 
87 85 82 86 85 83 88 112 93 141 146 149 143 149 163 171 180 182 183 177 180 180 175 180 179 179 158 144 136 110 77 99 123 140 146 120 119 80 87 92 92 90 91 91 91 90 
86 85 83 83 83 83 85 113 112 117 141 164 161 153 153 169 182 186 184 181 184 186 186 183 181 165 142 126 94 72 100 114 135 134 138 120 119 84 92 88 91 86 91 89 90 89 
83 84 84 82 83 81 105 120 120 104 127 152 161 148 155 171 174 181 183 192 179 187 187 172 165 141 113 82 87 104 116 129 147 126 133 122 114 84 87 87 89 91 90 89 86 89 
82 80 83 83 80 93 53 137 120 108 91 130 148 139 153 156 158 161 165 174 174 169 160 150 135 102 78 96 111 117 130 144 146 139 132 123 110 88 86 85 86 85 88 89 89 86 
82 81 78 82 116 17 64 137 122 116 102 89 116 124 128 134 138 136 141 138 136 137 131 113 80 85 112 125 124 134 144 139 146 132 133 112 103 85 85 90 87 87 86 90 85 90 
81 84 94 100 89 15 34 139 129 119 113 101 87 90 92 100 104 96 95 92 91 88 71 71 100 124 136 131 136 143 144 149 141 137 126 111 106 84 86 84 87 85 87 86 86 88 
103 92 80 104 100 25 25 137 129 119 114 103 103 93 80 68 71 66 61 52 63 70 84 105 127 133 133 131 126 148 148 147 143 135 124 109 32 102 86 86 84 83 85 81 82 83 
