P2
46 56
15
6 6 6 5 6 6 4 4 5 6 5 2 5 4 4 5 4 6 6 4 5 6 4 3 3 3 2 2 1 3 4 3 4 3 4 4 4 4 4 4 5 3 5 5 6 6
5 5 5 5 5 5 5 6 6 5 4 5 3 5 6 5 6 4 3 3 5 4 4 4 3 3 3 3 3 2 4 4 3 2 4 4 4 4 4 3 5 4 4 4 6 6
5 5 5 5 6 6 6 6 6 4 5 4 6 7 6 5 5 5 5 4 4 4 5 5 5 4 4 3 4 3 3 3 2 2 3 4 3 5 3 3 4 4 3 5 5 6
5 5 5 6 5 5 6 5 4 4 5 6 7 7 6 6 7 7 6 6 5 4 5 6 4 3 3 3 2 2 3 3 2 1 2 3 2 3 4 2 4 3 3 4 5 6
6 5 5 4 6 5 5 4 5 7 6 7 7 7 8 8 7 6 4 4 4 4 3 4 3 3 2 4 3 3 2 2 3 2 2 2 2 3 2 4 4 3 3 3 3 5
5 4 4 6 5 5 4 5 4 5 5 6 6 7 7 6 6 6 4 5 5 5 4 3 3 4 4 4 3 3 3 2 3 2 2 2 2 2 1 4 4 3 5 3 4 4
6 4 4 4 5 4 4 3 4 4 3 4 5 6 7 7 6 5 5 4 5 5 5 4 4 5 4 3 3 3 2 3 2 2 2 2 1 1 2 3 4 1 4 3 5 3
6 3 2 4 3 3 5 2 3 2 4 4 5 4 5 6 6 6 5 5 5 4 4 4 4 3 3 3 3 4 4 3 3 2 2 2 2 1 2 3 2 2 3 2 4 2
6 2 2 3 3 2 3 2 3 3 3 4 4 4 5 5 6 5 5 5 6 5 5 3 4 4 3 3 3 3 2 2 2 2 2 2 2 1 2 2 1 1 2 2 4 3
6 3 2 2 2 2 2 2 2 2 3 4 3 4 6 6 6 6 4 4 5 5 4 3 4 5 3 3 3 3 3 3 3 2 3 1 2 1 1 1 2 1 2 1 4 2
5 2 2 1 2 2 2 2 1 3 2 3 3 4 5 5 5 3 4 5 5 6 4 3 3 3 4 4 4 3 3 2 3 3 3 2 2 2 2 1 1 2 2 1 3 2
5 3 1 2 2 2 1 2 2 2 3 3 3 5 6 7 5 4 2 3 3 3 4 5 4 3 2 4 3 3 3 4 3 2 2 2 2 2 2 2 1 2 2 1 3 2
5 4 1 2 2 1 2 2 2 2 2 3 3 5 6 7 7 5 4 4 4 3 2 2 4 5 4 4 3 3 3 3 3 3 2 3 2 3 2 2 2 2 1 1 2 1
6 3 3 2 2 2 2 2 1 2 2 2 3 4 5 7 6 6 5 3 3 3 3 3 2 3 2 2 2 2 4 3 3 3 2 2 2 1 1 2 2 2 1 1 2 1
6 3 4 1 1 1 2 1 2 1 2 1 2 2 5 5 5 5 5 4 5 5 4 4 3 3 3 3 2 1 1 2 2 3 3 3 3 3 3 3 1 1 2 1 2 2
6 3 3 1 2 2 2 2 1 1 2 2 2 2 2 3 4 5 3 3 4 4 4 3 3 3 3 3 2 2 3 1 2 1 1 1 2 2 2 2 1 1 1 1 1 1
5 3 1 1 1 1 1 1 1 1 2 2 2 2 2 2 2 4 5 5 4 4 3 3 2 2 2 2 2 2 2 1 3 2 3 4 2 1 1 1 1 1 1 2 1 2
6 3 1 2 1 2 2 2 1 1 2 2 2 2 2 3 3 2 2 2 2 3 2 3 2 3 3 3 2 3 4 4 4 4 3 3 2 2 2 2 2 2 1 1 2 2
6 3 2 2 2 1 2 1 1 2 2 3 3 3 3 3 3 3 3 2 2 2 2 3 3 3 3 4 4 5 4 6 5 6 4 3 3 3 3 3 3 2 1 2 3 3
5 4 1 2 2 1 2 2 2 3 3 4 5 5 5 4 4 4 3 3 2 2 2 3 3 4 4 4 4 4 5 4 6 6 5 5 5 5 3 4 3 2 2 2 3 3
5 5 1 2 1 2 5 5 3 4 6 6 6 6 6 5 4 3 2 3 3 3 3 4 3 4 4 4 5 5 6 6 6 6 6 6 7 7 5 4 3 3 2 2 2 2
6 9 5 2 1 4 8 7 5 8 9 9 8 8 8 8 7 6 5 4 4 4 4 5 5 5 5 5 5 6 7 7 7 7 6 7 6 7 6 5 4 2 2 2 2 2
5 9 6 2 1 7 8 8 8 8 9 9 9 9 9 9 9 9 7 6 6 5 6 6 6 6 6 6 7 7 7 7 7 7 7 7 7 7 6 5 4 2 2 2 1 2
7 3 8 3 4 8 8 8 7 7 7 6 6 6 8 7 8 8 9 8 8 7 7 6 6 6 7 7 7 7 7 7 7 7 7 7 7 7 6 6 5 3 1 2 2 4
6 9 7 3 7 8 8 8 6 6 6 6 5 5 5 4 5 6 7 7 8 8 8 7 7 7 7 7 7 7 7 7 7 7 7 8 7 7 6 6 6 3 1 2 2 6
8 7 6 4 8 8 8 7 6 5 5 5 5 4 4 4 4 3 3 5 6 7 7 8 8 8 7 7 6 7 6 6 6 6 7 7 7 6 6 6 6 5 1 2 4 6
8 5 5 6 8 8 8 7 6 4 3 1 4 2 1 1 3 3 3 3 4 5 6 7 7 6 6 5 5 5 4 4 4 4 4 5 5 5 5 6 6 6 2 1 6 6
8 7 8 7 8 9 9 9 9 8 7 6 6 4 2 2 5 3 2 3 4 4 5 6 6 5 5 4 3 3 2 2 3 3 3 4 4 4 4 5 6 6 2 2 5 5
9 8 9 7 8 8 9 9 10 9 9 7 8 7 6 6 5 4 4 4 3 4 8 9 8 6 4 3 2 2 3 1 1 1 3 4 5 5 5 5 6 6 2 5 5 5
9 10 8 7 8 9 9 10 10 10 9 8 7 6 5 5 5 5 5 4 5 7 10 10 9 7 4 3 3 3 3 3 1 2 4 2 2 4 5 6 5 6 2 6 4 5
9 10 10 6 8 9 9 10 10 10 10 10 10 9 8 8 8 9 9 9 8 8 10 10 10 7 5 5 5 4 5 5 5 5 5 5 4 3 5 6 6 6 3 5 5 5
8 10 11 6 7 8 8 9 9 10 11 11 10 10 10 10 10 10 9 9 8 8 10 10 9 6 6 6 6 5 5 4 5 5 6 6 6 6 6 6 6 5 5 6 4 4
6 9 10 6 7 7 8 8 9 9 10 10 10 11 10 11 10 10 9 8 9 9 10 10 9 7 6 6 7 7 7 6 6 5 5 6 6 7 7 7 6 5 6 6 4 4
5 7 9 6 7 7 7 8 8 9 10 10 10 10 10 10 10 9 8 9 8 9 10 10 9 7 7 6 8 8 8 8 7 8 8 7 7 7 7 6 6 6 6 4 4 4
5 5 5 6 7 7 7 8 8 8 9 9 10 10 9 9 9 8 9 9 9 9 10 10 9 8 7 6 7 8 9 9 9 8 8 8 8 7 6 6 5 7 6 3 4 4
5 5 5 6 7 7 7 7 8 8 8 9 9 9 9 9 7 8 9 9 9 10 10 10 9 8 8 8 7 8 8 9 9 9 8 8 7 7 6 6 6 7 5 3 3 4
5 5 5 7 6 7 7 7 7 8 8 8 9 9 8 8 8 7 7 8 7 8 9 8 9 8 8 8 6 8 9 9 9 9 8 8 7 6 6 6 6 6 3 3 3 3
5 5 5 7 6 7 7 7 7 7 7 8 8 9 8 9 10 5 2 3 5 6 6 6 6 5 6 6 6 8 8 8 8 8 7 7 7 6 5 5 6 4 3 3 3 3
5 5 5 7 7 7 7 6 8 7 8 8 9 9 9 9 9 9 5 3 3 3 4 4 3 2 2 5 6 6 8 8 8 7 7 6 6 6 5 5 3 3 3 3 3 3
5 5 4 6 7 7 7 7 8 8 8 8 9 9 9 9 9 9 9 8 6 3 4 4 4 4 4 6 6 6 7 7 7 6 6 6 6 5 6 2 3 3 3 3 3 3
5 5 4 6 7 7 7 8 8 8 8 8 8 8 9 9 9 9 9 8 8 5 5 5 6 6 6 6 7 6 7 7 6 6 6 6 6 5 6 3 3 3 3 3 3 3
5 5 5 5 6 7 7 7 8 8 8 8 8 7 8 8 8 9 9 8 8 7 7 6 6 6 6 6 6 6 6 7 7 6 6 5 5 6 4 3 3 3 3 3 3 3
5 5 5 5 6 6 7 7 8 8 7 8 7 7 7 7 8 8 9 8 9 8 9 8 7 6 6 6 6 6 6 6 6 6 6 6 5 6 2 3 3 3 3 3 3 3
5 5 5 5 6 6 7 7 7 8 7 7 5 4 3 3 3 3 3 3 3 5 5 5 5 6 6 5 5 5 6 6 6 6 6 6 5 5 2 3 3 3 3 3 3 3
5 5 5 5 5 6 7 7 7 7 7 6 7 8 9 7 7 7 7 4 3 3 2 2 2 3 3 4 4 5 6 6 6 6 6 6 5 3 3 3 3 3 3 2 3 3
5 5 5 5 6 6 6 7 6 7 7 7 8 7 8 7 8 7 8 8 8 8 8 7 5 4 5 5 5 4 5 6 6 6 5 6 5 3 3 3 3 3 3 3 3 3
5 5 5 9 12 6 6 6 6 7 7 7 8 8 7 7 7 6 6 6 6 7 6 6 6 6 6 6 6 5 6 6 6 6 5 5 3 3 3 3 3 2 3 3 3 3
5 5 12 10 13 6 6 6 6 7 7 7 7 7 7 7 6 6 5 5 5 4 5 5 5 6 6 6 6 6 6 6 5 5 5 8 2 3 3 3 2 3 3 3 3 3
5 12 10 12 9 6 7 5 6 7 7 7 7 8 7 7 6 6 6 5 5 5 5 5 5 5 5 6 6 5 6 5 5 5 5 5 10 2 3 3 3 3 3 3 3 3
13 9 13 10 6 7 7 6 5 6 7 7 7 8 8 8 8 9 9 9 9 8 6 5 5 5 6 6 5 6 6 5 5 5 4 7 6 10 2 3 2 3 3 3 2 3
12 11 13 6 5 7 7 7 6 4 6 7 7 8 8 8 9 9 9 9 8 8 8 8 8 5 6 6 5 5 5 5 5 6 4 10 4 8 6 3 3 2 3 3 3 3
10 13 13 4 6 7 7 7 7 5 4 5 6 7 7 8 8 8 8 8 7 7 7 7 7 7 6 5 5 5 5 5 6 5 4 8 4 8 10 2 3 3 3 3 3 3
10 13 13 0 8 7 8 7 7 6 4 4 5 5 6 6 7 7 6 7 7 6 6 6 6 6 6 5 5 5 5 5 5 5 2 7 8 6 10 1 2 3 3 3 2 3
11 13 14 4 8 7 7 8 6 7 5 4 4 4 5 5 5 5 5 5 5 5 5 5 5 5 5 4 5 5 5 5 5 6 0 7 9 4 10 2 3 3 3 3 3 3
12 12 14 4 8 7 7 7 7 7 6 5 4 5 4 4 5 5 5 5 5 5 5 5 5 4 5 5 5 5 5 5 5 6 1 8 8 6 10 8 8 6 6 5 4 3
12 10 14 4 8 8 7 7 7 7 6 6 5 4 4 4 4 4 4 4 4 4 4 4 4 5 5 5 5 5 5 5 5 5 4 9 4 8 10 8 8 8 7 7 6 7
