P2
46 56
15
3 3 3 2 4 3 3 4 4 3 2 3 3 4 5 5 4 4 3 2 2 2 2 2 2 2 2 2 2 1 2 2 3 2 3 3 2 3 3 3 4 6 6 6 6 6
2 4 2 3 2 3 4 5 4 4 4 4 3 4 4 4 5 4 4 4 3 3 3 2 2 2 2 1 1 1 2 2 2 2 2 3 2 3 2 4 2 4 6 6 6 6
4 4 3 3 3 5 5 4 6 6 6 5 4 4 3 3 3 4 5 4 3 3 3 2 2 2 2 2 2 2 2 2 1 1 1 2 2 3 2 2 3 3 4 6 6 6
5 3 2 2 5 4 5 5 5 5 6 6 5 5 5 4 5 5 5 5 5 5 4 3 3 3 2 2 2 2 2 2 1 1 2 2 2 3 2 2 3 3 4 6 6 6
4 2 3 5 5 4 5 4 5 5 5 5 4 5 5 5 5 4 3 4 4 3 3 3 2 2 2 2 2 2 1 1 1 1 2 1 1 2 2 2 3 3 4 4 6 6
2 4 4 4 4 4 4 5 6 5 5 5 5 5 5 5 4 4 4 4 4 4 4 4 4 3 2 2 2 2 1 2 2 2 1 1 1 2 1 2 2 3 3 3 6 6
3 4 4 3 2 2 3 3 4 5 4 4 5 5 5 5 5 4 4 4 4 4 3 3 3 2 2 2 2 2 2 3 2 2 2 1 1 1 1 1 2 3 3 3 6 6
3 3 2 2 2 3 2 2 3 3 3 4 5 5 5 4 5 4 4 4 5 4 4 4 3 3 2 3 2 2 1 1 1 1 1 2 1 1 2 1 1 2 3 3 5 6
3 2 2 2 2 3 3 3 3 3 4 4 3 4 5 4 5 5 5 4 4 4 4 5 4 3 3 2 2 3 3 3 2 1 1 1 2 2 1 1 2 2 3 3 4 6
2 2 2 2 3 3 2 2 3 3 3 3 3 3 2 2 3 2 3 4 4 3 3 4 4 4 3 3 3 2 2 2 2 2 2 1 1 1 1 1 1 2 3 3 3 6
2 2 2 1 2 2 2 2 3 5 5 5 5 4 4 3 3 3 3 2 2 2 2 2 3 4 3 2 2 2 3 2 2 1 2 2 2 1 1 1 2 2 3 3 3 6
1 2 1 2 2 2 2 2 3 5 5 5 5 4 4 5 4 5 4 4 3 3 2 2 2 2 2 3 3 3 3 3 2 3 3 3 3 2 2 2 2 3 4 3 3 6
1 2 1 1 2 2 2 3 2 3 4 4 4 5 5 5 5 5 5 5 3 2 2 2 3 3 3 4 4 4 4 4 4 4 5 5 4 3 2 2 3 3 3 4 3 6
1 1 2 1 1 1 2 2 2 2 2 3 4 4 4 4 5 5 4 3 3 3 3 4 4 5 6 6 7 7 6 6 6 7 6 6 5 4 2 3 3 4 2 3 3 6
1 1 2 1 2 1 1 1 2 2 2 2 3 3 4 4 4 4 4 3 5 4 5 5 6 5 6 7 8 8 7 8 8 8 7 7 5 3 3 3 3 3 2 2 4 6
1 1 1 1 1 1 1 2 1 2 2 2 2 2 2 2 2 2 3 3 4 5 5 5 6 7 7 8 9 9 8 9 8 8 8 7 6 4 2 2 2 2 2 2 5 6
1 1 1 1 1 1 2 2 1 2 3 3 3 3 4 4 3 3 3 3 4 4 6 8 8 8 8 9 9 9 9 9 9 8 8 7 6 4 2 1 2 2 2 2 6 6
2 2 1 1 1 1 1 2 2 3 3 3 3 3 3 4 4 5 5 5 6 8 8 8 8 8 9 9 9 9 8 8 9 8 8 7 7 6 4 1 2 1 2 2 6 6
1 2 1 1 1 2 2 2 4 4 5 4 3 3 3 3 4 5 6 7 8 9 9 9 9 9 9 10 10 9 9 9 9 9 8 7 7 6 6 3 1 2 1 2 6 6
1 1 2 1 1 1 2 4 5 5 5 5 5 4 4 5 5 6 7 9 9 9 9 9 9 9 9 10 10 10 9 9 9 8 8 8 6 7 6 6 2 1 2 1 6 6
1 1 1 2 1 2 3 5 6 7 7 7 7 8 8 8 9 9 9 9 9 9 9 9 9 9 10 10 10 9 9 9 9 8 8 8 7 6 6 6 5 1 2 1 7 6
1 1 1 2 2 3 3 5 6 7 7 8 9 9 9 9 9 9 9 9 10 10 9 9 9 9 9 9 9 9 8 8 7 8 7 6 6 7 6 6 6 3 1 3 8 6
1 1 1 1 3 3 4 6 7 8 9 9 9 9 9 9 10 10 10 10 10 10 10 9 9 9 8 8 7 7 5 5 5 5 5 5 6 5 6 6 6 4 2 5 7 6
2 1 2 2 4 3 6 8 8 8 8 8 8 8 8 9 9 9 9 9 9 9 9 9 8 7 7 5 4 4 4 5 5 6 6 7 6 6 6 6 6 5 3 6 6 5
4 2 1 2 5 4 6 6 7 6 5 5 5 5 5 5 5 6 7 7 8 8 8 8 7 6 5 4 4 4 2 6 2 3 3 4 6 7 7 7 6 6 4 6 7 5
6 4 1 2 6 6 5 4 5 5 5 5 5 4 4 3 4 4 5 6 6 7 7 7 6 5 5 3 6 7 4 2 2 6 5 5 6 6 7 7 7 5 7 7 8 5
3 6 2 2 6 6 4 4 5 5 5 4 2 2 1 6 3 2 3 4 5 8 9 8 8 6 6 6 6 6 7 7 6 8 7 7 7 8 7 8 7 5 7 6 8 5
7 2 4 3 6 6 6 5 6 3 2 6 4 3 4 7 6 6 6 4 6 9 10 10 8 7 7 7 7 6 7 7 7 7 7 7 8 8 8 8 8 5 8 6 7 5
7 6 4 3 6 6 7 6 6 5 6 7 6 6 7 7 6 6 6 5 6 9 9 10 8 7 8 8 9 8 8 8 8 9 9 9 9 8 9 7 7 6 7 7 7 5
8 7 3 2 6 7 8 8 8 8 6 6 6 6 6 7 7 7 8 7 7 8 10 9 9 7 8 8 9 9 10 10 10 10 10 9 9 9 8 7 7 6 6 9 7 4
6 6 5 3 5 7 8 9 9 9 9 9 9 9 9 9 9 9 8 8 7 8 9 10 9 8 8 8 8 9 9 10 10 10 10 10 9 9 9 8 7 6 6 8 7 4
3 6 6 5 5 7 8 9 9 9 9 10 10 10 10 10 10 9 8 8 7 8 9 10 9 8 8 9 8 9 9 9 10 10 10 10 9 9 9 7 7 6 7 7 5 4
2 7 6 6 4 7 7 8 9 9 9 10 10 10 11 11 9 9 7 8 6 8 9 9 9 9 8 9 9 7 8 9 9 10 9 9 9 8 8 7 7 6 7 6 4 5
3 5 6 8 4 6 7 8 8 8 9 10 11 10 10 10 9 7 8 8 7 7 9 10 9 9 9 9 9 8 8 7 8 9 9 9 8 8 8 7 7 6 5 4 4 5
4 3 6 7 7 5 7 7 8 8 9 9 10 9 9 9 8 6 8 8 7 8 9 9 9 9 7 7 7 6 8 8 6 7 8 7 7 7 7 6 6 6 4 4 4 5
3 3 4 7 7 5 6 7 8 8 9 8 9 9 9 8 8 6 6 6 6 6 7 7 7 6 4 3 4 7 7 8 8 6 7 7 7 7 7 7 6 6 4 4 5 5
4 4 3 5 7 5 6 6 7 7 8 8 8 8 8 8 8 7 4 3 2 2 3 4 4 5 7 7 7 7 8 7 7 7 7 7 7 7 7 7 6 7 4 5 5 5
4 4 3 3 4 4 5 6 6 7 7 7 7 8 8 8 9 9 8 6 6 6 6 6 7 7 8 7 7 7 7 7 7 8 8 8 8 8 7 7 6 6 4 4 5 4
3 4 4 4 4 4 5 5 6 6 6 7 7 8 9 8 9 8 8 8 8 7 8 8 8 7 8 8 7 7 7 7 7 7 8 8 9 8 7 7 6 5 4 5 4 4
4 3 4 4 4 4 4 6 6 6 7 7 7 8 8 7 8 8 8 8 9 8 9 9 8 8 9 8 7 7 7 6 6 7 8 8 9 7 7 7 6 5 4 4 5 4
4 4 3 3 4 3 4 6 6 6 7 8 8 7 8 7 7 7 7 7 8 8 7 7 7 5 5 4 5 5 4 3 2 6 8 8 9 7 7 7 6 4 4 5 4 5
3 4 3 4 4 3 3 5 6 6 7 8 8 7 8 7 7 7 6 5 4 6 6 8 5 10 10 8 9 8 5 4 6 7 8 8 9 7 7 6 6 4 4 5 5 4
3 4 3 4 4 4 4 4 6 6 7 8 9 7 7 7 6 1 1 6 4 9 7 10 5 10 8 6 6 5 5 7 7 9 8 8 8 7 7 6 5 4 4 4 5 4
4 3 4 4 4 4 4 4 5 6 6 7 8 8 8 8 7 7 5 5 6 5 6 6 6 7 7 7 7 7 7 7 8 9 8 9 7 6 7 6 4 5 4 5 5 4
4 3 4 4 3 4 4 4 5 6 6 6 7 8 8 8 8 8 7 7 7 7 9 9 9 9 9 8 8 7 7 7 8 8 7 8 7 7 7 5 4 5 4 5 5 4
3 4 3 4 4 4 4 4 4 5 6 6 6 8 8 8 8 7 7 7 7 7 8 8 8 8 8 8 8 7 7 7 8 7 8 8 6 7 6 4 4 4 4 4 4 4
3 3 3 4 4 4 3 4 7 4 5 6 6 7 8 8 8 7 7 7 7 7 7 7 7 7 7 7 7 7 7 8 8 8 8 7 6 6 6 4 4 5 4 5 4 4
4 4 4 4 4 3 7 8 8 4 5 5 6 6 7 8 7 8 7 6 7 7 7 7 7 7 7 7 8 7 8 8 9 8 7 7 6 5 6 9 9 4 4 4 4 4
3 3 3 4 3 7 9 9 9 4 4 4 5 6 6 7 7 7 8 7 7 7 7 8 9 9 9 9 9 9 9 7 8 7 6 6 5 6 7 9 8 11 3 4 4 4
4 3 4 3 4 12 6 11 5 5 5 4 5 5 6 6 7 7 8 8 8 9 8 9 9 9 9 9 8 8 9 8 8 6 6 5 6 6 6 11 7 10 8 4 5 4
4 3 4 1 12 9 11 10 2 6 5 5 4 4 5 5 6 7 8 8 8 8 8 9 9 9 9 9 8 8 8 7 7 5 5 6 6 6 3 9 12 7 11 3 4 4
4 4 4 3 13 7 13 9 1 6 5 5 4 4 4 5 5 5 6 7 8 7 8 8 8 8 8 8 8 7 7 6 5 5 6 6 7 6 2 7 12 5 11 9 4 4
3 4 3 8 13 9 13 9 5 6 6 5 5 4 4 4 4 5 5 5 6 6 7 7 7 7 7 7 7 7 5 5 4 7 7 7 6 7 2 3 11 7 10 11 3 4
3 4 2 11 12 10 13 10 6 7 6 6 6 5 4 4 4 4 5 5 5 5 5 6 6 6 6 6 6 5 5 5 7 7 7 7 6 6 5 3 11 10 9 12 3 4
8 7 8 10 13 11 13 13 6 7 7 7 7 5 5 4 4 4 4 4 5 5 5 5 5 5 5 5 5 5 6 7 7 7 7 7 7 7 4 5 12 9 10 11 7 4
10 10 10 10 12 12 11 13 5 8 7 7 7 7 6 5 4 4 4 4 4 4 4 5 4 4 4 4 5 5 7 7 7 7 8 7 7 6 2 10 12 6 11 10 9 10
