P1
20 30
0000000000000000000000000000000111000000000000000111111100000000000111
1111111000000001111110001111000000111110000011110000011110000000111000
0011100000000011100000111000000001111000011100000000011110000111000000
0011111000011110000011111110000011111111111011100000011111111100111000
0000011111000011100000000000000000111000000000000000001110000000000000
0000111000000000000000001110000000000000000011100000000000000000111000
0000000000000011100000000000000000111000000000000000001110000000000000
0000111000000000000000001110000000000000000011100000000000000000010000
0000000000000000000000000000000000000000