P1
20 30
0000000000000000000000000000000000000000000000001111100000000000001111
1111000000000001111111111000000000111100000111000000011100000001110000
0011100000000111000000111000000001110000011100000000111100000111000000
0011110000011110000001111100000011100011111111000000011111111101110000
0000111111100111000000000111000001110000000000000000011100000000000000
0001110000000000000000011100000000000000001110000000000000000011100000
0000000000001110000000000000000011100000000000000000111000000000000000
0011100000000000000000111000000000000000001110000000000000000011100000
0000000000000100000000000000000000000000