P1
20 30
0000000000000000000000000000001111000000000000000111111000000000000111
1111111000000000111100011111000000011110000011110000001110000000111000
0001110000000011100000011100000001111000000111000000111110000001111001
1111111000000011111111101110000000011111110011100000000001100000111000
0000000000000011100000000000000000111000000000000000011100000000000000
0001110000000000000000011100000000000000000111000000000000000001110000
0000000000000111000000000000000001110000000000000000011100000000000000
0001110000000000000000011100000000000000000111000000000000000001110000
0000000000000010000000000000000000000000