P1
20 30
0000000000000000000000000000000000000000000000000000000000000000000001
1110000000000000011111110000000000001111111110000000000111100011110000
0000111000000111000000011100000001110000000111000000111100000001110000
0011110000000111000001111100000001111111111111000000001111111101110000
0000011111100111000000000000000001110000000000000000011100000000000000
0001110000000000000000011100000000000000000111000000000000000001110000
0000000000000111000000000000000001110000000000000000011100000000000000
0001110000000000000000011100000000000000000111000000000000000000100000
0000000000000000000000000000000000000000