P1
20 30
0000000000000000000000000000000000000000000000000111100000000000001111
1111100000000001111111111100000000111110000111000000011100000001111000
0001110000000111100000111000000001111000001110000000011110000011100000
0001110000001110000000111100000011100000011111000000011111111111110000
0000111111110111000000000111111001110000000000000000001110000000000000
0001110000000000000000011100000000000000000111000000000000000001110000
0000000000000111000000000000000001110000000000000000011100000000000000
0001110000000000000000011100000000000000000111000000000000000000111000
0000000000000001000000000000000000000000