P1
20 30
0000000000000000000000000000000000000000000000000000000000000000000111
1110000000000000111111110000000000011111111110000000001110000111100000
0001110000011110000000011100000111100000000111000011111000000001110001
1111100000000111111110111000000000111111001110000000000111100011100000
0000000000001110000000000000000011100000000000000000111000000000000000
0011100000000000000000111000000000000000001110000000000000000011100000
0000000000001110000000000000000011100000000000000000111000000000000000
0011100000000000000000111000000000000000001110000000000000000011100000
0000000000000100000000000000000000000000