P2
46 56
15
8 8 8 8 8 8 8 8 8 5 7 6 2 2 2 2 1 1 1 1 2 2 1 2 1 1 2 2 3 6 7 7 7 8 8 8 8 8 8 8 8 8 8 8 8 8
8 8 8 7 7 8 8 8 6 4 8 2 2 1 1 1 1 1 1 1 1 1 1 1 1 1 1 1 1 1 1 4 6 7 8 8 8 8 8 8 8 8 8 8 8 8
8 8 8 7 7 6 7 8 5 2 2 2 2 1 1 1 1 1 1 1 1 1 1 1 1 1 1 1 2 1 2 1 2 1 5 7 8 8 8 8 8 8 8 8 8 8
8 8 8 7 6 5 4 4 2 1 2 1 2 1 3 1 1 1 1 2 1 1 1 1 1 1 2 1 2 1 1 1 1 2 2 2 6 8 8 8 8 8 7 8 8 8
8 8 8 7 6 5 1 1 2 1 2 1 1 2 2 1 1 1 1 2 1 1 2 1 2 2 1 2 1 2 1 1 2 1 2 2 2 3 8 8 8 8 8 8 8 8
8 8 7 7 5 1 1 1 1 2 2 2 1 2 2 2 1 2 2 3 1 2 2 3 3 2 4 2 2 1 3 2 2 2 2 3 2 2 3 8 7 7 7 8 8 8
8 7 6 4 2 2 1 2 1 1 1 2 1 2 2 2 2 2 2 3 3 2 2 2 3 3 3 3 3 2 2 2 2 2 4 3 2 4 3 3 7 7 7 8 7 8
8 6 4 2 2 1 2 1 1 1 2 2 2 2 2 1 3 3 2 3 4 2 3 3 3 3 3 3 3 3 3 4 3 2 3 3 3 3 3 2 2 8 7 8 7 8
7 7 2 1 2 1 2 2 2 1 2 2 2 2 3 1 3 3 2 3 3 2 3 3 3 2 3 3 2 4 3 3 3 2 4 3 4 2 3 2 3 2 7 7 7 7
7 3 1 1 2 1 2 2 2 1 2 2 2 2 3 2 3 3 3 2 3 2 3 3 3 3 2 4 4 4 3 4 3 3 2 4 3 4 2 3 3 2 7 7 8 7
6 2 2 2 2 2 2 3 2 2 3 3 3 3 3 2 3 3 2 3 3 3 2 3 2 4 2 4 3 3 4 3 2 3 3 4 2 3 3 3 4 3 4 7 7 7
5 1 2 2 2 2 3 2 3 3 3 3 2 3 3 2 3 3 2 3 3 2 3 4 3 3 4 4 2 3 2 3 2 2 1 2 2 3 2 3 2 4 2 7 7 7
3 1 1 3 3 3 3 2 3 3 3 3 3 3 3 2 3 2 3 2 2 3 3 3 2 3 3 2 1 3 2 3 2 1 2 2 2 3 2 3 2 3 3 4 6 7
3 2 1 2 3 2 3 2 3 3 3 3 3 3 3 3 2 2 2 2 2 2 2 2 2 3 3 2 2 3 2 2 2 3 3 2 2 2 2 3 3 3 4 3 6 7
2 2 2 3 2 3 3 4 4 4 4 5 3 4 4 4 3 3 3 4 4 4 3 5 4 4 4 3 3 5 5 5 5 5 5 5 5 3 3 3 3 4 3 1 6 6
2 3 2 3 3 2 4 4 5 6 5 6 4 4 5 5 6 6 6 7 9 9 9 10 9 8 8 7 7 7 9 9 9 10 8 8 8 5 4 4 3 3 2 2 5 6
3 3 3 3 2 3 4 5 5 6 6 5 5 6 6 6 6 8 9 12 10 10 10 10 10 10 10 10 11 10 10 10 10 11 10 10 7 6 5 4 4 4 3 2 6 7
3 2 3 2 3 4 5 4 5 5 6 7 7 7 6 7 7 8 9 11 11 10 10 11 10 11 10 10 11 10 11 11 11 11 11 11 10 7 5 4 4 4 3 2 4 6
2 3 3 3 3 4 5 4 5 5 6 8 7 7 8 8 7 9 10 11 12 11 11 10 10 11 11 11 11 11 11 12 12 12 12 11 10 9 7 5 3 3 3 2 4 6
2 3 3 3 3 3 5 5 5 5 6 7 8 8 8 9 9 10 11 12 12 12 12 12 11 12 12 12 11 12 12 12 12 12 12 12 11 10 8 7 4 3 2 2 2 5
2 3 2 3 2 3 4 4 5 6 7 6 7 9 9 10 10 11 11 12 12 12 12 12 12 12 12 12 12 12 12 12 12 12 12 12 11 10 9 8 6 2 2 2 3 4
2 2 2 2 2 3 3 5 4 5 6 6 8 10 10 11 11 11 11 12 12 12 12 12 12 12 12 12 12 12 12 12 12 12 12 11 11 10 9 8 7 3 2 1 2 4
2 3 2 2 2 2 3 4 3 4 6 7 9 10 10 11 11 11 10 12 12 12 12 12 12 12 12 12 12 12 12 12 12 11 12 11 11 10 9 8 7 4 1 1 1 5
2 2 2 2 2 1 2 3 2 4 6 7 10 11 10 10 11 12 11 12 12 12 12 12 12 12 12 12 12 12 12 12 11 11 11 11 10 10 9 8 7 4 1 1 3 4
2 2 2 3 2 1 2 2 2 3 6 7 9 10 11 11 11 11 12 12 12 12 12 12 12 12 12 12 12 12 12 11 11 11 11 11 10 10 9 9 7 3 1 1 3 3
2 3 1 2 2 1 2 2 2 3 5 8 9 10 11 11 11 11 12 12 12 12 12 12 12 12 12 12 12 12 12 11 11 11 11 11 11 10 9 9 7 2 1 1 2 3
2 2 2 1 1 2 2 2 2 3 6 8 8 10 11 11 12 12 12 12 12 12 12 12 12 12 12 12 12 12 12 12 12 12 12 12 11 10 10 9 7 2 1 0 3 4
2 2 2 1 1 1 2 2 2 4 6 8 9 9 11 11 11 12 12 12 12 12 12 12 12 12 12 12 12 12 12 12 12 12 12 11 11 10 9 8 7 1 1 1 5 6
2 2 3 1 1 1 2 2 3 6 8 9 9 11 10 8 8 10 10 11 11 11 12 12 12 12 12 12 12 12 12 11 11 11 11 9 6 6 4 3 5 1 1 2 5 6
3 2 2 1 1 1 2 3 5 8 9 9 9 8 5 4 5 4 4 5 5 5 7 8 10 11 11 12 12 12 11 10 9 6 4 3 3 2 2 4 2 2 1 1 6 6
2 3 2 2 1 1 2 4 7 9 10 9 6 5 7 7 6 5 5 4 4 3 4 5 6 9 11 11 12 11 10 10 5 4 3 4 6 7 8 8 7 1 1 2 5 6
2 2 3 2 2 2 2 5 7 10 10 6 7 9 10 9 8 8 7 7 7 7 7 7 7 9 11 11 12 11 10 7 5 6 6 6 6 6 5 6 6 2 1 1 4 6
0 3 3 3 2 2 3 6 8 10 9 7 8 7 7 5 5 4 3 4 4 6 6 8 8 7 11 12 12 12 9 5 6 4 4 1 3 2 5 5 6 4 1 1 5 5
1 3 6 4 2 2 3 6 9 10 10 9 8 7 6 4 4 3 3 3 5 10 6 7 9 8 10 12 12 12 7 8 8 2 3 2 8 6 2 6 7 6 1 1 5 6
1 2 6 3 2 2 3 6 9 10 11 11 11 9 8 3 7 10 4 3 11 11 8 8 11 9 10 12 13 13 8 10 8 8 6 6 9 6 3 7 9 7 1 0 5 6
1 0 7 2 3 3 3 6 9 10 11 12 12 11 11 8 8 7 8 8 8 9 9 10 11 10 11 12 12 12 9 10 9 9 8 7 7 7 6 9 9 8 1 0 5 5
1 0 5 3 3 4 3 5 9 10 11 12 12 12 11 11 9 9 9 9 9 9 11 12 12 11 12 12 12 12 11 10 10 8 9 9 8 8 8 9 9 7 1 1 4 5
1 1 3 3 6 4 3 4 8 10 11 12 12 12 12 12 11 11 10 10 10 11 12 12 12 11 12 11 12 12 12 9 11 11 10 9 9 10 10 10 9 6 1 1 1 5
1 1 1 2 7 3 4 4 7 9 10 11 12 12 12 12 12 12 12 12 12 12 12 12 12 12 11 11 12 12 12 9 11 11 12 11 11 11 11 10 9 3 1 1 1 3
1 1 1 4 6 5 5 3 7 8 10 11 11 12 12 12 12 12 12 12 12 12 12 12 12 12 11 11 12 13 12 9 10 11 12 11 12 11 11 10 9 2 1 1 0 5
1 1 1 1 7 5 6 4 6 7 9 10 11 12 12 12 12 12 12 12 12 12 12 12 11 11 11 12 12 13 12 9 9 11 11 12 12 11 11 10 8 2 1 1 1 4
1 1 2 1 2 5 7 4 6 7 8 9 11 12 12 12 12 12 12 12 12 12 11 10 10 11 10 12 12 12 12 10 9 11 11 12 11 11 10 9 7 1 2 1 1 2
1 1 2 1 1 1 3 4 7 7 8 8 10 11 12 12 12 12 12 12 12 11 11 9 11 12 11 11 12 12 12 11 9 10 11 11 11 10 10 9 4 2 2 1 1 1
1 2 1 1 1 1 1 2 7 7 8 8 9 10 11 11 12 12 12 11 11 10 11 11 9 9 11 11 12 12 12 11 8 10 10 10 10 10 9 8 1 2 1 2 1 0
1 2 1 1 1 1 1 0 6 8 8 8 8 10 10 11 11 11 11 10 10 10 11 11 9 6 5 7 10 11 10 7 10 9 10 9 10 9 8 7 1 2 1 1 1 1
1 1 1 1 1 1 1 0 6 8 8 8 8 9 9 10 10 10 10 9 10 11 11 12 11 9 7 6 5 5 5 7 10 9 9 9 9 8 7 4 2 2 1 1 2 1
1 1 0 1 1 2 1 0 4 7 8 8 8 8 8 9 9 9 9 9 10 11 11 12 12 11 9 6 6 6 7 9 10 9 8 8 8 8 6 1 1 2 1 1 2 1
1 1 2 1 2 2 0 0 4 7 8 8 8 8 8 9 9 9 9 9 9 10 11 11 11 11 11 9 8 8 9 10 9 7 7 8 8 7 7 1 1 2 2 1 1 1
1 2 1 1 2 2 1 0 5 5 7 8 8 8 8 9 9 9 7 6 6 8 10 11 11 11 11 11 11 10 10 9 8 5 6 9 8 6 4 1 1 2 1 1 1 1
1 2 1 2 2 2 1 0 5 5 6 7 8 8 8 8 9 9 8 10 11 9 6 5 5 5 6 8 7 6 4 5 8 9 8 8 7 6 0 1 2 2 1 1 1 1
2 1 1 2 2 1 1 0 5 5 5 6 7 8 8 8 8 9 9 10 11 11 11 9 10 9 7 6 6 8 7 8 8 10 8 7 6 2 1 2 1 2 1 1 1 0
2 1 2 2 2 2 1 0 5 6 6 5 6 7 7 8 8 9 10 10 10 10 10 10 10 9 9 9 8 7 7 8 9 8 8 6 3 1 2 2 2 1 1 1 1 2
1 1 2 2 2 1 1 0 5 6 6 5 5 6 7 7 8 9 10 10 10 10 9 9 9 8 8 8 7 8 7 8 9 9 7 4 1 2 2 2 1 2 1 1 1 2
1 1 2 2 2 1 1 0 4 6 6 6 5 5 5 7 8 9 10 10 11 11 10 9 8 7 7 7 7 7 8 9 9 8 4 0 1 1 2 1 1 1 1 1 1 0
1 1 1 1 1 1 1 2 4 6 6 6 6 6 5 5 7 8 9 10 11 11 11 11 11 10 10 10 10 10 10 10 9 5 0 1 1 1 1 1 2 1 1 1 1 2
1 1 1 1 1 2 1 4 4 6 6 7 6 6 5 5 5 6 7 9 10 11 11 11 12 12 11 11 11 10 10 9 7 0 1 1 1 1 1 1 1 1 1 2 2 4
