P1
20 30
0000000000000000000000000000000000000000000000001111110000000000000111
1111100000000000111111111100000000011100000011100000001111000000111000
0000111000000011100000011110000000111000000011100000011100000000111000
0001110000000001111000111000000000001111011110000000000001111111000000
0000000011111000000000000000111110000000000000011111110000000000001111
0011100000000000111000011100000000011100000111000000001110000000111000
0000111000000011100000001110000000011100000011100000001110000000011111
1111111000000000111111111100000000000111111110000000000000000000000000
0000000000000000000000000000000000000000