P1
20 30
0000000000000000000000000000000000000000000000001111110000000000000111
1111100000000000111111111100000000011100000011100000001110000000111000
0001111000000011100000011100000000111000000111100000001110000000111000
0001110000000011100000011100000000011100001110000000000011100111000000
0000000111111000000000000000111100000000000000001111100000000000001111
0111000000000001111000111000000000011100000111000000001110000000111000
0001110000000011100000011100000000111000000111000000001110000001111000
0000111000000011111111111100000000011111111110000000000011111111000000
0000000000000000000000000000000000000000