P1
20 30
0000000000000000000000000000000000000000000000000000000000000000000001
1110000000000001111111110000000000111111111110000000001111100001110000
0000111000000011100000001110000000111000000011100000011110000000111100
0001110000000001111000111000000000001111001110000000000001111111000000
0000000001111000000000000000011110000000000000001111110000000000000111
0011100000000000011100011100000000001110000111000000000111000000111000
0000011100000011100000001111000000111000000011100000001110000000011100
0011110000000001111111111000000000001111111100000000000000111100000000
0000000000000000000000000000000000000000