P1
20 30
0000000000000000000000000000000000000000000000111111000000000000111111
1111000000000111111111111000000011110000001110000000111000000001110000
0011100000000111000000111000000001110000001110000000011100000001110000
0001110000000011110000111000000000011110001110000000000011110111000000
0000000011111000000000000000011100000000000000001111100000000000000111
0111000000000000111000111000000000011100000111000000001110000001110000
0000111000000011100000011100000000011100000111000000000111000000111000
0000011110000011110000000011100000011111110111110000000011111111111000
0000000011111111000000000000000111000000