P1
20 30
0000000000000000000000000001000000000000000000111000000000000000011100
0000000000000001110000000000000000011100000000000000000111000000100000
0000111000000111000000001110000001110000000011100000011100000001110000
0000111000000111000000001110000011100000000011100000111000000000111000
0011111111111111100000111111111111111000000111111111111110000000000000
0000111000000000000000001110000000000000000011100000000000000000111000
0000000000000011100000000000000000111000000000000000001110000000000000
0000111000000000000000001110000000000000000011100000000000000000010000
0000000000000000000000000000000000000000