P2
46 56
255
48 52 48 48 50 47 46 47 43 49 49 48 47 42 49 67 75 77 78 77 88 93 90 70 78 76 99 79 75 74 64 56 55 52 53 57 52 52 54 60 52 57 56 55 58 52 
44 48 47 44 47 44 47 47 48 46 49 49 61 69 67 83 77 65 82 65 89 69 79 62 69 65 64 58 77 76 87 72 78 52 59 58 55 53 60 55 53 56 52 58 60 58 
50 54 47 45 44 47 48 47 51 56 56 75 70 69 77 70 62 74 106 104 92 76 58 77 86 101 68 87 74 82 73 97 84 69 71 49 53 55 53 56 51 52 60 55 62 59 
47 46 48 45 47 48 47 52 49 59 64 52 65 66 58 60 62 90 93 77 73 64 74 97 87 75 83 72 92 96 110 85 71 88 88 76 60 57 59 58 57 58 58 53 56 55 
47 46 50 45 42 44 45 52 80 72 64 50 60 51 61 52 65 75 75 79 36 64 62 72 72 81 54 62 71 72 96 75 101 97 86 97 84 60 61 56 55 57 54 58 56 61 
50 50 51 45 50 44 55 78 61 64 57 63 76 48 74 37 80 54 40 65 23 61 57 48 77 65 46 41 50 71 59 74 97 88 105 87 107 69 72 57 56 57 58 56 57 57 
48 48 44 43 51 48 36 80 51 52 53 55 46 29 89 78 86 46 38 69 20 53 56 47 75 43 40 29 63 34 60 66 68 85 100 102 115 79 83 54 55 56 55 59 57 56 
48 46 48 46 49 56 56 68 67 53 52 44 26 36 51 71 108 57 30 72 28 36 42 31 73 42 35 52 28 40 68 82 87 103 86 96 106 72 95 83 57 59 60 59 55 58 
47 49 49 49 64 85 72 76 69 50 41 59 30 30 27 45 73 44 39 43 73 26 42 38 49 36 22 34 26 46 57 54 70 76 108 84 94 94 93 110 74 58 61 59 59 63 
42 52 45 49 71 120 96 67 68 58 44 28 40 29 31 37 40 58 42 47 53 63 66 29 50 42 36 38 22 42 42 63 69 74 79 88 94 82 66 70 71 59 62 56 57 52 
48 46 36 43 60 96 64 42 47 43 41 36 40 39 39 38 43 37 49 39 46 60 60 61 42 59 58 48 51 50 47 52 43 54 62 65 60 73 73 75 109 109 52 57 54 52 
49 50 44 37 71 90 69 53 35 44 46 54 47 52 55 59 63 69 69 71 68 64 62 83 81 86 83 98 86 92 104 114 92 72 59 54 74 70 101 94 92 95 105 49 52 58 
56 45 54 74 78 68 53 47 49 59 72 79 93 102 96 101 107 114 111 119 122 127 136 141 145 153 142 147 126 124 155 153 144 136 108 45 56 58 84 48 90 116 47 86 49 54 
52 42 50 44 55 46 49 53 59 78 106 117 119 114 119 133 135 130 127 142 148 151 156 162 167 166 163 161 166 154 164 172 166 161 158 115 24 40 67 45 51 111 78 46 75 53 
48 30 40 49 48 46 49 48 98 115 123 139 141 154 152 156 148 141 144 146 148 160 165 163 169 157 167 182 176 184 190 187 195 188 180 183 85 45 48 66 80 79 82 91 55 58 
46 27 49 30 51 44 27 102 127 136 142 149 154 161 168 165 155 152 155 151 158 164 172 168 169 172 179 172 176 185 195 194 194 194 196 200 151 55 28 61 69 118 134 96 67 59 
38 33 46 36 34 27 76 124 135 145 148 151 159 168 172 166 162 152 159 157 166 174 175 178 177 179 184 186 187 185 189 198 196 197 202 201 216 82 50 88 70 125 83 66 59 54 
22 32 36 40 32 37 108 134 137 148 147 157 164 170 174 170 169 159 165 168 174 178 180 181 182 187 187 185 189 178 195 200 199 200 202 202 213 129 46 82 92 59 58 98 37 58 
28 26 63 38 37 61 112 133 144 152 158 164 167 157 169 169 173 170 166 172 176 178 177 181 183 184 190 188 192 196 199 201 200 203 205 205 203 199 70 68 121 84 55 98 51 39 
19 28 66 56 78 71 117 137 145 157 163 165 166 168 170 172 175 171 174 176 181 177 182 177 182 184 188 190 195 198 197 201 201 203 206 207 203 217 99 75 91 84 45 29 55 41 
20 36 55 42 65 82 116 135 148 158 165 163 164 169 170 172 172 172 171 172 174 170 176 173 177 178 182 184 188 194 196 199 197 201 204 207 201 211 155 109 97 71 62 60 49 25 
25 30 39 67 44 93 123 135 152 164 170 164 166 168 168 169 169 174 169 169 164 168 167 164 165 175 178 178 176 188 187 192 194 201 201 207 200 201 184 103 84 77 61 47 46 37 
24 28 27 48 47 85 125 132 155 168 168 164 165 164 165 166 165 165 162 160 159 160 162 158 162 165 165 161 165 156 161 157 161 171 198 207 200 197 211 131 93 42 32 41 46 29 
25 22 24 35 29 94 120 135 159 148 143 127 132 132 126 126 135 143 141 151 148 153 151 152 141 134 123 106 91 83 94 105 118 134 146 171 195 190 207 114 117 32 45 49 44 24 
20 25 26 32 27 114 118 134 123 116 111 89 83 61 57 63 78 108 109 131 144 152 145 126 114 105 83 69 51 47 55 62 68 80 99 145 162 180 197 145 94 43 39 51 42 29 
27 26 20 30 12 122 112 121 94 91 89 83 78 74 77 68 78 93 102 118 143 150 147 127 102 80 68 56 52 72 89 98 92 81 84 100 118 173 192 189 76 38 37 42 49 51 
45 25 20 27 16 119 101 106 103 109 100 99 95 71 63 53 57 83 98 127 165 162 180 167 110 59 47 37 69 72 54 61 96 105 56 92 124 154 187 215 71 63 36 67 33 56 
39 24 20 29 16 125 90 110 112 77 88 70 11 34 36 61 37 68 100 126 163 177 193 204 131 66 69 27 125 54 17 46 128 50 96 81 122 166 189 201 64 90 33 50 39 59 
32 34 23 29 17 131 109 110 92 79 44 93 91 69 72 98 79 82 107 131 169 186 185 208 160 102 90 71 97 101 92 102 113 133 170 161 168 183 199 190 146 45 37 48 47 52 
36 36 20 26 22 133 123 117 105 100 103 114 114 110 104 100 114 112 111 139 156 177 182 196 193 158 102 101 112 122 125 132 149 165 181 185 185 191 201 192 204 45 46 92 51 55 
34 35 17 28 33 134 135 125 120 121 132 133 132 131 125 126 133 123 141 140 154 177 178 180 186 196 175 134 139 145 152 162 168 173 180 189 189 194 196 194 220 24 94 167 175 44 
35 31 52 25 72 128 136 132 139 144 146 142 143 142 139 140 139 142 134 143 166 171 177 197 187 190 198 173 167 163 163 162 164 177 181 182 191 194 191 186 212 75 192 84 145 39 
36 41 92 110 114 123 134 146 144 152 155 149 151 147 148 151 150 141 145 122 146 137 142 155 166 194 188 175 157 167 173 164 169 169 174 183 183 187 186 188 184 190 179 193 147 53 
35 17 78 108 119 116 133 137 144 152 153 155 161 158 158 158 152 136 109 90 115 110 117 76 72 112 168 153 156 165 163 173 174 174 180 176 176 178 182 182 191 167 202 180 102 58 
35 14 113 101 112 110 128 132 139 143 156 164 164 167 166 158 137 113 22 22 96 102 142 60 21 19 111 167 143 162 163 180 174 175 185 174 171 173 184 177 201 36 135 204 107 55 
36 12 102 105 119 113 128 125 133 150 158 154 162 170 162 141 149 107 106 120 116 94 91 133 105 102 89 167 151 145 167 178 177 171 174 177 171 171 187 181 175 62 97 148 179 46 
35 20 88 129 75 117 124 120 130 147 161 160 164 168 159 147 150 114 105 117 132 115 121 140 162 143 151 174 180 172 172 180 175 174 172 171 174 176 184 171 176 107 107 99 185 43 
31 11 116 107 80 108 122 122 136 147 156 158 165 165 166 162 153 123 128 128 131 117 132 132 152 157 157 171 181 175 183 181 186 185 192 167 165 179 183 167 188 136 182 173 173 46 
33 39 92 89 94 99 126 125 132 150 154 160 157 162 153 150 138 142 145 147 142 130 129 137 164 164 173 176 167 166 168 183 180 174 179 183 169 173 172 174 187 158 199 146 133 46 
35 33 30 109 121 124 115 124 131 146 150 156 151 147 147 142 136 144 134 111 104 103 103 95 96 132 175 174 157 151 155 160 172 172 167 171 168 174 170 172 201 186 179 202 32 49 
33 31 13 124 115 130 106 120 129 138 149 143 139 136 127 126 125 93 90 84 77 73 75 70 73 72 76 116 137 111 119 125 163 179 171 165 165 162 167 189 129 131 170 138 39 51 
27 30 34 82 121 121 106 121 122 137 146 133 131 116 90 104 74 73 94 104 108 105 104 117 109 114 83 47 63 62 106 113 139 175 166 164 159 160 170 207 43 66 56 52 48 52 
28 32 34 22 95 88 86 123 111 131 140 135 130 106 35 63 108 114 120 124 121 119 115 120 128 142 153 157 120 53 100 120 130 159 161 161 159 162 164 202 47 54 43 52 49 51 
33 30 34 35 36 34 37 123 115 122 138 143 135 124 122 132 130 122 119 114 102 102 99 100 101 115 127 150 171 167 125 133 136 160 161 160 150 162 160 143 51 55 55 47 50 49 
32 32 33 34 35 33 6 124 122 122 131 137 142 133 145 122 133 127 124 117 111 102 102 105 105 117 134 141 141 167 167 141 136 145 154 159 157 158 160 48 52 52 51 53 50 55 
32 28 31 33 32 35 33 123 119 120 121 128 145 146 147 136 134 136 133 120 120 115 117 120 114 140 141 146 145 158 163 140 141 142 156 160 161 164 187 18 52 54 46 47 48 49 
27 28 32 32 33 32 30 55 117 121 123 127 136 140 144 150 146 152 144 142 146 144 152 161 158 158 162 164 157 166 151 155 140 142 145 151 151 157 116 44 47 53 49 55 51 46 
32 32 30 33 35 37 35 14 119 117 117 126 135 129 147 149 151 154 151 144 155 156 148 161 165 178 172 171 171 160 162 147 141 137 155 156 147 164 18 50 49 51 50 49 49 50 
33 32 33 34 34 31 31 34 74 115 114 120 127 118 130 138 142 144 146 150 146 136 139 148 159 166 170 166 166 169 163 144 150 140 144 141 141 181 14 51 49 49 49 50 47 48 
31 28 30 33 31 33 29 31 29 106 117 122 122 117 129 129 128 139 141 143 136 130 125 133 142 154 145 151 147 145 151 144 140 137 136 138 124 197 20 46 44 44 49 48 46 41 
32 28 28 30 29 32 31 31 35 21 104 112 106 117 124 117 119 125 132 125 116 119 116 121 121 127 129 124 130 124 141 141 125 136 114 117 150 197 28 45 46 42 48 48 50 44 
33 34 33 30 32 32 34 34 30 15 129 105 109 111 110 107 109 115 112 107 102 103 103 104 97 96 108 110 106 117 125 127 119 110 116 144 161 184 74 73 37 47 53 42 45 42 
32 31 30 33 30 33 29 32 43 36 119 115 109 91 101 99 100 97 107 92 88 90 87 85 83 77 83 82 86 104 105 108 102 118 128 161 162 184 14 66 85 44 47 44 52 39 
33 31 31 32 31 30 21 107 17 22 113 117 110 113 106 85 86 90 89 87 86 83 73 75 72 69 66 74 81 78 86 105 120 123 149 150 158 187 20 48 174 25 44 39 53 46 
35 30 31 32 31 35 74 111 11 23 74 112 114 112 112 111 101 83 73 79 79 82 74 77 79 75 78 78 65 88 109 112 113 144 153 164 156 188 4 119 152 157 37 39 47 50 
33 32 36 34 32 32 114 109 25 22 43 110 112 117 117 105 108 109 102 90 62 57 57 57 59 53 50 59 83 98 105 117 126 147 152 156 150 168 14 144 137 167 20 42 43 52 
