P2
46 56
255
46 47 47 42 46 50 48 46 49 46 48 50 51 48 46 50 52 57 68 89 64 76 70 79 84 79 58 44 53 54 54 51 47 49 54 45 44 45 46 45 48 45 51 46 49 46 
46 45 44 42 48 47 48 50 48 47 48 46 62 50 89 64 114 47 68 92 69 80 56 83 57 58 61 53 54 70 71 58 53 54 53 46 48 48 41 45 50 44 54 51 47 46 
46 44 42 48 47 47 49 51 44 43 47 47 63 59 68 76 93 62 54 68 73 54 71 51 74 40 45 77 82 109 90 72 80 60 47 47 46 46 46 48 49 47 54 52 55 44 
46 47 48 45 50 50 45 48 50 58 49 69 52 51 78 80 67 39 42 54 57 45 55 38 49 42 54 62 71 70 88 85 72 68 55 48 48 46 45 42 50 49 48 48 44 48 
50 46 46 50 46 51 51 49 70 79 56 74 59 66 69 55 31 46 53 53 56 47 55 66 64 46 62 68 71 62 51 76 96 81 81 67 56 47 50 46 48 50 49 50 51 51 
43 45 50 49 49 52 51 76 70 61 59 61 58 66 54 49 46 41 58 54 44 58 57 45 65 55 52 90 59 69 59 79 89 94 96 73 71 85 43 46 48 45 55 49 50 47 
46 42 51 48 45 68 65 62 51 53 58 61 39 84 53 58 41 51 46 47 40 52 56 54 52 35 61 64 31 89 53 70 73 94 111 89 77 64 72 51 48 52 51 48 47 46 
46 45 45 38 50 63 53 54 62 79 39 58 58 84 70 60 27 36 40 48 43 61 42 40 25 26 53 47 34 48 41 65 90 79 98 101 85 89 74 75 52 52 50 49 49 54 
45 45 43 46 77 79 75 71 50 50 45 44 70 65 81 48 63 17 57 32 58 45 54 35 40 35 35 45 38 40 38 60 63 86 77 76 94 94 81 85 71 68 48 53 48 52 
38 39 40 77 57 107 95 77 49 49 44 40 31 59 51 77 53 40 72 47 21 66 45 39 31 40 39 28 39 53 60 48 73 58 95 99 92 83 94 70 94 86 50 54 49 51 
42 35 43 41 80 93 94 71 57 49 35 49 46 38 60 50 61 43 45 51 37 57 58 72 56 47 34 36 36 45 61 42 51 48 67 78 96 95 68 81 82 45 109 38 52 48 
45 23 38 54 66 75 64 77 60 54 49 48 53 56 57 63 62 62 84 67 56 60 61 61 60 80 63 61 64 62 62 48 39 45 61 62 63 70 63 60 50 77 45 100 55 49 
47 38 30 45 58 58 58 63 46 56 78 95 94 95 89 87 92 99 106 101 106 111 112 123 121 131 118 122 108 118 111 89 70 50 63 80 59 62 46 74 72 94 65 64 49 52 
45 47 51 64 57 53 52 40 86 105 108 115 111 116 121 120 128 130 134 131 130 140 144 144 137 143 141 147 148 147 147 148 130 110 59 50 72 70 63 69 78 77 81 75 63 53 
36 44 52 37 35 57 21 102 113 118 128 128 136 140 128 135 137 137 137 138 149 150 152 144 147 151 154 155 156 161 159 164 163 130 113 35 50 60 54 62 87 62 83 112 77 53 
33 32 50 37 56 25 111 123 129 131 137 144 148 144 139 139 136 137 142 146 155 159 151 151 155 156 166 166 168 167 170 171 173 163 131 69 23 49 47 33 65 61 102 90 87 57 
43 64 37 34 34 73 128 128 136 139 147 150 148 147 144 139 137 146 157 162 160 163 158 161 163 165 170 171 176 177 171 170 179 188 162 111 53 28 41 59 54 44 61 126 88 51 
54 31 33 32 34 118 131 134 137 144 151 154 151 151 144 152 153 161 165 169 168 166 164 170 165 160 159 169 176 177 175 176 179 189 180 122 61 53 40 87 56 75 116 56 107 58 
21 58 24 32 63 128 139 142 145 149 145 153 150 150 157 159 160 171 171 170 169 164 167 169 169 172 171 171 175 180 178 183 188 193 187 129 75 54 77 77 58 35 87 83 101 54 
39 65 28 50 90 132 143 149 153 145 153 150 156 164 163 165 168 165 171 168 173 168 169 171 172 171 176 179 173 181 182 184 191 193 194 147 86 62 97 83 71 20 71 55 96 65 
26 41 47 67 117 134 149 145 147 148 162 156 162 165 167 168 170 164 171 173 172 170 167 172 168 172 178 181 177 181 182 189 199 197 199 165 100 78 82 78 48 103 76 33 109 76 
24 40 68 66 130 137 152 155 149 155 161 163 162 167 163 164 162 163 168 168 168 168 173 172 168 171 179 179 177 179 180 187 198 198 201 195 117 91 106 67 108 36 88 62 70 77 
25 106 26 70 133 147 151 152 152 153 157 163 162 165 162 166 167 163 168 160 167 173 174 166 168 163 165 170 172 181 181 184 198 199 202 214 131 84 97 92 116 72 77 104 73 57 
22 50 20 92 124 146 128 124 135 117 123 130 155 165 152 163 161 165 166 157 161 160 151 136 123 120 132 118 138 142 162 186 191 197 203 211 151 104 105 85 84 87 84 49 95 51 
21 33 31 109 131 112 108 106 73 74 70 79 92 136 141 158 159 160 159 146 137 133 111 93 73 64 56 69 93 117 120 152 168 192 200 205 189 131 94 55 66 64 63 86 59 64 
28 26 22 117 120 107 107 109 118 115 113 95 100 122 135 145 156 149 147 134 122 111 103 95 72 85 96 98 98 94 98 118 161 180 193 201 211 103 76 65 65 75 72 43 49 72 
33 22 22 111 115 126 132 122 109 99 77 66 70 115 134 145 155 157 153 144 120 96 83 93 99 108 110 111 107 104 111 116 115 155 187 198 202 167 84 52 78 68 95 36 53 61 
38 18 18 119 128 134 89 82 121 79 4 85 63 61 120 142 155 166 172 148 112 94 62 65 83 67 29 126 71 122 52 103 126 141 178 194 197 206 119 80 53 69 76 86 39 60 
38 28 2 140 131 113 71 57 164 61 40 62 60 60 99 146 157 169 163 172 113 121 74 39 40 70 62 69 100 92 104 98 107 152 173 198 197 216 117 62 68 70 80 67 44 57 
36 44 6 144 132 111 115 129 137 127 105 92 79 99 117 143 152 161 175 194 135 114 111 82 76 92 93 93 98 131 148 147 144 160 171 200 197 217 87 60 72 93 64 52 76 59 
39 40 35 143 118 118 124 130 132 125 122 103 103 112 131 130 153 156 170 189 168 129 112 92 96 90 101 118 132 145 153 161 162 167 173 198 196 210 79 77 79 86 30 68 67 52 
34 65 93 134 128 137 138 140 141 137 130 121 125 145 133 163 165 157 171 179 189 168 134 122 117 115 114 135 132 141 150 158 167 177 178 193 195 199 144 64 71 59 171 101 55 52 
41 73 128 139 141 144 148 150 146 141 128 132 139 146 159 162 157 170 179 174 165 180 145 140 139 129 127 131 141 147 154 158 170 176 182 186 195 198 183 79 88 165 83 182 30 59 
34 9 141 143 142 150 149 151 150 139 131 137 155 152 139 153 141 143 138 155 173 178 159 145 144 135 136 135 151 153 148 161 168 175 183 191 191 191 188 178 204 180 202 170 47 54 
39 15 142 140 144 152 160 152 146 144 139 141 126 22 52 148 130 69 32 34 147 184 125 137 145 145 145 147 148 157 154 159 167 170 186 187 187 184 181 167 180 169 199 138 55 55 
43 48 112 139 145 158 153 153 151 141 140 140 137 90 97 150 117 125 121 36 142 133 129 137 143 153 160 153 151 158 159 164 169 167 186 184 187 185 202 77 136 160 197 57 50 49 
36 35 123 132 145 163 153 152 148 143 140 142 110 115 134 139 123 145 128 111 111 120 143 162 156 156 154 159 151 151 150 163 167 160 186 183 185 174 223 92 91 114 213 59 45 57 
38 26 123 137 153 158 156 156 153 147 146 140 123 118 136 135 141 136 140 138 135 132 157 158 160 156 154 155 149 161 157 168 173 177 184 183 189 167 210 145 108 100 183 39 38 47 
44 25 123 138 155 156 161 158 152 146 150 133 135 141 139 130 133 141 135 144 138 149 148 156 149 159 158 160 156 165 161 174 161 181 187 179 190 178 217 106 160 93 196 15 46 50 
41 18 147 142 152 159 158 153 147 149 137 150 155 145 140 132 131 140 140 153 153 156 150 161 138 144 161 157 152 154 172 173 175 177 177 185 182 197 194 141 191 153 205 16 47 52 
38 20 135 135 151 163 150 142 129 145 137 134 118 115 111 102 108 105 106 113 131 157 146 131 123 145 142 141 156 152 159 172 171 171 175 184 177 203 188 179 189 188 152 45 50 43 
39 31 131 130 151 155 151 136 95 128 108 105 100 89 94 95 73 82 89 95 93 95 115 113 116 128 123 152 161 155 163 167 168 168 172 184 172 140 161 135 179 207 31 54 51 51 
38 40 24 156 137 164 154 118 41 95 102 120 124 129 126 123 126 126 127 135 115 83 58 42 45 124 132 142 162 159 166 165 163 170 182 173 190 43 51 76 79 54 51 45 45 48 
39 39 28 164 137 162 165 108 100 145 151 146 145 138 134 131 126 114 119 130 138 145 140 109 127 66 152 150 149 158 165 164 166 166 171 181 203 20 47 52 46 50 46 43 46 51 
38 38 38 120 139 150 157 129 138 138 153 147 149 141 130 119 127 130 126 130 142 154 166 125 123 107 156 141 147 159 161 156 162 169 170 176 187 39 51 51 45 45 44 44 43 47 
42 39 42 46 145 154 163 147 147 155 152 153 148 136 131 132 127 132 133 136 137 143 139 153 138 141 143 142 134 158 165 158 160 173 176 168 140 48 45 46 47 39 44 39 44 45 
43 34 36 4 166 151 160 144 153 155 160 154 154 150 150 148 139 144 137 148 150 150 153 157 145 145 143 142 144 162 164 163 164 167 175 156 61 42 46 48 52 39 44 47 44 43 
39 34 38 38 142 144 150 146 154 151 156 146 152 149 156 153 153 151 160 149 162 156 154 159 152 147 141 137 156 161 155 156 170 163 160 194 28 51 47 43 42 44 37 42 45 42 
36 37 36 36 31 139 144 141 139 146 147 153 161 156 147 148 150 154 160 161 156 158 160 157 157 154 143 142 156 156 157 158 166 159 159 215 21 48 47 47 38 37 36 37 48 45 
37 34 33 40 33 122 145 142 147 138 147 155 159 150 147 138 147 149 151 152 151 153 149 158 151 146 150 150 162 164 151 162 154 147 179 212 14 50 46 41 36 40 42 41 41 46 
41 39 41 41 34 13 156 135 149 142 143 156 151 144 146 140 144 139 139 135 126 136 138 154 155 142 136 154 147 147 152 151 145 155 161 204 30 45 38 44 41 41 40 35 43 45 
43 42 38 35 35 36 15 140 126 139 141 146 133 130 133 130 133 131 121 125 123 116 120 134 143 144 135 147 143 140 148 137 159 173 181 180 41 47 42 39 34 39 42 42 35 43 
40 40 41 38 38 38 42 70 127 130 131 145 127 125 129 121 122 114 105 111 105 107 116 130 129 132 132 142 139 142 135 148 165 173 181 142 44 49 42 39 38 39 41 39 44 40 
40 40 39 34 37 39 44 45 145 124 118 126 128 124 125 118 116 104 99 96 98 95 109 111 118 126 128 132 127 131 143 154 166 177 181 100 47 43 37 34 41 43 41 41 45 36 
38 42 43 42 40 40 39 14 151 136 146 128 113 111 119 107 106 99 95 89 86 89 94 100 106 113 117 112 116 143 152 161 153 184 184 50 38 40 39 33 37 45 48 43 43 42 
41 41 39 40 38 38 36 6 158 144 148 142 151 140 122 116 114 111 110 101 93 95 91 97 90 87 112 131 150 146 151 152 164 171 197 26 42 36 47 44 36 44 41 36 44 48 
