P2
46 56
255
48 51 47 46 47 50 50 45 46 49 46 48 43 48 54 61 79 86 83 89 90 76 81 84 89 71 68 74 59 62 61 52 56 48 51 54 54 53 55 49 56 55 53 58 55 56 
44 46 43 48 46 45 47 47 48 47 46 46 59 75 77 77 89 65 89 82 84 67 61 67 65 76 76 79 74 89 60 58 62 51 52 55 54 56 54 52 58 55 56 56 56 59 
48 48 47 48 43 47 45 43 46 48 56 55 70 75 75 61 77 99 88 76 57 80 89 101 70 77 76 92 85 78 82 71 69 53 56 55 56 56 60 52 54 54 58 54 57 61 
50 47 47 47 48 39 44 51 50 61 64 55 85 58 68 47 105 83 89 65 83 72 90 64 83 66 98 88 113 67 82 85 75 83 57 55 54 54 55 60 57 56 56 55 59 60 
48 48 47 47 48 43 53 61 64 54 75 69 53 52 54 72 77 64 75 49 78 91 76 83 85 71 76 74 86 73 85 105 87 101 82 61 50 55 59 56 55 55 58 58 55 57 
47 49 49 48 50 46 57 68 60 64 56 61 56 59 65 83 63 63 53 35 64 88 58 91 82 45 35 61 65 75 89 86 96 109 105 91 61 50 54 56 59 60 55 54 58 56 
45 51 50 48 46 48 84 63 56 50 56 76 32 64 74 88 59 58 61 19 49 48 53 85 44 37 59 30 41 74 94 107 80 107 106 75 87 67 53 59 56 56 60 62 59 53 
44 47 49 46 48 54 69 57 56 57 46 40 34 82 73 98 57 32 75 18 34 42 31 66 46 27 46 33 52 69 76 78 84 106 101 101 103 110 52 57 58 61 56 54 60 58 
47 47 45 47 36 71 75 65 55 46 52 28 35 35 55 71 49 33 36 85 28 38 51 47 42 28 35 25 49 52 66 74 84 103 96 95 75 85 56 60 54 59 57 58 57 63 
44 45 43 50 40 59 69 66 54 43 63 34 23 29 36 41 65 44 39 55 71 62 47 47 55 38 31 40 39 49 48 40 60 69 73 69 64 95 79 92 57 59 57 59 54 56 
47 46 50 61 98 88 67 74 52 51 43 41 40 30 27 40 37 59 55 36 58 68 50 50 52 53 50 61 70 66 65 55 50 61 67 84 65 108 71 96 74 55 60 54 53 54 
46 45 51 78 101 75 46 48 50 41 40 34 45 40 39 46 48 49 65 66 56 62 86 88 106 106 117 112 107 132 128 114 96 46 41 61 65 59 63 114 59 86 53 52 57 57 
50 33 38 56 81 56 48 42 37 44 46 50 54 69 83 89 89 108 109 120 126 136 146 153 164 152 156 146 157 168 177 172 161 145 28 28 67 71 40 97 87 85 66 56 59 56 
50 38 37 53 74 56 40 43 45 58 77 84 108 97 111 114 128 120 136 145 154 159 158 166 168 170 169 180 163 185 183 189 191 179 160 24 52 49 73 52 76 123 60 54 56 54 
43 38 57 63 53 38 36 46 52 88 111 120 115 127 146 153 141 140 148 150 155 167 164 165 169 171 180 173 178 189 193 190 189 190 196 125 42 37 56 50 134 131 62 63 55 57 
44 38 44 41 42 40 50 61 102 116 122 140 149 157 163 156 149 149 156 152 160 169 176 175 180 179 187 181 182 186 192 197 199 197 198 212 76 53 70 71 121 92 61 63 59 55 
24 37 52 41 42 41 42 109 120 138 143 148 158 171 168 165 162 155 161 160 171 180 183 183 184 186 187 188 184 178 195 199 200 200 202 199 170 56 61 81 71 65 78 49 63 60 
23 32 47 37 47 31 85 122 135 146 144 153 162 164 171 168 163 159 166 171 178 184 187 185 184 185 188 188 195 197 200 199 199 203 204 202 208 123 55 110 97 66 83 54 58 57 
31 47 40 40 31 36 113 127 135 146 144 159 164 168 171 170 172 161 171 174 179 180 181 177 184 183 188 190 193 195 198 202 201 202 205 205 205 208 77 134 98 55 47 46 52 59 
27 42 34 33 29 68 114 129 138 146 158 164 163 166 167 172 174 176 176 173 180 179 179 182 182 182 184 188 193 194 198 201 197 202 202 205 201 218 110 138 64 65 60 58 30 60 
30 25 57 46 49 71 116 128 138 151 161 165 168 165 173 174 173 173 176 175 177 174 174 177 174 178 179 182 188 190 192 194 196 201 202 206 202 202 169 111 41 60 50 35 39 58 
25 38 68 60 76 71 119 130 136 152 163 163 163 167 170 169 169 168 175 168 169 168 168 170 167 172 175 182 175 175 171 166 159 163 176 201 203 192 207 131 70 66 38 44 33 62 
20 37 62 45 75 79 114 135 136 153 163 170 164 165 166 169 165 168 169 160 161 164 159 164 165 163 157 148 129 108 96 103 107 124 133 154 175 181 205 79 113 36 47 40 48 60 
24 26 35 50 48 83 114 128 133 156 164 166 159 160 156 156 151 149 148 144 152 152 156 153 149 135 129 105 82 66 57 63 66 76 82 103 156 172 191 125 98 38 43 46 43 66 
20 22 30 33 39 52 121 128 134 158 148 136 118 121 101 84 77 90 118 108 127 139 152 151 128 120 102 88 67 58 66 93 103 109 106 116 122 133 174 205 82 34 37 44 48 54 
23 21 24 27 39 47 124 122 134 135 116 111 94 72 52 50 53 67 95 102 111 134 152 163 149 139 114 71 58 53 86 95 98 142 154 65 117 152 179 207 64 56 41 40 59 57 
25 19 20 21 30 32 122 121 124 98 89 95 84 92 99 90 77 66 75 89 110 147 168 180 191 207 85 56 62 77 65 9 29 133 61 108 117 156 189 189 131 112 44 84 37 61 
25 25 23 24 25 42 115 112 108 98 100 109 100 99 84 58 51 50 64 90 100 146 167 183 191 215 73 99 46 72 98 77 83 117 130 167 170 181 197 204 227 44 47 50 74 56 
31 20 22 22 23 42 116 107 102 108 102 62 85 67 59 15 46 71 60 106 104 143 170 183 191 203 170 118 98 97 112 115 127 147 166 179 185 189 194 202 205 38 50 103 62 57 
41 19 23 18 27 36 120 108 112 105 71 65 48 110 62 78 95 99 115 110 118 142 151 174 182 186 191 184 134 126 137 148 151 171 170 179 189 193 195 195 189 132 76 159 136 53 
37 35 17 18 24 20 124 119 119 104 93 101 110 123 114 107 106 119 130 119 141 137 148 176 179 180 181 195 187 170 171 170 168 175 177 185 191 193 198 198 193 202 198 83 164 50 
38 36 22 17 17 8 124 123 127 122 118 126 135 135 140 136 135 139 142 138 131 143 157 164 170 188 189 184 193 173 168 177 180 179 182 181 182 191 190 189 192 183 187 186 134 55 
35 38 22 22 26 6 129 126 132 126 136 142 148 142 142 146 145 149 148 147 150 129 126 129 126 150 137 134 173 179 158 170 180 183 182 182 196 185 189 188 191 178 203 194 104 52 
35 30 31 27 22 23 131 126 128 136 142 150 155 148 154 154 159 157 167 136 125 86 55 121 102 111 26 27 83 177 132 154 172 185 185 188 191 189 183 187 191 203 103 181 170 49 
35 37 33 103 77 111 123 122 132 136 142 153 155 162 164 164 168 165 160 121 64 14 47 118 92 150 139 77 90 143 162 140 161 172 183 186 182 183 189 184 192 198 87 118 218 29 
35 36 53 42 120 134 114 111 128 129 140 149 162 167 163 167 167 155 148 117 101 112 113 112 91 109 152 138 124 157 179 171 175 181 184 189 192 187 185 191 193 167 97 91 164 30 
34 35 18 95 100 120 108 108 126 124 134 146 161 159 167 173 168 145 151 130 107 104 126 138 122 126 143 165 160 160 179 179 179 186 190 191 192 190 186 184 188 181 133 186 187 44 
30 34 16 116 93 122 82 113 122 124 131 138 151 157 161 165 168 166 162 145 122 125 129 136 128 132 135 163 167 176 180 178 164 169 191 193 189 188 186 181 183 170 190 187 162 49 
33 30 13 105 101 113 36 115 115 121 126 134 157 158 160 160 165 159 159 135 134 138 146 138 140 133 137 159 182 192 189 172 162 158 164 181 194 189 179 176 181 174 185 194 204 29 
30 31 21 125 117 91 71 106 111 120 124 136 152 160 165 155 154 148 142 137 145 142 113 102 93 91 79 75 84 103 140 156 132 125 132 163 193 186 184 177 174 182 146 166 163 30 
34 33 35 57 116 75 100 125 107 121 124 130 150 154 148 143 142 142 135 133 120 88 69 62 74 68 71 75 88 62 67 78 85 86 111 136 179 186 182 171 173 200 37 59 53 50 
32 30 31 19 111 98 111 116 103 120 126 133 138 156 145 134 132 109 116 103 71 80 94 106 116 114 131 145 145 155 158 146 96 66 117 132 168 179 168 170 177 202 36 53 57 54 
32 33 30 35 50 105 111 121 111 115 119 124 136 152 145 128 111 62 65 72 118 125 127 119 122 113 109 104 120 139 153 178 181 157 123 141 152 171 168 167 173 198 49 57 51 47 
32 34 32 34 23 108 115 115 110 115 121 115 127 144 151 141 110 86 111 124 124 127 125 122 119 109 116 116 119 138 150 161 164 178 170 143 150 151 168 170 167 178 56 56 50 48 
35 32 32 32 33 13 116 106 33 122 115 121 115 135 145 149 129 137 133 131 130 127 128 124 122 116 120 131 136 156 158 159 162 165 173 155 151 157 163 166 171 101 57 55 55 50 
29 32 28 32 35 35 35 34 37 64 119 123 118 122 135 144 139 149 144 121 139 133 133 129 137 148 155 158 157 167 170 171 171 182 174 171 146 158 159 161 179 35 56 51 56 49 
31 32 30 30 35 31 31 34 29 14 124 119 123 122 123 138 147 149 151 141 143 148 146 149 151 155 161 170 167 188 182 181 180 172 181 165 154 159 162 154 180 32 56 57 51 48 
33 34 30 31 35 30 30 34 27 31 94 116 127 114 121 131 142 145 151 152 154 155 148 143 147 143 148 163 166 178 183 176 181 181 178 162 166 151 167 155 71 50 50 55 51 47 
30 30 33 30 28 31 31 34 29 31 14 120 118 110 123 120 131 130 139 143 147 144 142 151 143 141 143 147 161 162 175 163 162 160 167 156 150 151 145 133 30 46 51 53 50 50 
32 32 33 29 29 35 33 33 33 34 36 82 109 116 114 117 126 124 129 133 133 135 137 138 130 128 130 125 131 149 157 144 144 140 152 146 131 148 122 124 40 47 47 50 48 49 
32 33 33 31 31 36 33 29 28 34 32 54 101 109 116 120 114 117 120 120 126 119 118 119 115 113 116 113 110 121 130 131 118 121 131 129 126 119 156 124 34 48 52 49 52 43 
33 34 31 31 29 31 31 35 31 33 34 22 113 98 101 110 113 106 108 112 113 105 108 105 101 97 94 87 90 91 96 110 100 111 113 109 113 143 169 119 38 46 50 51 48 41 
32 32 33 33 32 32 32 33 32 33 28 5 123 114 101 80 97 98 102 97 102 99 98 103 86 89 83 77 77 74 83 80 81 85 91 115 130 156 164 113 103 42 44 46 55 50 
34 31 33 32 29 32 30 28 31 42 35 21 120 113 118 107 87 78 82 88 84 83 87 80 80 76 78 72 74 77 77 74 82 103 120 125 154 155 161 105 39 151 23 45 52 49 
32 30 28 28 31 33 32 35 25 91 10 16 118 114 116 111 104 98 90 79 76 77 79 77 78 78 81 83 84 81 74 85 108 120 123 144 156 166 163 110 23 132 96 45 46 43 
29 33 31 31 31 35 30 30 92 91 14 26 90 115 117 103 113 104 105 97 97 94 75 61 60 59 59 54 52 58 95 101 116 118 139 137 155 163 138 129 6 153 140 42 43 38 
