P2
46 56
255
41 45 46 44 43 41 43 43 31 24 43 53 45 49 41 42 37 30 27 27 24 22 24 33 30 20 21 17 22 19 21 14 22 17 19 17 18 17 17 22 31 34 44 42 37 40 
48 48 39 43 48 47 43 26 36 43 38 39 68 49 59 51 52 41 42 40 38 37 26 39 27 26 24 26 28 24 24 25 22 19 19 22 23 22 15 18 18 25 34 40 41 37 
46 52 41 41 53 38 30 36 46 37 33 24 27 79 105 109 103 111 97 76 67 51 55 56 54 58 47 66 44 39 28 30 33 29 21 17 20 19 24 16 22 25 23 38 43 46 
46 46 52 46 44 27 29 51 32 21 27 49 131 144 154 150 148 128 120 115 104 86 73 71 83 97 93 92 110 88 66 76 71 57 49 21 23 21 27 18 16 19 21 36 43 42 
47 45 45 46 36 38 41 39 28 26 98 141 153 155 160 157 163 156 158 150 149 130 131 116 120 122 126 137 140 141 116 113 110 108 89 76 36 19 19 27 20 15 16 21 40 47 
48 47 48 41 51 52 41 42 33 123 156 163 158 167 169 172 163 166 168 163 169 160 170 170 166 163 162 166 159 161 153 130 129 130 125 117 105 52 17 19 25 21 20 19 41 47 
45 48 38 51 41 35 43 52 120 159 163 166 163 176 178 178 176 176 173 170 173 175 167 170 175 175 173 165 166 162 160 151 151 147 136 131 127 113 70 15 29 33 18 18 38 44 
49 37 39 42 26 36 47 90 158 162 159 168 175 186 185 184 180 174 176 176 179 177 171 175 177 173 174 169 166 170 155 161 162 154 149 132 135 130 121 58 24 23 27 22 29 47 
50 34 35 24 51 43 52 130 168 165 169 177 183 184 184 184 184 188 187 182 184 185 181 180 176 178 179 174 175 172 170 168 171 166 159 142 142 142 122 109 39 21 23 32 22 45 
54 36 32 43 49 43 96 149 172 168 178 184 189 190 191 188 185 194 190 190 181 190 193 187 186 183 184 181 183 175 176 171 168 171 163 157 148 144 124 119 85 25 26 37 32 43 
55 41 35 69 73 50 119 169 176 180 184 183 193 189 190 190 190 193 190 194 186 184 187 185 187 185 186 183 183 181 175 177 174 177 176 167 158 152 133 123 111 31 32 35 30 34 
37 50 56 71 75 87 142 179 180 184 190 189 187 191 189 186 189 190 188 187 185 182 181 189 182 188 190 183 183 184 179 178 173 170 179 172 160 153 143 135 131 68 27 45 30 35 
49 51 59 86 93 106 157 190 184 191 197 188 186 187 187 189 184 196 191 187 180 181 183 187 187 182 183 182 181 178 171 175 169 169 167 173 160 161 151 136 140 92 58 55 30 28 
51 55 82 81 84 119 169 184 191 199 200 191 187 180 191 192 196 191 194 192 191 179 185 182 184 185 185 183 183 181 180 177 173 176 168 170 169 164 156 144 152 92 66 61 28 30 
57 51 73 69 77 113 176 183 196 201 198 192 191 195 195 197 199 198 195 199 193 184 186 186 186 190 188 187 181 182 180 182 175 178 172 174 166 169 162 147 156 92 56 62 57 25 
54 49 78 51 74 129 179 186 195 199 191 193 191 199 203 199 200 199 195 202 199 192 188 186 193 194 191 188 183 185 180 181 181 178 172 176 184 168 162 158 151 101 57 64 46 32 
54 56 76 56 70 185 181 186 199 198 193 192 189 197 201 204 197 200 196 198 200 199 193 194 193 200 197 189 176 191 187 184 183 182 176 177 176 183 169 156 146 111 59 63 48 40 
52 59 62 57 65 194 175 183 199 196 192 191 190 187 196 203 199 198 197 198 200 201 202 205 198 201 185 190 179 188 191 189 186 186 178 176 177 179 158 155 152 116 67 64 55 46 
108 65 37 69 74 189 173 192 202 194 174 159 155 163 169 181 190 192 191 190 195 189 198 198 192 194 182 182 182 181 185 184 189 187 183 176 174 183 163 143 141 134 52 64 70 47 
154 55 21 72 88 184 159 162 141 131 121 127 122 116 112 121 129 156 171 180 179 178 190 177 181 183 176 175 174 181 179 177 172 181 179 177 179 178 164 135 147 134 52 49 63 45 
82 110 69 41 97 192 163 144 145 138 141 133 131 107 102 109 112 129 152 171 175 176 180 167 169 161 162 152 140 128 133 127 141 150 147 136 158 188 172 126 127 135 59 46 70 24 
55 154 78 84 128 181 132 89 78 87 102 103 92 142 142 134 124 128 145 165 170 171 170 164 165 148 132 119 98 86 65 66 88 109 113 111 108 128 152 122 130 137 58 41 53 20 
92 165 68 79 116 126 168 165 184 159 108 97 71 82 87 106 96 102 71 72 75 87 107 120 116 107 108 92 82 87 115 132 116 118 127 125 103 92 102 115 136 140 66 51 52 36 
167 90 48 139 120 180 140 153 117 99 93 201 72 37 102 109 78 89 131 129 198 193 204 187 156 105 79 97 101 87 108 138 141 117 85 69 79 98 119 126 136 137 28 37 46 48 
209 111 79 158 145 176 181 183 166 137 159 146 97 98 99 140 122 108 180 46 188 139 115 171 173 111 88 64 85 81 64 130 36 67 122 162 152 113 100 77 117 110 73 39 47 98 
195 123 13 122 183 179 186 185 185 178 179 150 149 142 136 144 147 172 193 70 156 138 133 169 114 146 128 103 93 163 96 89 87 85 86 57 117 131 132 88 72 140 54 45 58 93 
189 169 167 208 176 181 184 189 173 169 164 149 139 127 125 123 131 143 179 111 165 172 167 111 173 152 165 164 162 165 160 158 125 150 150 113 91 104 118 123 125 117 49 31 124 61 
186 146 195 212 161 184 189 191 180 187 186 176 166 153 151 153 155 184 114 125 183 171 158 140 145 121 137 110 133 107 109 118 133 132 132 126 145 148 141 130 70 66 50 64 145 62 
208 173 221 146 169 187 194 191 188 178 179 173 174 162 162 178 181 203 61 190 180 169 169 170 92 47 143 132 135 124 130 124 124 119 139 156 151 152 145 130 58 62 36 90 132 130 
195 191 181 42 173 192 191 191 190 183 169 170 166 171 168 172 207 72 136 195 186 163 166 180 106 86 141 159 144 144 130 133 134 140 151 155 159 148 157 132 106 50 116 89 93 105 
212 191 194 188 115 192 193 201 190 180 174 169 176 174 172 185 112 140 184 195 183 165 180 141 133 98 44 167 156 159 150 154 154 150 151 168 160 157 157 128 162 121 142 76 105 44 
184 182 185 173 193 72 198 200 201 183 186 180 177 182 129 146 173 131 190 195 197 161 174 142 153 101 130 89 157 162 158 157 142 153 145 176 168 171 147 121 49 155 86 79 149 24 
49 93 89 97 181 190 177 147 166 171 150 127 102 138 149 123 137 137 198 193 195 170 167 166 140 107 113 138 63 155 160 153 159 152 163 172 170 169 150 113 121 146 82 122 62 26 
45 58 55 86 176 186 194 191 184 166 146 135 130 133 127 152 134 190 198 182 196 171 181 171 142 131 97 141 134 120 99 156 164 166 173 176 160 202 89 143 117 128 133 132 18 31 
55 55 57 104 171 178 191 187 189 188 179 169 157 138 147 163 200 174 213 174 201 159 175 175 155 170 91 145 149 147 115 119 105 90 97 111 147 168 152 132 108 135 138 126 39 31 
56 58 56 122 167 185 182 183 186 176 163 154 134 129 158 173 186 154 176 172 163 167 163 173 140 155 128 151 152 154 159 158 128 128 135 146 149 150 142 126 46 120 133 80 32 29 
52 52 60 120 164 182 169 173 181 172 157 139 139 156 178 187 128 111 127 132 125 132 108 107 105 125 101 160 145 140 153 159 164 164 155 146 137 146 132 133 19 34 49 28 32 30 
56 55 62 109 165 184 166 175 188 174 152 151 148 167 179 184 185 139 133 118 69 77 96 84 69 98 86 165 144 132 141 146 153 156 153 155 148 135 129 140 18 34 30 32 34 35 
52 57 54 46 163 181 155 182 182 171 159 130 159 174 182 179 182 161 112 88 58 41 73 108 115 108 112 164 158 142 136 151 156 141 134 141 130 134 112 134 26 35 34 34 30 29 
53 55 47 12 165 176 164 183 187 161 149 152 144 174 180 158 164 158 152 74 46 47 54 95 100 110 132 163 157 143 133 141 147 155 143 126 129 124 118 86 30 33 32 34 28 29 
58 55 50 43 154 168 168 178 183 153 141 131 128 158 156 157 173 163 162 117 41 68 66 88 100 113 144 147 152 143 126 138 134 148 142 118 127 111 124 39 33 32 29 33 37 30 
53 52 48 47 102 165 165 174 178 135 117 87 51 158 180 172 148 150 165 144 131 126 123 129 120 119 131 138 139 138 141 122 122 142 139 129 128 115 129 22 34 37 35 30 34 31 
54 56 55 50 29 149 158 174 175 141 118 131 141 49 28 58 85 84 93 104 134 109 79 100 122 144 145 119 103 98 110 130 129 139 123 141 112 116 98 29 30 26 25 34 28 26 
45 54 54 50 48 140 151 148 158 125 126 150 168 154 98 25 132 79 110 67 38 51 56 41 53 41 69 80 20 59 97 120 143 138 122 132 105 119 19 31 32 34 34 32 26 35 
56 52 50 49 49 116 127 150 148 119 134 158 165 177 132 130 92 75 116 96 72 77 96 73 97 24 33 51 139 134 105 127 132 133 112 122 108 59 30 35 35 32 25 31 32 29 
56 50 48 48 51 148 121 143 142 137 140 153 164 170 168 143 149 123 117 122 100 111 88 110 106 121 118 134 141 141 122 123 128 112 110 100 102 25 36 32 33 28 37 34 35 26 
54 54 57 48 53 152 123 117 144 134 146 146 164 153 155 151 125 132 137 137 131 133 130 133 122 117 126 140 142 139 130 122 124 108 105 104 27 35 30 35 29 29 29 31 32 30 
59 51 59 48 49 172 161 119 132 144 147 150 148 155 149 135 119 116 113 104 110 108 93 106 115 108 131 142 140 135 113 115 116 94 96 37 30 27 31 30 30 32 32 33 27 26 
46 49 57 52 38 173 150 118 113 133 137 142 142 144 135 134 108 82 45 57 51 52 63 82 94 119 129 131 132 126 122 117 103 83 55 33 35 31 37 30 26 26 31 30 33 28 
51 53 55 47 25 172 171 168 82 138 137 143 153 138 143 141 131 111 103 100 92 97 102 104 119 124 126 132 138 121 112 109 72 80 31 32 33 30 28 29 31 35 33 28 29 25 
54 63 55 52 27 163 168 156 150 113 134 131 145 149 152 149 147 145 131 125 124 124 126 123 124 122 127 130 132 107 108 86 74 15 27 33 31 31 32 33 32 25 26 26 30 26 
59 48 39 35 45 164 172 176 153 79 118 131 144 153 149 150 153 151 149 136 133 130 138 133 134 133 134 134 111 104 95 92 8 18 17 25 24 34 28 33 35 30 31 29 25 25 
52 42 38 26 124 159 179 174 160 159 85 125 130 140 146 143 151 148 135 142 136 141 138 137 131 130 124 125 114 87 73 124 7 16 19 16 22 40 42 31 26 31 30 29 29 32 
49 44 40 4 166 168 173 179 173 146 155 91 117 139 136 140 136 130 139 135 137 127 134 134 134 126 120 114 83 80 116 105 9 17 17 19 22 33 41 38 37 22 30 25 33 27 
49 40 15 61 155 168 171 183 181 158 140 154 82 109 129 124 132 137 130 116 113 115 131 120 117 112 98 64 84 122 115 113 5 12 17 24 21 24 40 43 53 54 31 30 26 25 
53 27 62 102 158 166 172 183 180 175 143 128 145 97 78 92 88 110 97 107 100 97 99 94 89 62 50 111 117 119 109 119 20 15 12 19 25 37 48 58 57 66 65 18 24 24 
