P1
20 30
0000000000000000000000000000000000000000000000001111000000000000001111
1111000000000001111111111000000000011100001111000000000010000001110000
0000000000000111000000000000000001110000000000000000011100000000000000
0011100000000000000001111000000000000000111100000000000001111110000000
0000001111111000000000000001111111100000000000000001111100000000000000
0001111000000000000000001110000000000000000001110000000000000000011100
0000100000000001110000011100000000111100000111100000001110000000111100
0001110000000001111111111000000000001111111100000000000000111110000000
0000000000000000000000000000000000000000