P1
20 30
0000000000000000000000000000000000000000000000111111100000000000111111
1111000000001111111111111000000111110000001110000001110000000001110000
0111000000000111000000100000000011100000000000000000111000000000000000
0111000000000000000011110000000000000011111000000000000011111100000000
0000011111110000000000000011111111000000000000000001111000000000000000
0011100000000000000000011100000000000000000011100000000000000000111000
0000000000000011110000000000000000111100000100000000001110000011100000
0000111000000111110000011100000000111111111110000000000111111111000000
0000000011111000000000000000000000000000