P1
20 30
0000000000000000000000000000111111000000000000111111111000000000111111
1111110000000111110000001110000011110000000011100001110000000001110000
0111000000000111000000100000000011100000000000000001110000000000000000
1110000000000000001111000000000000001111100000000000000111111110000000
0000001111111110000000000000001111110000000000000000011110000000000000
0000111000000000000000000111000000000000000001110000000000000000011100
0000000000000001110000001000000000111000000111000000001110000001111100
0001110000000011111111111000000000001111111100000000000000111110000000
0000000000000000000000000000000000000000