P1
20 30
0000000000000000000000000000000000000000000000000000000000000000000111
1000000000000001111111000000000000111111111000000000011110000111000000
0000100000011100000000000000000111000000000000000011110000000000000001
1110000000000000001111000000000000000111111000000000000000111111100000
0000000000011111000000000000000001111000000000000000000111000000000000
0000011100000000000000000111000001000000000001111000111000000000001110
0011100000000001110000111000000000011100000111000000000111000001111000
0000111000000011111111111100000000001111111110000000000001111111000000
0000000000000000000000000000000000000000