P2
46 56
15
2 2 2 2 2 2 2 2 2 2 2 2 2 2 2 3 5 5 6 8 7 6 5 5 5 5 5 4 4 4 3 4 3 3 3 3 3 2 2 2 2 2 2 2 2 2
2 2 2 2 2 2 2 2 2 2 2 2 2 3 6 7 7 8 9 8 8 7 6 6 5 6 6 5 5 5 6 6 6 5 4 3 3 3 2 2 2 2 2 2 2 2
2 2 2 2 2 2 2 2 2 2 3 4 6 8 8 8 9 9 8 8 9 8 8 7 6 6 6 6 6 6 6 6 5 5 4 4 2 3 2 2 2 2 2 2 2 2
2 2 2 2 2 2 2 2 2 3 4 6 8 8 8 9 8 8 9 9 9 9 8 8 8 7 7 7 6 6 7 6 5 5 4 5 3 2 2 3 2 2 2 2 2 2
2 2 2 2 2 2 2 2 3 6 8 8 8 8 9 9 9 10 9 9 8 8 8 8 8 7 7 7 7 6 6 4 3 4 4 4 3 4 3 3 2 2 2 2 2 2
2 2 2 2 2 2 2 3 7 9 10 8 8 8 9 9 9 9 7 8 8 8 8 8 8 8 7 7 7 6 5 4 3 3 4 3 2 3 3 3 4 3 2 2 2 2
2 2 2 2 2 2 2 5 9 9 10 10 9 9 9 8 9 9 9 9 8 8 8 8 8 7 8 8 8 6 7 5 4 4 4 3 3 4 4 3 3 4 2 2 2 2
2 2 2 2 2 2 6 9 9 9 9 9 9 10 9 10 8 9 9 9 9 8 7 8 8 8 9 8 9 7 7 7 6 5 3 4 4 4 5 4 3 3 4 3 2 2
2 2 2 2 2 7 9 9 9 9 8 9 11 10 11 9 9 10 9 8 8 8 8 10 9 9 9 10 10 9 7 7 7 7 5 4 4 5 5 6 4 3 3 3 3 2
2 2 2 2 6 8 9 9 8 9 9 10 11 12 9 9 10 9 8 9 8 9 10 9 9 9 9 10 10 8 8 8 8 7 7 5 5 6 6 6 7 5 2 3 2 2
2 2 2 3 9 8 9 10 9 9 10 11 10 8 8 9 10 9 9 11 10 10 9 9 10 9 11 10 10 8 9 8 8 8 8 7 5 7 7 7 8 6 3 3 3 2
2 2 2 8 9 8 8 9 10 9 9 10 9 9 9 9 9 10 10 9 10 10 9 10 10 11 11 10 8 9 9 9 9 9 8 8 6 6 8 8 8 7 6 4 4 2
2 2 3 8 9 9 9 9 9 9 9 11 10 10 9 9 10 11 10 11 10 10 10 11 11 11 9 10 8 10 10 9 9 9 9 8 7 6 9 8 8 7 7 6 3 3
2 2 8 8 8 8 8 9 9 8 10 10 9 10 10 11 11 11 10 11 10 10 11 11 11 10 10 10 10 10 10 10 9 9 9 9 8 8 8 7 7 6 7 6 5 2
2 3 9 8 8 7 8 9 9 9 9 10 9 9 9 8 9 10 10 11 11 11 10 11 11 10 10 10 10 10 10 10 10 10 10 9 9 7 8 8 8 7 7 8 7 4
2 7 7 8 7 6 8 9 9 10 10 9 9 8 9 9 10 10 10 10 10 10 11 10 11 11 10 10 10 10 10 10 10 10 10 9 9 8 8 9 8 7 7 7 8 4
5 7 7 8 8 7 8 9 9 10 10 10 10 9 9 9 9 9 9 10 10 11 11 11 11 11 10 10 10 10 10 10 10 10 10 9 9 9 10 9 8 9 9 7 6 8
5 7 9 8 9 8 8 9 10 10 10 9 8 10 11 11 11 12 11 11 11 11 11 11 11 11 11 10 10 10 10 10 10 10 10 9 9 9 9 9 8 8 7 8 7 6
7 7 7 7 8 9 9 10 10 10 11 10 11 11 12 11 12 12 12 11 12 11 12 12 11 12 11 10 10 10 11 10 10 10 10 9 9 9 9 10 8 9 7 7 7 7
7 9 8 9 10 9 9 10 10 11 11 11 11 12 12 12 11 11 12 12 11 12 12 12 12 12 11 11 10 10 10 10 10 10 10 9 9 9 8 9 9 8 7 6 7 7
8 8 8 8 11 10 9 10 10 10 11 11 11 11 11 11 11 11 11 11 10 11 11 11 10 11 10 9 9 10 10 9 9 9 9 9 9 9 6 9 9 8 8 6 6 7
8 8 7 8 9 12 10 10 10 10 11 11 10 10 9 9 8 8 8 8 9 10 10 10 9 9 7 7 6 6 6 6 7 8 8 8 8 9 6 9 9 8 8 7 6 7
9 7 8 8 10 11 8 10 10 10 10 9 8 8 7 6 6 6 6 7 8 9 10 8 7 6 6 5 4 4 5 7 8 9 9 7 8 8 6 7 9 9 7 8 5 6
9 8 8 8 11 8 8 10 9 9 9 10 9 9 8 7 7 6 8 9 8 10 10 8 6 5 4 4 4 5 6 8 7 7 7 6 6 8 7 5 9 8 8 7 7 8
9 8 8 8 10 5 8 10 6 8 8 9 10 12 11 9 7 7 7 3 8 10 11 10 7 5 5 5 7 9 8 9 8 10 9 8 7 7 9 5 8 8 8 7 7 6
7 9 8 8 9 4 10 8 7 10 9 11 10 11 9 7 6 7 6 9 9 9 9 9 8 8 5 7 7 9 6 4 8 9 7 8 11 6 6 6 5 7 7 8 7 7
4 8 8 8 9 5 9 9 5 14 9 8 9 9 2 4 6 6 8 9 9 14 4 3 6 8 8 7 6 9 5 4 5 6 7 8 10 3 6 7 5 7 8 8 8 8
1 8 8 8 7 6 8 7 2 14 9 8 7 6 6 8 8 8 10 9 4 8 8 7 3 7 9 8 7 7 7 7 8 7 7 7 8 6 8 0 3 7 7 8 8 7
1 8 9 7 4 3 10 2 6 11 9 8 7 8 7 6 6 7 8 10 7 11 11 10 4 7 9 8 7 7 6 6 6 7 8 9 11 6 7 8 5 7 7 8 9 7
2 9 10 7 7 6 10 2 8 11 11 10 9 9 8 8 8 8 9 7 7 11 10 9 7 7 8 8 8 8 8 8 8 8 9 9 10 7 6 8 7 6 8 8 8 6
2 5 8 7 7 6 9 3 3 10 10 10 10 10 9 9 8 8 9 5 9 11 10 9 9 4 9 8 8 8 9 9 9 9 9 9 10 7 8 8 6 6 7 8 7 1
2 2 6 7 7 7 6 2 2 10 11 10 9 8 8 8 8 8 10 7 10 10 10 9 9 8 5 8 8 8 8 8 8 9 10 10 9 3 7 8 6 4 3 7 7 1
2 2 2 8 8 5 4 4 3 9 10 10 9 9 9 9 8 10 4 8 10 10 12 9 9 8 9 5 8 7 7 7 8 8 9 10 9 11 5 7 8 2 3 7 5 1
2 2 0 10 7 4 8 9 7 7 9 10 9 9 8 8 9 5 7 10 10 12 12 8 10 8 8 9 5 7 8 7 7 7 9 9 8 7 8 7 8 4 3 8 3 1
2 2 1 11 8 6 8 8 9 10 9 10 10 10 8 5 4 4 11 9 8 9 9 8 6 7 7 9 9 5 5 5 5 5 8 8 8 8 8 6 6 7 7 7 1 1
2 2 2 9 9 9 8 8 9 10 9 9 9 8 7 7 6 9 9 6 1 7 7 5 6 2 2 5 7 6 7 8 9 9 8 8 8 7 8 7 7 8 8 8 1 1
2 2 2 6 10 11 9 7 9 9 9 9 10 10 9 7 8 11 8 6 7 8 7 5 5 6 6 5 6 9 7 8 8 8 8 8 8 7 7 6 7 8 7 2 1 1
2 2 2 1 10 10 11 8 9 8 9 10 10 10 9 8 11 11 10 10 10 9 5 4 4 5 8 9 9 9 9 8 8 8 8 8 8 7 7 7 7 7 7 2 1 1
2 2 2 1 9 10 10 7 8 9 10 10 10 10 9 9 10 10 10 10 10 9 8 5 6 8 8 9 9 9 9 8 8 8 8 8 7 7 7 5 6 4 1 1 1 2
2 2 2 2 1 8 10 8 8 9 9 10 10 10 9 9 10 10 10 11 11 10 10 10 10 10 9 9 9 9 9 8 8 8 8 8 7 7 7 5 2 1 1 1 2 1
2 2 2 2 2 2 2 9 8 9 9 10 10 10 9 10 10 10 11 10 8 8 8 9 8 7 7 8 9 9 8 9 8 8 8 8 8 7 7 3 2 1 1 1 1 1
2 2 2 2 2 2 2 7 8 9 9 9 10 10 8 10 10 8 6 4 3 4 5 3 4 3 3 3 4 6 7 7 7 8 8 8 7 7 7 1 1 1 1 1 1 1
2 2 2 2 2 2 2 2 8 9 9 10 10 10 8 8 7 3 1 2 6 9 7 5 6 6 3 2 2 2 4 5 7 8 8 8 7 7 8 1 1 1 1 1 1 1
2 2 2 2 2 2 2 1 9 8 9 9 10 9 8 6 7 4 1 1 4 4 2 1 4 2 2 2 3 4 5 7 7 7 8 7 7 7 3 1 1 1 1 1 1 1
2 2 2 2 2 2 2 2 4 8 9 9 10 9 7 6 10 7 7 6 7 8 6 7 6 7 7 7 7 7 8 8 7 7 8 7 7 7 0 1 1 1 1 1 1 1
2 2 2 2 2 2 2 2 2 8 9 9 9 9 6 9 10 8 8 8 8 8 8 8 8 8 6 6 6 7 8 7 7 7 7 7 7 6 1 1 1 1 1 1 1 1
2 2 2 2 2 2 2 2 2 1 8 9 9 8 7 9 10 10 8 7 7 7 6 7 6 5 5 6 7 7 7 7 6 6 7 7 7 6 1 1 1 1 1 1 1 1
2 2 2 2 2 2 1 2 2 2 4 9 8 8 7 9 9 9 9 8 7 5 6 4 4 4 6 6 7 7 7 7 7 7 7 7 7 5 1 1 1 1 1 1 1 1
2 2 2 2 2 2 2 2 2 2 1 9 8 9 8 8 9 9 9 7 6 5 5 5 5 5 5 6 6 7 7 7 7 6 6 7 7 6 1 1 1 1 1 1 1 1
2 2 2 2 2 2 2 2 2 2 1 8 8 8 9 9 9 9 8 8 7 7 7 7 7 7 7 7 7 7 7 7 7 6 7 7 7 3 7 1 1 1 1 1 2 1
2 2 2 2 2 2 2 2 2 2 9 7 7 8 8 9 9 9 8 9 9 9 9 8 8 8 8 8 8 8 8 7 7 6 7 7 7 3 4 8 1 1 2 2 1 1
2 2 2 2 2 2 2 2 2 7 4 6 7 7 7 9 9 9 9 8 9 9 9 8 8 8 8 8 7 7 7 6 6 6 7 7 7 2 4 8 4 1 1 1 1 1
2 2 2 2 2 2 2 2 1 9 5 3 8 8 7 7 8 9 9 8 9 9 8 8 7 7 7 7 6 7 6 6 6 6 7 7 7 1 1 4 9 0 2 1 1 1
2 2 2 2 2 2 2 1 12 8 4 3 8 8 7 7 6 8 8 7 7 7 6 7 6 6 6 6 6 6 6 6 6 7 7 7 7 1 1 5 11 9 2 1 1 1
2 2 2 2 2 2 2 4 10 7 2 3 8 8 8 7 7 6 6 6 6 6 5 5 5 4 5 5 5 5 6 6 6 6 7 7 7 1 1 6 10 10 8 8 8 8
2 2 2 2 2 2 1 11 10 6 2 4 9 8 8 7 8 7 6 5 5 5 5 4 4 5 4 5 5 6 6 6 7 7 7 8 4 1 1 6 8 11 9 9 8 8
