P1
20 30
0000000000000000000000000000000000000000000000001111100000000000001111
1111000000000001111111111000000000111100000111000000011110000001111000
0001110000000011100000111100000000111000001110000000000111000011100000
0000011100001110000000000111000011100000000000111000111000000000001110
0011100000000000111000111000000000001110001110000000000011100011100000
0000001110001110000000000011100001110000000000111000011100000000001110
0000111000000001110000001110000000011100000001110000000111000000001111
0001111000000000011111111100000000000011111110000000000000001111000000
0000000000000000000000000000000000000000