P1
20 30
0000000000000000000000000000000000000000000000011111000000000000011111
1110000000000011111111110000000000111000001110000000011100000001110000
0001110000000111000000111000000000111000001110000000001110000011100000
0000111000001110000000000111000011100000000001110000111000000000011100
0111000000000001110001110000000000011100011100000000000111000111000000
0000011100011100000000000111000111000000000001110000111000000000011100
0011100000000001110000111000000000011100000111000000000111000001110000
0000111000000011110000011100000000011111111110000000000011111111000000
0000000011111000000000000000000000000000