P1
20 30
0000000000000000000000000000000000000000000000000000000000000000000011
1100000000000000011111110000000000001111111110000000000111000011110000
0000111000000111000000001111000000111000000011100000001110000000111000
0000111000000111100000001110000001110000000001110000011100000000011100
0001110000000001110000011100000000011100000111000000001110000001110000
0000111000000111100000001110000000111000000011100000001110000000111000
0000111000000111000000000111000001110000000001110000011100000000011110
0111100000000000111111110000000000000111111000000000000000011000000000
0000000000000000000000000000000000000000