P1
20 30
0000000000000000000000000000000000000000000000000000000000000000000001
1111000000000000011111111000000000001111111111000000000011100000111000
0000011100000011100000001111000000111000000011110000000111000001111000
0000011100000111100000000111000001110000000001110000001110000000011100
0000111000000001110000001110000000011100000011100000000111000000011100
0000111000000001110000001110000000011100000011100000000011100001110000
0000000111111110000000000000111111000000000000000111100000000000000000
0000000000000000000000000000000000000000000000000000000000000000000000
0000000000000000000000000000000000000000