P1
20 30
0000000000000000000000000000000000000000000000001111100000000000000111
1111000000000000111111111000000000011110000111000000000111000000111000
0000011100000011100000001111000000011100000011100000000111000000111000
0000011100000011100000000111000000111000000001110000001110000000011100
0000111000000001110000001110000000011100000011100000000111000000111000
0000011100000011100000000111000000011100000011100000000111000000111000
0000011100000011100000000111000001110000000000111000111100000000000111
1111100000000000001111110000000000000001110000000000000000000000000000
0000000000000000000000000000000000000000