P2
46 56
255
72 77 70 73 69 69 17 49 32 44 75 50 35 31 41 54 49 46 48 57 68 65 70 82 66 95 90 68 73 55 69 52 72 49 48 102 81 92 81 61 85 87 72 88 79 86 
72 70 71 71 71 39 40 50 54 43 60 35 32 40 74 108 119 116 117 134 122 111 141 133 123 126 126 109 125 108 113 96 116 116 74 57 35 68 102 52 92 90 69 84 84 88 
69 68 74 71 62 43 67 73 41 30 30 31 43 121 152 169 177 185 189 188 183 178 202 197 183 179 189 171 169 177 169 159 170 177 179 137 58 46 71 70 92 92 98 73 91 88 
67 67 69 71 51 69 76 56 47 31 31 56 140 170 178 188 197 198 203 199 199 199 209 209 207 205 205 203 201 206 204 204 204 205 206 203 197 70 46 59 79 90 69 107 63 88 
69 71 74 55 63 67 73 63 40 34 69 156 179 180 192 201 202 206 205 205 212 208 211 216 212 212 210 209 208 208 205 203 207 208 206 208 209 213 67 44 67 88 79 91 48 94 
72 69 58 54 57 51 72 59 38 71 170 178 184 194 195 196 202 207 209 212 209 210 211 211 211 212 209 210 209 207 204 198 207 207 206 209 210 209 222 51 53 69 64 77 65 88 
66 73 39 42 70 49 64 42 60 176 183 188 191 194 197 199 208 206 210 210 212 212 211 206 210 209 210 210 211 210 211 206 207 210 210 211 209 212 206 188 51 71 65 53 88 104 
65 60 43 48 60 51 61 29 157 187 184 200 200 197 200 204 206 207 211 212 214 209 213 211 211 209 210 212 207 209 211 210 211 209 212 213 215 214 213 208 107 62 59 53 79 76 
73 37 52 52 43 45 49 82 182 186 191 199 204 196 203 207 207 209 211 212 211 211 212 210 210 206 210 207 210 210 212 212 215 216 216 216 217 216 215 216 231 49 63 49 71 87 
77 44 63 57 39 51 45 128 182 188 187 197 203 202 203 207 211 214 214 213 214 210 210 209 209 210 209 210 207 209 211 212 215 216 216 217 219 217 217 217 213 161 59 53 52 106 
75 51 52 52 62 38 47 134 188 181 188 200 202 205 207 208 210 213 211 213 213 210 210 210 207 210 204 209 207 209 209 213 215 215 217 218 217 217 219 218 214 235 55 76 75 64 
68 45 25 54 52 56 52 157 184 184 184 203 204 210 208 208 212 214 214 212 214 209 210 209 205 209 205 209 207 206 208 210 213 216 218 215 217 217 218 217 216 226 78 70 67 109 
61 25 36 40 52 62 77 151 186 187 190 200 205 210 210 211 212 215 213 211 212 212 208 209 206 206 208 206 206 210 206 213 208 214 213 213 215 217 218 217 216 219 113 119 94 67 
68 20 51 27 31 62 71 171 179 181 192 199 206 208 210 210 212 216 211 210 211 207 204 209 205 204 207 208 203 205 212 211 211 214 209 212 217 215 215 215 215 220 139 106 70 76 
60 47 30 32 30 46 85 177 179 183 188 199 207 205 208 211 214 216 212 214 211 205 209 206 205 209 209 206 206 208 213 213 213 213 212 211 210 212 213 212 213 221 132 99 49 57 
64 29 26 27 34 40 100 172 182 181 187 198 199 209 204 212 213 214 210 210 212 209 208 203 205 205 207 203 207 207 208 211 212 214 212 214 207 214 207 210 208 218 86 78 37 50 
62 26 17 30 25 31 98 171 170 179 186 196 190 185 187 196 199 204 205 210 208 209 207 204 203 206 206 201 202 200 197 205 200 213 211 209 219 204 208 208 203 222 62 54 48 58 
53 46 31 31 27 28 87 169 172 177 180 159 123 146 139 157 144 156 167 195 205 202 203 201 198 196 191 191 185 170 168 166 176 187 198 210 209 211 205 210 203 216 34 63 49 61 
57 58 25 25 34 40 56 164 173 172 114 119 118 101 87 90 72 56 68 87 151 182 196 190 191 187 185 165 143 105 76 60 65 91 114 126 136 216 210 205 196 212 15 60 43 49 
52 48 25 30 33 26 38 164 172 108 122 160 155 158 149 165 148 126 128 110 112 159 183 185 187 171 165 149 109 85 77 63 78 78 73 86 112 122 204 197 193 165 34 57 56 54 
59 55 38 27 33 24 31 168 170 143 165 173 179 188 189 188 175 162 143 148 146 151 186 192 185 173 165 121 104 102 117 154 171 162 147 137 105 116 136 184 196 97 45 49 56 54 
50 89 99 32 32 29 34 168 163 164 176 173 145 142 152 128 122 107 123 134 146 159 189 207 195 188 153 118 100 107 116 129 140 145 160 168 170 145 160 128 210 50 41 34 45 55 
100 88 143 106 33 29 47 177 164 173 171 127 119 103 54 48 68 111 113 86 124 156 185 212 212 209 173 105 74 82 136 117 101 110 155 138 117 164 176 174 218 43 42 48 55 43 
139 131 133 150 103 36 110 177 168 183 159 130 90 178 71 85 56 195 114 92 156 144 179 204 215 210 207 116 81 53 179 63 44 83 97 77 156 136 185 193 225 51 54 52 73 69 
161 143 163 185 158 19 156 176 180 194 167 148 122 147 161 112 118 160 137 117 165 159 184 209 213 210 224 101 102 77 129 157 69 62 150 106 79 112 196 203 229 67 54 70 92 154 
161 159 165 210 167 25 173 177 184 193 181 182 168 159 162 155 141 133 134 145 164 179 192 209 211 213 218 148 119 75 101 136 133 129 130 162 175 161 198 205 228 33 64 172 84 151 
75 145 187 163 125 17 177 174 190 193 193 186 186 177 165 161 167 176 168 178 181 191 195 209 213 216 208 210 132 115 118 96 129 139 128 161 197 204 211 205 221 41 118 227 66 126 
21 168 191 160 142 29 173 169 190 195 203 196 191 194 194 197 189 180 187 187 190 196 193 207 212 215 212 208 182 136 118 128 142 152 157 194 204 211 211 202 218 24 214 224 111 91 
64 135 184 134 136 40 171 165 184 196 204 198 195 197 196 196 200 190 187 184 197 199 197 203 214 210 217 197 200 177 164 134 146 161 185 187 207 211 208 198 218 33 190 217 197 68 
60 30 198 114 126 45 165 173 176 189 201 200 205 203 200 194 197 192 191 185 192 193 202 209 211 209 215 197 201 201 185 192 173 170 187 201 206 204 201 188 208 29 145 210 184 81 
58 48 185 175 94 27 163 170 184 182 191 198 200 202 203 198 192 198 190 190 183 193 202 208 206 202 216 219 186 209 186 181 188 180 188 193 192 193 200 192 194 62 128 229 52 77 
59 62 148 182 197 15 156 164 178 185 181 194 198 199 200 196 200 198 199 182 187 189 211 205 202 206 208 223 174 187 193 176 188 195 192 199 192 183 201 190 134 73 151 156 82 80 
58 58 179 198 215 40 137 162 186 174 193 194 196 197 200 201 198 197 187 188 190 181 206 201 183 179 196 187 207 153 173 180 176 186 202 195 187 185 197 181 89 193 227 53 84 72 
56 66 145 190 185 99 114 155 177 172 192 184 198 197 197 198 200 198 184 179 157 117 166 176 146 153 157 98 177 141 136 175 170 163 174 193 194 185 185 185 16 213 234 68 84 76 
52 58 47 111 174 196 79 133 176 180 182 191 195 191 200 195 195 194 198 138 94 128 155 132 97 109 70 108 193 160 123 154 175 163 176 183 193 173 184 160 105 214 225 45 72 74 
59 61 62 55 63 41 76 129 168 171 184 191 194 193 197 200 194 197 200 179 151 150 136 98 91 90 101 203 200 175 114 125 164 182 161 174 199 181 185 104 217 206 219 49 70 70 
54 56 56 58 60 58 84 105 155 170 179 184 193 190 198 188 180 195 193 145 144 129 95 103 115 112 125 132 180 201 97 88 141 168 174 179 187 184 175 93 119 136 84 74 71 74 
56 55 56 57 56 56 57 111 149 147 174 184 195 183 187 139 153 176 152 126 118 120 157 90 118 158 163 150 132 154 98 49 114 178 160 176 189 166 168 70 63 69 70 67 65 68 
52 54 57 56 54 53 44 107 126 151 167 170 174 172 131 97 107 123 129 158 183 191 186 184 180 178 168 183 197 177 129 70 50 160 161 174 176 167 157 49 67 64 59 65 73 64 
57 54 58 53 54 54 43 103 125 133 162 160 157 160 113 92 125 161 168 153 140 138 120 132 125 99 105 90 91 114 120 67 104 146 157 158 171 146 173 53 66 70 66 63 65 66 
56 57 52 56 55 58 55 89 128 129 150 143 148 154 114 118 75 90 84 80 81 89 83 70 75 64 57 58 85 116 107 91 119 139 156 146 145 142 138 57 62 61 62 60 68 64 
56 58 56 55 58 55 55 90 112 124 145 145 125 152 142 112 120 146 130 124 121 120 115 114 124 136 154 181 186 185 154 138 133 147 135 151 154 149 86 58 56 63 65 64 67 66 
55 58 60 58 59 54 57 93 101 106 137 144 138 150 162 145 160 174 155 145 166 181 143 160 152 150 144 166 172 171 185 187 135 157 118 140 153 156 48 61 57 64 62 60 65 63 
56 52 48 53 58 50 53 77 78 106 117 136 142 157 156 153 198 177 156 162 150 153 121 124 126 113 130 139 142 170 197 197 152 136 125 129 150 132 52 49 58 59 61 61 60 64 
54 62 53 53 54 55 52 60 123 86 110 130 134 143 144 152 190 188 160 141 128 114 92 105 91 86 107 130 170 181 192 188 149 139 135 138 132 111 51 64 53 61 68 63 67 55 
58 58 49 53 54 56 53 44 150 79 105 127 127 128 126 145 177 188 188 180 175 131 107 114 99 100 146 156 176 189 190 180 124 132 104 111 133 113 45 66 55 56 59 56 60 67 
52 52 54 55 53 54 50 23 151 122 91 105 110 122 115 132 162 185 182 180 182 181 163 161 153 168 178 172 173 184 183 149 135 122 106 114 97 121 39 68 60 54 61 54 61 63 
51 54 56 52 56 51 46 48 145 142 79 103 108 113 122 101 138 180 181 187 188 184 176 170 176 176 180 185 183 186 171 132 121 112 109 112 71 102 47 61 56 58 54 52 59 67 
53 54 55 51 48 45 102 76 146 146 133 77 103 99 107 99 112 158 191 185 187 190 187 181 179 187 184 179 192 183 156 105 101 103 88 87 145 108 43 57 63 56 57 54 53 63 
56 56 51 45 53 41 111 29 144 153 150 95 94 89 101 76 109 149 168 176 190 193 193 186 182 175 175 156 173 150 123 99 70 104 110 93 175 76 126 40 59 57 52 47 56 60 
53 53 54 50 39 131 80 23 137 147 150 141 83 83 82 92 87 112 132 162 164 151 166 157 152 147 156 146 135 123 102 76 81 80 68 147 186 20 167 87 52 61 51 48 59 58 
54 53 50 51 27 134 88 33 126 150 158 150 126 74 81 76 77 81 94 128 135 138 131 133 129 126 122 115 100 89 74 60 68 77 107 161 189 15 86 143 40 58 56 47 51 59 
55 50 49 50 45 128 87 85 107 149 157 158 142 116 66 79 73 66 61 83 103 105 103 107 99 108 90 73 65 47 45 60 59 87 146 170 192 9 107 141 48 57 52 51 54 53 
52 49 47 49 49 129 90 148 43 146 154 159 155 146 116 74 59 60 59 48 56 65 60 61 60 57 48 45 40 46 50 51 78 136 156 163 169 23 137 115 82 60 92 52 50 47 
50 57 51 43 69 110 82 153 40 143 153 153 160 148 143 122 95 48 45 53 47 47 47 51 47 45 48 38 43 43 47 91 127 152 160 169 67 55 100 151 91 71 103 92 86 96 
48 49 48 51 74 131 52 159 95 26 151 153 158 161 147 140 128 109 95 63 45 39 44 41 48 44 43 44 48 66 98 122 137 154 153 163 7 62 91 109 96 90 85 75 86 90 
