P2
46 56
255
60 59 59 60 59 57 57 62 57 59 46 41 43 44 41 56 44 38 42 39 34 39 44 30 43 33 36 35 36 30 39 33 39 48 55 51 52 57 46 49 64 67 61 67 65 61 
59 60 62 58 55 59 61 55 50 44 45 38 42 47 42 45 30 31 47 43 32 44 30 35 49 49 38 37 34 31 32 33 38 34 39 41 40 47 51 47 39 57 62 62 67 60 
57 67 61 65 63 60 65 50 40 41 42 46 38 46 28 32 32 33 29 33 47 35 36 49 43 48 54 48 38 36 33 36 32 32 30 38 40 38 49 50 48 37 60 64 63 66 
60 59 59 65 64 63 48 39 39 42 40 45 27 31 26 42 51 59 66 55 59 72 69 74 80 75 68 67 95 65 55 50 46 39 35 31 33 34 37 53 48 50 40 62 60 66 
61 63 65 62 60 46 41 40 36 38 34 37 32 39 65 94 104 99 94 111 107 96 114 109 107 104 106 115 102 103 88 82 82 81 66 45 32 33 27 35 37 44 34 43 70 62 
58 62 66 67 56 37 40 40 36 33 31 32 50 93 108 113 117 126 131 132 132 129 133 137 135 131 137 137 138 133 135 121 119 121 99 99 73 34 29 36 41 42 48 42 63 64 
65 63 61 63 48 42 37 44 34 32 25 53 103 115 118 125 127 133 135 138 141 142 144 146 150 147 147 148 150 152 157 160 148 147 139 130 114 96 39 40 47 44 44 38 41 61 
60 66 63 69 41 40 36 37 31 32 63 107 117 123 123 127 129 128 136 145 146 146 149 156 159 159 161 162 166 176 177 192 176 169 153 137 132 127 102 34 36 38 64 60 38 51 
58 62 66 64 42 42 36 45 34 53 107 114 123 128 125 125 130 138 140 150 156 166 167 162 167 183 175 173 179 178 166 182 193 175 162 147 142 130 127 90 26 31 48 52 44 35 
66 65 63 43 42 28 43 38 37 106 116 121 128 129 135 135 139 142 151 156 160 172 171 167 177 176 175 175 179 180 186 180 185 175 163 156 147 141 140 123 55 36 43 58 43 44 
65 60 69 38 39 44 40 42 81 116 122 129 132 133 137 144 146 153 161 167 173 176 183 179 179 181 180 180 181 178 184 188 184 171 161 163 152 148 144 142 135 42 42 58 47 43 
68 61 66 30 34 36 41 50 106 128 129 133 140 140 145 152 153 160 160 167 172 181 172 171 179 181 185 181 181 178 176 180 176 170 163 159 161 153 145 139 129 78 50 44 44 43 
61 68 68 31 46 40 36 68 120 135 133 142 145 151 153 158 163 164 170 170 176 178 178 180 177 177 183 175 180 181 178 174 176 169 168 165 165 161 154 144 139 124 63 41 44 48 
63 65 68 28 39 48 41 77 124 135 138 146 142 157 155 159 161 166 166 173 172 173 175 177 171 175 182 178 180 181 176 172 178 164 169 166 167 166 156 145 143 132 70 45 38 38 
62 62 67 33 31 47 41 82 132 139 136 148 152 160 156 155 162 165 165 168 170 180 185 182 176 186 181 181 178 176 173 173 172 167 166 167 165 166 160 152 143 132 71 42 35 30 
67 64 67 29 29 45 40 116 140 135 147 152 164 161 164 160 160 166 162 168 170 182 187 184 184 178 181 185 172 176 167 170 172 170 164 160 165 163 159 150 141 128 74 42 44 51 
65 69 65 38 39 39 37 128 143 142 153 152 159 162 163 165 168 169 167 172 174 179 177 182 182 181 180 180 183 179 174 176 173 174 169 167 167 163 157 153 141 136 58 44 40 33 
70 69 66 54 36 36 27 134 144 144 152 156 151 155 156 161 167 169 169 174 178 177 177 178 174 178 178 177 179 176 175 179 175 174 174 169 163 160 153 152 144 138 54 48 41 22 
65 65 68 51 30 41 31 131 146 144 146 140 134 128 130 144 152 152 164 173 183 188 180 180 187 176 184 184 183 171 175 169 171 167 167 160 160 154 154 151 145 138 38 39 36 43 
70 68 65 66 33 44 38 126 139 145 132 108 74 97 98 102 106 109 129 163 178 192 192 187 191 180 184 178 168 153 143 151 139 154 153 150 155 152 152 150 140 135 39 38 25 57 
68 70 70 67 54 37 46 109 141 135 83 87 93 94 77 89 89 73 75 101 152 174 182 180 182 182 169 158 128 92 73 74 83 100 94 95 140 141 147 150 142 123 36 38 29 59 
72 73 66 65 23 38 37 94 141 104 112 131 150 151 140 151 155 140 136 119 119 172 187 175 170 175 168 134 116 92 77 82 73 75 91 86 88 117 132 140 142 76 39 36 64 62 
70 64 97 73 23 33 42 92 150 105 154 182 177 178 171 158 144 150 162 181 172 178 182 171 161 176 178 145 157 148 145 149 145 139 141 122 109 99 91 141 146 52 22 32 60 61 
65 134 157 145 74 42 37 108 143 138 180 184 132 122 103 100 100 80 95 152 176 175 178 169 166 176 160 162 136 99 86 95 110 147 172 177 154 129 88 140 135 47 37 51 58 57 
72 168 171 153 166 39 42 128 143 155 174 159 81 168 97 86 35 154 109 109 168 156 172 170 187 163 144 132 93 87 108 54 67 84 121 128 167 165 119 142 127 37 39 57 55 57 
72 179 165 161 181 68 20 138 142 165 166 124 106 180 108 68 48 157 105 91 132 132 161 163 195 162 124 126 102 103 158 34 64 66 159 106 155 163 141 143 103 37 36 62 148 166 
63 179 154 165 147 95 40 137 141 160 155 144 132 129 132 113 133 128 112 124 115 137 153 163 193 175 134 124 105 109 113 87 60 187 158 110 130 163 149 145 92 43 59 110 128 121 
71 174 141 174 207 51 87 139 143 153 152 160 165 172 181 158 143 142 141 131 136 144 151 168 189 162 145 123 139 127 136 137 133 144 139 128 139 164 159 151 93 28 144 156 126 142 
66 98 120 165 169 47 106 142 156 155 157 164 172 170 165 166 165 165 159 149 145 156 159 174 189 165 173 148 144 158 150 153 163 172 164 154 158 166 159 151 114 35 128 166 151 151 
63 33 142 148 120 87 110 148 153 154 162 160 158 174 176 175 168 170 162 151 158 154 158 174 194 167 165 146 148 159 161 160 161 165 165 158 166 164 158 153 116 28 153 168 144 161 
65 64 94 154 105 162 101 145 150 163 171 162 167 169 177 175 173 165 162 158 159 148 151 176 190 171 157 157 148 163 166 170 169 171 166 175 177 164 157 154 95 35 149 172 104 79 
74 67 25 166 135 101 86 152 153 165 174 177 179 177 165 165 159 156 158 161 150 151 160 187 178 190 162 162 148 156 165 172 168 172 171 179 174 169 152 146 55 78 135 169 144 57 
65 64 37 138 187 145 103 149 165 174 174 186 183 181 168 167 162 160 167 155 154 170 163 183 178 171 173 159 159 162 157 163 166 169 170 170 173 163 147 149 37 67 104 167 73 56 
74 67 38 157 166 174 130 143 160 175 182 186 181 179 170 167 168 162 175 149 172 181 188 193 183 180 176 155 166 156 164 163 167 171 174 178 174 167 148 118 145 95 132 154 50 57 
71 64 52 178 171 145 163 133 164 183 180 187 185 179 172 164 162 167 162 195 159 176 187 182 184 204 168 166 178 166 164 169 170 171 170 179 178 163 148 83 167 189 161 62 57 57 
67 61 65 43 149 197 202 110 157 178 178 186 181 180 173 164 169 172 156 163 100 127 205 189 195 118 118 168 172 170 174 180 173 176 180 182 177 156 140 122 170 172 175 45 59 56 
66 68 64 59 56 52 40 94 138 173 184 183 181 174 171 166 167 168 152 150 160 178 172 162 141 131 128 163 176 172 175 179 184 177 182 173 171 153 110 156 177 173 184 43 54 55 
67 63 60 59 56 56 58 88 132 153 181 180 181 171 167 164 168 160 142 120 127 113 143 158 123 81 123 159 182 179 180 181 183 181 181 171 159 140 101 173 182 169 92 56 61 62 
64 62 62 62 52 57 56 49 136 151 166 178 179 173 168 165 155 147 128 97 116 128 101 81 113 101 115 123 149 150 174 173 183 183 182 175 158 137 103 50 59 58 57 54 58 59 
65 67 64 62 64 58 57 35 130 145 160 171 169 169 170 140 132 134 138 126 144 155 126 119 151 152 164 137 115 135 130 177 179 176 177 167 143 128 62 51 52 54 57 56 56 62 
65 72 67 67 61 55 57 45 135 143 149 160 169 160 163 146 150 157 174 183 178 161 155 156 153 163 158 177 167 153 127 156 162 168 160 157 138 132 47 58 51 50 54 55 62 60 
64 62 69 65 60 59 57 43 114 146 146 156 155 160 159 174 186 181 152 157 110 138 144 132 101 61 97 117 133 160 156 174 163 166 151 152 137 127 41 49 53 45 53 59 57 65 
64 65 64 66 66 65 65 44 102 141 150 162 144 170 172 157 129 107 108 115 101 99 95 96 101 106 108 115 121 141 142 171 166 161 153 147 144 111 46 47 48 48 51 53 57 63 
64 70 68 64 63 64 62 42 135 136 144 158 146 168 185 163 155 176 149 142 142 144 131 130 138 133 147 157 163 168 160 167 181 158 147 136 138 109 44 51 50 54 54 54 59 67 
69 67 67 67 66 65 58 44 159 113 151 154 148 170 184 166 173 183 181 187 191 182 168 171 173 179 173 154 160 176 172 163 158 149 147 132 119 106 47 51 48 55 57 58 61 66 
68 68 63 66 62 63 59 41 159 118 126 132 155 154 166 178 184 184 179 174 150 141 144 110 137 150 166 171 176 179 178 160 152 151 141 128 96 96 51 53 55 57 55 60 59 57 
67 68 68 65 62 64 59 44 162 165 104 146 138 130 151 160 187 187 186 188 180 150 146 140 136 162 165 177 177 170 169 149 137 128 128 120 124 77 51 48 57 56 58 57 62 63 
68 68 63 66 61 63 61 50 159 171 138 126 131 140 136 155 179 185 184 182 175 155 162 159 155 161 168 172 174 165 153 144 131 128 131 94 151 66 50 50 52 59 57 64 63 58 
60 69 64 69 61 61 59 56 152 168 179 104 133 133 146 137 158 176 174 173 172 161 161 160 168 172 169 167 159 151 152 141 142 125 114 125 159 52 47 53 55 60 58 65 54 62 
57 62 62 57 64 58 52 55 149 173 173 170 110 132 143 116 152 164 181 178 164 178 180 181 181 169 155 158 155 153 132 131 121 116 104 156 171 43 45 50 59 57 56 58 59 64 
63 65 65 60 57 56 55 51 141 171 176 183 144 124 129 142 135 148 156 167 170 176 181 182 178 176 165 157 156 128 119 128 133 104 143 162 174 38 47 48 59 60 61 60 61 61 
59 55 57 59 59 55 52 48 135 171 174 182 185 132 121 129 126 140 160 167 176 175 180 179 169 168 166 138 143 135 102 119 106 132 160 166 170 30 45 57 56 58 57 59 63 63 
60 57 57 58 54 52 46 47 131 171 176 182 185 177 136 110 122 115 143 150 170 171 178 176 169 155 142 138 118 106 108 106 125 154 168 169 170 29 45 53 54 59 55 62 56 58 
55 54 58 52 53 53 48 136 137 173 178 184 182 187 171 144 126 119 127 135 133 140 142 153 139 141 123 104 115 112 114 139 163 168 172 167 149 182 39 47 55 51 58 56 62 60 
54 52 52 51 49 50 35 209 137 171 177 177 183 185 185 183 160 138 115 126 134 142 154 149 143 136 132 123 118 121 142 163 170 174 170 162 154 116 217 49 51 53 51 57 58 64 
54 50 51 49 47 41 205 209 124 174 177 179 178 187 189 184 176 173 162 150 134 120 135 124 132 132 139 124 147 159 166 171 175 170 170 165 159 70 129 223 51 50 52 50 50 54 
