P2
46 56
15
6 6 6 7 6 6 6 7 7 7 6 8 10 11 11 11 11 11 11 11 11 11 10 10 10 10 10 9 7 5 6 7 7 7 7 7 7 7 7 7 7 7 7 7 7 7
6 6 7 6 6 6 6 6 7 8 10 11 11 12 12 12 12 12 12 11 11 11 11 10 10 11 11 10 10 9 7 6 7 7 7 7 7 7 7 7 7 7 7 7 7 7
6 6 6 6 6 6 6 7 10 10 11 11 11 12 12 12 12 12 12 11 12 12 11 11 11 11 11 11 11 10 9 7 6 7 7 7 7 7 7 7 7 7 6 7 6 7
6 6 6 6 7 6 7 10 11 11 11 11 12 12 12 12 12 12 12 12 12 12 12 12 12 11 11 11 11 11 10 10 8 5 6 6 7 7 7 7 7 7 7 7 7 7
6 7 7 6 6 8 10 11 11 11 11 12 12 12 13 12 12 12 12 12 12 12 12 12 11 11 11 11 11 11 10 10 9 7 4 5 6 6 7 7 7 7 7 7 7 7
6 6 6 6 7 10 11 11 11 11 12 12 12 12 12 12 12 12 12 12 12 12 12 12 11 11 11 11 11 11 10 10 10 9 6 4 4 5 7 6 6 6 7 7 7 6
6 6 6 6 9 10 11 11 11 11 12 12 12 12 12 12 12 12 12 12 12 12 12 12 11 11 11 11 11 10 10 10 10 9 7 3 4 3 4 5 6 7 7 7 7 7
6 6 6 7 10 10 11 11 11 11 12 12 12 12 12 12 12 12 12 12 12 12 12 12 11 11 11 11 11 11 11 10 10 9 8 4 3 4 3 4 6 6 7 7 7 7
6 6 5 9 10 10 11 11 11 11 12 12 12 12 12 12 12 12 12 12 12 12 12 12 11 11 11 11 11 11 10 10 10 9 9 6 3 3 3 3 4 6 7 7 7 7
6 5 6 9 10 10 11 11 11 12 12 12 12 12 12 12 12 12 12 12 12 12 12 12 11 11 11 11 11 10 11 10 9 9 9 7 4 4 3 3 2 6 6 7 7 7
5 4 8 9 10 10 11 11 12 12 12 12 12 12 12 12 12 12 12 12 12 12 11 11 11 11 11 11 11 10 10 10 9 9 9 8 5 4 3 3 2 3 7 7 7 7
4 5 8 9 10 10 11 11 11 12 12 12 12 12 12 12 12 12 12 12 12 11 11 11 11 11 11 11 11 11 10 9 9 9 9 8 6 5 4 3 1 2 6 7 7 7
4 6 8 9 10 10 10 11 11 11 12 12 12 12 12 12 12 12 12 12 12 11 11 11 11 11 11 11 11 11 10 9 9 9 9 8 7 5 4 3 1 1 4 6 7 7
3 7 8 9 10 10 10 10 11 11 12 12 12 12 12 12 12 12 12 12 12 12 12 11 11 11 11 11 11 11 10 9 9 9 9 8 7 5 4 3 2 2 3 6 6 7
4 7 8 9 9 10 10 11 11 11 12 12 12 12 12 12 12 12 12 12 12 12 12 11 12 11 11 11 11 11 10 9 8 9 9 8 7 5 4 3 3 2 2 6 7 7
4 7 8 9 10 10 10 11 11 12 12 12 12 12 12 12 12 12 12 12 12 12 12 11 11 11 11 11 11 11 10 9 8 8 8 8 7 5 3 2 2 3 2 5 7 7
5 7 8 9 10 10 11 11 11 11 12 12 12 12 12 12 12 12 12 12 11 11 11 12 11 12 12 11 11 11 10 9 8 8 8 8 7 5 3 2 2 1 2 5 7 7
4 7 8 9 10 10 11 11 11 11 11 11 11 12 12 12 12 12 11 11 11 11 11 11 10 11 10 10 10 10 10 9 8 8 8 8 6 4 3 2 2 2 2 3 6 7
4 6 8 9 10 11 11 11 11 11 11 11 11 12 11 11 12 11 11 11 11 10 9 8 8 8 9 9 10 9 9 9 8 8 8 8 6 5 4 3 2 2 3 3 6 6
3 6 8 9 9 9 9 8 8 9 10 11 11 11 11 11 11 11 10 9 8 7 6 6 6 7 8 8 9 9 8 8 8 8 8 8 7 4 4 3 3 2 2 3 6 6
3 6 7 8 8 8 7 7 7 7 8 9 10 10 10 10 11 10 10 8 7 6 5 6 7 9 9 9 9 8 8 8 8 7 8 7 7 4 3 3 3 2 3 2 6 6
2 5 7 7 8 7 7 6 6 5 5 6 8 9 11 11 11 11 9 8 6 6 6 6 8 9 10 10 9 9 8 7 7 7 8 8 7 4 3 2 2 3 2 2 5 6
2 4 7 7 7 9 10 10 9 7 6 5 5 8 11 12 12 11 10 7 6 5 4 6 7 7 7 8 7 7 9 7 7 7 8 8 8 5 3 3 3 2 2 2 4 6
2 5 7 6 8 9 7 8 8 6 4 4 4 5 10 12 12 11 9 6 6 5 5 6 4 2 3 5 4 7 5 8 7 8 8 9 8 5 3 3 2 2 4 4 3 6
3 5 7 6 8 6 7 5 3 3 4 4 4 3 8 12 12 11 8 6 6 5 6 8 8 5 6 8 8 8 7 7 8 8 8 8 8 6 3 3 4 6 7 7 6 6
3 5 7 7 5 5 5 5 3 3 5 6 4 5 7 12 12 11 8 7 7 7 8 8 9 9 9 10 9 9 10 9 9 9 9 9 8 7 4 3 4 6 5 3 6 6
4 4 8 7 5 6 7 8 7 8 8 7 8 9 8 11 12 11 9 9 8 9 9 7 8 9 10 10 10 10 10 10 11 10 10 9 9 8 5 3 5 6 7 4 5 7
5 5 8 8 7 8 8 8 8 8 7 8 9 9 9 11 12 11 9 9 10 11 10 10 10 10 10 10 10 10 11 11 11 11 10 9 8 8 5 3 6 6 8 5 6 6
4 5 8 9 9 9 9 9 8 9 10 9 9 10 9 11 12 12 10 9 10 10 11 11 11 11 11 11 11 11 11 11 11 11 10 9 8 8 6 5 7 7 8 6 7 6
3 5 9 10 9 9 10 10 11 11 10 10 11 10 9 11 12 12 11 10 9 10 11 12 12 12 12 12 12 11 11 11 11 10 10 9 8 7 7 5 7 6 8 7 7 6
5 3 9 10 10 10 10 11 10 10 11 11 11 9 10 12 12 12 11 11 9 10 11 12 12 12 12 12 12 11 11 11 11 10 10 9 8 7 7 6 4 6 7 8 7 6
8 3 8 10 10 10 10 11 11 11 11 11 10 9 10 11 12 11 11 11 10 9 10 11 11 12 12 12 11 11 11 11 10 10 10 9 8 7 6 8 4 5 7 8 7 6
8 7 8 9 10 11 11 11 11 11 11 11 10 9 10 11 12 11 11 10 10 11 9 9 11 11 12 11 12 11 11 11 10 10 9 8 8 7 7 8 6 5 7 7 7 5
6 9 7 9 10 10 11 10 11 11 11 10 9 10 9 11 11 11 10 10 10 9 9 8 9 10 11 11 11 11 11 11 10 10 9 8 7 7 7 8 7 5 8 7 7 4
4 9 7 9 10 10 10 10 10 11 10 10 9 9 7 9 10 9 8 7 6 6 7 7 8 8 10 11 11 11 10 10 10 9 9 8 7 7 7 7 8 6 8 7 6 5
5 9 7 8 9 10 10 10 10 10 10 9 8 6 5 6 7 7 6 5 3 3 5 7 9 9 9 10 10 10 10 10 9 9 8 8 7 7 7 7 8 7 7 8 5 4
6 6 8 7 9 9 10 9 10 10 10 10 10 4 3 3 4 5 6 5 6 6 7 7 9 11 10 9 10 10 10 10 9 8 8 8 7 7 7 7 8 8 8 7 4 4
6 5 9 6 8 8 9 9 10 10 10 10 10 8 4 4 3 3 4 5 7 7 7 8 9 10 10 10 9 10 10 9 8 8 8 8 7 7 7 7 8 8 9 4 4 4
6 6 9 6 7 8 9 9 9 10 9 10 10 9 7 6 4 5 5 5 7 7 7 8 9 10 10 10 9 9 10 9 8 9 8 8 8 7 7 7 7 7 7 3 4 4
6 6 7 7 6 7 8 9 9 10 9 9 9 9 9 8 7 6 6 6 7 7 8 8 9 10 9 9 9 8 10 9 9 9 9 8 8 7 7 6 6 6 4 3 3 3
5 6 6 7 7 7 8 8 9 9 9 9 9 9 9 9 8 7 6 6 6 7 7 8 8 7 7 7 8 8 9 10 9 9 9 8 8 7 7 3 4 3 3 3 3 3
5 6 5 7 7 7 8 8 9 9 9 8 7 8 8 8 7 8 7 6 7 7 7 7 6 6 6 6 7 8 10 10 10 9 9 9 8 8 7 3 3 3 3 3 3 3
5 6 5 6 7 7 9 8 8 8 8 6 5 6 6 7 7 7 7 6 5 4 4 3 4 4 6 6 7 8 10 10 9 9 9 9 8 7 7 3 3 3 3 3 3 3
6 5 6 5 7 8 9 8 7 7 6 4 3 3 3 4 4 5 5 6 6 7 7 8 8 9 9 9 9 8 10 9 9 8 8 8 8 7 7 3 3 3 3 3 3 3
5 5 5 5 6 8 8 8 9 5 6 6 8 8 8 8 9 10 10 10 9 9 9 9 9 9 9 10 9 9 10 9 8 8 8 8 7 6 6 2 3 3 3 3 3 3
5 6 5 6 5 7 7 8 8 8 7 9 8 8 8 9 8 8 8 8 8 8 8 8 8 8 9 9 8 8 8 8 8 7 8 7 7 6 5 2 3 3 3 3 3 3
5 5 5 5 5 6 7 8 8 8 8 8 8 7 7 6 6 6 6 6 6 6 6 7 7 8 8 8 8 8 8 8 7 7 7 7 6 6 3 3 3 3 3 3 3 3
5 5 5 5 5 5 6 7 7 8 8 7 7 7 6 5 5 5 5 5 5 5 6 7 8 8 9 9 8 8 8 7 7 7 7 7 6 6 2 3 3 3 3 3 3 3
5 5 5 5 5 5 5 6 6 7 7 8 8 7 6 6 6 5 6 6 6 7 7 8 8 9 10 10 9 8 8 7 7 7 6 6 6 7 3 3 3 3 3 3 3 3
5 5 5 5 5 5 3 5 6 7 7 7 8 9 9 8 8 9 8 8 8 10 10 11 11 11 10 9 9 8 7 7 7 6 6 6 5 8 3 3 3 3 3 3 3 3
5 5 5 5 5 5 6 3 5 6 7 7 8 9 10 10 10 10 10 10 10 11 10 11 11 11 10 9 8 7 7 6 6 6 6 5 6 8 3 3 3 2 3 3 3 3
5 5 5 5 5 5 6 7 3 5 6 6 7 9 10 10 9 9 9 9 9 10 10 10 10 10 9 9 7 6 6 6 6 5 5 5 6 7 2 3 3 3 3 3 3 3
5 5 5 5 5 5 5 7 6 3 4 5 6 8 8 8 9 8 9 8 8 9 9 9 8 9 8 7 6 6 6 5 5 5 5 6 6 8 1 3 3 3 3 3 3 3
5 5 5 5 5 5 5 6 7 4 3 3 4 6 7 7 8 8 8 8 8 8 7 8 7 7 6 6 5 5 5 4 5 5 5 6 6 7 1 2 3 2 3 3 3 3
5 5 5 5 5 5 3 8 7 6 3 3 3 3 5 6 6 6 6 6 6 6 5 5 5 5 5 5 4 4 4 5 5 5 6 6 6 6 7 0 1 3 3 3 3 2
5 5 5 5 4 2 0 11 7 6 4 3 3 3 3 3 4 4 4 3 3 3 4 4 3 3 3 4 4 5 5 5 6 5 6 6 6 5 10 0 1 1 2 3 3 3
