P1
40 40
0000000000000000000000000000000000000000000000000000000000000000000000
0000000000000000000000000000000000000000000000000000000000000000000111
1100000000000000000000000000000000111111111110000000000000000000000000
0000111111111111100000000000000000000000001111111111111111100000000000
0000000000011111111111111111110000000000000000000011111111111111111111
1000000000000000000111111111111111111111110000000000000000111111111111
1111111111111000000000000000111111111111111111111111110000000000000111
1111111111111111111111111000000000000111111111111111111111111111100000
0000000111111111111111111111111111110000000000111111111111111111111111
1111110000000000111111111111111111111111111111000000000011111111111111
1111111111111111100000000011111111111111111111111111111110000000001111
1111111111111111111111111110000000001111111111111111111111111111111000
0000001111111111111111111111111111111000000000111111111111111111111111
1111111000000000111111111111111111111111111111100000000001111111111111
1111111111111111000000000001111111111111111111111111111100000000000111
1111111111111111111111111100000000000011111111111111111111111111100000
0000000011111111111111111111111111100000000000000111111111111111111111
1111000000000000000011111111111111111111111100000000000000000111111111
1111111111111000000000000000000011111111111111111111000000000000000000
0001111111111111111110000000000000000000000000111111111111110000000000
0000000000000000000111111110000000000000000000000000000000000000000000
0000000000000000000000000000000000000000000000000000000000000000000000
000000000000000000000000000000000000000000000000000000000000