P1
20 30
0000000000000000000000000000000000000000000000000000000000000000000000
0000000000000000110000000000000000011110000000000000000111000000000000
0000111000000000000000001110000000100000000111000000011100000001110000
0001110000001110000000011100000011100000000111000000111000000001110000
0011100000000111000000111000000001110000001110000000011100000001111110
0001110000000011111111111100000000011111111111000000000000011111110000
0000000000000111000000000000000001110000000000000000011100000000000000
0001110000000000000000011100000000000000000111000000000000000001110000
0000000000000111000000000000000000100000