P1
20 30
0000000000000000000000000000000000000000000000000100000000000000000011
1000000000000000011100000000000000000111000000000000000001110000000000
0000001110000000000000000011100000000000000001111000000000000000011100
0010000000000001110001110000000000111000011100000000001110000111000000
0001110000011100000000011100000111000000000111000001110000000011110000
0111010000001111111111111110000001111111111111100000000011111111110000
0000000000011100000000000000000111000000000000000001110000000000000000
0111000000000000000001110000000000000000011100000000000000000111000000
0000000000001000000000000000000000000000