P2
46 56
255
30 35 35 36 39 36 38 35 35 38 39 38 40 38 40 36 40 45 58 102 65 46 48 44 56 57 45 46 47 50 40 49 46 38 39 39 43 36 36 35 35 37 36 37 35 32 
36 30 32 40 35 36 39 36 40 38 37 38 36 40 41 46 87 99 111 129 119 109 90 76 82 82 83 77 77 59 65 60 56 41 46 47 39 39 37 35 38 34 38 33 33 33 
35 38 35 33 38 36 39 41 41 40 41 43 44 45 70 110 123 134 132 134 137 129 113 101 95 91 103 97 96 101 99 99 93 65 49 51 39 39 39 37 35 35 32 34 31 33 
34 39 38 35 36 36 39 36 41 40 38 58 107 126 124 127 136 134 143 151 151 143 137 127 118 109 110 105 102 104 110 99 98 89 76 44 52 46 42 39 36 37 35 37 36 38 
38 35 36 34 37 37 40 40 44 46 57 100 115 134 135 138 149 156 140 138 138 132 135 127 118 110 113 111 103 97 69 62 70 73 66 61 46 37 49 37 35 38 41 40 40 39 
39 37 38 37 37 38 36 39 55 75 132 143 131 128 143 139 148 137 122 120 132 134 131 143 134 115 104 112 113 85 81 55 61 65 62 58 54 42 49 44 39 38 38 37 35 36 
38 39 39 38 39 39 39 45 73 137 150 147 148 146 145 136 140 135 147 140 132 130 134 128 125 119 133 125 125 110 80 62 56 52 56 57 62 57 52 47 39 37 38 38 36 36 
39 39 38 36 41 39 35 45 129 151 161 148 146 148 143 152 136 137 139 131 126 125 118 143 125 128 135 141 120 131 101 84 53 59 66 58 72 62 55 64 60 41 37 37 39 37 
37 39 40 40 39 39 44 127 142 144 148 132 167 170 178 141 146 158 139 125 132 122 132 141 145 145 134 143 129 118 116 110 94 66 56 69 77 70 83 51 58 55 40 34 40 37 
39 38 40 42 40 51 113 137 138 141 143 172 180 191 133 150 164 139 133 139 137 137 157 140 145 150 165 157 133 117 134 123 117 100 64 79 84 78 88 78 53 67 47 40 38 34 
37 43 42 38 45 121 141 162 152 153 159 172 168 142 140 162 157 149 149 161 145 150 141 145 157 150 174 165 131 138 138 134 129 117 101 69 99 97 97 100 75 49 70 45 35 37 
37 36 38 37 59 139 133 153 157 156 143 165 165 164 156 147 147 157 160 160 166 162 162 150 174 179 151 170 136 152 147 141 140 131 124 89 76 105 106 117 105 72 46 52 46 43 
43 42 39 38 143 140 143 145 147 147 138 163 170 162 163 159 179 166 182 162 173 167 170 176 165 175 147 152 157 160 155 152 141 138 133 115 94 135 130 118 118 113 52 57 45 42 
45 40 44 86 126 137 140 142 148 143 158 169 166 166 166 168 167 162 165 170 162 162 168 168 178 148 167 156 164 159 157 156 151 145 140 132 107 106 124 130 112 108 84 73 39 47 
43 38 46 123 125 127 127 144 141 147 157 156 151 146 142 140 166 170 166 171 168 161 174 180 160 164 167 166 164 160 154 153 154 155 148 142 122 108 145 127 124 107 126 83 41 49 
40 46 98 135 138 119 119 147 152 157 156 156 151 140 150 153 146 155 154 152 164 175 173 174 178 174 169 166 161 155 156 158 155 156 150 145 141 124 144 122 119 109 124 116 58 42 
41 67 115 127 123 119 122 141 143 157 156 155 159 151 147 170 174 176 175 173 176 182 181 180 174 177 168 167 161 154 155 156 156 160 150 145 154 125 128 126 139 129 115 126 77 40 
55 97 113 127 131 127 136 152 158 169 168 157 144 176 186 187 185 187 182 184 177 182 181 183 182 182 175 172 170 161 165 160 157 162 154 144 156 122 125 132 126 135 129 114 121 42 
49 107 130 140 135 129 130 156 168 170 177 173 184 188 191 189 188 188 195 184 184 192 193 193 191 192 171 175 166 168 165 163 160 159 152 152 150 136 154 144 139 122 137 119 108 27 
44 124 136 131 135 161 140 177 163 169 178 183 182 188 187 183 186 186 197 195 175 192 196 188 186 199 176 170 164 167 163 163 158 156 150 146 146 141 155 146 126 135 128 129 115 52 
50 136 115 153 140 169 138 170 164 169 174 174 179 180 177 170 175 169 164 161 169 179 189 181 152 162 140 136 119 126 130 130 147 146 147 142 143 122 152 148 140 132 119 119 109 76 
49 141 133 136 133 184 155 169 168 167 170 163 159 148 137 127 123 114 118 131 148 156 167 151 133 134 106 98 90 87 90 101 118 122 140 141 140 110 124 152 138 141 122 97 109 59 
106 127 143 132 144 202 163 163 166 162 163 152 127 74 68 67 62 82 101 122 135 163 168 147 111 101 90 79 71 79 79 95 99 105 96 118 130 122 106 144 149 131 119 97 106 54 
104 141 148 132 138 202 115 161 151 122 125 128 139 195 184 145 139 131 117 79 107 138 155 150 114 76 100 101 109 182 154 165 166 166 123 128 119 137 102 147 145 139 132 109 105 58 
75 142 145 134 163 162 102 110 192 145 146 165 180 204 238 130 140 127 115 129 158 171 159 160 78 125 113 155 169 228 134 145 144 150 140 134 107 98 97 127 151 149 117 127 129 59 
92 126 154 138 164 142 129 170 211 147 139 180 148 184 136 83 95 93 122 162 134 201 93 89 115 139 127 119 152 149 152 94 101 111 137 125 95 156 125 95 146 141 129 121 123 103 
115 120 148 153 151 91 153 124 172 196 145 124 134 166 98 58 90 82 165 154 101 123 90 98 109 139 168 126 124 152 150 107 114 116 124 147 200 135 41 116 144 132 137 119 123 75 
91 124 154 146 105 91 116 95 119 243 153 118 131 149 135 127 110 109 140 161 117 183 159 156 82 132 148 116 111 123 129 123 122 111 114 143 123 105 43 78 121 129 134 123 131 42 
35 142 167 136 113 72 101 44 131 184 174 148 138 149 122 112 114 134 143 134 125 178 158 158 78 130 144 144 131 130 116 114 126 137 143 154 142 111 83 116 107 121 130 134 131 62 
45 141 179 132 128 121 81 41 166 165 176 167 179 168 143 139 139 144 149 65 156 172 154 147 136 90 144 137 145 148 146 140 145 147 147 154 138 106 81 124 105 123 127 147 130 33 
43 84 177 147 145 107 61 29 127 160 163 163 172 161 146 147 149 147 170 113 165 164 154 143 141 94 156 140 142 141 143 147 149 148 156 166 133 56 91 125 107 124 128 131 126 20 
40 35 154 140 122 101 112 70 51 159 176 168 159 148 143 147 144 151 91 109 169 167 173 149 143 136 72 151 140 137 136 141 149 154 169 173 140 139 131 123 93 125 130 116 126 19 
42 22 114 167 129 111 166 193 46 127 172 176 153 149 149 157 154 119 119 162 185 184 205 156 189 140 147 68 144 138 135 144 135 148 170 160 160 92 127 118 82 105 126 105 46 30 
37 34 103 101 144 122 117 85 214 46 168 177 165 152 163 154 97 114 129 171 148 176 156 138 115 126 157 157 84 70 106 131 135 147 140 112 128 134 120 110 60 61 107 126 22 29 
43 40 23 128 159 123 89 143 134 114 122 124 133 117 100 93 122 158 168 148 81 150 126 113 112 70 110 152 102 154 148 117 113 146 159 145 142 129 121 123 101 53 90 126 19 31 
36 37 38 153 163 111 180 139 146 158 169 173 172 154 169 186 178 172 161 111 30 73 115 94 98 22 40 101 73 153 155 165 167 169 150 135 136 127 117 142 95 56 112 113 28 31 
42 38 38 118 157 143 187 128 148 148 165 165 179 189 183 176 170 184 158 111 143 141 125 85 92 112 106 113 140 154 157 158 160 157 160 145 130 122 113 138 102 130 123 77 31 31 
36 40 40 85 166 144 120 124 138 150 157 179 184 186 184 178 182 183 169 160 161 174 162 127 142 152 149 157 150 161 159 160 157 159 155 138 129 120 108 131 129 130 125 21 27 27 
38 35 37 21 150 171 168 114 138 149 161 179 179 181 184 181 183 172 165 169 165 170 157 165 168 141 156 145 152 157 166 159 152 148 146 134 125 118 110 131 127 127 104 27 28 27 
38 39 39 23 165 154 176 109 140 148 159 168 178 182 185 183 173 165 168 169 168 175 167 167 173 150 156 145 145 158 161 163 154 145 140 128 122 117 109 120 124 122 26 27 27 24 
39 37 35 31 60 170 158 124 151 147 157 169 177 181 179 188 170 171 172 181 188 173 163 164 146 154 163 154 150 154 154 155 143 148 141 131 121 120 113 90 71 26 28 31 29 28 
40 40 34 36 31 77 149 130 144 149 156 160 165 180 170 178 174 170 176 167 119 95 99 103 76 89 118 141 151 144 158 143 149 150 133 130 124 119 101 78 23 27 27 29 31 29 
40 34 39 38 32 33 26 16 145 152 150 155 165 180 173 174 166 169 129 84 75 68 63 33 28 49 60 69 103 123 125 129 147 148 135 130 121 122 73 60 28 29 29 26 26 26 
39 40 38 35 35 32 34 25 147 152 152 156 162 170 181 167 145 122 83 114 128 111 121 112 120 122 107 97 102 94 118 138 148 146 127 127 116 121 46 37 25 25 26 27 26 26 
40 36 35 37 32 36 34 32 122 147 149 150 157 175 173 169 160 145 163 123 116 123 121 130 108 117 108 128 143 130 122 133 142 134 133 124 115 128 43 25 28 25 24 25 27 28 
42 42 37 37 33 34 31 27 15 137 155 149 153 158 169 159 141 167 165 163 141 121 86 90 93 111 129 131 129 138 127 121 134 123 126 120 119 57 26 27 27 26 27 28 27 28 
39 40 33 37 34 35 31 28 35 99 147 137 153 151 151 147 149 155 146 148 147 117 65 54 98 103 101 117 121 126 131 122 122 121 123 119 116 28 28 22 25 27 25 25 23 23 
41 34 42 38 36 37 36 30 36 27 141 139 149 146 145 150 159 142 134 137 117 82 64 85 81 86 96 103 113 121 112 117 110 111 121 116 119 18 29 26 25 27 27 28 23 24 
39 37 37 38 38 32 38 34 33 33 25 136 139 143 145 141 137 125 135 119 112 97 94 106 110 128 121 102 116 109 104 118 108 117 121 115 125 17 28 23 27 28 26 27 23 25 
40 40 39 36 37 34 30 33 35 36 26 137 140 145 142 142 142 140 137 123 129 140 142 151 149 143 138 120 116 121 114 112 112 117 117 117 125 15 27 26 25 26 25 26 23 25 
40 40 42 43 37 39 34 33 35 34 39 143 117 137 140 131 146 155 147 138 149 152 157 153 154 140 130 124 138 114 116 112 107 114 110 119 125 19 31 27 26 27 26 26 23 27 
39 40 38 38 39 39 32 36 32 35 35 131 128 122 132 129 143 152 151 152 145 159 151 147 129 123 121 112 118 122 107 110 108 108 120 124 120 107 19 31 30 25 29 28 30 26 
42 39 42 40 38 42 35 35 33 34 36 124 139 129 112 127 134 145 144 142 130 138 121 120 111 105 94 103 114 114 111 111 104 114 118 120 123 33 134 22 27 28 30 26 24 26 
42 40 41 41 42 40 34 36 34 19 148 94 134 133 131 117 123 126 135 130 112 112 106 96 83 80 78 95 100 99 105 104 110 112 125 120 126 20 103 110 30 27 26 29 29 30 
38 42 39 35 40 37 38 33 39 149 92 58 130 137 125 129 118 112 109 112 104 91 87 75 71 64 74 84 90 98 101 108 110 114 121 122 128 1 81 157 31 27 28 26 29 30 
40 36 37 39 38 38 37 37 24 148 118 47 141 134 133 130 122 115 108 102 91 87 76 76 79 76 78 83 92 102 107 109 111 115 124 124 118 17 105 168 165 21 30 27 31 25 
