P2
46 56
255
54 60 52 53 60 61 57 64 56 40 27 33 35 39 34 29 35 39 36 30 32 25 29 24 29 30 31 26 34 29 27 31 34 36 50 55 54 53 57 52 56 55 48 55 53 50 
58 57 55 57 59 60 62 59 35 37 28 32 28 37 30 33 37 32 43 35 37 42 38 24 28 41 42 38 34 33 24 39 36 31 31 35 56 58 57 54 60 53 54 52 53 55 
59 52 58 59 58 58 60 40 40 36 31 25 23 41 52 38 47 50 49 50 55 56 58 54 48 38 34 37 36 24 35 32 30 31 30 37 42 45 55 57 51 56 58 56 56 55 
57 58 62 58 58 55 38 32 35 31 35 34 51 67 59 71 60 67 68 71 78 76 78 77 74 73 64 54 47 48 32 32 29 30 39 33 33 29 42 64 56 51 56 58 53 55 
61 61 56 59 55 40 46 31 34 48 54 66 79 81 83 82 79 85 88 81 89 91 88 85 88 87 83 74 72 65 56 44 41 36 34 37 27 33 33 43 52 55 56 58 55 57 
55 60 56 56 36 37 40 40 51 78 81 89 92 92 91 90 91 91 101 97 93 102 97 94 89 90 85 82 81 80 76 67 58 47 28 32 28 30 35 32 37 59 55 59 53 57 
63 63 65 43 39 41 59 69 86 87 92 93 93 92 102 107 111 103 114 115 110 107 105 97 105 102 93 89 88 81 77 73 64 64 54 38 31 31 33 28 31 49 60 57 59 59 
61 60 51 33 35 60 78 88 93 97 103 108 104 111 113 117 125 129 127 129 121 121 112 118 103 111 109 95 94 88 91 78 78 78 64 54 35 31 35 24 33 37 58 59 60 57 
58 57 33 34 68 75 92 94 95 101 108 103 107 113 122 127 129 130 132 132 131 129 133 123 122 126 104 105 101 94 95 91 79 84 76 65 45 34 32 36 34 30 41 64 56 56 
65 40 35 36 81 88 98 98 107 112 108 110 120 121 132 143 146 141 147 137 130 124 130 126 130 113 120 109 105 100 99 99 90 85 82 78 57 44 25 32 31 37 33 41 60 57 
58 34 35 70 86 93 99 107 108 112 113 120 129 122 136 141 140 141 141 146 148 124 127 133 128 118 112 109 110 104 99 95 105 97 89 83 69 52 26 33 31 32 33 37 56 56 
36 30 44 88 89 95 112 114 113 115 117 117 125 136 139 145 149 150 141 143 141 131 136 134 131 124 118 114 109 106 103 98 102 100 92 84 75 52 45 34 33 34 33 31 52 57 
31 41 64 88 96 109 103 116 122 119 121 120 133 138 143 144 144 142 145 146 142 133 127 127 125 116 115 114 105 105 96 99 103 99 103 94 88 65 58 38 36 29 33 38 43 58 
35 39 67 99 108 115 111 117 116 120 120 119 128 130 135 143 138 137 143 140 136 137 137 133 129 129 123 121 110 103 101 103 94 103 101 101 91 86 72 39 31 36 28 30 36 51 
37 44 86 100 115 119 120 119 116 122 118 122 129 128 142 140 141 142 140 141 140 143 141 137 136 146 137 131 125 115 110 103 105 101 99 102 102 97 79 61 40 35 35 33 29 57 
35 60 91 109 116 122 118 121 123 123 136 141 140 152 149 148 150 159 149 150 156 160 165 160 173 166 166 127 124 115 104 90 80 99 99 99 89 93 86 71 56 40 29 30 26 51 
28 65 96 115 119 120 125 123 133 133 139 150 159 163 165 149 161 168 165 177 180 184 167 160 146 139 121 108 100 76 85 91 80 72 79 95 85 89 91 84 58 37 30 32 22 40 
33 59 103 107 117 120 119 118 129 129 131 148 149 152 152 152 159 153 159 164 172 149 124 133 113 87 65 57 60 61 71 62 73 79 77 76 85 88 89 78 66 44 34 29 27 37 
29 77 98 114 108 100 99 107 108 103 95 101 100 96 116 134 141 137 135 142 131 119 91 88 83 72 68 57 75 79 99 102 100 92 79 88 74 82 82 82 69 43 35 27 31 27 
21 82 92 104 75 96 92 90 83 65 70 71 77 73 79 98 123 122 121 124 118 100 80 76 72 63 69 90 112 115 117 113 111 105 105 102 99 72 88 85 82 52 34 29 28 28 
29 85 105 86 107 114 108 109 102 86 74 68 72 74 80 83 95 110 113 110 99 92 77 68 63 77 89 114 121 108 97 93 101 109 112 107 100 85 85 82 80 50 36 22 28 32 
36 74 87 96 118 127 128 121 120 120 116 108 90 81 73 88 109 125 115 132 117 100 87 56 72 64 80 92 122 122 120 100 89 79 88 101 96 89 91 85 78 49 27 23 34 53 
33 68 76 109 116 129 143 129 93 89 84 73 58 79 94 84 125 141 127 147 123 110 83 56 103 77 84 85 55 60 35 46 57 93 97 69 93 88 94 88 77 56 28 28 81 22 
42 76 94 102 119 126 98 110 116 86 80 81 79 67 67 79 114 137 134 145 118 109 77 101 108 65 37 92 46 39 30 24 62 29 45 60 80 99 101 94 81 66 35 60 88 78 
44 72 104 103 114 56 127 93 42 14 87 23 90 47 60 105 109 130 129 136 124 117 95 82 113 102 92 95 108 120 76 79 83 94 82 91 100 100 104 98 77 71 52 88 78 110 
54 72 108 106 102 94 44 33 164 25 37 37 98 108 96 110 116 121 126 134 126 121 105 94 89 95 97 101 108 104 102 97 99 91 61 102 105 108 100 102 89 72 72 49 71 95 
49 72 109 120 91 74 81 107 90 81 114 109 90 89 105 116 119 127 132 129 124 123 114 105 99 108 118 97 76 44 41 41 44 98 119 125 116 111 112 108 97 83 60 21 46 62 
35 71 114 113 116 89 113 133 112 100 66 58 88 122 119 124 115 131 137 138 136 118 111 123 117 111 116 117 109 110 114 111 109 121 124 130 111 117 114 109 100 81 61 24 25 60 
27 74 110 112 126 118 116 101 86 87 97 116 127 132 125 118 115 131 131 135 129 121 119 113 120 125 120 120 112 117 111 106 112 116 122 126 124 119 120 104 103 92 70 46 25 58 
26 88 105 117 131 135 127 124 128 123 119 124 124 131 126 128 126 132 134 139 129 128 124 109 113 112 100 103 126 131 131 128 126 127 131 131 123 123 120 106 96 89 74 81 38 62 
37 95 110 122 133 134 128 123 110 115 126 124 132 138 131 120 125 132 151 178 164 137 122 113 111 116 122 82 94 116 130 142 139 131 128 130 128 122 120 99 93 86 72 52 66 101 
46 95 115 132 136 132 125 126 124 133 134 136 133 109 118 120 134 153 163 192 189 133 129 134 128 138 141 103 106 109 124 138 146 136 128 124 128 122 106 92 94 86 72 57 72 86 
38 88 121 131 131 134 131 135 138 140 135 129 116 132 139 139 171 155 139 143 126 121 113 113 117 116 115 89 142 112 113 129 130 125 112 121 124 106 93 81 89 86 68 65 55 94 
42 80 120 126 133 143 141 139 132 134 133 138 109 166 155 145 117 129 118 109 103 95 87 60 43 34 44 49 136 134 119 115 112 106 97 100 97 90 77 76 83 88 69 69 57 94 
65 81 116 126 139 148 149 140 133 136 137 130 141 110 73 59 66 104 98 84 77 79 36 28 39 51 42 51 128 132 112 86 87 79 89 96 81 73 58 61 80 79 73 63 43 83 
99 80 106 113 136 153 142 136 129 129 135 135 136 86 62 52 67 48 64 59 43 66 18 64 89 78 85 103 122 127 121 94 76 70 71 80 83 63 47 73 80 85 78 64 52 38 
108 86 100 104 114 125 137 137 119 117 127 130 142 115 101 89 92 72 75 69 30 74 132 117 114 106 97 112 111 103 107 109 108 84 69 75 72 65 55 85 83 73 74 95 52 34 
74 89 101 94 93 105 115 122 122 109 113 130 141 139 140 121 123 125 130 125 104 105 129 118 113 102 101 102 114 111 112 103 110 92 74 94 81 66 76 85 81 72 66 64 59 36 
47 93 102 100 89 88 97 103 116 108 111 121 127 132 122 135 124 131 134 130 138 137 119 107 99 107 106 116 114 114 115 108 97 95 80 75 85 69 89 86 81 76 69 60 51 34 
49 92 94 99 95 92 90 84 104 131 83 108 123 132 124 137 125 114 112 92 108 107 86 82 79 89 79 80 76 75 74 117 93 95 86 86 90 77 87 85 86 72 59 65 48 38 
56 69 107 97 98 102 99 86 110 124 121 118 139 125 134 108 108 102 108 85 102 70 90 61 74 64 78 63 50 41 15 87 66 74 87 98 84 82 78 82 75 56 56 58 36 36 
52 50 109 106 102 100 101 112 114 104 106 125 104 95 80 103 90 82 50 72 100 73 64 38 29 42 46 86 115 152 94 88 84 68 75 83 81 80 70 66 64 57 60 58 32 34 
49 35 102 112 99 99 105 115 120 101 63 117 28 95 129 60 73 50 65 58 87 55 64 76 67 103 148 98 77 53 110 89 96 76 74 77 67 76 75 72 59 56 57 63 27 34 
48 45 94 106 108 100 95 112 116 99 63 89 102 125 156 107 139 110 72 89 97 22 117 129 127 86 99 77 77 107 88 95 96 83 60 71 69 64 69 59 60 53 59 51 33 34 
49 45 56 103 105 102 104 100 106 88 82 114 136 120 92 126 133 126 144 147 132 149 197 208 89 89 83 70 91 86 90 91 93 78 55 71 65 64 65 63 54 54 58 30 36 32 
45 48 33 94 100 99 91 95 104 69 72 118 99 117 110 98 106 96 107 114 113 109 93 75 70 74 73 81 77 85 77 83 89 70 67 62 57 58 51 58 55 58 63 34 33 34 
51 46 51 81 100 97 99 86 92 82 73 115 119 106 98 101 97 81 82 65 64 61 62 57 56 58 68 63 87 73 76 80 68 82 66 60 47 54 58 51 58 63 38 39 41 40 
46 46 48 42 94 95 95 86 79 87 80 100 111 95 101 92 87 86 80 72 70 79 66 61 62 57 63 69 62 67 72 68 70 79 63 61 50 54 57 55 60 64 34 34 34 34 
49 42 47 47 84 99 88 83 75 83 81 92 97 94 87 90 91 83 78 64 63 60 51 48 41 40 42 47 56 66 67 69 93 84 64 57 45 50 50 59 64 37 34 40 38 38 
47 45 46 47 36 96 90 83 77 87 81 79 92 96 92 92 79 69 53 45 42 42 39 39 32 36 40 54 62 67 76 75 91 95 71 48 46 44 51 66 54 35 35 35 36 36 
47 45 43 46 49 188 87 88 79 75 84 68 92 106 96 87 82 66 58 52 46 41 38 39 42 65 87 79 83 92 72 106 81 93 52 33 45 50 69 63 51 75 36 34 39 34 
50 50 50 51 25 231 129 84 79 57 79 84 84 111 108 94 94 86 83 86 82 82 82 94 93 101 105 97 102 97 75 99 99 57 32 34 33 58 69 58 39 91 89 43 36 33 
95 112 124 88 66 172 212 94 88 80 61 58 65 100 115 109 109 110 108 110 113 116 110 116 112 131 124 104 97 85 88 85 68 35 42 31 50 63 57 55 62 153 46 83 83 98 
128 119 69 79 148 70 228 221 56 91 79 46 72 88 109 80 94 85 74 113 111 108 95 109 100 103 90 93 84 77 60 56 37 41 32 41 61 53 57 61 98 157 100 109 122 134 
151 155 169 163 106 108 76 222 225 70 84 76 41 58 69 55 67 63 70 71 57 69 60 70 58 71 93 56 69 49 46 30 33 34 34 53 63 54 65 100 180 114 51 88 96 86 
99 209 139 85 89 124 116 132 208 221 74 86 54 45 49 38 58 43 46 55 54 53 55 52 40 57 52 57 44 38 38 36 24 35 51 60 69 88 104 96 194 66 62 106 137 154 
