P2
46 56
255
50 61 57 60 49 52 55 61 59 55 59 55 49 40 33 42 32 29 30 34 17 31 32 34 36 21 28 37 29 37 48 52 57 62 56 52 53 54 46 52 54 53 49 52 47 50 
54 56 54 54 55 57 59 56 58 56 58 43 41 36 33 31 28 25 26 31 27 30 37 28 33 39 32 31 33 34 31 36 45 58 56 55 53 60 56 53 56 51 48 54 52 57 
53 56 56 56 59 62 59 59 60 55 46 45 37 29 37 36 30 29 29 37 36 30 33 34 31 27 26 30 35 33 36 37 34 31 54 57 53 46 57 52 56 53 55 58 54 56 
56 58 56 54 62 58 62 60 47 40 33 34 26 34 41 29 34 35 37 37 30 36 34 34 38 38 38 36 31 30 34 27 39 35 39 52 59 60 56 57 55 56 53 50 52 56 
60 54 61 59 60 61 62 41 41 35 33 28 28 32 31 34 43 50 37 36 38 48 49 56 54 49 40 41 40 29 35 33 30 35 34 31 41 53 60 59 53 57 55 58 52 51 
59 62 60 61 58 62 43 33 30 36 34 34 41 39 33 50 56 47 64 63 68 64 67 67 72 70 67 65 63 49 39 38 35 37 28 29 34 39 52 58 58 57 54 55 58 52 
59 57 61 58 64 49 41 39 31 37 38 42 47 59 66 80 82 91 88 78 70 78 83 86 86 87 79 80 74 71 68 68 56 39 38 30 30 32 37 50 58 61 55 57 56 56 
64 62 63 59 42 33 30 40 26 45 50 58 79 86 93 94 97 100 95 103 93 88 102 96 100 87 90 86 86 78 76 79 74 59 55 33 28 31 31 30 49 55 56 59 58 57 
59 63 65 37 38 32 34 41 58 75 76 93 96 96 97 104 111 104 114 114 116 108 104 108 107 102 97 98 85 89 87 77 77 75 68 57 40 30 31 31 36 52 61 57 58 57 
63 56 54 38 36 28 44 71 85 81 95 96 101 102 113 112 114 111 120 120 131 136 121 126 117 118 102 110 97 102 97 93 82 83 68 68 59 48 28 30 38 31 58 61 59 55 
57 54 31 40 34 35 71 82 91 104 99 101 113 111 111 117 124 133 132 149 133 140 132 128 124 128 115 111 105 107 104 95 91 89 82 74 71 57 42 29 26 34 31 58 53 55 
65 38 40 36 33 55 74 88 88 102 102 105 115 116 120 128 134 136 148 157 150 147 144 137 131 119 124 114 124 104 100 94 97 91 93 84 79 72 53 41 33 32 29 37 58 56 
63 40 25 31 57 79 89 92 94 106 106 116 118 124 122 134 141 131 147 152 145 143 148 136 132 119 122 116 115 107 102 101 99 96 90 93 81 82 67 50 32 33 25 33 56 58 
47 40 40 35 66 87 93 103 106 115 113 117 122 119 120 132 138 144 146 149 151 145 146 138 132 129 128 120 116 106 109 102 99 98 98 96 93 84 71 55 47 27 30 30 53 54 
39 40 41 43 65 89 103 109 117 114 117 120 122 125 131 138 150 147 160 148 136 145 138 144 135 129 127 121 118 104 102 98 99 101 98 96 90 94 86 67 62 33 34 34 41 57 
43 35 42 60 84 98 112 117 119 116 115 118 123 128 125 132 139 137 142 136 139 142 143 135 136 136 132 122 123 115 111 108 104 99 97 98 100 96 94 83 65 34 35 31 34 56 
36 31 44 59 87 106 111 120 116 118 114 118 125 129 136 136 141 145 147 144 139 143 145 133 140 142 140 140 132 132 123 119 116 106 105 98 101 96 96 88 73 59 25 28 30 60 
40 45 32 75 98 122 118 117 114 121 125 127 135 131 147 152 155 166 161 153 143 156 157 155 159 149 162 159 164 153 137 119 116 105 93 85 77 101 98 85 78 65 28 29 29 52 
36 36 47 78 105 117 116 118 120 122 126 134 142 141 149 163 176 174 181 160 160 165 169 174 175 182 152 150 147 118 109 92 77 71 73 90 78 70 91 83 77 76 34 28 34 37 
42 37 52 81 103 121 129 126 108 119 115 112 120 131 127 132 135 141 143 146 154 151 148 147 153 145 115 121 89 74 56 48 56 60 72 65 66 67 69 74 79 71 39 30 23 37 
30 29 55 91 103 120 125 106 93 98 94 97 79 77 77 69 84 75 85 104 121 119 120 129 118 109 90 87 71 64 58 50 64 78 96 97 101 88 95 71 83 72 45 32 24 25 
33 35 57 96 102 114 100 98 102 97 89 85 76 67 51 60 64 66 61 78 93 110 118 119 111 98 80 61 52 56 67 97 113 107 109 105 111 111 108 95 66 76 61 29 22 28 
27 41 35 86 98 108 74 116 117 118 104 108 113 108 102 90 74 72 77 85 93 102 106 105 96 92 81 59 66 81 88 85 87 77 74 67 94 115 109 98 84 77 67 29 26 49 
38 31 36 94 110 93 121 119 127 122 127 123 115 118 103 100 92 89 81 78 113 125 122 138 115 111 91 63 80 56 86 116 119 72 87 98 99 63 86 87 83 72 74 23 41 32 
41 41 29 95 107 112 111 124 136 135 100 85 114 124 100 87 58 57 84 82 117 136 134 152 119 118 93 97 72 73 49 43 87 10 20 40 37 70 80 85 82 88 77 23 73 15 
51 38 29 91 109 110 104 119 105 101 131 93 35 85 24 59 41 60 85 91 108 135 129 144 121 118 85 101 73 31 151 155 51 37 27 129 26 39 48 83 98 99 77 36 112 12 
66 46 27 92 112 120 107 108 100 103 26 89 27 29 35 132 59 90 79 117 125 123 134 131 123 114 104 86 111 114 106 104 111 78 67 82 108 99 77 99 100 102 85 71 96 67 
43 52 28 95 115 128 114 95 88 47 49 108 89 91 135 129 96 93 107 110 128 130 134 135 136 121 111 104 97 102 99 73 68 77 81 83 76 70 98 103 109 103 95 66 67 90 
29 69 46 100 114 125 118 123 105 118 132 105 94 87 87 81 94 114 119 128 123 127 133 141 134 122 116 111 102 113 121 103 95 76 69 76 95 112 113 112 111 109 101 82 30 70 
16 108 127 97 109 121 125 126 118 108 92 83 67 65 87 109 117 127 130 123 122 129 140 145 141 130 116 108 117 104 115 117 110 109 108 104 117 117 117 117 122 115 107 86 25 40 
45 126 98 92 105 118 125 133 133 128 126 124 122 117 125 128 129 127 127 127 133 132 134 138 138 123 120 109 102 120 115 124 123 120 120 104 112 117 117 115 117 115 97 85 54 32 
89 113 78 93 113 122 127 130 139 134 131 122 119 124 121 126 128 131 134 131 128 132 131 138 156 145 138 116 107 102 111 87 121 126 130 125 125 123 126 123 119 116 101 85 72 77 
101 92 54 93 108 124 128 136 139 133 125 129 123 129 127 135 146 125 130 118 120 132 152 189 207 191 140 134 118 115 120 117 102 118 131 132 131 123 122 132 132 115 100 85 71 41 
78 92 45 92 111 127 140 135 134 128 131 134 132 141 147 135 123 125 130 133 130 157 150 157 148 135 128 140 121 132 138 142 115 114 122 119 126 116 119 118 120 114 91 83 75 68 
92 120 80 91 109 127 126 130 142 144 136 135 145 139 138 126 108 141 174 154 143 129 136 127 116 103 106 89 87 86 82 82 101 125 123 121 112 105 103 114 115 93 76 84 70 50 
101 111 77 97 109 125 129 135 147 145 139 135 134 137 129 110 126 104 108 78 77 89 106 104 80 83 81 40 21 26 28 58 47 121 111 109 97 92 90 100 90 81 64 83 72 61 
107 101 78 101 104 113 127 141 140 137 128 123 125 135 128 126 147 67 85 34 49 34 32 74 60 48 51 25 53 70 66 89 76 118 109 86 77 75 80 88 84 66 56 74 72 66 
117 117 86 99 106 106 111 118 125 127 128 117 120 119 127 133 143 122 117 112 104 85 81 53 42 34 41 68 102 102 95 90 116 117 111 97 70 69 77 80 77 66 61 67 71 68 
50 92 76 100 106 112 102 99 113 115 114 114 113 112 124 127 131 125 142 123 127 120 135 136 68 66 103 108 107 108 105 105 110 107 107 104 82 76 73 85 76 61 67 73 66 68 
44 50 76 105 104 109 103 90 92 102 111 117 106 100 103 99 121 131 127 117 119 128 127 122 125 115 123 116 111 110 112 117 120 108 111 97 96 95 69 75 84 67 81 75 64 62 
45 52 59 108 102 108 106 97 95 102 104 117 101 99 48 117 131 121 129 128 124 132 115 113 108 127 97 90 95 95 92 97 92 82 84 83 97 86 80 81 88 62 83 77 59 58 
51 49 40 103 111 97 104 100 101 94 105 117 109 67 122 126 137 131 141 129 103 113 117 114 116 121 95 95 84 82 88 90 69 48 20 27 82 77 88 91 84 70 73 67 54 38 
49 49 28 95 107 105 105 97 88 100 107 122 89 91 68 126 118 93 101 103 108 102 88 79 82 84 61 69 43 31 35 34 75 136 119 110 95 85 69 78 75 61 65 57 56 27 
48 48 45 93 104 103 88 101 99 106 118 119 85 58 85 48 58 71 72 68 52 38 32 51 51 41 47 67 108 63 104 107 101 82 94 111 104 93 76 69 67 60 66 57 58 31 
44 48 53 73 99 98 104 98 94 109 117 111 69 47 109 120 116 131 128 128 95 108 90 148 120 108 95 112 122 112 94 113 114 80 114 94 103 90 64 74 60 55 60 53 38 37 
45 48 48 32 88 97 99 99 103 94 104 101 69 59 119 121 121 130 129 140 122 124 135 133 142 147 161 186 171 94 85 94 80 106 97 97 97 85 61 64 51 56 53 55 35 34 
41 46 49 56 83 93 97 100 86 92 96 96 46 66 120 119 119 126 118 142 115 108 139 160 163 154 125 109 80 66 64 73 85 89 86 85 86 67 76 56 52 48 58 36 30 38 
46 46 48 47 38 88 97 96 89 88 87 85 70 72 113 113 107 114 112 107 92 95 87 88 90 88 80 68 55 55 55 69 77 80 82 80 67 85 59 49 51 50 58 37 39 35 
55 46 45 49 50 75 94 93 93 79 80 78 85 81 92 109 101 94 104 100 97 80 69 57 50 58 52 50 45 47 49 63 67 63 65 67 77 84 55 50 46 60 35 33 36 34 
48 39 50 48 44 22 84 90 84 80 82 76 79 81 93 91 99 100 96 91 76 75 73 52 47 54 48 46 40 37 34 38 47 63 72 68 94 76 62 39 49 57 33 33 38 34 
46 43 43 52 54 65 224 72 90 82 77 66 85 80 81 84 93 98 87 83 64 51 41 39 38 36 35 33 35 26 38 58 58 69 70 92 86 78 51 35 59 47 35 36 35 30 
47 45 48 46 47 130 210 122 84 84 77 71 61 79 45 79 102 106 94 95 83 77 76 60 56 48 43 56 58 79 81 75 90 88 84 92 69 53 40 37 49 96 42 31 32 28 
41 45 46 46 41 114 222 222 81 85 82 71 66 72 50 64 104 116 93 107 100 97 103 117 115 110 104 98 106 111 104 95 99 95 71 68 51 35 37 60 32 98 75 91 96 92 
164 186 138 129 208 127 137 215 226 81 82 83 74 63 52 56 79 99 105 96 106 87 87 123 116 111 98 96 104 97 81 82 87 76 64 51 44 37 46 42 71 161 103 133 143 122 
204 210 182 192 97 129 117 176 214 213 102 83 90 75 64 45 51 78 73 52 60 46 55 90 53 64 67 60 74 69 85 62 67 48 44 36 25 31 46 76 98 159 55 93 76 78 
116 196 101 119 101 116 112 110 157 208 206 100 71 83 78 63 34 43 43 39 38 34 41 55 39 46 55 47 41 50 50 54 35 32 33 32 32 74 72 81 186 101 92 93 140 77 
