P2
46 56
15
6 6 6 6 6 6 6 6 6 6 6 6 5 5 5 5 4 5 4 5 6 5 4 3 3 2 3 3 4 5 5 5 5 5 5 5 6 5 5 5 5 5 5 5 6 5
6 6 6 6 5 6 6 6 6 5 5 5 5 4 3 3 5 4 4 3 4 4 3 2 3 4 4 3 3 3 3 3 3 4 5 5 6 5 5 5 6 5 5 5 5 5
6 6 6 6 5 5 5 4 4 4 4 4 3 2 2 3 3 4 3 2 2 3 3 3 3 4 4 4 3 3 3 3 3 3 4 5 6 6 5 5 5 6 6 5 5 5
6 6 6 6 5 4 4 4 4 3 2 3 2 2 3 3 4 4 4 2 3 3 4 4 5 4 4 5 5 4 3 2 2 2 2 3 3 5 5 6 6 5 5 5 5 5
6 6 5 6 4 3 3 2 3 2 3 2 2 2 2 4 3 3 3 4 4 4 3 4 4 4 3 4 5 4 3 3 3 3 3 2 2 3 4 5 6 5 5 5 5 5
6 6 6 5 4 3 3 4 3 2 2 2 2 2 2 2 3 4 4 3 3 3 4 4 3 3 3 4 4 4 4 4 3 2 2 3 3 2 3 2 5 5 5 5 5 5
6 6 5 4 3 3 4 3 3 3 3 3 2 3 2 3 3 4 3 3 3 4 4 3 3 3 5 5 3 3 3 3 3 2 2 2 2 2 2 2 1 5 6 6 5 5
5 6 4 4 3 4 4 4 5 5 4 2 2 2 2 2 2 3 3 4 4 3 3 3 3 3 4 3 3 3 3 3 3 3 3 3 2 2 2 2 2 2 5 5 6 5
6 5 5 4 4 5 5 6 5 6 4 4 4 3 3 3 2 3 2 4 4 4 2 2 3 4 5 5 4 4 4 3 3 3 2 2 3 3 3 2 2 1 6 5 6 5
6 4 5 5 5 5 6 6 6 6 7 5 5 4 5 5 4 5 4 3 3 3 4 3 5 4 5 5 3 3 3 4 4 3 2 3 3 2 2 2 2 1 5 6 5 6
6 3 4 5 5 7 7 6 6 6 5 5 6 7 5 3 3 3 3 3 4 5 4 3 3 3 4 3 3 3 3 3 3 3 3 4 3 3 2 2 1 1 1 5 6 5
6 3 4 5 7 6 8 6 6 6 5 5 6 5 6 5 4 4 4 4 4 3 2 2 2 2 2 3 3 3 3 3 3 4 4 4 3 3 2 2 2 2 2 3 6 5
5 3 4 6 6 7 5 4 3 6 6 5 5 6 6 4 4 5 3 3 2 2 2 2 2 2 3 3 3 4 5 4 4 4 4 4 3 3 3 2 2 1 2 1 5 5
5 3 4 5 6 2 4 3 4 5 6 6 6 7 6 5 4 4 3 3 3 3 3 3 3 3 4 5 5 6 5 4 3 3 4 3 3 2 2 3 1 1 2 1 4 5
4 2 5 6 4 3 2 1 4 4 6 5 6 6 5 5 5 4 4 4 4 4 3 4 4 5 5 6 7 5 4 4 4 3 3 6 5 5 3 2 2 1 1 2 2 6
4 3 5 6 3 1 1 2 3 7 7 6 5 5 5 4 4 4 5 4 5 5 5 5 6 6 6 6 5 4 4 3 3 3 2 2 5 4 5 3 2 2 1 1 2 5
5 2 5 5 2 1 1 3 5 8 7 7 5 4 4 5 5 5 5 5 5 5 6 6 6 5 5 4 4 4 5 4 4 4 3 2 2 4 4 4 2 2 2 1 1 4
4 2 5 5 2 1 1 2 6 8 8 7 7 6 5 4 4 5 5 5 4 5 5 4 4 4 4 4 5 5 5 6 5 5 3 2 2 3 3 3 2 2 2 2 2 2
3 3 3 5 3 1 1 3 7 8 8 8 8 6 6 5 4 5 5 5 5 5 6 5 5 5 5 5 6 7 7 7 6 6 4 3 2 3 2 2 3 2 2 2 2 1
3 3 2 4 4 2 2 3 7 8 9 8 8 7 6 6 5 4 5 5 5 6 6 7 6 6 7 7 7 7 7 8 7 6 5 3 2 2 1 2 2 1 2 2 2 2
3 2 3 3 4 3 3 3 7 8 9 9 8 7 6 6 6 6 5 6 6 6 7 8 8 8 7 8 7 8 7 7 8 7 5 3 3 2 1 2 1 2 1 2 2 2
2 2 2 2 2 3 3 4 7 9 9 9 9 9 8 6 6 6 7 7 7 7 8 9 9 9 8 8 8 8 8 8 7 7 6 5 4 3 1 1 1 1 1 2 2 1
3 2 3 2 1 2 2 3 6 9 9 9 9 9 8 8 7 7 7 7 8 8 8 9 9 9 9 9 8 9 8 8 8 7 7 5 4 3 1 1 2 1 1 1 2 1
3 2 2 2 1 1 2 4 6 6 6 6 6 7 7 7 7 7 7 7 7 7 8 8 9 9 8 8 8 7 7 6 6 6 5 6 5 4 2 1 1 1 1 1 2 1
3 1 2 1 1 0 3 4 5 5 5 4 3 3 3 4 5 6 7 7 7 7 7 7 8 7 6 5 4 4 4 4 5 5 5 5 5 5 2 1 1 2 1 1 2 1
4 2 3 1 1 0 3 4 5 5 6 6 5 4 3 4 4 5 6 7 7 6 7 7 6 5 4 4 3 3 4 5 6 6 5 5 5 5 3 1 1 2 2 2 1 1
4 3 3 1 1 0 4 4 5 6 7 7 6 6 5 4 4 4 4 5 7 8 7 6 5 4 4 4 4 4 5 6 7 7 6 5 6 5 5 1 1 1 1 1 2 1
4 2 2 2 1 0 6 6 6 5 6 5 3 2 2 4 4 4 3 3 8 10 9 6 3 3 4 4 3 3 2 3 3 5 5 6 6 6 5 3 1 1 2 2 1 3
5 1 2 2 1 0 7 7 6 4 5 6 3 1 2 6 4 4 5 3 8 11 10 6 4 5 4 4 4 5 2 1 3 4 4 5 6 6 6 4 1 1 1 2 2 4
6 2 2 2 1 1 7 8 7 8 6 7 7 6 6 7 6 6 6 7 9 11 10 7 6 6 6 5 5 6 5 5 5 5 5 5 6 7 6 6 2 1 1 2 2 3
6 3 2 2 1 2 8 8 9 8 8 6 6 6 6 6 6 7 8 8 10 11 10 8 7 7 6 6 6 5 6 6 6 6 7 6 7 7 7 6 2 1 1 3 3 3
5 5 3 4 2 2 8 8 10 9 8 8 8 7 7 7 7 9 9 8 10 11 10 7 7 8 9 8 7 7 7 7 7 7 7 7 7 7 7 6 2 1 0 6 5 3
6 5 5 8 1 2 7 8 10 10 9 9 9 8 7 7 9 9 8 8 10 11 10 7 7 7 9 9 8 8 8 9 8 8 7 8 8 7 7 6 2 1 2 5 6 4
6 4 8 9 2 1 6 8 9 8 8 8 8 8 8 9 9 8 8 8 10 11 9 7 6 7 8 8 9 9 8 8 8 8 8 8 8 7 6 6 2 2 2 3 7 6
5 5 9 8 5 2 6 7 7 8 8 8 8 8 9 9 8 8 8 9 11 11 9 8 6 6 7 7 8 9 9 8 8 7 8 8 7 6 6 6 1 5 3 2 6 6
5 4 8 9 5 8 6 7 7 7 7 7 8 8 9 8 8 7 8 9 11 11 10 9 6 6 6 8 8 9 9 9 8 8 7 7 6 6 6 5 6 6 4 3 6 5
5 4 10 8 9 9 5 6 6 6 7 7 8 9 9 8 8 7 9 9 10 10 9 8 6 6 5 7 8 8 8 8 8 7 6 6 6 6 6 5 6 5 5 6 6 4
5 5 7 10 9 9 6 7 6 6 6 7 7 8 8 9 8 8 8 9 9 9 8 8 6 8 5 7 8 8 8 7 7 6 6 6 6 6 6 5 6 7 7 6 7 3
5 5 4 10 10 10 8 7 6 6 6 7 7 8 9 8 9 6 6 7 7 7 6 6 6 6 6 7 8 8 8 7 6 6 6 6 6 6 6 5 6 6 6 7 5 3
5 5 6 7 9 9 8 6 6 6 7 8 8 8 8 8 9 7 3 4 5 5 4 3 4 5 6 7 8 8 8 7 6 6 6 6 6 6 6 5 6 6 7 6 3 3
5 5 5 5 6 6 6 6 7 6 7 8 8 8 8 8 9 9 4 4 4 4 4 3 3 6 6 7 8 8 8 7 6 6 6 6 6 6 6 4 5 5 5 3 3 3
5 5 5 5 6 5 6 5 7 7 7 7 8 8 8 8 9 9 7 5 4 4 5 5 6 7 6 7 7 7 7 7 6 6 6 5 6 6 6 3 3 3 3 3 3 3
5 5 5 5 5 5 5 6 6 6 7 7 8 8 8 8 9 8 8 6 5 5 5 5 6 6 6 6 8 7 6 6 6 6 6 5 6 6 5 2 3 3 3 3 3 3
5 5 5 6 5 5 5 6 6 6 7 7 7 7 7 7 7 7 7 7 6 5 4 5 5 5 5 5 6 6 6 6 6 6 6 6 6 5 4 3 3 3 3 3 3 3
5 5 5 5 5 5 5 5 5 6 7 7 7 6 5 5 6 6 6 6 6 6 5 5 5 5 5 5 5 5 5 6 6 6 6 6 5 4 3 3 3 3 3 3 3 3
5 5 5 5 6 5 5 5 5 5 7 7 7 6 4 4 3 3 3 3 3 4 3 3 3 3 3 3 4 4 5 6 6 6 6 6 4 3 3 3 3 3 3 3 3 3
5 5 5 5 5 6 6 6 5 6 6 6 6 6 6 6 7 6 6 6 6 4 4 3 4 4 4 5 5 4 5 5 6 6 6 6 2 3 3 3 3 3 3 3 3 3
5 5 5 5 5 5 6 5 5 6 5 6 6 6 6 6 5 6 6 5 5 5 4 4 3 4 5 5 5 5 5 5 6 6 6 6 3 3 3 3 3 3 3 3 3 3
5 5 5 5 5 6 5 5 6 5 5 6 6 6 6 6 5 4 4 4 5 4 4 4 5 5 5 5 5 5 5 5 5 5 6 6 3 3 3 3 3 3 3 3 3 3
5 5 5 5 5 5 5 5 6 5 5 7 6 6 6 6 6 6 5 5 3 3 3 3 4 4 5 5 5 6 5 5 6 6 5 6 2 3 3 3 3 3 3 3 3 3
5 6 5 5 5 5 5 6 5 5 5 7 6 6 7 7 7 7 7 7 6 5 5 6 6 6 5 5 5 6 6 6 5 6 5 6 3 3 3 3 3 3 3 3 3 3
5 5 5 5 5 5 5 5 5 5 5 7 6 6 6 7 7 7 6 7 6 6 6 6 6 5 5 6 6 6 6 5 6 6 5 5 2 3 3 3 3 3 3 3 3 3
5 5 5 5 5 5 5 5 5 5 6 7 7 6 6 6 7 7 6 5 6 5 6 5 5 5 5 6 6 6 6 6 6 6 6 7 2 3 3 3 3 3 3 3 3 3
5 5 5 6 5 5 6 5 5 5 9 7 7 6 6 6 6 5 5 5 4 4 4 4 5 5 5 5 5 6 6 6 6 6 6 3 6 3 3 3 3 3 3 3 3 3
5 5 5 5 5 5 5 6 5 4 10 7 7 6 6 6 5 5 5 4 4 4 4 4 4 5 5 5 5 6 6 5 6 6 5 4 9 3 3 2 3 3 3 3 3 3
5 5 5 5 5 5 5 5 5 5 12 7 7 7 6 6 5 5 5 5 4 4 4 4 4 4 5 5 5 6 5 5 6 5 6 6 6 4 3 3 3 3 2 3 3 3
