P2
46 56
255
112 112 113 102 109 106 103 87 80 69 61 48 49 35 31 44 38 31 27 37 30 35 35 30 37 40 43 54 48 52 49 40 56 56 67 53 63 87 94 96 104 103 103 102 101 103 
112 113 103 108 105 89 88 85 95 57 52 47 45 31 30 31 26 28 30 29 49 31 26 30 31 27 28 34 51 48 44 51 61 69 62 46 69 67 63 95 85 91 102 102 104 102 
111 114 104 67 78 96 77 62 74 39 37 30 35 31 27 22 27 33 30 30 24 31 32 32 30 34 30 32 39 40 49 51 52 51 54 68 64 61 55 57 72 81 85 101 100 102 
109 105 97 101 78 73 72 71 55 55 34 31 31 30 31 27 24 26 23 30 27 29 32 26 26 21 31 31 37 31 35 38 42 37 50 37 41 51 43 57 65 66 69 91 97 101 
110 88 92 85 71 68 62 53 55 42 43 34 29 21 27 23 24 27 22 21 25 22 24 27 27 22 25 32 37 36 27 26 31 30 29 31 33 45 50 53 52 58 61 48 94 99 
106 76 63 76 80 69 60 51 49 45 41 40 30 25 25 26 31 33 27 28 25 30 25 24 26 26 29 35 33 35 20 34 28 25 28 24 25 31 44 45 47 50 43 70 74 99 
103 74 63 65 64 50 50 55 33 37 41 34 26 31 29 35 26 34 32 26 31 26 26 25 27 19 19 37 24 33 18 27 24 18 25 32 24 29 33 39 35 37 43 50 63 83 
86 67 65 53 57 68 59 38 42 32 27 34 40 32 34 49 34 40 34 32 29 31 41 27 30 20 33 31 31 31 25 21 26 23 25 24 22 23 28 29 27 31 41 44 74 50 
102 96 74 54 55 84 75 72 56 56 45 47 45 43 44 53 51 42 40 46 48 46 33 39 43 35 35 34 29 30 47 23 23 27 21 20 27 19 23 31 23 27 34 39 45 73 
101 77 48 60 67 84 75 79 57 48 44 41 57 52 54 60 55 56 61 44 36 58 54 47 45 40 48 34 47 31 31 33 40 25 27 29 21 22 21 22 20 25 32 38 55 70 
86 52 54 72 75 90 82 82 69 64 63 60 63 58 64 71 66 68 71 81 68 58 51 61 60 52 69 50 50 43 33 36 45 38 35 27 27 25 18 22 21 20 24 28 44 67 
97 61 49 61 74 91 103 106 89 91 83 81 72 80 70 85 79 80 64 77 65 59 61 58 61 67 54 65 53 46 44 34 39 40 39 41 34 28 26 20 21 26 24 37 35 41 
94 56 47 51 67 89 100 101 99 109 99 104 98 95 103 88 86 80 71 72 76 62 81 64 61 65 58 57 62 57 46 47 53 46 49 55 48 33 30 21 19 19 27 25 36 42 
68 60 57 50 104 117 119 124 128 120 113 117 130 133 131 102 83 80 87 73 81 79 75 67 67 72 65 67 83 72 60 61 66 63 68 63 57 47 34 28 23 24 25 23 24 35 
78 47 50 67 126 126 118 117 131 129 131 141 141 147 117 120 107 102 102 98 94 100 85 103 87 92 100 98 95 100 84 87 103 89 94 78 64 63 35 28 24 23 20 23 27 33 
97 48 47 115 137 142 134 129 145 145 148 154 140 126 136 125 116 123 116 112 112 105 106 110 108 113 115 122 122 124 123 116 116 122 113 100 94 68 49 30 25 22 20 19 25 50 
107 47 46 132 145 146 146 150 142 151 159 133 152 129 136 126 112 129 114 116 121 125 112 121 115 115 131 133 129 128 134 131 127 114 121 113 101 84 56 40 23 21 21 18 30 36 
113 54 50 130 145 146 155 143 136 148 142 150 145 133 135 130 107 128 112 115 125 123 127 110 111 123 131 135 129 131 135 133 123 122 112 112 106 91 79 54 38 21 24 29 40 47 
112 69 55 130 145 146 149 145 146 152 140 147 153 139 142 130 125 124 124 123 123 127 118 119 111 123 118 125 116 123 131 131 122 118 108 110 103 93 82 49 37 34 29 24 39 61 
109 86 56 124 142 151 142 145 156 144 152 158 157 140 141 113 134 122 125 136 132 136 133 135 133 132 121 130 116 120 124 128 121 111 110 103 88 78 64 49 38 29 32 24 31 75 
108 107 69 125 139 152 159 161 160 167 170 160 160 148 133 121 136 142 137 142 137 140 129 141 130 134 131 128 122 126 124 122 114 108 104 93 78 63 60 60 51 54 34 35 41 88 
107 116 93 130 139 157 165 169 174 171 161 170 172 159 145 151 143 153 144 149 151 134 148 142 130 135 137 131 130 128 128 119 111 106 101 83 70 51 58 58 55 55 50 40 54 91 
105 116 118 128 143 145 153 159 162 169 168 168 160 162 159 148 153 152 155 147 149 141 150 149 145 136 137 127 138 131 127 118 111 107 96 85 64 47 54 54 45 43 45 50 75 94 
107 113 131 115 105 105 101 121 128 136 143 138 135 155 153 143 146 139 142 149 156 153 150 154 153 148 145 141 141 135 131 122 112 107 97 82 65 51 50 44 37 43 47 40 96 91 
106 118 98 71 68 63 57 58 61 80 94 96 117 128 140 132 144 141 138 142 146 145 142 141 141 139 133 136 132 137 133 124 110 107 101 91 83 64 48 45 37 35 39 58 94 88 
104 113 90 81 90 90 86 72 64 55 55 82 100 102 129 139 137 140 120 132 120 104 98 89 98 99 102 102 98 109 107 128 119 110 107 103 98 83 47 46 45 42 41 71 95 91 
109 112 151 106 106 94 84 83 84 71 72 80 82 101 111 117 124 118 112 110 90 75 75 49 44 41 44 45 55 61 72 84 104 112 108 99 108 95 52 54 43 45 47 80 93 91 
107 110 147 116 94 67 45 36 35 45 75 66 65 71 90 132 141 136 119 101 84 73 69 60 58 64 67 58 53 50 55 54 60 73 92 102 104 106 53 56 43 40 99 85 85 90 
106 98 153 138 116 78 63 67 47 58 111 89 67 91 77 150 164 165 122 83 59 61 58 50 41 54 59 71 71 83 87 86 81 77 81 103 112 110 66 56 53 76 82 64 91 88 
106 99 154 153 148 128 112 104 93 102 94 89 91 102 99 153 175 159 115 80 66 79 65 82 51 41 53 63 49 49 61 83 88 94 103 105 109 108 107 55 85 96 66 49 90 90 
103 99 152 156 157 149 133 116 110 104 100 98 102 117 139 162 178 139 107 105 80 89 87 83 87 69 86 86 65 56 67 80 94 107 110 110 109 106 112 90 98 111 96 75 92 92 
99 101 147 156 162 162 158 150 149 136 133 144 142 148 148 174 178 131 100 122 118 86 94 89 97 97 99 100 100 100 102 110 115 114 115 114 107 108 109 90 81 107 103 113 86 87 
101 108 144 147 160 158 153 150 157 158 159 159 157 149 152 190 165 128 109 117 125 130 116 116 117 115 113 112 114 121 121 125 123 118 117 117 107 105 113 96 60 93 93 96 89 88 
98 95 143 143 150 150 156 163 159 156 155 156 153 148 163 189 164 128 110 113 118 133 141 137 139 133 124 129 130 132 131 127 120 118 116 114 106 99 120 124 68 94 86 86 90 87 
102 90 135 139 153 150 155 161 157 154 158 138 138 153 178 185 161 134 120 110 119 132 146 146 141 141 141 136 136 141 135 129 120 110 112 110 108 101 112 99 63 123 92 81 88 87 
101 99 129 139 141 145 155 157 156 144 139 122 151 161 173 175 160 141 111 106 98 120 137 144 144 143 144 137 137 130 123 116 113 109 114 105 99 109 91 112 116 89 114 83 91 87 
100 101 111 135 137 141 157 152 142 127 113 141 155 165 173 165 156 137 111 126 101 106 131 141 138 141 140 140 130 127 123 115 112 104 107 103 97 107 117 110 111 108 88 89 85 86 
102 100 89 132 133 149 152 147 131 113 143 132 140 149 160 150 137 116 102 118 101 92 104 126 134 142 141 140 141 132 118 108 106 99 100 102 100 111 119 119 122 90 84 85 88 89 
102 97 85 136 130 144 149 140 132 148 158 137 83 119 122 112 99 93 92 96 90 95 116 111 125 134 133 131 125 117 110 107 95 101 99 99 108 105 109 108 91 84 81 83 83 84 
102 101 89 143 125 136 146 145 151 150 152 156 90 92 100 86 70 59 54 81 96 106 128 126 117 119 130 129 121 112 107 99 94 95 103 100 89 82 86 82 81 84 82 86 87 85 
100 97 98 136 130 145 147 148 154 151 143 152 119 102 93 81 81 85 91 100 103 110 123 134 126 122 123 118 115 110 97 101 99 98 104 106 75 80 81 80 82 79 80 84 83 82 
100 99 98 123 131 146 150 151 148 146 144 157 144 121 94 102 105 109 108 106 108 114 123 129 131 124 125 114 113 105 95 102 97 94 103 85 80 83 79 79 80 78 78 84 80 83 
99 94 100 89 133 142 146 145 121 127 138 132 139 150 135 116 114 114 112 114 116 118 121 120 128 117 125 120 111 106 102 100 99 97 112 75 83 79 79 79 78 81 78 78 79 76 
99 96 96 82 144 129 143 134 130 58 81 63 70 78 93 100 84 84 89 95 101 106 101 100 117 122 125 120 113 107 105 103 100 98 94 78 76 78 75 73 77 76 74 79 78 76 
99 96 98 100 138 135 143 133 144 151 99 65 39 34 77 63 79 82 55 45 48 52 42 73 109 115 119 115 111 105 104 102 93 91 73 75 76 79 75 77 74 76 75 75 75 79 
100 97 98 98 90 136 136 139 146 160 127 126 144 136 113 92 84 73 76 78 81 82 98 110 117 115 118 113 112 105 105 104 94 103 73 76 72 75 73 71 73 71 71 74 74 74 
94 96 96 98 91 132 136 144 131 146 141 116 116 126 135 143 145 134 117 107 103 105 112 122 113 116 112 111 107 107 108 99 91 108 74 77 73 73 73 74 72 71 71 73 71 71 
94 96 98 98 98 93 130 143 141 143 143 123 111 98 88 96 88 91 94 92 99 111 116 111 117 112 109 106 102 104 97 90 98 106 73 74 71 70 73 74 75 71 71 70 70 72 
96 98 95 96 98 86 126 136 144 139 147 130 120 103 91 86 86 90 95 99 101 113 118 106 109 109 105 106 106 99 92 93 96 103 76 73 70 72 72 71 71 73 69 68 71 71 
94 97 95 96 96 111 141 129 143 143 140 151 149 142 132 114 111 112 113 110 118 125 120 113 113 106 107 101 99 94 90 93 102 100 72 71 71 67 66 69 70 70 67 67 69 71 
98 95 92 137 182 141 149 126 129 131 153 151 155 158 160 151 147 151 142 137 140 135 119 120 108 104 98 96 92 95 90 97 106 98 72 71 67 69 67 69 69 67 70 67 71 67 
91 164 201 177 152 142 149 135 124 134 129 147 147 151 148 147 152 147 138 152 143 135 121 108 103 97 92 92 96 95 96 99 104 107 69 69 68 68 68 67 67 67 70 69 68 66 
196 202 207 159 154 148 149 145 127 120 123 137 138 138 134 136 136 133 134 140 128 115 109 103 96 90 95 94 93 94 101 105 105 108 107 112 106 66 66 64 68 62 66 67 66 65 
203 204 207 159 156 152 150 147 137 132 112 119 123 117 119 121 127 125 121 117 105 97 97 85 92 101 97 97 94 100 102 106 107 109 109 110 91 165 106 64 66 66 65 63 63 64 
202 203 202 172 159 153 151 148 143 136 127 116 106 102 103 99 106 105 104 99 94 91 88 95 99 97 102 98 97 99 101 106 109 107 111 108 113 169 168 174 59 62 63 65 59 64 
205 205 203 212 154 155 154 155 150 141 129 120 116 113 108 106 106 102 99 93 84 90 93 100 101 99 105 102 102 104 108 111 109 106 112 114 103 170 166 167 156 127 61 65 62 62 
