P1
20 30
0000000000000000000000000000000000000000000000000000000000000000000111
1110000000000000111111110000000000011111111110000000001110000001110000
0000111000000111000000001110000001110000000011100000011100000000111000
0011100000000001110000111000000000001110011100000000000001111110000000
0000000011110000000000000000111110000000000000011111110000000000001110
0011100000000001110000011100000000011100000011100000001110000000011100
0001110000000001110000011100000000011100000111000000000111000001111000
0001111000000011111111111100000000011111111110000000000001111110000000
0000000000000000000000000000000000000000