P1
20 30
0000000000000000000000000000000000000000000000000000000000000000000011
1111000000000000111111111000000000011111111111000000001111000001110000
0001111000000111000000011100000001110000000011100000011100000000111000
0011100000000001111001110000000000001111011100000000000001111110000000
0000000001110000000000000000111110000000000000011101110000000000000111
0011100000000000111000011100000000001110000111000000000111000000111000
0000011100000011100000000111000000111000000001111000001110000000001111
1111110000000000011111111000000000000001111100000000000000000000000000
0000000000000000000000000000000000000000