P1
20 30
0000000000000000000000000000000000000000000000000000000000000000000111
1100000000000000111111100000000000111111111100000000011110000011100000
0011110000001110000000111000000011100000001110000000111000000001110000
0011100000000011110000111000000000011110011100000000000011111111000000
0000000011111000000000000000011110000000000000001111110000000000000111
0011100000000000111000111000000000011100000111000000001110000001110000
0000111000000111000000011100000001110000000011100000111100000000011111
1111100000000000111111110000000000000111110000000000000000000000000000
0000000000000000000000000000000000000000