P1
20 30
0000000000000000000000000000000000000000000000000000000000000000000011
1111100000000000111111111100000000111111111111000000011111000000111000
0000111000000011100000001110000000111000000011100000001110000000111000
0001110000000011100000011100000000011110001110000000000011110011100000
0000000111111100000000000000011110000000000000000111100000000000000011
1111000000000000011100111000000000001110000111000000000111000000111000
0000011100000011100000001110000000111000000011100000001110000000011100
0001111000000001111111111100000000001111111110000000000000111111000000
0000000000000000000000000000000000000000