P1
40 40
0000000000000000000000000000000000000000000000000000000000000000000000
0000000000000000000000000000000000000000000000000000000000000000000000
0000000000000000000000000000000000000000000000000000000000000000000010
0000000000000011111111000000000000000011111111111111111111111111000000
0000000011111111111111111111111111000000000000001111111111111111111111
1111000000000000001111111111111111111111111100000000000000111111111111
1111111111111100000000000000111111111111111111111111110000000000000011
1111111111111111111111110000000000000011111111111111111111111111000000
0000000011111111111111111111111111000000000000001111111111111111111111
1111000000000000001111111111111111111111111100000000000000111111111111
1111111111111100000000000000111111111111111111111111110000000000000011
1111111111111111111111110000000000000011111111111111111111111111000000
0000000011111111111111111111111111000000000000001111111111111111111111
1111000000000000001111111111111111111111111100000000000000111111111111
1111111111111100000000000000111111111111111111111111110000000000000011
1111111111111111111111110000000000000011111111111111111111111111000000
0000000011111111111111111111111111000000000000001111111111111111111111
1111000000000000001111111111111111111111111100000000000000111111111111
1111111111111100000000000000111111111111111111111111111000000000000000
0000000000000000000000000000000000000000000000000000000000000000000000
0000000000000000000000000000000000000000000000000000000000000000000000
0000000000000000000000000000000000000000000000000000000000000000000000
000000000000000000000000000000000000000000000000000000000000