P1
40 40
0000000000000000000000000000000000000000000000000000000000000000000000
0000000000000000000000000000000000000000000000000000000000000000000000
0000000000000000000000000000000000000000000000000000000000000000000000
0000000000000000000000000000000000000001100000001111000000011100000000
0000000001111111111111111111111110000000000000000111111111111111111111
1110000000000000000111111111111111111111111000000000000000011111111111
1111111111111000000000000000011111111111111111111111100000000000000001
1111111111111111111111100000000000000001111111111111111111111110000000
0000000001111111111111111111111110000000000000000111111111111111111111
1110000000000000000111111111111111111111111000000000000000011111111111
1111111111111000000000000000011111111111111111111111100000000000000001
1111111111111111111111100000000000000001111111111111111111111110000000
0000000001111111111111111111111110000000000000001111111111111111111111
1110000000000000001111111111111111111111111000000000000000111111111111
1111111111111000000000000000111111111111111111111111100000000000000011
1111111111111111111111100000000000000011111111111111111111111110000000
0000000011111111111111111111111110000000000000000111111111111111111111
1111000000000000000111111111111111111111111100000000000000001111000000
0000000000110000000000000000000000000000000000000000000000000000000000
0000000000000000000000000000000000000000000000000000000000000000000000
0000000000000000000000000000000000000000000000000000000000000000000000
0000000000000000000000000000000000000000000000000000000000000000000000
000000000000000000000000000000000000000000000000000000000000