P1
20 30
0000000000000000000000000000000000000000000000000000000000000000000000
0000000000000000111110000000000000111111110000000000011111111110000000
0011110000111000000000111000001111000000001110000001110000000001000000
0111000000000000000011100000000000000000111000000000000000011100000000
0000000001110000000000000000111000000000000000001110000000000000000111
0000000000000000111000000000000000011100000000000000001110000000000000
0001110000000000000000011111111111110000000111111111111110000000111111
1111110000000000000000000000000000000000000000000000000000000000000000
0000000000000000000000000000000000000000