P1
20 30
0000000000000000000000000000001000000000000000001111000000000000001111
1110000000000001111101110000000000111100011100000000001110000111000000
0001110000011100000000011100000111000000000111000011100000000000100000
1110000000000000000011100000000000000001110000000000000000011100000000
0000000011100000000000000000111000000000000000011100000000000000000111
0000000000000000111000000000000000011100000000000000000111000000000000
0000111000011111110000001111111111111110000111111111111111000000111111
1000000000000000000000000000000000000000000000000000000000000000000000
0000000000000000000000000000000000000000