P1
20 30
0000000000000000000000000000111100000000000000111111100000000000011111
1111000000000011110001110000000001110000011100000000111000000111000000
0111000000011100000001110000000111000000111000000011100000000111000000
1110000000001000000011100000000000000001110000000000000000011100000000
0000000011100000000000000000111000000000000000011100000000000000000111
0000000000000000111000000000000000001110000000000000000111000000000000
0000011100000000000000000111000000001100000011100000111111100000111011
1111111100000111111111111100000001111111110000000000001111000000000000
0000000000000000000000000000000000000000