P1
20 30
0000000000000000000000000000000000000000000000000000000000000000000001
1000000000000000111111100000000000011111111100000000001111100111100000
0000111000001110000000000100000011100000000000000000111000000000000000
0011100000000000000001110000000000000000011100000000000000001111000000
0000000000111000000000000000011100000000000000000111000000000000000011
1000000000000000011100000000000000001110000000000000000011100000000000
0000011100000000000000001111111111110000000111111111111110000000111111
1111110000000000000000000000000000000000000000000000000000000000000000
0000000000000000000000000000000000000000