P2
46 56
255
52 46 48 47 53 56 47 51 45 72 53 37 59 43 52 40 70 50 54 54 37 53 36 52 38 33 35 40 46 58 45 47 47 49 71 56 57 47 61 44 48 50 48 48 46 49 
49 51 50 54 56 50 50 58 60 47 56 33 43 45 38 38 62 58 48 57 70 79 84 91 77 68 52 43 43 51 50 44 45 42 54 58 54 60 51 46 55 57 47 48 46 50 
47 50 56 53 56 47 46 43 52 61 51 48 47 42 36 45 61 73 87 104 105 107 110 109 115 111 99 81 59 54 42 43 42 39 49 57 58 68 56 68 53 69 50 54 44 48 
57 50 53 59 54 44 52 56 39 50 37 42 38 36 34 77 87 100 104 122 122 125 122 123 117 117 112 106 90 89 59 55 53 59 43 43 54 51 55 63 55 52 60 48 50 47 
46 64 55 55 56 42 36 47 34 39 47 40 27 70 106 108 105 119 114 115 127 119 126 121 111 115 114 109 102 100 89 88 63 52 49 52 55 43 48 51 64 60 58 55 52 52 
59 49 85 59 55 55 54 38 41 47 33 55 103 111 99 104 115 113 132 125 124 131 129 124 124 123 126 117 116 108 108 109 93 82 78 47 61 52 54 41 70 52 61 65 64 50 
65 53 71 53 70 58 48 49 45 40 69 117 119 123 115 136 139 146 140 136 130 140 141 131 134 138 130 131 122 126 115 112 105 96 92 80 39 46 47 47 53 46 83 61 64 60 
56 65 62 60 57 54 41 50 36 68 129 126 128 132 132 145 150 146 145 142 146 147 149 149 146 141 142 140 134 134 129 126 113 116 106 108 90 42 45 40 50 49 65 51 53 63 
56 74 68 71 60 43 45 45 73 122 131 133 149 151 157 170 167 161 153 158 154 154 151 157 151 151 146 150 141 142 143 133 131 131 110 117 115 85 49 49 61 50 50 67 59 68 
60 116 67 68 52 47 56 61 129 140 144 156 162 147 172 178 179 186 179 178 182 168 171 160 164 160 155 152 158 146 145 140 145 145 145 130 123 119 97 55 57 42 63 63 61 58 
42 88 52 61 55 54 77 128 140 146 157 157 166 161 167 184 188 197 191 183 178 186 188 165 167 174 170 165 177 163 158 157 153 151 156 142 134 123 113 70 77 52 46 64 66 56 
41 86 57 57 68 70 107 154 141 163 166 169 179 184 184 182 193 192 188 191 182 185 192 176 176 176 179 170 164 159 155 163 156 160 171 163 148 143 123 113 71 49 74 58 65 70 
46 60 56 63 60 73 142 157 156 170 176 182 182 176 191 188 186 186 183 187 184 176 178 174 168 182 180 170 164 162 159 163 166 162 163 173 161 149 120 147 95 58 75 56 51 43 
80 50 79 72 75 99 150 165 162 184 180 195 187 187 191 191 186 184 185 186 181 173 165 170 165 169 173 172 162 164 162 165 170 169 169 162 153 151 137 137 114 71 84 54 81 64 
100 33 78 65 70 122 159 173 182 189 188 190 190 186 188 194 191 183 185 185 188 183 171 166 163 161 171 162 160 158 159 163 161 168 171 165 160 157 161 150 134 93 88 48 112 93 
42 55 79 69 74 129 157 180 184 193 186 184 186 181 185 182 181 189 186 186 187 186 182 171 164 155 175 169 170 159 160 160 170 170 179 166 173 166 165 169 144 115 41 44 129 86 
47 71 57 50 72 137 147 190 191 186 168 135 128 145 135 103 97 114 128 131 171 168 181 184 170 151 180 162 169 169 157 155 162 162 173 162 166 164 169 187 144 127 63 88 101 74 
59 65 57 67 62 119 147 187 182 168 120 112 103 105 83 68 66 59 64 93 100 133 193 193 173 156 178 163 171 143 129 120 120 123 138 132 142 153 167 188 152 150 101 72 96 49 
47 45 57 83 74 139 152 180 179 137 107 93 70 148 149 80 81 71 90 113 110 131 159 173 164 156 172 154 150 114 87 73 54 65 48 63 92 113 120 170 173 159 117 99 121 52 
48 96 45 41 80 155 166 185 162 118 118 164 140 173 194 169 157 152 138 121 92 120 164 172 159 160 167 145 83 163 93 80 71 53 44 54 54 64 72 145 190 172 108 97 95 36 
84 69 106 47 103 156 179 201 101 156 164 157 151 171 171 158 143 126 107 99 96 115 92 173 171 166 167 133 168 167 138 135 138 137 145 128 107 89 80 75 139 182 98 92 93 44 
97 125 91 79 65 180 160 124 155 150 162 190 185 155 131 114 111 116 108 132 134 112 119 214 111 83 85 170 102 119 107 123 150 145 128 125 124 114 110 107 100 62 107 77 95 61 
98 120 101 91 25 134 73 75 98 109 162 128 65 109 57 98 29 52 94 108 115 131 123 146 178 159 157 120 92 98 124 124 133 141 145 165 168 178 176 115 102 168 125 99 107 67 
91 125 78 69 47 122 149 76 148 191 112 163 175 170 145 129 114 124 150 141 123 174 43 200 164 152 157 100 49 106 94 130 45 87 51 66 110 172 179 130 99 153 93 91 74 83 
99 91 58 32 120 185 180 59 162 163 167 202 203 192 180 152 151 150 144 150 177 171 127 176 163 150 189 46 70 120 142 175 94 59 66 111 51 82 141 101 82 84 67 140 60 95 
122 68 75 54 157 185 175 26 152 192 194 193 201 195 176 149 134 130 137 167 166 114 194 168 163 157 180 88 73 153 161 166 159 157 144 167 181 143 93 171 148 164 128 95 88 108 
92 90 79 77 155 184 184 56 166 193 198 197 200 198 191 186 178 175 173 187 191 141 183 174 169 161 187 179 92 132 138 134 152 163 166 172 194 185 134 143 179 211 189 44 89 87 
100 85 88 84 150 183 194 217 176 187 196 197 194 186 183 189 185 187 184 179 103 188 188 186 174 167 186 187 44 188 168 171 168 147 150 166 169 185 188 181 181 128 203 41 54 76 
126 126 81 103 177 180 198 202 144 115 200 197 194 189 178 176 170 172 175 111 213 184 187 186 180 168 177 175 103 86 188 183 174 175 185 187 188 186 182 193 197 69 198 62 68 68 
179 103 101 112 172 183 200 203 177 172 156 115 118 147 168 137 134 150 111 184 198 186 192 190 184 166 170 174 120 184 80 171 185 180 180 180 183 189 193 185 115 192 193 87 86 95 
213 103 77 120 181 185 197 201 196 198 191 197 194 194 193 193 196 180 165 180 188 191 191 195 188 173 168 181 150 150 170 121 95 91 93 87 99 122 151 190 201 183 184 83 85 62 
204 87 103 150 189 183 198 200 203 200 199 204 196 194 190 186 160 142 166 193 195 200 197 195 192 174 170 206 180 175 135 167 172 164 149 151 166 185 193 191 195 183 181 76 127 72 
217 73 79 113 187 188 200 199 199 195 201 196 195 188 177 155 145 157 190 191 168 163 172 158 161 151 143 135 165 191 124 150 158 168 170 179 185 198 195 185 184 180 178 66 154 65 
175 83 91 109 170 180 200 194 193 200 194 191 184 183 148 140 141 178 157 124 84 68 100 138 110 104 95 32 76 155 64 135 151 151 167 168 180 198 202 189 182 178 182 87 82 116 
114 106 101 93 192 152 198 197 198 202 193 195 181 164 142 138 177 189 201 160 180 176 129 120 81 107 98 163 103 123 102 133 143 147 155 174 182 189 198 189 189 180 178 84 90 95 
32 115 88 95 173 149 187 200 198 199 196 182 166 153 141 165 194 194 191 166 147 104 108 123 78 62 85 98 119 161 170 144 124 150 144 146 164 189 184 170 184 179 160 96 61 81 
47 95 120 110 151 158 186 194 202 199 185 173 167 139 145 181 178 186 148 167 124 116 113 98 116 88 120 144 110 117 167 184 123 138 143 139 162 165 178 186 170 167 113 90 92 56 
35 108 125 99 161 168 177 172 188 181 175 154 138 130 139 128 130 156 128 122 92 102 97 104 107 95 81 114 97 91 119 156 148 109 143 137 146 156 184 173 170 159 78 91 73 67 
73 86 104 96 112 156 173 177 183 179 165 138 162 107 99 90 100 95 113 101 84 101 112 87 82 88 91 60 98 83 100 111 101 120 130 140 141 153 168 161 166 159 88 74 97 38 
27 105 87 85 81 108 158 157 183 169 160 161 143 98 79 75 76 106 109 93 109 75 91 65 89 97 78 91 69 80 110 99 101 103 83 142 139 159 170 149 153 145 89 62 79 35 
62 74 96 70 83 92 120 134 167 139 118 158 106 80 71 28 24 27 42 29 59 76 65 59 75 57 47 68 39 52 69 49 62 70 76 146 123 160 147 145 158 112 79 49 70 40 
56 59 74 80 73 69 72 97 109 115 98 160 104 85 52 137 123 134 125 98 71 115 91 83 84 63 60 53 30 28 25 28 58 79 95 132 125 137 121 127 135 63 51 76 49 37 
61 55 57 64 56 59 74 90 74 99 100 125 93 55 95 158 156 174 171 166 154 142 135 132 138 124 139 144 175 151 107 69 111 93 83 98 106 119 117 89 80 103 86 95 44 47 
60 57 57 96 68 57 58 78 59 85 89 113 102 47 151 151 167 170 171 173 162 161 164 146 150 145 138 148 172 164 122 109 113 86 63 89 111 76 82 100 61 69 57 55 44 44 
55 51 54 85 65 47 56 56 65 67 70 88 64 72 143 153 172 180 163 138 156 143 130 125 119 115 132 141 140 156 156 117 109 64 86 87 102 71 76 53 56 58 53 43 45 39 
53 59 60 65 59 57 68 70 81 54 52 49 42 90 126 154 154 160 149 130 132 132 125 119 113 108 136 120 117 130 128 120 79 73 50 70 65 46 57 50 54 58 39 51 39 40 
60 53 57 52 53 67 64 56 61 42 49 66 80 87 92 115 135 145 152 127 124 105 111 62 60 73 100 97 96 119 129 102 75 55 68 53 49 47 48 45 47 53 41 40 42 41 
57 56 52 54 59 58 47 64 41 49 55 39 49 79 70 122 112 132 136 158 146 122 107 96 73 59 84 75 103 127 92 92 69 44 41 44 61 57 32 27 53 68 35 36 35 44 
51 53 54 54 59 67 42 39 59 34 46 56 53 57 75 72 106 91 123 127 163 151 142 111 136 128 114 119 128 113 108 77 49 44 38 43 50 36 51 50 58 51 35 38 38 40 
60 54 45 59 47 74 46 49 38 42 42 49 54 44 62 70 76 92 102 114 133 127 146 123 115 118 137 134 103 97 103 62 121 62 68 58 64 30 43 38 45 37 42 36 33 37 
53 54 58 58 47 80 47 52 47 65 40 42 44 52 75 36 57 65 77 86 110 93 94 96 94 98 90 76 100 96 110 56 109 49 25 44 38 31 67 40 52 42 35 34 38 37 
52 62 80 32 32 60 49 70 57 42 60 48 46 66 44 79 46 41 60 57 85 82 67 86 72 83 65 60 86 67 128 80 35 66 38 52 43 33 52 41 48 34 39 33 40 34 
25 123 36 29 23 37 67 109 61 45 44 41 43 79 30 80 51 31 44 42 55 60 49 63 53 67 44 44 95 93 69 51 63 43 47 38 38 82 33 41 41 39 40 33 37 37 
110 74 39 19 16 15 96 132 116 70 32 64 61 31 47 43 36 48 53 53 41 45 62 38 47 49 16 44 97 63 48 58 43 34 28 46 59 22 113 84 87 54 48 38 33 37 
144 88 21 19 18 17 65 127 130 97 69 39 34 50 48 30 20 43 51 41 54 47 46 43 21 56 32 33 61 54 53 34 33 32 20 73 23 27 87 80 85 62 94 75 87 77 
137 84 13 22 20 18 23 133 134 128 95 74 47 39 50 31 44 32 24 61 31 44 25 65 27 38 41 33 69 39 83 38 30 68 112 137 6 31 78 117 93 77 88 96 92 74 
