P2
46 56
255
63 51 54 57 65 54 51 60 48 40 45 54 44 48 54 49 53 43 49 60 57 47 45 46 54 52 46 48 45 45 56 59 50 64 52 61 43 55 43 53 45 49 48 43 46 44 
50 47 54 54 63 56 43 67 41 60 37 73 61 63 51 77 95 89 112 106 107 88 92 85 64 50 48 50 40 40 54 47 62 57 51 70 64 52 57 60 48 45 51 47 48 47 
47 63 53 57 70 56 39 111 40 37 57 57 57 88 100 112 109 125 125 123 130 126 113 100 89 79 65 64 49 57 41 42 71 53 49 47 70 48 57 54 57 52 51 51 51 46 
51 61 50 40 50 48 46 41 40 33 48 66 82 121 109 126 129 138 133 132 128 124 122 115 109 104 95 92 65 67 56 49 51 34 41 47 58 45 54 65 52 42 49 49 49 50 
52 46 49 49 39 46 42 30 39 41 95 114 110 114 121 125 141 129 136 126 116 125 121 119 113 118 108 116 92 84 104 61 56 58 53 35 55 54 72 49 57 61 46 48 49 50 
56 53 46 50 33 40 46 39 42 106 115 112 118 128 121 127 132 136 136 135 132 131 131 123 126 124 117 116 105 94 96 91 72 53 49 38 48 46 55 49 59 70 60 49 51 49 
57 48 49 51 39 44 51 67 108 125 105 120 133 128 147 142 141 146 150 147 144 139 132 142 128 136 124 133 124 114 104 108 94 83 52 44 47 47 45 57 56 51 59 70 64 52 
54 53 58 47 52 42 81 120 138 131 123 145 144 141 147 139 149 145 152 152 154 149 148 143 138 143 140 136 135 132 124 124 103 106 77 54 42 36 47 66 45 56 65 55 62 50 
61 63 48 51 39 51 107 141 135 151 144 156 158 158 151 156 162 158 161 164 164 160 157 152 151 146 150 148 144 138 143 130 123 114 106 96 60 37 51 58 51 56 69 51 47 51 
50 49 41 61 59 102 140 140 145 159 154 164 175 166 169 168 176 166 172 175 171 169 167 164 169 161 158 160 156 155 153 140 135 127 116 116 86 47 37 54 57 52 55 56 57 52 
67 46 58 65 67 136 145 146 161 164 158 172 186 186 188 189 188 186 179 191 184 174 176 167 170 169 162 170 164 158 161 154 149 145 132 120 109 84 50 59 51 41 45 58 50 51 
62 58 62 76 141 152 158 161 168 172 147 177 189 191 198 194 189 187 192 199 178 182 191 178 175 167 162 171 166 165 163 158 164 142 142 123 139 98 66 78 41 67 60 55 59 59 
45 70 70 109 161 151 168 171 175 182 168 184 191 194 189 187 191 191 188 193 189 185 192 192 178 171 166 159 167 166 161 165 164 139 142 135 137 121 97 79 53 74 59 44 61 56 
76 77 86 130 167 157 179 182 178 186 183 199 189 188 190 186 188 190 183 182 176 175 184 180 183 173 173 166 168 169 162 165 164 153 148 154 151 129 93 73 50 124 59 43 63 44 
92 81 85 149 163 169 187 191 192 191 180 195 191 187 188 187 190 184 183 182 176 180 178 184 178 169 168 170 168 165 166 165 163 164 156 166 163 139 129 127 82 93 94 44 50 50 
78 65 89 153 178 172 194 197 195 192 192 197 195 194 191 192 192 191 189 184 177 174 168 177 177 177 171 169 168 170 171 171 161 164 159 167 161 149 152 116 84 83 90 48 81 65 
70 80 102 147 182 187 200 203 194 195 191 192 188 194 191 192 191 189 188 187 179 184 169 191 181 173 175 167 161 153 155 154 151 151 151 153 161 173 153 125 92 96 62 44 88 40 
72 73 107 145 183 192 200 203 192 186 179 178 166 150 169 161 156 164 161 191 188 187 174 191 185 173 170 162 133 125 122 117 113 120 125 127 139 166 164 147 90 81 62 46 101 27 
79 67 80 141 179 195 198 196 173 133 130 144 105 97 75 84 81 95 147 145 190 187 173 174 177 161 150 110 94 68 56 65 43 52 60 74 87 153 168 156 97 75 78 34 107 55 
55 73 90 139 166 195 195 180 118 110 107 94 69 57 53 61 66 105 96 127 165 167 160 165 167 149 127 100 78 108 89 56 54 54 54 53 56 92 156 168 119 69 95 50 88 101 
88 98 71 144 147 193 190 157 111 103 83 91 165 193 143 109 77 88 107 147 167 172 161 162 162 146 131 79 157 131 156 161 161 146 133 125 101 103 88 69 136 69 102 72 82 94 
75 69 103 160 180 197 190 115 93 128 138 171 177 165 148 149 151 148 123 110 102 189 173 175 165 185 79 119 142 112 112 124 121 118 123 137 148 116 92 131 114 39 60 90 86 93 
129 34 122 141 193 193 113 128 153 164 148 145 145 143 118 99 87 89 97 84 64 143 197 73 69 59 106 88 91 94 106 102 82 100 139 153 151 119 93 82 86 27 95 94 118 133 
84 53 74 155 195 191 76 150 173 181 183 119 72 56 108 53 88 98 106 91 91 66 169 169 155 94 71 83 89 110 78 77 11 34 170 56 105 133 107 84 84 6 153 73 93 107 
110 66 71 101 201 142 118 147 163 179 53 101 137 80 56 86 164 117 163 165 159 119 182 171 158 118 75 98 128 163 162 127 97 110 157 156 98 130 174 152 116 94 65 78 87 132 
130 60 54 25 200 48 125 102 149 95 151 170 182 173 157 150 157 146 158 185 159 193 178 160 157 188 54 135 151 172 165 152 161 162 171 201 168 141 151 168 143 182 46 60 65 107 
96 55 45 140 193 212 145 173 143 170 191 194 186 180 162 139 129 128 156 164 85 196 175 171 153 182 94 125 143 134 137 143 153 158 156 182 188 181 179 180 106 187 62 61 74 73 
76 66 61 159 184 207 114 169 192 197 193 199 178 155 140 143 164 159 174 191 104 186 175 176 165 184 182 41 175 173 178 177 165 169 181 183 184 179 187 181 39 180 86 81 97 66 
88 89 76 162 184 181 56 191 194 203 194 200 201 196 198 188 186 195 192 157 191 187 183 176 170 182 178 122 153 185 182 177 178 188 185 179 184 188 185 190 191 166 91 85 122 78 
96 103 80 163 184 182 159 204 194 198 199 199 191 189 196 192 192 191 189 102 190 194 182 188 171 168 164 182 128 130 183 180 176 181 182 184 182 148 101 191 192 164 117 96 111 44 
147 84 82 166 175 186 194 76 196 201 200 197 190 184 179 177 178 166 98 179 189 198 187 192 170 164 174 169 130 156 94 84 85 93 101 133 170 195 190 199 187 166 149 55 167 87 
149 75 112 154 173 187 196 190 185 144 127 139 157 142 133 132 118 166 176 181 188 201 196 196 169 168 164 158 163 157 167 167 156 152 161 156 168 177 181 180 175 169 142 66 101 116 
171 89 73 129 180 186 198 191 185 191 184 183 191 189 187 189 186 157 175 191 193 205 190 190 178 168 178 180 167 172 142 152 162 171 177 175 191 193 192 179 175 168 144 78 87 61 
202 92 83 147 186 184 195 198 199 202 198 198 196 188 181 171 138 135 195 196 193 186 184 181 166 155 152 141 157 177 117 143 156 149 164 171 178 191 196 187 189 175 155 86 56 54 
165 83 93 128 183 181 195 196 194 195 199 192 188 176 170 145 134 157 177 119 77 95 154 141 122 119 107 36 49 136 110 135 140 149 148 170 178 185 187 172 186 177 142 80 75 63 
53 114 96 98 159 184 196 194 187 195 189 181 172 172 139 140 139 171 99 114 129 150 94 117 71 104 89 142 116 140 159 151 125 136 144 146 167 173 190 185 165 168 137 82 74 69 
36 142 86 100 172 169 190 193 191 196 189 186 173 160 139 132 161 179 184 174 178 123 108 77 50 45 74 85 101 136 162 174 150 122 135 144 143 162 186 164 176 159 116 78 95 59 
48 73 117 119 111 154 178 187 192 194 184 177 163 145 135 139 175 188 194 166 147 94 107 102 75 68 115 138 92 102 120 146 137 123 116 133 127 157 170 168 164 145 99 80 70 63 
50 63 119 114 112 159 169 177 187 184 186 160 145 133 125 171 161 155 124 154 128 112 118 86 99 103 85 121 106 79 101 128 113 116 100 141 133 148 155 166 157 146 97 92 73 41 
38 46 111 100 99 160 165 171 177 175 176 150 140 124 109 128 124 113 95 117 77 77 123 73 96 92 83 86 110 103 65 88 81 83 108 101 140 134 160 175 139 143 62 65 72 42 
42 78 79 101 76 134 156 167 168 182 166 140 136 143 117 87 79 101 96 111 110 81 67 61 73 81 78 80 92 80 98 87 41 33 76 83 130 128 135 140 124 113 68 65 78 51 
41 50 120 81 87 97 127 157 154 167 154 136 162 110 105 57 48 66 80 91 64 61 55 59 62 74 59 37 34 20 20 26 30 66 86 106 110 108 111 113 84 55 91 62 60 49 
52 43 55 99 100 90 85 125 131 169 135 108 157 102 80 55 57 75 68 68 75 39 72 56 47 76 53 78 118 138 119 110 98 100 63 70 105 94 91 77 86 55 57 63 52 48 
47 60 51 66 62 54 70 87 114 108 113 98 147 105 85 65 140 134 160 170 172 160 156 142 137 148 153 140 148 172 169 120 113 117 77 53 89 99 75 66 58 62 70 58 52 46 
61 55 46 65 70 60 81 68 94 87 110 86 106 78 48 102 149 148 161 156 165 162 154 156 156 150 142 139 143 143 153 153 121 98 49 79 80 82 47 62 42 56 44 48 46 44 
62 52 46 56 51 55 57 51 63 61 87 83 81 74 52 111 145 153 157 155 145 139 124 133 109 120 110 107 128 140 131 127 116 75 68 54 69 61 55 55 46 52 61 55 41 48 
57 53 49 56 72 56 64 42 45 52 81 56 60 56 61 107 129 146 152 140 144 134 115 89 104 97 103 114 112 102 112 117 101 80 47 41 57 57 50 32 62 63 54 38 36 41 
55 55 53 51 39 46 51 51 37 62 75 51 51 62 50 86 111 131 126 129 131 118 96 72 82 84 82 77 74 96 112 109 108 70 85 50 43 38 49 30 41 37 53 38 34 47 
54 54 46 41 45 48 54 58 54 49 45 42 56 53 75 67 74 114 114 118 130 154 143 135 92 112 90 96 121 112 138 113 106 67 65 41 49 49 32 42 40 55 37 38 40 41 
47 53 53 43 42 58 47 53 36 38 47 48 46 40 41 66 65 76 109 103 125 130 155 151 130 125 146 136 111 100 107 89 80 42 44 33 47 49 39 32 58 40 40 38 39 44 
49 57 51 44 43 44 56 65 42 41 61 30 47 42 49 47 69 73 75 85 115 111 125 132 134 124 111 108 99 94 98 81 102 57 78 48 31 41 55 67 46 68 31 33 38 45 
59 54 53 41 35 39 54 62 37 35 37 31 33 55 30 32 55 58 66 78 73 88 111 84 84 84 90 85 77 61 87 58 125 77 37 74 26 45 33 97 21 21 37 38 38 38 
56 54 47 47 43 42 38 66 36 42 53 35 47 46 30 57 39 62 48 69 64 66 84 71 70 69 63 74 56 56 111 93 89 66 65 45 31 30 103 134 19 22 24 46 41 41 
60 63 65 70 71 78 72 68 41 32 72 54 45 33 38 57 54 60 31 46 73 47 51 58 49 68 47 38 53 58 79 57 63 46 48 44 28 81 114 134 10 22 25 24 105 77 
121 119 118 114 95 70 120 56 27 36 95 66 55 39 37 67 51 34 54 25 53 36 43 49 40 42 28 36 27 80 72 64 47 48 37 48 34 115 126 133 6 24 23 28 80 104 
96 125 107 82 92 42 145 75 24 27 67 109 71 36 58 39 47 35 34 47 50 36 24 40 36 42 42 35 35 51 59 51 49 71 32 93 92 121 131 132 8 21 28 40 101 137 
