P2
150 65
255
127 136 137 137 138 140 141 142 142 143 144 144 146 147 146 147 148 150 150 151 152 153 153 154 155 155 156 157 158 159 160 160 161 162 162 163 164 166 166 166 167 167 169 169 169 170 171 172 173 172 173 174 176 177 177 178 179 181 181 181 181 181 183 183 183 184 185 187 187 186 187 189 187 186 187 189 191 192 193 191 179 169 161 146 140 147 151 134 85 78 59 68 67 63 64 60 62 67 56 59 55 70 54 22 24 23 20 20 20 18 18 18 21 26 26 23 22 23 23 23 21 21 20 19 20 20 18 18 18 16 15 12 7 7 7 7 8 8 11 11 9 11 10 10 12 12 13 14 17 15 
133 143 142 143 145 146 147 148 148 150 150 150 152 153 153 155 155 156 157 157 159 160 161 162 163 163 164 165 165 166 166 168 169 170 170 171 173 174 174 174 175 176 177 178 178 180 180 181 181 181 183 184 185 186 187 188 189 191 191 191 191 192 193 193 193 195 195 195 195 196 196 194 196 196 196 192 187 182 168 145 132 135 132 129 136 122 101 96 76 56 49 60 57 64 65 58 64 72 65 64 55 68 52 25 25 25 24 23 21 21 21 20 23 28 27 27 26 24 24 23 22 21 20 20 20 19 17 17 17 15 15 11 7 7 9 8 10 11 15 15 12 11 10 11 13 12 12 12 15 13 
133 143 142 143 145 145 146 147 148 149 150 150 152 153 154 154 155 156 158 158 158 159 161 161 162 163 163 164 165 166 167 168 169 171 171 171 172 172 174 175 175 177 178 179 178 179 180 181 181 182 183 184 185 186 187 187 187 190 191 192 192 194 195 195 195 196 196 195 196 196 195 198 199 191 186 163 133 122 94 87 85 75 74 75 65 58 69 69 63 62 49 46 48 50 61 49 50 54 55 56 48 60 45 32 30 25 25 23 20 20 20 22 23 23 23 21 21 22 21 21 22 20 19 19 19 18 16 15 13 15 14 12 11 11 10 11 11 12 13 12 11 11 12 12 11 12 14 13 16 13 
133 144 142 144 145 145 146 147 149 150 150 151 151 153 154 156 157 156 159 160 160 160 162 162 162 164 165 167 167 167 169 170 171 172 173 174 174 174 175 176 178 178 179 180 180 181 182 183 183 185 186 186 187 188 189 190 191 191 193 194 195 196 196 196 197 197 197 198 198 198 196 194 183 180 160 121 100 73 60 67 67 67 58 64 71 68 54 53 63 71 62 50 72 73 52 47 42 39 40 44 43 47 44 38 39 31 24 24 25 24 21 22 22 23 23 23 22 21 22 21 21 20 20 20 19 19 19 18 17 18 17 13 7 6 5 6 6 7 7 7 8 8 8 8 8 9 11 10 11 10 
133 143 143 145 145 146 147 148 149 150 152 152 152 154 155 156 157 157 158 160 161 161 163 163 163 165 166 167 168 168 170 170 170 172 173 174 175 176 177 178 179 180 180 182 182 183 183 183 184 185 187 188 189 190 190 191 192 193 194 195 195 195 197 198 199 199 199 197 198 190 177 165 162 144 101 73 68 46 40 38 44 51 61 76 92 86 84 77 64 77 79 70 78 65 45 40 47 41 36 38 43 39 42 41 32 31 31 29 26 26 23 26 27 26 24 24 25 24 25 24 22 22 22 22 22 21 22 22 22 21 21 13 5 5 4 5 5 4 4 4 5 5 5 5 5 6 5 4 5 5 
133 142 143 144 146 146 146 148 149 150 152 153 154 154 155 156 157 158 159 161 161 162 163 164 164 166 166 166 168 169 170 171 171 172 174 175 175 176 178 179 179 179 180 182 183 182 184 185 186 186 187 189 190 191 191 191 193 194 196 197 196 197 197 199 198 198 200 201 180 133 86 63 70 61 47 47 61 70 78 75 63 70 68 74 82 71 68 77 61 62 68 69 72 62 47 45 47 48 46 35 36 44 48 42 36 38 35 27 23 22 23 25 27 27 26 25 24 26 24 24 24 22 23 24 22 22 22 22 22 22 21 17 13 13 14 14 14 14 13 13 14 15 15 15 16 17 17 16 18 15 
133 143 144 144 146 146 147 148 149 150 151 152 153 153 155 157 158 158 159 161 161 162 163 164 165 166 167 166 168 169 170 170 172 173 174 175 175 177 177 178 178 179 180 181 183 184 184 185 186 187 188 188 190 192 193 193 194 195 196 197 198 198 196 194 199 200 187 179 121 74 45 46 38 45 67 72 78 80 85 93 89 76 67 55 55 51 46 42 46 40 49 57 63 59 72 60 61 66 41 41 55 41 37 38 38 36 30 27 26 27 28 25 24 24 24 27 24 24 23 23 22 22 24 23 21 22 22 21 21 22 21 14 10 9 11 11 11 11 12 11 12 13 14 13 13 12 11 12 12 10 
132 144 143 144 146 146 147 148 149 151 151 151 153 154 155 156 158 159 158 160 161 161 163 164 165 166 167 168 169 170 171 171 173 173 174 175 176 177 176 178 179 180 181 182 183 184 185 187 186 187 188 189 191 192 193 194 195 196 197 197 196 198 203 205 187 145 108 79 61 54 46 53 62 76 94 114 119 97 80 65 59 46 41 42 41 39 33 33 30 33 39 42 42 56 84 73 58 49 50 52 43 47 47 37 36 37 37 33 32 23 24 26 24 23 23 22 21 21 21 21 21 21 23 23 22 21 22 22 21 22 21 9 6 10 13 12 11 12 12 10 5 7 7 7 5 5 5 6 6 5 
132 144 143 144 145 145 147 148 149 150 151 151 153 154 156 156 157 159 159 160 161 161 163 164 165 166 166 168 169 170 171 173 173 174 174 175 177 176 178 178 180 180 182 183 184 186 186 188 188 186 189 190 192 193 194 196 197 197 198 198 199 189 161 124 91 75 64 54 61 81 97 100 116 110 100 107 98 83 72 58 47 40 34 34 27 22 24 24 25 25 29 27 31 48 44 39 42 46 57 70 67 63 56 40 38 38 35 31 33 34 27 23 23 23 24 21 22 22 21 20 21 21 21 22 22 22 22 22 22 21 21 5 2 3 5 13 7 2 3 8 4 4 3 5 10 4 9 6 11 5 
133 143 142 143 145 146 148 148 149 150 151 153 154 155 156 157 157 158 160 161 162 162 163 164 165 166 167 167 169 170 171 173 173 175 175 175 177 178 179 179 180 181 182 183 184 186 186 188 188 187 190 191 193 194 195 196 198 199 199 199 200 156 77 80 69 49 43 48 58 90 114 105 99 80 68 52 50 52 42 36 31 32 27 21 22 22 22 20 19 25 23 20 20 23 23 27 26 29 36 40 51 65 65 48 34 32 34 37 30 32 35 24 23 22 24 21 21 22 21 19 20 21 21 22 22 22 21 21 21 22 20 5 2 1 1 8 5 9 14 5 8 5 1 9 11 1 5 7 9 3 
133 142 142 144 145 145 147 148 148 149 151 152 154 155 156 157 158 158 160 161 162 163 164 165 165 167 167 168 170 171 172 173 173 175 175 176 176 178 178 179 181 182 183 183 184 186 187 188 189 189 191 192 193 195 195 197 198 193 183 175 160 121 70 63 42 39 47 70 88 101 105 79 64 65 57 57 52 41 37 32 36 34 28 31 26 22 21 20 28 27 28 26 22 21 23 27 26 25 27 30 31 37 41 50 42 37 33 30 34 27 31 32 26 22 23 20 20 21 20 18 17 20 20 21 22 22 22 22 21 22 20 13 10 12 12 16 16 31 37 23 26 32 34 41 38 34 37 41 44 39 
133 144 143 144 146 146 146 147 149 150 152 152 154 155 156 156 157 159 160 161 162 163 165 165 166 167 167 169 170 171 172 172 173 175 175 176 176 178 178 179 181 183 183 184 184 186 187 188 189 189 190 192 193 194 195 194 194 187 180 154 107 76 40 36 39 46 62 93 101 96 89 89 75 72 58 54 43 42 39 37 41 41 38 29 25 22 24 34 29 27 30 32 35 33 30 31 32 31 30 33 37 34 36 47 53 50 46 45 37 44 41 35 32 21 18 12 8 7 6 6 6 6 6 6 7 10 17 21 21 23 20 13 13 13 14 15 16 14 13 16 19 20 22 23 24 27 27 28 32 27 
132 144 142 144 146 146 146 148 149 150 151 153 154 155 156 157 157 159 160 161 162 163 164 164 166 167 167 168 170 171 172 172 174 174 175 176 176 177 178 179 180 182 184 184 184 186 187 188 189 189 191 192 191 194 193 191 197 192 153 114 73 40 38 40 55 66 86 97 90 83 84 74 59 51 55 47 49 52 47 45 43 42 40 30 31 34 37 46 37 40 46 54 67 49 53 47 41 40 35 36 36 47 35 37 49 60 54 49 45 40 43 35 33 30 27 24 22 21 17 17 16 15 14 14 9 0 11 19 19 22 20 9 10 8 9 9 7 7 10 7 3 4 6 8 9 9 7 5 6 3 
133 144 143 144 146 146 146 148 149 150 151 153 154 155 156 157 157 158 159 161 162 163 164 164 166 167 167 168 170 171 172 173 173 174 175 177 177 177 179 180 182 182 183 184 184 186 187 187 190 190 189 190 190 193 194 192 195 134 85 78 51 38 47 50 52 71 82 80 80 86 75 56 63 63 52 61 60 54 56 54 55 48 58 60 58 52 56 57 47 67 76 91 96 76 76 75 61 54 51 49 46 45 50 38 40 58 64 57 43 42 48 45 37 28 23 16 14 12 13 13 11 11 13 22 15 2 12 18 18 20 20 8 16 8 4 6 9 6 8 8 19 16 6 12 7 12 20 29 26 18 
133 143 143 144 146 146 147 148 150 150 151 153 153 153 155 155 156 157 158 160 161 162 163 164 164 166 167 168 169 169 171 172 173 174 175 177 176 177 178 179 181 182 183 184 184 185 187 188 189 188 187 188 191 192 189 191 176 160 125 61 46 48 45 46 62 79 87 81 79 73 59 69 73 62 66 65 60 63 65 68 58 65 89 75 77 68 73 65 70 103 101 100 115 100 84 96 78 70 68 75 73 53 54 54 46 47 57 78 56 40 48 49 44 39 25 15 7 6 5 7 6 4 6 20 11 2 13 17 18 19 17 4 11 16 10 9 35 46 21 12 38 42 11 124 175 21 8 25 24 22 
133 144 143 145 146 146 146 148 149 150 151 152 157 161 161 162 162 162 163 164 165 166 167 166 168 170 170 172 173 174 174 174 175 176 176 178 179 179 181 181 181 183 183 185 186 186 187 189 187 187 187 190 192 193 192 199 185 130 49 39 44 38 46 70 87 83 73 78 79 70 77 77 63 78 69 70 75 81 78 73 65 100 94 84 86 86 83 71 92 135 116 111 128 127 107 108 91 79 78 81 99 82 60 66 56 51 50 74 83 41 42 45 36 48 28 15 13 7 7 6 7 5 8 21 9 3 13 16 17 18 19 13 17 29 28 21 34 44 33 24 33 37 26 67 133 43 30 38 40 37 
132 143 142 144 145 146 146 148 149 149 152 155 141 128 132 133 135 138 140 142 145 146 148 150 152 153 154 157 159 161 163 165 167 168 170 173 174 176 177 177 179 181 182 184 187 187 189 190 188 189 192 195 196 197 191 164 114 66 51 43 40 46 70 82 87 72 80 82 70 71 80 74 85 80 86 91 87 96 94 75 80 123 101 95 92 93 92 81 113 149 126 127 136 142 132 115 108 91 90 97 116 109 80 73 58 64 56 65 86 59 36 42 37 36 36 17 15 13 8 7 7 5 9 22 8 2 12 15 17 18 17 11 11 13 13 11 10 11 19 20 20 22 26 18 11 26 30 30 31 25 
131 141 142 143 145 145 146 147 147 149 148 158 59 0 7 6 9 10 10 11 11 12 13 15 15 16 17 17 19 21 21 24 24 26 28 29 28 28 29 30 32 34 36 36 37 40 40 41 43 46 50 50 52 67 106 102 78 75 64 41 42 62 72 86 62 81 91 89 72 92 83 84 102 88 110 88 107 113 102 88 108 141 105 111 102 109 99 96 127 156 136 139 149 153 147 122 118 109 103 104 125 127 103 92 61 66 73 60 84 78 40 40 37 41 29 23 13 12 12 11 11 10 11 21 7 3 14 15 17 19 14 7 7 9 5 0 0 1 5 7 7 9 9 12 11 9 10 7 6 2 
129 140 140 143 144 144 146 147 147 149 147 155 51 0 6 3 3 0 0 0 0 0 0 0 0 0 0 0 0 0 0 0 0 0 0 0 0 0 0 0 0 0 0 0 0 0 0 0 2 0 0 2 27 71 82 82 78 77 67 46 54 63 79 77 64 85 105 92 87 107 96 100 117 119 116 102 127 127 117 111 130 149 116 131 122 126 113 115 145 172 152 144 158 159 161 139 119 130 119 108 132 141 121 111 71 69 87 75 86 79 51 32 27 38 25 16 16 12 12 12 10 9 14 20 4 4 15 17 16 18 10 4 5 9 5 1 7 4 4 6 7 7 8 10 12 25 31 9 6 4 
130 141 140 142 143 144 146 146 147 148 147 158 57 0 7 11 11 20 18 19 18 18 18 17 16 17 16 15 16 15 15 14 14 14 13 13 12 13 13 11 10 12 15 12 10 10 11 13 13 12 14 30 65 80 69 63 60 65 52 44 56 65 88 75 73 96 104 96 95 126 105 120 128 142 128 133 154 136 137 140 144 162 145 148 151 135 139 125 156 172 157 157 164 175 158 126 109 126 126 115 144 125 107 114 77 84 101 80 85 76 47 37 29 27 25 13 15 13 11 12 12 9 14 20 5 6 15 16 16 16 7 1 3 15 5 0 0 0 8 4 7 21 1 4 12 21 13 1 0 0 
129 140 140 142 143 143 145 145 147 148 147 156 59 0 7 6 32 85 82 84 84 84 85 85 85 86 87 87 88 87 88 88 88 88 89 89 89 89 88 88 89 89 89 90 89 88 89 90 87 88 89 82 65 58 51 46 52 56 48 37 50 62 85 77 78 95 101 102 101 115 114 114 106 122 99 129 147 128 133 137 154 166 152 162 158 149 153 133 167 157 139 162 171 169 150 119 99 107 94 125 134 104 85 103 81 104 109 72 89 76 43 32 27 17 23 14 13 10 9 10 10 7 14 18 3 7 16 15 15 16 15 12 14 21 13 10 10 11 13 12 12 12 11 17 13 12 9 8 7 7 
130 140 138 142 142 143 144 145 146 147 146 156 64 0 6 3 28 82 82 85 85 86 87 89 88 88 90 91 92 91 92 94 94 95 97 97 97 98 98 99 100 102 102 103 104 105 104 104 102 101 100 85 61 39 32 42 44 51 39 38 53 66 79 91 83 95 109 105 110 90 102 89 83 75 82 110 110 114 131 96 125 143 123 147 130 129 115 136 167 135 139 176 172 158 152 120 108 93 97 139 121 91 81 84 94 103 92 74 87 68 41 28 27 14 20 16 11 7 4 5 5 4 14 17 1 7 16 15 15 17 11 10 10 10 13 14 12 14 15 17 18 16 18 19 20 19 19 19 19 15 
129 139 139 141 143 142 143 144 146 147 146 156 67 0 6 3 23 81 81 83 84 86 86 88 88 88 89 89 90 90 91 93 94 95 94 96 96 97 98 98 99 101 101 102 103 104 102 103 102 99 102 82 41 26 32 35 43 46 36 40 51 72 74 105 91 96 95 94 99 89 88 74 69 65 81 107 123 118 140 122 94 127 110 127 100 99 103 123 142 119 155 172 162 168 158 120 106 78 128 135 106 74 76 90 107 86 69 82 85 58 38 29 35 24 20 20 12 9 7 8 8 6 15 16 2 8 14 15 15 16 6 3 2 5 6 3 4 5 3 5 6 4 1 0 0 0 0 0 0 0 
129 139 138 141 141 142 143 144 145 146 144 157 72 0 6 1 21 82 82 83 84 84 85 87 86 86 87 87 88 87 87 90 92 92 92 94 93 94 95 95 96 97 96 98 97 98 102 102 100 102 102 58 32 34 36 33 50 50 43 41 45 71 78 101 101 106 103 65 88 67 86 75 61 61 81 111 138 170 145 180 114 94 104 105 90 95 109 128 129 141 182 190 181 179 158 133 109 126 148 115 79 75 103 122 100 73 55 83 69 48 40 35 27 39 38 21 15 16 16 15 16 15 16 13 2 8 15 15 14 18 19 17 17 18 19 17 18 19 17 15 17 16 16 14 14 15 14 16 18 12 
128 138 138 140 139 142 143 143 144 145 143 156 77 0 5 0 17 81 83 83 84 85 83 94 104 98 100 100 100 102 103 104 106 106 109 110 112 110 112 116 115 114 116 115 126 118 99 103 99 102 91 47 33 34 34 34 43 47 41 37 46 59 74 81 118 107 117 87 82 77 74 87 71 62 69 99 111 153 150 160 171 119 101 98 70 112 132 165 159 174 188 195 190 183 169 162 146 153 127 95 93 104 127 120 94 62 57 61 48 31 49 31 22 39 45 19 11 6 5 5 5 5 3 4 3 10 16 15 16 16 12 10 13 14 14 14 14 15 14 14 14 14 15 14 13 14 14 13 11 13 
128 139 138 139 139 142 143 144 145 145 143 156 79 0 6 2 16 79 81 84 82 85 81 104 122 115 116 117 117 118 119 121 123 123 121 117 119 127 125 117 123 131 128 129 125 147 99 101 100 103 86 50 36 34 38 36 38 47 36 42 40 44 54 61 85 100 84 109 131 93 107 126 145 149 156 166 174 169 139 132 160 164 151 147 81 132 178 180 191 201 193 190 196 174 142 124 122 137 147 154 151 151 136 101 84 66 52 48 29 29 48 32 21 49 58 28 21 22 18 17 15 15 14 14 13 14 15 14 15 16 11 13 15 15 15 14 14 14 15 14 14 13 15 13 10 11 11 9 5 9 
127 137 137 138 139 141 143 144 144 146 143 156 83 0 6 2 14 77 81 83 82 84 82 92 130 154 148 150 150 150 150 151 152 152 153 148 144 146 144 131 143 153 149 158 114 132 101 102 101 104 92 55 45 40 39 44 42 33 37 42 39 44 53 55 64 88 70 90 127 137 178 195 212 229 224 219 209 204 200 190 189 191 189 199 169 174 202 201 199 197 191 186 178 165 164 163 174 189 194 198 192 180 165 128 80 58 48 36 24 36 43 29 18 59 70 49 21 19 20 16 14 15 16 17 16 15 15 15 16 16 9 6 10 15 14 14 14 13 13 8 12 14 13 12 11 9 11 11 8 12 
128 139 136 138 139 140 143 143 144 144 143 157 87 0 6 2 12 74 81 81 83 85 82 93 118 151 147 149 150 150 150 150 150 149 151 151 140 123 126 129 131 128 140 156 113 134 99 102 101 101 100 74 48 59 48 38 33 40 42 38 40 43 49 51 71 119 85 76 128 171 188 198 195 163 157 144 141 136 142 171 189 195 188 197 208 205 202 207 202 192 186 158 159 184 187 182 177 176 176 172 172 172 161 136 110 56 40 35 42 44 41 30 16 51 69 61 31 17 19 18 15 16 16 15 14 14 14 15 16 11 19 46 37 15 14 14 13 12 11 8 11 11 8 8 7 4 5 6 7 11 
127 137 135 138 139 141 141 143 144 144 143 153 92 0 6 3 11 75 81 81 82 84 80 90 112 150 148 150 151 152 151 152 154 154 155 154 143 126 126 127 130 129 140 157 111 130 100 100 100 102 101 83 59 68 66 46 35 46 37 37 39 39 49 54 89 126 115 98 164 171 176 151 105 118 101 77 91 140 153 141 149 175 171 165 180 193 202 208 204 190 162 129 160 162 147 138 130 98 96 93 95 102 132 124 100 63 51 47 45 48 40 32 18 49 69 73 40 17 16 18 14 13 14 14 14 13 14 13 14 7 19 45 39 14 11 9 6 7 4 5 8 8 3 2 2 2 4 3 6 12 
126 137 136 137 139 140 141 142 142 144 142 153 95 0 6 3 11 73 79 80 81 84 80 91 105 148 147 149 150 151 152 151 153 153 153 149 143 124 125 128 130 129 137 158 110 129 100 98 98 100 102 77 66 65 74 68 44 43 42 44 37 42 51 64 98 127 129 151 184 169 150 81 145 179 74 39 41 91 210 189 164 167 168 152 160 179 197 206 201 186 140 111 145 151 156 186 111 56 48 70 130 97 58 107 99 92 65 57 42 39 39 35 18 46 74 88 51 15 15 18 17 14 15 14 14 16 15 15 16 7 6 7 13 15 8 3 3 4 3 3 4 5 6 8 6 4 4 4 8 15 
127 137 136 137 138 139 141 142 142 143 141 152 100 0 5 2 8 72 80 80 81 83 81 91 97 133 135 136 137 139 141 141 142 142 140 139 140 122 124 129 130 129 137 156 112 128 99 98 99 99 101 85 61 56 58 64 50 43 50 39 35 40 48 72 108 134 152 180 184 168 134 121 140 155 110 74 81 130 180 164 161 163 179 162 168 176 191 197 197 182 132 119 144 146 169 184 99 49 39 75 142 133 69 77 104 114 84 58 64 39 32 31 16 27 66 92 59 7 6 10 8 6 6 7 8 8 7 7 8 2 1 1 13 15 8 2 4 10 9 2 2 2 4 5 4 2 4 2 9 16 
125 135 136 136 137 138 140 141 141 142 142 150 103 0 5 2 6 70 78 79 80 82 78 90 94 134 125 116 137 123 123 125 135 145 140 140 139 121 124 129 129 127 136 153 118 130 98 97 98 99 97 97 68 55 47 41 54 54 45 35 33 35 61 96 116 138 168 183 190 180 163 164 152 152 157 166 172 174 163 167 172 177 162 171 174 169 182 189 186 175 132 118 141 160 153 149 157 142 111 105 113 92 90 89 116 130 97 59 63 44 33 29 22 16 48 84 58 5 4 1 0 2 0 0 1 0 2 1 2 4 5 6 16 21 18 16 17 20 19 18 8 8 15 13 12 14 17 16 18 22 
124 133 134 135 136 138 140 140 141 141 141 150 105 1 5 1 5 69 79 79 80 81 79 87 99 132 90 138 147 125 127 128 135 129 139 140 141 119 124 129 130 128 136 153 125 133 99 95 98 97 97 99 68 60 43 55 58 48 41 36 32 45 84 99 116 140 170 183 190 189 176 178 198 201 205 207 202 201 205 201 190 179 177 185 171 164 174 178 177 173 135 115 134 159 180 178 175 171 162 142 140 133 117 123 139 129 103 64 65 49 30 26 20 20 31 73 52 9 3 1 3 7 4 4 5 5 9 5 2 8 11 12 14 14 16 16 16 16 15 15 5 5 15 16 15 15 16 16 18 17 
123 135 134 136 136 139 138 139 140 140 140 149 107 1 4 2 4 66 81 80 80 81 79 87 98 125 61 137 150 144 132 123 137 125 120 136 129 127 113 122 119 119 135 150 109 126 100 96 95 96 95 100 50 58 65 64 53 45 40 35 36 61 87 98 123 140 167 184 191 195 194 191 193 200 203 202 204 205 203 199 198 193 187 184 167 157 171 177 178 171 139 114 133 147 175 182 179 176 172 165 158 151 144 143 146 139 106 64 62 59 39 20 20 23 39 56 47 6 4 2 2 6 9 6 5 7 6 3 3 4 5 7 11 12 14 15 14 14 13 7 5 4 11 12 11 12 12 10 11 8 
124 134 134 136 137 138 139 140 139 140 141 148 111 3 3 2 4 65 79 78 81 80 79 87 95 148 158 143 145 148 138 122 137 141 106 132 117 142 140 125 132 131 123 132 98 122 100 94 95 96 96 101 52 50 78 58 49 42 39 40 52 68 85 103 123 141 171 185 190 195 197 194 198 202 204 201 202 203 206 208 208 196 184 183 170 165 170 176 181 172 147 119 124 145 170 182 183 176 173 168 168 161 158 156 154 145 115 65 54 61 41 30 18 27 46 48 41 3 2 2 7 12 8 6 4 3 3 2 2 3 5 10 14 14 16 16 16 17 15 7 4 7 15 14 13 15 14 14 14 11 
124 134 133 134 136 137 138 139 139 140 141 148 115 4 3 3 2 62 79 78 80 80 79 87 93 140 152 141 142 137 125 125 134 133 122 139 150 88 124 144 67 49 62 62 60 124 99 94 95 95 96 101 56 49 73 54 45 46 46 50 51 74 90 106 118 146 170 180 187 190 196 197 201 205 206 213 217 216 221 219 212 197 188 178 159 168 172 174 181 169 148 123 115 147 170 192 192 190 185 181 178 171 162 157 148 140 118 68 43 54 39 29 26 29 46 51 37 8 0 5 11 7 3 5 4 3 1 2 3 7 11 11 12 20 28 22 21 20 8 1 4 13 15 15 15 15 15 14 13 10 
123 133 133 134 136 136 137 138 139 141 140 146 117 6 1 3 2 60 79 77 79 79 78 86 90 137 150 144 144 144 109 107 118 129 141 130 150 123 128 159 90 25 34 33 50 124 100 94 95 95 98 100 54 52 68 52 50 52 45 45 48 78 97 113 115 141 165 174 179 185 190 197 203 207 214 219 221 221 222 218 215 205 172 159 156 168 161 173 192 179 145 120 109 139 188 194 200 203 196 188 184 177 161 159 144 125 114 62 43 51 39 25 26 37 51 51 37 9 3 11 10 0 1 1 4 3 1 0 3 10 12 12 14 19 25 22 25 33 29 22 20 17 14 13 13 13 14 13 14 10 
123 133 132 134 135 135 136 137 138 139 140 145 121 9 1 3 2 60 79 77 79 78 77 85 89 136 145 129 144 143 120 124 116 119 139 131 146 146 146 154 134 101 105 121 111 118 101 93 94 95 94 100 61 62 64 56 58 54 48 58 51 73 89 106 110 137 163 169 177 183 189 202 210 215 223 223 222 220 221 215 216 196 156 166 178 175 166 194 224 223 193 137 118 113 173 207 201 194 196 196 189 178 167 152 142 117 109 52 38 54 32 23 29 51 56 43 39 27 25 26 23 9 1 2 4 4 4 4 5 7 9 9 10 7 2 11 20 25 27 25 15 6 5 1 1 2 2 3 5 5 
123 133 132 134 134 135 136 137 137 138 139 144 122 11 1 3 1 57 79 77 79 78 78 84 86 125 134 129 146 143 144 142 122 110 126 122 127 140 145 146 149 155 151 150 112 116 103 93 95 95 96 95 73 73 65 67 63 54 67 87 59 70 114 151 105 129 158 167 174 182 192 201 209 216 220 226 224 219 212 209 209 195 165 175 164 156 165 182 212 208 201 134 120 112 145 212 194 191 197 193 190 185 172 154 135 116 104 45 33 47 23 24 30 46 56 43 30 25 19 20 17 9 5 5 5 8 8 8 9 6 4 4 5 5 4 4 13 13 16 16 6 4 5 4 6 5 2 1 0 0 
123 133 131 133 134 135 136 137 138 139 139 145 125 12 2 3 0 57 79 75 79 79 79 84 87 116 143 141 143 146 145 144 143 137 121 116 110 110 139 138 137 137 139 153 118 116 102 93 96 96 95 92 87 78 69 73 72 68 103 108 65 77 115 174 118 120 157 166 169 180 190 201 210 213 219 222 222 213 202 205 206 199 177 158 172 166 172 162 161 160 140 108 134 133 178 201 204 208 203 191 187 183 173 157 129 105 92 36 37 35 15 29 34 45 57 45 16 22 12 9 7 4 6 6 7 9 8 7 7 6 6 6 6 9 8 6 6 11 10 7 6 8 9 6 9 11 12 4 4 2 
121 131 131 132 134 134 136 136 138 139 139 143 127 15 2 4 0 54 80 77 79 78 78 84 86 117 144 141 141 142 144 144 145 149 151 146 139 147 142 139 145 145 143 149 109 116 103 93 94 93 91 95 93 73 78 86 88 95 133 98 81 70 105 185 133 115 155 168 172 181 192 200 206 211 211 215 216 208 202 206 199 195 194 184 182 193 191 176 155 156 146 140 150 167 183 193 205 208 200 190 185 181 170 158 131 98 83 30 32 27 28 40 32 47 54 25 9 18 15 6 6 5 6 5 5 6 5 4 5 4 5 6 5 5 5 4 4 6 6 3 1 1 2 2 2 2 4 5 5 3 
120 130 131 132 133 133 135 137 137 139 138 142 128 16 1 4 0 52 80 75 77 76 80 84 84 116 150 144 145 145 148 151 150 147 139 129 122 115 115 124 127 129 128 139 118 117 103 92 94 94 92 98 86 85 91 101 105 121 125 82 99 68 51 114 127 113 152 167 175 183 191 196 203 208 208 212 206 198 204 200 192 191 191 194 197 203 205 196 200 194 174 157 158 158 167 177 192 204 195 188 184 175 166 156 119 94 74 26 23 27 39 42 32 46 55 25 23 24 27 22 23 21 20 20 19 19 18 18 21 22 23 24 26 26 26 24 25 24 22 22 21 20 20 17 17 16 16 14 12 9 
120 130 130 131 133 134 134 136 137 138 138 140 132 19 0 4 0 52 80 76 78 78 80 80 101 83 128 128 131 132 124 111 106 101 103 113 126 138 149 151 151 154 156 161 102 123 101 91 93 92 91 98 92 84 103 109 117 121 106 95 104 72 47 24 81 124 143 172 177 187 192 196 200 205 211 203 195 208 203 194 192 190 193 196 200 203 200 192 198 194 180 163 159 158 156 166 177 186 197 187 181 172 162 141 113 100 68 18 25 35 36 35 35 52 46 33 31 31 33 29 29 27 28 29 28 29 29 29 33 37 37 38 40 41 41 41 40 39 41 31 35 37 35 33 34 35 33 32 33 25 
121 130 129 131 132 134 135 135 137 138 137 140 134 21 0 4 0 49 80 76 77 77 79 73 132 122 112 116 117 114 107 101 110 112 117 123 122 123 123 121 120 122 123 120 115 156 96 92 93 94 91 100 98 90 114 113 121 116 119 99 90 69 58 41 62 121 143 166 180 189 194 198 201 205 202 192 206 188 200 197 191 186 186 186 187 183 179 175 175 170 166 161 160 160 162 162 181 185 183 184 173 170 158 137 117 104 64 14 23 33 35 39 43 44 38 31 32 31 31 28 29 26 28 29 29 29 30 31 28 22 35 41 42 42 42 42 42 41 36 28 41 40 39 40 39 39 39 38 39 30 
122 130 129 131 132 133 134 135 137 137 137 138 136 24 0 4 0 48 80 75 77 77 79 73 115 148 146 148 149 149 152 155 154 155 156 156 157 159 159 159 161 162 163 163 169 155 97 92 94 95 92 98 97 91 118 101 102 118 115 93 77 66 68 61 56 108 143 162 178 186 192 199 203 211 200 197 195 154 146 133 125 122 121 128 130 129 135 135 133 125 111 105 110 114 121 131 170 188 175 179 167 156 151 132 112 106 58 15 22 31 52 53 41 37 37 31 32 31 31 27 28 26 28 30 30 28 29 31 27 16 35 42 41 42 41 42 41 41 35 31 43 41 42 41 40 40 34 15 31 34 
120 130 130 132 132 133 134 135 135 135 137 138 138 27 0 5 0 44 78 74 76 77 78 77 78 80 81 82 83 83 84 85 87 89 90 91 91 92 93 94 94 95 97 98 97 99 92 93 94 95 93 96 98 86 101 91 100 105 105 87 65 73 76 77 78 90 133 159 171 181 189 196 198 206 211 202 187 162 148 131 127 127 133 140 141 141 141 135 136 129 117 110 104 100 90 107 139 175 169 186 167 154 146 122 114 105 47 14 27 38 65 46 33 28 32 30 29 30 28 25 26 26 28 28 28 28 29 33 35 37 39 40 41 42 42 42 40 42 35 32 43 41 41 41 39 42 37 24 35 33 
119 128 129 131 131 132 133 134 135 135 136 137 138 29 0 6 0 42 77 73 76 77 78 78 79 79 80 81 81 82 83 84 83 83 84 85 85 84 85 86 86 85 86 87 88 88 91 92 93 93 92 95 91 79 86 98 93 91 94 82 56 70 82 84 90 83 108 148 165 176 184 189 198 198 207 195 191 186 181 177 169 162 159 156 162 171 179 170 164 147 132 125 126 125 128 136 152 173 179 186 160 152 139 119 114 92 29 15 32 42 43 32 24 21 29 31 27 26 27 27 27 25 26 28 27 26 28 32 33 34 37 38 36 38 38 39 38 41 38 33 38 37 37 37 37 36 36 39 39 30 
119 129 128 129 131 132 133 134 135 135 136 135 139 32 0 5 0 39 77 72 74 75 76 77 79 80 78 80 81 80 82 83 83 84 83 84 85 85 86 87 87 87 88 89 88 89 90 91 90 91 91 93 60 65 82 93 83 83 81 81 55 67 88 86 84 73 83 117 157 170 179 186 191 198 199 192 186 187 179 183 188 184 186 187 183 176 167 171 166 159 156 154 150 152 145 142 143 158 180 175 152 142 128 117 107 64 14 16 27 48 39 26 18 22 31 28 29 30 27 25 27 25 26 26 26 29 32 34 36 39 40 38 38 39 38 38 39 37 35 32 30 30 29 29 30 30 28 28 29 24 
118 129 127 127 129 130 132 133 134 136 136 135 140 36 0 5 0 37 79 75 78 79 80 81 82 83 83 84 85 86 87 87 87 90 90 90 90 91 92 92 91 93 94 94 95 94 93 95 95 96 92 95 43 46 63 79 78 76 76 72 58 54 91 86 84 75 77 85 122 160 169 178 183 189 191 185 178 176 177 182 183 187 190 194 191 183 178 179 179 179 173 164 158 154 143 137 133 147 169 155 143 133 121 111 82 26 9 20 33 39 31 29 22 23 27 26 26 27 26 23 26 26 26 26 25 29 32 33 36 39 39 39 40 39 37 38 39 33 35 38 38 37 38 38 37 38 36 36 36 29 
117 126 126 128 129 130 132 133 134 133 136 136 141 40 0 5 2 12 22 23 24 26 28 29 31 33 34 35 36 39 41 42 43 46 49 50 51 53 56 58 59 62 64 66 68 70 70 72 75 76 76 85 43 11 42 68 77 68 66 66 61 45 75 91 78 76 75 73 91 118 154 168 173 180 183 181 175 171 179 183 185 192 190 184 178 175 169 167 164 165 164 165 162 156 144 129 130 147 156 142 136 125 111 85 34 10 13 25 34 37 34 33 33 35 30 27 27 27 27 26 26 26 26 26 27 27 28 30 29 30 32 33 34 34 35 38 39 33 36 38 38 35 35 34 34 36 35 36 36 29 
117 126 126 128 129 131 133 132 131 133 135 134 141 41 0 2 0 0 0 0 0 0 0 0 0 0 0 0 0 0 0 0 0 0 0 0 0 0 0 0 1 1 1 1 1 2 3 4 5 6 7 11 30 16 15 53 82 75 65 57 57 49 52 80 76 71 74 71 97 122 113 145 160 169 173 174 174 170 179 185 187 191 189 188 185 181 183 178 169 167 160 161 163 161 140 133 129 136 141 133 123 119 84 26 19 18 24 32 35 38 37 37 40 36 30 30 29 28 28 27 28 28 28 27 29 30 30 29 28 27 27 29 30 29 30 36 40 32 35 38 38 38 37 36 37 36 31 29 30 26 
115 125 126 127 127 129 130 131 131 132 133 132 139 54 10 15 11 11 10 9 8 7 6 5 4 3 2 1 0 0 0 0 0 0 0 0 0 0 0 0 0 0 0 0 0 0 0 0 0 0 0 0 3 8 6 42 81 87 66 57 48 47 46 52 70 73 73 72 83 141 123 115 128 150 159 163 169 168 170 180 185 185 188 186 189 192 190 183 181 176 161 156 160 151 138 133 119 123 121 114 110 79 16 18 34 27 26 34 40 41 47 53 48 37 34 31 27 29 29 28 29 29 28 29 29 28 29 30 29 28 29 28 30 29 28 30 37 32 36 38 38 37 37 37 33 21 19 20 21 18 
115 126 125 125 125 128 129 130 131 132 133 134 135 127 122 121 121 120 120 119 118 117 116 115 113 112 111 109 109 107 105 102 101 99 97 97 95 92 90 88 85 81 79 77 74 72 69 65 61 58 57 54 53 53 52 65 95 103 77 68 59 47 41 42 50 56 68 69 84 133 136 129 116 113 124 136 152 163 167 174 182 183 185 191 199 204 200 193 187 179 162 158 158 145 132 121 112 106 106 85 50 3 18 41 37 42 37 39 42 48 55 59 48 38 37 34 28 30 31 29 29 29 29 31 33 35 35 32 30 29 28 28 29 30 29 28 27 28 36 39 37 36 36 37 20 14 15 17 22 19 
116 126 123 124 127 129 129 129 130 131 132 134 135 136 136 137 137 138 140 141 142 143 144 146 146 147 148 150 151 152 152 154 155 156 157 158 160 160 163 164 164 164 165 165 166 167 168 167 167 168 168 169 168 168 164 152 149 121 95 88 78 73 58 51 54 53 61 68 75 106 124 130 133 131 107 102 115 135 156 166 171 181 181 186 192 191 190 188 184 177 165 160 152 146 129 112 95 76 53 35 19 31 61 44 51 71 53 48 51 59 59 57 52 44 38 32 31 31 31 30 31 31 31 32 37 44 48 48 42 37 32 30 31 30 29 28 30 28 18 19 36 37 38 32 12 12 14 13 17 15 
115 125 123 123 126 128 128 129 129 130 132 133 134 134 136 137 138 137 138 138 139 140 141 142 144 143 144 145 145 147 147 146 148 149 150 151 152 153 154 154 155 154 156 157 157 158 159 160 161 160 160 162 162 161 163 156 143 140 116 96 88 86 89 74 70 65 71 66 62 102 136 144 145 154 140 110 104 112 121 140 151 161 165 166 171 174 174 171 169 166 158 155 147 130 105 73 42 34 51 73 45 62 63 50 56 92 77 64 60 65 70 73 72 47 34 34 35 33 31 31 32 32 31 32 32 31 34 36 34 32 32 33 32 30 30 31 30 30 24 19 35 35 38 21 7 10 11 13 13 12 
115 125 123 124 125 126 128 129 130 130 132 132 134 135 135 136 137 137 138 139 141 142 141 142 143 145 145 145 145 146 147 148 149 150 151 153 153 154 157 157 155 156 158 159 159 160 161 162 162 162 163 164 164 164 158 148 132 141 103 93 82 74 88 100 96 88 76 70 72 103 140 154 156 156 157 145 122 118 125 125 123 125 126 130 130 130 133 134 136 130 122 111 93 71 52 41 62 99 110 95 43 57 63 54 67 81 90 80 69 62 75 76 70 53 39 40 36 34 32 31 32 33 33 32 32 31 32 30 29 30 30 30 31 32 32 33 30 30 32 29 29 35 34 11 5 8 9 10 11 8 
115 124 122 123 125 127 127 129 129 131 131 131 133 134 134 135 136 138 138 138 139 141 142 142 143 143 144 145 145 146 146 148 149 149 150 151 152 152 153 155 154 155 156 157 157 158 159 160 162 161 162 162 162 159 152 138 110 79 61 73 78 70 72 70 86 92 87 79 72 89 124 153 161 163 161 159 152 133 132 137 143 141 135 131 123 117 110 102 96 87 87 88 89 73 62 91 120 119 105 88 52 59 79 62 63 72 84 83 77 68 58 57 60 54 43 46 35 33 31 30 28 29 30 30 29 30 29 29 31 32 32 31 31 29 29 30 30 30 29 31 30 29 21 6 6 7 6 6 7 5 
114 122 122 122 123 125 126 127 127 128 129 131 132 132 132 134 135 137 137 137 139 140 141 142 143 143 143 145 145 145 145 146 147 148 149 150 151 152 151 153 154 153 155 156 157 158 159 159 159 159 160 161 150 141 129 87 58 60 61 60 72 66 64 64 74 69 84 82 75 97 119 147 162 167 167 161 158 152 143 148 157 162 161 161 156 149 144 133 123 124 130 125 103 81 86 114 118 113 105 85 63 76 72 73 68 70 63 78 74 71 64 56 52 45 47 52 47 42 41 42 38 36 34 32 35 38 43 48 52 55 57 57 54 47 38 34 30 29 30 28 30 30 20 7 5 7 5 3 5 6 
112 120 121 122 123 125 126 126 127 128 128 130 132 131 132 133 134 136 135 136 137 137 140 140 142 142 142 143 144 144 146 146 147 148 148 149 150 150 151 152 153 153 154 155 155 157 157 158 159 158 153 141 141 125 92 68 56 50 52 57 69 62 57 68 67 78 90 75 80 113 133 147 155 165 168 162 154 148 150 155 163 169 171 175 173 171 167 160 152 147 138 117 92 89 101 122 123 111 103 89 64 88 96 59 67 77 52 59 66 60 61 62 58 47 47 53 56 57 56 56 54 52 50 48 49 51 52 53 54 56 56 58 59 60 58 53 49 47 44 35 33 30 31 22 6 4 5 3 5 6 
112 121 120 121 123 123 123 125 126 128 127 128 130 131 132 133 133 133 134 135 137 137 138 139 141 142 142 143 143 143 144 146 147 147 147 148 149 149 150 150 151 152 152 153 154 155 155 156 158 157 154 135 125 109 66 71 71 66 62 59 60 56 56 58 69 80 69 75 87 115 129 148 150 155 161 165 157 147 147 151 159 164 171 177 179 179 176 169 158 148 134 110 96 91 111 126 118 110 101 96 62 83 117 81 41 59 60 44 49 53 50 48 48 51 50 47 51 54 55 56 56 57 56 55 53 53 53 53 58 63 62 62 62 61 62 61 61 60 59 57 47 32 29 32 26 10 1 3 5 5 
111 120 120 121 122 123 122 125 125 125 127 128 129 130 131 132 132 134 134 134 136 135 136 138 139 140 140 142 142 142 143 145 146 145 146 147 147 148 149 149 150 150 150 151 152 153 155 155 154 156 164 154 97 70 74 69 62 59 60 58 51 47 54 64 70 61 75 86 98 122 129 145 159 157 161 167 158 148 140 144 151 158 165 171 175 176 173 161 150 142 125 105 92 103 119 120 116 104 101 100 68 69 97 97 54 36 48 50 43 40 45 48 44 44 46 36 37 47 48 46 46 45 46 46 45 45 41 42 41 39 37 37 42 47 41 32 28 28 29 27 27 29 26 26 31 30 13 1 5 6 
110 119 118 120 122 122 122 123 124 126 127 127 129 129 129 130 131 132 133 134 134 135 137 137 138 139 139 141 141 141 142 143 144 144 145 146 146 147 148 148 148 148 150 150 150 151 148 154 163 154 113 63 54 64 70 64 57 54 52 50 48 52 61 58 53 64 76 94 114 124 131 140 150 156 161 160 159 155 147 146 151 154 159 162 166 166 160 154 145 136 122 99 103 116 120 116 112 109 106 100 70 59 74 52 62 46 31 36 38 35 32 36 40 42 43 39 35 24 14 11 10 10 9 8 8 8 9 10 12 14 18 15 16 15 7 2 2 7 10 10 7 4 7 12 20 26 32 19 7 6 
111 119 117 118 120 120 121 122 124 123 125 126 127 129 129 128 129 131 131 132 133 134 135 136 136 138 138 139 139 139 141 141 142 143 143 144 146 146 146 146 147 146 148 148 147 151 158 140 96 46 23 28 42 52 51 48 47 45 48 46 51 48 46 48 56 67 72 114 125 129 132 138 144 149 153 156 161 155 152 147 150 156 158 163 164 164 158 150 146 139 117 108 115 116 116 113 111 111 110 101 75 60 56 47 55 41 36 31 32 29 25 21 24 28 32 23 11 5 3 4 5 7 6 4 4 6 7 10 14 16 18 16 16 14 18 27 25 25 24 22 21 19 18 17 16 16 20 20 8 6 
110 118 118 120 120 121 122 122 124 124 125 126 127 128 128 128 129 131 131 132 133 133 135 134 136 136 137 138 139 139 141 142 142 143 144 144 144 145 146 146 145 147 148 149 155 139 83 39 16 20 29 29 31 34 29 35 38 48 52 45 48 50 56 69 81 79 108 127 133 137 139 137 143 150 146 149 158 157 153 147 155 160 163 164 165 165 162 157 152 139 124 112 117 120 113 108 111 114 112 103 80 72 45 53 68 22 31 35 30 29 20 23 24 22 22 19 24 18 10 5 4 5 5 5 6 7 8 10 13 14 15 14 15 12 16 22 20 18 17 16 18 18 17 16 14 11 13 14 8 6 
105 112 111 114 114 116 115 117 118 118 119 119 120 121 122 123 123 123 124 126 126 127 128 129 130 130 131 132 132 133 134 134 134 135 137 137 136 137 139 139 139 139 140 124 96 48 20 28 35 28 32 31 30 28 35 32 34 34 41 45 57 93 96 95 100 114 124 126 132 136 137 135 133 140 142 143 147 148 151 148 148 153 156 156 157 157 153 150 146 136 122 114 115 107 102 104 109 113 112 102 83 87 65 69 54 25 31 31 30 22 19 28 27 25 29 28 28 26 23 22 15 10 6 5 6 6 7 9 11 13 14 14 14 11 13 16 16 12 6 5 11 17 17 18 13 5 13 21 12 6 
