P2
150 65
255
5 6 6 6 7 6 5 5 5 6 7 6 5 6 8 7 8 9 9 7 33 151 152 153 154 156 156 171 190 193 193 195 195 198 199 200 200 201 203 186 198 205 205 204 204 205 205 207 208 209 208 191 174 189 210 208 208 210 209 208 208 211 212 210 208 211 211 211 212 211 211 212 212 210 210 210 211 211 209 208 209 209 207 207 206 206 206 204 205 203 203 201 200 200 199 199 199 197 196 195 194 194 193 192 191 190 190 189 189 187 188 186 185 184 185 183 183 182 181 180 178 178 176 175 174 174 173 172 173 171 169 169 169 167 167 165 164 162 161 160 158 157 156 156 156 155 153 153 154 160 
5 6 7 7 7 6 7 7 6 8 9 7 7 8 10 9 9 11 11 9 28 151 161 160 161 164 163 178 202 203 202 204 205 207 207 208 209 210 214 191 204 215 214 215 214 215 216 218 219 219 221 202 182 197 222 218 219 220 220 219 220 221 221 221 221 221 219 220 221 219 220 220 221 221 221 221 222 222 220 219 218 219 217 216 218 216 216 215 214 213 212 211 211 210 209 209 208 207 206 205 204 202 201 201 201 199 200 199 199 197 197 195 194 193 194 193 192 191 189 188 188 186 185 184 184 183 181 181 180 179 178 176 176 174 174 173 172 170 169 167 165 164 164 163 164 162 161 160 160 167 
9 9 10 8 7 9 8 7 8 10 9 8 7 9 9 10 10 11 13 12 22 145 163 161 164 166 167 179 201 202 203 204 206 206 208 208 213 212 217 189 198 216 213 213 214 215 218 218 219 219 218 203 183 195 223 220 221 221 222 220 220 220 219 220 220 223 224 224 224 220 218 216 219 219 216 212 211 213 215 217 218 217 218 218 215 215 215 215 214 214 213 213 212 211 209 209 207 208 207 206 205 203 202 201 202 200 198 197 197 197 196 195 195 194 193 192 191 190 189 189 187 186 184 185 183 181 181 181 179 178 177 176 176 174 173 172 171 170 168 167 165 164 164 162 162 161 160 159 160 167 
8 8 9 9 7 9 8 7 9 10 9 8 8 10 9 8 10 12 13 13 16 136 164 163 167 170 168 178 203 206 206 208 208 209 211 212 212 215 219 198 203 218 214 214 215 217 219 220 222 220 220 208 186 198 225 223 225 224 223 221 220 220 220 226 225 211 195 184 183 194 203 199 183 180 182 188 194 194 195 200 207 210 210 213 217 216 215 215 215 214 214 214 213 212 211 210 209 208 208 207 206 206 204 203 203 201 200 199 199 198 197 196 197 195 194 193 191 191 190 190 189 188 187 186 184 183 182 180 179 179 179 177 176 175 174 173 172 171 170 168 167 165 165 163 163 162 161 161 161 169 
9 8 8 9 7 8 9 9 9 10 10 8 9 10 10 12 12 13 12 14 12 128 167 164 167 170 169 178 205 207 208 209 211 211 213 214 214 216 222 199 198 221 215 216 217 218 219 221 224 224 227 212 188 195 225 225 225 224 223 220 224 224 215 179 126 95 82 78 81 99 103 96 87 83 88 104 118 136 149 150 158 174 179 184 190 198 206 208 211 214 213 215 214 213 212 211 212 209 209 208 208 207 205 204 203 202 202 201 200 200 199 198 198 195 194 194 192 192 191 190 189 188 187 186 185 184 182 182 181 180 180 178 177 176 174 173 172 172 169 168 168 166 165 163 163 163 161 162 162 167 
8 9 8 9 7 8 9 8 10 12 10 9 9 9 11 11 11 12 11 14 8 119 169 165 169 171 173 179 204 207 208 209 212 212 213 214 215 216 221 199 194 222 217 218 218 219 219 223 227 224 228 214 191 194 227 225 224 228 222 211 194 175 131 78 62 70 66 56 54 53 62 74 78 73 59 64 72 78 101 115 107 125 143 146 153 162 179 194 199 206 209 209 211 210 213 211 211 210 211 210 208 206 206 205 204 203 202 201 200 200 200 199 197 197 195 194 194 194 192 192 191 189 187 186 186 186 185 183 183 181 180 178 176 176 175 175 174 171 170 170 168 167 168 165 164 163 163 162 163 168 
9 10 10 11 10 9 9 10 12 10 10 9 8 11 12 12 12 13 14 16 5 108 172 168 172 173 176 180 205 209 210 211 214 215 215 217 219 217 222 201 193 226 219 218 220 221 221 224 228 224 229 217 189 183 200 191 190 176 164 139 83 56 60 80 74 56 52 64 62 56 54 57 84 86 83 74 71 67 74 105 113 100 116 118 113 119 131 149 170 186 202 206 206 211 209 210 211 210 210 210 209 208 208 206 205 204 203 202 201 200 200 199 197 197 197 196 195 193 192 192 191 190 189 187 187 186 185 183 183 181 180 178 177 176 175 176 174 173 171 170 169 168 167 165 163 162 162 163 164 169 
9 10 10 10 9 9 10 10 10 11 11 10 9 12 12 12 12 12 13 16 4 97 173 169 174 174 178 179 206 211 213 214 215 214 215 218 220 217 224 208 194 225 219 220 222 224 223 224 226 226 226 208 168 165 181 162 147 106 89 85 92 72 47 72 78 81 77 87 77 57 68 60 76 104 99 92 77 68 65 61 68 65 68 95 103 94 117 122 117 129 160 187 196 201 204 208 208 209 208 208 210 208 207 206 206 204 203 202 201 201 201 200 199 199 197 196 195 194 192 192 190 190 189 188 188 187 185 184 183 182 181 181 180 177 175 175 174 172 172 170 170 168 167 166 164 164 163 164 165 171 
10 10 10 10 9 10 10 9 10 10 11 9 9 12 12 12 11 11 13 15 3 89 174 169 175 177 181 178 206 215 212 215 215 216 217 220 220 222 225 218 204 226 222 222 223 224 224 224 225 225 220 189 155 142 135 116 102 96 90 102 101 111 101 81 80 74 107 106 79 42 78 77 84 112 100 73 77 60 56 76 53 38 37 44 58 64 54 103 124 110 109 125 137 157 179 199 206 206 206 206 208 208 208 207 207 206 204 203 202 203 202 200 198 199 198 197 196 196 195 192 191 190 189 188 188 187 186 186 184 183 181 179 179 178 177 176 174 175 173 172 169 169 168 167 166 165 165 165 165 171 
8 10 10 9 9 10 9 10 10 9 12 9 10 12 11 13 11 11 12 16 4 78 176 171 176 179 180 180 203 218 215 217 217 219 217 219 222 224 227 222 204 225 224 224 222 224 224 224 228 213 164 123 110 99 107 115 120 121 117 121 127 115 117 117 115 84 71 95 79 54 78 58 81 77 84 52 47 37 31 62 47 21 19 26 33 41 46 66 99 108 105 101 106 115 123 148 186 204 205 201 201 206 208 207 206 206 205 203 203 202 201 199 199 199 199 197 197 196 195 193 192 191 190 187 188 188 186 186 184 183 181 179 178 177 177 176 175 175 174 173 173 170 167 167 166 166 164 164 165 171 
10 12 12 10 10 10 8 9 10 11 11 10 11 12 11 13 14 13 13 16 3 66 179 173 177 179 181 180 202 217 218 217 218 217 218 220 219 223 224 223 206 229 226 225 223 225 226 223 187 126 94 83 86 93 93 97 105 115 123 134 132 113 91 103 102 109 68 64 68 58 53 34 48 47 53 47 32 35 32 34 22 20 26 41 57 70 77 85 93 107 118 118 109 100 98 94 115 153 186 199 200 204 208 207 206 206 205 205 204 204 202 200 200 199 198 198 197 196 195 195 193 191 190 189 189 188 187 186 185 185 183 181 180 179 178 177 176 175 174 173 173 170 169 167 166 166 166 165 166 171 
10 12 12 12 11 11 10 11 10 11 11 11 12 11 12 13 13 14 14 16 5 57 179 175 179 181 182 177 198 221 219 218 221 218 217 220 223 224 229 227 205 229 227 225 227 231 203 152 104 98 98 103 112 119 115 115 111 104 94 111 119 109 99 84 87 87 88 61 47 57 41 35 36 35 34 35 29 38 37 30 34 32 32 36 43 57 73 96 118 129 128 120 111 104 101 96 95 97 108 136 166 190 205 208 204 204 205 205 204 203 203 201 200 200 199 197 196 197 195 194 192 191 191 189 189 188 188 186 185 185 183 181 181 180 178 177 177 175 174 173 172 169 169 169 167 166 166 166 167 173 
10 10 10 10 10 10 10 10 12 12 11 9 9 12 12 13 13 14 14 15 7 46 178 177 181 182 184 182 195 218 217 216 219 220 222 221 222 226 231 229 205 228 226 230 229 183 124 93 91 99 104 115 124 137 138 134 123 106 89 84 93 90 90 85 80 81 73 71 56 54 39 39 42 41 46 49 44 56 60 47 44 43 41 38 43 45 48 62 87 124 151 153 133 107 94 93 94 96 94 92 99 105 143 182 203 208 205 205 204 202 203 202 201 201 199 197 196 197 195 193 193 191 191 190 189 189 189 186 185 185 183 181 180 180 178 177 176 176 175 173 172 171 169 168 167 167 165 165 167 174 
10 10 10 9 10 10 9 9 11 10 12 10 9 11 12 12 12 13 14 15 8 36 175 180 186 183 183 181 194 218 219 220 221 223 222 223 227 229 232 231 202 224 227 232 186 117 98 98 100 104 110 114 123 127 121 123 117 98 89 86 78 72 64 64 64 79 85 84 79 64 54 50 51 64 72 79 74 68 70 59 46 47 59 61 61 77 93 100 103 103 115 131 126 116 98 89 86 85 89 94 93 83 77 96 139 181 201 204 202 203 202 202 200 200 199 197 197 196 195 194 193 192 191 190 189 189 189 186 185 184 184 181 180 180 178 177 176 176 175 173 172 173 170 168 167 167 166 166 167 174 
10 11 11 10 11 10 10 10 9 9 12 11 10 12 12 13 14 13 13 13 10 26 171 184 185 184 182 180 195 221 220 223 221 224 227 226 228 229 232 234 208 223 227 214 134 99 92 94 91 92 106 119 125 119 123 102 92 93 82 67 60 59 68 80 83 86 95 98 98 91 78 67 61 65 80 95 106 109 118 106 85 66 58 59 72 73 75 93 110 120 126 116 89 82 87 88 87 86 84 88 86 92 90 70 76 102 153 194 203 203 202 201 200 199 199 197 197 196 195 195 194 192 191 190 189 189 188 187 185 184 183 182 180 180 179 178 178 176 175 174 172 171 170 168 168 167 167 167 167 174 
9 11 10 9 9 9 10 11 10 11 13 10 10 12 13 13 13 13 14 14 12 20 165 186 182 185 183 182 195 219 221 221 223 223 225 226 227 228 233 236 207 221 229 180 93 82 98 92 93 109 108 92 86 76 79 89 78 74 71 64 71 80 94 105 108 118 122 132 138 133 133 128 111 108 120 131 143 149 140 141 133 106 81 64 67 90 92 91 98 103 109 107 108 88 71 73 78 81 85 85 85 86 88 90 69 69 87 137 191 204 202 201 199 199 199 197 198 196 195 195 194 192 191 190 190 189 188 186 185 185 182 182 181 180 180 178 176 176 175 173 172 172 170 168 168 167 166 165 167 173 
10 12 12 10 10 11 11 10 11 12 12 10 10 11 13 12 11 13 15 14 12 12 156 193 181 185 181 183 191 218 220 221 222 224 223 226 225 226 233 236 215 222 222 131 78 118 150 114 98 109 108 96 84 80 73 70 67 61 61 79 98 109 117 119 133 141 153 163 162 160 162 166 164 161 162 162 163 158 153 155 155 143 125 111 95 88 108 107 98 98 96 97 93 91 86 77 72 68 69 77 85 85 83 85 87 72 68 80 136 189 203 201 199 200 198 198 198 195 194 195 193 192 191 190 190 189 188 186 185 185 183 182 182 181 179 179 177 176 176 173 171 172 170 168 168 166 165 164 167 172 
10 11 12 11 10 10 10 10 11 11 11 10 9 12 12 13 11 12 13 11 12 7 148 197 180 184 186 185 190 219 220 219 221 224 224 224 225 226 229 236 217 224 192 98 124 168 156 134 103 83 77 82 99 104 93 74 59 59 81 102 116 126 136 148 153 156 162 163 166 164 163 168 170 170 170 170 168 167 166 164 159 156 146 140 130 111 95 108 115 96 85 81 87 81 70 72 76 73 66 66 75 83 91 88 86 83 70 67 84 150 194 200 200 199 198 198 197 196 195 194 193 192 192 190 189 188 187 186 185 185 182 182 181 180 178 179 177 176 175 173 172 171 169 167 167 167 165 164 166 171 
8 10 10 10 10 10 10 10 11 11 11 9 9 11 11 13 12 12 12 12 13 5 133 193 181 185 185 185 189 218 217 221 220 221 223 223 225 226 227 233 213 212 135 117 183 189 159 113 89 88 90 95 90 80 62 53 58 77 104 118 129 139 148 152 154 159 165 167 170 172 175 178 175 175 174 172 173 173 170 170 163 159 156 150 146 136 126 110 114 111 87 82 71 74 82 63 71 78 77 69 69 73 82 96 90 87 74 64 69 113 168 193 199 199 198 198 197 196 194 194 192 192 190 190 189 188 187 187 185 184 183 182 181 179 178 178 177 176 175 174 172 171 169 167 167 166 165 164 166 170 
10 11 9 10 10 9 10 11 9 9 10 10 10 10 10 13 13 13 13 11 13 2 118 192 179 182 186 184 187 217 217 219 219 220 222 223 224 224 224 231 206 169 126 162 184 186 167 103 81 88 86 93 92 55 47 55 80 117 135 136 138 139 145 152 156 161 164 167 173 174 177 180 179 175 177 175 176 174 171 169 165 157 156 155 151 143 132 126 116 113 102 81 75 66 74 78 64 73 79 81 71 69 73 85 95 95 98 70 62 79 142 188 197 199 199 197 196 195 194 193 191 192 190 189 189 188 187 185 184 184 183 182 181 179 178 177 176 175 173 173 173 171 170 168 166 166 164 164 166 168 
9 10 9 10 10 10 10 9 10 10 10 11 9 10 11 12 12 13 12 12 14 1 105 189 179 183 184 184 185 213 217 216 218 220 219 220 220 222 222 228 208 146 166 193 195 187 138 94 98 94 77 74 63 49 50 63 99 130 138 140 144 145 146 153 157 161 169 171 175 174 177 182 178 179 182 182 176 173 170 169 168 162 153 150 149 144 139 139 135 128 108 92 77 73 69 81 65 70 86 75 70 72 72 71 85 94 101 102 81 62 83 154 199 200 198 196 195 194 194 193 191 191 190 188 187 187 186 186 183 183 183 182 181 179 178 177 177 174 173 172 172 171 169 167 165 165 164 164 166 170 
8 9 9 9 10 9 10 10 10 10 9 9 10 10 10 12 12 11 12 12 14 1 90 188 178 181 182 182 182 212 218 216 217 218 220 217 218 220 221 225 212 182 196 211 218 187 107 91 84 78 92 96 60 41 49 81 113 127 136 143 145 147 151 155 159 165 171 173 178 178 179 181 181 183 182 181 179 176 173 172 166 161 155 150 148 146 141 145 138 126 106 90 85 77 70 72 75 78 97 95 86 74 71 72 78 90 89 91 104 88 71 91 148 192 199 197 195 194 193 193 192 190 189 188 187 187 187 186 184 183 181 181 181 180 177 176 176 175 174 173 172 169 168 166 165 165 165 164 165 168 
8 11 11 10 11 11 10 12 11 10 10 11 11 10 11 12 12 12 13 12 13 2 78 185 174 178 178 182 179 211 218 217 217 219 219 217 217 218 222 222 215 208 211 215 214 153 94 87 81 92 102 82 42 37 62 97 116 124 138 143 150 150 154 162 169 173 179 182 183 182 181 184 184 183 181 179 180 178 177 177 170 163 159 151 151 147 148 144 135 121 110 91 74 63 65 66 72 88 114 120 120 110 92 87 75 76 89 99 90 85 79 95 106 144 183 194 194 194 192 192 191 190 190 188 188 187 186 185 184 182 181 180 179 179 178 176 175 174 173 173 172 169 167 166 166 165 165 165 166 167 
10 9 10 11 11 10 11 11 11 10 11 11 10 10 11 12 12 12 12 11 12 4 65 185 175 177 179 179 177 205 215 214 216 216 218 216 216 219 218 221 215 205 220 218 193 121 88 88 91 99 109 84 40 46 92 109 116 126 138 142 144 151 161 171 178 184 188 187 187 188 189 189 188 184 182 186 187 185 184 184 178 171 161 154 154 151 146 141 133 122 111 104 79 55 46 59 71 64 86 85 90 91 86 87 87 89 94 114 114 72 67 74 113 159 179 190 194 194 193 192 190 190 190 188 188 187 185 185 184 182 181 180 180 178 177 175 174 173 172 170 170 168 168 167 164 165 164 163 165 169 
9 10 10 10 10 10 10 10 11 11 11 11 11 11 9 11 13 12 12 12 12 5 53 178 174 176 177 178 177 205 214 211 215 215 216 217 217 218 219 224 213 190 227 217 198 163 98 91 100 93 104 109 52 58 103 110 114 115 123 125 130 140 148 150 157 164 175 183 190 198 200 198 193 190 195 200 198 192 190 186 179 171 169 158 150 145 146 144 130 116 111 106 95 79 58 60 58 53 77 90 72 71 66 75 79 85 94 102 111 91 72 71 103 163 192 195 193 193 192 191 189 189 188 187 188 186 186 185 184 182 181 179 178 177 176 175 174 173 173 170 171 169 167 166 163 165 164 164 165 169 
8 9 10 10 9 9 10 10 12 10 10 10 10 11 11 11 11 11 12 12 13 7 41 171 171 174 178 178 175 201 212 210 213 214 215 215 216 217 217 221 205 188 209 215 205 194 121 94 93 83 98 100 59 62 102 104 95 102 119 141 145 146 153 148 140 124 124 144 161 178 190 200 199 195 198 192 181 168 151 132 131 131 138 143 137 128 124 120 115 105 102 106 94 91 76 58 35 46 72 99 102 72 63 75 89 83 87 95 105 85 78 77 83 132 175 189 192 192 191 190 190 189 188 186 186 186 185 184 183 181 180 180 178 176 176 175 173 172 172 171 169 168 167 165 164 164 164 163 165 167 
8 10 9 8 9 10 10 10 10 11 11 11 11 11 10 11 11 10 12 10 11 6 31 164 172 173 175 176 176 196 211 208 209 211 214 214 216 216 219 221 203 196 202 213 199 193 140 96 80 77 89 89 53 63 101 95 101 126 150 162 173 178 182 182 178 165 151 151 152 156 171 187 195 193 188 172 152 144 137 134 143 152 162 163 158 154 142 127 115 91 87 100 96 89 79 48 34 36 52 67 78 92 70 70 94 93 90 94 104 98 81 78 77 124 174 184 187 189 189 191 190 188 188 186 186 186 184 183 180 180 179 180 177 175 176 175 173 173 171 170 169 168 167 164 165 165 164 162 164 166 
9 9 8 9 9 9 10 10 11 10 10 9 9 10 10 10 9 11 11 11 10 8 24 157 174 171 173 174 174 192 212 206 207 211 213 214 214 214 218 222 205 191 192 210 201 185 122 91 75 72 75 83 35 65 103 98 120 137 150 161 165 168 173 174 166 165 165 159 156 154 164 180 190 191 181 162 146 150 160 163 166 177 179 180 175 167 157 146 133 120 105 98 99 91 80 52 35 43 46 52 61 65 80 76 90 102 92 96 100 100 94 83 82 104 155 186 189 188 189 189 188 188 187 188 186 185 185 185 182 181 180 178 177 176 176 175 174 173 172 171 169 167 166 165 164 164 163 162 165 166 
9 9 8 9 9 9 11 9 11 10 11 10 10 11 11 11 12 12 12 12 10 10 17 150 174 170 170 174 173 188 207 207 208 211 211 213 214 214 217 219 204 192 197 208 204 167 118 87 73 65 71 69 28 79 108 108 127 131 140 124 103 99 97 101 96 116 135 151 148 131 146 174 189 190 173 140 121 146 147 130 117 107 114 104 104 109 123 140 133 133 122 110 106 97 90 67 33 36 46 54 58 58 57 79 96 111 99 86 85 93 102 100 115 128 135 174 191 191 190 188 188 189 187 187 185 184 183 183 181 180 180 179 177 176 175 175 173 172 171 170 170 167 167 166 164 164 163 162 164 166 
9 9 9 9 9 10 10 10 11 10 11 9 10 10 10 11 11 11 10 11 10 10 11 141 172 168 170 172 172 188 207 205 208 210 210 212 212 213 216 218 202 179 187 208 198 180 138 78 69 64 72 57 41 94 113 130 137 129 107 70 100 117 54 54 57 112 149 121 145 140 129 163 180 176 155 111 130 144 107 123 97 52 61 57 116 103 70 90 121 126 136 130 114 102 91 78 45 31 37 44 42 39 37 62 103 97 97 84 71 84 107 130 161 170 145 166 189 190 189 189 188 187 187 186 185 183 183 183 180 179 180 178 177 176 175 172 172 171 170 170 168 166 166 165 164 162 163 161 164 165 
9 9 9 9 9 9 9 11 11 11 11 9 9 10 9 9 10 10 10 10 10 12 7 130 174 167 170 171 171 183 207 205 207 208 209 210 210 212 215 217 205 173 175 208 190 193 151 69 65 59 54 53 58 103 120 139 150 143 132 122 125 125 110 116 125 136 140 137 161 153 127 151 171 164 135 106 148 156 128 134 130 114 108 118 132 116 98 105 123 138 152 141 125 109 94 78 66 40 32 39 42 51 55 61 100 85 88 78 71 69 103 153 175 182 165 170 189 190 189 190 189 188 187 185 185 184 183 183 180 179 179 178 177 175 175 173 172 172 170 169 168 166 166 164 163 162 163 160 163 166 
9 10 11 11 9 9 10 10 10 12 11 10 10 10 10 10 11 11 11 11 11 13 5 116 173 167 169 171 172 180 206 204 206 208 208 209 210 211 214 218 207 195 189 210 198 213 133 53 60 61 47 43 69 103 122 139 152 160 164 159 150 144 155 171 172 170 167 174 163 142 128 141 156 154 129 109 132 151 167 160 159 163 159 146 134 132 139 158 156 154 149 142 129 112 97 79 74 64 41 48 50 72 78 63 97 81 81 85 70 62 82 155 183 187 185 184 188 191 190 189 188 187 186 185 184 185 183 182 180 179 179 178 176 174 175 173 173 173 170 168 167 166 165 164 161 161 161 160 164 165 
8 10 11 9 9 11 11 9 10 10 9 11 10 10 10 10 12 10 11 11 11 12 3 105 173 163 167 170 169 177 203 204 206 207 207 209 210 211 213 216 208 195 191 214 213 187 89 64 58 61 55 39 70 97 117 139 156 163 165 171 171 177 184 191 195 190 187 176 158 141 123 134 150 144 117 107 126 140 165 179 182 188 191 187 175 165 164 163 159 157 150 137 123 109 93 81 78 71 64 55 57 74 76 76 99 85 78 86 66 65 69 136 185 189 192 192 190 190 190 188 187 186 186 185 183 183 183 180 178 178 177 176 175 174 175 173 172 172 171 167 166 165 164 163 162 162 162 161 164 166 
8 9 9 10 11 10 10 10 10 10 10 10 10 10 10 10 11 11 9 9 9 12 2 91 173 162 166 169 168 174 202 204 205 206 207 208 208 209 212 214 208 190 180 213 214 191 127 89 56 57 72 53 72 92 116 139 154 164 169 173 179 188 192 194 193 189 182 170 149 130 122 146 162 150 119 109 120 133 157 173 182 186 193 197 191 175 168 164 162 157 147 137 125 104 88 81 84 78 106 113 73 65 59 85 101 86 82 76 67 66 71 137 186 194 193 191 191 190 189 188 187 187 187 184 182 183 182 180 178 178 176 176 176 174 174 172 172 169 166 167 166 164 163 161 161 162 162 161 164 166 
9 9 9 9 9 10 9 11 9 9 10 10 10 10 10 10 10 12 10 9 9 11 0 79 172 162 166 168 166 171 202 203 204 205 207 208 208 209 210 214 212 184 177 211 211 210 199 182 105 79 85 72 84 94 109 130 147 163 170 178 185 187 185 185 184 177 175 162 139 126 128 153 168 153 127 110 118 126 143 167 180 182 183 186 188 181 173 168 161 152 142 133 119 100 88 80 85 84 119 153 90 56 69 82 92 84 75 87 82 71 103 170 193 193 192 191 190 189 187 187 187 185 185 183 183 182 181 180 179 178 177 176 176 175 173 172 171 168 167 167 164 163 163 162 161 162 161 159 162 165 
8 9 9 8 8 9 9 9 10 9 10 10 9 9 9 9 10 10 9 10 9 10 0 64 168 160 164 165 165 171 199 204 204 205 205 206 208 208 209 211 214 195 186 209 211 210 216 212 188 162 136 96 102 104 100 121 145 156 167 178 186 189 187 187 185 177 175 162 125 119 137 156 162 152 137 116 104 112 143 168 182 191 189 189 189 185 177 164 157 146 136 124 112 96 89 72 73 95 115 129 90 61 79 75 81 70 82 130 107 93 165 194 195 194 192 191 190 189 187 187 187 185 185 184 182 180 181 180 178 178 177 176 175 174 173 172 170 171 169 166 164 164 164 163 161 160 160 157 162 165 
8 10 10 9 9 9 10 10 9 9 9 9 9 9 10 9 10 9 9 9 9 10 0 55 166 160 162 164 164 170 197 203 202 204 206 207 207 208 209 210 212 190 179 208 210 211 212 213 211 212 202 168 120 108 100 119 135 147 160 171 175 180 184 185 188 186 184 153 117 134 151 167 174 163 150 140 116 99 126 180 183 187 188 187 184 182 170 158 153 140 129 119 103 91 83 76 128 124 107 103 67 75 72 66 66 104 162 185 163 164 194 195 194 193 192 191 190 188 187 187 187 185 185 183 182 181 180 180 178 178 177 175 175 174 173 171 171 171 167 167 165 163 164 163 161 160 160 160 164 163 
9 10 9 8 8 8 8 10 10 9 9 9 10 9 9 8 9 11 9 10 9 10 2 43 161 158 161 163 164 166 194 202 203 204 205 206 206 207 208 209 215 191 186 212 208 212 213 213 214 213 213 171 117 112 100 116 131 141 152 158 165 170 180 185 190 190 181 141 133 135 165 188 204 189 162 134 121 122 109 164 185 183 179 180 178 174 166 156 147 136 122 113 101 89 81 99 141 125 92 70 72 70 67 81 146 194 201 197 201 202 198 197 193 193 193 193 192 190 190 189 188 188 187 185 185 184 183 182 181 180 179 178 177 177 174 176 176 172 171 170 168 167 168 166 165 164 162 161 163 164 
8 9 8 9 9 8 9 11 11 9 9 10 9 8 9 9 9 11 10 10 7 8 5 33 156 158 161 163 165 164 192 204 204 202 204 205 207 206 206 207 211 197 192 213 209 211 212 212 213 215 197 158 176 141 100 110 127 138 147 157 165 172 178 183 188 183 178 151 127 137 146 155 162 158 115 108 140 129 120 168 181 183 174 171 171 165 155 150 143 131 119 112 101 89 87 114 123 86 69 74 72 67 83 155 205 202 200 199 198 197 196 197 194 194 194 193 189 189 188 187 185 185 183 181 181 180 178 176 175 175 174 173 170 169 168 166 164 163 162 160 159 156 155 154 153 151 149 148 151 153 
8 10 9 8 10 9 9 10 8 9 10 8 9 9 8 9 9 10 10 10 9 10 6 25 150 159 161 162 164 162 186 201 201 202 203 204 205 208 207 206 210 201 193 213 208 210 211 213 214 214 208 210 224 196 114 99 121 133 148 159 163 169 173 182 186 184 179 168 152 147 149 148 136 132 134 146 147 139 149 169 177 179 174 169 167 160 152 145 140 129 118 109 91 92 79 40 57 64 77 73 72 92 146 181 185 184 183 184 182 183 183 182 181 180 179 177 176 175 175 175 174 173 171 171 170 169 167 166 167 166 164 163 162 162 160 160 161 159 159 158 157 156 155 152 149 150 150 149 155 151 
8 9 9 8 9 8 9 9 8 9 9 8 9 9 9 8 9 10 9 10 9 8 5 19 145 159 160 161 162 161 184 202 199 202 203 204 206 206 206 206 209 202 191 213 208 210 211 211 212 214 215 213 215 209 136 88 117 128 146 156 160 164 166 175 181 177 169 166 168 165 169 178 177 177 175 158 154 156 156 157 166 176 174 167 163 158 156 148 139 126 112 100 88 99 61 39 65 68 76 71 76 128 179 188 189 189 188 189 188 188 188 187 187 186 186 184 183 182 182 183 181 181 180 178 177 177 176 174 173 172 173 170 170 168 168 168 167 166 165 163 162 161 159 159 157 154 154 154 154 150 
9 9 9 9 9 8 8 9 9 8 9 8 9 9 9 9 9 11 11 10 9 9 8 11 134 160 158 162 164 161 182 202 200 201 202 204 203 204 206 205 207 204 194 210 209 209 210 210 210 211 212 212 213 217 168 86 110 128 140 150 157 162 167 169 170 166 164 160 165 167 175 185 182 180 182 168 159 153 154 156 156 161 167 163 161 159 155 147 133 114 103 93 92 94 51 62 69 67 74 72 67 115 183 198 198 197 197 197 194 193 191 191 190 189 189 189 188 186 185 185 184 182 181 180 179 178 177 176 174 174 173 170 171 170 168 166 167 164 163 161 161 162 161 160 159 157 156 155 153 151 
9 8 9 9 8 8 8 8 8 8 9 7 9 9 6 9 9 10 10 8 8 8 8 6 126 162 157 161 163 161 180 202 200 201 200 201 203 205 206 205 206 205 192 209 208 209 209 210 210 210 212 212 213 215 206 102 102 121 138 151 160 159 164 164 159 162 165 166 169 169 167 173 174 171 173 169 166 157 156 155 153 147 152 157 157 156 152 137 123 110 98 92 93 84 56 70 70 68 84 106 123 155 189 197 197 195 194 195 193 192 191 190 189 189 189 188 187 186 184 185 184 181 180 178 179 178 177 176 175 174 174 172 171 170 168 165 165 164 163 163 161 160 159 160 157 158 155 154 155 151 
8 8 7 9 9 8 8 7 6 8 8 7 7 6 8 8 8 10 10 9 7 7 7 1 115 163 155 159 162 160 178 201 199 200 200 201 203 203 204 206 205 204 191 207 206 208 208 209 210 210 210 211 211 210 219 139 93 118 131 143 154 157 164 156 159 160 151 140 128 123 117 118 134 133 114 117 127 131 138 147 153 149 142 152 156 151 147 132 119 106 95 90 93 75 64 68 67 68 120 171 192 200 199 198 196 195 194 194 193 192 191 190 189 189 187 187 187 187 185 183 182 182 179 178 179 178 177 176 174 174 174 172 171 170 169 165 164 164 165 163 162 159 157 159 158 157 155 153 154 150 
8 9 7 9 9 8 10 8 8 9 8 8 8 7 7 8 9 10 11 9 8 6 9 0 105 162 153 157 161 160 174 200 199 200 201 201 201 204 203 204 205 205 191 207 207 208 208 209 209 211 211 211 211 210 216 185 95 115 127 137 152 163 169 165 159 149 122 101 95 98 105 115 117 108 113 107 89 94 97 106 135 150 153 155 160 153 143 130 116 101 94 91 87 66 66 68 64 86 162 196 198 195 196 196 194 194 192 191 191 191 190 188 187 189 187 186 185 185 182 181 181 180 179 178 178 177 176 175 174 173 172 172 170 168 168 165 164 161 160 162 161 160 158 157 157 154 150 150 151 148 
8 8 8 9 8 9 9 9 9 8 8 7 8 8 8 9 8 8 11 9 9 7 8 0 96 161 152 157 159 158 169 197 196 198 200 200 201 202 203 202 203 205 192 206 207 207 208 208 208 209 210 210 210 210 210 218 144 102 125 132 146 163 167 168 159 152 141 128 126 123 128 128 144 143 131 122 114 116 120 133 147 145 157 162 158 153 141 124 113 105 96 92 70 64 66 66 66 127 188 198 195 193 194 193 193 192 192 190 190 189 188 188 187 186 186 184 184 183 183 181 179 180 178 177 176 175 174 173 172 171 171 170 167 164 166 165 163 159 157 159 160 159 158 154 155 155 151 149 149 147 
7 9 9 9 9 8 9 10 9 9 9 6 7 8 7 8 10 10 10 10 9 5 10 0 83 163 152 157 157 156 166 195 195 197 199 199 199 201 202 202 203 206 193 204 205 206 207 208 208 208 210 208 208 209 209 211 207 123 118 134 140 154 158 154 152 145 144 149 148 150 151 151 152 156 153 148 148 148 148 148 143 136 143 152 151 144 131 121 114 106 98 75 65 64 65 62 96 169 194 196 195 194 193 191 190 189 190 189 189 188 187 186 186 184 184 183 182 182 181 180 178 178 177 175 175 175 173 172 173 171 169 168 166 165 164 164 165 164 159 157 159 158 156 150 154 155 151 148 148 146 
8 8 7 8 9 8 9 9 9 9 9 8 7 8 8 9 10 10 11 10 9 6 9 0 74 162 150 156 158 157 161 193 196 196 197 198 198 200 201 202 202 203 196 201 204 205 206 207 207 207 208 208 208 207 210 208 213 201 122 125 137 144 151 146 148 147 145 148 153 158 154 151 147 146 151 156 157 155 152 144 138 135 133 135 144 135 123 118 116 107 84 62 63 66 60 77 150 191 195 193 194 194 193 191 190 189 190 190 188 187 188 187 185 185 185 182 181 181 180 179 178 177 177 176 175 173 171 170 171 170 169 168 166 165 164 163 163 162 160 157 154 156 156 153 154 151 150 147 149 147 
8 7 8 9 9 9 9 9 9 9 9 7 7 7 9 8 8 8 11 10 7 6 8 0 62 160 151 155 157 156 157 189 195 194 196 197 197 198 199 201 202 203 196 201 204 203 205 206 206 206 207 209 209 208 209 209 210 186 174 135 129 137 142 146 147 146 146 149 157 161 163 167 165 166 167 168 165 157 149 136 135 137 137 136 133 128 123 122 110 78 67 72 77 61 78 144 187 195 194 192 191 192 190 191 190 189 188 187 187 186 187 186 183 184 183 181 179 179 177 177 176 176 175 174 174 172 170 170 168 168 167 164 165 165 162 161 161 159 158 158 157 155 154 153 152 152 152 150 148 145 
7 8 8 7 7 8 9 9 7 6 7 7 7 7 7 7 7 9 10 8 7 5 7 0 51 156 149 152 154 155 155 186 193 194 195 195 196 197 198 199 200 201 195 200 202 203 205 205 204 206 207 207 207 206 210 215 207 156 209 196 129 127 134 140 141 137 137 147 155 163 166 170 175 177 173 171 166 159 148 134 127 131 136 131 128 126 118 95 72 79 92 176 164 93 67 124 186 199 191 190 191 191 190 190 189 188 188 187 187 186 185 185 183 182 182 181 180 179 179 176 174 173 173 171 170 168 168 166 164 164 160 158 160 158 155 154 153 152 152 150 149 148 147 143 143 141 139 138 133 128 
6 6 6 6 6 7 8 7 8 6 7 6 7 7 6 7 9 9 9 9 7 6 7 0 39 152 148 151 153 153 154 183 191 192 192 192 195 196 197 197 198 200 194 199 201 201 202 203 203 205 207 208 207 204 196 178 165 133 116 136 108 112 132 132 133 134 132 140 151 158 161 166 175 175 175 164 154 151 146 137 129 127 127 127 120 97 80 86 112 99 107 193 144 126 144 94 111 167 187 193 186 183 181 180 181 179 178 177 176 177 174 174 173 172 170 168 166 165 163 163 162 157 155 154 153 152 153 151 150 149 146 142 145 142 141 140 141 141 143 141 139 138 139 136 133 135 134 135 134 132 
8 8 8 8 8 7 7 8 9 8 7 5 7 7 8 9 9 10 10 9 7 6 7 1 32 148 148 149 150 151 151 179 190 191 192 193 193 195 197 197 198 202 182 189 205 201 202 204 204 203 193 194 186 162 124 133 188 195 158 104 103 113 131 138 137 130 130 136 149 153 157 154 157 155 150 150 146 143 142 140 134 124 110 96 86 99 123 129 118 98 83 105 108 109 140 159 153 127 107 134 162 168 168 173 174 173 173 174 172 172 173 174 174 174 174 174 174 171 170 173 172 169 169 168 167 165 165 163 161 162 162 160 160 157 156 157 157 154 152 151 149 150 148 147 145 145 144 143 143 139 
6 8 7 7 7 8 8 8 8 7 6 5 6 7 7 9 10 10 10 9 7 6 6 1 26 142 146 146 148 150 148 177 190 190 191 193 193 193 193 196 197 201 197 189 184 192 185 177 184 181 164 159 128 119 122 146 185 208 176 125 119 115 129 140 149 147 143 136 139 142 143 144 144 139 139 142 139 134 125 112 104 97 98 107 128 142 138 123 112 102 90 127 181 188 141 98 130 157 165 149 153 172 178 175 173 173 180 184 187 186 183 182 181 179 177 175 174 173 172 172 172 171 169 168 168 166 166 165 163 162 162 160 161 158 157 155 156 154 154 153 153 152 150 149 150 151 150 150 150 147 
6 9 8 8 8 8 8 8 8 8 7 5 6 6 7 8 9 8 10 10 7 5 6 3 17 135 145 144 146 148 146 171 188 188 190 190 191 192 193 196 196 191 181 177 170 168 167 178 192 197 121 125 135 143 152 155 132 119 139 130 123 121 130 140 147 153 157 151 142 133 129 131 129 128 125 120 118 114 113 118 127 130 128 134 141 138 135 126 112 100 91 134 178 181 144 123 130 141 192 183 166 175 178 177 169 159 148 144 145 158 170 175 178 181 185 186 181 183 181 179 179 177 176 172 172 170 165 164 163 162 160 156 152 150 149 145 142 140 139 135 133 130 126 123 119 115 113 110 106 100 
7 7 7 7 7 7 7 7 7 7 7 5 5 6 6 8 9 9 9 8 7 6 6 5 11 125 146 143 145 145 143 166 187 186 190 191 190 190 185 181 176 180 191 203 204 196 200 206 202 217 145 133 151 157 160 162 170 167 146 121 132 127 135 141 146 150 152 155 158 151 144 145 151 151 151 153 155 154 154 148 139 132 132 140 142 139 134 125 116 99 89 107 110 103 122 144 142 191 203 181 181 187 194 202 203 203 198 188 177 168 164 164 156 130 106 90 88 93 94 88 83 83 82 72 67 70 72 68 66 65 65 64 64 63 60 59 60 60 61 61 60 60 60 62 61 58 60 62 61 58 
7 7 7 7 7 8 8 8 6 6 7 6 5 7 7 8 9 9 8 8 7 6 5 6 6 114 146 142 142 143 141 163 186 184 186 186 184 182 182 187 191 192 191 192 202 215 215 207 203 221 190 130 163 161 160 165 211 211 165 123 137 132 135 140 146 152 151 152 156 155 152 151 149 150 152 154 151 147 144 141 138 137 140 147 145 139 130 124 118 103 92 121 156 163 140 128 166 213 204 187 192 190 195 199 198 197 196 192 191 189 188 186 180 165 132 101 86 75 79 84 86 94 106 111 113 113 114 110 108 110 111 112 113 112 112 114 114 112 115 115 114 113 113 114 113 113 114 116 114 108 
7 7 6 7 7 6 8 7 7 7 5 5 6 7 6 7 9 10 10 8 8 7 5 6 3 108 146 140 142 142 140 148 169 174 174 176 173 173 176 178 179 184 193 197 207 221 220 213 216 226 230 152 156 168 162 156 155 135 137 138 133 134 140 146 149 151 152 151 153 155 156 153 155 154 151 153 151 147 145 143 141 142 147 149 145 139 130 125 120 105 101 138 192 206 169 125 203 214 196 200 200 196 202 203 201 199 192 183 179 179 179 179 179 178 180 181 175 163 148 126 110 78 48 47 65 89 108 121 125 120 114 116 116 114 112 112 113 110 110 110 109 109 109 107 107 107 107 106 104 99 
7 7 7 7 7 7 8 7 6 7 6 6 7 7 7 8 8 10 10 9 7 7 7 8 3 96 146 136 139 142 151 159 163 168 169 171 175 175 176 182 187 194 198 197 206 223 227 224 224 224 231 216 142 164 162 160 153 137 150 139 129 144 143 149 152 151 153 153 150 153 157 156 156 154 152 151 148 145 144 141 141 144 150 150 142 133 128 125 121 100 95 111 121 124 126 163 223 204 190 201 203 200 203 202 201 199 192 187 185 186 183 177 172 171 170 168 167 167 169 170 165 154 128 84 53 12 15 41 74 107 122 115 113 114 114 113 112 110 110 110 111 110 110 108 108 108 108 108 105 100 
7 6 7 9 8 7 7 7 6 6 6 6 6 8 8 9 8 10 10 9 8 7 6 8 0 87 140 142 155 165 171 173 173 174 178 180 180 180 181 182 185 189 192 196 204 221 230 230 223 222 227 238 204 143 162 154 170 224 208 161 118 147 147 149 153 152 153 154 152 153 156 156 154 148 146 145 143 143 140 140 142 151 156 147 135 130 129 128 118 109 115 152 160 134 127 212 215 203 199 200 201 199 203 201 201 197 191 186 186 184 178 176 176 177 178 176 171 170 168 164 159 159 163 173 177 116 49 10 9 24 67 114 117 112 112 112 111 110 111 110 109 110 109 108 107 106 107 109 107 101 
6 8 7 7 7 6 6 6 6 5 5 6 5 6 7 8 9 8 10 9 8 7 6 1 69 142 151 160 167 172 175 176 179 178 180 185 188 191 193 192 190 190 190 192 198 214 228 232 229 228 233 228 241 195 139 157 155 186 176 146 116 136 150 150 151 152 151 152 149 152 158 158 152 147 143 141 139 140 141 144 150 157 155 142 130 130 132 130 118 124 141 196 211 173 191 217 206 199 201 205 200 197 202 201 202 197 185 182 185 181 183 186 184 184 183 180 179 177 175 173 173 171 169 171 163 166 144 86 16 8 8 34 90 114 111 111 110 110 110 109 108 107 107 106 105 105 107 107 104 101 
6 8 7 7 7 7 7 7 7 5 6 6 6 6 8 7 10 11 11 9 9 9 2 51 154 165 164 170 175 179 184 185 188 190 191 195 195 195 195 196 193 187 190 191 192 203 221 232 232 228 226 227 228 243 184 137 152 144 129 131 124 128 151 150 153 150 149 152 149 148 157 158 150 144 146 143 142 143 145 148 152 156 155 138 126 131 139 120 125 127 118 128 130 175 217 208 195 196 201 205 195 198 198 199 200 192 183 183 187 194 197 195 191 190 187 183 182 182 181 182 185 185 186 176 170 167 157 149 111 35 8 7 15 68 107 111 110 109 108 109 108 106 106 105 104 105 104 105 104 100 
5 5 5 7 6 6 6 7 6 5 6 6 6 8 8 9 10 11 11 10 12 7 26 131 172 185 178 179 185 189 192 196 198 202 201 200 199 200 201 198 195 189 185 186 190 196 205 223 231 232 228 231 229 230 240 171 136 154 174 205 175 141 142 152 156 156 154 155 152 150 156 159 152 147 147 145 144 145 147 151 151 157 156 134 126 135 132 126 136 152 164 145 113 194 217 209 201 196 205 201 201 201 202 204 204 188 187 193 199 206 204 197 196 193 188 186 189 187 185 184 184 187 192 183 176 171 169 157 151 132 57 11 11 11 52 94 108 106 106 106 105 105 106 104 103 108 107 109 76 62 
6 6 5 5 5 5 5 6 7 6 5 5 5 6 8 10 11 10 11 10 12 6 97 162 188 193 188 181 184 191 194 197 198 201 202 201 201 200 200 201 198 195 190 183 180 188 198 208 228 233 232 231 229 224 228 235 157 126 180 217 175 124 132 146 152 156 154 155 153 153 155 159 151 148 149 150 147 151 152 154 150 155 151 133 130 136 128 142 146 186 223 177 177 212 209 207 207 205 203 199 204 201 202 202 195 187 195 199 206 210 203 200 198 194 192 191 190 188 188 188 187 186 193 188 181 178 173 168 161 154 137 63 11 11 12 38 79 103 108 106 104 105 104 105 108 84 82 67 41 58 
5 7 6 5 7 6 5 7 5 5 5 4 7 7 8 10 10 10 11 14 6 64 159 159 193 201 196 190 180 191 199 200 200 202 202 203 204 204 204 204 205 203 201 197 186 180 186 197 214 229 233 230 226 224 225 232 234 148 129 147 131 117 147 146 149 153 152 152 154 151 156 158 150 142 145 151 156 162 163 155 143 156 150 134 129 132 139 142 145 142 152 183 210 215 216 209 207 211 202 202 203 204 205 202 194 195 199 200 206 213 206 205 201 198 199 198 196 195 195 196 193 192 198 191 186 182 177 171 163 160 147 129 59 14 13 12 31 66 95 106 105 103 104 100 38 18 12 6 9 21 
5 6 5 5 7 7 5 6 4 4 5 5 6 8 9 10 12 12 13 12 22 135 159 147 180 198 191 193 182 180 188 194 195 195 195 196 196 196 198 198 199 199 200 200 195 182 170 176 188 208 220 222 222 222 219 217 226 215 133 124 153 174 194 157 132 141 141 143 146 147 150 151 146 134 132 139 153 160 161 146 133 149 146 135 124 113 131 151 160 150 128 192 215 201 205 205 205 202 196 200 200 202 202 195 187 189 192 189 199 205 202 201 198 195 196 195 193 192 190 189 188 188 192 189 182 179 172 163 155 151 141 130 112 35 11 13 14 27 63 91 100 97 100 34 0 87 32 5 11 54 
