P2
150 65
255
169 172 172 173 173 174 174 175 175 176 176 178 178 177 179 179 180 180 181 97 76 79 82 59 50 62 67 88 89 54 27 13 10 13 15 14 11 15 17 16 17 16 13 15 16 16 9 63 126 126 132 140 143 144 144 143 142 140 141 141 140 140 140 139 139 139 139 138 137 137 137 136 136 137 136 136 134 134 119 109 132 135 138 139 139 140 139 138 137 136 136 135 132 133 132 131 131 132 133 133 133 132 133 133 150 159 144 136 167 173 157 175 112 57 63 58 56 82 79 49 96 112 104 105 105 106 105 108 109 109 109 109 110 113 114 115 116 111 139 183 174 171 175 172 168 165 172 126 24 23 
170 174 174 176 176 177 177 177 177 178 178 180 180 180 180 183 183 182 184 102 78 81 83 62 51 63 64 82 107 93 76 56 35 20 13 13 10 16 17 17 19 15 14 16 15 14 13 8 11 20 15 8 39 54 52 52 51 52 51 51 51 51 51 52 52 51 51 51 50 53 53 52 53 53 53 52 52 52 53 55 54 52 52 54 54 55 55 55 54 54 54 54 53 53 52 53 52 52 52 52 52 54 51 44 125 137 115 148 191 172 156 178 109 59 66 60 65 93 83 48 97 111 103 105 105 105 105 107 108 108 107 108 110 111 112 115 114 111 143 183 177 176 177 174 170 168 175 122 23 24 
172 175 174 175 177 176 177 178 178 178 180 180 180 181 181 183 183 183 187 103 77 82 84 64 52 63 65 69 76 81 84 84 78 63 46 29 17 16 15 17 19 16 13 16 15 13 11 10 11 13 21 18 50 75 71 72 73 74 75 77 77 77 77 77 79 78 78 78 78 77 75 76 77 77 77 76 76 76 73 72 75 74 75 74 75 74 74 74 74 74 75 74 75 74 73 73 73 73 72 72 73 66 76 122 121 112 139 169 183 180 163 174 107 58 67 62 65 105 93 51 97 108 102 101 102 102 100 104 106 107 105 108 109 110 110 113 113 109 148 182 176 176 178 176 171 169 178 116 14 16 
172 176 175 176 178 177 178 178 179 179 180 181 182 183 183 183 183 183 190 107 77 83 85 65 53 64 68 65 51 54 54 58 68 75 73 67 57 41 25 17 16 12 13 16 15 14 10 8 8 11 10 12 39 108 112 118 123 125 123 115 118 118 119 118 118 118 118 118 118 127 132 132 133 134 132 132 129 127 118 98 114 123 123 124 123 123 124 123 123 123 123 122 123 122 121 121 120 121 121 120 122 142 149 141 111 135 165 175 185 175 163 172 103 60 67 60 68 108 97 54 99 107 101 101 100 100 101 104 105 105 105 105 108 110 110 112 112 108 152 183 177 174 176 177 173 168 179 108 9 15 
172 175 176 177 178 178 178 179 179 181 181 181 182 183 183 185 185 183 189 111 78 84 85 67 53 66 68 70 57 56 60 57 65 74 69 68 69 68 63 51 34 19 12 14 14 13 10 10 8 10 12 12 5 60 102 86 80 36 26 26 9 8 9 9 10 7 7 9 4 49 79 72 76 76 76 77 75 75 77 72 76 76 78 78 79 77 75 75 74 74 73 71 69 69 71 72 73 73 74 71 82 158 158 134 119 137 168 176 183 175 164 172 102 61 67 60 70 108 95 57 100 106 99 100 101 100 99 102 104 104 104 104 108 110 110 111 111 107 155 183 179 175 177 176 172 169 181 101 8 17 
173 176 177 178 177 177 177 179 180 180 182 183 183 183 184 184 186 184 190 114 77 84 86 67 55 68 68 73 81 73 68 63 59 56 54 56 60 63 68 71 69 60 47 28 13 9 9 7 7 8 9 9 9 30 133 227 249 188 76 40 36 16 11 12 11 8 10 12 8 43 99 114 116 116 117 118 118 118 116 108 116 109 96 97 97 105 114 112 113 112 110 104 89 90 104 107 109 108 107 104 113 156 155 137 119 141 176 175 184 170 168 170 99 61 67 59 69 107 92 59 100 104 100 100 100 99 98 103 104 105 104 105 108 109 110 111 110 107 158 185 180 178 175 178 175 169 180 94 7 16 
173 176 177 178 177 178 179 179 180 181 182 183 184 184 184 185 186 184 192 116 78 84 87 68 56 70 68 75 85 83 79 74 70 68 65 59 57 62 57 65 69 70 71 70 63 38 17 12 14 19 18 17 18 12 3 46 95 134 125 75 51 18 6 8 9 10 6 6 9 1 31 85 79 82 82 82 83 82 84 90 78 24 1 7 3 22 76 75 76 74 71 69 73 76 76 75 76 75 75 71 85 155 153 143 132 139 177 176 186 168 168 167 96 61 68 57 67 108 92 59 100 103 100 99 98 97 97 102 103 102 102 104 107 109 109 110 110 107 161 188 181 182 175 177 177 170 179 88 6 16 
175 177 177 178 179 179 180 181 182 182 183 183 184 185 186 186 186 185 193 119 79 85 88 70 57 70 68 71 78 78 79 78 76 72 73 72 70 70 63 69 71 68 71 75 95 111 89 53 33 36 35 37 37 37 39 29 22 33 47 57 52 37 36 36 37 38 29 34 39 35 49 75 79 83 85 86 86 86 95 110 83 60 54 60 64 69 86 87 87 82 75 73 77 78 84 83 82 82 83 80 93 155 151 145 128 140 172 173 182 170 167 166 96 62 67 58 70 108 91 60 98 101 99 98 98 98 98 102 103 103 101 103 106 107 108 109 111 106 163 189 183 185 177 177 176 167 177 82 5 17 
174 178 178 178 180 180 181 182 182 182 183 184 185 186 186 187 187 186 193 123 79 85 88 72 57 72 68 67 66 63 63 64 64 67 72 75 77 76 71 79 91 91 79 80 65 85 102 89 66 59 57 56 58 57 57 57 57 51 46 43 45 47 45 45 47 49 45 51 55 56 55 54 56 57 57 60 63 60 75 110 58 72 71 71 70 70 66 65 64 65 66 67 56 56 58 58 58 58 60 54 73 157 153 140 113 142 177 176 185 148 157 166 91 62 67 57 74 107 89 61 99 100 98 98 98 98 100 103 104 103 103 103 107 107 108 109 110 106 166 189 184 186 180 178 177 168 178 75 4 16 
175 179 178 178 179 180 181 183 182 183 184 185 184 184 186 187 187 186 195 124 78 85 88 74 59 74 68 73 110 110 109 97 79 71 69 66 70 76 70 82 106 116 94 88 59 31 39 31 40 53 66 72 75 75 77 77 79 78 80 75 76 75 70 71 74 75 72 81 85 91 95 97 91 104 120 120 117 121 129 140 122 122 125 128 129 126 120 119 117 117 114 110 111 107 112 110 110 112 108 110 119 157 156 135 100 152 189 155 121 95 92 145 92 62 68 57 77 107 88 61 100 101 100 99 100 98 99 103 104 104 104 105 107 107 109 110 109 108 172 190 183 185 181 179 178 170 176 66 4 18 
175 178 178 178 180 181 181 182 183 183 184 185 185 185 187 188 188 185 196 127 79 86 88 76 60 76 69 76 125 127 135 66 60 72 77 75 64 71 78 87 118 128 112 110 74 32 26 16 21 40 72 74 75 77 77 75 75 73 73 72 70 72 72 73 72 78 79 88 89 90 91 92 91 92 87 87 87 96 98 104 95 85 76 75 87 110 126 133 128 123 117 114 112 106 109 109 111 113 111 108 118 159 157 130 133 139 101 68 83 75 75 141 92 61 65 54 78 108 88 64 103 102 99 99 101 99 100 103 104 105 105 105 109 109 109 111 109 109 175 189 182 187 183 180 178 172 174 59 5 18 
175 178 178 180 180 181 182 182 182 184 183 185 186 186 187 187 187 186 198 131 80 87 87 76 62 78 71 77 123 126 133 60 41 48 58 88 68 73 86 94 132 145 133 123 82 25 45 36 12 39 72 77 80 81 82 81 80 79 78 78 77 73 74 87 102 112 107 84 82 90 100 114 106 98 81 84 88 87 82 74 69 61 65 60 54 58 81 112 139 137 169 160 152 153 150 152 146 137 153 150 147 158 161 123 84 63 60 72 90 71 75 139 90 59 66 53 77 109 85 63 105 103 102 102 101 99 101 105 105 104 106 106 109 109 111 111 110 112 179 190 183 190 183 179 176 173 174 51 4 17 
175 178 178 180 181 181 182 183 183 184 185 184 186 186 187 187 187 187 198 134 81 87 89 79 65 79 69 75 124 127 133 66 52 69 100 93 73 80 89 106 130 155 142 127 91 50 63 53 50 67 92 84 81 84 84 84 81 81 80 80 83 82 91 122 122 108 86 68 70 90 112 116 110 104 95 86 81 88 88 81 77 69 62 57 48 49 45 34 48 69 114 151 177 172 167 174 174 177 188 191 185 157 163 116 62 88 82 74 89 69 74 141 85 59 66 54 79 108 83 65 105 104 104 104 104 103 103 106 106 107 106 107 110 109 111 111 111 116 183 193 185 189 187 180 176 174 172 46 5 19 
175 178 178 180 180 182 182 183 183 185 185 185 187 187 188 189 189 187 197 137 80 86 88 82 66 82 72 74 123 127 131 83 73 68 103 96 81 86 92 75 70 73 71 65 64 79 98 94 123 117 107 88 83 86 87 86 85 84 83 83 80 86 120 123 105 92 73 72 77 96 87 80 82 85 87 99 103 92 95 106 100 86 84 82 75 60 49 42 57 50 33 60 92 180 188 183 186 190 196 195 189 157 164 129 78 83 75 79 92 87 78 140 82 60 66 55 82 107 80 66 107 104 104 104 103 103 104 105 106 107 107 108 112 111 111 112 112 118 185 193 186 188 188 180 175 174 169 41 7 19 
175 180 178 180 180 182 182 183 183 185 185 185 186 187 187 188 189 188 198 139 79 89 89 84 69 84 73 71 122 129 130 91 78 59 101 95 77 84 96 78 78 64 75 54 68 51 41 33 50 53 74 83 87 88 89 89 91 92 91 80 76 108 124 104 93 88 99 103 101 95 99 97 109 108 112 114 114 113 92 93 122 109 107 104 101 84 72 70 66 60 60 55 42 79 134 145 147 96 94 87 110 164 161 127 71 77 72 84 93 89 80 138 82 61 66 55 86 106 78 69 108 103 104 103 103 102 104 107 107 107 107 109 112 109 111 112 114 118 185 193 187 185 185 178 174 175 167 36 8 19 
175 180 179 180 181 182 183 184 184 184 185 185 186 187 186 187 188 188 197 142 82 89 89 90 73 87 73 70 120 129 130 132 132 114 119 100 82 88 94 88 88 84 84 82 85 61 56 48 53 48 77 90 88 90 93 94 90 88 84 83 116 133 110 99 112 122 136 139 143 145 149 147 151 152 138 141 126 107 113 91 93 122 122 111 98 84 85 83 75 68 65 46 50 68 50 40 67 86 63 48 81 164 162 124 66 88 76 77 81 71 77 137 81 61 65 55 86 103 77 72 107 103 102 104 103 102 104 107 108 106 107 108 112 109 112 112 113 120 184 190 185 180 182 177 175 174 164 31 8 20 
177 180 180 181 182 183 183 184 185 184 184 186 187 188 187 187 188 188 198 145 81 89 89 90 73 88 72 68 120 129 127 143 147 122 119 101 83 90 98 90 90 86 81 68 72 46 47 58 77 63 78 96 92 94 96 99 96 87 81 108 153 135 103 122 144 155 167 179 188 190 193 196 192 190 179 149 155 137 121 127 102 122 152 145 135 113 102 104 90 75 73 66 58 66 80 63 59 164 104 84 108 163 162 114 57 71 65 66 79 80 76 137 80 64 64 56 88 103 77 77 107 103 103 105 103 102 104 107 108 108 107 108 111 109 112 113 113 122 184 187 183 182 180 179 174 176 159 25 8 20 
176 179 179 180 181 182 183 183 184 183 185 186 186 188 187 188 190 187 197 147 80 88 89 91 71 87 73 67 118 127 132 68 50 48 78 101 92 96 101 94 87 72 85 78 86 112 88 75 83 78 84 96 95 100 101 99 106 96 93 139 151 118 137 157 167 182 196 210 211 208 211 212 206 200 194 161 169 167 146 157 135 128 167 161 154 147 130 119 121 112 100 86 76 67 78 90 59 100 158 145 143 159 164 103 60 82 73 70 82 91 74 136 78 63 64 53 88 104 76 80 106 103 103 105 105 104 105 107 108 108 107 110 113 111 112 113 113 123 186 188 185 183 182 181 175 177 154 21 9 22 
176 179 179 180 181 182 183 184 184 184 185 185 185 187 187 188 189 187 195 151 80 87 88 103 71 88 74 66 117 126 131 58 35 43 93 105 96 99 101 101 84 88 94 91 73 133 85 54 72 86 95 100 108 93 97 114 112 84 118 166 135 131 155 163 176 189 201 211 212 212 213 210 208 204 199 175 166 180 168 170 142 130 170 166 165 162 156 138 133 127 122 107 98 82 92 120 89 70 123 137 138 160 169 107 66 74 74 80 88 83 78 132 75 64 63 53 88 101 77 81 105 103 103 106 106 104 106 107 108 108 107 110 112 111 112 113 112 128 190 186 184 182 182 180 175 179 150 17 11 22 
176 178 179 180 181 182 183 183 183 184 185 185 186 188 188 187 188 186 195 152 79 87 86 99 74 88 74 63 117 127 129 62 47 59 105 105 98 102 104 105 85 87 56 72 81 88 64 71 84 93 100 102 107 94 99 117 111 92 147 164 145 153 155 170 179 187 193 200 204 201 205 206 204 208 202 189 181 177 183 174 115 150 182 177 174 172 161 151 146 136 130 112 100 93 76 111 108 71 83 103 121 166 164 80 86 76 76 87 117 77 79 134 74 62 64 54 89 100 79 85 106 103 103 105 105 104 106 109 110 109 107 110 113 112 113 112 110 127 188 185 184 182 182 178 173 179 145 12 11 22 
175 178 178 180 181 181 183 183 183 184 185 186 187 188 188 188 187 187 196 155 80 86 86 93 75 89 73 60 111 123 125 63 61 57 99 101 82 93 105 104 54 48 38 45 54 53 44 59 59 67 73 77 74 103 98 81 88 119 176 170 152 156 160 169 184 187 188 190 197 197 202 201 201 206 206 200 202 186 189 149 142 186 185 182 180 177 170 160 149 141 134 121 107 104 87 109 118 79 64 73 105 160 160 100 68 74 70 74 127 77 77 132 72 61 62 54 90 98 76 86 105 103 104 106 105 104 106 110 110 109 109 111 113 112 113 114 110 129 189 183 182 180 179 177 175 180 137 9 13 24 
175 178 178 180 181 182 182 182 183 184 185 185 186 187 188 187 188 187 195 159 82 86 86 92 76 92 76 59 123 139 136 119 131 128 130 104 82 91 104 100 50 54 48 47 66 76 56 54 57 72 76 80 79 99 94 85 104 153 180 161 148 157 164 170 182 189 186 187 192 192 194 197 200 204 211 208 206 204 193 178 188 193 185 183 181 177 175 169 152 146 132 124 114 100 79 117 135 99 65 63 96 149 162 97 53 63 55 77 99 58 81 126 68 60 62 52 89 97 76 89 105 103 104 106 106 106 106 108 110 109 109 110 114 111 114 112 109 132 187 181 184 183 177 176 173 180 132 7 14 25 
175 180 179 179 181 182 182 184 184 184 185 184 186 187 186 188 188 186 194 160 80 86 86 93 76 89 76 60 161 187 185 188 186 187 161 99 84 85 96 85 50 48 23 26 32 36 26 20 14 52 78 76 76 93 93 96 121 141 166 148 141 157 165 175 180 186 187 190 196 197 200 203 203 202 206 206 207 202 198 197 188 187 181 180 178 175 171 166 161 148 131 122 116 96 90 110 128 106 84 67 97 161 163 80 66 75 66 73 83 44 84 123 65 60 61 50 88 97 73 85 106 103 104 107 106 107 107 109 110 110 110 111 114 112 115 114 110 135 187 181 183 182 176 175 172 180 126 4 14 25 
175 179 178 180 181 182 182 182 183 184 184 184 186 187 187 187 188 187 194 162 81 85 86 91 72 84 76 64 164 194 193 194 188 186 149 101 87 82 88 82 51 48 16 21 27 22 24 23 9 50 76 75 75 91 93 110 116 140 137 127 145 155 167 180 185 190 194 196 203 206 206 207 204 202 202 201 200 196 192 187 185 180 175 174 173 171 171 166 162 146 130 124 114 101 88 111 111 95 93 83 103 161 143 77 78 74 58 69 66 42 86 122 61 59 60 50 88 96 69 85 109 104 106 108 108 107 110 112 113 111 111 112 115 114 117 116 110 137 189 181 181 180 175 175 171 181 119 2 14 24 
176 178 178 180 181 181 182 183 184 184 184 185 186 187 186 188 188 187 193 163 81 84 85 87 67 79 78 71 165 204 197 194 191 195 165 105 81 70 83 80 46 43 17 19 29 26 27 25 11 48 75 74 75 90 91 119 120 125 112 126 149 159 174 180 184 195 198 201 204 205 203 204 205 206 208 208 209 203 197 189 183 183 181 176 172 168 166 164 160 143 128 125 119 114 93 102 119 91 89 88 101 157 156 83 70 71 68 79 71 41 89 122 58 58 60 49 90 96 63 84 110 106 108 110 111 110 112 113 113 111 112 113 116 116 119 116 111 136 186 181 180 178 173 174 169 182 115 2 15 25 
176 179 179 179 180 180 182 183 182 183 184 185 186 186 187 188 187 186 192 165 82 84 85 85 65 74 77 81 133 174 187 212 211 198 177 157 96 56 83 73 43 39 20 20 26 28 25 25 17 49 73 71 72 86 87 114 118 111 107 130 137 125 133 107 101 116 134 150 170 183 197 205 211 217 216 220 223 218 211 207 198 193 181 170 166 162 150 141 149 136 128 127 122 113 105 94 107 103 87 92 100 156 154 86 73 62 68 74 63 54 87 121 56 57 58 49 90 96 61 85 112 107 110 111 112 110 112 114 115 113 113 116 118 117 120 118 112 141 186 177 177 178 173 172 167 183 108 0 16 28 
175 178 178 180 180 182 182 182 182 182 184 185 187 186 187 187 186 185 192 167 82 85 85 84 62 70 76 85 149 167 170 175 178 173 147 151 101 46 81 77 37 33 22 21 23 28 25 22 22 49 72 71 71 85 79 93 120 108 107 141 125 80 62 65 73 75 72 76 94 118 149 163 187 200 209 215 212 207 186 177 176 143 113 98 89 88 84 74 89 88 98 118 121 110 103 97 102 98 99 97 106 154 146 99 137 36 52 74 48 77 114 115 54 57 57 49 91 95 60 90 114 109 112 112 112 111 113 116 118 115 115 118 120 118 120 121 112 147 187 176 178 176 171 173 169 185 101 0 17 28 
175 179 179 180 182 182 182 184 184 184 185 184 185 186 185 187 187 186 191 169 83 84 85 82 59 67 74 85 143 169 163 161 160 165 133 164 93 42 77 80 39 35 22 19 23 26 23 23 13 35 71 70 70 83 78 95 130 109 107 151 132 100 114 138 141 143 143 121 105 108 123 143 172 181 181 183 182 176 155 143 143 112 83 72 77 84 77 61 55 49 60 99 116 107 100 83 100 95 117 106 106 157 147 87 131 50 99 113 53 149 141 106 55 57 55 47 92 93 59 91 115 110 113 115 114 113 115 118 118 116 117 119 120 118 121 121 115 148 185 175 177 172 171 173 170 185 93 0 18 29 
174 179 179 180 182 183 184 184 184 184 184 183 185 186 185 186 187 186 191 171 84 84 85 83 58 67 72 83 140 165 163 161 160 167 162 166 89 40 74 80 40 35 20 18 25 24 20 25 12 35 72 69 67 81 77 94 159 106 113 155 134 127 139 111 113 117 96 106 110 131 130 136 150 174 181 183 184 173 158 148 133 119 113 128 132 124 121 129 115 97 95 110 121 113 100 80 92 104 117 100 93 181 156 85 46 79 135 109 80 148 126 102 55 58 54 47 91 91 56 94 117 112 114 115 116 114 117 116 119 117 117 121 121 120 123 122 116 151 185 176 177 173 170 172 169 181 84 0 18 28 
175 179 180 181 182 184 185 185 185 184 184 184 185 185 186 186 187 186 190 171 85 82 83 83 57 65 71 80 138 166 162 160 157 168 139 138 71 42 69 78 38 33 21 16 21 21 23 25 10 34 69 67 66 79 74 94 176 137 140 145 134 140 129 81 121 145 84 86 138 160 149 165 144 161 201 196 179 152 145 142 137 157 133 83 70 110 116 83 131 144 111 120 127 117 92 76 106 112 153 104 82 183 160 95 50 110 111 85 97 156 118 99 52 57 54 48 92 90 54 97 117 112 115 115 117 114 118 118 119 117 117 121 121 120 122 122 118 152 186 175 178 175 171 173 167 178 77 0 20 29 
175 179 180 182 186 189 189 190 190 188 185 183 183 184 185 184 186 185 190 173 83 82 82 81 56 64 70 78 136 164 160 158 156 168 114 147 89 41 67 75 37 30 18 12 18 23 23 20 16 38 67 65 67 78 74 89 159 154 146 150 154 146 145 142 138 151 163 171 171 154 162 172 152 168 197 193 165 146 165 176 159 157 164 128 113 149 139 103 130 145 125 127 128 114 89 85 123 133 175 87 90 160 149 115 70 131 121 95 97 155 108 98 51 55 53 49 92 88 52 98 117 112 115 116 116 114 117 118 119 117 118 123 121 121 123 123 118 154 182 173 176 173 172 175 166 177 71 0 22 29 
175 179 180 190 187 191 197 196 194 185 185 182 183 185 185 185 185 184 189 174 85 82 83 82 54 62 68 74 132 162 157 156 155 163 134 159 112 45 64 74 43 31 26 27 31 30 29 27 24 48 67 67 68 77 78 70 152 165 143 150 166 173 182 181 168 165 169 174 173 173 168 165 152 186 196 191 163 145 168 165 167 168 174 180 172 161 150 149 156 148 133 130 129 115 92 109 143 137 156 52 128 159 148 150 152 143 150 89 92 154 101 98 49 54 52 50 92 86 51 100 116 112 114 116 116 115 117 119 119 116 118 122 122 121 122 122 117 155 181 173 175 173 172 174 167 177 64 0 22 29 
172 179 170 126 121 124 124 139 126 139 186 182 182 184 184 184 185 185 188 174 85 81 81 81 54 60 65 71 127 159 155 155 154 162 132 154 114 65 50 56 56 59 60 60 58 59 58 60 54 73 78 61 64 74 61 124 192 164 140 147 164 178 186 193 192 187 186 184 180 180 179 164 156 188 192 182 155 143 167 173 175 175 176 176 172 168 167 167 166 161 145 122 121 113 90 125 165 161 90 21 137 165 141 139 131 123 152 83 88 144 97 93 48 54 50 53 91 85 51 101 115 112 115 115 115 114 116 118 118 117 117 120 120 121 122 119 115 155 182 173 176 173 172 170 167 178 55 0 25 31 
172 179 170 90 84 89 86 109 108 122 178 184 182 182 182 184 185 185 188 175 85 81 82 81 53 59 65 69 123 156 153 152 151 159 130 158 103 59 43 48 50 50 52 51 51 49 48 45 50 64 79 76 80 76 106 206 196 178 143 143 164 173 179 190 199 205 198 193 194 190 177 159 161 186 190 173 145 139 162 174 184 184 179 178 181 181 180 177 169 159 143 117 111 107 93 129 146 119 26 30 139 166 143 140 141 131 147 95 100 138 91 90 48 54 50 52 91 81 50 103 114 111 114 115 113 113 115 117 117 116 117 119 119 120 121 119 116 159 179 171 174 173 172 170 169 174 49 1 25 31 
172 178 171 98 90 97 89 110 115 116 169 184 183 184 184 185 185 184 187 177 88 81 82 81 53 59 65 68 121 156 151 149 151 164 143 162 105 48 44 40 42 46 46 46 46 44 40 69 82 87 82 83 82 74 108 141 152 169 137 137 159 166 175 190 202 205 202 201 204 187 160 159 172 186 186 171 149 133 149 171 189 194 189 186 186 186 185 178 165 154 136 117 104 104 96 123 130 55 27 33 138 156 139 141 131 112 148 110 96 136 85 89 47 54 50 53 92 80 49 104 112 109 111 113 113 113 116 115 116 115 116 119 118 119 120 118 112 161 178 173 175 173 172 170 169 171 45 2 24 30 
172 177 173 100 87 86 80 108 115 114 164 180 183 184 183 186 186 185 186 178 89 80 81 80 53 58 66 67 118 153 147 151 133 123 114 119 182 57 33 63 31 32 35 35 34 33 28 55 70 68 73 68 67 68 58 67 102 174 166 137 157 162 171 186 197 201 203 196 179 173 174 168 182 186 183 175 157 132 132 149 185 199 199 195 190 188 181 171 157 148 135 120 101 109 100 129 122 35 33 32 139 145 136 139 136 96 155 113 95 131 81 87 47 53 49 53 91 80 49 103 109 108 111 112 112 113 115 116 116 113 116 119 117 117 119 117 114 162 180 171 174 174 172 167 170 169 39 2 24 30 
171 176 175 95 79 83 78 97 112 110 162 178 183 182 185 186 185 185 187 180 90 80 82 80 53 56 65 65 115 153 146 149 139 134 107 122 94 26 43 84 38 12 16 17 17 18 23 18 65 59 65 62 62 59 56 61 92 147 167 141 156 158 171 182 189 195 196 177 165 161 163 171 183 193 207 189 167 153 154 143 161 184 189 202 197 191 181 167 147 138 140 127 101 116 107 125 101 27 32 36 140 145 137 140 146 119 155 100 113 122 78 85 46 53 49 57 91 78 48 101 107 105 109 111 110 111 113 115 114 112 115 118 115 118 118 117 114 164 178 170 173 174 171 167 169 164 33 3 25 30 
171 176 176 146 126 120 120 125 125 128 157 174 182 182 184 184 184 185 186 181 90 79 82 81 53 56 65 64 110 151 145 145 147 160 122 120 80 25 35 59 58 55 55 57 59 59 63 65 53 44 48 49 49 47 52 35 52 101 103 118 152 155 167 179 185 190 165 158 167 158 136 134 161 175 184 171 149 135 136 144 162 174 166 178 200 190 177 167 147 135 148 125 101 121 116 117 56 24 30 60 135 146 136 137 127 158 143 77 129 111 75 82 46 54 48 58 90 74 48 102 103 103 107 108 109 110 110 113 112 110 112 116 114 118 117 113 113 167 177 172 174 172 169 166 168 160 31 3 25 29 
171 174 176 187 167 139 142 143 142 143 153 172 180 183 184 183 183 184 185 181 92 78 80 81 52 55 64 62 107 150 143 144 144 154 119 118 88 25 48 48 41 45 46 46 46 48 45 49 45 23 27 29 29 31 36 37 81 103 105 112 144 152 159 171 182 162 145 162 162 158 159 145 147 152 140 140 142 139 140 145 145 151 153 145 165 186 177 168 152 144 148 124 103 126 131 61 26 32 43 46 100 143 140 128 107 138 104 83 122 103 72 80 46 52 46 58 90 71 48 101 101 102 104 106 107 107 109 111 112 109 112 115 113 116 116 114 115 167 174 173 173 171 169 166 169 157 27 6 26 30 
170 174 175 177 170 144 137 139 140 141 154 172 179 181 182 182 184 183 184 183 94 78 82 82 53 53 65 63 106 150 144 145 143 152 117 117 88 25 56 53 24 17 18 25 28 30 31 23 45 33 46 58 53 36 38 56 86 104 111 103 135 151 158 170 167 136 150 157 160 167 170 174 182 174 158 165 178 164 156 149 148 146 153 152 137 167 179 166 156 153 144 119 105 142 129 44 29 34 60 65 109 145 105 46 85 88 42 100 119 94 73 77 47 53 47 58 90 71 49 98 100 100 104 105 105 105 109 109 110 109 110 115 113 115 115 114 117 168 172 173 171 172 170 165 171 153 20 6 28 29 
170 175 175 176 174 158 145 144 145 146 157 172 180 181 183 182 183 183 184 184 96 76 79 81 53 53 65 63 98 142 140 142 138 150 119 113 122 31 28 45 32 40 25 51 54 52 55 49 40 35 43 50 43 40 38 50 99 110 112 84 102 146 151 168 165 138 146 133 125 131 134 133 144 158 168 164 156 153 152 148 141 131 139 157 152 148 175 162 154 153 151 114 119 158 108 34 28 40 89 86 103 148 65 32 105 74 42 89 127 84 74 76 46 54 45 58 90 69 50 99 99 100 103 105 104 105 109 109 109 108 110 112 112 114 115 113 117 169 173 173 171 171 170 165 173 150 18 8 29 30 
170 173 173 176 175 168 160 158 159 159 163 171 178 181 182 183 182 182 183 184 96 76 80 81 54 53 64 64 86 114 125 138 130 147 117 117 103 24 40 47 36 35 28 39 38 49 45 52 45 29 21 28 36 27 23 55 104 111 108 55 52 136 137 159 171 144 143 143 134 104 98 103 114 113 118 118 114 110 105 106 108 122 138 157 153 159 178 154 146 161 155 114 151 150 98 39 24 56 62 47 100 137 45 40 118 88 36 88 145 72 75 73 46 52 45 59 89 65 50 100 97 98 104 106 104 105 108 109 110 108 111 113 111 114 114 111 120 172 171 173 169 171 169 166 171 146 15 9 30 30 
170 173 173 175 175 171 168 165 167 168 169 173 177 181 182 183 183 183 182 185 99 75 81 81 53 52 63 66 78 93 98 114 119 139 118 123 87 20 64 50 44 45 38 41 41 46 41 39 47 39 35 36 47 34 24 69 105 107 94 37 63 121 120 138 160 149 139 153 161 150 132 130 135 147 158 145 122 117 114 122 139 149 149 144 155 173 169 142 146 164 142 126 156 133 96 28 29 32 50 53 106 128 37 61 124 80 29 99 150 63 76 69 46 51 44 58 86 64 51 101 98 100 102 104 103 104 107 110 110 107 110 113 111 113 112 111 121 172 170 170 170 170 166 165 171 138 12 11 31 30 
168 172 172 172 172 172 171 170 169 171 173 175 178 180 181 181 183 183 182 186 101 75 80 80 54 52 62 67 64 55 57 78 79 77 127 127 95 25 63 47 39 53 51 53 56 57 60 54 45 47 49 68 42 61 72 82 105 103 68 64 96 109 112 116 133 136 133 139 147 147 139 135 137 144 146 142 137 140 143 145 150 150 146 148 153 157 146 132 152 161 134 152 145 134 81 34 44 42 43 57 109 131 52 74 110 75 34 98 141 50 78 69 46 49 44 58 67 60 53 100 98 100 103 104 103 105 107 109 107 107 109 112 110 114 114 111 123 175 170 171 173 169 165 165 173 134 8 10 31 31 
170 175 176 176 176 177 176 178 177 174 175 176 177 179 180 180 181 181 180 186 102 74 79 81 55 50 63 65 70 79 85 65 43 98 129 132 103 34 33 30 41 50 51 55 58 63 69 60 48 80 70 55 46 87 98 93 104 92 49 91 108 116 119 109 115 126 136 141 133 141 150 146 143 139 133 143 146 152 155 149 144 148 158 149 145 143 125 145 165 145 145 156 144 127 159 127 77 82 53 68 104 136 87 91 112 81 29 78 132 64 81 65 46 50 44 33 70 42 53 100 97 98 103 103 103 105 108 109 108 107 110 112 110 113 113 109 123 173 170 168 170 170 166 164 172 127 5 11 33 31 
149 151 152 153 154 156 156 158 149 168 178 175 176 176 177 178 180 180 179 187 105 72 78 81 56 50 62 64 77 81 47 35 73 81 119 135 108 69 74 68 72 76 77 79 82 86 93 69 59 95 96 99 93 98 92 97 98 91 50 98 112 118 121 116 105 119 136 140 140 147 161 161 155 148 147 148 152 154 151 148 147 153 159 147 143 128 144 165 149 142 152 152 147 180 182 178 159 177 160 139 137 141 117 107 123 100 29 42 142 120 89 60 46 51 43 26 70 33 58 100 97 98 101 103 101 103 107 108 108 107 109 112 111 112 113 109 124 171 168 168 170 169 166 164 171 119 4 12 32 29 
131 135 136 137 136 135 138 140 129 165 179 175 176 175 176 177 178 178 178 186 107 73 79 81 56 48 60 65 63 37 58 76 75 69 118 131 109 84 93 93 87 89 88 90 91 90 95 67 61 89 86 89 87 86 96 107 89 69 44 65 115 121 129 147 142 115 114 135 145 156 163 162 165 171 178 167 160 159 148 141 146 150 145 138 128 136 158 154 145 157 158 160 191 201 191 191 173 172 184 184 177 177 166 142 137 98 28 80 144 119 98 58 48 51 42 24 68 33 58 100 97 97 101 102 102 102 107 107 106 105 108 110 109 111 111 108 126 173 168 169 169 167 164 161 170 113 0 13 33 30 
130 139 138 139 136 133 141 143 133 162 178 175 176 176 176 175 177 178 177 187 110 71 78 80 56 48 61 63 49 29 70 74 79 72 114 124 108 89 96 95 91 89 88 87 86 83 81 61 59 69 67 71 70 67 93 118 99 58 38 41 74 89 85 89 87 75 91 118 135 146 155 158 160 159 174 173 169 163 147 145 153 145 135 121 128 145 146 147 161 158 170 200 212 202 197 192 188 188 182 183 179 176 177 183 182 154 88 105 130 106 96 57 50 52 42 23 49 27 61 99 95 95 101 102 101 103 105 105 107 106 106 109 109 111 111 107 126 173 166 167 168 167 166 159 170 108 0 16 35 30 
131 136 136 138 133 136 138 142 130 161 176 174 176 175 176 177 177 178 176 187 112 70 77 79 57 47 61 60 51 31 60 74 76 73 114 121 110 95 98 98 92 88 85 83 83 82 80 70 64 59 56 55 55 54 95 109 90 93 42 57 57 68 64 60 64 65 71 113 122 128 136 149 148 146 166 164 162 155 149 157 148 123 119 134 153 151 150 159 166 185 208 214 209 203 201 199 199 202 184 185 186 183 178 176 179 183 186 169 153 118 89 36 29 42 42 28 31 29 63 96 93 95 100 99 99 101 105 105 105 105 106 109 108 110 112 107 128 172 165 166 169 164 166 163 169 101 0 15 34 29 
119 133 136 136 145 132 133 141 130 158 178 173 174 174 176 176 177 177 175 186 113 69 78 79 58 46 61 59 51 33 66 78 73 75 120 130 116 100 104 105 101 98 96 94 91 90 88 90 93 86 87 87 84 80 96 80 66 92 73 65 75 67 69 68 72 68 62 92 124 116 118 121 121 124 136 134 127 129 138 131 122 135 153 158 157 162 171 184 209 221 217 212 209 210 208 202 209 201 182 182 185 187 186 183 181 181 181 186 186 180 164 132 89 53 26 12 22 27 66 96 93 94 97 97 97 100 102 104 105 104 106 107 107 109 109 105 129 172 164 165 167 164 162 162 171 95 0 16 35 29 
107 135 136 138 133 108 135 140 129 157 177 171 173 174 176 176 176 176 175 185 116 69 76 78 58 46 61 59 51 33 69 82 77 81 128 136 122 109 110 109 109 105 104 104 104 105 105 105 105 102 102 103 102 100 95 73 56 64 89 90 82 67 69 72 67 63 54 65 145 119 113 119 123 121 120 125 131 137 138 145 155 161 163 163 177 195 210 225 228 221 215 218 223 216 204 206 217 198 187 187 184 186 188 188 187 188 185 183 183 184 187 187 182 162 126 85 54 28 54 95 93 95 98 98 96 99 103 104 103 103 106 107 107 110 108 105 132 172 164 163 167 163 161 157 171 88 0 19 36 29 
127 136 136 138 136 128 135 138 129 155 176 172 172 174 174 175 177 176 174 184 118 69 77 78 57 47 61 59 52 33 70 81 81 86 130 141 123 110 111 111 112 112 112 112 111 113 114 115 117 117 116 115 117 118 97 80 76 82 99 108 86 67 73 65 51 56 90 148 193 155 124 123 136 153 156 162 168 163 160 164 166 173 180 197 218 229 233 228 224 219 219 223 220 204 201 224 214 191 187 186 187 189 191 192 189 190 190 189 187 186 187 184 179 177 176 169 153 121 100 100 87 90 98 99 98 100 102 104 103 102 106 108 107 108 107 104 135 171 162 163 168 162 161 157 169 83 0 20 38 30 
127 129 128 129 130 130 129 131 123 153 176 171 172 173 174 175 175 175 174 183 118 67 75 76 58 45 59 60 54 33 69 87 82 86 134 143 155 175 170 157 141 119 117 120 118 117 118 119 119 118 119 119 120 125 107 57 66 73 97 113 92 61 57 71 115 171 212 219 203 195 163 130 125 139 160 166 162 166 174 176 181 199 219 235 240 237 231 228 225 223 225 219 207 201 220 227 194 198 199 192 193 192 189 192 195 194 195 194 189 188 188 189 188 187 182 178 171 165 160 148 131 109 95 91 95 102 104 104 103 103 106 107 107 108 107 104 138 171 161 160 164 163 160 157 169 75 0 21 36 29 
143 145 144 145 145 145 145 145 143 161 173 172 172 172 174 174 174 175 174 184 123 67 74 76 58 46 59 58 54 33 71 91 85 89 132 141 104 95 108 97 101 116 118 121 121 121 121 122 123 123 123 124 128 128 129 108 88 70 94 118 112 109 158 204 222 216 206 207 208 198 204 176 148 131 147 157 161 164 171 188 214 227 235 241 239 236 237 230 229 225 216 209 205 216 232 214 193 209 215 210 203 195 196 194 196 197 195 194 193 192 195 192 189 190 188 186 181 175 165 161 159 155 143 124 105 94 97 106 106 104 105 107 107 108 109 105 140 169 162 162 165 165 158 156 168 69 0 21 36 29 
165 169 170 170 171 171 171 173 172 172 172 172 171 172 172 172 173 174 173 183 124 65 74 75 58 46 60 58 56 35 72 89 82 92 133 140 113 93 102 104 113 118 119 119 121 121 121 121 122 121 123 123 125 127 128 125 124 124 139 174 204 222 224 215 205 204 208 215 212 203 210 217 203 163 146 162 164 174 191 206 213 223 233 238 238 236 235 229 222 213 212 208 215 232 228 201 199 202 204 207 213 212 203 196 193 193 194 194 192 189 187 189 189 187 187 188 187 186 181 175 165 159 155 157 151 135 113 100 97 103 108 108 108 109 109 105 140 168 162 162 164 165 157 153 167 63 0 22 37 29 
162 166 166 166 168 168 168 170 169 171 172 171 172 172 172 172 172 173 173 182 124 64 74 76 60 44 59 59 55 35 73 86 82 91 136 143 130 141 142 142 135 128 126 126 125 123 122 123 123 124 123 123 124 121 120 131 158 193 213 217 216 211 209 211 203 202 207 215 222 215 193 149 127 122 97 96 153 207 203 209 224 235 238 238 236 233 230 226 220 214 211 214 228 230 214 197 206 204 198 199 203 209 209 206 201 193 191 189 188 190 192 195 193 193 194 192 193 195 193 191 186 178 170 163 158 158 156 142 118 99 99 106 111 110 109 105 140 168 162 160 165 164 160 152 162 56 0 23 37 28 
163 167 165 166 168 169 170 170 171 171 171 173 172 172 172 173 172 173 171 182 127 65 73 74 60 44 58 57 56 33 72 98 89 93 141 109 129 144 141 140 136 132 130 128 127 127 127 127 126 126 127 123 122 145 177 206 214 215 215 214 211 206 207 205 202 202 209 204 171 157 104 62 78 92 101 84 95 196 236 232 234 240 241 239 236 233 231 226 217 211 212 226 230 227 199 203 208 199 198 201 197 199 201 211 212 203 199 196 196 196 197 195 193 195 196 195 195 197 198 200 200 199 193 187 180 172 164 162 158 146 122 100 101 110 109 104 143 167 163 161 163 163 160 152 162 51 0 24 36 29 
163 167 166 167 167 168 168 168 170 170 170 170 171 172 173 172 172 172 170 181 130 64 73 73 61 42 57 58 58 35 74 95 91 101 107 126 152 141 141 140 135 131 129 129 127 126 127 124 125 121 116 134 182 209 214 210 208 208 207 205 202 201 202 201 203 206 181 160 151 163 149 70 86 95 115 111 86 107 208 244 238 239 240 239 236 233 228 222 215 211 222 231 230 214 199 209 201 197 201 196 200 199 197 201 203 203 206 209 210 205 202 200 197 194 195 202 201 200 201 201 202 200 200 199 194 189 182 173 166 162 159 145 113 96 104 106 144 165 161 160 165 161 159 152 162 47 0 24 36 30 
163 166 167 167 166 167 167 168 168 170 170 170 170 171 172 171 171 171 170 180 132 63 73 72 61 44 59 57 59 36 71 88 84 92 117 152 144 138 138 137 133 128 124 126 124 125 123 126 122 124 159 200 206 200 201 203 201 202 199 199 197 203 204 199 207 197 158 175 161 153 170 80 76 96 98 103 98 70 86 226 245 238 239 238 237 232 229 219 213 220 229 228 226 200 204 204 196 201 201 200 200 196 201 200 196 194 199 204 208 209 215 213 200 206 209 205 201 202 200 201 200 198 201 197 198 194 189 184 178 172 164 161 157 127 93 91 142 170 159 159 164 159 158 153 155 40 0 25 36 29 
162 165 165 166 166 167 167 168 168 169 169 170 170 171 172 170 170 171 170 180 135 66 73 72 62 43 57 59 61 36 71 92 84 98 140 142 140 133 134 134 129 125 123 125 122 122 126 122 131 182 203 197 197 200 201 200 202 201 202 200 201 206 201 201 206 194 165 174 167 164 164 106 65 126 107 98 82 88 176 210 235 244 237 237 235 229 222 215 218 228 228 230 215 194 204 196 199 204 201 204 199 201 207 201 194 200 203 199 197 199 207 207 207 218 217 208 204 201 200 201 204 202 202 201 199 198 198 194 187 179 173 164 157 157 136 100 75 140 169 160 162 158 158 155 152 35 3 27 37 30 
162 166 166 165 165 167 167 168 167 168 169 168 170 169 169 170 171 170 169 178 135 64 72 71 63 43 57 58 62 36 71 95 91 125 141 141 137 129 131 131 128 126 125 124 124 128 123 129 187 200 196 198 202 203 201 202 204 204 203 202 204 203 204 206 207 212 182 164 168 182 189 163 94 112 104 79 87 187 209 208 206 234 243 235 235 231 216 214 227 229 226 226 200 195 198 197 202 203 205 204 203 206 205 199 197 205 203 198 199 204 202 200 203 204 204 202 204 208 210 208 206 205 203 204 202 200 199 195 187 179 177 171 164 158 157 157 118 74 108 158 169 157 157 157 151 32 4 27 36 30 
163 166 165 165 166 166 167 168 167 167 168 168 168 170 170 170 171 170 168 177 139 65 71 71 63 34 52 58 61 37 67 88 111 128 133 135 129 124 124 126 124 121 120 122 121 122 121 170 199 196 199 198 199 202 202 203 204 205 202 204 205 203 207 207 209 210 206 169 171 182 197 167 124 132 92 90 148 213 198 210 205 202 232 240 235 229 218 218 230 227 226 216 195 201 198 198 200 199 201 200 202 203 200 195 202 207 201 196 204 209 203 203 206 201 203 198 197 205 204 208 214 216 214 206 204 204 198 188 185 183 177 175 169 164 157 150 170 159 87 70 128 161 159 160 148 27 6 28 37 30 
163 165 166 165 165 165 166 166 167 167 167 168 168 169 169 170 169 170 168 177 143 64 70 72 66 28 51 57 61 30 63 118 126 123 128 131 131 126 124 125 123 120 120 120 121 118 138 192 191 193 196 196 194 197 198 198 203 205 205 207 204 207 208 212 215 207 206 190 170 184 187 158 118 114 100 126 120 201 205 209 209 197 201 232 235 230 222 225 229 226 227 207 200 202 200 201 199 198 199 199 202 203 199 198 207 205 198 199 211 212 206 206 208 206 201 198 213 210 199 199 200 219 226 221 214 198 194 194 190 187 180 176 172 168 162 155 144 165 169 110 56 94 151 164 146 25 8 29 36 30 
161 165 163 163 166 165 165 165 167 167 166 168 168 168 168 169 169 170 168 174 143 64 71 72 42 22 52 56 62 67 101 125 117 118 123 128 126 121 121 123 122 120 121 121 123 121 161 192 192 193 195 195 193 194 195 193 195 199 202 205 204 207 211 216 219 215 210 205 175 182 189 110 119 126 123 112 92 159 213 206 206 200 198 206 231 234 228 227 227 225 224 201 201 201 201 201 201 200 202 203 203 200 198 202 206 202 199 205 210 206 204 207 206 203 197 207 219 205 203 213 209 205 211 215 205 196 200 196 194 191 184 179 175 170 165 160 152 147 162 163 124 53 71 143 149 19 9 31 37 30 
159 162 160 161 163 162 163 164 164 164 163 165 165 165 165 167 166 166 166 172 142 64 69 70 28 18 51 54 64 115 117 113 113 113 119 122 123 118 118 117 118 117 117 119 118 128 173 185 189 193 197 192 189 192 196 192 189 189 192 194 196 201 207 211 213 212 204 187 184 194 167 84 97 103 109 117 107 121 207 204 204 199 199 199 205 227 228 231 226 221 214 198 200 203 201 200 201 200 201 200 200 198 197 200 201 198 199 205 207 203 203 205 204 199 197 214 217 199 203 209 212 206 196 206 198 191 197 198 195 190 184 177 174 172 166 163 159 147 149 154 153 102 46 81 130 18 11 32 38 30 
