P2
150 65
255
137 141 139 140 140 140 140 140 140 140 140 140 141 140 141 140 139 138 138 139 138 138 138 138 138 138 137 137 136 137 146 147 134 117 19 16 12 27 42 44 43 30 62 70 64 45 47 48 49 54 65 61 81 68 62 53 36 58 58 65 63 71 76 79 76 63 53 50 52 52 50 35 47 47 45 51 45 42 50 67 36 39 45 40 39 44 51 63 71 74 73 88 92 82 61 44 37 40 46 48 55 62 66 69 68 54 39 28 39 39 34 34 34 33 34 28 54 81 79 80 82 80 80 82 83 83 84 85 85 85 83 34 28 76 84 82 82 81 82 63 49 49 50 51 49 49 51 53 52 45 
140 144 144 143 142 142 144 143 143 143 145 144 144 144 144 143 143 143 142 142 143 142 142 141 142 141 141 140 139 140 153 152 138 123 18 12 13 27 42 45 44 38 47 48 53 48 48 52 53 55 68 79 67 70 71 48 45 68 70 73 74 74 76 79 70 48 49 49 51 54 55 46 49 49 73 72 55 45 47 55 54 47 49 47 42 35 36 38 37 38 44 49 75 113 109 94 86 57 38 44 46 47 50 55 57 60 61 48 37 51 57 47 40 37 37 34 58 80 79 79 68 78 82 83 86 85 86 85 84 85 84 47 44 83 98 97 100 99 100 97 78 73 74 75 77 77 77 77 78 70 
141 144 143 145 144 144 146 146 145 145 144 144 145 145 145 145 145 144 144 143 144 143 143 143 142 142 142 142 142 143 159 158 137 126 21 13 18 34 47 46 47 52 50 51 56 60 65 62 66 62 62 70 71 70 75 41 53 102 108 127 121 71 77 85 84 68 55 54 51 51 51 51 48 48 57 57 50 50 46 58 62 47 49 69 76 57 54 39 50 64 49 45 65 104 115 117 131 61 18 30 30 30 28 27 25 25 26 30 26 27 56 65 64 61 60 70 80 95 96 67 75 92 98 95 91 89 91 94 94 95 95 96 96 91 97 94 90 89 84 78 71 65 61 58 56 52 49 44 37 28 
141 146 145 144 145 146 146 147 147 147 146 146 145 146 146 145 146 146 146 145 144 144 144 144 143 143 143 144 144 143 150 154 139 129 29 21 24 43 58 67 63 59 57 61 63 67 67 90 80 53 67 73 72 72 73 37 52 102 117 96 97 83 76 93 77 72 63 63 68 46 42 46 49 47 40 43 43 43 46 51 52 51 51 55 61 68 52 38 34 39 42 44 69 64 99 108 92 42 32 27 21 22 24 30 35 38 42 44 48 47 33 41 49 53 55 59 69 87 65 57 77 74 68 68 57 43 44 61 75 80 83 85 83 66 62 61 59 58 56 51 49 48 46 45 44 43 42 41 37 32 
144 147 145 145 146 146 146 146 147 147 148 147 147 148 147 147 147 147 148 147 146 144 144 145 146 144 143 143 144 145 156 158 141 132 30 21 26 28 66 84 87 69 57 60 64 68 69 95 88 85 97 79 72 74 74 39 59 73 76 76 81 76 76 86 77 71 67 64 62 57 50 45 47 50 39 45 43 39 44 41 44 45 46 48 50 48 49 61 55 43 43 42 66 56 70 70 58 50 49 50 40 48 47 36 39 38 36 36 37 37 37 29 29 31 33 32 28 20 24 33 25 25 30 42 48 47 36 28 31 42 51 53 70 74 74 76 76 75 75 76 77 78 77 76 78 77 80 69 27 30 
145 148 147 147 147 147 147 147 148 147 148 148 147 147 148 148 148 148 149 148 146 146 146 146 146 146 146 146 146 147 161 163 141 135 33 19 23 44 56 51 58 64 58 60 64 68 70 76 97 88 79 81 74 76 77 45 65 79 80 87 91 84 80 75 56 53 56 59 58 63 56 46 44 33 34 43 42 37 50 48 41 44 56 46 49 67 51 86 122 126 105 54 54 68 82 70 66 49 45 52 45 54 46 20 27 27 26 23 23 23 22 21 19 17 16 19 19 22 30 34 41 46 60 77 76 79 85 81 64 45 46 56 75 103 109 108 105 103 103 102 99 96 99 104 101 95 99 55 1 4 
145 148 146 147 149 148 148 148 149 149 149 149 148 147 147 148 148 149 148 149 149 148 147 146 147 147 147 148 147 146 154 159 143 137 35 21 24 49 67 67 70 67 68 72 77 80 83 86 88 87 88 84 84 85 88 62 73 92 98 96 89 94 95 82 70 54 46 45 40 38 42 43 44 43 46 47 46 43 52 49 43 43 46 40 60 103 88 85 134 147 133 61 57 76 83 69 62 60 54 56 57 59 40 11 14 15 19 23 27 30 33 36 42 45 49 52 57 60 58 54 49 45 52 65 88 96 92 92 94 94 57 36 75 103 108 104 103 104 85 65 63 61 44 49 69 86 91 24 5 6 
145 148 147 148 149 148 148 148 149 150 151 151 150 149 148 149 150 150 150 149 150 149 148 148 148 149 149 148 147 147 159 163 143 139 39 23 27 48 62 63 65 71 75 78 81 82 75 76 67 60 77 82 82 82 85 64 87 115 120 106 96 97 96 97 95 101 89 85 72 54 33 30 32 34 33 36 35 38 42 42 42 42 38 38 52 88 88 78 142 149 123 58 63 80 82 58 57 47 42 45 43 50 43 22 30 34 41 52 58 62 66 67 68 69 70 77 89 94 81 55 39 30 25 21 28 63 87 91 91 99 83 34 67 100 104 100 101 103 82 62 65 67 47 22 12 21 29 10 7 2 
145 150 149 149 149 150 149 149 149 150 150 151 150 150 150 150 151 150 150 150 151 150 150 150 150 150 150 150 149 149 161 168 142 142 36 19 21 44 78 76 77 69 73 74 77 74 94 95 61 80 81 82 84 84 87 68 78 115 100 99 98 98 98 96 97 99 104 101 105 98 83 71 54 47 39 32 31 29 30 33 30 31 35 34 34 40 43 80 129 129 116 66 62 68 63 51 54 40 41 39 45 49 45 66 78 77 77 78 78 81 81 81 80 81 86 94 104 104 97 75 66 60 52 56 53 44 65 96 97 100 92 55 60 97 103 99 98 99 81 65 67 67 49 32 16 11 4 10 6 2 
146 150 149 149 150 151 150 151 151 150 151 152 151 150 151 151 151 151 152 152 151 150 151 151 150 151 150 150 150 150 154 163 144 144 73 52 37 39 73 80 86 72 76 78 79 80 88 96 93 97 87 85 85 84 87 69 58 71 77 91 92 94 97 98 94 85 68 66 68 73 79 83 72 67 62 56 58 54 48 52 48 39 43 40 30 47 55 86 112 103 103 114 102 85 90 82 60 53 49 44 43 45 44 70 81 80 81 80 81 81 81 79 78 81 88 99 102 100 98 74 64 44 39 49 63 62 65 96 103 103 98 66 61 95 99 97 96 98 82 63 65 65 48 31 15 11 7 11 5 3 
147 151 150 150 150 151 151 151 152 152 152 153 152 152 152 152 152 152 152 153 153 153 152 152 151 151 151 151 151 150 159 169 145 146 156 134 112 103 80 56 74 74 75 78 78 78 81 95 93 84 86 84 84 82 84 66 64 91 89 85 77 78 70 54 45 40 43 47 45 43 48 59 51 51 49 60 60 54 56 60 64 56 50 43 33 38 58 67 77 102 106 117 120 118 118 113 66 63 60 58 53 46 47 75 80 78 80 80 80 82 82 82 83 86 95 102 100 101 102 76 67 60 56 56 62 59 67 96 105 104 99 51 53 92 97 96 96 98 83 63 65 65 49 32 13 6 9 8 3 4 
149 152 151 151 151 151 152 152 152 152 153 153 153 153 152 152 152 152 152 153 154 153 153 152 153 151 151 153 152 151 161 172 146 146 134 140 148 145 144 116 103 77 72 76 77 75 79 75 78 85 82 81 78 79 85 75 61 70 77 84 97 99 101 88 73 61 53 49 44 36 38 42 41 39 41 45 44 41 46 51 53 46 40 38 42 43 59 63 59 69 105 117 114 112 113 112 65 59 59 62 58 58 48 74 79 79 81 81 80 81 82 82 84 87 96 102 98 98 102 76 69 69 64 61 63 61 66 96 105 104 97 53 55 92 99 97 97 98 83 64 66 67 47 29 11 4 11 6 3 5 
149 152 151 153 153 152 152 153 154 153 154 155 154 154 153 152 153 153 153 153 152 152 153 153 153 152 152 153 152 152 155 166 147 146 140 159 166 163 167 145 116 86 74 76 77 78 76 93 123 99 77 69 76 79 78 69 69 79 85 102 117 113 119 113 100 96 73 63 60 47 42 30 29 27 26 28 30 30 31 34 34 35 35 33 40 46 87 110 113 92 97 116 114 113 113 113 64 55 57 60 57 55 45 62 80 80 81 80 81 82 84 86 86 96 103 104 101 104 107 79 70 70 66 63 65 64 67 97 106 106 99 66 62 93 100 99 99 99 86 65 65 67 38 13 8 8 12 4 4 4 
149 153 153 153 152 154 153 154 154 153 154 153 154 154 154 154 154 153 154 153 153 152 153 153 153 153 153 152 152 152 159 172 147 148 133 133 138 149 156 166 148 104 71 77 74 79 95 129 123 78 60 62 71 64 75 88 98 98 106 103 98 92 88 74 67 63 61 57 60 59 62 47 47 48 41 42 45 45 40 43 42 36 41 42 42 60 75 94 112 110 105 113 115 110 112 118 63 50 52 55 55 53 45 48 78 81 79 81 79 81 86 88 93 103 106 105 103 106 110 83 71 72 69 68 68 66 69 99 107 107 100 59 62 96 103 101 99 101 88 64 66 69 38 9 6 12 8 4 6 4 
149 154 154 154 152 153 154 155 155 154 155 156 156 155 155 155 155 155 155 154 154 153 153 153 153 153 155 153 152 153 160 176 147 151 93 73 134 175 184 194 198 175 122 75 76 105 132 118 91 69 67 66 66 79 113 120 109 96 93 95 96 99 95 87 78 63 63 57 52 52 53 50 66 66 57 62 51 37 54 54 59 53 53 54 50 60 81 71 70 89 107 113 114 110 110 116 62 44 50 54 51 51 43 42 68 76 78 82 83 87 87 91 99 104 106 105 105 108 110 84 71 72 70 70 69 67 70 99 109 109 100 63 67 97 104 104 101 103 89 64 65 69 39 6 8 14 6 5 6 11 
150 155 154 155 155 155 155 154 154 155 156 155 155 156 156 156 156 156 155 154 155 154 153 152 154 155 154 155 154 155 156 169 148 150 89 69 112 161 165 168 173 182 104 70 100 113 105 92 84 73 75 68 85 91 85 85 86 84 94 109 109 107 108 109 106 94 81 72 58 48 44 44 70 62 43 80 60 34 34 35 35 31 37 43 42 54 93 98 104 96 97 112 113 109 110 114 61 46 55 57 49 48 49 41 36 38 43 53 65 74 88 96 104 106 106 105 107 109 109 85 71 72 71 69 70 69 69 99 110 110 102 66 71 99 105 105 103 104 92 64 65 70 39 4 14 14 7 5 7 15 
149 154 153 153 155 155 155 154 154 156 155 155 155 156 156 155 156 156 155 154 155 154 155 154 154 153 154 154 155 154 160 178 150 152 93 69 88 111 115 119 125 90 70 98 109 106 104 104 97 95 95 92 94 92 93 96 104 106 116 119 131 131 103 97 108 101 112 124 130 110 81 68 64 59 60 74 63 55 37 40 42 37 37 39 42 53 89 97 101 97 97 108 108 107 108 114 65 54 59 63 57 49 72 95 90 90 71 81 87 79 85 100 102 105 105 105 109 110 111 86 73 75 71 69 70 70 71 103 112 111 104 71 76 101 107 106 105 105 95 65 63 70 39 5 20 11 6 6 10 11 
151 155 154 154 155 155 156 156 155 155 156 156 155 155 156 155 155 155 155 154 154 155 154 155 154 154 154 154 153 153 158 178 149 154 83 49 55 56 60 62 68 86 111 105 100 96 112 114 124 124 117 122 125 122 118 129 138 142 145 153 138 139 137 107 100 125 147 131 116 98 91 90 92 85 73 56 53 76 72 39 52 54 52 51 55 62 65 75 72 70 72 81 86 82 66 76 55 50 55 60 53 47 71 100 96 92 84 77 85 89 84 101 106 106 106 107 109 112 113 90 76 77 72 70 71 71 71 103 113 111 103 71 78 101 108 107 106 108 97 64 62 66 35 9 15 5 3 2 16 15 
151 156 155 155 156 156 157 156 156 155 156 156 156 156 155 155 155 156 155 154 155 155 155 154 155 155 154 154 153 153 155 171 151 155 71 25 33 35 34 51 88 100 122 114 101 104 118 128 140 147 144 152 157 163 160 164 170 168 156 170 149 131 147 162 148 118 134 139 123 106 108 102 92 78 81 76 72 89 92 64 47 56 38 50 60 66 74 83 88 90 95 97 87 85 92 99 98 96 95 93 87 80 88 99 93 83 84 80 74 81 76 91 98 101 109 113 111 110 108 83 69 72 69 67 69 68 68 101 114 111 103 89 86 102 109 109 108 110 98 63 63 66 38 29 27 19 22 29 38 38 
149 156 156 156 156 155 157 157 157 156 156 157 157 156 157 157 155 155 155 155 155 154 155 154 155 154 154 155 154 154 159 181 150 155 73 23 34 34 46 84 97 129 117 104 117 128 142 152 163 170 173 174 179 184 197 193 192 200 185 153 176 178 155 160 155 126 144 175 167 148 130 136 133 117 105 93 86 77 91 94 67 48 27 36 42 41 42 44 47 48 52 58 50 65 77 84 88 90 92 93 95 97 97 95 94 93 90 93 92 84 86 86 84 89 103 104 106 124 119 105 105 109 106 101 103 105 107 116 120 119 115 114 108 112 113 111 112 111 109 101 102 102 100 101 100 95 99 102 101 95 
151 157 154 156 156 156 156 157 158 158 158 158 156 156 157 157 157 156 156 155 155 156 155 156 155 154 155 154 154 155 159 179 153 155 87 45 55 61 80 87 126 140 106 111 129 139 150 163 172 175 181 186 188 196 203 202 200 202 200 178 184 193 181 178 134 122 152 189 185 183 169 144 148 139 133 118 106 92 119 139 98 64 41 37 36 35 32 28 26 28 27 30 31 35 35 33 33 32 34 33 32 31 33 36 36 38 40 41 45 46 62 62 62 61 61 61 66 78 74 73 72 69 75 92 68 62 63 64 64 66 66 70 102 91 93 90 90 90 88 88 85 85 84 81 80 80 79 77 77 69 
152 158 156 156 157 156 157 157 157 158 158 157 157 157 156 155 157 156 156 155 156 155 156 155 155 155 154 155 154 156 157 176 155 155 94 53 59 69 85 98 138 125 117 125 132 142 158 164 172 178 184 188 188 201 209 205 203 208 204 205 187 186 177 155 127 150 172 194 191 193 183 160 154 149 138 128 109 99 89 144 116 73 72 58 50 43 35 25 19 23 24 26 35 34 33 45 48 52 55 56 61 63 58 38 37 35 34 32 28 26 29 28 30 33 37 40 44 47 50 53 57 60 72 97 87 76 69 62 56 50 50 69 133 107 110 105 103 102 100 98 97 96 94 94 93 91 91 90 92 84 
152 158 156 156 157 158 158 158 158 158 157 157 157 158 157 157 158 157 156 156 156 156 156 154 154 155 154 154 153 155 161 188 156 154 96 54 60 79 92 120 149 130 126 132 141 145 162 173 176 182 186 191 190 198 211 212 213 216 210 214 209 192 178 182 167 177 194 201 197 196 184 168 164 158 148 130 110 115 98 135 139 78 61 64 48 45 40 30 24 26 23 44 73 65 47 87 87 85 87 91 97 102 93 60 58 52 62 72 72 76 79 83 86 90 92 93 95 95 98 99 98 99 99 98 97 98 98 97 94 92 55 51 143 101 98 97 96 94 94 93 92 92 91 92 90 89 87 86 87 80 
153 157 156 157 158 158 158 158 158 158 157 158 157 157 158 157 157 157 157 156 156 157 156 155 155 154 154 154 154 154 158 184 158 154 99 55 69 93 109 158 145 125 122 138 148 152 164 178 182 180 182 188 190 199 212 216 213 218 219 218 222 199 189 186 198 207 203 197 193 190 186 177 166 160 150 139 122 113 94 144 162 104 58 55 51 47 42 30 25 27 25 54 68 68 46 74 75 72 71 69 63 57 49 45 45 44 53 58 64 71 92 92 94 94 95 93 93 92 94 95 95 96 95 96 95 94 94 94 92 100 62 75 188 98 94 95 94 94 94 93 92 90 91 88 84 89 91 89 91 82 
152 157 157 156 158 158 158 158 157 158 158 156 158 159 158 157 157 157 157 157 156 156 156 156 156 156 154 154 154 155 155 179 159 154 103 55 83 113 122 138 142 123 114 142 152 159 168 175 180 180 184 192 195 200 208 214 213 216 219 216 225 215 205 211 208 210 200 192 190 187 187 183 174 165 151 134 128 109 102 143 151 104 82 56 52 50 46 34 26 24 32 50 56 62 37 58 63 56 53 49 47 47 45 49 55 61 64 66 67 66 88 92 92 94 93 93 93 95 95 96 99 100 97 96 96 95 97 96 94 97 76 142 236 102 93 94 93 94 93 94 98 99 102 97 96 92 66 62 60 59 
152 157 158 158 157 158 158 158 158 158 158 158 158 158 158 157 158 158 157 157 157 155 155 155 155 155 155 155 154 156 161 186 160 153 107 60 100 120 113 145 133 110 125 143 152 164 175 180 181 182 185 191 193 196 204 213 215 215 217 217 217 215 211 211 204 202 198 190 188 186 188 181 179 166 146 135 126 110 99 139 130 90 91 81 56 50 48 36 26 27 38 42 47 53 45 52 57 54 51 49 53 62 67 69 72 74 72 70 70 67 86 93 92 94 94 93 95 95 94 95 99 99 97 97 96 97 98 96 95 95 94 150 185 97 95 93 93 95 93 96 115 119 120 118 120 107 54 43 33 31 
154 157 157 158 158 158 158 158 159 159 158 159 158 158 158 157 158 158 156 157 156 156 155 155 155 155 155 155 154 155 157 178 159 152 108 53 111 127 115 133 112 119 138 144 156 170 175 179 186 191 194 195 199 203 207 216 221 222 227 228 229 222 215 211 204 196 197 193 187 180 182 179 174 163 142 137 128 126 108 126 138 88 85 79 61 50 45 34 26 35 35 39 46 53 51 49 51 56 64 77 81 85 84 74 70 70 68 67 69 66 83 93 92 94 93 93 94 95 95 97 99 98 97 97 96 99 101 98 97 95 96 135 132 94 95 93 92 92 91 91 111 118 117 116 115 115 70 49 36 24 
153 159 158 158 158 158 157 158 160 158 159 157 158 159 158 158 158 157 157 158 156 155 156 157 155 156 156 154 154 155 155 173 159 153 110 54 108 129 116 110 108 122 134 129 136 142 111 105 129 151 173 188 202 211 221 227 229 230 231 231 232 228 223 218 210 204 200 200 199 193 181 171 173 161 138 135 135 135 125 107 116 100 79 77 51 49 42 32 29 38 42 46 50 54 55 65 74 89 109 96 85 82 78 75 73 72 70 70 69 63 78 93 92 92 93 93 94 93 95 96 97 98 97 97 95 97 98 97 97 98 95 124 123 93 93 92 92 90 92 94 109 116 117 116 115 119 80 60 66 46 
153 159 158 158 158 158 158 158 158 158 159 158 158 158 157 158 157 158 158 158 156 155 156 157 155 154 155 156 154 155 158 179 160 154 114 62 79 119 116 110 105 130 136 99 64 59 50 64 66 76 93 117 150 166 195 203 222 229 231 235 233 231 224 223 217 202 181 171 157 155 144 121 137 144 132 134 135 125 117 110 98 91 90 87 48 40 37 35 35 33 39 39 50 65 82 90 89 91 94 98 85 76 76 75 76 75 72 68 61 60 78 92 91 91 92 92 91 93 92 92 94 94 96 97 98 98 97 100 101 100 92 92 88 99 101 100 101 100 101 99 110 115 115 116 116 118 84 153 189 137 
153 158 158 158 158 158 158 157 158 157 159 158 158 159 157 157 156 157 158 156 156 156 156 155 157 154 154 156 154 155 156 170 159 153 116 56 99 137 120 108 106 135 127 101 78 98 126 142 143 136 108 98 116 142 151 169 195 209 217 215 212 208 178 159 171 136 92 79 64 69 74 63 66 73 66 100 128 117 105 100 106 87 105 83 37 40 41 36 35 41 51 61 69 76 86 87 83 85 83 85 78 75 75 74 74 72 66 65 73 84 89 89 92 92 93 98 99 102 104 103 105 107 111 111 110 109 113 93 92 115 83 52 56 95 98 96 96 94 96 86 97 115 113 115 113 119 93 146 196 133 
154 158 157 157 157 157 158 158 157 157 158 158 159 159 157 156 156 156 156 156 156 155 156 156 155 154 154 154 154 154 154 169 158 153 119 57 108 174 130 92 96 144 132 118 134 171 165 145 139 153 153 137 136 147 164 179 197 202 196 198 202 192 177 173 159 140 118 113 119 123 109 101 79 59 67 97 124 115 99 86 94 94 118 79 40 46 51 55 60 66 66 68 70 77 82 83 82 81 81 79 76 75 74 71 74 73 72 80 88 90 91 92 92 93 101 107 107 106 103 103 108 108 108 107 110 111 115 89 80 99 84 77 85 97 101 100 99 100 100 88 86 115 114 114 113 116 111 109 172 132 
153 158 157 157 158 157 157 159 158 158 157 157 158 156 156 157 156 156 157 156 156 156 155 154 154 154 154 155 155 154 155 174 158 152 122 59 107 191 155 96 109 138 124 128 160 136 83 139 135 67 67 121 172 162 163 159 171 199 213 210 200 174 157 145 148 148 128 130 123 126 128 138 152 122 100 113 133 122 103 84 93 103 150 101 46 62 66 67 67 66 67 69 72 77 81 83 83 82 81 81 75 63 55 60 68 74 80 83 88 91 94 82 82 89 98 100 100 101 104 104 109 111 109 109 110 93 84 87 84 83 99 91 79 84 99 98 99 97 100 94 82 111 114 116 114 115 112 88 132 126 
153 158 157 157 156 158 157 156 158 158 157 157 158 157 156 156 155 155 155 156 156 155 155 154 155 155 154 154 153 153 152 163 157 152 123 61 100 179 153 132 120 135 137 145 154 136 113 156 172 134 133 186 184 172 202 198 165 186 221 216 184 152 166 175 174 203 175 78 65 136 162 88 118 169 121 127 141 124 83 86 131 144 196 91 60 68 66 66 66 67 69 70 76 81 83 84 83 80 74 58 50 43 43 48 51 59 69 68 71 78 86 94 97 108 102 98 101 101 116 106 105 108 103 103 93 88 92 92 99 103 101 104 95 94 101 101 91 92 81 83 68 102 113 114 114 112 118 91 108 121 
152 157 156 157 157 156 157 158 158 158 158 158 157 156 156 156 155 155 154 155 156 156 155 154 153 154 153 153 154 153 153 165 157 150 123 70 74 135 165 146 120 141 154 158 156 165 160 154 169 189 199 194 181 186 194 193 165 183 206 208 176 168 187 199 187 183 198 183 169 179 165 132 145 159 142 147 147 120 82 114 145 163 180 68 66 67 67 67 67 68 69 72 78 80 80 75 72 68 63 65 69 73 78 80 86 86 86 85 86 85 80 79 86 96 113 118 117 99 103 86 57 56 79 105 114 113 107 101 103 103 102 113 118 119 114 116 88 69 63 77 67 96 113 112 113 113 117 96 91 118 
153 157 155 156 157 157 157 159 158 158 158 158 156 155 156 156 155 155 155 155 154 154 154 155 154 154 154 153 154 153 154 171 159 148 123 70 77 88 167 146 115 137 152 162 171 175 176 182 187 192 199 205 202 194 190 180 159 190 201 207 176 165 194 189 197 203 202 200 192 181 164 169 184 170 157 157 145 121 82 132 180 161 113 60 67 67 67 67 67 67 71 76 79 76 60 64 69 70 72 73 73 75 77 82 83 92 96 96 92 88 81 81 90 96 99 95 94 96 91 84 84 94 110 117 108 110 102 107 109 100 92 86 90 101 98 94 92 88 89 85 83 88 114 114 114 113 114 105 83 115 
152 157 157 156 157 157 157 158 158 157 157 157 156 155 156 156 156 156 155 156 154 154 155 154 154 155 155 153 154 153 154 161 158 150 126 75 84 85 135 139 112 134 146 166 178 186 188 193 194 202 207 205 200 200 195 166 162 192 198 201 170 160 194 203 203 206 209 208 198 191 191 194 195 186 162 143 131 109 89 149 195 110 58 68 67 67 67 68 69 74 76 76 93 108 109 113 115 118 125 129 130 130 128 128 125 125 108 81 103 86 89 102 97 92 82 86 86 91 76 93 105 96 94 82 79 84 92 76 61 54 47 46 51 52 53 57 57 59 59 61 55 55 114 114 115 115 113 118 87 96 
152 157 156 156 157 157 157 158 158 157 157 158 157 157 156 156 157 155 155 155 155 155 155 154 154 154 154 152 154 153 154 165 160 149 129 77 86 87 137 160 109 130 147 165 182 185 193 199 206 209 203 204 202 192 176 158 163 186 197 192 164 152 183 199 211 207 205 210 209 207 204 201 198 184 162 131 116 100 93 142 144 66 64 65 65 65 69 69 63 46 33 61 101 116 122 122 126 136 142 143 147 148 146 145 139 139 114 52 76 53 59 68 65 66 71 74 75 74 60 53 58 55 60 45 58 51 54 61 69 69 67 68 68 67 68 66 65 64 64 65 64 64 90 100 100 101 100 106 88 77 
153 157 157 157 157 156 157 157 157 157 157 156 156 157 157 156 155 155 155 155 155 154 155 154 154 154 154 153 153 153 154 169 162 148 130 81 87 89 131 154 106 120 147 163 173 180 191 200 207 206 207 212 213 188 160 153 169 187 199 189 169 147 167 189 211 215 206 204 209 208 209 202 190 178 150 126 106 95 99 163 92 57 64 65 68 66 51 31 14 17 19 73 92 76 109 106 98 111 109 118 117 111 104 106 111 114 98 56 43 43 60 62 72 75 82 81 79 73 53 44 46 44 59 47 55 51 78 96 95 94 93 95 92 98 98 94 94 97 82 69 78 68 86 113 109 111 109 115 101 52 
152 156 156 156 156 156 157 157 156 158 158 156 157 157 156 156 156 155 155 155 155 155 155 154 155 154 154 155 155 153 153 160 159 149 134 83 87 87 127 170 125 110 148 164 165 170 179 200 207 212 215 213 204 167 147 161 180 193 197 190 177 148 143 168 214 223 213 208 208 207 199 191 179 167 147 126 103 94 103 159 78 55 58 52 42 31 23 20 49 50 53 68 80 73 70 96 98 107 110 118 119 119 121 135 141 148 128 92 84 78 70 67 69 61 64 66 71 81 82 85 91 86 81 78 86 87 80 81 84 80 77 76 72 75 77 73 75 73 69 72 77 68 85 121 114 109 108 106 93 33 
152 157 156 156 156 157 156 157 156 156 157 156 157 157 156 156 156 156 156 156 156 156 156 156 155 154 154 155 154 153 153 165 163 148 135 83 88 90 106 158 141 106 144 166 163 165 179 196 205 216 216 200 179 166 168 176 190 205 215 206 183 164 156 155 183 212 220 216 208 204 195 177 166 162 154 128 95 97 125 140 62 50 44 40 42 46 50 46 74 66 61 61 73 79 67 98 103 105 107 106 113 115 116 117 118 117 90 76 77 76 74 81 87 84 90 88 85 84 82 88 111 109 110 101 98 99 100 101 102 103 102 103 104 105 105 105 103 104 102 102 104 100 104 113 107 101 95 90 86 79 
152 157 156 156 157 158 156 156 157 157 157 156 157 157 156 156 155 155 156 156 155 156 155 155 155 155 154 155 154 153 154 166 162 147 137 84 87 92 106 110 117 112 136 164 158 166 183 198 205 214 199 190 183 161 158 164 190 209 221 202 174 152 154 154 191 201 212 222 214 205 190 169 150 162 163 128 93 99 136 81 39 48 44 48 50 49 50 45 73 68 87 93 80 82 93 93 82 84 79 83 101 106 105 106 107 103 100 99 99 96 91 82 74 63 70 76 76 78 81 83 83 82 84 69 57 59 63 70 73 80 48 38 74 95 92 94 95 96 96 96 96 96 96 96 97 98 99 101 103 98 
152 157 156 156 156 157 157 157 158 156 157 157 157 155 156 156 156 156 156 155 156 155 155 154 155 155 154 154 154 154 155 159 161 149 137 84 87 97 105 116 122 113 127 155 155 167 180 195 206 194 164 165 165 156 153 146 170 176 167 165 139 134 157 180 190 187 183 213 218 199 189 171 148 162 160 111 95 101 59 55 60 61 67 73 75 84 83 57 79 72 93 95 90 91 96 113 109 109 117 120 117 114 110 102 91 87 81 75 73 71 65 61 59 59 79 87 87 88 87 86 86 86 86 87 88 87 87 86 84 86 54 27 60 91 88 88 88 88 89 90 89 90 89 89 89 88 88 89 90 83 
152 158 157 156 155 156 157 156 157 157 158 157 156 155 156 155 155 155 155 155 155 156 155 155 155 155 154 155 154 154 154 165 164 147 137 80 79 88 100 112 111 111 123 152 156 165 177 193 194 160 160 164 160 158 163 169 186 176 167 177 177 172 168 167 165 170 165 171 205 199 188 171 158 159 153 101 97 91 66 74 72 73 81 84 86 86 95 87 102 105 120 128 126 123 120 111 114 111 84 71 76 69 50 36 50 82 83 85 86 87 88 90 91 91 88 86 85 85 86 87 87 86 86 86 85 84 85 84 84 85 67 37 56 92 89 89 89 89 88 89 89 89 88 88 88 88 88 90 92 85 
153 158 156 156 157 157 157 157 157 157 157 157 157 157 156 156 155 155 155 155 156 155 156 156 155 155 153 154 154 153 154 165 165 148 139 67 69 83 96 98 97 99 115 145 157 166 179 192 167 148 166 170 169 176 176 185 204 188 191 205 195 186 177 175 170 168 173 156 182 201 183 169 166 159 140 97 95 81 71 77 82 89 96 96 100 105 115 123 127 120 111 104 90 73 62 47 50 92 36 18 54 72 56 61 77 95 96 91 89 85 83 86 84 85 91 92 91 91 91 91 92 92 93 93 93 94 92 92 93 93 86 77 82 91 89 89 88 86 87 84 84 83 81 82 80 81 77 75 92 83 
152 156 155 155 156 155 155 156 158 157 157 158 157 157 157 155 155 155 156 155 156 155 155 155 156 156 155 154 154 154 155 159 161 149 141 75 72 86 96 94 95 101 111 138 153 163 176 190 159 158 162 148 141 144 140 142 154 177 184 167 161 162 164 163 154 156 170 164 164 194 176 167 162 160 140 89 91 100 105 105 102 99 93 85 78 75 69 55 42 41 60 65 63 63 63 63 60 98 65 34 42 69 70 71 74 94 98 95 83 58 67 72 72 79 111 112 111 110 108 106 106 105 106 105 104 103 101 101 100 99 99 99 97 95 93 94 93 91 92 91 89 89 88 86 80 81 77 67 91 84 
152 156 156 155 155 155 156 155 155 156 156 156 155 156 155 155 156 156 155 155 156 156 156 156 156 155 154 154 155 154 155 164 166 149 142 73 71 93 110 113 112 125 136 130 145 156 171 186 165 158 157 150 131 113 111 114 117 121 123 127 126 118 116 112 124 143 165 169 168 194 177 159 157 165 129 80 99 79 73 65 57 49 44 39 37 38 41 29 37 70 76 75 74 73 72 70 66 94 71 48 43 64 70 70 74 94 98 98 86 55 66 67 68 74 109 114 113 114 114 114 112 111 109 108 106 104 103 102 99 97 95 91 90 89 87 84 83 81 78 76 75 72 72 70 82 83 80 66 89 84 
151 154 153 154 154 154 153 153 153 154 155 155 155 156 155 155 155 155 155 156 155 155 156 155 155 154 153 155 155 153 154 161 165 148 143 74 72 96 115 116 116 124 132 121 130 145 164 173 170 157 160 161 161 148 139 137 146 170 175 158 136 128 124 133 157 167 160 166 183 193 173 148 152 158 97 115 86 33 40 39 40 40 40 42 42 48 59 64 73 79 75 74 72 71 70 69 64 89 68 50 56 53 69 70 74 92 91 84 72 57 67 68 70 72 104 114 113 107 80 68 65 60 56 52 50 45 44 40 36 34 31 30 29 25 24 23 20 19 17 15 14 14 12 21 85 83 79 67 85 84 
148 153 152 154 153 153 153 153 153 153 155 154 154 154 154 154 154 154 154 154 154 154 154 155 154 155 155 154 154 153 153 156 162 149 145 89 84 112 133 134 138 140 133 130 123 128 146 156 159 156 154 152 155 155 155 158 161 166 162 153 145 142 147 157 166 161 153 167 176 172 157 139 146 133 100 147 61 42 45 44 43 43 43 42 44 51 62 70 77 77 77 77 74 72 71 70 65 97 68 46 65 40 60 55 50 52 47 45 42 55 67 67 70 70 100 115 111 110 52 10 14 13 12 12 12 12 13 12 13 12 12 12 12 12 13 11 10 11 11 10 10 9 8 12 78 84 81 67 80 87 
147 153 151 152 152 152 152 152 154 153 151 152 153 154 153 154 155 155 154 153 153 154 154 154 153 154 154 154 152 152 153 162 168 147 147 124 126 141 152 152 153 154 155 153 138 122 127 142 145 152 160 148 144 156 164 162 160 152 144 147 149 160 168 160 157 158 170 163 161 155 136 132 141 97 148 133 54 33 41 46 46 47 45 45 48 58 67 75 79 77 76 75 74 73 71 70 65 112 117 42 59 43 44 55 51 54 57 59 61 59 66 68 70 69 96 113 110 112 64 17 19 19 19 18 18 18 19 18 17 16 16 18 15 14 14 14 13 12 13 12 12 10 10 9 69 86 81 71 77 86 
148 152 151 151 152 152 152 152 153 152 152 152 153 154 153 153 153 153 153 153 152 153 154 153 154 153 153 153 152 152 153 158 164 146 146 131 132 149 159 161 163 166 166 167 153 141 121 120 142 147 153 152 149 161 171 166 164 161 162 167 173 173 168 158 159 169 170 158 154 137 127 136 107 141 165 117 92 83 50 43 37 39 46 46 51 60 69 76 79 78 76 75 74 72 69 68 64 99 148 63 43 58 31 62 72 73 75 75 74 62 65 67 68 67 93 114 110 112 73 17 17 17 17 17 18 16 17 15 15 14 15 15 15 13 14 13 12 11 12 12 11 10 12 5 59 89 80 73 74 86 
147 152 150 151 151 151 152 152 151 151 152 153 153 153 153 153 152 152 153 153 153 153 152 152 153 153 152 152 152 153 152 155 161 147 146 108 107 155 163 151 139 127 116 108 97 125 154 128 117 136 149 149 153 161 161 164 179 188 193 181 177 177 160 152 166 159 155 147 129 118 121 120 155 179 144 123 162 199 169 146 115 79 46 36 45 62 73 79 79 78 76 75 75 74 72 73 62 60 109 66 34 65 37 44 59 55 55 56 55 55 66 68 68 67 88 113 111 112 80 19 19 17 17 17 17 16 15 16 16 16 15 16 15 15 15 14 12 13 12 12 12 11 12 5 48 90 78 75 72 87 
146 151 150 151 150 150 150 150 151 151 151 151 151 152 152 153 153 153 153 152 153 152 153 152 152 153 153 153 152 152 153 159 166 146 148 89 75 85 81 87 94 97 102 105 106 119 146 161 138 118 122 146 152 158 162 170 168 171 186 181 180 171 148 146 160 143 125 113 116 111 126 176 183 152 143 173 179 194 204 197 191 181 159 118 74 54 54 67 80 83 82 78 72 67 62 57 51 44 49 39 44 65 50 37 47 46 45 45 45 50 65 69 70 69 85 114 111 112 88 24 18 18 19 18 18 17 16 16 17 17 17 17 16 16 15 15 13 14 12 13 12 11 12 7 38 91 79 77 71 84 
146 149 148 150 149 149 150 150 150 150 150 150 151 151 150 150 152 152 152 152 152 152 152 153 152 151 151 152 152 151 153 153 162 146 148 73 53 54 68 110 122 118 125 137 157 176 161 149 166 163 132 126 144 149 156 165 155 170 178 174 171 155 146 162 142 111 112 126 124 134 183 179 163 154 179 186 187 178 193 198 204 191 181 188 186 159 116 75 47 47 50 53 53 50 49 48 48 52 52 38 44 57 50 40 46 47 47 46 46 50 64 69 70 68 79 111 111 110 95 28 16 19 19 19 18 17 16 17 17 17 17 15 16 16 15 14 15 13 12 13 12 11 11 8 27 88 80 79 69 83 
145 148 149 149 149 148 150 151 150 150 151 150 151 152 152 151 151 150 150 151 151 151 151 151 151 151 150 151 151 151 151 154 159 144 148 78 59 57 60 104 132 156 183 201 204 182 182 162 153 170 176 157 135 133 136 138 142 151 149 138 131 132 143 129 118 132 147 135 145 182 177 172 175 187 197 186 192 181 187 190 193 205 200 185 183 192 195 186 160 126 91 56 38 39 48 54 54 55 53 37 45 53 53 43 44 46 45 46 46 48 63 70 71 69 77 109 110 109 101 35 15 19 19 19 18 18 17 17 17 17 16 15 16 15 15 14 14 13 12 11 11 11 11 9 19 83 81 81 69 80 
145 149 148 147 148 148 149 150 150 149 150 150 150 150 150 150 150 151 150 150 150 150 151 150 150 150 150 149 149 150 151 154 165 144 149 70 47 74 127 182 203 204 199 197 183 179 186 182 176 161 166 177 171 143 130 130 135 133 137 145 144 148 146 148 156 156 151 153 179 179 184 190 192 202 196 193 187 181 199 191 187 189 201 207 196 189 187 187 193 196 191 169 134 93 58 40 39 47 54 37 40 51 54 44 42 44 46 46 45 47 61 68 68 72 75 106 111 108 104 43 14 19 18 17 17 17 17 16 16 16 15 15 16 14 15 14 13 14 12 10 11 11 10 9 13 76 83 80 70 76 
144 149 148 148 150 149 147 148 149 150 150 149 150 150 149 150 150 149 149 149 149 150 150 150 150 149 150 149 149 149 150 153 159 141 146 120 154 196 210 206 202 190 199 197 181 185 195 185 192 191 177 168 178 182 163 147 145 153 155 163 170 168 163 158 157 160 172 179 185 196 202 200 207 202 195 193 183 191 211 204 178 187 194 203 205 197 197 199 194 190 187 189 192 190 173 139 100 65 45 24 32 46 51 41 43 44 45 46 45 49 60 68 68 73 75 101 111 109 108 51 15 19 17 17 17 16 17 17 16 16 16 16 14 14 15 15 13 12 12 12 12 11 11 10 8 69 86 78 72 71 
145 149 148 148 148 148 148 149 148 148 149 149 149 149 149 149 149 149 149 150 150 150 149 150 150 150 150 150 149 149 148 150 159 166 191 208 207 200 197 197 193 190 196 197 184 186 197 191 185 193 204 196 179 183 185 177 160 158 163 168 169 167 166 171 180 185 192 199 211 214 216 215 209 202 200 187 184 201 206 212 193 191 196 198 200 204 202 199 198 198 197 195 192 188 191 194 191 177 149 111 73 44 28 18 34 42 45 47 45 46 58 68 66 70 72 99 111 109 109 59 15 18 16 17 16 16 16 16 15 15 16 15 16 14 14 13 13 12 12 12 12 10 10 11 6 59 87 79 74 67 
144 148 147 147 148 147 147 147 147 147 148 147 148 147 147 148 148 148 148 148 148 149 149 149 148 151 151 149 144 145 157 178 195 205 206 197 194 197 196 195 198 189 191 198 190 181 196 199 192 190 198 213 216 205 188 187 187 172 164 161 159 164 171 179 188 204 220 230 233 231 222 218 212 206 195 181 195 211 205 204 204 207 206 202 203 204 204 201 198 197 200 203 200 197 194 191 188 189 193 193 185 165 130 90 59 38 28 35 43 49 58 67 68 70 69 95 112 107 110 68 14 17 17 17 17 16 15 16 16 14 15 16 16 15 13 12 12 12 12 12 11 10 10 11 5 49 88 78 77 65 
142 146 146 146 146 146 146 147 147 147 147 148 149 148 147 148 147 148 148 148 147 148 148 148 150 148 146 149 163 182 196 203 202 203 200 190 190 197 198 194 193 182 191 193 190 180 191 200 199 195 196 206 218 229 219 201 192 186 185 180 184 185 182 208 227 234 233 233 231 226 222 217 209 198 186 185 211 219 204 203 200 209 208 210 210 207 204 200 198 195 194 197 198 198 199 200 201 200 196 195 195 195 197 194 180 154 119 78 47 44 53 67 69 71 70 89 111 108 109 76 17 17 17 17 17 16 15 17 16 15 15 14 14 14 13 12 11 13 12 12 12 11 13 13 6 41 88 78 79 64 
142 147 145 146 146 145 146 146 145 147 147 147 147 147 148 148 148 148 147 147 148 148 147 144 146 155 172 188 196 198 201 200 201 200 198 187 184 189 187 184 188 179 197 194 193 186 181 192 193 195 194 198 209 215 211 201 171 148 146 147 148 173 218 225 219 224 227 227 225 222 215 206 203 193 185 191 225 219 203 206 196 211 205 205 206 209 209 208 202 198 197 198 200 202 204 203 206 206 205 204 202 201 200 198 195 195 194 186 160 115 62 43 57 66 67 86 110 107 110 83 21 17 18 17 17 18 16 17 16 16 16 14 13 14 13 12 12 13 11 9 8 7 7 7 1 26 88 80 81 63 
141 144 145 144 145 146 145 145 145 145 146 146 146 148 147 147 147 147 146 147 146 145 146 160 179 192 197 196 193 191 198 197 196 202 201 194 179 180 188 182 179 182 201 199 197 193 179 184 188 190 199 190 185 165 148 102 84 89 88 90 92 99 137 205 233 230 224 225 227 219 214 208 203 192 186 206 233 223 207 203 196 209 208 207 204 206 205 209 213 210 209 207 204 205 205 204 205 203 204 204 204 204 205 205 200 196 191 188 188 188 169 110 52 47 53 68 98 102 109 91 21 10 12 12 10 11 11 12 11 11 12 12 13 13 15 16 18 21 23 25 28 32 35 40 43 55 87 80 82 61 
140 145 144 145 145 145 145 146 146 145 146 145 146 145 146 146 146 146 144 143 148 161 180 193 193 193 195 197 198 196 201 196 189 192 191 186 174 189 196 179 178 188 200 199 195 195 190 177 186 193 164 153 189 148 60 77 84 81 94 114 122 123 84 105 190 231 228 227 224 221 210 205 198 189 191 218 235 225 208 200 201 209 208 207 205 205 201 200 205 206 209 210 210 209 208 204 205 207 206 204 206 205 202 200 197 198 197 192 189 185 183 182 150 74 44 54 75 84 94 91 54 48 50 52 53 54 56 59 63 64 67 69 71 75 77 79 81 83 85 85 87 87 86 87 87 84 81 80 82 64 
141 144 144 144 144 144 144 143 144 145 145 145 144 145 145 144 143 145 154 168 181 189 194 195 195 194 195 196 196 194 192 185 181 190 192 182 178 197 189 175 182 192 199 200 194 193 199 183 182 144 144 186 188 214 124 53 79 87 91 100 95 109 103 80 67 194 229 224 223 219 210 201 198 189 201 224 231 219 208 203 208 209 212 210 208 208 202 200 204 199 200 204 206 205 206 207 211 212 208 208 206 205 201 201 201 199 198 196 192 189 186 180 177 148 64 50 75 77 77 84 96 103 106 107 105 102 103 102 101 100 99 96 96 95 94 93 91 90 89 89 87 85 85 84 83 83 82 82 81 66 
141 144 144 144 145 145 145 144 145 144 144 144 144 145 144 151 163 171 183 190 191 190 194 193 191 191 191 188 187 184 186 186 191 196 190 177 186 195 179 177 190 196 198 203 201 197 199 200 171 138 178 178 179 184 201 109 62 75 79 89 116 91 79 60 154 219 207 222 220 218 213 199 193 195 211 227 231 217 211 212 213 212 215 214 213 215 204 206 209 206 203 207 206 204 203 203 205 207 206 205 207 207 208 206 207 204 201 200 197 193 189 184 167 168 130 54 72 78 75 77 66 77 97 100 100 98 99 97 96 95 94 94 92 91 89 87 86 84 84 82 80 77 76 74 73 72 71 72 71 62 
137 142 140 140 142 141 141 142 141 141 141 142 141 141 153 172 180 182 184 182 180 182 184 183 185 187 181 178 181 184 185 186 189 191 178 170 185 187 176 178 190 194 194 199 200 198 199 205 186 160 181 178 186 172 188 188 83 68 78 88 126 89 56 133 237 224 195 206 210 213 213 201 186 194 214 223 226 212 209 210 209 208 209 209 210 209 199 204 207 205 200 205 206 208 202 204 204 205 205 201 200 197 199 200 201 202 204 202 198 192 189 176 168 163 161 92 63 77 73 71 68 72 81 88 90 87 85 82 80 75 73 72 68 69 69 66 59 63 66 64 57 58 69 62 63 63 62 63 66 60 
