P2
150 65
255
160 172 170 171 172 171 173 173 173 176 175 175 176 178 177 178 179 181 181 182 184 184 184 185 186 187 187 188 189 190 190 191 192 193 194 194 194 196 195 195 196 197 198 200 200 201 202 203 204 202 205 206 207 209 210 218 217 204 182 186 166 103 123 154 199 223 220 226 221 218 221 212 211 209 208 190 103 77 62 49 60 60 69 58 58 59 57 66 112 188 214 214 214 219 221 223 222 222 218 215 223 221 222 223 224 222 221 221 221 221 218 223 226 224 224 226 225 226 226 225 226 227 227 226 225 223 223 222 221 221 221 221 218 219 217 218 217 216 216 214 214 212 212 212 211 211 209 208 211 199 
166 178 176 178 179 179 180 180 181 183 183 183 184 187 187 187 189 190 189 191 192 193 193 194 195 196 196 197 197 199 199 200 202 201 202 204 204 205 205 206 207 208 209 210 210 211 212 213 213 212 217 217 218 216 189 148 121 102 87 95 75 58 76 80 93 135 140 146 150 164 192 210 215 218 209 128 60 54 59 64 61 63 69 57 55 55 48 43 38 62 137 191 211 214 216 220 224 230 228 225 233 232 232 231 230 230 230 229 230 229 229 227 231 235 233 234 234 234 233 233 235 235 235 234 233 232 232 231 230 230 228 229 228 228 226 226 225 224 225 224 223 221 221 221 220 220 219 218 220 207 
166 177 176 178 178 178 179 180 181 183 182 182 184 185 186 186 188 188 189 190 191 192 193 193 194 195 196 197 197 198 200 201 202 202 202 203 204 206 206 207 208 209 210 211 212 213 213 215 215 216 218 218 218 201 97 71 41 28 29 39 37 45 48 45 40 37 50 53 54 65 82 121 162 166 114 57 60 69 69 55 51 48 36 30 36 45 43 38 31 22 37 87 139 175 190 197 207 216 218 219 231 232 231 228 228 228 229 229 229 229 230 229 231 232 232 232 233 233 232 233 233 233 233 232 230 230 231 230 229 228 227 227 227 226 225 225 224 223 222 222 221 220 220 219 219 219 218 216 218 206 
165 177 177 179 180 180 182 181 181 183 183 184 185 186 187 188 189 189 190 192 191 191 193 194 195 196 197 198 199 199 200 202 203 203 204 205 206 207 209 210 211 211 212 214 215 215 216 217 216 216 214 214 220 211 134 63 44 40 33 32 39 30 32 35 54 59 59 67 78 84 70 62 74 73 48 51 56 50 43 45 50 42 50 62 57 42 46 49 41 33 24 32 58 72 108 128 140 173 196 211 223 225 231 232 230 230 232 232 231 233 232 232 232 231 231 232 232 233 233 233 232 232 232 232 233 231 230 230 229 228 227 227 227 226 225 224 223 223 222 222 221 220 220 220 219 219 219 217 219 206 
165 178 178 179 180 180 182 181 181 183 184 185 186 186 187 189 190 191 191 192 192 193 194 195 196 197 199 200 201 201 202 203 204 206 207 208 210 211 211 212 213 214 216 215 215 216 215 215 217 215 211 208 180 163 118 67 40 40 47 41 43 44 45 52 54 60 56 56 55 52 48 46 43 47 46 56 63 49 50 40 42 38 54 45 37 40 45 46 50 45 35 32 50 55 59 76 102 108 114 146 201 216 218 226 231 232 233 232 231 231 232 232 232 232 232 232 231 232 231 232 231 231 232 231 231 230 229 228 228 227 227 227 227 226 224 223 223 223 222 222 221 220 220 220 218 218 218 216 218 205 
167 179 177 179 180 180 182 182 182 182 184 185 186 187 188 189 190 191 192 193 194 194 195 197 198 200 201 202 203 204 205 206 207 209 209 210 210 211 212 213 213 214 215 216 217 214 214 216 216 219 219 220 154 117 113 145 122 69 45 48 37 44 55 55 43 33 41 32 30 24 26 29 41 43 40 49 42 61 59 36 42 34 39 36 31 37 48 60 50 41 30 29 46 62 57 51 77 108 117 124 124 164 203 205 209 218 225 230 232 233 232 232 232 232 232 232 232 232 232 232 233 232 231 231 231 229 229 228 227 227 227 226 225 225 225 224 223 223 221 221 221 219 219 219 218 217 217 216 219 206 
167 179 177 179 180 180 182 182 184 184 186 186 187 188 189 190 191 192 194 194 195 196 198 199 200 202 203 205 206 207 208 208 209 210 210 209 210 211 212 213 213 215 215 215 216 218 216 217 224 207 187 179 172 104 84 83 66 70 61 41 54 44 42 48 57 35 35 38 24 29 21 30 38 23 22 31 42 67 49 42 55 72 43 35 27 27 40 45 41 45 48 62 72 79 75 64 53 50 79 129 166 126 149 196 200 204 207 214 221 229 231 232 231 231 231 232 232 232 232 232 232 231 231 230 230 229 228 227 227 227 227 226 225 225 225 224 223 223 221 221 221 220 219 219 217 217 217 216 218 206 
167 180 179 180 180 181 182 183 184 185 186 188 189 189 190 192 193 194 195 196 199 200 202 202 203 204 204 205 205 207 208 208 209 209 210 210 210 211 213 212 213 214 214 215 216 191 204 205 161 159 187 156 103 100 56 31 32 30 30 31 44 59 54 49 61 57 34 43 39 19 20 17 14 17 18 37 29 28 26 24 44 71 51 24 28 31 43 58 76 73 63 59 59 55 49 54 51 48 47 49 99 162 145 161 192 204 206 209 211 216 223 229 231 231 231 231 231 231 231 231 230 230 230 230 230 229 227 227 227 227 227 226 225 225 223 222 222 222 222 221 220 219 218 219 217 217 218 215 217 205 
168 181 179 180 182 181 183 184 185 186 188 189 191 192 193 195 197 198 198 200 201 202 203 202 203 203 203 205 206 207 207 208 209 209 209 211 211 212 213 212 214 215 215 216 210 159 150 109 125 179 177 161 88 74 33 48 36 35 34 31 35 40 47 56 57 47 44 38 42 19 18 9 11 15 16 16 17 24 27 28 34 39 37 20 23 22 26 37 49 67 54 49 50 50 48 38 36 40 39 42 43 53 124 176 172 187 203 208 214 214 218 223 229 231 231 230 230 230 229 230 230 229 229 230 228 227 228 227 227 226 225 224 225 224 223 222 221 222 221 220 220 219 218 218 217 217 218 216 218 206 
169 182 180 181 182 183 185 187 188 189 192 193 194 195 196 197 197 198 199 200 201 202 203 203 204 204 204 206 206 206 207 208 209 209 210 211 211 212 214 214 214 215 216 217 219 187 90 90 129 83 91 90 46 29 33 34 37 41 49 56 60 61 48 44 56 52 36 40 27 23 23 12 13 14 18 20 23 25 26 30 29 31 26 18 16 21 23 39 45 47 42 50 54 48 43 48 38 32 39 35 45 44 38 89 185 174 190 196 203 210 215 219 224 228 229 230 230 230 230 230 229 228 228 229 227 227 228 227 227 225 225 224 224 224 222 222 222 222 221 219 220 220 218 217 217 217 217 216 218 205 
171 183 183 186 187 188 189 191 191 193 194 194 194 195 196 197 197 199 199 200 201 201 203 203 204 205 205 206 207 208 208 208 209 210 210 211 212 212 213 215 214 214 216 215 218 207 100 137 148 64 45 42 31 31 29 32 43 44 46 48 62 69 49 42 48 44 30 24 27 19 16 18 15 18 21 21 20 21 23 25 35 37 27 17 18 15 22 26 31 44 64 56 50 45 40 35 37 33 36 36 40 40 43 26 96 194 176 194 192 198 205 215 221 225 227 229 230 229 228 228 228 228 228 227 227 227 226 225 225 225 226 225 223 223 221 222 222 220 220 220 220 219 218 218 216 216 217 215 216 205 
174 188 187 187 189 189 190 191 191 192 193 193 194 195 197 197 198 199 199 200 201 202 203 203 204 205 206 206 208 207 207 208 209 210 211 211 212 213 212 213 213 213 213 215 212 220 159 72 66 46 36 28 24 30 32 44 51 35 32 34 43 42 27 22 28 27 22 19 13 14 16 21 16 17 16 14 14 23 27 34 43 32 19 28 30 23 15 9 16 29 42 49 58 49 40 47 37 25 21 34 37 45 35 41 33 141 194 183 195 194 194 206 216 222 227 228 229 228 228 228 228 228 228 227 227 227 226 225 225 225 224 223 223 223 222 221 221 219 220 220 219 219 218 218 217 216 216 215 217 204 
174 186 185 186 188 189 191 191 191 192 193 193 195 195 196 197 198 199 200 200 200 202 203 204 204 204 207 207 208 207 207 208 209 210 211 210 212 213 215 214 214 216 215 213 219 161 71 46 45 33 22 18 25 26 31 50 32 23 24 26 22 22 25 23 23 20 17 17 19 14 15 20 27 24 20 19 17 23 33 45 36 32 23 23 42 57 58 30 29 31 40 42 43 46 35 29 28 27 29 29 28 41 38 32 34 53 166 187 190 193 192 196 208 216 224 226 227 228 228 226 227 227 227 227 227 226 225 224 224 224 224 223 222 223 221 222 221 220 220 218 218 218 218 217 217 217 216 216 217 203 
174 187 186 187 188 189 189 190 191 192 193 194 195 195 197 197 198 199 199 200 201 202 203 204 205 205 207 207 207 208 208 209 209 210 211 211 212 213 214 214 216 217 214 224 163 38 32 44 26 20 23 23 27 22 40 49 18 15 21 28 29 27 31 34 30 32 22 20 29 34 39 31 37 41 25 28 39 38 41 47 50 52 35 34 37 45 48 52 45 48 45 41 46 44 44 30 31 28 21 16 21 27 46 28 35 39 67 146 188 190 191 191 197 209 218 225 226 227 228 227 227 227 227 227 226 226 225 224 224 224 224 223 222 221 221 221 222 220 219 218 218 217 217 216 216 216 215 215 217 204 
176 188 187 188 188 190 190 190 191 193 193 194 194 196 197 197 198 199 199 201 202 203 204 204 205 206 207 206 206 208 209 210 210 209 211 212 212 213 213 214 216 214 221 183 55 38 38 31 24 19 17 20 20 17 40 23 21 24 31 39 43 39 37 41 42 41 51 51 52 57 60 56 57 56 51 41 59 74 61 74 67 70 60 49 45 55 55 33 42 41 40 53 67 55 37 29 24 21 17 18 20 21 36 64 31 40 43 107 199 191 192 192 193 199 208 219 224 226 226 226 227 227 226 225 224 224 224 223 223 223 223 223 223 221 221 221 221 219 218 218 218 217 217 216 216 215 215 215 217 204 
175 188 186 188 189 189 190 191 191 192 193 194 195 196 198 198 199 200 200 201 202 203 204 204 205 206 207 206 206 208 209 209 210 210 212 212 212 213 214 212 215 215 215 94 30 54 82 50 25 16 17 14 9 23 36 16 32 28 41 64 61 73 80 94 107 106 110 115 105 93 77 68 69 75 80 100 114 125 128 129 127 125 88 67 62 49 65 56 42 40 50 78 72 44 34 36 37 27 20 18 22 27 19 53 53 44 67 179 195 192 192 192 192 193 198 205 216 222 225 225 225 225 225 225 225 224 224 224 223 223 222 222 222 222 221 220 219 219 218 218 218 217 217 217 216 215 215 215 216 204 
174 188 186 187 189 189 190 191 192 193 194 194 196 196 197 198 199 200 200 202 202 203 204 205 206 206 207 207 207 208 208 209 210 210 211 212 212 213 215 213 213 212 224 122 40 51 45 21 17 16 14 11 10 33 29 21 41 41 57 94 101 117 141 162 173 184 188 183 177 164 143 124 123 143 165 183 196 197 194 188 183 168 147 122 111 68 48 52 45 43 37 41 42 38 33 28 31 28 21 20 20 22 27 28 50 71 93 168 196 192 193 192 193 192 197 205 215 223 226 226 225 225 225 225 225 224 224 224 223 223 222 222 221 221 220 220 219 218 218 218 217 217 217 217 216 215 215 214 216 203 
175 188 186 187 188 189 190 191 191 193 194 195 196 196 197 197 200 200 200 201 202 203 204 204 205 206 206 208 208 207 208 210 209 209 211 212 212 213 214 215 215 211 219 192 82 50 25 19 18 14 9 14 25 28 23 30 38 62 60 93 137 146 157 174 179 183 196 202 201 202 204 209 206 204 208 208 206 205 200 199 198 187 173 168 151 136 77 54 57 63 59 55 49 49 54 52 39 34 33 28 30 30 17 20 29 55 97 167 193 192 193 191 192 194 203 214 223 226 225 225 225 225 224 223 224 223 223 223 222 222 222 221 220 220 220 220 219 217 218 219 217 217 217 217 216 215 215 213 214 202 
175 188 186 188 189 189 190 191 191 192 193 195 196 196 197 198 199 199 200 201 202 203 204 204 205 205 205 207 207 207 208 209 210 210 210 211 212 213 214 214 214 216 194 116 107 70 20 20 12 16 25 33 19 16 27 33 35 58 50 78 139 154 161 187 201 203 204 205 210 214 215 216 220 219 213 211 212 207 207 209 206 200 190 186 173 170 115 68 65 53 55 55 63 81 70 59 50 41 38 31 27 30 27 31 44 38 68 158 198 192 192 192 193 194 201 212 221 225 224 225 225 225 225 223 223 223 222 222 222 221 221 221 220 220 220 219 219 219 217 218 217 216 217 216 215 215 214 212 214 201 
175 188 186 187 189 189 190 191 192 192 193 195 196 196 197 199 199 199 200 201 202 203 204 204 205 205 205 206 207 207 208 209 210 211 210 211 212 213 214 215 214 218 200 85 43 40 25 21 28 27 24 20 18 23 30 33 37 60 49 60 137 172 176 189 198 205 208 210 214 215 215 215 221 218 217 215 216 212 211 211 209 206 198 191 181 170 132 98 88 63 51 52 49 50 46 35 38 38 33 29 23 23 25 32 46 50 52 84 157 195 193 191 192 193 196 207 217 224 225 225 224 224 224 223 222 222 222 222 222 220 220 220 220 220 220 219 218 218 217 217 216 216 216 215 214 215 212 212 215 202 
175 188 186 186 188 189 190 190 191 192 193 194 195 195 197 197 198 199 200 201 202 202 204 205 204 206 207 207 208 209 207 208 209 210 211 211 212 213 214 214 216 209 126 47 27 32 26 30 36 43 38 31 30 31 33 30 52 76 51 50 131 183 183 184 195 206 210 211 212 217 211 212 215 216 216 215 211 213 212 210 209 205 201 193 186 178 169 132 114 100 80 62 54 46 48 48 47 40 40 35 26 22 24 29 38 41 91 94 83 139 193 191 192 193 195 204 214 221 223 224 223 223 223 223 223 223 221 221 220 219 219 218 218 218 218 218 217 217 218 217 216 216 216 215 214 213 213 212 214 202 
175 188 186 186 188 189 190 190 191 193 193 194 195 195 196 197 198 198 200 201 202 202 204 205 204 206 207 207 208 209 207 208 209 209 211 211 212 213 213 213 217 182 109 75 63 54 31 31 55 84 70 49 38 34 36 33 53 73 48 65 153 180 180 186 200 205 207 213 215 214 215 215 215 216 218 218 217 218 214 212 208 202 197 192 190 188 182 163 136 120 106 76 62 58 54 50 49 45 41 39 33 24 21 24 41 44 58 147 140 71 130 195 188 193 194 197 206 215 222 223 223 223 223 223 223 223 221 221 220 219 219 218 218 218 218 218 217 217 217 216 215 214 214 215 213 213 213 212 213 200 
173 187 186 187 189 189 190 191 191 193 194 194 194 195 196 198 198 198 199 200 201 201 203 204 204 206 205 207 208 208 208 208 209 209 211 211 212 214 212 213 216 209 202 189 148 100 55 33 45 69 60 37 28 43 39 33 43 55 44 101 166 176 178 189 194 201 208 214 214 212 216 214 217 218 221 222 220 219 214 212 208 203 201 194 191 187 180 174 161 130 109 83 65 61 50 45 39 38 36 36 34 27 24 22 35 40 33 77 148 111 55 182 192 191 194 195 198 205 215 220 223 223 222 222 222 222 221 220 219 220 220 218 218 218 218 217 217 217 216 216 216 215 214 213 213 213 212 212 213 200 
174 188 186 187 188 188 190 191 191 192 193 194 194 195 196 197 198 198 199 200 201 202 202 203 204 206 206 207 208 208 208 208 210 210 211 211 211 213 213 212 212 214 198 174 112 84 33 24 35 45 41 35 42 49 40 37 46 52 53 121 169 178 192 200 202 208 210 211 214 216 217 216 214 219 218 219 219 219 216 214 212 212 208 203 195 190 182 172 163 152 121 96 69 56 38 41 39 35 29 26 29 28 28 28 31 31 36 44 73 103 98 180 194 190 194 200 203 204 209 214 219 222 221 221 220 220 220 220 220 219 219 218 218 217 217 217 216 216 215 215 215 215 213 213 213 212 211 211 213 200 
175 188 186 186 188 189 190 191 192 192 192 194 195 195 196 198 198 198 199 200 201 201 203 203 204 206 207 207 207 208 209 208 210 210 211 212 210 212 212 209 198 171 146 125 157 88 16 33 29 36 39 47 67 63 48 40 43 39 68 143 170 188 203 209 211 212 219 217 217 223 223 221 218 220 221 222 225 223 219 217 213 206 210 212 203 199 193 186 168 155 130 96 73 52 33 40 56 45 35 27 22 28 29 34 36 43 35 53 73 78 140 192 190 190 192 197 201 201 207 211 217 222 222 221 220 219 220 219 219 218 217 218 217 216 216 217 216 214 215 215 215 214 213 213 211 211 211 210 213 201 
174 187 185 187 188 189 190 190 192 192 193 193 195 195 196 197 197 199 199 200 201 201 202 203 204 205 206 207 206 207 209 209 209 209 210 211 212 213 209 210 211 193 169 161 113 41 30 29 27 28 41 41 65 71 57 40 41 37 107 167 182 197 207 214 214 215 217 217 220 223 225 225 224 220 222 225 228 229 225 220 214 212 212 207 209 200 190 184 178 170 150 112 70 50 37 23 43 60 41 29 21 27 33 32 35 46 37 81 144 172 186 189 191 192 192 192 194 196 205 213 218 222 220 220 220 220 218 218 218 217 217 217 217 217 217 215 215 215 215 214 214 213 213 212 211 211 212 210 211 200 
174 187 185 187 188 188 190 190 192 192 194 193 194 195 196 197 198 199 199 200 201 201 203 203 204 205 205 207 206 207 208 209 209 209 210 211 212 211 212 213 216 218 206 179 154 88 33 33 34 31 35 34 47 58 36 33 37 78 121 129 136 140 155 167 180 197 210 213 215 217 216 215 216 216 214 212 217 216 211 206 197 180 153 134 120 114 114 109 108 103 108 98 61 64 36 27 16 50 52 36 30 25 36 39 43 32 44 96 158 188 191 191 190 191 191 193 196 200 208 215 218 222 220 219 219 220 218 218 218 217 216 216 216 216 217 215 214 215 214 212 213 213 212 211 212 212 211 209 211 199 
175 187 184 186 188 188 189 190 192 193 192 193 194 195 196 197 198 199 199 201 201 201 203 203 204 205 206 207 206 207 208 208 210 209 210 211 211 213 213 214 215 214 213 174 110 58 56 80 67 37 38 31 35 31 29 32 37 55 48 49 56 75 76 67 74 79 98 126 150 166 190 199 206 209 206 198 196 180 138 105 81 64 66 73 81 85 91 94 85 71 59 55 43 57 50 30 28 29 31 26 34 35 39 60 56 33 98 157 175 192 191 191 192 191 191 196 203 211 216 220 220 221 221 220 219 220 219 218 217 218 217 216 216 216 216 215 215 215 215 213 213 211 211 211 210 211 210 208 211 199 
174 187 185 187 187 188 189 190 191 193 192 193 194 195 196 197 198 199 199 201 201 201 203 203 204 205 206 207 207 208 208 208 210 209 210 211 211 212 213 213 215 215 215 196 174 184 198 175 134 44 39 37 34 28 25 50 78 83 94 112 122 123 116 113 116 107 93 91 104 111 137 177 199 211 212 198 177 147 127 123 110 113 123 111 117 111 113 119 136 143 141 122 97 74 57 32 26 33 33 25 29 44 55 69 76 86 162 189 193 191 191 191 191 190 193 199 207 215 220 220 220 220 220 220 218 218 217 217 218 218 217 216 216 216 216 215 215 215 214 213 213 212 211 211 210 210 210 209 212 199 
174 187 185 186 188 188 189 190 191 192 193 194 195 195 196 197 198 199 199 201 201 201 203 203 204 205 206 207 207 208 209 208 210 210 209 211 210 212 212 213 214 215 215 217 220 222 214 214 207 163 92 36 35 32 36 77 133 147 163 142 100 98 94 71 73 70 139 164 146 164 160 159 191 215 220 207 174 148 162 156 148 175 157 61 50 40 75 95 78 106 153 152 139 114 77 31 29 53 63 75 87 105 104 126 137 162 191 190 192 190 191 191 191 193 201 208 215 219 221 220 220 219 219 219 217 217 218 218 218 218 217 216 216 216 216 215 215 215 213 213 213 212 211 211 211 210 209 209 212 199 
173 186 185 186 188 188 189 190 192 193 193 194 195 195 196 197 198 199 200 200 200 201 202 203 203 204 205 206 206 208 208 208 209 210 210 210 210 212 213 213 214 215 215 216 216 215 215 216 213 224 198 121 91 59 44 106 153 164 158 100 94 173 161 80 67 85 187 220 169 167 172 160 186 211 219 210 168 144 167 163 165 202 216 140 92 104 164 180 120 85 133 159 165 136 118 67 24 57 80 135 175 174 158 151 178 191 191 191 191 191 191 190 193 198 208 214 220 220 221 220 220 219 220 219 218 217 218 217 217 217 217 217 216 215 215 215 214 214 213 213 212 212 210 210 210 210 210 208 212 199 
174 188 185 187 187 188 189 190 192 193 192 194 195 195 197 197 198 199 200 200 200 201 202 203 203 203 205 206 206 207 208 207 209 210 210 210 210 212 212 213 215 215 215 216 217 217 217 217 217 216 213 177 180 160 64 139 171 178 161 133 148 165 187 170 154 180 193 175 175 184 168 166 181 206 216 204 170 147 164 183 160 157 178 189 173 172 172 151 146 150 168 181 181 158 140 104 49 85 133 157 178 175 190 158 187 191 190 191 191 191 191 194 202 213 220 222 221 221 221 220 220 219 219 219 218 217 218 217 216 216 216 216 216 215 215 214 214 214 212 212 211 211 210 209 209 210 210 208 211 199 
175 186 185 186 188 188 189 190 190 192 192 193 194 195 196 197 198 199 199 200 200 201 202 203 203 204 205 205 207 207 207 207 209 209 210 211 210 212 212 213 213 215 216 215 217 217 216 217 217 218 213 179 193 200 142 153 177 182 174 173 149 154 159 173 183 183 177 176 187 187 175 161 186 210 215 209 176 154 167 180 186 181 182 184 182 173 171 171 174 181 186 191 186 168 150 118 112 158 175 192 177 182 184 169 195 193 195 197 199 200 202 207 218 227 231 231 225 222 221 220 221 219 218 217 218 218 218 217 216 217 215 214 215 216 215 213 213 213 212 211 210 211 211 210 209 210 208 208 211 198 
173 185 184 186 188 188 189 190 191 191 192 193 194 195 195 197 197 198 198 199 199 201 202 202 202 204 205 205 207 207 207 208 208 209 210 211 211 211 212 213 213 214 215 215 216 217 217 217 216 218 219 177 169 175 173 162 180 189 181 176 180 183 182 191 193 195 202 204 197 187 167 159 193 212 216 209 181 161 175 185 199 203 202 203 208 202 199 197 193 193 194 195 188 170 154 117 154 166 166 187 176 186 165 192 200 199 199 198 200 201 201 207 214 220 224 228 226 222 221 220 220 219 218 217 218 217 217 217 217 217 215 214 215 215 214 213 213 213 212 211 210 210 210 209 210 209 208 208 210 197 
173 186 184 186 188 188 189 190 191 191 191 193 194 195 194 197 196 197 199 200 199 200 202 202 203 204 205 205 207 207 207 208 208 210 210 210 211 211 213 213 213 213 214 215 215 217 216 216 216 217 221 208 168 171 157 157 181 197 198 189 197 202 200 204 204 208 209 201 195 180 164 163 186 206 215 205 182 168 169 184 201 208 206 205 208 213 209 205 206 206 205 199 190 171 152 117 145 148 191 181 180 160 172 193 191 191 190 191 193 193 195 206 216 223 225 226 227 222 221 219 218 219 218 217 217 217 216 217 217 216 215 214 215 214 213 212 213 212 210 210 210 209 209 209 210 208 208 208 209 197 
173 187 185 186 188 188 189 190 190 192 192 193 193 194 195 197 197 198 199 199 199 200 200 202 203 203 203 205 205 206 207 208 209 209 209 210 211 212 212 212 212 213 214 215 216 216 217 216 217 217 216 220 171 178 184 155 173 195 202 200 203 209 208 209 207 209 203 200 194 177 162 171 192 208 216 208 194 177 167 183 198 206 206 212 210 213 215 211 213 210 206 196 184 165 147 109 157 197 194 180 177 172 194 190 190 189 189 189 192 191 199 211 219 221 225 225 226 222 220 220 219 218 218 218 218 217 217 216 216 215 215 214 213 213 213 213 212 211 210 210 210 209 210 210 208 209 208 207 209 197 
173 187 185 186 188 188 189 190 190 192 193 193 192 194 196 196 196 198 199 199 199 200 200 202 203 203 203 204 205 206 207 207 208 208 209 210 210 212 212 212 212 213 214 215 214 215 216 217 216 216 216 222 195 169 186 163 163 184 197 199 206 204 207 208 206 204 203 205 202 176 156 182 198 213 218 211 199 179 152 180 201 208 206 211 214 211 211 209 205 203 197 189 174 157 135 115 180 191 185 176 177 189 185 182 190 186 183 183 184 188 204 215 220 217 222 223 225 224 220 220 220 218 217 217 217 217 217 216 215 215 215 213 212 212 212 212 211 211 212 210 209 210 210 210 208 209 208 207 208 195 
173 186 184 186 188 187 188 189 190 191 191 192 193 194 195 195 196 197 199 199 199 201 202 201 203 203 204 204 205 206 206 206 208 208 209 210 209 210 211 211 211 212 214 214 215 216 215 216 216 216 218 219 218 185 179 171 157 172 183 192 198 205 203 203 204 201 204 211 204 164 166 182 199 216 219 209 189 182 162 156 200 212 211 209 209 208 205 203 202 197 185 174 159 143 118 151 200 179 171 174 190 187 184 183 183 184 185 187 190 200 212 218 222 217 222 222 224 226 221 220 220 218 218 217 216 216 217 216 214 214 215 213 213 212 212 212 211 210 211 209 210 211 209 208 208 208 208 208 209 196 
173 186 185 186 188 188 189 189 189 190 191 192 193 194 195 195 196 197 198 199 200 201 202 201 203 202 203 205 205 206 207 207 208 208 209 210 209 210 211 212 212 212 214 214 214 214 215 217 216 216 217 219 218 218 209 195 159 170 174 187 194 197 203 200 202 204 210 212 183 164 176 184 204 226 223 210 204 193 174 160 186 216 210 207 203 203 203 202 195 186 179 172 157 151 120 106 134 172 180 185 186 189 189 188 189 189 188 188 198 206 214 218 218 216 222 224 225 226 222 221 220 218 217 217 216 216 216 215 214 214 215 213 212 213 213 212 211 210 211 210 210 210 209 208 208 208 207 207 208 196 
172 186 184 185 186 187 188 189 189 191 192 192 192 193 194 195 196 197 197 198 199 201 202 201 203 203 203 205 205 206 207 207 207 208 209 210 210 209 210 211 212 212 214 214 214 214 215 216 217 217 217 217 218 218 222 219 163 171 178 187 192 193 201 200 201 209 209 211 180 163 157 161 195 217 215 199 166 157 159 153 188 213 204 205 204 205 204 197 186 180 179 173 163 149 98 38 153 188 186 184 188 187 189 188 188 189 195 204 213 218 215 218 221 218 222 223 225 226 222 220 220 218 217 216 217 217 215 214 215 215 214 213 213 213 212 211 211 210 210 210 209 209 209 208 208 208 206 207 207 195 
172 185 184 185 186 187 188 188 190 191 191 192 193 193 195 196 196 196 198 198 200 200 201 202 202 203 203 205 205 206 207 207 208 208 209 210 209 210 210 210 211 212 213 215 215 215 215 215 216 217 217 217 217 218 218 224 172 168 180 184 189 192 197 196 199 208 208 207 194 165 145 140 156 167 168 149 124 123 150 184 207 207 202 205 207 202 200 193 186 184 184 179 159 134 130 170 191 183 186 185 190 186 189 191 198 207 216 218 219 221 216 216 219 214 218 219 218 223 224 220 219 217 217 217 216 216 215 215 214 213 213 213 212 211 211 212 211 209 210 210 209 209 209 209 208 207 206 206 208 196 
173 185 184 185 187 188 188 188 189 190 191 192 193 193 194 196 196 196 197 198 200 199 200 202 201 203 203 205 205 206 207 207 209 208 209 210 209 210 210 210 212 212 213 214 214 214 214 216 217 216 217 217 217 218 218 224 185 152 182 185 187 185 190 200 202 202 198 193 189 174 154 160 161 158 151 146 154 146 170 200 199 199 204 206 208 204 198 194 185 183 177 167 147 130 172 199 185 182 185 183 187 186 184 198 208 217 221 222 219 217 218 215 218 213 216 219 218 220 226 221 218 217 217 217 215 216 216 215 214 213 212 213 212 211 211 211 210 209 210 210 209 208 208 209 208 207 206 206 207 195 
171 185 183 185 186 187 187 188 189 189 191 192 192 193 194 195 197 197 197 198 200 199 200 201 203 203 203 205 205 204 205 207 208 208 208 209 210 210 209 210 212 212 213 213 213 214 214 216 217 216 216 216 216 215 215 222 212 148 170 181 185 190 193 196 190 190 186 181 178 169 162 179 181 169 172 175 176 173 176 184 191 192 195 190 197 204 196 191 182 174 170 157 143 138 178 191 186 184 186 183 184 186 187 198 204 210 215 216 217 216 217 214 217 214 217 217 217 217 224 222 219 218 217 216 215 216 216 214 213 214 213 213 212 210 211 210 209 210 210 208 208 207 208 208 207 207 207 205 206 194 
172 186 183 185 186 186 187 188 189 189 191 192 193 194 195 195 195 196 197 198 200 200 200 201 202 203 203 204 205 205 206 207 208 208 208 208 209 209 210 210 211 211 213 213 213 215 215 215 216 217 214 214 221 228 227 215 181 141 161 171 174 185 187 182 174 180 175 171 168 173 188 189 180 181 183 187 197 192 195 188 181 190 189 182 179 188 196 182 174 172 163 147 144 138 183 190 188 188 185 182 184 186 189 201 208 216 219 218 219 218 218 215 214 214 218 219 219 218 221 225 219 218 217 216 215 216 215 214 213 213 213 212 211 210 210 210 209 209 208 208 208 208 207 207 205 206 206 204 207 193 
172 184 184 184 186 186 187 188 188 190 190 191 192 193 194 196 195 196 197 199 200 200 200 201 201 202 203 203 204 205 206 207 207 208 208 208 208 209 210 211 210 211 213 213 214 215 215 215 214 215 226 226 203 159 111 74 45 111 162 161 166 179 177 173 181 191 192 184 187 194 199 198 201 200 197 196 199 204 206 198 199 206 199 185 177 177 184 175 166 161 156 152 139 154 195 184 187 184 185 180 187 188 193 204 211 219 221 221 222 221 221 217 216 215 216 218 217 218 222 223 219 216 217 216 215 215 214 213 212 213 211 212 211 209 209 210 209 207 208 208 208 209 207 206 205 205 205 203 206 193 
172 185 184 185 186 186 187 188 190 190 190 191 192 193 194 195 195 197 198 198 199 200 200 200 201 202 202 203 204 205 206 206 206 207 208 208 208 209 210 210 210 211 212 213 212 214 215 212 218 225 178 111 64 45 44 51 51 78 154 160 157 173 174 173 184 173 156 152 146 143 143 151 157 174 168 155 148 140 145 157 168 169 178 182 177 174 178 169 154 156 158 152 133 91 161 194 184 183 186 181 185 187 195 206 212 218 220 219 218 220 222 222 219 218 217 218 218 219 221 224 220 217 216 215 214 214 213 213 212 212 213 211 210 209 209 210 209 208 208 208 208 207 207 206 206 205 204 202 205 193 
171 184 183 185 186 186 187 187 188 190 190 191 192 192 193 194 194 196 197 196 197 198 200 200 201 202 202 204 203 203 205 206 206 207 208 209 208 209 209 209 209 210 211 212 212 214 211 219 204 115 56 49 53 54 55 54 54 53 129 163 152 156 179 175 179 171 165 138 132 134 130 137 135 134 132 135 126 125 134 133 138 160 169 167 168 173 175 156 148 158 151 148 101 9 52 154 187 175 180 181 182 189 197 205 211 215 215 216 217 217 218 219 220 219 217 220 219 220 221 223 220 217 216 215 214 214 213 213 212 210 210 210 209 209 209 209 208 207 208 208 207 206 207 205 205 205 204 202 205 191 
171 184 182 184 185 186 187 188 187 189 189 189 192 193 191 193 194 195 196 198 198 198 199 199 201 202 202 202 202 204 204 204 206 207 208 208 207 208 209 208 209 210 209 210 212 212 219 194 84 55 64 59 59 58 59 59 52 54 120 152 163 146 168 180 184 188 188 176 166 170 173 176 177 176 177 184 179 178 182 181 193 192 179 172 173 173 166 150 151 150 143 131 61 14 68 74 146 185 175 176 179 187 199 206 211 215 216 217 217 216 218 219 219 217 217 220 220 220 222 223 222 217 217 216 214 214 214 213 211 210 209 209 209 209 209 208 208 208 207 206 206 206 204 204 205 204 203 201 204 192 
171 184 182 183 185 186 187 187 187 189 189 189 191 191 193 193 194 195 196 197 197 197 198 199 200 201 202 202 203 204 205 204 206 205 206 207 206 208 209 209 209 209 209 210 210 213 209 97 65 73 71 65 66 65 60 54 57 52 134 140 153 151 145 166 175 181 179 172 167 164 160 157 158 159 160 159 162 170 170 170 174 174 171 170 169 161 149 143 138 141 128 111 56 37 70 76 85 160 187 178 181 184 190 201 210 216 217 217 217 216 216 218 217 217 217 219 218 221 223 221 221 217 216 215 214 212 212 211 210 209 209 210 209 209 209 208 208 208 207 206 206 206 204 205 205 203 202 201 204 191 
171 184 182 182 184 185 186 187 187 189 189 190 191 191 193 194 194 194 195 197 197 198 199 198 198 201 201 201 202 203 203 203 205 205 206 207 206 207 207 207 207 207 208 208 207 223 149 63 77 82 74 63 56 58 64 86 59 61 141 160 136 149 140 152 169 172 171 173 171 160 157 155 156 151 156 158 160 165 170 171 173 173 168 166 166 157 143 136 134 114 98 130 63 50 66 72 81 98 147 171 186 185 181 185 196 207 212 213 214 213 213 216 216 217 218 218 218 220 221 221 219 216 214 214 212 212 211 210 210 209 208 208 208 208 208 208 208 208 205 206 205 204 205 204 203 202 201 201 203 190 
171 183 182 183 184 185 186 186 187 188 189 190 190 191 192 193 193 194 195 196 196 198 198 197 198 200 199 200 201 203 203 203 204 205 206 206 206 206 205 205 206 211 215 218 214 205 102 67 83 68 58 75 93 109 134 84 80 134 141 169 169 132 133 147 163 166 174 178 191 195 189 182 182 181 180 181 183 191 196 193 186 179 169 167 161 150 139 128 107 93 136 156 48 50 70 71 82 87 110 118 153 165 179 184 192 205 213 216 217 214 213 211 213 211 213 214 212 211 211 211 212 213 212 212 211 212 210 210 210 208 208 207 207 207 207 207 206 207 204 204 204 204 204 202 202 202 202 201 203 190 
169 183 182 182 183 184 185 186 186 188 189 189 189 190 191 192 192 192 194 196 196 198 198 197 198 199 200 201 201 202 202 202 203 203 202 204 205 208 213 215 214 201 175 147 126 114 84 75 81 74 127 140 146 161 110 75 158 137 145 169 180 174 123 123 154 163 173 177 183 180 175 183 190 192 197 196 197 186 190 187 182 176 169 156 145 130 116 90 95 153 167 145 50 43 79 72 80 85 111 98 96 83 78 99 119 143 165 182 196 202 203 199 197 196 192 191 189 188 194 203 210 211 210 210 210 209 209 210 209 207 208 208 206 206 206 206 206 204 205 204 205 204 202 202 202 202 201 199 202 190 
169 182 180 182 183 183 184 186 187 188 188 189 189 189 191 193 192 192 194 195 196 196 197 196 197 199 199 200 199 200 200 200 203 206 210 212 206 193 173 144 111 83 73 84 87 101 82 81 79 116 159 158 164 155 71 152 161 136 152 172 176 188 182 123 121 155 165 167 172 167 177 192 195 200 199 202 200 189 183 173 170 161 153 143 118 97 81 112 171 174 159 137 80 57 76 71 77 84 101 99 89 100 72 53 59 59 65 72 86 107 124 143 162 177 188 199 206 207 207 207 208 211 212 210 209 210 210 210 208 206 207 208 208 207 206 205 205 205 205 204 204 203 202 201 202 201 200 200 202 190 
168 181 181 181 182 183 184 185 185 187 186 187 188 190 189 190 191 192 193 193 194 195 197 197 197 198 198 198 197 200 206 210 204 185 158 129 103 87 75 65 60 65 88 87 85 100 85 80 81 118 166 165 182 114 110 171 164 141 154 172 178 183 189 190 138 119 138 147 157 167 169 186 185 185 184 188 185 178 173 161 153 140 121 93 84 95 145 188 182 172 160 131 96 81 62 78 77 84 91 96 89 89 101 71 59 62 62 61 59 58 57 58 63 70 79 96 125 156 186 209 218 218 212 210 211 208 208 208 208 208 207 207 207 207 205 204 204 203 203 202 201 202 201 201 201 200 199 198 200 190 
168 181 180 181 182 182 183 184 184 186 186 187 189 190 190 190 191 192 193 193 194 195 196 196 197 196 198 204 208 197 170 134 100 77 65 66 65 66 68 63 57 77 83 77 78 93 82 76 82 101 171 169 181 103 144 173 169 132 156 171 181 184 186 187 188 159 128 116 129 139 155 156 164 169 168 171 164 155 136 125 112 90 86 102 125 158 184 184 178 169 155 129 103 91 57 81 79 88 95 98 93 90 86 100 68 57 60 62 64 63 66 66 62 58 56 57 54 56 69 98 136 171 197 207 206 208 209 208 208 208 206 205 205 205 204 203 203 202 202 201 202 202 200 200 200 199 198 197 199 188 
168 181 180 180 181 182 183 184 185 185 186 187 188 189 190 190 191 191 192 193 193 193 194 192 196 205 199 169 126 85 64 59 62 67 68 66 60 53 51 52 57 83 73 72 76 88 82 76 78 87 151 180 185 107 147 178 168 129 155 167 177 181 186 191 188 183 172 154 140 123 121 124 122 119 118 114 108 101 98 110 110 123 144 144 150 170 181 181 176 164 149 131 112 100 48 79 74 83 92 102 88 87 81 85 94 56 58 60 60 62 61 64 61 60 61 58 58 60 61 60 60 75 98 142 181 187 191 199 205 206 206 204 204 204 204 203 202 201 202 200 200 200 200 199 199 199 198 196 199 187 
168 181 179 179 181 183 183 184 185 185 186 187 188 188 190 191 191 191 191 193 193 192 191 201 190 142 92 62 54 60 63 60 57 56 56 56 54 52 53 50 64 81 70 69 70 83 82 83 78 77 120 178 190 113 133 186 168 148 153 163 172 181 188 193 194 188 177 168 170 168 156 148 158 167 163 167 178 183 177 157 147 149 143 147 166 184 186 177 167 158 148 137 124 104 54 77 75 82 87 100 84 83 86 85 92 85 52 60 58 58 58 60 62 62 63 59 58 58 59 60 62 65 66 71 105 163 175 173 183 192 201 204 204 202 202 202 201 201 201 200 199 199 199 199 199 199 199 197 198 187 
168 180 178 180 181 181 183 182 182 183 185 187 188 188 188 189 191 191 190 191 190 193 200 145 79 56 59 59 55 50 49 51 51 50 54 55 52 52 53 47 64 75 66 64 71 81 71 76 78 76 87 159 196 144 97 192 165 157 156 162 168 179 181 191 195 190 186 173 167 168 169 163 160 176 196 205 204 175 142 134 148 146 153 171 185 183 182 174 167 157 150 140 133 96 63 75 78 82 84 102 90 82 84 85 82 98 69 54 60 58 56 55 59 60 60 58 59 56 56 57 58 61 64 66 65 90 159 176 168 170 177 191 201 202 201 202 201 200 200 200 200 200 200 199 199 199 198 196 198 186 
167 179 178 179 180 181 182 182 182 184 184 185 186 186 186 187 189 190 189 188 193 191 108 56 61 58 53 49 50 50 48 50 52 55 55 55 52 52 50 48 71 75 66 66 69 81 78 72 76 75 74 114 188 189 79 164 168 160 159 161 166 173 183 192 194 196 194 185 174 168 171 169 164 153 149 155 145 134 144 157 156 155 171 185 188 183 176 169 161 154 153 142 139 88 72 72 75 84 80 93 99 82 81 83 83 83 97 59 56 60 54 55 55 57 59 57 57 55 57 55 56 58 59 60 62 66 83 155 176 167 168 171 186 197 201 200 200 199 200 200 199 198 198 197 197 197 196 195 197 186 
166 179 178 178 180 180 179 182 182 183 184 185 186 185 187 187 188 189 187 192 189 95 58 67 53 49 49 50 51 51 48 50 54 56 54 55 53 53 54 49 76 68 66 64 66 76 86 72 74 76 73 81 118 203 132 97 184 162 163 161 163 168 179 189 195 195 198 195 185 171 173 172 171 170 165 153 153 160 163 160 158 169 184 187 187 184 175 161 156 159 155 156 130 86 75 70 82 85 77 85 101 80 78 79 84 82 86 87 55 59 57 54 52 53 59 59 58 55 56 58 56 54 55 58 60 63 67 80 153 172 166 168 168 183 195 200 201 200 199 199 198 197 197 197 195 196 195 193 195 184 
166 178 177 178 179 180 180 180 181 182 183 185 186 185 186 187 189 188 187 192 103 59 64 51 51 49 49 53 51 47 48 51 55 53 52 53 51 49 52 53 77 68 68 66 65 70 81 77 72 75 73 79 77 115 193 87 150 170 161 164 162 162 170 179 191 195 196 193 187 177 167 166 168 171 172 172 174 170 166 158 168 186 190 188 182 176 166 158 157 160 161 160 90 88 66 72 75 80 80 83 98 83 79 78 82 85 77 83 79 54 59 54 52 53 57 59 60 55 55 57 54 55 53 55 57 57 70 67 80 156 170 166 167 168 179 193 199 199 198 198 197 197 197 197 196 196 195 194 195 183 
166 178 176 177 178 178 180 180 181 182 182 183 185 186 185 187 186 185 195 123 59 63 53 49 52 49 49 54 54 47 46 49 53 51 50 51 51 50 49 57 80 73 72 70 66 69 77 86 75 75 74 75 82 70 116 146 91 177 165 168 166 160 159 170 184 190 192 194 191 184 174 168 162 164 167 165 162 162 162 172 187 189 188 182 173 167 162 164 167 168 175 105 69 105 75 65 83 83 82 82 94 82 77 80 78 79 82 83 85 56 58 56 52 49 50 55 60 56 53 54 54 55 54 53 55 54 61 69 63 83 163 166 166 165 167 178 191 197 197 197 196 196 196 196 196 195 194 193 194 183 
164 177 176 176 177 178 178 179 181 181 181 182 183 184 185 184 183 193 157 70 62 56 47 49 49 48 51 54 55 47 46 49 51 49 50 50 50 50 49 58 81 72 72 69 69 71 77 78 71 77 78 77 71 84 61 108 84 136 188 169 172 161 155 159 172 186 194 195 193 188 179 176 168 162 163 164 165 172 180 184 187 186 186 178 173 166 166 173 172 182 134 67 89 102 88 55 84 83 81 80 89 81 77 80 83 81 77 65 54 58 56 57 54 50 49 51 58 56 51 51 52 51 54 54 53 53 54 60 63 55 98 174 163 164 163 166 178 191 197 196 196 195 195 195 195 193 192 192 193 182 
166 179 177 177 178 179 180 180 181 181 182 184 185 185 185 185 185 187 95 63 61 52 48 50 48 51 50 54 55 47 44 49 51 51 49 49 51 50 50 56 79 70 70 70 70 69 73 70 65 70 79 77 72 77 75 53 78 79 190 193 187 175 163 159 159 176 192 196 193 189 185 180 174 171 171 171 175 178 182 184 185 188 186 176 170 174 180 179 181 158 83 89 73 88 99 74 72 92 84 88 99 95 81 74 66 55 51 56 58 55 57 55 53 49 48 48 56 60 51 51 51 50 50 51 53 51 52 56 59 64 54 117 170 163 164 165 167 180 192 197 197 195 195 195 194 193 193 192 194 182 
158 169 169 170 170 170 171 172 172 173 174 176 175 176 177 176 183 151 66 60 52 49 46 49 46 49 48 48 51 45 45 50 48 48 47 48 48 48 48 51 75 68 67 65 64 67 67 66 65 66 69 74 74 73 76 56 56 89 127 180 194 189 175 164 153 159 176 187 186 176 177 175 173 170 171 170 175 175 179 181 180 180 174 168 170 176 179 184 178 93 79 86 51 61 85 79 73 54 57 58 59 55 48 41 41 47 55 56 58 53 55 55 52 49 45 44 52 62 53 49 50 48 49 50 49 47 49 54 56 59 52 52 122 162 155 157 155 163 177 187 187 186 186 185 185 185 184 183 185 176 
