P2
150 65
255
107 114 122 128 125 123 126 103 92 113 106 103 98 94 91 87 84 80 68 70 77 79 78 88 91 80 76 79 56 79 153 160 160 161 161 161 162 162 161 161 163 162 163 164 164 165 161 171 182 140 118 139 133 107 98 87 81 95 118 170 114 58 68 65 62 62 60 51 53 44 48 54 52 68 33 34 35 43 101 35 37 26 29 40 35 30 61 73 64 36 35 34 34 33 35 40 46 44 45 52 47 46 44 45 75 74 76 73 113 157 158 172 103 65 74 60 124 171 162 119 185 105 50 48 50 52 67 90 111 43 92 109 132 180 75 116 79 149 181 162 174 121 138 176 147 149 165 163 80 66 
124 123 131 147 144 143 143 118 103 129 119 115 110 105 101 99 94 88 72 78 86 88 88 101 104 91 87 93 72 82 163 168 168 169 168 168 169 169 168 168 170 169 169 171 171 171 168 179 188 151 147 155 148 143 144 146 152 171 173 179 107 62 54 38 38 36 31 29 40 36 38 44 52 73 37 30 34 46 117 35 35 94 116 61 40 33 64 76 66 36 36 36 32 41 39 32 45 50 33 85 85 42 50 53 82 77 77 75 126 164 172 181 94 70 78 66 129 132 133 64 100 149 87 39 79 140 83 68 65 89 68 87 133 244 203 186 167 129 130 168 167 144 177 136 111 158 117 75 57 137 
109 140 143 144 150 151 154 129 116 144 131 127 121 116 110 108 102 97 80 82 81 80 87 67 68 74 69 65 52 68 165 167 167 167 168 167 167 167 167 167 168 170 169 169 170 171 167 176 184 179 186 187 196 196 189 180 161 163 157 152 97 65 41 20 28 30 27 48 62 70 39 31 58 71 36 46 40 49 124 24 116 199 176 77 37 34 61 77 65 35 38 38 27 74 91 111 43 48 46 91 128 52 46 54 80 75 76 74 130 161 175 173 89 72 75 68 144 96 132 139 117 112 57 40 58 90 85 46 62 86 21 109 191 156 180 126 183 189 176 136 80 188 162 62 55 62 51 52 58 73 
52 81 98 84 88 91 94 89 79 110 102 95 94 90 87 84 81 83 68 63 59 42 38 32 32 34 39 52 40 56 167 166 167 167 168 167 167 168 169 169 169 170 170 170 171 171 167 178 169 143 160 147 146 138 133 138 135 139 150 159 92 64 41 18 25 40 46 33 69 80 63 40 67 73 31 82 127 100 121 43 133 149 164 92 32 33 63 76 63 36 41 34 50 63 128 194 64 38 62 90 118 56 44 55 78 74 75 76 135 163 177 161 80 75 72 76 135 90 147 193 144 161 75 32 68 105 41 45 53 37 35 71 69 124 230 194 148 147 198 99 69 197 133 65 51 70 74 55 48 43 
61 68 62 65 66 68 70 61 49 67 70 69 70 69 68 65 67 66 47 37 35 36 40 37 28 30 26 49 45 62 167 167 168 168 167 167 168 169 170 170 170 170 171 172 172 171 166 178 164 145 166 157 152 166 160 155 151 157 177 183 89 66 34 19 37 49 76 68 65 121 147 80 58 55 34 44 65 62 61 86 43 34 133 89 31 33 63 78 60 40 45 36 62 57 152 207 93 37 53 47 56 51 50 57 79 74 75 76 137 163 182 154 70 74 70 88 115 112 123 129 147 197 91 61 68 91 59 42 37 37 45 29 44 104 127 131 84 98 101 141 111 108 93 52 62 72 56 37 42 48 
74 85 92 88 69 74 76 70 70 79 77 76 75 75 73 69 83 91 76 61 46 56 68 71 57 48 52 72 62 82 166 168 168 168 168 168 168 169 169 170 170 169 169 170 169 170 167 172 182 186 191 173 144 137 139 133 133 134 172 175 83 62 46 47 45 52 52 57 48 65 57 42 41 40 44 49 51 48 49 46 55 53 52 54 52 45 61 70 61 47 47 43 39 49 111 178 57 45 55 61 68 56 51 62 79 74 76 78 139 161 181 143 68 76 69 93 148 129 135 109 171 82 51 61 60 80 68 81 72 62 140 136 169 185 171 195 217 226 211 200 186 141 126 91 103 58 64 36 62 125 
115 99 88 89 65 69 71 67 67 73 75 77 75 74 73 68 82 101 106 114 92 92 104 115 109 94 88 85 77 90 166 168 168 168 168 168 168 168 169 169 169 169 169 169 169 170 166 174 183 183 185 181 169 172 178 174 165 164 167 163 78 59 61 59 40 39 36 36 39 37 39 44 50 57 61 64 67 74 75 74 65 63 66 53 58 63 60 49 54 46 44 38 43 26 106 171 45 62 84 75 73 54 43 75 81 74 74 84 145 166 182 126 65 77 65 103 179 210 200 180 172 59 71 74 35 54 67 131 96 151 147 152 149 128 124 110 101 103 190 176 140 204 113 75 103 113 189 45 98 179 
143 135 116 118 75 78 79 79 82 85 78 71 73 74 71 66 85 110 120 121 112 107 116 124 123 110 106 105 84 98 167 167 167 168 167 167 168 167 168 168 168 169 171 171 171 170 164 175 185 184 183 183 198 197 176 160 160 158 133 88 50 41 35 32 31 28 28 31 34 39 44 50 56 64 67 66 69 74 79 72 55 40 38 33 31 38 40 32 28 31 39 41 41 40 59 68 54 78 96 78 55 49 47 99 80 72 74 85 145 167 180 108 67 76 67 114 175 204 200 195 138 117 154 172 97 43 119 112 154 149 144 123 81 83 68 83 82 64 70 162 106 91 82 96 90 123 162 103 62 105 
104 112 108 124 103 92 102 93 81 94 91 81 86 85 82 80 93 97 104 102 98 94 95 93 92 88 89 98 82 94 168 167 167 168 167 167 168 167 168 169 168 168 170 170 170 171 164 176 186 183 187 194 145 87 77 90 106 96 48 29 30 37 35 31 30 29 28 31 36 42 50 54 66 76 70 67 71 79 78 70 58 44 34 30 26 20 20 22 23 23 29 40 42 48 34 35 64 72 70 67 61 58 55 69 76 73 72 85 149 167 178 94 67 76 63 132 217 213 174 159 177 117 161 146 222 160 127 120 189 234 194 82 84 79 72 82 85 92 67 73 78 142 195 151 174 131 131 177 141 78 
93 99 97 104 101 97 101 81 59 82 84 86 84 83 81 78 75 67 42 57 61 49 54 71 55 38 61 66 59 87 170 167 167 167 167 167 168 167 168 168 168 170 170 170 169 172 167 177 184 185 175 84 75 139 177 153 81 31 39 47 41 36 30 27 27 28 33 39 43 48 52 55 62 75 86 73 59 48 45 36 35 36 33 33 29 26 23 22 22 28 41 46 46 45 46 54 66 69 73 69 60 63 51 65 75 73 70 84 152 172 173 83 68 75 61 154 217 219 170 159 180 155 143 147 186 166 170 151 119 129 86 48 46 40 37 35 37 35 31 52 78 115 179 227 167 156 120 90 115 40 
69 74 73 74 72 78 104 88 80 94 92 91 89 87 85 83 82 77 70 74 74 71 75 89 85 60 71 84 75 89 169 166 166 166 166 167 167 167 168 168 168 169 168 168 168 170 164 175 184 185 68 105 195 189 120 53 38 47 46 39 33 28 25 25 25 27 31 35 38 47 52 57 62 73 85 95 91 75 55 44 37 33 27 24 24 23 22 23 26 37 61 50 61 50 42 66 71 71 97 89 63 56 53 64 72 71 66 88 154 173 170 76 71 73 61 178 197 163 185 222 184 146 152 128 123 175 142 76 116 109 44 72 85 115 122 109 131 133 95 47 44 54 57 97 184 155 56 41 34 33 
63 67 66 68 63 69 104 85 78 98 94 94 93 90 89 88 86 80 73 79 74 78 83 94 96 76 76 73 72 103 168 165 165 165 166 165 167 167 168 168 168 168 168 168 168 170 161 169 182 176 147 189 177 94 36 44 49 39 32 27 22 22 23 25 28 29 30 33 38 43 49 52 56 65 69 82 93 81 61 44 33 30 25 25 26 26 25 27 29 44 62 46 48 60 43 27 41 58 59 60 64 66 69 68 69 70 64 92 153 172 159 68 71 68 72 145 81 56 130 149 195 115 116 112 162 116 51 97 219 187 176 198 211 230 219 196 216 216 238 206 110 48 43 53 91 58 46 38 36 33 
64 69 67 67 64 70 101 100 91 91 91 93 77 60 82 82 85 76 62 79 74 76 72 62 52 41 49 42 34 108 173 168 169 170 170 170 170 170 170 169 169 168 167 167 167 172 166 172 173 161 155 128 80 34 47 41 41 36 28 24 22 21 22 23 25 28 32 36 43 44 48 48 52 54 61 67 77 94 83 59 43 35 28 26 24 26 31 40 44 48 61 50 47 51 43 30 26 36 56 58 59 63 68 69 70 70 67 92 158 175 147 63 73 67 85 124 50 85 130 149 192 122 107 121 131 56 94 215 226 230 229 228 223 178 189 201 221 222 203 194 176 137 58 37 36 37 38 39 37 31 
67 70 68 69 65 70 98 112 114 88 88 88 83 77 86 88 87 93 84 80 53 40 32 28 23 16 22 30 39 97 149 145 144 146 145 148 151 153 155 159 161 162 164 164 158 144 127 109 94 74 68 45 25 39 37 42 40 34 27 24 20 22 21 24 27 31 33 37 42 44 48 50 53 55 72 76 68 80 86 69 51 38 32 29 25 25 25 33 44 48 63 56 46 49 50 38 35 23 36 57 58 59 60 65 70 71 66 94 160 180 134 62 73 65 93 122 109 165 172 210 140 96 111 161 109 83 217 224 220 222 225 222 206 154 161 177 149 157 162 161 143 140 106 33 41 42 39 36 37 30 
65 69 69 68 66 73 97 113 129 104 102 100 96 89 75 88 106 91 92 110 94 72 77 87 64 55 82 82 70 98 146 159 156 154 152 151 150 145 141 140 136 136 138 133 125 106 73 43 35 48 51 30 33 33 40 36 31 25 23 21 24 25 27 31 36 35 40 39 42 46 47 54 64 68 71 73 68 54 53 55 53 44 35 31 30 34 37 38 43 53 76 65 47 49 58 41 36 36 23 44 55 59 60 62 66 70 64 98 159 179 123 62 73 63 100 173 97 114 172 188 107 107 116 137 76 164 211 219 226 230 199 143 105 125 110 106 129 173 222 206 165 133 126 50 37 37 37 33 32 32 
64 68 67 68 64 71 97 106 104 95 82 84 82 116 82 55 64 42 33 66 83 52 60 68 68 53 72 74 74 69 144 170 164 167 169 170 169 168 169 168 169 165 156 153 117 73 43 31 42 51 44 31 37 33 40 30 25 24 24 24 28 36 45 51 54 52 59 62 61 59 54 55 51 55 62 60 62 61 59 52 52 50 47 44 38 41 46 53 66 60 72 79 54 48 56 41 26 32 28 38 74 50 50 56 63 68 64 100 167 179 110 60 73 60 112 195 172 194 184 170 199 200 154 75 86 194 227 224 218 224 180 143 87 94 114 172 140 150 173 170 147 147 124 48 36 36 32 31 32 32 
63 66 68 68 66 70 101 74 17 26 18 14 25 116 74 50 53 53 52 50 48 48 55 65 71 59 75 76 69 63 145 167 162 165 165 165 164 164 164 163 163 157 160 122 53 47 38 34 37 36 24 27 36 35 39 40 37 39 41 39 43 49 60 67 70 74 78 75 66 69 76 77 76 83 91 94 104 112 107 96 96 94 90 80 60 69 72 74 76 75 69 75 65 51 54 48 31 29 25 29 93 93 57 50 61 66 63 99 165 178 96 62 72 59 124 190 188 217 152 141 215 181 124 93 130 206 221 230 172 158 152 153 97 91 163 167 160 216 166 174 161 189 185 42 32 41 35 32 34 28 
64 68 69 68 68 73 100 76 24 26 44 47 46 69 50 45 47 45 47 47 51 51 58 65 74 69 79 79 82 85 150 165 163 165 165 165 165 162 165 164 163 159 142 59 43 37 33 30 33 19 14 23 39 46 55 57 55 59 58 59 62 66 73 79 84 91 105 116 127 130 124 118 120 127 126 131 143 132 121 124 132 114 108 111 89 74 90 91 98 78 76 66 64 57 52 49 35 24 25 25 57 74 64 55 60 67 63 108 166 173 86 64 72 58 140 202 182 188 195 200 170 167 185 209 128 174 222 158 139 143 147 161 115 99 128 153 208 204 119 197 185 165 195 116 33 29 34 33 39 32 
64 69 69 69 67 71 99 75 16 19 57 41 13 17 28 26 18 16 14 32 48 54 62 70 74 70 82 71 56 63 147 166 164 165 164 164 163 162 162 161 159 155 94 49 42 31 28 27 25 13 9 22 46 54 57 53 53 58 59 63 64 72 84 95 118 147 173 179 168 159 161 160 158 162 168 176 176 167 153 152 177 141 127 140 116 88 95 97 103 96 73 72 68 69 54 55 40 29 20 21 31 48 46 55 60 64 62 113 167 166 78 65 69 63 128 134 209 205 215 216 162 202 212 193 133 208 121 132 140 107 88 91 115 111 166 131 179 100 54 149 153 42 42 92 62 94 58 29 34 34 
63 68 67 68 67 71 95 86 92 74 54 43 7 23 42 16 10 15 13 32 35 51 69 82 83 75 84 72 55 67 148 164 162 164 165 165 163 163 163 161 156 153 85 47 35 25 24 26 26 10 12 31 41 51 53 57 63 66 80 90 98 107 121 147 170 174 164 155 158 178 183 175 176 192 205 204 193 171 173 186 179 173 143 156 148 114 104 107 102 109 90 73 81 74 57 59 53 28 23 17 28 44 48 56 58 63 59 114 170 160 71 66 67 72 112 62 165 184 219 187 137 204 170 122 170 100 64 89 77 83 104 63 39 140 92 111 84 51 112 132 103 50 36 49 62 87 40 33 36 33 
53 70 68 68 67 72 96 85 79 60 57 44 12 19 12 12 13 15 14 27 27 35 53 74 85 76 74 71 101 121 157 163 163 163 166 166 164 164 165 163 164 155 87 38 40 31 22 27 17 7 22 25 35 49 57 71 79 100 115 119 127 140 155 159 140 137 151 172 187 187 176 185 206 217 216 210 191 184 192 189 188 177 152 163 162 140 114 127 122 113 104 81 72 63 49 36 40 26 24 23 23 43 50 58 60 61 57 116 175 155 64 68 67 76 111 50 150 208 209 183 175 195 170 149 82 39 63 57 70 75 158 146 33 46 56 84 51 68 162 238 113 40 48 45 30 32 39 42 52 48 
49 69 68 66 65 73 92 92 120 78 62 37 6 13 15 15 15 11 7 44 64 66 76 90 95 82 93 86 91 96 152 165 163 163 164 166 165 162 162 157 157 136 83 42 38 35 30 24 8 11 20 21 29 39 56 75 101 119 127 138 152 154 138 132 146 166 175 182 178 171 187 202 212 218 217 204 195 186 192 196 197 182 162 156 166 166 122 135 147 136 130 105 72 57 45 30 25 24 22 21 21 39 54 57 59 60 57 118 170 144 60 68 64 82 108 38 107 190 185 186 184 151 221 173 38 39 70 188 112 64 135 167 27 39 59 74 66 61 92 140 68 31 39 32 36 39 35 41 46 52 
46 63 65 66 68 72 92 85 105 113 95 70 45 46 48 47 44 42 38 89 111 105 106 105 98 78 62 56 67 52 149 165 162 163 163 162 163 163 162 155 145 116 85 57 25 23 30 25 10 16 18 20 21 33 63 99 120 133 147 156 145 137 143 164 173 174 175 174 178 190 200 202 213 219 213 208 203 187 197 197 199 185 171 162 162 177 138 137 157 145 150 145 106 81 44 29 18 21 20 21 25 39 52 57 60 60 56 119 176 134 61 69 62 89 104 28 123 196 191 175 199 177 170 71 41 35 157 240 131 69 96 88 31 39 44 78 73 66 68 79 101 28 49 36 35 33 33 33 32 33 
44 58 65 67 68 73 95 74 27 32 46 71 85 88 89 87 81 81 83 81 79 82 86 86 86 81 71 61 55 71 153 161 160 162 162 164 163 160 158 150 135 118 101 70 26 17 15 20 12 17 14 16 17 36 76 102 126 141 146 133 143 162 170 171 172 176 179 188 196 199 204 209 213 215 216 220 206 199 202 201 203 187 179 185 162 177 157 134 166 152 144 148 119 96 80 29 21 18 18 23 23 40 75 61 58 61 55 126 174 121 59 69 59 97 82 47 178 187 191 146 141 96 67 36 36 46 204 175 103 130 154 49 30 31 30 44 53 70 76 82 96 46 46 30 32 31 31 37 36 35 
41 56 65 66 66 72 95 73 31 26 18 13 12 15 18 16 11 9 10 9 4 7 17 26 30 28 30 45 36 50 152 161 160 162 162 164 161 156 152 146 141 134 101 66 25 17 17 14 16 16 12 17 18 40 73 103 132 140 134 157 173 173 175 178 178 183 191 196 199 202 209 210 213 209 217 217 207 210 211 206 206 187 185 194 187 169 189 134 169 163 138 142 132 102 100 55 19 18 20 24 24 34 72 59 56 59 55 122 175 108 58 69 58 104 76 65 123 141 178 108 40 47 41 46 24 61 184 89 91 142 81 49 46 26 29 27 44 63 72 97 70 44 40 34 36 29 42 49 40 46 
39 54 63 65 66 71 93 72 30 28 27 28 24 23 24 29 30 24 22 20 16 16 24 33 35 31 32 49 40 56 156 159 160 161 161 162 160 159 159 152 140 124 94 52 24 24 17 12 14 13 16 17 20 44 81 117 133 138 159 175 171 182 190 194 194 194 193 197 199 204 215 217 215 217 223 220 216 223 216 206 208 194 203 209 206 189 175 158 142 176 138 142 136 121 98 96 47 20 20 21 24 23 47 58 58 58 55 120 176 103 58 69 57 108 71 33 56 83 73 41 37 35 36 57 23 83 121 83 77 73 44 41 47 29 26 24 42 66 63 67 86 35 36 41 39 36 35 42 72 47 
43 54 60 62 65 72 90 73 48 30 32 33 33 27 26 30 28 28 32 28 20 23 28 33 37 34 33 52 40 60 158 158 159 161 161 161 160 159 158 148 140 98 65 38 41 26 13 21 18 12 17 19 21 50 99 123 131 140 150 146 138 134 137 148 161 176 195 200 197 199 209 216 215 222 223 217 217 217 211 208 210 189 160 140 135 140 128 132 121 135 127 121 126 127 109 93 67 24 17 19 26 59 59 55 58 58 57 125 173 93 57 69 56 115 57 29 83 65 45 31 27 35 42 23 23 78 80 72 73 59 24 26 29 27 22 24 47 52 81 88 107 78 19 42 56 36 30 30 41 31 
48 53 61 63 65 71 90 70 74 47 30 32 30 27 23 23 23 25 21 26 27 23 26 34 38 34 35 53 41 65 161 158 159 160 161 161 161 158 155 140 118 90 56 42 45 28 14 43 32 14 17 22 19 57 112 124 119 116 118 122 127 130 131 119 114 104 114 146 168 178 185 193 202 210 206 198 190 185 181 175 150 120 130 148 166 178 177 168 144 117 133 114 119 120 120 113 77 27 19 15 31 123 108 53 60 56 62 140 171 85 59 68 59 120 52 35 96 62 55 44 96 127 68 59 31 82 97 74 86 54 105 51 21 23 22 22 44 116 149 100 95 83 52 60 65 45 33 32 65 62 
56 49 60 64 64 70 91 68 43 74 34 33 32 32 32 30 26 22 19 22 23 27 32 35 37 33 34 53 41 73 160 158 159 161 160 161 159 157 149 136 122 83 46 49 43 40 30 45 32 18 18 20 19 70 126 127 114 123 136 148 163 164 167 185 187 166 139 130 139 151 163 175 190 207 205 188 174 167 163 160 156 163 177 185 175 165 148 150 160 140 124 129 139 132 125 123 98 34 20 23 20 91 137 71 53 55 57 133 169 81 60 67 62 117 63 59 44 41 100 120 180 137 137 149 28 81 122 76 93 60 57 36 27 24 25 20 35 71 61 72 110 81 37 24 24 33 33 35 40 32 
60 49 58 62 63 69 90 70 34 52 65 27 31 30 28 27 27 22 20 16 20 16 23 40 73 74 74 80 78 96 157 158 158 159 160 161 159 158 149 141 113 77 48 47 54 67 47 40 30 29 27 20 25 84 136 140 136 136 141 125 100 113 110 65 75 82 119 136 142 144 151 170 184 207 202 180 171 161 155 153 144 137 90 47 45 64 134 109 93 121 136 118 122 145 140 125 107 51 31 33 37 93 148 89 45 57 55 125 162 73 60 65 62 136 68 22 49 45 81 74 129 165 162 104 30 57 94 86 71 48 20 22 22 27 20 16 23 31 46 86 107 93 116 111 18 43 43 31 27 18 
60 46 57 60 62 68 89 66 15 26 49 44 8 13 11 11 8 6 11 9 14 12 20 33 68 85 78 71 64 79 157 157 158 160 161 162 161 157 155 146 107 69 48 52 67 69 62 46 36 39 51 44 35 95 141 152 137 120 101 73 85 157 120 13 31 15 118 142 118 132 137 166 183 211 208 179 167 145 145 135 120 186 108 23 31 45 175 169 115 94 120 141 145 146 143 128 113 62 47 64 78 128 167 84 74 57 57 126 149 67 61 63 62 121 97 67 85 61 34 35 31 92 97 38 72 80 74 83 53 28 26 41 56 60 18 16 15 29 42 63 65 56 99 145 85 26 44 29 18 34 
61 42 54 60 62 67 88 65 17 33 23 65 28 12 20 17 13 12 11 8 12 12 11 13 53 85 74 70 59 79 160 157 159 160 160 161 160 158 157 155 119 78 55 54 60 73 79 51 47 63 76 73 56 109 152 171 165 149 130 126 139 148 156 112 92 125 167 149 133 157 139 159 187 215 213 182 163 145 165 147 139 181 192 142 116 151 177 159 158 146 151 172 186 181 150 127 115 69 58 107 110 159 135 72 79 52 63 136 153 63 62 62 62 59 69 80 87 88 90 89 81 70 73 60 47 87 69 76 44 15 23 29 29 24 32 23 14 23 37 54 53 50 44 51 111 31 29 25 18 67 
74 72 71 67 61 67 86 68 35 38 48 42 64 28 28 27 24 24 21 19 20 16 16 15 34 57 51 45 38 70 162 158 160 160 160 160 161 162 159 159 146 107 64 56 55 83 75 50 56 65 93 78 54 115 165 179 185 188 176 152 148 156 163 175 186 164 136 144 171 164 159 167 190 215 213 182 166 167 168 185 165 145 161 193 197 181 171 169 161 165 185 195 191 184 169 133 113 77 59 123 138 138 58 46 42 45 61 149 143 52 63 62 61 63 61 58 56 56 58 63 70 77 81 90 92 98 97 116 94 57 51 37 32 27 11 12 8 12 34 51 56 64 65 37 49 28 7 9 12 7 
70 80 86 86 73 65 86 70 52 58 51 42 58 65 39 40 36 34 32 31 30 25 25 22 37 58 50 47 36 71 163 158 159 160 161 161 161 160 160 159 158 147 95 91 69 86 62 85 76 75 93 91 54 113 166 179 188 192 191 183 164 150 153 151 149 151 159 183 184 171 172 174 196 216 208 179 168 181 176 194 204 187 170 167 171 176 178 177 186 198 202 202 197 186 168 142 107 70 70 105 152 72 42 60 67 74 98 154 144 85 58 62 61 63 63 62 62 62 61 60 59 58 56 56 56 58 62 65 75 83 88 89 101 96 73 63 48 36 49 45 50 48 55 33 62 33 11 16 12 13 
65 75 66 72 73 65 85 70 61 66 67 65 62 75 72 60 57 54 52 51 49 47 48 48 48 51 50 44 30 70 164 157 160 161 160 161 162 161 161 162 158 160 149 122 90 72 76 103 114 85 85 90 68 114 159 173 185 192 195 205 206 196 194 194 194 202 204 200 188 182 175 181 204 215 207 188 168 179 185 192 205 225 217 204 211 212 211 211 216 210 207 202 196 188 166 140 99 75 99 128 98 27 34 39 50 77 128 126 151 117 57 64 60 62 63 62 62 60 60 60 60 62 61 60 59 61 60 58 57 55 54 54 57 61 71 77 84 88 96 95 94 91 88 68 65 32 19 10 4 0 
66 65 56 56 53 68 82 82 82 80 82 79 77 84 90 90 88 75 68 67 65 65 66 68 67 57 54 50 45 80 164 158 161 162 161 161 161 161 161 161 162 161 153 136 117 105 136 133 134 114 102 77 78 110 149 168 180 186 190 199 207 211 210 210 211 211 211 197 179 182 186 195 208 215 205 192 178 185 191 189 198 216 223 223 228 231 225 223 218 211 203 195 190 180 161 136 87 83 143 110 34 31 33 35 26 25 33 44 54 43 52 62 66 64 60 57 57 58 59 60 60 60 61 59 59 61 60 59 60 61 59 61 61 57 54 53 52 53 53 60 65 71 77 86 90 90 89 83 72 58 
58 49 48 49 62 67 82 84 87 85 82 79 81 82 84 88 101 87 69 70 71 71 71 73 75 78 76 74 68 98 164 158 160 161 161 161 159 160 161 161 162 160 153 152 142 167 178 152 163 139 151 115 83 121 137 158 174 179 184 196 201 208 217 221 218 222 220 200 178 181 185 197 211 219 203 188 182 187 191 189 198 215 228 232 232 232 230 224 214 208 200 187 184 173 156 134 77 122 112 43 41 35 53 56 44 53 50 51 45 33 36 41 58 75 76 76 68 59 57 58 57 59 60 60 62 62 61 61 61 60 58 59 60 58 58 58 59 59 59 59 58 57 54 51 54 56 59 66 74 76 
55 57 43 53 60 66 82 76 66 70 68 71 77 79 83 91 84 64 66 67 67 69 70 72 75 80 80 78 70 103 163 158 160 160 160 160 160 160 160 161 162 162 157 152 156 150 145 133 159 161 164 152 127 137 128 151 168 178 186 194 202 211 222 226 227 225 215 197 169 163 181 201 225 217 200 186 168 167 173 178 199 217 221 224 235 233 227 225 218 205 193 187 182 168 154 126 88 107 56 52 42 42 50 47 51 98 96 165 109 57 46 34 32 47 64 75 86 95 92 84 78 67 57 53 51 51 54 58 60 61 60 58 59 59 59 59 58 57 59 59 58 58 59 60 60 60 57 56 56 50 
59 60 47 75 78 79 83 74 62 65 70 71 73 74 83 82 47 67 69 70 71 71 72 73 76 67 57 66 61 98 161 156 158 160 160 160 159 159 160 161 162 163 164 163 159 147 152 128 145 135 124 127 130 143 125 144 160 174 181 189 199 205 214 218 211 205 195 183 173 170 185 200 221 217 202 187 158 171 184 161 176 207 209 215 224 223 220 214 209 204 196 188 180 166 152 121 69 41 67 73 39 35 44 57 69 45 49 121 120 93 82 77 60 47 46 50 53 67 89 109 102 157 169 142 119 100 84 69 58 54 54 54 58 58 60 59 59 60 59 58 58 58 59 59 60 59 58 59 60 55 
52 56 70 82 85 85 86 82 79 80 71 65 71 68 64 45 67 73 72 72 71 71 74 76 82 67 56 67 62 100 161 155 157 158 158 159 158 159 160 161 161 161 162 163 158 151 151 141 156 140 132 121 117 123 127 141 152 168 180 188 191 196 200 199 195 186 188 186 194 185 183 191 213 222 198 178 174 189 204 179 166 206 206 211 216 213 212 204 195 197 193 185 172 161 147 115 67 55 52 57 37 35 36 50 50 36 46 77 112 84 125 77 136 87 57 72 63 54 56 107 106 162 178 195 187 186 180 163 144 125 105 89 72 60 53 53 53 56 57 59 60 59 60 59 60 60 60 60 61 55 
44 42 50 83 83 80 83 80 73 77 62 63 64 60 40 61 79 76 75 75 75 75 77 78 82 86 87 85 78 110 158 153 157 156 156 158 157 158 159 160 160 161 163 164 158 148 150 166 157 159 160 162 155 157 131 138 150 161 175 184 185 187 191 189 184 185 201 193 168 163 164 172 184 188 178 162 164 167 171 166 190 217 209 209 210 209 206 203 196 192 186 178 167 158 143 126 70 64 79 53 42 36 33 39 39 39 34 33 35 91 69 106 138 94 89 101 113 88 61 87 110 135 135 169 189 188 185 185 184 187 186 177 169 149 127 109 91 74 63 58 55 55 55 58 59 60 61 61 61 60 
66 43 34 88 91 93 99 93 82 89 63 52 58 48 45 81 80 81 81 80 81 80 80 80 80 82 83 86 78 112 156 152 156 156 155 157 156 157 157 160 161 161 161 162 155 153 196 182 164 175 171 172 159 164 137 139 150 157 169 176 179 183 183 178 181 196 202 201 187 169 165 171 167 164 160 160 167 167 174 188 205 214 214 212 205 202 199 197 193 186 181 173 164 158 147 119 55 64 84 65 45 34 34 34 37 35 52 64 56 48 54 76 49 76 70 111 87 103 83 85 115 184 193 194 200 197 193 188 185 185 186 185 191 197 191 193 189 174 158 139 116 93 83 68 60 57 56 55 58 55 
87 73 54 87 90 93 101 97 93 95 86 76 63 40 60 89 86 88 89 89 89 89 88 86 87 89 90 93 87 119 156 152 155 156 155 155 156 156 158 159 160 160 160 161 155 157 189 193 173 168 175 175 172 170 142 143 154 159 170 172 179 182 181 177 160 190 201 200 191 183 184 191 197 199 200 204 196 193 191 195 200 200 199 204 201 198 198 194 191 187 181 174 169 159 149 105 48 97 129 85 62 35 36 36 36 36 66 83 77 71 66 47 42 33 32 52 52 74 86 74 141 194 199 206 203 205 205 200 198 198 196 197 200 200 200 203 205 209 213 214 213 206 196 176 154 133 111 94 78 62 
56 59 63 77 81 82 86 85 84 81 83 67 54 39 70 91 88 90 90 90 89 89 90 91 93 92 92 94 89 121 155 152 154 156 156 156 156 156 158 157 159 160 160 162 156 152 149 124 173 186 167 179 194 199 174 140 159 160 169 182 186 185 184 181 174 180 190 195 198 194 193 197 204 206 202 204 197 197 200 201 201 196 188 184 188 194 199 198 196 191 184 179 169 156 147 99 50 66 181 170 95 33 40 35 38 37 69 83 83 81 80 83 83 74 61 33 35 39 44 56 137 199 203 208 205 206 207 207 206 203 203 209 172 187 181 206 210 213 210 211 215 217 219 225 221 221 217 207 193 173 
29 29 33 68 82 82 87 87 85 82 84 50 46 39 71 95 91 91 92 91 92 91 92 93 94 94 93 94 92 122 154 152 154 155 155 155 156 156 156 159 160 161 160 161 154 159 158 101 112 189 188 181 201 192 187 148 153 170 168 176 188 196 195 185 168 154 150 160 158 160 153 145 151 154 155 153 145 150 154 149 151 149 153 170 178 196 204 204 198 189 181 176 162 161 105 45 32 44 168 193 122 25 41 39 41 39 40 56 70 81 84 82 88 94 88 66 48 40 35 49 145 211 207 209 210 208 209 208 207 206 200 199 199 200 170 171 171 181 192 205 212 217 220 215 216 216 219 222 225 214 
68 75 78 77 75 77 75 75 77 75 63 51 48 65 99 101 100 98 98 98 99 99 99 99 98 98 98 101 97 126 154 152 151 154 154 155 156 156 156 159 159 160 160 161 156 161 159 110 100 133 182 194 197 191 184 178 146 168 169 168 178 193 206 196 181 176 164 146 117 106 114 120 126 134 130 135 132 122 115 118 131 153 173 183 193 203 208 202 195 184 180 166 160 136 39 33 37 32 148 191 163 38 43 40 40 39 50 42 36 44 54 75 65 68 82 84 65 45 40 42 145 214 210 212 213 214 212 212 208 213 172 137 201 203 206 208 197 175 181 176 172 183 181 207 208 214 219 214 219 212 
65 73 76 77 78 79 79 79 78 77 71 59 52 60 101 105 102 102 103 104 105 104 104 105 103 104 104 106 104 130 154 152 153 155 153 154 155 157 157 157 159 159 159 161 156 164 160 106 109 122 127 180 200 200 200 205 180 151 167 170 173 182 191 197 201 208 203 197 188 174 161 160 164 174 170 175 166 157 168 184 194 202 203 205 207 203 196 193 188 180 172 167 141 67 50 51 45 33 121 194 203 64 46 51 48 43 71 71 68 55 43 34 35 34 46 42 38 44 40 41 150 213 211 211 212 211 211 214 212 212 190 167 167 157 158 195 192 204 213 212 204 205 187 201 185 170 214 169 178 172 
73 79 78 79 80 79 79 78 79 79 74 66 58 50 88 104 101 100 102 102 103 105 105 107 107 109 108 110 110 134 153 151 153 152 153 155 155 155 156 157 158 158 159 161 156 168 161 105 111 131 122 170 203 199 199 204 193 179 160 164 170 172 181 189 196 201 206 201 197 200 196 193 184 174 174 179 187 194 195 194 198 205 206 207 203 194 192 185 179 171 166 133 67 52 61 51 48 32 97 203 227 94 35 50 51 57 76 79 73 71 73 70 54 46 38 37 37 40 39 37 160 218 212 214 214 211 211 207 201 207 209 212 209 203 183 178 168 163 168 189 199 164 190 214 217 212 217 207 201 177 
49 52 52 52 53 55 55 56 58 57 54 50 48 49 71 101 100 102 102 103 104 106 107 107 107 108 108 110 107 134 152 150 151 151 151 152 154 154 155 157 158 158 158 160 156 171 165 107 114 134 119 177 205 202 203 206 189 184 188 169 158 169 179 185 189 195 199 204 206 203 200 200 199 196 199 202 204 202 199 204 205 207 207 203 197 186 187 177 168 162 124 73 70 59 55 44 42 30 81 216 237 129 31 46 42 60 80 84 84 70 66 77 76 74 70 53 43 39 40 37 164 214 209 214 213 212 214 208 173 188 168 187 202 199 214 213 212 201 192 209 192 142 153 208 211 215 159 191 194 211 
27 28 28 31 29 27 28 28 28 27 27 25 32 49 49 99 100 101 102 105 106 107 108 109 109 110 111 111 112 135 151 150 150 151 152 152 152 153 156 157 157 158 158 159 156 172 166 108 115 131 125 182 204 198 203 207 190 168 202 214 176 149 167 179 186 190 196 205 212 213 209 204 207 215 220 217 218 216 214 216 217 209 202 197 193 185 174 168 156 128 82 76 69 59 57 44 40 32 58 215 236 142 31 46 39 62 80 86 73 70 80 69 79 76 76 78 67 42 41 41 174 214 211 210 209 210 210 215 214 205 186 184 190 167 182 202 208 214 216 215 211 216 208 196 205 215 151 143 138 173 
79 87 59 26 76 84 85 84 79 75 73 75 50 46 82 106 102 103 103 104 106 105 106 109 108 109 110 111 109 134 151 149 150 151 153 153 152 153 155 155 157 158 158 159 156 174 167 106 115 129 135 192 203 200 199 207 193 182 209 205 159 142 157 161 173 182 188 197 205 214 218 217 217 211 219 225 219 211 219 219 214 203 192 182 177 168 165 147 110 103 80 66 48 45 47 44 38 37 38 197 240 158 29 45 41 74 84 78 68 73 71 68 76 79 84 81 87 54 46 51 186 216 214 215 213 210 211 212 212 208 207 213 214 201 191 177 175 176 186 204 216 214 215 223 223 218 219 210 206 187 
91 100 78 20 85 107 109 109 107 107 106 111 71 43 91 106 103 104 104 105 106 105 105 107 109 107 110 108 107 134 150 148 150 151 152 151 153 154 155 155 156 157 159 160 156 175 165 104 123 116 103 193 209 207 207 202 180 158 150 131 123 152 165 168 161 165 180 190 196 202 208 214 219 211 216 222 218 215 213 209 203 190 175 166 161 153 127 100 121 134 65 39 54 49 42 40 35 38 23 172 239 184 40 43 42 53 71 74 79 74 70 71 70 83 78 85 68 49 52 54 191 216 212 213 212 213 213 213 215 202 199 202 201 205 209 213 210 199 181 194 182 172 203 173 207 215 219 218 224 219 
77 85 77 22 65 95 95 96 96 98 98 102 76 40 80 104 100 104 105 106 107 106 106 107 107 109 109 109 109 134 150 148 149 150 150 151 152 153 154 156 158 157 156 154 153 176 162 101 118 140 169 192 182 169 156 146 139 137 140 134 132 155 168 177 180 173 165 168 175 184 193 193 205 215 218 219 214 209 203 196 188 170 152 140 125 114 122 152 160 131 76 45 33 24 26 39 42 41 19 144 237 205 56 40 47 65 45 44 54 61 72 70 77 80 69 79 52 49 48 72 204 215 213 213 213 212 210 210 214 204 222 221 216 208 201 200 203 209 216 216 198 206 214 183 179 197 189 167 217 166 
70 79 81 22 54 93 92 93 94 96 99 103 82 40 73 106 103 104 105 108 107 107 110 108 109 110 109 109 108 133 148 147 149 150 151 153 152 153 153 152 151 155 167 171 173 188 174 129 135 157 158 158 159 162 163 164 164 159 153 138 143 161 170 179 183 186 187 177 167 164 165 168 170 172 176 176 174 171 161 151 139 131 128 130 144 163 178 169 149 126 100 109 84 54 30 27 28 33 25 123 233 223 85 33 50 84 73 76 65 47 40 53 69 79 75 74 48 51 40 93 208 209 211 211 214 215 214 213 212 204 222 223 224 224 224 220 216 209 205 208 213 214 215 222 220 218 211 198 210 176 
69 75 58 17 59 87 87 90 92 92 94 97 87 43 66 106 105 106 106 107 105 107 106 106 108 108 107 107 106 135 149 148 146 146 146 145 148 154 157 168 200 205 183 187 185 180 178 181 185 185 187 189 189 188 182 178 171 160 152 146 152 163 171 180 186 189 190 192 188 184 179 176 172 167 163 160 157 156 154 152 153 161 166 172 177 178 171 161 145 130 112 111 125 130 120 100 75 61 64 108 230 238 131 27 60 80 76 80 86 75 67 54 41 50 70 83 59 46 37 119 212 206 210 209 212 212 212 214 210 208 225 222 222 221 222 227 212 200 202 194 204 217 208 205 210 212 216 222 222 218 
37 38 24 41 72 74 77 79 79 81 84 92 90 43 59 101 104 105 104 103 104 104 104 103 102 103 105 104 96 128 143 147 159 172 182 193 199 211 218 226 239 238 190 185 196 196 197 199 199 203 202 200 196 194 188 181 171 165 156 154 160 166 173 180 186 188 192 194 193 191 193 194 192 193 193 190 187 186 185 183 180 176 171 174 177 176 170 158 144 134 123 118 126 131 136 145 146 137 116 101 158 200 167 24 58 82 64 74 78 70 73 80 68 64 48 49 53 47 41 142 210 206 207 208 213 214 212 211 205 210 229 223 221 221 226 200 185 181 180 176 172 186 236 229 223 217 211 208 211 202 
37 41 49 56 63 68 70 70 71 74 78 82 62 40 56 91 97 96 98 97 98 99 99 100 102 101 95 98 118 165 192 206 215 222 222 222 223 223 225 226 230 238 238 204 198 206 205 206 206 205 204 202 198 193 189 184 178 169 164 164 166 168 175 182 187 192 194 197 194 192 194 195 197 198 198 195 193 190 187 184 180 176 173 177 179 176 167 154 143 138 131 129 134 138 142 150 154 155 154 149 134 132 135 88 72 75 75 82 70 73 63 61 68 72 58 39 48 42 52 164 211 209 208 207 212 215 213 214 205 215 229 225 221 222 218 173 209 198 181 182 170 151 153 231 234 232 234 231 229 212 
41 45 41 36 38 41 43 42 41 41 45 45 44 63 54 81 94 96 98 98 99 100 101 99 96 110 145 190 217 224 223 223 221 221 222 224 226 226 227 228 229 232 237 236 212 201 205 205 206 204 203 201 198 197 191 187 182 176 173 172 172 172 172 180 189 193 194 197 196 192 191 193 196 196 194 193 191 188 185 182 179 179 180 183 181 172 157 151 148 145 141 139 136 140 148 153 156 160 159 157 161 157 156 159 150 134 137 152 160 158 170 162 156 162 125 60 32 40 67 175 206 207 209 207 208 214 213 216 204 218 227 226 222 225 207 180 220 206 187 184 160 156 111 115 235 229 231 231 236 223 
33 37 39 40 42 47 47 50 53 55 60 67 73 74 54 73 91 93 98 97 98 97 89 109 164 205 223 224 220 220 222 223 225 225 227 227 229 230 230 230 231 232 230 236 239 223 207 208 206 203 201 199 198 196 197 193 188 184 181 179 177 177 174 177 184 191 195 195 197 198 198 198 195 193 193 193 191 188 188 188 186 186 186 184 178 166 155 156 152 154 153 146 143 144 145 154 157 161 161 163 163 164 165 164 166 168 167 160 162 164 165 188 219 229 227 184 81 28 70 191 198 197 202 204 206 213 214 214 203 220 226 227 224 227 198 146 160 147 156 87 89 120 118 73 193 240 230 231 233 221 
51 56 56 57 61 65 66 65 67 68 69 73 73 73 56 67 89 90 94 96 93 101 155 208 224 221 219 221 222 223 224 225 226 226 228 229 230 231 231 231 231 231 233 232 234 240 235 218 210 207 207 204 200 195 195 192 192 192 190 186 182 182 178 178 182 185 190 194 196 200 200 201 202 198 199 199 196 195 194 191 190 188 183 178 168 158 158 161 158 162 158 152 151 150 148 155 157 158 160 162 164 168 171 174 177 182 186 189 188 185 197 218 223 216 208 213 216 161 89 157 203 210 204 202 203 205 212 215 206 223 225 225 225 225 216 127 119 101 152 136 164 136 143 91 120 243 227 231 233 221 
48 54 52 52 57 59 61 60 62 60 61 67 69 72 56 59 87 89 90 90 95 189 225 218 219 221 222 223 224 225 226 226 228 227 228 229 231 232 233 232 232 232 234 235 231 232 237 241 233 219 212 212 210 206 199 194 189 188 192 193 192 189 186 179 179 182 185 189 193 195 195 197 198 196 194 194 194 192 190 189 189 187 182 174 163 161 167 168 169 169 165 160 154 153 153 152 155 158 161 163 170 175 180 184 190 192 193 196 207 220 226 222 216 217 219 216 211 219 210 175 157 179 204 205 203 206 208 208 207 226 225 225 225 222 230 179 168 186 172 162 192 178 155 126 157 240 228 229 232 220 
53 59 56 58 64 67 69 69 68 69 68 67 71 69 49 72 90 89 91 88 161 212 218 219 222 223 224 223 225 226 227 228 228 229 231 229 231 234 232 232 232 232 233 234 235 234 231 232 236 238 234 225 216 211 209 206 201 191 185 187 190 190 190 186 182 182 183 186 190 192 193 194 195 195 194 194 194 193 194 193 188 185 182 170 166 172 175 177 176 171 166 163 161 158 158 159 160 163 166 167 175 183 188 192 189 192 205 219 227 223 218 217 221 220 217 216 219 216 212 214 203 163 155 197 204 201 207 204 208 225 223 224 223 223 222 224 191 176 163 160 162 169 169 141 212 235 229 229 232 220 
54 60 58 61 63 64 66 68 70 67 67 67 65 53 54 83 89 94 92 123 197 207 221 222 224 224 225 225 225 225 227 229 228 230 230 231 231 233 233 233 233 233 234 234 233 235 236 234 230 230 234 238 238 232 225 218 212 207 200 194 190 185 185 186 186 185 184 188 193 195 198 200 198 200 199 201 201 201 200 198 192 185 178 172 174 178 183 181 173 172 173 171 175 172 172 172 172 171 164 168 177 184 189 197 209 221 228 225 219 218 220 220 220 220 219 219 220 219 219 215 211 211 177 144 185 205 199 196 206 222 219 223 226 225 227 227 219 167 139 143 127 111 167 170 229 229 230 230 234 221 
57 63 65 66 66 69 73 73 77 80 84 83 84 87 93 97 103 105 105 176 203 218 220 225 227 226 227 228 228 229 229 231 231 232 233 233 233 234 235 236 236 236 237 236 236 237 237 239 238 237 232 231 233 237 240 239 235 231 225 218 209 202 196 193 191 190 190 194 199 204 206 207 209 210 209 210 211 212 210 204 196 190 184 181 183 187 186 186 185 187 187 187 187 184 180 180 178 174 174 183 195 210 220 228 229 224 222 222 223 223 221 222 223 223 223 221 222 224 221 220 217 212 213 180 135 185 207 199 207 221 218 213 184 188 184 183 171 154 146 133 130 151 151 133 212 240 231 231 235 222 
84 91 90 93 95 98 99 100 100 98 102 103 100 102 99 98 103 99 133 190 200 211 212 215 215 215 218 218 219 219 221 222 222 222 223 224 224 224 225 225 227 226 226 226 225 227 227 228 228 230 229 228 226 222 220 221 225 226 228 228 227 223 218 212 205 198 194 191 193 195 198 199 201 205 206 207 208 207 205 199 191 187 183 178 179 185 185 188 189 189 186 185 183 184 187 191 195 201 211 217 221 223 219 214 211 211 214 215 215 213 214 215 216 215 213 212 214 214 215 214 212 209 203 203 160 130 186 189 197 210 213 173 147 170 153 154 142 161 160 178 173 186 155 107 148 181 219 221 224 212 
