P2
150 65
255
27 26 25 25 24 24 24 23 26 33 48 56 55 22 18 20 21 25 16 18 23 20 154 242 237 146 25 39 35 35 35 36 36 37 37 37 38 37 39 39 40 41 41 39 41 42 41 41 41 41 42 42 43 43 43 44 43 43 44 44 43 43 43 43 43 43 43 44 43 42 42 42 42 42 40 43 43 43 41 41 42 40 28 40 64 36 33 34 36 35 54 79 48 38 40 44 44 42 47 93 92 96 72 14 74 78 77 78 68 64 78 75 73 73 74 72 74 73 72 71 71 71 70 68 68 69 67 68 66 66 66 67 67 66 66 65 65 64 64 64 64 64 63 63 63 63 62 62 62 60 
28 30 29 27 26 26 25 26 27 36 50 58 60 28 20 21 23 27 19 20 23 16 107 210 214 161 8 29 41 40 39 41 40 40 40 42 42 42 43 44 45 46 45 45 46 45 46 46 47 46 47 46 46 46 47 46 46 46 48 48 47 48 47 46 47 47 47 46 45 45 46 46 45 46 45 46 46 46 45 44 45 42 30 43 68 38 34 37 39 37 57 84 52 41 43 48 45 43 49 96 98 102 77 14 79 82 81 83 73 69 81 79 79 77 77 77 78 77 76 75 75 75 74 73 72 72 71 72 70 70 70 69 69 70 69 70 68 69 68 68 68 68 69 68 68 68 69 69 69 67 
29 31 30 28 27 28 24 23 26 33 49 59 60 31 19 22 24 29 20 20 23 18 70 160 169 130 6 10 20 39 42 41 41 41 42 43 44 44 46 46 47 48 47 47 46 47 49 48 48 48 49 47 48 48 48 48 47 46 48 47 47 47 46 47 47 47 46 48 48 46 48 48 46 48 47 47 47 47 47 44 45 43 31 42 70 39 35 37 39 36 57 85 53 41 44 47 46 43 51 96 98 102 78 14 78 82 81 84 73 70 83 78 79 77 77 76 77 76 76 75 75 75 74 73 73 71 71 71 71 70 68 68 70 69 68 68 68 67 67 67 66 66 66 67 67 68 68 67 68 66 
30 31 30 29 27 26 26 25 27 34 48 58 60 36 21 27 22 31 21 18 23 19 55 140 153 118 7 13 7 14 38 42 42 43 43 44 44 44 45 47 45 47 48 47 48 48 49 48 47 48 49 48 48 47 48 50 49 48 50 48 48 49 48 47 47 49 47 48 47 45 47 46 46 47 46 47 47 47 46 46 46 44 33 43 71 40 35 38 40 37 58 86 53 41 44 48 48 47 51 97 98 103 80 15 79 82 81 85 75 71 82 79 79 79 77 77 78 76 76 76 76 75 74 74 73 72 72 71 71 71 70 69 70 69 68 69 67 67 67 66 65 65 65 64 65 65 65 64 64 64 
30 31 28 28 27 26 26 27 27 34 46 58 62 38 20 27 21 32 22 18 22 24 25 72 115 96 7 9 10 6 32 40 41 42 43 44 44 44 44 46 46 46 47 49 48 46 46 47 48 48 46 46 46 46 47 47 47 47 48 46 46 47 47 45 46 47 47 46 46 45 47 45 45 47 48 47 47 47 48 46 46 45 32 43 71 40 36 38 40 38 58 88 55 41 44 50 50 45 51 98 99 104 80 15 80 84 81 83 74 71 83 80 79 79 79 77 78 77 77 77 75 75 74 73 74 73 72 71 70 71 71 70 69 69 69 68 67 68 67 66 67 67 66 64 65 64 64 63 62 60 
30 31 30 30 29 27 26 25 26 34 47 59 63 44 20 29 21 35 25 19 24 23 20 20 47 38 7 9 10 6 31 23 38 43 44 44 44 45 47 46 46 47 47 47 47 47 46 47 48 48 46 47 48 48 48 50 49 49 49 49 49 48 49 50 50 52 52 49 44 39 38 40 43 48 45 45 47 48 45 44 48 48 34 45 75 42 37 39 40 39 57 89 56 41 45 49 49 45 50 99 101 104 81 16 80 85 82 84 75 72 84 81 80 80 79 76 79 78 77 77 76 75 74 75 74 73 73 72 71 72 70 70 70 71 70 69 69 70 69 69 69 70 70 69 70 71 71 72 73 70 
30 32 31 30 29 27 26 25 27 35 47 58 63 51 24 30 20 38 27 19 26 23 25 6 0 2 7 10 10 6 31 17 23 45 44 45 46 46 48 47 47 46 47 47 47 47 47 47 48 48 47 48 48 48 53 55 55 56 55 55 54 54 54 51 45 38 31 19 15 14 11 15 16 24 22 23 25 17 11 12 15 20 18 28 54 44 39 41 42 39 56 88 56 41 44 50 51 48 51 99 101 104 83 15 81 85 84 86 78 75 84 82 81 81 80 78 80 79 77 77 78 76 75 76 74 74 75 74 73 74 74 74 73 74 72 72 73 72 73 73 73 74 74 74 75 74 74 76 77 74 
31 33 31 30 29 28 28 28 27 32 45 57 63 53 26 36 20 38 32 19 26 22 25 7 7 6 3 6 10 4 28 21 6 33 46 44 46 46 45 46 47 46 46 47 47 46 48 47 46 47 46 48 48 49 58 47 33 32 32 36 33 24 19 15 8 7 6 6 12 17 15 18 16 13 12 12 9 7 8 9 5 5 7 6 5 14 23 31 41 42 57 92 59 44 45 49 51 47 50 98 102 105 85 15 80 87 85 87 79 76 85 83 82 81 81 80 81 80 79 79 78 79 78 77 77 78 77 77 77 77 77 77 76 74 74 74 74 74 74 74 75 75 74 74 74 75 76 75 77 73 
31 33 31 31 29 28 28 28 28 31 44 57 62 55 30 46 21 39 39 20 27 23 27 18 15 15 16 18 19 17 25 25 18 25 44 44 45 45 47 47 47 47 45 47 48 47 48 47 48 47 47 49 49 50 57 49 28 24 20 16 12 12 12 8 8 7 10 15 21 36 24 14 12 12 13 13 16 12 10 8 7 9 8 9 10 9 7 9 15 22 42 68 47 39 42 48 50 47 51 100 103 105 88 15 81 89 87 88 80 77 87 84 83 83 82 82 81 79 80 80 79 80 79 78 78 78 78 79 77 76 76 77 76 75 76 76 75 76 76 75 75 75 75 76 76 77 77 76 77 72 
31 33 32 32 29 28 28 30 28 31 48 55 61 57 32 52 23 43 42 19 30 24 27 25 21 22 28 27 25 26 26 26 26 26 39 45 46 46 47 48 47 48 47 47 47 48 48 48 48 49 48 47 53 53 58 41 15 12 9 10 9 11 13 12 12 8 11 28 52 52 23 18 21 17 19 22 21 17 12 12 12 13 11 10 9 10 11 13 11 10 15 22 24 25 27 33 38 42 49 99 102 106 88 17 82 89 86 89 80 76 88 85 85 84 83 83 83 81 82 82 81 81 79 80 79 79 79 78 76 78 78 77 76 76 76 75 74 76 76 76 76 76 76 75 76 77 77 76 78 72 
31 34 33 31 30 29 29 29 29 31 44 54 61 62 37 62 28 47 49 21 33 23 25 23 18 19 23 24 23 23 25 25 24 24 32 46 45 46 47 47 47 47 47 47 47 47 47 49 49 49 49 49 58 61 57 25 12 15 11 10 9 13 8 11 22 20 15 45 89 62 24 31 26 24 28 31 25 24 21 19 14 13 17 13 12 11 13 12 15 15 13 16 22 23 21 24 25 29 34 72 89 102 88 16 82 90 87 89 80 79 89 85 85 84 85 84 83 83 83 82 81 81 80 80 80 80 78 79 77 78 78 77 77 76 77 76 76 76 76 77 75 76 76 76 77 77 77 76 79 72 
31 34 33 32 31 30 29 29 31 33 35 53 62 64 42 57 30 55 64 20 29 21 25 22 19 19 21 23 24 23 25 25 23 23 28 45 46 46 48 47 48 47 46 47 47 47 46 48 49 50 43 61 75 51 33 16 18 18 16 16 15 14 18 20 25 44 35 74 102 50 48 37 36 34 36 37 35 30 30 27 23 25 28 25 28 22 19 16 13 12 14 14 17 27 22 23 28 25 26 45 62 81 79 17 80 91 88 90 80 79 88 85 85 85 83 82 83 82 83 83 81 80 81 80 79 80 79 78 78 77 77 77 77 77 76 77 77 77 77 76 75 76 77 77 77 78 78 78 79 70 
32 33 34 33 32 31 29 29 32 33 34 52 63 65 50 59 36 44 69 22 34 26 24 23 18 20 22 24 25 24 24 24 23 24 24 42 46 45 46 48 47 47 46 46 46 47 47 48 49 47 66 110 38 22 17 17 19 20 22 23 24 31 32 42 50 58 64 82 107 71 61 49 44 47 49 47 49 50 42 43 49 44 40 33 29 25 19 21 21 20 15 12 13 15 22 17 22 25 25 37 42 57 62 15 72 89 88 90 80 79 88 87 87 85 83 82 84 83 83 83 81 82 81 80 80 81 79 78 79 78 78 78 78 78 78 78 77 77 77 77 77 77 76 76 76 78 78 78 78 70 
32 35 33 33 32 31 29 29 31 32 34 49 61 65 53 54 43 32 69 23 31 28 24 24 17 18 22 23 25 25 25 24 24 24 24 40 46 46 47 47 46 46 48 48 47 47 47 47 47 46 68 71 11 14 15 15 19 31 39 43 46 58 84 92 108 109 95 96 115 96 83 76 78 82 71 90 96 87 90 87 88 72 63 55 49 43 47 39 26 16 12 13 13 12 16 14 12 33 28 38 39 40 40 12 54 73 80 87 80 76 89 85 85 86 85 84 85 84 83 83 82 83 81 81 81 80 80 80 80 78 78 78 78 78 78 78 78 78 79 77 77 76 78 78 77 78 77 78 80 71 
30 35 33 34 32 30 28 29 31 32 34 48 62 64 50 49 47 27 61 25 30 29 25 25 18 19 22 22 23 25 25 22 23 24 22 38 48 47 47 47 48 49 48 47 46 48 48 48 47 42 26 14 19 23 28 39 46 56 70 87 98 100 111 119 122 127 137 139 133 119 126 108 114 124 142 146 147 137 135 135 134 122 124 112 93 85 70 54 42 30 22 19 15 14 14 13 5 41 51 36 40 40 34 12 35 54 65 76 77 77 88 86 85 86 85 86 86 83 83 83 81 82 83 82 81 80 81 81 79 79 80 80 79 77 78 79 78 78 78 77 78 77 80 78 78 78 78 79 81 70 
29 34 32 33 31 30 29 28 29 32 33 47 64 65 49 41 47 22 55 24 28 30 24 26 17 18 21 24 23 23 24 23 23 22 20 36 47 46 46 47 48 48 47 46 46 48 46 47 42 38 35 18 21 28 41 58 77 91 83 97 111 126 122 130 140 131 137 161 160 141 145 145 143 159 163 162 165 149 140 143 155 161 143 132 119 104 91 81 68 66 56 44 33 22 19 18 15 21 66 48 39 41 35 11 33 40 51 64 68 70 89 86 86 86 85 86 86 84 83 83 82 82 83 83 81 80 81 81 79 80 79 80 80 79 78 79 78 78 77 78 79 78 79 78 78 80 80 80 81 70 
32 34 33 32 31 29 29 29 28 29 35 48 62 64 50 32 39 22 52 28 24 27 24 26 17 18 20 22 22 23 23 23 24 22 21 33 47 46 47 48 48 48 48 47 48 47 48 47 45 52 32 14 34 51 62 72 84 98 114 137 148 149 154 167 165 166 164 154 150 154 154 161 164 164 166 164 160 160 166 157 161 162 153 152 122 101 90 75 69 71 75 60 56 39 20 16 11 16 42 66 44 41 36 12 33 39 40 51 56 64 87 86 86 86 86 85 86 84 83 84 83 82 83 81 81 82 82 81 79 79 79 79 79 79 78 79 78 80 78 78 80 78 78 78 79 79 79 80 81 70 
37 33 32 32 31 28 28 29 27 26 35 48 61 67 52 26 33 22 48 30 21 26 23 26 18 18 18 22 22 23 24 24 23 23 21 31 47 45 47 48 48 49 48 48 48 48 49 44 52 50 35 31 50 68 75 88 107 124 136 153 159 167 180 180 179 177 171 166 166 165 171 175 178 184 183 175 185 188 184 179 173 175 178 175 165 133 114 103 85 76 73 76 80 51 23 16 11 12 27 59 51 41 36 13 32 39 34 38 42 48 80 84 86 85 85 86 85 85 84 83 83 83 83 83 83 82 82 82 81 80 81 80 80 80 79 79 79 80 80 79 80 79 81 80 81 81 81 81 83 72 
40 33 33 30 31 30 28 27 27 27 32 46 61 66 53 22 33 20 43 28 22 25 24 27 18 18 18 21 23 22 23 23 23 23 21 31 47 46 46 48 49 50 48 48 48 47 47 50 49 52 36 20 40 69 86 103 122 134 148 158 169 177 182 186 186 185 190 196 194 192 189 192 189 193 190 194 194 192 189 189 185 182 182 177 176 160 137 134 119 96 82 84 82 51 22 16 10 13 21 50 55 44 36 13 32 38 35 34 32 43 69 78 84 85 85 86 86 86 85 85 84 85 84 83 84 82 83 80 81 81 81 80 80 81 80 79 79 79 79 80 80 80 81 80 81 81 81 80 82 75 
43 32 33 31 29 29 28 27 27 27 30 39 60 65 55 23 32 21 36 29 21 24 22 29 17 16 18 20 21 22 23 24 22 22 20 27 48 47 46 49 49 49 49 50 48 49 48 54 55 48 19 19 43 80 91 113 128 140 151 161 168 179 187 190 194 196 200 202 201 207 210 207 208 207 205 203 206 204 199 195 192 187 182 177 169 167 154 134 133 112 89 95 77 48 24 18 13 13 15 49 60 45 42 13 31 38 36 36 34 41 60 71 80 86 85 85 84 84 83 82 83 82 81 82 82 81 80 80 80 79 79 79 79 80 79 78 79 79 78 77 77 78 78 77 78 79 79 77 78 74 
46 30 33 31 30 29 27 27 25 25 30 37 59 66 56 22 33 23 30 27 20 23 22 26 17 16 18 20 20 21 21 22 22 21 21 27 46 47 47 49 48 49 50 48 47 50 46 61 67 35 12 22 49 81 101 118 130 143 152 163 173 182 188 194 194 199 204 207 217 219 220 218 219 217 219 215 208 206 200 197 195 191 183 177 170 164 158 142 128 126 107 97 88 59 30 18 13 18 8 49 68 44 41 15 31 38 36 37 35 37 53 66 77 84 84 85 84 85 83 82 82 81 82 82 81 81 81 81 80 80 79 80 80 79 79 78 79 78 79 79 77 79 77 76 78 78 78 79 79 73 
49 31 33 32 30 29 28 27 25 25 29 38 58 66 59 23 30 21 27 26 20 24 22 28 18 16 16 19 20 21 21 21 22 20 19 25 46 47 48 49 49 49 49 48 48 47 47 64 69 29 14 24 58 90 104 118 137 148 154 165 177 182 187 191 194 204 207 210 219 224 224 221 223 222 221 216 210 204 198 195 192 190 184 176 169 165 156 147 131 128 118 101 90 60 31 19 16 18 15 55 76 51 40 18 32 38 36 37 34 35 49 62 73 78 83 85 84 84 84 84 82 82 81 80 82 81 80 80 80 79 79 79 80 79 79 78 79 80 78 77 78 77 77 77 77 77 77 78 80 75 
52 32 33 32 29 28 29 27 25 25 28 39 55 66 62 23 28 22 25 26 20 21 22 27 18 16 16 20 22 21 21 21 19 20 21 23 44 48 48 48 49 48 48 48 49 45 47 62 55 20 13 25 55 88 105 123 145 153 158 165 176 183 187 189 196 201 204 211 219 223 224 223 221 217 219 216 209 207 204 196 192 189 184 175 170 160 154 149 144 132 116 111 85 63 34 20 17 18 19 56 74 73 41 17 31 39 36 37 34 35 49 60 72 80 84 85 86 85 84 83 83 84 82 83 83 81 82 82 80 80 81 81 81 80 80 79 80 81 79 79 80 80 80 79 79 79 79 78 80 75 
55 32 32 31 29 28 27 25 24 25 27 37 53 64 62 26 24 24 24 25 20 20 22 28 19 15 16 18 19 21 21 21 19 22 22 21 42 49 48 48 50 49 47 47 47 46 44 40 51 26 15 30 55 85 107 128 146 156 159 166 176 183 188 191 194 199 206 211 217 220 221 220 221 220 216 214 214 211 206 200 194 189 183 176 171 160 152 150 151 134 109 106 96 63 35 17 16 19 22 47 65 70 46 17 31 38 36 36 36 34 47 57 66 74 77 78 80 79 77 78 78 77 76 74 73 73 73 73 71 70 69 69 68 69 67 64 64 64 63 63 63 63 63 63 62 62 63 61 60 56 
57 33 32 32 30 29 27 24 25 25 26 34 52 64 62 27 22 23 23 26 20 19 22 27 19 14 16 18 18 19 21 21 20 21 20 19 41 48 48 49 49 49 48 48 48 37 29 37 58 33 21 38 61 90 115 133 147 156 162 168 178 187 192 195 198 200 204 209 215 217 215 216 221 219 216 216 213 209 206 201 197 191 186 179 173 166 158 152 147 131 109 99 85 57 33 23 21 20 26 38 51 54 48 28 18 20 20 23 25 26 31 40 49 55 61 65 65 65 68 70 70 68 69 67 66 66 65 63 63 62 60 59 58 58 57 56 56 56 55 54 55 55 54 57 57 57 58 56 55 52 
60 37 32 32 30 29 27 26 25 24 27 32 49 63 64 28 22 23 20 24 20 20 22 27 19 14 14 17 19 19 21 21 19 21 19 19 40 48 48 49 48 49 49 49 37 22 26 33 45 22 21 53 77 111 118 134 152 162 171 177 180 185 197 199 202 206 205 209 212 213 216 215 213 216 219 216 211 208 205 203 200 197 191 185 182 175 167 160 150 131 112 98 89 61 35 25 25 23 34 39 32 43 47 28 23 22 22 21 25 26 30 39 51 62 66 68 70 73 75 74 74 73 73 73 71 69 69 66 66 63 64 63 61 62 61 60 59 60 60 58 57 58 57 56 57 56 56 55 56 55 
61 39 30 33 31 30 28 27 26 25 27 32 47 63 65 32 20 24 21 25 21 20 21 25 19 14 15 17 19 19 19 20 21 19 20 18 37 50 48 48 48 48 51 41 19 22 19 18 22 19 36 57 95 115 120 128 128 122 122 127 138 154 170 176 188 196 204 207 206 207 210 211 210 213 211 210 206 206 202 197 192 181 175 168 161 160 151 144 140 131 114 99 94 77 41 24 24 20 23 40 37 31 41 39 23 25 27 24 24 25 27 33 46 57 65 67 73 73 74 71 71 74 74 73 73 71 70 68 66 66 63 63 61 61 61 60 60 59 60 58 57 57 57 56 55 54 53 54 55 53 
62 41 30 32 30 29 28 26 25 25 26 31 45 61 66 33 18 23 21 24 21 19 20 25 20 14 15 17 19 18 17 18 20 19 19 17 34 51 49 48 47 48 47 25 17 20 18 14 15 25 38 54 103 114 106 93 108 111 105 105 109 107 100 102 110 121 141 174 194 199 204 208 210 208 205 198 191 171 144 122 110 106 100 98 98 104 113 111 110 103 99 101 100 81 48 24 24 23 40 36 41 34 30 42 27 20 20 23 23 23 24 27 37 50 60 69 71 71 72 74 74 70 72 74 74 72 70 68 66 64 65 65 63 61 61 60 59 60 58 58 57 57 56 55 56 54 53 54 53 49 
64 43 29 31 29 28 27 26 25 26 25 29 43 62 66 39 17 24 21 23 20 19 20 26 21 13 14 15 18 19 18 17 17 17 19 17 32 47 47 48 48 49 40 24 17 19 21 14 20 33 29 63 108 121 110 118 136 148 166 179 186 183 177 170 161 152 147 155 176 189 197 205 205 200 195 184 172 157 144 136 143 145 152 167 170 165 155 137 120 111 103 105 107 85 51 30 31 45 47 51 43 48 48 41 32 29 26 26 29 32 33 35 42 55 63 69 74 76 72 42 48 69 71 75 76 74 71 69 68 58 42 66 63 61 61 60 59 58 57 56 57 57 56 55 54 54 54 53 51 48 
65 45 29 31 29 27 26 25 24 24 24 28 40 61 67 42 17 23 21 23 20 17 19 25 20 12 14 15 17 17 17 17 19 17 18 16 30 50 48 47 47 47 44 26 21 14 16 30 34 51 41 68 115 132 139 129 134 146 139 114 109 118 122 142 150 164 171 166 161 178 191 206 211 203 193 180 163 169 179 177 173 172 169 157 142 131 140 143 127 120 128 127 116 93 57 36 54 94 48 51 35 53 45 51 39 27 29 27 31 34 35 38 39 49 62 70 79 82 78 9 1 60 76 75 77 76 73 69 72 62 16 49 66 61 63 59 57 58 58 57 57 57 56 55 54 53 54 51 50 47 
61 48 29 31 29 27 26 25 24 24 24 27 37 60 66 44 16 22 20 23 21 18 19 25 21 10 12 14 16 15 15 17 19 17 19 16 26 49 47 47 48 50 49 31 22 13 36 49 35 92 60 75 121 138 154 145 112 86 64 93 83 25 27 43 126 151 145 158 157 164 190 204 217 205 188 150 152 164 153 145 131 77 54 35 53 76 66 80 98 119 152 146 124 96 68 44 66 90 48 76 25 42 55 37 47 33 29 32 32 35 39 42 44 49 58 69 41 42 58 13 17 74 81 82 85 81 77 80 66 21 13 27 69 62 56 63 68 63 63 63 63 63 64 64 63 62 62 60 59 54 
55 50 28 31 29 27 27 25 24 24 24 26 36 58 65 48 16 21 20 22 21 19 19 23 23 10 11 13 17 16 15 16 16 16 18 15 24 47 46 48 47 51 50 37 27 28 51 34 70 103 68 92 120 144 163 162 123 79 88 136 145 81 58 104 178 175 160 168 173 152 180 203 212 199 172 135 163 155 134 160 193 108 32 32 93 152 103 64 78 138 164 152 127 95 64 57 82 100 49 69 34 32 70 45 41 45 33 40 42 50 44 49 53 64 76 67 36 13 17 13 46 93 97 95 69 79 77 72 41 6 16 10 37 65 42 24 43 75 77 76 75 73 75 75 74 75 74 72 71 64 
50 54 29 31 29 27 27 25 24 24 24 25 34 56 65 52 16 21 21 21 21 19 19 23 24 11 11 13 16 16 16 15 15 15 16 15 24 47 49 48 49 48 54 44 34 41 33 36 100 110 90 95 119 144 157 151 146 136 134 136 141 150 170 182 175 182 194 187 167 154 176 200 207 196 164 146 161 182 188 179 179 180 131 117 128 122 113 100 135 160 160 151 125 92 59 71 106 144 62 52 38 34 65 40 40 41 31 35 40 51 46 50 52 59 65 64 66 17 10 11 16 27 32 26 7 15 24 13 9 13 15 12 22 59 67 23 7 35 54 63 75 80 76 76 76 75 74 72 72 68 
43 56 30 31 29 27 27 25 24 24 24 26 32 55 63 53 16 21 21 22 21 18 18 22 23 8 8 9 12 14 14 15 16 16 16 14 21 46 48 48 48 49 58 39 35 47 27 46 83 119 106 102 116 134 142 148 151 155 157 167 177 180 183 185 189 187 178 166 159 151 171 189 197 189 157 154 163 172 189 194 189 186 184 171 155 151 146 149 156 155 153 143 121 87 55 97 142 147 54 45 41 39 72 39 36 38 28 34 41 51 46 39 40 42 20 4 15 18 11 8 31 6 4 6 8 7 6 9 10 8 11 13 10 24 16 14 15 8 5 11 29 55 78 78 77 78 77 74 76 68 
38 58 30 30 29 27 26 24 23 24 24 25 29 51 62 56 18 19 21 22 22 17 18 21 25 20 18 18 22 21 21 16 15 16 15 15 21 45 47 46 45 51 50 44 32 40 21 38 61 123 129 117 110 129 137 147 152 160 165 170 172 174 175 179 178 176 168 163 156 150 168 187 194 184 151 161 169 174 181 193 194 189 186 183 182 175 172 167 158 150 147 136 112 81 54 119 158 118 27 47 47 42 69 49 41 36 30 32 33 36 25 4 9 6 2 4 4 6 10 9 16 9 9 6 2 7 12 10 8 6 8 8 11 23 17 14 12 12 12 13 23 15 37 77 81 77 76 74 77 68 
32 58 33 30 29 28 26 24 25 23 23 25 28 47 62 58 20 18 20 21 21 17 17 21 25 29 30 29 30 30 27 16 15 16 14 14 18 45 47 46 46 47 47 44 38 33 20 32 47 92 152 132 109 124 141 149 155 159 167 169 169 168 175 174 175 175 173 172 159 148 173 192 191 181 149 158 171 173 183 190 192 193 190 189 186 183 174 170 160 151 144 131 104 71 78 144 159 74 23 56 56 52 70 45 40 38 23 25 20 23 33 6 4 7 1 1 3 34 71 62 16 7 7 6 14 16 16 21 12 9 8 6 10 30 36 21 15 16 13 11 13 28 18 28 57 76 79 76 76 67 
27 58 34 31 30 28 26 26 25 23 23 24 27 47 62 60 21 18 20 21 21 17 18 23 23 14 15 14 11 12 10 12 12 14 14 13 15 42 48 48 48 48 47 48 56 38 18 36 50 40 111 142 117 118 141 150 156 160 168 170 170 172 181 179 184 181 182 172 147 153 175 187 186 180 159 142 163 179 187 193 194 191 191 187 189 182 177 169 161 154 143 129 97 65 99 137 100 32 40 41 45 58 55 42 32 39 21 17 11 15 42 34 20 20 27 18 21 53 79 70 8 7 5 8 19 9 10 11 8 9 11 8 11 15 15 28 15 10 14 6 6 11 14 11 11 28 56 77 80 64 
23 56 34 30 31 28 26 26 25 24 23 25 29 46 61 60 24 17 21 20 21 19 19 23 26 11 3 5 11 8 6 11 15 18 20 19 20 41 47 47 48 46 41 45 51 40 17 47 68 41 90 167 129 112 138 145 155 167 178 177 181 187 191 194 197 193 186 150 139 164 174 186 188 181 164 139 142 180 196 196 195 194 192 193 191 185 177 167 159 151 137 123 88 69 138 140 18 31 52 26 31 41 38 31 42 36 14 8 4 3 13 14 11 19 45 24 35 33 15 10 9 9 9 11 6 5 7 12 26 11 8 20 10 10 15 12 9 19 9 7 10 6 13 26 10 4 6 26 56 58 
18 53 37 29 30 28 26 25 25 24 24 24 26 42 61 60 28 15 21 21 20 20 18 20 25 14 6 7 10 18 21 23 25 25 26 26 27 42 47 46 48 35 39 44 45 45 32 50 65 49 67 144 139 109 133 146 157 173 181 182 187 198 206 200 194 192 171 146 152 164 182 199 193 184 170 152 139 153 196 203 200 201 201 196 191 188 179 171 159 145 130 113 77 81 138 85 15 41 43 26 25 40 27 33 48 29 10 16 12 3 1 3 1 4 12 6 6 36 46 33 17 7 11 10 9 6 10 9 9 10 6 9 8 8 11 12 6 23 6 0 6 7 16 59 62 39 15 13 13 21 
13 51 41 30 30 28 26 25 26 24 24 24 25 38 59 60 31 15 21 21 21 20 16 19 26 13 4 6 14 26 27 28 27 26 27 27 28 40 46 45 37 35 46 46 53 36 48 82 43 31 44 64 77 107 133 145 161 172 182 184 193 200 199 191 187 194 176 156 148 170 199 213 210 194 160 144 153 147 191 200 201 202 203 197 190 185 180 174 160 139 126 107 80 47 30 39 39 38 32 22 34 51 30 29 36 24 12 15 8 3 5 6 5 22 12 6 10 40 52 46 15 5 7 21 21 5 14 14 7 10 7 5 11 8 8 12 9 7 15 26 13 9 6 18 47 67 68 43 26 16 
10 47 41 29 30 27 26 25 25 24 23 22 27 37 59 61 34 15 21 19 20 19 16 20 24 18 8 8 14 20 22 21 14 22 24 21 22 39 47 48 36 45 43 44 41 33 35 42 24 14 29 35 59 99 130 143 162 174 182 187 193 197 192 191 193 190 181 166 154 153 165 175 181 145 110 138 154 174 189 194 199 201 201 196 189 185 180 172 159 139 123 99 75 9 18 68 49 58 36 27 32 44 30 32 38 25 15 14 2 3 4 7 10 5 5 8 7 13 8 2 7 9 16 36 18 8 11 14 13 11 8 8 9 10 13 20 8 24 17 52 61 17 11 31 27 21 38 75 57 25 
8 45 43 28 28 27 25 26 25 23 23 21 25 34 58 62 37 14 22 20 20 20 17 19 24 19 13 13 17 23 24 23 20 24 25 24 23 36 46 45 41 38 41 56 45 32 29 28 16 18 23 25 41 88 126 141 163 172 179 187 190 190 189 191 187 180 178 173 171 172 162 154 149 144 159 166 177 180 183 188 194 200 197 192 188 184 178 169 158 144 121 100 61 0 39 56 51 64 39 49 50 30 38 38 49 36 18 15 5 3 2 4 2 4 7 7 6 9 10 7 5 12 15 8 6 11 12 11 6 7 10 9 6 7 21 30 10 20 10 5 15 10 7 14 34 52 18 25 38 14 
9 33 44 28 28 27 26 26 25 24 23 21 24 34 56 62 41 15 21 20 21 20 18 18 23 21 14 15 22 27 26 26 27 26 27 28 27 36 47 43 39 29 36 49 46 47 53 22 18 12 22 30 39 75 123 139 158 172 179 184 184 185 185 181 178 176 174 176 181 185 196 195 190 194 191 186 180 176 177 179 183 187 191 187 186 183 174 167 158 141 118 104 46 0 40 56 29 33 56 57 54 23 39 41 44 45 25 7 5 5 1 4 2 4 6 9 8 9 8 5 7 7 7 9 10 12 9 9 8 8 11 7 11 8 7 5 8 9 12 8 6 8 19 21 10 49 63 19 63 58 
11 20 44 30 29 27 26 24 24 22 22 21 23 32 54 61 43 15 20 19 20 20 17 18 24 21 13 15 20 26 25 25 25 25 26 27 21 30 48 47 46 44 34 50 49 42 21 16 19 29 33 37 48 49 120 139 153 167 175 178 176 175 174 176 176 174 176 176 182 191 196 197 196 197 193 186 184 184 179 175 178 177 179 181 181 176 172 164 152 138 122 99 18 5 28 32 34 28 48 49 42 21 57 62 31 44 26 23 3 1 4 4 2 3 3 4 5 8 6 6 9 7 7 4 6 6 4 5 7 11 7 6 12 20 13 9 3 14 9 10 20 11 26 68 68 57 58 31 105 161 
11 24 43 29 29 27 25 24 23 22 22 22 24 28 53 62 45 13 20 19 18 19 18 18 22 22 15 15 20 25 25 25 25 24 24 25 10 26 49 45 45 45 39 47 39 36 35 32 29 22 34 46 51 20 105 140 151 162 172 174 173 172 172 161 150 159 159 162 162 160 164 175 180 169 163 162 165 165 163 150 154 174 173 174 174 174 167 154 145 137 123 72 0 10 21 24 29 19 28 29 44 27 41 72 43 30 23 22 18 6 3 4 3 3 2 2 4 8 11 9 8 10 6 5 10 10 8 4 7 7 5 8 12 18 8 9 36 33 19 8 13 17 16 55 78 76 48 26 29 28 
11 22 42 29 28 28 25 25 24 22 22 20 24 26 50 61 48 15 20 20 18 19 18 17 21 18 3 3 4 6 6 6 6 5 6 10 5 23 46 45 47 46 41 40 40 46 42 26 18 38 38 53 30 17 57 134 147 157 167 171 173 175 179 159 125 106 94 92 89 88 91 98 98 89 85 84 84 85 95 113 140 175 181 177 172 168 159 150 146 135 107 24 0 10 19 26 39 24 19 16 35 42 30 39 46 26 25 27 26 17 5 6 4 4 4 4 6 7 12 13 9 12 7 7 10 10 7 6 5 3 3 4 11 12 5 12 27 20 25 40 38 23 10 40 73 76 68 49 26 14 
11 20 42 33 27 27 25 25 24 22 23 22 22 25 48 60 50 16 19 19 18 20 16 17 22 20 4 4 5 6 6 6 7 7 8 7 5 22 47 44 43 41 39 33 39 43 29 19 45 44 41 22 26 23 18 108 144 152 158 167 173 178 173 176 172 141 111 94 103 108 104 98 98 107 111 96 84 100 124 156 183 178 179 180 172 161 154 149 139 123 54 0 14 32 23 32 63 39 14 15 25 42 47 27 31 37 27 36 48 41 24 8 6 5 4 4 4 9 12 13 12 11 7 7 9 9 3 6 5 4 4 5 6 7 7 7 12 10 7 37 37 39 39 17 51 65 63 63 33 24 
9 19 40 33 28 28 26 25 24 23 22 22 22 26 44 59 52 17 18 20 18 18 16 16 22 24 14 13 14 17 16 15 16 14 10 12 12 22 46 43 43 45 47 39 39 40 27 44 45 42 26 23 36 21 32 79 131 146 153 161 170 174 171 167 166 160 147 126 117 122 133 133 138 136 131 110 125 144 149 168 169 169 172 172 166 154 147 138 128 84 7 14 71 47 14 33 64 45 27 17 17 30 51 65 43 36 34 35 39 43 31 20 6 3 3 2 2 5 9 9 8 7 8 8 9 7 13 3 6 8 5 6 6 6 6 6 18 14 7 12 5 19 27 11 18 27 25 23 20 21 
10 14 32 34 29 28 26 25 24 23 22 20 21 25 42 59 54 19 18 20 19 18 18 18 21 23 13 12 14 15 15 16 15 15 12 11 11 21 44 45 47 47 47 45 45 41 40 37 47 26 23 35 41 43 53 48 56 129 148 153 162 169 172 166 163 165 163 160 152 148 146 145 144 143 147 153 160 161 163 162 162 167 169 165 156 144 136 129 88 49 11 60 86 14 25 35 27 19 19 14 14 34 26 41 64 41 29 29 33 44 40 30 23 6 3 2 3 3 1 2 4 6 9 7 5 10 9 3 7 6 4 6 9 9 9 8 12 22 12 9 10 22 22 17 23 26 27 25 26 22 
12 9 29 35 26 28 26 25 24 23 22 20 21 25 40 58 55 22 15 18 18 18 17 16 21 23 13 11 14 15 14 16 16 16 15 13 12 18 43 45 46 45 45 44 43 55 31 48 45 33 72 75 63 40 22 19 5 60 136 145 151 161 164 167 165 169 171 173 175 173 167 163 166 173 172 174 174 173 169 165 162 166 162 154 142 135 127 81 71 83 33 56 47 9 29 27 25 24 17 19 16 20 24 15 21 42 39 28 30 28 25 27 28 14 11 8 7 3 2 2 3 6 9 5 7 8 7 7 5 5 8 8 14 8 19 22 21 21 24 21 20 24 24 26 28 28 26 24 23 24 
17 13 31 36 27 27 26 24 23 22 22 21 21 25 38 56 55 25 16 19 18 19 17 15 20 24 16 13 16 18 18 17 17 18 14 12 14 20 43 46 45 45 46 45 46 46 43 73 51 51 62 36 76 31 20 14 13 27 115 138 142 147 159 163 164 168 175 183 190 193 191 190 193 193 190 189 185 176 171 168 162 158 155 143 135 112 82 96 117 94 48 43 33 15 35 41 51 26 28 22 23 16 21 20 20 23 36 32 26 17 19 30 14 0 2 2 1 1 1 1 2 5 6 6 5 7 10 8 7 8 6 8 11 11 18 27 27 23 21 25 19 19 23 23 24 27 26 24 18 17 
20 12 29 33 28 28 26 25 22 21 21 21 21 25 35 55 56 29 14 19 18 19 18 15 19 24 19 16 18 20 19 19 19 20 18 11 15 22 42 45 44 45 45 46 45 45 49 77 60 37 40 29 38 41 23 21 60 105 101 137 152 145 142 152 159 167 175 180 190 193 196 193 188 194 191 190 181 173 169 163 157 154 144 119 96 97 127 136 118 99 63 48 47 23 23 27 38 45 53 42 29 24 28 25 21 22 30 31 28 24 25 18 3 4 2 1 1 1 2 3 3 4 3 5 5 8 9 8 6 7 6 5 11 18 21 36 21 21 21 15 12 9 18 22 23 26 25 22 17 16 
24 10 27 33 27 30 27 26 24 23 22 21 22 23 30 54 57 30 15 20 17 18 17 17 20 22 19 15 17 20 20 20 20 20 20 12 13 19 40 44 44 44 44 45 46 45 46 56 44 41 44 36 28 44 36 62 115 93 99 132 151 159 153 146 153 163 169 174 180 184 184 183 182 187 186 181 176 168 161 158 151 128 101 99 124 146 144 133 120 105 84 40 48 38 27 30 31 47 75 45 29 30 30 34 23 27 24 20 24 30 26 0 3 2 2 2 3 3 3 2 3 5 5 7 11 9 9 8 6 7 7 4 6 20 27 25 21 18 16 8 8 8 15 21 23 24 26 25 21 23 
29 9 24 34 27 28 27 26 24 23 22 20 20 22 28 51 56 30 14 19 17 17 17 19 18 24 20 18 19 20 21 21 20 21 21 15 11 19 38 44 44 44 45 45 48 48 49 57 48 45 42 45 51 70 64 146 113 85 107 130 143 154 165 164 156 154 158 163 167 171 168 172 174 175 175 169 166 158 147 128 104 99 125 150 153 153 149 135 125 112 102 80 43 48 44 43 32 46 39 17 24 34 53 47 29 22 16 20 23 34 20 1 3 2 2 2 4 4 4 6 7 4 2 2 9 13 12 11 15 11 6 6 9 16 19 23 20 17 15 10 9 11 17 16 21 24 25 27 36 36 
34 8 23 33 29 28 26 25 24 23 23 21 20 22 27 50 57 34 12 18 18 18 18 19 19 23 20 17 18 21 20 22 21 20 23 19 12 18 36 44 44 44 44 45 48 50 43 56 63 50 63 78 97 102 135 202 148 105 113 128 142 153 160 167 169 165 157 155 151 147 147 147 147 146 144 137 131 123 116 115 132 153 160 160 160 157 147 139 131 123 112 110 97 50 34 43 57 65 47 66 103 68 62 63 48 14 9 18 37 38 12 5 3 3 2 3 6 10 15 16 17 19 19 13 5 7 9 8 11 11 7 5 8 7 13 37 21 14 17 15 15 14 14 14 19 21 21 28 47 42 
36 9 20 32 27 27 26 25 23 22 22 20 19 21 27 48 57 37 13 19 17 17 18 18 19 22 21 17 18 21 21 21 20 22 23 20 14 13 35 44 42 45 45 39 35 39 58 75 97 80 96 110 116 159 194 200 189 114 120 131 143 150 157 160 166 171 173 169 162 157 157 154 152 150 152 151 153 155 158 163 164 164 166 166 159 154 150 144 138 134 123 120 125 113 83 52 36 60 53 79 108 66 51 69 74 86 47 55 43 4 0 0 4 7 7 5 6 10 11 16 20 21 16 14 11 6 5 6 6 5 4 6 7 9 15 34 24 15 16 16 15 15 16 15 19 19 20 23 55 53 
36 10 17 30 27 27 25 25 22 21 20 21 19 21 25 45 54 38 12 18 17 19 18 16 18 22 20 16 17 20 20 21 21 22 23 23 15 11 34 43 41 37 39 63 100 139 157 154 152 156 160 166 191 213 208 199 213 169 122 136 142 148 155 160 164 167 171 175 173 172 170 171 170 172 175 173 169 166 171 167 165 169 165 162 157 155 151 144 144 142 131 131 129 129 121 105 110 105 90 65 72 49 73 119 127 118 129 134 125 96 64 30 7 0 0 3 7 7 8 6 7 8 8 6 6 7 5 6 7 6 7 6 6 6 10 13 12 12 11 14 14 14 15 16 17 19 20 20 41 45 
32 12 15 28 28 25 24 23 22 21 22 23 20 21 24 43 56 41 12 21 26 15 22 17 17 21 21 16 17 21 20 21 22 24 22 23 16 9 27 36 42 77 128 173 196 183 167 169 176 182 205 218 220 217 211 208 206 217 172 135 146 150 154 158 164 164 168 168 169 174 174 175 173 171 172 172 169 170 169 167 165 163 162 161 157 152 150 149 152 147 140 136 135 132 147 196 205 211 202 116 96 110 168 190 175 174 176 162 160 156 158 144 109 79 48 24 1 0 7 11 11 11 10 9 8 9 9 10 10 10 9 8 8 8 9 8 9 11 10 11 11 12 11 11 9 11 12 9 10 11 
31 13 13 28 27 26 26 25 22 22 21 21 21 22 25 42 55 45 14 18 18 17 19 17 16 21 21 16 18 21 21 21 21 23 23 18 13 13 44 93 143 181 196 198 182 172 178 187 191 186 200 211 219 220 216 213 210 208 220 188 153 151 154 157 160 162 166 167 167 172 174 172 169 168 168 170 169 168 167 166 164 162 159 158 156 155 154 156 155 153 150 144 143 171 211 214 207 212 219 213 204 217 207 191 173 185 190 181 172 171 159 162 158 141 139 129 102 62 23 6 6 13 15 15 13 11 12 14 12 12 10 10 10 10 9 9 8 8 8 7 7 7 7 6 6 7 7 6 9 7 
28 14 10 26 26 23 24 24 22 21 21 20 21 21 22 38 55 46 17 17 17 17 18 16 15 20 22 16 18 23 22 21 19 16 16 33 58 95 148 180 191 198 199 186 175 179 189 194 195 192 198 210 217 222 220 218 215 211 212 223 212 176 158 158 161 165 167 169 167 165 168 169 166 169 169 167 166 165 165 165 164 163 162 161 158 161 161 163 162 160 157 170 201 221 213 210 215 217 216 216 222 212 198 190 181 198 196 190 185 185 180 173 167 156 152 145 139 138 115 90 45 10 6 15 18 19 21 22 22 22 24 23 26 28 27 28 29 29 31 33 32 33 33 35 36 36 37 38 39 38 
25 17 11 26 28 23 24 25 22 20 20 20 19 21 22 35 53 46 17 17 17 17 18 16 15 19 24 19 19 19 15 15 30 54 82 109 140 170 185 192 196 196 189 178 181 190 197 195 197 196 195 206 211 219 224 222 220 217 216 215 221 226 211 184 168 168 170 171 173 171 172 173 170 172 171 170 170 169 169 169 170 168 168 168 166 168 168 166 168 181 205 217 219 213 217 220 221 221 218 221 215 210 199 185 189 202 204 196 194 192 189 179 177 172 173 168 156 149 141 133 123 101 59 15 17 29 44 55 61 64 66 66 65 66 66 65 65 64 64 64 63 62 63 61 60 60 59 58 58 54 
21 18 8 25 28 23 25 24 22 21 20 21 19 20 24 34 51 47 19 17 18 18 18 17 17 20 21 11 13 30 62 94 120 133 139 155 181 190 194 195 194 188 182 183 189 197 198 197 196 197 198 201 205 211 220 226 223 221 220 218 216 217 225 229 220 202 187 176 173 172 173 175 177 177 176 176 175 175 173 174 175 175 173 168 172 177 187 200 214 223 221 214 215 220 224 223 222 221 222 215 208 206 198 185 198 201 204 198 194 195 191 185 187 184 183 182 177 170 164 154 145 138 127 88 59 29 21 29 42 51 58 61 59 59 57 57 57 56 55 55 54 53 53 53 52 51 52 51 52 48 
19 21 8 20 27 22 24 22 23 21 21 21 20 20 22 34 51 49 20 16 19 19 20 19 16 13 28 60 95 127 145 151 148 148 164 185 194 196 199 196 188 181 177 186 194 194 192 194 199 200 197 199 202 207 212 217 223 224 221 220 220 217 219 222 227 228 227 221 211 201 196 187 180 180 178 178 176 174 173 175 181 186 190 197 211 220 225 228 224 219 218 220 224 223 223 223 223 219 215 214 208 203 190 190 201 203 201 199 196 197 193 193 192 193 189 186 182 180 178 173 171 165 161 152 135 102 67 34 23 29 39 50 60 66 67 68 66 66 65 65 65 64 63 63 62 63 61 61 62 58 
17 24 7 22 29 20 22 21 21 22 23 21 21 23 24 31 51 51 23 16 20 21 20 17 32 73 116 140 148 148 148 150 155 173 189 198 199 201 199 189 184 182 188 197 200 197 198 198 199 202 200 199 203 209 213 214 217 223 225 224 223 221 224 223 222 224 226 231 233 234 233 230 226 221 219 216 213 211 213 219 223 228 229 229 227 226 223 223 225 226 225 227 227 225 222 224 219 216 214 213 211 205 188 198 205 206 206 206 204 201 198 197 197 198 197 195 190 186 184 181 181 181 175 174 172 161 136 100 58 31 29 33 39 49 60 66 66 67 67 66 65 64 64 62 61 61 60 60 61 58 
14 23 5 20 28 20 21 21 20 20 22 21 22 23 23 29 49 50 26 19 23 22 25 65 109 132 138 143 143 146 150 153 170 185 189 190 193 195 187 177 175 178 186 191 191 189 188 186 189 193 191 189 193 197 201 203 203 206 207 213 213 213 215 216 217 217 217 217 216 219 218 217 218 219 221 221 221 219 216 214 215 215 214 214 215 216 218 216 218 218 215 217 216 216 212 207 204 206 206 201 199 193 181 192 200 196 198 199 195 193 191 190 192 192 188 189 189 186 183 179 179 181 174 172 170 161 153 135 119 82 42 29 28 28 34 46 56 62 64 63 61 61 58 54 57 58 57 57 57 55 
