P2
150 65
255
147 158 156 158 158 159 161 162 164 165 166 167 167 170 170 171 172 172 173 174 177 177 179 180 180 181 182 183 185 185 186 187 189 190 191 192 194 195 196 195 196 198 198 200 200 202 203 204 205 206 207 208 210 210 211 211 212 213 214 214 214 215 216 215 216 217 219 218 219 219 219 219 220 220 220 222 219 221 223 222 222 222 222 223 223 223 223 224 224 224 223 223 224 224 224 224 224 224 224 224 224 224 225 224 223 224 224 223 223 223 223 223 223 223 223 223 223 222 222 222 222 222 223 223 222 222 223 222 221 221 221 221 221 220 219 220 219 218 218 218 216 217 217 217 217 217 216 216 217 207 
153 163 163 163 165 167 167 168 170 171 173 173 174 175 177 177 179 179 180 181 183 184 185 186 186 189 191 191 192 193 193 195 196 197 200 201 202 203 204 204 206 207 208 209 211 212 213 215 216 216 217 217 218 218 219 219 220 221 221 222 223 223 224 225 226 226 227 227 227 228 228 229 229 229 229 230 225 227 229 229 230 230 231 231 231 230 230 231 232 232 232 232 233 233 233 232 232 232 232 232 233 233 233 232 232 233 232 232 232 232 231 232 232 232 232 232 231 231 231 231 230 231 231 230 229 229 230 229 228 229 229 229 228 227 227 227 227 226 226 225 225 225 225 225 225 224 223 223 224 215 
152 164 163 163 165 166 167 168 170 170 172 173 175 176 176 176 178 180 180 181 183 184 184 185 187 190 191 191 191 193 194 196 196 198 200 202 203 204 205 207 208 210 211 212 212 213 213 215 216 215 215 217 218 218 218 219 219 221 222 223 223 223 224 225 224 225 226 225 224 226 226 228 228 228 228 229 225 227 229 227 227 228 228 228 230 230 230 228 232 231 232 232 232 232 232 231 231 231 231 232 232 232 231 231 231 231 231 231 231 230 230 230 230 230 230 230 230 230 230 229 229 229 230 230 229 229 229 227 227 228 228 228 227 226 226 226 225 225 225 224 224 226 224 224 224 223 222 222 222 213 
152 164 163 165 166 167 168 169 170 171 173 175 175 177 177 178 179 180 181 182 183 184 186 187 188 190 192 193 194 195 197 199 200 202 204 205 207 207 208 209 209 210 211 212 212 213 213 215 215 216 217 217 218 219 219 220 220 220 222 223 224 224 225 225 226 225 226 227 227 227 228 228 228 229 226 227 220 224 228 230 229 226 229 229 229 229 228 231 231 231 233 233 232 232 232 232 232 232 233 232 232 232 232 232 232 232 232 231 231 232 231 230 230 230 230 230 230 230 230 231 230 229 229 230 230 229 229 229 228 228 228 228 227 227 226 226 226 225 226 225 225 225 223 224 224 224 223 223 224 213 
154 165 164 165 167 168 169 171 171 173 175 175 175 177 178 180 180 181 182 183 185 186 187 188 190 193 195 196 199 201 202 203 204 204 205 206 207 207 208 208 210 210 211 213 213 213 214 216 216 216 217 217 218 219 218 220 222 222 223 224 225 225 224 225 226 225 224 226 225 224 226 230 231 234 231 233 227 227 230 232 236 230 220 229 228 229 229 230 232 232 232 232 233 233 233 233 232 232 233 232 233 233 232 232 232 232 232 232 232 232 231 231 231 231 230 230 230 230 230 231 230 229 229 229 230 229 229 229 229 228 228 227 227 227 226 226 225 225 226 225 225 225 223 223 224 224 223 223 223 213 
154 165 164 166 167 168 169 171 172 173 175 176 177 178 179 180 181 182 184 187 189 189 191 194 196 197 198 199 200 201 202 203 203 205 206 207 207 207 208 208 210 211 212 214 214 214 215 216 217 216 218 218 218 220 220 220 221 223 223 224 225 223 222 224 229 234 237 238 239 241 239 228 223 210 205 207 199 199 188 183 195 230 235 228 228 227 221 221 223 223 225 230 232 232 233 232 232 233 234 233 233 233 232 232 232 232 232 232 233 232 231 231 231 231 230 230 230 230 230 230 230 230 229 229 229 229 229 229 229 229 227 227 228 227 226 226 225 225 225 225 223 225 223 223 224 224 223 223 223 213 
154 166 165 167 168 170 171 172 173 174 176 177 179 180 181 183 186 186 188 192 193 194 194 196 197 198 198 199 200 201 202 203 203 204 207 209 207 207 209 209 211 212 213 213 214 215 215 216 217 217 219 219 220 222 222 222 222 223 224 223 227 235 239 234 221 201 178 157 141 130 104 67 60 47 43 46 41 45 46 47 64 93 123 194 203 190 210 211 222 232 227 224 228 231 232 231 232 232 233 233 233 233 233 233 233 232 232 232 232 232 231 232 231 231 231 231 231 230 230 230 230 230 230 230 229 229 229 229 229 229 228 227 228 227 226 226 225 225 225 225 225 225 223 223 224 223 223 223 223 213 
155 166 165 166 168 172 172 174 175 176 178 181 182 184 186 187 187 189 190 191 193 194 194 196 196 198 199 199 201 202 203 204 205 206 207 209 208 209 210 210 212 212 213 214 214 216 216 217 218 218 219 219 221 223 223 223 223 223 226 236 221 176 124 83 56 37 28 23 21 21 27 29 34 37 33 31 38 40 39 47 57 52 45 73 73 72 99 98 101 155 203 226 228 223 230 230 229 230 231 231 232 232 233 233 233 232 232 232 232 232 231 232 231 231 231 232 231 230 230 230 230 230 230 230 230 230 229 229 229 229 229 228 228 227 227 227 226 225 225 225 225 225 224 223 223 223 223 223 223 213 
156 167 167 169 172 176 177 178 180 181 182 184 184 184 186 188 188 188 189 192 194 195 196 197 197 198 199 201 202 203 204 206 206 208 208 208 208 209 209 210 213 213 213 214 215 217 216 218 218 217 219 220 220 221 224 222 223 229 221 136 58 26 16 21 22 28 30 29 35 38 41 44 44 45 45 45 40 46 48 52 52 58 65 77 57 57 50 43 29 35 64 130 203 218 221 225 228 230 231 231 231 232 232 233 232 232 232 232 232 233 232 231 231 231 231 231 231 230 230 230 230 230 230 230 229 230 229 229 229 229 229 228 228 227 227 227 225 225 225 225 223 224 225 223 223 223 223 223 223 214 
161 173 173 175 177 178 179 179 181 181 183 184 185 186 186 188 189 190 191 193 194 195 197 198 199 201 204 203 204 205 208 208 207 208 208 208 208 209 211 212 213 214 214 216 215 216 216 218 219 219 220 221 222 222 223 222 221 191 81 20 28 30 31 29 28 29 35 38 40 48 53 54 53 55 58 57 56 50 50 53 59 60 65 93 62 61 60 50 44 39 30 29 62 136 195 207 209 214 220 226 229 231 232 233 232 232 232 232 232 233 233 232 231 231 231 231 231 230 230 230 230 231 231 231 230 229 230 230 230 229 229 228 228 228 226 227 226 226 226 224 224 224 224 223 223 223 223 222 224 214 
164 175 174 175 176 176 178 179 180 182 183 184 185 187 188 188 189 190 192 193 195 196 197 199 197 189 200 211 207 208 207 206 207 208 208 209 210 211 212 212 214 214 214 216 215 215 216 218 218 219 220 220 222 222 218 217 188 72 28 37 27 25 25 28 33 31 33 39 48 55 62 71 63 58 60 52 52 48 48 47 52 61 73 96 61 57 55 51 47 42 40 35 26 31 96 177 201 202 207 213 221 229 231 232 232 232 233 232 232 232 233 232 231 231 231 231 231 230 230 230 230 230 230 230 230 229 228 229 229 229 229 227 227 227 226 226 226 226 225 224 224 223 223 223 223 223 224 221 222 213 
163 174 174 177 176 177 179 180 181 182 183 185 186 186 188 189 191 192 193 194 196 197 198 199 200 198 201 206 207 207 206 206 206 207 208 209 209 211 212 213 213 213 215 216 216 217 217 217 218 219 220 220 222 220 227 195 77 34 28 24 26 29 33 36 38 43 45 50 50 49 55 58 59 65 61 57 50 49 55 67 65 68 85 77 57 58 61 58 47 32 31 31 28 30 25 79 178 200 201 203 207 214 222 229 231 232 232 232 233 232 232 232 232 232 232 231 231 230 230 230 230 230 230 230 230 229 229 229 229 229 227 227 227 227 227 226 226 226 226 226 224 223 223 223 223 223 223 222 223 214 
164 175 174 177 178 178 180 181 182 183 184 186 187 188 189 190 191 192 194 195 196 197 198 199 205 206 200 197 204 204 206 209 208 208 208 210 210 211 212 213 213 214 215 215 215 217 217 217 217 219 220 221 220 219 161 59 30 27 17 23 27 31 36 40 41 40 44 48 57 67 71 59 47 45 54 52 49 51 60 84 100 116 80 62 61 53 61 66 56 47 35 31 29 29 29 25 76 180 198 203 203 205 211 219 228 230 232 233 232 232 232 232 232 232 231 231 231 230 230 230 230 230 230 230 229 229 229 229 229 228 227 227 227 227 227 226 225 225 226 226 224 223 223 223 223 223 223 222 223 214 
165 176 175 176 177 177 179 180 181 183 185 186 187 189 189 190 191 192 194 195 196 197 198 198 200 197 188 192 204 205 204 207 209 208 208 209 210 211 211 213 215 214 215 216 215 217 217 217 218 218 220 221 220 120 29 26 25 21 21 23 25 30 32 38 46 49 55 61 58 65 66 64 58 50 42 41 45 51 61 73 104 119 92 83 82 59 50 59 59 50 38 33 34 35 35 32 24 94 197 195 204 203 204 211 220 227 231 232 232 232 232 232 231 231 231 230 230 230 230 230 230 230 229 229 229 227 228 228 228 228 226 228 227 226 226 226 225 225 225 224 223 223 223 223 223 223 223 222 224 212 
165 176 175 177 179 179 180 182 183 185 186 186 187 188 190 191 191 192 194 195 196 197 198 199 197 193 190 195 204 205 206 205 207 208 208 210 211 210 211 213 214 214 215 216 215 217 217 217 218 219 216 193 146 40 29 41 22 23 23 26 34 55 53 54 72 85 86 86 78 71 67 71 73 76 79 84 87 90 95 95 117 142 135 118 107 76 59 52 54 55 39 34 27 34 31 31 34 26 142 197 197 201 202 205 212 221 229 231 231 231 232 231 231 231 230 230 230 230 230 230 230 230 229 229 229 228 228 228 228 227 227 228 228 227 226 226 225 225 225 225 223 223 223 224 223 223 223 222 224 214 
166 177 176 177 179 179 180 182 182 185 187 186 187 188 190 192 191 192 194 194 196 197 197 197 196 194 192 198 204 205 206 205 207 209 209 210 211 210 211 212 214 214 215 216 216 217 217 217 218 218 222 143 40 65 50 59 50 50 44 45 45 66 84 99 121 141 154 154 149 143 140 137 141 152 166 173 179 178 180 178 171 167 151 153 145 115 81 67 66 56 37 31 29 23 30 30 33 27 53 178 193 201 203 203 207 214 223 229 231 231 231 231 230 230 230 230 230 230 230 230 230 230 229 229 228 228 228 228 228 227 227 227 227 226 225 225 225 225 225 224 223 223 223 224 223 222 223 222 224 213 
166 178 177 178 179 180 181 183 183 185 187 188 188 189 191 191 191 191 192 195 196 197 196 194 195 194 197 201 203 204 205 206 207 208 210 211 210 211 211 212 214 214 215 216 216 218 218 218 216 225 193 49 26 42 34 49 60 73 73 71 81 101 119 138 153 167 171 173 179 181 187 190 196 197 195 199 201 199 197 198 199 191 180 167 155 143 114 89 67 57 33 31 32 28 23 31 33 36 24 116 197 201 201 203 204 208 218 225 230 231 231 231 230 230 230 230 230 230 230 230 230 230 230 228 228 228 228 228 228 227 227 226 226 226 225 225 225 226 224 224 224 223 223 223 222 222 222 222 223 213 
166 178 177 178 179 180 181 182 183 185 187 188 188 189 190 191 192 192 193 195 195 196 196 195 194 195 199 203 204 204 206 206 208 209 210 210 210 212 211 213 214 214 215 216 216 217 218 217 221 210 115 45 20 21 29 35 44 59 79 109 124 134 148 158 171 183 192 195 199 204 208 208 205 207 210 211 210 210 208 206 205 204 203 189 174 156 138 122 86 69 46 29 28 29 27 24 30 35 35 60 182 206 201 203 203 204 212 221 227 231 231 231 230 230 230 230 230 230 230 230 230 230 229 228 228 228 228 228 228 228 227 227 226 226 225 225 225 225 224 224 223 223 223 223 222 222 222 221 223 212 
166 177 176 178 179 180 181 182 184 185 187 188 188 190 190 191 192 193 195 196 196 196 197 197 197 198 201 203 204 204 205 207 208 209 209 209 209 212 212 212 214 214 215 216 216 216 217 216 226 141 135 59 17 20 21 29 47 80 128 140 143 156 170 179 190 197 203 201 205 210 214 217 215 215 216 218 216 212 211 207 206 206 200 194 186 171 147 129 116 95 68 43 23 25 25 22 27 27 38 32 154 212 201 203 203 203 208 217 225 230 230 230 230 230 230 230 230 230 230 229 229 229 228 228 228 228 227 227 228 228 226 227 226 225 225 225 225 226 225 223 222 223 223 223 222 223 223 221 223 213 
165 177 176 178 179 180 182 183 184 186 187 187 189 191 191 192 193 193 195 196 198 198 198 200 200 201 202 202 203 205 206 207 208 209 209 209 210 211 213 212 214 214 215 216 216 218 216 223 197 123 161 40 28 25 27 43 92 133 151 156 162 173 183 189 198 198 189 193 207 212 214 214 217 218 219 217 217 216 214 211 209 202 195 193 190 180 160 148 140 125 97 67 48 27 24 27 25 28 34 26 120 213 201 203 203 203 206 216 224 230 230 230 230 230 230 230 230 231 231 230 230 229 228 228 228 228 228 227 227 226 226 226 225 225 225 225 225 225 225 223 223 225 223 223 223 222 223 221 223 212 
165 177 177 179 180 181 182 183 185 186 187 187 189 190 191 191 193 194 195 196 198 198 199 200 200 201 202 202 204 205 206 207 208 209 209 209 210 211 212 212 214 214 215 216 216 217 217 224 168 157 149 26 22 22 29 69 112 137 150 160 168 177 184 188 189 183 168 178 207 215 216 212 215 218 220 221 220 215 217 212 206 202 199 192 191 184 171 162 155 145 131 101 78 60 31 25 26 28 30 25 71 195 203 202 203 202 203 212 221 229 231 230 230 230 230 230 230 231 230 229 229 229 228 228 228 228 227 227 227 226 226 225 225 225 225 225 224 223 223 223 224 225 223 223 223 221 221 220 222 211 
166 178 177 178 180 181 182 183 184 187 187 187 189 191 191 192 193 194 196 196 197 199 200 201 201 202 203 203 205 205 206 207 208 209 208 210 211 211 213 212 214 214 215 217 217 217 216 222 183 150 99 20 22 23 36 82 117 138 152 165 174 180 181 187 186 183 192 191 204 215 216 212 209 218 219 219 217 213 213 212 207 201 197 192 192 188 183 172 163 156 147 140 115 82 55 30 23 27 36 35 48 169 202 202 203 203 203 208 219 226 231 231 230 230 230 230 231 230 229 229 229 228 228 228 228 226 227 227 227 226 226 225 225 225 224 224 225 224 223 223 223 224 222 222 222 221 221 220 222 212 
167 178 177 179 180 181 181 183 185 186 187 188 189 190 192 193 194 194 196 197 197 198 199 201 201 202 202 202 204 205 206 207 208 209 209 209 210 211 212 213 214 214 215 216 216 216 215 220 190 136 63 18 25 22 40 77 119 137 159 166 174 182 183 190 192 191 194 199 205 216 214 214 215 215 218 218 214 214 211 208 207 203 197 196 191 190 186 175 169 161 154 148 134 108 77 48 27 27 28 37 54 141 200 203 203 203 203 206 214 223 229 231 231 231 231 230 230 230 228 229 229 228 228 228 229 227 227 227 227 226 225 226 226 225 225 225 224 224 224 224 224 223 223 223 222 221 221 220 222 211 
167 178 177 179 180 181 181 182 185 186 186 188 190 190 192 193 194 194 195 197 197 198 199 200 201 202 202 202 203 205 206 207 208 209 209 209 210 211 211 213 214 214 215 216 216 217 216 217 208 124 42 23 24 25 38 80 124 143 161 172 182 190 200 200 200 201 200 204 211 215 216 215 211 212 211 214 215 215 218 212 212 210 204 200 197 199 194 186 177 166 153 151 140 121 87 55 36 31 30 28 34 77 187 205 202 203 203 204 211 221 226 230 231 231 232 231 230 229 228 229 229 228 228 228 229 228 226 227 227 226 225 226 226 225 225 225 224 224 224 224 224 223 223 223 222 221 221 220 221 210 
167 179 177 179 180 181 182 183 184 186 188 188 189 190 192 193 194 194 196 196 197 198 199 201 201 202 203 203 202 205 207 208 208 208 208 210 211 211 212 213 214 214 215 217 217 217 216 217 228 131 20 27 22 24 41 96 134 149 170 178 179 177 187 198 204 209 208 205 212 217 219 220 220 216 220 219 224 226 227 224 218 214 210 208 205 198 191 181 177 175 163 157 147 129 96 56 36 30 36 40 29 39 174 208 201 202 203 202 206 215 224 229 230 230 230 230 229 229 229 230 228 228 228 228 227 227 226 226 226 226 226 227 226 225 225 225 224 224 224 224 224 223 223 222 222 222 221 220 221 211 
166 178 177 179 180 181 182 183 185 186 187 189 189 191 191 193 194 195 196 197 197 199 198 200 201 202 203 203 204 205 206 207 207 207 209 210 211 211 212 213 214 214 215 216 217 217 217 216 220 164 29 28 24 24 61 126 142 159 167 168 156 129 122 129 146 172 193 200 203 201 199 205 212 217 216 213 213 216 216 215 214 205 189 177 161 148 151 149 166 170 169 162 151 143 117 84 44 32 36 48 40 95 195 204 202 202 203 202 203 212 222 228 230 230 229 229 229 229 229 229 228 228 228 228 226 226 226 226 226 226 226 226 225 225 224 224 224 224 224 223 223 222 222 222 221 221 221 219 221 211 
166 177 176 178 180 181 183 184 185 186 187 189 189 190 192 193 194 195 197 197 198 199 199 200 201 202 203 204 205 205 206 207 206 207 209 210 212 211 211 212 214 214 215 216 216 218 218 214 225 126 22 26 23 35 98 138 136 111 111 124 114 116 109 100 101 101 110 132 155 169 184 195 200 199 200 202 199 194 181 159 144 120 92 92 86 91 97 112 126 120 119 127 134 148 138 113 58 30 32 52 55 164 210 201 202 202 202 202 203 213 221 228 230 230 229 229 229 229 229 228 228 228 227 228 227 226 225 225 226 225 225 225 225 224 224 224 224 224 224 222 222 222 222 221 221 221 220 218 221 211 
167 178 176 178 179 180 182 184 186 186 187 189 189 190 191 193 194 195 197 197 198 199 199 201 201 202 203 203 204 205 206 207 206 208 209 209 211 211 211 212 214 214 215 216 216 217 217 219 213 59 23 27 23 55 121 141 120 103 130 150 164 178 189 189 181 163 148 141 148 161 175 185 194 193 193 194 185 170 151 135 130 129 135 150 168 178 166 158 152 142 127 109 105 132 152 134 81 34 27 44 76 178 204 200 202 202 202 203 207 219 227 229 229 229 229 229 228 228 228 228 228 228 228 227 227 227 226 225 225 225 225 225 225 224 224 224 223 223 223 223 223 223 222 221 221 221 220 219 221 210 
166 178 177 178 179 180 182 184 186 186 187 188 189 190 192 193 194 195 197 197 198 199 199 200 201 202 203 203 204 205 206 207 207 208 209 209 211 211 211 213 214 214 215 216 216 216 216 224 178 32 27 22 19 74 138 151 134 140 156 167 165 152 152 165 173 184 177 176 175 177 177 181 185 190 194 197 186 178 175 174 170 173 179 189 192 186 181 173 171 165 154 144 140 144 157 147 106 41 29 40 88 154 195 202 201 202 201 202 212 222 228 229 229 229 229 229 228 228 228 228 228 228 227 227 226 226 226 226 225 224 224 225 225 224 224 224 223 223 223 223 223 222 221 221 221 220 220 219 220 210 
166 178 177 178 180 181 182 184 185 187 189 189 189 190 192 193 194 195 197 197 198 199 199 201 201 201 203 204 204 205 206 207 208 208 209 209 210 211 211 213 214 214 215 216 216 216 215 225 173 46 22 24 22 95 152 155 150 139 141 121 87 107 113 35 53 55 128 159 169 169 179 185 193 201 206 204 192 181 175 168 167 156 147 90 59 50 65 106 89 121 141 145 141 151 158 158 128 44 33 36 46 128 201 201 201 202 202 202 211 221 228 229 229 229 228 228 228 227 227 227 227 228 227 225 225 225 225 226 225 224 225 225 225 224 224 224 223 223 223 223 223 221 221 221 220 219 220 220 220 210 
166 178 178 179 180 181 181 183 183 186 187 188 189 190 191 192 194 196 197 198 198 199 199 200 200 202 203 202 203 205 207 207 208 209 209 209 210 211 212 213 213 213 215 216 216 216 220 190 172 119 53 47 30 117 158 168 169 149 115 85 111 179 183 70 50 76 179 162 157 172 171 180 195 212 218 206 189 176 166 169 152 137 198 136 42 37 104 180 109 75 97 123 148 162 162 159 147 58 43 55 46 180 199 201 201 201 201 201 203 215 225 229 229 229 228 227 227 227 228 228 227 227 227 225 226 226 226 226 225 225 224 224 224 224 224 224 223 223 223 222 221 221 221 221 220 220 219 219 220 209 
166 178 177 178 179 180 182 183 183 186 187 188 189 190 192 193 194 195 196 197 198 199 199 199 200 202 202 202 203 205 206 207 208 209 209 209 210 211 212 213 213 213 214 215 216 216 219 203 172 178 85 61 52 130 171 178 184 174 149 139 132 139 161 163 148 166 159 156 170 189 170 175 187 210 219 204 186 173 167 185 160 153 163 177 159 144 164 145 135 130 135 151 173 181 172 162 160 90 41 55 87 193 194 200 201 201 201 200 208 219 226 228 229 229 228 228 228 228 227 228 227 227 227 226 225 226 225 225 225 225 224 224 224 224 224 224 223 223 223 222 221 221 221 219 219 219 218 218 220 209 
167 178 177 178 180 180 182 183 184 185 186 188 188 189 191 193 193 195 196 196 197 198 199 199 199 201 202 203 202 204 205 206 209 209 208 210 210 211 212 211 213 214 214 215 216 216 217 221 191 184 193 145 100 133 173 185 191 187 180 171 160 155 154 156 163 161 169 184 190 182 177 175 188 210 217 205 185 182 176 180 189 181 168 158 161 159 150 150 155 166 178 182 186 188 178 165 159 106 62 93 161 193 202 202 202 201 201 203 212 220 226 228 228 227 227 228 227 227 228 227 226 227 227 226 225 226 225 225 224 224 224 224 224 223 223 223 223 221 221 222 222 221 221 219 219 219 219 219 220 208 
167 178 177 178 180 180 181 182 184 185 186 188 188 189 191 192 192 193 196 196 197 198 199 199 200 201 202 202 203 204 205 206 208 209 208 210 210 211 212 212 213 214 214 215 217 216 215 218 214 190 198 217 142 134 172 186 195 198 196 194 192 185 183 185 188 191 196 200 195 193 187 184 197 212 217 208 192 193 193 188 194 202 195 190 188 184 182 187 193 200 199 197 194 189 182 165 153 105 90 175 198 201 202 203 201 201 200 204 213 220 226 228 227 227 227 227 228 227 226 226 227 226 226 226 225 226 225 225 225 224 223 224 224 223 223 223 222 221 221 221 221 221 221 219 219 219 219 217 219 208 
166 178 176 178 179 179 181 182 184 186 186 188 188 189 191 192 193 195 196 196 197 198 198 200 201 202 203 202 203 204 205 206 206 208 208 210 210 211 212 213 214 214 214 215 217 216 216 218 217 210 207 193 173 148 163 183 195 199 203 206 206 203 198 197 198 197 201 202 203 201 190 190 205 216 218 208 193 196 200 203 201 207 203 198 202 200 202 208 212 212 209 201 190 184 174 157 144 95 147 192 197 201 199 200 200 201 205 212 219 224 228 228 227 227 228 227 228 227 225 226 227 226 225 225 225 226 225 225 225 225 223 224 224 223 223 223 222 221 222 221 221 221 221 219 219 219 218 217 219 209 
166 177 176 177 179 180 180 183 185 185 186 187 188 189 190 192 193 195 195 196 197 198 198 200 201 201 201 202 203 204 205 206 207 208 208 210 210 210 212 213 213 214 214 215 217 216 217 218 218 210 217 203 206 167 150 174 185 194 200 205 208 213 202 202 209 210 211 211 203 188 178 196 211 219 219 207 190 183 197 200 207 214 209 209 211 211 212 214 213 208 199 193 185 177 168 155 129 151 190 198 198 201 199 199 200 202 212 221 226 228 228 228 228 228 228 228 228 228 226 226 226 226 225 226 225 224 225 224 223 224 224 225 224 223 223 223 222 222 221 221 221 219 218 219 218 217 218 218 219 209 
166 177 176 177 179 180 181 183 184 185 185 187 188 189 191 192 193 194 196 196 197 198 198 200 200 201 201 202 203 204 205 206 206 208 208 209 209 210 211 211 212 214 214 214 217 217 217 218 219 215 209 218 213 194 146 167 179 190 196 199 207 211 213 216 220 219 226 217 198 166 177 199 211 218 216 208 196 175 168 192 208 218 221 218 218 214 215 213 209 203 193 186 179 171 162 140 155 193 196 199 201 200 200 199 201 207 217 224 226 227 228 228 228 228 228 228 228 228 227 226 225 225 226 225 224 224 225 224 223 224 224 224 223 223 223 222 221 221 221 221 220 219 218 218 218 217 218 217 220 209 
165 177 176 177 179 180 181 182 184 185 185 187 187 189 191 192 193 193 194 195 197 198 198 200 200 201 201 201 202 204 205 206 206 208 209 208 209 210 211 212 213 214 214 214 216 217 216 217 219 218 209 216 216 219 169 151 171 183 189 195 203 207 210 217 223 229 221 202 175 168 185 200 211 225 217 207 193 172 162 168 195 211 218 223 220 216 214 210 203 198 185 174 173 162 151 146 192 201 199 199 199 200 200 200 207 216 222 226 229 228 228 229 229 227 229 228 226 226 226 226 226 226 226 225 224 225 224 224 224 223 224 223 223 223 223 222 221 221 221 221 220 218 218 218 218 218 218 217 219 209 
166 177 176 178 179 180 182 182 182 184 185 187 187 188 190 191 192 194 196 196 197 198 198 200 200 201 201 201 203 203 204 205 206 208 209 209 209 210 211 211 212 213 214 215 216 216 216 217 218 218 215 212 219 221 206 148 158 176 181 185 191 199 202 211 219 217 200 185 174 188 171 185 206 211 213 196 174 170 188 160 182 199 209 215 214 210 207 203 197 189 178 168 164 152 150 194 202 199 200 200 200 200 199 204 212 219 226 228 229 228 228 228 228 226 227 227 227 226 226 225 225 225 225 225 225 224 224 223 223 223 223 223 223 223 223 221 221 221 221 220 219 218 218 218 217 218 218 217 218 208 
166 177 175 176 178 179 181 182 182 184 186 186 187 188 189 191 192 193 196 196 197 198 198 200 200 201 201 202 203 202 204 205 206 207 209 209 209 209 211 211 212 213 214 215 215 215 216 218 218 217 218 212 215 217 222 173 146 168 179 180 190 196 199 201 209 205 199 200 177 164 149 150 172 165 168 156 127 164 163 154 193 201 205 208 200 200 196 191 188 182 178 171 159 147 177 204 198 200 200 200 200 199 201 209 218 225 229 228 228 228 228 228 227 226 227 227 227 226 226 225 225 225 225 225 225 224 223 223 223 223 223 223 223 223 222 221 221 221 221 220 219 218 218 218 217 217 218 217 218 207 
164 176 176 178 179 179 180 181 182 183 185 185 187 188 189 191 192 193 194 196 197 197 198 200 199 199 200 203 204 203 203 205 205 207 209 209 209 210 211 210 211 212 214 215 215 216 216 218 218 217 218 217 213 215 223 206 140 153 170 180 184 190 193 193 202 207 211 206 192 170 169 176 181 168 172 176 167 160 153 186 203 209 206 203 194 194 190 185 182 178 167 162 157 156 198 199 198 200 200 200 199 200 207 216 223 228 229 228 228 229 228 227 227 227 227 227 227 226 225 225 225 225 224 224 224 224 224 223 223 223 223 223 223 223 222 221 221 221 221 220 219 218 218 218 217 218 219 217 218 208 
165 175 175 177 178 179 180 182 183 184 184 186 187 188 189 191 192 193 195 196 198 197 198 199 199 201 202 202 203 203 204 205 205 207 208 208 208 209 210 211 212 213 213 214 215 215 216 217 217 217 218 216 219 218 216 223 172 142 157 168 177 184 187 188 195 204 207 206 199 197 187 188 202 201 203 203 183 181 189 199 206 209 204 198 189 182 183 182 176 172 164 159 152 183 203 198 199 199 199 200 199 202 212 221 227 229 228 228 228 229 228 227 227 227 227 226 226 227 225 225 225 225 224 224 224 224 224 223 223 223 223 223 222 222 221 221 221 220 220 220 218 218 218 218 217 217 218 216 217 207 
164 176 175 176 178 179 180 182 184 185 184 186 187 188 190 191 193 194 195 197 198 197 198 199 199 201 202 202 202 202 203 204 206 207 208 208 208 209 209 211 211 213 213 214 214 216 216 216 216 218 218 217 219 219 217 220 205 149 150 156 164 175 177 181 187 194 198 201 200 195 197 197 205 195 193 202 193 190 197 201 204 200 195 191 184 179 173 171 167 165 160 154 167 200 199 199 199 199 199 200 200 208 217 225 228 228 228 228 228 228 228 228 227 227 227 226 226 227 225 225 225 225 224 224 224 224 224 223 223 223 223 223 221 222 220 220 220 218 219 220 218 218 218 218 217 217 217 215 217 206 
164 176 175 176 178 180 179 181 183 184 185 186 187 188 189 190 192 193 194 195 197 197 197 198 199 200 200 201 202 203 204 205 206 207 206 207 208 209 210 209 211 212 213 213 213 215 215 216 217 217 217 217 219 219 218 207 203 182 155 156 155 163 170 173 178 184 176 183 184 181 180 169 180 185 187 179 169 182 190 189 191 184 180 176 170 170 165 165 166 160 160 164 199 199 199 199 199 198 198 197 201 213 220 227 228 228 229 228 228 228 227 227 227 227 227 226 225 225 225 225 226 225 224 224 223 223 223 223 223 222 222 222 221 222 220 220 220 219 218 218 218 219 219 218 217 216 216 214 216 207 
164 176 175 176 178 179 180 181 183 183 184 186 187 188 189 190 191 193 194 195 196 197 197 198 199 200 200 200 202 202 203 204 205 207 206 207 208 208 209 209 211 212 213 214 214 215 215 216 217 217 217 217 218 217 215 207 207 177 95 153 155 156 168 172 168 156 142 135 127 127 126 127 129 137 133 126 131 131 139 138 138 139 148 154 164 171 170 166 163 161 163 192 204 201 200 198 198 198 198 199 208 218 225 229 228 228 228 228 228 227 227 227 227 226 226 225 224 225 225 224 224 224 224 224 223 223 223 223 223 222 222 222 220 221 221 219 219 219 218 218 218 217 217 218 217 216 216 214 216 207 
164 176 175 177 177 177 180 181 182 183 185 186 187 188 190 190 190 192 193 195 197 197 197 197 199 200 201 200 202 203 203 204 204 205 207 208 208 209 210 209 211 211 212 213 213 215 216 216 216 216 216 215 213 213 206 194 181 97 17 58 139 150 156 170 167 163 163 157 145 138 138 149 160 164 159 153 146 142 136 131 140 157 162 160 168 172 168 162 161 144 179 200 203 201 198 197 197 198 199 206 216 224 229 228 228 229 228 228 227 227 227 228 227 225 226 225 225 226 225 224 224 224 223 223 223 223 223 222 222 222 222 221 221 221 221 219 218 218 218 218 218 217 217 216 216 216 215 215 216 207 
163 175 174 176 175 177 179 180 181 183 183 185 187 188 189 189 190 191 192 194 196 196 196 198 198 200 200 201 201 201 202 203 203 205 207 208 209 209 209 209 211 210 210 212 214 214 214 216 216 215 214 209 207 200 195 183 110 30 25 10 34 112 140 148 160 162 165 168 166 160 156 164 175 181 177 176 163 155 153 157 160 163 160 159 161 159 154 148 129 125 186 201 202 200 197 197 196 197 205 215 224 228 228 227 227 228 227 227 226 227 226 227 227 226 226 225 225 225 224 225 224 223 223 223 223 223 222 222 222 223 222 220 220 221 221 220 218 218 218 217 217 217 217 217 216 215 215 215 216 205 
163 174 174 176 175 177 179 180 181 182 184 185 186 187 188 188 190 191 192 194 195 196 196 198 198 200 200 201 201 201 202 203 203 204 206 207 208 208 208 209 210 209 210 212 212 213 214 214 215 215 211 212 206 200 198 137 46 21 16 20 14 11 83 127 142 155 156 158 162 164 164 161 156 150 149 153 155 160 161 160 159 159 157 159 158 147 133 126 139 144 180 200 199 201 198 197 198 205 215 223 228 228 227 227 227 227 227 226 226 226 226 226 226 226 225 225 225 224 224 225 224 223 223 223 222 222 222 222 222 221 220 220 220 220 220 219 218 218 218 217 217 217 217 217 216 215 215 215 216 205 
163 175 174 175 176 178 179 180 181 182 184 185 186 189 188 189 190 191 193 193 194 195 196 198 198 199 200 200 201 201 202 204 204 205 206 207 207 208 209 209 209 210 211 212 212 212 213 213 213 214 209 205 204 200 150 52 23 22 19 17 16 2 34 119 119 138 158 161 164 168 167 162 162 165 167 166 166 167 166 168 167 162 159 155 139 126 137 156 156 141 174 209 201 199 197 196 200 211 220 226 227 227 227 227 227 227 227 227 227 228 226 225 225 225 225 225 225 224 224 225 224 224 223 223 222 222 222 222 222 221 219 221 220 219 218 218 218 218 218 217 217 216 216 216 215 215 215 214 215 205 
163 174 174 175 176 176 177 179 180 182 184 185 186 188 187 188 189 191 192 192 195 195 196 197 198 199 199 199 201 201 202 203 203 205 205 206 207 208 209 207 208 209 210 211 209 212 212 213 212 214 209 201 202 168 55 24 25 21 20 17 11 9 24 115 135 128 135 160 173 175 173 176 180 173 174 179 183 180 178 176 171 166 155 128 127 147 165 163 156 148 145 173 194 201 200 197 196 209 218 225 227 227 228 227 227 227 227 227 227 226 226 225 225 225 225 225 224 224 224 223 224 224 223 223 222 222 222 221 221 221 220 221 220 219 218 218 218 217 217 217 217 216 216 215 215 215 215 213 214 205 
162 174 174 175 176 176 178 179 180 181 183 184 185 187 187 188 189 190 191 193 194 195 196 197 198 198 198 199 200 200 201 203 204 203 204 206 206 207 208 207 209 209 210 210 209 211 210 212 211 211 207 202 179 71 23 26 25 22 19 14 13 11 21 109 138 154 146 137 153 167 177 175 175 170 169 173 180 180 180 175 163 138 121 138 156 165 168 166 158 150 142 133 145 157 172 188 200 210 220 229 231 229 226 226 227 227 226 226 226 226 225 225 225 225 225 224 224 223 223 223 223 223 222 222 222 222 222 220 219 220 220 219 219 219 218 218 217 217 217 216 216 215 215 215 215 215 215 213 215 204 
164 174 173 174 176 178 177 179 181 182 182 183 184 185 187 188 189 190 191 192 193 194 194 196 196 197 198 199 200 199 201 202 204 204 204 204 205 206 206 208 208 208 209 210 209 206 212 211 209 212 203 171 72 25 33 31 28 20 20 18 15 14 20 107 140 153 162 161 143 143 155 157 159 160 161 164 162 155 147 137 129 133 152 161 165 170 172 170 163 156 149 143 148 153 154 160 170 178 188 199 211 219 231 229 228 224 224 227 227 226 224 226 225 225 224 224 224 223 223 224 223 222 223 223 222 222 221 220 221 220 219 218 218 218 217 217 217 216 216 215 215 215 216 215 214 214 215 213 215 203 
163 174 173 174 176 177 178 179 181 181 182 183 184 185 186 187 188 189 190 191 192 194 194 195 196 197 198 199 199 199 200 201 201 203 203 204 204 205 206 207 208 208 209 207 209 211 209 211 203 184 152 68 27 36 33 33 22 18 20 16 16 17 12 94 148 155 165 167 164 159 156 152 153 151 148 148 147 149 150 157 167 167 165 164 171 178 179 173 169 162 152 147 152 161 167 173 177 179 180 179 179 177 181 191 224 231 237 239 219 223 230 220 223 224 223 223 223 224 223 224 222 222 222 222 221 221 221 220 220 220 219 219 219 218 217 217 217 216 216 215 215 215 215 214 213 212 214 213 214 205 
162 174 173 174 176 177 178 179 180 180 181 182 184 185 187 187 188 189 190 192 192 193 195 194 195 196 197 197 198 198 199 201 201 201 202 203 203 204 207 208 209 208 207 205 202 198 188 172 167 153 75 28 32 38 36 27 21 21 19 15 18 21 13 53 151 159 165 172 172 163 166 170 176 179 178 178 181 181 179 178 174 168 162 170 182 184 181 178 172 163 154 151 157 165 172 180 186 190 192 196 197 195 193 170 197 225 249 231 208 248 240 214 226 213 224 223 221 220 219 221 224 224 222 220 220 220 220 219 219 219 217 219 219 217 217 217 216 216 216 215 215 215 214 214 214 212 213 213 214 204 
161 174 172 173 175 175 178 179 178 180 181 182 183 184 186 187 188 189 189 190 192 193 193 194 195 196 197 197 198 198 200 200 200 201 201 202 204 207 204 200 193 187 186 184 180 184 189 182 145 63 31 33 35 46 35 25 21 19 16 18 21 22 23 20 102 166 173 177 180 180 170 167 175 184 188 189 188 187 183 179 172 165 168 180 184 182 180 177 171 163 159 157 164 174 179 185 189 196 199 199 198 204 205 200 212 212 247 246 212 247 251 247 239 231 242 245 235 225 231 218 210 213 217 221 222 220 219 219 218 217 217 218 218 217 217 217 216 216 216 216 216 214 214 214 213 212 213 211 212 202 
161 173 172 174 175 175 178 179 179 180 182 183 183 184 185 186 188 189 189 189 190 192 193 194 194 195 196 196 198 198 199 200 199 202 202 202 198 188 188 186 191 203 208 212 217 222 202 141 42 27 36 34 53 47 24 21 21 17 20 22 24 26 21 21 33 119 167 178 181 184 184 179 176 180 183 187 188 186 182 177 173 174 179 185 184 182 179 176 169 167 164 165 172 178 184 187 194 201 203 204 204 207 202 215 233 230 231 245 215 237 252 252 251 246 241 238 235 230 243 228 218 213 200 198 205 214 218 219 218 217 217 217 217 217 216 216 216 215 215 214 214 214 214 214 213 212 211 210 211 201 
162 172 172 173 174 176 178 178 180 180 181 182 182 183 185 186 187 188 188 188 190 191 192 192 194 194 194 196 197 196 198 199 197 198 198 189 198 220 222 220 230 240 242 242 240 191 104 37 31 34 35 55 55 28 25 21 22 21 23 28 26 24 21 24 29 43 133 170 179 185 187 186 184 185 189 192 193 191 186 184 182 182 186 185 183 180 175 175 175 171 168 176 181 183 188 194 200 203 203 202 204 202 206 239 223 212 248 253 219 229 254 250 252 254 252 247 240 235 241 236 222 227 235 222 194 186 197 207 215 218 218 217 216 216 215 216 215 214 213 213 213 214 212 213 213 211 210 210 211 201 
162 172 172 173 175 175 177 178 178 179 180 181 182 183 184 185 186 187 188 189 190 191 191 191 193 194 194 195 197 196 197 198 195 195 203 197 166 180 220 234 236 232 219 196 141 64 20 30 34 29 48 52 34 27 26 23 24 26 30 30 28 26 27 27 35 41 65 147 167 177 184 187 188 189 191 194 195 192 190 188 187 187 186 184 180 177 177 180 181 177 180 183 185 187 193 197 197 197 199 200 202 214 227 251 251 221 247 255 220 223 255 253 254 253 254 252 253 255 250 243 240 238 242 238 239 200 178 183 190 201 213 216 216 214 215 215 215 213 213 214 213 213 212 213 213 212 211 210 211 200 
160 171 171 173 174 173 175 176 178 179 180 181 181 182 183 185 186 186 187 188 189 190 191 191 192 193 194 194 196 194 195 202 213 231 225 233 165 45 48 79 87 73 56 31 17 21 24 27 32 44 56 41 32 26 28 28 28 32 31 31 28 31 26 26 42 55 49 86 166 173 182 186 186 190 192 193 194 196 195 192 188 187 184 183 180 179 183 188 193 188 186 188 187 186 186 187 192 196 198 209 225 220 220 232 228 234 229 231 218 216 233 229 231 238 235 232 232 227 232 236 240 245 246 245 239 233 220 181 180 180 189 204 213 214 214 214 215 213 213 213 212 212 213 213 211 211 212 210 211 200 
160 171 170 171 172 173 175 176 177 178 178 180 182 182 183 184 186 185 186 189 189 191 191 192 192 193 194 195 194 204 227 237 241 230 225 220 220 187 99 32 21 14 10 15 24 20 20 27 41 52 51 41 30 28 30 32 33 34 35 30 31 36 25 32 47 55 72 79 144 179 181 188 191 190 189 191 192 192 192 189 186 190 192 190 185 190 197 199 194 188 185 184 186 186 187 195 200 212 230 251 255 254 254 253 251 251 250 251 235 225 248 244 244 245 244 245 244 243 242 235 229 223 226 230 242 236 234 207 176 179 178 182 198 210 213 213 214 213 212 212 212 212 212 211 211 211 210 210 211 201 
160 171 170 171 172 173 175 176 177 178 178 180 181 181 182 183 185 185 186 188 187 189 190 191 191 191 193 188 211 242 235 229 233 231 239 236 225 222 201 153 79 26 25 25 23 19 24 38 48 49 44 35 35 35 40 41 37 36 38 37 36 32 24 48 59 55 99 113 128 182 183 190 200 198 196 196 195 194 193 193 196 201 203 198 198 197 196 195 191 190 191 192 197 197 203 216 227 240 249 245 244 242 245 246 251 253 251 255 236 222 255 254 255 252 251 254 250 246 241 248 255 250 245 233 213 233 229 226 190 176 179 177 181 197 209 212 214 212 212 211 211 212 212 211 211 210 208 208 210 201 
160 169 169 171 172 173 175 175 176 177 178 179 180 182 182 182 184 184 185 186 187 188 188 189 192 191 191 219 218 225 234 246 249 250 248 249 235 203 158 61 25 28 28 20 22 23 32 41 44 39 46 42 42 46 42 40 39 41 45 37 39 25 62 93 50 66 133 147 146 183 188 191 199 204 207 210 209 208 207 208 213 213 210 209 207 201 197 200 202 202 202 206 216 228 242 254 254 250 240 242 248 248 248 246 239 245 252 254 237 220 255 252 250 250 248 232 224 211 216 221 228 251 252 246 233 209 226 212 202 180 176 177 175 182 201 210 211 211 211 210 209 210 210 209 209 209 208 208 209 200 
160 168 168 170 171 173 174 174 175 176 177 178 179 180 181 181 183 183 184 186 187 187 188 189 190 185 216 234 215 231 249 245 246 247 247 234 212 229 206 122 86 34 22 21 20 21 32 34 39 49 45 40 41 38 38 43 45 47 41 40 29 85 215 128 129 162 184 184 181 189 189 192 195 197 200 208 211 211 210 210 210 207 205 207 205 203 205 212 212 223 231 233 247 252 248 247 248 247 249 250 250 249 249 249 249 233 247 255 238 217 255 249 251 240 227 219 241 245 211 242 227 218 248 245 236 231 206 193 235 193 172 175 175 175 188 205 210 210 210 209 209 209 208 208 208 208 208 207 209 199 
159 170 169 171 172 172 174 176 176 176 178 179 179 180 181 182 183 183 184 185 187 188 188 190 186 206 223 230 239 216 246 242 251 248 227 220 199 235 222 168 92 23 24 21 22 25 34 44 55 56 48 45 41 48 63 59 51 49 48 49 110 233 214 199 255 249 219 240 231 225 218 216 209 204 206 207 207 205 206 208 209 214 220 225 230 234 242 246 212 251 253 239 253 251 251 252 253 252 252 252 252 251 251 250 251 234 250 255 243 218 254 252 236 215 229 246 247 253 231 219 255 234 215 248 235 240 203 193 224 193 176 176 176 175 179 198 209 211 210 209 210 210 208 209 209 209 208 206 209 200 
152 162 161 164 164 164 166 167 169 169 169 171 171 172 173 173 174 176 177 178 179 180 181 181 186 213 208 232 241 213 227 234 236 216 234 217 98 90 78 40 33 25 26 21 26 32 42 55 50 48 54 53 52 62 57 55 57 57 60 152 246 229 211 248 244 227 215 249 247 247 246 245 240 239 236 230 232 233 232 231 229 234 245 247 248 248 247 243 205 236 246 229 235 245 243 244 244 244 244 244 244 244 244 247 232 232 246 244 234 205 246 231 208 244 211 223 239 238 239 197 226 247 229 208 226 204 201 203 204 206 186 167 170 168 170 182 197 203 201 201 202 201 200 200 200 200 200 199 202 192 
