P2
150 65
255
83 86 87 87 87 88 87 87 86 81 83 85 85 87 98 84 80 84 79 70 62 41 35 33 32 36 35 30 33 25 65 29 53 139 135 116 94 70 50 35 34 71 143 116 57 16 20 20 12 20 18 20 14 15 19 22 27 33 36 48 64 62 58 64 68 62 57 52 42 37 31 20 15 49 146 147 157 146 143 142 149 168 167 165 155 151 167 171 162 149 141 120 104 109 118 113 137 124 109 106 99 119 101 96 92 86 89 63 15 29 16 15 12 55 76 74 74 88 69 57 56 59 64 68 63 76 45 28 30 63 66 75 72 71 71 48 39 55 56 65 61 85 66 35 65 101 65 60 50 35 
85 89 89 91 91 91 90 91 90 84 86 88 89 90 102 89 85 86 68 44 37 34 37 39 38 37 33 32 32 24 46 37 50 137 142 135 78 23 32 30 23 70 151 121 59 15 19 20 17 19 20 18 17 15 22 23 35 53 51 51 65 41 42 63 37 53 57 54 53 63 65 59 71 100 149 153 165 152 147 148 158 176 172 172 154 124 131 133 132 128 128 112 112 121 122 119 144 131 113 111 103 127 104 98 94 86 91 62 20 32 17 16 17 61 85 81 80 93 64 59 56 61 69 78 79 72 27 22 46 86 77 72 68 65 70 50 44 95 96 77 87 122 102 93 121 141 135 143 149 151 
86 91 89 90 91 91 91 91 91 86 86 87 88 90 102 90 81 71 51 49 58 67 71 48 37 34 34 34 35 51 64 80 92 133 146 141 80 30 34 34 28 68 153 121 56 18 25 17 22 20 17 18 20 16 20 27 44 60 68 81 86 70 66 72 72 81 91 88 88 84 81 82 80 95 151 153 165 154 149 150 159 174 171 180 153 114 139 132 127 119 117 114 111 118 122 121 143 132 116 112 104 127 97 93 93 86 92 56 22 30 19 20 19 66 175 175 152 86 60 55 60 73 68 97 88 46 23 19 95 173 129 94 106 113 128 132 140 172 173 165 170 172 175 179 175 173 174 172 171 165 
87 92 90 91 91 91 92 93 93 86 87 89 89 90 101 89 79 86 107 116 120 127 115 47 38 38 38 35 48 104 116 121 122 136 148 145 82 27 36 32 27 68 153 123 53 17 28 20 20 19 19 17 19 12 19 42 52 58 70 74 58 50 64 81 79 88 82 61 63 56 54 53 52 67 152 154 165 154 153 150 157 179 173 135 142 128 179 139 119 106 120 106 118 125 125 121 151 137 115 104 100 126 96 93 86 81 87 48 17 25 11 9 4 65 157 168 140 81 67 74 105 133 114 129 132 132 140 149 164 169 170 173 175 177 176 177 174 167 168 170 168 167 167 167 167 168 167 167 168 166 
87 91 91 91 93 92 92 93 93 88 87 89 91 91 101 90 77 117 126 124 123 126 117 47 39 39 41 38 36 96 110 109 109 129 149 146 85 28 37 34 29 73 152 122 53 15 27 23 21 23 22 18 23 28 33 54 60 63 87 92 70 28 42 75 78 81 72 73 77 72 66 60 66 88 152 155 170 162 139 155 163 170 115 40 32 44 79 60 33 19 41 43 50 64 70 92 122 105 96 112 106 141 99 87 88 79 86 55 42 59 62 76 91 123 133 141 152 159 161 169 172 172 175 175 175 176 176 175 171 169 168 167 168 168 168 168 169 171 172 172 172 172 173 173 173 173 172 171 169 160 
88 92 92 91 93 93 93 92 93 89 89 91 92 92 103 93 75 113 132 148 151 137 120 50 40 40 40 38 37 84 115 114 112 133 149 146 86 30 41 38 31 74 154 126 51 19 23 24 21 22 21 19 30 32 60 83 93 80 85 77 66 39 64 62 56 60 62 59 53 56 75 75 73 102 155 162 166 113 104 117 71 46 17 17 39 23 38 38 35 27 33 41 16 22 33 27 25 21 40 93 120 158 123 123 143 149 153 159 167 171 177 179 180 176 176 173 172 170 170 170 169 169 169 169 171 171 171 172 174 176 178 178 177 174 173 170 166 166 163 160 156 149 141 134 125 113 100 87 72 56 
88 92 92 93 93 95 95 96 96 90 89 91 93 93 104 95 76 111 134 135 132 117 124 51 40 40 40 41 37 91 122 128 124 141 152 149 88 20 30 31 21 67 158 124 53 22 24 23 23 25 18 18 20 38 52 59 62 67 57 53 44 44 30 26 32 33 39 45 47 66 68 59 56 64 137 109 56 26 56 49 22 35 43 46 29 51 33 37 42 39 45 46 37 44 46 38 21 25 35 40 48 47 71 106 169 175 168 165 168 169 169 169 169 172 173 174 175 177 178 178 176 175 172 169 162 161 158 153 146 137 116 106 99 100 82 70 65 62 59 59 57 50 44 38 33 32 22 20 21 19 
89 94 93 94 95 95 95 96 97 90 88 91 93 93 102 97 78 107 127 123 113 124 131 51 39 40 40 41 34 94 127 129 128 139 155 150 97 63 76 81 89 88 142 128 51 20 26 29 27 26 22 13 20 14 13 20 31 42 39 35 34 28 39 45 50 58 61 63 64 65 50 46 54 54 82 45 24 28 40 48 38 31 41 48 40 47 29 25 33 30 48 36 41 39 45 58 38 44 31 14 13 8 15 39 83 93 121 146 167 172 166 160 158 154 147 140 132 119 110 109 104 94 87 77 60 58 57 51 45 38 28 29 29 33 28 24 25 25 28 30 32 33 35 38 41 46 43 46 52 50 
89 93 93 94 95 96 96 95 96 91 89 91 93 94 101 97 78 109 116 122 114 105 95 53 39 41 41 40 35 77 102 102 89 130 161 148 122 146 145 139 146 130 128 124 50 17 33 33 25 18 12 19 37 41 49 57 65 81 96 95 104 116 119 120 119 123 119 111 113 121 129 141 119 47 59 53 30 32 40 51 41 52 44 33 37 36 34 33 37 42 30 27 56 36 32 45 38 62 41 42 24 26 32 21 13 22 31 42 52 40 35 28 32 34 30 27 29 31 29 27 26 25 24 24 29 30 32 36 42 46 51 56 58 60 63 65 67 71 67 76 79 86 90 91 94 97 98 98 101 97 
89 95 94 95 95 96 95 96 97 93 90 91 92 95 102 96 79 65 62 57 56 53 52 50 39 39 38 38 35 44 54 56 54 130 162 149 129 152 138 142 158 132 130 130 48 18 20 10 23 51 53 121 140 135 145 145 144 145 141 143 145 145 146 146 146 149 151 152 155 159 145 123 117 72 52 57 42 32 34 31 39 48 53 66 52 49 61 60 62 52 44 39 39 29 18 26 23 46 49 63 49 52 32 24 12 16 13 15 14 8 8 25 42 44 45 53 63 77 89 68 66 65 46 36 45 50 56 53 58 65 71 73 72 75 79 81 82 84 84 89 85 86 83 78 75 74 69 64 64 57 
91 96 95 95 96 96 97 97 99 93 90 93 94 94 102 99 80 56 54 54 57 58 58 52 39 40 40 39 37 44 56 59 58 135 165 153 108 104 104 103 100 93 142 129 74 56 68 74 108 141 141 137 135 136 137 138 140 144 144 146 149 149 152 154 156 154 153 150 150 124 70 53 51 68 75 59 59 57 59 64 67 73 81 98 114 118 124 113 116 100 94 92 87 67 60 38 27 26 36 41 42 60 52 42 42 36 25 19 23 24 32 54 62 88 117 133 137 141 145 129 126 123 104 104 108 111 113 108 107 110 105 107 162 168 168 167 163 160 159 156 151 142 137 131 126 122 120 121 122 114 
91 97 94 95 97 97 97 98 98 94 90 93 96 95 100 100 81 61 57 55 55 54 55 51 35 34 33 31 30 40 56 61 63 128 154 142 106 68 82 89 96 113 131 127 132 136 140 144 142 137 140 144 144 145 146 146 146 143 140 135 127 121 107 98 88 79 68 61 49 29 23 27 52 71 76 76 91 112 119 130 136 152 166 181 189 190 189 187 185 175 166 159 159 151 146 129 97 66 41 30 33 47 48 38 55 49 30 27 27 22 32 53 83 126 165 171 173 172 171 171 169 169 167 163 158 160 159 154 153 158 155 157 199 202 200 199 198 197 196 197 197 198 200 199 198 194 190 185 180 174 
92 96 95 97 97 97 97 98 98 95 91 93 96 96 101 103 82 52 50 54 57 60 63 65 59 66 74 81 90 99 108 114 120 123 125 125 131 139 140 140 139 135 130 129 126 126 123 121 118 113 108 99 90 83 72 61 53 46 41 34 30 26 23 21 19 21 26 27 20 21 37 60 76 71 95 136 155 159 166 174 181 186 190 195 197 198 199 200 198 194 191 184 175 170 165 162 160 143 122 88 68 53 40 27 30 44 56 43 25 18 0 55 155 161 165 166 168 168 169 169 165 164 161 152 180 171 166 165 155 99 88 123 214 200 198 195 192 192 189 188 188 181 174 177 171 172 173 173 172 160 
93 97 96 98 97 98 98 98 99 97 93 94 96 97 101 103 95 86 92 101 107 111 116 120 125 127 127 128 127 125 121 118 117 111 103 98 91 83 77 72 75 69 60 54 51 51 46 31 30 21 17 19 20 8 13 17 20 25 29 34 40 43 47 51 56 59 48 26 23 38 77 72 58 110 154 164 169 171 176 184 186 190 199 203 205 205 209 210 212 202 195 191 186 181 173 164 163 159 152 143 128 113 92 61 35 32 52 62 34 19 13 26 59 83 122 164 174 177 175 172 173 172 162 56 97 159 177 172 163 56 33 99 225 205 203 201 199 196 194 192 192 178 87 88 97 54 54 42 46 139 
93 98 97 98 98 98 99 99 101 98 94 95 96 97 102 104 104 112 110 108 104 98 95 90 79 71 68 64 62 65 65 62 63 58 50 45 43 41 45 50 54 48 49 66 64 63 65 81 87 87 88 90 89 71 79 82 79 77 76 71 69 69 68 67 66 51 29 25 33 54 83 66 121 165 170 177 180 186 192 196 198 205 210 211 211 213 216 213 212 207 199 196 196 196 187 181 174 169 159 152 144 134 127 115 87 45 34 59 48 23 19 14 36 54 64 116 155 174 177 175 173 175 169 40 104 163 175 167 158 63 38 119 228 208 206 204 201 198 196 193 194 177 31 28 79 26 13 0 0 130 
91 98 97 97 98 97 99 100 101 99 94 95 96 99 101 107 87 86 74 75 73 68 68 57 55 67 68 71 72 73 74 75 75 76 78 81 83 89 93 99 98 81 71 87 89 89 84 140 159 151 148 143 142 143 140 139 138 137 135 139 131 79 58 55 52 38 23 24 40 67 82 129 162 167 183 186 192 199 203 208 208 212 217 217 218 222 219 215 216 212 204 204 205 201 199 193 185 179 173 167 153 138 133 129 117 92 42 44 69 39 18 15 30 46 49 83 122 170 179 174 171 169 166 50 113 167 176 169 157 71 62 144 226 209 209 205 203 201 197 198 199 161 25 52 85 36 15 8 6 135 
92 98 97 98 98 100 100 99 100 100 96 95 98 99 100 107 89 90 73 66 65 80 91 92 90 112 110 107 103 102 105 105 101 97 93 91 89 68 64 66 70 68 113 122 116 123 118 137 146 140 140 139 139 139 136 137 140 141 141 117 105 63 13 38 62 33 20 32 54 75 120 167 161 170 187 191 197 203 207 209 213 215 220 221 223 223 224 221 217 209 206 210 211 207 202 198 194 190 184 176 161 150 141 133 120 104 80 40 56 62 32 12 26 49 44 72 108 152 171 172 170 169 163 43 96 163 178 170 161 77 54 154 228 210 210 208 205 203 201 189 127 133 18 53 70 25 10 6 4 138 
94 98 98 98 100 101 100 100 102 101 96 95 98 100 101 106 94 94 103 94 97 121 67 55 79 117 113 106 103 101 100 100 103 120 114 113 108 79 73 70 69 73 146 155 130 125 129 150 155 148 144 140 138 125 117 121 124 124 124 71 64 54 24 100 138 28 26 54 66 101 157 174 167 174 194 197 198 207 211 213 217 220 220 221 223 225 224 224 217 210 217 214 211 209 206 203 194 194 190 177 167 163 153 141 123 104 104 73 54 58 45 24 23 39 44 55 85 143 174 173 170 168 167 51 125 171 179 170 168 164 151 193 221 212 210 209 206 202 211 159 9 107 17 57 55 25 9 6 6 145 
93 98 98 98 100 100 101 102 104 102 96 98 99 100 100 108 96 94 100 105 90 40 27 38 89 116 115 111 105 102 101 97 114 154 137 121 130 133 38 35 35 40 155 151 134 134 139 157 171 173 164 155 144 134 134 133 132 130 125 76 78 44 9 110 113 19 50 55 76 135 175 179 168 179 197 199 202 207 213 214 218 219 223 223 222 224 223 219 214 216 215 212 208 210 209 201 197 193 188 183 175 169 163 152 132 110 114 103 73 69 46 31 9 36 48 60 65 100 155 170 170 171 164 42 88 159 181 171 168 165 158 201 219 209 209 209 207 202 213 146 21 110 8 68 57 32 5 7 7 149 
93 99 98 99 100 102 102 103 103 102 97 97 99 100 100 112 96 97 83 84 109 48 20 50 97 116 115 111 107 106 104 97 122 161 147 125 135 154 26 7 12 20 159 159 144 146 154 159 179 182 176 163 156 127 115 118 115 110 109 76 82 85 67 90 63 32 42 58 96 152 180 181 173 180 198 205 206 211 212 208 212 216 218 217 216 217 216 215 215 212 208 207 206 204 204 199 192 189 189 184 179 174 170 162 141 120 117 115 86 63 39 36 19 24 61 63 71 100 144 160 168 169 169 52 135 176 179 173 169 165 157 206 216 210 210 209 207 203 217 129 24 105 6 70 48 22 5 7 7 150 
94 99 98 99 101 101 101 102 104 103 96 97 99 101 100 112 99 96 99 111 106 23 22 52 94 115 113 112 109 108 105 99 122 167 149 132 135 164 53 13 20 28 166 162 148 152 164 149 180 185 183 168 162 138 119 119 120 114 112 78 88 76 70 74 41 25 33 57 113 167 180 185 181 189 205 210 209 210 213 211 212 215 215 213 209 210 213 214 214 211 207 204 203 201 200 194 186 183 179 178 176 175 175 167 150 130 119 119 88 59 39 28 21 29 65 66 77 87 146 169 170 170 164 42 82 158 186 171 170 167 163 208 216 211 210 208 206 203 219 108 30 101 5 54 35 19 5 7 7 149 
96 100 100 100 101 102 102 102 104 104 98 99 98 101 100 112 102 98 98 116 102 22 22 52 96 114 112 110 108 105 104 100 119 167 148 137 136 166 70 11 21 31 168 163 147 158 169 135 179 187 191 179 167 145 132 130 124 126 120 78 95 93 82 62 25 24 29 56 132 174 180 184 187 196 206 208 208 209 214 215 215 217 218 217 213 211 211 211 212 210 210 207 205 205 202 197 191 185 178 177 179 180 177 168 153 137 122 120 88 50 40 25 17 23 71 71 88 83 128 164 170 169 171 56 146 180 181 173 170 166 166 213 217 213 210 208 207 202 219 91 43 96 7 64 29 13 6 6 7 151 
96 100 100 101 101 102 103 103 102 103 99 98 98 100 100 111 102 99 87 91 94 20 23 50 96 114 112 109 107 105 104 98 117 167 148 135 136 166 92 13 27 40 171 164 150 159 170 123 172 195 154 147 177 151 132 131 128 126 119 80 103 100 93 54 18 25 24 61 149 176 182 189 191 197 205 208 211 214 219 216 218 219 222 221 219 218 216 217 216 213 217 217 212 211 209 205 199 195 185 181 173 169 175 168 153 146 130 119 92 43 28 25 18 14 62 82 95 90 123 162 171 170 166 48 80 158 188 173 171 165 168 214 216 212 210 208 207 203 216 71 64 83 3 51 27 13 10 13 13 154 
96 100 100 102 102 102 102 103 103 104 98 98 99 100 101 109 102 97 96 119 86 19 27 52 99 114 112 108 105 103 102 95 114 165 161 146 134 160 113 19 40 59 172 162 152 156 170 110 167 192 168 145 176 160 137 135 132 130 123 84 111 110 97 38 18 24 21 68 154 175 183 190 190 181 180 192 196 203 208 215 222 225 223 220 218 219 221 221 220 218 220 220 215 210 212 212 211 207 201 191 186 177 168 163 162 149 136 120 102 56 28 22 15 13 67 90 99 95 119 164 174 172 173 60 148 184 183 174 172 167 170 217 215 212 210 209 207 202 212 57 64 85 22 35 25 12 20 21 20 155 
96 102 100 101 102 103 104 104 104 104 99 99 100 101 95 107 102 98 98 123 90 18 26 54 102 112 110 108 103 101 101 99 115 147 75 79 121 159 129 25 48 72 173 164 158 149 167 101 167 187 189 185 170 167 138 134 133 132 125 85 118 118 111 45 17 20 21 64 148 173 183 171 138 121 130 141 133 129 132 138 143 175 203 213 218 215 215 217 219 214 208 213 212 206 206 198 188 175 166 157 150 148 133 127 141 144 134 119 113 72 31 26 16 32 88 93 104 106 132 174 178 175 169 49 75 157 190 174 172 164 175 219 214 212 210 208 206 204 205 42 69 101 41 29 21 11 28 27 25 155 
94 100 101 101 102 102 102 102 104 104 100 99 100 100 101 108 102 99 86 95 91 18 27 55 104 111 108 107 102 102 108 97 81 159 42 42 154 161 147 34 43 69 174 161 153 147 166 102 171 187 188 187 174 171 145 135 133 135 127 86 130 128 126 56 13 22 22 62 154 176 169 128 127 145 148 166 182 178 161 145 128 121 136 169 190 199 197 205 212 199 193 200 196 191 158 113 101 96 97 100 109 111 103 94 85 99 115 121 114 79 35 21 20 34 96 95 103 114 162 188 183 175 178 63 156 188 184 177 172 164 179 221 213 211 209 206 204 205 196 29 82 87 28 32 18 9 35 35 31 158 
94 99 100 99 101 102 102 102 103 105 99 97 99 100 100 104 100 98 95 118 90 17 28 57 108 110 106 103 103 110 89 37 53 168 86 24 122 123 160 46 29 53 174 158 150 149 165 97 163 188 187 189 178 172 152 135 137 139 130 82 112 148 118 36 20 26 24 77 165 174 165 157 163 177 186 189 184 188 189 181 170 165 159 154 161 182 185 201 209 189 176 174 160 151 143 134 140 157 174 181 183 169 142 121 104 89 88 115 118 82 39 22 21 22 92 99 98 122 176 195 186 180 175 58 86 153 191 175 173 164 182 221 212 209 208 206 204 207 184 21 89 99 35 30 17 5 28 37 32 161 
93 99 98 98 100 102 103 103 105 106 99 96 97 98 100 104 102 97 97 123 89 17 29 60 105 109 104 108 111 72 31 23 62 157 121 56 73 94 173 59 23 43 169 166 158 149 165 95 153 189 185 191 184 172 158 136 136 141 130 86 103 129 126 126 64 20 30 116 172 177 179 166 163 159 133 110 112 102 92 87 101 114 118 146 147 161 194 211 213 200 179 153 134 127 128 124 129 136 138 135 132 141 148 141 132 134 122 114 113 87 44 18 18 22 81 98 91 128 180 196 188 181 185 66 154 190 183 177 173 163 185 220 210 208 207 206 203 209 169 14 94 90 26 26 13 9 16 35 29 161 
93 97 97 99 100 102 102 104 104 104 99 95 95 98 100 104 100 96 87 95 82 18 28 62 104 107 112 107 57 27 33 27 65 160 149 107 26 21 150 78 15 39 169 163 157 153 163 97 146 188 184 190 188 172 165 138 135 138 127 93 122 126 144 190 112 24 47 146 178 183 186 169 151 131 89 118 178 82 52 52 91 186 142 135 150 144 185 203 203 192 171 113 113 124 115 139 94 65 51 65 113 87 83 120 128 129 130 116 113 90 44 14 25 13 62 103 91 140 194 199 192 186 180 63 96 146 189 174 173 164 189 217 209 208 207 205 202 211 153 11 101 91 27 27 10 13 14 24 29 162 
91 97 96 98 98 101 103 103 103 104 98 94 96 97 100 103 100 94 97 113 80 15 27 66 110 114 88 40 28 32 31 27 68 156 150 104 46 17 118 101 6 44 170 160 153 154 160 103 131 186 184 187 188 174 169 142 135 143 132 94 130 129 154 172 149 67 77 168 179 194 196 178 164 154 142 150 162 129 93 99 139 176 161 153 161 151 183 200 197 190 155 103 129 125 154 197 113 56 48 78 156 123 72 89 116 124 131 129 119 99 48 17 26 55 51 102 94 150 201 200 195 186 190 67 154 187 177 173 171 163 194 218 209 207 206 205 200 213 130 15 102 21 22 25 6 5 30 26 34 165 
90 96 96 97 98 99 100 101 103 103 97 92 94 96 98 103 98 86 71 74 66 30 31 66 103 71 30 32 35 35 39 39 75 158 161 108 55 22 89 124 12 48 177 164 158 160 156 109 122 184 184 187 190 178 171 146 140 142 118 91 110 104 160 184 192 119 108 175 180 199 199 190 187 179 172 166 158 164 169 168 161 157 162 166 155 165 187 204 198 194 159 105 129 149 144 150 154 133 117 128 125 115 107 116 123 129 144 137 123 108 51 28 50 95 58 93 95 127 187 202 196 190 184 56 73 143 185 170 170 165 202 216 208 207 205 204 199 214 109 21 105 37 19 22 15 76 76 36 27 166 
88 94 95 97 97 98 98 99 100 101 95 91 92 95 99 102 97 79 86 90 88 90 89 64 45 32 34 36 31 52 41 63 76 66 88 84 52 45 85 134 55 51 125 123 128 140 138 94 106 179 185 187 190 182 173 164 142 96 88 100 92 79 157 189 189 154 128 176 184 194 195 199 200 201 201 201 203 197 190 181 182 185 181 168 172 177 187 205 207 201 160 116 118 141 159 160 159 163 160 152 145 146 146 144 147 144 144 137 124 114 57 41 107 153 36 85 98 106 175 202 196 189 194 70 146 184 177 170 174 173 200 217 207 206 205 204 198 212 89 28 110 65 39 21 25 104 103 70 42 170 
86 92 93 94 95 96 97 97 98 102 95 90 92 94 99 101 96 78 115 125 124 125 132 89 39 35 35 36 32 53 36 70 67 22 29 34 27 83 158 124 97 104 90 90 85 83 82 70 75 178 182 181 186 196 172 124 80 65 80 88 95 83 142 202 212 178 147 168 185 191 198 207 207 209 212 212 212 210 211 210 205 204 196 180 180 173 181 200 209 190 150 118 122 141 165 173 177 179 182 188 185 182 181 174 166 158 142 132 125 109 62 74 123 157 18 75 100 111 190 204 198 193 191 63 70 134 186 173 179 101 190 218 207 206 205 202 197 210 71 39 106 48 24 21 13 75 110 98 81 173 
89 94 92 95 96 96 98 98 99 103 92 87 90 93 98 100 97 76 108 122 121 119 129 101 40 36 36 36 31 53 41 60 65 28 40 36 31 79 158 130 100 141 141 143 141 138 145 112 89 183 195 186 182 152 153 95 106 100 96 94 93 83 145 209 212 194 164 158 184 189 201 209 211 213 213 214 213 214 212 213 211 207 193 180 172 176 192 207 206 192 159 116 125 148 179 181 183 188 190 193 194 192 189 182 176 169 149 128 120 96 60 149 140 132 6 59 105 114 194 206 199 191 199 73 145 186 179 180 86 68 207 212 205 205 204 201 197 204 44 43 112 53 14 20 5 28 74 99 99 177 
89 94 94 95 95 96 97 98 99 102 92 87 91 95 98 99 96 74 110 120 116 110 134 103 40 36 35 35 33 51 41 62 66 28 36 36 32 75 158 134 95 138 136 138 137 142 121 53 49 102 128 128 141 67 121 131 156 148 150 150 151 149 174 199 179 190 177 149 177 190 199 207 210 214 216 219 220 214 214 212 212 202 189 175 174 203 213 209 216 214 193 140 111 149 177 190 191 195 195 195 198 197 193 187 179 171 152 126 109 79 87 193 157 92 0 47 106 127 202 207 198 192 193 67 64 134 193 83 63 115 210 210 205 204 203 200 197 194 53 77 92 37 20 17 7 21 42 67 93 180 
84 89 87 87 87 87 86 88 88 90 84 80 87 93 98 98 96 76 105 130 128 125 130 105 42 36 36 37 33 52 42 63 70 28 39 40 30 75 158 135 93 142 144 131 141 151 127 62 57 50 42 43 41 38 61 123 145 141 143 143 143 148 181 190 198 187 185 147 175 187 198 204 210 214 215 219 220 218 215 215 213 208 189 169 185 211 222 228 231 228 212 165 105 146 185 190 194 197 195 196 198 199 195 188 178 166 150 126 95 75 104 171 155 77 12 29 95 143 208 213 206 199 210 77 132 186 88 71 105 108 214 208 203 200 199 196 195 187 171 166 79 35 20 15 6 8 6 43 76 175 
69 73 71 72 73 71 72 72 74 77 74 75 78 81 85 90 96 76 97 118 125 124 128 111 42 36 36 37 34 47 39 66 64 19 32 36 29 77 159 135 90 142 142 127 139 149 133 69 70 74 81 85 62 77 73 118 154 144 148 152 154 150 172 203 212 208 179 144 171 183 195 201 206 212 215 215 216 218 214 214 215 211 184 179 169 173 204 225 215 215 179 138 134 125 181 196 195 191 196 198 195 193 189 181 169 159 144 121 84 71 122 135 143 101 39 40 43 73 107 116 122 129 138 72 76 73 70 108 82 114 225 211 210 209 205 204 204 190 187 164 72 29 10 6 4 1 14 63 69 182 
73 78 78 80 80 79 79 80 79 80 76 76 75 76 74 82 95 79 59 65 72 77 82 78 45 37 38 38 36 34 78 105 65 50 39 34 23 69 159 132 88 141 144 145 143 145 145 133 138 128 106 104 98 99 74 118 152 128 119 129 124 134 157 177 204 213 200 147 165 180 187 198 205 211 214 215 214 214 213 214 216 208 180 161 161 135 168 191 190 172 118 147 143 120 171 198 196 193 195 194 197 192 184 174 166 150 138 114 70 95 169 150 133 108 31 36 32 48 74 76 74 73 72 84 73 72 92 90 86 96 127 130 136 140 146 151 158 155 156 133 66 34 15 10 8 6 65 71 84 181 
65 68 68 65 64 65 64 64 66 65 66 65 65 67 65 77 96 82 57 55 54 55 55 57 48 38 40 39 38 35 76 97 116 130 129 124 115 93 144 136 85 121 130 142 143 143 148 148 158 163 118 157 163 169 114 115 152 147 150 150 148 153 158 122 100 149 162 141 165 178 184 188 202 208 212 215 213 211 211 211 206 207 197 171 152 162 163 155 147 135 121 140 146 156 190 193 195 194 193 189 192 189 182 170 160 148 133 103 73 151 171 166 138 60 31 35 34 49 77 82 81 82 79 79 76 85 88 89 86 82 75 75 73 73 74 75 78 81 82 85 87 89 88 86 82 86 71 73 79 88 
60 62 62 62 62 61 61 61 61 61 60 60 59 58 54 68 96 82 56 57 59 60 60 61 48 38 40 39 38 40 70 89 110 125 126 119 147 117 138 134 69 66 73 80 87 94 102 132 137 128 137 148 153 163 113 115 149 148 153 155 150 153 161 121 61 102 162 155 158 175 184 185 197 205 208 213 210 207 208 208 204 199 197 189 178 183 186 170 165 168 150 147 160 170 175 186 186 191 190 190 189 182 177 166 152 144 125 91 63 136 140 113 61 28 34 33 34 58 79 78 78 77 76 79 75 84 159 165 159 153 151 147 139 131 125 118 113 106 100 97 94 87 84 82 89 86 57 74 88 79 
44 45 43 43 42 41 39 38 38 33 26 27 26 28 23 47 97 89 59 51 53 54 56 57 47 36 37 38 35 56 53 37 90 96 115 116 147 116 136 130 66 67 68 68 68 65 78 124 116 116 127 116 120 113 91 98 115 123 137 141 141 143 152 130 68 101 153 143 160 170 180 183 193 199 203 207 207 203 202 200 197 196 198 197 195 199 197 193 193 183 175 172 166 165 172 180 184 181 182 183 182 179 174 159 148 138 113 86 21 19 23 16 15 28 32 37 55 74 76 75 77 77 76 79 74 85 161 170 174 176 179 182 179 179 179 178 177 177 174 172 166 161 160 157 101 79 53 96 177 164 
35 37 36 36 35 36 36 35 36 34 25 26 27 29 25 46 95 92 95 89 85 81 75 72 59 48 47 48 46 57 58 72 63 17 29 38 54 80 149 132 73 69 71 72 73 71 89 148 150 153 152 144 139 131 123 79 72 76 79 83 88 90 97 98 71 98 153 142 162 168 174 183 188 196 199 200 202 202 201 198 195 194 205 202 203 212 210 204 205 197 184 180 169 169 176 178 184 178 174 172 174 176 164 152 143 128 108 69 34 56 48 46 51 86 106 104 101 91 83 79 78 73 73 79 72 86 161 173 169 172 173 174 175 178 179 175 178 175 177 177 178 177 174 186 109 79 53 97 172 163 
38 39 38 38 38 37 37 36 37 34 25 28 27 29 25 45 97 85 86 91 97 101 103 104 103 101 97 93 89 90 85 87 73 45 48 40 23 77 161 130 73 69 75 75 77 73 92 168 170 160 159 161 162 163 159 84 76 79 79 80 79 78 78 82 72 106 165 165 157 171 171 182 183 188 194 198 198 204 208 206 210 200 199 196 193 196 198 198 193 186 181 180 179 184 188 188 190 181 169 167 165 165 156 149 138 118 109 43 33 67 65 64 85 141 166 166 164 163 157 152 149 149 101 74 77 90 163 173 167 169 172 168 170 170 176 169 173 164 178 172 176 175 177 175 105 80 54 92 167 172 
37 39 38 39 39 38 37 37 37 33 27 26 27 30 28 43 94 86 83 64 54 60 74 86 91 96 102 106 108 109 107 109 108 100 98 93 79 90 125 105 74 72 72 73 73 75 77 97 119 131 145 153 159 170 170 88 75 79 80 81 82 82 84 86 71 98 167 178 165 162 172 175 179 187 190 192 197 201 195 179 157 147 144 139 138 145 141 138 147 143 133 137 142 147 156 169 184 184 174 161 158 153 144 140 130 114 96 15 35 66 61 60 91 140 163 162 164 163 167 166 164 170 114 74 72 89 162 176 189 194 206 186 182 183 182 182 178 179 177 184 176 178 176 178 107 80 55 95 170 172 
36 40 39 39 40 39 37 37 36 32 30 27 28 30 29 43 92 89 91 90 81 73 72 75 67 65 75 79 85 91 98 103 108 112 114 116 117 118 122 123 113 106 103 97 92 91 86 62 58 55 56 65 75 84 101 86 82 84 87 87 85 85 84 87 73 90 157 161 182 140 172 173 172 177 186 190 192 190 190 184 166 151 151 155 162 161 160 158 157 147 138 127 121 120 127 153 174 179 172 157 157 148 137 133 121 112 54 4 38 66 63 64 113 155 158 160 165 158 163 158 159 166 109 72 70 90 158 187 211 208 211 208 201 205 200 202 198 194 192 211 199 189 175 181 107 79 51 96 170 171 
37 39 39 39 39 39 38 38 36 33 23 27 28 29 29 40 92 90 92 96 95 81 78 75 61 59 65 66 66 66 69 72 78 87 97 102 106 110 112 116 119 121 122 123 122 121 119 119 115 109 101 93 81 72 68 76 76 80 82 84 85 87 88 92 83 84 146 161 191 139 145 169 166 166 177 188 190 188 190 189 192 192 178 173 179 191 191 183 185 174 161 147 147 160 172 176 175 177 168 159 152 137 131 124 115 81 23 8 36 67 60 81 141 125 162 152 152 165 157 164 155 166 115 69 69 89 158 184 206 209 200 207 215 210 211 212 210 212 209 209 210 197 174 179 102 79 51 87 166 170 
37 39 38 36 38 37 36 35 36 33 24 27 28 29 27 38 91 90 92 81 69 62 61 75 104 112 108 95 95 89 84 85 84 80 81 80 78 84 91 100 107 110 112 117 121 124 127 129 129 128 129 129 129 126 122 106 99 95 91 87 85 86 85 91 76 88 179 199 218 193 130 140 164 159 164 178 183 184 188 189 188 187 176 171 173 166 158 152 153 155 155 159 166 174 174 170 172 169 162 155 140 125 123 113 81 52 21 8 37 68 48 102 130 113 164 131 124 147 104 154 141 169 111 68 68 90 158 170 181 188 178 188 182 182 187 201 188 189 204 206 208 195 172 178 102 81 52 92 172 170 
35 38 36 36 36 37 38 36 38 35 25 27 27 29 28 36 88 90 91 94 91 84 81 122 144 123 124 138 111 71 79 79 85 112 107 108 108 110 110 111 110 109 108 105 101 103 109 114 122 128 132 133 134 135 135 133 130 128 125 122 118 114 111 109 101 108 138 179 179 158 153 139 134 158 159 165 174 178 182 183 187 187 182 181 185 180 174 171 171 170 175 175 174 174 169 165 167 163 154 143 127 118 111 71 66 72 16 7 40 63 86 128 141 148 144 145 154 138 142 126 147 165 110 70 65 90 159 170 172 173 177 176 100 135 178 179 173 139 190 184 183 186 174 179 100 80 53 92 169 170 
39 41 39 38 38 39 38 37 38 36 27 28 28 30 30 35 87 91 92 92 95 86 83 126 131 38 77 136 19 27 83 72 87 148 130 121 105 92 88 81 77 73 68 71 89 89 91 85 88 94 89 97 113 123 133 139 140 142 141 141 141 139 138 137 131 129 147 158 165 153 149 167 130 126 160 161 170 176 179 180 179 184 188 189 191 196 201 202 198 187 181 178 174 168 167 167 164 158 145 131 118 104 67 71 124 71 14 11 39 68 123 162 163 164 165 167 164 167 171 158 142 159 110 69 68 97 171 159 163 171 173 164 160 149 168 179 147 119 169 170 180 180 174 177 98 82 52 93 169 170 
34 36 35 36 38 40 39 39 39 37 26 28 29 31 29 33 86 92 93 83 70 63 68 131 122 48 103 79 0 50 69 58 81 159 139 142 95 49 47 43 40 30 30 48 89 128 84 36 44 29 24 25 29 35 48 64 81 101 121 131 139 143 147 147 147 147 145 146 148 149 146 167 160 117 114 145 163 179 187 187 191 190 192 195 199 203 206 206 203 189 182 183 178 174 173 171 162 155 138 114 87 62 93 133 132 62 17 21 41 60 88 143 159 155 161 161 159 159 162 166 168 166 108 70 65 96 149 143 150 155 160 176 180 181 175 178 165 148 160 166 178 181 173 169 96 81 52 89 164 166 
65 74 76 76 56 33 40 37 38 37 26 26 27 29 28 30 83 93 92 93 94 87 95 134 120 71 102 53 43 82 85 85 106 155 147 150 119 59 55 50 49 38 28 48 91 125 88 28 43 32 26 26 26 24 27 26 28 35 41 56 67 81 97 114 128 134 138 142 152 150 143 162 170 153 104 101 128 166 184 188 193 195 198 201 201 205 206 208 210 198 183 186 183 177 173 165 155 143 102 68 62 100 141 137 129 62 20 24 23 42 46 61 117 154 158 160 158 153 160 160 160 162 106 69 66 76 72 80 85 92 102 114 124 136 145 153 163 173 173 169 170 171 172 177 92 79 51 91 171 156 
112 118 111 100 65 39 51 48 51 49 34 27 26 29 29 29 81 93 92 91 95 86 100 137 118 143 122 118 123 114 113 109 140 145 146 152 135 68 58 53 50 49 44 59 119 134 103 40 41 30 21 27 34 43 51 45 40 38 36 37 43 33 27 38 76 140 144 131 101 115 131 165 173 167 140 107 94 113 157 179 187 187 191 194 196 201 199 196 195 188 183 178 172 159 152 149 133 90 63 76 107 141 146 140 127 55 21 25 20 22 29 20 24 63 100 116 125 137 138 140 142 162 104 70 66 77 76 77 77 75 75 76 74 74 77 81 85 93 99 106 116 120 138 143 87 78 52 79 129 131 
100 105 98 86 33 26 41 39 39 38 26 26 27 28 27 29 79 92 90 85 72 63 111 137 117 135 126 126 102 106 103 109 146 148 147 150 147 79 61 56 51 49 45 54 90 136 94 29 41 35 36 48 45 46 42 34 32 44 80 57 63 106 126 130 136 155 164 148 33 3 92 171 175 174 165 135 112 96 94 133 166 177 186 187 183 184 184 183 182 181 172 160 164 155 138 107 73 67 90 111 144 153 148 138 124 58 22 25 22 21 21 26 20 9 28 60 68 67 72 79 84 95 79 73 67 77 76 77 78 79 79 81 82 82 82 81 80 80 80 79 77 76 78 77 87 75 57 68 63 66 
89 97 89 80 66 29 35 37 36 37 25 24 27 28 27 28 76 91 88 92 92 97 128 129 118 130 133 125 105 107 102 112 146 137 145 149 155 98 65 60 54 52 48 60 112 141 104 31 65 69 42 46 42 40 32 29 28 25 34 20 55 85 73 55 53 145 159 161 79 21 84 166 175 176 179 166 135 118 98 85 104 136 155 169 171 167 168 169 166 162 149 144 137 110 78 66 84 102 116 145 160 158 151 139 123 59 21 26 23 20 21 23 26 23 20 29 55 71 77 77 80 79 79 83 73 77 74 76 76 77 79 79 80 80 79 80 80 81 84 84 83 83 82 83 88 72 55 70 71 68 
92 105 102 93 76 30 36 36 37 37 24 23 25 27 28 29 73 92 88 90 87 106 131 120 121 127 132 117 106 101 92 93 147 119 145 150 160 118 67 62 57 56 54 59 134 153 112 63 107 82 48 26 17 17 20 34 44 18 22 18 13 4 2 0 0 127 175 129 53 28 77 162 173 181 185 178 162 142 130 112 90 81 89 102 110 117 114 110 104 98 91 83 73 65 80 103 114 129 149 159 163 159 153 141 123 58 20 25 24 21 20 23 21 24 36 47 54 66 81 73 72 76 74 84 77 76 75 76 76 76 79 80 80 79 80 80 81 81 81 82 81 82 82 82 87 73 57 70 68 67 
80 95 103 92 75 29 34 35 37 37 26 23 24 27 27 31 72 90 86 84 64 96 136 117 122 132 136 112 107 112 63 74 150 111 144 149 152 120 67 61 59 57 49 53 137 155 130 98 97 84 99 96 88 78 79 74 82 42 11 9 16 18 17 19 18 91 90 29 31 29 69 160 169 177 185 184 175 159 152 149 141 122 102 91 84 83 84 83 82 79 79 82 96 110 122 129 144 159 166 167 163 158 151 137 122 58 21 25 22 21 19 20 20 20 21 27 42 57 71 84 85 83 78 78 73 79 78 77 77 78 79 78 80 81 81 81 82 81 82 82 81 82 82 82 87 73 57 71 71 71 
48 90 100 92 77 29 32 34 29 30 18 16 20 23 23 24 68 88 81 90 64 90 136 113 120 134 133 113 110 67 17 84 150 102 135 150 143 146 83 62 48 20 16 20 110 141 133 98 84 76 70 84 109 89 82 60 78 47 11 15 24 25 28 30 37 29 22 32 36 28 64 157 167 177 183 184 180 166 156 155 157 158 158 151 142 135 127 123 121 126 130 132 138 136 140 151 162 169 170 165 164 151 145 138 117 53 22 25 21 23 21 19 19 18 22 21 16 13 21 35 50 64 77 85 84 81 77 78 79 81 84 83 81 82 82 82 81 81 82 82 81 81 81 82 86 73 59 69 72 69 
30 59 85 92 81 28 20 28 50 58 63 70 75 78 80 51 58 88 80 66 36 93 135 113 104 132 134 103 51 24 43 106 146 96 134 151 141 155 95 64 50 3 1 12 54 59 74 98 86 100 100 102 106 85 88 98 119 51 18 29 28 29 28 30 30 28 28 32 34 29 62 154 164 177 186 185 183 169 159 155 156 154 167 172 176 174 169 161 160 154 150 152 149 150 153 162 167 171 168 166 160 154 145 132 115 44 22 24 23 22 20 19 19 18 20 17 22 14 15 15 13 17 24 35 52 66 77 84 84 83 85 80 82 86 88 88 88 87 86 86 85 84 84 82 87 71 59 69 70 73 
65 67 76 85 82 26 0 29 116 118 119 116 112 108 94 52 63 83 54 52 48 76 106 103 112 138 108 38 33 62 62 108 142 88 131 151 140 153 102 65 60 10 2 30 63 55 58 106 92 92 89 104 108 93 88 82 86 39 24 26 30 29 30 30 30 25 28 30 32 31 52 143 157 171 180 185 182 173 164 159 157 162 170 177 182 188 182 175 162 157 161 160 155 153 154 164 169 172 170 168 161 154 145 135 109 29 24 26 23 19 20 20 20 19 17 16 20 13 13 16 17 17 17 14 13 18 28 47 74 99 111 110 102 90 84 83 82 88 86 86 86 87 90 88 95 75 63 75 76 77 
85 78 81 86 81 27 21 27 73 100 98 97 91 78 12 0 54 83 80 93 91 76 68 61 71 75 36 41 61 62 55 113 145 81 116 151 136 156 129 64 62 17 32 47 44 47 56 106 105 95 96 106 100 74 51 34 21 22 25 28 28 27 30 28 28 26 27 30 30 34 39 128 154 162 175 180 181 173 166 163 164 162 161 170 187 191 185 167 158 161 164 163 160 157 159 167 169 169 170 166 156 151 143 138 83 18 27 26 23 20 21 21 19 18 19 17 19 12 14 14 15 16 15 19 18 18 17 14 16 26 52 82 109 132 139 136 126 114 101 93 88 88 88 88 97 76 67 75 76 73 
72 69 80 84 81 30 21 25 43 57 57 59 55 50 31 8 59 83 99 113 110 111 114 85 42 38 34 78 77 61 56 98 109 42 114 159 137 144 144 70 56 45 44 39 36 40 75 109 99 75 58 47 34 25 21 22 24 25 26 30 29 29 29 28 28 27 25 29 29 35 28 95 155 155 166 176 181 171 164 164 164 167 162 155 169 186 166 150 157 164 164 162 159 157 162 168 170 167 166 159 153 149 141 130 43 21 25 23 21 21 19 20 16 17 17 16 18 13 16 16 15 13 15 15 15 16 19 17 18 16 12 12 13 28 50 79 112 141 159 162 149 135 123 115 108 97 92 93 91 86 
72 72 82 85 81 38 31 37 42 40 32 34 32 29 69 42 66 82 95 100 104 106 109 114 57 42 32 78 104 97 79 53 38 55 78 119 137 149 155 71 44 41 39 41 36 45 78 56 34 24 21 23 23 23 23 23 26 25 26 30 30 29 26 28 28 27 25 28 30 36 30 53 141 151 157 165 173 171 159 159 162 164 163 157 147 147 144 151 161 165 166 160 154 158 165 167 168 166 159 153 151 144 146 89 18 27 25 23 22 21 21 19 18 18 18 16 19 14 15 14 15 14 14 15 14 14 16 18 18 17 19 21 18 14 8 6 8 19 47 89 135 165 177 171 163 152 145 135 125 116 
70 78 82 86 81 48 43 42 47 48 41 45 42 39 57 49 53 86 94 96 97 94 89 113 63 38 33 76 102 102 103 52 45 100 73 57 70 113 118 44 42 44 42 37 32 29 21 20 23 25 26 26 25 24 24 24 26 25 27 31 28 26 26 26 26 27 27 29 28 32 37 27 103 153 150 156 164 168 162 151 157 162 163 161 159 155 157 163 166 166 162 158 154 161 168 167 162 159 153 149 146 149 127 33 23 27 24 24 23 22 22 21 21 19 19 16 21 15 13 15 16 16 15 15 16 15 16 17 17 17 17 17 18 17 17 16 17 15 11 8 14 40 81 128 163 171 168 167 167 165 
47 58 77 85 81 65 58 58 60 63 64 64 62 63 67 55 67 84 97 114 113 112 107 115 67 38 34 70 88 93 105 56 44 108 113 101 80 52 38 40 39 33 28 25 26 25 25 26 25 24 23 24 25 25 25 24 24 25 28 30 29 26 29 27 28 29 28 30 24 31 35 28 50 145 149 152 158 165 165 153 149 155 161 166 167 166 166 168 169 164 159 158 161 165 164 163 163 158 151 150 148 144 55 20 26 23 23 24 22 23 24 22 21 20 18 15 18 14 15 16 18 16 17 17 15 16 15 15 16 17 17 18 18 17 17 14 14 16 15 18 16 13 7 15 47 103 152 164 159 159 
44 41 63 55 47 45 50 60 58 51 47 48 45 51 62 48 57 81 67 86 106 104 104 114 66 37 31 71 98 86 91 56 41 103 106 105 107 52 36 29 25 23 24 25 24 23 23 23 23 21 21 23 23 25 24 24 25 22 29 27 26 28 27 29 28 28 27 23 22 24 31 34 25 107 153 146 149 153 159 156 143 143 147 155 161 160 164 163 158 153 151 156 161 164 162 156 154 149 146 145 151 85 14 26 22 23 23 24 23 23 22 21 21 19 17 14 16 11 16 16 15 16 16 16 16 17 14 15 17 16 15 16 17 16 16 17 15 14 13 15 15 17 17 15 9 11 46 115 155 153 
