P2
150 65
255
78 84 82 82 83 83 82 83 84 83 84 84 84 83 83 84 85 85 85 84 85 88 88 88 88 90 88 87 90 90 90 90 91 91 91 91 91 89 87 88 89 90 91 91 91 91 92 94 94 94 96 96 96 97 99 99 99 101 100 102 103 103 104 104 104 105 105 105 106 107 107 109 110 111 110 109 109 111 111 111 111 111 112 112 112 112 112 112 113 112 112 113 113 113 114 113 113 112 111 111 110 110 111 110 110 111 110 109 110 108 108 108 107 106 106 106 105 104 103 102 102 101 101 101 99 97 99 98 97 96 95 95 95 93 92 91 91 90 89 89 88 86 85 85 85 84 83 83 83 77 
82 87 86 87 86 87 87 86 87 87 87 87 87 88 88 88 90 90 90 90 90 92 93 92 93 94 94 94 95 95 96 94 96 96 95 96 96 93 92 92 94 94 95 95 96 96 97 98 99 100 101 101 102 103 104 104 104 105 107 107 109 110 109 109 110 111 111 111 112 114 115 115 115 115 115 115 114 116 117 118 118 118 119 119 119 119 119 119 119 118 119 119 118 118 117 118 118 117 117 117 117 117 116 117 118 116 115 114 115 114 114 113 112 112 112 111 110 109 109 108 107 107 107 106 103 103 103 102 101 101 99 98 98 97 97 96 95 95 93 93 92 91 90 90 89 88 86 86 87 80 
83 88 87 87 87 88 88 88 87 87 87 86 87 88 88 88 89 90 90 92 93 91 92 93 93 95 95 95 95 96 96 96 97 96 96 97 96 94 93 93 94 94 95 95 97 96 97 98 100 100 100 101 102 103 104 105 106 106 106 107 109 111 110 110 111 112 111 112 114 115 114 115 115 115 116 117 117 117 118 118 118 118 119 120 118 119 120 120 120 119 120 121 120 120 120 120 119 118 118 118 119 119 119 119 119 119 117 117 117 119 116 115 114 114 113 111 109 110 110 109 108 107 106 106 105 104 103 102 101 100 99 98 98 96 96 95 94 94 93 91 90 89 88 88 86 86 85 84 84 78 
83 89 88 88 88 88 87 88 88 88 88 89 89 90 90 91 91 92 92 91 93 93 93 95 94 95 96 95 96 97 96 97 98 98 96 96 96 95 93 94 95 96 96 97 98 96 98 99 100 101 102 103 104 105 105 104 98 100 100 102 102 103 104 103 103 104 104 104 105 106 107 106 107 108 109 109 111 111 112 113 112 111 113 114 112 112 114 115 115 114 114 116 115 115 116 116 116 116 117 116 115 115 116 116 114 114 122 123 122 112 112 111 109 109 108 107 106 104 105 104 102 102 100 98 97 96 96 95 93 91 91 90 89 88 87 86 85 84 83 83 82 81 80 79 78 77 76 76 76 69 
84 90 89 90 90 89 87 88 89 88 89 90 90 91 91 91 92 92 91 92 92 93 94 95 96 96 96 96 96 97 97 97 97 98 97 95 95 96 93 94 95 96 96 98 98 97 99 101 101 102 103 104 105 104 105 95 90 92 89 91 92 92 93 95 95 95 96 98 98 99 99 101 99 100 104 104 104 106 106 109 110 112 109 111 111 111 111 113 113 114 113 113 114 114 115 116 115 115 116 115 115 115 116 114 119 106 121 134 115 110 118 109 111 112 110 107 107 105 105 102 103 102 103 101 100 99 98 97 94 92 90 89 88 88 86 86 85 83 82 81 81 80 78 77 77 76 75 74 74 66 
85 91 90 91 90 90 90 90 88 88 90 90 90 90 91 92 92 92 92 91 92 94 95 96 96 96 97 97 97 98 99 98 97 97 97 97 97 96 94 95 96 97 97 98 99 98 99 100 103 103 103 104 105 105 104 93 93 82 82 78 76 77 75 80 80 82 81 79 84 90 92 96 98 99 100 100 101 97 99 102 104 107 106 107 106 109 106 110 112 110 113 110 106 112 115 116 116 117 118 116 111 108 102 102 119 121 126 143 118 127 111 110 116 113 114 115 105 97 104 102 104 100 99 97 92 89 86 84 83 85 95 91 83 78 80 79 78 77 76 71 69 74 71 66 67 67 68 66 66 61 
86 93 91 91 90 91 91 91 90 90 91 91 91 90 91 92 92 91 93 94 93 95 96 96 96 96 98 99 98 98 99 98 99 99 98 98 98 97 96 94 96 97 97 98 99 99 101 101 103 103 103 105 106 106 105 92 94 83 83 81 74 67 74 78 78 78 79 76 81 88 92 93 98 102 100 103 104 104 105 106 109 112 114 118 117 113 114 118 122 119 124 120 122 125 131 128 127 134 135 132 115 106 106 113 135 129 136 153 125 140 122 126 130 125 121 120 124 119 119 118 107 108 113 105 98 95 87 86 91 90 105 104 83 85 89 82 73 71 75 76 76 76 74 79 78 80 81 76 72 67 
88 94 92 91 91 93 91 91 91 92 91 90 90 91 91 91 93 93 92 95 95 95 97 96 96 96 97 99 98 98 99 99 100 99 98 98 98 96 96 95 96 97 97 98 99 99 101 102 103 104 104 106 106 104 106 90 95 82 82 80 78 80 86 89 93 82 91 92 86 101 104 104 104 109 115 116 118 117 118 123 119 122 118 113 118 124 128 126 126 130 134 134 129 134 136 137 137 134 139 133 120 131 120 128 151 140 149 166 136 155 131 144 131 141 139 133 135 119 115 105 106 123 130 126 126 119 116 106 95 102 99 99 97 91 84 79 73 73 76 89 90 76 80 84 84 77 75 73 73 67 
89 95 92 93 92 91 91 91 91 91 91 91 91 92 92 92 94 94 95 94 95 96 97 97 98 98 99 99 99 99 99 99 100 99 98 97 97 95 95 94 96 98 97 98 99 99 101 102 103 104 105 106 108 106 105 90 100 84 85 78 81 88 92 94 98 93 97 104 107 117 123 129 130 124 119 115 117 118 116 109 94 93 90 82 73 70 81 119 131 130 136 131 127 127 141 150 151 141 133 124 126 158 149 132 159 148 156 175 145 163 150 164 158 144 130 124 125 130 135 127 112 118 132 120 115 116 108 104 105 106 101 106 96 91 81 75 64 62 72 77 77 76 79 81 73 66 66 68 70 62 
90 96 95 95 94 92 92 92 91 91 91 92 91 92 92 92 93 94 96 96 96 98 99 99 100 101 101 101 101 101 101 101 101 99 99 98 97 97 95 94 96 98 97 98 100 101 102 103 105 105 106 108 109 109 107 92 102 89 86 91 94 98 107 106 97 104 105 104 117 122 124 120 113 118 115 116 117 111 81 55 72 91 71 44 41 40 38 59 83 100 101 108 106 93 82 99 121 145 140 141 143 157 144 145 172 153 163 182 150 174 159 173 150 137 141 139 134 137 137 127 141 136 140 135 116 104 109 108 110 110 114 106 99 88 82 84 83 77 74 73 68 72 81 68 59 78 82 74 75 69 
93 99 96 97 96 94 93 93 93 93 93 93 93 93 93 94 95 95 96 97 98 98 99 100 101 102 103 103 103 103 103 102 102 100 99 100 97 97 96 94 96 98 97 98 100 101 103 104 105 107 108 111 110 108 105 91 106 87 85 96 98 109 115 118 106 115 115 115 122 115 119 114 122 119 105 125 116 70 65 117 138 97 36 24 56 45 46 53 44 31 41 59 73 90 69 39 46 86 139 175 174 154 158 158 183 164 170 188 158 185 161 165 148 148 146 146 146 148 146 140 144 148 138 134 122 116 116 113 119 120 115 106 105 112 121 119 108 116 101 85 101 88 80 75 77 78 64 58 68 70 
94 101 98 97 96 95 95 95 94 94 94 95 95 93 94 95 95 96 98 98 99 100 101 103 105 106 106 106 106 107 106 105 104 102 100 98 98 96 95 95 96 97 99 100 101 101 104 106 107 109 110 112 113 111 104 92 110 91 91 94 103 110 120 119 126 128 122 115 115 113 125 117 98 84 123 115 75 104 148 142 94 78 57 85 98 82 66 72 92 78 68 71 74 66 71 67 43 34 54 110 166 165 160 167 190 167 178 195 162 194 173 165 159 154 150 152 152 152 155 158 154 141 130 128 127 115 112 116 129 121 112 112 109 119 128 115 119 112 118 101 85 94 82 84 79 84 74 70 61 54 
96 101 99 98 97 98 97 96 96 95 96 96 96 96 96 96 96 98 98 100 102 103 104 106 107 108 109 109 109 110 109 108 107 103 100 100 98 97 95 95 97 97 99 101 101 102 104 107 109 110 113 114 115 115 105 95 113 95 102 108 110 116 127 126 119 104 106 111 119 125 97 80 83 111 114 77 95 131 114 99 74 95 63 104 115 95 82 102 87 118 107 116 108 98 77 65 67 50 39 34 64 144 188 178 201 169 181 197 165 203 180 166 168 164 163 163 165 160 160 164 169 164 152 139 138 141 129 121 133 134 131 124 115 101 99 104 99 108 111 97 92 91 84 86 79 78 78 78 72 70 
97 103 101 100 99 99 98 97 95 96 97 96 96 96 96 97 98 99 100 101 103 104 106 107 109 110 111 112 113 111 112 112 109 106 102 100 98 97 95 95 97 97 99 100 101 102 104 107 110 111 113 116 117 116 102 97 119 98 100 111 105 117 128 111 104 104 120 129 123 86 63 93 104 104 74 81 110 98 89 79 58 65 57 67 95 88 86 95 79 73 88 95 90 93 99 87 72 66 53 42 38 50 117 181 204 171 185 198 169 212 184 166 175 168 171 173 170 170 165 169 175 171 158 141 138 158 161 158 146 131 124 125 129 125 116 108 104 122 111 98 100 91 90 92 83 78 80 76 72 70 
100 105 103 102 101 100 99 98 98 97 98 96 97 97 98 99 99 100 101 103 105 105 109 110 113 114 113 115 116 116 115 113 112 108 105 102 99 97 95 96 95 97 99 100 102 104 106 109 111 113 114 117 118 116 99 101 123 101 95 111 114 121 107 113 132 134 139 124 64 60 94 94 84 86 66 98 90 83 76 53 56 59 71 61 80 75 98 77 65 53 77 72 70 65 68 82 89 71 61 51 45 48 43 99 201 168 185 199 170 210 190 166 167 168 163 162 167 176 179 178 172 164 161 151 137 142 157 165 158 125 126 129 134 131 118 114 112 118 105 94 97 90 93 99 89 79 80 76 69 62 
101 107 105 104 103 101 100 100 99 99 99 98 98 98 99 100 101 101 103 106 108 108 111 112 114 116 117 117 118 118 119 117 115 111 108 104 100 97 96 96 97 97 99 101 102 106 108 111 113 115 117 119 121 118 96 106 126 109 111 126 131 116 132 151 146 142 117 54 50 77 91 80 92 62 84 98 81 86 67 48 62 77 91 73 81 68 90 88 65 60 68 73 60 57 60 57 67 92 76 57 52 54 52 42 101 165 185 196 172 210 188 185 163 173 169 166 168 178 184 182 176 169 168 162 153 133 153 153 142 137 140 133 138 134 120 119 118 125 115 100 106 97 93 99 95 88 83 80 76 68 
102 110 107 106 105 104 102 101 101 100 99 99 100 99 100 101 102 104 105 106 109 111 112 114 116 119 119 119 121 122 122 119 118 115 112 106 101 98 96 96 97 98 98 98 101 102 105 108 111 111 115 118 116 112 92 109 129 116 114 120 120 135 148 134 148 118 56 48 66 86 96 82 82 71 104 89 83 86 66 53 95 109 109 94 90 77 72 101 74 77 70 72 60 49 74 70 52 66 115 88 56 55 55 46 35 102 196 193 175 212 180 195 175 173 174 172 165 164 168 177 178 176 175 170 155 142 174 146 143 147 142 142 146 137 130 123 119 123 112 108 116 110 103 102 100 101 95 91 86 69 
105 111 108 107 106 105 104 103 101 101 102 102 101 101 102 103 103 106 107 109 111 113 115 117 118 119 122 124 125 124 123 124 110 98 117 112 102 99 97 98 97 102 105 121 127 128 128 136 138 146 141 140 161 143 91 112 132 119 117 116 143 150 136 157 131 61 60 64 77 107 89 85 84 99 107 87 104 82 66 62 150 133 129 112 104 95 76 108 110 83 89 74 70 62 60 91 82 58 93 136 83 43 58 55 44 44 164 198 176 211 177 190 198 183 172 172 169 154 162 175 181 177 168 168 166 149 160 160 142 141 139 142 147 143 138 132 127 118 113 117 121 109 105 107 110 107 105 98 92 81 
106 112 110 109 108 107 106 105 103 102 102 102 102 102 104 104 105 108 109 111 112 115 117 119 121 122 124 126 127 125 124 126 105 82 87 93 91 100 93 100 93 69 46 133 137 144 139 142 108 125 107 135 206 189 90 117 138 113 115 139 144 138 160 144 73 60 67 78 94 116 83 108 102 126 120 100 118 83 74 105 181 159 146 136 124 115 85 107 151 104 102 98 76 85 59 93 112 86 69 121 132 69 43 63 53 30 94 197 178 213 177 182 180 191 189 180 171 172 175 180 177 176 167 161 159 154 149 156 148 149 149 139 140 146 142 133 127 120 113 115 111 110 110 112 105 97 99 97 91 81 
107 115 113 110 109 108 107 107 107 105 103 102 104 105 105 106 107 110 112 114 116 117 120 123 123 125 126 127 128 128 127 129 107 82 89 97 94 111 98 95 83 62 23 117 130 133 136 132 98 98 90 136 190 172 85 120 126 116 131 141 119 159 165 112 67 65 78 94 119 98 119 120 123 155 126 111 103 100 99 148 204 176 154 152 144 144 104 112 181 140 115 121 97 83 96 81 121 125 80 97 130 105 57 45 62 43 39 166 185 214 180 189 188 184 189 193 192 188 180 174 171 165 168 167 162 160 158 156 160 156 154 147 142 140 139 139 131 128 128 127 118 117 124 128 122 114 110 110 106 89 
109 116 113 113 112 111 110 108 108 108 107 105 104 105 107 108 110 113 114 117 118 119 123 125 125 127 128 129 130 129 128 131 107 79 95 99 95 112 95 93 83 69 20 106 128 137 134 129 98 94 90 139 162 134 99 109 113 122 118 109 125 166 143 109 80 80 100 117 119 101 150 118 147 154 112 128 102 102 129 179 211 189 168 164 165 163 124 117 194 176 146 131 123 88 128 98 105 116 104 95 119 107 71 46 52 66 30 104 191 211 183 196 165 146 152 138 147 183 190 190 189 185 186 196 194 192 198 174 174 179 176 173 171 177 171 175 174 162 174 174 155 155 163 157 152 152 145 124 113 101 
110 119 117 115 115 113 112 111 110 110 110 106 107 109 108 110 111 114 115 118 120 121 124 127 129 130 130 131 132 131 130 132 108 76 97 101 96 109 97 94 84 79 19 92 133 137 135 137 100 100 92 134 165 133 112 104 102 101 97 116 136 158 141 116 90 107 109 119 107 137 139 133 152 114 92 117 104 113 165 204 217 193 182 182 181 176 145 124 187 198 161 144 143 102 116 113 93 79 85 95 94 93 87 57 44 61 56 55 189 213 182 163 161 146 126 120 112 144 185 181 180 183 183 180 181 178 173 170 170 169 169 170 167 164 160 156 154 149 147 142 140 141 136 131 122 120 120 110 109 100 
111 120 118 117 116 115 115 113 111 112 111 110 111 111 112 113 116 116 118 120 122 123 125 128 129 131 132 133 135 135 132 134 111 73 99 102 98 109 104 97 84 84 21 77 141 139 138 137 118 117 102 156 173 128 94 90 88 80 104 120 127 147 148 109 106 137 124 142 111 148 122 135 113 86 90 96 110 122 203 232 226 192 169 184 183 150 148 130 178 210 168 137 147 112 96 111 80 70 62 74 72 71 79 72 46 48 61 41 169 215 179 157 159 150 138 117 114 108 172 174 169 175 162 166 165 161 158 169 170 151 150 156 147 136 123 132 132 134 123 127 126 113 115 116 105 94 116 111 93 92 
113 121 119 119 118 118 117 116 113 113 114 114 114 115 111 116 119 120 122 124 128 132 132 134 135 138 137 136 135 135 133 137 114 71 103 105 98 110 107 100 85 86 28 58 139 143 137 125 119 117 111 153 140 89 81 75 61 91 102 102 108 121 116 86 95 127 137 121 103 115 128 99 80 98 87 84 81 141 224 232 232 193 160 172 182 111 123 106 165 209 186 122 124 120 78 93 77 74 53 60 54 52 66 75 56 48 55 42 142 218 184 173 145 143 144 120 108 138 179 166 168 168 169 168 164 170 168 155 156 151 150 147 146 133 129 126 131 134 123 120 113 124 119 109 126 121 105 94 90 94 
115 123 122 121 120 120 119 117 116 116 116 115 115 115 113 109 102 101 99 105 108 113 113 111 131 132 117 127 139 135 135 138 116 69 104 108 103 112 112 103 84 86 38 41 128 150 134 124 112 95 104 115 87 75 75 50 69 96 97 84 89 78 75 84 92 106 102 91 93 106 103 65 96 97 63 60 79 177 231 234 227 187 155 171 216 110 104 87 150 206 201 138 90 106 71 65 64 80 55 50 43 41 52 62 62 42 50 45 107 208 185 195 174 149 145 156 162 188 180 169 171 175 172 171 171 164 163 158 160 160 158 151 154 149 148 143 143 136 123 125 125 124 116 118 115 112 107 110 108 105 
117 125 124 123 122 122 121 119 118 119 118 117 118 118 115 109 94 89 90 92 100 109 106 105 129 123 115 130 140 137 137 139 115 60 103 113 104 115 116 106 85 84 43 24 122 155 149 133 112 98 105 91 70 71 45 49 77 80 78 74 69 73 79 75 73 88 74 81 84 95 63 106 131 59 50 45 110 215 228 228 214 185 149 169 230 117 91 80 135 212 208 172 90 78 94 51 53 66 66 40 43 34 39 50 64 53 38 47 65 174 182 186 188 184 179 181 185 179 177 174 174 175 171 169 164 160 165 163 163 164 163 157 151 141 137 137 138 136 132 130 127 120 122 119 114 119 114 112 113 106 
120 127 125 125 124 122 122 122 122 121 120 121 120 119 116 113 109 94 92 102 110 109 111 115 129 125 118 128 141 138 137 141 116 64 98 109 101 113 114 105 88 87 60 35 111 148 148 125 111 103 95 70 65 50 40 62 69 61 61 65 62 67 61 49 70 68 62 75 95 74 110 176 146 49 32 52 159 225 211 215 208 194 162 196 226 154 117 81 107 210 205 188 116 53 67 45 46 53 59 37 42 39 32 45 54 60 28 32 40 128 199 193 194 196 195 193 189 189 189 187 185 183 184 183 178 174 175 174 172 170 167 165 163 160 158 155 151 148 146 141 136 134 134 128 125 126 122 121 120 107 
120 128 126 126 125 125 125 124 124 123 122 122 123 122 120 118 113 106 103 104 108 107 115 119 117 120 117 132 142 140 139 140 122 90 87 86 89 88 92 92 90 92 92 93 95 93 94 93 95 90 79 67 55 37 58 67 65 53 56 56 59 63 46 49 65 62 70 130 108 98 175 184 149 44 60 125 202 209 207 208 208 209 212 205 210 204 181 139 133 203 197 188 160 112 65 64 40 55 57 37 39 45 30 39 48 49 27 22 37 75 140 140 142 140 139 140 139 138 137 137 138 143 143 139 139 139 137 135 133 132 134 129 129 128 127 127 125 124 122 120 119 117 117 116 115 113 111 111 110 98 
121 129 127 126 126 127 126 125 125 124 125 125 124 124 122 114 111 104 99 108 110 114 118 117 110 124 122 135 142 140 139 140 126 82 85 87 87 88 89 89 88 87 87 89 89 87 89 90 87 80 69 65 39 51 65 61 55 60 53 52 68 75 39 40 55 64 79 115 77 106 111 114 85 56 132 190 202 201 204 206 210 216 212 200 203 200 198 186 148 127 122 120 116 125 100 100 58 71 95 69 69 72 44 44 38 24 19 16 30 47 74 84 82 83 82 82 81 79 79 79 78 80 85 86 84 85 83 83 81 82 81 80 79 78 77 77 76 74 73 72 72 71 71 71 70 71 70 69 69 60 
123 132 129 129 129 128 127 127 127 126 127 127 126 127 121 105 109 107 104 109 117 124 117 112 114 121 117 127 143 140 139 141 130 86 90 93 93 93 94 95 94 95 95 94 94 94 96 96 87 77 65 50 47 62 60 55 67 58 40 50 98 93 32 38 51 95 146 164 180 186 169 156 132 118 113 153 194 198 202 206 210 214 205 194 196 193 184 135 103 116 132 147 156 172 185 169 136 93 80 104 113 96 76 39 23 9 28 26 22 39 61 85 82 83 81 80 80 78 77 78 78 75 86 84 79 84 84 84 83 82 80 80 79 78 77 77 76 74 73 73 71 70 71 70 69 71 70 68 68 58 
123 132 129 130 130 129 129 129 130 130 130 129 129 131 121 103 111 111 106 107 112 125 123 117 116 119 114 125 142 141 139 142 131 88 90 92 92 92 93 94 94 94 94 93 94 95 95 95 82 75 62 38 57 59 54 68 76 63 39 67 124 118 95 107 135 189 206 177 132 135 117 107 125 133 147 160 168 179 196 204 211 219 205 190 184 162 145 139 129 128 121 97 97 101 115 171 185 162 115 96 112 104 90 29 9 3 23 50 18 32 46 88 94 92 91 91 90 89 89 89 89 85 87 85 91 98 97 96 95 93 92 91 89 88 87 86 85 85 84 83 81 81 79 79 79 79 78 75 75 66 
124 132 131 131 131 131 130 131 132 132 132 131 130 133 123 99 101 111 107 111 112 117 121 126 129 125 116 126 144 140 138 142 133 89 90 92 92 92 92 93 94 93 94 93 94 94 97 90 78 75 50 44 61 54 64 76 72 63 39 99 135 138 149 167 172 164 113 76 121 88 56 66 107 142 142 155 159 163 183 196 205 220 205 180 157 132 147 143 149 105 53 52 48 123 117 67 111 139 149 135 113 111 98 35 10 10 22 64 17 27 34 70 92 88 88 87 87 86 85 85 84 80 83 81 87 93 94 93 92 90 89 88 87 86 84 84 83 82 81 81 78 77 78 77 77 76 75 74 74 65 
126 134 133 133 133 133 132 133 134 134 134 132 132 133 124 111 97 110 119 109 123 130 130 134 138 133 113 122 145 141 139 143 134 90 91 92 92 92 92 92 93 93 94 94 93 92 95 88 74 69 47 60 61 55 69 77 69 56 47 102 136 149 164 166 149 114 77 141 190 69 45 45 89 209 175 162 181 163 173 192 205 222 209 171 130 146 157 150 213 150 51 49 55 150 166 102 81 109 136 152 130 110 108 53 19 17 55 87 14 30 32 53 87 87 87 85 86 85 84 84 83 77 79 80 87 90 92 91 90 89 88 87 86 84 84 84 82 82 80 80 78 78 79 76 76 76 75 74 75 65 
126 135 134 135 135 135 134 135 136 135 135 133 133 137 123 109 105 118 131 114 122 143 132 120 119 128 126 123 143 140 139 143 133 91 92 92 91 92 93 92 93 93 93 94 93 93 94 89 75 68 56 63 57 53 76 82 68 56 48 98 135 163 180 176 161 162 141 144 160 137 100 112 161 191 179 172 175 178 179 186 201 214 210 166 138 152 158 167 177 180 143 119 134 145 127 117 140 173 161 162 151 121 103 63 40 55 106 80 15 29 31 43 78 86 84 83 83 83 82 81 81 76 77 78 84 89 90 88 90 88 87 86 85 84 82 82 81 80 79 77 78 78 77 76 75 76 74 73 74 64 
126 136 136 136 136 136 135 136 137 137 137 136 135 138 117 98 110 127 128 122 129 139 134 130 127 125 128 126 143 142 139 142 133 91 92 92 91 91 90 92 93 92 92 93 93 91 95 93 83 67 68 60 52 64 84 79 71 60 42 92 133 171 185 191 204 204 176 164 163 167 177 187 178 177 184 188 183 184 178 181 197 198 202 170 138 160 169 180 176 170 177 174 165 153 154 159 179 191 177 166 155 124 94 62 67 129 111 33 22 27 26 39 70 84 82 82 82 83 82 80 80 75 76 75 83 87 87 87 88 86 85 84 84 83 82 81 80 80 80 78 77 77 77 75 74 73 73 73 73 63 
127 138 137 137 137 137 137 137 138 138 138 138 137 138 119 103 115 128 133 131 135 127 117 132 125 120 119 122 144 141 139 143 132 90 94 92 92 91 91 92 92 93 93 93 93 94 94 97 94 70 70 64 51 65 89 81 75 59 33 84 125 163 180 190 203 205 204 201 197 198 198 202 201 207 212 211 198 182 168 182 195 194 194 177 138 155 185 192 200 198 191 186 186 189 187 193 200 187 178 167 152 126 90 56 91 167 67 27 24 24 25 35 67 82 81 80 78 77 76 77 78 73 73 73 81 83 86 85 85 84 83 83 84 82 81 79 78 78 78 78 76 76 73 73 74 72 72 72 73 63 
129 138 137 138 138 138 138 138 138 138 138 139 138 140 123 109 121 115 129 132 131 134 121 134 124 112 119 132 144 140 138 143 130 83 78 83 82 82 82 83 84 83 83 84 84 84 86 87 89 78 69 67 56 66 89 84 84 70 30 65 119 153 175 190 199 207 213 213 212 214 212 216 216 214 222 212 193 173 165 183 202 205 201 178 141 141 175 202 214 214 208 206 202 196 195 198 197 189 174 164 151 128 78 48 102 129 64 40 25 21 22 36 60 80 81 78 89 102 101 95 79 72 72 73 81 83 84 84 85 85 83 83 82 80 79 79 78 77 78 77 76 75 74 73 73 72 71 71 72 64 
128 137 137 138 138 138 138 138 139 139 140 139 139 141 127 104 120 108 124 137 134 135 120 130 123 120 119 126 141 140 137 143 129 79 63 72 71 72 72 73 73 73 73 73 73 73 73 74 76 80 69 70 61 66 93 83 91 85 40 49 110 147 172 186 195 205 211 214 211 213 213 212 217 221 221 214 187 174 170 176 199 206 199 178 142 145 169 203 214 223 219 212 206 202 198 196 189 180 168 158 146 124 63 81 117 78 94 52 32 26 22 36 53 66 70 66 81 97 98 96 69 66 73 70 69 74 75 77 77 78 77 77 76 75 75 75 75 74 72 74 73 73 71 70 72 71 70 70 72 63 
128 139 137 137 138 139 140 140 140 140 139 138 138 140 137 102 115 116 120 136 134 133 118 129 122 123 118 128 142 139 138 143 125 80 71 79 78 79 78 79 78 77 77 77 77 77 76 77 77 82 70 69 68 64 93 89 96 95 53 48 94 142 165 177 187 198 203 207 204 207 218 224 225 222 222 214 189 173 171 182 199 208 196 168 145 146 168 204 216 222 224 221 215 208 201 192 187 174 164 152 133 114 60 103 99 71 101 53 39 31 24 40 55 59 62 61 57 51 50 51 50 61 74 62 54 60 62 63 65 65 65 65 64 63 62 62 62 62 61 62 61 61 61 61 60 60 60 59 61 52 
126 137 136 137 138 140 141 141 140 140 139 138 138 139 139 111 112 122 125 130 135 142 138 129 124 127 120 131 142 138 137 144 119 83 90 89 89 88 89 88 87 89 91 92 92 91 90 91 90 91 80 70 70 60 87 92 106 104 77 65 88 133 156 169 182 191 198 205 213 218 224 229 227 222 212 201 171 158 172 188 203 223 197 169 143 132 156 204 212 217 220 219 212 205 202 196 186 176 160 137 116 103 55 95 61 79 87 60 47 34 27 47 60 59 65 63 59 55 55 54 52 59 73 57 48 54 57 58 59 59 59 59 60 58 57 57 57 57 56 56 55 55 55 55 54 54 54 53 55 47 
126 137 136 137 139 139 140 141 142 140 140 140 141 142 136 109 111 117 131 125 130 140 131 131 131 131 127 136 143 141 140 148 127 98 103 105 105 106 107 108 109 104 91 92 91 91 91 90 89 92 91 78 69 58 80 96 118 106 101 68 92 114 142 159 175 190 198 204 197 205 218 220 217 208 199 188 157 160 174 187 208 232 200 184 161 130 135 180 204 204 209 214 207 201 196 191 183 170 150 126 104 93 56 67 46 65 70 84 54 28 43 62 80 72 80 80 83 86 81 78 74 68 71 67 70 73 73 76 75 75 74 73 73 72 71 70 69 68 67 66 65 65 64 63 62 62 61 59 60 52 
126 136 136 137 138 139 140 141 141 139 142 126 105 125 135 133 135 140 144 141 142 147 148 152 153 154 156 157 159 160 160 163 163 164 164 164 163 165 166 163 161 148 87 87 91 91 91 90 89 91 90 87 76 60 76 93 117 112 109 60 79 106 131 145 171 185 191 197 199 200 205 208 206 199 207 201 161 164 174 191 211 217 202 191 166 133 133 155 204 200 198 200 197 190 182 179 173 160 137 110 108 88 52 76 27 46 58 95 54 42 57 72 80 70 72 74 91 98 97 89 69 65 68 68 74 76 77 79 79 79 77 77 78 77 77 76 76 75 74 72 72 73 74 73 71 71 70 70 71 62 
125 135 135 136 137 138 141 140 139 141 144 123 90 113 126 131 138 141 141 144 146 146 148 149 150 149 149 150 151 152 152 152 152 153 154 153 152 149 153 153 151 146 89 86 91 89 89 90 90 89 90 90 86 65 72 87 113 119 118 68 13 94 131 137 158 171 183 188 191 194 198 201 197 202 210 205 181 159 160 171 188 193 192 167 126 127 142 175 193 190 183 178 176 172 167 160 152 143 120 108 121 81 31 51 21 30 44 79 60 68 72 77 75 72 73 76 71 66 67 69 69 64 67 67 73 74 74 76 77 77 76 76 75 74 74 73 73 72 71 71 71 71 71 69 69 69 69 68 70 61 
125 135 134 134 136 136 138 138 135 125 128 120 93 113 123 127 116 108 119 120 120 122 124 125 123 125 129 127 122 128 134 135 136 132 123 123 114 116 84 131 151 145 90 85 90 88 88 89 89 89 90 89 94 80 70 90 100 121 112 92 14 68 133 136 146 152 165 173 179 178 169 173 178 185 194 194 188 190 190 184 171 162 160 151 165 177 177 179 175 177 171 175 172 160 153 150 147 139 122 133 132 65 9 23 25 28 30 60 66 81 78 75 74 74 74 76 69 63 62 62 65 64 67 67 74 75 75 76 76 76 76 76 75 74 73 73 71 71 71 71 71 70 70 69 69 70 68 68 69 60 
124 134 133 135 134 134 136 136 129 88 87 94 95 110 122 126 99 108 135 130 137 147 153 149 151 156 166 161 148 150 163 161 168 160 151 156 149 153 91 122 149 146 92 83 90 89 89 90 89 89 89 89 90 92 71 93 93 123 113 105 39 35 125 148 155 152 167 174 178 168 173 180 182 180 182 184 182 179 186 193 196 186 189 198 190 176 166 163 162 161 163 165 160 156 162 169 164 134 135 145 120 36 7 22 17 24 31 30 58 82 74 76 75 73 74 73 70 68 67 66 67 63 67 67 74 75 77 77 77 75 75 75 75 73 73 73 71 71 71 71 70 69 70 69 68 69 69 68 69 61 
125 135 132 132 133 132 127 116 120 87 84 89 97 110 122 125 103 112 148 147 152 153 155 155 149 148 149 151 154 153 153 152 149 149 148 145 143 144 87 119 149 147 94 83 89 89 89 88 89 88 88 90 89 92 83 91 90 110 123 105 62 23 102 155 164 156 163 178 188 189 174 163 160 171 184 182 187 188 187 197 198 196 203 199 192 178 169 164 156 151 142 140 153 176 185 166 140 134 154 142 89 8 14 15 6 12 20 27 27 64 77 75 74 74 74 73 72 71 70 69 66 61 67 68 74 75 75 76 75 76 76 76 74 73 73 73 71 71 71 71 69 70 70 69 68 69 67 67 70 61 
123 133 131 131 130 121 110 100 100 83 84 90 95 109 120 124 104 113 155 151 155 150 149 156 147 141 148 156 150 151 153 155 158 156 153 151 149 149 80 114 147 145 97 83 90 89 89 89 90 89 90 88 87 89 93 89 83 100 127 115 81 27 61 140 165 173 154 171 183 196 198 170 150 133 116 123 128 130 138 144 153 159 154 148 135 129 128 118 98 102 129 159 179 188 168 140 142 157 156 115 29 9 19 12 12 25 24 16 27 65 75 75 75 74 75 74 72 71 71 72 67 62 69 70 76 76 77 76 76 76 76 75 74 73 73 71 72 71 71 71 70 70 70 69 69 69 67 69 70 61 
122 131 130 128 119 108 98 95 97 80 82 88 93 107 119 123 105 113 165 162 166 158 151 157 159 154 156 161 157 154 152 157 160 159 158 154 152 153 85 110 145 146 95 75 85 85 85 85 84 85 85 87 92 91 91 78 65 91 126 122 101 48 32 97 148 173 170 161 175 177 188 185 174 166 134 104 103 118 134 146 134 118 130 140 129 119 109 89 100 126 151 173 174 157 137 151 157 149 123 45 5 20 13 11 16 22 21 26 45 67 75 75 75 75 74 73 73 72 71 69 67 63 69 69 77 76 76 75 76 75 75 74 73 73 73 72 71 71 71 70 70 70 68 69 69 69 67 67 68 61 
119 126 122 117 110 98 88 93 96 75 77 84 92 106 119 123 104 115 171 166 169 162 154 155 156 153 157 161 158 153 153 159 161 160 159 155 155 158 89 107 144 143 88 62 72 65 62 63 69 73 81 95 96 85 61 48 56 75 119 119 113 62 38 47 120 153 170 160 162 175 170 169 166 163 174 168 150 131 145 163 159 142 156 161 137 117 109 125 141 139 152 160 156 136 146 153 140 126 52 17 29 8 12 13 16 16 25 62 77 76 76 75 75 75 75 73 74 74 71 72 67 63 67 69 74 75 74 76 75 77 77 76 75 75 74 74 73 72 73 72 71 71 72 71 70 71 70 68 70 62 
112 119 111 105 101 89 82 90 97 72 73 82 92 107 119 122 105 111 166 160 163 157 149 153 155 146 151 156 151 146 150 154 157 157 155 154 152 154 83 103 143 141 101 78 86 111 133 134 89 86 91 96 99 76 42 39 52 59 116 113 118 75 52 31 58 134 161 164 155 168 169 163 162 162 166 176 185 182 167 153 150 144 142 148 149 151 150 150 139 145 147 148 133 141 158 145 125 55 4 38 38 5 7 11 11 19 40 54 56 55 54 54 55 54 56 55 56 57 57 56 54 63 68 59 59 61 62 63 63 64 63 62 63 63 63 63 63 62 62 62 62 62 63 63 64 65 64 63 66 58 
103 106 98 95 91 80 79 87 96 69 70 78 89 105 118 121 105 104 158 152 156 152 145 144 146 141 148 151 145 143 144 150 153 151 151 150 149 150 79 100 140 139 101 79 94 191 215 207 170 135 116 117 112 81 48 42 45 43 102 97 118 91 61 46 20 65 135 163 163 156 163 165 164 162 163 168 173 181 182 185 183 179 180 180 174 165 156 153 148 155 151 130 123 158 151 121 50 11 31 35 44 13 8 10 29 67 72 68 69 69 67 65 64 62 63 62 59 59 58 57 53 63 67 63 68 68 67 68 66 65 64 64 64 63 62 61 60 61 60 60 59 57 58 57 56 56 55 55 56 48 
94 95 90 88 82 75 76 86 95 66 66 74 85 102 116 119 105 101 152 148 152 147 141 144 147 141 149 153 146 144 148 153 153 151 151 149 147 146 75 96 137 137 102 75 103 201 210 207 182 154 118 96 102 88 61 48 38 34 80 76 103 114 73 57 36 23 99 132 159 161 150 159 164 162 162 170 176 178 180 179 180 182 179 180 176 170 159 157 158 153 140 110 141 148 106 36 2 49 26 35 37 30 9 9 24 50 67 73 74 76 75 74 72 74 72 76 88 86 86 77 69 66 68 74 78 77 79 79 77 78 77 76 75 74 74 73 72 72 71 71 71 71 71 70 69 69 67 66 68 60 
87 88 83 81 76 71 74 85 95 65 64 72 83 100 115 118 105 101 147 144 150 145 139 147 150 140 150 154 148 143 145 148 152 151 152 150 147 146 71 95 135 135 103 73 115 205 211 192 145 132 128 118 102 79 55 41 33 31 66 63 70 103 97 65 48 24 99 137 124 148 150 144 160 163 164 169 176 184 185 187 191 187 185 182 176 165 161 162 152 140 108 117 123 77 53 41 32 43 22 21 28 39 31 29 50 57 64 71 70 70 70 71 69 68 66 75 92 92 94 75 66 67 69 70 74 73 73 73 73 72 73 71 71 71 70 70 70 69 67 68 68 68 67 67 67 66 66 67 67 61 
81 82 76 74 71 67 73 85 95 64 60 70 83 100 116 117 103 96 146 142 148 145 141 148 154 147 156 159 153 150 147 151 155 157 156 153 149 143 64 92 131 131 104 70 126 210 210 188 183 183 134 101 94 70 60 61 60 60 58 58 50 68 99 85 57 42 96 149 144 125 132 137 142 157 162 171 171 180 189 196 195 198 192 181 172 161 167 158 146 118 96 88 63 84 96 59 57 60 40 38 42 53 53 63 74 75 72 71 71 71 71 70 69 69 70 68 65 68 69 72 70 69 70 71 76 76 74 74 73 71 72 71 72 72 70 70 70 69 67 68 68 67 66 67 66 66 66 66 67 60 
76 75 70 68 66 66 72 86 94 60 57 66 80 97 113 115 103 85 128 128 131 129 126 136 138 133 139 140 136 136 134 134 134 134 139 137 136 133 121 118 125 128 102 71 139 212 209 189 193 200 158 153 156 148 148 152 146 83 43 52 42 48 74 90 72 61 76 140 167 161 131 119 124 135 157 165 171 180 188 193 195 194 188 181 172 166 161 146 121 76 63 84 129 128 88 69 69 72 58 61 74 73 73 71 73 73 71 72 71 71 71 71 69 68 68 68 65 64 66 70 69 67 68 71 75 74 73 73 73 71 72 71 71 71 69 69 70 69 67 68 68 66 65 66 66 66 66 66 67 61 
72 71 66 63 62 65 73 85 94 79 58 64 79 95 112 113 113 114 116 114 119 122 124 124 125 126 126 125 126 127 128 129 131 131 132 128 126 127 130 125 125 129 97 68 151 208 206 191 199 205 200 191 188 180 181 158 99 54 46 48 45 35 53 79 68 66 57 78 145 174 173 141 125 120 130 147 156 172 184 185 185 184 183 177 168 157 144 111 61 65 124 153 138 110 83 74 74 76 73 61 71 73 73 73 73 73 72 72 71 71 70 71 70 68 68 68 67 66 68 71 67 69 68 71 74 72 74 73 72 73 72 71 71 71 70 69 68 68 68 68 68 67 66 66 67 66 66 66 67 59 
68 67 61 59 59 62 74 86 94 95 55 57 78 95 110 111 110 116 115 112 118 122 123 122 123 122 123 124 124 124 126 125 125 126 127 129 130 125 123 123 123 105 111 118 165 214 209 196 204 204 194 192 191 189 184 136 67 77 62 90 57 61 69 75 81 64 78 82 84 127 157 162 150 148 142 139 134 131 137 143 147 150 147 137 125 110 83 62 90 144 154 138 131 99 91 82 72 76 75 72 74 74 73 73 73 73 72 72 72 72 72 73 73 72 71 70 71 71 71 73 69 69 69 72 75 73 73 73 72 72 70 70 70 70 70 69 68 68 68 67 67 67 67 66 66 65 65 65 66 58 
63 62 58 57 56 62 74 85 92 95 82 68 75 94 122 126 125 133 120 118 117 116 113 114 118 119 118 117 122 123 124 122 119 121 119 120 122 114 116 127 129 103 90 89 119 214 206 196 206 207 195 197 203 204 205 195 159 178 148 180 130 131 95 62 80 77 71 123 146 137 141 162 161 159 163 168 168 156 144 132 126 122 116 112 107 104 104 123 142 148 150 139 119 96 100 87 65 73 74 74 75 75 74 72 72 72 71 73 74 75 75 76 76 76 77 76 74 74 72 74 69 68 67 71 75 73 72 72 73 72 72 70 70 70 70 69 68 68 68 68 68 67 67 67 65 66 66 65 66 58 
59 59 55 55 55 61 73 84 90 94 100 103 90 95 147 166 166 168 125 108 111 111 106 104 104 97 111 149 145 147 144 139 121 125 128 134 141 147 152 158 158 154 130 109 164 193 183 187 194 190 173 173 177 180 184 191 203 204 201 169 135 107 96 81 84 90 87 95 142 169 173 172 170 163 163 167 172 177 178 174 172 169 164 157 155 144 132 132 149 156 150 132 113 99 105 96 69 80 77 72 72 71 73 76 76 76 77 77 78 79 79 80 79 78 78 79 79 78 77 77 70 68 67 72 75 73 73 73 72 72 72 70 70 70 69 69 68 68 68 68 66 65 67 66 65 66 66 65 66 59 
57 57 53 53 55 63 73 83 90 95 99 98 81 56 75 86 80 73 47 37 39 45 48 48 52 42 72 157 153 154 153 154 93 102 121 124 131 137 134 160 166 153 134 132 188 203 190 197 207 204 194 193 195 195 189 175 150 129 114 111 122 132 127 112 102 102 116 133 142 158 168 175 167 161 161 165 168 173 171 171 170 168 163 158 147 131 131 151 162 153 140 125 112 105 118 106 85 88 102 98 97 89 71 58 54 54 56 55 59 66 67 69 70 71 70 71 72 72 71 70 65 69 68 71 72 72 73 72 71 73 72 72 72 72 71 71 71 71 70 69 69 69 69 68 67 68 67 66 66 61 
49 49 47 46 48 57 69 81 87 84 71 56 45 43 35 32 32 28 29 33 34 35 36 38 41 36 63 166 166 168 168 175 75 45 71 80 89 94 113 143 147 145 131 136 191 206 196 204 218 210 196 194 181 159 137 129 128 132 140 150 151 140 125 113 114 120 128 142 155 158 166 173 174 171 165 163 164 169 170 169 167 170 166 154 141 133 147 157 154 146 136 115 119 120 119 111 96 93 107 120 131 134 135 122 98 86 80 89 82 65 68 68 68 68 68 66 63 62 61 61 59 70 66 49 51 52 52 51 51 52 52 52 52 52 53 53 53 53 54 54 54 55 55 55 55 56 56 55 57 53 
106 106 98 94 91 92 91 93 88 72 68 68 66 62 57 55 56 57 57 49 52 53 56 58 60 61 66 140 142 137 137 145 109 89 88 76 84 91 113 128 122 90 86 115 164 153 136 151 143 131 144 156 150 152 153 160 161 162 158 153 144 133 120 117 121 128 137 144 155 159 159 171 175 175 171 167 166 168 167 166 162 159 154 142 138 141 157 160 146 142 136 119 127 129 120 113 100 105 115 122 134 146 155 162 166 163 150 134 100 65 77 73 77 77 78 86 95 92 89 78 70 69 69 67 66 66 65 64 63 62 61 60 58 57 56 56 56 53 54 53 52 51 51 49 49 50 48 47 47 41 
118 122 119 122 126 119 121 124 117 113 115 124 121 122 122 128 135 143 154 91 25 48 61 64 55 57 46 36 51 58 74 107 122 119 101 84 83 91 110 109 94 71 72 68 65 62 52 56 125 172 176 172 171 171 170 169 165 166 158 143 133 130 123 126 126 137 145 149 152 158 158 160 169 172 171 167 171 176 173 164 162 156 152 146 146 150 161 150 138 142 136 129 132 135 131 116 107 106 119 129 134 147 154 160 164 167 167 168 168 104 57 62 67 67 69 73 86 82 82 73 68 69 68 72 74 72 72 71 71 70 70 70 69 69 69 68 67 68 67 67 67 65 65 64 64 65 64 62 63 57 
48 54 56 58 61 72 71 76 71 69 111 132 134 145 159 161 161 157 148 110 17 38 61 62 61 62 60 58 64 69 84 107 110 107 104 90 81 87 80 68 64 66 64 67 68 61 62 60 67 110 150 173 176 175 174 165 164 157 148 140 133 128 132 137 138 146 149 150 153 158 155 157 160 164 168 170 173 173 171 169 165 162 160 156 158 160 156 151 142 139 134 135 140 145 136 122 115 116 123 129 140 147 153 158 164 165 171 179 161 85 54 61 65 65 64 63 62 63 63 69 66 69 69 72 74 73 71 70 71 70 70 69 69 69 69 68 67 67 66 66 67 65 64 63 63 64 63 61 62 59 
35 39 41 41 42 49 50 54 47 44 109 143 143 144 137 120 113 111 60 12 7 40 53 48 55 59 60 64 66 70 76 82 96 99 88 70 65 68 58 61 56 57 56 53 59 58 55 54 53 46 49 80 101 122 141 150 145 141 140 131 127 130 132 131 141 146 148 146 145 148 151 148 152 157 159 159 161 161 155 156 151 149 148 147 152 154 150 144 134 130 132 134 134 142 137 123 118 118 122 127 131 139 145 151 155 159 157 107 54 49 55 56 59 58 52 60 59 61 59 63 59 63 61 65 69 66 66 65 66 66 66 66 67 65 65 64 65 65 66 63 63 63 61 61 61 61 60 59 60 57 
