P2
150 65
255
180 193 192 193 193 195 196 196 198 199 200 202 204 204 204 205 206 206 208 209 210 211 211 212 214 214 215 216 217 218 218 218 219 220 221 221 222 223 223 225 225 224 224 225 227 228 228 228 229 230 230 230 230 230 229 229 229 230 230 228 230 231 216 208 203 211 190 136 102 96 81 80 82 91 97 98 104 101 95 87 93 95 109 110 98 107 119 131 142 141 169 184 188 207 218 220 227 233 232 232 236 236 235 235 235 235 234 234 234 233 232 233 233 232 232 232 231 231 231 230 230 229 229 230 229 229 230 229 229 227 227 227 227 226 225 226 225 223 224 224 223 223 222 222 221 220 219 219 221 210 
186 199 198 198 200 202 203 203 204 206 207 208 210 212 211 213 214 215 216 217 219 219 220 220 221 222 223 224 225 225 226 227 228 228 228 228 229 231 231 232 233 233 233 234 235 236 236 236 237 236 237 237 238 239 238 236 238 240 241 241 239 202 161 111 97 114 99 91 90 81 76 83 85 96 101 99 111 109 108 106 93 97 99 107 98 94 101 108 123 119 122 146 155 188 202 214 230 232 238 240 242 244 243 244 243 243 243 242 242 241 242 242 241 240 241 240 239 239 240 239 239 238 238 238 238 238 238 236 236 235 235 235 235 234 233 233 232 231 232 231 231 230 230 229 228 228 227 227 228 218 
186 198 196 198 199 201 202 203 204 205 206 207 209 210 211 212 213 214 216 216 218 217 219 220 220 221 222 224 224 224 225 227 227 228 228 228 230 231 231 231 231 232 232 234 234 235 235 236 236 236 237 237 236 237 240 243 240 233 215 185 143 102 79 59 55 57 80 94 98 100 106 114 102 94 106 103 99 99 96 98 88 74 87 100 104 96 92 104 109 104 110 111 108 126 147 163 181 196 221 230 234 239 240 241 242 242 242 243 241 241 241 240 239 240 240 239 238 238 238 238 237 237 237 237 237 237 236 237 235 232 233 233 234 233 232 232 231 230 230 230 229 230 229 227 227 227 226 226 226 217 
186 198 197 198 200 202 204 205 205 205 206 207 208 210 212 213 213 215 216 216 217 218 219 221 222 223 223 224 225 226 226 226 226 228 230 229 230 231 232 232 231 232 233 234 234 235 235 234 236 237 236 234 235 242 222 190 169 139 113 90 79 81 77 80 85 87 84 94 97 108 115 118 121 114 106 100 89 84 79 71 76 61 63 75 83 85 97 103 90 102 121 110 98 131 148 147 163 191 201 210 225 233 235 238 240 242 243 243 242 242 241 241 241 241 241 240 239 239 239 239 239 237 237 238 237 236 237 236 234 233 234 234 234 232 231 231 231 230 230 230 229 229 229 228 227 227 226 225 226 217 
186 198 197 198 199 201 202 204 204 205 208 209 210 211 212 213 213 215 216 216 218 219 221 221 222 223 224 226 226 226 226 228 228 228 230 230 231 232 232 231 233 233 234 233 235 236 235 236 233 233 233 239 231 184 122 92 89 87 83 84 87 90 89 87 98 118 119 116 113 120 113 102 104 102 84 75 71 70 59 50 60 65 51 55 62 76 79 80 87 98 109 105 118 134 132 153 182 184 194 223 232 232 237 241 240 241 242 242 242 242 241 242 243 241 241 240 240 240 239 239 239 237 237 238 237 236 236 235 234 234 233 234 234 232 231 230 230 230 230 230 230 228 228 228 227 227 225 225 227 217 
186 198 197 199 199 201 202 203 206 207 207 210 209 210 212 214 215 216 217 217 218 219 220 220 221 224 225 226 226 226 227 228 229 229 229 229 231 232 232 232 232 233 233 233 234 236 235 236 236 232 203 166 126 91 77 70 65 66 75 86 96 108 122 113 114 126 121 129 142 130 108 90 76 70 65 56 58 54 51 45 44 49 42 47 46 57 61 81 97 90 89 90 90 102 121 137 154 170 195 210 222 225 237 239 238 240 242 242 242 242 242 243 243 241 241 239 239 239 239 239 237 237 237 237 237 238 237 235 235 235 234 234 233 233 233 231 231 230 230 230 229 228 228 228 227 226 225 225 226 217 
187 199 197 198 200 202 203 205 206 206 208 209 209 211 213 214 214 215 217 218 219 219 221 222 223 224 224 226 226 227 228 228 229 229 229 230 232 232 233 232 233 235 232 234 233 232 236 235 220 166 114 91 78 70 61 55 59 63 68 83 97 113 121 112 97 88 80 80 93 97 89 86 79 71 60 54 49 48 51 50 46 43 41 38 38 42 54 68 79 76 84 88 95 99 94 101 115 131 162 186 195 215 224 237 241 242 242 242 242 242 242 243 242 241 242 240 241 240 239 240 238 236 238 237 236 236 235 235 236 236 234 233 233 232 232 231 231 231 230 229 230 229 228 226 227 227 226 226 226 216 
188 199 197 198 200 201 203 204 206 207 208 209 211 212 212 214 215 216 217 218 220 220 222 222 223 224 224 226 226 227 228 228 229 230 231 231 232 232 231 232 234 233 235 235 239 236 213 165 111 87 82 80 67 61 55 57 59 68 76 94 110 107 102 81 68 71 75 76 79 79 76 71 66 58 54 55 55 53 50 52 46 41 43 42 38 38 43 47 52 53 68 98 102 97 95 86 86 100 125 146 171 211 223 232 237 237 241 243 243 242 242 243 241 241 242 240 241 240 239 240 239 238 237 237 236 235 235 235 235 234 233 233 233 232 232 231 231 231 230 228 229 228 228 226 227 227 225 226 227 216 
188 199 198 199 199 202 203 204 206 206 208 209 210 211 213 214 215 217 218 218 219 220 221 221 223 224 224 226 226 226 227 227 228 229 231 229 231 231 232 232 233 229 233 236 204 154 110 76 70 80 77 66 51 47 47 55 64 79 97 115 123 113 109 99 97 110 108 108 111 94 76 68 61 63 60 56 54 52 53 56 52 55 61 53 51 44 40 39 51 64 86 96 108 114 107 100 94 83 84 98 119 156 192 223 242 239 240 243 242 242 242 242 241 241 241 239 239 239 239 239 240 239 238 237 237 237 236 234 234 234 234 233 232 232 232 231 231 231 230 229 228 227 228 227 226 226 225 224 226 215 
188 199 200 200 201 202 202 205 207 207 209 209 211 212 213 214 216 217 218 218 220 220 221 222 224 225 226 226 226 228 228 228 229 228 230 231 231 230 233 232 231 231 224 165 116 97 78 76 78 79 72 60 53 56 59 60 63 76 87 99 103 117 107 106 116 109 107 106 100 84 75 71 70 66 60 55 60 63 57 55 48 64 69 55 54 51 55 54 57 72 92 96 91 98 97 74 74 83 73 70 84 118 152 173 215 243 242 243 242 241 241 241 240 240 240 241 240 239 240 239 238 238 238 237 237 237 236 235 235 234 234 232 232 232 232 232 231 230 228 228 228 227 226 227 227 226 225 224 225 216 
187 198 198 200 202 203 204 206 208 208 209 210 211 212 214 215 216 217 218 218 220 221 222 223 224 225 227 227 226 228 229 230 230 229 229 230 229 228 230 228 231 224 157 102 92 79 76 73 80 79 62 57 53 53 60 68 75 90 90 93 93 100 101 102 101 106 106 92 82 81 91 93 85 78 71 74 76 58 51 51 58 69 61 58 53 55 54 74 61 71 85 101 111 96 89 78 66 68 71 68 68 102 141 164 188 234 241 242 241 241 241 241 241 241 240 240 239 239 239 239 239 237 237 237 237 237 236 236 234 235 234 233 233 233 230 230 231 231 229 228 229 228 227 227 226 225 226 225 226 215 
187 199 199 200 201 202 205 206 207 209 211 212 211 212 214 215 217 217 218 219 220 220 222 223 225 224 225 226 227 227 228 229 230 231 231 228 226 228 226 226 223 177 108 89 75 67 70 65 71 69 55 47 53 65 78 80 98 86 94 91 86 97 92 82 95 102 93 93 100 106 110 97 93 91 98 101 65 61 63 61 80 67 64 66 63 70 58 70 83 69 88 97 101 112 104 91 82 80 74 77 83 96 135 154 187 225 237 243 241 240 241 241 240 240 240 238 239 240 238 239 238 237 237 237 237 237 237 235 235 235 234 233 232 232 232 231 230 229 228 228 228 228 227 227 226 225 225 225 226 216 
188 199 200 201 202 203 204 206 208 208 209 212 212 214 215 216 217 217 217 219 220 220 220 222 225 225 225 227 226 227 229 229 230 230 232 233 232 230 225 219 204 137 87 65 49 61 58 56 67 59 50 56 66 76 84 108 91 84 97 103 94 79 81 90 87 75 86 99 97 101 95 98 103 102 105 87 76 91 81 85 98 81 86 76 97 89 86 78 98 85 75 94 105 108 106 115 98 83 86 79 93 100 116 147 171 199 228 236 239 241 241 240 240 240 239 239 239 239 238 238 237 237 237 237 237 237 236 235 235 234 234 234 233 232 231 232 231 230 230 229 228 227 227 226 225 225 224 224 225 214 
186 197 198 200 201 204 204 206 209 208 208 210 212 214 214 216 217 216 218 219 221 220 221 222 224 225 225 226 227 226 229 230 229 230 232 233 233 232 229 230 202 99 57 46 52 55 52 69 63 51 52 63 71 79 104 93 86 95 103 101 83 88 105 90 77 86 88 87 87 93 97 103 93 92 93 95 111 109 98 104 108 90 103 98 113 105 110 100 94 97 81 87 86 109 98 109 121 98 92 83 81 98 104 135 154 187 219 230 237 238 240 241 240 240 239 239 238 238 237 237 237 237 237 237 237 237 235 234 234 234 233 232 233 232 231 232 230 228 228 226 227 227 227 225 225 225 224 223 223 213 
187 199 197 199 201 203 205 206 207 208 210 211 211 212 214 215 216 218 219 219 221 221 222 223 224 225 225 227 227 227 228 229 229 230 232 232 232 228 230 234 153 60 52 49 55 50 62 73 54 51 52 64 72 94 102 87 91 105 113 90 90 104 98 87 118 98 92 100 99 108 113 95 79 82 94 102 104 101 100 105 100 113 120 113 126 121 110 109 97 97 93 88 81 90 99 95 110 121 101 87 85 97 100 134 150 173 220 234 240 239 239 241 240 240 239 239 238 238 238 238 238 237 237 237 237 236 234 234 234 234 233 232 232 232 231 230 229 229 227 228 227 227 226 226 226 226 223 223 228 217 
187 199 198 199 201 202 203 204 206 207 209 210 211 214 214 215 216 217 219 219 220 221 222 223 224 226 226 226 227 227 228 230 229 230 231 232 233 227 231 211 89 53 53 54 49 49 66 64 56 51 56 60 74 104 97 94 92 104 100 100 105 115 98 102 118 115 133 113 101 122 114 106 88 96 111 97 101 91 92 96 91 124 115 110 125 122 107 105 92 100 94 96 96 82 97 92 96 111 117 93 89 102 105 138 152 169 228 238 238 241 240 239 240 239 239 238 237 237 237 238 238 236 236 236 235 235 234 233 234 234 233 233 231 231 229 229 230 230 230 229 229 226 226 226 225 225 225 224 226 214 
187 199 198 199 201 201 203 203 205 207 208 209 211 214 213 214 215 217 218 218 219 220 222 223 224 225 226 227 227 228 227 229 230 229 231 232 233 230 229 177 69 61 58 57 55 53 65 63 56 48 53 67 83 103 100 89 85 85 104 99 88 104 100 77 103 128 127 107 129 141 130 113 100 119 120 106 106 97 102 101 97 127 113 113 126 123 110 104 95 102 100 102 108 98 97 100 91 102 115 105 92 110 114 139 158 169 217 238 235 239 240 239 239 239 239 237 237 237 237 237 236 235 235 236 235 234 234 234 233 233 232 233 233 230 229 229 230 231 231 229 227 227 226 225 224 223 221 221 223 214 
187 199 198 199 201 201 202 203 205 206 208 208 210 213 212 213 214 216 217 217 218 219 220 222 224 223 225 226 227 228 228 230 229 230 231 231 233 228 235 174 75 55 54 54 54 61 63 56 53 45 57 78 84 103 106 80 78 73 94 74 72 81 68 64 83 83 80 110 145 132 129 135 129 144 136 121 119 115 118 108 117 135 117 122 134 130 125 116 110 107 104 108 119 110 106 104 93 106 108 111 107 130 135 144 177 203 219 234 238 239 239 240 239 239 238 236 237 237 237 236 236 234 235 235 234 234 234 233 232 232 232 232 232 233 231 230 232 230 230 229 227 227 226 225 225 225 225 222 223 213 
185 198 197 199 200 202 203 203 205 205 206 208 211 211 212 213 214 216 216 217 218 220 220 222 223 223 224 225 227 227 227 229 229 230 230 230 231 227 235 185 76 66 61 53 48 50 56 43 50 49 57 76 83 95 96 88 77 66 89 69 67 62 49 63 65 59 83 112 115 97 107 124 129 146 136 135 148 134 128 125 132 145 127 131 138 133 136 118 115 120 116 109 118 100 98 100 104 99 106 113 120 139 145 161 192 219 231 233 238 240 238 239 238 238 237 236 237 237 236 235 235 235 234 234 234 234 233 233 233 233 232 232 231 230 231 229 229 228 227 228 226 226 224 224 225 225 224 222 224 212 
184 197 196 197 200 201 202 204 204 206 206 207 209 210 212 213 213 215 215 217 218 221 221 220 222 223 223 225 226 226 226 227 229 228 229 230 229 227 236 158 72 75 72 50 44 56 56 52 51 53 51 58 66 77 77 87 86 64 73 78 68 64 49 55 54 71 106 107 100 94 87 84 126 121 116 127 138 130 133 120 149 148 134 150 153 145 132 111 100 114 105 110 109 86 88 107 99 94 99 109 121 136 142 165 200 219 236 235 236 238 239 237 238 238 237 237 238 238 235 235 235 235 233 234 234 234 233 233 233 232 231 232 231 231 232 231 229 227 228 228 227 225 225 227 226 225 224 224 225 214 
184 197 197 198 199 200 202 203 205 204 206 207 208 210 211 212 214 214 216 217 219 218 220 222 222 223 223 224 224 224 226 227 228 229 229 230 230 231 232 146 66 78 73 53 43 63 57 56 49 48 44 54 58 67 63 73 83 116 88 86 75 74 55 44 49 64 92 95 95 99 88 77 125 92 102 106 91 99 111 115 136 114 126 145 152 147 111 95 96 106 99 117 104 79 88 100 90 90 94 111 105 129 143 166 211 224 233 237 238 239 238 237 236 236 237 237 236 235 234 236 235 235 235 235 233 232 232 232 232 231 231 231 233 232 229 229 230 229 228 226 225 225 226 225 225 224 224 225 224 213 
185 196 195 198 199 200 202 203 204 205 206 207 208 210 210 212 214 214 215 217 218 218 219 221 223 222 222 224 224 225 226 226 227 228 229 228 230 228 232 156 60 61 68 59 48 56 53 46 47 50 50 60 55 69 79 62 80 117 136 136 138 138 136 118 103 114 101 81 86 86 89 76 104 83 95 99 74 90 94 124 116 108 135 146 140 123 101 93 94 97 110 120 93 74 88 87 79 85 100 111 74 113 145 172 220 227 235 239 239 237 237 238 238 237 236 236 235 234 235 235 235 234 233 233 233 232 232 232 231 231 230 230 230 229 229 228 229 227 226 226 226 225 224 225 224 224 223 222 223 212 
184 197 194 196 199 200 201 202 204 206 207 207 208 209 211 212 213 213 214 216 217 217 218 219 220 223 222 223 224 225 226 226 227 227 229 229 230 228 237 183 68 59 53 56 49 44 44 47 54 49 52 54 55 95 117 71 73 120 148 170 180 181 181 173 169 172 161 153 148 117 108 83 86 85 88 80 74 89 92 112 95 115 138 129 122 115 91 92 89 91 106 89 76 84 85 76 75 83 108 104 65 96 148 187 224 233 238 238 236 237 237 237 237 237 236 236 236 235 235 235 234 234 233 231 232 230 232 231 230 230 230 230 229 229 229 227 227 227 227 226 226 224 224 225 224 224 222 221 223 212 
184 197 197 198 200 202 202 203 205 206 207 208 209 210 211 212 213 215 215 216 217 218 218 219 219 222 222 222 224 225 225 226 228 227 227 230 230 230 234 210 91 61 51 50 50 48 58 54 45 44 46 48 81 117 132 90 95 144 164 166 165 161 161 167 170 164 164 161 159 163 155 139 101 106 78 65 90 98 102 100 116 137 125 102 94 89 77 83 81 95 89 84 90 92 78 70 78 96 106 93 61 95 141 186 232 234 234 237 236 237 237 237 237 237 236 235 236 234 234 233 233 233 232 232 232 231 231 231 230 230 230 230 229 228 228 228 226 226 226 226 226 225 225 224 222 222 223 222 222 210 
184 197 197 197 199 200 202 203 204 206 205 208 210 210 211 212 214 214 215 217 216 216 217 218 219 221 221 223 224 225 224 225 227 229 227 228 229 230 230 228 123 64 55 54 59 66 59 44 36 42 41 64 99 134 135 130 147 160 157 146 138 133 129 124 120 127 133 150 156 157 164 161 162 160 102 105 139 134 135 131 143 142 141 130 123 131 137 148 147 132 107 94 102 91 73 76 85 102 92 62 67 97 145 175 233 237 236 237 238 237 237 237 238 238 237 236 235 234 234 233 233 232 232 233 232 231 231 230 230 230 229 228 228 227 227 227 227 225 224 224 224 225 225 224 223 222 222 221 222 211 
185 196 195 196 198 200 201 201 203 204 206 207 208 209 210 211 211 213 214 216 218 219 217 217 219 221 221 222 223 224 225 223 226 227 228 229 228 229 230 236 186 83 65 69 74 61 47 38 34 39 60 86 121 140 145 156 157 155 137 107 86 85 47 49 45 67 99 111 141 153 147 151 157 181 181 187 182 172 157 136 138 146 152 154 153 154 156 160 156 151 132 98 98 85 70 75 75 93 78 48 80 98 142 171 227 239 236 236 238 237 237 237 238 238 237 236 234 234 234 233 233 233 232 233 232 231 230 228 228 227 228 228 227 227 227 227 227 226 225 224 224 224 224 223 222 221 221 219 220 211 
185 197 195 197 198 200 200 202 203 204 206 207 208 209 211 210 211 212 214 215 216 218 219 218 219 220 220 221 222 223 225 224 225 227 228 228 227 230 228 229 210 104 80 85 66 50 39 35 36 55 76 98 128 137 156 161 159 149 121 84 89 116 65 51 53 98 163 121 120 143 137 141 148 179 200 198 183 171 125 121 147 157 156 159 160 157 150 143 141 144 137 114 98 78 61 62 68 93 71 47 84 99 134 170 227 239 237 237 237 238 237 237 236 237 236 235 235 234 234 233 233 232 232 231 230 229 230 230 229 228 228 227 227 227 227 226 227 226 226 225 224 224 223 222 223 223 221 219 219 209 
184 196 196 197 198 199 201 201 202 203 206 206 207 208 210 210 212 212 214 214 215 216 218 219 218 220 221 221 221 223 223 224 226 226 228 227 228 228 229 228 178 92 91 70 56 43 36 39 51 70 81 108 132 144 166 166 163 166 160 143 135 120 121 129 125 127 127 124 125 144 157 156 153 172 188 188 180 145 96 120 131 125 117 107 107 112 119 123 119 122 127 125 109 83 50 71 75 86 63 49 76 100 132 163 225 239 237 237 237 237 237 237 236 236 235 234 235 234 234 233 233 233 233 231 230 229 230 230 229 227 226 227 227 227 227 226 226 225 224 225 224 224 222 222 222 221 220 219 219 209 
184 196 194 197 197 198 200 201 202 204 204 206 206 208 209 210 211 212 213 214 215 216 218 218 218 220 220 221 222 222 224 224 225 227 227 227 226 227 225 218 176 105 80 61 50 45 44 51 58 71 86 122 138 152 167 164 165 172 175 162 160 166 166 173 168 161 153 146 141 148 150 165 154 168 181 181 176 129 111 117 103 120 110 48 43 39 71 85 105 109 122 124 114 80 59 63 66 81 57 57 71 93 135 162 226 239 237 238 237 237 237 237 237 236 234 235 234 233 234 234 232 232 232 232 232 231 230 229 230 230 228 226 225 225 226 225 225 224 224 224 223 222 222 222 220 219 220 217 220 210 
184 196 195 196 198 198 200 201 202 203 204 206 206 207 209 210 210 210 212 214 215 216 217 217 218 220 220 221 222 222 224 224 226 226 226 226 226 225 221 217 161 87 75 60 56 48 48 45 62 75 97 124 139 157 169 168 171 177 177 173 169 170 175 179 183 188 179 173 162 150 161 159 151 163 170 173 162 123 124 127 126 124 129 123 88 71 92 67 55 89 118 124 125 75 60 60 61 85 73 75 72 89 134 168 233 239 237 237 237 237 237 236 236 236 235 235 234 235 234 233 233 231 232 232 231 230 230 230 230 230 229 229 228 226 225 225 225 223 222 223 223 222 222 222 222 220 220 218 219 209 
183 194 195 196 198 198 199 200 201 202 204 204 207 207 208 208 209 210 212 213 214 216 217 217 218 220 219 220 221 221 222 223 224 225 226 226 225 223 220 196 118 90 75 66 54 47 47 50 59 76 97 119 144 160 166 168 172 182 181 180 184 187 194 191 193 188 181 181 166 164 169 150 148 160 164 167 162 126 124 136 148 142 145 148 140 122 109 107 98 106 125 129 127 70 62 60 68 75 91 89 73 91 131 172 235 237 237 237 237 237 236 235 235 235 234 234 234 234 233 232 233 231 232 231 230 231 230 229 228 228 228 228 229 228 226 226 224 224 223 224 223 223 222 222 221 220 220 218 219 209 
183 195 194 196 197 197 198 199 201 203 202 201 202 205 208 209 210 211 212 212 213 213 215 217 218 218 219 220 221 222 223 225 225 222 223 220 222 222 215 157 114 91 75 66 50 66 63 51 77 105 89 119 140 157 166 168 177 184 182 180 185 186 186 186 186 185 185 175 164 165 167 145 146 169 180 174 159 122 127 139 160 154 151 151 149 143 139 138 138 136 131 136 123 67 73 66 71 59 58 64 67 97 130 183 237 236 236 237 237 237 236 235 234 234 234 235 233 233 234 233 232 232 233 231 232 230 230 230 229 227 228 227 226 226 225 225 226 225 224 223 223 222 221 221 221 219 218 218 220 209 
180 193 194 194 195 197 198 198 200 203 205 207 202 203 207 208 210 211 212 212 214 215 216 215 216 217 219 220 222 222 223 221 223 224 220 220 221 218 190 139 143 87 87 65 66 90 81 64 79 125 90 112 139 154 161 166 175 181 185 184 188 188 187 190 188 189 187 176 165 165 156 147 166 182 194 188 171 129 126 140 172 173 159 158 157 152 146 145 139 138 133 142 111 67 74 76 70 60 47 60 77 104 136 200 229 235 236 237 236 236 236 235 233 234 234 233 234 233 233 232 231 231 232 230 230 230 230 229 230 229 229 227 226 226 225 225 224 223 225 223 221 220 220 220 220 219 218 218 220 210 
180 190 190 195 194 196 197 198 200 201 202 207 207 205 205 207 210 210 210 211 214 214 215 216 216 218 218 219 220 222 222 222 223 221 221 221 219 221 165 162 141 94 92 76 90 100 87 62 85 131 99 109 134 146 154 163 172 175 183 189 191 192 192 191 191 194 189 181 165 150 139 159 174 179 194 186 170 142 123 142 184 179 173 167 166 162 156 151 147 143 135 141 99 65 69 74 61 68 59 69 100 109 150 227 232 232 235 236 236 236 234 234 234 234 235 234 233 233 233 232 232 232 232 231 230 229 228 229 229 227 227 227 226 227 225 225 224 223 222 223 222 222 221 220 219 220 219 217 219 209 
179 192 189 194 194 195 197 198 199 201 203 203 206 205 207 208 209 208 210 212 213 213 215 216 217 218 218 218 220 221 222 221 220 220 221 220 220 215 155 180 135 100 92 92 102 95 84 49 60 93 108 116 130 146 150 158 168 172 181 188 193 197 192 191 192 191 188 181 144 145 157 167 168 173 194 178 159 144 116 153 188 188 183 176 171 165 155 154 148 145 142 138 77 64 65 71 61 64 68 87 109 117 173 238 232 234 235 235 236 236 234 234 234 234 234 233 232 232 232 232 231 231 232 231 230 229 229 229 229 227 226 226 225 225 224 225 224 222 222 222 221 220 219 219 219 219 216 217 218 207 
182 194 192 192 193 196 197 197 197 200 203 203 204 204 206 207 208 209 209 212 211 210 214 215 216 217 219 220 220 220 219 219 220 220 222 220 220 207 158 177 132 106 97 99 98 91 76 58 40 52 116 119 129 149 156 161 166 171 178 185 188 193 193 191 190 184 180 169 141 163 170 168 161 182 206 192 165 148 121 166 194 189 183 183 175 169 157 154 146 143 146 116 54 66 62 57 67 73 71 99 115 157 213 234 233 233 234 235 234 236 235 233 234 234 234 233 232 231 232 230 231 230 230 230 230 229 229 228 228 227 227 227 225 224 224 223 224 221 222 221 221 220 218 219 218 218 217 216 218 207 
181 193 193 195 194 196 197 198 199 198 201 201 204 206 207 206 207 209 209 210 211 211 210 213 215 217 218 219 218 217 217 218 219 220 222 220 217 216 164 180 137 104 94 93 100 88 76 61 53 68 123 119 131 146 157 162 168 172 178 184 185 188 191 188 179 178 181 171 142 140 135 139 147 178 202 195 177 148 119 151 183 173 180 178 174 167 158 155 146 138 143 76 52 61 64 50 62 77 82 113 133 205 224 230 234 233 234 235 236 233 234 234 234 233 233 233 231 231 231 230 230 230 230 230 229 230 228 226 227 228 227 225 224 224 225 224 222 222 222 221 221 221 221 218 217 217 216 216 218 207 
180 193 192 194 195 197 198 198 199 199 200 200 201 203 206 205 206 207 209 210 209 212 213 212 212 214 216 216 216 216 218 218 218 220 220 218 218 218 168 182 138 101 90 91 94 84 71 61 67 69 116 124 131 151 159 166 171 172 176 182 185 186 188 186 180 180 177 172 156 135 145 140 138 144 153 156 124 104 113 161 176 176 179 172 169 163 155 147 138 134 120 43 54 54 64 59 70 86 97 110 175 219 220 229 235 235 234 235 237 235 234 234 232 233 233 232 233 231 230 230 229 230 229 229 228 228 227 227 228 226 225 225 225 223 224 224 222 221 222 221 220 219 219 217 217 217 216 217 217 206 
180 192 191 192 193 195 197 197 199 200 201 202 202 203 203 206 207 209 210 210 212 212 213 215 214 211 211 214 215 217 217 217 219 220 220 219 217 217 185 172 137 95 90 86 83 83 60 62 80 70 110 124 137 149 161 167 169 172 176 183 185 185 187 186 184 182 177 179 178 166 159 167 151 131 130 114 102 135 161 177 178 179 172 167 166 160 153 143 131 137 76 38 46 66 68 71 84 106 109 145 209 214 223 226 234 237 235 234 236 235 236 234 233 233 232 232 232 232 232 232 230 229 228 228 228 228 227 227 226 226 225 225 224 224 223 223 222 221 221 220 220 218 218 218 217 217 217 215 216 206 
180 192 191 192 193 196 197 196 199 200 201 202 204 205 205 205 208 209 210 210 212 212 213 212 211 212 212 211 213 213 216 216 217 218 220 219 214 219 202 169 130 91 95 85 83 83 66 63 86 76 100 122 139 149 162 165 169 174 176 178 185 182 182 185 187 183 178 182 180 174 176 176 164 167 152 130 145 158 159 165 177 173 166 165 159 155 145 135 133 124 43 42 64 93 84 94 107 121 141 190 216 220 224 223 230 236 235 234 234 235 235 235 235 233 232 232 231 231 232 231 230 230 228 229 227 227 226 225 225 224 225 224 224 224 223 223 223 221 221 220 218 219 219 218 216 215 215 215 215 204 
179 191 191 192 194 195 197 197 199 200 200 202 203 205 206 206 208 209 209 211 212 213 212 211 212 211 214 214 215 214 215 214 215 216 219 218 212 216 208 180 132 99 92 86 84 81 73 62 92 89 89 115 137 150 156 160 170 176 176 179 177 177 180 185 189 184 185 188 187 186 180 166 166 177 158 138 147 152 153 153 162 170 161 158 152 147 135 125 134 97 31 55 88 102 105 114 125 155 182 201 226 226 225 225 225 235 235 234 234 234 234 235 234 233 232 231 231 231 231 230 231 230 228 229 229 228 226 226 225 224 225 224 223 223 222 221 221 221 220 220 220 218 217 216 217 216 216 214 215 204 
179 191 189 191 193 195 196 196 199 200 200 202 204 205 205 206 208 209 209 210 211 211 210 211 211 213 214 213 216 217 217 217 217 217 218 218 214 220 213 185 136 107 93 89 86 79 75 66 85 100 83 105 130 147 152 159 168 172 175 180 173 167 139 130 153 153 152 154 160 164 156 151 160 162 158 155 154 149 152 155 155 162 160 152 148 139 130 125 133 66 38 77 102 104 103 123 179 195 194 219 231 228 226 226 224 234 238 236 235 234 234 234 233 232 232 232 231 231 230 229 230 230 228 228 228 227 226 226 226 225 224 224 224 223 222 222 222 221 220 220 219 218 217 217 217 217 217 215 216 206 
180 191 190 191 192 193 195 197 199 199 200 201 202 204 206 206 209 209 211 212 210 209 211 212 211 213 214 215 216 216 216 216 218 219 220 220 214 219 221 189 117 98 89 86 87 86 84 66 70 98 84 91 117 144 149 154 161 166 169 177 166 141 131 122 109 108 104 104 98 91 91 99 99 93 99 109 121 133 138 152 158 153 158 146 141 136 127 126 128 46 60 90 102 96 121 187 192 199 206 231 226 227 228 227 226 229 237 236 234 234 234 234 233 232 233 231 230 231 231 229 229 229 229 229 228 227 226 226 226 226 224 225 225 224 222 222 222 220 221 220 218 218 216 216 216 216 215 215 216 205 
179 191 189 191 193 195 195 196 198 200 200 202 202 204 207 206 206 208 210 210 209 209 210 211 211 212 214 214 216 217 217 218 218 219 220 222 221 218 219 187 108 97 91 82 82 82 83 68 58 88 90 72 98 128 142 149 153 159 166 160 151 158 169 167 159 151 149 148 147 140 129 111 110 109 100 91 89 87 99 133 148 153 162 145 139 127 123 135 104 41 84 89 100 96 176 207 194 198 217 227 227 228 229 228 228 227 234 237 234 233 234 233 233 232 232 232 231 232 232 231 230 229 229 229 228 227 227 227 226 226 224 223 223 223 222 221 221 220 219 219 218 217 217 217 216 215 216 215 214 206 
179 190 189 191 194 194 194 196 198 198 200 201 201 202 205 206 208 208 207 206 208 208 210 210 211 213 215 214 215 216 217 217 219 219 220 220 221 220 216 163 99 98 98 82 79 75 70 70 62 68 87 65 81 112 130 139 143 152 157 151 153 161 164 167 167 161 158 154 150 144 138 134 131 129 124 121 119 122 122 135 151 167 154 140 133 121 128 127 56 54 95 93 104 121 186 197 196 207 218 223 229 230 229 228 227 226 230 234 234 234 234 233 231 231 233 231 231 232 229 230 230 229 229 227 227 228 228 226 226 226 226 225 225 224 223 222 222 221 220 219 218 218 218 217 216 215 214 214 217 206 
179 190 190 191 193 194 195 197 198 198 199 200 201 204 204 206 205 204 205 207 208 208 210 211 211 212 212 215 215 215 216 217 217 219 219 220 222 223 216 175 110 96 101 92 82 84 71 65 64 63 69 60 72 115 115 128 133 144 152 151 148 152 154 158 159 160 157 154 148 137 134 133 137 132 127 126 130 132 127 133 159 161 137 125 117 122 130 69 31 63 87 95 100 116 147 164 159 199 226 227 225 227 229 227 227 226 228 233 234 233 231 231 232 231 231 231 231 230 230 229 229 228 228 227 227 226 226 226 225 225 225 224 223 224 223 222 220 219 220 221 219 218 216 215 215 215 215 214 214 205 
177 190 189 189 192 194 195 196 196 195 201 201 201 203 204 203 202 203 205 206 208 209 209 210 212 213 213 213 214 214 216 215 216 219 221 221 221 222 217 202 150 106 101 100 87 85 87 74 68 63 69 65 64 105 111 114 132 139 146 158 161 162 166 167 166 164 165 164 155 149 142 139 138 137 134 129 129 125 121 131 150 134 118 111 116 115 72 66 41 53 73 86 85 95 114 135 150 163 209 228 229 228 228 226 226 225 225 230 232 233 232 231 232 231 231 231 230 229 229 229 228 228 228 228 227 227 226 226 225 225 225 224 223 224 222 222 222 221 220 219 218 217 217 216 215 214 214 214 215 206 
177 189 189 190 191 193 195 195 196 196 200 201 202 201 202 202 203 205 205 204 206 207 208 209 211 212 213 214 214 214 215 216 217 218 219 221 221 221 220 214 194 159 123 99 94 81 80 78 82 65 72 68 63 100 118 119 113 127 137 154 160 161 169 179 174 172 176 180 179 174 165 157 148 135 138 138 131 126 127 132 130 108 107 117 101 46 61 87 81 52 63 81 89 96 123 187 181 126 154 211 223 224 225 223 226 225 224 228 231 233 232 231 231 230 231 231 230 230 229 229 229 228 227 227 227 227 226 226 226 225 224 224 224 222 222 221 220 219 219 219 218 218 218 217 216 214 213 213 214 204 
176 187 189 191 192 194 194 195 197 196 196 198 199 199 201 201 203 203 204 204 205 206 208 208 209 210 212 213 214 214 216 215 216 218 218 219 220 220 221 217 204 202 194 161 122 105 89 73 78 71 67 66 60 110 132 152 117 101 113 131 150 158 159 167 170 161 162 165 175 173 164 164 146 132 140 142 133 129 128 125 105 105 108 88 64 45 92 105 100 99 85 86 93 94 114 167 138 112 128 181 201 202 219 223 224 224 223 226 231 232 231 231 231 231 229 230 230 230 229 227 228 228 228 227 226 225 225 225 224 224 222 223 223 221 221 221 220 219 220 218 218 217 217 216 214 214 215 213 214 204 
178 188 188 190 192 193 193 194 196 195 195 196 194 197 199 200 201 203 202 203 205 205 205 208 208 211 211 212 214 213 215 215 217 218 217 218 220 222 222 218 199 183 169 156 132 110 93 73 71 68 65 61 60 107 132 153 155 107 100 108 120 143 156 156 164 159 153 159 164 165 161 154 137 140 140 132 128 125 118 104 101 92 79 85 89 70 72 98 111 105 115 113 107 103 101 107 99 111 130 165 161 176 219 222 224 225 224 224 231 232 230 230 231 231 230 230 230 230 229 228 227 226 226 226 226 225 225 225 224 224 224 223 222 222 220 220 219 219 218 217 216 216 216 216 215 214 213 212 213 203 
179 189 188 188 190 192 192 194 195 196 194 195 195 196 197 198 200 201 201 202 204 206 205 208 206 208 209 210 212 213 214 214 215 216 217 219 219 220 220 218 203 154 124 110 96 85 76 68 65 65 64 52 62 105 125 151 160 150 106 110 113 119 133 147 153 157 157 155 152 149 145 139 140 139 139 129 117 104 90 96 81 98 117 112 95 72 72 68 83 97 99 104 107 108 102 94 104 115 128 130 154 211 222 221 223 223 223 222 229 232 232 231 230 231 232 230 229 230 229 229 228 226 226 225 225 226 226 224 225 224 223 223 221 222 223 221 219 218 218 218 218 216 216 216 215 214 213 212 214 204 
178 188 187 188 189 190 191 192 193 194 194 195 197 198 197 197 198 201 202 202 204 205 206 206 208 208 209 210 210 211 213 215 214 216 217 218 218 218 217 215 203 163 123 98 83 79 74 68 64 59 59 39 66 106 117 148 158 168 143 109 117 117 119 124 130 141 145 143 141 138 138 136 134 130 121 105 92 96 100 90 116 142 107 121 91 89 74 52 58 80 68 72 73 83 84 97 113 121 143 177 218 224 222 221 222 222 221 222 226 230 230 229 230 229 230 229 228 228 227 227 227 226 225 226 225 225 225 224 224 222 222 222 222 221 220 218 219 218 217 217 218 217 216 215 214 214 213 212 213 202 
177 190 187 188 190 190 190 191 190 191 193 192 195 196 196 198 199 200 200 201 202 205 205 205 207 208 209 209 209 210 211 213 214 214 215 216 215 221 230 225 206 163 109 88 81 75 67 63 60 58 46 28 72 108 109 135 155 164 167 135 119 129 126 128 129 129 130 129 130 129 126 124 119 110 102 101 107 101 102 135 145 114 109 123 98 104 101 43 36 59 46 48 50 44 48 71 132 216 229 227 221 222 222 222 222 222 222 221 223 227 231 230 229 229 229 229 229 228 228 227 227 226 226 225 224 224 223 224 223 223 222 221 221 220 219 218 217 218 217 216 215 215 216 213 213 213 212 211 211 201 
175 186 187 187 188 190 190 190 189 190 192 192 193 194 196 197 198 199 201 201 201 203 204 205 205 206 208 210 209 210 212 211 211 212 210 217 226 202 150 88 59 51 55 67 68 66 62 58 50 43 37 26 84 111 105 125 151 162 169 159 129 134 147 147 143 137 135 133 131 128 124 118 113 109 105 104 91 112 151 145 125 114 120 118 101 83 100 67 55 53 50 55 44 37 42 46 65 129 215 221 221 221 221 221 222 221 220 220 220 224 229 229 228 228 229 229 229 227 226 227 226 225 225 224 224 223 223 222 223 222 221 221 220 219 219 220 218 217 217 217 216 214 214 213 212 212 212 210 211 202 
174 187 186 186 187 189 189 189 189 190 191 192 192 193 194 195 198 199 199 200 202 203 203 204 204 206 206 207 209 210 211 211 211 211 223 204 102 53 33 29 27 25 26 41 46 48 52 47 40 37 31 41 97 111 108 123 144 158 164 161 141 130 146 156 161 162 157 148 142 133 123 117 116 120 115 102 129 157 142 126 125 126 112 121 99 65 66 62 49 53 41 32 35 39 37 43 54 63 129 228 218 220 221 221 221 221 220 219 217 220 224 227 227 228 229 226 226 227 225 224 225 224 224 225 224 224 224 223 223 220 221 222 221 219 219 217 217 217 216 216 215 214 214 212 211 212 211 211 212 202 
174 185 185 185 187 187 187 188 188 190 191 192 192 195 194 197 196 198 199 200 200 201 202 203 204 206 206 206 208 209 210 211 208 217 158 50 28 43 41 33 27 24 28 25 24 33 35 31 29 21 29 81 104 117 106 118 134 151 164 161 149 142 141 150 161 168 169 168 165 159 152 148 145 129 115 136 146 138 133 133 128 119 106 124 95 82 53 74 74 43 28 30 33 33 37 36 44 57 75 169 231 219 218 218 219 218 217 218 218 218 220 226 227 226 226 225 226 226 225 225 225 223 224 224 223 224 223 222 221 221 220 220 220 220 218 217 217 216 215 213 213 214 214 213 212 212 212 210 211 202 
175 186 186 186 187 187 187 187 188 189 190 191 192 193 194 195 197 198 198 198 200 201 202 203 205 204 205 206 207 208 208 208 215 185 43 27 32 33 36 26 20 26 22 19 24 24 21 21 21 39 94 107 105 122 111 112 127 146 158 161 152 147 146 151 157 163 166 168 165 161 152 144 133 127 133 135 136 141 142 130 125 114 125 118 91 109 101 92 122 113 62 36 33 32 39 39 43 44 53 84 177 223 230 226 221 216 216 216 217 217 217 223 225 225 224 226 225 224 224 225 225 224 224 223 222 221 221 220 220 220 219 219 219 218 217 217 216 216 216 215 214 212 213 212 212 211 211 210 210 201 
174 185 185 184 186 186 185 186 187 188 190 190 190 192 195 196 196 197 197 199 200 200 201 202 204 204 204 205 205 205 205 208 214 88 31 37 34 26 28 23 27 21 22 22 20 18 23 41 77 111 120 114 114 128 114 114 121 139 151 155 154 148 151 156 160 165 168 168 163 158 155 148 141 136 135 141 146 144 137 131 121 126 133 114 94 120 142 136 145 144 131 64 30 42 44 42 46 51 37 45 53 90 137 167 201 225 223 217 216 216 215 219 224 225 224 225 225 225 225 224 224 223 222 222 222 222 222 220 221 221 219 218 218 218 217 216 216 216 216 214 213 213 212 212 212 211 211 210 210 201 
173 183 183 185 185 184 184 185 187 188 189 189 190 192 193 193 194 195 196 198 199 199 201 200 201 203 202 203 206 213 217 214 112 27 37 40 37 32 26 12 14 16 21 24 36 58 89 116 127 124 126 118 122 131 118 115 123 134 143 154 157 155 154 158 161 167 171 170 167 164 160 149 143 141 147 149 148 142 135 126 126 138 133 113 99 126 134 147 154 152 128 39 38 39 47 40 35 46 54 48 50 42 43 49 74 130 185 209 220 224 221 218 220 223 223 224 224 225 224 222 221 222 223 221 222 220 221 220 219 220 219 218 217 217 217 216 216 216 215 214 213 213 212 212 212 210 210 210 211 201 
175 184 183 185 183 182 183 184 185 187 188 189 190 189 191 193 195 195 196 198 198 199 199 198 199 201 209 215 197 163 137 90 34 34 39 38 36 38 22 45 94 92 76 85 110 125 127 132 134 127 124 120 139 137 120 116 123 133 140 153 163 159 156 157 160 163 168 165 165 162 157 153 152 156 154 151 141 134 135 132 139 141 135 118 101 124 137 145 152 156 72 24 35 36 36 39 37 35 44 42 44 50 49 44 43 40 47 68 102 142 177 202 220 232 229 225 223 221 222 222 222 222 222 222 221 220 220 220 220 218 218 219 217 216 216 217 216 214 215 214 213 214 213 212 212 210 210 210 210 200 
172 182 183 183 181 181 183 185 186 186 187 187 188 190 191 192 193 195 195 196 196 197 196 199 209 205 165 109 61 39 33 28 35 32 34 35 34 30 50 112 122 114 121 132 138 143 144 142 137 128 116 121 140 140 127 118 121 130 142 148 157 162 163 162 163 165 162 165 162 159 156 157 156 156 154 146 139 137 139 140 142 141 137 115 105 123 134 141 145 99 29 35 38 36 27 43 41 32 31 35 36 36 36 33 33 35 35 27 28 39 53 66 101 140 177 208 225 231 226 223 222 222 223 221 220 219 220 220 219 219 218 218 216 216 215 216 216 216 215 213 213 214 212 211 212 210 209 209 209 199 
171 181 180 180 181 181 182 183 184 186 186 186 188 188 190 192 192 191 194 200 205 207 205 197 148 78 37 24 28 37 32 31 34 35 34 31 33 25 67 208 202 179 158 148 141 142 146 140 130 123 124 125 140 142 134 123 122 129 145 152 156 156 157 163 166 169 167 168 166 162 161 162 160 159 154 148 141 137 140 145 146 145 136 123 119 129 133 137 108 34 32 36 36 44 36 39 35 38 38 38 33 33 39 39 33 37 38 38 37 40 46 45 47 45 51 75 106 145 188 214 224 222 221 221 220 219 219 218 218 218 217 216 215 214 215 215 215 215 214 214 213 212 210 210 210 209 209 208 210 199 
169 181 178 179 180 179 181 182 185 185 185 186 187 189 188 187 192 202 194 176 151 118 97 72 35 29 43 42 39 37 33 35 36 38 31 30 32 35 31 151 232 225 224 209 191 172 159 148 132 128 126 129 141 147 140 123 122 126 144 150 160 162 159 159 162 168 168 169 169 170 167 165 162 162 158 153 147 141 148 152 148 146 138 128 132 136 138 130 48 40 44 38 39 43 36 38 47 42 36 37 42 34 37 41 40 35 37 41 46 49 48 48 52 53 52 47 43 50 66 121 180 219 220 220 219 218 218 218 218 216 216 216 216 216 215 215 214 213 213 212 211 211 210 210 209 209 208 207 208 197 
170 178 177 178 179 180 181 181 183 186 186 188 188 188 191 196 184 131 75 44 36 26 22 26 31 37 40 36 35 34 34 33 34 34 32 37 36 42 27 97 219 219 224 227 233 233 230 226 216 207 200 193 189 184 174 154 148 144 149 155 161 163 162 161 159 156 161 163 163 161 163 164 163 161 160 152 142 149 153 153 150 139 139 133 135 135 140 70 33 45 36 37 39 35 36 36 34 43 41 39 42 38 37 37 43 37 45 46 43 45 40 40 46 51 50 50 48 50 44 65 107 167 218 220 219 217 218 218 218 217 217 217 216 216 215 215 214 213 213 213 212 211 212 211 211 211 209 207 208 199 
163 171 169 172 172 172 173 174 175 178 178 179 180 183 171 127 62 28 26 30 30 29 29 30 30 28 27 30 33 36 33 30 31 27 33 34 39 40 39 57 188 215 213 216 217 218 221 224 227 231 234 234 233 231 230 226 218 210 206 205 204 202 200 200 195 189 194 198 197 196 196 196 196 195 191 186 184 187 186 184 181 179 177 176 174 182 112 28 42 41 44 47 41 42 35 33 38 35 38 32 37 36 33 34 42 34 42 46 44 39 40 41 44 39 42 48 51 51 47 53 65 79 136 188 211 209 211 210 209 209 208 208 208 206 207 208 206 206 203 203 205 205 203 203 203 202 200 199 201 191 
