P2
150 65
255
41 62 110 102 104 106 107 107 114 110 109 109 106 109 111 108 112 125 149 158 166 158 163 162 160 161 161 160 162 159 159 162 131 129 150 94 41 46 15 31 18 50 103 92 61 25 136 167 155 163 177 146 104 163 197 150 67 125 92 95 123 58 87 52 20 64 101 140 77 99 124 105 163 189 170 118 90 114 149 147 159 125 43 80 64 132 146 180 75 104 73 159 215 222 200 176 192 151 92 156 191 159 159 166 168 186 211 250 243 244 244 244 244 244 244 244 244 244 244 244 244 244 244 244 244 244 244 244 244 244 243 243 243 243 243 244 244 243 243 243 243 243 243 243 243 243 242 241 244 232 
45 64 113 105 112 114 113 108 125 131 113 117 115 114 123 133 117 137 172 170 174 163 160 165 167 167 167 170 173 172 169 166 137 122 125 79 40 49 16 34 18 51 103 90 63 25 139 176 162 168 184 153 108 168 205 146 67 134 92 99 129 66 95 48 32 90 106 142 77 106 116 109 175 197 168 119 108 140 163 163 173 101 53 86 64 147 150 165 65 66 77 212 232 234 196 183 197 151 95 163 196 163 179 182 182 188 220 255 253 254 254 254 254 254 254 254 254 253 253 254 254 254 253 253 254 254 253 253 253 253 253 253 253 253 253 253 253 252 252 252 252 252 252 252 252 252 251 251 253 240 
45 64 115 106 114 116 114 113 123 134 123 122 123 111 124 146 119 136 166 170 174 160 159 142 172 179 175 173 171 176 175 165 138 134 152 95 41 47 17 33 20 42 73 79 65 25 134 173 164 170 184 154 110 170 208 150 73 134 113 113 119 69 88 49 30 97 103 132 83 110 126 130 181 204 166 120 98 150 171 157 172 70 52 69 93 170 162 132 69 68 131 214 192 212 200 185 196 148 96 168 195 161 148 138 173 200 228 255 253 253 253 253 253 253 253 254 253 252 252 253 253 252 252 252 252 252 252 252 252 252 252 252 252 251 251 251 251 251 251 251 251 251 251 251 250 250 250 250 251 239 
47 65 117 109 115 114 119 135 136 136 126 111 113 113 126 133 120 134 168 177 177 152 142 136 177 182 178 173 171 175 177 165 141 127 129 84 43 49 16 35 20 41 68 74 68 29 129 176 165 172 186 156 112 173 209 150 71 135 125 106 100 76 94 52 26 92 110 105 67 100 127 151 184 199 162 122 98 166 190 176 170 45 40 40 114 152 170 91 81 65 188 175 130 128 154 191 196 144 97 171 194 160 186 181 187 186 229 255 253 254 254 254 254 254 253 253 253 253 253 253 253 253 253 253 253 253 252 252 252 252 252 252 252 252 252 252 252 251 251 251 251 251 251 251 251 251 250 250 252 240 
48 67 118 110 115 116 132 155 160 158 147 130 125 128 137 114 123 136 175 184 187 176 164 184 187 186 186 185 185 189 182 165 141 136 153 94 42 52 16 23 17 68 108 119 85 30 126 178 168 179 188 160 116 179 215 158 112 136 123 126 112 67 93 45 31 83 111 65 47 76 85 149 201 204 172 109 110 184 190 175 154 28 42 39 136 133 173 106 82 93 224 223 214 194 179 188 195 141 98 174 192 158 163 151 182 224 243 254 254 254 254 254 254 254 254 254 254 254 253 253 253 253 253 253 254 254 253 253 252 252 252 252 252 252 252 252 252 252 252 251 251 251 251 251 251 251 251 250 252 239 
50 65 119 112 113 120 141 147 161 166 168 173 177 178 124 114 125 138 181 187 184 187 188 186 186 188 187 189 190 190 182 165 144 130 133 90 52 57 27 37 35 93 145 140 94 38 123 166 158 166 185 162 123 149 180 166 135 132 134 119 125 104 133 86 30 103 127 72 73 80 70 130 166 162 147 94 124 180 177 206 127 36 42 61 147 137 172 137 96 144 241 233 215 232 202 182 189 135 103 177 189 155 164 152 182 227 248 254 254 254 254 254 254 254 254 254 254 254 254 253 253 253 253 253 253 253 253 253 252 252 252 252 252 252 252 252 252 252 252 252 251 251 251 251 251 251 252 251 251 239 
49 64 120 113 113 119 144 145 144 151 165 164 148 110 98 127 125 141 181 158 140 146 142 141 141 137 136 135 133 136 142 167 145 138 148 110 137 140 101 126 112 71 110 89 73 37 119 170 151 169 184 162 130 125 132 117 130 131 128 128 138 150 163 128 31 137 151 130 150 134 79 129 198 188 147 142 167 218 228 215 146 151 106 103 137 136 141 140 142 168 236 239 240 239 202 191 194 129 102 173 191 164 191 173 190 223 245 249 249 249 252 252 253 254 254 254 254 253 255 254 254 253 253 253 253 253 253 253 253 253 253 252 252 252 252 252 252 252 253 251 251 251 251 251 251 251 251 251 252 239 
50 63 119 112 116 115 128 147 150 147 108 80 70 84 117 124 124 144 179 170 169 176 176 175 170 165 164 165 158 160 160 165 146 142 151 116 94 101 83 93 79 77 102 102 98 63 134 196 182 198 191 169 146 141 155 144 123 153 148 136 144 142 147 152 86 144 164 143 134 129 111 160 196 197 175 169 189 212 214 197 166 183 153 158 176 166 158 155 162 184 148 133 153 145 115 107 105 74 65 92 112 114 141 153 165 211 246 245 252 251 246 247 250 253 253 253 253 254 254 254 254 253 253 253 253 253 253 253 253 253 253 252 252 252 252 252 252 252 252 252 252 252 251 251 251 251 251 251 253 240 
51 61 118 112 115 117 109 106 119 91 62 73 85 109 116 120 120 147 187 181 177 176 175 177 176 177 179 181 180 181 175 166 140 156 162 162 160 159 162 165 165 168 171 175 176 175 177 179 180 178 179 181 182 182 184 186 182 184 185 182 183 181 180 184 191 185 185 187 185 185 190 187 181 182 185 184 184 180 180 181 184 184 187 182 161 138 119 96 85 81 69 54 45 44 46 44 45 49 58 61 51 54 79 98 76 99 122 129 169 211 240 255 249 250 253 254 254 254 254 254 254 253 253 253 253 253 253 253 253 253 253 252 252 252 252 252 252 252 252 252 252 252 251 251 251 251 251 251 253 241 
52 62 121 114 116 133 145 138 122 106 114 128 137 142 144 145 147 150 154 148 145 146 148 149 146 148 149 151 154 157 160 167 137 105 97 87 88 84 85 84 81 82 82 86 90 89 82 77 75 80 82 84 85 83 79 75 75 74 73 73 75 75 75 75 74 73 74 73 75 74 74 74 75 77 76 75 76 78 78 80 77 69 59 50 40 33 35 46 47 54 56 60 64 62 59 60 60 57 56 57 61 72 79 61 66 63 46 42 50 69 110 186 235 255 252 253 254 254 254 254 254 253 253 253 253 253 253 253 253 253 253 253 253 252 252 252 252 252 252 252 252 252 252 252 251 251 251 251 253 241 
52 62 119 115 116 146 176 171 173 171 170 174 174 174 176 177 186 150 119 128 144 166 144 151 162 160 159 159 156 157 158 165 138 131 126 78 74 66 67 64 61 65 62 73 74 67 58 55 59 66 72 80 80 80 80 79 78 80 80 80 81 83 84 86 85 83 84 85 86 85 88 87 88 91 91 90 91 88 88 80 44 33 37 39 40 44 44 46 51 54 58 54 55 59 60 57 54 50 55 63 65 71 88 65 67 64 57 52 50 47 42 56 110 193 242 255 252 254 254 254 254 253 253 253 253 253 253 253 253 253 253 253 254 254 253 252 252 252 252 252 252 252 252 252 252 251 251 251 253 241 
54 60 118 114 114 142 164 161 165 159 154 164 160 160 161 165 177 147 150 183 181 189 151 167 191 186 189 187 176 169 166 165 139 135 138 94 77 67 70 69 68 73 80 86 91 90 83 79 71 73 81 87 85 88 87 86 88 89 89 90 92 94 94 94 95 94 96 95 95 95 97 96 97 98 100 100 95 103 119 47 33 38 40 41 38 43 49 53 57 61 71 69 62 64 60 59 60 53 54 63 65 79 84 64 64 59 57 55 53 50 52 45 43 64 131 214 251 254 253 254 254 253 253 253 253 253 253 253 253 253 253 253 254 253 252 252 252 252 252 252 252 252 252 252 252 251 251 251 253 241 
54 57 120 116 115 139 169 166 170 169 171 172 173 174 173 173 181 145 149 182 181 179 160 167 175 181 181 179 176 163 162 167 143 134 136 103 91 99 101 103 104 108 121 112 109 106 100 97 95 89 92 95 90 96 86 83 91 91 91 91 93 93 94 93 94 94 94 95 96 96 97 97 97 99 98 94 110 122 64 35 37 39 42 47 48 47 47 53 53 58 64 65 65 67 62 53 55 61 69 69 77 79 69 67 71 67 58 53 46 45 49 46 42 45 56 106 198 248 252 253 253 253 253 253 253 253 253 253 253 253 253 253 253 252 252 252 252 252 252 252 252 252 252 252 252 252 251 251 252 239 
55 56 119 116 116 138 173 164 159 160 163 164 165 166 169 172 180 143 152 183 185 173 163 175 169 174 178 174 170 171 173 167 144 139 140 114 111 112 108 111 112 109 132 111 105 89 85 84 89 90 92 92 93 89 83 77 87 91 90 89 88 88 95 96 93 94 96 94 92 93 92 93 93 93 95 126 105 44 22 32 37 45 46 40 41 45 50 54 62 72 63 52 53 60 58 56 60 70 86 96 95 66 73 65 63 65 65 63 55 48 51 43 44 43 46 53 107 191 244 252 252 253 253 253 253 253 253 253 253 253 253 253 253 252 252 252 252 252 252 252 252 252 252 252 252 252 253 251 253 240 
56 55 118 116 118 144 173 161 156 158 157 160 163 163 166 168 179 142 154 183 183 174 167 167 167 166 166 168 170 170 169 165 144 136 136 112 121 127 120 134 121 84 144 108 95 120 113 79 59 48 45 33 50 99 73 106 97 90 101 99 98 103 83 84 98 94 92 109 117 117 119 121 119 121 143 92 35 32 26 28 29 32 38 44 45 49 56 62 68 73 75 70 57 46 44 51 54 61 80 105 110 95 102 84 64 58 61 61 56 52 44 44 45 42 42 48 51 116 198 250 250 253 253 253 253 253 253 253 253 253 253 253 253 252 252 252 252 252 252 252 252 252 252 252 252 252 253 251 253 241 
56 57 118 116 118 150 173 161 158 159 158 160 163 164 165 164 178 141 155 182 184 181 179 176 166 165 166 168 166 173 173 165 144 138 142 117 125 133 116 144 107 103 164 158 144 201 167 101 51 13 19 7 31 123 74 165 142 99 107 131 179 161 140 130 141 103 84 126 161 156 161 170 177 203 103 31 40 26 28 29 35 52 55 63 85 94 96 95 88 82 87 91 97 101 107 111 115 117 119 141 149 142 140 117 82 62 60 70 57 50 47 38 43 43 43 40 42 65 149 219 252 250 253 253 253 253 253 253 253 253 253 252 252 252 252 252 252 252 252 252 252 252 252 252 252 252 251 251 253 241 
57 59 118 116 119 142 169 162 164 164 163 164 166 168 169 171 180 139 157 181 184 179 170 174 165 166 164 165 161 166 167 165 144 135 134 115 130 141 122 152 108 114 182 191 164 176 165 114 57 17 25 18 29 129 74 169 158 111 125 107 187 166 159 150 158 118 81 111 172 166 166 169 191 122 81 67 64 52 43 43 50 77 100 122 149 167 173 169 166 163 161 168 180 192 197 196 195 193 186 180 168 162 165 158 123 91 78 75 56 49 53 41 35 42 45 45 45 41 89 169 235 250 250 254 253 253 253 253 253 252 252 252 252 252 252 252 252 252 252 252 252 252 252 252 252 252 251 251 253 241 
57 58 117 117 119 140 171 162 158 163 163 163 165 164 166 170 181 140 153 177 184 180 178 179 176 172 175 173 176 175 170 163 143 140 144 118 137 161 132 161 123 99 194 197 165 174 166 118 83 42 45 36 41 140 76 166 169 111 140 80 177 188 169 159 166 131 90 109 177 171 172 187 132 50 96 55 64 83 89 82 92 119 145 169 187 197 201 205 207 210 212 214 214 211 212 209 204 202 200 200 196 189 172 169 154 135 99 78 57 44 43 45 38 35 41 45 48 49 53 126 200 251 250 254 253 253 253 253 252 252 252 252 252 252 252 252 252 252 252 252 252 252 252 252 252 252 252 251 253 240 
58 57 117 118 119 138 170 159 157 158 164 166 169 175 176 174 180 138 149 181 171 147 149 158 169 163 162 162 166 165 163 163 144 136 131 117 144 162 133 169 140 112 196 197 136 162 173 126 99 22 25 21 27 149 95 167 186 121 148 83 161 211 180 173 172 159 110 123 185 177 192 161 114 82 14 34 44 61 85 118 139 156 171 183 194 204 209 211 214 216 216 212 215 220 217 214 212 209 207 207 205 201 191 178 161 154 133 112 84 59 39 33 39 34 35 36 44 55 50 89 169 239 254 253 253 253 252 252 252 252 252 252 252 252 252 252 252 252 252 252 252 252 252 252 252 252 252 252 253 240 
59 56 115 117 120 140 171 164 161 163 165 167 171 173 174 174 179 135 145 170 160 161 158 163 170 169 170 173 172 175 169 162 145 142 145 121 141 164 151 175 126 108 200 198 128 150 176 131 74 18 25 25 24 155 109 168 200 131 149 90 133 223 184 189 177 186 137 126 192 187 196 123 168 85 16 28 35 66 125 157 161 175 188 197 205 208 208 210 218 222 222 224 224 225 225 222 219 216 214 212 205 201 198 192 177 161 154 149 119 94 66 40 33 35 34 34 39 47 50 72 146 222 255 251 251 252 252 252 252 252 252 252 252 252 252 252 252 252 252 252 252 252 252 252 251 251 251 251 252 240 
59 53 114 113 114 138 167 167 169 171 173 175 174 174 175 177 182 136 127 130 160 158 149 154 146 152 150 147 160 165 162 160 145 137 132 118 146 164 154 183 86 92 210 200 130 143 181 136 91 27 28 27 23 153 119 161 205 133 176 105 92 227 187 196 176 198 156 130 192 195 175 118 180 67 24 30 61 127 166 172 178 188 197 205 210 197 193 213 220 223 223 228 229 230 231 229 227 226 221 214 211 204 201 197 188 179 172 167 153 131 101 84 56 35 37 38 41 42 46 61 125 193 254 252 251 251 252 252 252 252 252 252 252 252 252 252 252 252 252 252 252 252 252 252 251 251 251 251 252 240 
61 55 113 135 140 144 146 147 149 149 149 146 145 146 145 141 144 123 125 121 173 158 158 152 147 160 163 161 180 183 176 160 144 143 146 121 144 165 147 182 111 102 207 200 132 133 186 137 110 42 29 33 27 149 129 152 208 138 188 155 80 216 196 199 178 202 168 177 198 202 164 129 163 42 23 35 90 142 163 173 185 192 202 205 203 197 197 219 225 228 227 226 230 230 230 231 230 230 225 219 214 207 202 202 197 192 182 176 170 165 147 118 90 60 40 35 42 50 53 54 100 166 237 253 252 252 252 252 252 252 252 252 252 252 252 252 252 252 252 252 251 250 251 251 251 251 251 251 253 240 
59 53 120 147 122 117 120 138 142 142 141 150 167 171 162 119 124 124 138 158 178 156 161 142 107 117 79 113 180 183 177 160 146 137 128 118 152 171 148 175 145 126 203 200 137 127 188 138 108 41 31 30 33 142 140 148 205 151 180 175 95 195 208 196 184 197 177 170 169 192 190 120 106 23 24 40 97 141 163 178 189 196 200 207 206 209 213 217 228 230 230 227 229 231 232 232 231 228 226 224 215 210 206 203 200 194 188 182 176 172 166 146 117 87 55 37 37 40 51 65 94 143 222 251 252 252 252 252 252 251 252 252 252 252 252 252 252 252 252 251 251 251 251 251 251 251 251 251 253 240 
58 52 124 168 141 96 101 109 118 131 143 157 178 182 158 119 130 125 143 173 180 157 163 136 76 118 58 73 179 185 179 159 146 144 148 123 153 176 146 171 150 126 207 205 143 116 193 146 126 66 53 60 15 133 146 139 218 157 182 172 88 169 220 191 192 184 186 174 193 182 190 118 55 22 25 41 94 139 167 183 191 202 208 209 212 213 218 222 228 230 229 227 229 228 230 231 231 229 225 226 220 213 210 209 208 202 195 187 178 172 168 157 135 100 68 45 43 47 45 47 68 116 175 240 254 251 252 252 252 251 252 252 252 251 252 252 252 252 252 251 251 251 251 251 251 251 251 251 253 241 
56 51 127 173 161 121 118 131 139 163 163 174 172 177 151 119 129 125 139 167 178 156 156 164 164 169 169 170 177 182 176 160 146 137 130 119 158 165 104 115 103 131 209 189 129 111 204 134 82 114 117 126 84 147 142 115 187 136 159 164 92 134 230 189 200 174 176 169 204 195 201 140 35 24 26 41 97 148 172 190 196 204 216 221 223 223 223 226 231 234 235 235 233 232 236 240 239 240 237 232 229 225 224 216 211 201 193 193 189 179 172 165 146 114 75 50 42 53 58 53 41 91 145 217 255 249 251 251 251 252 251 251 250 250 251 250 250 251 252 251 250 251 251 251 251 251 251 250 253 241 
56 52 121 169 158 90 94 112 119 159 164 165 170 172 154 123 128 123 140 172 178 153 159 164 149 162 155 160 177 183 174 159 146 145 150 125 149 170 130 151 137 132 215 177 131 119 204 145 85 72 109 58 68 156 150 112 161 128 132 134 88 122 228 194 205 171 137 157 206 196 204 172 46 25 24 44 117 160 182 196 200 187 186 198 211 225 228 228 229 224 228 232 235 236 236 235 236 236 237 232 218 203 184 165 158 161 167 182 180 182 175 171 163 141 112 64 45 50 64 70 63 95 149 224 252 248 250 251 253 253 254 255 255 254 254 254 254 254 254 253 253 253 253 253 253 253 252 251 254 242 
58 51 118 173 162 107 135 159 157 162 159 158 158 164 165 123 128 124 141 172 175 157 162 164 158 166 164 163 177 182 174 158 140 151 150 146 168 173 170 187 178 154 198 200 194 142 192 157 137 60 64 63 18 96 143 112 205 163 132 143 94 131 226 208 204 184 172 189 204 204 207 185 57 23 25 67 146 160 155 162 153 131 116 113 129 141 165 188 199 207 215 221 223 225 224 221 215 202 178 161 132 113 111 114 120 127 140 144 132 136 137 157 166 162 145 90 46 41 58 81 75 67 120 215 222 222 223 225 227 230 230 231 232 233 234 235 237 237 237 238 239 240 241 242 242 243 244 244 247 237 
59 49 124 179 172 165 162 157 161 166 157 158 159 163 162 122 128 125 141 170 165 148 164 153 158 159 162 157 160 179 174 157 134 126 132 132 138 143 146 149 156 163 163 168 173 175 180 180 182 181 174 174 172 168 169 173 193 181 183 174 165 156 206 205 191 187 162 182 198 188 190 131 25 26 28 98 158 126 111 146 161 177 190 186 173 157 149 155 173 192 204 213 214 213 215 207 192 174 160 159 161 171 187 208 210 197 190 176 165 148 135 142 161 171 162 123 61 40 48 77 116 135 171 250 242 243 244 244 243 242 240 239 238 237 236 234 235 233 233 230 230 229 229 229 226 226 227 225 226 219 
59 50 130 179 166 164 171 161 162 163 156 158 160 165 158 121 127 124 138 167 168 150 154 151 159 154 156 153 157 180 173 156 137 113 95 70 72 70 67 67 69 71 75 86 91 96 91 94 102 114 122 129 134 142 146 148 162 180 173 177 199 191 176 183 185 186 189 191 193 190 196 96 20 29 37 121 162 138 153 183 196 202 199 214 217 216 204 193 194 196 198 203 209 214 218 210 202 198 195 193 193 192 197 190 181 180 171 178 183 179 173 170 173 177 172 148 75 39 49 60 115 177 135 176 255 246 248 250 251 251 251 251 251 252 252 252 252 253 253 253 253 252 251 251 251 250 250 249 250 238 
60 50 140 176 163 163 166 165 163 167 162 169 170 172 159 120 128 126 136 165 167 148 153 149 156 173 175 173 171 179 170 156 138 140 136 88 80 71 70 70 70 68 70 78 73 66 60 58 63 69 72 74 76 77 76 79 78 78 82 86 87 91 98 102 105 108 112 117 123 126 135 59 19 21 42 140 173 163 160 170 146 120 154 104 92 107 152 189 193 192 199 208 217 224 228 217 205 196 186 186 169 171 121 61 57 69 137 103 128 157 167 170 176 176 176 166 84 49 57 51 83 156 111 198 253 245 247 248 248 248 249 249 249 249 249 249 249 250 250 250 250 250 250 250 249 250 249 249 251 239 
58 52 150 173 164 163 168 171 169 172 173 174 174 171 152 120 124 125 134 168 167 145 155 148 158 176 176 179 178 177 168 156 138 130 125 93 77 70 69 66 65 67 65 74 79 73 62 60 68 77 81 83 83 84 85 87 86 87 88 90 91 98 95 94 93 93 91 91 92 90 82 63 34 26 53 155 180 186 163 126 98 154 222 128 66 66 167 196 186 193 193 207 224 234 232 215 200 187 190 173 158 208 194 106 78 141 192 134 108 125 150 177 183 179 174 174 119 54 70 70 94 116 151 251 244 245 246 245 246 247 248 248 248 249 249 249 249 250 250 250 250 250 250 250 250 250 249 248 251 240 
55 59 161 169 162 161 164 164 168 173 171 171 169 164 144 121 139 135 126 136 170 169 170 169 169 180 181 179 178 176 179 156 138 138 140 109 83 68 68 67 72 63 79 84 75 108 116 97 82 82 77 79 82 77 83 97 96 97 99 100 103 106 103 106 107 108 111 110 102 103 85 71 57 34 64 169 192 203 191 161 151 163 182 197 165 175 190 183 202 206 196 202 217 231 227 208 197 192 203 191 178 176 182 188 176 172 158 160 165 170 177 190 192 185 178 179 151 73 68 89 107 103 206 245 242 243 245 246 247 247 247 248 249 248 248 249 249 249 249 249 249 249 251 250 249 249 249 249 251 240 
55 58 148 162 171 174 173 177 176 179 181 177 177 177 173 168 174 163 150 127 132 136 135 135 144 133 126 147 146 193 191 152 138 131 123 105 88 66 67 59 70 72 113 111 112 127 127 113 61 78 72 57 82 115 116 132 114 112 99 93 81 74 80 82 82 84 86 84 84 92 86 71 64 50 76 170 196 206 206 201 190 181 181 179 189 189 192 209 214 208 203 198 215 226 221 205 199 203 198 207 208 201 193 188 187 183 188 193 199 201 195 195 195 190 180 175 158 97 118 159 106 157 238 241 245 245 246 246 246 247 248 249 249 248 249 249 249 249 249 249 249 249 250 249 248 249 249 249 251 240 
57 43 96 107 105 98 100 112 121 127 136 178 186 178 174 169 152 144 155 162 131 124 123 123 106 63 57 96 123 141 160 154 137 136 139 117 94 63 68 53 65 62 103 108 118 132 151 128 35 76 95 44 72 88 99 111 157 166 119 92 120 132 124 124 128 123 114 129 127 116 101 99 103 90 85 166 196 209 215 216 217 215 210 209 212 214 218 221 218 216 206 200 218 221 213 207 205 210 210 212 220 219 214 214 211 213 218 217 218 213 206 199 195 189 179 176 157 111 158 148 113 224 246 244 245 245 246 246 246 246 247 248 247 247 249 249 249 249 249 249 249 249 249 249 249 249 249 249 252 240 
57 45 96 104 99 89 87 102 115 113 114 128 174 179 170 150 152 152 149 169 130 115 125 91 60 64 66 60 94 122 119 154 137 129 123 110 95 66 69 55 69 61 132 140 125 136 156 139 60 64 66 69 119 117 124 127 85 63 62 97 157 188 185 191 175 168 106 118 95 88 74 137 131 113 78 159 195 208 216 220 223 225 222 218 222 221 221 222 220 213 197 200 218 219 209 198 199 212 217 218 224 223 218 221 219 220 222 224 221 214 206 197 192 187 179 177 139 136 139 108 195 240 241 244 245 245 246 246 246 246 247 247 247 248 248 248 248 248 249 249 249 249 249 249 249 249 249 249 251 240 
64 48 117 149 134 127 131 135 133 124 118 117 122 168 182 164 172 160 162 160 108 87 57 40 63 63 63 69 57 79 133 154 137 136 138 118 98 68 69 56 66 58 93 88 119 119 123 131 76 83 59 91 180 161 164 167 130 138 106 70 141 183 178 183 175 172 130 136 138 142 139 134 115 136 104 149 189 204 211 216 221 226 225 221 227 227 227 227 218 194 185 205 218 215 208 199 185 192 208 220 228 228 230 227 225 226 224 223 218 208 202 196 191 186 182 161 143 133 113 200 241 242 244 245 245 245 246 246 246 246 247 247 247 247 248 248 248 248 250 249 249 249 249 249 249 249 249 249 251 240 
64 48 117 151 147 134 150 155 159 144 114 119 116 113 157 173 168 166 144 113 78 51 20 31 37 34 33 64 50 21 91 155 136 130 123 110 98 72 69 59 69 68 96 100 124 117 132 139 82 81 64 72 157 147 150 156 154 161 141 79 131 190 183 189 184 182 154 158 168 182 172 174 168 155 174 154 173 197 209 214 219 225 225 228 230 232 237 229 205 177 188 207 219 219 208 200 183 165 178 208 221 230 234 233 230 228 225 219 212 203 192 193 187 183 173 168 188 94 177 247 239 244 244 245 245 245 246 246 246 246 247 247 247 247 248 248 248 248 250 249 249 249 249 249 249 249 249 248 251 240 
64 51 120 132 137 134 133 129 135 148 115 116 118 118 113 153 146 122 93 63 57 26 27 49 30 35 25 48 56 20 61 156 134 134 138 118 103 76 73 60 80 80 91 103 128 121 138 145 101 77 77 59 151 161 157 165 175 139 144 86 119 191 184 191 189 153 158 162 161 181 170 170 169 150 169 164 155 185 201 206 213 218 221 225 230 237 231 209 189 187 194 213 226 232 219 202 187 183 172 181 207 216 225 232 227 222 216 213 206 196 185 191 180 176 166 138 116 148 241 244 242 244 245 245 246 246 246 246 246 246 247 247 247 247 247 248 248 248 248 248 249 250 249 249 249 249 249 249 250 239 
64 50 136 151 130 126 135 148 158 146 113 116 117 118 117 115 100 76 58 64 54 16 36 43 22 37 25 48 57 12 52 157 135 130 123 110 103 82 75 63 70 75 91 112 133 124 142 151 121 84 95 54 141 176 171 181 183 135 162 104 118 189 192 196 200 168 166 172 163 183 175 171 167 188 165 171 148 159 189 197 201 208 213 217 223 224 211 203 189 184 167 184 194 195 193 164 159 193 174 171 203 208 216 216 213 209 206 201 198 194 192 186 178 179 149 98 131 242 248 243 244 245 246 246 246 246 246 247 247 247 247 247 247 247 247 248 248 248 248 248 249 249 248 248 249 249 248 248 250 240 
65 54 139 153 140 139 134 145 164 140 113 116 117 115 115 124 89 54 63 64 64 55 48 49 45 45 52 67 42 15 69 155 135 133 134 117 106 86 78 65 59 50 87 101 127 120 141 154 143 81 80 56 130 178 168 189 185 157 160 125 113 190 200 202 209 188 176 186 179 184 184 179 149 187 171 189 162 144 162 187 194 200 206 205 210 216 215 213 198 168 165 168 172 164 173 170 166 165 160 188 207 211 211 207 201 202 198 194 192 187 184 181 179 177 119 102 189 251 243 246 245 246 246 246 246 246 245 247 247 247 247 247 247 247 247 248 248 248 248 249 249 248 248 248 249 249 248 247 250 240 
63 58 142 149 146 149 155 155 161 130 112 114 116 116 115 119 109 70 63 64 63 65 45 35 32 20 60 54 21 17 60 153 135 127 122 114 107 88 81 67 66 74 78 93 128 125 141 152 166 70 56 51 112 197 175 199 198 202 198 131 91 154 212 204 213 193 191 172 202 200 183 189 163 192 175 195 196 174 139 161 176 188 195 197 200 207 212 208 206 199 185 189 197 197 200 198 182 179 188 198 209 211 206 200 192 190 191 189 186 184 179 177 184 148 102 130 233 247 245 244 245 246 246 246 246 246 246 246 247 247 247 247 247 247 248 248 248 248 248 248 248 248 248 248 248 248 248 248 250 239 
58 73 160 149 149 149 154 161 162 124 112 113 115 114 116 117 121 111 72 60 66 57 24 32 38 30 50 48 25 30 71 153 134 132 135 118 106 90 87 75 71 110 128 107 120 138 138 155 170 108 101 98 101 191 192 197 198 200 207 165 108 127 218 205 214 201 192 154 201 206 207 197 196 209 198 196 215 205 158 147 155 166 177 180 189 197 199 203 205 204 206 207 213 203 198 204 195 194 197 200 205 202 198 192 185 182 180 179 181 178 178 184 171 113 107 187 251 243 245 246 246 246 246 246 246 246 246 246 247 247 247 247 247 248 248 248 248 248 248 248 249 248 248 248 248 248 248 248 250 240 
52 92 174 158 149 149 153 157 161 124 110 112 114 115 116 115 119 122 112 75 61 57 39 30 28 49 66 59 53 60 86 150 136 129 126 120 107 90 86 70 59 95 132 62 44 154 105 53 90 160 133 154 115 106 145 204 208 194 176 221 181 107 219 214 230 194 124 127 186 204 196 196 204 208 205 195 207 202 190 159 152 156 162 168 171 178 181 186 191 190 188 184 198 198 199 190 180 188 192 193 194 189 185 178 174 178 178 181 181 179 184 177 125 103 150 241 244 244 245 246 246 246 246 246 246 246 246 246 247 247 247 247 248 248 248 248 248 248 248 249 249 248 248 248 248 248 248 247 250 240 
49 103 162 155 151 154 161 166 168 120 111 111 114 114 116 116 120 117 117 117 85 34 18 25 27 39 50 20 24 52 85 149 135 131 137 126 105 91 94 90 83 103 130 128 111 155 115 79 110 169 130 155 123 119 159 157 143 166 177 175 175 126 191 153 168 161 145 140 180 207 202 203 205 211 203 204 205 204 194 180 152 156 159 169 167 157 147 139 130 126 127 128 133 143 141 134 134 141 144 144 146 151 157 164 175 184 184 182 179 179 175 133 106 135 226 245 242 244 246 245 245 246 246 246 246 246 247 247 247 247 247 247 247 248 248 248 248 248 248 248 248 248 248 248 248 248 248 248 250 239 
54 48 76 91 100 106 111 120 126 105 111 111 112 114 116 116 119 118 114 116 119 91 58 63 66 67 53 33 37 45 91 149 128 148 149 150 153 154 153 148 147 149 150 158 162 149 147 186 174 138 130 125 104 141 161 157 172 156 128 117 152 143 180 130 136 142 138 132 150 145 200 215 180 150 196 190 205 205 195 183 124 112 151 155 166 160 153 153 141 132 134 140 147 148 144 147 144 146 142 133 145 164 167 166 175 181 179 177 174 159 153 132 125 214 247 241 244 244 246 245 245 246 246 246 247 247 247 247 247 247 248 248 248 248 248 249 249 249 249 249 249 249 249 249 249 249 248 248 250 239 
57 44 84 107 105 105 103 104 102 106 113 112 110 113 115 116 119 118 114 115 119 121 98 65 61 63 65 66 70 89 116 148 116 110 116 117 129 139 149 156 159 164 171 162 161 178 167 158 167 173 166 167 159 164 166 176 192 170 125 114 176 108 175 178 162 169 140 135 157 182 211 216 199 173 146 135 167 165 142 127 70 35 84 129 143 152 158 159 161 157 154 160 172 181 180 180 170 159 155 158 164 167 166 166 170 168 167 162 146 145 170 139 139 237 242 243 244 244 246 245 245 246 246 246 247 248 247 247 247 247 248 248 248 248 248 249 249 249 249 249 249 249 249 249 249 249 248 248 250 239 
56 46 88 112 109 111 112 115 118 113 112 111 110 113 113 115 118 117 115 113 115 114 114 99 65 55 60 75 103 121 124 144 119 104 92 62 56 56 59 63 70 80 91 109 119 125 133 145 153 162 169 174 174 176 184 179 177 179 179 175 175 162 181 178 183 183 165 154 161 192 185 176 166 180 185 182 156 146 139 100 39 33 23 50 107 135 143 149 150 150 150 151 150 148 148 149 154 161 163 163 163 165 164 165 168 160 145 142 159 170 173 143 127 235 243 243 244 244 244 244 246 246 246 246 247 248 246 248 248 248 248 248 248 248 248 249 249 249 249 249 249 249 249 249 249 249 248 248 250 237 
56 46 85 108 108 109 109 114 114 112 112 111 111 113 113 115 119 118 117 119 133 135 127 129 116 79 95 112 116 115 118 144 120 120 111 69 62 56 53 50 44 36 33 32 26 24 20 27 40 50 60 74 90 103 118 132 143 176 180 181 191 198 184 178 179 178 176 176 179 182 187 183 181 179 181 170 164 168 115 45 36 32 30 26 20 76 128 143 151 154 155 154 150 153 156 159 160 163 163 167 170 168 166 166 150 137 150 172 176 168 168 160 128 216 252 242 241 243 244 244 245 246 246 246 247 247 246 248 248 248 248 248 248 249 249 249 249 249 249 249 249 249 249 249 249 248 249 247 249 239 
56 44 83 107 106 108 108 111 114 113 111 110 110 113 112 115 118 117 114 131 156 155 159 161 161 160 158 148 144 138 133 142 120 123 118 77 62 54 52 32 29 31 34 41 36 28 21 18 18 18 15 15 14 15 16 18 24 33 44 56 72 92 98 112 127 140 150 159 169 172 176 180 180 177 169 167 160 133 57 36 35 33 30 21 11 24 104 122 147 162 163 163 168 163 159 164 172 171 172 174 174 171 165 138 136 161 179 178 175 170 166 168 157 157 208 240 249 248 245 244 244 245 245 246 247 247 247 248 248 248 248 248 249 249 249 249 249 249 249 249 249 249 249 249 249 248 249 247 249 239 
56 46 83 107 105 107 107 112 113 111 110 110 107 110 111 114 118 117 111 135 164 154 152 155 160 161 158 160 159 165 159 142 120 120 116 81 60 55 44 10 32 30 43 50 53 52 45 46 24 19 25 26 23 22 31 43 46 40 32 24 16 12 9 12 17 21 26 34 43 58 71 90 110 123 127 127 119 66 34 39 36 31 22 12 17 18 95 119 120 138 153 160 162 162 159 160 167 171 174 170 163 147 131 146 172 179 180 181 176 171 165 165 163 159 151 169 195 218 236 245 248 249 248 247 246 245 247 247 247 248 248 248 248 249 249 249 249 249 249 249 249 249 249 249 249 249 248 246 249 239 
54 45 82 106 105 106 108 111 112 111 110 108 106 111 109 114 116 114 111 139 168 157 157 162 165 169 168 167 166 166 159 141 119 122 117 92 66 53 42 13 45 36 52 16 95 84 69 77 50 30 24 16 20 19 24 36 46 56 62 68 67 60 59 51 39 28 30 35 39 43 43 44 43 40 48 64 57 41 41 39 31 23 16 16 19 12 84 128 123 116 124 135 140 144 146 148 149 148 144 139 139 143 163 175 177 182 182 181 179 175 170 165 163 164 166 163 160 161 172 186 204 221 233 239 246 251 248 247 250 249 249 248 248 249 249 249 249 249 249 249 249 249 250 249 249 249 248 246 249 239 
54 46 81 106 105 107 106 109 112 109 108 107 107 111 110 113 116 114 110 142 168 155 154 157 162 164 167 166 166 168 159 139 118 118 112 86 67 53 40 15 52 7 5 8 48 59 48 76 78 88 73 30 20 19 30 25 23 14 17 14 20 56 31 57 68 61 60 50 42 38 37 40 47 63 78 61 44 40 43 35 27 20 19 20 19 11 77 128 132 128 120 131 139 143 144 146 148 152 155 163 171 172 172 174 182 187 185 183 180 178 173 165 166 167 170 175 174 176 175 175 175 177 181 184 192 204 232 244 236 243 244 248 250 251 249 249 248 249 249 249 249 249 248 248 248 248 248 246 248 238 
55 45 76 106 105 108 106 109 111 109 107 108 109 110 108 113 115 115 110 145 164 154 153 157 161 162 166 165 165 166 154 138 117 120 116 94 72 52 39 13 39 10 10 6 36 64 58 47 53 80 90 90 31 16 46 42 51 39 78 68 41 46 52 63 68 87 54 89 104 122 138 148 168 178 102 42 39 45 43 29 24 18 21 19 18 15 82 125 137 139 130 124 145 158 165 169 172 175 175 177 174 171 171 182 190 190 186 184 183 178 171 166 166 169 176 180 181 183 185 187 188 190 189 186 183 165 154 185 225 231 231 240 232 236 248 248 251 250 248 248 248 248 248 247 248 248 247 247 248 236 
53 45 76 104 103 106 105 109 110 109 109 108 108 109 109 114 115 114 110 148 163 151 151 155 161 160 161 164 162 165 151 135 117 115 108 86 69 52 35 16 48 7 8 3 29 60 55 56 63 72 87 79 33 20 75 48 81 81 43 57 59 42 82 145 140 189 191 223 230 239 235 227 174 89 42 38 49 46 29 23 20 20 18 22 16 15 59 118 133 141 141 130 131 150 162 171 175 175 174 173 173 175 179 187 187 186 186 184 182 176 171 170 171 176 181 183 186 188 192 193 194 198 197 198 198 198 177 186 225 251 235 212 231 236 222 223 232 238 245 247 249 250 248 247 247 247 247 247 248 237 
53 45 77 105 103 105 104 108 108 107 107 106 108 110 109 114 115 113 112 151 161 155 155 154 153 160 162 164 162 165 139 132 115 119 116 95 74 52 31 21 50 7 11 10 24 62 66 46 62 64 67 73 28 19 76 60 67 75 15 19 29 64 160 224 233 234 232 223 213 209 200 141 57 37 41 50 53 33 27 25 24 19 27 29 19 21 17 69 119 134 144 142 138 145 157 166 172 176 176 176 178 182 187 189 187 186 183 183 179 176 174 173 177 182 186 188 192 193 197 199 201 200 197 203 198 200 219 225 237 251 226 222 251 246 231 232 221 227 236 234 236 234 242 249 249 247 247 247 249 238 
54 44 75 104 102 105 105 108 108 109 107 106 108 110 109 114 115 111 112 154 160 159 160 159 159 160 160 162 162 161 125 133 115 112 105 84 73 55 31 22 46 6 33 33 26 73 109 44 70 104 55 83 36 12 81 74 71 66 22 121 194 229 241 228 220 211 202 190 199 177 107 47 39 41 45 43 37 31 24 23 22 27 36 30 23 23 24 26 75 121 128 140 145 151 158 167 172 174 176 180 181 184 189 188 185 183 181 182 183 180 177 177 183 187 189 189 193 197 200 200 202 200 197 195 211 231 239 233 236 243 217 236 249 249 250 242 238 241 242 233 227 231 235 229 237 245 249 247 248 238 
54 44 74 104 102 103 105 107 108 109 107 106 108 108 109 114 113 110 115 157 162 160 161 160 160 161 158 160 162 156 124 135 114 118 115 94 76 59 32 24 44 7 35 39 30 67 97 46 73 125 56 78 43 11 62 69 66 102 178 240 234 233 221 220 226 228 219 193 135 74 39 34 38 41 35 36 36 25 25 27 29 36 36 30 25 24 29 33 32 76 123 130 142 151 159 167 171 174 179 182 183 186 186 184 182 180 183 184 186 183 183 186 190 190 190 194 196 196 195 193 190 194 199 217 252 239 212 242 251 242 216 249 248 249 248 250 247 237 229 220 239 238 227 214 230 220 228 239 250 236 
54 45 74 105 101 101 103 107 107 107 106 105 106 107 109 111 112 108 122 164 162 159 158 157 155 158 159 159 160 151 124 134 115 111 103 85 76 64 29 18 32 0 33 44 51 63 93 61 79 89 52 65 45 8 53 67 90 205 224 226 223 201 192 186 156 128 83 42 23 28 30 37 38 34 36 42 29 29 31 32 40 43 35 34 27 20 32 36 39 37 83 134 143 150 158 165 170 174 178 179 181 183 183 182 181 183 187 189 191 189 189 189 188 185 185 184 179 177 179 187 200 213 226 243 245 245 234 248 253 224 230 255 252 251 251 252 249 247 242 240 239 236 215 225 224 228 236 220 224 233 
53 44 73 103 101 102 102 107 106 107 106 105 106 105 109 111 111 108 119 145 147 151 153 155 158 159 160 159 160 148 123 134 112 117 116 96 81 66 38 35 52 46 72 67 104 76 77 80 80 81 65 64 40 11 43 85 199 214 209 162 78 45 38 30 24 24 13 26 39 25 30 36 34 36 42 35 36 39 36 40 46 36 33 37 21 19 34 39 41 52 50 117 159 162 164 166 169 173 176 177 180 183 187 183 184 187 191 189 186 183 179 175 174 173 172 175 185 201 223 242 249 242 237 241 238 239 239 235 237 220 231 238 239 243 244 243 240 243 248 252 245 238 233 231 230 233 229 234 226 204 
53 46 73 103 101 101 101 106 106 107 105 106 106 104 108 111 110 108 107 105 106 106 109 114 118 126 134 139 149 144 124 131 112 108 102 85 79 66 70 99 108 113 147 141 106 78 63 97 109 94 62 158 90 10 25 158 237 212 208 176 97 51 31 29 43 29 26 40 29 27 35 33 33 37 36 40 41 40 45 44 40 39 39 29 21 36 58 43 40 66 78 117 172 181 183 185 184 184 185 184 186 188 188 186 185 184 182 181 178 180 177 181 188 198 210 224 240 252 254 251 249 252 255 255 255 254 254 255 244 227 248 243 240 241 238 236 235 233 229 231 231 239 244 246 241 238 233 232 229 209 
52 45 72 102 100 100 101 105 104 106 105 105 108 105 107 110 108 107 108 111 112 107 105 104 101 100 99 99 104 128 127 130 113 116 115 97 79 70 67 85 94 96 90 88 84 65 86 100 105 107 95 166 102 0 100 217 227 221 200 208 184 144 59 31 29 25 40 40 36 36 32 28 30 36 39 43 46 46 50 44 44 41 34 27 38 127 107 50 51 117 136 136 175 185 189 195 196 197 194 191 188 186 189 190 187 189 194 198 203 208 222 233 243 251 255 254 250 243 244 247 247 245 245 246 253 254 252 255 233 234 255 254 255 250 249 250 252 252 249 245 236 231 221 229 240 241 236 233 230 229 
51 44 70 101 99 99 101 105 103 105 103 103 104 105 106 109 108 106 106 108 109 105 104 106 104 105 106 105 111 135 125 128 112 121 123 114 117 121 120 109 104 104 98 93 105 91 106 120 110 87 60 99 116 75 181 221 225 224 207 207 186 173 86 73 45 26 26 30 34 30 27 31 38 41 40 42 41 46 46 47 41 42 35 49 156 188 117 74 136 241 230 216 225 217 214 211 209 204 200 202 205 207 213 219 227 226 220 247 244 244 253 254 250 250 250 250 251 250 253 253 253 253 252 247 242 253 253 255 224 245 254 251 247 249 247 242 243 238 234 243 252 248 245 230 220 230 239 232 231 224 
51 45 67 100 98 98 101 104 103 104 102 103 102 100 102 106 106 105 105 107 108 105 105 105 103 105 105 102 112 137 123 128 103 118 131 141 147 148 149 150 146 145 145 133 123 119 129 116 121 110 93 128 127 161 218 217 222 223 222 187 166 161 105 73 27 20 18 25 27 28 36 41 43 38 36 32 33 43 44 43 46 38 67 170 234 181 156 169 231 249 244 248 250 251 252 252 249 248 245 248 253 254 255 255 255 241 228 255 245 241 253 252 253 253 253 252 252 252 251 250 248 249 250 250 236 250 253 246 223 252 250 249 246 237 223 231 235 219 231 224 235 249 246 242 239 216 224 237 230 223 
53 45 70 100 97 97 102 104 103 104 101 102 103 101 103 106 107 105 105 107 107 104 105 105 103 105 103 101 116 140 123 127 101 82 75 68 81 92 105 118 129 139 147 152 150 145 143 139 140 142 145 147 161 217 211 198 195 200 219 158 51 29 22 18 15 16 17 23 21 27 32 33 33 33 32 32 36 38 37 34 35 95 194 232 228 193 222 238 248 242 230 231 246 244 237 243 251 249 248 252 253 253 253 252 255 227 235 255 253 244 247 255 255 255 255 255 255 255 255 255 255 255 254 243 247 255 255 241 231 255 250 237 223 234 242 251 253 235 225 250 225 237 249 238 243 242 214 221 236 220 
50 44 64 97 95 94 97 98 99 100 98 98 99 99 100 103 104 100 100 103 103 100 99 99 98 99 98 97 116 135 116 122 99 105 94 60 51 47 50 52 57 66 79 97 110 126 137 139 140 142 143 143 186 205 208 213 207 175 189 181 134 60 24 21 19 18 23 26 23 25 28 30 34 34 37 49 40 38 34 52 125 205 226 230 225 213 238 238 236 231 215 221 237 232 226 235 242 229 226 236 246 244 244 244 245 220 236 245 246 246 236 238 241 242 243 242 243 244 245 245 246 242 235 238 247 245 248 223 227 245 227 228 225 221 241 240 239 238 217 236 239 212 237 232 233 234 230 201 210 188 
