P2
150 65
255
126 136 135 138 140 141 142 144 146 147 149 152 152 153 153 154 156 157 156 157 159 160 161 162 163 164 165 165 167 168 168 168 169 171 172 172 173 173 172 173 174 175 175 176 177 178 179 180 181 181 182 183 185 184 184 186 186 186 187 186 187 189 188 188 188 189 189 189 191 190 191 192 192 192 191 191 191 191 191 191 191 191 191 191 191 191 191 191 191 190 190 191 189 189 189 189 188 188 187 186 186 185 185 185 185 184 183 182 183 183 181 181 181 179 180 179 177 178 177 176 176 174 174 174 174 172 171 171 171 171 170 169 169 169 168 168 168 167 166 165 164 164 162 162 161 162 160 159 159 153 
131 139 140 143 145 146 148 150 151 152 155 157 158 159 160 161 163 163 164 164 165 167 168 168 167 168 171 172 173 173 175 176 176 177 179 179 178 179 179 181 182 182 182 183 184 185 186 187 189 189 190 191 192 192 192 193 192 192 194 194 194 195 196 196 197 198 198 197 198 198 198 199 198 198 199 200 199 199 199 199 199 200 200 200 199 199 200 199 199 198 198 197 196 197 197 197 195 196 195 194 193 193 192 192 192 191 191 191 190 190 189 189 187 186 187 185 184 184 183 182 181 181 180 180 180 178 177 176 177 176 176 175 174 174 173 173 173 172 172 171 170 170 169 168 168 167 167 166 166 158 
130 138 139 141 143 145 147 149 150 152 154 156 157 158 159 160 161 162 163 164 165 166 167 166 168 169 170 172 172 173 174 176 177 176 177 178 178 179 180 181 181 182 184 183 184 185 186 187 188 189 190 189 190 192 191 193 193 193 194 195 195 194 196 197 196 197 198 197 197 198 199 198 199 199 199 200 200 200 200 200 200 200 199 199 200 200 200 200 199 199 199 198 198 198 198 197 197 197 196 195 194 194 193 192 191 190 191 190 189 189 190 188 188 187 185 185 184 184 182 182 183 181 180 180 179 178 176 176 176 174 174 175 174 173 173 173 172 172 172 170 169 168 169 168 167 166 166 165 166 158 
129 138 138 141 143 144 146 148 151 152 153 155 157 157 158 160 161 162 163 164 164 167 167 168 169 170 171 172 172 174 175 176 176 177 177 179 179 181 180 181 182 183 185 186 186 187 187 188 188 189 190 191 192 193 194 193 194 195 195 195 196 197 198 197 198 197 198 199 198 199 199 200 200 200 200 200 200 200 201 200 200 201 201 201 201 201 201 202 201 200 200 200 200 199 198 198 198 197 197 195 195 196 195 193 192 191 190 190 190 189 189 189 189 187 187 187 185 183 183 184 182 181 180 179 180 179 178 177 177 176 176 175 174 174 174 173 172 172 172 171 171 170 169 168 167 166 166 165 166 158 
129 138 138 140 143 144 146 148 150 152 153 156 155 157 158 159 160 162 164 164 164 167 167 169 169 170 172 174 174 174 175 176 178 178 178 179 179 181 181 181 183 183 185 187 187 188 188 189 190 191 192 192 193 193 194 193 194 196 197 197 197 197 198 197 199 200 200 200 200 199 200 201 201 201 201 201 202 202 201 201 201 202 202 202 201 201 202 202 202 201 201 201 201 200 199 198 196 195 195 195 195 196 196 196 194 193 190 189 189 187 189 190 189 189 188 186 185 185 182 183 182 181 180 179 180 179 177 177 177 176 176 175 174 174 174 173 172 172 171 170 171 170 168 168 167 166 166 165 165 157 
128 138 138 140 142 143 145 146 148 151 154 155 155 156 157 159 160 161 162 163 164 166 167 168 169 170 171 172 174 174 175 176 178 178 179 180 179 181 181 182 183 183 185 186 188 189 190 190 192 192 192 193 194 194 194 195 195 195 196 196 198 198 198 199 199 201 201 200 200 200 200 200 201 202 202 201 202 203 203 202 202 202 203 203 203 203 203 203 203 203 203 201 200 201 204 208 210 210 206 205 204 199 197 196 194 193 191 189 190 187 194 199 193 190 186 188 186 185 183 178 183 179 179 180 177 176 179 174 174 175 176 173 173 173 173 173 172 171 171 170 170 170 167 168 167 164 164 165 165 158 
126 137 137 139 140 142 145 148 149 150 151 152 153 156 157 158 159 160 161 162 164 166 168 169 169 170 172 172 174 174 176 177 177 178 179 180 181 181 182 182 183 185 185 186 187 188 189 191 191 192 192 192 193 193 194 195 195 195 196 197 197 198 198 199 199 201 200 201 201 201 202 201 202 201 201 203 202 203 202 202 202 202 203 204 204 203 203 203 203 201 202 211 216 206 186 158 134 119 107 94 87 82 79 82 80 76 78 88 97 110 114 128 143 162 177 181 181 184 180 177 181 179 180 178 178 182 158 158 175 173 174 173 172 172 172 172 170 171 171 171 170 168 168 167 166 165 165 164 165 158 
128 136 136 139 139 142 144 147 148 149 150 152 154 156 156 157 158 160 161 162 164 166 167 168 169 170 172 172 174 174 176 177 177 177 179 180 181 181 182 182 183 186 186 186 187 188 190 191 190 192 192 192 192 192 193 195 195 194 196 197 197 197 197 198 200 199 199 200 201 201 202 202 202 201 202 202 202 203 202 202 202 202 202 203 202 203 203 201 203 211 213 169 126 90 51 44 49 52 58 63 60 51 48 44 37 33 31 25 31 38 49 59 59 74 113 135 145 163 170 169 175 178 180 180 175 151 133 165 164 170 172 172 171 168 167 169 171 171 171 171 170 168 169 168 167 166 166 165 164 155 
128 136 136 139 141 143 145 147 148 149 151 151 153 155 156 157 159 161 160 162 164 165 165 166 167 169 171 173 174 174 176 175 176 177 179 180 180 180 179 180 181 184 185 188 189 189 190 192 190 191 192 192 193 195 194 195 196 196 196 197 198 198 198 198 198 199 200 200 200 200 200 200 200 201 202 202 202 202 202 202 201 202 203 203 202 200 206 215 207 175 108 44 35 39 48 60 68 66 58 65 69 71 69 59 54 51 48 42 30 28 23 27 40 42 36 47 58 76 96 104 134 152 158 152 133 115 125 119 145 169 172 173 165 157 160 167 170 170 170 170 169 168 167 166 166 164 163 163 163 154 
130 138 138 139 141 143 145 147 148 149 150 150 152 153 155 156 158 159 159 161 163 164 165 166 167 170 171 172 173 175 176 176 177 178 180 180 180 180 180 180 182 184 186 186 188 190 190 192 191 190 193 192 193 195 194 194 196 196 196 196 197 197 197 198 198 198 200 200 200 200 200 200 200 201 201 201 201 201 201 202 202 202 202 201 205 214 196 135 75 44 41 58 59 61 67 52 48 50 59 71 72 61 54 44 36 26 26 34 37 28 24 18 17 30 32 28 22 28 51 70 81 92 99 92 87 90 94 129 166 170 169 157 145 145 150 156 161 166 167 167 165 166 165 164 164 163 162 162 162 154 
136 145 145 147 148 151 154 154 155 156 157 159 160 160 161 162 164 163 165 165 168 165 163 164 166 169 171 172 174 174 175 176 178 179 179 179 180 179 179 181 182 182 183 185 188 188 189 190 191 192 192 192 192 193 193 193 192 195 195 195 196 196 196 198 198 198 200 200 200 200 200 200 201 200 201 201 201 202 202 202 202 202 199 209 191 123 60 40 43 48 48 45 45 50 54 63 76 73 60 54 50 41 36 34 33 35 26 18 25 26 18 16 13 20 23 14 21 34 44 54 61 71 72 70 80 100 133 157 160 154 141 132 128 126 136 155 168 174 176 173 172 171 167 161 161 162 161 159 160 153 
100 108 109 111 112 115 117 119 123 125 126 127 129 131 135 136 137 140 141 140 140 152 165 168 172 171 172 175 177 178 179 180 178 178 179 180 180 182 184 185 186 184 185 190 187 187 188 189 191 191 190 191 191 192 192 190 190 194 195 195 195 197 197 197 197 198 200 199 198 199 200 200 200 200 200 201 202 200 201 202 200 204 215 163 65 33 37 45 43 35 41 45 53 62 67 71 63 62 67 78 83 91 82 67 78 66 63 50 43 39 32 26 21 22 19 15 16 23 35 46 60 64 65 66 70 82 86 90 89 87 86 86 86 95 112 126 131 132 133 134 136 141 157 170 170 163 161 160 160 155 
21 18 8 10 10 12 13 11 13 15 16 14 16 18 19 27 37 50 69 66 55 48 85 97 118 148 147 150 152 152 157 139 122 124 118 116 121 125 126 132 138 145 150 154 184 191 190 191 192 191 193 193 191 191 191 189 188 193 195 194 194 196 197 197 197 199 199 199 199 200 200 200 199 200 199 200 201 200 201 200 204 201 117 44 38 46 45 41 38 45 53 58 61 61 66 83 117 125 135 138 133 135 124 121 131 122 115 107 111 101 91 75 65 53 35 23 24 33 42 54 58 61 48 36 29 30 24 19 16 16 19 22 21 21 20 17 18 20 20 20 21 24 30 58 105 146 154 150 150 150 
22 53 102 93 93 90 93 100 93 93 91 89 87 84 76 36 32 28 36 48 47 26 26 41 34 65 97 99 105 104 110 112 118 106 103 103 107 108 101 105 107 108 112 109 181 201 196 197 197 195 195 195 193 193 192 191 191 194 195 195 194 196 197 197 197 198 197 198 199 200 200 200 199 199 199 198 201 201 200 202 208 86 25 40 43 44 43 42 43 54 54 46 62 94 121 149 158 153 154 162 159 148 145 159 157 155 153 150 150 145 136 124 116 105 91 70 48 34 42 45 54 65 60 52 49 56 68 55 55 62 62 56 60 60 65 69 68 61 59 57 53 53 52 13 7 50 95 97 96 93 
50 86 147 114 124 103 99 143 196 201 195 203 202 191 204 130 45 51 4 19 21 12 19 35 34 52 101 103 111 111 125 128 130 115 107 107 110 111 107 111 114 114 116 115 180 199 196 197 196 195 195 196 195 194 192 192 194 193 195 195 194 196 196 197 198 197 197 197 198 200 200 199 199 199 199 200 200 201 202 208 96 27 38 32 30 37 40 37 36 41 51 79 122 158 172 173 175 174 175 181 182 176 172 174 170 170 168 163 159 159 153 146 138 125 116 104 95 61 41 42 46 51 54 45 53 62 69 61 66 67 64 62 76 66 53 83 89 72 68 77 77 78 80 36 11 44 91 100 94 89 
40 62 83 81 134 157 123 111 150 162 162 133 147 181 196 119 36 55 4 20 19 12 17 35 34 51 97 101 108 117 135 135 136 114 106 107 105 109 108 108 113 113 115 113 180 200 195 195 196 195 195 195 194 193 192 192 193 193 194 194 194 195 196 197 198 198 198 197 198 200 200 199 199 199 199 199 198 199 203 95 20 30 31 26 29 35 41 54 70 102 140 167 180 188 188 187 191 189 191 191 191 190 189 183 176 177 180 175 171 172 169 163 153 143 133 120 105 101 61 38 41 39 48 46 38 45 63 57 45 57 35 57 68 51 44 52 55 55 51 64 72 75 78 30 10 49 90 98 95 87 
67 46 147 84 100 84 65 78 173 186 182 161 161 189 206 123 34 65 5 17 20 11 14 34 33 48 95 105 108 124 138 133 141 110 103 108 105 104 108 109 113 113 115 115 181 199 195 195 195 195 195 194 193 192 193 192 191 192 192 192 194 195 195 196 197 197 197 198 198 198 199 199 199 199 199 200 199 204 99 19 39 43 36 58 89 122 146 161 182 192 197 198 195 197 196 197 200 200 201 201 195 197 197 194 189 189 190 189 184 181 178 174 164 155 145 131 118 106 98 45 36 45 44 34 36 39 51 58 60 64 39 17 34 50 55 73 70 61 68 63 54 63 72 27 13 51 90 95 94 86 
62 65 149 119 135 139 132 172 184 168 176 176 175 159 177 130 36 56 6 15 18 11 15 33 32 48 97 103 107 124 139 138 149 109 104 107 106 104 109 109 112 113 115 115 180 200 195 195 196 196 195 194 193 191 192 191 191 192 192 192 193 194 195 196 196 197 198 197 197 197 198 198 198 198 198 198 202 191 42 44 56 55 70 128 170 187 190 194 200 203 204 207 212 214 209 208 207 211 211 212 209 207 207 204 200 202 199 198 193 188 190 182 177 170 155 144 129 115 111 79 35 38 51 34 17 22 63 59 59 64 65 64 53 57 60 74 78 83 81 80 65 60 68 23 13 55 92 90 94 89 
45 73 66 105 110 115 124 132 129 118 118 121 129 124 139 122 31 52 6 15 17 10 12 32 31 44 97 102 103 129 143 144 157 109 103 104 105 104 107 107 111 113 115 114 178 199 196 196 195 195 195 194 193 191 191 191 192 193 193 192 193 194 194 197 196 196 198 198 198 198 198 198 198 198 198 196 203 113 39 52 66 70 106 155 183 191 195 197 202 210 213 216 218 218 218 217 213 211 215 214 213 209 212 211 204 204 204 200 199 194 190 185 178 174 163 151 141 124 116 103 47 35 40 31 20 12 29 53 55 49 49 64 66 65 68 70 72 76 74 73 68 69 66 21 13 56 92 88 93 87 
57 53 56 45 51 59 80 89 75 54 49 58 81 89 108 130 29 43 7 15 15 12 11 30 31 42 92 102 105 129 142 147 158 109 103 104 105 105 106 106 111 113 114 112 177 199 196 196 195 193 194 193 193 192 191 190 190 190 191 192 193 193 193 196 195 195 196 197 197 197 198 198 198 198 197 201 181 41 35 57 74 81 120 159 185 196 196 200 208 212 215 218 222 218 219 221 220 214 211 214 213 212 212 212 209 210 206 200 200 196 187 175 163 169 166 155 147 137 124 115 81 45 52 47 24 14 11 36 38 28 33 36 54 69 65 65 62 64 63 65 66 95 82 15 13 56 92 88 94 84 
96 125 113 114 95 94 139 107 124 116 120 109 125 107 116 141 27 42 8 15 16 10 10 30 31 43 92 104 105 122 144 146 160 112 103 105 106 108 106 106 110 111 113 112 176 199 195 195 195 194 193 194 193 192 190 190 190 191 192 192 192 192 192 195 195 196 196 197 197 197 196 197 197 197 195 207 141 17 39 63 72 89 128 168 187 197 200 205 209 211 215 220 222 220 221 221 218 215 212 213 213 210 209 211 210 210 207 200 200 195 189 179 175 176 168 163 157 147 134 121 107 68 50 49 29 18 19 62 63 59 46 56 82 79 115 106 107 94 85 79 62 106 77 16 15 61 92 86 93 81 
82 98 83 105 87 87 137 101 116 123 124 130 150 123 98 142 29 50 9 15 18 11 9 31 32 43 92 101 106 121 142 145 157 110 101 104 105 107 107 107 110 111 113 112 174 199 194 195 195 194 193 194 193 191 190 189 191 192 191 191 193 192 193 193 195 196 196 197 197 196 195 196 196 196 195 207 138 23 41 56 76 92 132 177 191 197 201 208 212 214 217 218 220 220 219 219 218 214 213 212 209 207 211 211 208 207 205 199 196 193 192 185 182 178 172 166 158 152 138 123 109 83 60 51 33 23 27 51 64 65 38 60 93 86 146 142 144 130 126 115 64 109 74 12 16 64 91 89 91 83 
15 12 27 26 42 56 57 67 56 58 59 84 101 78 99 159 30 44 8 14 16 12 7 29 32 42 93 100 104 121 142 144 157 110 101 103 104 101 106 107 108 111 114 110 171 199 193 194 194 192 193 193 192 191 191 190 190 190 190 190 190 192 193 194 195 196 197 196 194 196 196 196 195 195 194 205 143 22 45 63 86 102 137 177 191 196 203 209 215 219 215 217 221 219 219 218 212 201 193 203 207 204 203 210 209 204 208 199 193 194 190 185 179 174 170 164 158 154 139 119 109 100 71 56 35 26 19 21 15 12 20 27 50 72 66 66 65 66 66 66 66 101 58 12 17 65 89 91 89 88 
21 19 21 16 23 45 58 56 71 64 72 83 95 82 94 154 33 47 7 13 15 12 6 29 32 39 92 98 104 120 142 144 157 111 101 103 104 100 105 106 108 111 112 110 171 198 192 193 192 191 191 191 191 191 191 190 190 190 190 190 191 191 192 194 194 194 196 195 195 196 196 196 195 195 194 205 92 23 53 65 90 114 149 183 192 197 204 212 215 221 220 221 223 223 222 219 217 213 207 204 207 206 208 210 212 209 211 203 193 193 190 189 184 176 171 164 159 151 135 118 111 104 88 67 39 27 24 24 22 19 11 20 39 69 80 77 82 68 65 63 77 99 43 11 20 66 88 90 88 87 
14 8 8 8 8 32 32 39 60 171 170 169 167 162 172 158 27 47 9 14 17 12 7 29 32 36 87 97 101 119 140 142 157 113 99 104 104 104 105 107 107 110 113 109 169 199 193 192 192 190 192 191 192 191 189 190 190 190 190 190 191 191 192 193 193 194 196 194 196 195 195 195 193 195 193 208 107 25 58 58 82 120 163 190 191 190 200 210 217 220 219 223 227 229 230 229 229 232 227 219 212 213 217 216 212 217 218 209 201 203 200 199 195 187 177 167 157 148 130 120 115 103 94 64 45 32 24 21 9 9 9 23 15 49 70 62 64 58 65 66 75 90 50 9 23 71 87 89 87 88 
10 10 2 3 4 22 38 72 46 166 206 201 201 196 205 173 27 49 10 12 16 12 7 26 31 36 84 97 103 115 136 144 155 112 98 104 101 105 104 107 105 110 112 109 168 197 190 191 191 190 191 191 190 190 190 189 189 190 190 190 190 192 191 192 192 193 194 195 194 194 194 195 193 193 192 199 70 29 53 49 82 138 183 193 191 191 199 214 218 210 206 203 206 204 202 204 209 212 221 221 217 216 216 214 215 217 208 199 191 177 171 165 159 148 139 133 127 126 121 119 116 107 97 61 41 35 21 22 11 4 9 22 5 65 77 58 56 49 55 68 54 59 50 7 25 71 88 87 87 86 
8 13 44 27 29 34 46 46 34 74 200 194 194 192 196 185 33 43 11 12 16 12 6 27 32 37 83 98 102 113 139 146 154 113 99 101 102 106 103 106 105 109 111 108 168 197 190 191 191 190 191 190 189 190 189 190 190 190 190 190 190 191 190 191 192 192 194 193 194 194 194 194 193 192 196 181 39 37 39 54 105 159 185 192 193 198 181 165 149 144 145 153 145 128 115 113 123 151 179 188 187 201 204 202 197 191 184 163 124 89 82 83 95 111 120 113 102 85 74 88 112 111 99 61 34 32 25 21 7 6 6 3 11 46 70 57 58 56 47 54 53 67 45 6 29 76 88 83 86 88 
7 12 45 36 41 23 28 45 21 85 207 194 197 197 203 197 38 38 11 12 16 12 6 26 31 37 88 100 102 111 142 146 154 115 98 102 102 105 104 103 105 108 110 108 167 197 190 190 189 190 190 189 189 189 189 189 188 190 190 190 190 190 190 191 191 192 193 193 193 192 192 192 192 192 196 170 37 30 35 70 104 163 189 192 195 179 160 152 169 195 205 209 203 189 172 158 157 163 170 178 172 188 198 190 180 172 159 136 116 116 120 128 138 155 156 162 160 137 119 92 93 113 104 68 30 26 26 24 9 2 2 9 49 45 63 59 58 52 73 62 53 68 42 5 32 76 86 82 84 88 
10 16 11 26 38 30 24 36 40 163 198 186 181 174 163 163 38 38 12 12 16 12 7 23 30 35 86 98 102 112 147 148 153 113 98 101 101 103 103 104 106 108 111 107 166 196 191 190 190 189 190 189 188 189 190 189 189 189 188 189 189 189 189 190 190 191 192 193 193 192 192 192 194 190 198 130 27 28 31 60 99 162 190 192 187 180 184 199 204 198 163 143 124 119 126 136 137 161 172 183 196 205 212 199 190 162 129 125 140 134 126 98 74 76 98 98 112 142 151 137 105 107 113 74 19 18 27 83 57 6 11 22 43 54 65 68 62 56 68 66 58 59 39 6 34 77 85 85 84 85 
15 13 24 42 22 39 42 1 48 136 130 110 81 72 45 58 33 37 11 11 17 13 6 24 31 33 78 100 100 109 150 149 151 117 98 103 101 100 103 105 106 108 111 106 162 196 191 190 189 190 191 189 188 188 188 189 189 188 188 188 189 189 189 191 190 190 192 192 193 193 192 192 192 193 181 130 45 33 33 36 71 159 194 191 189 195 203 201 166 117 141 144 80 62 102 188 155 147 163 168 189 213 217 207 183 133 114 148 137 167 178 88 58 71 141 134 71 111 151 157 137 113 122 78 18 26 36 50 13 11 8 26 48 70 78 68 66 60 55 61 61 61 35 5 35 80 83 85 86 85 
6 31 63 27 27 31 26 3 30 42 49 53 43 33 18 29 29 39 12 10 17 14 6 23 29 32 74 102 97 110 148 146 150 117 96 100 102 96 102 104 104 106 107 104 160 196 189 190 189 189 190 187 187 188 188 188 188 188 188 188 188 188 188 189 190 190 190 191 192 192 191 191 191 193 183 176 140 46 49 43 56 166 196 196 203 207 205 188 149 146 193 188 133 123 166 195 166 161 174 172 184 203 215 205 167 123 126 152 152 151 166 154 130 130 139 125 109 118 145 163 144 124 121 98 32 41 70 18 1 7 3 54 69 57 50 70 70 54 58 59 58 61 30 5 39 82 80 86 84 86 
6 37 65 33 21 23 20 3 33 30 20 17 20 29 75 56 27 38 13 9 16 13 4 21 29 30 77 99 94 109 147 142 148 118 95 99 97 95 100 102 103 105 107 104 158 195 188 189 188 187 188 187 187 187 187 186 186 187 188 187 187 187 189 189 190 190 190 191 191 191 192 191 191 191 192 190 184 170 100 49 80 178 191 201 206 210 212 200 192 188 182 177 180 187 184 156 151 166 176 180 192 205 211 196 162 125 131 139 157 151 153 163 163 157 145 134 135 151 162 164 144 129 118 104 57 86 82 6 6 4 4 56 69 61 49 47 56 62 61 60 52 58 28 5 42 85 79 85 83 85 
5 41 81 75 80 69 32 0 23 35 60 97 143 169 200 167 44 31 15 11 15 12 5 21 29 30 73 97 96 108 149 144 150 119 96 99 97 96 100 99 102 105 108 101 156 195 187 188 188 188 187 188 188 187 187 187 187 187 187 187 186 188 189 189 189 190 190 191 192 191 192 191 191 191 191 193 182 203 197 136 114 175 188 196 203 210 215 214 208 201 196 195 192 187 183 179 179 189 196 199 202 206 209 194 160 138 142 151 155 169 171 170 168 165 164 159 157 164 171 160 144 128 114 100 76 158 73 0 8 4 3 47 66 58 60 61 55 52 48 47 39 61 27 6 45 86 78 84 84 81 
11 38 63 50 42 43 28 0 49 186 200 212 206 201 194 205 55 24 12 10 16 14 5 20 28 29 74 99 98 106 150 144 149 122 96 99 98 100 99 101 101 104 106 102 155 196 189 188 187 187 187 187 187 187 187 186 186 186 188 187 187 187 189 189 189 190 191 192 191 191 192 191 191 190 192 194 190 193 194 195 157 162 188 192 204 210 213 217 217 213 210 207 208 205 207 210 213 212 214 211 204 202 210 196 156 140 146 155 163 175 175 175 175 176 176 170 167 169 167 157 146 125 109 88 89 173 70 0 6 4 7 57 76 69 70 68 66 57 50 59 61 66 21 7 49 87 77 82 83 80 
7 38 92 61 70 58 29 0 69 218 204 201 196 197 198 197 51 25 12 10 17 16 5 19 29 29 73 100 94 104 149 145 147 121 94 97 96 103 101 100 101 104 107 101 153 196 189 189 188 187 187 187 187 187 187 186 186 186 188 187 187 187 188 189 189 189 190 191 192 192 191 191 192 191 192 194 192 197 187 209 170 149 180 191 203 207 212 215 214 217 222 220 213 216 220 217 213 215 217 211 202 205 208 194 164 141 145 155 167 180 184 183 183 185 186 182 181 174 166 159 143 121 102 76 98 146 60 0 8 5 12 57 71 66 64 60 58 60 56 62 65 58 18 9 55 89 78 81 83 82 
3 36 68 56 52 52 36 0 78 215 205 203 200 200 201 204 56 19 11 9 16 16 5 19 30 28 74 103 95 104 144 147 146 119 95 97 95 102 100 99 100 102 106 100 152 195 188 189 189 187 187 187 187 186 186 186 186 187 187 187 187 187 187 188 189 190 191 191 192 192 191 192 193 192 193 194 190 189 186 190 176 141 167 185 201 209 216 216 217 220 225 225 219 221 221 219 216 212 201 200 200 196 198 188 173 148 136 145 154 180 189 188 188 186 187 188 182 176 168 158 141 122 83 98 137 117 40 0 10 4 20 66 68 61 62 61 57 58 59 60 59 56 16 10 59 86 79 83 82 79 
0 40 79 49 78 56 34 0 88 219 204 202 201 201 201 207 63 18 11 7 15 17 5 18 28 26 72 102 96 102 136 150 149 120 94 97 95 97 99 100 99 102 106 101 152 196 189 188 188 187 187 186 186 186 186 186 186 187 187 187 187 187 187 188 189 190 190 191 192 191 192 191 193 193 193 194 193 184 193 206 204 152 153 178 199 210 215 219 221 223 226 223 222 220 219 211 203 191 191 197 196 195 199 180 167 153 141 148 132 164 190 192 191 186 188 191 184 173 168 157 138 106 76 138 150 102 8 8 7 4 22 62 69 67 70 67 66 60 58 58 59 56 13 12 61 86 78 83 80 77 
3 30 69 49 55 56 38 6 128 222 205 202 202 203 201 209 69 17 11 7 16 17 5 15 27 26 66 97 98 100 132 147 147 121 93 95 97 94 100 99 100 102 106 101 150 197 189 188 187 187 186 186 186 186 186 186 186 187 187 187 187 187 187 188 190 190 190 191 192 191 192 191 193 193 193 194 194 190 186 205 217 185 150 173 193 208 211 215 220 223 221 219 216 212 205 205 195 191 204 204 198 205 215 203 180 160 150 155 129 156 183 182 186 189 188 188 182 173 164 147 123 86 86 157 147 90 2 9 9 2 36 77 73 73 75 74 68 59 62 63 65 59 10 13 63 84 79 83 80 79 
3 26 62 37 56 48 30 28 146 226 208 206 204 204 201 216 78 16 13 9 17 17 5 17 28 26 67 95 95 105 135 141 143 123 93 95 97 95 99 98 100 103 105 99 147 197 189 188 187 187 186 186 186 186 186 185 187 187 187 187 187 187 187 188 189 190 191 192 192 191 192 191 192 192 192 193 194 195 190 185 196 157 138 168 181 199 209 212 218 220 216 209 201 198 202 211 215 201 182 174 181 186 188 190 176 131 117 118 138 166 175 185 184 185 190 186 180 171 153 136 110 75 47 60 51 11 1 3 7 8 31 80 83 81 81 80 79 75 76 78 81 60 8 17 66 87 76 82 80 78 
4 11 21 16 4 2 14 46 169 221 209 207 203 202 200 217 84 15 14 8 16 14 4 16 28 25 65 101 93 104 135 136 143 126 93 95 96 93 97 97 99 102 106 99 145 197 189 188 188 187 187 187 187 187 186 186 186 187 187 187 186 188 187 188 189 189 190 190 191 191 192 191 191 191 192 193 194 194 196 189 191 136 126 167 177 196 205 211 218 217 214 205 204 210 208 203 193 163 146 149 140 153 149 144 118 95 98 95 111 125 148 162 173 176 174 183 173 163 147 127 109 58 22 7 0 1 3 2 3 8 55 88 85 82 80 78 77 77 78 76 82 58 6 21 66 89 77 83 82 77 
8 11 15 7 28 52 10 10 120 236 219 218 215 212 213 233 90 11 13 8 15 14 4 15 28 25 63 99 96 101 130 134 142 129 92 94 96 92 95 97 98 101 104 99 144 196 189 188 188 186 187 187 187 187 185 186 186 187 187 187 186 188 187 188 189 189 189 189 191 192 191 191 191 191 192 192 193 194 195 196 195 201 161 155 179 192 199 208 214 215 208 208 207 178 149 137 115 105 93 104 98 87 105 122 93 85 84 80 61 71 94 98 111 147 160 169 170 156 144 119 102 43 12 15 7 2 1 2 3 11 83 84 81 77 75 75 74 77 75 74 77 52 4 23 66 86 78 81 83 76 
10 9 6 5 14 25 30 38 56 147 153 138 145 140 127 184 105 8 14 8 15 14 4 15 27 24 64 98 99 97 128 139 140 129 91 95 96 93 95 96 98 101 104 101 143 196 188 188 187 187 187 186 186 186 186 186 186 187 187 187 187 187 187 188 189 189 189 191 191 190 190 191 192 192 192 193 192 192 193 194 193 197 184 153 182 191 194 201 211 211 206 203 140 112 113 105 112 119 105 86 95 85 77 95 84 84 84 73 70 89 88 76 75 82 133 163 173 147 136 116 90 36 8 31 9 1 3 2 4 6 55 97 86 84 82 79 83 85 87 87 94 51 3 25 68 81 80 78 81 78 
10 11 7 7 5 16 79 116 108 122 131 104 103 122 122 164 115 11 14 7 15 13 4 14 26 22 60 97 94 97 128 143 141 129 90 94 94 94 94 95 99 100 104 99 142 196 188 187 188 188 186 186 186 186 186 185 185 186 186 186 186 186 187 188 188 189 189 189 190 191 191 191 191 191 192 193 191 193 194 193 193 194 197 147 170 189 196 197 204 210 213 152 94 101 92 104 140 151 140 131 128 108 123 123 116 112 119 103 106 106 84 95 98 77 130 159 164 139 127 109 77 40 0 31 10 0 2 2 3 10 20 65 87 84 80 83 83 81 77 71 79 50 4 27 78 77 77 80 80 79 
7 9 6 4 15 52 114 96 130 177 174 162 165 180 184 197 115 12 16 7 15 15 5 14 27 24 58 98 95 102 129 143 142 133 90 93 94 94 94 95 97 99 102 97 139 196 188 187 188 188 187 187 186 187 186 185 185 186 186 186 186 186 187 187 187 187 188 188 190 191 190 189 190 191 191 191 191 191 192 193 193 193 199 169 151 182 189 197 200 209 215 140 94 120 133 116 111 138 161 163 180 193 185 175 188 162 128 124 110 83 117 158 127 101 136 161 155 137 120 100 43 14 2 7 3 1 1 3 4 17 19 83 111 102 100 101 98 105 109 105 75 40 6 29 75 76 76 80 83 78 
5 6 7 27 61 99 120 137 139 168 171 161 158 165 166 191 122 12 17 7 14 14 6 14 26 23 61 98 96 99 127 142 139 132 92 94 95 92 94 97 97 99 103 98 137 196 188 188 188 187 187 187 187 186 186 186 186 186 186 186 186 185 186 187 186 189 189 189 189 190 188 189 190 189 190 191 191 191 191 192 193 194 194 195 150 164 186 190 193 203 215 191 107 127 183 188 158 150 156 148 153 161 159 152 162 135 116 112 113 133 156 166 127 109 143 154 146 131 106 79 49 15 0 6 3 3 3 3 7 20 40 110 155 151 142 147 147 167 177 185 108 31 7 33 74 78 78 77 79 74 
23 52 137 120 108 120 129 146 165 178 159 153 149 163 166 195 126 11 16 7 13 14 5 14 27 24 55 94 96 98 124 142 140 133 91 93 93 87 91 93 96 100 102 97 136 194 188 188 188 187 187 187 186 185 185 186 186 185 185 186 185 184 185 187 188 189 189 189 189 189 189 189 189 189 189 189 190 191 191 192 193 192 190 204 197 149 172 184 190 193 202 169 97 146 194 200 203 197 190 190 196 188 182 179 170 164 156 151 146 149 154 164 130 84 137 149 135 113 81 64 69 45 21 9 0 0 0 0 1 54 113 131 149 154 147 155 166 168 169 178 105 27 7 37 75 78 77 76 78 73 
25 68 175 142 113 126 132 136 171 179 170 168 159 165 165 195 125 9 13 6 13 14 5 14 27 23 51 94 94 97 120 141 138 133 92 91 91 89 90 91 95 98 102 97 133 193 186 187 186 186 186 185 185 185 185 184 184 184 183 185 185 185 185 185 187 187 187 188 188 187 188 188 188 188 189 189 189 189 190 192 189 195 202 163 88 43 130 168 177 182 193 134 96 167 195 201 195 199 195 191 188 176 165 159 170 162 158 159 152 157 165 150 110 69 120 134 122 91 67 63 65 60 58 60 37 38 35 48 98 133 162 159 161 143 135 145 153 161 166 177 97 23 9 43 78 77 74 75 82 76 
23 75 163 146 114 143 150 157 155 147 157 160 156 170 170 188 125 10 12 8 12 14 6 15 27 24 53 96 94 95 119 140 137 133 90 92 91 90 91 93 95 97 102 96 131 193 186 187 187 185 186 185 183 183 183 183 182 184 184 184 183 184 184 184 185 186 187 187 186 187 188 187 187 187 189 189 189 189 189 187 202 174 86 25 20 14 110 168 156 177 162 107 95 132 178 181 186 205 196 180 167 147 119 116 139 145 154 168 162 164 162 141 94 76 107 121 65 40 71 70 67 70 65 84 67 64 60 135 156 147 142 165 173 147 133 145 159 162 168 175 88 20 9 46 79 76 78 76 80 70 
45 80 141 119 126 154 160 178 177 166 168 169 176 176 173 196 148 10 14 7 13 14 6 14 26 23 53 96 93 93 121 137 134 132 89 92 91 91 92 91 94 95 99 96 129 192 185 185 185 185 185 184 183 182 183 183 182 183 183 182 182 183 183 184 185 185 186 186 187 187 187 187 188 187 187 187 188 187 189 200 131 37 18 27 21 11 98 192 163 159 136 92 65 77 144 192 196 205 204 205 186 146 103 97 123 168 172 169 169 168 153 138 94 79 104 81 20 0 19 45 72 81 96 134 77 49 68 136 129 132 135 138 145 144 152 153 164 170 170 172 79 18 8 47 81 75 78 76 78 74 
44 49 61 33 68 88 89 96 113 117 111 110 117 120 117 125 75 15 12 6 12 10 10 18 25 23 53 95 93 97 121 135 133 131 90 90 89 90 93 91 94 96 97 96 129 191 186 185 184 183 182 181 181 182 182 182 182 181 181 181 182 182 182 183 184 185 185 185 186 186 187 186 186 187 187 186 185 193 196 101 22 32 27 18 61 119 145 176 190 178 112 77 68 66 122 185 204 205 195 184 165 147 109 85 125 153 159 155 155 153 130 110 77 67 64 73 53 26 11 16 26 52 74 107 84 59 133 141 140 151 148 128 127 142 137 146 172 176 181 173 87 22 6 48 82 76 78 76 77 79 
35 46 7 11 1 3 6 7 6 6 8 8 8 9 8 8 9 24 23 3 8 11 16 22 25 24 51 94 94 98 121 131 132 132 89 89 89 92 94 91 93 94 99 96 126 190 184 183 183 182 183 182 181 181 181 181 181 181 181 181 180 180 181 182 185 184 184 184 185 186 186 186 186 184 184 194 194 172 85 23 35 25 37 116 155 135 127 173 186 191 158 72 66 75 100 133 154 164 174 172 165 149 125 94 136 146 147 139 132 110 97 61 43 48 68 76 78 133 51 13 15 19 28 25 52 38 42 48 48 52 51 61 87 95 94 99 104 102 107 114 69 15 10 49 82 75 75 76 78 76 
25 49 16 11 10 21 24 25 24 24 25 24 23 23 23 25 21 20 15 3 9 13 14 18 24 22 46 90 92 94 119 128 125 128 89 90 88 91 93 89 92 94 99 95 124 189 183 182 181 181 182 181 180 181 181 179 179 179 180 180 180 180 181 181 182 182 183 184 183 184 185 185 182 190 192 154 91 46 26 33 24 42 142 153 112 96 120 173 186 184 177 117 57 66 77 94 121 133 155 151 131 132 111 77 112 130 125 119 92 77 58 43 43 61 82 69 84 152 139 74 13 20 18 20 41 11 0 4 8 8 7 10 13 13 15 17 19 20 21 22 20 12 10 45 79 72 75 75 75 78 
19 53 13 9 8 1 0 0 0 0 0 0 7 9 5 15 15 20 23 7 10 13 14 19 23 23 45 88 92 91 117 126 124 125 89 88 88 90 89 88 92 93 96 94 123 189 183 182 181 181 180 180 180 179 179 179 179 179 179 179 179 179 179 180 181 181 183 184 184 184 184 181 193 165 84 32 33 35 31 29 19 123 140 94 88 85 123 176 182 188 187 169 103 51 60 73 91 96 135 117 85 83 74 73 81 90 82 86 62 50 33 38 58 78 101 66 94 144 147 149 85 14 17 20 22 9 4 7 16 22 22 22 21 21 21 22 22 22 22 21 19 12 6 35 76 75 73 74 75 75 
44 60 40 30 34 73 103 100 99 100 98 97 54 44 77 30 19 21 15 5 11 13 13 18 23 23 46 90 94 93 113 126 121 124 88 86 87 86 86 89 89 93 96 94 120 185 181 182 180 180 180 179 178 177 177 178 178 178 178 178 179 179 179 180 181 181 181 182 181 179 181 194 129 40 29 36 38 31 30 24 51 161 67 71 87 99 139 176 182 190 193 187 157 105 53 38 40 43 56 67 66 59 64 47 65 62 41 44 35 29 42 64 80 100 103 64 99 146 145 147 146 88 13 18 17 17 11 9 8 8 7 6 6 6 6 6 7 9 9 9 11 9 10 34 75 78 73 72 74 68 
18 58 37 40 30 65 179 180 172 204 225 224 196 79 128 45 9 19 10 5 11 13 14 18 24 22 43 90 90 93 113 125 122 122 88 86 87 86 85 87 89 92 95 92 119 184 180 180 179 179 180 178 177 176 177 177 177 177 177 177 178 178 178 179 180 179 179 179 184 191 191 111 22 38 40 35 32 30 32 20 78 161 62 105 114 119 145 173 184 188 191 192 188 181 143 116 69 36 33 34 42 34 33 31 42 34 36 49 55 82 95 86 92 107 103 65 89 140 139 146 145 146 84 12 18 17 16 13 15 16 16 14 13 11 9 8 9 6 7 8 8 6 23 66 74 77 75 72 76 65 
24 57 42 33 52 49 67 73 45 108 213 213 231 127 90 53 7 20 10 6 10 13 13 18 24 23 41 86 92 92 112 127 124 122 88 86 84 85 88 86 88 91 95 93 116 183 180 180 178 177 178 177 176 176 176 175 177 177 177 177 177 176 176 177 176 179 187 192 168 116 71 26 34 38 37 34 31 29 31 18 86 185 93 124 130 128 151 181 187 191 192 191 186 188 187 187 178 166 151 134 134 127 123 125 122 117 127 140 134 130 103 83 99 103 103 65 74 127 140 146 144 141 145 67 10 19 17 16 14 15 15 12 13 15 16 15 31 29 7 5 7 5 24 73 70 76 75 73 74 70 
28 57 35 31 60 69 118 121 72 78 205 219 225 154 64 45 9 18 9 5 10 11 14 18 23 24 36 83 90 91 110 125 124 124 89 84 85 86 87 88 87 90 94 92 114 181 179 178 177 177 178 176 175 175 175 174 174 175 176 175 173 173 175 184 188 176 139 89 39 23 26 32 35 32 36 32 31 29 31 18 88 203 136 122 143 135 157 183 188 190 189 187 189 186 183 179 180 183 186 181 174 175 178 183 183 174 167 158 130 112 96 87 108 105 101 82 70 114 133 148 150 145 146 134 35 13 18 18 17 17 14 15 15 15 14 14 13 16 14 13 10 5 21 70 74 76 73 71 73 66 
36 61 33 28 64 69 71 91 67 69 198 221 223 166 66 46 9 15 8 3 10 11 14 17 23 23 33 81 90 88 108 127 123 125 89 85 86 86 83 86 87 89 93 89 112 180 178 176 175 175 175 174 173 173 173 174 173 172 173 173 179 185 180 149 100 52 26 20 27 36 29 34 32 29 31 32 31 29 30 17 78 190 183 135 145 142 160 183 190 189 188 189 191 189 183 182 180 176 173 169 165 167 167 168 176 173 162 141 112 108 91 97 111 104 101 88 72 106 133 152 155 153 144 147 100 11 16 16 16 18 15 13 13 13 12 13 14 12 12 15 13 12 19 35 50 71 75 74 72 67 
57 66 31 26 75 59 126 144 125 105 209 217 220 177 77 47 10 14 9 4 8 9 12 17 22 22 32 81 93 90 107 126 118 120 88 82 84 83 79 85 86 87 92 89 111 178 176 175 174 174 174 173 172 172 171 170 172 177 181 178 154 109 63 30 19 23 30 26 31 31 28 34 29 27 32 31 28 29 28 20 62 175 190 173 140 148 159 177 187 190 191 192 192 192 188 182 176 174 173 170 169 167 163 158 154 150 139 115 108 106 90 109 108 98 100 92 79 105 139 149 152 155 155 144 141 49 9 17 15 14 17 13 13 13 13 13 12 12 13 13 12 12 13 17 22 33 53 71 72 64 
63 70 27 26 32 23 92 108 105 110 203 217 220 171 76 53 10 14 11 4 7 9 12 18 23 23 35 83 92 91 107 126 118 121 88 81 84 82 76 85 84 87 91 89 109 177 176 175 174 172 172 170 169 172 178 181 173 151 110 66 33 17 21 27 31 24 21 24 33 28 25 29 28 30 34 32 30 28 27 24 40 157 182 188 164 143 161 169 179 185 191 193 190 189 189 186 181 175 169 166 163 162 157 155 145 131 120 117 114 104 96 112 102 98 101 96 87 100 141 148 156 157 154 149 145 102 13 16 17 13 13 17 13 11 14 13 13 12 14 12 13 13 13 13 18 25 25 40 69 66 
70 68 20 29 27 68 66 34 98 101 174 214 218 147 65 61 9 13 11 5 9 10 12 17 22 23 33 83 93 89 107 125 117 122 87 79 82 82 81 81 83 88 89 88 106 176 174 173 172 170 175 180 179 167 137 98 59 31 21 20 25 26 25 22 21 19 17 28 32 28 26 29 27 29 33 32 31 28 26 28 27 122 172 183 190 166 153 171 172 175 181 186 189 190 189 185 183 182 178 174 170 168 164 156 151 146 136 128 121 103 99 104 96 103 102 99 93 96 141 149 156 157 153 150 141 131 41 10 17 14 11 16 15 10 12 13 13 12 13 14 13 13 15 13 13 19 26 23 38 57 
70 60 17 29 29 59 96 55 103 97 160 203 211 102 52 66 11 11 11 5 8 10 11 17 21 22 31 83 94 88 102 124 114 122 85 77 80 79 81 81 81 85 87 86 103 173 171 169 176 179 156 119 80 47 26 21 21 27 26 22 22 20 21 21 21 19 20 31 28 25 27 28 25 28 29 26 28 26 27 27 19 90 161 175 189 187 163 158 169 169 167 173 179 183 185 184 184 181 180 177 173 170 170 164 157 150 147 134 114 99 102 92 99 108 106 104 95 85 140 146 153 157 155 151 140 136 88 10 15 15 12 14 14 13 11 13 11 12 13 13 13 12 13 13 13 13 18 25 25 27 
77 48 19 28 38 30 85 114 110 97 151 214 187 38 51 67 13 9 11 4 8 12 12 15 21 21 37 85 87 90 101 121 112 121 82 74 77 76 82 80 80 83 85 85 102 168 171 180 148 82 34 21 20 23 27 26 22 23 23 22 24 21 22 20 21 19 24 31 26 24 24 25 25 27 28 26 27 26 27 26 19 56 142 155 180 187 188 170 157 163 166 161 160 165 170 175 178 176 174 171 166 157 156 150 146 141 132 121 109 106 97 92 110 114 114 110 79 75 145 151 158 154 150 151 145 137 123 25 12 15 12 12 14 17 12 10 10 12 12 11 12 11 13 12 13 13 13 18 27 19 
84 25 19 25 41 39 85 108 104 100 124 187 116 19 43 69 13 8 11 4 7 11 13 17 23 21 45 82 90 90 100 119 112 120 80 70 73 74 78 78 78 80 84 84 98 173 168 95 31 19 24 26 26 24 21 21 20 20 22 21 20 23 22 22 22 17 27 29 26 22 24 25 22 27 29 30 26 26 27 24 25 32 122 143 159 183 193 193 178 158 153 160 154 150 152 163 166 166 167 163 159 154 148 142 141 135 131 122 114 103 91 112 121 120 122 109 111 122 150 159 159 158 158 154 148 143 135 72 9 16 12 11 12 16 13 9 12 12 12 12 13 13 12 12 13 12 13 15 20 20 
67 39 46 37 36 52 75 76 80 69 52 50 35 12 26 69 13 8 11 4 7 10 13 18 23 22 60 80 84 88 98 114 109 114 73 64 66 68 71 72 73 76 80 78 96 147 55 16 27 25 21 21 20 21 20 22 20 22 21 20 20 21 18 18 19 17 29 27 21 21 21 21 21 27 27 31 26 25 24 23 24 18 87 140 144 163 176 184 180 174 159 142 148 144 138 146 152 153 152 147 141 138 133 133 128 127 121 113 104 96 95 124 127 120 126 120 128 136 149 149 147 156 153 154 144 146 137 107 18 14 14 13 11 13 14 8 11 10 12 12 11 11 11 11 10 11 11 13 14 16 
