P2
150 65
255
26 36 40 38 37 37 35 10 10 3 4 3 2 1 2 2 2 2 2 2 3 3 3 3 3 5 5 2 2 3 5 42 52 50 46 49 51 54 57 59 55 52 42 86 185 193 194 194 196 198 197 198 199 200 201 202 201 202 202 202 202 203 204 204 205 205 205 204 205 207 207 207 206 206 206 206 206 206 206 206 206 206 206 205 205 205 204 203 204 203 202 202 201 201 200 201 200 200 200 200 199 199 198 198 198 197 196 196 196 195 197 193 192 198 195 195 194 193 192 192 191 190 191 191 189 187 188 189 187 185 190 139 57 60 58 64 65 60 62 55 51 51 54 46 40 38 31 46 117 82 
27 38 41 39 39 40 38 13 11 4 5 5 3 3 3 3 3 2 1 2 4 4 4 4 3 6 6 3 4 5 7 45 54 54 48 52 53 57 61 63 58 55 47 75 181 205 203 205 206 207 207 208 209 209 210 211 211 212 213 213 213 213 213 214 216 216 216 215 216 217 216 216 216 216 216 216 216 216 216 216 216 216 216 215 215 215 214 214 214 213 213 214 212 212 212 212 209 210 210 209 208 209 208 207 208 206 206 206 206 205 208 201 202 208 206 205 204 203 202 201 201 199 199 199 198 196 197 198 196 194 199 148 82 87 82 67 60 58 57 50 47 47 45 36 53 56 59 71 89 92 
28 39 40 39 40 41 38 14 11 3 5 4 3 3 3 3 4 4 3 3 6 6 4 5 5 8 7 3 6 5 8 45 52 54 47 53 52 56 61 63 57 55 49 62 159 205 204 205 206 207 208 209 208 210 211 210 211 212 212 212 212 213 213 214 215 215 215 215 215 216 216 216 216 216 216 215 216 215 215 215 214 213 213 211 213 214 213 213 211 210 210 210 209 210 211 210 208 209 209 208 207 208 207 206 207 206 205 207 206 206 208 200 203 207 206 205 204 203 202 201 201 200 200 199 198 196 196 198 196 194 197 128 72 76 68 66 75 49 47 51 48 45 43 47 87 85 84 106 131 112 
27 39 41 39 39 40 39 15 12 3 4 5 4 3 3 3 3 3 2 3 5 7 4 6 5 7 9 5 5 5 8 46 53 54 48 53 52 57 61 61 55 52 49 57 141 204 206 207 207 208 210 210 210 211 212 212 213 213 214 215 215 216 216 215 216 216 216 217 217 217 217 217 217 217 214 213 213 214 215 217 221 224 226 224 222 216 214 215 220 221 219 219 217 217 215 213 212 209 208 207 208 209 208 207 208 207 207 207 207 206 208 201 204 209 206 207 206 205 204 203 202 201 201 200 199 197 197 198 197 197 196 124 76 78 74 71 69 59 59 52 48 44 41 45 93 68 45 52 60 51 
27 39 42 39 39 41 39 15 11 3 3 5 4 2 2 2 2 2 2 2 4 5 5 6 4 8 7 4 5 5 7 45 55 56 49 52 53 56 61 63 56 51 53 57 136 208 205 208 208 209 210 211 211 212 213 214 215 215 215 215 217 217 217 217 217 217 217 217 217 217 217 217 212 214 217 223 226 227 221 210 192 169 146 124 104 94 93 96 113 157 186 173 174 183 195 202 206 217 220 219 215 207 207 208 209 208 208 207 208 207 208 200 206 208 207 207 205 205 205 204 202 201 200 199 200 202 204 203 204 200 196 135 91 93 90 87 83 83 82 80 73 62 60 54 61 50 42 43 42 43 
27 39 42 41 41 40 40 14 10 7 10 8 8 7 7 7 5 7 7 6 7 8 7 6 6 9 10 8 7 6 9 48 41 34 45 53 54 57 61 62 56 52 44 38 128 208 205 209 210 211 212 213 213 214 215 215 215 216 217 216 217 217 217 217 218 218 218 218 218 217 215 222 227 222 206 184 150 119 93 62 42 32 21 18 19 22 26 30 34 45 51 37 39 39 48 60 68 104 129 155 185 207 217 218 213 207 205 205 207 208 210 201 206 207 207 207 205 206 206 205 203 202 201 199 198 199 204 203 200 197 193 127 88 91 89 87 83 83 83 85 83 81 80 78 73 76 77 78 80 78 
27 39 43 40 40 40 39 15 11 11 12 12 12 12 12 12 13 12 14 14 13 14 14 15 13 14 14 14 14 15 15 47 15 10 41 53 53 56 61 63 55 52 40 30 115 208 205 210 212 213 214 214 214 215 215 215 215 216 217 217 217 217 217 217 218 217 218 218 216 216 222 194 131 91 59 32 23 18 18 21 23 29 30 27 27 24 23 29 35 40 35 30 27 26 29 34 33 27 31 39 57 88 112 142 187 212 217 217 211 205 207 201 207 209 207 207 205 206 206 205 204 203 202 199 199 198 199 198 197 199 193 120 88 92 88 86 84 83 83 82 82 81 80 82 82 82 79 80 80 76 
28 39 44 39 41 34 26 23 23 23 22 22 23 23 22 23 23 24 25 25 24 25 26 26 27 27 26 26 27 29 30 36 30 45 48 53 54 56 60 63 56 52 41 32 106 208 207 211 212 213 214 215 215 216 216 216 216 217 217 217 217 217 217 217 215 214 216 215 223 214 113 38 16 15 24 27 21 26 22 18 18 21 23 24 24 23 23 25 38 51 44 24 20 22 24 22 25 29 29 28 25 21 21 28 60 103 128 151 192 215 209 200 208 209 207 207 207 207 207 206 204 203 202 201 200 198 200 200 198 198 191 109 86 86 82 80 81 81 80 79 77 76 74 75 74 74 73 73 75 70 
28 40 43 40 41 33 27 27 26 27 28 26 28 28 26 27 28 29 29 30 32 30 30 31 32 32 33 33 33 35 36 41 53 55 47 53 54 56 60 62 56 52 39 30 108 210 206 209 212 213 215 215 215 216 216 216 216 217 218 217 217 217 215 214 224 226 223 224 201 104 35 36 34 27 27 27 28 24 27 25 18 20 22 20 27 32 30 23 48 77 56 28 24 19 14 15 21 19 17 17 24 33 38 38 45 53 62 44 50 120 195 204 207 208 209 207 207 207 207 207 205 203 202 201 200 199 201 200 199 197 196 149 126 132 132 130 129 127 125 124 122 120 120 117 115 115 115 112 112 106 
28 39 42 38 42 35 28 28 26 26 25 27 26 28 28 28 29 29 28 28 27 28 30 32 31 30 33 33 34 34 36 43 51 54 48 52 53 56 61 61 56 53 39 29 102 206 208 211 213 214 215 215 215 216 216 216 217 217 217 218 217 213 223 218 171 113 85 97 71 37 43 29 24 23 22 22 25 24 24 31 32 29 29 30 33 40 49 43 50 91 64 33 33 20 23 24 19 21 22 24 26 27 28 29 37 45 55 73 62 29 73 170 217 210 209 207 207 208 207 206 205 203 202 201 200 200 201 200 199 198 198 202 201 199 198 197 196 194 192 191 190 189 188 187 185 184 182 179 179 175 
27 36 41 39 38 34 28 26 27 26 25 27 26 27 27 29 29 29 29 29 28 28 30 31 30 30 31 32 34 35 35 41 52 55 47 53 52 54 61 62 57 51 38 31 89 200 208 212 213 214 215 215 215 216 216 216 216 216 217 215 213 219 181 92 30 15 45 61 43 34 27 24 20 21 26 29 31 32 33 30 32 44 49 49 56 60 60 63 62 97 75 60 45 34 33 22 28 31 24 22 26 25 23 27 33 33 34 44 68 76 37 40 142 208 212 207 206 208 207 206 205 204 203 202 200 202 203 201 200 199 198 196 195 193 192 190 189 188 187 186 185 184 183 181 181 180 178 177 176 171 
26 37 40 39 35 26 27 26 27 26 28 30 29 27 26 28 29 29 29 28 27 28 30 30 31 32 31 32 33 35 33 41 40 51 49 53 53 55 61 61 56 49 36 33 88 203 209 213 213 213 215 215 215 216 216 216 216 216 214 215 198 120 44 28 32 48 51 32 33 26 27 33 35 34 38 44 52 60 64 74 72 72 85 100 102 105 107 93 86 98 104 82 61 53 42 44 43 39 40 32 31 26 28 29 33 37 38 34 34 49 78 57 36 102 180 211 207 206 208 207 206 206 204 202 201 202 203 201 201 200 198 197 196 195 194 193 191 189 188 187 186 185 184 183 181 180 179 178 177 174 
26 35 39 38 39 32 25 25 24 24 25 25 25 26 27 29 29 29 28 28 29 29 31 32 31 31 31 31 33 33 34 41 40 49 49 52 53 56 62 59 55 49 35 31 89 205 209 213 214 213 215 216 215 216 216 216 217 214 217 191 99 50 53 62 63 53 25 20 23 32 36 43 59 65 71 82 82 89 95 105 117 119 123 126 126 132 129 126 132 122 121 99 96 82 79 75 62 76 81 64 62 57 48 46 38 32 29 30 33 36 47 81 64 27 63 157 207 206 205 204 203 204 204 203 202 203 204 200 200 199 198 197 196 195 194 193 192 191 189 187 186 185 184 183 181 180 180 178 178 173 
27 35 40 37 39 35 27 23 25 25 26 27 26 27 27 28 29 29 29 28 28 29 29 30 31 31 31 31 32 33 34 42 39 46 49 52 53 54 62 60 55 51 39 31 89 204 209 212 214 214 215 216 216 216 216 216 214 219 195 100 74 71 64 73 59 25 22 22 25 35 47 58 70 78 86 99 104 108 113 118 128 136 139 134 133 141 139 130 146 160 144 125 126 113 108 104 124 123 124 110 108 97 88 73 62 54 40 38 37 37 35 47 82 46 25 48 143 193 196 200 202 204 203 202 201 203 204 201 201 200 198 197 196 195 193 192 191 190 189 187 187 185 183 183 181 180 179 177 177 174 
28 35 41 38 40 36 28 26 25 25 25 27 27 26 26 26 28 28 27 27 26 26 28 28 30 32 32 32 33 33 33 42 46 48 49 51 53 55 63 61 56 50 39 31 91 205 210 212 213 214 216 216 216 215 214 214 218 215 117 78 76 65 59 69 39 19 20 26 39 54 76 86 84 90 100 110 118 129 145 154 160 164 160 158 168 164 163 162 157 155 155 146 139 138 135 137 144 141 145 135 120 113 120 111 100 85 69 59 43 32 31 33 57 68 34 22 71 177 203 205 205 204 204 202 202 200 199 198 197 196 195 194 193 191 190 190 188 187 186 185 184 183 182 181 180 179 178 177 177 173 
28 36 41 38 41 38 28 27 25 24 25 26 28 29 29 29 28 27 28 29 28 27 28 30 30 30 31 31 32 33 34 42 49 55 49 51 52 54 60 60 55 49 38 31 84 204 213 212 212 213 215 216 216 214 214 214 218 143 82 72 69 57 66 48 23 20 23 33 50 66 87 92 98 109 123 136 147 157 165 170 173 175 179 186 182 178 177 174 167 151 146 147 150 156 154 150 147 146 143 135 132 130 122 129 115 92 73 61 59 52 46 41 42 59 48 32 36 103 186 204 203 203 203 201 200 199 198 197 197 196 195 194 193 192 190 189 188 187 185 184 183 183 182 181 180 179 179 178 178 173 
28 37 41 39 40 35 27 26 25 25 25 26 27 28 28 28 28 27 28 30 30 28 29 30 31 30 30 30 31 32 33 41 48 52 49 51 50 55 60 59 55 51 37 30 85 208 213 213 213 213 216 216 216 214 213 216 191 100 78 64 68 64 60 21 20 19 22 30 49 76 97 105 108 122 143 151 159 167 173 177 184 188 192 192 192 191 185 179 175 178 172 168 162 164 168 167 167 155 157 164 160 157 141 134 125 117 94 69 54 55 61 54 50 58 53 38 39 58 132 187 197 200 203 201 198 198 199 198 196 195 195 194 193 192 190 188 189 188 185 184 184 183 182 181 180 179 179 177 177 172 
27 36 41 39 39 36 29 26 26 26 25 25 27 27 26 27 28 27 27 28 29 28 28 30 32 31 32 33 32 32 34 41 48 53 49 51 51 54 59 59 54 50 39 33 85 208 212 213 212 213 216 216 215 213 209 215 149 86 68 68 63 66 43 16 20 17 21 31 49 81 111 114 115 137 152 157 166 172 178 183 187 192 196 198 200 198 196 197 199 195 189 183 179 181 176 175 175 170 173 173 166 163 158 150 147 139 126 101 74 60 56 66 65 61 51 42 41 59 118 173 191 194 197 197 197 197 197 197 196 195 195 195 193 191 190 188 188 186 186 185 183 183 182 181 180 178 177 177 176 170 
26 35 40 38 39 38 28 27 27 26 27 26 27 28 27 27 28 28 28 29 28 29 30 30 32 31 32 32 32 32 33 41 47 53 49 52 52 54 58 59 53 49 36 31 79 204 212 211 212 212 215 213 212 214 212 200 112 88 71 75 71 62 23 17 18 19 31 49 66 91 111 116 132 145 153 161 168 173 179 184 187 194 198 202 206 206 210 209 206 200 195 196 194 189 186 185 182 180 179 177 172 169 163 158 155 144 136 118 95 79 75 74 73 66 53 40 37 61 134 176 186 189 191 195 199 198 198 197 196 195 194 193 190 190 189 188 187 186 184 184 182 181 180 179 179 178 176 176 175 170 
27 36 39 34 40 39 28 26 26 25 25 28 27 27 29 28 28 28 28 29 29 29 29 29 30 30 30 31 31 33 34 43 48 53 50 50 52 53 58 57 53 49 36 31 71 201 212 211 212 213 212 213 214 213 216 172 85 87 73 81 64 43 16 16 19 17 31 60 83 97 115 126 138 149 160 167 171 173 179 186 190 196 199 203 207 208 218 220 217 212 207 205 202 196 194 193 190 185 184 180 176 171 166 161 156 145 133 122 108 86 82 73 74 69 56 33 32 51 115 168 186 186 184 189 193 197 196 195 194 194 193 191 190 189 188 187 186 185 184 183 182 181 180 179 178 176 176 175 175 170 
24 36 39 34 39 29 27 26 26 25 25 26 26 26 26 28 28 28 27 26 27 29 29 29 29 29 30 31 31 32 34 42 46 51 49 49 51 53 58 58 53 48 35 33 67 198 212 210 212 211 211 216 210 206 211 144 87 76 64 77 45 22 14 17 17 16 26 47 74 100 117 128 140 155 164 170 172 175 178 185 189 193 196 201 205 211 219 221 222 221 216 210 206 202 198 194 192 188 183 178 172 170 168 159 153 143 130 122 108 94 87 78 71 63 59 37 33 38 87 159 191 195 191 192 191 193 196 195 195 194 192 192 191 189 188 187 187 186 184 183 181 180 179 178 177 176 175 174 174 169 
23 38 39 32 36 29 28 26 25 26 25 25 26 27 26 26 26 26 26 27 27 29 29 29 30 29 31 30 30 32 32 42 36 46 48 50 51 53 58 56 52 44 32 33 61 194 212 210 210 208 211 205 204 203 209 121 67 57 73 64 36 19 15 18 21 26 35 54 77 101 119 132 146 159 166 171 173 175 178 183 189 193 197 199 203 211 217 218 220 222 217 213 206 202 197 194 192 184 178 176 170 166 163 158 150 139 128 120 108 98 94 81 65 56 56 45 32 36 72 135 175 188 188 188 188 186 188 187 185 182 185 185 185 185 184 183 182 181 182 181 179 178 178 177 176 176 175 173 173 168 
26 38 41 38 40 37 27 26 24 24 24 25 27 25 28 28 27 27 28 28 28 29 29 29 31 30 32 32 32 32 32 40 48 52 48 51 52 54 56 55 51 45 33 34 57 191 211 208 211 208 203 205 207 215 174 60 42 68 78 51 30 19 22 22 29 37 54 70 79 101 127 139 150 160 167 171 173 176 179 185 190 195 198 201 203 208 214 217 217 221 215 213 206 202 198 195 190 184 179 180 173 166 161 156 146 135 126 117 108 96 91 75 60 49 56 41 27 29 67 127 166 183 190 190 189 189 188 185 183 182 183 183 183 182 181 180 180 179 177 177 176 177 176 176 176 173 174 174 173 169 
24 37 41 40 41 36 28 25 25 24 25 25 26 26 26 27 27 28 26 28 27 27 29 28 30 31 29 30 29 31 34 41 52 51 48 50 52 52 56 56 51 44 34 34 53 185 211 209 208 204 208 209 212 166 62 30 39 65 70 35 32 20 18 19 31 48 60 74 99 126 137 141 150 160 167 173 177 180 182 187 194 200 203 204 209 210 211 213 213 216 213 207 205 203 202 195 190 185 183 179 175 168 160 154 143 131 118 114 111 101 89 77 49 47 55 41 33 31 75 153 185 192 193 195 195 195 193 194 194 193 191 191 191 190 189 188 186 185 184 183 181 180 181 180 179 178 177 176 176 172 
26 38 41 39 40 36 27 24 24 24 23 23 25 25 24 24 26 26 26 27 26 28 29 29 29 28 28 29 29 31 33 40 51 52 47 49 50 52 56 56 52 45 34 35 49 181 212 206 203 207 206 211 152 49 27 37 52 70 52 57 39 18 16 18 37 58 74 105 134 138 137 144 153 162 168 169 173 179 185 188 190 202 207 209 212 214 214 216 217 212 208 206 206 204 203 197 191 187 184 180 175 167 163 154 146 133 118 113 111 98 81 74 55 51 50 35 38 38 94 168 186 190 193 193 192 193 190 191 191 189 188 188 187 187 185 184 183 182 181 181 179 179 179 178 178 176 176 174 174 171 
26 37 40 40 41 37 26 23 23 23 23 23 24 25 26 26 26 26 25 27 28 28 29 29 28 28 30 31 31 30 31 42 49 51 48 49 50 53 56 55 51 44 34 35 47 181 208 203 206 201 208 162 40 29 29 37 48 33 41 79 34 15 17 27 45 65 101 128 135 134 138 142 136 134 136 128 120 123 127 142 155 175 190 198 208 212 213 214 211 208 205 205 205 200 200 198 190 187 185 181 177 170 166 156 147 135 125 117 108 92 75 66 56 52 47 35 34 56 129 177 185 187 190 190 192 192 190 190 189 188 188 188 186 185 183 183 181 182 182 180 179 179 178 177 177 176 174 174 175 171 
25 37 40 39 40 37 27 25 24 24 23 23 23 25 26 25 24 26 25 25 28 27 26 27 27 26 28 28 29 30 31 41 49 49 45 48 50 53 55 55 50 44 32 34 46 177 205 205 206 201 189 89 29 28 30 35 17 22 46 65 52 30 24 42 51 82 116 129 135 137 135 120 118 130 140 140 133 126 125 120 110 109 114 114 130 148 173 194 200 203 202 205 202 199 195 192 188 185 185 181 177 173 164 156 150 142 130 118 107 88 68 60 60 47 47 44 42 74 137 180 186 187 190 189 188 189 190 189 187 188 188 187 185 185 184 183 181 182 181 180 179 178 177 177 177 176 175 174 174 170 
26 36 40 39 39 36 25 24 24 24 23 25 25 24 24 24 24 24 26 25 26 27 26 27 27 26 27 27 29 30 31 40 49 48 45 48 49 51 54 53 49 41 32 33 42 172 208 205 202 200 165 73 34 26 23 16 33 41 53 56 104 67 33 44 64 97 120 131 141 149 143 140 150 157 158 165 178 184 190 192 177 163 151 141 133 132 143 168 188 194 197 202 198 192 188 185 178 167 151 132 119 107 100 99 91 95 99 94 93 86 69 56 51 44 49 55 49 64 123 157 172 183 186 188 188 188 189 190 189 189 187 186 186 185 184 182 181 181 181 179 178 176 177 177 176 175 175 174 173 170 
25 35 40 38 39 36 26 23 23 24 23 22 24 23 24 25 23 24 25 26 27 27 27 28 28 27 28 29 28 29 30 38 49 49 46 48 48 50 54 52 47 42 30 32 39 167 208 203 199 201 151 81 36 21 17 31 52 56 58 74 125 98 70 53 69 105 128 137 148 160 163 157 146 150 155 154 146 142 144 150 166 171 175 177 175 170 167 170 180 187 192 197 191 183 178 172 160 138 118 100 96 94 90 89 90 85 83 81 77 72 68 49 49 39 44 48 51 50 94 133 160 184 189 190 191 191 189 189 189 186 186 186 186 184 183 182 182 181 180 180 178 177 176 176 176 175 175 174 173 170 
24 35 39 38 39 36 26 23 23 23 23 23 24 24 26 26 24 24 23 25 25 25 25 27 26 27 28 29 30 31 31 39 49 49 46 48 48 50 54 52 48 42 31 33 41 170 206 199 201 199 163 83 35 26 28 47 44 58 51 111 121 122 103 67 88 116 132 142 155 168 175 167 142 120 98 85 90 64 41 77 60 96 127 142 156 163 161 165 176 185 196 200 187 180 174 156 139 140 148 150 155 156 154 157 150 139 121 102 86 81 74 45 44 40 58 67 59 49 90 154 151 177 186 187 188 189 189 189 188 186 186 186 185 184 182 182 182 181 180 179 178 177 176 176 176 175 174 173 173 168 
24 35 40 38 38 35 25 24 23 23 24 24 24 24 25 25 24 24 25 26 25 26 24 25 23 24 27 26 28 30 31 40 47 47 44 48 49 50 52 52 46 41 30 32 45 176 203 198 201 199 179 95 59 35 38 37 48 46 91 142 141 150 96 77 102 119 133 144 159 172 176 170 153 118 90 84 116 90 44 66 61 147 159 123 129 150 167 156 167 184 199 206 189 175 148 116 133 142 142 141 133 124 120 109 110 115 115 103 95 97 81 51 34 30 44 58 65 55 47 102 163 184 183 187 186 187 189 188 187 185 186 185 183 182 182 182 181 180 178 178 178 176 176 176 176 175 172 171 171 167 
24 33 39 38 39 34 26 23 22 22 23 23 22 21 22 23 24 23 24 24 24 24 24 26 25 25 25 25 27 28 30 39 47 46 44 47 47 48 50 50 47 40 30 31 46 176 201 199 197 198 177 106 91 47 39 26 50 41 132 163 167 128 93 103 104 118 131 144 157 166 162 159 158 156 154 155 147 140 136 132 133 154 154 153 150 170 178 160 158 176 195 199 182 156 106 116 117 129 133 75 73 56 33 67 64 45 71 88 105 110 83 50 30 22 27 44 52 62 51 60 125 172 191 185 188 187 189 187 187 186 184 183 183 182 182 181 179 179 178 178 177 176 176 175 175 173 173 171 170 166 
22 33 37 36 37 34 26 23 22 22 22 22 21 21 22 23 22 22 22 22 22 23 24 25 25 24 24 25 26 28 30 38 45 45 43 46 46 48 50 49 46 39 32 31 43 172 202 200 199 197 177 125 140 63 47 25 48 40 112 165 139 102 133 118 102 116 130 142 150 155 161 162 161 164 164 166 171 177 184 188 179 169 168 170 179 176 166 163 160 176 190 190 174 138 101 133 138 153 161 102 61 46 56 107 99 54 45 67 103 110 82 44 31 32 21 34 52 53 63 63 97 125 173 186 186 186 185 187 187 186 184 183 183 181 181 181 179 179 179 177 176 176 176 173 173 171 172 172 172 166 
22 32 37 36 37 33 24 21 21 21 21 21 22 20 19 21 22 22 22 20 23 23 24 23 23 23 23 25 26 27 29 38 46 45 41 45 44 46 49 48 45 37 29 31 39 166 202 198 200 204 191 134 134 81 37 19 36 37 87 150 121 124 129 122 102 111 128 140 149 156 162 160 164 165 168 174 172 171 169 169 172 173 175 176 171 162 158 159 160 171 178 180 165 124 105 128 155 165 161 159 143 125 114 99 95 95 88 106 118 111 73 33 33 40 36 30 54 51 61 73 74 129 149 183 185 188 184 185 187 185 183 183 182 182 181 180 179 178 178 177 175 175 174 173 172 172 172 171 171 165 
21 31 36 36 35 27 21 22 21 21 21 21 20 20 20 21 22 22 23 23 22 21 22 23 23 22 24 24 25 27 28 37 47 46 38 43 44 45 47 46 45 38 29 30 38 165 202 196 198 201 195 154 120 67 32 19 27 42 54 117 143 144 148 158 107 109 125 137 149 157 161 165 165 164 171 173 172 167 164 169 172 170 171 170 167 163 158 159 157 165 172 172 161 118 112 129 138 156 164 160 157 154 147 137 128 119 115 111 107 104 57 23 32 34 58 54 67 51 54 85 90 115 150 167 187 188 187 184 186 185 183 183 181 182 182 179 179 177 177 176 175 175 174 173 173 173 172 170 170 164 
22 30 35 34 34 31 21 19 18 20 20 21 21 19 19 21 22 22 22 22 22 23 23 22 23 21 23 24 25 27 29 38 37 36 38 44 42 45 47 47 44 37 29 28 40 168 201 194 195 204 189 119 86 61 23 17 35 45 42 71 131 137 171 174 110 105 121 139 151 158 160 164 165 170 177 177 176 174 175 178 176 180 180 175 174 173 167 157 156 167 176 172 158 119 121 136 143 155 162 160 157 155 151 150 147 137 123 110 105 97 42 18 35 29 49 59 61 52 51 65 96 105 147 163 188 185 185 186 185 184 183 183 181 180 179 179 179 178 177 176 174 174 173 172 173 171 171 170 169 165 
20 30 36 34 35 32 21 18 18 19 19 19 20 21 19 20 21 20 21 21 20 22 23 23 24 22 23 25 25 25 27 28 8 5 31 44 41 44 47 46 43 35 26 30 39 165 199 198 189 138 117 139 106 58 29 13 47 62 59 41 101 154 165 159 110 104 120 139 150 155 160 165 173 180 186 186 187 190 194 192 187 192 187 188 186 176 163 153 158 168 174 170 156 124 116 137 144 156 162 165 165 161 157 153 147 136 126 113 105 90 25 16 38 28 45 48 69 59 46 71 115 82 133 173 187 182 186 186 185 184 183 183 182 181 179 179 179 177 176 175 175 175 173 172 171 170 170 169 169 164 
20 29 36 35 36 34 22 20 18 17 17 16 18 18 18 20 21 19 20 19 21 22 22 22 22 23 22 21 23 26 25 31 31 31 38 41 41 44 45 43 43 35 25 30 39 162 196 175 104 119 183 165 82 36 33 26 38 78 63 60 88 156 184 184 120 102 120 140 148 156 165 172 180 186 191 195 202 207 207 196 190 185 183 179 162 151 146 152 164 168 173 169 154 131 108 134 153 161 164 165 161 160 159 157 149 139 126 112 106 79 11 15 30 28 42 42 69 61 47 80 138 118 105 174 183 183 187 185 185 184 183 182 183 182 180 179 178 176 175 175 175 174 173 172 171 170 170 169 168 163 
17 27 33 27 24 19 17 18 21 21 21 23 24 23 22 23 27 23 19 19 21 22 20 21 23 24 22 22 23 24 27 37 44 43 38 41 41 42 45 44 44 35 26 28 38 157 185 110 134 196 150 58 36 37 32 42 67 59 36 44 70 86 99 151 120 100 119 140 151 158 169 177 183 189 194 198 212 205 193 182 174 171 173 156 148 154 151 158 164 168 174 174 157 137 109 116 159 176 174 171 172 170 168 163 156 143 128 112 104 60 1 15 34 42 42 49 64 56 43 75 143 146 133 176 182 186 186 186 185 184 183 182 181 181 179 178 177 177 176 175 175 173 172 171 170 170 169 168 168 164 
20 24 20 8 4 6 9 4 6 11 15 11 18 25 30 35 34 29 25 12 26 20 18 21 21 18 20 23 23 23 26 36 41 41 38 41 41 43 45 45 44 34 28 28 38 171 152 115 164 94 39 38 38 27 38 53 73 40 17 26 36 50 26 31 89 105 124 141 150 159 172 180 186 190 193 198 197 186 174 169 171 183 183 163 164 163 162 169 168 179 193 182 161 145 120 111 131 175 183 181 178 178 171 163 157 148 132 115 102 43 0 27 53 61 56 63 50 45 45 96 152 157 150 185 185 184 185 185 185 184 183 182 180 180 179 178 177 177 177 175 174 173 171 172 171 169 167 167 168 164 
7 23 15 6 3 5 3 6 8 12 12 11 18 17 16 22 39 36 27 11 20 15 15 16 15 2 10 20 22 24 24 34 42 40 37 41 41 42 44 45 42 33 25 25 35 168 168 95 47 20 39 49 34 45 46 47 26 21 12 20 22 34 32 27 73 108 130 146 151 159 172 179 183 187 190 189 183 170 167 179 189 192 187 175 156 149 140 143 168 191 200 191 178 138 110 116 126 166 177 181 180 177 172 163 153 144 135 116 98 30 1 35 50 56 58 53 41 40 83 164 163 128 148 180 183 184 185 185 184 183 183 182 180 180 180 178 178 177 176 175 174 173 172 171 171 169 168 168 167 163 
22 31 38 41 9 3 14 15 4 7 13 14 16 13 18 37 45 32 26 16 28 30 28 17 8 10 23 31 21 22 23 33 41 40 36 40 39 42 44 44 42 33 25 26 36 168 153 36 38 59 38 36 44 34 32 24 14 15 11 13 23 28 30 29 72 111 133 150 158 165 172 178 181 183 183 178 171 174 183 189 189 184 181 179 176 171 169 146 138 153 156 158 130 96 117 139 150 162 169 171 174 174 167 160 153 141 127 113 91 16 5 25 28 35 44 48 46 47 111 182 162 152 160 168 180 183 184 184 184 183 182 182 180 180 179 178 178 177 176 176 174 173 172 171 170 168 168 167 167 163 
46 47 42 40 16 6 9 5 3 7 5 5 15 22 24 29 37 38 41 38 41 42 42 38 32 34 41 40 21 19 24 34 40 39 35 40 38 41 44 42 41 32 25 25 35 166 90 20 55 41 51 49 38 46 41 23 27 16 13 14 21 33 36 32 59 111 135 150 163 169 174 177 180 179 175 175 179 181 179 176 176 174 176 180 183 188 192 186 165 150 145 135 130 147 153 148 144 150 161 165 168 167 162 156 149 133 117 110 77 5 9 16 25 37 42 47 74 93 97 164 165 172 169 177 178 180 187 184 184 182 182 182 180 179 178 177 179 178 175 176 174 172 171 170 170 169 168 165 166 160 
30 28 31 29 31 30 27 27 28 26 26 22 13 15 12 19 31 39 42 46 46 34 36 36 39 33 36 32 18 20 23 32 40 39 35 39 39 39 42 41 40 32 25 26 33 157 159 46 23 47 54 50 55 61 31 22 15 17 16 22 34 49 37 19 39 108 136 155 167 171 177 181 183 185 186 182 171 159 160 170 176 178 181 179 184 192 198 194 189 188 185 180 175 163 153 144 140 139 144 155 163 160 157 152 142 127 114 111 58 0 20 26 31 37 48 58 119 112 89 163 185 179 176 180 181 184 186 185 184 183 182 181 180 179 178 177 177 176 174 174 172 172 171 170 169 168 168 166 167 161 
31 32 31 31 33 31 36 35 26 31 36 28 17 14 15 17 24 38 44 44 33 23 26 25 21 12 17 25 18 20 22 32 40 38 34 38 38 39 42 40 38 31 24 26 33 156 191 166 69 24 41 54 44 27 25 21 28 30 29 33 53 56 18 19 25 80 133 153 165 170 176 183 187 190 191 174 151 138 117 115 132 144 155 163 168 173 182 183 183 179 176 170 161 156 149 145 140 120 126 151 159 156 161 154 139 123 117 109 35 2 22 33 38 39 48 78 115 80 140 175 179 182 178 183 185 184 186 184 182 182 181 180 180 179 177 178 177 176 175 173 172 172 171 170 169 167 167 166 166 160 
31 36 35 33 34 28 27 29 31 35 37 36 34 27 28 34 38 36 42 39 33 31 18 6 1 2 21 29 18 21 21 33 39 36 34 37 37 39 41 40 40 32 25 27 33 153 175 146 161 86 29 33 26 28 35 40 42 27 27 32 51 31 17 21 29 45 117 149 162 170 173 178 186 191 186 164 167 175 157 120 100 93 89 93 99 105 117 138 142 125 113 106 100 98 101 93 90 107 135 158 169 171 168 156 131 117 123 91 10 8 31 33 38 39 39 75 72 76 158 176 177 185 184 186 182 184 184 183 184 182 180 180 180 180 178 178 176 175 175 174 173 172 170 170 169 168 167 165 167 161 
37 45 39 19 25 37 37 33 38 40 41 40 36 34 36 38 37 35 33 24 13 4 1 3 3 4 22 25 16 18 21 29 39 35 34 36 36 39 40 38 39 31 23 26 31 152 179 127 72 74 42 26 30 31 30 26 24 25 28 45 34 18 30 24 40 27 85 139 156 166 168 175 182 189 189 181 184 176 172 162 138 110 99 101 104 105 102 98 90 85 87 83 72 66 64 64 85 133 167 169 179 178 162 140 118 122 118 41 0 15 39 42 33 44 39 69 65 80 158 174 175 178 182 183 183 185 184 185 183 180 180 179 179 179 178 177 176 174 174 173 173 171 169 170 169 168 167 167 167 161 
28 29 31 35 33 37 28 33 39 38 38 37 39 41 40 37 30 20 9 1 0 2 4 4 4 3 22 20 16 19 18 30 41 37 35 37 37 39 42 42 36 28 32 20 25 157 191 187 172 94 23 32 30 26 24 22 25 30 45 31 24 23 38 24 38 30 70 120 144 156 165 173 178 184 191 195 186 175 171 171 167 152 127 112 116 140 157 134 130 117 102 96 88 77 79 93 113 137 158 171 178 170 149 123 119 124 64 4 7 13 29 36 46 49 47 46 62 68 131 161 177 176 176 180 185 182 183 184 180 181 180 178 178 178 177 177 176 175 174 172 172 171 170 169 168 168 167 166 165 160 
38 39 43 50 46 45 40 40 40 41 42 41 40 35 24 13 4 1 0 2 2 5 5 5 2 3 27 18 8 9 10 15 22 21 20 24 27 29 32 32 23 26 30 24 20 152 195 191 204 145 21 30 26 25 24 24 19 44 31 29 31 34 52 49 47 26 63 113 123 145 155 162 171 178 186 192 187 178 173 175 172 170 171 163 151 145 141 134 131 117 109 105 103 106 118 119 126 138 154 172 172 156 129 120 122 65 0 4 23 35 18 27 42 56 59 46 59 63 76 122 143 164 171 175 180 181 181 181 182 183 178 178 179 177 176 176 176 174 174 173 172 171 170 169 167 168 167 165 165 161 
39 42 42 42 40 36 38 44 44 41 37 28 17 8 1 1 1 1 2 2 2 7 4 3 0 3 28 16 6 3 5 4 4 2 1 0 0 4 11 12 23 27 28 22 16 154 197 192 195 174 40 15 32 30 30 32 45 45 34 31 37 55 63 52 31 19 51 118 123 130 147 158 162 168 179 185 186 183 177 178 179 175 171 173 175 172 166 156 150 151 148 145 139 137 134 135 140 141 152 166 153 129 121 110 50 3 7 11 23 40 30 18 20 32 51 60 53 58 66 79 112 133 139 151 171 179 183 183 183 179 178 180 177 176 178 177 175 173 174 173 172 170 170 168 169 168 166 165 164 159 
43 47 45 34 29 34 42 42 35 25 12 3 0 0 1 1 1 1 2 2 2 3 1 2 1 3 28 12 4 7 5 7 7 3 9 13 19 24 28 28 26 24 17 12 15 150 197 194 194 181 141 43 17 20 21 57 77 49 40 69 80 57 88 34 16 10 39 115 135 135 136 151 159 158 166 178 183 181 178 178 182 185 186 185 179 173 167 162 161 161 159 154 151 149 149 148 144 140 151 142 122 119 88 29 4 11 14 15 25 39 66 56 37 32 27 35 49 52 59 56 73 128 139 149 157 159 176 182 179 179 180 178 177 178 177 175 175 174 173 171 171 171 170 168 168 167 165 164 164 159 
35 40 35 35 43 42 31 18 8 1 0 0 2 2 1 1 3 3 1 2 2 1 3 6 2 4 29 11 2 7 7 6 4 14 30 31 27 25 21 17 16 13 10 11 14 149 197 193 195 198 202 175 115 45 16 60 85 49 40 80 48 23 60 40 20 3 44 111 133 146 146 138 149 153 152 161 175 173 174 181 187 188 190 195 195 190 183 179 177 172 169 169 164 159 153 148 141 139 131 117 108 53 8 8 20 27 22 19 20 31 29 37 35 30 30 21 36 45 64 70 61 62 88 119 148 164 170 180 181 181 180 178 177 177 176 175 175 174 172 172 171 170 169 168 166 165 166 165 165 161 
44 41 41 39 26 13 5 0 0 1 2 1 1 1 2 1 3 3 1 2 3 6 8 4 2 4 27 9 4 7 4 5 7 23 23 19 16 15 15 12 10 9 10 11 11 150 198 192 195 196 193 199 198 165 79 48 57 40 44 44 25 31 35 45 46 54 69 108 132 147 155 149 141 146 148 146 160 171 173 180 186 187 192 196 197 195 189 182 179 175 173 168 161 156 151 142 137 126 110 87 41 6 33 18 33 60 43 30 21 26 30 24 29 25 19 20 27 30 43 60 73 89 74 96 97 143 169 175 180 179 179 177 177 177 176 175 175 174 173 172 170 169 169 167 168 166 165 164 164 158 
40 34 19 7 2 0 2 1 1 1 1 1 1 1 1 1 4 3 2 1 2 2 2 2 1 3 26 7 4 6 3 1 8 15 16 16 15 12 12 11 9 9 10 9 10 147 197 193 195 196 197 193 188 197 178 93 53 59 41 42 47 41 52 78 59 70 92 111 132 148 157 159 151 142 140 146 146 157 170 176 178 181 185 188 190 185 186 184 184 184 178 168 161 151 141 135 124 97 66 55 48 32 52 24 22 44 50 47 35 33 34 32 37 40 23 19 38 41 35 51 61 92 83 129 157 102 160 179 179 177 176 175 175 176 176 175 174 172 172 172 170 170 168 168 167 166 165 163 164 157 
9 2 0 1 3 3 2 1 1 2 1 0 0 1 0 0 3 13 1 1 0 0 1 1 1 3 24 5 5 4 6 3 9 15 16 14 11 11 11 9 9 9 10 6 6 146 197 192 194 195 194 194 196 194 187 121 77 101 98 72 64 71 104 86 52 86 105 115 132 146 155 161 162 155 144 142 147 150 156 165 172 173 175 177 176 171 174 177 178 174 170 160 153 146 139 117 76 60 80 93 71 36 46 45 22 17 23 23 31 36 34 38 45 51 28 44 82 56 34 50 77 78 65 128 149 90 161 182 179 178 176 176 175 174 173 175 174 173 172 171 170 170 168 168 168 166 165 164 163 160 
0 8 19 20 11 3 2 2 3 3 2 2 2 2 9 15 17 16 1 1 1 1 1 1 1 3 22 5 3 4 3 5 10 15 15 12 12 12 11 9 9 9 10 5 6 144 196 190 193 193 192 195 195 196 200 149 115 109 74 76 105 141 169 163 106 114 113 118 131 143 154 161 167 167 162 151 146 149 150 152 157 161 162 163 162 164 165 164 166 164 156 150 142 125 97 69 79 111 112 93 78 67 32 41 45 36 21 18 21 32 33 43 48 61 51 75 89 63 40 66 84 50 82 113 85 128 174 178 178 178 178 177 176 176 174 174 174 172 172 171 169 170 168 167 167 166 165 164 163 160 
2 4 9 14 8 3 2 2 2 2 2 2 3 1 17 32 38 15 2 2 2 1 2 3 1 2 21 14 7 4 4 6 12 15 16 15 13 12 10 11 10 7 9 6 7 142 195 189 191 192 196 197 193 182 165 146 104 82 86 128 186 194 196 206 150 118 123 125 134 144 154 160 164 169 168 167 161 155 153 152 151 150 150 149 147 145 144 143 141 135 126 115 104 97 103 121 134 125 111 99 88 88 80 39 26 24 19 19 18 20 39 52 45 64 74 67 59 55 58 69 78 56 61 77 131 171 176 179 179 178 178 176 176 175 175 173 173 174 173 171 169 170 169 167 167 166 165 163 163 160 
1 2 1 3 4 4 2 1 0 0 0 0 0 1 6 11 18 11 1 2 2 2 2 2 2 1 19 17 11 19 30 20 13 16 16 16 13 11 12 10 10 10 6 5 7 140 193 190 194 190 175 157 143 134 137 142 164 176 179 203 207 203 204 209 209 148 124 135 139 145 154 159 161 166 171 173 171 167 161 161 161 159 158 155 153 148 144 140 137 132 127 128 134 143 146 140 130 124 116 107 102 99 108 100 72 53 47 43 66 108 60 42 45 56 65 66 52 52 57 74 59 50 69 131 172 176 179 180 179 178 177 176 175 175 174 174 174 172 172 171 169 169 168 167 166 165 165 163 163 160 
13 14 15 15 15 15 14 14 14 16 15 13 13 10 2 1 3 11 2 2 1 1 2 1 2 2 19 17 14 14 12 18 16 17 15 13 12 12 11 9 10 8 7 6 0 138 194 179 162 143 136 139 148 163 170 171 182 203 211 213 215 212 210 210 216 211 159 137 142 147 153 159 162 166 169 173 173 174 171 169 166 166 167 167 165 162 159 156 152 152 150 151 153 150 144 137 133 128 120 116 113 114 116 113 118 118 114 123 174 167 75 53 61 65 57 48 50 47 60 84 84 70 115 176 186 182 180 178 179 179 177 177 176 174 175 174 173 172 171 171 170 168 166 167 166 165 165 164 163 159 
7 8 9 10 9 11 12 12 11 13 13 10 12 10 9 10 8 11 15 2 2 2 5 4 3 2 17 18 16 13 6 11 16 16 16 14 12 10 12 11 6 2 4 7 26 126 147 138 139 149 162 166 173 176 180 181 185 201 213 219 218 216 216 215 213 217 222 186 152 148 152 157 160 167 170 172 172 170 175 175 173 171 170 170 170 168 164 161 160 161 153 155 152 150 144 140 135 130 126 126 123 124 123 121 120 123 153 192 192 183 184 164 145 129 83 52 60 88 116 133 141 131 130 138 151 167 178 183 181 179 177 177 176 175 174 174 173 172 172 170 168 169 167 167 166 165 164 164 163 159 
11 11 9 10 8 8 8 8 7 3 1 2 7 10 9 9 10 12 13 11 12 13 13 13 12 13 17 18 17 19 15 14 14 15 13 10 10 12 9 5 4 27 63 102 133 142 149 161 168 175 178 182 182 184 189 193 191 199 215 222 223 220 221 219 217 216 220 226 213 182 160 154 159 165 170 173 174 172 173 176 177 176 173 171 170 168 166 165 163 161 162 157 152 149 146 141 135 136 135 134 132 130 126 127 145 183 204 199 196 195 198 199 188 184 168 117 123 154 160 152 147 145 141 135 127 127 134 148 164 175 182 179 175 174 174 173 173 172 171 171 171 169 168 168 166 165 165 164 163 159 
22 21 22 25 25 27 31 31 33 24 2 6 8 9 10 12 15 15 14 14 16 16 17 18 18 19 20 20 22 23 25 24 19 11 15 16 6 17 17 55 97 129 149 159 165 170 173 177 180 183 188 187 191 193 195 198 199 198 210 219 224 225 224 223 222 219 220 219 223 228 214 190 170 163 164 169 173 173 173 175 176 174 173 173 173 170 168 167 166 162 160 158 153 150 146 143 143 144 142 140 136 137 152 179 206 209 201 201 201 202 199 194 194 196 189 174 155 165 170 166 161 158 155 149 149 139 132 127 126 133 147 164 175 182 178 172 172 172 173 172 171 169 167 167 167 166 165 164 164 159 
11 13 13 16 19 22 25 28 27 18 9 11 12 14 16 16 17 18 18 18 19 19 20 21 21 23 23 24 26 25 25 28 22 3 14 31 54 88 122 145 155 159 162 166 172 175 178 181 184 187 191 191 196 196 199 200 202 203 204 211 219 224 227 226 224 222 221 220 220 220 226 228 220 204 190 179 173 170 168 168 170 168 169 171 168 167 167 165 163 163 161 157 154 153 146 146 145 145 149 158 172 196 212 211 204 204 207 207 208 205 199 198 201 200 183 167 163 175 179 176 171 168 168 162 161 155 146 142 135 130 122 129 127 129 162 185 177 170 172 171 170 169 167 167 167 166 165 163 163 158 
14 11 13 18 18 19 20 16 11 9 15 16 19 19 20 22 22 23 24 23 23 24 24 24 24 25 27 27 27 27 28 25 23 48 94 130 152 163 167 172 176 179 182 184 186 187 187 190 191 195 194 197 197 200 203 206 206 207 209 208 212 217 223 227 228 227 226 226 224 224 224 223 226 229 230 227 218 209 199 193 188 182 177 176 173 170 169 166 165 164 164 164 164 164 165 174 183 193 207 216 218 215 210 207 209 213 214 212 210 206 206 204 197 195 186 174 175 180 186 186 178 178 177 174 174 169 160 158 152 143 137 132 127 117 104 114 157 179 174 173 172 171 169 168 168 166 165 164 164 159 
12 11 21 27 27 26 12 9 13 16 18 19 21 23 25 25 26 26 27 26 24 26 27 26 26 28 28 28 28 29 31 60 105 141 156 162 167 171 176 179 180 182 183 184 185 184 186 188 188 189 190 192 194 197 198 199 199 200 202 202 202 205 208 214 217 218 217 218 219 216 216 215 215 217 217 218 221 222 223 225 221 218 213 210 208 204 201 199 199 199 200 205 206 207 210 214 217 217 214 209 206 203 203 204 206 206 204 201 200 201 199 192 186 186 181 175 179 178 178 178 173 172 172 173 172 169 165 162 160 155 150 145 134 131 122 92 85 127 164 166 164 162 162 161 160 160 158 158 157 153 
