P2
150 65
255
181 161 111 74 47 50 53 46 21 25 26 29 31 31 33 29 33 25 21 103 151 141 139 114 47 87 59 58 57 59 34 25 34 31 40 46 41 85 59 80 143 55 71 84 26 27 28 62 66 57 42 36 36 32 29 51 171 80 23 37 37 40 34 32 62 72 67 117 145 144 127 86 82 78 66 64 87 125 111 69 59 88 67 74 140 111 91 151 141 148 133 44 74 25 67 71 70 137 143 124 97 130 145 142 141 154 70 10 22 13 30 34 42 43 22 50 35 60 113 72 67 47 50 15 5 15 19 54 76 95 77 75 67 61 56 63 70 62 53 50 64 63 62 65 71 116 160 152 152 137 
189 170 107 81 48 54 53 51 23 22 24 27 31 31 32 34 34 60 101 117 174 182 180 168 157 136 135 120 53 63 38 27 35 35 44 50 42 57 105 115 154 36 36 44 39 31 26 62 70 60 55 57 28 30 34 45 121 59 44 71 63 48 32 40 71 74 71 120 154 153 133 92 87 79 69 68 93 126 148 100 53 77 47 47 108 168 145 128 134 112 90 54 39 62 83 69 74 144 151 129 102 138 150 149 147 159 67 11 17 17 37 39 49 47 24 54 34 75 117 77 72 39 40 13 7 19 11 53 87 93 82 84 70 65 64 66 72 64 55 53 69 66 66 70 75 126 167 159 159 144 
188 175 113 88 48 52 52 53 31 27 31 35 34 31 34 37 30 129 202 194 154 148 189 199 187 176 198 118 52 65 40 22 29 35 46 53 55 47 85 117 133 118 82 71 49 37 39 56 70 60 49 83 91 59 39 36 20 34 59 63 57 41 37 53 80 69 69 120 150 144 127 91 88 79 69 64 138 154 143 70 51 60 64 63 87 139 139 122 104 47 29 55 68 44 76 69 75 144 147 126 101 139 150 149 147 159 55 7 12 7 26 26 47 34 22 45 25 89 117 78 79 56 39 8 7 19 14 32 47 38 37 89 69 63 65 69 71 62 54 55 67 65 66 71 75 132 166 156 156 142 
189 182 124 100 47 53 54 55 53 55 53 53 54 52 53 51 53 70 73 78 62 74 94 92 94 88 95 90 59 62 51 43 42 45 52 54 58 61 62 77 87 97 101 99 81 55 39 55 69 60 33 59 119 146 128 97 78 81 70 68 63 53 50 38 63 73 65 120 152 144 131 90 89 78 70 62 165 191 143 111 126 81 109 149 140 105 117 154 111 73 60 99 70 38 75 67 77 145 147 124 101 138 148 149 148 156 86 54 59 61 67 79 86 76 79 87 82 107 112 96 104 93 87 79 75 82 86 83 86 91 89 92 71 65 66 69 71 63 53 57 67 67 67 72 75 136 166 157 158 142 
188 187 129 107 48 52 53 53 54 54 54 55 56 55 56 56 57 55 53 52 56 55 53 53 53 54 53 55 60 60 62 64 62 63 63 63 62 63 65 63 62 61 60 58 60 63 61 67 67 67 61 61 69 75 81 91 91 87 74 83 83 66 54 53 66 69 64 117 155 146 127 90 88 77 67 61 157 175 168 145 149 163 126 137 67 45 51 57 103 120 111 70 38 29 79 64 80 147 148 123 102 142 152 150 148 151 85 62 67 76 77 74 72 72 70 68 68 62 60 62 61 60 63 52 39 37 32 28 27 25 27 27 59 68 65 69 71 63 52 58 67 67 66 73 75 141 163 156 158 142 
186 191 129 115 51 53 52 52 53 54 53 55 56 56 57 57 58 59 59 59 60 60 61 61 61 61 61 61 60 60 60 60 63 62 61 63 63 62 63 65 66 66 66 65 64 69 67 67 66 66 67 67 64 62 61 59 61 62 63 63 64 66 69 69 67 66 63 119 155 150 127 87 88 76 64 70 70 106 167 140 103 120 95 131 114 124 108 83 67 97 68 45 47 40 57 53 75 112 107 93 86 114 123 125 132 142 57 29 34 50 61 60 61 61 60 62 63 64 66 66 68 68 66 68 68 64 59 54 46 40 31 20 61 65 64 71 71 63 53 58 68 67 66 72 79 146 160 156 156 141 
189 194 131 125 54 51 51 52 52 48 47 47 49 51 46 50 55 53 55 56 57 55 57 58 60 60 60 60 61 60 61 62 59 58 61 58 60 64 64 66 66 66 67 67 66 69 68 66 67 65 67 69 68 69 69 70 71 71 70 71 62 60 65 69 69 67 63 120 156 142 122 84 89 74 66 66 74 122 166 113 102 88 125 139 91 73 66 55 49 48 43 53 56 48 38 43 47 61 55 63 62 57 61 66 77 90 55 38 49 67 72 69 71 71 71 71 71 73 72 72 73 72 71 71 70 70 70 70 71 71 70 33 58 67 65 72 70 62 53 61 67 66 65 71 82 149 159 157 155 140 
189 198 137 129 59 49 54 44 103 128 69 60 49 41 62 53 29 32 33 33 33 35 35 35 36 37 38 37 55 57 95 116 70 63 44 74 61 30 36 36 37 38 38 39 39 40 37 56 69 64 50 53 50 47 48 49 50 46 44 46 90 101 74 53 64 65 62 121 154 143 118 84 86 74 65 64 119 163 151 106 80 47 45 24 18 30 36 37 42 51 45 46 36 38 33 33 31 30 38 44 54 62 70 68 49 37 41 44 48 61 67 70 72 70 69 73 72 72 73 71 72 70 69 71 70 70 69 69 69 68 71 48 59 68 64 72 71 61 50 62 66 65 64 73 84 153 158 155 154 139 
191 203 137 133 64 50 54 48 80 117 99 95 57 43 69 59 28 30 30 30 31 30 30 31 31 30 31 29 52 61 71 91 89 72 34 43 39 28 25 24 24 24 23 24 22 22 19 49 70 63 31 32 34 25 27 28 23 30 59 126 177 153 127 71 60 70 63 124 156 143 118 83 88 72 65 66 137 142 84 58 34 18 26 34 36 37 36 40 36 36 43 47 61 68 66 64 59 52 52 57 44 40 51 60 66 62 54 48 35 39 47 62 73 71 65 65 67 70 71 70 71 74 75 75 72 73 71 73 72 72 73 63 61 65 64 74 70 60 51 62 65 65 65 72 88 156 156 154 153 138 
191 207 144 136 69 49 54 52 61 87 97 100 60 39 34 39 44 36 30 31 30 33 32 33 32 29 31 29 49 62 63 88 104 75 36 36 38 37 30 25 25 33 28 27 27 25 22 47 68 65 34 28 29 31 49 37 28 53 84 103 75 60 55 46 62 67 63 120 150 139 114 81 89 72 58 58 67 68 50 26 27 30 38 29 32 42 44 51 53 70 78 75 81 79 71 70 67 64 58 69 69 62 52 51 56 60 58 54 53 55 52 56 34 46 59 58 45 47 55 60 59 50 52 55 61 62 69 69 71 69 69 69 63 65 65 75 71 60 50 62 65 66 64 71 91 158 154 153 154 138 
192 214 139 127 76 47 53 51 61 95 111 107 53 42 42 42 36 38 39 30 42 46 43 28 35 37 33 30 48 62 62 88 103 91 44 39 32 37 57 57 62 25 45 32 33 37 17 44 69 68 54 89 112 41 51 32 29 31 31 33 44 97 34 35 60 67 61 121 152 136 113 84 87 64 59 47 40 63 32 19 25 27 28 28 39 48 66 52 40 43 51 51 39 37 41 47 58 64 53 54 47 48 62 58 50 50 54 56 63 60 53 55 49 36 47 53 59 51 22 23 29 12 24 37 57 30 31 55 88 86 86 78 62 66 64 76 70 59 50 62 65 65 65 72 95 159 153 153 153 138 
193 217 157 121 81 49 54 52 63 96 50 90 78 45 45 45 55 82 44 39 97 74 139 85 32 46 34 27 46 63 65 68 106 100 56 48 73 96 100 115 114 64 111 128 41 27 26 44 69 69 54 92 156 80 42 78 77 45 67 33 51 104 49 44 60 66 61 116 146 121 105 72 64 61 63 33 35 26 32 28 24 33 36 25 31 44 55 64 68 67 61 47 34 49 48 55 65 63 59 67 67 49 41 48 48 50 49 43 48 50 42 49 50 63 42 33 48 49 32 25 25 29 30 40 78 28 38 76 93 88 108 83 61 64 63 76 68 57 50 63 65 64 66 74 100 160 152 153 153 138 
195 217 174 124 88 46 53 54 57 79 105 129 73 45 60 90 92 106 57 47 130 99 124 123 47 36 37 40 45 64 58 83 193 139 38 50 78 101 117 122 122 71 55 121 78 25 48 49 67 69 36 60 136 83 54 89 66 45 88 80 112 108 108 72 62 65 62 121 136 119 90 70 61 37 41 43 37 33 47 39 33 36 24 22 42 32 48 68 61 58 62 72 83 109 123 132 147 153 139 130 127 113 82 68 66 58 52 45 36 43 45 39 38 46 50 33 25 37 35 26 28 19 22 41 70 23 49 65 80 79 95 74 60 62 63 77 69 57 50 63 63 64 66 72 105 161 152 152 152 138 
195 214 191 128 97 47 54 53 58 75 161 149 43 42 63 56 84 113 106 80 135 110 89 128 56 44 44 52 47 62 64 69 163 90 41 125 103 116 145 144 97 43 41 54 46 33 32 34 67 71 42 43 54 54 68 59 41 48 61 98 163 143 99 94 74 64 64 113 127 88 77 95 78 47 66 79 34 53 57 41 32 31 36 65 75 84 94 97 100 103 124 151 179 193 197 194 194 196 193 189 182 165 137 119 104 93 91 68 58 64 56 42 53 42 32 39 27 23 33 32 22 29 28 46 62 27 46 65 83 85 94 73 58 60 62 78 68 56 52 65 64 64 68 74 111 161 152 152 152 137 
178 195 175 128 101 46 53 52 55 70 118 103 26 98 137 118 124 124 141 102 82 96 52 51 45 43 39 37 37 61 64 47 60 62 77 131 184 141 93 79 75 76 38 47 33 40 24 32 68 68 68 36 61 63 55 50 41 36 41 49 48 55 77 77 62 70 66 96 92 56 46 52 72 45 53 71 72 67 43 52 66 66 99 114 120 150 162 179 190 193 199 208 211 212 212 208 202 200 196 194 190 177 158 147 130 122 129 123 98 72 55 41 40 50 45 27 37 34 33 35 35 33 36 53 62 28 46 69 78 78 88 65 55 59 61 79 68 55 51 65 64 64 69 72 115 160 152 151 151 137 
179 199 166 122 111 50 53 52 57 70 55 54 59 93 126 171 132 86 74 68 83 78 37 57 44 40 42 33 36 59 65 47 41 57 65 66 82 81 73 71 75 67 31 40 27 27 26 28 66 70 71 32 46 54 43 46 42 58 143 132 128 122 116 84 66 66 65 65 59 35 50 86 65 39 86 54 55 48 53 46 68 128 157 172 181 196 199 209 216 219 219 217 217 221 219 216 213 211 208 201 195 195 184 183 176 163 151 147 133 114 85 52 36 41 59 45 32 49 38 31 51 33 32 60 57 26 50 68 78 76 83 58 52 54 60 77 65 54 53 64 63 64 70 70 121 159 152 150 150 137 
182 203 164 118 116 55 54 54 56 76 50 51 64 71 66 78 78 75 74 69 75 61 38 48 40 33 32 35 33 56 66 52 27 122 171 145 74 82 77 65 52 40 26 23 26 25 24 22 59 71 59 26 34 42 46 50 47 54 145 163 166 152 85 109 86 61 57 51 32 35 78 47 41 35 24 49 61 49 75 74 120 183 186 215 217 220 216 214 222 227 223 223 227 227 226 224 222 220 216 212 209 200 197 189 186 181 163 146 135 114 93 79 45 35 49 60 33 22 41 44 35 33 31 57 53 32 57 65 76 77 77 58 53 53 58 71 62 52 52 63 63 63 71 73 126 158 151 150 151 137 
185 205 165 124 125 60 53 55 53 67 43 51 146 160 108 61 88 77 70 58 53 41 35 34 36 37 35 36 35 56 66 55 47 111 118 133 101 64 62 60 58 53 54 55 56 56 56 56 66 68 66 60 65 67 66 68 66 66 61 61 63 62 65 62 61 41 43 36 32 52 50 39 27 16 49 102 87 45 91 101 164 191 211 226 225 224 223 222 222 226 228 229 227 228 228 224 225 224 218 217 214 211 207 199 195 187 172 162 138 114 83 86 65 41 40 55 48 27 26 34 26 23 26 31 45 47 58 67 76 78 75 56 50 51 57 65 58 51 51 64 62 61 70 71 131 156 150 151 151 136 
186 205 165 131 138 68 51 55 54 52 47 46 82 96 89 59 62 62 58 58 58 58 60 62 61 61 62 63 64 63 64 67 66 60 58 56 62 68 70 69 71 71 70 69 68 67 66 72 69 69 70 70 71 71 70 69 69 67 68 70 69 70 69 67 38 28 33 27 19 38 44 48 24 39 60 59 61 42 47 119 196 207 222 225 227 226 228 226 228 228 229 230 231 231 225 226 224 220 220 220 218 212 206 205 198 192 185 181 164 140 91 74 66 41 40 51 52 34 20 33 49 49 24 18 26 49 50 69 78 80 81 54 48 51 57 63 56 49 54 64 62 61 69 71 135 154 151 151 151 136 
186 210 160 103 118 79 54 58 58 57 59 61 53 52 54 60 61 61 61 62 62 63 63 64 63 61 62 64 64 60 62 62 61 62 64 63 62 63 62 65 65 66 69 74 77 81 83 72 73 74 75 74 74 76 79 80 79 81 80 82 74 68 71 56 25 35 30 33 46 23 41 36 24 37 37 48 52 50 87 185 209 214 222 226 227 228 229 229 228 228 226 228 228 227 221 222 224 218 218 220 218 214 207 207 200 198 195 190 182 166 117 80 72 49 40 39 42 36 30 23 54 52 35 16 15 36 52 84 85 89 90 52 46 49 55 60 54 47 54 62 62 62 69 72 139 155 152 150 150 136 
187 211 155 97 116 93 44 53 54 53 56 56 55 56 56 55 57 59 61 61 63 63 63 68 70 72 74 76 83 85 86 90 97 100 104 117 127 138 154 144 149 154 158 164 168 173 173 98 95 97 96 98 99 97 103 105 109 109 114 113 58 37 43 29 27 47 33 37 28 19 37 38 32 34 58 36 58 104 142 197 208 218 223 226 229 228 229 227 220 220 220 221 224 221 220 219 217 218 213 215 214 210 210 205 200 197 198 198 184 167 132 85 74 56 49 53 38 26 27 28 36 31 26 28 16 28 66 62 58 58 59 48 47 47 54 56 50 43 52 62 61 62 69 75 143 154 150 149 150 136 
188 208 174 142 157 125 78 82 86 89 85 86 90 93 94 104 112 100 94 95 130 135 132 136 150 156 156 157 161 163 163 168 172 178 190 202 211 218 220 131 125 125 128 124 131 139 142 105 109 109 113 118 119 123 126 130 135 135 146 123 36 35 48 26 60 49 25 16 30 31 67 36 34 22 20 25 60 84 135 203 203 215 219 224 224 227 227 223 221 225 225 227 226 224 224 220 217 211 210 212 213 212 209 201 196 192 190 190 186 159 133 95 70 57 47 32 30 23 19 24 22 17 18 23 20 32 40 39 44 42 23 44 48 47 56 52 47 41 51 58 60 62 67 77 147 152 148 148 149 134 
190 211 176 155 157 148 137 129 141 140 131 131 134 137 140 146 154 129 116 118 161 160 157 166 169 170 175 178 180 182 185 190 198 202 207 212 214 217 206 150 157 166 175 178 180 188 178 121 124 127 134 139 137 141 145 149 145 145 145 145 85 67 48 27 41 32 33 26 49 30 71 42 45 47 15 51 111 57 171 206 214 225 226 229 228 224 227 229 231 231 229 232 228 228 225 222 221 219 221 222 212 213 207 201 200 201 199 189 175 154 132 97 58 56 31 19 9 11 19 44 25 30 24 12 16 31 19 33 51 57 32 43 47 46 55 50 45 38 51 57 59 62 67 80 150 151 149 150 150 135 
192 211 179 152 160 154 149 145 158 152 146 144 157 152 149 167 156 144 145 147 185 175 173 181 187 185 192 193 198 197 200 199 208 211 210 211 214 218 211 192 203 199 200 203 200 213 196 132 138 137 139 144 143 143 146 146 140 156 179 203 197 141 39 37 41 32 27 28 24 21 61 72 70 39 23 75 61 117 175 150 149 135 144 179 204 225 236 236 234 234 231 232 233 236 232 231 229 226 193 136 114 104 105 115 114 128 148 167 180 160 134 116 63 51 25 12 8 7 25 56 37 39 33 17 16 11 27 31 50 55 44 43 50 47 53 49 42 34 49 57 57 60 66 85 153 150 149 149 149 135 
191 208 193 188 169 157 169 171 170 173 172 176 177 182 184 181 180 173 173 186 203 191 190 196 200 194 195 202 201 202 200 198 209 209 209 212 214 220 211 177 182 181 196 196 197 210 189 135 143 142 143 140 141 140 138 147 175 210 205 204 178 95 43 42 38 31 27 25 22 21 50 69 35 17 42 35 68 123 108 99 106 133 139 138 150 195 229 230 229 233 233 232 233 231 229 222 221 210 176 173 179 185 196 201 188 171 144 132 127 136 137 123 96 53 25 7 6 10 10 16 49 34 11 18 13 10 30 39 50 54 49 46 47 47 53 49 42 34 48 53 55 59 64 89 153 149 149 147 148 135 
192 210 196 191 192 188 190 190 188 190 189 188 188 190 190 188 184 173 174 199 208 197 200 201 204 202 201 203 203 202 199 202 209 209 210 213 214 220 208 185 188 186 191 184 195 214 183 136 141 141 146 142 139 143 162 193 210 198 176 120 108 82 86 32 29 24 36 17 14 27 25 40 17 21 23 56 147 184 214 224 242 251 244 231 216 203 207 216 222 229 231 232 232 222 212 207 207 208 216 228 234 231 235 238 235 225 207 185 163 118 118 130 118 92 40 14 7 10 10 13 17 19 11 10 13 26 24 23 39 53 49 45 47 46 52 47 42 33 46 51 53 58 63 93 155 148 149 147 148 135 
193 209 199 198 206 208 212 218 218 218 220 217 218 219 219 221 216 205 209 200 191 190 192 192 194 195 197 199 201 202 204 204 205 207 207 208 212 220 206 184 195 192 200 205 205 213 177 132 143 142 137 144 168 199 209 222 185 127 115 77 66 93 64 33 37 30 31 48 51 23 17 18 19 36 71 130 203 210 187 173 162 153 156 179 196 211 204 196 208 219 229 233 227 216 205 200 202 215 213 189 159 149 132 140 142 159 171 191 182 169 135 122 121 120 64 22 10 7 11 16 10 8 12 9 8 24 22 20 23 34 49 45 46 47 54 47 42 33 46 49 51 55 61 100 155 148 149 148 148 134 
193 211 191 182 189 186 174 145 153 158 159 165 167 170 172 175 176 173 178 180 179 177 173 177 181 184 191 192 191 196 202 201 201 204 207 208 215 224 206 183 190 194 200 198 205 212 174 134 137 142 167 199 197 205 215 130 51 90 96 90 55 46 38 33 37 38 33 33 70 44 19 22 16 74 124 158 174 108 131 136 49 66 53 117 177 183 214 198 190 217 228 226 220 205 190 181 197 209 178 147 177 135 49 59 35 89 122 109 165 152 146 134 114 130 88 19 7 5 5 8 7 5 5 4 8 21 26 22 24 32 41 45 46 47 51 49 42 33 45 46 50 55 59 103 156 148 148 146 145 133 
192 213 182 112 179 189 177 139 82 74 83 85 85 86 88 91 89 90 89 90 91 84 48 46 104 110 117 91 81 90 68 118 188 179 146 185 210 205 202 196 202 207 211 208 206 218 173 137 162 191 208 189 171 136 59 15 10 34 75 43 34 37 35 49 53 58 42 38 39 39 27 18 17 94 140 168 148 130 208 190 65 63 64 166 247 189 191 207 187 208 212 213 204 185 180 178 210 201 170 192 247 174 59 64 50 145 189 123 150 174 146 143 132 138 104 33 9 8 5 5 7 6 3 28 40 31 23 17 20 25 36 45 46 46 53 46 39 34 46 46 48 53 58 107 155 147 146 148 149 137 
192 211 195 48 58 152 209 210 183 121 89 99 99 99 99 99 97 96 98 102 106 87 39 58 124 123 94 92 100 137 54 82 165 182 135 128 191 196 196 209 211 210 210 217 221 215 182 179 208 202 190 140 70 20 17 26 32 48 36 31 33 41 37 63 57 65 63 39 49 58 30 47 42 124 168 183 186 180 181 194 164 142 173 215 212 209 205 204 187 204 208 201 185 176 183 193 202 210 208 196 197 204 170 138 145 174 170 175 180 186 177 165 150 142 113 43 16 12 10 15 13 6 20 50 48 22 27 24 24 41 43 50 47 46 51 45 39 35 47 46 45 51 56 111 152 145 148 138 120 105 
193 208 198 46 20 24 91 175 203 205 169 111 104 107 108 109 107 108 114 121 118 104 63 48 65 118 136 128 164 151 115 98 155 141 122 139 179 212 202 205 213 217 223 215 196 191 205 197 197 198 69 21 17 27 29 51 75 63 64 50 30 55 36 50 34 66 75 46 35 41 32 65 71 153 185 195 207 216 225 220 227 242 240 231 226 215 201 191 193 210 219 206 186 188 188 196 195 201 214 221 223 229 236 229 225 211 210 204 195 180 180 180 158 148 125 58 13 8 12 15 13 21 20 24 17 48 41 24 46 34 45 51 42 46 50 46 39 36 47 46 45 51 56 115 152 144 149 129 106 97 
194 207 204 55 27 23 17 150 213 203 119 140 119 113 119 116 122 123 120 123 118 100 47 42 58 70 121 149 149 166 109 149 159 105 110 139 173 209 204 210 216 227 200 192 201 207 178 164 180 204 77 16 36 42 53 56 69 76 72 34 57 52 22 25 34 49 63 33 28 26 38 32 56 168 186 198 214 224 232 237 236 232 227 227 222 211 200 194 194 212 213 203 186 188 201 198 194 207 215 215 217 231 232 233 231 219 216 207 199 190 181 173 160 145 128 63 20 12 26 25 22 37 22 29 23 77 48 36 41 28 19 39 46 46 48 43 37 36 47 45 44 52 60 121 150 143 147 127 119 106 
193 207 211 68 13 39 166 220 188 106 88 111 114 125 123 123 128 123 123 124 123 99 48 48 45 47 94 128 122 97 106 120 113 91 84 125 166 210 205 211 215 224 213 213 203 169 176 199 191 196 185 37 42 44 33 63 70 82 50 28 51 35 23 25 28 55 51 18 42 37 42 26 60 167 188 203 213 222 226 227 224 220 220 225 221 208 206 192 202 211 207 201 184 171 194 205 204 205 212 224 219 220 219 223 226 216 213 211 201 197 184 172 161 137 121 64 27 27 64 38 30 50 33 29 20 44 48 41 22 29 22 29 45 49 48 45 37 35 45 44 44 52 60 125 147 141 145 122 107 102 
194 207 221 74 39 180 220 180 112 91 96 115 115 121 117 123 125 121 124 125 123 104 48 46 47 48 92 143 144 126 115 108 114 108 116 136 166 186 208 211 214 215 200 172 182 191 203 204 202 184 211 125 12 31 67 84 51 57 27 25 33 34 23 26 23 34 47 42 54 45 44 30 57 165 186 202 211 215 222 223 225 226 228 229 222 220 201 206 225 223 219 210 198 166 174 203 213 215 217 222 227 225 225 220 220 214 211 209 201 191 186 176 159 137 114 66 35 33 45 70 130 79 48 27 47 21 29 26 20 12 13 19 37 53 53 43 34 37 46 44 44 50 59 128 145 140 146 121 100 96 
196 210 218 136 174 220 180 95 104 84 104 111 119 125 120 124 125 122 120 119 123 107 50 43 48 43 74 111 135 106 96 131 100 129 159 135 117 146 217 209 209 212 204 183 164 193 199 198 206 194 185 201 49 30 76 41 42 56 37 44 41 47 41 42 20 23 25 68 52 35 66 65 51 149 188 198 207 213 221 223 228 229 229 227 232 217 195 212 222 237 233 211 205 191 175 179 195 232 237 231 227 228 230 227 222 215 205 203 196 187 186 172 157 133 106 58 33 47 49 150 130 57 41 34 66 33 39 34 19 13 12 20 36 47 47 41 38 39 46 45 43 48 63 131 141 140 140 111 106 98 
197 212 211 199 211 177 128 101 82 105 117 118 118 126 125 127 122 120 116 118 126 113 50 45 48 49 50 47 70 133 115 125 166 208 207 198 197 191 193 199 201 200 208 209 205 198 195 201 200 192 182 201 151 19 38 30 48 56 67 65 32 43 35 49 33 14 24 35 39 31 85 59 55 121 185 197 206 212 222 226 227 227 230 233 220 195 180 174 200 212 208 199 178 161 178 197 177 211 238 238 239 237 234 227 221 213 200 199 194 188 182 172 156 126 93 44 35 54 82 101 66 31 28 42 31 65 36 40 43 10 10 18 36 46 47 41 34 41 43 44 44 49 63 131 137 138 135 129 135 123 
197 211 210 200 163 115 117 109 117 123 120 127 126 119 126 127 120 122 123 122 127 119 58 44 48 47 45 46 40 189 183 131 198 200 196 198 198 201 195 198 195 183 181 203 208 204 196 189 184 190 200 185 204 85 42 54 38 46 46 44 41 39 61 53 50 40 16 23 27 40 47 39 79 74 166 188 200 210 219 222 224 225 227 226 211 194 200 179 185 186 183 175 179 167 182 194 177 198 224 227 238 238 231 224 217 212 203 202 194 186 174 164 145 115 78 37 44 69 55 33 44 25 27 37 62 57 33 18 17 19 20 9 34 53 43 42 32 40 43 45 43 47 66 132 135 136 137 138 139 124 
197 210 222 198 101 107 109 118 122 121 119 121 122 122 119 118 114 119 114 119 113 112 55 43 55 65 81 97 114 150 169 191 199 194 195 195 195 195 197 200 201 206 196 202 209 208 191 186 195 204 206 183 181 169 42 37 44 43 34 38 36 33 51 73 71 41 31 17 25 29 15 31 60 51 129 176 195 207 213 219 222 223 225 221 214 204 194 194 203 208 201 210 213 204 194 190 198 209 213 219 222 228 224 219 211 206 200 194 188 181 169 152 136 103 61 40 137 107 19 28 33 27 24 31 57 47 18 15 27 8 26 22 16 42 44 41 40 41 43 43 43 47 70 135 134 136 137 138 138 123 
184 206 147 107 92 107 124 125 118 128 139 137 145 144 148 153 156 157 158 163 168 178 172 179 193 204 216 221 221 162 160 184 208 203 202 205 205 206 206 204 207 208 207 201 208 208 203 198 200 200 191 186 167 198 116 37 36 31 24 52 50 41 33 47 51 30 38 16 24 20 52 53 18 56 93 160 187 199 206 212 214 217 220 215 214 214 211 211 221 233 234 236 229 214 208 210 212 214 211 209 213 217 220 213 213 208 195 185 184 176 159 142 128 97 47 94 118 61 18 29 61 29 22 47 39 43 28 19 41 11 12 29 26 34 36 40 37 41 43 43 44 47 74 135 132 133 135 136 137 124 
182 133 86 137 169 180 189 195 197 195 191 189 192 197 200 182 191 210 215 214 215 215 222 225 219 215 214 214 212 220 219 217 218 218 216 218 223 194 200 206 203 201 203 203 195 206 208 202 193 186 185 194 196 177 171 56 27 35 40 47 45 39 38 31 28 25 40 33 26 62 63 8 11 50 97 139 171 192 201 209 214 213 208 211 216 219 219 222 228 235 235 231 228 224 219 215 212 208 206 206 206 209 211 211 210 202 194 186 177 165 149 138 124 90 81 99 84 47 18 44 47 26 37 36 34 34 12 16 14 18 9 21 44 53 25 33 39 40 43 43 44 48 80 136 130 133 135 134 136 124 
133 123 161 205 210 214 216 215 207 197 188 183 183 183 183 164 192 198 200 201 201 196 207 211 211 211 211 213 213 213 214 216 218 220 221 219 224 184 193 198 193 195 195 192 187 197 210 207 192 186 197 198 188 171 172 94 52 48 52 42 53 55 41 54 55 28 32 47 33 33 10 13 20 20 13 113 156 185 201 211 212 205 197 205 204 202 200 199 200 202 205 207 201 195 198 200 204 206 204 202 199 201 201 203 204 197 191 185 171 157 145 137 127 71 82 88 36 24 23 50 22 26 32 18 7 6 17 12 9 9 12 16 31 37 50 26 41 41 42 43 44 47 85 134 128 131 132 133 135 123 
173 201 188 179 177 172 168 160 146 177 190 182 182 183 187 180 205 201 195 195 198 196 212 210 207 213 209 211 211 219 220 220 218 219 220 219 224 179 189 197 200 185 170 212 196 200 207 208 203 191 188 186 185 175 148 96 43 56 34 48 54 77 37 52 59 33 21 16 28 20 12 17 14 14 7 67 152 175 201 214 217 204 189 164 164 163 170 180 180 189 189 183 198 192 179 175 168 163 174 180 187 191 194 197 207 202 192 181 166 152 145 142 125 37 6 35 42 35 23 33 28 42 34 27 38 13 9 12 18 38 14 17 25 40 59 43 46 43 41 43 45 48 89 134 127 129 130 129 132 120 
184 177 138 141 141 140 148 148 139 178 189 184 183 185 182 160 185 182 175 181 171 166 195 188 196 195 191 191 195 196 202 204 218 218 220 220 222 185 207 213 199 145 149 173 172 204 196 200 206 196 200 200 177 147 144 100 54 69 33 58 54 54 24 32 33 28 29 30 39 42 14 18 12 22 15 21 134 171 199 218 229 223 202 156 110 181 221 240 226 255 253 227 255 250 198 242 194 182 136 129 135 184 199 207 214 207 194 177 162 158 152 147 102 12 11 24 73 26 22 39 47 34 29 7 23 9 15 23 20 54 19 33 36 30 23 34 37 43 42 41 45 47 94 133 127 128 127 127 131 120 
182 181 145 151 153 154 156 159 152 182 189 184 183 187 175 142 169 170 174 176 164 175 200 195 189 185 180 177 177 176 180 182 220 217 219 219 219 178 196 199 188 168 176 134 133 194 187 160 210 202 208 206 161 153 127 63 43 43 42 53 72 33 46 55 31 23 45 39 44 80 28 11 25 50 39 18 91 166 188 214 231 231 224 203 141 133 181 204 203 218 211 187 213 206 163 178 156 152 121 130 160 199 214 217 219 203 191 170 164 162 154 139 61 18 19 9 32 20 17 26 57 59 32 25 21 41 30 37 50 22 23 20 33 33 23 8 19 41 44 45 45 47 99 132 127 127 127 126 129 117 
179 185 148 154 153 154 156 158 151 184 188 184 183 186 174 183 208 206 207 199 191 185 200 206 205 207 220 222 221 220 219 219 217 219 218 220 218 173 173 160 151 131 185 173 181 207 200 120 192 204 204 186 164 152 71 46 40 21 37 51 48 58 72 34 31 61 54 16 27 37 46 21 18 11 31 18 54 155 180 206 225 226 222 197 179 171 168 170 177 169 165 169 170 179 166 151 157 157 164 174 198 210 216 218 215 201 186 170 169 162 148 108 33 16 15 16 11 30 17 17 38 52 63 44 22 52 32 10 43 29 35 49 18 44 20 3 22 41 39 43 46 50 104 130 126 127 127 127 129 118 
176 185 145 150 150 146 146 150 149 189 190 183 183 187 169 185 192 186 186 182 177 182 203 198 197 196 197 200 204 210 214 216 216 217 219 221 214 155 171 155 155 116 175 198 198 188 173 120 147 203 196 199 149 86 55 41 34 44 41 57 64 78 57 31 37 37 21 28 26 19 28 24 12 20 23 33 21 123 180 196 215 216 212 202 184 188 192 193 196 196 198 200 199 196 192 191 187 186 179 182 193 200 205 210 207 196 186 175 172 157 133 53 30 13 12 15 30 18 20 19 20 43 67 28 41 15 20 8 11 14 24 31 25 37 10 10 30 46 45 40 43 50 110 130 126 126 126 125 128 117 
173 187 147 161 167 174 182 196 197 196 192 185 184 188 167 191 193 190 191 191 189 195 213 210 211 208 206 207 212 213 215 217 219 218 216 222 207 102 155 163 155 144 150 146 132 129 122 121 115 167 173 117 82 75 57 50 44 56 40 51 69 38 22 34 29 19 24 19 60 34 41 14 21 13 17 20 24 64 166 189 208 209 206 203 195 194 196 200 203 203 206 206 208 206 205 203 197 194 188 186 186 190 197 203 204 193 184 179 169 151 68 47 62 18 29 45 31 36 25 23 19 23 35 17 31 32 6 14 10 7 16 39 36 24 21 19 33 43 46 42 43 53 114 128 125 127 125 125 128 115 
166 185 155 200 199 204 200 211 211 198 193 187 184 185 152 170 179 175 171 187 192 193 213 193 194 186 209 207 201 199 201 202 193 209 218 222 201 111 163 158 166 191 158 134 125 120 116 119 105 126 113 90 77 52 50 42 53 44 49 46 33 18 24 23 18 18 38 27 12 33 42 11 16 27 30 30 24 28 102 181 197 205 203 208 204 202 203 206 207 210 205 206 212 212 202 207 202 197 193 194 188 189 194 204 201 195 183 174 159 81 43 115 77 11 29 47 36 24 34 26 9 5 9 11 13 22 20 17 11 14 8 46 44 30 36 36 33 42 40 41 43 53 116 127 124 124 124 125 128 117 
162 187 151 197 196 201 196 179 175 195 192 186 184 187 134 154 162 164 156 163 172 193 214 198 191 184 206 207 195 189 193 197 179 202 217 221 199 152 178 175 178 186 156 144 128 140 152 165 167 141 78 64 42 67 72 28 27 43 31 50 51 45 28 21 23 10 32 38 37 32 11 13 10 25 21 43 23 30 37 145 174 194 199 204 208 207 207 211 215 220 220 222 223 218 213 212 208 206 199 197 195 194 196 199 193 185 177 146 73 71 114 124 43 13 17 34 38 36 39 17 5 11 7 23 15 8 14 21 26 22 26 35 20 18 33 37 45 33 38 42 42 56 119 124 122 121 122 126 127 119 
158 189 148 194 200 193 173 127 116 193 189 184 185 181 139 167 166 167 170 186 185 194 210 191 189 184 211 197 198 190 199 188 174 193 215 218 183 155 164 169 165 181 171 174 201 206 198 212 178 95 67 42 62 63 36 29 27 28 28 29 35 64 40 26 24 55 42 34 58 23 16 14 15 21 16 18 20 22 18 126 169 162 183 196 201 204 210 213 218 224 230 229 228 222 213 208 207 206 201 192 188 189 194 189 184 162 115 70 103 168 120 89 44 11 13 17 43 63 18 12 10 8 8 28 42 12 8 25 53 42 38 19 4 15 29 31 31 38 37 38 43 56 117 123 123 121 125 124 125 118 
149 191 148 193 193 191 207 130 118 194 188 183 185 181 139 167 170 174 179 193 190 199 214 209 206 205 213 207 207 203 209 203 194 201 213 219 177 159 167 172 186 196 188 173 197 184 151 165 89 40 88 36 79 33 23 33 34 25 20 19 25 18 41 50 34 54 27 33 37 16 15 12 11 11 16 27 23 20 9 105 189 182 166 171 188 198 203 211 212 219 225 227 223 218 204 202 204 199 190 184 179 182 176 152 118 88 101 152 176 172 123 112 61 22 13 19 55 41 19 16 14 9 8 40 40 9 9 20 43 26 30 25 7 16 36 32 30 36 42 38 41 59 116 117 120 123 123 122 125 118 
144 194 147 188 192 199 201 161 137 195 187 183 184 176 157 184 180 183 182 179 180 186 200 203 201 201 203 205 210 207 206 209 213 216 212 217 192 174 181 171 181 170 161 153 157 140 145 147 89 54 71 38 54 46 58 60 40 27 38 42 27 21 14 11 14 23 36 35 39 37 30 10 12 12 15 28 29 80 74 98 179 194 197 181 168 179 189 201 202 205 208 206 207 208 203 199 193 189 186 174 155 131 107 96 114 156 180 179 175 152 133 116 49 37 10 19 45 55 36 21 15 31 29 21 7 5 12 12 5 7 7 8 14 20 34 35 40 40 31 32 46 54 87 109 107 108 118 123 122 117 
139 193 147 185 190 199 203 206 201 193 185 182 186 167 147 171 169 174 179 179 169 183 197 199 199 202 202 201 206 203 200 202 205 211 212 220 172 143 182 163 175 176 185 171 173 189 164 142 85 54 59 31 40 50 45 43 30 28 34 38 24 20 18 12 8 39 51 39 31 43 69 30 15 11 17 47 105 104 67 95 171 188 196 203 195 174 170 178 181 185 190 189 187 187 185 179 167 156 135 119 115 121 140 158 170 176 178 180 180 155 125 90 44 35 10 15 37 33 21 17 21 53 37 8 7 7 13 17 11 5 10 13 16 21 23 53 52 50 55 35 42 70 99 113 125 120 110 114 124 115 
130 194 148 184 195 189 200 201 198 192 187 181 184 165 170 191 188 188 189 191 182 198 208 206 208 212 211 212 213 214 215 215 213 212 210 223 162 151 188 183 182 187 148 176 146 145 131 101 33 76 53 33 43 30 19 36 43 26 28 19 31 42 14 14 13 36 48 48 32 28 31 36 24 16 35 76 96 58 74 109 162 186 197 202 203 197 179 165 164 166 163 163 162 151 150 148 142 142 149 165 175 174 164 152 161 179 182 178 175 168 119 51 38 30 16 26 19 11 13 10 22 16 10 11 8 12 22 24 12 7 13 12 24 42 26 27 36 28 35 36 39 77 108 99 120 124 116 96 124 114 
125 196 148 179 195 195 197 205 203 191 183 179 181 157 171 185 181 182 179 178 178 188 199 201 204 198 200 202 205 206 207 206 210 212 211 220 171 133 169 184 167 173 158 167 152 160 175 84 37 109 43 36 27 24 24 42 30 30 39 30 54 67 15 11 22 17 31 9 19 24 32 32 18 28 55 65 63 79 92 132 161 184 198 203 204 201 198 184 171 172 180 186 194 198 197 197 196 197 192 184 166 156 157 169 175 182 185 180 166 148 101 45 24 23 31 39 10 9 8 18 36 24 13 12 14 15 26 33 4 9 9 13 18 15 14 16 27 27 16 24 43 58 94 113 112 122 108 93 122 111 
120 194 150 176 197 200 204 204 200 190 180 175 180 145 159 169 166 171 174 171 168 189 191 191 197 198 193 194 199 198 201 200 210 212 210 220 151 138 188 183 173 168 153 111 128 114 115 59 36 30 28 33 29 28 27 45 35 22 24 27 19 15 23 49 43 24 17 13 15 20 23 53 9 28 79 114 90 102 113 148 169 178 190 202 207 209 202 197 191 183 181 181 183 189 191 190 185 181 179 168 164 171 178 183 183 186 188 176 156 144 103 40 30 38 46 36 17 12 13 13 17 19 14 8 17 21 33 35 15 43 27 20 23 13 11 12 18 23 24 28 35 61 85 97 104 121 100 105 120 109 
111 193 153 172 198 196 201 208 201 188 181 176 171 148 180 172 165 172 168 164 164 182 190 192 188 191 194 199 204 201 210 211 210 211 210 215 177 201 214 192 176 164 123 45 35 74 70 32 23 15 22 41 38 31 21 49 60 21 20 25 24 17 46 65 23 21 21 24 28 22 9 19 25 73 136 143 107 157 151 157 180 175 186 197 203 208 206 201 196 190 193 197 197 195 192 190 191 194 194 184 184 181 185 189 192 184 177 171 156 149 90 26 39 32 33 37 30 20 8 11 21 47 26 14 23 26 24 22 24 28 30 24 23 22 22 13 17 27 24 22 32 84 119 91 101 107 105 118 118 111 
105 192 156 165 197 196 201 206 199 186 180 176 171 147 178 179 182 181 172 173 179 195 200 199 197 196 203 209 208 209 208 209 208 208 210 214 175 154 98 135 150 40 15 25 35 39 58 38 24 28 21 38 42 25 29 43 79 26 20 24 27 28 29 37 35 13 13 25 45 73 67 23 31 110 133 156 104 145 171 167 182 178 182 191 200 204 206 204 201 193 186 193 201 205 206 208 206 204 198 186 175 181 191 196 192 184 178 166 147 137 70 21 24 32 23 27 46 26 23 14 21 39 24 24 32 36 16 10 12 28 33 33 30 20 33 30 50 41 12 22 48 77 109 101 82 96 113 116 116 111 
103 189 160 161 199 199 203 206 194 182 177 176 166 146 180 176 176 175 177 176 170 188 196 196 197 201 200 202 203 205 206 207 208 208 207 220 97 60 116 184 76 32 59 81 98 81 70 38 33 36 42 43 48 36 48 25 31 40 30 15 33 43 46 38 31 23 25 43 43 47 46 17 45 114 147 145 114 153 185 182 186 183 185 185 192 200 205 204 202 197 193 191 189 192 194 196 194 191 188 184 182 186 193 195 190 180 164 153 147 113 41 22 44 44 22 29 34 48 56 45 32 29 13 22 15 16 17 12 10 17 29 24 32 29 17 24 27 31 21 29 38 64 100 92 81 113 118 114 116 109 
96 182 164 154 180 169 163 156 173 178 175 175 160 145 178 174 166 160 167 164 169 189 191 192 188 187 189 192 201 204 203 204 206 208 208 212 144 196 221 164 62 44 99 113 112 131 82 33 49 58 55 40 39 37 38 33 28 27 26 21 34 27 38 19 12 13 13 35 40 26 26 53 197 199 171 168 121 173 195 196 189 184 188 188 190 195 198 201 201 196 192 194 192 192 192 194 194 191 191 190 190 193 197 194 183 165 159 158 144 46 29 31 38 70 46 27 40 51 70 60 45 52 24 9 17 18 9 12 17 25 21 20 25 44 23 11 10 28 40 44 46 58 60 66 93 109 112 114 117 107 
86 171 171 135 130 128 131 140 167 172 167 172 152 156 180 178 176 170 171 166 167 181 184 188 192 196 199 200 202 203 213 218 208 207 209 205 174 174 104 36 73 53 69 91 48 23 27 49 61 65 43 18 22 42 33 27 42 39 30 49 47 22 16 25 26 16 20 23 44 50 25 44 156 191 143 183 120 171 197 199 191 186 192 189 188 193 200 202 202 200 195 193 192 190 188 190 189 188 189 190 194 198 197 189 171 160 166 145 68 33 35 28 47 120 55 44 65 75 74 47 28 31 24 12 16 31 9 9 16 38 40 22 19 18 25 21 10 19 36 41 49 63 42 85 81 76 85 100 110 109 
88 163 173 132 129 132 136 149 170 169 164 172 134 142 153 143 136 133 129 124 123 133 134 128 148 183 181 184 181 190 134 71 149 194 189 197 144 66 57 39 46 78 61 86 47 42 42 35 46 34 28 21 15 34 32 21 20 24 24 43 55 41 24 26 33 22 26 31 34 42 22 7 23 58 137 219 152 138 216 197 190 187 196 198 189 191 195 201 204 208 204 197 191 186 181 181 183 187 192 199 204 203 199 179 158 166 177 122 49 61 51 25 90 115 85 82 115 126 134 61 28 20 14 13 9 16 16 12 11 21 31 29 19 26 32 21 15 22 27 25 43 56 54 99 95 79 58 70 105 99 
82 158 175 131 124 125 126 137 152 168 166 170 100 105 117 113 115 119 120 119 127 135 136 127 132 179 176 177 177 186 74 94 182 183 183 186 83 69 93 53 58 75 46 62 69 30 28 26 37 27 24 26 34 45 29 26 23 15 25 45 25 26 24 15 14 26 33 67 37 38 19 23 34 58 24 90 189 124 185 204 185 185 201 206 197 196 194 196 205 207 205 203 200 199 198 197 198 195 195 201 204 199 185 161 166 183 187 152 75 44 33 44 86 78 117 60 58 131 197 70 22 22 16 14 7 14 15 10 9 12 20 21 18 18 14 13 23 32 35 54 58 57 80 81 98 103 77 48 88 89 
80 152 177 130 121 121 123 131 128 133 149 168 96 117 123 124 123 122 122 124 131 134 133 127 144 185 178 179 181 183 188 196 186 183 192 156 64 68 65 55 59 46 37 66 95 67 63 54 26 33 35 46 60 37 32 36 27 30 43 45 30 26 25 22 24 21 26 36 55 43 58 37 38 97 76 38 102 115 134 157 169 188 208 211 204 200 201 199 206 214 208 207 206 209 211 208 204 205 197 200 206 201 174 162 184 196 187 178 119 63 37 83 150 145 75 38 54 66 133 68 41 24 11 13 12 33 28 18 13 13 10 12 24 24 15 16 20 32 35 47 58 63 71 77 75 61 53 75 102 90 
79 135 172 126 113 114 119 123 124 119 117 133 103 112 115 114 115 116 115 122 125 125 124 119 133 179 177 176 175 177 177 176 175 176 183 147 60 82 92 64 39 35 34 53 65 84 87 88 56 42 44 33 47 32 37 33 24 32 44 27 29 21 21 25 25 15 46 90 45 53 35 51 52 47 49 79 122 104 111 149 162 157 199 206 196 192 201 200 198 205 202 201 203 204 206 205 201 195 183 191 201 186 161 164 185 193 188 170 119 130 137 122 136 142 85 67 36 39 36 42 42 20 16 16 13 27 26 29 21 19 21 18 20 39 18 14 20 28 55 52 44 57 33 45 57 33 51 92 102 88 
