P2
150 65
255
103 105 104 105 104 105 105 105 105 104 104 105 106 105 105 105 107 107 107 107 107 108 108 108 108 108 104 107 108 107 108 108 108 107 107 109 107 108 109 107 108 109 110 110 110 110 110 111 110 111 110 111 112 111 112 112 112 112 112 112 113 113 112 114 114 114 114 115 115 115 115 116 117 117 116 115 115 115 115 115 114 113 115 114 111 113 112 109 106 96 87 111 105 104 105 103 79 94 121 116 118 117 116 117 116 115 115 115 115 114 114 114 115 115 115 116 106 65 69 123 118 120 122 123 124 125 126 127 129 131 131 133 135 137 137 138 140 139 141 145 104 55 135 144 141 140 140 140 141 135 
104 107 106 106 107 108 107 107 107 107 108 107 108 108 107 109 109 109 108 109 109 108 109 109 109 110 107 108 109 110 110 109 109 110 110 110 111 111 112 112 112 112 112 111 112 112 113 114 114 114 112 114 115 115 115 116 116 116 116 116 117 117 116 117 119 119 119 119 120 120 121 120 120 120 119 118 117 116 117 117 116 114 115 115 110 111 112 108 103 107 81 83 102 106 105 106 84 100 124 121 120 121 118 118 119 118 119 118 118 118 116 117 118 119 119 120 108 68 77 128 123 125 126 128 129 131 132 134 135 137 138 140 142 143 143 144 146 147 147 151 107 60 143 151 149 148 147 147 146 141 
106 108 107 108 109 108 108 108 108 109 109 108 108 109 109 110 107 110 110 109 109 110 110 109 109 109 108 110 110 110 110 110 112 112 111 111 111 113 113 113 113 114 114 114 114 114 114 116 115 115 115 116 117 117 118 117 118 118 119 120 121 119 120 121 121 121 121 121 121 122 122 122 121 121 119 120 118 117 118 117 116 116 115 115 113 110 113 109 107 111 102 87 82 109 106 107 84 101 125 121 122 123 122 121 121 120 120 120 120 119 118 119 120 121 121 122 109 72 85 129 127 129 129 131 134 135 137 139 139 142 143 144 147 147 149 151 152 153 152 157 110 66 150 156 154 154 155 155 152 144 
108 109 107 108 110 110 109 109 109 108 109 110 110 111 111 110 111 111 110 111 111 112 110 110 111 111 110 111 110 111 112 113 114 112 113 113 113 114 114 115 116 115 114 115 117 115 115 118 113 115 119 118 118 118 120 119 120 122 121 122 123 123 123 124 122 122 122 123 122 121 122 122 121 121 120 119 118 119 118 118 118 117 116 116 115 114 114 111 105 114 110 113 96 87 110 111 85 103 127 123 123 123 124 123 122 122 122 122 122 122 121 121 122 122 122 124 113 74 88 132 129 132 134 136 137 138 140 143 143 145 147 149 151 153 155 156 156 157 158 163 113 67 158 162 160 160 160 162 158 150 
108 111 110 110 110 111 111 111 111 111 112 112 110 111 111 110 112 112 112 112 113 112 113 114 114 114 112 113 113 114 114 113 114 115 115 115 115 115 116 116 117 116 115 117 118 118 118 119 114 117 120 120 120 120 121 121 122 123 123 124 124 124 123 124 122 123 124 122 122 123 122 122 122 122 120 120 119 120 120 119 119 117 116 115 117 116 112 113 108 109 109 107 112 99 82 102 91 104 128 125 125 125 126 126 126 126 124 123 123 124 124 123 123 123 124 126 114 71 88 135 132 135 137 139 140 142 143 145 146 149 151 153 154 156 158 159 161 162 162 169 114 71 166 168 167 167 167 168 165 154 
111 112 111 110 111 112 112 111 111 111 111 112 113 114 114 113 114 113 113 114 114 114 115 116 115 115 113 115 114 114 114 115 115 117 116 116 117 117 117 117 118 118 118 118 118 118 119 120 120 121 122 123 122 122 123 123 123 124 125 125 124 123 125 125 123 124 123 124 123 123 124 123 123 122 123 122 120 120 122 120 120 119 118 119 119 118 116 114 117 115 113 114 112 114 108 80 78 110 131 127 127 128 128 127 128 126 126 126 127 125 125 125 124 126 126 128 117 68 87 138 134 138 140 141 144 145 147 149 150 152 154 157 158 160 161 162 163 165 166 172 113 85 171 171 171 171 171 173 170 161 
110 113 113 112 113 114 112 114 113 112 111 113 114 114 115 115 115 113 115 115 115 116 115 116 116 115 115 116 117 116 116 117 117 117 117 118 118 118 118 118 118 119 119 119 121 122 120 121 123 122 123 123 123 124 124 125 124 125 125 125 125 125 125 126 126 125 124 125 126 125 124 125 124 124 124 124 123 123 123 122 122 122 120 121 120 121 118 117 117 119 117 117 117 115 116 114 70 103 138 128 130 131 131 130 130 128 128 128 128 127 127 127 127 127 128 132 120 63 88 144 137 140 140 141 141 140 140 148 151 153 156 157 160 163 164 166 169 171 172 178 110 66 176 172 174 173 173 174 174 161 
110 113 113 113 113 114 114 114 113 113 114 114 115 115 115 116 116 114 116 116 116 115 117 118 117 117 115 118 117 117 116 118 118 118 119 118 119 120 121 121 119 119 120 121 121 123 123 122 122 123 124 123 124 126 125 124 125 126 122 123 127 127 126 127 125 126 125 126 126 126 126 127 125 124 125 126 125 124 125 124 124 123 123 122 122 121 121 121 118 117 119 119 117 118 118 118 93 80 125 135 130 133 132 132 132 131 131 132 131 130 130 129 131 131 128 128 119 93 107 126 119 115 110 106 99 93 90 91 90 91 83 108 123 125 129 134 140 146 151 158 136 123 170 171 175 177 179 181 183 176 
112 115 114 115 114 113 114 114 115 116 116 117 117 116 116 118 116 116 117 117 119 118 117 118 118 118 116 118 117 118 119 120 119 120 121 121 121 121 121 122 122 121 122 123 123 124 124 124 124 125 125 126 126 125 126 127 127 127 126 126 127 128 128 127 130 129 127 128 127 127 128 128 128 128 129 128 128 127 121 126 126 124 125 124 125 123 123 123 122 119 120 121 120 119 119 120 93 110 101 127 139 133 133 134 134 134 134 134 134 135 135 134 129 126 116 110 105 92 78 73 70 65 61 60 59 60 62 64 70 72 75 87 90 89 90 91 91 92 94 95 101 105 102 109 117 122 128 134 141 148 
114 115 115 115 116 116 115 116 118 116 117 118 119 118 118 118 118 118 118 119 119 119 118 119 119 119 118 120 120 120 119 121 121 121 121 122 123 123 122 123 123 125 124 124 125 125 125 127 127 127 128 127 129 128 127 128 130 129 129 129 129 131 129 131 121 119 131 129 130 130 129 129 130 123 128 130 127 122 124 128 127 128 128 126 126 125 125 124 124 123 121 122 123 123 120 124 94 116 137 104 123 140 137 136 136 135 137 136 136 137 135 128 121 121 120 115 113 67 58 57 62 77 82 90 97 102 107 109 108 106 107 103 101 100 100 98 96 95 93 89 81 71 71 73 70 66 63 59 58 51 
115 116 116 116 116 117 116 117 117 116 116 116 117 117 119 119 120 120 120 121 122 120 122 122 121 121 118 123 121 122 120 121 122 123 122 122 123 124 125 125 125 125 126 127 127 126 127 129 129 129 129 129 129 129 130 129 130 130 131 131 124 122 130 131 112 121 132 129 131 131 131 131 129 125 131 128 122 128 131 130 130 131 130 130 128 128 128 126 127 126 123 121 124 125 122 110 94 115 143 140 115 112 138 142 137 138 138 138 136 133 125 122 123 122 124 124 111 70 67 55 109 112 112 112 111 111 111 111 110 112 111 112 111 110 111 111 110 109 107 106 79 58 62 55 58 63 66 69 78 78 
114 118 117 116 118 118 118 119 119 119 119 116 119 120 120 120 121 120 121 121 122 122 122 124 123 122 120 122 122 122 123 124 123 123 125 125 124 125 127 128 127 127 127 128 128 128 128 130 130 130 130 130 130 130 132 131 131 131 132 133 129 117 131 130 125 133 132 131 132 131 131 131 132 133 128 127 132 132 132 132 131 131 132 132 130 130 132 131 129 130 130 127 123 121 123 123 98 122 145 138 142 130 109 129 146 138 136 135 132 125 123 125 122 123 123 129 115 74 64 76 118 108 109 110 110 110 110 110 109 109 108 108 108 106 106 106 105 103 105 106 76 60 53 72 97 98 101 101 101 99 
116 118 118 119 119 120 120 119 119 120 121 121 121 121 121 121 122 121 122 123 123 123 123 122 123 124 121 124 124 123 124 124 125 125 126 127 127 128 127 128 130 128 126 128 129 129 130 131 130 131 133 132 132 132 133 132 132 133 133 133 134 135 135 134 127 134 134 133 133 135 133 134 134 126 129 134 133 134 132 130 134 133 133 130 130 133 122 109 111 116 130 142 133 125 108 108 86 112 143 143 140 145 141 115 119 141 137 131 129 126 125 126 124 123 124 127 121 75 59 99 113 110 112 112 112 112 111 111 109 108 108 109 109 106 106 106 104 102 104 108 73 64 53 97 99 98 97 96 96 94 
117 118 119 120 120 120 121 121 120 120 122 122 121 121 123 124 124 123 124 124 124 124 125 125 125 125 123 125 125 124 125 126 126 126 128 128 128 128 129 128 129 129 129 130 130 131 132 132 131 132 133 132 133 133 133 134 134 135 134 134 135 134 135 134 131 136 134 135 135 136 137 134 126 132 137 135 137 135 138 143 121 114 122 124 115 111 106 104 109 121 121 122 108 97 86 82 70 72 83 99 126 138 145 150 125 111 132 136 130 129 127 125 125 125 125 128 122 74 92 117 111 113 112 112 112 112 111 111 110 110 110 108 109 106 106 105 104 102 102 105 75 56 70 101 97 99 98 97 99 95 
119 121 121 121 120 122 122 122 122 121 122 123 123 124 123 124 125 124 124 125 125 125 126 127 127 128 126 126 126 126 127 129 127 128 130 129 129 129 130 131 131 131 130 131 131 133 133 133 133 134 135 135 134 133 135 136 136 135 136 136 137 137 135 134 137 138 137 137 136 137 133 127 136 136 138 136 126 132 150 137 85 81 91 100 103 134 147 141 122 110 103 92 91 87 82 66 66 68 62 62 62 68 84 102 122 119 101 115 132 133 129 129 128 128 128 129 120 75 102 125 114 115 113 113 113 112 112 113 112 111 111 110 109 108 107 105 105 104 101 102 78 70 100 99 99 99 99 99 98 95 
119 122 122 122 122 121 122 123 124 124 124 124 125 126 124 127 126 126 126 125 127 128 127 128 128 129 126 127 126 128 128 128 128 129 129 129 130 131 131 131 131 131 131 131 132 133 133 133 134 134 136 136 135 136 136 137 136 136 137 137 137 137 138 138 138 138 138 138 140 133 129 138 137 142 135 111 130 151 141 111 91 89 82 101 130 118 111 108 106 107 114 115 112 114 115 106 94 79 78 67 56 53 70 57 57 89 103 96 96 111 126 131 130 130 129 131 120 74 102 130 120 117 115 115 114 113 113 113 114 111 111 110 109 109 109 107 106 104 103 105 77 75 105 101 101 101 99 99 99 95 
119 122 122 123 123 124 123 125 124 126 126 124 126 126 125 126 126 126 127 127 127 128 129 128 129 129 128 128 128 129 129 129 129 129 129 131 130 131 132 132 132 133 131 133 133 133 134 135 136 136 135 137 137 137 137 138 138 137 137 137 138 138 138 138 138 139 138 138 131 131 141 140 143 125 96 123 148 130 112 105 108 116 105 119 119 108 106 116 120 125 127 133 128 113 130 118 106 121 131 118 88 75 76 66 61 79 72 83 89 86 87 101 116 124 127 130 120 75 103 129 125 122 117 115 114 114 114 114 113 111 110 110 110 110 108 107 107 105 104 105 73 73 105 101 101 101 99 99 100 95 
122 124 123 125 125 125 124 125 126 126 126 125 125 126 127 126 128 127 128 128 129 129 130 130 129 129 128 129 130 130 129 129 130 130 130 130 131 131 131 132 132 132 133 134 135 135 135 136 136 137 138 139 139 139 138 140 139 139 138 139 140 140 140 139 140 140 141 136 135 142 138 141 130 96 126 147 135 131 137 139 156 154 155 152 151 152 149 158 159 160 164 152 141 130 116 137 140 131 119 103 94 102 96 87 74 54 60 78 53 76 101 86 82 90 102 117 114 71 104 130 126 126 120 117 116 115 115 114 114 112 111 111 111 110 108 108 107 105 105 107 72 71 106 99 100 100 98 97 99 94 
121 124 124 124 124 125 126 126 126 126 126 128 126 127 127 127 129 128 128 129 129 130 129 130 130 130 129 130 130 130 130 131 131 132 132 132 131 131 133 133 133 133 135 136 135 136 136 137 138 137 137 138 139 139 139 140 139 139 139 139 141 141 140 141 141 141 141 142 141 135 137 132 106 133 154 147 129 137 165 179 191 201 198 195 192 190 191 196 200 190 185 169 147 143 135 114 147 163 158 131 110 106 97 78 75 69 72 92 78 56 91 107 101 94 88 87 85 61 103 128 124 125 125 120 117 116 116 114 114 113 112 112 111 110 109 108 107 105 105 108 71 70 106 100 101 100 97 98 98 94 
122 125 126 126 127 126 127 127 126 127 127 128 129 128 127 129 129 129 129 130 130 131 131 131 131 131 130 131 131 132 132 131 132 132 132 132 133 133 134 134 135 135 135 137 137 138 138 138 139 138 138 139 139 139 139 139 140 141 140 140 141 141 141 142 141 142 141 142 141 141 142 114 119 158 166 148 151 170 184 202 214 217 215 214 214 215 218 219 223 222 187 194 184 156 167 140 162 189 181 168 148 130 126 115 97 81 72 76 98 81 64 100 105 104 105 104 81 44 82 121 122 123 125 123 121 119 117 115 113 113 112 112 112 110 109 108 105 104 104 106 68 71 102 99 103 102 99 94 86 79 
124 126 125 126 127 127 127 128 128 128 130 129 129 129 128 129 129 130 130 130 131 131 131 130 133 132 131 131 131 132 133 132 133 133 132 132 134 134 135 136 135 136 136 138 137 137 138 138 139 139 139 139 139 140 140 140 141 141 140 141 142 142 144 143 142 142 143 143 143 146 125 109 153 178 147 155 178 184 195 208 214 217 223 224 223 224 224 226 224 223 204 189 200 183 186 157 164 199 185 181 173 162 141 134 126 106 90 84 127 127 75 81 108 105 104 106 88 57 77 91 111 127 125 124 123 121 118 117 116 114 113 112 112 110 110 108 104 103 102 105 66 66 100 98 94 83 68 63 55 47 
125 128 127 126 127 128 129 129 127 128 129 129 130 130 129 130 129 129 130 131 131 131 131 131 132 133 131 132 132 133 132 133 133 134 134 135 134 135 136 136 137 138 137 137 137 137 139 139 140 140 140 140 141 141 141 141 142 142 143 142 142 143 143 143 143 143 145 144 143 143 99 126 187 171 155 170 179 189 202 210 216 219 224 223 224 226 226 227 228 224 210 195 199 198 192 141 182 205 195 189 180 168 160 149 139 119 96 83 101 142 96 72 101 109 106 107 86 56 90 105 90 100 125 126 121 121 120 118 117 113 113 112 111 110 111 108 101 94 89 89 78 87 104 72 77 70 95 114 131 131 
125 127 127 128 125 123 126 129 128 128 130 130 132 132 131 131 131 130 132 133 132 133 134 134 133 134 134 134 134 133 134 134 134 135 135 136 136 137 137 137 138 138 136 138 139 139 140 139 139 141 140 140 141 141 141 140 141 143 144 144 144 143 144 145 144 144 144 144 146 137 110 149 188 176 172 178 181 191 207 213 216 219 223 226 224 227 229 228 231 231 220 219 203 205 158 154 206 204 200 196 189 173 165 156 147 129 103 97 97 130 110 64 78 112 106 107 87 60 91 111 116 109 101 120 129 125 124 124 122 120 119 113 112 110 110 107 96 96 95 99 120 121 104 46 72 112 128 136 165 170 
121 120 121 130 124 121 125 130 130 132 131 130 132 132 132 131 131 131 132 131 132 134 134 134 135 135 133 135 135 134 134 135 135 136 136 136 138 138 139 139 138 138 139 139 138 139 140 140 141 140 140 141 142 142 142 142 142 143 143 143 144 145 146 144 145 145 146 145 148 129 125 185 198 174 173 178 186 192 205 216 219 219 220 223 224 227 228 228 231 235 228 224 217 194 169 203 212 202 197 193 187 184 171 158 147 131 115 100 91 136 138 83 63 107 111 110 89 62 80 80 77 85 87 81 94 108 110 108 100 97 98 111 115 113 113 107 95 100 98 105 115 110 76 64 79 92 108 134 144 134 
120 122 122 126 126 124 127 131 125 123 129 132 133 132 131 132 133 133 134 133 134 135 134 134 136 135 132 134 137 137 137 136 136 136 138 138 139 139 139 139 139 138 139 140 139 139 140 141 141 141 141 142 142 142 142 144 143 144 145 144 144 146 146 145 147 147 146 148 145 117 147 195 186 164 164 178 189 196 205 214 220 218 218 223 223 225 229 233 233 235 233 230 224 213 210 204 206 200 196 193 189 182 176 163 146 125 118 101 96 126 129 92 81 86 85 89 77 52 38 45 67 56 48 68 74 70 43 31 51 51 51 69 81 86 88 86 83 86 86 86 89 92 45 29 30 31 72 94 92 87 
127 131 131 129 128 131 132 131 133 127 123 134 132 130 132 132 133 134 132 133 135 134 135 135 136 137 134 134 136 137 136 136 137 137 138 138 138 138 139 140 139 139 141 140 141 141 141 142 142 143 142 142 143 145 145 146 145 146 146 146 146 146 147 147 147 148 147 150 139 126 150 175 185 160 161 177 188 199 207 212 217 218 219 225 225 226 229 230 228 228 227 226 221 218 212 206 200 196 195 188 186 181 175 166 142 125 117 103 84 113 116 87 89 87 79 77 47 55 68 56 58 70 74 77 79 49 36 63 74 60 61 74 69 76 80 82 83 84 84 85 85 82 92 47 37 90 83 86 87 83 
128 131 130 130 132 131 131 131 129 127 132 133 133 133 134 134 134 133 132 134 134 134 136 135 135 137 135 136 136 137 138 138 138 138 139 139 139 139 140 141 142 140 141 142 142 144 143 143 144 144 144 144 146 145 145 145 145 146 147 145 147 148 146 147 149 148 148 150 144 135 142 178 161 151 168 176 189 202 215 220 221 222 225 226 227 227 228 229 231 231 229 228 223 217 212 205 201 200 196 189 184 179 171 163 140 123 117 113 102 99 120 87 90 85 78 59 42 54 62 48 65 65 66 74 62 39 55 74 69 57 64 71 72 70 74 77 78 78 78 79 79 79 82 75 75 83 80 82 84 79 
128 130 130 132 132 132 130 128 128 131 132 133 132 134 134 135 134 135 135 136 136 137 136 137 138 138 137 139 138 139 139 138 138 139 139 140 139 139 140 140 141 141 141 142 142 143 143 143 143 143 145 145 145 145 146 147 146 146 148 145 141 147 148 148 149 149 147 145 147 143 148 150 141 150 167 172 187 206 196 194 207 214 222 226 229 230 234 238 237 238 237 236 232 228 223 213 210 206 199 194 190 177 166 164 135 121 118 115 109 97 96 94 86 78 65 43 37 49 44 59 59 66 69 72 36 43 67 74 76 55 78 79 81 82 84 86 84 86 85 84 86 89 87 90 92 89 91 89 90 88 
129 131 131 131 131 132 132 132 133 134 134 135 135 136 135 135 136 136 136 137 137 137 138 137 139 139 138 138 139 139 139 139 138 138 139 139 140 140 141 142 142 142 142 142 142 142 142 143 144 144 143 144 146 145 145 146 146 147 147 146 146 147 144 148 148 149 148 146 146 138 141 135 133 157 169 153 134 131 101 97 104 119 142 167 189 206 222 226 233 237 238 237 236 228 221 217 202 175 157 143 144 133 116 130 114 110 115 110 101 100 93 90 94 84 55 36 32 39 39 51 62 65 73 56 53 44 69 79 64 62 83 80 83 83 85 86 88 86 87 91 90 92 91 87 89 92 92 91 94 89 
129 132 130 131 133 134 135 134 134 134 135 134 136 137 137 136 136 136 137 138 138 136 139 139 139 140 138 138 138 138 140 139 140 141 141 142 141 141 142 141 142 143 143 143 144 144 145 145 145 145 145 146 145 147 147 147 146 147 148 148 147 149 147 147 148 149 149 147 144 146 138 132 133 165 168 145 98 87 106 121 125 118 103 108 128 158 171 195 212 219 221 215 212 195 170 170 142 93 77 72 84 82 65 64 58 59 96 105 93 88 101 93 108 74 56 44 29 43 49 53 47 62 62 40 65 35 78 76 55 78 80 83 83 84 83 86 88 90 91 91 89 91 89 85 87 92 91 91 94 89 
131 134 132 133 133 134 133 134 137 134 134 135 135 136 134 133 135 138 138 137 138 137 137 136 139 141 138 139 138 138 139 139 141 140 141 142 141 142 142 143 142 143 144 144 144 144 145 144 145 145 146 146 147 146 146 148 148 148 148 148 147 147 148 148 148 149 149 148 165 173 143 123 117 170 172 149 139 172 176 163 156 164 148 132 142 155 168 186 205 207 203 201 199 178 167 153 131 120 127 134 127 117 122 98 73 79 101 110 99 86 87 100 110 75 57 52 25 40 55 59 55 45 41 60 58 42 81 61 65 82 81 83 83 83 85 86 87 87 88 91 91 91 91 83 85 92 91 91 94 90 
127 127 129 133 130 131 126 131 135 134 136 136 135 136 132 132 133 139 138 138 138 139 139 138 139 141 138 138 140 139 139 140 141 141 141 140 142 142 142 143 144 144 144 144 144 145 145 146 146 146 146 146 146 146 146 146 148 147 149 149 149 148 148 149 149 148 149 145 165 201 168 110 121 173 161 156 176 164 108 158 145 97 99 165 181 174 179 176 190 219 220 208 174 151 147 154 173 134 114 92 127 126 108 144 132 99 115 119 97 80 97 112 149 75 52 60 36 38 55 51 55 35 33 70 52 56 75 52 80 78 79 82 83 85 85 85 85 86 88 91 87 88 89 80 84 90 90 91 93 90 
122 128 125 127 126 126 133 128 124 134 137 136 135 137 130 133 134 134 131 140 139 135 140 140 139 141 139 139 140 139 140 142 141 141 141 143 142 143 144 143 145 145 145 145 144 145 145 145 146 146 145 146 147 147 147 147 148 148 149 149 148 149 149 148 148 148 149 145 167 202 179 146 150 170 165 168 175 166 142 173 189 165 176 201 181 190 216 198 183 219 225 202 153 165 188 177 191 185 127 118 167 150 95 135 149 117 123 120 83 78 116 149 171 60 55 60 33 33 59 60 46 50 37 66 51 68 53 69 80 75 77 80 84 83 82 83 86 86 88 89 87 89 89 77 81 92 90 90 92 90 
123 127 128 131 127 130 133 127 133 131 132 136 138 138 135 135 130 135 133 135 135 129 140 139 139 141 139 140 141 141 141 142 141 141 142 143 142 143 144 145 143 143 144 144 144 144 145 145 146 147 147 146 147 148 148 146 148 148 149 149 148 148 149 149 147 147 147 145 154 190 180 171 151 167 178 185 182 189 189 182 194 210 215 204 202 201 206 193 190 220 224 206 159 172 185 189 187 196 198 184 168 144 142 156 145 134 136 124 85 102 130 154 145 72 76 74 64 63 66 65 52 63 40 55 52 52 58 76 73 76 77 81 81 80 84 85 84 84 84 88 86 88 89 74 80 91 90 91 91 88 
131 133 134 134 132 134 135 133 134 137 134 137 138 138 138 139 137 138 138 135 137 137 138 140 139 140 139 141 142 142 142 141 142 141 143 144 144 144 144 144 143 144 145 145 144 145 145 145 145 146 147 147 147 147 147 146 147 149 148 148 148 149 149 148 148 148 147 147 145 157 196 189 146 162 177 194 200 202 203 204 206 211 217 218 215 212 209 188 195 219 219 201 155 170 185 189 198 201 195 189 178 169 172 174 163 142 123 117 82 109 173 139 78 58 60 58 59 59 54 58 56 46 47 42 33 56 75 72 74 74 78 82 80 80 81 83 82 85 85 85 86 86 88 69 76 89 90 92 93 87 
132 136 135 135 135 135 135 136 135 136 137 137 139 139 139 139 139 140 140 140 140 141 140 140 141 141 139 142 142 142 141 141 142 142 142 143 143 144 144 144 144 145 144 145 145 145 145 146 146 147 148 148 148 147 147 148 148 149 148 149 148 148 149 147 146 147 146 147 147 141 180 185 135 156 174 192 205 210 211 214 218 220 218 216 217 213 202 186 195 214 214 188 153 163 186 201 201 194 197 196 192 188 185 182 168 142 112 105 83 114 159 82 44 52 49 49 49 47 45 53 55 41 47 28 39 72 69 72 72 73 76 79 78 81 81 82 84 84 85 84 83 84 84 64 76 91 91 89 91 89 
131 135 135 134 135 136 137 137 136 137 138 138 139 139 138 138 139 140 140 139 140 140 140 141 141 142 139 141 142 141 142 142 142 143 143 143 144 144 144 144 144 144 144 145 146 146 145 146 146 148 147 147 148 148 148 147 149 147 148 149 149 149 149 149 148 146 147 146 147 142 163 196 138 145 172 189 200 205 215 221 227 224 221 226 225 209 194 187 196 211 212 187 159 155 180 202 213 204 194 195 197 197 191 174 162 134 107 95 83 107 113 60 59 60 60 59 59 60 59 56 59 48 60 33 42 68 67 69 71 72 77 80 80 83 82 85 85 83 86 87 85 84 84 61 74 91 90 91 90 88 
131 133 134 134 135 136 135 135 137 134 135 136 137 139 139 139 140 139 140 141 140 140 140 142 143 142 140 142 142 143 143 143 141 142 143 144 144 144 145 144 144 144 145 146 146 146 146 146 146 147 147 146 146 147 148 147 149 148 148 148 149 149 148 147 147 146 145 145 145 142 160 188 141 132 169 187 192 198 210 224 228 230 230 227 210 191 184 188 204 211 209 194 170 144 157 197 220 215 207 201 201 193 181 167 151 130 107 92 83 124 103 61 65 65 65 63 63 62 60 56 55 44 60 49 47 67 66 69 70 73 76 77 81 81 81 83 81 82 83 84 86 87 84 58 72 89 86 89 89 84 
128 133 134 135 134 133 132 131 137 135 132 135 135 137 139 138 139 139 140 139 139 141 141 138 137 139 140 141 140 140 142 143 141 141 144 143 144 145 145 144 145 146 145 145 145 146 145 147 146 146 146 147 147 148 147 148 148 148 148 147 148 149 148 147 148 146 145 146 146 143 159 207 176 129 168 189 188 192 207 220 225 231 219 202 191 195 194 198 210 218 219 202 175 155 161 163 197 213 217 210 203 194 178 156 143 135 112 90 91 113 94 61 64 63 62 62 62 60 56 53 52 45 64 50 49 66 68 69 69 72 73 76 78 80 80 83 82 82 82 86 88 88 84 55 73 89 87 87 89 84 
128 135 134 135 131 134 136 138 138 137 134 140 139 134 138 139 139 140 140 136 138 136 137 137 137 138 137 138 136 139 139 140 141 139 140 141 143 145 143 143 144 145 144 145 146 146 145 145 147 146 146 147 147 148 148 148 148 147 148 149 149 149 148 148 147 146 145 145 144 132 142 166 175 133 164 192 186 192 207 215 221 217 196 202 193 174 170 180 204 220 225 198 167 153 154 160 193 191 207 214 206 192 175 147 133 145 118 89 97 125 75 61 63 62 62 62 61 57 52 54 40 52 62 47 50 66 65 67 70 72 75 77 77 80 82 82 81 82 81 83 84 87 83 52 73 92 92 89 89 86 
128 131 130 132 134 132 132 134 138 137 134 137 135 136 139 139 140 140 140 138 136 134 136 139 137 140 140 137 139 141 139 142 142 142 143 140 143 140 142 145 144 145 145 148 147 145 146 146 146 146 146 147 147 148 148 147 148 148 148 149 148 146 147 148 146 145 145 145 143 138 138 134 134 134 153 184 183 191 203 213 216 189 186 193 183 172 167 163 183 182 177 161 140 138 148 168 178 175 173 204 204 189 177 155 137 149 112 90 99 77 63 63 63 62 61 60 58 53 51 52 40 55 58 45 49 64 65 67 70 73 75 76 79 80 79 80 81 80 81 83 83 85 80 51 73 90 86 86 89 86 
131 133 136 137 137 137 135 137 137 133 135 137 139 139 139 140 140 140 140 138 140 142 143 142 143 142 140 138 143 142 143 142 144 143 142 143 141 138 138 146 143 145 144 145 146 145 145 146 146 146 146 147 147 147 148 146 147 147 147 147 147 149 149 148 147 147 144 144 142 130 135 130 129 134 144 176 180 187 197 209 193 174 193 190 184 178 182 195 196 179 173 179 169 162 155 155 159 165 161 163 196 189 175 157 150 144 107 91 96 59 63 62 61 61 62 59 55 51 52 52 49 56 59 44 49 63 64 67 69 71 71 74 76 78 78 80 82 82 83 83 83 85 79 49 75 90 86 88 89 82 
133 135 135 137 136 138 138 138 139 139 138 138 139 139 140 139 140 140 141 139 142 142 142 143 143 140 136 140 142 142 144 144 144 144 145 145 145 144 138 146 145 146 146 145 147 147 146 146 147 146 146 147 147 147 146 146 147 146 147 145 147 147 147 146 145 127 140 145 142 138 139 137 140 138 137 167 179 188 199 205 173 176 185 179 182 187 181 188 199 200 205 200 185 178 171 169 160 159 166 152 176 192 172 162 154 141 102 94 88 60 63 62 61 60 60 56 53 52 56 52 50 54 57 42 50 62 62 68 69 70 72 75 76 78 78 79 81 81 79 81 81 85 78 47 76 91 87 88 90 87 
131 134 134 135 136 137 137 138 139 138 138 138 139 140 140 140 140 140 141 139 140 143 143 142 143 143 140 142 143 142 144 143 143 144 144 145 144 145 145 146 146 146 147 146 147 147 147 147 146 146 147 146 146 147 146 146 147 146 146 146 147 145 145 144 143 137 142 144 142 143 142 142 142 141 128 154 174 181 194 202 177 182 176 151 134 125 133 150 161 167 166 157 143 135 136 133 126 139 161 163 170 193 168 152 152 151 100 95 77 59 61 61 60 58 57 53 51 53 54 52 51 56 56 39 50 60 62 67 69 71 72 75 76 76 78 80 81 80 79 79 81 82 76 48 75 88 84 88 91 83 
132 135 134 134 137 137 137 138 138 137 138 139 139 139 140 140 140 139 139 141 141 142 142 142 142 143 140 142 142 142 143 143 144 143 144 145 145 145 145 145 145 146 146 146 147 147 147 147 147 147 146 148 148 147 147 147 146 146 147 146 146 145 144 140 140 145 143 141 142 141 141 141 140 142 134 143 166 170 186 202 188 178 178 179 156 131 132 140 146 141 142 147 123 115 110 108 127 154 166 170 187 196 163 144 157 146 89 99 74 59 62 61 58 57 52 49 47 48 53 53 42 43 54 42 50 60 66 67 69 70 73 76 75 75 77 77 79 78 79 80 80 81 75 46 73 86 84 85 88 82 
132 135 134 135 137 136 136 138 138 138 137 138 139 138 139 139 140 140 140 140 140 140 142 141 142 143 139 141 142 142 143 144 143 143 144 144 145 144 144 146 145 146 147 148 148 147 147 146 147 148 147 149 148 148 148 147 148 148 148 147 145 144 144 142 143 142 141 142 142 141 140 140 139 140 139 138 150 157 174 188 191 177 182 187 181 171 162 161 165 177 181 163 142 135 128 134 154 162 153 170 191 181 151 136 158 126 96 122 62 61 53 50 49 46 44 41 43 47 54 52 53 53 44 34 55 60 64 68 68 71 72 72 76 79 79 78 79 79 78 79 79 80 72 45 73 86 85 83 84 80 
132 136 134 135 136 135 135 137 136 137 138 139 137 139 139 139 139 141 140 139 139 140 141 141 141 142 140 141 142 142 143 143 142 142 144 145 144 145 144 145 145 146 147 146 147 147 147 146 147 146 147 148 147 148 149 147 147 147 147 146 146 144 144 142 142 141 141 141 141 140 140 140 140 137 135 136 142 148 153 170 175 172 175 179 177 171 173 175 177 174 166 166 162 157 154 153 158 157 160 171 173 157 132 138 151 105 146 108 54 61 55 55 56 53 51 49 51 52 53 54 52 57 59 28 49 61 62 66 67 69 70 71 74 78 79 79 79 79 79 79 79 80 72 45 77 87 83 82 84 80 
131 135 135 134 135 135 135 136 137 137 138 138 139 138 138 139 138 139 139 139 140 140 141 142 142 143 139 141 142 142 144 143 143 143 144 144 144 144 144 144 144 145 147 145 146 146 147 147 147 147 147 148 148 148 147 147 147 147 146 145 144 142 143 142 142 142 141 140 140 140 140 140 140 137 136 132 140 153 144 149 161 169 175 169 168 177 184 181 179 172 168 168 164 166 167 159 154 161 171 161 161 138 126 156 122 129 157 76 50 61 62 57 49 50 50 47 49 49 52 51 54 56 58 30 44 63 63 66 70 69 70 74 74 75 77 78 78 78 78 81 78 81 72 43 76 86 82 81 84 82 
132 134 134 134 134 135 135 135 137 137 137 136 139 139 138 138 138 137 138 140 140 136 140 141 141 141 139 142 141 141 143 143 142 143 144 143 142 143 144 145 146 145 146 145 146 146 147 147 146 147 147 147 147 147 147 148 147 145 144 144 143 143 142 142 142 141 142 141 140 139 140 138 139 137 135 133 126 153 150 135 148 163 168 169 171 179 188 183 176 175 175 171 169 172 165 158 160 167 165 156 140 125 152 133 121 169 132 78 72 58 29 21 27 49 50 48 51 52 55 55 51 55 56 30 53 61 62 65 66 69 70 71 75 74 77 78 76 77 78 80 79 82 70 43 74 82 79 80 84 81 
132 134 134 135 134 135 136 136 136 137 137 138 138 138 138 137 138 138 139 140 139 136 140 140 140 141 139 142 140 141 142 142 144 144 143 144 143 144 144 145 145 145 146 146 146 147 147 147 147 146 147 147 147 147 146 146 146 145 144 143 142 142 141 140 142 141 140 138 139 139 138 136 137 136 134 132 120 129 165 147 130 140 157 167 173 182 181 178 186 194 199 184 174 174 158 144 159 158 146 130 122 138 132 130 175 152 131 162 160 139 99 74 56 42 41 43 48 49 47 49 50 51 38 36 59 58 62 65 67 68 70 72 76 76 77 77 77 77 78 79 79 81 68 42 74 81 78 80 82 79 
132 134 133 134 134 136 134 135 136 137 137 138 137 139 137 138 140 140 140 140 140 137 141 141 141 137 138 142 139 141 142 141 142 143 143 143 143 143 144 145 144 145 145 146 145 146 146 146 147 147 147 147 146 146 145 144 143 143 144 143 143 142 141 140 139 138 132 124 135 137 136 136 137 135 134 131 123 111 143 171 153 133 133 152 166 173 179 184 182 180 193 187 184 172 147 151 157 133 120 121 137 126 139 182 160 138 174 185 180 191 187 166 141 114 77 47 35 35 42 53 47 41 49 39 57 58 61 65 67 68 68 71 74 74 75 76 76 77 79 77 77 78 67 43 74 81 81 83 83 78 
131 133 134 135 135 135 134 135 137 137 137 137 138 137 138 139 139 139 139 141 140 134 137 139 136 133 138 137 137 139 139 133 141 142 142 143 142 143 143 143 142 144 145 145 145 146 146 145 148 146 147 147 145 145 144 143 143 142 142 142 141 140 140 140 139 138 136 134 136 136 136 136 135 136 132 127 115 104 151 170 177 175 149 136 151 160 165 172 169 173 182 172 166 156 153 153 129 118 133 143 136 160 184 165 161 175 188 185 191 176 191 189 190 181 173 156 125 93 64 48 38 50 53 40 60 62 62 64 65 67 70 70 72 75 75 75 77 77 78 76 75 79 67 43 74 80 80 79 80 76 
131 135 134 134 135 135 135 135 137 138 137 136 137 137 138 139 139 138 140 140 139 138 139 140 138 135 134 132 137 138 141 140 136 140 142 142 141 142 142 142 142 143 143 143 144 143 144 144 144 144 144 144 143 143 144 144 142 143 142 141 141 139 138 139 138 138 137 137 138 137 136 135 130 127 132 142 163 199 211 190 169 184 187 167 143 146 149 147 148 151 150 145 136 142 146 133 133 150 147 144 176 185 171 174 183 191 190 193 196 181 185 186 190 193 182 177 184 184 168 144 106 71 41 27 47 58 64 64 64 66 67 70 70 73 71 74 79 76 75 75 74 79 63 41 73 78 77 80 80 76 
131 135 134 135 135 135 135 136 137 137 137 136 137 137 137 138 139 139 139 138 140 139 140 140 140 141 137 134 137 140 140 139 136 139 141 141 141 143 142 142 142 143 141 141 143 142 142 143 143 142 143 142 141 142 142 142 141 142 141 140 140 140 138 138 137 137 136 137 137 132 129 134 152 183 208 217 220 216 209 209 194 176 181 187 175 153 152 154 155 155 158 164 164 165 159 157 156 153 157 181 182 184 187 189 195 193 194 199 186 188 194 187 185 189 192 190 186 185 184 185 187 179 152 112 72 49 47 54 62 68 70 68 69 73 74 75 76 75 74 74 74 78 62 42 75 83 80 80 81 74 
132 134 133 134 135 135 135 136 135 135 137 137 137 136 137 137 137 137 138 139 139 138 138 138 139 139 137 138 141 140 135 138 141 141 142 142 142 141 141 141 141 142 141 141 142 143 143 142 141 142 142 142 141 140 141 141 140 141 140 139 139 138 137 137 138 137 134 130 132 154 184 212 231 233 220 220 217 201 218 213 210 207 191 181 191 185 166 166 170 171 171 177 178 172 162 162 166 181 186 186 198 200 198 201 198 196 199 191 184 198 206 190 180 186 192 199 198 193 192 191 188 187 189 191 182 155 117 78 53 50 55 64 69 73 75 74 74 74 74 75 73 78 60 40 76 82 80 80 80 75 
130 133 133 132 136 135 135 135 135 136 136 135 135 137 136 137 137 138 138 137 138 138 137 137 139 139 136 137 139 138 139 140 140 139 140 141 141 140 140 141 141 141 141 140 142 143 141 142 141 140 140 140 140 140 139 139 140 139 139 139 137 138 139 135 131 131 143 173 212 232 229 229 226 220 216 222 218 209 224 223 208 213 223 211 194 194 190 176 171 179 182 179 175 173 177 185 191 193 204 217 213 212 211 204 200 201 198 184 193 200 210 202 187 193 194 198 200 200 199 199 199 196 194 191 190 192 193 184 156 119 81 58 53 60 70 76 76 73 76 75 73 76 58 40 77 79 76 79 79 75 
130 133 132 133 133 134 133 134 136 136 135 135 134 136 135 137 137 137 137 138 138 138 140 138 138 138 135 138 139 139 139 140 140 139 139 140 140 139 140 140 140 140 140 139 141 141 139 140 138 139 139 139 139 140 139 138 138 137 139 139 137 133 131 139 164 200 229 243 242 226 223 229 226 225 220 225 221 211 221 232 222 212 220 233 234 213 200 194 184 177 175 169 173 176 184 194 212 229 236 234 228 220 215 209 205 198 189 186 203 204 206 204 203 209 205 202 205 204 204 202 199 200 200 203 201 198 192 190 191 191 183 160 127 95 69 60 62 71 76 76 74 77 58 42 74 79 79 79 79 73 
130 131 132 132 132 133 131 134 134 134 134 134 135 134 134 135 135 135 135 136 136 137 137 138 137 138 135 138 138 138 139 139 139 139 140 140 139 138 140 140 140 140 140 140 139 140 139 138 138 139 138 139 139 138 138 139 139 140 136 131 136 158 191 224 242 245 241 237 233 223 226 223 221 226 225 229 224 214 217 231 231 224 219 227 235 232 235 216 195 191 188 186 192 195 218 234 238 237 234 230 225 222 215 208 196 189 186 200 218 209 205 201 207 212 215 214 211 209 207 203 201 198 199 200 200 200 203 201 196 193 190 190 190 184 165 132 96 70 59 63 71 78 57 42 76 76 79 81 80 74 
129 131 130 131 131 132 131 132 132 132 132 132 134 134 133 133 134 134 134 136 136 137 137 137 137 138 135 136 139 137 137 138 138 139 139 140 141 138 139 139 139 139 139 138 137 139 140 139 138 137 137 138 137 138 138 137 133 133 149 180 214 236 242 241 241 236 236 240 235 222 218 217 228 233 230 229 227 219 213 221 226 226 229 231 227 224 203 161 150 134 134 131 163 220 229 225 230 229 228 226 220 213 208 204 196 189 189 217 225 207 208 201 211 209 208 212 214 217 216 211 205 200 199 200 200 203 207 205 205 204 201 196 192 191 190 191 187 166 132 94 64 61 49 43 78 79 77 79 79 75 
127 129 129 130 131 132 131 131 132 132 132 134 133 133 134 133 133 134 135 136 135 136 136 136 137 137 135 138 138 137 137 138 138 138 139 138 138 138 139 138 139 138 137 137 138 138 137 136 136 135 137 137 136 134 131 139 162 199 231 242 243 240 239 239 239 234 232 234 226 218 221 224 231 230 229 228 227 223 218 212 221 230 211 199 189 122 98 91 91 100 103 111 98 129 212 243 235 228 230 227 219 213 210 205 195 188 200 229 228 212 207 206 214 213 211 209 208 212 216 218 217 213 212 206 201 203 205 206 207 206 206 207 207 206 203 199 194 194 192 186 160 122 65 31 64 76 76 78 79 74 
128 131 130 129 130 131 130 131 131 132 132 132 131 133 133 134 134 134 135 135 135 134 134 135 135 137 135 136 136 137 137 137 137 137 137 138 137 136 137 136 136 135 134 137 133 134 137 133 133 134 137 131 136 155 188 218 237 245 240 237 237 236 235 232 227 225 228 228 221 227 229 223 234 236 235 233 229 223 227 214 217 180 173 194 215 136 69 93 92 106 117 131 121 90 109 184 233 232 230 227 222 215 209 202 195 193 217 236 229 212 207 212 216 213 213 210 209 209 206 207 215 219 221 217 213 214 213 209 209 211 210 210 211 210 210 205 201 197 193 188 189 188 174 123 73 56 66 69 74 72 
128 129 128 129 129 130 129 130 131 131 130 131 131 133 133 133 133 134 134 134 133 134 136 136 137 136 133 134 135 137 135 136 136 136 135 135 136 136 135 134 134 135 134 136 133 134 137 136 135 135 133 169 206 227 237 234 230 230 229 230 228 226 229 228 227 229 232 225 221 235 229 221 233 236 235 232 228 223 233 228 178 156 200 212 215 220 109 74 92 99 103 103 107 99 63 108 223 229 230 227 222 215 207 202 196 205 229 235 223 215 214 217 219 219 215 213 212 213 206 207 207 208 210 213 218 220 222 218 222 221 215 215 210 210 208 205 203 202 201 195 190 185 185 186 167 106 59 65 65 63 
126 126 128 129 128 129 129 129 130 130 130 131 131 131 132 131 132 132 132 134 133 134 135 134 134 135 132 132 134 133 133 134 133 133 133 133 135 135 134 133 133 134 135 135 135 134 137 137 135 134 185 227 226 224 222 222 223 225 225 226 224 227 230 228 226 230 229 220 226 237 228 220 226 231 231 229 227 229 235 238 180 185 194 200 209 208 197 89 70 83 117 127 86 61 112 233 230 216 227 226 226 217 206 199 201 218 233 236 220 218 222 220 221 223 219 218 218 216 212 215 214 213 213 211 210 209 211 216 221 221 220 220 220 215 213 209 208 203 201 197 193 191 185 181 177 167 104 59 64 60 
126 127 128 128 128 129 130 129 130 130 131 130 131 131 131 131 132 132 131 133 133 133 128 129 132 132 130 132 133 132 132 132 132 131 132 133 132 132 133 132 131 132 135 134 135 136 135 136 136 185 227 220 222 224 223 224 228 228 229 230 228 230 231 228 227 229 226 225 234 236 226 223 232 234 233 232 232 232 237 242 216 183 208 203 200 201 213 177 91 99 112 118 66 108 237 240 231 209 219 221 225 224 207 196 208 229 237 237 219 220 221 220 223 227 220 219 220 215 214 218 218 215 216 217 217 215 213 214 212 212 213 213 216 215 214 214 213 211 208 205 199 191 189 182 167 165 161 94 61 60 
123 126 126 125 126 126 127 126 127 127 128 128 130 129 128 130 131 129 130 130 131 130 128 124 129 129 127 128 128 128 130 130 129 130 130 129 129 128 130 130 129 130 130 132 132 131 133 130 168 217 219 219 222 224 225 225 228 229 229 229 226 224 226 227 227 227 225 228 231 232 226 226 230 231 231 233 234 231 235 237 232 192 205 222 216 206 215 192 88 108 149 111 66 157 239 226 228 213 215 218 217 221 209 195 211 231 237 234 218 223 222 220 220 222 216 215 215 213 213 214 215 213 213 214 219 215 214 217 219 217 216 214 212 208 208 206 203 203 206 205 202 197 192 173 167 165 161 143 77 59 
