P2
150 65
255
141 153 144 122 147 158 160 161 162 149 148 140 150 165 159 167 170 168 176 122 139 187 156 172 177 177 168 186 177 185 182 181 188 187 161 145 165 176 149 142 166 162 138 178 203 233 191 210 210 194 194 199 201 170 182 135 129 148 170 148 115 108 97 99 124 127 150 150 165 124 145 125 128 152 114 113 109 113 110 124 105 140 143 139 144 142 146 153 130 137 127 122 107 92 96 99 115 154 110 129 180 158 145 163 183 205 180 188 238 235 245 246 234 227 228 246 244 249 220 200 234 221 222 211 239 242 244 244 245 245 245 245 245 245 245 245 245 245 245 245 245 245 245 245 245 245 245 245 247 234 
150 159 146 124 144 160 156 174 172 169 153 142 168 170 172 168 173 171 172 120 169 166 164 177 175 176 181 185 187 180 178 179 189 182 168 162 157 160 158 152 147 165 169 161 199 224 168 200 193 182 169 198 198 176 187 160 169 173 174 141 124 108 102 120 108 141 148 158 178 125 141 134 106 110 119 107 114 117 115 144 118 147 134 151 154 153 160 154 144 140 101 127 123 119 129 134 124 124 144 191 188 180 139 163 205 246 219 166 206 241 255 250 237 231 229 248 254 255 236 224 230 214 190 217 255 255 255 255 255 255 255 255 255 255 255 255 255 255 255 255 255 255 255 255 255 255 255 255 255 241 
136 149 149 126 137 165 155 167 167 162 142 152 172 160 166 172 176 178 180 140 155 159 180 173 175 188 187 195 185 177 179 177 179 174 152 153 152 129 160 165 150 180 186 177 189 214 146 178 203 177 196 196 193 169 171 150 145 163 160 159 143 130 113 114 106 110 110 155 177 139 142 137 109 108 114 92 102 118 136 131 121 147 142 145 175 168 155 146 146 187 187 196 180 182 175 165 152 151 193 235 181 153 144 170 154 219 255 254 254 255 255 246 239 232 244 249 243 242 220 219 227 177 169 196 222 220 231 236 245 253 254 255 255 255 255 255 255 255 255 255 255 255 255 255 255 253 250 252 255 241 
136 148 160 126 158 165 164 160 153 142 143 150 148 167 170 175 175 175 177 127 161 179 176 175 181 167 187 186 183 180 177 188 190 162 163 185 156 165 185 191 180 172 184 189 197 209 170 203 184 167 203 191 182 175 144 120 146 161 146 137 113 115 110 91 102 90 93 147 158 119 150 95 96 102 88 74 108 92 140 109 111 139 165 155 168 168 195 230 239 221 192 163 148 133 122 123 126 131 151 188 170 151 160 162 194 232 230 239 234 232 228 218 203 204 214 209 207 210 182 186 205 172 173 179 201 201 195 191 198 199 204 217 225 229 227 242 249 254 255 255 255 255 255 255 255 254 249 252 255 240 
155 169 167 144 152 120 147 177 148 140 163 168 151 153 162 158 166 171 166 121 166 169 174 189 158 151 178 173 172 174 171 177 172 179 194 191 191 194 190 190 186 179 180 188 201 211 195 201 151 154 210 186 154 172 146 135 151 143 128 121 118 106 92 79 92 70 102 153 150 124 158 85 75 91 81 122 98 93 135 112 120 123 149 152 182 202 216 201 158 124 94 76 66 60 57 63 69 77 90 91 122 143 155 153 183 205 201 201 197 200 205 195 188 195 196 196 201 201 185 195 195 188 179 194 205 203 202 194 193 194 194 194 198 200 200 199 212 255 254 255 255 255 255 255 254 253 251 245 255 240 
137 159 180 147 145 136 131 165 151 154 168 174 172 173 162 150 158 180 160 124 177 174 177 164 146 158 174 169 171 181 170 158 168 185 183 184 174 175 181 185 195 185 190 180 197 206 199 164 151 170 199 172 174 157 155 141 146 133 123 105 92 84 72 89 96 88 150 151 127 143 136 72 72 83 80 135 102 107 120 94 89 153 191 190 180 183 163 130 98 76 60 56 56 42 33 31 38 45 53 63 75 108 153 180 179 196 183 175 171 174 185 173 183 197 190 196 192 205 193 183 192 193 178 193 201 198 193 185 199 200 201 201 205 206 206 201 214 255 254 255 255 255 255 255 250 250 253 249 251 243 
137 145 157 115 150 158 156 155 162 164 161 171 160 164 160 163 146 180 144 119 166 161 165 152 168 180 183 183 179 179 186 185 182 181 180 194 118 64 80 76 116 157 124 129 146 191 187 152 159 163 169 178 177 125 135 155 135 114 106 83 72 71 66 94 108 106 115 133 120 145 133 76 77 80 87 109 104 112 133 141 195 210 165 147 162 158 117 86 67 53 42 42 37 31 32 26 27 33 37 44 52 71 108 147 166 167 157 152 164 180 167 160 174 177 188 200 192 192 187 193 192 187 192 206 193 192 185 188 203 202 202 202 202 203 204 201 206 250 255 254 254 255 254 254 254 254 253 251 251 221 
136 152 161 116 129 148 156 152 165 147 144 150 156 155 152 163 133 174 129 138 169 173 177 171 179 183 181 183 185 175 177 186 186 186 185 197 118 60 74 52 65 125 95 89 139 195 147 159 172 152 189 189 152 123 113 112 102 122 101 93 78 79 77 78 100 90 139 146 127 166 102 78 71 75 95 92 106 169 208 223 184 129 131 136 171 150 95 71 44 46 43 23 22 23 25 28 28 29 32 37 43 54 76 121 183 188 177 179 165 147 143 149 145 163 168 179 190 202 166 164 183 171 199 193 190 165 161 174 177 193 200 200 202 201 203 198 214 252 242 253 255 255 254 244 252 255 251 242 255 231 
135 150 159 135 140 144 148 143 148 146 153 156 158 162 158 161 134 120 104 148 156 166 172 177 178 181 181 182 183 183 176 180 186 186 182 193 110 57 65 41 82 127 99 97 142 196 123 127 183 160 176 167 148 166 128 94 90 100 97 93 77 72 91 84 80 85 119 125 113 165 118 87 76 84 81 147 201 198 193 152 119 126 128 194 207 135 93 61 45 38 28 26 23 25 28 31 35 36 36 38 41 48 60 102 172 187 189 173 149 139 137 141 148 152 162 167 167 172 168 146 179 169 186 191 176 164 152 142 147 164 170 188 197 200 198 200 200 204 197 207 215 244 251 238 251 255 249 248 251 242 
135 154 150 138 140 144 149 143 151 153 154 155 158 162 150 153 162 67 113 162 161 162 163 169 173 175 176 177 176 177 181 182 181 181 181 187 123 100 95 83 81 111 160 51 140 194 131 141 178 146 137 132 129 157 151 129 114 115 101 86 79 70 82 81 85 76 82 83 129 152 144 112 97 112 163 203 179 181 137 114 119 132 213 231 172 105 55 28 34 24 24 27 34 39 48 54 57 61 57 56 57 57 62 90 130 136 146 146 133 132 130 131 124 120 116 128 140 156 158 143 186 166 151 185 182 186 192 187 177 176 164 178 178 183 180 192 202 203 203 202 193 242 245 236 254 250 251 252 249 235 
130 155 147 124 134 152 167 151 155 154 156 155 156 157 146 156 165 107 134 175 170 169 167 171 165 170 175 172 174 172 173 178 176 177 180 180 140 154 146 151 145 142 124 59 145 192 126 162 167 147 138 149 175 175 153 126 100 96 88 77 86 100 80 87 89 78 58 74 141 145 125 117 139 180 200 167 187 130 109 112 131 213 238 187 124 58 28 33 29 31 38 47 55 67 82 90 95 96 93 91 87 88 89 88 100 99 98 103 106 103 89 81 77 77 65 72 114 127 138 142 175 168 138 193 194 173 176 190 192 192 196 198 199 201 198 186 197 203 204 203 202 250 250 234 245 244 229 243 249 200 
128 159 142 113 131 158 166 164 153 156 155 157 152 151 147 155 166 139 110 152 160 164 169 174 169 162 161 168 173 175 175 174 175 173 176 179 138 144 152 152 137 155 122 68 140 183 114 161 177 144 164 177 185 154 142 127 101 87 77 81 76 74 80 89 80 67 88 83 134 155 126 123 185 183 159 179 137 93 102 116 204 224 194 139 105 55 43 49 49 57 66 79 90 100 109 114 117 120 121 121 121 119 112 102 100 91 91 88 81 71 63 56 44 44 52 51 72 100 114 138 168 172 139 195 203 149 132 158 150 151 154 159 166 167 169 184 194 195 195 193 198 236 223 201 196 220 205 168 166 162 
134 160 140 100 147 160 150 158 154 153 156 155 149 155 147 153 163 156 98 150 165 166 169 162 171 168 165 170 169 169 158 162 168 169 173 176 144 155 160 151 151 156 102 47 141 178 119 145 156 147 157 173 156 156 151 135 99 97 79 80 85 82 89 78 73 73 87 110 125 142 147 184 170 140 162 155 83 94 83 179 187 168 99 80 63 45 63 63 68 79 88 102 115 122 126 129 130 132 134 133 132 131 126 118 111 103 90 79 71 60 51 45 46 45 43 44 47 75 99 118 152 173 141 195 198 140 142 150 141 137 136 139 135 128 125 177 195 188 188 188 186 167 172 160 201 171 137 137 141 138 
127 156 125 114 140 151 162 166 147 139 142 148 148 138 135 146 155 153 107 158 170 167 169 172 172 174 175 175 176 174 168 173 173 173 173 173 131 154 153 150 147 153 103 59 140 170 122 143 163 138 165 158 145 145 143 122 86 97 96 91 91 93 121 101 81 84 71 111 163 146 184 170 132 150 169 90 80 66 151 184 139 84 66 64 57 72 74 78 88 97 106 116 122 129 134 134 134 136 136 136 132 130 128 123 119 113 105 94 83 67 53 40 33 45 50 48 44 56 81 96 134 162 154 185 189 174 160 168 171 160 161 157 152 142 138 182 193 197 202 198 191 167 162 146 200 174 110 102 102 107 
132 148 106 118 144 161 150 158 138 145 151 153 158 157 146 152 156 159 112 158 169 170 173 172 176 175 174 174 176 177 177 176 175 175 173 171 128 149 151 156 144 158 106 56 136 164 117 145 160 136 147 146 147 155 171 135 87 106 91 106 97 84 103 89 90 100 85 93 149 178 173 130 127 165 112 65 52 116 185 141 84 63 88 69 73 78 85 93 102 110 118 122 127 133 135 134 133 132 133 129 129 127 123 121 119 115 109 106 100 89 67 48 40 33 40 51 52 47 67 83 111 138 169 185 185 184 178 190 193 189 196 191 195 184 180 183 189 127 114 125 143 177 146 134 136 133 125 117 127 109 
127 140 100 104 139 160 154 149 148 152 150 149 147 142 137 148 151 141 106 154 167 169 172 175 177 177 176 177 178 178 177 178 177 175 174 174 101 106 110 105 101 104 78 67 133 160 119 153 158 132 154 165 168 168 172 150 128 99 78 102 76 90 104 75 72 95 83 115 169 173 137 109 145 135 73 46 79 171 147 101 57 67 68 71 81 89 99 106 113 117 122 126 131 132 131 132 131 131 130 125 122 118 117 115 113 112 110 109 110 101 87 60 45 40 33 37 46 51 53 81 92 133 177 185 190 180 179 186 186 188 192 193 194 183 184 180 192 65 25 36 62 108 110 106 116 115 123 114 125 116 
120 136 111 76 124 138 139 128 123 130 133 137 139 138 133 142 154 108 99 163 166 165 168 171 173 173 172 173 171 170 171 173 173 170 171 164 100 122 125 126 126 116 75 75 139 158 127 147 151 124 156 168 169 168 172 146 105 95 85 90 79 83 99 70 86 93 95 161 169 140 100 115 158 91 50 51 144 152 115 67 53 62 73 84 91 100 107 112 118 119 124 125 129 129 129 127 127 125 121 120 117 113 109 108 108 106 108 109 109 106 97 84 56 42 41 31 36 45 49 66 83 129 171 177 182 178 183 192 187 191 191 192 190 183 182 178 186 77 49 48 78 99 134 135 143 137 118 107 97 103 
114 116 107 92 124 121 121 130 128 131 136 116 134 146 140 147 158 110 108 156 149 154 162 165 166 167 165 162 166 165 168 166 167 168 166 165 68 59 64 67 70 75 68 66 132 146 131 147 155 124 150 163 171 166 177 134 89 78 93 90 92 81 95 90 87 99 156 164 146 109 93 135 143 65 34 103 156 124 82 51 61 72 81 92 99 106 110 113 119 123 125 127 128 128 126 124 122 119 118 115 112 109 108 107 106 105 103 104 103 104 101 96 77 45 42 39 33 36 44 59 70 118 178 182 186 180 183 187 185 196 193 191 187 184 184 181 179 142 134 121 115 124 136 136 135 145 136 124 136 127 
117 118 105 90 123 129 130 135 133 138 145 119 122 145 138 145 157 125 113 140 127 133 144 144 153 152 153 154 159 157 161 163 163 168 169 164 82 70 65 64 53 49 54 71 133 137 120 145 147 120 161 162 158 154 165 131 79 50 46 76 101 97 86 89 87 149 163 147 123 101 96 142 117 49 50 134 132 100 56 50 66 77 87 96 103 109 113 117 120 125 125 123 125 124 124 122 117 117 116 113 112 108 107 107 104 103 105 103 101 100 100 97 87 57 37 38 37 32 38 47 61 94 169 184 184 182 185 187 186 193 190 194 187 183 181 181 165 134 139 132 136 131 148 142 149 153 154 141 140 132 
113 124 109 84 118 120 127 131 134 137 139 140 136 143 137 145 144 121 114 153 154 152 150 148 150 155 162 163 162 164 165 165 167 167 169 161 66 76 72 73 57 43 73 79 126 130 138 141 120 123 152 146 148 155 167 138 83 48 49 82 99 88 67 78 132 160 153 138 98 84 103 143 97 38 93 129 116 79 51 58 73 88 97 103 106 112 117 117 119 122 123 122 121 121 121 119 119 118 116 114 115 115 111 110 107 104 104 103 98 100 101 96 89 68 42 32 39 36 36 41 54 73 140 178 178 175 177 177 180 188 186 184 181 183 183 179 157 118 102 110 136 133 143 144 134 121 120 131 132 116 
115 124 114 90 126 124 121 122 129 133 131 126 129 135 137 139 146 116 101 141 146 146 149 154 153 155 151 152 157 156 156 157 160 161 164 154 59 55 56 66 57 47 62 64 118 124 120 113 138 121 136 140 140 154 161 119 68 69 106 107 82 76 57 96 157 147 152 117 82 84 114 132 80 53 118 113 97 54 53 66 81 96 105 109 112 116 118 120 124 123 120 120 121 122 120 120 116 116 117 114 114 114 108 107 107 105 102 100 98 100 99 95 89 74 45 32 28 36 35 39 47 60 104 165 170 171 169 184 181 185 193 190 179 184 183 179 162 117 95 102 111 125 129 125 113 103 106 116 112 109 
113 123 115 82 118 122 118 128 134 136 141 137 143 150 149 150 160 126 105 157 153 153 151 153 160 162 160 161 160 157 154 158 160 161 160 159 144 140 136 131 130 125 121 127 117 113 96 121 125 116 127 144 138 132 153 106 58 117 129 106 89 70 70 135 141 141 140 88 75 84 123 127 69 74 112 101 78 42 55 71 87 101 109 112 117 119 121 121 122 122 120 116 117 116 118 116 113 117 112 111 110 110 109 106 104 101 100 101 97 97 96 90 89 79 51 30 27 27 35 36 41 51 81 145 169 174 173 183 190 188 192 187 182 181 179 168 130 101 89 55 96 101 99 122 132 131 118 89 110 133 
105 109 100 81 87 110 114 110 123 120 125 121 121 126 131 133 141 121 101 136 142 145 148 153 151 148 152 159 158 157 156 162 163 162 165 163 169 175 177 176 181 182 185 179 122 107 98 113 113 124 139 133 142 146 143 136 133 147 161 128 98 82 101 144 131 138 115 67 71 77 122 116 60 79 98 93 58 44 61 79 94 105 113 115 117 116 117 115 115 115 113 109 109 113 113 110 109 107 103 104 105 103 103 103 101 99 99 101 101 99 94 89 87 81 59 30 26 23 26 35 40 46 65 99 161 169 172 179 159 158 166 183 179 179 175 175 139 56 49 45 92 114 116 109 114 117 79 64 76 106 
109 111 94 78 98 113 125 127 127 128 127 113 110 125 127 134 146 113 86 150 146 150 150 154 154 152 149 152 154 149 150 148 150 153 160 153 85 79 85 88 84 80 86 93 108 113 122 110 111 114 127 132 143 140 142 124 141 150 144 115 90 67 130 134 129 118 94 60 69 90 120 106 56 82 85 79 44 52 69 86 99 109 117 117 115 113 113 111 111 111 110 104 106 114 108 105 104 101 102 106 108 108 107 106 107 107 110 110 111 110 102 93 88 83 65 35 25 24 21 28 37 44 57 71 135 167 174 170 88 91 111 182 173 173 170 176 125 43 36 37 67 77 95 105 115 74 67 67 64 94 
104 105 86 75 95 114 128 125 120 128 128 128 129 129 123 134 145 107 102 152 148 149 152 156 160 160 160 161 159 160 160 160 160 163 164 148 61 56 49 42 49 64 54 66 102 104 117 116 119 119 123 133 132 137 143 97 61 63 83 125 77 94 139 122 118 119 85 57 69 93 114 106 52 78 75 61 41 61 81 96 106 117 122 123 120 115 111 106 106 103 101 105 109 108 97 92 96 96 95 96 91 92 87 82 83 84 91 94 95 97 104 96 91 86 73 39 25 23 21 21 30 41 51 61 97 170 178 190 172 144 188 180 179 181 177 170 136 106 99 99 89 85 103 110 92 113 107 81 92 90 
108 117 100 71 96 107 116 120 119 129 144 148 129 122 120 126 139 104 93 145 139 144 146 151 152 154 155 155 155 154 157 158 158 158 159 143 70 60 59 56 51 61 48 63 110 107 108 109 124 132 134 128 135 136 143 117 88 80 135 113 98 131 124 115 98 106 82 51 67 86 108 102 48 72 64 47 45 68 83 94 99 99 93 85 82 81 84 87 89 88 89 101 107 102 90 75 77 82 74 63 52 47 43 40 41 42 49 57 58 62 70 72 83 90 78 44 23 22 19 18 24 39 46 56 72 135 162 172 142 103 178 167 167 166 171 162 145 143 146 148 112 94 101 103 87 99 107 93 86 96 
121 142 117 91 120 122 136 159 157 166 172 171 158 160 154 158 151 126 121 139 138 146 145 143 150 149 146 149 148 147 149 149 148 153 153 139 55 65 64 55 98 67 79 65 91 98 107 110 122 109 115 125 132 136 146 77 32 48 106 83 110 136 110 109 80 85 78 46 65 83 109 104 46 63 54 37 46 56 57 57 56 49 44 41 42 51 59 67 75 77 84 106 109 104 94 76 63 63 60 56 52 52 50 52 57 60 62 65 65 65 65 67 78 87 84 53 24 26 20 16 21 30 44 53 68 100 134 143 118 100 142 134 125 109 152 171 128 100 98 104 118 117 131 119 105 111 115 121 127 129 
152 150 153 159 155 155 184 178 166 158 155 167 165 171 169 163 165 175 143 125 130 137 145 167 149 156 164 159 166 176 192 187 184 175 171 150 107 181 153 120 179 184 192 135 162 169 156 149 152 146 147 125 132 130 143 107 93 107 110 66 113 123 104 103 71 78 73 45 60 80 105 102 48 54 46 33 39 51 59 63 64 65 68 69 68 67 69 70 71 79 92 110 117 109 96 80 71 63 58 59 57 52 53 59 63 65 69 70 70 76 79 74 78 92 87 61 31 30 22 15 18 24 37 51 62 100 142 160 125 112 159 141 133 117 158 143 97 94 102 115 119 125 128 137 134 148 142 114 108 117 
167 184 166 178 182 166 144 132 146 145 110 112 162 165 125 135 146 140 123 152 137 131 167 191 187 178 181 192 184 176 194 186 186 205 203 175 138 143 135 183 156 165 148 145 165 153 152 191 164 184 182 149 165 158 170 175 154 163 163 158 147 107 101 89 61 65 78 40 59 77 100 96 50 48 38 33 50 70 86 87 87 84 74 63 55 52 55 63 67 73 103 121 125 114 98 87 73 57 52 49 41 39 32 25 25 24 25 35 43 50 69 81 77 90 87 66 37 31 25 17 17 22 32 45 52 86 134 154 130 128 157 145 136 129 163 143 91 85 100 93 102 89 100 123 125 130 153 129 113 121 
149 175 168 151 165 191 137 110 137 152 124 81 118 142 122 141 134 100 167 183 167 164 144 147 166 152 161 148 159 144 153 108 116 170 170 180 174 132 134 178 127 116 139 176 144 100 142 160 173 160 138 137 149 156 155 106 118 131 143 166 125 97 73 76 59 53 77 41 55 72 99 89 44 48 34 34 58 76 66 53 45 33 25 26 32 35 40 41 59 71 102 133 136 123 111 97 70 55 58 52 47 50 56 60 57 55 53 55 54 50 49 67 73 81 86 71 38 33 26 19 17 19 32 39 46 73 104 104 93 91 104 115 114 118 132 147 135 131 133 126 129 113 131 130 135 119 125 126 124 111 
134 140 139 114 121 126 137 138 147 143 116 85 107 163 122 143 151 147 172 189 188 164 142 141 131 182 187 179 180 143 139 126 120 104 131 168 157 140 130 147 140 97 132 144 155 131 107 121 166 116 108 103 109 144 151 137 140 120 147 146 130 77 48 74 60 51 62 48 48 62 96 83 39 45 35 35 50 51 49 58 64 68 70 71 70 67 62 61 74 90 112 138 137 120 110 100 74 68 69 65 66 70 72 74 74 75 76 76 77 76 74 80 87 90 86 68 34 33 23 20 17 21 30 33 39 64 77 71 57 75 75 81 80 71 97 129 123 98 90 87 89 112 116 112 117 98 105 94 71 63 
105 96 121 122 114 100 122 138 145 139 134 129 134 152 131 145 164 160 183 173 152 160 178 178 141 149 125 145 161 168 189 183 138 134 127 146 136 105 124 131 127 101 86 116 143 149 121 113 122 114 108 118 121 108 137 152 119 103 130 152 140 88 59 64 58 46 51 57 39 53 93 82 39 41 37 43 55 61 77 93 99 96 88 80 77 76 77 83 97 110 122 139 138 119 105 95 84 78 73 74 76 74 74 74 74 74 76 78 81 86 91 93 93 90 87 67 29 32 24 16 18 24 27 31 39 56 82 83 64 49 58 46 99 140 123 103 78 70 82 102 114 117 92 82 74 66 52 52 97 85 
107 101 111 126 119 123 124 128 143 153 132 130 138 139 121 149 162 184 189 169 166 174 190 193 168 173 154 116 125 151 164 177 155 169 142 155 157 126 128 142 138 125 95 97 148 159 137 107 120 124 124 142 132 104 99 122 129 119 129 140 117 116 92 55 52 44 41 49 37 47 81 81 39 41 48 62 81 93 97 101 102 99 95 97 98 100 108 116 118 121 130 139 130 111 106 94 86 84 79 77 84 86 88 88 83 84 89 92 97 98 96 97 91 86 88 66 27 31 25 17 23 22 27 33 42 70 153 172 165 156 156 120 122 130 131 145 138 142 125 156 174 140 119 111 106 99 102 74 88 88 
122 119 99 118 119 131 136 127 120 147 138 101 99 135 137 164 166 144 131 139 136 170 180 172 171 168 158 128 123 140 124 114 134 161 158 139 147 144 124 131 161 127 106 86 120 128 134 112 107 119 128 124 116 109 121 131 143 123 109 129 123 121 107 84 52 45 44 45 41 45 68 73 42 45 71 93 110 118 118 116 118 115 116 115 116 123 125 122 125 130 136 144 135 122 109 94 84 83 84 81 84 91 95 98 99 104 108 109 107 102 99 96 93 88 87 62 24 28 26 16 14 23 29 36 55 91 154 164 170 173 198 188 133 122 179 195 195 190 199 197 185 197 197 177 180 167 201 198 182 173 
86 104 103 89 118 128 126 125 114 143 155 92 85 125 142 175 160 136 123 130 130 127 162 183 162 137 111 113 124 133 137 118 118 120 117 129 130 143 125 131 121 131 113 93 97 128 134 98 114 131 131 107 101 95 114 103 126 116 90 106 106 135 111 121 57 46 49 37 35 44 52 60 50 59 111 133 145 147 141 136 132 128 128 130 131 127 130 132 139 140 142 153 147 127 111 101 92 90 89 90 91 95 100 104 108 109 109 111 105 103 101 97 96 89 89 61 25 24 25 15 13 24 33 43 84 143 125 111 134 155 149 160 141 165 169 188 192 191 190 191 161 144 134 160 172 159 160 170 160 165 
83 79 90 98 142 120 117 125 124 132 117 117 153 175 141 115 155 179 170 159 121 140 152 174 134 126 106 117 124 129 145 121 139 136 119 102 116 118 112 125 131 119 131 107 87 100 154 120 90 99 122 117 92 82 135 138 125 105 111 114 105 117 104 121 69 59 50 44 31 34 44 49 56 96 153 163 167 165 156 147 141 138 132 132 131 132 136 135 142 147 161 160 147 132 122 110 101 89 82 77 76 84 89 92 102 105 103 101 96 95 93 93 92 89 90 62 28 25 23 14 14 28 33 66 126 152 149 108 123 164 138 124 122 129 139 201 189 161 175 191 192 161 134 103 141 175 172 132 125 146 
108 93 95 99 112 114 129 112 111 122 98 86 161 159 126 128 153 142 156 158 130 124 154 172 154 104 131 133 121 123 136 124 119 127 132 139 149 118 131 142 133 101 122 135 107 95 107 127 84 88 87 87 98 96 95 92 93 89 106 104 77 100 85 114 93 66 53 45 23 17 35 69 66 119 173 170 167 158 149 140 135 128 122 120 116 109 104 117 136 154 157 145 144 132 118 99 92 86 87 88 66 59 65 74 87 92 93 91 91 88 86 88 88 86 90 59 26 22 22 11 17 34 50 118 126 123 152 117 136 162 155 136 103 108 142 164 147 124 128 183 197 201 164 115 105 161 179 133 120 119 
143 143 146 161 161 158 165 164 171 177 181 174 184 189 185 207 207 199 190 191 192 194 197 204 217 204 207 207 205 207 206 208 213 210 211 222 215 208 207 199 195 200 204 203 204 205 190 195 188 186 184 177 169 167 164 164 153 153 143 146 133 119 141 135 82 57 49 38 28 25 23 48 84 119 175 162 153 144 134 123 113 108 98 91 86 77 80 129 156 145 137 133 130 114 99 89 80 79 84 86 64 54 60 63 70 79 84 85 83 79 78 79 81 83 88 57 28 22 21 11 27 42 85 167 144 148 110 107 136 177 175 170 129 127 113 103 106 142 153 116 180 198 166 152 116 138 144 138 147 139 
220 236 235 230 231 232 231 232 232 229 228 230 230 233 235 232 234 233 235 238 236 237 236 236 234 238 238 237 236 233 233 234 235 237 235 228 228 230 229 231 233 228 229 235 236 238 244 242 245 247 245 244 243 240 235 234 236 234 230 230 229 217 198 150 89 89 70 100 96 61 18 65 98 108 169 152 138 123 113 104 97 90 82 77 71 71 79 104 119 94 90 103 104 88 71 65 58 50 53 61 61 64 71 68 63 67 73 75 75 71 72 71 72 77 84 49 29 30 19 21 39 60 120 150 159 128 122 120 157 147 143 156 169 138 126 104 136 165 189 167 138 127 107 151 147 133 134 128 121 125 
217 231 232 233 237 240 238 239 239 239 240 239 238 237 236 235 235 236 237 244 247 249 249 249 248 248 250 251 251 251 252 250 248 249 248 246 246 246 244 242 242 244 243 239 238 240 241 241 242 242 239 234 233 231 229 229 228 228 221 218 224 230 223 179 143 122 136 180 165 140 41 72 78 63 159 145 119 104 97 90 85 80 74 68 71 83 100 108 102 77 65 78 82 68 60 57 52 50 53 61 67 68 67 66 69 66 65 68 68 68 68 67 68 76 82 35 16 21 27 38 56 100 143 144 150 128 126 123 148 132 179 192 193 165 168 163 183 207 201 204 188 165 150 149 167 131 93 85 132 96 
230 247 242 243 247 250 254 255 255 255 255 255 255 254 251 249 247 247 247 249 249 250 251 249 249 248 248 248 247 247 247 248 248 247 246 246 247 246 244 244 245 243 243 243 239 238 239 238 236 235 233 232 232 235 236 234 231 228 228 229 230 232 223 200 208 164 202 249 218 214 156 98 63 34 137 148 112 97 90 86 78 73 68 75 85 98 111 119 122 116 102 87 75 65 65 63 61 62 64 67 69 69 67 65 65 64 66 66 65 67 65 66 70 77 81 30 16 31 37 51 93 109 117 143 105 116 110 91 128 152 163 187 181 191 199 188 167 204 221 216 238 244 196 175 179 152 148 163 180 118 
234 247 240 236 235 232 231 230 233 235 236 236 237 235 234 236 236 237 237 239 240 238 239 240 243 243 245 246 245 245 246 248 249 250 251 251 251 250 248 247 246 245 244 243 242 240 238 234 229 224 219 212 206 206 204 201 197 193 189 185 179 177 170 164 163 148 145 159 154 140 144 122 87 53 113 162 120 104 97 84 75 76 79 90 100 113 121 126 126 123 110 93 81 77 73 70 73 70 73 75 77 77 76 74 72 70 67 67 64 67 71 72 72 78 79 27 26 26 46 79 82 96 97 90 105 136 118 124 126 127 148 126 146 151 159 159 151 156 142 141 154 158 167 151 152 119 168 166 148 153 
218 230 227 227 227 227 225 226 226 224 223 226 228 233 234 236 238 238 239 239 237 238 238 238 239 239 239 236 235 234 232 228 226 223 218 214 207 202 197 193 188 182 176 168 162 155 150 143 139 132 124 117 112 106 102 96 94 87 83 78 76 75 69 68 66 58 65 56 48 43 43 53 53 47 86 163 137 121 106 83 88 85 77 89 110 127 132 129 121 118 109 97 88 86 78 70 67 61 61 63 62 62 60 50 43 42 54 69 75 74 74 72 70 80 66 32 48 71 108 124 143 122 108 98 108 132 138 155 149 130 126 123 145 126 157 157 160 146 113 120 124 120 129 155 124 107 177 158 141 133 
227 238 234 235 233 233 233 232 230 227 223 220 219 220 219 216 213 210 208 211 218 210 210 211 212 213 212 216 209 189 185 178 161 146 128 123 116 104 98 91 82 74 71 69 66 60 59 62 55 52 58 52 52 51 53 59 60 67 75 74 67 66 81 90 84 71 67 63 46 44 40 46 49 50 58 142 144 128 121 101 93 71 61 51 43 49 71 86 79 72 69 69 63 62 59 54 54 52 56 55 60 52 34 16 28 51 62 73 84 81 75 72 71 77 79 108 129 135 112 115 132 146 124 121 131 110 133 141 134 124 106 91 123 135 129 119 113 88 107 101 110 135 143 124 122 132 143 132 116 141 
196 201 191 182 174 166 157 147 139 129 120 111 104 97 89 82 76 71 66 70 136 205 201 202 203 203 209 194 179 172 139 105 75 58 54 52 43 51 49 51 62 61 48 46 52 51 44 61 52 70 74 74 83 85 81 79 80 83 95 98 93 95 101 103 101 95 82 78 60 42 42 36 47 47 46 106 150 132 130 113 93 78 88 94 87 54 40 69 90 105 117 83 91 88 68 82 93 73 83 82 66 50 41 53 71 74 75 74 80 80 75 72 71 83 102 104 115 105 92 91 86 110 114 135 125 127 145 144 104 114 129 103 82 112 140 102 71 86 95 131 105 112 118 136 135 116 87 96 125 156 
66 63 58 51 47 44 41 39 40 39 38 33 32 34 35 39 45 48 40 56 67 195 196 198 198 206 180 167 195 124 65 37 37 43 47 55 49 61 66 68 63 66 69 68 68 69 69 59 37 50 70 80 83 92 89 90 81 69 81 82 78 87 100 96 90 83 61 53 54 47 39 40 35 46 42 57 133 140 129 120 100 87 102 114 123 127 109 96 98 113 129 101 115 111 95 110 101 81 79 74 59 62 69 76 77 79 74 73 78 75 71 72 73 79 80 96 85 87 96 82 70 91 76 102 113 113 116 97 89 77 90 96 87 99 104 112 139 125 119 135 126 130 88 105 105 118 73 87 94 82 
32 28 46 52 54 56 56 57 62 60 68 68 64 58 59 61 60 57 68 56 123 202 191 192 197 181 148 181 82 57 41 37 54 61 56 49 53 49 58 96 91 87 91 96 92 94 100 100 94 114 113 103 101 96 100 90 83 89 84 66 68 71 81 91 91 90 88 61 62 68 42 38 38 33 44 37 71 134 128 124 113 102 109 120 123 130 136 130 114 101 102 101 97 91 88 88 82 77 68 66 67 72 76 76 78 77 74 77 76 69 70 68 78 72 50 65 78 104 74 78 82 69 64 71 112 91 86 80 79 69 89 100 91 61 73 121 145 98 122 143 121 103 86 76 87 76 79 69 87 70 
68 74 78 72 71 71 71 67 67 61 67 67 68 67 49 45 50 62 61 85 197 188 189 190 188 141 186 92 47 39 49 57 53 79 79 62 47 58 93 97 101 110 99 107 104 89 87 90 110 91 100 99 102 107 109 107 115 123 127 134 77 61 67 68 84 89 91 87 61 62 55 45 40 35 33 42 34 105 143 123 124 122 120 126 127 129 134 139 125 107 92 77 71 65 63 63 63 61 64 68 73 76 76 76 78 77 77 78 72 68 68 72 83 72 29 32 59 52 55 61 71 66 63 59 76 80 67 60 63 72 71 70 73 70 81 101 113 109 116 119 97 88 107 75 78 75 64 60 53 57 
93 95 71 65 58 63 66 61 74 71 68 71 65 70 50 37 38 53 66 183 186 185 184 191 138 185 114 41 37 40 51 70 52 48 63 62 46 46 76 80 85 84 77 91 89 90 98 98 97 81 87 78 86 94 83 85 76 76 73 112 152 93 58 58 62 68 78 80 61 49 50 39 29 41 29 41 109 161 160 133 123 130 133 134 137 135 135 133 125 116 105 92 83 77 75 71 70 70 73 74 72 75 76 77 78 78 79 74 69 69 71 77 83 73 22 21 39 47 37 59 67 60 60 56 57 72 79 81 90 66 51 61 71 76 73 109 131 145 120 94 94 93 100 77 106 104 92 74 56 43 
61 42 43 48 46 49 51 54 59 54 56 59 59 46 31 34 56 53 163 187 179 180 190 150 142 132 40 41 33 34 54 64 54 54 48 44 47 44 51 76 78 86 80 81 73 79 89 80 77 101 96 67 53 63 63 59 66 67 62 51 63 74 44 52 55 51 62 74 82 55 43 46 36 32 66 162 176 127 160 154 134 127 136 136 139 139 134 132 127 117 105 98 91 84 80 78 77 74 75 76 75 77 80 81 79 78 74 70 68 69 75 76 81 76 21 21 22 27 44 29 51 59 61 66 71 78 92 91 85 68 61 60 83 98 112 113 101 109 100 74 78 88 81 86 101 86 71 110 68 55 
46 51 57 58 62 60 55 58 61 66 61 62 54 35 35 50 44 143 187 173 176 180 163 136 169 46 40 34 40 52 60 55 41 54 55 52 54 44 40 69 91 94 90 81 80 67 75 67 63 82 74 64 67 63 66 65 66 69 71 71 56 59 66 63 62 58 54 53 55 56 41 37 60 131 153 158 126 57 137 161 149 133 128 137 140 139 141 131 129 127 122 114 103 98 95 90 87 84 81 83 81 82 82 78 77 73 69 66 69 74 78 78 77 83 25 12 20 27 33 39 25 41 73 74 74 77 93 104 73 92 97 96 97 102 112 98 72 96 102 90 86 74 72 65 64 80 70 80 66 54 
62 66 70 71 74 76 72 82 94 91 93 73 40 37 57 42 124 188 171 174 175 175 122 178 73 34 34 37 48 62 63 70 56 68 75 67 67 56 39 50 75 75 64 64 61 58 55 59 52 52 48 47 51 49 49 56 58 50 57 58 57 57 60 58 53 46 50 52 60 66 54 66 134 181 143 82 54 29 124 163 147 142 127 124 136 137 141 137 136 133 131 107 107 110 105 99 93 89 88 89 88 85 82 79 74 68 66 68 72 76 78 78 78 83 30 4 22 29 17 39 33 20 36 51 76 87 79 99 74 97 75 78 93 107 117 88 85 73 105 113 94 71 74 78 77 68 80 69 83 100 
48 53 53 53 59 58 64 91 83 85 75 35 32 49 38 105 187 169 172 172 180 129 174 111 29 37 51 60 81 76 63 66 46 54 45 52 73 74 37 42 66 75 74 72 58 58 78 69 61 70 59 55 51 50 61 66 67 51 55 63 58 57 62 68 67 69 91 77 81 81 108 197 155 126 92 31 35 20 109 168 148 141 133 123 117 126 135 140 142 137 130 114 107 100 96 96 95 94 91 87 83 82 77 75 69 65 69 72 74 76 78 78 77 83 36 3 14 22 29 30 39 22 23 27 45 73 103 84 67 56 70 63 71 73 95 85 70 77 106 85 55 74 63 61 67 90 80 76 102 127 
45 48 50 57 60 64 77 87 91 79 39 34 52 41 93 183 168 170 167 179 140 155 153 34 35 43 61 78 90 102 107 126 95 86 138 153 138 120 50 35 59 93 92 101 99 96 94 87 86 78 41 43 45 47 47 47 47 47 41 43 43 54 60 62 53 53 96 81 82 141 155 161 133 66 42 39 27 2 92 173 149 143 134 127 119 112 115 125 130 126 121 109 95 87 85 91 92 88 85 80 79 75 69 65 65 67 72 73 75 75 76 76 76 80 44 1 10 23 29 22 39 30 19 30 28 35 89 103 94 97 96 63 66 48 67 68 59 66 71 77 61 61 60 79 63 62 63 71 93 83 
44 53 54 56 57 66 65 74 76 41 32 46 39 81 180 167 168 168 173 155 133 175 49 33 36 48 73 88 79 87 88 105 92 68 85 68 67 72 52 36 42 59 59 52 58 57 52 49 42 47 42 42 36 40 39 44 47 51 50 50 51 46 51 53 56 51 69 88 146 193 156 98 59 29 45 27 17 2 78 176 153 145 136 125 120 121 113 104 102 103 98 90 84 80 79 79 80 78 74 69 68 64 64 66 68 71 73 74 74 76 75 75 74 75 51 3 7 15 22 26 28 32 15 23 30 27 32 75 132 203 211 186 171 144 141 115 95 76 90 81 55 63 58 57 71 74 80 85 90 71 
45 49 55 54 48 52 81 68 33 25 40 40 73 175 165 166 167 169 167 124 188 86 30 35 40 53 73 67 64 70 59 60 56 57 61 61 50 51 55 37 36 43 54 55 58 64 62 53 48 46 41 46 51 41 36 41 35 37 38 39 40 41 46 55 58 84 112 156 169 130 142 72 33 31 22 12 18 2 72 176 158 148 140 131 126 128 134 126 105 91 84 77 74 71 71 71 71 69 66 64 63 66 69 72 71 73 73 74 75 76 75 74 74 71 54 12 6 12 30 28 25 45 20 21 24 24 25 54 65 116 244 255 255 255 254 251 241 229 220 203 181 156 125 94 85 104 88 54 57 73 
55 50 42 49 51 50 69 45 29 41 40 68 168 162 162 163 163 170 128 165 134 29 38 35 42 58 61 67 64 63 49 51 52 58 54 65 66 58 65 51 34 44 62 62 56 53 55 56 55 41 45 51 45 36 41 40 40 35 27 30 26 38 36 40 95 147 148 167 136 91 53 36 39 18 13 14 12 14 74 172 157 151 142 135 133 131 141 146 135 114 97 84 77 74 72 70 70 69 69 69 70 71 75 75 73 73 74 75 75 74 74 73 73 69 53 21 6 10 20 30 33 43 31 14 20 21 26 24 49 63 96 185 243 248 255 252 251 253 254 255 255 255 253 251 235 220 206 179 164 165 
53 59 45 46 51 48 27 24 37 40 65 165 162 159 162 160 167 140 127 158 44 34 32 25 37 38 36 40 47 44 41 44 45 38 42 51 58 58 55 49 33 37 41 39 35 42 50 70 71 70 68 64 57 69 61 58 61 60 54 50 54 38 49 119 122 150 150 91 126 61 17 26 31 13 11 7 28 24 74 170 155 153 145 139 136 135 143 151 148 135 116 103 91 84 79 76 75 76 76 74 75 77 75 75 74 74 74 75 75 75 72 73 71 64 50 28 12 11 16 35 28 29 44 12 15 23 26 21 45 73 42 73 115 150 195 238 250 255 250 249 249 250 250 251 254 255 255 255 254 237 
51 47 44 47 43 34 33 39 37 61 160 159 157 158 160 163 152 119 167 75 28 33 36 50 59 51 50 48 44 52 62 64 67 61 52 48 53 40 33 33 31 36 35 34 35 36 40 55 58 52 51 63 62 65 59 61 58 53 63 42 41 94 141 126 122 155 134 116 90 22 23 19 14 13 8 18 44 14 79 169 149 151 147 142 140 135 137 146 144 134 121 110 100 93 88 85 81 79 79 78 77 76 75 75 76 78 75 76 76 74 73 72 67 61 48 31 20 12 13 23 29 38 47 33 16 19 18 21 21 48 62 56 58 70 68 110 169 209 242 253 251 250 248 246 244 244 243 242 241 228 
43 39 42 47 36 33 43 38 59 159 159 156 158 157 158 161 122 150 127 23 36 20 23 35 30 36 33 43 37 32 35 36 39 45 37 33 25 24 29 31 26 32 36 29 29 30 31 34 34 34 34 40 40 43 44 41 42 44 42 62 156 171 115 149 168 98 141 95 36 33 17 14 16 9 5 33 48 18 73 166 145 148 146 144 141 136 133 133 131 123 114 106 101 96 92 88 84 82 79 78 76 74 76 77 76 77 78 78 77 75 74 71 66 59 46 33 28 17 12 17 36 23 27 48 23 20 14 17 16 41 74 49 50 80 63 59 62 76 136 171 192 199 199 196 193 191 191 189 189 185 
42 49 41 31 23 34 34 58 155 157 153 156 156 155 162 130 132 147 42 31 37 31 46 53 40 43 45 46 37 34 35 34 35 28 30 30 29 29 29 28 28 31 35 32 30 32 32 32 38 40 41 41 42 42 44 49 47 52 101 165 143 94 125 178 140 79 62 31 24 20 15 9 7 4 14 45 44 31 59 154 141 145 144 143 137 134 129 124 121 115 108 102 97 93 90 87 84 83 80 77 76 75 75 78 78 78 78 79 77 74 71 68 65 58 48 35 32 20 15 18 33 33 42 48 16 12 17 22 20 23 42 57 44 54 52 66 56 61 57 60 123 176 165 163 165 165 163 163 164 163 
29 33 33 35 37 31 57 154 155 150 154 153 153 158 148 105 157 86 21 37 27 37 41 47 35 34 38 34 29 29 30 24 25 28 26 28 29 32 30 29 29 28 33 33 28 28 30 32 39 35 35 32 40 47 56 78 99 159 192 152 76 120 155 95 120 65 26 22 18 11 13 10 5 8 30 56 60 46 45 127 135 139 143 143 138 132 123 118 117 115 110 101 97 91 89 87 84 81 82 79 77 77 78 80 80 80 80 78 76 74 70 67 63 59 49 37 29 23 22 14 23 38 26 32 30 12 18 25 23 13 33 66 49 37 64 67 52 49 57 56 64 79 124 172 155 149 150 150 150 154 
33 24 23 35 32 61 154 153 150 151 152 153 153 157 111 123 130 19 37 27 20 25 24 27 27 26 29 33 33 29 24 22 25 27 23 25 28 27 27 27 30 27 31 36 32 34 35 28 37 51 55 81 87 89 111 168 196 155 102 86 94 136 130 95 58 31 18 18 10 10 14 6 5 17 38 72 82 72 38 84 128 129 138 140 134 128 122 118 114 116 116 110 104 96 93 93 89 85 84 84 83 80 80 81 80 79 77 76 75 72 68 66 62 57 48 38 27 29 28 17 24 36 23 36 44 15 19 19 20 20 24 37 52 37 42 49 55 41 30 44 54 47 67 119 127 145 140 141 147 153 
24 22 31 31 69 156 151 148 152 150 152 152 156 128 99 158 49 24 32 15 21 24 22 25 27 24 26 25 24 26 27 24 25 27 25 25 29 34 31 32 34 33 29 33 37 30 33 72 92 102 109 110 102 142 159 172 157 105 92 107 144 90 92 71 23 20 17 13 9 10 9 6 9 23 53 73 86 94 55 42 104 119 128 131 130 126 119 116 115 116 118 116 110 105 100 99 96 94 89 86 85 82 81 83 83 81 78 76 73 73 69 65 61 57 48 34 34 33 32 26 16 24 33 34 37 15 17 19 14 19 16 31 58 50 20 43 65 61 32 26 33 48 48 35 83 153 137 129 145 154 
22 32 32 66 153 144 143 144 145 146 147 149 144 94 125 112 9 36 18 14 19 20 21 22 26 22 21 27 24 23 23 23 24 23 21 24 28 39 34 32 35 36 30 37 40 80 107 122 109 89 86 111 165 192 159 132 82 87 93 128 126 102 78 42 18 18 11 9 7 5 5 7 14 25 67 76 90 84 56 25 68 101 111 116 119 118 114 113 112 111 112 111 106 102 97 96 94 92 88 85 83 81 82 83 82 80 77 75 72 71 69 63 59 54 42 37 37 35 33 31 18 37 41 18 30 26 16 17 14 16 13 32 42 48 34 28 39 49 53 26 22 26 40 51 52 61 99 137 123 136 
