P2
150 65
255
188 200 197 200 202 204 204 205 207 207 208 207 205 205 206 207 208 209 210 214 179 184 208 209 216 219 219 210 211 208 207 209 209 218 221 221 221 220 222 223 223 222 222 222 221 219 216 217 219 219 221 220 219 218 216 217 215 214 209 203 207 207 206 201 208 209 212 211 204 210 211 210 211 211 209 210 211 210 209 213 212 212 213 211 211 209 204 211 213 207 187 199 207 207 206 206 204 188 135 188 218 210 209 209 208 209 208 210 210 213 215 214 214 210 213 216 216 216 216 216 216 215 212 212 209 208 212 215 212 210 211 210 215 158 127 132 193 211 206 206 207 205 203 203 206 205 197 201 210 195 
197 208 205 207 210 209 212 212 212 214 213 214 212 211 215 222 220 218 217 217 188 191 213 217 222 223 225 217 218 214 214 216 215 227 229 228 228 226 228 231 228 227 229 227 225 225 224 224 228 228 228 226 224 223 222 222 221 221 217 210 213 212 211 208 214 216 219 217 209 216 218 217 215 215 217 217 216 218 219 221 222 220 221 220 217 217 211 216 215 192 207 215 213 214 215 215 215 217 193 147 206 221 216 217 215 216 216 216 219 224 223 222 222 216 220 224 223 223 223 223 223 222 220 218 216 216 219 219 218 216 217 215 223 167 134 156 210 213 213 212 213 211 210 210 212 214 203 208 215 203 
195 206 205 205 207 209 211 212 212 211 213 214 211 212 203 185 193 200 206 214 187 200 213 215 221 223 224 218 217 216 215 216 215 223 226 226 226 225 226 229 226 225 226 224 223 221 222 224 228 228 227 226 224 224 223 221 219 218 215 213 215 213 208 208 213 215 220 215 206 213 215 213 212 212 217 216 214 214 218 220 220 220 220 219 218 217 213 216 200 204 215 214 213 212 215 214 213 214 219 184 168 220 212 213 215 219 218 216 220 223 222 222 219 214 216 220 222 222 220 220 219 218 217 216 213 215 215 214 217 216 214 212 219 158 135 172 215 210 209 208 210 209 206 207 207 212 204 205 214 201 
195 206 205 205 206 210 212 213 215 216 217 216 212 216 174 131 142 139 141 151 161 191 205 210 212 210 212 204 212 218 222 227 224 233 236 235 236 235 234 231 229 228 224 222 221 218 219 219 221 223 224 225 225 225 224 223 219 215 213 214 215 212 207 207 215 215 220 216 209 212 215 213 215 216 216 217 215 213 217 221 220 219 218 217 218 217 215 211 203 213 215 216 216 216 216 215 213 213 216 211 167 200 213 210 214 221 215 215 219 221 218 218 221 215 216 217 217 218 217 219 220 217 215 211 208 210 210 208 208 212 212 209 214 148 133 171 206 203 203 204 205 204 202 202 204 207 199 205 210 197 
197 206 206 207 206 206 208 210 212 213 212 212 210 208 184 181 189 186 181 178 166 123 102 100 97 98 100 100 109 117 130 142 153 168 179 183 187 190 193 201 206 212 211 209 211 215 223 226 228 231 232 235 237 235 231 228 221 216 211 209 210 209 209 206 214 214 219 216 210 213 213 211 217 219 218 217 215 217 218 220 220 219 218 216 215 217 214 204 208 212 214 217 217 218 217 216 216 214 216 217 185 177 211 212 219 220 210 208 214 217 217 217 219 215 220 220 222 223 223 222 224 224 223 221 217 223 227 226 224 224 222 223 219 136 133 192 224 218 217 217 217 218 217 218 218 221 209 204 209 193 
196 209 206 206 206 207 208 210 212 210 212 212 213 214 188 182 189 190 192 197 188 164 139 112 92 84 80 84 84 86 89 92 95 97 99 99 98 98 99 99 97 99 98 100 103 108 114 120 131 142 155 165 175 183 193 204 209 217 219 219 220 215 214 205 210 214 219 215 207 209 212 212 218 218 218 218 216 215 217 220 219 219 219 217 213 214 207 206 214 215 216 216 219 217 214 215 217 214 215 215 202 172 204 213 216 217 211 209 212 214 216 215 217 209 199 201 202 199 195 193 191 187 183 178 176 177 175 170 170 167 164 161 155 133 137 139 142 140 140 139 138 136 134 130 125 114 150 215 211 199 
195 209 206 205 204 206 211 186 137 143 148 154 161 177 181 187 196 197 196 198 195 181 174 172 158 143 144 148 149 152 157 164 170 176 181 181 179 179 174 169 162 154 147 140 137 135 131 123 115 110 101 96 98 94 91 92 98 108 117 127 143 161 179 200 216 217 221 215 207 213 212 211 216 218 220 218 217 216 216 220 219 219 220 217 214 213 202 207 215 218 216 215 218 217 214 212 215 214 214 212 205 179 197 213 214 215 212 217 215 216 216 215 216 198 126 62 40 47 46 44 41 42 41 40 40 35 33 35 33 32 34 22 59 141 132 39 18 25 26 28 28 29 29 30 35 22 107 220 205 197 
191 203 202 202 203 202 206 180 161 162 160 158 151 161 182 193 199 199 198 198 198 192 185 184 181 174 172 159 154 159 164 171 182 191 199 203 207 213 212 210 207 207 207 198 182 164 145 127 120 113 110 112 111 116 118 115 109 108 101 90 80 74 79 122 155 168 185 205 210 213 215 213 214 218 218 216 215 216 217 218 219 220 219 214 216 214 199 209 215 218 216 215 217 216 215 213 213 215 214 209 206 188 191 212 214 213 211 216 212 211 213 213 215 203 171 68 31 60 67 66 62 62 69 70 72 56 51 71 70 71 71 60 96 140 117 64 44 65 70 72 71 73 74 77 83 68 143 215 206 199 
193 208 205 205 207 204 207 184 181 185 190 194 195 197 199 200 202 201 200 199 202 199 195 192 188 184 174 148 119 103 96 94 95 99 103 103 106 112 117 122 132 136 130 104 82 71 63 64 66 69 73 80 82 86 94 101 108 114 118 121 117 106 115 139 163 188 193 201 209 214 216 215 214 218 221 218 215 216 218 219 220 219 218 215 214 212 210 216 219 218 217 214 214 213 212 212 210 214 212 207 206 197 192 212 215 216 215 218 216 213 213 212 217 205 183 90 53 91 93 92 91 87 92 92 95 68 66 91 90 91 90 84 113 137 112 76 52 83 87 88 87 87 86 88 91 77 157 215 206 199 
169 173 177 179 186 191 197 181 183 191 192 195 195 198 201 203 204 202 203 202 204 203 199 197 195 189 185 186 183 169 165 166 162 161 160 160 150 129 114 104 81 59 49 47 44 43 46 51 51 49 53 61 66 73 78 82 89 90 95 103 105 104 107 113 129 158 189 210 217 216 216 214 214 217 221 217 216 219 220 221 220 218 217 217 219 198 156 171 183 197 204 210 215 219 220 221 219 219 217 209 205 197 194 212 214 215 215 220 220 218 216 214 215 203 187 94 62 100 101 100 100 95 97 100 101 69 74 99 98 99 97 93 127 139 110 78 54 92 96 96 96 95 94 96 94 85 169 213 206 198 
138 138 136 134 138 138 152 177 186 193 197 197 198 202 205 206 206 204 203 206 205 204 201 199 199 194 191 185 188 189 192 192 194 204 206 175 142 120 112 72 57 51 51 51 52 56 54 53 52 55 57 57 63 69 73 78 83 89 93 92 93 95 99 97 94 99 118 139 175 211 221 214 213 214 216 218 215 219 221 222 220 219 218 215 224 172 41 50 54 64 73 84 97 110 123 137 152 170 179 181 182 191 201 212 214 216 217 218 218 217 216 214 215 203 189 89 70 105 104 103 104 98 99 103 104 70 78 101 101 102 100 99 132 138 107 77 57 97 97 98 97 98 96 93 97 87 177 212 207 198 
166 187 181 182 188 187 191 195 194 194 199 199 199 204 206 207 208 207 205 207 208 205 203 201 201 198 196 191 188 190 190 175 145 125 112 84 85 88 68 54 52 49 53 54 59 63 59 50 49 52 55 57 68 70 78 85 88 92 91 97 93 88 85 91 100 94 90 101 110 129 175 212 216 212 212 215 217 219 221 220 220 219 218 215 224 174 48 53 51 48 46 45 45 45 45 48 50 57 67 81 103 160 206 211 215 215 215 216 217 214 213 213 212 201 187 81 76 108 106 105 107 101 100 104 103 69 82 103 102 102 99 100 132 138 104 76 61 100 98 98 98 95 95 92 94 91 184 213 210 199 
164 184 183 187 191 189 196 198 197 196 200 202 203 205 207 207 207 207 207 206 208 206 204 202 202 199 198 195 192 189 194 191 141 94 86 87 84 83 56 54 51 58 74 91 83 80 74 63 60 59 60 66 79 101 106 104 104 101 95 95 93 91 88 79 78 95 102 87 93 113 110 140 194 213 211 215 217 220 220 218 219 216 216 214 222 176 50 58 56 56 57 58 61 65 70 76 83 91 105 132 163 183 200 211 216 216 212 214 213 211 213 211 212 199 188 82 80 104 102 101 104 101 101 104 104 67 85 104 103 103 100 101 136 139 104 73 65 100 99 99 98 96 96 93 86 93 194 210 209 199 
163 187 189 191 193 197 200 199 198 200 200 201 204 205 206 205 206 208 207 207 208 206 204 203 201 203 202 199 195 198 176 111 90 84 88 88 80 67 65 81 114 141 154 168 159 157 162 143 128 114 93 82 87 96 82 69 78 94 86 80 94 104 99 93 79 73 91 107 91 84 107 109 135 187 206 212 216 215 216 217 216 216 216 213 221 167 53 62 63 65 69 74 79 85 94 102 111 123 140 162 178 184 200 209 216 214 210 211 208 209 212 210 213 201 188 77 58 66 63 63 66 64 68 70 68 53 61 67 68 70 63 82 136 137 69 52 54 65 64 65 64 63 61 60 54 71 203 210 210 200 
176 193 194 196 199 203 205 203 201 201 202 202 202 202 205 207 206 206 206 208 205 206 205 201 203 205 202 199 204 167 95 69 68 68 83 105 96 84 122 170 197 207 210 211 217 218 223 222 217 203 187 183 183 150 113 88 75 85 103 94 84 85 102 105 94 80 74 86 111 96 81 102 108 127 178 207 211 218 215 217 218 217 217 213 221 161 63 75 77 81 87 92 96 105 115 124 131 143 155 170 180 187 201 207 212 214 210 209 209 211 210 209 211 200 181 70 80 91 86 88 89 88 93 96 90 61 83 94 93 94 88 100 136 129 88 57 65 85 82 84 84 82 82 84 75 91 205 209 210 201 
185 196 198 200 202 203 202 202 204 203 201 201 200 198 200 201 201 205 206 207 207 206 203 201 204 204 202 203 178 100 55 49 42 61 93 94 90 147 193 208 209 211 216 222 226 229 230 232 235 236 234 233 233 225 208 179 155 138 138 136 124 102 77 97 106 94 80 74 81 112 92 87 105 104 111 179 214 211 216 219 220 218 216 210 219 158 72 84 88 96 103 108 115 122 130 139 147 153 163 178 183 190 203 206 211 212 209 209 208 210 210 209 210 199 174 64 92 104 99 99 101 100 106 106 100 64 95 105 107 107 103 113 136 130 98 61 72 98 94 94 94 96 96 94 83 105 205 205 208 198 
187 199 200 202 201 200 201 198 199 199 199 201 200 199 199 199 201 206 205 203 208 206 201 201 205 205 206 185 147 59 34 33 49 76 94 91 153 192 199 209 210 216 223 224 229 233 234 233 234 236 236 235 236 236 234 230 225 218 206 197 184 166 133 87 91 105 87 78 75 84 113 88 102 102 103 101 185 212 215 217 218 218 216 209 218 154 80 96 101 110 117 122 128 134 141 148 156 159 169 179 184 190 204 205 207 211 208 208 209 208 209 209 210 202 168 59 94 101 100 99 100 100 104 104 95 62 97 104 104 105 101 114 139 128 92 59 75 96 93 95 94 93 95 92 80 113 209 203 204 197 
189 201 198 198 201 203 202 200 197 197 201 204 201 201 203 202 201 204 207 205 206 201 203 202 204 204 202 173 108 31 36 33 47 94 99 141 189 194 201 207 211 217 223 226 231 233 236 236 237 239 240 241 241 242 240 239 238 235 232 226 219 211 197 175 126 102 99 80 76 75 97 114 94 101 82 99 104 202 212 214 216 217 213 210 218 152 88 104 109 117 126 131 137 143 150 156 162 165 173 182 182 186 201 202 209 210 208 208 210 209 206 206 205 204 156 55 99 102 99 100 102 102 105 107 94 63 99 106 108 107 104 120 142 126 92 57 78 97 98 99 101 94 93 93 79 120 211 203 204 193 
190 199 199 199 201 203 201 202 201 203 207 206 205 204 203 202 203 202 203 203 205 206 205 203 200 204 202 145 59 39 25 38 76 105 131 185 193 198 201 209 213 219 224 228 231 235 238 241 243 244 245 245 244 243 243 242 241 239 238 235 231 225 215 202 187 150 120 92 82 83 82 109 107 101 79 79 94 138 213 211 217 216 212 210 217 146 94 111 114 122 131 137 143 149 156 164 167 168 176 180 180 187 203 203 210 209 209 208 210 207 204 204 206 204 150 52 71 67 69 70 70 73 79 80 72 56 82 85 87 84 83 123 139 108 75 53 68 82 84 84 86 82 77 83 68 122 210 201 202 187 
188 200 201 202 205 204 205 201 199 203 205 206 206 205 203 202 198 198 204 206 206 200 203 202 200 207 205 122 43 31 38 74 101 121 169 191 197 200 202 211 215 219 224 229 234 238 242 245 245 247 247 247 247 245 245 245 243 242 241 239 237 232 225 212 199 180 152 116 91 90 86 97 116 108 99 65 71 88 185 218 213 213 211 208 216 143 100 115 122 128 134 143 147 156 164 170 171 171 178 179 182 191 205 203 208 207 207 208 208 206 202 204 209 203 151 53 44 34 34 35 33 39 44 43 42 49 51 57 57 43 55 129 140 78 32 43 40 42 43 44 44 44 38 43 32 122 213 196 201 189 
185 200 198 197 202 202 201 199 201 202 201 201 202 200 199 201 200 204 206 206 205 197 201 203 202 205 215 121 42 40 52 78 109 141 175 194 197 201 203 206 215 221 226 229 232 237 242 243 245 246 247 248 248 248 248 248 246 244 243 242 238 235 232 219 204 190 170 145 107 89 93 96 102 97 92 70 62 52 112 220 212 213 211 209 215 141 105 120 127 132 137 145 150 162 168 172 171 171 180 179 183 194 204 203 208 207 208 209 209 205 201 206 207 201 144 47 41 34 33 35 34 39 43 41 42 48 46 52 50 38 65 136 132 62 35 44 42 42 40 40 41 42 39 40 27 135 213 197 205 192 
182 193 190 192 195 198 199 199 200 197 191 195 196 194 195 198 200 204 204 204 200 196 201 202 201 200 211 135 39 38 54 98 120 145 182 200 202 200 200 207 215 218 223 226 232 237 241 242 245 246 247 248 249 250 248 249 247 246 244 243 240 237 235 227 212 197 183 169 136 95 98 100 92 84 80 48 70 52 46 159 223 210 212 211 212 135 111 124 128 134 141 145 155 162 167 171 169 172 180 180 184 193 204 200 206 208 208 208 207 205 202 202 205 202 132 45 33 21 21 23 23 28 34 32 36 44 43 47 45 32 69 136 129 46 27 38 32 34 34 34 36 36 35 33 26 147 212 200 206 194 
181 193 194 196 196 200 202 202 200 199 199 199 203 203 206 207 204 204 203 204 200 201 205 206 213 212 213 183 42 42 76 96 112 151 181 199 201 200 202 209 214 218 222 229 235 239 242 245 247 246 245 248 250 248 248 248 247 248 246 245 243 241 233 227 216 203 196 183 165 114 97 100 101 76 72 37 58 59 39 70 206 213 210 209 208 131 115 126 131 137 143 148 154 161 167 170 169 173 179 182 186 197 205 202 208 207 208 208 206 202 201 203 203 202 133 44 35 25 27 28 28 32 36 33 38 43 35 34 33 25 83 144 119 29 28 36 26 27 28 30 27 27 28 40 25 153 211 201 204 192 
145 155 154 159 166 171 170 167 164 164 167 165 164 166 164 161 167 171 180 202 194 149 148 157 161 163 162 128 38 56 76 73 102 138 185 197 197 203 206 214 222 226 232 237 239 243 245 246 247 246 246 247 249 250 248 247 247 248 247 247 244 240 234 227 217 205 197 185 179 135 94 103 107 84 65 42 38 54 44 37 160 222 208 209 205 130 119 128 134 140 145 148 155 163 168 170 169 173 182 184 186 196 204 202 208 205 206 207 204 199 200 204 202 202 124 42 35 27 31 32 27 32 34 33 39 39 25 27 26 22 93 142 104 20 29 36 26 26 28 29 25 27 29 41 29 163 213 203 205 197 
51 52 51 51 52 54 52 51 51 51 50 50 51 50 49 47 43 73 169 205 177 48 47 49 47 47 49 46 40 60 72 67 90 154 198 192 194 207 219 226 235 240 241 239 240 245 246 247 249 249 249 248 248 250 250 250 249 248 247 246 243 239 238 235 228 215 202 191 177 152 103 105 99 92 63 41 33 50 43 33 149 222 206 208 202 131 123 129 136 142 144 147 157 166 169 170 168 172 181 183 189 196 203 201 207 204 204 205 205 203 202 205 204 201 117 42 38 29 33 31 29 32 33 32 38 37 22 24 24 26 109 139 88 21 34 34 26 29 30 30 27 27 31 38 36 176 209 203 205 201 
47 50 47 62 58 46 47 46 44 47 49 47 47 48 51 55 58 105 195 201 185 64 52 54 55 54 55 54 44 62 76 63 121 188 196 192 195 203 198 194 206 203 198 183 219 240 242 243 245 249 252 251 252 252 251 251 250 248 245 245 244 243 243 243 243 236 223 207 184 154 121 105 83 79 67 47 37 48 45 30 161 221 206 208 199 127 122 131 136 141 146 151 156 163 166 169 171 175 180 179 186 194 199 199 203 201 202 203 203 201 203 210 209 201 106 33 31 23 31 27 25 32 31 29 38 33 21 22 21 31 121 136 83 28 38 36 32 35 36 35 32 32 36 41 46 184 208 202 203 198 
45 48 48 63 59 48 51 49 49 52 50 51 54 55 56 56 60 121 194 201 187 68 53 55 56 59 57 58 46 60 77 67 149 191 192 179 168 173 169 162 156 126 118 113 131 152 179 219 229 239 247 249 252 252 249 247 244 243 242 231 219 222 221 223 223 224 215 203 190 153 125 114 78 73 63 54 51 53 40 64 199 210 208 208 198 126 121 131 136 142 147 151 156 162 165 166 167 170 178 182 184 194 198 199 200 200 209 210 208 207 197 183 194 184 111 74 70 59 60 53 50 48 49 45 44 41 31 27 25 38 122 134 73 24 34 31 32 31 29 28 28 27 33 34 49 191 206 202 201 197 
46 52 56 56 52 55 57 51 53 54 51 54 58 56 54 56 63 138 196 199 179 103 77 55 55 57 58 54 59 61 68 68 143 188 186 166 177 192 196 205 202 197 180 151 121 111 101 139 185 191 224 235 243 244 237 228 217 185 144 121 123 127 128 142 151 163 176 175 160 132 108 109 73 64 61 51 53 52 41 146 211 205 208 209 197 127 122 129 134 141 148 150 156 162 167 169 167 167 174 176 181 183 195 205 203 197 164 167 186 164 127 123 134 113 128 141 147 142 139 161 141 152 152 144 138 127 120 132 137 123 131 129 133 132 122 113 105 103 109 114 105 110 80 73 91 205 207 203 202 196 
43 51 54 48 48 55 53 51 51 51 54 58 55 47 52 53 56 145 202 200 182 72 52 63 65 54 66 60 130 106 55 82 119 189 185 183 196 200 200 209 219 227 232 231 222 203 183 159 160 167 204 221 233 235 224 201 161 126 107 107 123 136 150 171 171 175 181 169 156 135 93 84 71 59 60 51 53 79 112 193 203 204 208 210 195 124 125 132 135 141 148 153 161 166 167 147 144 157 141 135 138 126 139 147 154 152 132 112 125 117 121 120 127 118 108 100 106 96 109 106 88 98 97 125 109 82 82 91 111 124 134 136 121 138 145 144 119 101 139 123 114 149 142 135 150 184 187 201 201 201 
46 49 47 48 48 48 46 50 50 53 58 55 65 61 60 51 50 153 194 182 172 60 46 55 75 65 66 76 165 161 78 82 130 192 199 196 196 190 179 172 163 151 150 166 152 141 150 169 172 170 199 227 239 238 226 193 150 154 161 153 148 158 183 187 193 198 202 189 174 166 123 66 65 59 57 82 118 144 180 207 200 204 208 207 190 121 123 132 136 141 152 147 149 151 123 136 135 163 136 131 135 134 115 107 104 102 121 129 127 120 109 102 96 112 106 116 120 113 114 91 111 102 91 108 104 93 98 93 76 108 141 137 93 83 86 92 94 103 86 84 58 69 83 76 100 103 122 142 157 149 
44 52 49 47 46 44 49 51 53 61 66 58 77 73 73 80 67 152 161 112 136 66 59 51 57 73 75 77 176 193 175 87 143 208 208 200 185 167 139 109 133 175 94 106 95 136 177 132 170 180 186 228 247 247 233 174 152 169 140 144 192 114 98 85 95 132 117 133 147 152 137 63 59 55 67 143 189 193 198 211 201 208 206 201 188 125 126 137 154 145 129 116 124 107 116 122 104 100 108 121 107 141 143 122 139 126 122 129 147 135 117 108 126 123 108 112 112 117 113 123 140 109 111 109 107 132 123 129 115 111 133 138 107 93 89 97 109 91 70 80 86 86 71 71 85 95 101 101 114 101 
63 52 52 48 44 49 51 53 58 53 50 59 69 73 72 78 85 105 117 88 108 73 70 66 55 58 72 86 190 199 210 163 154 208 214 214 200 182 165 148 172 192 171 167 177 187 186 169 191 202 188 228 246 247 233 169 173 197 168 179 209 185 153 144 165 179 111 96 125 149 140 60 63 53 85 138 206 210 198 214 205 208 202 202 191 126 134 136 129 116 109 101 103 116 111 123 111 109 120 105 109 109 117 106 112 98 96 117 123 87 108 102 122 113 130 114 110 101 112 90 118 131 126 113 114 118 127 129 125 125 126 122 112 89 121 116 118 103 105 89 92 95 77 89 89 88 85 93 106 118 
42 49 48 43 44 49 52 57 52 49 48 47 56 57 61 67 75 81 79 79 86 73 67 74 71 60 58 84 196 204 211 193 170 203 218 220 211 206 211 201 190 187 194 197 196 189 186 201 209 195 199 232 243 242 232 180 170 197 198 185 187 195 197 193 181 167 164 165 170 186 147 56 63 64 105 117 212 215 207 206 206 205 206 211 182 118 121 112 126 121 96 90 82 113 94 87 101 91 101 109 105 88 98 102 100 110 99 110 120 97 98 104 88 93 106 102 82 89 96 93 108 108 94 86 111 118 122 112 96 102 121 106 96 117 121 96 112 114 126 127 110 107 105 113 90 106 113 115 115 119 
48 60 64 52 51 53 55 46 44 52 48 46 53 54 59 55 59 69 73 74 74 71 70 70 68 73 58 60 178 204 207 192 172 200 217 220 221 221 224 227 227 226 226 226 227 227 230 228 218 205 208 235 242 240 229 191 194 198 216 221 217 216 216 211 210 209 209 209 202 210 110 61 54 113 138 142 213 222 214 183 206 203 177 169 124 96 103 113 144 104 128 141 111 108 103 87 90 92 106 114 109 119 90 98 110 120 104 111 108 97 98 110 90 95 100 97 109 122 109 120 146 112 103 106 92 120 122 100 93 88 96 91 93 115 107 100 106 114 121 101 99 94 92 105 107 96 94 94 114 97 
56 64 63 70 66 68 64 60 49 43 45 46 54 55 65 72 64 65 57 60 67 67 71 72 67 69 70 52 128 206 201 174 163 194 209 220 228 232 233 234 238 240 242 243 242 240 237 229 217 208 221 240 246 240 225 205 204 212 223 234 235 238 241 241 238 236 234 228 224 188 94 134 141 173 151 158 200 219 205 154 157 119 117 106 78 101 87 114 103 90 117 109 101 118 88 85 114 113 111 111 94 75 74 64 109 114 95 113 114 101 87 114 107 89 84 84 101 69 98 106 110 113 91 96 101 120 106 91 98 99 88 119 135 97 105 109 98 115 106 82 86 109 88 86 99 118 105 91 107 125 
67 73 75 71 79 65 62 68 71 61 52 50 56 56 57 60 72 80 73 55 57 62 65 64 65 64 71 59 65 185 209 194 156 191 207 220 223 227 230 234 239 242 242 242 243 241 235 228 212 216 234 244 246 241 225 209 202 215 226 233 237 239 241 243 243 241 235 229 229 210 204 213 199 181 138 169 218 215 175 95 91 88 101 79 79 95 85 97 106 120 105 84 95 119 88 109 122 120 137 102 122 86 85 87 134 134 120 96 98 123 124 103 77 98 75 77 76 96 108 116 115 126 91 89 110 130 110 75 98 99 100 114 103 123 93 120 109 90 103 107 91 100 83 104 105 91 97 81 115 143 
64 70 70 72 76 77 68 65 64 72 74 58 50 50 53 49 44 116 94 59 56 53 59 60 62 60 57 67 54 105 211 197 145 186 202 215 218 224 225 228 234 239 241 242 242 242 239 220 208 225 237 243 244 240 227 209 203 203 227 236 241 241 241 242 240 238 235 232 230 229 220 207 189 178 120 177 224 209 118 90 95 102 90 79 84 80 68 104 94 84 106 105 108 114 103 101 98 98 109 128 97 82 85 99 96 104 116 93 78 85 88 123 105 112 105 98 91 108 130 91 115 102 113 106 110 107 91 96 105 102 112 104 68 79 98 100 113 106 105 102 81 79 101 107 85 99 108 83 105 100 
49 58 61 57 62 69 74 71 64 64 66 70 63 47 50 52 40 149 171 99 64 54 55 62 56 53 52 53 54 71 203 223 170 172 200 206 207 217 219 226 232 237 240 242 243 238 230 215 216 227 237 243 241 240 232 218 211 202 221 241 244 245 245 243 238 233 230 228 226 218 210 202 186 166 131 193 238 161 85 94 97 102 85 87 98 107 56 60 55 89 85 92 109 68 87 110 99 103 93 108 87 60 54 86 110 106 92 64 61 64 87 85 72 77 89 88 101 107 99 94 110 100 76 112 124 104 96 110 103 90 90 102 110 97 101 105 115 99 123 108 103 111 85 67 94 80 70 93 96 72 
47 52 52 51 51 54 54 65 65 64 67 64 72 66 49 49 41 144 191 167 107 63 51 50 55 51 47 48 44 76 217 237 194 161 194 205 205 211 216 221 228 233 238 238 235 227 221 224 225 232 243 251 248 243 240 226 221 226 210 235 241 241 241 241 238 233 228 226 222 216 206 197 179 153 166 228 243 181 87 97 103 92 88 91 69 68 60 56 81 96 90 46 91 92 94 130 128 113 101 67 86 60 59 90 83 139 128 91 85 103 101 90 86 92 95 49 43 85 104 97 75 130 113 104 95 112 104 79 105 116 98 110 116 124 116 97 109 135 102 91 115 109 106 109 90 76 86 84 100 130 
57 56 58 61 55 54 50 43 53 56 62 62 64 65 60 51 38 139 192 182 157 56 64 49 51 57 53 47 47 42 92 171 163 151 189 202 205 210 211 217 226 232 236 232 229 230 211 194 198 215 242 248 245 226 188 184 199 205 202 229 236 238 238 238 237 232 225 224 222 211 198 191 168 148 158 220 197 111 92 96 76 74 78 91 82 66 74 80 109 106 105 93 88 102 97 91 83 78 79 73 65 74 106 104 80 106 110 100 103 110 109 122 114 89 76 94 57 62 100 92 111 167 125 95 120 132 101 128 109 97 111 127 117 111 100 111 105 87 111 87 86 118 110 80 104 85 84 96 87 103 
53 75 54 58 54 63 62 59 48 49 46 52 60 59 59 57 40 133 190 181 162 52 45 61 49 45 58 58 52 50 43 39 53 143 182 195 203 213 215 218 226 231 234 229 230 232 225 197 186 192 204 205 197 175 178 192 187 192 218 230 232 234 238 236 234 228 226 222 217 204 192 187 164 144 85 90 73 82 83 67 68 63 57 61 68 54 49 82 103 94 90 83 84 91 100 89 84 81 76 94 85 116 120 97 62 81 85 89 92 92 112 102 113 107 88 112 78 74 98 105 118 125 169 108 63 70 86 117 123 106 104 101 82 96 81 79 91 96 113 106 107 91 76 81 95 76 66 96 113 119 
34 46 49 56 54 58 66 67 64 59 50 46 50 55 50 55 50 139 190 181 166 56 48 47 61 42 45 52 56 55 54 51 44 120 169 188 193 202 215 221 224 226 226 230 230 227 209 215 204 204 205 195 193 208 208 205 208 223 228 229 233 230 226 230 227 225 222 217 209 196 190 173 159 123 60 61 86 73 53 57 52 49 51 46 46 55 71 77 81 89 83 86 92 93 96 91 82 75 76 78 81 95 109 86 85 86 86 95 86 81 83 69 81 92 91 100 123 96 108 111 103 107 136 79 83 121 111 118 120 92 83 83 81 85 59 78 91 118 104 69 117 137 104 99 82 85 95 97 103 128 
46 50 58 47 50 57 61 60 59 61 56 54 43 43 49 48 49 83 176 183 157 46 47 53 55 60 43 41 51 62 59 52 46 95 161 174 183 194 207 214 219 217 216 221 223 207 165 201 210 210 219 224 221 225 218 206 211 216 216 214 220 221 219 215 214 217 216 207 197 192 179 167 157 92 49 76 65 45 46 50 48 53 52 63 76 79 83 85 90 91 89 91 81 71 60 65 66 79 78 69 87 115 109 98 102 106 95 97 97 76 127 128 75 63 74 95 107 102 148 141 87 81 82 86 114 112 68 80 77 86 121 88 90 109 91 92 106 84 101 114 114 150 119 92 88 105 100 86 83 102 
42 42 43 41 40 43 47 51 58 51 49 53 55 45 41 42 45 38 88 178 150 44 47 47 47 58 57 40 46 57 64 61 54 67 149 164 173 183 202 208 207 204 209 213 209 208 207 226 232 230 235 235 238 239 238 235 233 226 218 214 211 213 208 201 206 211 205 200 182 180 174 163 142 61 50 45 40 39 48 52 66 55 69 79 73 81 82 87 93 90 76 64 59 64 67 70 80 78 75 80 90 91 87 88 75 81 87 99 89 67 78 90 67 72 84 109 91 79 91 104 75 66 114 112 114 90 75 67 102 120 89 51 78 101 95 109 101 115 92 101 102 148 125 86 106 100 77 91 103 77 
43 49 44 42 38 44 52 45 52 51 46 43 45 50 48 40 40 43 35 94 143 44 43 51 60 53 58 54 40 44 56 66 61 46 121 160 161 172 194 200 197 187 196 205 209 214 219 211 207 203 201 209 215 205 196 194 191 192 200 203 199 210 207 196 200 210 202 192 174 172 170 154 104 42 41 39 39 53 57 64 71 62 70 66 73 74 79 83 73 64 57 64 72 71 79 85 81 75 74 81 92 98 94 106 92 92 88 69 78 94 76 86 93 85 93 76 65 72 81 66 90 107 86 65 70 94 105 108 110 78 75 60 63 88 91 102 93 82 79 64 67 108 110 113 97 103 73 66 92 99 
34 36 39 38 33 50 68 61 75 53 53 56 46 42 49 51 43 40 38 35 77 41 32 37 48 56 51 51 46 42 46 58 63 48 76 150 164 160 172 195 199 187 190 185 179 156 137 136 142 149 153 158 154 162 161 153 148 148 141 133 161 194 203 191 198 206 193 175 165 170 162 133 66 55 46 54 65 74 62 58 62 65 66 66 67 70 73 66 61 68 72 72 72 79 78 76 78 78 88 101 111 108 114 122 114 113 124 104 74 69 89 134 150 142 134 124 111 109 108 104 111 105 99 105 127 134 143 122 133 105 100 87 89 85 83 94 82 62 60 65 73 67 86 102 91 96 67 67 80 113 
35 42 38 40 40 45 45 80 74 43 56 56 49 47 39 40 44 44 42 38 31 52 90 103 102 99 61 46 50 46 45 50 55 52 41 93 150 153 162 175 193 195 192 198 204 193 171 172 173 179 183 179 176 181 186 184 183 187 185 186 194 203 194 193 196 198 177 170 167 165 136 104 55 60 72 75 96 70 54 55 54 49 55 56 59 61 60 58 65 64 67 75 76 70 67 79 87 101 98 109 120 112 120 131 119 107 111 102 107 86 77 107 141 156 167 161 158 152 151 143 143 135 141 144 146 156 157 153 141 129 126 122 120 129 126 100 94 108 101 75 77 82 95 79 68 63 59 78 103 99 
53 47 47 52 47 39 34 40 39 41 41 45 53 62 86 59 39 43 40 40 34 45 111 120 83 76 62 51 50 46 43 44 43 40 40 44 111 139 147 164 178 184 191 213 217 209 202 193 189 187 196 205 204 202 200 189 185 186 188 190 200 212 199 188 187 174 162 163 157 140 94 116 69 67 70 71 72 54 49 47 46 50 50 52 56 58 59 59 60 63 72 70 63 67 75 93 103 103 100 111 106 98 97 103 89 84 88 92 91 89 84 86 112 143 158 162 167 165 166 164 168 172 164 165 166 166 164 161 161 150 148 147 148 145 145 140 136 145 149 133 108 106 138 127 113 105 101 95 81 66 
37 43 48 49 46 64 81 78 106 116 120 123 119 93 103 86 57 42 39 38 42 32 26 47 58 66 62 49 48 47 50 45 42 41 43 36 52 111 131 147 160 161 171 189 201 204 202 196 191 176 173 167 171 169 168 172 176 186 190 194 202 200 186 172 164 152 143 138 127 92 99 129 46 74 75 68 53 46 40 44 48 45 49 55 56 61 56 60 66 69 66 70 68 69 74 78 77 79 77 75 71 74 73 72 75 78 89 84 83 81 78 82 94 101 109 121 119 121 126 129 134 139 144 148 151 154 161 168 167 166 171 165 166 162 162 159 162 161 162 165 159 157 157 163 161 156 144 142 138 130 
75 99 88 117 134 125 133 97 118 103 86 74 74 64 54 60 58 58 47 41 37 34 31 36 66 68 63 51 45 43 43 47 48 40 47 55 70 119 104 126 138 149 160 171 184 204 207 207 206 209 197 197 200 198 202 205 205 203 200 206 202 189 176 172 153 141 131 122 95 79 148 137 63 70 65 70 68 64 58 55 53 54 57 59 60 56 58 61 62 58 51 54 60 51 55 60 54 52 60 65 69 75 77 77 80 75 76 74 74 71 72 72 87 114 123 135 145 147 144 140 134 129 127 123 120 118 118 118 121 131 137 140 141 144 170 170 167 170 169 169 170 172 159 170 172 165 161 164 167 163 
96 121 75 84 73 61 64 57 56 61 59 58 53 61 62 60 58 70 65 52 43 37 33 33 42 71 69 56 50 54 50 47 63 65 70 72 55 127 121 90 116 135 149 160 181 205 217 217 219 216 209 223 234 228 228 226 221 218 214 209 197 187 170 161 143 125 115 81 78 127 170 145 124 70 57 58 57 62 67 69 76 75 69 66 58 49 43 38 39 46 48 77 90 96 83 77 63 68 73 76 74 70 63 58 59 61 61 66 70 73 79 88 101 161 159 161 167 169 167 170 173 175 174 171 168 164 157 155 129 86 92 114 116 126 173 170 170 170 169 173 171 169 167 174 168 167 169 167 171 162 
49 47 58 46 44 55 47 48 59 57 51 53 62 64 62 48 72 56 63 66 61 46 36 31 26 37 87 82 72 64 72 69 67 64 57 61 52 133 155 108 83 101 136 161 168 185 199 211 209 212 218 223 228 227 223 221 216 206 194 193 177 170 151 130 123 98 71 80 131 156 172 152 137 67 50 51 51 52 53 59 63 67 72 73 76 73 68 61 71 96 119 112 99 86 64 61 65 70 67 57 50 49 59 68 75 84 88 104 101 104 93 100 97 149 156 156 154 157 157 156 156 161 159 162 164 165 165 170 129 84 92 143 171 173 172 164 167 171 174 170 176 177 176 170 167 168 168 168 175 164 
39 57 51 43 46 38 34 37 46 55 62 50 46 45 43 56 72 64 62 62 65 54 45 40 45 54 70 67 68 63 53 47 53 49 60 49 71 155 161 149 122 89 84 116 144 162 174 191 205 212 219 220 217 219 222 210 204 193 178 176 162 143 119 101 75 64 97 137 151 169 175 160 127 56 52 54 52 55 51 64 60 59 53 54 58 61 65 69 74 84 95 86 67 56 57 53 52 51 52 60 69 89 97 101 110 115 103 113 107 105 92 97 92 135 162 160 160 160 153 152 157 160 154 157 158 160 157 155 112 89 104 149 163 161 164 156 166 169 175 169 171 178 177 173 170 173 172 170 169 166 
34 38 32 32 36 47 46 46 39 42 51 58 47 41 39 62 65 82 74 64 63 69 64 64 63 65 62 59 56 59 48 50 53 56 57 56 137 165 169 161 153 133 110 82 87 127 151 168 191 207 208 193 181 187 200 198 193 180 155 148 131 101 70 61 81 120 144 152 170 183 178 171 107 45 51 52 53 52 49 56 59 51 51 56 58 56 54 53 52 52 56 65 74 77 73 59 61 71 96 98 102 98 96 96 104 107 99 103 99 84 72 64 78 99 112 127 149 155 157 158 163 160 158 163 161 159 159 169 116 89 108 146 161 162 163 166 165 163 172 174 174 177 175 170 172 169 170 175 170 167 
54 54 47 67 59 64 55 50 52 44 31 63 65 49 53 58 54 68 76 67 64 64 61 57 52 51 51 50 54 58 45 48 52 53 51 60 162 166 173 179 172 159 153 138 105 86 103 116 137 159 168 156 141 146 160 164 157 125 112 94 62 60 82 116 146 156 157 173 183 183 182 170 67 47 49 51 53 49 51 56 52 51 51 51 57 61 58 56 56 53 54 56 57 65 67 68 72 74 77 84 83 90 86 83 85 91 85 75 71 65 68 75 75 61 52 72 104 102 112 144 145 150 160 152 151 156 150 139 104 87 107 155 165 160 163 163 166 168 167 169 171 175 174 168 167 171 176 177 168 167 
80 90 64 78 86 76 68 65 67 59 62 72 86 95 84 71 62 62 58 55 54 52 50 51 47 47 48 50 50 51 42 48 49 49 52 43 135 181 173 187 180 175 168 156 146 140 112 97 90 87 85 84 92 89 84 82 75 64 62 72 94 125 147 156 165 174 183 192 192 185 198 117 43 49 51 53 51 47 54 55 54 51 48 52 57 61 59 56 54 54 54 56 57 62 64 60 61 63 63 67 68 70 73 75 75 73 74 76 82 81 76 71 72 75 82 82 67 63 74 77 69 93 111 94 95 98 76 69 78 80 108 159 156 160 159 161 163 166 170 172 167 171 174 170 167 173 169 171 174 170 
62 74 81 78 76 64 72 67 70 80 91 98 93 77 65 55 51 49 47 48 48 45 48 47 46 46 44 47 48 49 44 44 48 47 50 45 76 182 174 185 193 183 182 177 163 152 149 142 138 123 115 111 108 100 96 99 104 114 127 140 145 153 158 173 182 190 194 194 190 204 147 47 50 52 52 53 49 52 55 54 53 51 49 50 53 59 59 52 51 56 53 54 52 59 61 59 59 59 60 61 62 63 65 70 69 77 88 92 84 90 81 81 86 86 80 75 73 79 85 86 97 95 84 81 75 69 79 87 94 86 108 159 152 156 160 161 164 164 171 170 167 170 169 173 171 172 169 171 176 164 
49 69 68 53 72 67 67 67 74 78 82 72 57 46 46 47 45 45 47 48 47 47 48 47 45 45 44 45 47 45 49 41 46 45 49 50 41 124 196 181 190 195 191 189 182 169 158 149 148 147 150 152 153 146 149 150 154 154 147 155 155 166 178 185 192 193 195 196 205 149 48 45 51 52 54 52 53 57 55 54 53 53 51 51 54 59 56 52 52 55 54 51 51 57 59 56 57 58 57 57 58 60 61 64 66 68 69 84 99 103 100 102 84 72 75 74 80 88 90 93 87 75 72 72 78 87 95 99 104 82 115 157 154 155 160 161 164 156 167 164 164 173 169 170 169 170 175 173 173 166 
60 41 51 54 66 65 71 64 69 63 51 43 44 45 46 47 45 46 47 47 48 48 47 47 44 44 43 44 45 45 48 44 44 49 49 47 47 49 143 201 186 188 197 197 192 187 176 167 160 159 159 158 155 153 153 162 169 164 167 176 186 189 194 198 195 197 205 195 119 43 43 48 51 52 52 53 55 54 57 54 53 52 50 47 55 60 57 55 53 52 53 49 49 57 58 52 56 56 53 55 57 58 57 60 62 65 67 65 66 69 73 71 73 76 77 84 84 79 73 73 68 67 77 84 94 97 102 110 74 73 126 156 152 159 162 164 165 167 167 170 167 166 172 170 175 165 129 173 171 166 
64 53 48 66 69 70 77 68 56 46 43 46 47 43 44 47 45 48 46 47 47 46 46 46 43 45 44 45 43 44 47 48 40 48 47 46 48 47 45 118 191 198 193 194 197 201 197 191 185 181 178 181 180 178 179 184 187 190 195 199 203 202 204 203 206 196 146 72 35 48 50 50 52 54 51 54 53 56 57 55 51 50 48 49 55 58 57 54 53 52 51 48 46 53 55 52 51 50 51 54 56 54 56 60 57 57 65 68 65 58 61 70 82 81 79 72 71 68 69 75 84 94 99 103 99 105 129 121 68 86 130 156 153 157 163 161 165 167 167 170 172 173 171 170 172 171 94 145 174 165 
56 62 63 49 54 52 52 46 43 45 44 42 45 44 42 43 44 43 44 44 44 43 43 46 45 43 44 45 44 45 45 47 42 47 47 45 46 44 48 38 76 144 186 205 210 210 206 201 201 202 198 197 195 196 197 199 198 198 201 211 216 218 209 181 130 74 36 40 46 47 52 53 54 51 51 50 52 55 52 53 52 50 49 51 51 57 55 52 52 51 50 47 46 53 53 50 52 49 52 54 53 54 54 58 57 54 58 66 67 61 57 53 65 77 72 70 74 81 90 96 104 106 106 84 88 112 122 105 78 83 129 147 143 151 154 156 156 162 167 163 170 173 172 170 169 177 105 87 169 167 
39 61 59 51 65 51 47 40 43 47 44 41 42 43 43 44 42 40 41 45 47 46 44 46 44 42 45 45 46 45 45 47 48 45 47 47 46 46 48 51 41 39 67 113 159 197 215 221 220 218 214 209 212 215 215 215 219 221 221 214 189 142 91 54 35 39 47 49 48 50 53 53 53 50 51 53 53 55 54 53 54 51 51 51 53 56 55 54 52 49 50 47 47 50 51 49 54 53 53 54 52 51 53 59 56 53 54 54 62 59 59 52 52 59 74 88 92 103 106 104 93 82 87 90 96 98 106 96 80 83 119 131 129 139 147 152 153 159 163 162 166 170 173 172 167 171 137 68 142 169 
52 57 45 53 38 44 45 39 43 46 43 43 43 42 44 45 43 40 41 44 46 45 45 44 43 42 44 44 44 44 46 46 45 45 45 44 46 45 47 48 49 45 42 36 39 61 95 128 156 175 192 199 202 196 188 183 169 147 116 79 47 33 34 42 46 47 50 50 51 51 51 53 54 53 53 52 54 55 54 54 55 53 51 51 56 57 52 53 50 51 50 49 45 47 52 47 52 51 50 52 52 49 52 55 52 50 51 53 59 57 53 51 50 54 57 84 110 105 109 88 54 47 46 46 49 57 62 73 85 92 123 128 121 122 128 130 136 145 151 150 150 160 168 169 171 170 165 88 125 172 
37 49 45 37 36 42 40 40 41 43 43 41 39 41 42 44 43 41 41 43 43 44 44 45 45 44 44 44 44 42 45 46 44 45 47 47 44 45 47 47 47 45 46 47 46 40 33 32 34 38 47 55 55 50 47 43 36 31 32 35 41 46 45 45 49 49 51 51 52 53 55 54 51 51 51 52 54 53 52 53 53 53 52 52 53 52 52 52 50 50 50 48 45 44 50 47 48 49 50 51 50 51 52 50 51 49 51 52 58 62 54 51 51 49 53 52 73 110 121 126 131 131 122 112 103 90 78 77 80 96 153 170 169 171 170 168 166 163 156 149 157 156 151 149 152 152 161 113 85 150 
41 50 37 35 34 38 39 38 37 40 40 38 37 39 40 43 41 39 39 41 41 42 41 43 45 44 45 42 43 44 43 44 45 44 44 46 46 46 43 44 45 45 47 44 42 43 46 45 45 42 41 40 39 42 42 40 41 45 45 45 47 47 46 47 50 50 47 48 49 51 51 51 52 50 50 49 52 50 51 52 51 48 50 51 47 51 50 49 47 49 49 46 46 44 46 47 47 48 47 49 48 49 48 48 49 49 49 52 52 59 57 49 51 49 48 52 45 71 118 122 125 124 128 135 140 135 129 93 69 89 153 157 155 167 170 174 177 167 164 174 186 187 184 178 172 164 157 129 70 108 
