P2
150 65
255
62 65 58 67 104 104 108 112 116 121 125 128 134 138 142 145 146 148 147 146 145 144 143 141 139 135 110 95 122 127 123 121 118 115 116 115 113 111 111 82 46 88 113 109 112 112 112 112 115 115 117 117 117 116 117 118 120 118 115 117 116 109 102 113 114 69 75 113 112 110 109 109 104 88 109 107 107 106 105 104 104 104 102 103 102 103 98 63 77 101 98 98 95 95 96 95 94 94 94 94 96 96 97 101 101 106 107 108 110 113 113 115 117 117 120 121 122 124 126 128 130 130 131 132 133 134 135 136 137 137 137 137 137 137 137 137 137 137 137 138 137 137 136 135 135 135 133 133 135 128 
33 42 53 69 84 82 83 85 87 88 90 92 94 96 98 101 105 109 112 117 121 126 131 134 140 145 147 151 155 160 164 167 168 169 169 164 162 166 167 152 132 147 154 145 143 142 138 134 131 130 127 125 123 127 122 114 112 119 120 119 118 95 94 108 103 80 80 119 116 117 116 116 104 98 116 113 115 113 114 112 110 109 108 109 107 107 103 65 83 107 102 103 101 100 100 99 99 100 100 100 102 102 102 106 110 113 115 117 119 120 123 124 126 127 129 131 133 135 137 138 139 142 143 144 144 145 146 146 147 147 147 148 148 148 148 146 147 148 147 147 147 147 145 145 146 145 143 142 143 138 
67 85 92 91 89 90 91 93 94 94 94 95 96 97 96 97 97 98 98 98 97 97 98 98 98 98 94 90 89 92 90 88 84 79 78 76 81 135 141 145 151 152 155 166 170 170 170 165 153 147 158 164 152 145 130 134 135 123 133 133 116 110 101 92 103 90 96 125 123 122 112 114 95 103 114 110 108 108 110 110 108 107 106 106 104 106 100 66 85 107 103 105 103 99 100 100 99 100 102 101 101 102 103 107 111 114 118 121 122 124 128 128 129 131 134 137 139 141 142 143 143 146 148 148 148 149 149 149 150 150 149 151 150 150 150 149 149 149 150 148 148 148 148 146 146 146 146 145 145 138 
86 91 89 91 94 96 97 98 100 100 101 103 104 105 105 105 106 107 108 109 109 109 108 108 106 104 83 67 68 60 57 62 69 81 92 106 116 117 117 110 100 98 99 93 88 84 83 77 72 79 94 105 106 92 97 109 125 109 104 116 125 122 138 134 122 111 138 150 147 124 141 137 126 131 130 137 136 135 133 131 126 121 117 114 110 109 101 65 83 104 99 102 99 94 95 95 96 97 98 102 103 102 104 108 115 119 122 125 127 128 130 132 135 136 138 141 144 145 145 147 148 149 150 150 151 152 152 153 154 154 153 154 153 152 153 153 152 153 153 150 150 150 150 149 148 148 147 146 147 139 
82 91 91 93 94 97 98 99 100 101 102 103 104 107 107 107 109 110 110 111 112 111 110 109 108 109 81 62 44 76 104 116 124 129 129 128 127 125 125 106 73 69 70 73 76 80 79 79 86 82 97 89 95 95 91 92 86 81 70 74 89 69 87 99 102 101 97 101 106 113 114 96 88 85 87 95 113 141 148 148 149 148 147 146 144 143 139 130 131 133 129 129 125 120 119 116 114 113 111 108 109 108 107 112 122 125 127 129 131 132 134 138 140 141 143 146 147 148 149 150 151 152 153 154 155 155 156 156 156 156 156 156 156 156 156 155 155 154 153 152 151 151 151 151 151 150 148 149 149 142 
84 92 92 93 95 97 98 100 101 101 102 103 105 106 108 108 110 112 111 113 112 112 111 110 108 111 83 57 44 126 127 128 126 126 127 127 126 125 129 108 77 59 76 79 82 82 94 98 96 90 100 101 92 84 76 83 98 86 75 75 69 61 60 73 83 75 82 94 106 112 102 98 98 83 88 83 78 93 118 116 116 117 117 117 116 117 116 112 111 113 113 112 110 108 106 101 99 95 86 113 119 117 115 120 127 128 131 133 134 136 139 142 143 146 147 149 149 151 153 153 154 155 156 155 157 158 158 158 158 158 157 158 158 157 158 157 156 155 155 154 153 153 154 152 152 152 151 150 149 143 
86 94 93 93 96 97 98 100 100 102 104 105 106 106 108 108 110 111 112 114 113 113 114 113 110 114 81 50 63 129 123 126 129 130 129 131 130 124 128 107 72 76 80 69 66 78 83 91 100 104 96 72 75 64 58 80 89 77 96 74 65 57 57 68 67 77 75 89 107 113 105 83 84 77 74 74 73 102 127 118 115 112 111 109 105 104 95 66 65 64 62 64 66 69 75 80 86 92 97 109 113 114 119 126 128 131 133 135 138 140 142 146 147 149 150 151 153 153 154 155 156 157 157 157 159 160 159 159 159 159 159 159 159 159 159 158 159 157 157 155 155 155 155 154 154 154 153 151 152 143 
86 94 93 95 97 99 101 101 103 104 104 106 107 109 109 110 111 112 113 114 115 116 117 116 113 114 84 49 84 132 125 128 129 131 132 131 130 131 133 106 76 80 72 65 86 108 77 73 82 76 70 67 80 66 71 63 56 62 79 83 61 47 55 58 78 86 68 75 75 96 112 97 88 74 68 68 66 85 98 116 113 111 110 107 103 101 85 56 52 60 97 103 104 105 110 112 111 113 114 112 114 118 125 130 132 135 138 139 142 144 145 148 150 151 152 154 156 157 156 157 158 159 160 159 159 161 160 160 161 161 161 162 162 161 159 159 158 158 158 157 156 156 155 155 155 154 153 152 153 144 
86 94 94 96 98 100 101 102 104 105 106 106 109 110 111 111 112 113 115 116 117 118 119 118 118 115 86 61 110 130 128 131 132 133 134 136 137 128 100 79 77 71 72 95 94 92 111 102 74 58 83 97 70 71 97 90 67 56 47 54 58 56 63 68 77 69 77 91 107 108 107 104 86 80 84 113 98 83 75 84 95 105 109 107 103 101 83 54 49 85 112 111 110 108 108 109 109 110 112 111 117 125 131 133 136 139 143 145 145 147 148 151 153 154 156 157 158 159 160 160 160 161 162 162 163 161 163 163 162 162 162 162 162 163 162 166 166 163 163 161 160 159 157 158 157 155 154 153 154 145 
88 95 96 97 99 100 102 104 105 106 106 108 109 110 112 112 114 115 116 117 118 119 121 120 121 118 87 63 112 133 130 132 135 135 136 135 106 75 61 65 66 58 82 100 72 77 95 95 84 82 82 77 75 96 120 121 75 65 60 51 61 73 73 79 91 80 63 71 88 119 123 93 84 75 97 121 98 97 80 79 78 89 100 108 106 103 82 46 55 97 103 107 106 108 111 112 112 113 114 115 123 130 135 137 141 144 145 147 148 150 152 154 155 156 157 159 160 161 162 163 163 164 163 164 165 164 164 164 164 164 164 164 163 165 163 140 129 143 146 145 149 152 154 156 157 159 160 159 161 153 
89 97 96 98 100 100 102 104 106 106 109 110 110 111 113 114 116 116 116 118 120 121 122 123 123 121 92 68 113 135 132 136 138 138 141 125 77 69 65 66 59 56 81 67 74 99 83 80 96 105 98 94 96 78 75 108 92 86 81 70 70 74 76 82 92 95 78 71 75 89 98 88 75 73 76 87 91 86 83 75 79 91 96 94 105 109 85 62 83 100 99 102 102 105 111 112 113 114 117 122 129 135 137 140 145 147 149 151 152 153 155 157 158 160 161 161 162 163 164 165 165 166 165 165 166 165 166 166 166 166 165 165 164 172 107 50 72 82 80 81 82 84 84 86 89 94 96 99 106 102 
90 97 96 97 99 101 103 105 106 107 109 110 111 113 114 115 117 117 117 120 122 122 123 125 126 123 94 70 115 138 136 138 139 142 115 75 72 69 61 61 64 89 92 61 71 92 115 115 119 133 140 136 134 120 122 125 128 122 122 113 100 100 94 94 104 110 84 81 84 86 75 81 65 64 77 101 117 103 82 73 61 66 71 64 87 113 88 73 94 101 97 96 98 103 110 113 116 117 120 128 133 138 140 144 148 150 152 154 155 156 158 160 160 162 164 164 165 167 166 166 167 167 167 167 167 168 167 167 168 168 168 167 165 173 90 52 82 83 81 80 78 77 77 76 73 73 73 72 70 65 
86 96 99 100 100 102 105 107 108 108 108 110 111 113 115 116 119 120 120 121 123 124 125 125 126 124 96 72 116 139 137 140 142 142 132 88 72 75 61 66 82 107 95 79 100 131 142 149 152 157 169 180 183 184 179 173 175 174 170 162 158 161 144 150 156 141 102 86 107 114 109 89 68 66 84 114 107 89 73 74 61 73 74 65 73 110 88 73 95 101 95 92 93 99 104 110 116 122 127 135 138 141 146 148 150 153 154 155 158 159 160 161 162 163 165 166 166 168 169 168 168 168 168 168 168 169 169 170 170 169 168 168 167 173 84 59 82 81 81 79 80 79 79 78 74 76 76 76 77 69 
94 97 91 90 91 95 95 96 97 103 111 111 112 114 115 118 119 120 123 123 123 125 125 128 128 124 99 74 117 141 139 143 145 148 131 71 67 81 84 71 84 88 91 109 136 149 157 165 170 176 180 187 188 194 193 192 193 188 189 186 184 183 177 178 168 161 147 136 159 159 152 136 132 106 83 78 84 87 70 66 89 110 88 78 71 80 82 79 94 101 96 93 92 95 99 108 115 125 135 140 143 144 147 150 152 154 156 158 160 161 162 164 165 166 168 168 168 169 169 169 170 170 170 170 170 169 169 169 170 169 168 168 168 170 76 61 82 81 79 78 80 79 77 78 76 76 74 73 76 67 
96 120 104 79 83 81 82 80 78 82 95 104 109 114 113 116 118 116 117 118 121 122 127 128 130 128 102 81 118 144 143 147 147 146 87 60 70 98 94 96 102 96 127 149 162 166 167 174 180 184 185 188 191 193 197 197 197 195 191 191 194 191 183 183 174 171 173 180 172 169 166 158 151 153 120 81 93 100 93 75 113 106 79 72 66 57 73 83 96 101 97 94 93 96 101 112 119 131 140 142 145 147 148 152 155 157 159 161 161 163 165 166 167 168 169 170 169 170 171 171 172 171 171 171 171 171 170 171 171 170 170 169 170 162 66 67 81 80 81 80 78 77 78 78 77 75 76 75 77 70 
88 95 96 98 97 99 102 102 117 124 135 129 121 129 131 142 126 144 145 151 143 142 123 135 132 131 128 141 143 135 125 135 144 92 49 69 79 74 79 78 102 137 154 164 174 180 185 186 188 194 195 198 197 197 198 197 199 200 196 196 200 198 194 194 194 192 191 186 182 177 176 170 162 153 147 109 99 118 108 85 71 74 73 61 56 54 62 80 99 103 98 94 92 98 104 112 124 137 143 147 149 149 151 155 158 160 161 162 164 165 167 168 168 170 170 170 172 172 171 172 172 173 173 172 173 172 171 172 172 171 171 169 173 153 58 72 82 81 82 79 78 79 77 77 76 76 77 76 75 69 
94 104 106 109 111 111 120 125 133 125 137 129 126 124 129 131 127 139 144 147 135 133 128 131 123 127 131 127 134 126 123 124 111 47 54 64 67 78 86 102 136 159 169 176 181 185 186 189 194 195 196 199 195 197 199 197 194 190 195 197 198 194 195 195 198 201 201 198 197 191 185 185 174 161 152 135 112 114 95 79 66 77 78 73 66 58 57 75 100 97 94 90 90 97 103 111 125 134 142 148 153 153 153 158 160 162 163 163 166 167 168 169 170 171 171 171 173 173 172 174 175 174 173 172 173 173 172 172 172 170 170 168 174 142 54 76 83 80 81 79 79 79 78 76 78 76 76 75 76 66 
134 143 141 140 143 155 154 157 157 157 160 163 168 169 169 170 171 170 171 172 175 176 178 177 180 180 179 178 179 183 182 189 146 48 50 54 92 92 102 131 148 166 175 181 185 183 183 191 192 189 190 189 192 195 194 195 193 192 194 195 193 193 190 189 190 193 198 200 201 197 192 192 185 173 168 151 138 103 101 81 70 70 63 62 63 64 61 66 111 124 121 117 116 120 125 133 139 146 153 154 159 163 162 161 163 163 165 165 167 168 169 171 171 172 172 172 173 173 173 173 174 172 173 173 173 173 173 172 172 171 171 169 176 133 53 81 83 80 78 82 78 80 79 77 77 75 75 74 75 66 
50 56 62 59 73 105 103 105 106 107 109 109 109 110 111 113 115 116 118 120 120 121 120 121 121 118 127 101 81 82 79 82 78 45 44 54 77 88 106 132 158 170 176 182 185 183 183 187 186 185 188 190 188 189 191 193 191 192 191 188 187 189 187 187 188 189 190 194 197 198 195 195 192 181 175 166 147 120 106 88 63 58 57 57 60 63 64 59 111 138 133 134 134 132 130 130 129 123 124 147 147 148 152 165 164 164 166 168 168 169 172 171 171 172 174 174 175 175 173 175 175 174 174 174 174 173 174 172 172 172 171 168 178 119 52 84 84 81 82 81 79 79 79 78 77 76 75 74 75 69 
83 95 99 103 106 103 103 105 105 106 106 106 106 106 107 106 107 108 110 110 110 109 107 107 106 104 112 82 44 66 90 97 72 45 47 51 72 92 112 143 160 171 175 175 178 179 185 190 195 196 199 201 201 200 202 198 199 201 199 203 202 198 199 196 195 191 188 189 192 193 194 195 188 180 176 172 157 139 128 117 86 70 64 73 74 75 74 69 72 71 69 71 74 78 80 84 87 90 96 113 117 120 146 163 163 165 166 168 169 170 171 172 172 174 175 174 174 175 174 174 175 175 174 173 173 173 174 173 172 171 171 168 179 112 58 86 83 81 82 79 77 78 76 76 79 76 75 74 75 69 
96 104 102 102 105 105 105 107 108 108 109 109 109 108 109 108 110 111 112 113 112 111 110 109 107 108 109 91 40 105 124 105 59 48 49 58 81 102 127 151 164 171 173 178 187 194 202 208 213 215 217 214 220 217 215 211 213 214 216 220 220 220 218 212 208 204 199 191 187 185 189 191 187 181 175 168 156 144 131 118 106 94 83 74 71 70 62 59 70 94 101 96 94 97 100 102 102 105 109 116 119 139 163 164 165 167 168 170 171 171 172 173 173 174 174 174 174 174 175 175 174 175 174 174 174 173 173 173 173 172 171 170 179 96 61 86 83 82 81 81 82 79 80 77 78 75 74 73 75 67 
94 103 102 103 105 105 106 107 108 108 107 108 109 108 108 108 109 111 111 113 112 111 110 109 108 105 111 100 48 114 116 88 49 57 56 62 87 117 136 143 139 147 158 155 156 164 174 185 199 212 221 219 224 224 224 220 221 222 226 222 226 223 217 217 213 203 195 199 193 190 189 182 177 178 168 165 160 136 127 93 73 68 76 63 65 71 75 59 63 96 102 96 93 97 100 103 102 103 107 112 126 156 164 165 168 169 170 171 172 172 174 174 174 174 174 174 174 173 175 175 174 174 174 175 174 173 173 173 173 172 171 169 175 79 65 84 81 81 81 79 80 78 80 79 78 76 75 74 75 67 
96 104 104 105 105 106 107 108 107 108 109 109 109 109 109 109 111 111 111 112 112 110 110 111 110 107 104 87 70 118 115 111 67 55 60 67 95 125 141 115 105 122 135 147 160 166 169 155 151 167 189 204 208 214 217 220 221 222 217 217 211 202 190 175 168 169 168 167 172 172 160 157 162 168 164 162 162 141 106 88 64 56 64 77 65 62 72 62 68 94 101 100 97 100 103 105 105 105 107 117 140 159 164 167 170 171 172 172 173 174 175 174 174 174 175 175 175 174 174 175 175 175 174 174 174 173 173 173 172 171 171 171 168 70 73 85 81 81 83 80 81 79 80 78 77 77 76 75 75 67 
98 105 105 106 106 108 108 108 109 110 110 109 109 109 109 110 111 111 112 112 112 112 112 112 112 110 95 79 98 118 116 119 77 55 66 83 107 128 134 119 146 166 186 204 208 207 207 205 195 187 182 191 197 205 211 218 219 216 206 202 199 195 193 183 186 193 189 190 174 158 146 136 136 148 156 162 156 153 124 85 65 56 56 61 72 63 67 66 86 106 103 101 100 102 104 106 108 109 114 131 153 162 166 169 171 172 173 173 174 175 174 174 174 174 175 176 175 175 174 174 174 174 174 173 173 173 173 173 173 171 169 174 156 61 80 85 83 83 84 82 83 80 80 77 77 77 76 74 76 67 
100 108 108 108 108 108 109 110 110 110 110 110 110 110 111 111 110 111 111 112 112 112 114 112 112 111 95 76 97 119 116 120 81 54 71 100 104 134 130 137 158 166 186 192 190 196 199 198 195 196 200 195 187 195 203 207 210 206 203 194 194 199 205 208 215 221 223 225 217 201 182 176 156 139 144 155 156 149 140 105 63 63 62 59 61 63 63 65 86 112 107 104 101 105 107 109 110 113 123 144 160 165 168 169 171 172 173 174 174 175 175 176 175 176 175 175 175 175 174 174 174 174 175 174 172 173 173 173 172 171 170 176 138 51 81 85 84 83 82 82 80 81 80 80 78 77 77 74 75 66 
101 109 109 110 110 110 110 111 111 111 110 110 110 110 111 112 111 110 111 111 111 112 113 112 112 111 96 76 97 119 117 122 98 57 76 91 97 136 140 153 155 157 148 148 163 126 106 97 124 166 177 200 197 176 176 187 193 182 176 188 204 202 185 172 171 181 199 204 197 196 192 174 176 160 140 155 161 147 133 123 79 59 60 59 54 54 50 64 95 113 108 106 104 107 110 111 113 122 139 155 163 167 168 170 172 173 174 175 175 175 176 175 176 175 175 175 175 174 174 174 175 174 174 173 173 173 172 172 172 171 167 177 121 51 83 86 84 82 80 83 81 81 81 79 77 78 76 74 75 66 
102 111 109 110 110 111 111 112 111 111 112 110 111 111 110 112 111 111 112 112 112 111 112 112 112 110 96 77 97 120 118 120 115 66 83 74 74 133 152 162 163 155 124 149 192 137 74 76 126 182 162 185 209 168 162 178 183 176 154 192 215 183 167 175 204 144 82 87 124 145 156 175 172 175 150 160 163 152 123 124 73 56 63 64 61 53 51 75 108 115 110 107 107 109 111 115 121 134 149 161 166 170 171 171 172 174 175 174 174 175 176 175 174 174 174 174 174 173 173 174 174 173 172 172 172 172 171 171 171 170 167 176 108 54 86 84 84 83 83 80 82 80 79 79 77 77 74 73 74 67 
104 112 111 111 111 111 111 111 112 112 112 112 112 111 111 111 110 112 111 111 111 111 111 111 110 108 97 76 93 112 106 110 115 81 82 59 71 138 158 174 170 169 173 180 180 187 188 194 192 185 195 195 178 152 171 178 175 169 157 175 197 202 189 191 212 197 133 117 154 163 150 176 174 181 161 167 166 149 109 79 53 63 70 62 66 57 66 94 115 118 113 109 108 112 116 121 132 145 158 166 169 172 173 175 173 173 174 175 175 175 174 173 173 174 175 176 176 174 172 173 174 172 172 172 172 172 171 171 170 170 169 176 90 62 90 86 85 83 84 82 80 80 78 79 76 76 75 73 70 64 
106 114 113 112 113 113 113 113 112 113 111 110 110 110 110 110 110 110 110 110 110 110 108 108 108 105 90 68 91 108 122 132 138 107 70 67 102 145 160 181 187 183 188 198 204 208 208 198 199 201 186 175 153 162 183 185 178 161 157 165 181 193 206 207 206 217 225 215 206 198 195 188 183 187 177 168 164 143 108 66 51 60 63 58 59 58 82 99 120 120 115 111 110 114 121 130 143 154 164 168 172 174 174 175 174 173 174 174 174 175 180 180 177 174 171 161 161 169 177 175 173 171 170 171 171 169 169 169 168 168 167 170 77 66 92 88 88 86 85 81 79 79 76 74 72 71 68 67 67 58 
108 115 112 113 114 114 112 112 111 110 109 109 108 108 108 108 106 106 107 107 105 106 105 103 95 88 82 100 127 123 130 132 130 113 76 84 119 144 162 184 196 189 190 195 198 203 201 202 199 187 173 158 160 181 185 183 175 166 159 161 178 184 197 211 213 214 215 216 213 207 202 202 199 192 185 167 160 145 103 91 67 70 66 61 58 73 95 100 120 119 115 110 110 116 127 139 150 162 170 175 177 180 181 176 173 174 174 173 174 175 131 106 109 109 112 101 102 110 134 164 175 172 174 174 173 174 173 172 172 172 174 166 65 77 94 86 82 78 75 73 70 69 68 66 65 64 63 63 64 55 
109 116 114 115 113 112 110 110 110 109 108 106 106 106 106 105 104 102 98 98 96 94 92 67 54 62 75 112 122 95 94 92 101 105 89 84 117 142 165 188 196 197 193 195 196 195 195 199 189 187 167 161 182 197 210 207 191 173 156 147 174 187 190 197 200 210 215 212 212 214 210 210 205 192 182 166 152 143 98 103 98 91 113 144 116 117 104 106 123 122 118 113 114 125 135 146 155 165 170 173 176 163 150 173 170 174 175 172 183 120 51 59 59 59 65 90 87 90 90 96 138 148 147 147 146 143 142 139 137 135 135 125 82 91 93 89 87 86 86 85 86 86 86 84 85 86 85 85 86 78 
110 117 115 115 113 111 109 108 106 105 103 102 95 83 79 78 80 79 97 113 109 108 108 95 84 90 94 107 117 113 114 114 119 125 111 67 113 138 166 184 191 194 192 193 192 190 192 197 207 188 175 182 188 202 217 221 195 186 180 167 161 197 215 197 191 191 200 207 209 211 212 210 205 192 176 160 146 127 99 83 92 104 135 141 174 145 103 113 122 121 116 113 117 126 138 149 160 167 173 175 182 151 122 173 165 176 173 172 179 117 83 91 88 84 86 101 101 91 96 100 100 102 100 100 99 98 96 96 95 94 94 94 99 97 97 95 95 95 94 93 93 93 93 92 92 92 90 88 89 80 
107 114 112 112 114 109 105 102 100 98 98 99 71 48 56 62 71 79 107 156 159 161 164 166 168 171 171 169 169 171 172 171 171 164 153 74 104 141 171 181 185 185 189 191 193 197 203 216 202 182 188 162 159 190 190 194 180 162 170 192 183 168 226 221 207 200 196 201 205 208 209 204 201 189 172 156 140 110 108 94 94 113 168 154 198 165 124 132 140 143 141 141 144 149 157 166 172 178 183 185 189 161 134 171 179 174 172 171 178 119 89 96 95 94 98 120 116 102 109 134 99 102 100 101 99 99 99 100 100 100 100 98 95 96 96 94 93 93 93 93 91 91 90 90 90 90 89 88 88 80 
130 142 142 135 91 119 143 140 143 140 134 131 116 100 101 111 125 129 124 124 121 119 118 111 107 103 101 101 96 90 86 82 84 84 164 128 102 148 169 178 180 182 193 200 202 204 213 219 196 174 177 178 176 184 174 172 167 169 169 184 176 177 218 224 219 215 210 203 200 201 200 200 195 189 173 148 134 101 84 99 118 175 197 166 190 177 185 187 181 179 178 176 174 170 167 166 162 160 159 151 159 160 155 156 157 172 171 169 174 115 87 93 92 91 95 115 110 103 111 125 99 102 101 100 99 98 98 98 100 100 99 98 96 95 96 95 93 93 94 93 93 92 91 91 90 91 91 87 88 80 
118 126 126 117 81 99 110 80 75 80 82 81 62 40 42 50 54 46 36 34 32 32 32 34 34 34 36 30 28 29 34 34 36 32 134 167 104 155 167 171 177 190 195 206 204 206 216 208 197 184 169 173 196 202 196 195 200 191 171 172 182 198 212 223 222 220 221 212 207 200 196 195 193 188 173 146 129 114 111 136 201 195 201 169 163 125 101 92 87 112 112 105 98 97 95 95 95 96 98 94 109 119 118 114 135 170 168 168 172 112 87 94 92 91 97 116 107 102 107 113 100 101 102 101 100 100 100 100 100 97 97 98 97 96 95 94 95 93 94 94 93 93 91 90 91 91 89 88 89 79 
123 135 137 135 82 115 142 132 120 106 120 131 133 130 133 136 127 116 119 125 132 138 141 146 150 154 154 134 141 144 147 151 154 158 155 163 121 150 167 165 180 196 202 203 205 210 207 195 182 177 186 191 203 205 210 207 201 195 188 191 189 191 206 214 217 218 220 217 211 202 190 189 191 186 175 144 123 117 127 168 183 171 180 150 109 100 53 40 61 99 94 90 88 88 92 96 103 109 116 121 118 117 117 123 159 169 169 167 170 110 88 92 92 89 97 116 107 102 104 108 102 102 102 100 100 100 99 99 100 100 97 97 97 95 95 93 92 91 91 90 89 90 90 87 87 86 85 86 84 75 
154 168 167 164 133 157 178 172 174 171 173 173 173 171 170 171 173 175 173 171 169 169 168 165 162 161 154 143 130 140 155 147 141 130 134 170 145 142 164 169 185 197 198 203 206 201 192 181 178 188 200 205 213 213 208 208 213 213 210 204 186 180 191 203 209 217 217 214 212 205 193 186 186 185 171 136 125 122 132 181 172 168 179 126 107 109 61 55 92 103 99 97 93 94 97 101 104 110 116 116 118 119 116 140 166 167 167 166 170 106 88 94 91 89 97 114 107 101 103 104 100 98 98 95 96 96 95 94 94 93 93 92 92 92 91 91 92 92 94 93 94 94 97 99 98 99 100 99 102 94 
119 125 118 114 116 102 95 127 129 126 126 126 125 124 123 123 123 121 120 118 117 118 117 114 112 116 98 53 35 88 120 115 117 117 120 159 161 134 164 171 185 189 195 207 198 195 193 196 197 199 190 182 184 187 191 194 194 193 200 208 207 204 200 201 208 210 222 213 210 207 196 190 188 180 154 124 130 125 160 206 195 185 154 112 114 109 91 97 106 102 100 95 93 96 101 107 110 114 117 117 119 118 128 156 165 165 166 167 168 105 90 94 92 89 98 114 105 100 100 109 112 111 112 113 111 112 115 118 116 114 116 118 116 119 116 118 121 120 121 121 120 117 119 120 115 117 117 113 117 108 
92 99 98 98 93 91 93 110 112 114 115 116 117 116 118 120 119 119 121 121 121 122 122 120 118 121 104 56 51 114 125 124 123 126 123 137 164 133 155 169 179 184 199 208 205 197 178 166 164 163 167 174 180 179 177 181 182 173 169 167 164 167 173 188 208 214 222 216 201 201 199 189 186 171 141 126 135 138 195 178 187 163 114 115 116 112 113 111 106 104 101 97 95 100 104 110 114 118 118 119 120 123 143 160 163 164 166 167 166 103 89 93 92 90 98 113 103 102 101 133 138 136 141 139 134 133 134 134 132 133 134 130 132 128 124 124 124 123 119 117 116 118 120 118 115 115 115 115 117 107 
102 112 113 114 115 117 119 116 116 117 117 119 119 119 120 121 120 121 122 122 122 121 122 121 119 121 100 52 70 122 122 121 122 124 124 125 139 127 149 166 174 186 202 213 212 200 187 183 190 195 193 189 184 181 186 182 190 196 192 195 193 190 186 189 204 218 224 217 199 194 196 189 181 161 127 133 137 142 183 169 159 121 115 117 115 114 113 110 109 105 102 97 97 104 108 111 116 120 120 119 120 133 152 163 163 164 166 166 165 102 89 91 90 89 96 111 103 100 100 132 139 136 139 134 135 134 134 135 134 137 132 134 133 133 133 128 126 126 118 115 112 113 110 105 103 99 96 90 87 76 
100 109 109 110 112 112 113 115 116 116 115 117 118 118 118 118 117 117 117 116 117 118 116 114 113 113 104 89 101 112 109 107 108 107 120 126 124 121 142 164 169 185 204 214 211 200 201 198 203 203 198 189 183 182 182 182 179 190 198 200 206 205 207 208 217 223 223 214 195 190 190 183 174 146 121 135 138 105 57 102 120 117 117 116 116 114 113 110 109 106 103 99 99 106 111 115 118 119 119 120 127 142 157 164 163 164 165 167 163 100 90 91 89 88 96 110 103 101 100 132 142 137 140 133 124 125 124 121 114 108 103 99 94 93 84 80 75 70 66 62 59 57 55 53 53 53 53 53 54 49 
96 103 102 103 104 103 103 104 104 104 103 103 103 103 103 101 101 102 102 99 98 98 97 95 93 91 92 93 91 88 86 85 82 87 115 127 127 126 128 152 162 181 195 204 200 195 194 196 206 211 208 201 194 193 197 200 201 211 217 218 212 208 206 204 210 215 213 208 194 186 184 180 159 123 122 138 141 77 59 113 120 120 119 117 116 115 114 111 111 108 103 101 104 109 114 118 119 119 120 124 135 150 161 163 163 164 165 167 162 97 90 92 92 90 98 108 100 101 99 133 137 135 133 107 109 89 64 50 50 47 47 45 45 46 45 45 46 47 48 48 49 50 51 51 54 53 53 55 55 50 
84 90 90 90 91 90 89 89 89 89 89 86 85 84 81 81 78 77 77 75 74 71 70 69 67 66 65 64 63 62 62 62 58 83 117 127 127 128 124 133 158 172 184 192 191 189 189 192 195 196 195 198 205 209 212 208 207 204 205 210 211 205 204 205 205 207 201 198 190 180 176 167 135 115 134 141 135 70 75 124 119 120 119 118 117 116 116 113 112 110 110 108 111 115 119 121 120 121 123 131 145 156 162 163 163 163 164 165 161 97 89 92 91 90 99 108 100 99 100 136 142 137 134 73 62 67 54 50 51 51 50 49 51 51 50 50 49 49 49 48 49 48 48 48 47 50 50 50 53 48 
64 69 67 66 65 64 62 62 60 60 60 57 58 57 56 58 56 57 56 57 59 57 58 58 59 60 60 60 59 60 63 63 59 82 115 127 128 128 129 123 131 155 172 180 183 184 184 183 192 197 204 207 210 217 216 222 218 211 206 205 203 201 203 198 195 196 193 189 180 175 164 137 115 133 146 146 122 97 104 123 121 119 119 118 118 117 116 114 112 114 118 116 116 119 120 121 122 122 128 138 148 157 161 162 163 163 163 165 159 94 87 90 91 90 99 109 100 95 99 139 142 140 137 66 42 47 49 49 49 47 46 45 46 46 46 45 45 45 45 46 45 46 47 47 46 48 50 50 47 49 
45 51 49 50 53 52 51 53 54 56 56 56 57 57 58 59 57 59 60 61 60 60 61 59 61 62 61 62 61 60 60 62 58 81 116 127 126 128 128 131 118 124 148 159 170 175 171 175 187 196 202 201 204 211 211 216 216 214 208 196 190 187 187 178 182 179 180 176 167 153 136 115 131 149 153 141 123 114 105 121 121 120 120 119 118 117 115 113 114 117 121 117 116 118 120 121 121 124 133 144 152 159 161 162 162 162 162 165 157 90 85 88 88 87 96 106 98 93 99 138 140 137 132 67 45 47 46 46 46 45 44 43 44 43 43 44 45 45 45 45 45 46 47 47 47 48 49 53 83 99 
49 52 54 55 54 53 55 56 56 57 56 56 58 57 59 58 58 58 58 61 59 60 61 61 61 62 62 62 61 62 62 62 59 83 117 127 126 128 129 127 128 111 115 132 138 140 147 164 176 181 194 193 198 201 203 202 204 202 197 185 183 173 168 160 159 158 152 154 149 134 123 134 154 157 153 133 137 119 97 121 121 120 121 120 118 117 114 113 116 119 120 117 116 118 119 120 123 130 138 147 154 160 161 162 161 162 163 165 155 86 84 85 86 87 97 105 97 91 100 139 138 137 137 67 41 44 43 44 43 45 44 43 44 43 43 43 43 45 45 45 45 46 46 46 47 51 61 67 79 81 
49 54 54 54 54 53 54 55 55 56 56 57 57 59 57 59 59 61 59 59 60 61 61 62 62 63 61 62 62 61 62 64 60 83 116 127 126 128 128 129 130 128 115 113 130 131 129 131 144 160 174 174 176 176 173 175 181 180 168 158 150 144 135 129 142 148 146 154 149 137 138 149 162 161 155 145 150 129 106 122 120 121 120 118 118 117 114 113 114 117 117 115 115 118 120 122 127 134 143 150 156 159 160 162 162 163 162 165 153 83 83 85 85 86 98 103 95 92 103 141 138 138 136 69 40 44 44 44 43 43 44 44 44 44 44 45 46 44 45 45 46 47 46 44 51 68 67 64 58 58 
49 54 54 53 54 53 54 56 56 56 56 58 57 58 59 59 59 60 60 60 60 61 62 61 63 63 62 61 62 61 61 62 59 84 117 128 127 128 128 128 130 128 131 123 121 141 149 147 140 138 145 147 154 159 158 160 157 150 147 147 148 148 149 157 159 165 164 160 154 147 156 164 168 169 162 158 155 133 114 121 122 122 120 118 118 116 113 111 111 112 112 110 112 116 117 124 130 138 146 153 160 161 161 162 163 163 163 166 151 82 83 83 84 85 96 101 93 89 103 140 140 140 137 76 41 47 45 45 45 45 45 45 46 48 47 48 47 45 46 47 43 43 49 59 67 68 64 64 63 62 
48 53 53 53 53 55 56 56 56 57 58 59 58 58 59 59 59 59 60 62 60 61 60 61 61 62 62 61 61 62 61 62 60 83 117 127 127 129 130 128 129 128 133 146 129 122 143 153 153 154 159 165 174 180 182 182 182 177 175 173 172 166 164 168 166 167 163 160 156 157 171 172 171 169 165 164 158 136 119 126 116 119 121 118 117 114 111 108 107 106 106 105 107 112 117 124 134 144 150 158 162 163 163 163 164 163 162 166 149 81 83 82 83 83 96 102 91 90 106 141 140 140 133 82 45 45 45 41 39 40 41 42 38 38 38 41 41 40 42 50 63 62 70 70 65 68 65 61 63 57 
49 52 52 54 55 54 56 58 59 56 57 59 59 58 60 60 59 61 61 61 61 60 60 61 62 61 62 62 61 61 63 62 58 82 117 127 127 128 129 130 129 127 136 148 154 134 126 145 154 153 152 159 161 169 176 177 175 174 173 170 167 166 168 171 172 167 164 158 156 165 176 177 179 179 175 171 164 137 119 186 156 122 114 118 115 112 106 100 99 96 97 96 99 106 116 128 138 147 153 159 163 164 164 165 164 163 163 167 148 80 83 83 83 83 95 101 93 88 103 137 137 136 125 86 46 49 45 70 76 72 72 71 91 101 92 92 101 114 110 113 133 90 65 57 63 67 65 61 59 59 
48 51 52 53 54 55 55 57 57 56 57 58 57 59 59 60 58 60 61 60 60 60 60 61 60 60 61 62 61 60 62 62 58 80 117 127 127 128 128 126 133 153 146 153 160 161 141 134 149 163 166 166 165 166 171 174 173 174 174 177 176 174 175 173 167 167 163 161 169 176 185 187 185 184 181 175 167 145 105 183 195 193 132 107 107 94 86 77 76 78 80 78 83 91 100 119 139 151 156 161 163 163 164 165 164 165 164 169 148 78 82 83 83 82 93 99 93 89 103 136 132 131 123 112 113 142 128 130 162 154 143 139 148 167 166 160 156 153 142 134 90 60 63 75 90 71 65 65 64 63 
48 51 52 53 53 54 55 56 56 56 57 59 58 60 59 58 58 60 61 60 58 62 62 60 60 61 61 61 60 62 61 61 58 81 116 126 126 126 125 143 177 177 146 161 167 172 167 147 141 156 171 178 180 180 184 184 187 190 186 185 186 182 178 176 168 168 168 174 179 186 193 187 187 188 185 179 168 153 114 145 166 194 200 118 100 93 89 92 94 97 101 104 110 115 120 126 140 153 160 164 165 165 165 165 165 165 164 171 146 76 83 82 83 82 93 98 92 88 106 138 137 139 128 112 131 144 168 150 146 137 135 145 150 153 157 99 87 142 133 118 80 107 117 124 95 67 68 65 62 58 
48 51 52 54 53 56 56 56 57 57 57 57 58 59 60 61 61 60 60 60 59 60 60 60 61 61 62 60 60 60 61 61 57 79 115 126 123 126 155 181 191 165 140 165 172 179 183 168 153 150 165 182 185 189 196 197 197 198 199 196 195 190 182 178 178 176 177 182 188 193 195 192 190 187 186 179 172 151 132 149 176 174 210 174 102 99 106 113 118 123 129 138 149 156 165 162 153 157 161 161 162 164 165 166 167 167 167 172 143 74 83 81 80 80 93 95 90 86 108 141 139 141 126 106 139 147 153 167 159 148 145 148 151 169 126 26 42 130 130 129 142 128 106 95 68 65 66 62 61 59 
46 52 52 52 54 56 56 56 58 59 59 59 59 61 61 60 61 60 59 61 62 60 62 61 60 59 59 62 59 59 59 61 57 78 114 120 127 164 184 187 185 141 140 165 173 179 183 183 167 157 156 170 187 200 202 206 200 201 204 204 191 187 183 184 183 182 186 186 189 195 196 192 193 190 185 180 175 149 147 180 221 180 209 192 146 131 115 118 125 131 137 142 150 159 166 168 167 170 169 168 165 165 165 163 164 164 163 171 140 73 81 79 80 79 93 94 88 85 109 140 134 139 122 110 147 156 158 158 158 161 152 150 155 139 52 37 73 141 152 154 132 97 90 69 64 66 63 58 57 55 
46 51 52 54 55 56 57 58 59 59 60 60 60 61 61 62 60 60 60 61 62 61 59 61 61 61 58 59 58 57 56 58 54 74 105 127 170 184 192 195 172 133 142 165 174 177 177 179 179 172 160 161 181 196 200 206 205 203 199 193 186 186 187 188 188 186 191 195 194 193 196 194 192 192 183 182 175 150 163 224 232 196 216 194 182 204 185 169 165 162 163 167 166 165 166 166 166 169 171 169 167 166 164 162 161 159 155 164 134 72 80 78 79 79 90 93 89 84 108 141 132 136 125 114 149 157 156 162 157 158 158 171 117 25 21 27 24 48 60 63 73 91 89 56 64 62 58 56 56 52 
48 51 52 53 54 58 58 60 59 59 59 59 60 60 60 59 58 59 59 59 59 59 57 58 59 59 60 61 62 62 65 65 65 92 132 171 187 191 197 196 170 137 146 164 174 180 181 182 180 183 179 165 163 177 196 206 205 197 192 186 187 192 193 194 192 192 197 197 196 196 196 194 192 190 185 184 174 152 207 248 224 199 216 190 185 204 204 208 195 195 188 160 145 151 153 157 157 159 162 162 162 162 161 158 157 154 152 152 118 72 78 77 78 79 89 93 90 85 113 141 134 132 119 112 150 159 161 167 165 160 161 126 41 48 30 18 78 136 124 122 105 59 66 61 61 58 56 54 55 51 
48 50 50 50 53 52 54 54 56 56 57 59 60 60 61 64 66 69 71 74 75 77 78 80 80 84 85 87 86 87 97 120 156 177 182 186 188 192 200 194 189 157 153 164 175 183 183 185 185 183 186 184 176 174 180 188 190 189 186 188 196 201 201 201 200 198 197 199 198 199 195 196 192 189 189 190 170 190 249 241 214 208 213 181 192 207 204 213 207 198 207 206 202 187 175 175 176 178 180 181 180 179 179 176 174 177 178 182 135 69 77 76 77 78 89 92 89 84 111 139 132 132 115 108 141 151 155 162 162 155 143 37 49 33 23 19 133 172 155 140 98 65 55 58 57 54 55 53 54 50 
49 55 52 55 58 62 65 68 74 76 80 85 88 90 94 97 99 101 103 107 107 107 108 110 110 103 103 109 127 154 180 201 200 175 182 191 194 195 203 193 207 181 160 168 177 183 185 186 187 189 188 185 190 192 188 190 192 197 201 204 206 207 204 201 200 201 201 202 200 198 198 196 192 193 193 186 194 248 249 232 210 216 203 184 202 210 211 215 216 201 202 200 202 208 204 191 182 175 175 180 187 189 184 178 179 181 175 186 137 69 78 76 76 77 90 92 88 83 112 142 137 131 116 106 134 148 148 157 157 157 142 31 38 19 21 19 60 109 139 119 119 102 60 49 48 46 43 42 44 40 
42 55 75 89 95 95 95 100 102 106 108 111 113 116 118 120 119 121 123 122 122 120 117 105 102 118 145 171 189 197 198 200 178 181 188 195 193 197 204 198 205 222 174 176 175 182 185 189 192 190 193 193 189 193 197 197 201 205 203 203 205 204 204 203 202 204 205 206 204 198 197 194 196 197 192 207 248 251 243 215 211 209 191 190 209 212 214 216 223 208 211 209 202 196 198 200 202 199 177 136 105 91 106 127 137 140 192 228 156 67 79 76 77 76 89 92 87 83 114 138 134 131 114 103 141 155 161 167 165 168 173 129 48 64 19 31 18 18 75 119 147 148 141 129 119 104 96 95 89 82 
18 19 22 43 70 94 110 114 117 118 120 120 120 120 119 118 118 117 118 116 114 115 125 134 154 180 187 192 191 195 193 187 175 188 190 194 197 198 199 204 197 242 203 182 183 185 187 190 194 196 197 199 197 197 200 200 202 203 205 206 207 205 207 205 205 209 208 203 202 197 198 199 202 201 220 252 251 249 229 210 213 199 188 203 208 210 219 219 220 209 207 213 211 213 205 196 193 199 203 195 167 118 72 44 37 50 145 186 139 67 78 75 78 76 90 92 89 85 112 133 129 127 111 103 132 139 147 143 127 120 104 94 82 55 17 26 40 52 102 116 112 105 99 97 90 79 68 105 158 150 
28 18 19 29 44 107 121 110 112 115 113 114 116 117 118 120 124 126 127 133 147 164 178 189 188 186 190 194 195 193 195 184 178 190 194 195 196 198 201 204 197 229 244 193 189 195 190 191 192 193 201 202 200 202 201 204 206 206 208 206 207 208 209 209 209 209 205 202 199 201 202 201 208 236 254 251 252 240 213 217 205 191 194 205 211 216 222 225 223 206 202 209 210 207 211 213 204 197 197 196 205 207 195 165 118 86 117 144 110 72 80 76 77 76 89 91 89 83 111 135 134 124 110 105 128 126 100 75 71 109 118 104 134 131 110 111 134 153 160 154 151 141 131 122 114 105 90 103 151 143 
40 48 74 106 141 164 149 150 129 114 129 132 137 141 143 146 148 154 164 177 187 186 185 186 190 192 194 192 190 194 201 184 179 193 197 197 203 201 203 203 201 215 251 240 207 197 197 192 193 195 202 205 207 205 204 203 205 207 207 207 208 209 209 209 211 206 206 204 200 200 205 224 246 255 251 253 247 215 212 211 197 197 203 212 217 221 225 225 221 202 204 208 209 209 211 210 212 211 207 199 195 195 196 201 200 190 173 162 119 60 67 76 81 77 89 91 88 84 116 135 132 130 110 104 139 154 153 152 152 155 153 158 159 166 167 168 164 161 159 159 158 160 160 162 162 161 161 159 152 146 
135 153 153 151 145 137 130 133 123 105 154 158 160 161 161 165 171 178 185 183 187 188 191 189 194 194 192 189 193 196 198 184 178 188 196 198 198 203 202 204 202 199 235 252 250 229 208 195 194 198 203 205 206 209 208 209 208 207 206 207 209 209 208 210 211 209 206 203 205 218 240 255 252 252 254 241 218 211 210 206 196 201 211 216 218 222 223 223 219 197 212 213 210 212 211 211 206 205 206 208 208 203 198 197 196 194 189 190 190 158 99 66 60 67 89 91 86 83 116 133 131 128 108 103 137 153 160 164 163 163 164 160 158 159 156 157 158 157 157 157 156 155 154 154 153 153 151 151 153 143 
88 71 70 93 94 95 111 116 119 133 157 163 168 171 181 183 183 181 189 190 191 190 189 188 191 192 192 193 194 196 202 189 178 189 197 202 203 204 208 206 207 198 211 250 252 255 251 233 213 200 202 208 212 213 212 211 214 210 212 213 212 213 214 216 214 214 218 229 246 255 255 253 255 254 235 207 214 220 207 202 201 212 219 221 224 227 223 222 214 193 218 213 215 212 210 208 205 212 210 207 208 209 208 207 203 200 198 192 189 193 191 167 121 84 79 83 88 84 117 134 131 123 111 108 139 155 157 158 158 159 161 160 160 161 159 159 159 158 158 156 154 155 155 156 157 156 154 156 159 148 
32 17 48 125 130 142 146 151 153 156 165 170 172 170 171 172 173 172 179 183 183 179 179 185 183 185 185 187 187 188 191 183 170 182 185 190 192 195 196 198 200 193 193 218 243 239 241 245 242 230 217 208 203 208 209 210 209 208 208 209 210 210 209 210 216 226 240 245 244 242 242 243 231 213 201 203 208 206 195 191 199 214 213 216 218 216 210 210 197 185 206 202 205 205 202 201 204 202 201 204 201 199 197 199 200 196 196 191 190 186 181 184 188 175 152 103 74 77 107 126 123 117 106 100 135 149 149 151 152 154 155 154 155 153 152 153 151 150 149 150 149 150 151 151 150 151 147 141 128 121 
