P2
150 65
255
176 179 179 181 181 181 182 183 183 183 185 185 184 186 186 187 188 188 187 188 188 188 188 189 191 189 188 190 191 192 191 191 191 192 192 194 194 193 193 193 194 193 189 188 189 151 144 146 152 153 154 155 170 173 85 82 84 86 84 83 83 82 81 83 82 80 78 79 77 76 76 78 80 85 88 91 97 102 105 110 114 119 124 126 130 133 137 138 141 143 144 144 145 149 150 149 149 150 150 150 149 149 149 146 150 143 110 119 129 126 124 123 120 121 120 119 118 118 119 117 115 114 114 113 113 112 112 110 109 108 107 107 106 105 105 102 103 102 100 100 99 99 97 96 94 95 95 93 94 87 
179 183 182 183 185 184 185 187 187 187 188 188 188 190 191 191 191 191 191 192 191 191 191 193 194 194 194 195 194 194 195 196 196 196 197 198 198 198 199 198 198 196 194 193 192 154 150 153 155 155 157 158 174 176 85 81 86 87 88 89 90 92 92 93 95 95 95 95 95 96 95 96 95 92 91 90 89 89 86 85 85 85 83 84 82 83 83 84 84 84 86 88 90 92 95 98 102 104 108 110 115 119 121 123 126 131 134 136 137 137 137 138 135 135 122 115 123 121 120 119 117 118 118 118 116 115 113 113 112 111 111 109 108 108 107 105 106 105 103 102 103 101 100 99 99 98 98 97 97 89 
180 185 184 185 185 185 186 187 188 188 188 189 189 190 191 192 193 192 193 193 193 193 194 194 194 195 196 196 196 197 197 197 198 197 198 200 200 199 200 199 200 199 195 191 184 154 152 155 155 156 158 160 175 175 81 83 85 86 86 86 87 86 88 88 89 91 90 90 92 92 91 92 94 95 95 97 98 97 99 99 100 100 100 99 100 99 98 97 97 96 93 93 90 88 87 87 85 83 82 81 79 77 76 71 69 73 75 75 81 84 88 89 105 140 117 117 125 121 121 120 119 118 118 118 116 114 115 113 112 112 111 110 110 109 107 106 106 104 104 104 104 102 101 101 102 101 99 99 99 93 
183 187 186 186 186 187 189 188 189 189 190 191 191 191 192 193 194 194 195 194 195 194 195 196 196 196 198 198 198 199 198 198 198 198 199 201 201 202 202 202 202 201 197 190 176 155 154 156 157 158 160 161 177 175 132 85 89 88 90 91 91 92 93 92 93 93 93 94 93 94 94 92 93 95 95 95 95 95 94 94 95 94 95 94 94 93 94 94 94 93 93 94 94 94 97 98 97 99 99 98 98 98 102 96 83 80 80 81 80 80 82 79 110 144 117 121 126 122 123 122 121 121 119 119 118 116 116 115 114 114 112 111 110 111 109 107 107 106 106 105 104 104 103 103 102 102 101 101 101 94 
183 187 187 187 188 189 189 189 190 191 191 191 191 193 194 195 195 195 196 196 196 196 197 197 198 198 198 198 198 199 199 199 199 199 201 203 202 203 203 204 204 204 199 191 178 156 157 159 159 160 161 162 178 177 148 82 89 89 90 90 92 92 93 95 95 95 96 97 97 98 98 96 97 98 98 98 99 98 98 98 99 97 96 97 97 96 95 96 95 94 94 94 94 92 93 95 94 93 92 92 93 93 92 83 78 81 81 82 82 84 85 85 120 147 118 123 127 125 124 123 123 122 120 120 120 118 117 116 116 116 114 112 112 111 111 110 110 108 108 107 107 106 104 105 104 103 103 103 102 95 
183 188 187 188 188 189 190 190 191 192 192 193 193 193 195 195 195 196 196 197 198 198 198 198 198 199 199 200 200 200 200 201 202 201 204 205 204 204 205 205 206 205 199 191 178 158 157 159 160 160 161 163 177 176 145 85 92 92 93 93 95 95 94 96 95 95 98 98 98 98 98 100 99 100 100 100 101 100 101 100 99 100 98 98 98 98 98 98 98 99 97 98 98 95 96 95 96 96 95 95 94 94 92 80 77 83 83 84 87 87 93 94 122 148 119 125 128 127 126 125 124 123 122 121 120 120 118 118 118 117 116 115 114 113 112 111 110 110 110 108 107 107 106 105 104 104 102 102 102 94 
185 187 188 188 188 190 191 191 192 193 193 193 194 195 195 196 196 197 198 198 199 198 197 198 199 200 200 200 200 200 201 202 201 202 204 206 206 207 208 208 208 207 201 192 179 160 158 161 162 161 164 164 178 175 139 88 98 96 94 95 100 99 101 102 102 102 102 103 103 104 104 104 103 103 103 102 103 102 103 103 103 102 102 102 100 100 100 99 99 99 99 99 97 94 93 93 95 95 95 95 92 90 88 83 74 77 85 86 86 101 131 137 133 148 120 126 128 127 127 127 127 124 124 122 122 122 121 119 119 117 116 115 116 114 114 113 111 111 109 109 109 108 106 105 105 104 103 104 103 95 
185 188 189 189 190 191 192 193 193 194 194 194 195 196 196 197 197 198 197 198 198 199 200 200 200 200 200 201 202 203 203 203 202 203 205 207 207 208 209 209 209 208 202 193 178 159 161 162 163 164 164 167 179 175 131 91 99 100 117 115 102 103 103 104 105 105 105 105 105 105 107 108 109 107 108 109 108 106 107 105 107 106 107 106 104 105 103 104 103 102 102 102 100 99 97 96 98 98 98 97 92 86 89 100 98 95 87 86 86 107 135 139 136 147 121 128 130 129 128 128 127 126 125 125 124 123 122 121 120 119 119 117 117 117 115 114 114 114 112 110 112 111 109 108 106 105 105 104 103 96 
186 190 190 191 191 191 193 193 193 194 195 195 195 197 197 197 197 197 198 198 199 199 201 200 200 201 201 203 203 202 203 202 203 205 206 208 209 209 210 211 211 208 202 194 179 160 161 162 162 164 165 167 180 177 138 94 100 109 192 188 102 105 104 105 105 111 111 110 112 108 107 108 110 109 109 109 108 109 108 108 109 109 107 106 105 106 106 106 105 105 104 106 104 102 100 100 99 102 101 99 93 85 89 103 102 97 88 88 89 110 138 141 137 146 121 130 131 130 130 130 129 128 127 125 126 125 122 123 122 122 122 120 120 118 117 116 116 116 115 113 112 112 111 109 109 106 106 105 104 97 
187 191 190 190 193 193 194 194 194 196 196 195 196 197 197 198 198 197 199 199 201 200 200 201 201 202 203 203 203 203 203 204 204 206 208 211 211 211 211 212 213 210 203 195 179 163 163 163 164 165 167 169 181 174 126 95 107 100 103 107 98 108 107 105 114 60 29 36 33 98 112 110 110 110 112 111 109 109 110 109 110 108 108 108 107 106 106 106 104 105 106 106 105 103 102 101 102 103 101 100 92 86 89 99 101 95 86 89 94 110 125 123 138 147 119 131 132 133 132 131 131 129 129 128 128 126 125 124 124 123 122 122 121 120 118 118 117 116 115 114 113 113 111 110 109 109 107 106 106 98 
188 191 191 192 192 193 193 193 195 196 195 195 197 197 197 198 198 198 200 201 201 200 201 202 203 203 203 203 205 205 205 205 206 206 208 212 212 212 213 213 213 211 204 196 179 163 165 164 164 165 166 170 181 173 135 96 97 88 109 99 92 89 108 106 112 76 91 96 61 93 116 111 112 112 110 111 112 111 110 110 110 109 109 108 107 106 106 105 106 107 106 106 105 103 102 102 103 104 103 99 92 86 87 93 97 91 79 93 99 117 137 135 141 147 118 131 131 132 131 132 131 130 130 130 129 129 128 127 126 124 124 123 123 123 120 119 119 119 117 116 116 114 113 111 110 109 108 106 107 100 
187 192 192 193 193 193 194 194 195 196 196 196 197 197 197 199 199 199 200 201 201 201 203 202 202 203 203 204 205 206 206 206 207 207 209 212 213 213 213 213 213 212 205 196 181 164 164 164 165 165 168 170 181 173 127 100 105 118 133 133 115 88 111 112 107 160 215 201 147 107 110 109 111 113 114 114 114 112 112 112 111 112 110 108 108 109 108 107 108 108 109 108 108 105 104 104 103 103 103 99 92 85 88 98 95 159 136 91 105 118 128 125 143 146 117 130 130 130 130 131 131 131 132 131 130 130 128 128 126 126 126 126 125 123 123 121 120 121 120 119 118 115 114 113 112 111 109 109 108 102 
188 192 191 193 193 194 195 195 195 196 196 196 197 198 198 199 199 200 200 201 202 203 203 203 203 204 204 204 205 206 206 207 207 209 210 213 214 213 214 215 215 211 204 198 181 163 165 167 166 166 168 171 180 173 136 94 150 209 207 169 163 122 109 114 112 159 195 201 186 104 125 162 143 128 125 118 113 111 110 112 110 109 109 108 106 108 107 108 108 108 109 109 108 106 106 106 105 105 103 99 92 87 93 96 94 154 136 95 106 122 137 136 146 146 116 130 130 130 130 131 131 132 133 133 131 131 131 129 128 128 128 127 126 125 124 123 123 122 120 119 118 117 115 115 113 112 112 110 109 102 
189 192 192 193 193 195 195 196 196 196 196 196 197 198 198 198 200 201 201 200 201 202 203 203 205 205 204 205 206 206 206 208 207 209 210 213 215 214 215 215 215 211 204 197 181 163 166 166 167 167 168 171 180 169 125 98 153 202 179 163 171 124 109 115 114 162 194 199 182 127 178 145 140 139 120 112 135 136 123 111 112 112 114 115 114 111 112 108 108 109 107 109 111 108 107 106 105 106 105 101 93 87 93 96 73 100 86 83 103 121 135 130 146 144 119 130 129 132 132 132 131 132 132 133 133 131 132 131 130 130 128 128 127 127 126 125 123 123 122 122 121 119 117 115 114 113 112 112 112 105 
188 193 193 194 193 195 195 195 196 197 197 197 198 198 199 200 200 200 202 202 201 203 203 203 205 205 205 206 206 207 208 208 208 209 210 213 215 215 215 214 216 213 206 198 181 164 167 167 167 168 168 172 180 172 132 97 159 194 173 170 195 123 112 119 118 166 175 180 166 164 154 142 129 136 157 161 175 182 165 149 167 171 161 167 168 178 165 159 164 151 154 112 104 108 102 105 105 107 108 105 95 88 99 102 96 105 87 74 95 122 135 134 148 144 119 133 130 130 132 132 132 132 133 131 132 133 132 132 132 130 130 129 128 127 127 126 126 125 124 123 121 120 118 117 116 115 114 114 112 105 
188 194 193 194 194 195 195 196 196 197 197 198 198 198 199 201 200 201 202 202 204 203 204 203 205 205 205 205 206 207 208 208 207 208 212 214 214 217 216 216 216 212 204 197 180 165 168 168 168 170 168 170 182 172 124 105 166 202 198 197 186 136 118 116 121 139 148 156 140 134 148 129 116 139 184 194 214 214 209 213 220 212 194 199 188 204 204 202 188 184 205 133 85 133 145 115 111 108 105 102 98 95 98 97 120 108 82 72 96 122 139 135 151 142 120 134 132 131 132 131 132 132 133 131 133 133 133 133 131 131 131 131 130 129 129 128 126 125 125 123 122 122 120 119 116 117 115 114 115 108 
190 194 193 193 194 195 196 196 197 197 198 198 198 199 199 200 200 201 201 201 203 203 204 203 205 205 205 206 206 206 207 208 208 209 212 215 215 216 217 217 216 212 206 197 181 166 167 167 169 170 169 178 177 157 159 153 124 110 133 140 128 121 112 104 105 112 128 142 144 125 117 96 86 96 149 183 201 215 205 195 181 175 174 198 214 202 198 192 177 168 163 111 76 86 135 206 159 138 156 133 93 83 102 113 120 108 86 80 96 123 133 132 152 142 123 135 133 132 132 133 132 133 133 132 133 133 133 133 133 133 131 132 132 130 131 129 127 126 125 124 124 123 122 121 119 117 117 115 115 109 
190 193 192 193 194 195 195 196 197 198 198 198 197 200 199 200 201 202 202 202 203 204 203 204 205 204 205 206 207 208 207 208 209 210 212 215 216 216 217 216 216 213 206 197 180 166 168 168 168 171 173 146 130 150 176 138 85 81 100 106 110 126 139 135 126 125 122 116 110 98 81 80 86 85 87 89 103 120 133 129 110 113 87 109 133 120 119 119 110 104 116 112 84 41 82 195 156 145 167 138 29 26 43 67 94 91 76 68 86 125 143 139 153 139 123 133 133 133 131 132 132 133 132 133 133 133 134 133 133 133 132 132 131 131 131 129 129 127 126 125 124 123 121 121 121 121 118 117 117 111 
189 193 193 194 195 195 196 196 197 197 198 198 198 201 200 201 201 200 202 203 204 204 205 204 204 205 205 206 207 207 208 209 209 210 212 216 215 216 217 215 216 212 206 198 181 166 168 167 174 168 122 115 146 162 136 105 97 102 98 106 128 138 125 115 107 113 110 111 112 115 106 94 78 68 71 68 77 90 86 129 131 134 146 141 142 144 145 148 146 148 161 161 164 171 178 163 158 162 161 150 135 133 128 124 134 140 137 133 134 147 153 144 152 140 125 134 134 134 134 133 133 134 133 133 133 134 134 133 134 134 134 132 131 131 132 131 129 128 127 127 126 125 123 122 122 120 119 119 119 112 
189 194 193 194 195 195 196 197 197 197 198 198 198 199 199 200 200 200 202 203 203 204 204 205 205 206 206 207 206 206 207 209 209 210 213 216 215 216 216 216 216 213 205 198 181 165 167 173 160 93 104 135 141 127 114 116 120 119 103 124 122 102 102 109 117 130 140 131 122 135 124 105 110 129 112 84 72 89 57 106 98 63 50 45 55 67 77 87 89 91 90 92 92 92 92 97 101 102 105 106 108 109 119 129 131 128 122 120 122 119 124 122 151 138 127 138 135 135 133 134 134 134 134 135 135 135 134 134 134 134 133 133 132 133 131 130 130 131 129 128 127 126 125 126 123 122 121 120 120 114 
189 194 194 195 196 195 197 197 197 197 197 198 198 198 199 200 201 201 201 202 202 203 204 205 205 206 206 207 206 207 207 207 209 211 213 215 216 216 217 217 216 212 206 197 180 165 169 167 104 113 136 133 133 141 148 146 152 148 144 138 133 132 134 143 149 152 151 147 119 131 158 143 149 147 145 127 116 110 111 103 89 92 62 45 43 43 50 61 75 87 94 93 90 87 85 85 86 89 90 84 74 70 82 95 104 92 86 77 81 91 113 122 156 137 128 139 136 134 135 135 136 135 133 135 135 134 135 136 134 134 134 133 133 134 134 133 131 130 130 128 128 127 126 125 124 123 122 121 121 114 
190 193 194 193 195 196 196 196 197 197 197 198 198 199 200 200 201 200 202 203 203 203 203 204 205 205 207 207 207 206 207 208 209 210 212 215 216 215 217 217 216 212 206 197 179 165 171 121 112 141 139 132 131 143 159 169 176 174 173 170 174 175 179 188 184 184 183 149 162 153 139 160 163 155 124 114 115 104 97 87 82 114 92 60 52 49 49 48 55 71 86 94 97 94 92 93 93 95 96 92 83 83 96 114 112 98 100 88 86 110 143 141 156 136 132 140 137 137 137 136 136 136 135 136 136 136 136 135 135 134 135 135 133 133 132 133 131 132 129 128 124 124 129 126 124 123 123 120 123 116 
189 194 194 194 196 196 196 197 197 197 197 198 198 199 201 200 200 201 201 203 203 203 203 204 205 206 206 206 206 206 207 208 209 209 211 214 215 216 217 216 216 212 206 198 177 171 134 119 135 150 139 142 152 168 177 187 194 194 194 198 201 210 213 215 221 194 185 198 174 183 156 186 198 189 173 148 136 135 113 99 93 101 115 89 61 50 52 51 53 54 59 73 87 92 91 91 93 94 96 92 81 85 100 121 119 107 108 91 92 121 140 137 156 133 134 139 138 137 136 136 137 137 136 137 137 137 138 136 135 136 135 135 136 135 134 134 132 134 122 120 124 124 129 125 126 125 121 118 122 117 
190 193 192 194 196 195 195 196 196 197 197 198 198 199 201 199 199 200 200 201 202 204 204 204 205 206 206 206 206 207 207 207 208 209 211 215 214 215 216 217 216 212 203 196 182 152 98 125 166 146 129 155 167 178 189 198 202 206 212 213 215 218 221 220 223 208 193 210 195 201 166 180 218 200 195 190 173 165 157 135 114 103 155 134 85 53 50 51 52 54 52 59 77 90 92 92 94 94 99 91 82 86 103 130 132 118 118 95 97 123 137 138 157 133 135 139 138 138 138 137 138 137 137 138 138 138 138 136 137 138 136 134 135 135 135 135 134 129 122 123 128 126 129 120 125 121 123 116 120 117 
190 194 193 194 195 195 195 195 197 196 197 198 198 198 200 200 199 199 200 202 201 203 203 203 205 205 205 206 207 207 207 207 208 210 211 214 215 216 216 216 216 211 204 195 183 131 102 152 169 138 147 159 168 182 195 201 207 210 215 216 220 224 223 224 227 219 197 209 202 211 157 188 222 206 202 196 194 179 171 159 134 105 141 170 105 86 53 51 51 53 53 53 67 82 90 91 95 94 99 92 82 88 117 147 142 132 129 95 98 128 144 141 157 133 137 140 140 137 137 138 138 138 138 138 138 138 138 136 138 138 137 137 136 137 136 135 136 129 127 134 129 129 127 119 125 123 125 120 120 117 
189 193 193 194 194 194 196 195 195 196 199 199 198 197 198 199 200 200 200 202 201 202 203 203 203 204 204 204 207 207 207 208 208 209 210 213 215 214 216 216 215 211 204 196 177 122 122 168 172 151 156 165 169 182 197 204 208 212 216 218 221 226 225 229 233 224 219 206 215 178 153 214 217 212 210 205 191 186 179 169 144 126 138 181 115 83 73 56 58 58 59 57 63 79 92 98 98 100 102 94 87 88 109 138 140 131 123 94 99 123 132 140 157 132 137 140 140 139 139 139 138 138 139 139 140 138 137 138 138 138 139 139 138 137 138 136 136 136 134 134 131 130 130 126 128 128 125 126 123 118 
190 194 192 194 193 194 196 195 196 196 198 198 198 198 198 199 200 200 200 200 202 202 203 203 203 204 205 204 205 206 207 207 207 209 211 213 214 214 215 215 215 212 204 200 157 107 150 196 163 147 157 170 177 183 196 208 210 209 212 217 219 225 226 227 234 230 230 221 196 166 206 221 211 209 207 203 199 185 178 165 155 138 134 194 144 85 68 63 63 63 63 62 60 69 85 98 103 102 104 96 89 87 113 134 129 120 117 91 101 129 146 144 155 130 138 142 140 140 141 140 138 139 140 139 141 138 139 140 140 140 141 139 138 139 137 137 137 134 135 134 132 133 131 130 130 128 127 126 126 120 
189 193 193 193 192 194 195 196 197 197 198 197 197 198 198 198 199 200 200 200 201 201 202 203 203 204 205 205 205 205 206 206 207 208 210 213 214 215 214 215 215 210 202 197 140 128 152 174 168 146 153 172 179 190 197 205 210 207 213 217 217 224 228 228 232 232 229 228 212 215 216 218 210 208 205 203 199 191 180 160 152 140 145 174 139 105 78 61 61 62 61 60 59 64 79 95 104 101 101 96 88 84 102 115 118 107 103 89 103 125 133 142 155 130 139 141 141 140 140 137 139 140 140 140 141 141 140 140 141 140 140 141 140 140 139 137 136 137 135 134 133 133 134 133 131 129 129 128 127 121 
187 192 193 194 193 194 194 195 196 196 197 197 198 198 198 198 200 201 200 200 200 200 201 202 203 203 204 205 205 206 206 207 208 208 210 213 214 215 215 215 214 210 202 195 148 130 144 173 153 143 161 170 179 191 202 206 210 210 214 218 218 222 226 227 226 228 227 227 227 223 221 217 210 208 203 203 198 191 177 157 149 134 126 159 126 115 95 70 63 59 60 59 57 58 74 88 96 99 103 93 86 81 99 114 112 101 98 88 105 129 143 146 153 130 141 141 141 140 140 137 140 141 140 140 140 140 140 142 142 141 139 141 141 140 140 139 137 138 136 135 135 133 132 132 131 131 129 129 129 123 
187 192 193 193 193 194 194 194 195 196 196 197 196 197 198 199 199 199 199 200 200 200 202 202 201 203 204 205 205 205 205 207 207 208 209 211 214 215 215 215 214 211 203 195 158 137 145 148 133 149 164 170 184 197 204 210 217 218 221 225 224 227 231 232 231 233 233 231 227 225 220 220 217 213 209 205 198 191 174 153 145 143 130 131 130 108 105 56 66 56 56 65 73 86 109 106 107 115 149 81 75 79 100 109 106 96 100 99 115 132 137 145 152 130 142 143 141 142 141 140 141 142 141 141 141 141 142 142 142 140 141 141 140 140 140 139 139 137 138 137 135 132 130 128 131 132 130 130 127 124 
188 191 191 192 192 193 193 194 195 195 196 196 196 196 197 198 198 198 197 199 199 200 200 202 203 202 204 204 205 206 206 207 207 207 207 211 214 213 214 214 213 210 201 196 158 140 137 123 132 155 162 148 156 155 121 129 150 172 195 214 225 233 237 238 239 240 239 237 233 232 226 225 222 215 211 208 191 190 173 153 149 137 132 118 111 112 100 46 43 50 58 86 119 143 150 154 163 148 142 142 141 143 146 149 142 143 140 133 124 125 140 146 152 130 142 142 141 141 141 141 141 141 141 141 141 141 141 142 141 141 142 140 140 140 140 140 139 137 137 136 135 136 134 131 134 130 130 129 123 121 
187 191 190 193 193 193 193 193 193 194 195 195 195 196 197 196 197 197 197 199 199 198 200 200 200 202 204 203 204 206 207 206 206 206 208 212 213 212 213 214 213 208 201 193 168 142 136 121 136 161 158 123 82 70 76 87 87 89 102 136 164 193 203 219 231 236 235 232 226 212 213 199 164 148 131 134 126 129 140 127 141 130 117 116 105 116 143 148 140 138 134 137 154 157 135 147 151 144 151 154 156 155 155 155 154 154 150 150 125 115 143 147 151 131 143 142 141 141 141 142 142 142 141 142 142 141 141 141 142 141 142 141 140 140 140 141 140 138 136 133 136 134 130 129 130 132 131 130 126 120 
185 190 191 191 190 191 192 192 192 193 193 193 194 194 194 195 195 195 197 199 198 198 199 199 200 202 202 202 205 206 207 207 207 206 209 211 213 213 213 212 213 207 201 189 169 146 133 105 138 169 156 128 119 153 165 159 155 155 131 123 141 160 178 203 211 211 207 209 196 170 167 139 97 88 96 104 94 73 72 71 114 131 101 99 110 130 117 104 112 111 112 110 92 84 115 141 142 131 134 135 136 137 140 139 141 144 140 139 118 107 136 145 148 132 144 142 142 142 141 141 141 141 141 142 142 143 143 143 143 141 140 142 139 141 141 141 139 139 138 138 137 132 133 132 131 133 131 129 129 123 
184 189 189 189 189 190 192 192 192 191 193 193 194 194 194 195 196 196 196 197 198 198 198 200 200 201 202 203 206 208 214 216 216 210 207 210 211 211 212 212 211 207 202 188 186 172 133 89 151 164 150 146 169 152 122 155 186 141 88 111 147 160 172 194 212 207 204 199 173 161 154 149 152 154 141 130 134 148 109 106 139 141 112 102 109 141 148 147 149 143 131 130 126 127 153 153 124 148 141 139 137 135 133 131 130 127 118 122 109 121 147 147 149 130 144 144 142 141 142 142 141 140 142 143 143 143 142 142 142 143 141 143 142 141 141 141 139 141 140 139 138 137 135 135 133 133 132 131 130 124 
185 189 187 189 189 189 190 190 191 191 192 192 193 194 194 194 195 195 194 195 197 198 198 199 199 199 201 203 208 183 148 134 135 176 206 207 211 211 211 211 211 206 199 190 183 176 157 134 161 156 153 160 168 125 125 184 214 153 96 132 172 190 190 176 215 231 218 168 155 174 169 183 227 163 56 94 103 127 165 123 148 147 95 109 148 189 135 139 138 132 131 129 128 130 142 145 135 149 155 156 155 157 164 162 159 162 157 152 131 130 144 148 148 131 146 143 142 143 142 142 142 141 142 143 143 143 143 143 143 145 144 144 143 142 141 141 140 140 139 138 137 136 135 136 135 133 133 131 130 125 
185 189 188 188 188 188 190 190 191 190 191 190 191 193 193 193 194 195 195 197 197 197 199 198 200 200 200 201 207 176 119 101 100 162 203 202 208 209 210 210 210 204 199 190 177 172 179 148 157 166 174 171 167 177 175 181 187 204 202 185 186 204 206 184 213 231 221 165 174 205 194 189 203 190 150 153 136 152 160 145 159 144 98 135 176 162 69 78 73 76 68 67 71 88 107 106 115 130 139 136 134 134 152 146 139 139 138 122 124 125 121 141 146 132 145 141 142 142 141 142 141 142 143 142 143 143 143 144 142 142 142 142 141 141 142 141 141 140 140 138 138 137 136 136 134 133 134 132 132 124 
185 188 188 189 189 189 190 191 190 191 191 190 191 191 192 194 193 194 195 195 195 196 197 197 199 199 200 200 205 177 120 98 99 160 199 200 203 205 208 208 208 205 198 191 163 178 195 147 152 161 176 185 192 195 192 195 200 201 205 208 206 205 198 185 218 227 222 175 182 189 198 201 191 191 189 175 174 187 179 167 157 137 109 179 169 74 36 42 43 42 42 42 40 55 73 85 87 85 83 78 70 67 79 84 77 65 66 69 70 94 112 140 144 133 146 143 143 143 142 144 142 142 142 143 143 143 143 142 142 143 142 142 142 142 141 142 140 140 140 139 137 136 137 136 135 134 134 132 131 122 
183 187 186 188 188 188 189 190 189 189 190 190 190 191 191 192 193 193 193 194 195 194 196 198 198 198 198 199 202 169 130 116 124 168 195 200 203 204 206 207 207 204 197 189 164 159 178 143 145 159 175 193 202 203 206 207 213 215 217 217 216 212 192 186 215 225 211 173 188 201 204 204 205 202 195 196 201 205 198 174 142 123 123 185 93 32 48 43 44 45 45 44 47 65 83 90 90 91 90 84 75 74 86 90 84 74 76 78 81 118 137 145 142 133 145 142 143 143 143 142 142 142 143 143 143 142 143 142 144 142 142 142 142 143 142 140 140 139 140 139 138 138 137 136 135 134 133 132 131 122 
183 187 185 187 188 188 188 188 188 188 189 189 190 191 191 192 193 193 193 194 196 195 196 196 197 198 198 198 196 170 156 156 164 184 194 201 202 203 205 207 207 204 198 188 165 157 185 147 135 159 176 192 200 206 214 220 223 220 223 224 218 204 189 188 208 222 203 172 183 202 216 219 215 212 214 215 215 205 191 166 130 112 130 154 47 45 46 44 45 45 45 46 58 77 90 90 89 89 88 84 75 73 85 92 84 73 77 78 91 131 135 145 140 133 146 143 142 141 143 142 142 142 143 143 143 143 143 143 143 142 143 143 142 141 141 141 140 140 139 139 138 137 137 136 135 133 133 133 133 127 
182 186 185 187 187 187 188 188 187 187 188 189 189 190 190 190 191 191 192 193 194 195 195 196 196 197 197 198 194 182 169 166 173 186 196 201 202 204 205 206 205 203 196 187 164 163 183 152 130 151 178 187 191 201 216 224 224 225 230 225 202 186 183 196 209 218 205 181 168 190 227 230 223 222 221 220 212 197 182 159 130 108 143 129 36 47 43 43 44 44 42 51 70 85 91 90 89 90 88 84 73 74 88 93 83 75 80 80 97 124 132 147 139 132 145 142 142 142 142 142 142 142 142 142 143 142 143 143 144 143 143 143 142 141 141 141 140 140 139 138 138 138 138 135 135 135 133 132 132 125 
182 185 184 186 186 187 187 188 187 188 189 189 189 190 191 189 191 192 192 194 194 195 196 195 196 196 196 197 195 189 182 181 185 192 197 202 203 205 205 205 205 203 196 187 164 161 187 184 134 149 179 183 185 195 213 222 224 225 209 201 200 200 192 205 215 218 207 186 171 185 213 228 230 227 224 220 210 191 173 161 131 111 147 110 35 45 40 40 39 39 37 51 72 83 86 87 86 85 83 80 73 75 90 97 87 81 82 82 105 135 138 147 138 133 145 143 141 141 143 141 143 141 142 142 143 143 142 144 143 143 143 144 143 143 142 141 141 141 140 140 138 138 137 135 135 135 134 133 132 125 
180 183 183 184 185 185 186 186 187 188 187 188 188 189 190 190 191 191 191 192 194 194 194 195 195 196 196 196 196 197 198 197 198 199 200 204 206 206 205 205 205 201 194 185 164 156 162 166 139 145 178 178 181 198 209 216 221 200 199 199 178 177 184 202 219 231 212 185 175 175 191 207 214 227 223 216 202 182 160 168 136 113 155 70 37 41 38 39 47 44 46 64 83 93 95 96 98 100 106 93 70 81 99 104 92 82 82 84 108 126 132 148 135 135 145 141 142 142 142 141 143 143 143 142 143 143 142 143 143 144 144 143 142 144 142 142 142 141 140 139 138 138 137 136 136 135 133 133 133 127 
180 183 183 183 184 185 186 185 187 187 187 188 188 189 188 189 190 190 189 193 192 192 195 195 194 196 195 194 196 197 197 198 198 200 201 204 205 205 206 205 204 200 193 183 162 155 159 160 144 138 166 172 179 194 205 214 192 184 196 183 168 164 160 182 192 190 174 145 140 166 200 201 185 199 218 205 198 181 161 170 125 125 80 45 49 46 41 47 79 80 87 111 125 132 131 125 124 130 136 127 66 78 98 103 91 83 81 83 117 137 137 146 135 135 146 142 141 141 141 141 143 143 142 141 142 143 143 143 143 142 143 142 142 143 143 142 141 140 141 140 138 138 137 136 136 136 133 133 132 127 
178 182 182 183 183 184 186 186 186 186 187 187 188 189 188 189 190 189 190 191 191 193 194 193 195 195 195 195 196 196 196 197 198 199 200 203 206 206 206 205 204 200 194 183 160 154 158 161 148 133 162 173 177 189 201 184 166 192 188 181 177 181 189 191 172 167 170 166 168 173 175 175 181 167 184 204 193 177 170 163 120 122 72 57 56 55 53 48 77 95 97 88 103 103 130 131 103 108 107 106 69 80 98 103 92 83 82 85 115 128 133 148 134 135 144 141 141 141 142 140 142 144 143 143 143 144 143 142 143 142 142 144 143 143 143 142 141 140 140 140 139 139 137 137 136 135 134 133 133 126 
178 183 182 182 183 184 184 185 185 185 186 188 187 187 189 188 190 190 190 191 191 192 192 193 194 195 195 194 194 195 197 196 197 199 200 203 205 205 204 205 204 200 194 182 160 155 157 159 157 133 151 172 177 190 200 164 171 177 168 176 187 186 196 206 198 204 204 192 188 181 177 160 166 174 160 198 188 177 170 156 118 114 81 64 55 52 36 55 100 77 59 68 57 79 64 71 91 110 107 77 60 83 104 106 90 83 81 87 115 133 137 148 133 136 144 142 141 143 143 142 142 142 143 143 143 143 143 143 143 143 143 143 142 142 143 141 142 141 140 139 138 139 138 138 137 135 134 133 132 127 
177 182 181 181 183 184 183 184 186 185 185 187 188 187 189 189 189 190 190 190 191 191 192 192 193 194 194 195 195 196 197 197 198 197 199 203 205 204 205 204 204 200 192 182 160 155 156 157 160 140 139 167 171 182 197 175 173 168 158 143 130 131 138 149 163 159 152 149 147 145 135 133 156 176 168 201 186 165 171 159 108 109 89 63 59 52 33 56 88 76 57 109 83 101 36 50 74 96 106 70 63 81 94 92 88 85 80 92 120 134 135 148 131 136 144 144 143 142 142 142 142 142 142 144 143 144 143 143 144 144 143 143 142 144 142 142 142 141 140 140 140 138 138 137 137 136 134 134 133 128 
177 181 180 182 182 183 183 184 183 184 186 186 187 188 189 188 187 187 189 190 190 191 191 191 194 194 194 194 195 194 196 196 198 197 198 202 203 203 204 204 203 199 192 181 158 154 157 156 156 154 136 157 161 175 192 195 175 176 183 173 150 139 140 147 148 156 148 126 117 116 135 162 167 176 199 206 173 158 180 133 115 104 69 72 76 75 68 69 52 42 24 53 92 98 63 76 71 71 95 87 81 94 120 84 88 88 75 93 117 129 132 147 131 137 143 142 142 142 141 141 141 141 143 144 143 144 143 143 143 143 143 143 144 143 142 143 141 141 141 140 139 138 138 138 137 136 136 134 134 129 
176 179 180 181 182 182 183 183 183 184 186 186 186 186 187 187 187 187 188 189 189 190 190 190 191 193 193 193 195 195 196 197 197 196 197 201 202 202 203 203 202 198 190 181 156 153 156 156 156 158 148 142 150 158 172 181 173 175 177 179 174 165 168 172 186 185 164 149 145 150 169 174 166 181 193 181 153 157 169 121 157 83 85 86 88 72 75 54 38 37 31 8 78 102 55 73 75 91 109 114 85 58 79 114 123 123 111 99 126 138 136 146 129 139 142 141 141 142 141 141 142 142 142 143 144 143 143 143 144 143 143 143 143 143 142 142 142 143 141 142 139 140 138 138 137 136 136 135 133 128 
175 180 179 180 181 182 182 183 183 184 184 184 184 185 185 187 187 187 187 188 188 189 190 189 189 190 192 193 193 193 195 196 196 196 198 201 202 203 203 203 202 197 190 179 155 152 154 155 156 155 155 148 148 147 156 162 166 175 171 167 172 177 173 173 169 158 160 157 165 166 166 169 181 176 172 153 144 171 136 164 141 80 102 104 97 63 83 41 44 38 24 29 60 83 72 79 67 109 146 162 133 113 83 98 116 102 106 115 119 128 135 145 128 139 143 141 141 141 141 143 142 142 143 143 143 142 142 143 143 143 142 142 143 143 143 142 142 142 141 141 140 139 139 139 139 135 134 134 133 127 
175 180 178 178 180 181 181 183 183 182 184 183 183 185 186 186 186 187 187 188 189 189 188 188 189 190 191 191 191 193 194 195 196 196 196 200 202 201 203 202 201 196 188 177 155 151 153 154 155 153 158 155 155 144 141 153 167 171 173 167 175 186 181 175 169 167 167 171 175 173 171 181 183 170 157 139 165 144 149 187 116 78 86 95 84 60 47 23 33 28 17 25 51 65 48 60 84 103 127 128 123 144 122 102 74 93 97 101 125 144 139 144 128 140 143 141 140 141 140 140 140 141 142 142 142 143 143 143 144 143 144 143 142 142 143 141 141 140 140 140 139 138 138 138 136 136 134 133 132 127 
173 177 177 178 180 180 182 182 181 181 182 184 184 184 185 185 185 187 187 186 188 188 187 188 189 189 191 191 191 192 193 193 194 195 196 199 202 202 202 201 201 196 188 177 153 150 152 154 154 153 156 158 154 158 140 137 150 167 171 173 184 184 181 188 195 194 186 187 184 171 176 178 168 154 138 154 148 157 194 157 191 183 153 127 101 89 75 41 55 46 40 58 126 113 114 127 142 138 136 133 137 148 149 147 139 140 135 141 139 141 141 143 128 140 142 141 141 141 141 142 142 142 141 142 143 142 143 143 143 143 143 142 143 142 141 143 141 140 140 140 138 138 138 137 134 135 134 132 133 125 
172 177 177 178 178 179 180 180 180 181 182 182 182 183 183 184 184 184 185 185 186 186 186 186 187 188 189 190 191 192 192 193 193 194 195 198 200 200 200 199 198 193 187 176 153 149 151 152 152 152 154 162 151 158 165 138 127 142 165 175 183 182 187 187 194 200 189 190 177 158 172 162 139 133 144 137 170 202 165 189 218 227 240 226 201 187 167 139 132 139 153 162 161 155 151 147 144 143 140 138 132 127 123 124 119 113 110 106 104 104 122 145 125 139 141 140 141 140 141 141 141 141 140 141 141 142 143 144 143 142 142 141 141 141 142 141 140 140 140 139 138 137 136 135 134 135 133 131 132 124 
172 176 176 176 177 177 179 180 180 180 180 181 180 182 182 183 182 183 183 184 184 185 185 185 186 187 187 189 190 190 191 191 192 193 194 198 198 199 199 199 198 193 186 176 152 150 151 151 151 149 149 155 157 169 167 175 156 131 139 163 167 177 185 174 188 193 187 182 163 167 162 130 138 147 147 181 195 173 189 219 215 224 219 237 236 234 226 215 191 141 97 73 70 78 88 89 85 81 77 72 58 72 80 78 61 59 60 63 82 115 126 143 125 140 141 140 140 140 140 141 140 141 141 142 141 142 141 142 143 142 141 140 141 141 141 139 140 139 138 138 137 136 136 135 134 134 133 131 131 124 
171 175 174 175 177 178 178 179 178 179 179 179 179 181 181 181 182 183 183 183 183 183 183 185 185 186 186 187 189 190 190 191 190 191 193 196 197 199 198 198 198 192 185 175 151 149 148 146 146 155 170 197 209 208 172 172 186 174 147 141 153 152 156 157 164 162 150 147 155 150 137 153 156 160 191 190 180 198 222 218 221 227 218 230 230 235 234 228 231 232 216 181 130 81 55 57 73 86 86 78 64 76 83 85 66 69 67 70 92 127 132 140 125 141 141 140 140 140 140 139 140 141 142 142 142 142 142 143 143 141 141 141 141 141 140 140 140 138 138 139 138 137 136 135 134 133 132 130 131 124 
171 174 173 175 176 177 176 178 178 178 179 179 180 179 180 181 183 182 182 183 184 182 183 184 184 184 185 186 187 188 188 189 189 191 192 195 196 197 196 196 196 192 185 171 143 143 155 176 201 214 221 218 207 210 207 180 170 182 181 156 148 150 148 148 151 157 159 163 161 159 165 165 170 195 195 195 209 228 226 223 228 218 227 235 230 232 236 237 231 229 232 236 240 226 186 126 72 48 50 63 64 84 88 85 67 68 71 75 109 136 132 140 127 142 140 140 140 140 140 140 140 140 140 141 142 141 143 143 141 141 142 140 140 140 140 139 139 138 138 139 138 135 135 135 134 132 132 130 128 124 
171 174 174 175 175 177 177 178 178 178 178 179 180 180 180 180 181 180 180 181 181 182 182 182 183 182 184 184 186 187 187 188 190 190 191 194 195 195 196 196 196 190 180 174 176 200 219 226 222 214 218 206 210 218 208 212 197 178 179 189 168 163 167 171 171 180 183 178 168 172 178 189 195 206 215 225 231 229 226 228 219 219 236 243 226 226 232 239 241 236 235 234 231 230 235 237 220 172 110 56 29 46 72 83 70 71 71 81 108 125 132 138 126 141 139 140 141 140 140 140 140 139 141 141 140 141 141 142 141 142 142 140 141 140 138 139 138 138 137 137 136 135 135 134 133 131 131 129 129 124 
170 174 174 175 177 178 177 178 178 179 178 177 178 177 179 180 180 179 179 180 180 180 180 180 181 183 185 185 186 187 186 187 188 189 189 193 195 194 194 193 195 196 205 217 224 222 220 218 214 210 213 204 213 226 213 210 224 220 196 190 192 180 170 176 181 180 177 177 184 191 198 211 224 234 237 237 232 231 230 225 215 231 236 242 235 230 235 237 238 240 240 238 237 237 235 231 232 237 237 216 168 111 72 51 46 64 72 88 119 134 132 129 126 141 139 139 138 140 139 140 141 140 140 141 141 142 141 142 141 141 139 139 141 140 139 139 138 137 137 137 136 134 134 133 131 131 130 128 128 123 
169 173 173 173 175 175 175 176 177 177 176 176 177 177 177 178 178 178 179 178 179 178 179 180 180 181 182 182 184 184 185 185 188 189 188 191 190 192 197 207 217 225 225 221 213 216 218 217 214 212 215 207 212 230 228 215 217 233 240 220 201 197 189 181 178 174 178 182 199 214 232 244 247 246 242 241 237 233 227 217 221 240 236 237 237 242 243 240 241 240 241 240 236 237 239 241 238 235 229 231 235 233 216 171 114 64 41 75 115 129 135 136 126 141 139 137 139 140 138 139 141 140 138 140 141 141 141 142 141 141 141 141 139 140 138 138 137 137 137 136 134 133 133 133 129 130 128 127 127 123 
168 172 172 172 173 173 173 174 175 175 175 176 176 177 177 177 177 178 178 178 178 178 178 183 183 182 183 182 184 185 186 187 188 184 184 192 203 214 221 225 223 223 224 218 210 210 206 210 208 213 216 212 210 225 229 225 220 227 238 239 242 215 189 186 184 186 203 220 236 244 245 245 245 244 242 240 235 227 221 216 237 246 236 235 232 239 242 246 246 243 241 239 238 236 236 238 240 242 241 237 233 230 231 235 233 209 160 114 99 101 120 132 128 143 140 138 139 139 139 139 139 140 141 140 140 140 141 141 141 141 140 141 139 139 138 137 137 137 135 134 133 134 132 132 131 130 129 127 126 121 
168 172 171 171 172 171 172 173 174 174 176 175 175 175 176 176 176 176 176 178 176 178 178 178 178 179 178 179 180 180 180 179 182 194 210 221 224 224 222 223 220 222 225 217 205 206 204 207 212 221 221 217 210 213 220 225 227 220 214 201 162 126 126 114 116 115 167 234 239 238 241 243 244 241 236 235 234 226 220 223 248 243 235 233 235 243 238 239 242 246 246 244 242 240 240 239 239 242 243 244 243 241 237 234 230 232 236 228 196 152 119 101 110 130 137 140 139 139 138 137 139 140 140 140 140 141 141 141 140 140 140 140 140 139 138 137 135 136 134 134 133 133 133 132 130 130 128 127 127 121 
166 171 171 171 172 173 173 172 173 173 173 173 174 174 175 175 175 175 173 175 175 174 174 174 174 175 176 176 174 175 184 200 216 223 223 224 222 222 222 220 214 213 214 210 206 215 208 212 219 225 224 216 215 208 221 216 179 184 192 89 85 95 90 113 121 131 98 138 232 253 243 245 245 242 238 237 234 225 220 237 253 242 238 231 239 241 241 239 239 240 242 245 246 247 245 242 241 242 243 243 243 243 245 245 244 242 237 234 234 234 217 180 132 102 107 121 129 135 139 139 139 140 140 141 141 140 140 140 141 140 142 140 140 139 138 137 135 135 134 134 134 131 131 131 130 129 127 126 125 121 
166 170 170 172 173 172 171 170 171 171 171 171 172 173 173 173 173 174 173 173 172 171 173 173 177 175 170 174 189 207 218 222 221 219 217 216 214 215 215 215 215 219 215 207 215 212 207 218 222 221 220 215 219 218 202 144 179 202 218 166 66 93 97 110 110 127 119 97 101 219 252 245 245 244 238 235 231 225 230 247 251 241 237 235 242 240 240 240 241 241 236 237 240 242 246 248 249 248 245 245 246 246 245 245 245 244 242 240 238 232 228 231 223 186 131 101 109 114 123 131 137 139 139 140 139 138 138 139 139 140 141 139 139 138 137 136 135 135 134 134 132 131 131 131 130 127 126 125 125 120 
163 166 166 167 167 168 169 170 170 170 170 170 171 171 171 171 171 173 172 172 174 174 169 166 153 161 196 209 216 215 212 212 212 212 213 211 213 216 215 214 217 218 208 211 220 210 204 214 217 214 217 215 219 230 171 162 193 201 207 220 130 68 88 98 119 113 103 73 109 225 242 247 244 243 239 235 231 230 241 251 248 239 242 243 243 244 243 244 244 243 240 242 240 240 241 243 244 247 248 250 249 248 248 246 245 243 243 243 240 237 234 230 226 226 215 149 100 107 106 110 119 130 136 139 139 139 140 140 137 138 137 138 139 139 138 137 136 135 134 133 133 133 131 129 128 126 126 125 126 120 
160 164 164 165 166 167 169 169 168 167 168 169 169 170 170 171 169 170 169 175 138 87 88 77 106 198 216 211 209 208 210 213 213 214 212 210 213 216 214 215 219 216 212 218 221 212 210 218 220 220 221 220 224 235 205 174 199 200 202 203 207 103 83 97 132 118 73 125 246 249 223 241 246 245 244 236 229 239 249 252 248 241 247 246 246 248 247 247 248 246 246 246 245 245 245 245 245 243 245 245 245 246 248 249 248 247 247 244 242 241 239 234 230 218 211 210 145 102 109 107 106 112 121 132 137 139 139 140 139 139 139 139 138 138 139 137 137 135 134 133 133 131 129 128 128 127 127 126 125 120 
157 161 160 162 163 164 163 164 164 164 165 166 165 167 167 166 168 168 163 172 126 32 26 81 202 211 203 207 211 209 211 212 213 214 212 208 210 212 211 212 212 212 212 214 214 210 214 218 219 221 220 220 225 232 228 186 198 207 208 198 220 172 89 120 140 94 84 234 240 234 223 225 240 240 241 232 226 237 245 248 241 239 242 240 241 242 241 242 242 240 240 241 242 241 242 242 243 242 243 243 241 240 239 238 237 239 239 243 242 241 236 233 224 213 212 208 197 125 104 106 107 106 108 117 128 135 138 138 137 137 137 138 136 134 136 137 136 133 131 131 131 128 126 127 126 125 123 124 121 117 
