P2
150 65
255
47 67 89 90 92 93 94 95 96 97 97 99 100 101 100 103 103 103 105 106 106 108 110 109 110 112 113 112 113 114 116 116 117 117 118 119 118 118 120 112 147 188 184 185 185 187 189 189 193 153 116 130 153 162 159 155 159 136 171 191 189 189 190 192 191 198 207 113 96 99 99 73 89 113 87 66 69 66 75 95 98 48 40 97 118 125 123 118 118 115 118 119 114 102 123 170 91 84 78 67 74 97 77 62 59 53 61 96 128 145 139 138 133 130 126 123 121 120 117 115 113 112 110 110 110 112 104 75 86 77 73 71 67 69 67 65 59 51 58 62 54 47 50 74 45 34 37 53 61 61 
78 79 91 94 96 97 98 99 100 102 102 104 104 104 104 107 109 110 110 111 113 114 114 114 115 116 117 117 118 120 121 121 122 122 123 125 124 125 125 118 151 197 193 193 192 195 196 196 202 175 128 140 157 168 168 171 162 157 200 199 199 198 199 202 201 207 217 120 100 104 103 78 96 121 92 69 73 67 63 76 74 48 54 74 99 118 114 111 117 120 127 124 119 113 96 85 73 65 69 71 58 59 54 45 39 39 36 36 58 98 122 115 109 109 109 112 112 109 109 107 107 108 108 111 111 118 103 82 75 70 76 72 76 62 77 72 73 67 67 73 67 71 71 75 47 37 40 60 66 66 
75 69 91 94 95 96 97 99 101 102 102 103 105 105 105 107 108 109 110 111 112 113 114 115 116 117 117 118 118 120 120 122 122 124 125 124 124 125 126 119 147 194 192 193 195 198 197 197 203 175 128 149 159 171 171 176 163 175 203 196 198 198 198 201 202 207 218 121 100 105 108 79 99 109 63 45 36 32 37 42 41 45 48 45 49 57 59 60 67 76 94 107 112 109 79 55 61 60 61 65 68 65 56 61 51 42 36 33 32 24 43 86 101 100 97 98 96 96 101 98 98 103 104 107 111 122 98 85 59 49 51 68 73 22 55 50 76 42 31 53 54 65 41 77 48 39 43 62 69 67 
69 70 90 95 97 97 98 100 102 103 103 103 105 106 107 108 109 110 111 113 113 113 115 116 117 117 118 119 120 121 122 123 123 125 126 126 126 127 127 121 147 197 193 195 197 200 199 200 203 176 121 142 166 172 170 182 169 175 204 199 200 200 201 202 202 209 220 123 101 105 111 81 100 110 48 35 29 41 38 44 43 35 40 41 41 46 51 55 60 61 52 64 83 89 71 64 58 67 80 85 72 61 57 45 23 19 24 26 23 20 12 31 61 79 86 85 85 88 92 96 98 102 106 113 114 126 93 87 51 31 20 59 67 22 34 28 72 41 25 25 49 62 44 77 46 42 49 69 74 72 
69 71 91 97 98 99 100 101 102 103 104 105 106 107 108 109 109 111 112 114 114 115 116 117 119 118 119 121 121 123 122 124 125 126 128 127 128 128 128 124 146 198 196 195 199 202 201 202 204 175 128 133 148 156 158 171 153 174 205 201 202 203 204 204 204 212 222 127 101 107 110 83 101 118 71 30 37 36 42 55 56 52 46 49 55 70 67 73 70 81 69 55 59 62 46 40 57 66 66 56 47 55 41 31 34 37 37 44 44 26 18 11 13 32 51 57 53 65 74 81 84 87 94 106 115 126 89 90 50 27 29 32 34 19 31 25 34 24 22 24 28 23 49 74 47 40 42 55 55 53 
50 65 90 99 99 100 101 102 102 104 105 107 107 107 109 109 111 111 113 114 114 115 117 118 119 120 121 121 121 123 123 125 126 127 128 128 129 130 132 128 145 197 196 196 201 203 202 203 205 178 147 146 144 145 154 156 162 186 204 202 202 204 205 206 208 213 222 129 102 105 112 84 88 83 56 35 38 39 36 43 41 38 52 56 56 49 47 47 43 38 35 34 33 32 38 50 51 70 63 48 43 36 26 37 41 40 42 49 53 42 32 20 16 20 30 40 47 51 47 53 66 72 75 94 110 126 90 92 100 95 93 91 88 88 87 86 83 84 81 78 77 74 80 62 61 86 67 68 60 44 
21 46 89 99 99 100 102 102 103 104 106 106 108 109 110 110 112 112 112 114 114 115 117 118 120 119 120 122 122 123 126 126 127 127 129 130 130 132 133 130 145 196 196 197 199 200 200 201 207 170 150 150 150 153 148 176 179 179 207 201 202 202 203 205 207 213 221 131 102 108 114 88 84 56 44 40 46 48 41 40 40 41 30 41 43 30 20 31 25 21 17 20 28 35 48 42 52 52 43 67 37 39 28 31 37 36 48 57 59 51 35 20 16 31 43 32 33 40 55 52 39 58 68 69 75 87 66 90 98 100 100 95 93 93 94 92 91 90 89 87 85 85 84 62 46 46 41 39 44 44 
21 42 94 99 100 100 102 102 104 105 106 107 108 109 110 110 111 112 113 116 116 116 117 118 119 119 120 121 123 124 125 127 128 128 129 129 130 131 132 129 143 196 198 197 200 201 200 201 185 131 154 156 143 141 136 162 170 181 205 203 202 203 205 205 205 216 225 134 104 105 101 72 58 48 34 35 37 42 40 37 46 65 57 41 41 57 37 30 39 22 20 18 24 42 19 18 25 34 55 71 46 53 68 54 38 38 40 47 57 50 44 44 49 56 64 46 35 29 33 63 62 42 51 62 57 43 47 57 62 67 69 70 73 71 70 69 69 67 66 66 66 65 63 56 43 24 38 56 59 59 
22 32 85 102 101 101 102 104 104 105 107 109 109 109 111 111 112 113 114 116 116 117 118 119 121 121 122 123 123 125 124 125 126 127 129 131 132 132 132 127 137 194 198 197 199 201 201 206 158 140 174 155 130 116 137 173 179 188 206 205 206 206 206 205 208 204 187 123 76 83 94 54 50 70 36 16 17 30 31 28 41 52 64 72 58 70 67 33 42 43 18 14 14 11 13 7 32 36 28 28 24 34 72 68 32 35 40 58 70 73 70 46 42 38 33 31 36 33 25 34 51 64 63 67 81 70 58 71 73 71 74 78 81 85 84 82 79 79 77 75 74 72 77 64 43 34 46 63 63 67 
23 21 65 104 100 102 102 104 105 106 107 108 109 110 111 111 113 114 116 116 117 118 119 120 121 123 122 122 124 126 126 123 122 122 126 126 125 127 126 131 141 195 199 198 199 201 203 201 138 168 181 161 123 127 158 183 179 199 208 202 208 207 207 208 210 197 136 69 56 69 76 56 54 41 27 33 41 48 51 47 44 50 52 48 61 66 50 44 36 40 30 14 8 9 11 13 18 12 22 27 21 31 35 48 24 24 24 35 53 62 56 46 34 37 39 37 29 26 26 23 17 27 64 75 70 80 62 71 59 59 61 60 63 66 68 66 61 58 57 53 55 51 74 70 40 33 46 63 65 71 
23 23 65 104 100 102 104 106 106 106 108 110 110 111 112 114 115 115 116 117 120 119 119 120 121 123 123 123 125 126 127 128 129 130 130 130 130 129 133 80 67 193 198 199 204 206 208 201 134 173 168 169 126 161 177 182 181 210 211 203 202 207 209 208 208 220 134 51 70 56 55 51 34 34 36 45 59 59 62 74 78 77 68 56 48 61 63 36 44 29 25 26 13 9 13 13 16 22 26 26 28 26 33 30 18 19 22 30 49 56 56 39 47 44 38 38 34 21 20 24 22 14 20 79 80 73 64 67 44 46 55 56 54 61 60 63 55 51 50 43 45 48 76 70 40 33 48 64 67 74 
24 23 61 105 102 104 105 107 107 107 109 110 111 112 113 114 115 115 117 118 119 118 121 122 123 124 124 125 125 125 126 127 128 129 131 131 131 132 135 43 31 189 199 197 195 194 196 199 151 176 193 137 147 197 194 181 187 214 210 210 202 201 205 210 208 224 173 63 58 45 33 25 30 30 36 40 45 55 61 59 59 72 74 53 41 49 41 29 22 25 17 18 19 15 17 22 25 21 24 24 24 31 38 29 21 17 15 26 34 42 63 63 48 35 35 24 22 19 17 27 28 24 13 30 86 75 61 72 44 42 48 52 59 70 73 71 67 63 67 63 60 49 79 71 39 34 51 67 72 79 
23 22 57 103 102 103 104 106 107 107 109 111 112 112 113 115 116 116 118 119 118 120 120 121 122 123 124 125 126 127 129 128 128 130 131 131 130 130 132 50 31 186 201 196 183 184 189 192 194 196 197 183 195 201 201 196 205 209 210 211 209 203 198 199 202 200 121 37 33 26 25 25 20 22 31 31 54 62 35 35 37 43 39 26 18 24 26 20 15 11 13 17 21 16 17 16 14 16 25 29 40 44 34 22 32 29 19 20 12 21 38 54 47 51 36 28 28 18 11 15 25 26 18 16 49 83 64 71 52 59 56 56 63 69 71 70 65 69 64 62 60 48 83 71 37 34 55 73 79 82 
22 21 52 103 102 104 105 106 107 108 110 111 113 113 114 115 115 116 117 118 120 120 120 122 124 124 125 125 126 127 129 130 129 130 130 130 129 130 122 36 27 181 202 199 203 202 205 207 210 211 211 212 211 206 200 202 210 214 215 215 217 219 217 214 193 74 29 41 29 21 16 19 19 28 28 36 60 34 22 27 26 24 25 27 27 25 22 17 15 19 16 16 22 26 27 24 23 21 30 39 50 42 29 19 26 47 66 55 30 33 36 47 42 50 40 23 22 20 14 16 13 25 29 19 18 47 67 70 47 46 43 41 50 48 48 58 60 53 45 47 48 53 86 70 36 38 61 77 83 86 
24 22 45 102 104 105 106 108 109 110 111 112 113 113 115 115 116 117 118 119 121 122 122 122 124 125 125 126 127 126 127 129 127 126 126 126 124 129 102 22 24 176 206 199 201 195 194 197 201 201 203 212 214 214 214 213 213 212 208 206 206 207 201 203 104 25 45 34 14 13 13 16 22 29 20 51 37 11 17 28 36 37 32 37 39 37 44 29 24 36 44 48 32 43 45 30 39 51 50 55 57 60 50 43 36 36 49 43 48 46 47 45 42 43 39 25 20 18 16 10 9 13 35 20 18 20 45 68 46 46 52 45 56 51 47 57 67 54 45 52 54 54 90 69 38 44 69 83 86 90 
23 22 40 100 105 106 107 107 110 111 111 113 113 114 115 115 117 117 118 119 120 122 122 123 124 125 126 127 127 127 127 126 126 126 124 124 124 130 93 19 21 170 207 200 202 199 200 192 192 199 194 159 163 166 170 172 177 179 183 186 184 185 205 140 36 44 54 28 12 13 14 14 18 13 19 42 14 30 32 48 63 57 60 58 65 66 65 78 72 67 70 72 65 66 64 57 61 88 94 78 88 84 84 62 56 51 66 54 38 47 47 50 70 62 38 26 22 16 13 11 10 8 21 53 17 25 62 71 52 52 54 50 49 50 49 49 56 55 45 49 55 55 99 70 44 59 65 68 88 93 
19 19 33 96 106 105 107 109 109 111 112 113 114 114 116 116 117 117 118 120 121 121 124 124 125 125 126 127 127 127 127 128 127 127 126 125 124 132 82 15 20 165 206 200 203 197 206 137 95 126 188 102 104 103 106 106 108 112 113 113 114 110 198 140 37 41 54 25 14 12 12 13 8 7 30 27 16 38 33 79 102 108 121 126 148 162 154 160 155 139 119 96 84 91 102 116 144 152 160 157 155 152 136 92 77 60 55 72 59 46 40 59 77 44 29 30 37 25 11 8 9 16 10 42 41 35 71 77 57 55 53 55 51 52 48 44 45 53 51 48 54 59 98 66 49 66 64 59 71 73 
19 20 25 90 108 106 108 108 108 110 112 113 114 114 116 117 118 119 119 121 121 122 123 123 124 125 126 127 127 127 128 130 129 128 128 128 128 124 42 20 20 161 207 200 202 197 208 138 77 111 190 108 110 111 109 108 112 112 114 114 118 118 198 206 72 43 20 15 17 12 8 8 6 23 39 23 29 48 63 92 141 145 162 181 198 197 215 217 212 204 195 180 162 168 183 201 213 220 217 210 204 194 176 158 139 113 61 49 54 46 35 32 36 36 36 26 28 23 12 8 8 9 15 13 34 42 65 76 58 56 54 57 55 51 49 45 50 50 60 53 54 63 90 63 100 90 61 60 48 51 
19 19 23 91 109 106 106 107 109 111 112 113 114 114 116 116 117 119 119 120 122 123 123 124 125 126 125 127 127 128 128 129 129 130 130 128 138 74 19 21 16 155 207 199 203 199 202 177 147 160 196 165 167 165 164 164 164 167 174 168 163 166 188 132 119 57 16 17 14 7 8 14 36 27 19 24 34 47 82 70 134 175 182 189 202 208 214 223 223 222 225 230 234 231 228 225 222 221 219 216 216 211 195 190 178 161 126 61 56 61 62 59 55 56 56 55 42 31 27 18 16 18 9 12 26 33 66 77 59 56 53 61 60 54 56 54 57 58 64 58 53 64 91 55 81 139 85 56 48 47 
19 19 21 83 110 107 107 108 109 110 112 113 113 114 115 117 118 119 120 121 122 123 124 124 125 127 128 127 128 129 128 129 130 131 131 134 119 27 22 20 19 152 208 199 203 200 201 198 187 196 204 204 197 197 196 202 199 202 215 216 212 216 183 72 62 45 18 15 14 18 27 35 35 13 19 30 39 55 76 51 112 180 186 192 218 225 226 224 228 232 234 232 233 235 231 227 229 226 220 223 220 218 208 205 195 188 153 87 72 61 56 59 65 76 71 49 40 26 27 25 20 18 15 18 25 22 48 69 53 55 56 60 59 56 57 55 64 66 64 68 64 75 91 56 71 95 100 90 87 80 
17 19 14 65 113 107 108 109 111 112 112 113 113 114 116 117 118 119 120 122 121 122 124 125 125 126 128 127 128 128 128 130 131 132 130 140 83 14 24 21 24 150 210 199 204 200 193 191 182 189 206 202 189 192 193 193 193 193 197 199 208 211 149 54 18 25 20 20 27 40 32 23 19 24 29 38 38 67 78 46 88 190 200 203 211 220 227 229 232 233 233 231 233 234 232 231 229 226 225 224 223 220 215 204 198 187 166 119 111 80 56 57 54 48 53 40 40 36 26 20 15 13 12 15 20 25 28 58 73 74 75 77 78 73 68 68 75 78 81 83 83 82 72 66 98 86 87 75 58 56 
17 20 13 60 111 106 107 108 110 111 113 114 115 116 116 117 118 119 121 122 122 123 124 124 125 126 127 127 128 128 128 130 131 132 131 138 51 12 16 16 24 146 208 199 203 200 180 189 183 194 208 200 184 188 191 190 191 188 191 188 203 180 78 43 41 33 17 22 33 64 78 57 43 37 35 41 44 97 87 43 96 193 208 207 209 223 227 230 230 233 231 229 230 230 232 231 227 224 227 224 221 217 213 208 202 192 189 163 130 116 92 70 58 49 47 47 49 47 42 28 16 11 11 15 20 32 39 36 51 59 56 53 53 50 52 52 51 63 77 81 80 84 70 60 60 45 52 51 54 56 
20 19 11 53 111 106 108 109 110 111 112 113 115 116 116 117 118 119 120 121 122 123 124 124 126 126 127 128 128 127 129 130 131 131 134 121 27 42 45 41 44 145 208 198 202 202 183 171 185 176 190 204 191 191 189 187 171 182 199 201 209 199 185 162 132 83 28 40 47 83 112 75 53 42 45 44 44 83 70 49 139 201 202 204 215 221 226 230 232 231 232 233 231 232 232 234 234 231 228 225 221 216 212 206 201 201 194 185 162 127 110 81 63 60 52 44 40 40 36 33 24 13 11 13 19 27 43 45 23 33 51 49 50 50 52 52 50 69 88 76 75 81 76 46 22 36 57 57 57 59 
14 13 9 46 109 106 108 109 110 111 113 113 114 115 116 117 118 119 119 121 121 122 124 124 126 126 127 127 127 127 128 129 131 130 137 92 45 81 83 84 75 140 209 198 201 201 182 171 171 171 188 188 190 177 175 172 174 192 199 205 212 218 209 197 148 101 44 27 29 46 67 60 32 44 56 45 42 61 52 76 174 197 201 212 215 220 223 227 230 229 229 229 229 230 231 232 231 230 228 224 220 217 217 211 205 202 191 182 180 150 115 86 62 62 49 43 36 30 27 25 26 19 14 14 17 17 25 33 27 28 51 50 51 51 53 53 49 65 84 79 80 89 72 47 28 40 57 56 51 57 
12 13 8 38 108 107 108 109 110 111 113 114 114 116 117 118 119 120 120 121 123 122 124 124 125 126 127 128 127 129 130 129 131 130 136 82 70 53 77 87 97 141 206 198 201 200 168 174 161 189 187 179 174 190 197 199 199 197 198 192 192 179 159 143 125 98 27 18 30 29 55 55 44 80 61 45 43 55 46 109 186 199 213 223 225 227 227 228 229 231 232 231 228 229 231 230 232 231 228 224 223 222 220 220 209 205 198 186 173 163 126 95 65 54 47 51 43 29 22 19 19 19 16 16 15 15 16 19 27 52 54 47 54 52 53 56 53 56 62 67 63 63 64 46 28 41 57 51 37 52 
8 8 7 39 106 108 109 110 110 111 111 113 114 116 116 118 119 119 120 121 121 123 124 126 126 127 128 129 128 128 129 130 130 130 129 85 53 7 21 48 62 118 209 198 202 197 163 159 167 185 195 175 186 161 155 162 165 174 179 194 202 180 162 151 114 46 16 21 27 26 41 51 58 96 69 62 50 44 54 153 194 210 219 226 230 230 231 236 234 234 238 234 232 231 230 234 237 236 233 231 225 218 218 223 219 213 208 201 185 166 138 91 65 45 32 43 66 47 32 18 14 18 16 16 18 28 31 36 45 75 84 79 87 75 57 50 53 54 54 56 58 59 63 46 25 40 60 41 32 52 
7 9 14 36 99 109 108 109 110 111 112 113 114 116 116 117 118 118 120 122 122 123 124 125 126 127 127 128 129 129 129 130 130 129 128 88 35 11 12 25 30 95 211 197 201 200 171 149 168 188 175 177 193 134 167 138 108 118 115 179 219 212 195 176 94 27 22 27 23 23 32 40 40 74 76 51 50 42 119 182 197 211 217 224 229 232 236 236 234 235 235 236 236 234 232 234 236 235 234 233 227 225 224 212 209 204 192 184 181 176 157 113 59 40 31 13 48 65 36 20 12 20 18 16 19 24 43 49 73 88 83 102 108 101 96 77 59 50 54 59 62 62 66 44 25 37 52 35 30 50 
14 17 16 17 93 111 109 110 110 112 112 113 115 116 116 117 120 120 120 121 122 122 124 125 124 126 127 126 127 129 128 128 129 129 130 77 18 13 14 37 27 86 210 196 201 199 193 157 160 174 167 196 166 126 171 96 102 122 103 180 215 196 180 112 68 83 94 53 27 28 29 32 34 50 44 36 35 65 116 110 119 124 136 140 149 162 186 207 221 225 228 225 227 229 228 219 222 223 215 205 194 173 144 121 107 98 102 101 95 84 86 74 48 52 26 20 29 43 36 29 18 18 29 20 28 61 48 60 92 84 89 69 78 105 109 110 105 87 68 59 62 65 67 39 21 32 40 34 28 45 
13 10 13 16 88 112 108 110 111 113 113 113 115 116 115 117 119 119 120 122 121 123 125 125 125 126 126 127 128 128 128 129 129 127 131 55 9 16 14 39 20 77 209 198 201 197 194 161 147 170 182 200 160 97 128 78 87 76 64 186 205 202 200 189 195 221 196 92 35 56 33 35 33 30 26 43 48 57 58 66 77 95 104 86 87 87 75 86 118 138 166 201 213 222 224 213 201 189 147 109 83 66 76 81 91 94 90 98 100 89 75 64 45 46 33 21 26 27 16 24 33 25 37 33 49 95 60 85 65 44 83 50 20 43 74 103 113 128 130 106 78 62 62 38 21 33 39 36 26 41 
6 8 13 13 82 113 108 111 112 112 113 113 115 116 116 116 117 119 120 121 121 123 124 125 124 125 127 128 128 128 128 129 128 128 129 38 8 15 18 39 12 70 207 198 198 196 197 164 165 184 185 200 194 197 194 195 185 182 178 202 204 207 209 218 226 214 223 170 83 152 74 20 32 30 33 79 120 145 154 159 133 112 118 104 100 94 150 154 131 142 147 170 201 218 229 219 198 164 150 152 145 161 166 93 78 74 105 103 100 135 163 140 104 71 35 20 36 41 39 40 48 58 73 66 75 94 67 85 38 35 71 95 78 51 30 26 97 101 94 132 133 114 90 30 22 34 37 37 27 38 
33 38 43 39 80 112 108 111 112 112 113 114 114 116 117 117 119 120 121 121 121 123 124 125 124 125 126 127 126 127 128 128 128 128 124 29 11 13 19 36 8 61 205 197 198 199 203 191 195 197 197 191 187 187 194 200 201 202 204 203 205 210 213 213 222 221 222 181 96 157 161 98 67 35 57 111 159 180 192 148 99 166 181 84 65 68 170 246 195 185 198 180 184 213 228 220 193 156 174 180 185 234 210 90 57 64 142 189 113 87 145 159 140 101 57 19 45 65 125 151 139 124 141 90 84 78 90 86 51 52 80 84 94 102 94 80 91 51 32 80 122 129 137 38 21 35 36 39 27 32 
50 50 50 40 74 113 109 111 112 112 112 113 114 115 117 118 119 120 120 121 121 123 124 124 125 125 125 126 126 127 128 128 128 130 118 21 11 13 23 30 4 53 204 199 198 201 204 205 203 194 195 195 192 195 196 203 202 201 200 199 203 207 213 223 221 221 222 183 101 114 199 210 201 99 70 144 183 198 185 144 158 203 220 172 141 168 224 228 204 199 200 188 179 206 222 216 186 154 176 194 185 190 215 191 153 163 195 181 155 125 150 179 171 131 96 27 55 105 177 188 192 174 120 88 86 102 100 77 80 84 73 73 77 90 107 103 30 25 60 99 62 53 133 58 15 33 35 40 29 30 
45 47 49 46 73 114 110 110 112 113 113 114 115 116 116 117 119 119 119 121 122 123 123 123 124 125 125 125 126 127 128 128 127 131 109 14 12 13 23 24 3 46 201 199 197 194 198 201 200 202 204 210 207 209 207 213 215 214 211 211 207 203 208 221 220 220 222 184 101 118 207 213 225 183 114 159 193 203 195 193 165 168 189 201 209 212 204 187 194 216 196 183 176 202 218 213 185 156 172 198 187 181 188 198 191 181 171 162 158 177 190 196 185 152 111 75 130 188 185 186 201 160 91 87 99 112 92 78 90 85 78 76 79 84 98 106 96 68 44 35 75 107 82 35 20 31 35 39 31 29 
73 82 84 87 94 109 109 110 112 113 113 114 115 116 118 118 119 120 120 120 121 123 124 124 124 125 126 126 126 127 128 128 127 131 94 10 13 14 25 21 3 39 196 199 197 184 177 175 178 179 181 184 186 188 192 196 200 205 207 209 207 204 208 218 216 216 222 184 103 106 178 198 196 200 174 158 200 208 199 199 194 193 194 200 205 208 208 210 219 208 197 171 177 209 219 216 195 153 176 198 210 212 209 206 203 196 196 196 195 194 197 202 189 159 115 127 170 195 182 178 185 116 91 95 110 103 80 88 91 85 83 84 91 101 100 101 108 119 108 91 107 71 45 49 34 32 36 40 33 24 
95 102 100 99 101 109 110 110 112 113 113 114 115 116 117 118 119 120 121 121 122 123 124 124 124 124 124 125 127 128 128 128 127 133 75 5 15 17 26 17 4 35 193 199 199 201 200 199 198 196 193 191 190 188 187 185 183 183 184 184 185 187 190 194 202 213 219 185 105 103 128 187 194 187 179 162 201 214 213 208 216 217 216 220 220 222 228 225 215 204 183 169 181 207 220 215 196 159 161 189 210 219 216 213 217 215 212 208 204 206 205 203 188 162 120 107 159 190 172 184 138 93 98 100 114 98 86 85 85 94 90 99 64 60 103 104 104 100 113 112 69 51 54 53 51 35 37 39 37 24 
100 110 108 107 104 108 110 111 112 113 113 114 115 116 116 117 118 119 120 120 121 122 123 122 123 124 125 125 125 126 127 128 127 131 55 5 13 19 25 15 7 29 188 201 198 199 201 202 204 205 206 207 208 210 210 209 208 208 208 207 206 204 204 203 208 213 219 186 104 108 107 161 201 209 174 153 192 217 222 219 221 228 227 226 224 228 224 216 210 197 181 175 181 204 219 217 195 168 158 180 207 217 217 217 218 221 220 215 218 215 211 202 183 158 106 132 204 185 178 161 101 93 100 109 112 95 99 90 43 51 84 89 14 48 116 110 113 117 110 76 55 55 54 50 59 44 35 37 36 27 
84 88 80 70 65 107 111 111 112 112 113 114 115 116 116 116 117 118 120 120 121 121 123 123 124 124 124 125 126 126 127 127 128 122 35 6 12 19 22 12 6 23 182 201 198 199 200 201 202 203 204 205 206 207 207 208 209 210 211 213 215 215 216 216 216 214 219 188 104 107 100 138 206 211 189 149 180 207 218 221 226 227 226 229 225 226 221 219 213 200 170 178 199 213 226 221 207 185 156 181 203 214 216 221 220 221 222 219 215 213 205 193 170 146 94 156 200 186 165 111 93 100 107 120 107 97 96 95 89 62 45 37 25 110 119 117 120 112 90 65 59 60 54 47 58 47 25 30 29 21 
29 28 29 23 22 102 111 109 111 111 112 114 115 116 116 116 116 118 120 120 120 121 122 123 125 123 123 125 126 126 125 125 128 110 19 7 13 21 19 10 7 21 177 201 197 198 200 202 202 203 204 204 205 206 207 207 207 209 209 211 210 211 212 213 215 215 217 189 104 107 107 89 142 203 208 154 170 190 207 213 219 224 223 224 224 219 218 223 224 201 162 184 200 216 229 225 207 183 150 170 213 216 217 219 219 218 217 212 211 205 194 178 152 119 111 193 186 140 104 95 97 101 111 119 102 98 97 94 92 99 101 78 54 58 90 122 111 98 78 62 63 61 55 57 70 44 12 27 27 18 
9 19 22 14 16 96 113 110 111 112 112 113 114 114 116 116 116 118 118 119 120 121 122 122 124 124 123 124 124 126 125 123 130 89 9 8 14 22 17 10 5 27 179 201 197 199 200 201 202 202 203 203 205 205 204 204 206 207 207 208 209 210 212 213 214 214 218 190 105 105 108 89 70 108 120 132 174 185 193 206 214 220 221 219 219 219 223 228 220 177 178 193 202 221 235 223 207 187 171 151 204 223 218 213 212 212 213 212 207 197 181 164 149 105 100 143 113 95 96 89 89 90 113 120 101 100 97 94 96 98 104 114 114 88 52 68 109 90 67 63 63 60 65 86 89 65 28 27 21 17 
12 18 14 18 17 91 113 110 111 113 113 113 113 114 116 116 116 118 118 120 120 121 122 122 123 124 123 124 124 125 126 123 131 67 8 7 16 20 13 11 4 43 180 200 196 198 199 199 202 201 201 203 204 205 208 208 209 209 208 209 209 208 210 211 212 213 216 191 106 105 106 91 74 99 95 103 174 188 195 206 211 212 218 218 218 223 223 230 208 179 183 179 199 229 241 226 213 188 173 148 181 224 217 213 210 213 210 206 194 188 184 164 158 80 61 76 70 72 66 64 68 61 92 114 107 103 98 98 102 106 112 112 112 120 115 100 106 80 66 65 63 62 53 63 77 80 78 69 50 32 
13 24 16 16 14 82 114 109 112 113 114 114 114 115 116 117 116 117 119 120 120 121 121 121 123 122 124 125 125 127 126 124 127 45 10 8 18 20 12 9 5 59 175 200 197 199 199 201 200 199 200 201 203 199 193 196 201 205 205 207 211 212 212 214 214 212 215 191 106 105 107 91 73 101 104 91 158 192 196 202 210 212 216 215 214 223 225 225 215 182 168 153 166 199 209 203 158 133 157 159 197 216 210 212 211 208 207 199 192 188 187 166 134 76 66 57 31 53 60 62 63 60 49 54 80 104 110 109 111 115 114 113 114 112 108 110 94 70 66 64 65 63 58 73 95 113 117 125 118 103 
23 25 26 20 19 79 114 108 112 112 112 113 114 114 115 116 117 117 117 119 119 120 121 122 123 123 124 124 125 126 126 126 117 27 12 9 18 17 11 9 10 76 169 201 197 198 199 200 199 200 200 200 203 192 165 168 169 173 173 175 179 182 186 189 206 214 214 191 107 104 105 91 72 98 103 81 138 181 200 202 206 205 207 214 217 220 217 209 206 194 167 166 169 169 166 155 145 136 167 205 203 205 208 213 210 207 203 196 191 188 180 152 117 79 77 36 26 32 52 62 61 60 53 46 47 66 100 118 117 117 113 113 115 109 104 103 82 67 67 65 65 60 73 93 81 88 80 76 89 103 
27 36 41 42 35 75 113 109 112 111 112 113 114 114 115 116 117 118 117 118 119 119 120 120 122 122 123 123 125 125 123 129 100 14 14 9 18 15 11 7 22 89 164 202 196 199 199 199 200 201 202 201 204 194 166 168 164 168 170 171 167 170 173 174 201 214 212 192 107 104 105 89 70 96 103 75 125 168 189 200 204 207 208 216 212 208 205 197 197 190 173 187 196 183 178 178 181 174 172 183 191 192 197 197 208 202 198 197 185 179 163 134 118 88 47 25 28 28 30 49 62 59 59 60 60 56 60 80 107 121 115 111 115 105 103 97 74 67 67 65 65 59 79 104 107 91 21 13 9 7 
38 42 40 36 23 64 114 110 111 112 112 114 114 115 116 116 117 117 117 118 117 120 120 121 121 121 123 124 124 124 123 129 78 6 16 11 19 15 11 4 38 96 158 202 194 198 199 200 200 200 201 202 204 195 165 169 167 169 171 171 171 171 175 175 200 214 213 193 107 103 105 89 69 97 104 73 111 159 180 190 194 205 208 202 188 194 187 185 182 180 183 192 192 186 193 192 196 185 180 181 181 184 185 178 186 200 191 182 178 167 151 133 116 43 26 33 30 29 25 22 46 60 57 65 70 68 66 59 60 82 107 115 113 108 110 90 66 69 67 64 65 61 68 76 74 74 73 77 79 69 
28 26 23 22 15 54 114 108 110 111 113 113 113 115 116 115 117 118 116 116 118 118 121 120 120 122 123 123 124 124 123 129 54 6 16 12 17 13 10 3 56 98 154 202 195 196 198 199 199 199 199 200 203 196 165 166 147 162 170 169 161 160 175 173 199 213 211 195 109 101 104 90 75 90 86 68 88 157 173 180 185 200 198 187 190 198 197 186 189 195 212 215 211 203 200 204 213 208 208 194 186 195 188 177 168 185 186 170 169 155 140 139 74 13 30 22 23 29 16 5 26 42 58 65 70 71 74 69 64 58 60 83 95 96 90 71 67 70 67 64 64 61 60 80 71 39 45 56 70 86 
16 17 14 13 3 40 112 107 110 109 112 113 114 114 116 115 116 117 117 117 118 117 119 119 120 121 123 122 123 123 123 123 34 8 18 13 16 10 10 6 74 99 150 202 194 196 197 199 200 201 199 200 202 196 167 166 151 163 169 168 152 157 172 173 198 214 211 196 107 101 105 90 78 69 64 63 63 135 171 175 174 195 191 185 197 200 192 185 182 180 179 181 191 206 200 190 183 183 186 190 200 200 196 185 171 176 182 160 150 149 145 125 37 25 14 8 7 27 16 7 11 14 40 67 70 73 76 73 72 69 63 54 59 62 60 63 68 69 68 66 64 59 65 87 92 94 94 81 47 33 
7 7 7 8 2 32 110 108 112 111 112 113 114 113 115 115 115 116 117 117 118 117 117 118 119 120 122 122 122 121 124 110 17 11 19 16 15 11 9 16 92 98 145 201 195 197 197 199 199 198 200 200 202 196 169 171 168 169 170 170 169 170 173 172 196 212 210 198 111 103 87 72 65 65 65 67 63 106 165 176 160 180 196 191 192 181 167 143 135 118 130 141 137 146 144 138 130 122 131 146 147 160 177 178 176 179 172 144 143 147 145 82 3 56 78 29 1 24 17 5 3 12 27 42 68 75 75 73 74 72 72 67 66 67 68 68 68 69 57 58 65 59 53 62 64 69 78 84 77 56 
6 6 6 8 1 21 109 109 109 110 111 112 112 112 113 115 115 115 115 116 117 117 118 117 119 120 120 122 122 121 126 91 8 12 18 16 13 10 5 29 102 95 142 199 193 196 197 198 198 199 200 199 202 196 162 163 164 164 165 166 168 168 170 171 196 211 208 196 108 84 76 74 68 72 73 75 66 109 145 175 166 161 196 199 200 199 192 170 166 160 162 160 158 155 156 155 152 164 170 174 185 191 181 177 179 177 156 138 144 142 119 18 18 71 79 80 18 21 21 2 5 24 29 28 43 73 78 72 73 73 71 71 71 70 68 67 69 60 33 17 52 62 48 58 64 61 60 64 57 43 
3 3 2 7 5 16 104 110 110 110 110 112 112 112 113 114 115 114 115 115 115 116 117 117 118 120 120 122 121 120 127 69 6 13 17 15 12 10 4 47 106 94 138 197 192 196 197 198 198 198 199 200 201 201 192 188 185 182 180 177 176 175 172 169 193 209 211 140 87 85 88 89 80 75 72 70 62 119 157 147 176 153 172 190 196 197 185 173 174 177 185 191 193 191 194 192 183 184 181 186 190 184 180 181 177 160 140 134 139 134 80 9 53 69 70 86 75 27 10 3 19 30 25 27 29 41 68 74 74 72 71 70 72 70 69 66 70 47 16 19 52 63 13 10 25 27 28 31 26 25 
3 3 4 4 7 11 98 111 109 109 110 110 112 112 113 114 113 114 115 115 114 114 116 116 117 118 118 120 118 118 124 44 5 10 15 13 10 10 4 65 109 97 135 196 191 194 195 197 197 197 198 199 200 201 203 204 205 206 206 206 206 204 204 204 207 218 191 94 91 95 95 74 71 77 84 105 116 123 178 152 153 156 156 179 187 189 184 173 165 158 157 156 158 160 163 157 158 163 165 168 174 175 171 170 163 143 129 129 117 96 83 23 68 66 70 78 87 65 22 5 8 13 24 23 26 28 53 72 73 72 71 69 72 70 68 68 67 63 50 55 61 60 55 47 37 31 19 9 14 13 
5 5 5 5 6 9 91 110 108 109 110 111 112 112 112 113 115 114 115 115 114 114 114 116 117 118 118 118 118 119 113 26 8 9 15 16 11 7 11 82 107 98 131 195 191 194 195 194 196 197 198 198 199 199 199 199 200 199 200 202 207 211 213 207 190 182 137 94 97 98 78 101 126 141 157 163 91 133 174 193 153 140 151 173 181 185 187 194 191 186 180 177 178 176 178 179 185 192 195 191 185 176 171 169 157 140 127 112 86 125 108 34 80 71 74 79 83 82 96 75 19 9 20 22 26 45 64 67 71 72 71 70 71 70 68 66 66 66 69 66 61 60 123 147 140 130 120 105 86 57 
9 7 8 8 9 7 83 111 108 110 110 110 112 112 112 113 114 114 115 115 115 115 115 116 116 118 118 117 116 120 98 12 10 10 16 17 10 5 22 94 104 98 126 193 190 193 194 194 195 196 196 195 196 198 200 204 208 209 206 200 189 170 140 116 113 117 111 101 105 91 128 166 170 173 189 100 129 155 172 191 204 148 122 159 175 182 192 198 207 202 192 195 197 202 202 201 199 199 201 193 184 177 167 154 139 122 99 86 143 166 107 29 107 98 79 78 83 80 91 95 90 55 45 42 44 54 56 60 66 69 70 70 73 71 69 66 66 65 52 54 63 59 105 124 150 127 117 119 119 70 
13 15 16 16 14 5 77 112 106 108 108 109 110 111 113 113 113 113 113 115 114 114 114 115 115 115 117 116 116 123 79 7 10 10 14 14 9 1 38 102 101 99 123 191 190 192 192 193 194 192 194 201 206 204 196 180 162 141 124 114 105 91 84 110 115 120 114 104 105 101 159 172 178 199 137 117 183 147 178 190 201 210 151 114 158 173 184 190 190 180 194 202 208 209 210 209 200 185 185 179 176 164 156 135 108 81 100 167 179 157 113 49 78 136 86 73 83 80 96 86 90 93 62 66 66 67 66 66 66 66 69 71 74 71 68 65 66 41 11 12 50 62 79 89 108 146 147 139 127 104 
17 18 16 16 13 6 70 112 105 108 107 109 110 110 112 112 113 114 113 112 113 114 114 114 115 116 115 116 115 123 56 5 10 9 13 14 8 3 56 104 101 102 121 188 190 190 189 189 193 201 196 174 146 120 102 93 86 88 88 88 89 82 98 114 100 118 111 99 106 105 154 183 188 200 105 181 171 151 180 193 202 207 215 171 121 143 164 172 184 178 192 206 205 203 203 206 197 189 174 166 156 146 123 86 81 133 193 195 174 157 112 85 59 135 96 72 83 79 93 88 83 91 80 50 55 55 58 60 60 63 67 64 66 68 69 72 66 27 12 19 42 59 51 48 67 91 79 99 109 96 
20 20 19 16 14 12 63 112 105 108 108 109 110 110 112 112 113 114 113 111 112 113 113 114 115 116 115 115 114 116 35 5 10 10 12 16 8 7 73 104 102 102 118 185 189 188 189 199 185 141 105 86 79 80 82 89 89 86 79 72 69 76 107 100 97 114 105 96 105 108 139 190 204 180 124 203 158 146 178 192 202 205 209 216 192 146 128 135 158 171 180 181 186 187 188 188 182 171 158 143 120 88 81 118 174 206 198 184 173 154 118 99 60 117 100 75 86 81 88 86 86 83 97 73 51 54 54 56 54 55 54 53 55 54 54 55 63 68 63 60 53 27 10 45 51 47 49 60 67 72 
21 22 23 17 17 16 57 111 104 107 108 108 108 110 111 112 112 112 113 112 113 113 113 112 113 115 115 114 116 105 19 7 7 10 11 14 8 14 87 101 101 103 116 183 186 191 192 140 87 77 78 80 81 75 75 73 74 76 71 70 68 85 108 97 95 107 105 105 100 106 126 186 211 172 129 206 168 153 173 187 198 207 212 211 209 198 175 157 138 128 138 141 144 144 143 139 130 110 97 98 97 121 166 196 203 198 194 185 168 156 132 110 66 102 92 76 86 85 93 85 86 83 80 96 61 52 56 56 55 55 56 58 56 53 52 51 50 49 56 61 67 68 65 64 72 74 72 68 71 74 
25 26 27 19 22 19 52 110 104 106 107 106 108 108 109 111 111 112 112 112 111 111 112 112 114 114 113 112 117 87 8 7 6 10 9 13 7 28 96 99 101 104 114 179 191 181 111 75 77 75 71 69 69 70 73 72 77 74 71 72 68 88 97 87 88 108 93 97 102 99 113 174 215 183 117 206 177 163 171 183 195 204 214 214 212 201 188 190 191 173 149 144 149 148 152 142 119 116 142 159 170 185 196 198 203 199 187 178 166 157 141 121 69 84 84 77 80 81 93 81 80 81 76 85 85 50 52 52 53 57 55 56 55 55 56 53 51 51 52 54 54 57 68 70 107 158 156 154 152 147 
27 27 28 17 29 32 57 108 104 105 105 107 108 109 109 110 111 111 111 111 111 112 113 113 115 115 112 111 119 65 4 7 7 12 10 11 8 47 99 98 102 103 109 182 176 101 78 76 68 67 71 72 68 69 74 78 76 76 74 73 67 98 98 88 88 105 99 92 100 98 103 138 207 207 101 190 179 171 169 180 192 199 211 215 215 209 195 188 193 196 191 176 170 179 179 164 163 173 179 175 181 197 206 206 200 196 185 177 167 161 150 126 61 76 80 81 81 82 92 82 78 81 84 83 94 69 47 52 54 54 54 55 55 58 55 53 52 51 53 53 54 55 56 60 62 91 143 154 159 156 
30 37 33 26 51 51 63 103 103 105 105 106 108 108 108 109 110 110 110 110 110 112 112 113 113 112 112 111 116 44 4 7 7 10 9 10 8 58 101 97 102 103 111 166 104 78 71 67 67 69 70 68 67 70 73 73 73 73 73 74 73 105 90 87 85 99 108 91 100 97 98 107 145 228 124 142 193 174 170 173 182 197 210 216 218 218 210 195 193 197 194 193 185 176 166 171 180 185 184 185 197 206 208 208 197 188 181 175 167 165 155 114 62 79 77 81 83 78 90 88 80 80 81 82 86 91 49 55 55 56 54 53 53 56 52 52 52 53 53 52 51 52 56 56 59 58 82 99 98 108 
46 57 33 47 55 52 60 101 103 105 104 105 106 106 106 107 108 109 109 110 110 111 111 112 112 111 112 112 106 24 5 8 8 11 8 8 7 44 100 97 102 102 108 106 76 70 67 68 66 72 72 64 66 72 70 71 70 69 69 69 81 105 92 91 87 91 108 95 95 99 97 107 102 162 194 98 193 183 180 173 176 189 204 213 218 220 216 205 190 188 191 193 197 193 192 193 190 189 186 191 204 207 206 204 199 189 178 174 176 168 152 84 80 74 78 85 83 73 86 90 77 77 80 83 78 92 72 49 55 54 53 54 53 50 52 50 50 52 52 52 49 51 52 53 55 55 59 65 23 5 
52 43 32 56 54 54 59 99 102 101 103 104 105 107 106 105 106 107 107 109 110 110 110 111 111 111 110 113 92 12 8 7 8 10 8 6 7 30 94 97 100 102 106 85 69 62 65 62 64 71 70 64 66 69 67 67 69 70 70 67 89 108 99 96 92 92 109 107 95 97 97 97 107 91 171 131 158 196 186 183 173 179 195 212 218 218 217 209 199 192 186 182 187 191 189 186 185 184 192 203 209 206 205 197 190 183 177 176 173 175 114 79 78 69 79 79 80 74 81 86 77 77 77 82 83 81 90 55 54 54 56 54 52 52 54 52 53 53 53 54 52 51 51 52 52 53 55 64 62 15 
44 31 53 55 58 58 58 96 102 101 103 104 104 105 105 105 106 107 109 108 109 110 109 110 110 109 108 114 72 5 7 7 9 10 7 6 7 19 88 99 100 103 96 79 65 63 63 63 62 68 70 61 64 67 66 65 67 69 70 67 92 108 95 95 93 95 104 95 93 103 102 95 100 101 95 134 109 202 188 190 180 171 182 203 214 217 219 215 205 198 197 188 185 186 184 189 194 199 207 207 204 203 197 189 184 182 183 180 183 152 64 101 83 65 81 82 83 77 79 83 76 78 79 81 82 75 81 80 51 55 56 53 52 54 54 52 53 54 54 54 53 49 51 51 51 51 53 57 62 55 
28 53 59 59 60 60 59 93 103 100 101 101 102 103 105 104 105 106 107 107 108 109 108 108 109 108 107 115 52 3 8 6 10 10 6 6 12 13 80 100 100 100 83 71 60 63 62 60 58 64 67 62 63 68 68 66 67 69 71 66 90 102 91 92 93 93 97 84 85 96 103 95 96 103 73 94 82 165 212 194 189 171 169 188 207 216 218 216 210 200 196 189 188 189 192 194 199 201 205 203 203 199 193 188 185 185 187 187 172 80 86 108 96 56 85 84 81 78 77 77 73 75 79 81 79 82 83 82 52 56 55 53 53 52 51 51 52 55 53 51 49 51 52 49 51 53 52 54 54 55 
53 61 61 63 62 61 61 90 104 102 102 102 103 104 104 105 106 105 107 108 109 109 107 108 109 108 107 108 31 5 6 7 10 10 5 10 40 8 75 103 97 86 78 65 59 62 62 57 57 61 68 63 65 67 66 65 64 69 68 65 90 100 93 90 87 92 91 85 83 86 96 99 100 101 85 68 115 134 196 212 207 184 169 172 193 212 219 215 211 205 200 197 194 192 197 199 200 202 203 203 207 200 194 192 192 192 190 180 103 86 87 95 103 74 75 93 85 82 83 83 78 79 81 80 80 73 63 51 53 56 56 56 54 54 53 49 51 54 53 51 49 50 52 51 52 54 51 52 50 53 
57 60 59 60 59 58 53 80 97 95 96 97 98 98 98 98 101 102 102 102 104 104 103 104 103 103 105 93 16 7 5 6 9 9 3 14 67 9 66 100 82 74 72 58 56 57 58 54 53 58 62 56 62 63 61 61 59 62 63 64 87 93 88 86 84 87 85 84 79 78 87 93 97 95 92 82 93 117 125 149 197 197 174 165 173 195 206 205 197 199 197 194 192 192 194 195 192 197 196 199 194 191 188 188 190 189 190 120 79 96 59 70 96 82 74 72 72 77 84 83 75 68 65 57 50 50 54 54 52 51 52 53 52 50 49 48 49 53 52 48 47 47 48 48 49 51 48 50 46 48 
