P2
46 56
255
53 49 50 51 58 52 52 59 50 65 57 62 69 77 60 56 62 51 61 62 64 72 92 100 97 119 111 101 89 73 77 68 61 55 66 55 59 58 59 64 55 62 59 58 57 58 
49 50 54 54 55 56 60 55 56 60 69 67 70 67 63 69 60 60 64 85 94 95 98 92 99 97 95 100 97 92 80 80 73 63 66 64 62 60 59 60 63 59 60 57 57 57 
54 55 57 58 58 60 62 63 64 62 77 79 75 71 70 70 71 81 84 82 87 92 75 97 100 114 101 101 93 92 75 81 85 70 69 62 62 58 62 57 64 59 58 62 62 62 
53 55 54 51 55 59 60 56 60 84 89 86 67 73 73 82 93 97 89 77 70 73 68 93 95 101 97 102 100 101 100 90 99 92 81 68 72 69 61 62 67 64 62 61 63 61 
58 54 61 56 61 59 59 69 86 85 79 85 74 76 76 99 108 74 68 64 70 57 57 61 72 94 100 81 95 85 83 89 90 97 81 82 64 77 65 63 62 63 63 63 65 60 
51 60 72 59 64 66 61 66 61 69 65 69 91 93 99 85 72 88 82 107 106 88 77 80 107 99 96 102 94 93 83 82 75 79 87 96 87 61 64 60 62 65 64 63 65 65 
57 58 81 67 57 61 64 60 63 69 75 81 110 94 78 75 71 66 95 69 70 69 78 103 120 101 112 107 102 85 75 61 73 67 87 94 92 64 64 63 79 63 67 59 61 64 
58 57 87 54 55 61 86 63 67 73 75 72 85 84 78 51 58 74 57 72 56 51 62 63 92 104 104 97 104 88 84 77 82 83 110 101 91 109 82 61 68 63 70 63 64 64 
59 60 67 54 56 58 66 63 86 57 71 76 81 85 74 71 57 69 78 60 45 43 48 42 58 90 90 101 90 90 82 84 90 85 74 69 114 84 103 73 68 69 66 63 60 61 
60 67 51 57 58 59 66 68 78 71 85 82 91 98 90 85 79 57 83 56 55 51 52 48 61 63 68 81 73 86 111 97 77 97 117 117 75 111 95 89 76 77 60 62 63 63 
55 63 58 57 69 73 68 79 79 83 75 75 69 88 99 92 60 82 77 63 67 57 48 59 50 56 64 55 61 69 80 88 92 108 120 94 88 92 103 105 97 96 103 66 60 61 
69 61 56 66 60 69 79 90 104 92 94 80 91 108 79 78 84 90 70 79 84 79 86 66 70 74 71 78 55 64 62 68 71 66 83 89 75 92 101 99 98 103 114 106 61 70 
71 63 65 78 74 93 82 96 96 88 77 85 78 99 88 91 85 115 133 130 138 134 120 120 113 98 105 108 99 74 78 60 61 67 70 65 85 79 98 102 102 81 105 96 96 59 
58 67 85 93 99 87 77 80 69 62 66 82 118 132 123 138 136 149 173 165 172 172 160 166 165 157 141 136 128 118 105 101 71 50 42 56 69 83 77 75 76 101 76 107 84 73 
67 78 90 87 84 67 73 63 72 37 90 142 157 164 172 187 187 186 184 184 182 172 178 179 178 180 182 178 179 177 158 148 126 78 40 56 49 59 73 67 73 84 110 102 79 86 
76 78 79 75 73 64 55 54 50 59 153 162 171 171 179 186 186 192 192 186 185 184 180 182 185 189 185 186 183 187 186 182 176 128 57 44 39 54 72 71 79 86 108 95 70 72 
71 61 72 64 58 52 46 40 46 75 173 170 179 190 194 196 196 195 192 188 184 179 181 182 184 183 190 186 191 192 196 187 192 188 143 30 25 50 53 46 50 54 94 101 60 70 
63 71 87 72 59 55 52 54 61 114 177 176 188 193 197 196 197 199 198 190 182 184 181 181 175 179 189 186 184 183 190 188 189 192 196 174 18 26 30 39 53 57 98 64 77 63 
59 58 73 61 48 58 47 54 89 163 175 179 187 192 192 199 195 196 199 197 187 182 184 178 178 181 187 186 186 184 188 191 188 192 195 205 100 29 40 34 55 57 59 94 97 69 
52 44 84 69 48 54 52 60 90 177 183 186 192 189 189 194 197 202 202 202 195 187 187 190 184 185 191 187 189 188 188 187 190 193 196 202 205 36 30 35 39 43 57 104 79 66 
54 62 61 58 45 43 68 91 107 174 180 185 188 190 191 192 195 199 201 201 197 192 191 195 194 192 194 186 189 186 187 182 188 186 193 206 208 64 41 47 40 44 58 89 87 68 
31 43 83 63 60 60 78 102 165 174 180 168 155 148 158 143 145 178 178 193 190 192 187 186 194 181 168 141 128 131 132 138 141 154 190 190 208 184 85 58 43 44 51 67 106 72 
29 46 77 57 57 51 62 102 176 177 152 127 138 137 110 96 90 95 103 145 182 192 186 175 156 141 118 102 93 82 83 92 116 127 148 169 205 234 105 50 63 52 60 74 95 99 
50 45 57 60 49 60 29 150 172 174 120 187 189 174 137 127 136 133 145 149 164 199 189 194 184 159 121 101 97 96 108 119 150 172 196 147 188 213 71 37 38 42 68 79 59 68 
35 38 50 66 30 91 26 178 181 151 176 175 129 104 69 136 113 96 133 137 167 198 199 194 207 176 91 74 65 48 46 115 101 105 194 188 172 207 137 53 51 44 54 78 75 73 
63 30 38 30 23 80 66 180 187 182 181 117 133 113 24 197 166 133 128 109 152 193 200 186 206 137 91 83 57 32 154 205 194 68 81 183 195 191 217 41 49 45 54 77 66 70 
35 23 35 34 39 50 135 186 190 187 183 128 185 85 164 215 199 142 138 163 160 182 192 186 200 193 122 86 93 67 105 185 183 199 149 175 193 204 226 38 39 42 57 58 70 61 
42 38 38 27 49 35 181 192 196 185 171 152 152 191 173 151 135 139 149 131 186 177 191 198 188 192 146 106 94 94 115 143 151 206 183 185 182 206 208 92 49 31 39 62 46 66 
23 38 37 42 40 77 186 197 196 196 187 182 187 193 184 163 151 144 164 187 186 187 198 200 191 187 196 169 105 116 128 139 156 193 205 202 183 205 205 134 57 37 48 50 50 68 
32 28 59 46 30 91 185 194 199 198 191 190 191 193 194 179 175 192 190 191 184 198 194 201 188 193 197 200 187 163 142 155 164 181 193 188 191 205 205 170 63 52 98 45 36 84 
21 148 134 102 30 81 183 189 203 197 199 198 199 197 195 198 200 199 198 178 184 198 196 196 184 197 187 201 184 176 182 179 181 189 191 197 202 205 204 202 52 94 81 24 49 77 
19 146 126 156 86 74 181 180 200 200 200 200 202 204 204 207 201 200 181 185 187 199 190 180 186 209 188 195 151 169 160 183 186 190 199 203 201 213 202 202 64 115 74 23 57 61 
42 184 131 164 107 61 166 178 194 198 201 201 204 204 203 202 194 188 180 190 177 168 182 160 155 174 170 205 99 131 138 161 174 189 202 206 202 206 201 174 61 139 93 54 55 73 
60 70 83 177 134 57 141 168 191 197 198 201 201 202 198 189 168 169 158 137 81 145 163 136 133 116 51 157 104 111 117 127 164 177 186 204 198 188 200 108 91 201 117 77 63 67 
50 36 157 192 149 110 87 164 190 193 193 199 201 198 186 173 150 175 175 161 145 153 165 99 146 131 143 177 115 109 105 117 135 155 167 181 194 183 202 82 97 188 76 55 63 63 
51 54 119 172 137 139 127 160 184 186 194 194 195 193 178 165 165 186 179 159 150 128 156 114 137 134 161 174 135 115 106 111 124 147 160 167 178 185 195 101 103 170 39 76 69 67 
49 49 53 177 125 153 169 159 179 189 182 193 195 189 182 175 184 179 178 147 134 131 126 124 137 141 151 170 177 130 115 118 138 150 161 160 165 187 172 158 207 202 36 69 67 68 
47 45 37 169 169 193 195 136 167 181 181 192 195 196 166 152 163 167 147 141 151 139 122 132 146 128 146 134 160 136 132 107 151 160 176 172 169 186 171 189 206 218 53 64 61 61 
53 50 55 30 164 178 192 107 165 174 190 193 198 199 163 140 156 148 153 152 159 158 150 152 146 147 155 156 159 124 110 146 93 167 181 182 177 176 139 203 204 50 68 57 63 63 
50 46 46 45 100 160 180 113 157 175 173 193 193 179 140 128 149 153 143 140 136 122 104 107 93 94 105 116 117 92 119 148 101 167 175 174 176 171 136 181 165 40 69 62 60 67 
48 47 51 42 47 68 111 83 151 162 190 185 193 190 144 134 96 88 109 61 112 164 121 115 61 22 27 58 40 85 103 128 130 168 175 183 185 183 97 66 66 60 65 65 64 64 
47 48 43 49 49 47 40 30 115 160 180 169 189 192 149 137 123 106 29 109 124 100 99 84 65 52 49 120 138 148 122 112 135 170 170 173 174 177 48 63 68 63 68 60 62 63 
50 52 45 53 45 51 50 33 101 151 174 186 191 183 170 124 156 178 154 114 69 114 130 143 118 94 145 164 165 140 140 126 138 169 154 179 180 113 50 58 67 64 65 66 63 65 
50 53 48 50 49 49 50 50 91 97 173 173 186 186 170 140 173 178 161 167 151 125 139 135 142 147 149 159 157 138 151 124 136 173 161 163 176 62 60 67 66 64 64 63 66 64 
50 49 50 51 49 51 50 49 47 112 144 159 160 161 147 161 184 185 177 155 152 149 143 135 117 112 135 157 145 143 135 128 133 154 151 158 102 67 60 59 59 64 62 59 64 61 
51 49 50 49 46 51 48 48 17 155 78 153 155 158 145 131 181 176 174 171 144 114 95 89 83 121 121 143 137 143 154 120 130 134 147 119 87 59 64 67 62 63 60 69 67 62 
50 50 47 46 45 50 54 51 23 154 136 123 136 144 135 127 163 163 167 170 146 130 115 113 112 114 138 142 140 147 123 125 130 117 125 97 56 54 65 66 62 63 62 63 59 61 
50 50 46 49 50 51 52 51 40 151 149 94 96 106 134 139 136 159 172 177 167 144 132 126 122 137 157 150 152 135 132 131 119 98 89 129 55 57 60 61 59 63 67 71 70 60 
50 48 51 47 44 51 52 51 49 146 120 137 95 87 109 130 133 164 174 183 173 151 162 125 135 147 155 145 137 144 130 116 103 92 112 155 47 58 63 65 63 69 66 63 68 63 
49 49 53 50 54 50 52 56 59 150 145 128 84 99 88 110 139 145 160 174 157 159 150 137 156 153 158 152 142 120 115 116 116 95 125 158 49 61 63 58 61 67 68 65 62 60 
52 48 53 47 51 55 57 56 60 138 130 139 111 105 94 82 115 137 154 168 151 141 135 135 141 139 137 126 137 125 91 93 95 97 137 158 51 63 60 60 51 66 64 66 69 65 
46 50 49 53 53 53 52 56 61 118 142 134 152 84 99 95 99 104 140 130 133 120 132 98 117 127 105 109 114 119 92 101 102 113 124 134 54 62 63 61 57 64 62 67 66 69 
49 51 47 50 51 51 51 53 64 101 140 133 128 125 96 108 83 75 112 129 121 116 99 97 90 98 97 103 113 104 93 103 104 129 134 155 52 65 63 58 58 63 62 68 60 60 
49 49 51 52 54 55 50 58 59 87 150 137 126 133 113 83 92 90 101 102 78 112 67 85 63 82 106 85 93 73 82 99 110 106 121 160 49 60 60 63 57 55 60 61 60 64 
50 52 51 52 50 55 56 55 56 66 153 125 129 142 116 113 95 77 89 83 65 80 65 62 63 69 69 60 85 64 97 106 113 119 142 158 48 59 60 60 57 59 57 64 56 61 
50 50 53 54 52 54 49 55 56 57 147 145 140 133 135 119 90 99 104 99 76 68 58 48 61 52 65 77 91 76 86 112 120 128 156 171 49 58 62 62 58 58 59 64 64 61 
