P2
46 56
255
54 49 51 52 55 54 56 58 57 62 74 83 60 59 61 63 63 56 54 61 60 66 80 88 92 89 89 79 66 61 71 69 59 58 65 62 55 60 58 61 60 58 67 63 60 56 
51 55 57 58 57 59 57 57 57 60 55 57 63 57 54 61 68 57 59 66 86 93 109 79 115 118 103 92 95 98 84 82 80 67 66 60 57 60 58 60 58 63 54 59 60 59 
54 53 55 57 60 54 54 56 54 61 79 67 67 64 67 69 64 71 78 95 93 89 68 112 106 107 112 111 87 95 83 79 67 75 62 64 60 58 60 61 63 62 64 61 66 61 
54 52 55 52 53 58 56 58 64 73 75 98 81 78 66 61 78 83 80 85 77 77 68 104 101 107 105 100 113 101 91 95 87 91 81 75 67 67 59 63 57 60 60 62 63 63 
56 51 53 57 64 59 61 60 66 81 83 78 80 77 75 79 111 83 84 76 74 60 55 83 87 100 92 77 90 76 94 93 81 96 74 78 78 62 66 63 66 65 63 64 66 64 
52 54 66 53 63 59 62 72 71 66 58 75 84 87 89 118 88 75 82 105 96 79 61 71 81 90 87 97 86 92 98 94 62 83 86 80 68 55 65 66 62 64 69 66 60 65 
56 65 73 54 64 68 55 63 59 65 63 78 98 102 83 72 66 70 96 75 76 90 73 106 116 101 113 91 103 79 79 76 83 78 77 89 71 83 68 66 65 70 64 66 61 61 
53 56 82 68 57 54 63 65 57 65 61 83 89 92 67 63 64 56 60 65 61 66 49 63 92 106 107 108 111 93 79 78 85 73 83 109 111 97 81 64 69 65 63 62 62 66 
60 54 71 53 60 68 64 56 62 72 74 71 75 85 80 68 57 60 65 74 52 40 46 49 80 94 103 94 82 89 77 75 67 82 84 102 111 95 84 71 63 60 60 63 63 60 
65 60 58 54 57 67 73 64 63 62 75 66 83 88 71 86 75 65 90 57 63 50 49 44 46 58 74 93 88 89 115 101 78 83 80 103 106 87 90 103 72 59 62 64 67 61 
56 61 54 58 62 60 75 73 75 81 75 71 89 86 108 95 77 68 89 70 60 60 49 51 58 51 51 47 81 80 87 99 94 97 102 95 66 79 94 102 98 81 74 62 58 60 
60 63 59 50 61 62 61 67 79 89 91 83 74 86 93 98 67 78 75 61 66 60 64 48 53 60 63 70 47 62 60 67 73 84 92 87 99 96 101 108 102 86 129 78 63 63 
51 60 58 61 58 66 76 82 96 91 75 93 87 100 87 73 85 86 78 99 90 97 89 78 80 78 78 83 66 60 65 58 55 65 54 68 65 87 96 98 109 97 90 110 95 71 
62 63 77 69 72 88 87 99 95 89 84 85 75 94 96 98 92 120 143 139 151 152 141 144 140 122 111 114 116 93 85 66 56 56 68 70 84 87 91 81 93 89 94 93 85 71 
55 66 89 90 92 95 79 82 87 73 70 62 106 121 121 135 143 160 177 171 179 171 170 170 178 176 170 160 158 145 128 114 88 59 57 55 59 71 80 79 91 95 90 99 95 75 
62 64 86 91 85 74 79 73 67 44 64 121 150 162 175 183 176 185 184 184 183 178 178 176 183 184 183 181 182 182 167 152 158 115 46 45 64 57 65 74 78 86 100 96 71 78 
70 71 77 76 65 73 62 55 52 47 121 163 167 167 185 187 190 191 189 187 186 181 176 179 183 188 188 186 187 185 187 175 188 159 100 33 40 48 61 79 74 81 96 108 80 70 
59 62 68 66 58 55 53 52 48 58 169 166 173 188 192 194 195 195 195 187 182 180 184 176 180 186 193 189 192 191 190 188 191 193 175 114 39 33 63 56 42 53 62 94 95 66 
60 55 80 86 55 57 54 35 56 75 171 164 185 188 194 196 196 197 195 194 184 186 180 181 171 180 182 184 188 186 186 189 189 191 197 195 74 24 28 33 33 37 63 105 97 61 
60 48 62 71 52 55 51 58 66 107 171 176 190 184 192 193 194 195 198 196 190 183 186 180 180 177 181 186 188 187 188 189 188 189 193 195 192 19 38 39 48 49 58 74 69 73 
52 48 67 63 59 47 45 55 95 152 174 187 191 187 191 192 197 202 202 202 198 191 194 192 187 190 192 187 190 187 187 183 192 188 191 196 210 90 36 33 34 40 49 69 77 73 
54 44 71 64 50 56 59 68 88 168 177 184 187 187 190 192 193 195 198 200 198 195 192 196 193 195 192 186 186 182 186 185 182 186 184 197 206 207 67 49 34 41 82 75 93 66 
53 39 47 69 51 48 70 75 112 171 176 178 157 147 153 146 148 157 167 190 185 195 186 187 188 171 162 138 122 115 125 132 133 146 178 192 207 217 67 41 74 38 41 66 84 102 
36 45 62 72 39 38 90 87 161 148 179 121 134 129 120 90 90 88 103 126 168 193 182 182 172 139 124 104 92 78 77 92 110 126 147 139 204 206 104 48 60 60 53 62 69 105 
43 38 70 47 73 33 53 100 169 177 118 168 173 194 192 170 155 131 147 145 147 200 197 194 196 177 146 111 108 122 143 158 165 168 190 187 145 205 206 54 60 38 56 64 72 97 
30 34 41 67 38 38 42 147 168 162 167 182 185 191 175 152 141 123 126 133 153 195 199 196 206 202 110 96 94 104 126 137 148 170 200 183 178 191 229 31 69 44 40 53 58 86 
31 37 41 47 27 52 42 178 179 166 186 171 166 157 158 108 93 94 94 99 138 185 199 196 209 191 84 94 91 97 99 94 109 140 154 175 186 195 218 55 44 44 46 65 70 59 
36 29 35 37 30 53 32 181 191 180 179 162 140 117 221 124 45 53 87 138 146 178 184 196 199 210 118 82 84 101 123 62 60 96 131 169 182 198 200 145 55 43 33 48 45 75 
40 29 32 32 33 42 119 181 194 186 181 133 116 157 194 187 88 117 126 135 175 172 192 204 186 194 178 107 104 105 115 125 92 137 118 166 181 199 201 222 43 41 34 37 48 47 
25 37 42 30 55 42 164 188 193 191 180 168 173 191 190 160 133 132 139 171 184 181 199 206 194 187 199 177 112 122 121 126 138 176 192 190 179 200 203 227 77 43 39 41 78 67 
24 31 37 39 52 46 175 192 200 199 185 185 191 197 196 178 170 171 190 187 181 195 199 202 187 193 193 199 192 154 148 162 164 173 196 193 190 199 207 218 71 64 47 44 48 55 
36 20 61 39 47 47 177 188 197 197 198 198 192 193 186 181 186 198 196 184 177 195 200 199 188 202 184 203 198 183 184 171 174 177 184 196 194 201 207 211 104 65 87 109 39 38 
52 36 147 117 76 52 176 185 195 197 202 200 202 196 200 205 202 202 203 175 185 192 201 181 197 216 187 190 192 180 177 190 184 192 193 199 202 209 205 203 80 76 100 120 46 47 
49 82 61 122 122 34 154 177 194 199 198 201 207 204 206 206 202 203 185 191 179 171 199 162 154 177 167 200 141 157 154 177 188 190 197 203 203 206 206 200 95 124 64 90 43 48 
53 42 63 138 169 42 119 167 188 196 198 200 204 206 204 202 197 187 168 177 84 109 168 138 132 137 50 164 131 135 140 151 177 192 193 206 200 202 204 207 81 101 79 125 70 66 
51 22 166 157 163 96 62 166 181 193 190 198 203 201 203 199 185 170 180 159 126 170 165 105 147 140 116 150 150 129 125 132 164 172 186 200 200 173 203 208 92 142 180 112 67 66 
53 49 113 153 172 117 111 154 182 188 190 197 202 204 201 193 185 179 187 169 161 153 171 140 153 148 156 180 178 143 136 129 152 171 173 189 197 191 193 190 103 114 220 49 58 67 
49 48 11 180 138 141 175 127 176 187 190 197 201 203 202 194 192 193 192 172 129 143 153 140 148 151 140 167 172 167 152 159 154 164 171 178 189 188 186 162 113 111 211 19 64 65 
48 49 33 163 131 150 147 122 172 181 192 193 203 203 201 200 176 176 160 154 133 127 137 107 149 148 144 141 152 145 163 162 176 170 166 173 185 187 179 133 181 196 226 39 66 71 
47 47 56 94 161 181 196 99 153 175 190 188 199 202 197 171 152 151 151 154 140 159 154 129 157 145 148 129 142 121 136 178 161 177 179 176 182 181 182 118 200 194 175 58 65 66 
46 46 49 28 175 182 185 134 156 168 186 193 199 203 174 146 139 155 153 166 151 159 147 145 135 133 142 154 131 94 109 153 144 193 181 181 177 177 184 130 202 209 43 69 61 64 
47 48 48 45 32 164 174 181 150 165 176 186 195 196 152 164 124 91 138 127 125 122 124 108 87 87 101 90 66 50 112 136 145 189 186 177 185 180 192 166 190 164 52 70 59 64 
48 49 52 45 50 58 145 162 101 166 179 185 191 188 177 159 114 118 140 148 148 153 149 141 153 158 155 161 153 141 127 117 122 180 186 180 190 186 173 105 89 54 63 66 63 65 
50 50 49 49 45 44 50 23 55 164 176 186 194 188 184 151 141 172 187 171 169 163 138 128 116 124 140 166 173 147 144 130 131 170 178 186 182 178 107 28 49 67 67 67 69 62 
48 51 49 47 49 48 52 43 19 137 176 177 186 173 180 139 162 178 177 178 174 148 106 124 120 143 139 158 174 149 148 133 133 161 177 170 180 177 35 48 61 68 67 69 59 63 
49 49 49 46 42 53 48 53 4 144 160 175 174 160 163 145 154 176 181 176 156 137 116 111 90 118 131 141 153 154 131 135 124 147 153 177 170 128 42 56 59 67 65 64 67 66 
53 49 48 49 47 48 49 47 31 172 104 166 154 165 165 135 141 178 176 175 173 151 139 120 118 127 152 156 159 150 153 114 123 121 152 170 128 87 54 60 63 66 68 66 64 63 
47 48 46 46 49 52 46 43 45 145 115 137 162 150 138 124 134 153 175 179 181 171 130 125 132 144 155 157 173 152 127 125 124 146 126 149 122 52 58 62 65 67 63 61 59 69 
50 44 47 46 49 49 48 50 45 100 134 97 151 148 133 137 132 138 167 172 192 170 158 139 157 162 168 156 155 146 133 120 119 127 124 81 141 42 60 62 64 66 65 65 62 69 
45 50 48 52 49 55 50 48 50 69 125 138 80 105 116 124 129 140 159 165 168 156 157 159 152 152 145 149 158 133 130 131 122 107 83 120 164 32 58 65 61 64 64 62 60 62 
43 48 50 49 54 52 51 51 47 43 143 125 130 79 90 108 118 128 140 154 151 136 151 133 136 147 128 115 126 119 105 135 99 76 118 119 164 43 58 61 65 66 68 67 62 70 
52 48 48 49 47 50 49 51 53 32 137 133 130 104 82 91 79 114 111 143 146 134 125 130 117 120 127 116 121 113 122 101 76 92 118 142 173 42 63 59 63 60 67 64 61 61 
51 47 51 49 47 46 48 50 45 30 138 125 121 113 113 88 70 106 99 120 131 117 104 104 90 114 112 99 103 95 107 88 112 102 107 136 172 50 55 60 60 64 62 65 62 62 
45 49 51 46 53 47 49 49 49 30 145 153 139 150 95 91 103 77 71 95 111 88 92 84 69 86 91 80 84 76 86 91 109 119 121 132 179 50 65 65 57 54 62 60 65 65 
52 50 44 53 50 49 49 49 54 38 154 149 134 146 118 102 103 86 87 83 87 81 79 67 64 79 66 77 85 74 80 113 109 122 116 147 172 52 61 61 59 58 66 62 62 61 
49 52 46 49 51 50 49 53 54 37 154 143 131 120 134 118 85 84 82 81 76 58 67 57 60 59 48 69 74 62 80 107 116 113 128 135 165 56 66 65 64 60 63 60 66 60 
