P2
46 56
255
67 67 70 65 71 75 65 69 67 78 62 67 68 70 79 74 73 71 70 72 95 112 103 98 125 126 112 116 109 109 93 85 95 77 74 71 69 70 76 69 70 71 72 70 70 69 
67 62 66 67 66 74 78 78 85 100 78 93 88 86 90 75 75 79 90 90 105 101 101 117 113 110 108 109 95 94 80 78 86 82 77 72 72 70 70 72 70 71 74 72 71 71 
68 61 67 67 72 68 65 83 69 80 88 96 89 83 89 88 97 86 99 88 81 66 100 96 114 106 120 113 111 112 112 105 95 99 95 90 86 83 72 76 73 76 74 73 71 71 
69 69 66 65 71 70 70 73 68 94 89 78 84 71 85 73 80 99 89 83 80 50 87 80 95 102 99 98 99 95 98 101 93 108 91 85 76 77 92 72 75 70 71 74 76 69 
68 68 72 75 70 72 68 79 90 93 93 88 97 97 84 98 117 77 74 69 69 62 76 79 78 107 101 113 98 103 107 96 100 87 107 92 84 93 75 75 75 74 71 76 75 74 
66 73 70 74 69 69 70 68 79 97 89 83 101 94 104 124 87 64 84 122 108 95 96 94 115 111 113 105 107 95 77 90 83 80 83 93 111 104 88 81 79 84 77 76 73 73 
65 77 72 63 69 69 69 85 74 69 82 95 97 113 94 86 76 78 93 83 77 73 68 105 122 136 121 113 109 101 94 83 85 85 71 95 131 113 122 95 77 73 79 73 73 78 
65 75 75 74 76 80 80 74 66 79 79 85 97 100 85 84 72 64 75 75 64 56 58 62 86 99 109 98 97 114 83 86 89 76 99 89 95 104 102 108 84 90 80 80 77 75 
64 65 67 65 88 70 73 71 89 82 79 84 110 92 74 92 75 65 88 77 73 42 53 52 53 66 93 99 96 101 116 105 93 79 79 59 125 84 116 97 110 89 78 75 77 72 
68 55 75 69 66 70 65 80 81 76 101 88 93 99 92 111 80 76 94 83 77 62 67 51 56 60 63 80 98 71 90 108 110 87 102 127 99 80 92 103 113 110 91 103 76 81 
65 73 61 72 73 83 81 90 82 89 82 70 86 91 90 114 82 76 90 80 66 63 61 55 66 59 76 76 68 56 75 81 89 91 106 106 91 95 107 112 116 117 99 151 98 89 
67 71 70 65 66 80 96 92 88 92 85 68 90 105 99 85 78 94 91 76 81 81 81 85 74 74 84 82 99 78 73 69 73 76 81 68 81 77 92 99 107 122 113 104 119 111 
72 69 73 81 72 88 84 109 109 89 81 88 90 102 91 80 96 91 118 133 121 128 135 120 127 121 110 115 128 121 102 104 82 70 68 73 77 88 103 100 98 85 100 122 114 117 
74 86 105 107 102 101 97 93 91 88 79 69 94 112 108 104 128 131 151 160 168 168 169 167 171 176 173 161 153 148 153 149 127 114 72 60 68 61 67 83 85 101 93 101 115 114 
74 76 96 106 85 77 66 72 75 53 51 95 139 142 140 150 164 183 184 182 183 177 177 179 185 191 193 193 193 193 192 190 184 176 153 64 47 63 71 71 79 82 95 119 119 99 
74 75 89 95 79 73 69 66 39 57 90 159 162 165 172 187 189 189 188 191 184 184 184 182 191 196 199 200 199 199 200 207 197 207 197 139 55 46 56 64 67 64 75 86 116 111 
67 69 76 77 72 58 52 54 43 47 134 166 163 176 188 192 192 200 195 192 191 185 184 188 190 193 198 200 200 203 206 208 205 207 209 209 179 48 33 44 44 54 62 77 110 99 
75 66 79 83 61 56 56 52 56 53 163 169 175 186 192 194 198 196 197 199 190 185 188 185 188 191 194 202 201 203 203 203 206 205 207 213 214 189 27 40 38 42 57 86 78 104 
68 59 60 74 58 55 63 46 67 59 168 168 184 185 191 194 198 197 199 201 200 192 189 188 187 189 193 198 203 204 203 204 206 204 208 212 214 225 69 33 43 46 55 64 78 114 
65 51 47 52 61 56 60 43 51 87 168 174 185 188 191 193 197 201 203 206 203 200 193 195 196 191 193 201 201 204 205 204 205 206 207 211 214 214 209 62 42 48 52 55 91 106 
66 45 75 63 46 55 59 63 84 129 167 174 185 186 191 191 192 199 202 204 202 201 196 198 201 198 200 203 198 200 200 205 207 202 207 202 212 217 224 84 63 79 55 60 68 96 
61 50 40 60 57 47 53 66 98 165 166 167 181 183 193 194 189 192 195 201 194 194 188 178 176 165 159 156 154 135 154 129 150 144 221 221 209 153 215 201 111 46 82 71 70 75 
33 42 60 64 50 43 68 68 89 171 159 116 119 137 143 133 103 105 126 54 184 88 106 139 149 132 122 94 89 75 78 71 95 177 213 190 174 215 198 184 124 77 46 66 75 86 
40 32 51 67 49 17 66 74 136 116 161 153 110 133 112 86 79 77 141 188 157 225 239 181 200 178 181 142 113 109 92 107 122 238 221 213 202 181 230 153 114 78 60 49 62 82 
41 43 42 30 62 14 56 50 193 148 179 110 157 155 132 150 147 141 187 222 225 202 192 137 169 118 215 167 111 96 108 135 162 157 210 210 198 200 208 94 210 151 70 60 63 65 
32 39 32 41 35 36 68 53 233 212 214 159 154 138 156 145 136 124 93 149 150 153 125 206 206 227 153 121 101 95 99 118 121 143 182 196 192 204 207 213 130 205 32 69 42 81 
30 40 36 32 29 36 31 198 149 226 220 192 140 117 146 108 113 69 99 105 80 127 169 194 209 212 114 145 119 79 88 84 52 16 97 145 176 185 207 232 136 127 24 52 44 68 
30 33 28 32 28 42 33 169 125 171 149 127 100 68 138 65 27 51 137 127 145 103 187 180 217 204 220 168 175 97 103 84 62 60 139 116 137 169 202 204 109 94 65 75 50 63 
23 34 44 33 23 31 20 136 108 160 126 115 102 90 144 139 113 127 127 115 128 128 175 192 209 202 208 156 169 116 113 102 116 139 169 208 206 197 207 212 123 181 75 80 72 67 
21 20 33 23 30 24 87 169 71 192 184 159 159 137 139 138 128 134 136 129 84 207 177 195 205 203 210 216 121 170 159 148 167 174 181 205 207 206 208 228 206 219 92 79 150 42 
43 30 35 40 42 32 91 163 161 192 182 177 182 155 158 166 160 161 175 106 164 181 184 197 198 205 213 209 210 137 166 196 191 184 189 198 206 209 214 154 219 244 64 130 72 85 
50 16 142 125 94 37 72 163 192 148 185 188 186 168 183 183 187 189 131 125 171 169 187 194 195 202 207 211 222 134 131 111 193 199 201 207 213 215 167 222 213 239 74 187 61 74 
56 18 103 65 133 78 56 159 165 171 144 194 190 185 200 198 158 123 142 176 177 182 168 203 169 189 206 206 211 196 150 135 110 100 168 207 213 206 211 215 212 227 96 183 53 72 
58 31 147 90 149 98 44 144 155 178 188 169 146 130 121 119 151 173 180 150 179 156 144 148 147 137 184 177 174 213 126 143 146 159 181 198 210 213 214 212 209 186 93 194 112 77 
51 59 121 59 161 120 57 112 146 166 175 181 187 188 187 191 183 171 160 141 145 80 62 130 125 110 172 85 97 166 132 132 138 149 179 194 208 212 216 205 209 144 118 174 164 61 
53 48 21 128 170 130 65 76 142 165 169 169 181 189 186 184 173 161 154 152 150 127 126 127 137 92 181 181 188 199 150 140 135 136 163 185 197 205 209 207 211 128 117 161 208 77 
48 51 59 125 160 112 90 131 133 155 165 174 177 182 183 178 169 172 161 162 151 137 137 112 122 101 154 146 192 199 186 157 144 143 147 167 192 195 205 205 210 150 217 198 133 76 
54 48 52 31 162 92 138 162 123 148 161 166 170 180 177 170 175 175 178 162 156 123 110 119 112 107 146 154 175 187 179 165 164 156 167 174 189 196 197 206 210 170 218 218 52 78 
48 52 50 32 148 152 163 173 99 142 155 164 168 175 179 179 160 139 146 154 129 120 131 131 117 124 146 130 163 143 156 130 150 205 179 176 198 194 205 201 215 187 210 216 74 81 
52 49 51 46 22 156 169 164 95 135 148 162 160 174 179 164 149 132 132 124 129 134 139 151 146 153 137 153 177 169 148 104 107 168 147 203 195 203 199 196 200 205 212 69 86 80 
46 47 51 47 51 78 144 161 143 133 148 151 162 171 176 144 136 116 105 113 113 119 124 112 102 105 91 99 121 118 80 62 95 138 162 203 200 198 204 200 199 151 96 70 86 81 
50 46 45 49 49 43 84 134 141 100 144 152 165 163 165 167 146 117 86 87 105 113 132 131 131 133 154 156 180 187 170 143 112 119 153 206 201 197 206 199 137 48 70 75 81 77 
50 49 46 46 52 50 50 51 37 46 142 148 164 158 162 168 142 122 139 165 151 152 147 151 132 126 122 139 168 190 192 147 143 140 147 200 191 202 198 211 71 70 70 73 80 77 
50 50 48 48 46 45 48 47 49 17 129 146 151 161 158 161 152 122 161 171 170 156 146 127 97 107 104 139 147 170 185 161 161 136 150 183 187 196 195 165 69 74 73 71 76 77 
50 44 48 49 49 52 48 52 47 14 132 130 153 138 152 160 134 136 160 160 159 152 131 121 96 107 108 121 139 157 171 175 144 146 131 173 166 196 190 100 72 70 73 71 75 78 
54 48 50 47 48 49 45 50 41 47 151 79 139 142 142 138 123 122 144 160 162 158 143 121 121 114 112 129 153 162 173 159 167 127 130 149 174 191 143 61 72 73 76 77 69 69 
42 46 51 51 49 46 49 50 55 44 112 114 106 135 131 134 127 112 141 139 167 169 159 145 131 124 130 155 164 168 181 165 134 123 136 161 159 133 152 63 72 70 73 76 77 74 
51 49 48 50 50 53 49 50 51 57 72 120 114 121 116 118 109 117 114 139 154 163 176 147 144 128 162 167 173 160 173 165 150 144 126 122 123 122 156 70 73 75 73 79 74 74 
46 44 52 50 46 47 54 53 48 50 46 128 125 89 80 94 111 109 115 126 138 157 159 138 138 148 144 156 153 167 168 147 150 151 133 120 105 141 142 66 72 72 76 70 68 80 
50 47 49 44 48 54 46 50 50 50 35 120 114 120 80 84 82 95 107 119 121 135 132 121 132 125 129 140 136 129 146 146 129 143 95 106 158 161 114 70 71 72 75 72 73 71 
47 48 50 55 49 52 50 49 51 52 30 131 119 116 109 71 76 82 98 106 109 118 129 118 119 116 107 116 128 118 135 121 146 114 95 113 143 151 101 63 77 69 72 76 72 70 
48 50 49 51 47 51 53 48 54 52 30 134 115 123 120 85 84 78 68 88 97 110 116 110 98 108 85 103 117 106 103 111 118 104 107 124 145 141 91 66 71 79 74 74 74 77 
45 47 46 48 49 50 48 52 50 52 38 135 137 119 135 89 86 105 77 74 69 96 101 91 76 87 71 88 90 80 83 87 94 109 123 135 146 159 75 71 71 76 68 77 69 76 
47 44 49 46 49 50 50 54 56 54 41 137 128 122 110 116 103 89 78 95 70 73 82 83 79 63 62 77 67 76 85 86 106 104 114 122 140 160 73 66 71 76 65 69 71 72 
51 54 51 49 47 47 49 49 57 52 44 133 127 118 110 112 117 80 81 74 77 69 61 68 52 57 66 61 62 73 82 84 114 133 119 148 156 164 66 61 69 74 66 68 72 73 
50 49 54 48 49 51 52 54 54 55 48 137 130 113 110 123 106 104 85 99 79 90 95 74 56 54 55 54 61 94 108 90 105 127 130 138 167 156 66 64 69 70 66 71 78 67 
