P1
20 30
0000000000000000000000000000000000000000000000000000000000000000000111
1110000000000001111111110000000000111111111110000000011110000001110000
0000110000000111000000000000000001110000000000000000011100000000000000
0001110000000000000000111000000000000001111100000000000000111111000000
0000000001111110000000000000000011110000000000000000001110000000000000
0000111000000000000000000111000000000000000001110000000000000000111100
0000000000000011100000000000000000111000000011000000011100000001111100
0111100000000011111111110000000000011111111000000000000000111000000000
0000000000000000000000000000000000000000