P1
20 30
0000000000000000000000000000000000000000000000000000000000000000000111
1110000000000000111111110000000000011111111110000000000010000001110000
0000000000000111000000000000000001110000000000000000011100000000000000
0011100000000000000001110000000000000011111000000000000001111111000000
0000000011111110000000000000000111110000000000000000001110000000000000
0000111000000000000000000111000000000000000001110000000000000000111000
0000000000000011100000001000000001110000000111111111111000000001111111
1111000000000011111111100000000000000110000000000000000000000000000000
0000000000000000000000000000000000000000