P1
20 30
0000000000000000000000000000000000000000000001111110000000000001111111
1100000000001111111111100000000011100000011100000000010000000111000000
0000000000011100000000000000000111000000000000000011100000000000000011
1110000000000000011111000000000000000011111100000000000000001111100000
0000000000001111000000000000000000111000000000000000000111000000000000
0000011100000000000000000111000000000000000000111000010000000000001110
0011100000000000111000111000000000001110001110000000000111000001110000
0000011100000011111000011110000000011111111111000000000011111111100000
0000000001111000000000000000000000000000