P2
46 56
15
8 8 7 7 7 7 7 7 7 7 7 7 6 6 5 5 5 4 4 4 5 5 4 4 4 4 5 5 4 4 3 5 6 7 7 7 7 7 7 7 7 7 7 7 7 7
7 7 7 7 7 7 7 7 6 6 6 6 5 4 3 3 2 2 2 3 4 4 4 4 3 4 3 3 4 4 4 4 5 6 6 7 7 7 7 7 7 7 7 7 7 7
7 7 7 7 7 7 6 6 6 6 5 5 4 4 3 3 3 2 2 3 4 4 3 3 3 3 3 3 3 3 3 3 4 4 5 6 6 7 7 7 7 7 7 7 7 7
8 7 7 7 7 7 6 6 6 4 4 4 4 4 3 3 3 3 2 2 2 3 3 3 3 2 3 3 3 3 3 3 3 4 4 4 5 6 6 6 7 7 7 7 7 7
7 8 7 7 7 7 6 6 5 4 4 5 4 4 4 4 4 4 4 3 2 3 3 3 3 2 3 2 2 2 3 3 3 3 3 3 3 4 5 5 6 7 7 7 7 7
8 7 7 7 7 7 6 5 5 5 5 4 4 4 4 5 5 5 4 4 4 3 3 3 3 2 2 2 2 2 2 2 2 3 3 3 3 3 4 5 5 6 7 7 7 7
7 7 7 6 7 6 5 5 5 5 5 4 5 5 6 7 7 7 6 5 5 5 5 4 3 3 2 2 3 2 2 2 2 3 3 2 3 3 4 4 3 5 6 7 7 7
7 7 6 6 6 5 4 5 5 4 4 5 6 7 8 10 10 9 7 6 7 7 6 6 4 3 3 2 2 3 2 2 2 3 2 3 3 4 3 4 4 3 5 6 6 7
7 6 6 6 5 5 5 4 3 3 5 7 8 9 10 11 11 11 10 7 7 7 7 7 6 5 4 4 3 3 3 3 2 2 2 2 3 3 4 4 4 4 3 6 6 7
6 6 6 5 5 5 4 3 2 4 6 8 10 11 12 12 12 12 11 9 6 6 8 7 6 5 5 4 4 4 3 3 4 2 2 2 2 2 3 3 3 4 4 3 4 6
6 6 5 4 4 4 3 3 3 6 8 11 12 12 12 12 12 12 12 12 9 6 6 7 7 6 5 5 4 3 3 3 3 3 2 2 2 3 2 2 3 3 3 3 3 3
6 5 4 3 3 3 3 3 4 8 11 12 12 12 12 12 12 12 12 12 11 10 7 6 6 6 5 5 4 4 3 3 3 3 3 3 2 3 2 2 2 3 3 3 3 2
4 4 3 2 2 2 3 4 7 10 12 12 12 12 12 12 12 12 12 12 12 11 10 9 6 5 5 5 5 4 3 3 3 4 3 3 2 2 3 2 2 2 3 3 3 2
4 3 2 2 3 2 4 6 10 11 12 12 12 12 12 12 12 12 12 12 12 12 11 10 9 8 6 5 4 4 4 3 3 3 4 3 3 2 3 2 2 2 2 3 3 2
4 2 2 2 2 3 5 8 11 12 12 12 12 12 12 12 12 12 12 12 12 12 11 10 10 9 8 6 5 4 3 3 3 4 4 4 3 2 2 3 2 2 2 2 2 2
4 3 2 2 3 3 6 9 11 12 12 12 12 12 12 12 12 12 12 12 12 12 12 11 10 10 9 8 6 6 4 4 3 3 4 4 4 3 3 3 2 2 2 2 3 3
4 3 3 2 3 4 8 11 12 12 12 12 12 12 12 12 12 12 12 12 12 12 12 12 11 11 10 10 8 7 6 5 3 3 3 3 3 3 3 3 3 2 2 2 2 2
4 3 3 3 2 6 10 11 12 12 12 12 12 11 11 12 12 12 12 12 12 12 12 12 12 11 11 10 10 8 7 6 5 3 3 3 3 3 3 3 3 3 2 2 1 2
4 3 3 2 3 8 11 12 12 12 11 11 10 9 8 8 8 8 8 9 10 11 11 11 11 12 12 11 10 10 9 8 6 5 4 3 2 2 2 3 3 3 3 2 2 2
4 3 3 2 4 9 11 12 12 11 11 11 11 10 9 7 6 6 7 7 7 9 10 10 11 11 11 11 10 9 8 7 6 4 3 3 2 2 2 3 2 3 3 3 3 2
4 3 3 1 6 10 11 12 11 12 12 12 11 11 10 9 9 8 7 7 7 8 9 10 11 11 10 9 9 8 6 4 4 3 2 3 3 2 2 2 2 3 3 3 3 3
4 3 2 1 8 11 12 11 12 12 11 11 11 11 11 10 9 8 8 8 8 9 9 11 11 11 10 8 7 7 6 6 6 6 6 6 5 5 3 3 2 2 3 3 3 3
4 3 2 2 9 11 12 12 12 11 11 11 11 11 11 11 10 9 8 7 8 8 10 11 12 11 9 7 7 6 6 6 6 7 7 7 6 5 5 3 2 3 3 3 3 3
3 3 1 4 9 11 12 12 12 11 11 12 12 12 12 12 11 9 7 7 7 7 10 12 12 11 9 7 6 6 6 7 6 7 7 7 6 5 5 4 2 1 2 3 3 3
3 3 1 6 10 12 12 12 12 11 11 11 11 11 11 11 10 8 7 6 7 7 10 12 12 12 9 6 6 6 6 6 7 8 8 7 6 5 5 4 3 1 1 2 2 2
3 3 1 7 11 12 12 12 12 12 11 9 9 9 9 8 7 6 5 5 7 10 11 12 13 12 9 6 6 5 6 6 7 8 8 7 5 4 5 5 3 1 1 2 2 2
2 3 2 8 11 12 12 12 12 12 12 10 7 6 5 4 4 4 5 7 9 11 12 12 12 12 9 7 7 6 5 3 4 5 6 5 4 4 4 5 4 1 1 1 2 2
2 3 2 8 11 12 12 12 12 12 12 12 10 9 8 7 7 7 7 9 11 12 12 12 12 12 9 8 8 7 7 6 4 4 3 2 2 3 4 5 4 1 1 1 2 2
3 3 2 8 11 12 12 12 12 12 12 12 11 11 11 10 9 9 10 12 12 12 12 12 12 12 9 8 9 9 8 7 7 6 5 5 4 4 5 6 5 1 1 1 2 2
2 2 1 8 11 12 12 12 12 12 12 12 12 12 12 11 11 12 12 12 12 12 12 12 12 12 9 8 8 10 9 8 7 7 7 7 6 6 6 6 6 1 2 1 2 2
3 2 1 8 11 12 12 12 12 12 12 12 12 12 12 12 12 12 12 12 12 12 12 12 12 12 9 8 8 10 11 10 9 9 8 8 8 8 7 7 6 2 2 2 2 2
3 2 1 7 10 12 12 12 12 12 12 12 12 12 12 12 12 12 12 12 12 12 12 12 12 12 10 8 8 9 10 11 11 11 11 10 10 9 8 7 6 2 1 2 1 2
3 2 2 7 10 12 12 12 12 12 12 12 12 12 12 12 12 12 12 12 12 12 12 12 12 12 11 9 7 9 10 11 11 11 11 11 10 9 9 7 6 2 1 2 1 2
2 2 1 6 10 11 12 12 12 12 12 12 12 12 12 11 10 11 11 12 12 12 12 12 12 11 10 8 8 8 10 10 11 11 11 10 10 9 8 8 6 1 1 1 2 1
3 2 2 6 10 11 12 12 12 12 12 12 12 12 12 11 10 10 10 12 12 12 11 12 11 10 8 7 8 8 9 10 10 10 11 10 10 9 8 7 5 1 2 1 2 1
3 2 3 5 10 11 12 12 12 12 12 12 12 12 11 11 10 10 11 12 11 7 8 11 9 8 5 7 7 8 9 10 10 10 10 9 9 9 8 7 3 1 2 1 2 1
2 2 2 4 9 11 11 12 12 12 12 12 12 12 11 11 10 12 12 12 12 10 10 10 8 7 4 7 8 8 8 9 9 10 9 9 9 8 7 6 2 1 1 1 2 1
2 2 1 2 9 11 11 12 12 12 12 12 12 11 11 11 12 12 12 12 12 12 11 9 7 7 6 7 8 8 8 8 9 9 9 9 9 8 7 5 1 2 1 2 2 2
2 2 2 0 9 11 12 12 12 12 12 12 11 11 11 12 12 12 12 12 12 12 11 9 8 8 8 8 8 8 8 8 8 9 9 8 8 7 6 4 1 1 1 2 2 2
2 2 2 0 8 11 11 12 12 12 12 12 12 11 11 12 12 12 12 12 12 12 12 10 10 8 8 8 8 8 8 8 9 9 8 8 7 7 6 3 1 1 1 2 2 2
2 2 1 1 6 11 11 12 12 12 12 12 12 11 12 12 12 12 12 11 11 10 9 10 9 8 8 8 8 8 8 8 9 8 8 8 7 7 5 2 1 1 1 2 1 2
2 1 2 1 2 10 11 12 12 12 12 12 12 11 11 10 10 9 8 8 8 8 7 6 6 6 6 6 7 8 8 8 8 8 8 8 7 6 5 1 1 1 1 2 1 3
2 1 1 1 0 9 11 12 12 12 12 12 12 11 10 7 4 4 6 8 8 9 7 7 7 6 6 5 5 6 7 7 8 8 8 7 7 6 4 1 1 1 2 2 1 2
2 1 1 1 1 7 11 11 12 12 12 12 12 11 10 11 7 6 6 6 7 9 8 7 8 6 5 4 3 4 6 8 8 8 8 7 7 5 2 1 1 1 1 1 1 2
2 2 2 1 1 2 10 11 12 12 12 12 12 11 12 12 12 11 10 10 8 6 5 5 5 4 3 3 3 5 6 7 8 8 8 7 7 5 1 1 1 1 1 2 1 2
1 2 1 1 1 1 7 11 12 12 12 12 11 11 12 12 12 11 11 11 11 9 8 8 7 7 6 6 6 7 7 8 8 8 7 7 6 2 1 2 1 1 2 2 2 3
1 2 2 1 1 0 5 9 11 12 12 12 12 11 12 12 12 11 11 10 9 8 8 7 8 7 6 6 6 7 8 8 8 7 7 6 5 1 2 1 1 2 2 2 2 2
1 2 2 1 1 1 5 6 10 11 11 11 12 12 12 12 12 11 10 9 8 7 7 7 6 6 6 7 7 8 7 8 8 7 7 6 2 2 1 1 2 2 2 1 2 2
1 2 2 1 1 0 5 6 7 11 11 12 12 12 12 12 11 11 10 9 8 7 7 7 7 7 7 7 7 7 8 8 7 6 6 3 1 1 1 1 1 2 2 2 2 2
1 2 2 1 1 0 5 6 7 8 11 11 11 12 12 12 12 12 11 10 9 8 8 8 7 8 8 8 7 8 7 7 6 6 5 1 1 2 1 2 2 2 2 2 2 1
2 2 2 1 1 1 5 7 7 6 8 10 11 11 12 12 12 12 12 12 11 11 10 9 9 8 8 8 8 8 8 7 6 5 2 1 1 2 2 1 2 2 2 1 2 2
2 2 2 1 1 1 4 6 8 7 6 8 10 11 12 12 12 12 12 12 11 11 11 11 10 10 9 9 8 8 7 6 5 3 2 1 1 2 1 2 2 1 1 1 2 2
2 2 2 2 2 1 3 6 7 8 7 6 7 9 10 11 11 11 11 11 10 10 10 10 10 10 9 9 8 7 5 4 3 2 2 2 2 2 1 2 2 2 1 1 2 2
2 2 2 2 2 1 3 6 7 8 8 7 7 7 8 10 10 9 9 9 9 8 9 9 8 8 8 7 7 5 4 4 3 3 2 2 1 1 1 2 2 3 2 1 2 3
2 2 2 2 2 1 2 5 7 8 8 8 7 7 7 8 8 8 8 7 7 7 7 7 7 7 6 6 5 4 4 4 3 3 2 2 1 1 2 2 2 2 2 2 2 2
2 2 2 2 2 1 2 5 7 7 8 8 8 7 7 8 7 7 7 7 6 6 6 6 6 6 5 5 5 4 4 4 3 2 3 2 1 1 2 1 2 2 2 2 2 2
