P2
46 56
255
119 123 118 123 121 123 119 121 121 118 119 121 121 79 66 70 77 94 106 111 107 90 80 76 68 78 50 47 40 42 46 48 107 69 86 88 76 89 111 118 116 119 117 112 116 117 
122 117 120 122 123 120 120 122 122 120 123 94 53 45 55 85 108 124 98 95 78 75 75 75 60 63 38 46 48 32 45 43 67 61 73 93 100 85 83 119 115 116 118 117 115 115 
120 120 120 122 119 120 120 121 120 115 55 45 41 49 55 68 71 82 87 67 57 49 63 49 42 41 38 37 29 30 38 42 38 56 73 71 66 102 93 87 117 114 114 118 114 114 
118 121 123 124 122 118 118 119 119 48 46 47 55 54 72 89 108 104 65 66 60 45 43 43 37 35 35 33 21 34 36 35 39 63 72 71 76 51 101 78 112 115 117 113 114 118 
121 121 123 120 120 118 119 104 42 34 42 48 41 56 90 91 85 63 40 42 41 50 41 29 40 46 39 40 31 43 45 33 30 49 59 70 82 84 66 105 60 116 103 105 113 115 
122 119 119 121 116 117 112 37 31 43 42 40 61 62 62 79 51 47 50 43 37 43 51 66 74 62 63 52 35 47 41 41 37 53 74 83 89 81 76 65 83 90 112 114 116 116 
121 121 120 118 116 115 39 42 42 41 24 32 42 64 96 94 91 75 71 57 63 82 92 107 101 107 77 90 70 54 56 55 51 52 64 72 77 76 73 76 78 62 104 112 117 118 
120 118 119 115 113 76 35 46 30 29 35 37 45 52 74 70 71 71 98 101 116 134 147 127 133 114 124 101 97 81 71 76 72 67 54 63 59 72 73 71 65 62 63 83 108 118 
117 116 115 116 61 31 34 40 28 31 30 38 47 55 59 88 117 137 138 151 157 155 158 166 170 161 154 139 126 127 108 116 102 99 91 64 70 56 58 67 71 56 66 66 96 94 
117 114 108 98 38 37 35 39 33 35 38 44 61 81 90 133 141 152 163 171 175 176 180 182 178 174 181 173 173 163 158 137 140 123 116 93 32 28 51 78 66 56 66 65 86 112 
115 108 105 50 32 38 34 37 38 41 46 60 85 110 140 151 164 181 183 188 190 192 192 192 191 187 186 185 178 177 175 172 163 152 139 116 90 29 24 55 64 58 52 71 56 110 
108 101 87 31 33 27 36 46 50 42 56 84 116 134 159 158 186 195 194 197 200 199 194 196 197 195 190 189 187 184 186 177 169 172 157 132 112 70 55 57 56 52 43 46 107 82 
101 93 35 25 21 26 33 39 47 62 89 133 142 179 179 188 195 200 202 203 200 199 198 199 194 197 198 195 196 191 187 188 175 175 172 148 117 98 30 21 80 52 42 40 97 101 
101 72 26 30 21 35 37 52 72 113 133 148 181 184 181 190 200 201 203 202 201 200 199 198 200 198 200 196 195 196 188 186 187 184 177 162 132 128 63 44 48 46 36 42 45 116 
94 51 40 35 28 43 49 75 118 141 145 169 184 189 190 191 198 201 201 200 200 200 196 199 199 197 195 195 193 195 192 187 188 185 188 170 139 135 93 42 51 55 29 36 33 119 
97 95 48 24 33 65 67 73 119 154 158 177 184 188 188 193 198 201 201 200 201 201 200 201 199 199 199 194 194 196 192 194 190 191 187 179 149 141 112 49 60 44 27 28 38 60 
90 96 45 29 39 59 43 75 128 154 167 180 189 189 191 190 197 197 197 198 199 199 199 199 195 194 197 196 193 193 192 194 192 192 189 178 157 142 116 75 51 83 37 31 30 22 
86 90 45 32 49 48 43 92 145 155 166 181 184 188 189 192 198 200 198 198 201 199 199 202 198 197 195 194 194 194 191 191 190 190 185 178 160 149 134 85 70 98 32 28 42 23 
88 87 47 34 51 32 45 124 152 158 164 179 186 191 192 189 197 197 200 199 199 201 199 201 200 199 201 196 196 194 192 194 191 192 184 177 161 155 145 75 83 61 51 42 25 86 
84 91 48 40 49 40 62 138 152 162 169 179 190 193 191 191 193 198 200 198 201 199 200 202 201 200 199 197 198 194 193 195 190 192 190 175 159 155 142 108 85 65 54 44 37 113 
85 155 56 58 49 39 105 143 156 162 172 179 184 192 194 191 189 193 196 197 199 200 201 204 200 199 199 199 195 196 190 189 194 190 185 175 167 157 150 126 77 66 48 41 47 115 
157 86 97 77 51 44 128 147 153 160 158 164 158 163 160 165 166 183 182 190 191 195 196 198 197 195 196 188 181 170 155 164 158 158 157 159 151 150 145 133 73 60 49 44 73 111 
127 119 100 101 46 53 138 141 151 148 150 151 144 135 113 107 91 106 136 161 171 188 191 193 187 186 170 158 123 88 92 96 126 130 140 154 144 145 142 135 99 41 45 62 53 113 
120 141 158 99 110 39 143 139 133 140 141 150 147 150 143 126 112 108 101 124 155 176 188 190 190 166 153 130 109 115 116 131 158 153 152 147 149 140 140 137 133 39 78 80 101 109 
129 136 165 134 118 97 149 149 134 131 135 136 129 130 139 134 125 112 125 112 134 164 190 195 185 159 128 111 122 124 138 152 158 152 144 133 134 145 141 144 140 81 127 87 128 103 
143 135 167 153 85 124 148 153 152 140 125 106 128 124 110 142 124 123 107 113 96 153 191 200 189 148 113 103 98 105 133 151 142 138 114 120 138 142 141 151 138 109 122 127 129 100 
156 140 161 135 59 129 150 161 165 151 121 99 83 68 50 56 124 94 104 127 119 134 193 203 196 126 115 100 96 63 16 52 82 94 116 118 140 155 144 152 138 109 147 133 153 100 
174 138 171 149 123 119 139 163 162 148 156 144 134 152 115 119 160 117 155 119 147 133 189 199 198 112 153 120 105 125 81 68 156 117 111 113 117 151 151 150 136 111 131 135 148 102 
181 141 180 152 158 116 136 165 167 185 168 168 167 159 151 145 144 138 144 158 157 131 177 193 189 121 134 150 141 129 138 135 132 143 146 149 151 142 148 150 142 103 139 140 133 106 
162 147 196 133 144 109 134 161 175 186 182 173 174 177 166 163 160 147 164 166 166 138 186 182 192 141 154 157 155 145 143 150 156 157 155 159 174 182 165 148 136 100 156 146 123 105 
96 166 181 167 138 103 125 158 183 189 189 183 178 179 179 175 174 186 183 178 148 147 182 186 192 157 153 164 175 164 166 179 180 175 182 177 187 188 172 143 127 101 151 126 114 104 
55 194 156 172 167 94 122 145 178 188 189 191 189 186 187 191 189 193 178 167 145 159 186 186 185 161 152 171 186 191 180 171 177 184 187 188 187 188 170 142 122 112 144 129 92 98 
72 138 181 160 124 88 125 135 164 182 188 191 193 194 193 195 189 187 176 147 153 172 190 195 186 164 149 158 186 196 195 194 178 193 191 189 190 184 168 130 119 114 134 157 76 94 
80 56 160 184 150 83 120 136 150 168 182 187 192 199 198 196 191 179 171 132 159 180 194 190 192 176 144 138 184 190 194 195 195 192 192 188 183 172 157 131 118 122 128 136 85 94 
80 76 68 134 130 87 116 141 152 164 171 184 188 196 195 194 185 172 148 155 152 170 192 201 185 159 148 146 173 185 192 191 193 190 189 180 169 163 143 131 109 143 148 87 85 91 
76 79 75 74 77 88 106 136 145 161 172 175 183 189 190 186 187 180 139 128 121 139 178 181 157 136 140 146 159 185 185 184 190 189 181 169 167 154 137 129 97 143 113 79 91 91 
78 77 75 77 76 80 98 135 143 152 157 165 180 186 182 186 188 166 133 103 18 105 135 133 97 46 102 145 156 184 186 183 186 184 173 164 153 148 131 127 103 69 78 87 86 93 
76 76 75 75 77 74 101 126 138 146 155 163 179 184 181 184 175 173 101 137 121 95 98 105 118 102 96 125 140 182 181 182 178 179 174 159 154 141 129 120 78 71 78 87 88 91 
81 78 77 79 78 73 102 116 132 138 146 162 164 177 179 179 176 174 134 96 121 148 123 135 140 140 122 107 153 176 179 181 180 172 169 157 152 138 125 114 58 77 79 86 87 88 
75 78 79 75 75 72 100 108 126 134 146 160 164 169 175 182 181 173 167 155 125 154 138 143 137 131 136 136 164 171 178 180 170 164 157 158 152 133 120 110 49 80 85 88 88 93 
80 73 76 74 76 77 86 107 119 141 144 156 161 164 165 167 175 169 162 147 143 173 152 152 149 142 149 161 165 161 170 170 164 162 157 153 146 130 115 113 58 81 84 90 90 90 
85 76 74 75 78 75 74 111 123 133 144 151 156 155 157 165 164 159 161 161 165 181 172 171 167 154 156 161 159 163 169 167 164 156 155 150 138 124 113 96 72 81 81 84 87 89 
78 78 78 77 75 77 75 107 120 128 138 144 145 145 143 148 147 164 166 174 176 191 183 186 187 169 157 160 163 166 157 152 152 147 154 142 138 117 116 76 75 82 84 86 87 89 
81 77 76 76 78 73 77 94 115 122 143 147 147 140 124 125 124 136 125 93 90 89 118 103 98 123 171 163 152 149 142 136 130 142 147 135 128 117 112 71 81 84 89 89 89 87 
80 77 79 76 76 77 73 75 109 121 134 149 145 131 117 115 78 59 63 62 67 65 83 78 85 84 75 90 116 117 112 117 120 137 141 129 125 121 102 74 80 84 87 88 86 87 
81 79 80 74 79 78 77 79 102 115 126 141 144 152 150 163 150 127 123 111 118 145 118 139 127 109 94 91 106 139 117 111 115 138 135 128 117 108 77 76 82 87 87 88 88 84 
83 78 77 78 74 74 75 78 73 108 122 122 142 145 154 164 153 132 124 134 124 127 130 122 124 121 128 129 140 144 144 135 131 132 124 122 114 98 73 85 87 86 85 85 85 87 
83 79 81 79 78 77 74 72 73 87 106 114 132 137 141 149 150 145 126 107 100 105 94 86 107 112 120 132 139 138 142 135 132 123 117 112 106 77 81 81 84 83 85 86 83 88 
83 85 85 75 80 77 74 77 74 69 103 108 117 134 138 150 151 148 150 144 128 120 108 118 120 125 133 138 138 137 131 126 131 114 104 107 87 73 77 83 83 84 84 85 85 81 
87 81 84 77 74 73 76 77 76 81 63 100 113 121 128 128 151 160 166 173 182 180 179 184 172 152 150 145 136 131 135 121 118 108 106 88 109 72 80 79 82 87 88 86 86 86 
85 83 81 81 78 78 75 74 77 75 84 62 94 110 111 140 144 148 154 171 178 184 174 176 176 176 163 159 141 136 132 126 110 108 83 87 119 72 77 82 81 86 83 87 80 84 
85 84 78 78 76 76 77 76 79 61 90 73 56 80 105 126 132 139 141 173 174 174 165 164 169 168 154 144 140 129 117 109 93 75 81 108 120 71 81 82 83 83 82 80 80 83 
81 81 87 77 76 82 74 96 35 48 94 83 58 50 66 100 119 131 129 146 159 164 156 161 155 151 131 137 133 119 98 74 70 82 109 117 123 28 80 78 80 80 81 84 84 85 
85 86 79 77 79 77 75 81 63 111 87 90 74 53 53 57 79 107 105 122 133 130 133 141 134 134 117 121 97 84 54 70 87 104 118 116 114 4 102 82 82 83 79 81 78 83 
83 79 93 104 104 100 98 32 122 113 86 96 84 61 58 54 59 57 79 80 100 105 108 111 113 103 104 90 58 58 70 86 106 117 120 115 106 21 97 83 79 78 82 77 80 77 
90 98 103 114 103 102 90 59 118 119 90 99 98 78 61 56 55 48 50 58 62 62 66 70 64 59 52 51 63 79 95 106 117 124 120 113 94 61 84 89 91 83 81 78 77 82 
