P2
46 56
255
118 118 120 121 119 116 115 119 113 115 114 117 108 99 84 90 103 126 137 133 119 116 108 88 69 67 74 108 109 120 121 122 123 123 120 123 122 124 121 121 121 121 120 123 121 121 
121 121 121 121 123 118 114 115 109 111 106 96 80 77 104 135 165 171 169 167 175 171 171 156 141 86 64 55 104 120 124 123 119 123 123 124 122 120 121 123 123 123 120 119 123 122 
116 119 123 119 119 114 105 102 108 95 85 87 88 120 157 180 175 182 183 183 183 182 182 184 178 170 151 86 47 113 116 119 124 124 125 125 121 121 123 122 123 122 121 123 122 122 
122 119 122 115 109 103 104 105 93 69 70 100 141 156 171 175 183 179 184 184 186 185 186 186 184 181 176 166 149 61 110 122 124 123 124 124 124 121 120 122 122 122 123 123 121 122 
121 116 116 110 101 96 97 91 75 87 107 142 154 168 177 182 184 190 188 188 187 188 190 192 188 185 182 184 181 173 121 118 120 122 126 124 122 124 120 122 123 125 124 125 124 122 
116 112 114 97 102 95 88 87 72 110 120 162 170 172 176 185 184 189 189 190 191 191 192 188 193 190 188 192 186 178 173 123 86 115 119 118 124 123 123 125 123 121 122 123 120 121 
101 103 97 100 96 100 76 54 118 134 157 166 179 179 185 189 190 189 196 194 195 193 191 195 189 191 191 194 190 190 180 171 125 53 104 122 120 119 118 122 123 122 123 123 122 122 
101 102 91 92 92 71 47 114 131 159 164 179 183 187 193 199 200 196 196 195 202 194 193 193 195 196 191 193 191 189 188 179 163 125 58 80 93 111 109 113 117 121 124 122 123 122 
105 96 97 97 92 29 120 124 153 160 164 176 184 188 196 204 204 202 199 196 200 201 194 196 197 196 196 197 194 191 190 189 181 151 50 75 88 101 113 120 111 125 123 120 123 123 
109 95 95 102 59 93 137 124 155 167 167 173 183 188 200 198 200 203 198 196 202 200 196 199 196 198 200 198 196 192 194 184 178 147 174 41 73 99 107 108 120 119 120 121 121 120 
89 87 79 84 25 137 138 123 151 160 159 169 179 187 196 201 199 200 199 197 200 201 198 195 197 195 198 194 195 191 187 181 181 167 160 116 74 73 108 103 119 121 119 122 120 123 
83 91 68 68 72 141 143 129 151 156 164 173 177 185 198 196 198 198 200 199 200 200 199 197 195 195 189 195 195 191 192 185 187 172 156 166 45 44 80 105 108 114 115 123 123 122 
82 83 83 34 119 142 138 134 150 165 160 174 174 187 195 198 196 198 203 197 198 201 196 197 200 196 198 196 196 193 192 185 188 175 161 145 75 65 52 88 108 108 113 124 118 125 
67 63 63 50 127 138 142 144 143 165 162 170 168 184 191 197 190 196 193 197 196 197 198 196 197 197 195 197 198 193 191 181 189 182 161 146 137 71 32 70 90 94 114 115 122 125 
57 61 65 51 122 127 137 148 139 170 171 168 167 177 194 195 194 197 196 198 197 195 198 199 198 197 198 200 198 192 196 186 194 185 166 149 155 40 49 27 102 104 102 99 124 121 
63 70 71 37 116 130 130 147 143 166 176 172 166 177 191 198 196 200 198 197 199 200 198 198 201 200 199 202 200 200 200 189 197 187 173 151 151 28 26 29 63 95 61 92 113 124 
68 78 65 41 97 119 112 150 141 165 176 175 178 175 186 192 194 198 200 197 199 198 197 199 200 200 201 200 199 199 198 198 197 194 188 141 142 51 46 33 58 59 42 37 81 125 
64 64 58 43 71 119 117 147 149 161 177 180 187 175 178 187 180 189 197 198 202 197 200 197 202 200 194 198 202 198 198 192 189 172 186 156 150 66 50 29 70 60 29 41 82 112 
60 67 36 28 53 108 111 128 145 166 176 188 187 185 180 184 177 182 187 193 199 194 195 192 196 191 170 157 151 153 144 132 142 135 155 150 146 52 65 41 52 64 46 86 118 115 
50 40 51 26 47 88 118 117 150 169 160 176 177 179 180 172 174 168 156 176 190 185 186 179 172 163 128 97 66 130 155 142 148 134 130 104 152 59 43 35 47 52 67 106 118 121 
54 35 28 34 56 86 100 118 146 144 132 133 122 106 92 89 93 121 135 137 177 152 163 160 175 163 128 128 111 161 191 183 183 181 164 104 115 41 42 40 56 75 85 119 121 119 
42 48 33 35 50 84 113 120 103 123 129 183 182 179 114 105 87 127 114 197 157 156 146 172 125 109 126 132 146 200 214 189 183 172 141 142 78 66 47 63 68 68 98 110 121 119 
56 30 20 31 55 56 121 116 94 105 146 170 184 180 179 149 111 214 184 114 129 179 183 161 169 117 129 131 105 96 72 67 96 104 122 156 84 190 81 48 68 71 97 112 120 122 
38 37 21 38 40 31 128 103 110 119 148 159 158 152 127 114 112 169 128 99 87 101 157 211 200 148 138 122 113 167 95 98 151 108 82 136 27 182 79 63 57 60 91 97 122 118 
38 47 36 26 26 19 115 116 115 109 108 73 49 48 46 148 107 117 158 119 111 106 176 173 84 174 165 131 130 145 150 141 145 137 130 70 104 131 49 73 58 39 90 91 114 119 
29 57 59 55 35 35 53 172 97 97 55 82 101 79 106 138 127 136 156 127 125 132 200 196 148 145 172 159 156 144 142 158 169 155 134 121 166 129 55 88 57 57 89 112 118 116 
35 58 45 46 45 73 32 216 71 98 105 125 133 148 153 151 154 159 171 140 94 168 198 198 210 166 186 193 172 179 191 183 162 153 156 170 184 117 81 56 44 63 83 111 113 116 
20 61 55 38 35 79 106 96 78 134 138 158 166 147 149 184 183 192 183 105 149 168 188 196 198 138 175 185 187 167 152 153 159 182 181 171 185 114 81 43 54 71 87 110 118 118 
15 56 45 38 43 63 118 69 118 140 156 146 160 162 169 171 181 184 158 143 116 157 184 191 194 174 130 178 183 182 186 187 190 191 187 172 187 162 110 96 56 74 102 110 119 118 
24 46 40 45 40 61 108 124 154 124 174 177 168 169 177 183 184 178 153 197 123 155 183 200 195 187 164 114 180 185 188 189 191 186 188 177 138 172 121 58 71 92 100 110 117 120 
29 28 48 45 31 52 101 121 85 121 157 159 167 170 176 181 182 179 158 112 126 165 187 198 197 189 175 106 102 174 190 180 164 132 117 153 179 169 124 51 55 95 100 115 113 112 
27 18 47 38 32 44 100 109 129 211 139 157 163 163 171 173 185 192 174 117 145 145 170 192 201 183 162 161 161 153 147 156 164 177 180 183 176 160 135 42 73 101 105 116 122 117 
28 25 54 61 38 43 103 114 122 112 114 132 138 135 139 155 144 153 112 153 141 121 144 174 185 164 152 158 170 184 179 185 185 186 175 183 172 157 128 41 66 91 102 114 114 118 
27 32 57 52 38 44 96 108 115 123 126 127 140 150 156 163 167 174 113 125 109 96 93 143 161 155 22 127 145 180 186 185 186 182 175 173 167 144 130 53 72 105 96 102 111 116 
40 40 46 45 42 44 83 116 125 140 144 142 152 145 163 167 163 135 106 111 32 30 47 113 127 110 117 105 153 183 185 179 176 182 171 175 149 125 108 62 66 82 98 94 108 117 
70 28 44 46 48 52 58 105 120 139 134 144 151 158 162 163 164 156 144 95 86 57 63 78 107 106 148 133 161 176 190 184 181 157 168 168 152 132 90 66 72 91 87 109 112 117 
73 55 41 35 46 54 50 102 101 123 124 141 152 157 147 164 169 169 160 149 92 72 90 114 102 105 107 130 158 154 168 175 185 182 158 155 131 119 98 54 55 80 81 84 104 116 
71 60 54 40 56 67 55 93 93 100 124 128 146 132 170 163 153 147 127 132 93 96 133 133 100 85 95 90 109 130 127 128 135 166 152 140 138 99 76 62 52 64 94 91 112 118 
73 78 61 42 41 49 45 80 95 90 105 126 113 148 135 139 120 126 103 117 95 102 128 119 109 86 101 83 95 120 101 111 114 108 143 143 115 80 60 48 65 68 69 78 97 110 
71 75 58 66 31 40 54 70 78 94 107 115 127 103 110 118 119 118 103 119 92 96 124 133 107 105 115 98 88 96 113 93 108 108 107 114 94 77 68 56 66 50 63 88 94 103 
75 75 63 56 45 48 65 47 94 94 92 116 94 91 92 114 112 90 93 84 87 97 93 115 110 87 96 95 83 82 79 76 93 110 99 98 88 70 42 59 55 50 62 65 85 112 
74 70 69 46 38 44 56 43 84 76 88 85 107 104 83 88 86 63 84 82 77 104 114 125 135 119 118 113 106 107 110 80 83 88 89 70 86 59 51 41 30 53 73 93 101 110 
73 76 67 57 47 40 57 47 48 63 84 105 109 88 71 72 66 85 101 114 109 128 147 167 174 166 153 155 158 146 139 111 77 72 73 78 79 69 59 45 35 75 76 85 116 116 
72 73 65 59 47 40 44 43 52 43 64 88 71 78 58 66 80 100 120 124 117 139 149 150 143 156 157 150 148 146 143 129 94 53 73 63 64 82 58 56 43 65 85 94 107 111 
73 68 71 58 43 42 50 37 45 56 54 85 72 74 101 76 94 107 117 134 113 125 133 132 117 133 116 132 132 136 131 114 71 76 75 75 64 55 59 47 63 63 87 87 114 113 
69 72 67 55 54 37 49 58 44 58 56 63 72 77 63 90 83 102 132 114 114 119 121 119 99 116 103 120 128 141 118 94 107 47 51 61 61 72 66 51 51 72 60 112 110 110 
69 67 68 61 56 44 33 44 43 48 62 72 65 76 77 82 80 89 101 109 108 112 104 82 90 105 97 109 91 99 93 89 77 72 76 61 66 64 56 49 56 53 61 90 113 110 
74 67 70 66 57 38 30 73 51 47 63 42 86 69 76 81 64 57 81 70 83 76 80 71 78 90 86 89 65 85 69 73 66 75 49 85 68 57 55 57 48 58 77 101 106 109 
69 77 71 71 46 39 37 30 35 38 63 48 89 85 97 72 48 54 79 70 68 87 104 98 91 83 91 90 79 71 56 59 90 53 84 55 76 54 39 51 61 69 76 101 107 106 
66 67 69 71 54 52 35 45 52 72 57 66 110 81 82 67 61 72 62 69 71 85 108 110 96 92 104 110 87 71 60 58 75 48 59 74 72 66 48 39 39 65 84 102 104 102 
69 67 67 76 64 39 30 30 33 72 49 72 125 65 94 54 69 72 105 68 95 142 125 103 113 76 92 89 88 86 61 70 80 58 57 79 68 50 53 45 36 62 64 97 100 104 
68 65 70 68 68 49 39 30 41 48 35 56 97 58 82 71 90 89 53 75 109 97 114 130 70 90 80 97 115 81 57 71 65 71 96 80 58 62 39 45 37 61 72 99 111 101 
69 68 67 68 75 60 38 44 34 46 32 36 83 64 76 72 58 110 23 119 82 76 86 101 83 72 103 82 86 88 83 69 69 47 54 67 88 66 54 51 39 72 71 97 100 99 
68 69 68 68 70 68 50 45 47 46 41 57 70 69 66 62 59 97 48 126 104 102 98 97 87 58 83 96 81 68 101 68 99 45 60 54 55 74 51 42 53 51 54 96 94 100 
64 67 66 70 67 61 65 37 45 40 35 43 64 64 57 55 73 92 47 84 83 68 105 64 65 91 58 100 92 92 80 75 90 46 59 89 61 65 52 35 50 98 57 100 97 102 
67 67 65 69 69 68 63 40 48 43 46 47 54 42 90 37 56 54 67 81 75 91 77 89 105 61 68 78 93 108 79 77 54 61 41 64 44 52 51 43 54 54 125 146 112 98 
