P2
46 56
255
47 52 52 54 55 45 47 61 53 60 54 64 58 61 60 42 43 48 66 92 99 103 100 104 102 89 94 79 66 55 59 43 57 47 50 50 48 47 46 42 47 49 47 43 45 45 
51 48 49 50 52 53 59 55 59 59 53 75 56 58 60 57 88 121 124 123 126 124 121 119 115 115 114 112 110 105 84 51 58 56 54 44 46 46 47 49 56 53 49 47 46 46 
53 57 56 51 50 59 63 60 65 68 60 71 58 47 91 127 129 130 140 131 141 134 133 126 117 119 123 119 122 119 115 112 102 55 58 61 49 47 48 52 50 49 53 49 47 43 
57 56 62 63 65 57 63 67 57 61 71 51 58 125 141 142 140 140 137 144 143 141 141 139 134 135 124 132 121 124 121 123 118 108 91 46 52 54 51 48 52 54 48 48 44 46 
51 50 50 51 53 60 62 64 76 66 54 95 140 147 142 155 147 145 143 143 139 146 149 144 138 133 134 136 131 132 134 136 132 128 122 113 50 57 50 47 50 49 54 54 54 46 
53 52 46 58 59 67 78 59 65 67 99 143 156 157 164 167 169 152 158 149 140 149 152 152 143 143 147 139 141 142 135 138 138 134 137 129 119 52 58 56 51 55 47 52 49 46 
54 57 58 49 76 62 83 62 72 97 149 165 164 171 169 171 171 164 170 159 149 160 150 160 143 138 145 139 145 143 139 145 142 142 135 134 130 122 45 49 56 53 50 48 48 51 
54 54 56 65 63 61 66 65 82 156 165 176 176 179 173 177 170 174 175 165 155 159 161 158 163 147 145 148 143 145 146 142 144 145 144 140 138 137 119 50 50 52 54 53 54 54 
54 56 72 62 61 71 60 62 157 164 181 184 183 180 178 179 172 162 177 174 165 151 159 169 154 153 140 142 140 138 140 145 144 141 142 136 144 144 127 129 31 32 55 55 54 52 
49 68 58 59 64 66 26 158 171 185 186 193 188 191 186 178 178 167 169 163 158 153 151 163 158 150 152 143 139 138 143 142 141 145 144 146 145 155 145 133 134 16 54 49 65 48 
62 58 67 76 58 49 136 171 172 187 190 192 189 188 194 183 173 163 163 168 167 156 162 158 160 156 150 143 136 135 142 140 143 143 140 146 151 149 149 144 135 88 27 49 46 50 
54 69 71 74 50 56 186 178 195 191 192 194 195 198 189 183 177 163 151 156 150 157 155 151 156 152 151 142 139 139 144 145 144 147 138 146 143 145 151 143 147 149 7 47 33 50 
62 73 101 81 68 107 188 186 187 202 197 200 197 193 188 186 178 167 159 152 146 158 154 152 155 154 148 153 141 145 147 152 150 150 153 146 146 151 153 157 151 154 80 60 37 76 
68 63 87 96 68 176 186 189 194 195 198 198 206 195 200 195 188 179 181 163 155 155 145 156 144 170 162 156 146 149 149 159 152 164 163 156 151 152 155 154 148 150 129 24 44 46 
79 75 58 78 65 185 197 194 198 205 199 197 199 202 202 201 197 196 189 176 163 162 139 166 151 171 175 175 148 155 156 156 156 161 158 161 152 151 151 147 154 150 150 25 45 57 
94 78 36 28 88 167 203 192 197 202 195 197 201 200 205 209 195 201 190 183 173 167 144 172 166 168 174 149 145 141 147 148 149 148 148 140 139 136 154 154 150 153 139 49 48 107 
73 70 68 46 94 149 200 197 206 197 190 187 194 193 192 195 180 178 181 168 154 162 142 151 154 145 151 122 127 113 102 105 107 109 107 102 109 100 119 129 152 154 146 55 61 66 
62 84 53 72 79 140 202 198 197 192 174 143 152 151 152 139 135 122 159 137 127 142 146 136 109 140 131 99 121 101 69 64 57 61 69 76 100 107 116 118 134 148 138 65 57 30 
54 61 48 44 61 112 204 197 190 153 145 123 122 113 110 111 153 155 102 105 125 112 122 112 110 128 124 102 183 67 71 58 76 85 118 124 127 130 117 93 88 150 139 72 48 50 
45 41 37 51 70 106 201 197 179 142 102 122 154 146 144 103 130 115 118 93 112 54 127 135 118 137 106 87 99 124 146 98 132 142 136 129 132 148 162 164 124 71 149 83 45 57 
69 45 50 78 67 89 199 203 93 154 193 197 183 179 165 144 162 133 124 123 134 141 143 167 143 145 146 76 101 101 104 73 58 70 50 38 75 75 123 170 141 55 139 88 65 63 
102 54 40 101 40 90 192 113 72 181 207 186 108 75 77 80 71 76 111 104 105 135 214 83 82 45 32 82 59 83 65 67 137 49 138 54 89 84 33 100 118 63 51 235 70 71 
69 39 98 101 22 49 156 138 38 195 177 28 198 49 203 73 144 70 93 109 153 183 93 102 140 111 98 111 117 119 95 100 118 89 91 67 110 82 82 84 79 58 63 186 24 53 
79 69 85 71 51 117 96 117 65 166 57 49 147 71 69 88 111 90 99 134 160 188 2 209 168 136 145 57 114 128 117 108 104 99 105 109 124 153 161 145 157 109 126 71 32 85 
89 67 60 71 64 36 112 127 57 225 150 170 170 140 134 117 94 99 104 151 161 132 114 193 164 137 156 45 132 137 115 108 111 111 96 101 112 113 141 154 147 163 66 111 33 78 
77 75 87 88 62 53 161 144 79 222 185 178 171 141 126 121 132 134 164 179 162 61 206 187 162 135 142 136 68 168 149 134 109 108 103 112 131 122 125 139 157 188 72 149 45 94 
108 96 126 104 95 74 178 86 134 207 170 168 169 171 162 149 165 186 178 181 166 73 199 177 169 134 142 143 77 152 167 151 148 151 137 130 129 134 141 150 145 186 156 159 38 79 
66 69 104 81 92 66 191 128 186 203 179 183 168 169 167 170 185 173 163 174 135 181 190 178 170 139 143 143 142 56 159 146 141 146 146 143 141 141 148 162 175 78 214 157 47 55 
62 81 118 85 87 45 182 221 119 212 209 197 186 172 175 173 164 162 165 192 84 194 207 184 180 159 136 151 199 98 89 145 141 145 140 143 139 142 144 168 152 152 185 166 46 61 
43 61 87 65 68 59 166 197 152 204 208 204 190 176 175 162 162 155 160 82 152 202 200 197 166 136 130 135 164 157 101 85 107 114 113 107 106 99 113 134 175 181 189 168 35 63 
64 78 70 117 87 80 149 202 201 183 109 104 119 131 136 127 117 106 129 133 206 203 164 162 159 120 130 145 118 152 177 84 89 86 93 92 92 108 142 160 176 177 165 167 48 61 
74 56 32 111 81 76 125 201 201 208 209 197 175 180 142 131 123 101 89 215 194 154 85 154 165 108 120 104 13 94 155 90 127 135 136 138 142 143 158 176 178 167 147 151 61 41 
110 57 55 89 110 74 99 208 200 202 211 205 189 178 170 148 125 118 154 187 135 30 41 172 174 81 126 55 44 38 134 46 120 127 130 129 127 144 160 166 185 152 142 132 63 46 
70 74 75 129 101 76 81 194 189 201 200 206 186 163 142 122 121 159 189 163 136 127 136 127 126 86 60 69 123 90 89 107 140 122 117 119 104 124 137 159 163 138 129 112 62 35 
68 87 94 67 92 69 94 194 193 183 186 199 186 151 117 132 148 188 177 177 164 137 101 109 73 45 112 92 81 93 105 132 144 142 121 118 132 113 131 136 142 140 115 91 74 47 
74 79 74 65 74 67 96 166 174 161 183 189 126 174 149 141 151 163 143 125 114 85 120 76 82 92 113 81 79 56 98 88 126 118 124 109 117 139 85 141 110 117 111 60 57 54 
62 73 63 71 71 76 106 154 148 173 182 195 178 160 109 140 124 130 118 108 85 83 108 81 76 90 73 52 65 88 51 90 96 89 86 97 83 116 160 119 88 104 76 77 56 42 
71 73 94 68 64 72 78 130 131 147 155 122 189 95 121 107 126 104 83 94 82 73 86 91 82 68 68 51 57 84 58 107 81 85 89 64 76 88 125 101 74 86 46 59 62 40 
54 76 68 63 70 74 104 89 106 137 150 118 132 93 88 103 107 103 106 104 91 87 63 66 85 60 65 71 64 71 71 80 70 58 64 33 64 71 87 69 62 53 36 46 56 44 
68 62 78 62 61 78 87 98 113 114 121 107 112 79 86 44 75 59 38 75 90 114 97 181 184 116 137 120 86 79 76 57 39 27 39 37 47 44 86 54 51 40 31 33 56 41 
61 78 58 64 75 80 101 76 86 81 122 91 73 100 63 57 59 78 25 38 117 31 44 141 89 32 76 82 54 31 58 70 43 53 49 48 50 61 78 66 63 39 56 37 57 42 
65 86 55 76 81 58 78 69 74 77 89 116 86 69 56 66 92 103 150 163 165 143 93 137 129 133 135 115 111 118 108 127 92 71 72 60 64 70 94 88 67 49 63 46 38 58 
71 59 56 59 83 72 60 52 82 70 80 81 86 79 57 66 91 104 157 185 169 169 131 134 134 157 124 104 100 103 121 120 97 79 83 64 91 70 70 63 67 42 34 46 47 46 
75 79 72 60 70 70 96 60 61 69 69 71 70 65 57 58 82 101 114 160 176 178 145 136 138 129 111 108 103 114 109 99 110 91 85 98 52 47 52 51 47 26 53 49 51 51 
64 70 60 103 48 57 59 61 62 52 70 74 53 62 46 65 56 81 98 101 131 117 139 119 104 118 81 115 84 112 124 85 86 96 51 83 60 67 43 49 48 32 39 72 64 50 
64 68 67 67 73 50 59 89 51 86 72 74 41 41 46 56 55 78 88 92 103 99 93 101 98 75 90 85 93 84 84 84 70 80 46 42 63 53 71 40 47 39 47 52 58 45 
63 52 56 66 42 68 60 74 53 87 57 86 81 69 56 61 65 72 64 70 73 75 59 73 86 82 67 85 66 87 55 61 64 58 41 51 58 58 51 34 54 61 52 53 46 39 
62 55 37 54 50 66 66 64 79 87 46 74 98 99 60 87 55 55 42 40 74 73 54 52 60 61 51 50 45 54 57 59 48 66 33 37 54 71 64 64 40 58 39 59 65 44 
69 59 57 54 74 68 56 63 52 93 60 78 61 83 39 62 124 43 64 37 59 68 62 41 46 46 64 45 59 51 53 56 55 51 43 72 57 57 86 34 57 44 64 43 47 51 
57 57 54 42 59 43 74 62 38 70 56 83 71 48 62 39 107 84 38 56 31 59 89 54 58 59 59 36 97 73 62 46 54 33 41 44 86 41 34 55 83 46 68 40 41 55 
70 78 65 57 61 54 82 73 109 71 77 59 87 78 42 39 40 102 75 57 78 87 113 69 61 69 63 71 90 37 81 59 84 53 60 32 34 76 29 52 64 46 46 38 45 50 
69 63 69 51 63 84 70 82 112 69 55 65 62 68 47 78 46 116 74 57 80 75 83 83 60 28 57 72 54 45 39 60 55 49 64 38 32 53 80 45 58 72 77 40 47 47 
70 62 71 80 74 71 62 58 60 90 50 32 56 55 86 83 35 92 68 39 112 44 83 46 75 50 38 48 69 39 54 26 73 76 64 53 57 44 89 20 63 88 56 29 36 42 
67 75 61 84 85 49 62 66 78 33 57 51 83 86 76 58 54 83 16 87 127 26 118 38 73 74 33 61 37 42 46 35 68 60 68 64 41 77 81 48 48 66 39 26 31 41 
64 81 76 55 92 77 52 59 68 55 57 80 50 111 88 48 59 44 93 113 76 3 113 72 62 64 42 30 65 35 47 50 63 54 77 78 55 78 55 62 41 46 50 30 27 43 
69 68 76 66 81 68 87 83 62 87 81 130 136 108 44 56 87 73 116 63 62 65 83 51 49 56 57 44 56 58 69 34 50 76 73 46 39 43 60 48 36 82 31 24 32 42 
