P1
20 30
0000000001111000000000000001111111000000000001111111111000000000111110
0011100000000111100000111000000011100000001110000001110000000011100000
0111000000001110000011100000000111000000111000000001110000000111000000
1110000000001000000011100000000000000001110000000000000000011100000000
0000000011100000000000000000111000000000000000011100000000000000000111
0000000000000000111000000000000000011110000000000000000111000000000000
0000111000000001110000001110000001111110000111000011111111000001110111
1111100000000111111111100000000011111111000000000000011110000000000000
0000000000000000000000000000000000000000