P2
46 56
255
107 104 105 105 106 102 102 103 104 106 92 83 89 59 57 57 50 66 61 79 47 78 53 58 67 90 57 53 54 83 68 75 84 57 70 56 63 79 71 73 93 101 102 102 103 103 
105 102 105 106 103 104 106 104 102 68 46 73 59 56 72 53 67 82 78 83 60 90 36 103 57 65 61 28 67 61 101 60 81 63 39 55 85 84 71 55 73 85 101 101 100 103 
107 104 103 103 107 104 105 104 67 55 51 52 49 85 55 66 74 63 80 77 81 43 45 71 54 75 84 44 87 61 77 57 68 57 84 59 101 80 75 52 51 51 97 100 100 100 
103 105 103 104 105 103 105 104 91 68 62 44 27 83 77 61 48 96 88 86 95 37 31 49 88 104 53 28 93 87 29 50 40 46 66 49 69 96 90 62 49 46 76 99 103 103 
105 105 105 106 104 101 108 43 36 64 88 105 72 32 65 60 37 62 66 82 86 69 39 32 57 68 51 67 82 78 27 50 28 39 24 72 64 101 92 80 63 53 46 83 91 100 
108 104 102 103 101 96 95 23 72 96 104 68 74 32 44 40 56 54 76 61 70 50 34 35 40 39 45 60 69 81 89 84 32 39 33 55 55 63 78 87 64 52 57 81 83 77 
106 101 106 99 98 86 85 51 59 78 105 92 61 50 63 57 47 45 52 41 57 51 50 45 44 36 42 33 41 67 76 60 50 70 40 41 55 74 80 77 62 61 56 42 87 87 
105 103 100 95 85 79 61 75 66 68 64 66 74 105 83 94 82 83 58 53 33 51 40 44 49 42 37 31 31 33 88 87 36 32 57 40 47 44 63 72 67 71 81 58 85 85 
105 102 100 93 86 58 51 64 66 71 55 70 121 83 60 57 66 66 65 59 53 56 56 58 64 55 45 31 35 34 49 58 74 31 41 45 47 65 75 68 59 65 73 80 81 82 
102 101 99 88 82 63 31 65 43 57 39 50 87 51 84 59 57 68 65 72 71 71 71 82 77 94 69 48 40 36 49 54 53 60 43 49 56 69 81 84 84 72 78 71 73 73 
101 98 96 79 76 49 55 71 38 53 43 50 86 93 64 76 88 100 106 107 103 111 117 110 127 132 107 64 56 59 53 54 58 59 62 69 71 84 95 85 85 82 75 72 82 87 
100 98 95 80 80 45 58 61 55 50 52 54 64 78 97 109 126 147 146 153 145 144 147 150 160 151 133 100 82 77 77 81 93 85 95 82 74 82 91 81 76 70 75 86 81 92 
98 93 82 77 79 34 65 62 47 48 54 61 80 106 117 128 161 157 161 167 163 167 169 166 165 171 153 140 114 105 115 114 110 125 109 102 94 76 71 77 78 80 80 81 87 93 
95 86 74 74 74 24 62 45 40 38 67 88 106 120 117 150 159 162 161 175 173 177 179 172 169 177 178 169 154 142 140 139 136 135 138 118 113 99 75 60 73 50 51 76 84 98 
89 78 74 71 59 38 49 34 53 51 77 101 111 113 137 150 164 165 166 179 184 186 183 183 180 178 178 176 172 165 159 153 146 145 138 142 128 116 101 81 44 62 48 39 100 99 
77 76 69 68 58 40 36 34 53 76 100 119 135 147 143 155 155 163 165 177 183 189 184 182 182 187 182 178 177 173 167 162 146 154 140 140 133 127 116 114 70 36 41 53 87 99 
77 74 66 68 63 36 30 37 51 100 125 126 130 147 147 155 154 158 163 179 179 183 182 178 180 183 180 173 176 171 173 168 165 157 143 142 137 129 126 114 103 48 34 75 80 85 
76 66 67 66 63 48 36 38 57 105 124 128 129 141 143 150 158 159 164 166 174 177 183 181 181 179 177 175 171 173 177 166 167 158 150 144 139 136 125 118 112 68 26 100 96 97 
73 72 70 67 68 48 38 46 67 104 121 129 125 141 147 148 157 154 154 163 168 172 172 170 178 174 172 177 174 175 174 162 161 160 154 152 141 141 133 123 109 85 40 88 93 96 
71 71 69 70 68 38 38 55 80 102 121 126 122 134 149 149 158 156 159 151 164 170 169 169 176 171 173 168 168 169 168 173 162 159 158 148 143 143 135 124 109 91 44 93 91 94 
70 66 69 70 69 29 40 56 81 106 118 126 127 125 148 148 152 159 161 161 168 170 172 178 173 177 170 171 171 164 168 166 169 162 162 158 147 144 139 123 109 99 40 88 90 95 
66 68 67 67 75 31 42 54 81 113 116 121 132 126 142 148 152 163 162 163 172 174 179 176 172 175 165 167 168 162 169 171 170 166 166 158 153 146 133 124 112 110 37 92 84 91 
72 70 68 64 71 36 46 52 85 108 116 121 128 129 139 148 151 163 165 161 164 170 168 175 170 170 162 162 162 162 169 160 169 160 159 152 149 149 130 123 116 114 42 87 83 86 
69 66 67 67 68 56 45 53 80 111 117 124 128 128 139 145 153 149 159 157 154 149 153 160 158 163 158 161 169 159 167 154 153 140 132 140 135 131 123 129 113 105 65 80 79 83 
71 70 61 73 67 63 48 48 84 110 118 129 128 130 145 144 140 135 128 125 119 119 125 130 148 152 134 143 157 148 153 144 134 112 95 99 107 123 116 118 103 95 116 80 82 84 
67 63 105 127 166 69 47 53 79 110 120 124 127 123 126 133 127 125 108 100 91 90 89 108 117 130 138 149 157 136 139 119 105 86 91 104 115 119 119 113 100 85 118 78 84 85 
71 54 111 45 106 147 70 60 89 113 121 128 123 121 120 123 120 117 104 103 84 83 91 87 93 106 137 160 176 147 112 88 79 80 90 103 106 117 120 113 101 105 118 79 81 81 
74 57 104 65 86 73 98 75 109 117 126 119 118 108 110 112 82 91 96 83 72 108 108 90 94 87 127 170 181 167 93 100 95 73 69 45 99 107 84 110 113 104 109 75 81 79 
69 53 118 94 126 105 67 77 107 115 126 121 125 119 106 107 92 101 65 28 67 157 88 122 116 100 117 163 190 176 108 120 103 77 55 57 138 64 93 117 124 114 81 77 84 83 
71 63 111 132 97 133 64 40 100 106 120 127 149 133 114 111 99 102 109 91 139 151 107 132 129 111 124 158 190 177 164 136 121 131 129 127 115 112 108 126 136 119 72 82 82 80 
68 65 46 140 85 129 65 60 86 103 111 129 149 155 160 163 134 116 127 130 134 133 142 143 136 144 131 146 190 179 173 125 132 134 127 116 118 125 133 142 137 122 70 83 81 78 
68 67 68 97 92 136 92 115 87 102 111 121 150 164 169 163 160 161 160 163 161 163 165 164 164 150 142 139 179 184 177 112 150 136 140 140 138 140 140 147 136 122 80 80 81 81 
63 64 65 51 116 155 108 113 92 86 108 115 140 156 174 174 174 169 170 173 165 175 185 169 147 150 138 142 164 178 175 111 146 167 162 149 143 149 153 141 129 123 80 80 82 81 
65 63 65 63 86 91 138 129 103 91 104 105 130 140 155 169 163 170 171 178 182 183 179 165 149 142 141 148 164 177 178 142 133 161 160 159 159 148 148 139 121 129 78 82 81 80 
66 65 63 64 45 161 132 152 127 90 95 92 119 135 143 149 156 169 168 171 179 180 176 173 149 136 139 160 177 181 183 165 122 157 161 164 162 154 147 137 116 120 76 79 83 77 
62 65 66 65 63 116 141 160 126 85 100 93 110 126 137 147 156 165 169 173 168 175 175 152 133 147 133 157 176 185 183 168 117 154 164 162 160 149 142 135 118 84 82 81 79 88 
63 62 65 69 65 59 121 143 121 78 101 91 97 125 133 140 150 161 162 166 164 165 155 132 141 152 134 135 147 174 175 156 110 138 153 156 154 148 142 126 103 80 82 82 77 79 
60 62 63 64 66 66 62 100 90 54 102 104 100 113 123 137 142 151 155 159 157 148 143 112 123 118 94 85 100 127 143 115 101 137 143 149 148 138 136 121 87 77 79 80 80 85 
66 63 64 63 62 62 62 63 59 47 95 107 103 108 112 129 138 141 146 152 153 140 154 148 79 77 78 69 67 99 110 56 89 140 144 140 139 133 128 115 78 82 79 80 82 86 
64 62 61 61 61 64 65 62 60 56 90 103 103 113 112 122 124 129 142 150 144 154 156 158 151 119 116 120 82 84 113 127 127 135 139 138 137 125 122 114 77 80 84 79 76 78 
61 66 65 62 64 64 62 63 63 64 74 103 104 114 119 121 121 129 143 143 146 153 156 151 143 146 140 131 117 125 130 130 128 133 128 136 123 129 121 115 76 82 76 77 81 79 
66 62 61 65 62 61 63 64 61 58 67 92 105 104 122 127 123 126 140 146 150 152 146 133 137 134 141 136 134 133 128 130 123 126 123 120 119 128 116 118 79 78 80 77 77 79 
70 63 62 63 64 62 62 62 62 68 74 83 105 108 119 124 128 125 133 140 132 123 121 132 141 151 161 169 155 162 138 136 127 127 95 118 116 119 120 99 80 80 80 82 76 79 
71 66 63 60 61 58 60 66 62 65 66 111 87 111 118 123 130 119 134 135 114 77 72 93 84 75 71 71 84 71 71 69 80 98 133 129 130 117 118 69 75 79 77 76 78 78 
69 65 61 63 65 63 63 60 60 61 56 108 73 102 108 122 117 104 143 148 150 149 150 130 116 131 127 127 105 124 128 109 103 122 138 140 122 122 106 76 78 76 78 76 79 79 
72 68 68 65 63 66 61 62 64 61 47 103 111 82 103 110 114 106 122 142 167 164 150 137 123 124 117 131 132 127 116 108 120 130 136 132 115 119 71 77 81 77 80 78 77 78 
76 73 69 63 63 61 61 60 57 59 16 111 111 74 97 107 118 107 98 128 147 153 156 143 127 108 110 99 101 103 109 121 124 136 135 109 118 81 123 73 80 77 78 79 77 77 
84 74 66 68 62 61 62 60 63 44 3 108 112 100 71 90 102 115 98 115 135 145 147 142 135 130 121 115 110 121 119 125 132 134 131 108 107 31 151 135 129 79 78 75 72 77 
82 74 68 67 64 63 59 57 63 19 2 107 107 104 78 77 86 103 98 110 118 138 148 150 146 133 131 133 129 131 128 133 137 134 123 101 137 17 141 151 150 149 87 95 77 79 
85 75 68 65 65 61 60 58 60 19 1 102 105 108 93 69 79 92 88 99 113 132 145 152 166 164 165 163 149 144 152 138 126 129 108 114 141 10 95 151 142 157 139 144 132 127 
82 74 69 67 67 64 53 134 68 22 3 99 113 110 101 82 62 77 84 88 93 112 133 138 140 144 147 140 140 136 139 126 123 121 104 117 110 27 76 154 154 152 148 140 130 132 
84 81 69 69 66 55 114 173 51 26 1 94 116 116 111 100 72 60 66 85 80 98 111 126 126 132 117 118 122 120 123 118 118 92 123 122 54 29 78 161 152 156 157 146 136 157 
85 82 69 68 62 144 142 196 38 39 32 91 109 121 124 112 94 70 59 61 73 86 91 101 103 108 108 113 106 114 111 103 84 119 124 119 15 35 92 164 151 154 149 151 153 148 
80 91 103 143 165 159 159 196 33 41 35 85 100 115 125 134 112 91 67 62 61 59 64 76 84 88 92 93 81 80 72 75 111 127 127 87 31 13 147 160 153 153 149 156 149 118 
130 180 160 180 149 151 142 188 134 34 26 93 96 110 128 134 138 113 83 66 58 66 65 65 61 57 58 56 64 69 72 98 124 129 125 25 35 44 162 152 158 157 148 160 164 125 
174 175 179 185 153 169 146 172 194 23 38 72 93 101 119 133 137 135 108 84 70 68 69 69 76 75 68 67 68 76 95 117 128 129 23 29 13 137 165 155 149 153 147 144 168 130 
