P2
46 56
255
105 102 104 103 103 104 102 103 102 104 106 90 85 85 51 43 55 70 82 71 61 48 64 69 50 59 38 60 67 59 67 78 83 65 57 54 54 69 92 102 105 101 102 101 102 102 
101 102 102 102 103 104 102 94 80 93 64 66 83 44 46 59 76 67 51 62 78 69 80 47 32 33 33 45 76 66 57 54 47 66 79 67 59 60 71 73 94 102 103 103 101 102 
102 103 102 100 104 105 80 62 73 78 45 55 78 53 85 56 78 44 51 43 88 76 62 69 52 27 25 81 65 73 73 66 57 35 57 91 73 57 75 90 87 103 100 101 101 103 
104 103 102 101 104 97 65 46 58 51 90 77 67 58 71 69 75 69 92 84 96 65 51 71 84 45 32 30 41 80 109 68 60 51 60 52 71 62 68 61 80 96 103 103 104 102 
102 105 103 104 105 78 73 71 69 76 84 95 63 36 82 104 37 59 114 56 44 37 42 33 87 37 30 29 57 73 90 91 66 55 56 59 65 76 61 59 75 88 101 102 104 102 
105 104 103 96 105 43 73 60 87 78 91 81 57 41 59 64 36 81 99 34 18 48 25 32 53 68 36 30 34 41 68 91 86 51 50 62 62 73 94 61 73 97 97 100 103 100 
102 104 108 79 75 88 79 58 87 71 55 50 57 41 47 41 50 61 82 86 80 72 37 38 45 67 39 36 31 43 58 76 73 51 48 34 91 85 62 67 75 101 97 102 106 103 
105 105 74 51 90 81 63 66 45 49 71 47 42 50 34 33 47 45 83 82 77 59 67 51 37 49 52 34 32 39 54 96 48 71 44 41 81 76 93 66 71 94 100 103 102 102 
101 95 68 58 89 75 83 86 74 59 61 52 54 46 44 41 36 37 42 80 87 47 36 48 49 43 48 44 42 51 65 59 63 50 58 83 85 76 61 67 69 60 103 102 102 105 
97 94 62 71 70 92 85 79 74 66 62 52 48 51 47 55 44 43 38 52 51 91 43 48 47 48 56 52 40 61 79 76 84 77 86 93 72 62 72 61 66 56 107 104 103 104 
94 89 66 55 66 64 68 56 59 53 60 67 73 68 67 69 67 63 52 52 56 46 60 60 55 66 65 68 68 75 86 100 82 90 86 70 66 70 64 56 61 66 96 104 102 103 
87 78 74 56 63 50 59 60 65 65 75 78 81 92 109 126 122 79 71 55 51 73 67 91 101 93 93 90 85 91 86 78 81 73 77 85 78 59 63 61 68 27 99 99 102 100 
78 74 72 56 53 48 48 40 47 87 104 116 124 135 153 158 147 125 105 93 82 99 109 122 138 130 112 114 104 94 86 88 84 85 75 71 70 71 70 59 57 53 83 98 98 100 
69 66 78 37 44 48 39 54 89 118 132 143 144 160 160 166 174 172 152 143 118 128 129 140 143 151 144 129 133 123 123 104 101 94 89 72 80 63 52 45 48 43 43 102 100 103 
71 71 67 63 42 40 50 78 125 133 140 152 160 160 171 177 184 187 175 161 156 144 150 153 153 160 156 155 145 147 133 129 122 120 108 97 74 90 60 43 34 43 26 104 100 103 
69 65 68 64 35 37 74 107 129 138 149 156 164 173 180 180 183 181 182 170 171 163 150 136 163 164 168 163 151 150 147 142 143 139 129 113 104 63 45 54 59 47 55 105 101 101 
68 68 69 52 37 50 96 115 130 142 154 162 168 177 178 180 180 184 180 179 175 176 167 164 163 163 168 168 161 151 148 147 142 136 130 125 118 86 55 33 29 41 69 98 100 102 
68 65 71 52 40 78 117 123 134 131 148 157 166 175 178 179 181 180 183 180 179 180 176 173 176 172 169 167 162 157 152 154 145 132 133 125 124 101 73 41 27 34 86 96 99 100 
67 68 67 61 38 93 115 121 135 132 146 153 158 168 173 176 172 175 176 175 174 180 173 176 176 167 164 168 162 165 154 158 151 134 138 125 124 110 76 50 38 31 93 95 99 98 
69 69 71 61 49 100 110 123 133 134 137 153 157 165 156 165 171 172 170 176 174 171 171 174 176 172 168 164 160 161 162 159 150 135 136 125 129 105 82 47 50 33 97 94 96 97 
67 65 65 61 57 101 105 129 136 135 135 144 158 166 163 170 171 168 171 174 166 172 168 174 173 176 175 171 169 168 156 159 149 133 137 124 129 118 90 58 45 47 93 89 91 99 
66 69 65 61 57 98 99 126 133 134 144 155 161 159 169 171 173 167 172 173 162 166 169 178 174 174 175 168 172 167 155 155 151 137 139 126 126 124 108 62 48 40 89 90 91 91 
65 68 66 60 50 97 105 119 126 139 148 148 163 165 172 171 172 169 166 165 164 166 157 172 172 175 172 166 168 164 153 153 150 132 135 130 123 121 116 70 52 53 87 87 89 90 
66 67 67 63 38 98 104 108 128 139 146 146 141 158 165 163 168 157 163 166 167 163 158 158 148 139 141 143 145 144 143 154 154 133 127 128 125 120 114 72 46 84 139 106 85 84 
65 64 65 66 29 101 101 112 120 134 146 132 130 139 143 152 159 143 153 159 158 157 156 144 122 104 103 102 119 127 133 141 140 134 128 124 124 124 111 77 47 136 108 111 82 84 
68 65 64 70 40 94 96 102 108 114 110 97 101 95 107 123 135 137 145 151 142 145 133 126 104 101 105 118 126 124 137 141 135 124 127 126 127 122 120 87 112 119 89 133 84 83 
65 66 69 118 96 90 94 96 99 110 104 104 93 81 75 84 103 127 143 165 164 136 115 105 105 94 80 90 102 105 113 122 124 126 129 123 132 129 123 99 112 146 110 133 78 82 
68 64 83 31 119 78 98 94 101 101 82 85 110 102 83 63 71 79 140 173 175 154 119 114 105 102 114 73 114 29 95 104 115 123 133 129 136 126 118 111 97 127 128 119 82 80 
62 65 79 41 53 94 95 82 98 60 84 88 53 116 85 86 87 59 132 179 180 164 126 144 130 85 148 76 60 69 125 80 115 124 140 137 132 125 116 106 111 108 141 94 82 81 
65 69 64 72 61 81 105 99 94 71 54 124 74 72 136 110 85 92 124 174 183 176 122 146 148 128 129 150 140 134 128 123 136 131 151 148 127 126 108 151 139 119 143 75 83 82 
65 66 64 73 86 76 103 136 109 108 109 122 135 137 132 131 124 117 116 185 181 172 117 149 161 142 138 142 145 143 146 150 151 158 163 152 124 119 98 153 131 121 133 71 82 78 
69 65 65 56 94 80 97 139 150 136 128 133 141 150 150 151 147 128 111 175 183 168 129 140 150 176 169 151 156 156 160 169 165 169 168 148 119 120 98 120 148 117 128 79 82 82 
67 66 66 65 73 95 85 133 148 154 139 146 148 151 161 161 140 122 119 161 177 162 134 143 148 174 177 181 173 170 170 175 174 164 155 141 117 119 102 138 151 119 104 79 81 82 
63 64 69 60 55 92 81 120 146 149 151 155 160 165 162 157 144 121 141 165 176 172 153 137 158 175 179 181 178 174 168 164 163 154 147 135 114 122 103 147 144 128 75 82 82 83 
63 64 62 65 68 88 87 102 128 138 143 148 152 159 161 155 129 121 154 180 184 178 154 127 148 155 179 175 174 175 170 161 161 151 136 125 114 125 107 141 138 121 75 82 84 81 
63 61 63 61 69 52 127 79 116 129 137 145 150 148 153 123 139 120 153 177 189 182 152 130 163 131 149 169 165 163 160 160 147 146 133 124 121 122 61 109 106 77 82 78 82 78 
62 62 66 62 63 49 112 70 104 117 131 142 141 147 133 93 132 98 129 162 163 162 128 127 150 118 142 148 162 158 155 153 142 139 130 122 122 121 58 75 76 82 81 77 80 79 
66 61 64 61 56 60 64 84 95 110 121 133 139 137 120 99 86 63 71 115 130 118 81 71 99 135 156 147 151 158 153 152 146 135 129 125 127 118 62 76 80 80 81 81 80 81 
60 63 62 64 60 62 63 70 91 101 109 124 136 140 132 110 86 52 60 81 100 108 124 112 127 141 151 163 143 154 152 150 140 132 129 127 123 120 59 79 80 79 77 78 84 83 
66 63 59 60 63 64 66 58 87 98 106 123 132 137 138 135 132 97 77 77 89 109 124 137 138 140 149 154 163 149 151 142 137 131 127 121 121 119 65 81 80 80 81 79 81 83 
66 57 63 63 61 61 61 54 90 97 100 118 135 154 143 131 126 128 128 124 120 123 129 138 140 137 141 148 153 154 149 140 140 131 128 125 120 108 71 80 82 80 77 78 78 80 
67 61 62 62 64 61 59 58 86 90 103 110 136 142 130 126 123 146 157 168 138 145 140 144 145 137 134 133 137 148 141 136 135 129 133 126 124 85 73 78 78 77 79 79 78 77 
68 66 62 60 62 63 61 64 60 90 96 97 127 132 115 103 99 72 75 80 81 88 70 87 90 108 116 107 132 136 134 137 131 133 126 125 113 83 78 82 80 76 76 79 79 80 
66 63 63 59 59 64 61 64 59 86 93 92 127 129 115 83 39 23 83 132 98 138 121 64 64 37 74 107 130 137 136 135 131 130 124 124 118 79 83 78 77 78 77 78 79 81 
63 60 62 60 61 62 57 61 61 55 83 87 122 135 134 149 99 89 52 58 42 57 73 120 81 100 104 136 145 143 140 130 132 129 126 109 136 76 79 76 81 81 79 79 75 76 
68 67 64 65 61 60 57 56 58 61 83 85 93 129 155 141 122 115 112 121 95 133 125 126 113 127 118 137 143 150 134 129 129 124 115 121 139 34 84 78 75 79 79 76 76 75 
63 65 60 62 62 61 58 58 61 61 44 88 80 119 140 141 120 106 98 112 124 132 130 129 114 110 126 137 142 139 130 129 123 121 102 134 135 0 155 117 73 77 76 81 77 80 
67 62 64 58 58 57 58 58 57 61 9 94 84 95 128 130 119 104 91 97 101 111 104 106 105 120 123 139 147 138 126 127 120 99 128 136 142 13 106 142 144 127 77 77 81 78 
68 68 61 62 61 58 60 56 61 31 6 106 75 85 108 133 132 117 106 107 107 103 106 108 119 123 133 144 151 137 124 118 97 117 132 128 138 15 46 147 142 146 152 123 113 100 
71 64 62 62 58 58 60 63 113 13 6 108 86 81 100 125 150 144 126 125 126 124 125 128 132 136 143 151 146 128 116 89 107 126 130 122 121 14 24 153 160 141 161 127 132 139 
70 66 62 60 62 61 56 74 164 12 5 107 89 75 87 106 132 144 156 161 162 154 154 155 156 145 143 143 129 106 90 105 128 119 126 120 91 18 14 149 155 152 154 146 142 151 
69 68 60 59 59 54 93 147 145 14 5 100 90 82 59 86 116 127 132 137 132 148 138 146 147 143 139 131 108 86 104 125 130 127 126 116 52 28 20 159 161 148 152 140 157 121 
69 71 65 63 67 87 147 168 146 20 7 86 98 92 72 60 75 103 114 116 119 124 127 120 123 125 121 97 74 113 120 118 123 129 122 112 18 34 62 162 157 154 153 137 159 126 
69 78 133 166 172 148 142 162 187 15 25 72 86 97 85 62 54 53 83 101 103 113 105 110 109 103 73 85 114 119 116 121 130 128 122 67 26 15 144 154 155 159 156 150 153 140 
144 178 165 175 192 140 152 160 191 37 35 33 80 90 97 83 64 56 46 42 54 62 59 67 65 75 95 117 115 116 113 125 133 126 90 25 38 65 164 158 145 160 148 147 161 147 
159 164 151 186 178 145 151 143 183 194 15 33 54 87 95 93 80 65 55 47 50 57 56 59 85 100 113 121 120 116 119 131 131 106 21 35 24 119 161 166 157 148 144 150 171 155 
